<?xml version="1.0" standalone="no"?>
<!DOCTYPE svg PUBLIC "-//W3C//DTD SVG 1.1//EN" "http://www.w3.org/Graphics/SVG/1.1/DTD/svg11.dtd" >
<svg xmlns="http://www.w3.org/2000/svg">
<metadata>
Created by FontPrep 20130207 at Thu Feb 19 11:09:11 2015
 By Simon Egli
</metadata>
<defs>
<font id="bf0848bc2265b644c18cf6c67ee6147c" horiz-adv-x='1024' >
  <font-face 
    font-family="SeanSlab-CompressedBold"
    font-weight="256"
    font-stretch="condensed"
    units-per-em="2048"
    panose-1="0 0 0 0 0 0 0 0 0 0"
    ascent="1434"
    descent="-614"
    x-height="1092"
    cap-height="1479"
    bbox="-12 -625 3000 2202"
    underline-thickness="0"
    underline-position="0"
    unicode-range="U+0020-FB02"
  />
<missing-glyph horiz-adv-x="1024" 
d="M205 -512h614v2048h-614v-2048zM102 -614v2252h820v-2252h-820z" />
    <glyph glyph-name=".notdef" horiz-adv-x="1024" 
d="M205 -512h614v2048h-614v-2048zM102 -614v2252h820v-2252h-820z" />
    <glyph glyph-name=".null" horiz-adv-x="0" 
 />
    <glyph glyph-name="nonmarkingreturn" horiz-adv-x="681" 
 />
    <glyph glyph-name="space" unicode=" " horiz-adv-x="491" 
 />
    <glyph glyph-name="exclam" unicode="!" horiz-adv-x="407" 
d="M203 -8q-55 0 -89 28t-34 75q0 48 35 77t89 29t89 -28t35 -77q0 -104 -125 -104zM305 469h-207v1010h207v-1010z" />
    <glyph glyph-name="quotedbl" unicode="&#x22;" horiz-adv-x="708" 
d="M627 1255h-197v385h197v-385zM287 1255h-205v385h205v-385z" />
    <glyph glyph-name="numbersign" unicode="#" horiz-adv-x="1069" 
d="M608 629l70 297h-223l-68 -297h221zM852 467h-76l-90 -387h-205l90 387h-223l-86 -373h-196l84 373h-87l21 82l18 80h84l68 297h-88l39 159h86l88 394h205l-92 -394h223l90 394h205l-90 -394h75l-18 -79l-21 -80h-73l-70 -297h80z" />
    <glyph glyph-name="dollar" unicode="$" horiz-adv-x="890" 
d="M514 -86h-207v184q-117 20 -237 95v245h163v-133q103 -55 191 -55t147 49t59 137t-74 144q-75 56 -185 112q-147 80 -225 170q-76 90 -76 213t68 206q69 83 188 112v190h204v-184q117 -18 238 -101v-245h-164v147q-80 45 -163 45t-125 -47q-42 -48 -42 -104t16 -90
q27 -60 114 -115q30 -18 88 -51q164 -88 254 -180t90 -223q0 -130 -88 -219t-234 -116v-186z" />
    <glyph glyph-name="percent" unicode="%" horiz-adv-x="1787" 
d="M1229 326q0 -299 176 -299q94 -1 126 77t32 218t-35 217q-35 78 -129 77h-4q-94 0 -130 -78t-36 -212zM1055 325q0 201 88 319t260 118h4q168 0 253 -118t85 -318t-88 -322q-88 -123 -259 -123t-257 122t-86 322zM217 1057q0 -299 176 -299q94 0 126 78t32 217t-35 217
t-129 78h-4q-94 0 -130 -78t-36 -213zM678 -115h-191l639 1600h191zM43 1055q0 201 88 319t260 119h4q168 0 253 -118q85 -117 85 -317t-88 -323t-260 -123t-257 121t-85 322z" />
    <glyph glyph-name="ampersand" unicode="&#x26;" horiz-adv-x="1155" 
d="M460 -10q-190 0 -295 112t-106 291q-1 125 63 214t187 181q-147 195 -147 352t81 253t221 96t224 -94t84 -246q0 -201 -219 -385q56 -70 225 -301q31 94 62 221l84 -16l82 -19q-43 -207 -109 -346q25 -34 225 -303h-235q-15 19 -101 137q-136 -147 -326 -147zM455 152
q147 0 233 122q-199 276 -274 381q-74 -59 -111 -119t-37 -154t49 -163q50 -67 140 -67zM354 1145q0 -113 97 -246q115 109 114 250q0 178 -108 178q-103 0 -103 -182z" />
    <glyph glyph-name="quotesingle" unicode="'" horiz-adv-x="366" 
d="M287 1255h-205v385h205v-385z" />
    <glyph glyph-name="parenleft" unicode="(" horiz-adv-x="610" 
d="M55 668q0 366 93 646t313 572l123 -102q-186 -260 -257 -515t-71 -602t71 -601t259 -508l-123 -113q-221 297 -315 577q-93 280 -93 646z" />
    <glyph glyph-name="parenright" unicode=")" horiz-adv-x="628" 
d="M371 668q0 344 -74 598t-268 512l125 112q227 -294 323 -572t96 -648t-99 -654q-99 -285 -327 -600l-124 105q190 276 269 539q79 264 79 608z" />
    <glyph glyph-name="asterisk" unicode="*" horiz-adv-x="690" 
d="M461 1022l127 -154l-139 -108q-29 50 -97 151q-14 -23 -49 -75t-53 -78l-139 110q31 37 129 150q-115 39 -164 59l55 152q47 -25 137 -70q-8 123 -14 184h182q-2 -33 -6 -186q33 18 129 72l29 -76l26 -76q-20 -8 -70 -25t-83 -30z" />
    <glyph glyph-name="plus" unicode="+" horiz-adv-x="1146" 
d="M1094 553h-424v-463h-193v463h-422v176h422v463h193v-463h424v-176z" />
    <glyph glyph-name="comma" unicode="," horiz-adv-x="491" 
d="M414 180l-187 -411h-190l129 411h248z" />
    <glyph glyph-name="hyphen" unicode="-" horiz-adv-x="591" 
d="M514 483h-436v176h436v-176z" />
    <glyph glyph-name="period" unicode="." horiz-adv-x="391" 
d="M197 -12q-121 0 -121 102q0 49 32 77t87 28t89 -27t33 -78q1 -102 -120 -102z" />
    <glyph glyph-name="slash" unicode="/" horiz-adv-x="925" 
d="M246 -66h-205q213 569 639 1713h205q-426 -1144 -639 -1713z" />
    <glyph glyph-name="zero" unicode="0" horiz-adv-x="1128" 
d="M260 726q0 -418 154 -524q63 -44 158 -44q189 0 247 177q47 144 47 382t-25 341t-59 152t-90 80q-57 31 -135 31t-133 -32t-87 -81t-49 -130q-28 -133 -28 -352zM63 739q0 750 512 750q489 0 489 -750t-501 -749q-500 -1 -500 749z" />
    <glyph glyph-name="one" unicode="1" horiz-adv-x="770" 
d="M182 0v162h174v1063l-200 -203l-109 129l309 328h205v-1317h176v-162h-555z" />
    <glyph glyph-name="two" unicode="2" horiz-adv-x="892" 
d="M666 381h161v-381h-772l2 80v82q197 225 328 383q225 254 225 502q0 274 -174 274q-55 0 -100 -34q-46 -33 -62 -61t-38 -72t-26 -49q-3 -5 -5 -11l-146 84q123 311 385 311q176 0 268 -116t91 -309q0 -194 -77 -342t-212 -296q-182 -213 -238 -264l390 -2v221z" />
    <glyph glyph-name="three" unicode="3" horiz-adv-x="856" 
d="M371 -10q-90 0 -160 32t-154 99l113 121q106 -84 208 -84t161 71q59 72 59 197t-69 207t-177 82v137q90 0 144 68q53 68 53 173t-46 167t-140 61q-94 0 -170 -123l-66 43q0 2 -66 43q45 90 131 148t193 57q172 1 266 -103t94 -296t-139 -299q188 -109 189 -361
q-1 -212 -111 -326t-313 -114z" />
    <glyph glyph-name="four" unicode="4" horiz-adv-x="956" 
d="M514 668v450l-276 -450h276zM715 1444v-776h190v-176h-190v-332h174v-160h-557v160h182v332h-385l-92 176l473 776h205z" />
    <glyph glyph-name="five" unicode="5" horiz-adv-x="837" 
d="M780 480q0 -212 -116 -351t-296 -139t-313 116l105 125q110 -73 208 -73t153 93q54 93 54 230q0 309 -182 310q-53 0 -100 -43l-197 63v668h637v-160l-440 -2v-373q55 18 108 19q183 1 281 -135t98 -348z" />
    <glyph glyph-name="six" unicode="6" horiz-adv-x="937" 
d="M492 170q92 0 135 76t43 192q0 285 -191 285q-152 0 -223 -166v-37q0 -350 236 -350zM874 443q0 -209 -102 -335t-300 -126t-306 144t-109 384q0 727 723 985l62 -162q-393 -137 -531 -493q80 53 181 53q184 0 283 -121t99 -329z" />
    <glyph glyph-name="seven" unicode="7" horiz-adv-x="858" 
d="M231 1319v-205h-161v365h761v-160l-557 -1319h-206l577 1319h-414z" />
    <glyph glyph-name="eight" unicode="8" horiz-adv-x="905" 
d="M455 160q90 0 136 58t46 158t-46 167q-46 68 -136 131q-94 -68 -141 -133q-46 -66 -46 -162q1 -219 187 -219zM610 1123q0 87 -41 143t-121 55q-80 1 -116 -55t-37 -143q0 -87 40 -141t122 -110q77 52 115 108t38 143zM90 1118q0 174 96 272t270 99q174 0 267 -97
q92 -97 92 -278q0 -116 -52 -192t-157 -148q119 -84 178 -173t60 -222q0 -185 -106 -287t-290 -102q-186 0 -286 102t-101 287q1 133 61 221t181 172q-105 74 -159 152t-54 194z" />
    <glyph glyph-name="nine" unicode="9" horiz-adv-x="933" 
d="M463 756q141 0 213 121q2 27 2 84q0 348 -234 348q-92 0 -139 -75t-47 -199q0 -123 50 -201t155 -78zM444 586q-186 0 -285 121t-99 329t100 335q102 126 302 126t308 -144t107 -384q1 -369 -177 -621t-503 -379l-80 160q406 162 518 518q-84 -61 -191 -61z" />
    <glyph glyph-name="colon" unicode=":" horiz-adv-x="395" 
d="M199 -12q-121 0 -121 102q0 49 32 77t87 28t89 -27t33 -78q1 -102 -120 -102zM199 707q-121 0 -121 102q0 49 32 77t87 28t89 -28q34 -26 33 -77q1 -102 -120 -102z" />
    <glyph glyph-name="semicolon" unicode=";" horiz-adv-x="561" 
d="M70 -203q13 37 133 371h262q-79 -142 -97 -188t-92 -183h-206zM459 809q0 -102 -121 -102t-121 102q0 49 32 77t87 28t89 -28q34 -26 34 -77z" />
    <glyph glyph-name="less" unicode="&#x3c;" horiz-adv-x="1026" 
d="M971 -14l-928 540v176l456 276t457 277v-176q-298 -176 -766 -463l781 -454v-176z" />
    <glyph glyph-name="equal" unicode="=" horiz-adv-x="1099" 
d="M1020 360h-942v170h942v-170zM1020 815h-942v170h942v-170z" />
    <glyph glyph-name="greater" unicode="&#x3e;" horiz-adv-x="1026" 
d="M70 -14v176q129 78 384 232t382 231l-781 454v176l928 -540v-176q-153 -93 -457 -277z" />
    <glyph glyph-name="question" unicode="?" horiz-adv-x="657" 
d="M211 -12q-55 0 -88 26t-33 76q0 49 34 77t87 28q121 1 121 -103t-121 -104zM313 453h-207v290h87q106 -1 156 89t50 229q0 276 -186 276q-45 0 -82 -20l-63 162q72 33 163 32q169 0 267 -127t98 -313t-74 -313t-209 -168v-137z" />
    <glyph glyph-name="at" unicode="@" horiz-adv-x="1312" 
d="M664 182q86 0 110 119q-6 55 -6 145t-22 146q-22 57 -94 57t-94 -56q-24 -56 -23 -161q0 -250 129 -250zM676 -307q-297 1 -458 195t-161 525t158 525t449 195t439 -191t148 -512q0 -182 -56 -284t-194 -101q-102 0 -161 70q-68 -94 -199 -95q-287 0 -287 396t303 395
q147 0 223 -104t76 -279v-57q0 -112 16 -143q16 -30 40 -30t42 21q18 20 19 75q2 55 2 105v23q0 244 -104 394t-308 149q-204 0 -314 -151q-109 -152 -109 -400t114 -404t330 -155q106 0 199 63l80 -137q-73 -51 -135 -69t-152 -19z" />
    <glyph glyph-name="A" unicode="A" horiz-adv-x="1374" 
d="M1370 160v-160h-600v160h191q-59 225 -78 299h-381q-60 -220 -86 -299h180v-160h-600v160h197l419 1319h189q16 -59 373 -1319h196zM838 629l-136 522q-28 -91 -151 -522h287z" />
    <glyph glyph-name="B" unicode="B" horiz-adv-x="1081" 
d="M588 750h-160v-590h158q113 0 172 77t59 211t-56 218t-173 84zM578 1319h-150v-408h160q78 1 118 53t40 145t-42 151t-126 59zM41 0v160h174v1159h-172v160h535q176 1 273 -99t97 -273t-135 -271q209 -123 209 -392q0 -208 -116 -326t-320 -118h-545z" />
    <glyph glyph-name="C" unicode="C" horiz-adv-x="1087" 
d="M594 -10q-270 0 -400 194t-130 532q0 339 135 556q136 217 434 217q190 0 381 -150v-245h-164v155q-109 72 -225 72q-199 0 -278 -162t-79 -433q0 -270 75 -418t261 -148q96 0 166 40t150 122l59 -60q2 0 61 -61q-94 -107 -198 -159t-248 -52z" />
    <glyph glyph-name="D" unicode="D" horiz-adv-x="1236" 
d="M580 1319h-160v-1159h196q197 0 277 147t80 412q0 441 -203 556q-77 44 -190 44zM43 0v160h172v1159h-172v160h545q301 0 445 -199q145 -199 145 -547q0 -349 -142 -541t-438 -192h-555z" />
    <glyph glyph-name="E" unicode="E" horiz-adv-x="1009" 
d="M43 0v160h174v1159h-174v160h868v-326h-163v166h-326v-473h395v-162h-395v-524h377v166h162v-326h-918z" />
    <glyph glyph-name="F" unicode="F" 
d="M43 0v160h174v1159h-174v160h875v-326h-162v166h-334v-473h387v-162h-387v-524h176v-160h-555z" />
    <glyph glyph-name="G" unicode="G" horiz-adv-x="1185" 
d="M655 -10q-297 0 -445 202t-148 548q0 347 142 548q144 201 435 201q250 0 457 -170v-246h-164v156q-133 90 -293 90q-373 0 -373 -561q0 -598 389 -598q152 0 279 69v330h-199v162h385v-561q-127 -90 -228 -130t-237 -40z" />
    <glyph glyph-name="H" unicode="H" horiz-adv-x="1396" 
d="M43 0v160h174v1159h-174v160h555v-160h-176v-496h553v496h-174v160h555v-160h-176v-1159h176v-160h-555v160h174v502h-553v-502h176v-160h-555z" />
    <glyph glyph-name="I" unicode="I" horiz-adv-x="641" 
d="M43 0v160h174v1159h-174v160h555v-160h-176v-1159h176v-160h-555z" />
    <glyph glyph-name="J" unicode="J" horiz-adv-x="823" 
d="M256 -8q-113 0 -219 94q86 119 94 129q72 -59 125 -59t85 24q69 51 69 299v840h-174v160h555v-160h-177v-840q0 -239 -85 -363t-273 -124z" />
    <glyph glyph-name="K" unicode="K" horiz-adv-x="1198" 
d="M1186 160v-160h-565v160h124q-217 262 -323 393v-393h113v-160h-492v160h174v1159h-174v160h485v-160h-106v-328q94 111 283 328h-109v160h553v-160h-217q-160 -178 -473 -541q98 -121 518 -618h209z" />
    <glyph glyph-name="L" unicode="L" horiz-adv-x="995" 
d="M43 160h176v1159h-178l2 80v80h553v-160h-172v-1159h364v166h164v-326h-911l2 80v80z" />
    <glyph glyph-name="M" unicode="M" horiz-adv-x="1650" 
d="M588 160v-160h-555v160h196q18 342 68 1159h-178l2 80v80h364q225 -791 338 -1188l336 1188h369v-160h-164l80 -1159h176v-160h-555v160h174q-8 123 -15 260t-16 304q-8 167 -12 259q-100 -350 -274 -983h-193q-92 328 -276 979l-47 -819h182z" />
    <glyph glyph-name="N" unicode="N" horiz-adv-x="1439" 
d="M43 0v160h174v1159h-172v160h387l596 -1100v940h-174v160h555v-160h-176v-1319h-213q-100 184 -299 551t-299 549v-940h176v-160h-555z" />
    <glyph glyph-name="O" unicode="O" horiz-adv-x="1196" 
d="M268 724q0 -410 169 -521q69 -45 167 -45q197 0 265 178q59 149 61 407q0 578 -342 578q-149 0 -230 -115q-90 -132 -90 -482zM596 -10q-270 0 -402 206t-131 542q1 337 135 544t405 207t401 -205t131 -541q0 -461 -231 -651q-124 -102 -308 -102z" />
    <glyph glyph-name="P" unicode="P" horiz-adv-x="1019" 
d="M43 0v160h174v1159h-174v160h485q203 1 320 -135t117 -348t-112 -334t-308 -125q-66 0 -123 24v-401h176v-160h-555zM575 692q88 0 137 81q48 81 48 220t-67 233t-191 93h-80v-592q65 -35 153 -35z" />
    <glyph glyph-name="Q" unicode="Q" horiz-adv-x="1218" 
d="M268 737q0 -422 172 -534q70 -45 167 -45q196 0 264 176q61 154 61 405q0 573 -338 574q-194 0 -264 -174q-62 -149 -62 -402zM63 737q1 340 137 549t407 209t401 -206t129 -517t-95 -508t-288 -254q82 -150 188 -222t266 -73v-168q-242 1 -398 107t-265 338
q-164 14 -275 118q-207 194 -207 627z" />
    <glyph glyph-name="R" unicode="R" horiz-adv-x="1269" 
d="M422 639v-479h174v-160h-555v160h176v1159h-176v160h557q186 -1 290 -107t105 -297q0 -303 -229 -399l272 -516h236v-160h-365l-340 639h-145zM561 1319h-139v-518h174q190 0 190 260q0 119 -58 189t-167 69z" />
    <glyph glyph-name="S" unicode="S" horiz-adv-x="909" 
d="M842 364q0 -166 -118 -270t-302 -104t-344 123v290h164v-178q96 -67 188 -67t150 65q57 66 57 156t-66 161q-66 70 -202 152q-137 82 -215 180t-78 253t100 252t268 97t328 -118v-277h-164v193q-86 49 -163 49t-119 -53t-43 -135v-11q0 -88 60 -156t171 -137
q164 -98 246 -198t82 -267z" />
    <glyph glyph-name="T" unicode="T" horiz-adv-x="1026" 
d="M233 0v160h179v1149h-201v-158h-162v328h930v-328h-164v158h-199v-1149h172v-160h-555z" />
    <glyph glyph-name="U" unicode="U" horiz-adv-x="1368" 
d="M1153 567q0 -578 -475 -577q-244 0 -354 144t-111 423v762h-180v160h553v-160h-187v-729q0 -207 66 -315t227 -107q272 0 273 377v774h-183v160h553v-160h-182v-752z" />
    <glyph glyph-name="V" unicode="V" horiz-adv-x="1366" 
d="M0 1319v160h614v-160h-204q135 -481 278 -1014q141 535 273 1014h-209v160h614v-160h-199q-211 -756 -370 -1319h-222q-213 754 -376 1319h-199z" />
    <glyph glyph-name="W" unicode="W" horiz-adv-x="1669" 
d="M8 1319v160h567v-160h-192q55 -309 166 -924q125 666 205 1084h184q29 -179 89 -539t89 -541q29 154 86 460t86 460h-184v160h561v-160h-199q-188 -965 -256 -1319h-174q-33 184 -98 532q-66 348 -94 506l-4 21q-100 -508 -215 -1059h-174q-66 358 -244 1319h-199z" />
    <glyph glyph-name="X" unicode="X" horiz-adv-x="1273" 
d="M1262 160v-160h-568v160h150q-77 160 -203 407q-35 -67 -103 -203t-104 -204h146v-160h-568v160h205l159 312q105 208 156 312q-158 309 -266 535h-209v160h543v-160h-121q27 -53 81 -161t81 -161q27 53 81 161t81 161h-121v160h541v-160h-205q-135 -264 -270 -537
q277 -554 313 -622h201z" />
    <glyph glyph-name="Y" unicode="Y" horiz-adv-x="1251" 
d="M8 1479h580v-160h-152q61 -150 180 -449q107 230 199 449h-145v160h579v-160h-227q-33 -70 -291 -629v-530h164v-160h-553v160h164v530l-273 629h-227l2 80v80z" />
    <glyph glyph-name="Z" unicode="Z" horiz-adv-x="1071" 
d="M1026 0h-983v160q565 950 688 1159h-469v-166h-162v326h879v-160q-459 -769 -519 -864q-61 -95 -177 -295h581v166h162v-326z" />
    <glyph glyph-name="bracketleft" unicode="[" horiz-adv-x="436" 
d="M393 -240h-319v1817h319v-176h-114v-1462h114v-179z" />
    <glyph glyph-name="backslash" unicode="\" horiz-adv-x="888" 
d="M846 -139h-215q-195 623 -588 1868h215q195 -623 588 -1868z" />
    <glyph glyph-name="bracketright" unicode="]" horiz-adv-x="438" 
d="M365 -240h-324l2 88v91h117v1462h-117v176h322v-1817z" />
    <glyph glyph-name="asciicircum" unicode="^" horiz-adv-x="864" 
d="M592 938q-53 129 -160 395q-106 -262 -160 -395h-204q86 217 262 647h205q25 -59 119 -291t143 -356h-205z" />
    <glyph glyph-name="underscore" unicode="_" horiz-adv-x="1048" 
d="M1034 -395h-1022v162h1022v-162z" />
    <glyph glyph-name="grave" unicode="`" horiz-adv-x="686" 
d="M283 1550q14 -20 124 -170t123 -170h-225q-14 22 -126 174t-122 166h226z" />
    <glyph glyph-name="a" unicode="a" 
d="M586 0v94q-98 -104 -238 -104t-215 87q-74 87 -74 242q0 272 326 330q45 7 113 17t88 14v45q0 209 -166 209q-80 0 -150 -49v-185h-164v246q135 150 343 150q344 0 344 -324v-612h161v-160h-368zM391 150q70 0 110 36t85 115v238q-142 -28 -198 -36q-56 -9 -93 -57
t-37 -116q0 -180 133 -180z" />
    <glyph glyph-name="b" unicode="b" horiz-adv-x="1085" 
d="M610 158h2q207 0 207 364v15q0 175 -30 254t-73 111q-44 32 -108 32q-115 0 -213 -115v-559q96 -102 215 -102zM631 -10q-135 0 -236 78v-68h-375v160h170v1319h-172l2 80v79h375v-634q109 98 240 98q193 0 292 -156t99 -400t-101 -400t-294 -156z" />
    <glyph glyph-name="c" unicode="c" horiz-adv-x="864" 
d="M791 717h-162v170q-70 47 -135 47q-128 0 -178 -101t-50 -285t52 -288q52 -102 184 -102q88 0 172 127l137 -97q-106 -198 -322 -198t-323 147q-106 147 -106 409t110 408q111 147 332 148q150 0 289 -139v-246z" />
    <glyph glyph-name="d" unicode="d" horiz-adv-x="1093" 
d="M692 0v76q-96 -80 -227 -80q-199 0 -303 152t-104 395q0 241 102 397q104 156 309 156q125 0 223 -64v447h-172v159h385v-1478h170v-160h-383zM497 158q120 0 195 114v580q-82 82 -182 82q-129 0 -187 -108q-59 -108 -59 -280t56 -280t177 -108z" />
    <glyph glyph-name="e" unicode="e" horiz-adv-x="899" 
d="M456 934q-100 0 -140 -73t-46 -212h373q-4 137 -45 211t-142 74zM498 -10q-223 0 -329 155q-105 156 -105 415q0 258 98 400t296 142t288 -132q91 -132 92 -364v-108h-568q6 -162 56 -251t160 -89t196 106l127 -112q-77 -84 -147 -123t-164 -39z" />
    <glyph glyph-name="f" unicode="f" horiz-adv-x="739" 
d="M598 162v-162h-555v162h174v762h-174v161h174v185q0 170 81 274t228 105q94 0 195 -68v-246h-162v156q-20 4 -33 4q-62 0 -82 -59t-22 -172v-179h237v-161h-237v-762h176z" />
    <glyph glyph-name="g" unicode="g" horiz-adv-x="962" 
d="M250 -218q0 -120 62 -184t166 -63q106 0 176 53t71 150q0 178 -274 209q-76 6 -129 26q-72 -71 -72 -191zM111 703q0 171 99 285t267 114q133 0 225 -74q115 82 127 90l105 -151q-86 -53 -131 -80q33 -74 33 -176q0 -174 -102 -282t-271 -107q-63 0 -119 18
q-20 -38 -20 -100t45 -99t118 -43q189 -18 307 -103t117 -241v-4q0 -176 -126 -275t-316 -99t-307 102q-117 104 -117 283t139 292q-68 71 -68 181t87 196q-92 102 -92 273zM317 708q0 -100 42 -162t120 -62t115 62t37 159q0 236 -154 235q-80 0 -120 -66t-40 -166z" />
    <glyph glyph-name="h" unicode="h" horiz-adv-x="1144" 
d="M623 160h129v495q0 137 -29 208t-119 71q-125 0 -205 -158v-616h127v-160l-166 -2h-63l-279 2l2 80v80h173v1319h-175l2 80v79q115 0 173 -2v2h206v-680q111 138 268 138t223 -112t66 -312v-512h172v-160l-276 -2l-229 2v160z" />
    <glyph glyph-name="i" unicode="i" horiz-adv-x="598" 
d="M39 0v160h170v772h-170v160h385v-932h156v-160h-541zM436 1372q0 -102 -121 -102t-120 102q0 49 32 77q33 28 87 28t88 -27t34 -78z" />
    <glyph glyph-name="j" unicode="j" horiz-adv-x="505" 
d="M78 -625q-25 0 -53 4l14 78q0 2 14 78q12 -2 33 -2q113 0 113 205v1194h-176v160h176v2h204v-1356q0 -158 -89 -260t-236 -103zM301 1270q-53 0 -86 26t-33 76q0 49 33 77t86 28q123 1 123 -103t-123 -104z" />
    <glyph glyph-name="k" unicode="k" horiz-adv-x="1110" 
d="M18 0v160h175v1319h-173v159h379v-909q118 112 217 203h-102v160h533v-160h-203q-356 -330 -402 -381q41 -45 400 -389h266v-162h-328q-2 2 -381 371v-211h111v-160h-492z" />
    <glyph glyph-name="l" unicode="l" horiz-adv-x="591" 
d="M573 0h-555v160h175v1319h-173l3 80v79h374v-1478h176v-160z" />
    <glyph glyph-name="m" unicode="m" horiz-adv-x="1607" 
d="M39 0v160h174v772h-174v160h379v-113q92 123 237 123q190 0 236 -162q98 162 262 162q198 0 238 -168q22 -93 22 -262v-512h178v-160h-485v160h102v565q0 111 -22 161q-23 50 -105 50q-106 0 -168 -150q2 -35 2 -114v-512h105v-160h-412v160h103v557q0 115 -23 167
t-104 52q-109 0 -166 -143v-633h104v-160h-483z" />
    <glyph glyph-name="n" unicode="n" horiz-adv-x="1165" 
d="M39 0v160h174v772h-174v160h379v-131q110 141 270 141t223 -113t64 -317v-512h174v-160h-506v160h127v495q0 87 -10 143t-47 96t-101 40q-117 0 -194 -158v-616h127v-160h-506z" />
    <glyph glyph-name="o" unicode="o" horiz-adv-x="970" 
d="M252 545q0 -119 16 -198t72 -134t164 -55q110 0 156 102t47 283q0 393 -230 393q-225 0 -225 -391zM59 545q1 253 107 405t320 152t320 -152t105 -406q1 -254 -107 -405q-108 -149 -322 -149t-318 150t-105 405z" />
    <glyph glyph-name="p" unicode="p" horiz-adv-x="1087" 
d="M18 -614v161h175v1385h-173v160h377v-93q115 104 252 105q199 0 289 -153t90 -397t-82 -395q-90 -169 -299 -169q-139 0 -250 94v-537h160v-161h-539zM612 150q209 0 209 364v31q0 289 -101 360q-44 31 -110 31q-115 0 -213 -102v-578q92 -106 215 -106z" />
    <glyph glyph-name="q" unicode="q" horiz-adv-x="1079" 
d="M479 150q119 0 211 120v586q-100 80 -211 80q-177 0 -207 -239q-8 -62 -8 -148q0 -291 106 -368q43 -31 109 -31zM520 -614v161h170v551q-104 -109 -233 -108q-205 0 -301 152t-97 401v10q1 245 93 397t297 152q129 0 241 -98v88h371v-160h-156v-1385h156v-161h-541z" />
    <glyph glyph-name="r" unicode="r" horiz-adv-x="724" 
d="M39 0v160h174v772h-174v160h379v-91q113 100 272 101v-168q-176 0 -272 -96v-678h162v-160h-541z" />
    <glyph glyph-name="s" unicode="s" horiz-adv-x="780" 
d="M386 162q140 0 138 140q0 66 -45 108q-45 41 -131 77q-133 51 -201 128q-67 77 -67 207t80 205t226 75t265 -92v-267h-162v164q-59 27 -113 27t-82 -33t-28 -82q0 -121 152 -180t226 -130t76 -213q1 -142 -88 -224t-245 -82t-328 108v279h162v-170q90 -45 165 -45z" />
    <glyph glyph-name="t" unicode="t" horiz-adv-x="661" 
d="M156 328v600h-127v162h127v139l204 104v-243h254v-162h-254v-592q0 -61 4 -93t25 -59q19 -26 63 -26t91 41l86 -140q-109 -70 -209 -69q-264 0 -264 338z" />
    <glyph glyph-name="u" unicode="u" horiz-adv-x="1124" 
d="M741 0v109q-94 -119 -217 -119q-332 0 -331 428v514h-175v160h379v-668q0 -127 33 -197t125 -69q106 0 186 168v606h-176v160h381v-932h158v-160h-363z" />
    <glyph glyph-name="v" unicode="v" horiz-adv-x="1193" 
d="M14 932v160h535v-160h-125q29 -102 84 -311t84 -312l178 623h-125v160h537v-160h-205q-271 -900 -281 -932h-213q-115 399 -266 932h-203z" />
    <glyph glyph-name="w" unicode="w" horiz-adv-x="1654" 
d="M14 932v160h547v-160h-174q25 -98 75 -298l75 -300q43 158 206 758h189q31 -125 93 -374t93 -374l150 588h-164v160h541v-160h-197q-59 -229 -244 -932h-176q-77 296 -194 768q-70 -256 -213 -768h-177l-235 932h-195z" />
    <glyph glyph-name="x" unicode="x" horiz-adv-x="1153" 
d="M1137 160v-160h-514v160h98q-57 106 -141 250q-76 -131 -144 -250h94v-160h-514v160h232l239 411q-79 134 -206 361h-234v160h492v-160h-74q16 -29 115 -201q20 35 59 102t57 99h-78v160h494v-160h-233q-92 -166 -207 -361l235 -411h230z" />
    <glyph glyph-name="y" unicode="y" horiz-adv-x="1187" 
d="M18 1092h543v-160h-131l154 -486q29 80 87 243t87 243h-117v160h539v-160h-213l-551 -1546h-211v2q-51 -2 -154 -2v159l211 4q129 352 219 613q-86 254 -258 770h-207l2 80v80z" />
    <glyph glyph-name="z" unicode="z" horiz-adv-x="841" 
d="M791 0h-738v160q395 653 465 772h-278v-166h-162v326h694v-160q-154 -250 -253 -411t-123 -199t-43 -69q-19 -32 -56 -93h330v166h164v-326z" />
    <glyph glyph-name="braceleft" unicode="{" horiz-adv-x="436" 
d="M389 -233q-133 0 -201 95t-67 251v340q0 51 -4 81q-5 30 -23 54t-53 24v170q49 0 64 39t16 115v348q0 156 67 249q68 93 201 93v-162q-56 0 -69 -48t-13 -120v-338q0 -172 -76 -262q76 -90 76 -260v-330q0 -143 35 -165q18 -12 47 -13v-161z" />
    <glyph glyph-name="bar" unicode="|" horiz-adv-x="352" 
d="M279 -614h-205v2252h205v-2252z" />
    <glyph glyph-name="braceright" unicode="}" horiz-adv-x="436" 
d="M47 -233v161q37 0 56 26t23 54t3 86v342q0 170 76 260q-76 94 -76 262v338q0 132 -36 156q-17 12 -46 12v162q133 0 201 -93t67 -249v-348q-1 -76 15 -115t65 -39v-170q-63 0 -76 -78q-4 -30 -4 -81v-340q1 -156 -67 -251t-201 -95z" />
    <glyph glyph-name="asciitilde" unicode="~" horiz-adv-x="1052" 
d="M358 770q74 0 124 -30t109 -93t114 -63q29 0 51 28t31 59q9 30 24 81l164 -50q-39 -145 -96 -217t-174 -71q-79 2 -131 30t-109 92q-57 62 -111 62q-76 0 -110 -170l-166 55q33 143 95 215t185 72z" />
    <glyph glyph-name="exclamdown" unicode="&#xa1;" horiz-adv-x="407" 
d="M307 1008l-4 -1010h-102l-103 2l2 1010h105zM203 1278q-55 0 -90 27t-35 77q2 104 127 105q55 -2 89 -29t33 -76q-1 -48 -35 -76t-89 -28z" />
    <glyph glyph-name="cent" unicode="&#xa2;" horiz-adv-x="1003" 
d="M639 -109h-207v215q-190 35 -282 207t-92 431q0 258 102 432q104 174 305 215v202h205v-198q143 -20 274 -152l-117 -127q-123 117 -271 117t-220 -133q-74 -133 -74 -346q0 -487 283 -488q82 0 139 38t129 116l127 -119q-133 -160 -301 -192v-218z" />
    <glyph glyph-name="sterling" unicode="&#xa3;" horiz-adv-x="765" 
d="M662 162v-162h-615v162q164 0 164 272q0 86 -23 256h-102v160h78q-12 98 -12 184q0 444 317 445q76 0 130 -26t112 -89l-107 -117q-76 76 -145 76h-2q-125 0 -125 -229q0 -96 20 -244h228v-162h-205q14 -133 14 -219q0 -195 -57 -307h330z" />
    <glyph glyph-name="currency" unicode="&#xa4;" horiz-adv-x="890" 
d="M123 647q0 119 43 205q-47 63 -94 119l141 129l90 -111q70 33 148 33t141 -27l84 107l139 -129l-90 -113q43 -90 43 -212t-39 -212l100 -125l-149 -118q-25 33 -78 98q-66 -37 -156 -37t-161 39q-60 -72 -82 -105l-70 66l-72 63q66 82 99 121q-37 90 -37 209zM317 643
q0 -105 28 -167t101 -62q121 0 121 224t-125 224t-125 -219z" />
    <glyph glyph-name="yen" unicode="&#xa5;" horiz-adv-x="1253" 
d="M39 1319v160h559v-160h-145q119 -274 176 -412q135 274 205 412h-154v160h534v-160h-159q-47 -94 -137 -263t-123 -233h166v-176h-236v-100h236v-176h-236v-209h176v-162h-555v162h174v209h-229v176h229v100h-229v176h168q-220 474 -230 496h-190z" />
    <glyph glyph-name="brokenbar" unicode="&#xa6;" horiz-adv-x="368" 
d="M287 -614h-205v761h205v-761zM287 877h-205v761h205v-761z" />
    <glyph glyph-name="section" unicode="&#xa7;" horiz-adv-x="819" 
d="M396 -55q-154 0 -281 133v237h164v-165q57 -46 119 -46q120 -1 120 144q0 71 -58 107t-116 61q-135 55 -208 133t-73 201q0 174 132 268q-80 86 -80 222t81 215t214 79t260 -96v-240h-162v156q-35 20 -89 20t-82 -38t-28 -95q0 -115 135 -172q156 -63 235 -134t81 -196
q0 -186 -123 -276q76 -82 80 -215q0 -141 -84 -222q-83 -81 -237 -81zM268 750q0 -46 18 -67t23 -29q7 -8 23 -16q16 -9 23 -14q7 -4 29 -14t35 -17t56 -24q80 53 80 170q0 84 -109 131q-14 6 -53 22t-51 23l-2 3q-72 -57 -72 -168z" />
    <glyph glyph-name="dieresis" unicode="&#xa8;" horiz-adv-x="743" 
d="M498 1268q-121 0 -121 104q0 49 32 77t87 28t89 -27t33 -78q1 -104 -120 -104zM172 1268q-55 0 -88 28t-33 76q0 49 33 77t88 28t89 -27t34 -78q0 -104 -123 -104z" />
    <glyph glyph-name="copyright" unicode="&#xa9;" horiz-adv-x="1196" 
d="M471 664q0 -114 26 -178q25 -64 101 -64t139 67l105 -77q-50 -72 -108 -98t-142 -25q-141 0 -210 100t-69 271q0 170 76 274t222 104t231 -90v-184h-152v117q-37 27 -80 26q-80 -1 -110 -65t-29 -178zM602 1190q-184 0 -280 -150t-97 -378q1 -228 103 -378t283 -149
t273 149t91 376q0 228 -94 379q-95 151 -279 151zM606 4q-252 0 -398 185t-147 472t145 473t396 187q250 0 392 -186t142 -472q0 -287 -138 -473q-140 -186 -392 -186z" />
    <glyph glyph-name="ordfeminine" unicode="&#xaa;" horiz-adv-x="749" 
d="M426 872v54q-61 -58 -151 -58q-91 0 -147 56t-56 153q0 174 231 211q80 14 123 19v30q0 96 -104 97q-61 0 -115 -50v-59h-109v135q94 111 228 111q274 0 274 -201v-387h78v-111h-252zM326 995q59 0 100 76v123q-18 -4 -53 -10t-54 -10q-82 -14 -81 -91q0 -88 88 -88z" />
    <glyph glyph-name="guillemotleft" unicode="&#xab;" horiz-adv-x="808" 
d="M383 268l-315 224v176l315 219v-176l-190 -131l190 -136v-176zM739 268l-313 224v176l313 219v-176l-188 -131l188 -136v-176z" />
    <glyph glyph-name="logicalnot" unicode="&#xac;" horiz-adv-x="989" 
d="M911 293h-202v260h-615v176h817v-436z" />
    <glyph glyph-name="registered" unicode="&#xae;" horiz-adv-x="1222" 
d="M586 426h41v-131h-265v131h56v471h-56v131h263q98 0 155 -60q58 -60 58 -181t-93 -179l91 -182h57v-131h-178q-23 51 -69 143t-60 123v-135zM594 897h-8v-195h28q74 0 74 95q0 47 -24 73t-70 27zM616 1200q-199 0 -299 -150t-100 -392q-1 -240 105 -390t302 -150t290 149
q94 148 94 389q0 240 -96 392t-296 152zM620 2q-263 0 -411 180q-147 180 -147 476t144 478q146 182 409 183q263 0 405 -182q142 -181 141 -477q0 -296 -139 -477t-402 -181z" />
    <glyph glyph-name="macron" unicode="&#xaf;" horiz-adv-x="458" 
d="M367 1239h-338v160h338v-160z" />
    <glyph glyph-name="degree" unicode="&#xb0;" horiz-adv-x="722" 
d="M354 1325q-72 0 -96 -60t-25 -170q0 -110 27 -171q27 -62 101 -62q75 0 97 60t21 174q0 229 -125 229zM357 711q-151 1 -221 105t-70 279t72 278q74 103 224 103t223 -102q73 -104 73 -278t-75 -280q-75 -105 -226 -105z" />
    <glyph glyph-name="plusminus" unicode="&#xb1;" horiz-adv-x="1171" 
d="M1106 88h-1038v176h421v289h-421v176h421v463h193v-463h424v-176h-424v-289h424v-176z" />
    <glyph glyph-name="twosuperior" unicode="&#xb2;" horiz-adv-x="714" 
d="M567 807q0 2 -2 4zM555 821q-4 4 -6 4zM635 729h-563v133q94 92 280 279q95 106 97 186q0 141 -99 141q-46 0 -72 -32t-45 -90l-122 47q55 209 245 209q117 0 185 -73q67 -73 67 -177t-35 -167q-35 -62 -112 -149q-70 -68 -211 -174h260v133h125v-266z" />
    <glyph glyph-name="threesuperior" unicode="&#xb3;" horiz-adv-x="647" 
d="M276 715h-6q-98 0 -194 73l84 99q57 -41 127 -41h4q55 0 86 33t31 91t-50 93t-135 41v115q72 5 117 37t45 87t-27 89q-26 34 -74 32q-48 0 -106 -69l-100 84q86 117 213 117t195 -64q68 -63 67 -184q0 -121 -109 -187q131 -53 131 -186v-4q0 -125 -79 -191
q-81 -65 -220 -65z" />
    <glyph glyph-name="acute" unicode="&#xb4;" horiz-adv-x="557" 
d="M20 1210l248 340h224l-248 -340h-224z" />
    <glyph glyph-name="paragraph" unicode="&#xb6;" horiz-adv-x="1230" 
d="M950 160v1159h-153v-1159h153zM449 692q72 0 141 33v594h-78q-125 0 -193 -93q-67 -92 -67 -232t48 -221t149 -81zM414 0v160h176v401q-57 -25 -123 -24q-197 2 -309 125q-112 122 -111 334q0 212 117 347t319 136h674v-1479h-743z" />
    <glyph glyph-name="periodcentered" unicode="&#xb7;" horiz-adv-x="395" 
d="M198 799q-122 0 -122 102q0 49 33 77t88 28t89 -27t33 -78q1 -102 -121 -102z" />
    <glyph glyph-name="cedilla" unicode="&#xb8;" horiz-adv-x="520" 
d="M256 -119q-16 0 -41 -20l-141 127q6 16 28 70q23 54 43 102t29 69l158 -110q-4 -8 -18 -41t-23 -51q63 -15 98 -69t35 -141t-60 -142q-61 -54 -150 -54t-163 51l84 129q45 -33 92 -32q66 0 68 61q0 51 -39 51z" />
    <glyph glyph-name="onesuperior" unicode="&#xb9;" horiz-adv-x="608" 
d="M428 862h117v-133h-406v133h121v527l-90 -101l-98 98l188 195h168v-719z" />
    <glyph glyph-name="ordmasculine" unicode="&#xba;" horiz-adv-x="706" 
d="M240 1225q0 -100 25 -155q26 -54 95 -54q98 0 98 202t-108 201q-110 1 -110 -194zM70 1222q0 161 70 255q71 94 213 94t212 -94t70 -256t-71 -259q-71 -98 -212 -98q-142 0 -212 98t-70 260z" />
    <glyph glyph-name="guillemotright" unicode="&#xbb;" horiz-adv-x="808" 
d="M412 268v176l188 136l-188 131v176l313 -219v-176zM53 268v176l189 136l-187 131v176l312 -219v-176z" />
    <glyph glyph-name="onequarter" unicode="&#xbc;" horiz-adv-x="1595" 
d="M1233 250v256l-156 -256h156zM1079 -106v116h154v111h-234l-84 129l318 526h168v-526h131v-129h-131v-111h155v-116h-477zM561 -115h-190l639 1600h190zM401 768h117v-133h-405v133h120v526l-90 -100l-96 98l186 195h168v-719z" />
    <glyph glyph-name="onehalf" unicode="&#xbd;" horiz-adv-x="1708" 
d="M1595 -29q0 2 -2 2zM1559 6q-8 8 -9 6zM1663 -106h-563v131q186 186 280 278q38 43 52 61t29 53q15 36 16 72q0 143 -101 144q-78 0 -116 -125l-123 47q53 209 247 209q117 0 185 -73q67 -73 67 -187t-70 -211q-26 -35 -79 -94q-66 -66 -209 -174h258v133h127v-264z
M623 -115h-191l639 1600h193zM399 768h117v-133h-405v133h120v526l-90 -100l-96 98l186 195h168v-719z" />
    <glyph glyph-name="threequarters" unicode="&#xbe;" horiz-adv-x="1656" 
d="M1294 250v256l-155 -256h155zM358 1233q0 119 -101 119q-50 0 -105 -68l-101 84q86 117 213 117q127 1 195 -63q67 -64 67 -185t-108 -186q131 -53 131 -187v-4q0 -124 -79 -190t-214 -66h-12q-100 0 -195 72l84 100q53 -41 127 -41h8q53 0 83 33t30 91t-50 93t-134 41
v115q162 14 161 125zM1141 -106v116h153v111h-233l-84 129l317 526h168v-526h131v-129h-131v-111h156v-116h-477zM623 -115h-191l639 1600h193z" />
    <glyph glyph-name="questiondown" unicode="&#xbf;" horiz-adv-x="657" 
d="M346 1047h205v-293h-86q-107 0 -157 -88t-50 -230q0 -274 188 -274q43 0 80 18l64 -160q-72 -33 -162 -32q-172 0 -269 126t-97 312t74 313q75 127 210 168v140zM445 1303q-54 1 -87 27t-32 77q0 104 120 104q55 0 89 -27q33 -28 33 -76t-34 -77q-35 -28 -89 -28z" />
    <glyph glyph-name="Agrave" unicode="&#xc0;" horiz-adv-x="1374" 
d="M1370 160v-160h-600v160h191q-59 225 -78 299h-381q-60 -220 -86 -299h180v-160h-600v160h197l419 1319h189q16 -59 373 -1319h196zM838 629l-136 522q-28 -91 -151 -522h287zM686 1982q51 -74 248 -340h-223q-10 14 -122 166t-126 174h223z" />
    <glyph glyph-name="Aacute" unicode="&#xc1;" horiz-adv-x="1374" 
d="M1370 160v-160h-600v160h191q-59 225 -78 299h-381q-60 -220 -86 -299h180v-160h-600v160h197l419 1319h189q16 -59 373 -1319h196zM838 629l-136 522q-28 -91 -151 -522h287zM973 1982l-248 -340h-225q197 266 248 340h225z" />
    <glyph glyph-name="Acircumflex" unicode="&#xc2;" horiz-adv-x="1374" 
d="M1370 160v-160h-600v160h191q-59 225 -78 299h-381q-60 -220 -86 -299h180v-160h-600v160h197l419 1319h189q16 -59 373 -1319h196zM838 629l-136 522q-28 -91 -151 -522h287zM872 1683l-163 226l-164 -226h-226q51 74 248 340h283q197 -266 248 -340h-226z" />
    <glyph glyph-name="Atilde" unicode="&#xc3;" horiz-adv-x="1374" 
d="M1370 160v-160h-600v160h191q-59 225 -78 299h-381q-60 -220 -86 -299h180v-160h-600v160h197l419 1319h189q16 -59 373 -1319h196zM838 629l-136 522q-28 -91 -151 -522h287zM848 1653q-86 0 -162 90q-2 2 -13 15q-11 12 -15 16t-21 24q-18 20 -45 21q-73 0 -103 -73
l-9 -26q-17 -48 -19 -57l-121 57q31 121 82 187q51 65 139 65t160 -78l8 -8q55 -63 94 -67l17 -2q23 0 39 9q29 16 71 134l119 -64q-52 -179 -131 -223q-39 -20 -90 -20z" />
    <glyph glyph-name="Adieresis" unicode="&#xc4;" horiz-adv-x="1374" 
d="M1370 160v-160h-600v160h191q-59 225 -78 299h-381q-60 -220 -86 -299h180v-160h-600v160h197l419 1319h189q16 -59 373 -1319h196zM838 629l-136 522q-28 -91 -151 -522h287zM991 1724q0 -104 -122 -104t-121 104q0 49 32 77q33 28 88 28t89 -28t34 -77zM666 1724
q0 -104 -121 -104t-121 104q0 49 32 77t87 28t89 -28t34 -77z" />
    <glyph glyph-name="Aring" unicode="&#xc5;" horiz-adv-x="1374" 
d="M1370 160v-160h-600v160h191q-59 225 -78 299h-381q-60 -220 -86 -299h180v-160h-600v160h197l419 1319h189q16 -59 373 -1319h196zM838 629l-136 522q-28 -91 -151 -522h287zM702 2056q-73 0 -73 -130t78 -130q77 0 77 130t-82 130zM455 1923q0 127 65 203q66 76 184 76
t188 -76q69 -76 69 -203t-68 -204q-69 -77 -187 -77t-185 77q-66 77 -66 204z" />
    <glyph glyph-name="AE" unicode="&#xc6;" horiz-adv-x="1656" 
d="M0 0v160h227l586 1159h-125v160h868v-326h-161v166h-328v-473h395v-162h-395v-524h377v166h164v-326h-920v160h174v237h-301l-115 -237h148v-160h-594zM862 567v459l-219 -459h219z" />
    <glyph glyph-name="Ccedilla" unicode="&#xc7;" horiz-adv-x="1087" 
d="M604 -68q133 -34 133 -209q0 -87 -61 -142q-62 -54 -150 -54t-164 53l87 127q45 -33 90 -33q70 0 69 62q0 51 -41 51q-16 0 -41 -20l-139 129q16 35 47 114q-188 56 -279 238t-92 459q0 349 136 565q136 217 434 217q190 0 381 -150v-245h-164v155q-109 72 -225 72
q-199 0 -278 -162t-79 -433q0 -270 75 -418t261 -148q96 0 166 40t150 122l59 -60q2 0 61 -61q-172 -197 -409 -211q-5 -8 -13 -28t-14 -30z" />
    <glyph glyph-name="Egrave" unicode="&#xc8;" horiz-adv-x="1009" 
d="M43 0v160h174v1159h-174v160h868v-326h-163v166h-326v-473h395v-162h-395v-524h377v166h162v-326h-918zM512 1978q14 -20 124 -170t124 -170h-223q-14 20 -124 170t-124 170h223z" />
    <glyph glyph-name="Eacute" unicode="&#xc9;" horiz-adv-x="1009" 
d="M43 0v160h174v1159h-174v160h868v-326h-163v166h-326v-473h395v-162h-395v-524h377v166h162v-326h-918zM328 1638l247 340h226l-248 -340h-225z" />
    <glyph glyph-name="Ecircumflex" unicode="&#xca;" horiz-adv-x="1009" 
d="M43 0v160h174v1159h-174v160h868v-326h-163v166h-326v-473h395v-162h-395v-524h377v166h162v-326h-918zM147 1681l248 340h283q14 -20 124 -170t124 -170h-226q-8 10 -32 45q-25 34 -67 92t-64 89l-164 -226h-226z" />
    <glyph glyph-name="Edieresis" unicode="&#xcb;" horiz-adv-x="1009" 
d="M43 0v160h174v1159h-174v160h868v-326h-163v166h-326v-473h395v-162h-395v-524h377v166h162v-326h-918zM817 1720q0 -102 -121 -102t-121 102q0 49 32 77t87 28t89 -27t34 -78zM494 1720q0 -102 -121 -102t-121 102q0 49 32 77t87 28t89 -27t34 -78z" />
    <glyph glyph-name="Igrave" unicode="&#xcc;" horiz-adv-x="645" 
d="M45 0v160h174v1159h-174v160h555v-160h-176v-1159h176v-160h-555zM303 1980q14 -20 125 -170t125 -170h-225q-14 20 -124 170t-124 170h223z" />
    <glyph glyph-name="Iacute" unicode="&#xcd;" horiz-adv-x="673" 
d="M43 0v160h174v1159h-174v160h555v-160h-176v-1159h176v-160h-555zM117 1640l248 340h223l-246 -340h-225z" />
    <glyph glyph-name="Icircumflex" unicode="&#xce;" horiz-adv-x="864" 
d="M152 0v160h174v1159h-174v160h555v-160h-177v-1159h177v-160h-555zM45 1683l248 340h282q14 -20 124 -170t124 -170h-225q-8 10 -48 66t-116 160l-164 -226h-225z" />
    <glyph glyph-name="Idieresis" unicode="&#xcf;" horiz-adv-x="761" 
d="M100 0v160h174v1159h-174v160h557v-160h-178v-1159h178v-160h-557zM666 1722q0 -102 -122 -102t-122 102q0 49 33 77t88 28t89 -27t34 -78zM340 1722q0 -102 -121 -102t-121 102q0 49 32 77t87 28t89 -27t34 -78z" />
    <glyph glyph-name="Eth" unicode="&#xd0;" horiz-adv-x="1236" 
d="M633 651h-213v-491h196q197 0 277 147t80 412q0 441 -203 556q-78 44 -190 44h-160v-492h213v-176zM43 0v160h172v491h-106v176h106v492h-172v160h545q301 0 445 -199q145 -199 145 -547q0 -349 -142 -541t-438 -192h-555z" />
    <glyph glyph-name="Ntilde" unicode="&#xd1;" horiz-adv-x="1439" 
d="M43 0v160h174v1159h-172v160h387l596 -1100v940h-174v160h555v-160h-176v-1319h-213q-100 184 -299 551t-299 549v-940h176v-160h-555zM874 1651q-86 0 -152 83t-109 83q-43 -1 -57 -15q-13 -14 -25 -26t-26 -60q-15 -49 -18 -55l-118 57q29 121 80 188q51 66 140 66
t159 -80q26 -29 36 -40t34 -23t50 -12q26 -1 50 23q22 24 32 48t27 72l119 -66q-52 -179 -130 -223q-39 -20 -92 -20z" />
    <glyph glyph-name="Ograve" unicode="&#xd2;" horiz-adv-x="1196" 
d="M268 724q0 -410 169 -521q69 -45 167 -45q197 0 265 178q59 149 61 407q0 578 -342 578q-149 0 -230 -115q-90 -132 -90 -482zM596 -10q-270 0 -402 206t-131 542q1 337 135 544t405 207t401 -205t131 -541q0 -461 -231 -651q-124 -102 -308 -102zM575 1980
q14 -20 124 -170t124 -170h-225q-14 20 -124 170t-124 170h225z" />
    <glyph glyph-name="Oacute" unicode="&#xd3;" horiz-adv-x="1196" 
d="M268 724q0 -410 169 -521q69 -45 167 -45q197 0 265 178q59 149 61 407q0 578 -342 578q-149 0 -230 -115q-90 -132 -90 -482zM596 -10q-270 0 -402 206t-131 542q1 337 135 544t405 207t401 -205t131 -541q0 -461 -231 -651q-124 -102 -308 -102zM389 1640l248 340h225
l-248 -340h-225z" />
    <glyph glyph-name="Ocircumflex" unicode="&#xd4;" horiz-adv-x="1196" 
d="M268 724q0 -410 169 -521q69 -45 167 -45q197 0 265 178q59 149 61 407q0 578 -342 578q-149 0 -230 -115q-90 -132 -90 -482zM596 -10q-270 0 -402 206t-131 542q1 337 135 544t405 207t401 -205t131 -541q0 -461 -231 -651q-124 -102 -308 -102zM209 1683l248 340h282
q14 -20 124 -170t124 -170h-223q-8 9 -35 47t-65 90q-39 52 -66 89q-146 -197 -164 -226h-225z" />
    <glyph glyph-name="Otilde" unicode="&#xd5;" horiz-adv-x="1196" 
d="M268 724q0 -410 169 -521q69 -45 167 -45q197 0 265 178q59 149 61 407q0 578 -342 578q-149 0 -230 -115q-90 -132 -90 -482zM596 -10q-270 0 -402 206t-131 542q1 337 135 544t405 207t401 -205t131 -541q0 -461 -231 -651q-124 -102 -308 -102zM737 1651
q-89 0 -172 104q-8 10 -10 12q-2 1 -10 11t-11 12q-2 2 -10 8t-13 8l-15 6t-38 5q-27 -1 -40 -15q-12 -14 -22 -23t-27 -61l-19 -57l-121 57q31 121 82 188q51 66 141 66t158 -80q27 -29 37 -40t34 -23q25 -12 51 -12q26 -1 48 23t33 48q10 24 27 72l118 -66
q-53 -181 -131 -223q-39 -20 -90 -20z" />
    <glyph glyph-name="Odieresis" unicode="&#xd6;" horiz-adv-x="1196" 
d="M268 724q0 -410 169 -521q69 -45 167 -45q197 0 265 178q59 149 61 407q0 578 -342 578q-149 0 -230 -115q-90 -132 -90 -482zM596 -10q-270 0 -402 206t-131 542q1 337 135 544t405 207t401 -205t131 -541q0 -461 -231 -651q-124 -102 -308 -102zM881 1722
q0 -102 -122 -102t-122 102q0 49 33 77t88 28t89 -27t34 -78zM555 1722q0 -102 -121 -102t-121 102q0 49 32 77t87 28t89 -27t34 -78z" />
    <glyph glyph-name="multiply" unicode="&#xd7;" horiz-adv-x="999" 
d="M805 213l-305 305l-305 -305l-123 123l305 305l-305 305l123 125l305 -305l305 305l125 -125l-305 -305l305 -305z" />
    <glyph glyph-name="Oslash" unicode="&#xd8;" horiz-adv-x="1196" 
d="M63 737q1 338 135 545t408 207q117 0 205 -41l55 135l138 -49l-68 -168q199 -190 199 -637t-231 -637q-124 -102 -308 -102q-113 0 -199 37l-61 -154l-135 64l69 169q-207 193 -207 631zM611 158q91 0 158 46q158 108 161 539q0 279 -76 420l-391 -975q57 -30 148 -30z
M268 737q0 -295 80 -434l397 979q-67 39 -151 39q-228 0 -291 -245q-35 -138 -35 -339z" />
    <glyph glyph-name="Ugrave" unicode="&#xd9;" horiz-adv-x="1368" 
d="M1153 567q0 -578 -475 -577q-244 0 -354 144t-111 423v762h-180v160h553v-160h-187v-729q0 -207 66 -315t227 -107q272 0 273 377v774h-183v160h553v-160h-182v-752zM664 1980q14 -20 124 -170t123 -170h-223q-14 20 -124 170t-124 170h224z" />
    <glyph glyph-name="Uacute" unicode="&#xda;" horiz-adv-x="1368" 
d="M1153 567q0 -578 -475 -577q-244 0 -354 144t-111 423v762h-180v160h553v-160h-187v-729q0 -207 66 -315t227 -107q272 0 273 377v774h-183v160h553v-160h-182v-752zM479 1640l248 340h225q-10 -14 -122 -166t-125 -174h-226z" />
    <glyph glyph-name="Ucircumflex" unicode="&#xdb;" horiz-adv-x="1368" 
d="M1153 567q0 -578 -475 -577q-244 0 -354 144t-111 423v762h-180v160h553v-160h-187v-729q0 -207 66 -315t227 -107q272 0 273 377v774h-183v160h553v-160h-182v-752zM299 1683l248 340h282q14 -20 124 -170t124 -170h-225q-8 13 -33 47t-66 91q-42 57 -65 88l-164 -226
h-225z" />
    <glyph glyph-name="Udieresis" unicode="&#xdc;" horiz-adv-x="1368" 
d="M1153 567q0 -578 -475 -577q-244 0 -354 144t-111 423v762h-180v160h553v-160h-187v-729q0 -207 66 -315t227 -107q272 0 273 377v774h-183v160h553v-160h-182v-752zM969 1722q0 -102 -121 -102t-121 102q0 49 32 77t87 28t89 -27t34 -78zM645 1722q0 -102 -121 -102
t-121 102q0 49 32 77t87 28t89 -27t34 -78z" />
    <glyph glyph-name="Yacute" unicode="&#xdd;" horiz-adv-x="1251" 
d="M8 1479h580v-160h-152q61 -150 180 -449q107 230 199 449h-145v160h579v-160h-227q-33 -70 -291 -629v-530h164v-160h-553v160h164v530l-273 629h-227l2 80v80zM416 1640l250 340h223l-248 -340h-225z" />
    <glyph glyph-name="Thorn" unicode="&#xde;" horiz-adv-x="1017" 
d="M43 0v160h174v1159h-174v160h555v-160h-176v-98h106q203 0 320 -121t117 -319q1 -197 -103 -317t-287 -122q-80 0 -153 29v-211h176v-160h-555zM575 498q88 0 137 77q48 78 48 203t-67 204t-191 79h-80v-529q65 -34 153 -34z" />
    <glyph glyph-name="germandbls" unicode="&#xdf;" horiz-adv-x="1017" 
d="M190 1227q0 184 98 297q98 112 268 112q171 0 266 -106q96 -106 96 -296t-138 -298q186 -106 187 -358q0 -334 -269 -414l-65 160q137 51 137 245q0 127 -69 209t-175 82v137q92 0 144 67q51 67 51 173t-46 172t-134 66q-143 0 -144 -248v-1065h176v-162h-555v162h172
v1065z" />
    <glyph glyph-name="agrave" unicode="&#xe0;" 
d="M586 0v94q-98 -104 -238 -104t-215 87q-74 87 -74 242q0 272 326 330q45 7 113 17t88 14v45q0 209 -166 209q-80 0 -150 -49v-185h-164v246q135 150 343 150q344 0 344 -324v-612h161v-160h-368zM391 150q70 0 110 36t85 115v238q-142 -28 -198 -36q-56 -9 -93 -57
t-37 -116q0 -180 133 -180zM444 1630q14 -20 124 -170t124 -170h-225q-14 20 -124 170t-124 170h225z" />
    <glyph glyph-name="aacute" unicode="&#xe1;" 
d="M586 0v94q-98 -104 -238 -104t-215 87q-74 87 -74 242q0 272 326 330q45 7 113 17t88 14v45q0 209 -166 209q-80 0 -150 -49v-185h-164v246q135 150 343 150q344 0 344 -324v-612h161v-160h-368zM391 150q70 0 110 36t85 115v238q-142 -28 -198 -36q-56 -9 -93 -57
t-37 -116q0 -180 133 -180zM258 1290l248 340h225l-248 -340h-225z" />
    <glyph glyph-name="acircumflex" unicode="&#xe2;" 
d="M586 0v94q-98 -104 -238 -104t-215 87q-74 87 -74 242q0 272 326 330q45 7 113 17t88 14v45q0 209 -166 209q-80 0 -150 -49v-185h-164v246q135 150 343 150q344 0 344 -324v-612h161v-160h-368zM391 150q70 0 110 36t85 115v238q-142 -28 -198 -36q-56 -9 -93 -57
t-37 -116q0 -180 133 -180zM78 1333l248 340h282q14 -20 124 -170t124 -170h-223q-8 10 -35 47t-66 89t-65 90l-164 -226h-225z" />
    <glyph glyph-name="atilde" unicode="&#xe3;" 
d="M586 0v94q-98 -104 -238 -104t-215 87q-74 87 -74 242q0 272 326 330q45 7 113 17t88 14v45q0 209 -166 209q-80 0 -150 -49v-185h-164v246q135 150 343 150q344 0 344 -324v-612h161v-160h-368zM391 150q70 0 110 36t85 115v238q-142 -28 -198 -36q-56 -9 -93 -57
t-37 -116q0 -180 133 -180zM339 1466q-17 0 -31 -3t-23 -14q-10 -11 -20 -21t-27 -61t-19 -56l-121 57q31 122 82 188q50 66 140 66t159 -80q27 -29 37 -40t34 -23q61 -30 99 11q23 24 33 48t27 72l118 -66q-31 -107 -62 -155q-55 -89 -151 -89t-180 105q-8 10 -10 12
t-10 11q-8 10 -12 12t-10 8q-7 6 -12 8t-14 6q-10 4 -27 4z" />
    <glyph glyph-name="adieresis" unicode="&#xe4;" 
d="M586 0v94q-98 -104 -238 -104t-215 87q-74 87 -74 242q0 272 326 330q45 7 113 17t88 14v45q0 209 -166 209q-80 0 -150 -49v-185h-164v246q135 150 343 150q344 0 344 -324v-612h161v-160h-368zM391 150q70 0 110 36t85 115v238q-142 -28 -198 -36q-56 -9 -93 -57
t-37 -116q0 -180 133 -180zM750 1372q0 -102 -122 -102t-122 102q0 49 33 77t88 28t89 -27t34 -78zM424 1372q0 -102 -121 -102t-121 102q0 49 33 77t87 28t88 -27t34 -78z" />
    <glyph glyph-name="aring" unicode="&#xe5;" 
d="M586 0v94q-98 -104 -238 -104t-215 87q-74 87 -74 242q0 272 326 330q45 7 113 17t88 14v45q0 209 -166 209q-80 0 -150 -49v-185h-164v246q135 150 343 150q344 0 344 -324v-612h161v-160h-368zM391 150q70 0 110 36t85 115v238q-142 -28 -198 -36q-56 -9 -93 -57
t-37 -116q0 -180 133 -180zM461 1704q-74 0 -74 -129t78 -129t78 129t-82 129zM213 1571q0 127 66 203q67 76 185 76t186 -76t69 -203q0 -127 -68 -203q-69 -76 -187 -76t-184 76t-67 203z" />
    <glyph glyph-name="ae" unicode="&#xe6;" horiz-adv-x="1419" 
d="M389 150q53 0 96 28t65 59q22 32 58 95q-18 63 -24 168q-118 -4 -186 -16t-104 -53q-36 -40 -36 -101q0 -180 131 -180zM975 934q-98 0 -138 -69t-46 -199v-17h372q-6 285 -188 285zM586 725q0 209 -166 209q-84 0 -152 -47v-172h-162v231q131 150 329 150t280 -95
q100 101 280 101q179 0 271 -132t92 -364v-108h-567q6 -162 56 -251t171 -89q57 0 98 26t86 80l127 -112q-77 -84 -147 -123t-164 -39q-244 0 -352 192q-68 -94 -139 -143t-175 -49q-145 0 -219 87t-74 233t81 220t212 96t232 23l2 21v55z" />
    <glyph glyph-name="ccedilla" unicode="&#xe7;" horiz-adv-x="864" 
d="M791 717h-162v170q-70 47 -135 47q-128 0 -178 -101t-50 -286q0 -303 137 -369l3 6l24 -16q35 -10 72 -10q88 0 172 127l137 -97q-96 -180 -285 -196l-6 -12q64 -16 100 -70t36 -140q0 -87 -62 -142q-62 -54 -150 -54t-163 53l86 127q45 -33 90 -33q68 0 67 62
q0 51 -39 51q-16 0 -41 -20l-139 129l31 71q-276 94 -277 533q0 260 111 407t332 148q150 0 289 -139v-246z" />
    <glyph glyph-name="egrave" unicode="&#xe8;" horiz-adv-x="899" 
d="M456 934q-100 0 -140 -73t-46 -212h373q-4 137 -45 211t-142 74zM498 -10q-223 0 -329 155q-105 156 -105 415q0 258 98 400t296 142t288 -132q91 -132 92 -364v-108h-568q6 -162 56 -251t160 -89t196 106l127 -112q-77 -84 -147 -123t-164 -39zM432 1632
q14 -20 124 -170t124 -170h-225q-14 20 -124 170t-124 170h225z" />
    <glyph glyph-name="eacute" unicode="&#xe9;" horiz-adv-x="899" 
d="M456 934q-100 0 -140 -73t-46 -212h373q-4 137 -45 211t-142 74zM498 -10q-223 0 -329 155q-105 156 -105 415q0 258 98 400t296 142t288 -132q91 -132 92 -364v-108h-568q6 -162 56 -251t160 -89t196 106l127 -112q-77 -84 -147 -123t-164 -39zM246 1292l248 340h225
l-248 -340h-225z" />
    <glyph glyph-name="ecircumflex" unicode="&#xea;" horiz-adv-x="923" 
d="M466 934q-101 0 -140 -73t-45 -212h372q-4 135 -45 210t-142 75zM508 -10q-223 0 -329 155q-105 156 -105 415q0 258 98 400t296 142t288 -132q92 -132 92 -364v-108h-567q6 -162 56 -251t171 -89q57 0 99 26t87 80l62 -55v-2q4 -2 63 -55q-77 -84 -147 -123t-164 -39z
M76 1335l248 340h282q14 -20 124 -170t124 -170h-223q-8 10 -35 47t-65 89t-64 90q-143 -190 -166 -226h-225z" />
    <glyph glyph-name="edieresis" unicode="&#xeb;" horiz-adv-x="899" 
d="M456 934q-100 0 -140 -73t-46 -212h373q-4 137 -45 211t-142 74zM498 -10q-223 0 -329 155q-105 156 -105 415q0 258 98 400t296 142t288 -132q91 -132 92 -364v-108h-568q6 -162 56 -251t160 -89t196 106l127 -112q-77 -84 -147 -123t-164 -39zM737 1374
q0 -102 -121 -102t-120 102q0 49 31 77q32 28 87 28t89 -27t34 -78zM412 1374q0 -102 -121 -102t-121 102q0 49 33 77t87 28t88 -27t34 -78z" />
    <glyph glyph-name="igrave" unicode="&#xec;" horiz-adv-x="612" 
d="M41 160h168v772h-170l2 80v80h385v-932h154v-160h-541l2 80v80zM299 1630q51 -74 248 -340h-223q-14 20 -124 170t-124 170h223z" />
    <glyph glyph-name="iacute" unicode="&#xed;" horiz-adv-x="643" 
d="M39 0v160h170v772h-170v160h385v-932h156v-160h-541zM586 1630l-248 -340h-225q197 266 247 340h226z" />
    <glyph glyph-name="icircumflex" unicode="&#xee;" horiz-adv-x="831" 
d="M147 160h168v772h-170l2 80v80h385v-932h154v-160h-541l2 80v80zM594 1331q-51 74 -164 225q-143 -190 -166 -225h-223q51 74 248 340h282q197 -266 248 -340h-225z" />
    <glyph glyph-name="idieresis" unicode="&#xef;" horiz-adv-x="729" 
d="M96 160h170v772h-172l2 80v80h385v-932h154v-160h-541l2 80v80zM537 1268q-55 0 -87 28t-32 76q0 49 33 77t87 28t88 -27t33 -78q1 -104 -122 -104zM213 1268q-55 0 -87 28t-32 76q0 49 32 77t87 28t89 -27t34 -78q0 -104 -123 -104z" />
    <glyph glyph-name="eth" unicode="&#xf0;" horiz-adv-x="931" 
d="M440 174q233 0 234 348q0 55 -2 82q-74 123 -215 123q-103 0 -153 -79t-50 -203q0 -123 46 -197t140 -74zM870 514q0 -242 -108 -386t-306 -144q-200 0 -300 126t-100 335t98 329q100 120 284 121q106 0 193 -61q-63 201 -209 331q-51 -49 -146 -143l-100 100
q86 86 131 133q-84 53 -194 99l39 78q2 6 38 79q131 -51 246 -127l135 136l101 -103q-55 -59 -121 -121q319 -291 319 -782z" />
    <glyph glyph-name="ntilde" unicode="&#xf1;" horiz-adv-x="1165" 
d="M39 0v160h174v772h-174v160h379v-131q110 141 270 141t223 -113t64 -317v-512h174v-160h-506v160h127v495q0 87 -10 143t-47 96t-101 40q-117 0 -194 -158v-616h127v-160h-506zM754 1300q-86 0 -162 91q-2 2 -13 15t-15 16q-3 4 -21 24t-56 20q-37 0 -51 -14l-26 -26
t-26 -61q-15 -49 -17 -54l-121 57q31 120 82 186t139 66t160 -78q27 -29 37 -40t34 -23t47 -13h3q27 0 47 20q37 38 61 122l119 -64q-53 -182 -131 -223q-39 -21 -90 -21z" />
    <glyph glyph-name="ograve" unicode="&#xf2;" horiz-adv-x="970" 
d="M252 545q0 -119 16 -198t72 -134t164 -55q110 0 156 102t47 283q0 393 -230 393q-225 0 -225 -391zM59 545q1 253 107 405t320 152t320 -152t105 -406q1 -254 -107 -405q-108 -149 -322 -149t-318 150t-105 405zM459 1628q14 -20 124 -170t124 -170h-224q-14 20 -124 170
t-123 170h223z" />
    <glyph glyph-name="oacute" unicode="&#xf3;" horiz-adv-x="970" 
d="M252 545q0 -119 16 -198t72 -134t164 -55q110 0 156 102t47 283q0 393 -230 393q-225 0 -225 -391zM59 545q1 253 107 405t320 152t320 -152t105 -406q1 -254 -107 -405q-108 -149 -322 -149t-318 150t-105 405zM274 1288l248 340h226l-248 -340h-226z" />
    <glyph glyph-name="ocircumflex" unicode="&#xf4;" horiz-adv-x="970" 
d="M252 545q0 -119 16 -198t72 -134t164 -55q110 0 156 102t47 283q0 393 -230 393q-225 0 -225 -391zM59 545q1 253 107 405t320 152t320 -152t105 -406q1 -254 -107 -405q-108 -149 -322 -149t-318 150t-105 405zM94 1331l248 340h283q14 -20 124 -170t123 -170h-225
q-8 10 -53 74t-111 151l-164 -225h-225z" />
    <glyph glyph-name="otilde" unicode="&#xf5;" horiz-adv-x="970" 
d="M252 545q0 -119 16 -198t72 -134t164 -55q110 0 156 102t47 283q0 393 -230 393q-225 0 -225 -391zM59 545q1 253 107 405t320 152t320 -152t105 -406q1 -254 -107 -405q-108 -149 -322 -149t-318 150t-105 405zM623 1298q-86 0 -162 93q-25 31 -46 52t-63 21t-66 -30
q-22 -30 -36 -74t-17 -49l-118 55q29 118 81 186t141 68t159 -80q54 -60 76 -68t46 -8t48 25t32 47t27 72l117 -66q-48 -180 -129 -223q-39 -21 -90 -21z" />
    <glyph glyph-name="odieresis" unicode="&#xf6;" horiz-adv-x="970" 
d="M252 545q0 -119 16 -198t72 -134t164 -55q110 0 156 102t47 283q0 393 -230 393q-225 0 -225 -391zM59 545q1 253 107 405t320 152t320 -152t105 -406q1 -254 -107 -405q-108 -149 -322 -149t-318 150t-105 405zM764 1370q0 -102 -121 -102t-121 102q0 49 32 77t87 28
t89 -27t34 -78zM319 1268q-121 0 -120 102q0 49 31 77q32 28 87 28t89 -27t34 -78q0 -102 -121 -102z" />
    <glyph glyph-name="divide" unicode="&#xf7;" horiz-adv-x="1193" 
d="M711 279q0 -103 -121 -103t-121 103q0 49 33 77t87 29q54 0 88 -28t34 -78zM1116 553h-1038v176h1038v-176zM711 999q0 -104 -121 -104t-121 104q0 49 32 77t87 28t89 -27t34 -78z" />
    <glyph glyph-name="oslash" unicode="&#xf8;" horiz-adv-x="970" 
d="M59 545q1 253 107 405t321 152q80 0 140 -21l53 133l133 -55l-59 -149q158 -143 157 -467q1 -254 -107 -404t-323 -149q-72 0 -131 18l-59 -149l-133 59l63 160q-162 141 -162 467zM492 158q122 0 168 102t46 274t-36 267l-254 -633q37 -10 76 -10zM252 545
q0 -188 47 -277l262 652q-39 16 -84 16q-225 0 -225 -391z" />
    <glyph glyph-name="ugrave" unicode="&#xf9;" horiz-adv-x="1124" 
d="M741 0v109q-94 -119 -217 -119q-332 0 -331 428v514h-175v160h379v-668q0 -127 33 -197t125 -69q106 0 186 168v606h-176v160h381v-932h158v-160h-363zM506 1630q12 -18 250 -340h-226q-14 20 -123 170q-110 150 -124 170h223z" />
    <glyph glyph-name="uacute" unicode="&#xfa;" horiz-adv-x="1124" 
d="M741 0v109q-94 -119 -217 -119q-332 0 -331 428v514h-175v160h379v-668q0 -127 33 -197t125 -69q106 0 186 168v606h-176v160h381v-932h158v-160h-363zM795 1630l-248 -340h-225q197 266 247 340h226z" />
    <glyph glyph-name="ucircumflex" unicode="&#xfb;" horiz-adv-x="1124" 
d="M741 0v109q-94 -119 -217 -119q-332 0 -331 428v514h-175v160h379v-668q0 -127 33 -197t125 -69q106 0 186 168v606h-176v160h381v-932h158v-160h-363zM530 1556q-101 -133 -163 -225h-226q51 74 248 340h283q197 -266 248 -340h-226q-33 49 -164 225z" />
    <glyph glyph-name="udieresis" unicode="&#xfc;" horiz-adv-x="1124" 
d="M741 0v109q-94 -119 -217 -119q-332 0 -331 428v514h-175v160h379v-668q0 -127 33 -197t125 -69q106 0 186 168v606h-176v160h381v-932h158v-160h-363zM690 1268q-55 0 -88 28t-33 76q0 49 33 77t88 28t89 -27t34 -78q0 -104 -123 -104zM365 1268q-55 0 -87 28t-32 76
q0 49 32 77t87 28t89 -27t33 -78q1 -104 -122 -104z" />
    <glyph glyph-name="yacute" unicode="&#xfd;" horiz-adv-x="1187" 
d="M18 1092h543v-160h-131l154 -486q29 80 87 243t87 243h-117v160h539v-160h-213l-551 -1546h-211v2q-51 -2 -154 -2v159l211 4q129 352 219 613q-86 254 -258 770h-207l2 80v80zM866 1630q-197 -266 -248 -340h-225q51 74 248 340h225z" />
    <glyph glyph-name="thorn" unicode="&#xfe;" horiz-adv-x="1058" 
d="M-12 -614v161h176v1866h-174v160h379v-574q115 104 249 105q199 0 289 -153t90 -401t-89 -405q-89 -156 -290 -155q-143 0 -249 94v-537h159v-161h-540zM582 150q121 0 166 101t45 275v19q1 119 -13 197t-63 136t-149 58t-199 -102v-578q92 -106 213 -106z" />
    <glyph glyph-name="ydieresis" unicode="&#xff;" horiz-adv-x="1187" 
d="M18 1092h543v-160h-131l154 -486q29 80 87 243t87 243h-117v160h539v-160h-213l-551 -1546h-211v2q-51 -2 -154 -2v159l211 4q129 352 219 613q-86 254 -258 770h-207l2 80v80zM885 1374q0 -104 -122 -104t-122 104q0 49 33 77t88 28t89 -28t34 -77zM559 1374
q0 -104 -121 -104t-121 104q0 49 32 77t87 28t89 -28t34 -77z" />
    <glyph glyph-name="Amacron" unicode="&#x100;" horiz-adv-x="1374" 
d="M1370 160v-160h-600v160h191q-59 225 -78 299h-381q-60 -220 -86 -299h180v-160h-600v160h197l419 1319h189q16 -59 373 -1319h196zM838 629l-136 522q-28 -91 -151 -522h287zM872 1647h-337v161h337v-161z" />
    <glyph glyph-name="amacron" unicode="&#x101;" 
d="M586 0v94q-98 -104 -238 -104t-215 87q-74 87 -74 242q0 272 326 330q45 7 113 17t88 14v45q0 209 -166 209q-80 0 -150 -49v-185h-164v246q135 150 343 150q344 0 344 -324v-612h161v-160h-368zM391 150q70 0 110 36t85 115v238q-142 -28 -198 -36q-56 -9 -93 -57
t-37 -116q0 -180 133 -180zM631 1296h-338v160h338v-160z" />
    <glyph glyph-name="Abreve" unicode="&#x102;" horiz-adv-x="1374" 
d="M1370 160v-160h-600v160h191q-59 225 -78 299h-381q-60 -220 -86 -299h180v-160h-600v160h197l419 1319h189q16 -59 373 -1319h196zM838 629l-136 522q-28 -91 -151 -522h287zM699 1640q-133 0 -203 79t-70 216h195q0 -133 88 -133t88 131h196q0 -137 -80 -215t-214 -78z
" />
    <glyph glyph-name="abreve" unicode="&#x103;" 
d="M586 0v94q-98 -104 -238 -104t-215 87q-74 87 -74 242q0 272 326 330q45 7 113 17t88 14v45q0 209 -166 209q-80 0 -150 -49v-185h-164v246q135 150 343 150q344 0 344 -324v-612h161v-160h-368zM391 150q70 0 110 36t85 115v238q-142 -28 -198 -36q-56 -9 -93 -57
t-37 -116q0 -180 133 -180zM458 1288q-134 0 -204 79t-70 216h195q0 -133 88 -133t88 131h197q0 -137 -80 -215t-214 -78z" />
    <glyph glyph-name="Aogonek" unicode="&#x104;" horiz-adv-x="1374" 
d="M838 629l-136 522q-28 -91 -151 -522h287zM1254 -257q6 -9 17 -23q11 -13 23 -31q-86 -66 -175 -66t-144 66t-55 159t49 152h-199v160h191q-59 225 -78 299h-381q-60 -220 -86 -299h180v-160h-600v160h197l419 1319h189q16 -59 373 -1319h196v-160h-174q-37 -25 -55 -39
q-19 -14 -37 -42t-19 -58q0 -78 56 -78q23 0 57 31l47 -61q0 -1 1 -1q2 0 8 -9z" />
    <glyph glyph-name="aogonek" unicode="&#x105;" 
d="M391 150q70 0 110 36t85 115v238q-142 -28 -198 -36q-56 -9 -93 -57t-37 -116q0 -180 133 -180zM696 -371q-88 0 -144 66q-54 66 -54 171t88 179v49q-98 -104 -238 -104t-215 87q-74 87 -74 242q0 272 326 330q45 7 113 17t88 14v45q0 209 -166 209q-80 0 -150 -49v-185
h-164v246q135 150 343 150q344 0 344 -324v-612h161v-160h-188q-104 -66 -104 -138t55 -73q20 0 59 31l94 -125q-86 -66 -174 -66z" />
    <glyph glyph-name="Cacute" unicode="&#x106;" horiz-adv-x="1087" 
d="M594 -10q-270 0 -400 194t-130 532q0 339 135 556q136 217 434 217q190 0 381 -150v-245h-164v155q-109 72 -225 72q-199 0 -278 -162t-79 -433q0 -270 75 -418t261 -148q96 0 166 40t150 122l59 -60q2 0 61 -61q-94 -107 -198 -159t-248 -52zM422 1640l248 340h225
l-248 -340h-225z" />
    <glyph glyph-name="cacute" unicode="&#x107;" horiz-adv-x="864" 
d="M791 717h-162v170q-70 47 -135 47q-128 0 -178 -101t-50 -285t52 -288q52 -102 184 -102q88 0 172 127l137 -97q-106 -198 -322 -198t-323 147q-106 147 -106 409t110 408q111 147 332 148q150 0 289 -139v-246zM758 1630l-248 -340h-225q197 266 247 340h226z" />
    <glyph glyph-name="Ccaron" unicode="&#x10c;" horiz-adv-x="1097" 
d="M594 -10q-270 0 -400 194t-130 532q0 339 135 556q136 217 434 217q190 0 381 -150v-245h-164v155q-109 72 -225 72q-199 0 -278 -162t-79 -433q0 -270 75 -418t261 -148q96 0 166 40t150 122l59 -60q2 0 61 -61q-94 -107 -198 -159t-248 -52zM1018 1997l-248 -340h-283
q-14 20 -123 170q-110 150 -124 170h225q20 -25 79 -107q58 -81 85 -118q143 190 166 225h223z" />
    <glyph glyph-name="ccaron" unicode="&#x10d;" horiz-adv-x="927" 
d="M791 717h-162v170q-70 47 -135 47q-128 0 -178 -101t-50 -285t52 -288q52 -102 184 -102q88 0 172 127l137 -97q-106 -198 -322 -198t-323 147q-106 147 -106 409t110 408q111 147 332 148q150 0 289 -139v-246zM492 1421l165 226h224q-51 -74 -248 -340h-283
q-197 266 -248 340h226z" />
    <glyph glyph-name="Dcaron" unicode="&#x10e;" horiz-adv-x="1236" 
d="M580 1319h-160v-1159h196q197 0 277 147t80 412q0 441 -203 556q-77 44 -190 44zM43 0v160h172v1159h-172v160h545q301 0 445 -199q145 -199 145 -547q0 -349 -142 -541t-438 -192h-555zM406 1657q-197 266 -248 340h225q33 -49 164 -225q113 152 164 225h225
q-51 -74 -248 -340h-282z" />
    <glyph glyph-name="dcaron" unicode="&#x10f;" horiz-adv-x="1378" 
d="M692 0v76q-96 -80 -227 -80q-199 0 -303 152t-104 395q0 241 102 397q104 156 309 156q125 0 223 -64v447h-172v159h385v-1478h170v-160h-383zM497 158q120 0 195 114v580q-82 82 -182 82q-129 0 -187 -108q-59 -108 -59 -280t56 -280t177 -108zM1378 1665l-186 -412
h-191l129 412h248z" />
    <glyph glyph-name="Dcroat" unicode="&#x110;" horiz-adv-x="1236" 
d="M633 651h-213v-491h196q197 0 277 147t80 412q0 441 -203 556q-78 44 -190 44h-160v-492h213v-176zM43 0v160h172v491h-106v176h106v492h-172v160h545q301 0 445 -199q145 -199 145 -547q0 -349 -142 -541t-438 -192h-555z" />
    <glyph glyph-name="dcroat" unicode="&#x111;" horiz-adv-x="1093" 
d="M692 0v76q-96 -80 -227 -80q-199 0 -303 152t-104 395q0 241 102 397q104 156 309 156q125 0 223 -64v201h-227v135h227v111h-172v159h385v-270h99v-135h-99v-1073h170v-160h-383zM497 158q120 0 195 114v580q-82 82 -182 82q-129 0 -187 -108q-59 -108 -59 -280t56 -280
t177 -108z" />
    <glyph glyph-name="Emacron" unicode="&#x112;" horiz-adv-x="1009" 
d="M43 0v160h174v1159h-174v160h868v-326h-163v166h-326v-473h395v-162h-395v-524h377v166h162v-326h-918zM700 1645h-338v161h338v-161z" />
    <glyph glyph-name="emacron" unicode="&#x113;" horiz-adv-x="899" 
d="M456 934q-100 0 -140 -73t-46 -212h373q-4 137 -45 211t-142 74zM498 -10q-223 0 -329 155q-105 156 -105 415q0 258 98 400t296 142t288 -132q91 -132 92 -364v-108h-568q6 -162 56 -251t160 -89t196 106l127 -112q-77 -84 -147 -123t-164 -39zM618 1298h-337v160h337
v-160z" />
    <glyph glyph-name="Edotaccent" unicode="&#x116;" horiz-adv-x="1009" 
d="M43 0v160h174v1159h-174v160h868v-326h-163v166h-326v-473h395v-162h-395v-524h377v166h162v-326h-918zM537 1618q-121 0 -121 102q0 49 31 77t87 28t90 -27t33 -78q1 -102 -120 -102z" />
    <glyph glyph-name="edotaccent" unicode="&#x117;" horiz-adv-x="899" 
d="M456 934q-100 0 -140 -73t-46 -212h373q-4 137 -45 211t-142 74zM498 -10q-223 0 -329 155q-105 156 -105 415q0 258 98 400t296 142t288 -132q91 -132 92 -364v-108h-568q6 -162 56 -251t160 -89t196 106l127 -112q-77 -84 -147 -123t-164 -39zM455 1272
q-121 0 -121 102q0 49 32 77t87 28t89 -27t33 -78q1 -102 -120 -102z" />
    <glyph glyph-name="Eogonek" unicode="&#x118;" horiz-adv-x="1054" 
d="M43 0v160h174v1159h-174v160h868v-326h-163v166h-326v-473h395v-162h-395v-524h377v166h162v-326h-58q-84 -57 -84 -128t55 -71q20 0 60 31l96 -125q-86 -65 -175 -65t-144 66t-55 153q0 88 34 139h-647z" />
    <glyph glyph-name="eogonek" unicode="&#x119;" horiz-adv-x="899" 
d="M456 934q-100 0 -140 -73t-46 -212h373q-4 137 -45 211t-142 74zM332 -142q0 89 41 146q-309 82 -310 567q1 247 99 389t296 142t288 -132q91 -132 92 -364v-108h-568q6 -162 56 -251t160 -89t196 106l127 -112q-121 -127 -223 -152q-90 -59 -90 -131t55 -72q20 0 59 31
l95 -125q-86 -65 -175 -65t-144 65q-54 66 -54 155z" />
    <glyph glyph-name="Ecaron" unicode="&#x11a;" horiz-adv-x="1009" 
d="M43 0v160h174v1159h-174v160h868v-326h-163v166h-326v-473h395v-162h-395v-524h377v166h162v-326h-918zM924 1995l-248 -340h-283q-14 20 -124 170t-124 170h226q31 -38 164 -226q143 190 165 226h224z" />
    <glyph glyph-name="ecaron" unicode="&#x11b;" horiz-adv-x="923" 
d="M467 934q-100 0 -139 -73t-45 -212h370q-4 135 -45 210t-141 75zM510 -10q-223 0 -330 155q-106 156 -106 415q0 542 403 542q189 0 281 -132t92 -364v-108h-567q6 -162 56 -251t171 -89q57 0 98 26t86 80l127 -112q-77 -84 -147 -123t-164 -39zM854 1649l-248 -340h-282
q-14 20 -124 170t-124 170h225q26 -33 82 -111q55 -78 82 -115q143 190 166 226h223z" />
    <glyph glyph-name="Gbreve" unicode="&#x11e;" horiz-adv-x="1185" 
d="M655 -10q-297 0 -445 202t-148 548q0 347 142 548q144 201 435 201q250 0 457 -170v-246h-164v156q-133 90 -293 90q-373 0 -373 -561q0 -598 389 -598q152 0 279 69v330h-199v162h385v-561q-127 -90 -228 -130t-237 -40zM611 1638q-133 0 -203 79t-70 214h194
q0 -131 88 -131t89 131h196q0 -137 -80 -215t-214 -78z" />
    <glyph glyph-name="gbreve" unicode="&#x11f;" horiz-adv-x="962" 
d="M250 -218q0 -120 62 -184t166 -63q106 0 176 53t71 150q0 178 -274 209q-76 6 -129 26q-72 -71 -72 -191zM111 703q0 171 99 285t267 114q133 0 225 -74q115 82 127 90l105 -151q-86 -53 -131 -80q33 -74 33 -176q0 -174 -102 -282t-271 -107q-63 0 -119 18
q-20 -38 -20 -100t45 -99t118 -43q189 -18 307 -103t117 -241v-4q0 -176 -126 -275t-316 -99t-307 102q-117 104 -117 283t139 292q-68 71 -68 181t87 196q-92 102 -92 273zM317 708q0 -100 42 -162t120 -62t115 62t37 159q0 236 -154 235q-80 0 -120 -66t-40 -166z
M462 1288q-134 0 -205 78t-71 215h197q0 -133 88 -133t88 131h197q0 -137 -80 -214t-214 -77z" />
    <glyph glyph-name="Gcommaaccent" unicode="&#x122;" horiz-adv-x="1185" 
d="M831 -131l-186 -412h-190l129 412h247zM655 -10q-297 0 -445 202t-148 548q0 347 142 548q144 201 435 201q250 0 457 -170v-246h-164v156q-133 90 -293 90q-373 0 -373 -561q0 -598 389 -598q152 0 279 69v330h-199v162h385v-561q-127 -90 -228 -130t-237 -40z" />
    <glyph glyph-name="gcommaaccent" unicode="&#x123;" horiz-adv-x="962" 
d="M250 -218q0 -120 62 -184t166 -63q106 0 176 53t71 150q0 178 -274 209q-76 6 -129 26q-72 -71 -72 -191zM111 703q0 171 99 285t267 114q133 0 225 -74q115 82 127 90l105 -151q-86 -53 -131 -80q33 -74 33 -176q0 -174 -102 -282t-271 -107q-63 0 -119 18
q-20 -38 -20 -100t45 -99t118 -43q189 -18 307 -103t117 -241v-4q0 -176 -126 -275t-316 -99t-307 102q-117 104 -117 283t139 292q-68 71 -68 181t87 196q-92 102 -92 273zM317 708q0 -100 42 -162t120 -62t115 62t37 159q0 236 -154 235q-80 0 -120 -66t-40 -166z
M330 1196l186 412h193l-131 -412h-248z" />
    <glyph glyph-name="Imacron" unicode="&#x12a;" horiz-adv-x="641" 
d="M43 0v160h174v1159h-174v160h555v-160h-176v-1159h176v-160h-555zM487 1647h-335v159h335v-159z" />
    <glyph glyph-name="imacron" unicode="&#x12b;" horiz-adv-x="598" 
d="M39 0v160h170v772h-170v160h385v-932h156v-160h-541zM485 1296h-338v160h338v-160z" />
    <glyph glyph-name="Iogonek" unicode="&#x12e;" horiz-adv-x="641" 
d="M119 -143q0 88 39 143h-115v160h174v1159h-174v160h555v-160h-176v-1159h176v-160h-225q-90 -57 -90 -125q0 -33 14 -55q13 -22 35 -23q22 0 65 33l97 -125q-88 -67 -176 -67t-144 65q-55 66 -55 154z" />
    <glyph glyph-name="iogonek" unicode="&#x12f;" horiz-adv-x="598" 
d="M117 -143q0 88 39 143h-117v160h170v772h-170v160h385v-932h156v-160h-209q-90 -57 -90 -125q0 -33 14 -55q13 -22 35 -23q22 0 65 33q29 -40 94 -125q-85 -67 -173 -67t-144 65q-55 66 -55 154zM436 1372q0 -102 -121 -102t-120 102q0 49 32 77q33 28 87 28t88 -27
t34 -78z" />
    <glyph glyph-name="Idotaccent" unicode="&#x130;" horiz-adv-x="641" 
d="M43 0v160h174v1159h-174v160h555v-160h-176v-1159h176v-160h-555zM326 1620q-121 0 -121 102q0 49 32 77t87 28t89 -27t33 -78q1 -102 -120 -102z" />
    <glyph glyph-name="dotlessi" unicode="&#x131;" horiz-adv-x="598" 
d="M39 0v160h170v772h-170v160h385v-932h156v-160h-541z" />
    <glyph glyph-name="Kcommaaccent" unicode="&#x136;" horiz-adv-x="1198" 
d="M809 -113l-186 -411h-193l131 411h248zM1186 160v-160h-565v160h124q-217 262 -323 393v-393h113v-160h-492v160h174v1159h-174v160h485v-160h-106v-328q94 111 283 328h-109v160h553v-160h-217q-160 -178 -473 -541q98 -121 518 -618h209z" />
    <glyph glyph-name="kcommaaccent" unicode="&#x137;" horiz-adv-x="1110" 
d="M766 -133l-186 -410h-193l129 410h250zM18 0v160h175v1319h-173v159h379v-909q118 112 217 203h-102v160h533v-160h-203q-356 -330 -402 -381q41 -45 400 -389h266v-162h-328q-2 2 -381 371v-211h111v-160h-492z" />
    <glyph glyph-name="Lacute" unicode="&#x139;" horiz-adv-x="995" 
d="M43 160h176v1159h-178l2 80v80h553v-160h-172v-1159h364v166h164v-326h-911l2 80v80zM106 1638l248 340h226l-248 -340h-226z" />
    <glyph glyph-name="lacute" unicode="&#x13a;" horiz-adv-x="612" 
d="M573 0h-555v160h175v1319h-173l3 80v79h374v-1478h176v-160zM61 1735l248 340h223l-247 -340h-224z" />
    <glyph glyph-name="Lcommaaccent" unicode="&#x13b;" horiz-adv-x="995" 
d="M723 -109l-186 -411h-191l129 411h248zM43 160h176v1159h-178l2 80v80h553v-160h-172v-1159h364v166h164v-326h-911l2 80v80z" />
    <glyph glyph-name="lcommaaccent" unicode="&#x13c;" horiz-adv-x="591" 
d="M475 -113l-186 -409h-193l131 409h248zM573 0h-555v160h175v1319h-173l3 80v79h374v-1478h176v-160z" />
    <glyph glyph-name="Lcaron" unicode="&#x13d;" horiz-adv-x="1138" 
d="M1114 1477l-186 -410h-193l131 410h248zM43 160h176v1159h-178l2 80v80h553v-160h-172v-1159h364v166h164v-326h-911l2 80v80z" />
    <glyph glyph-name="lcaron" unicode="&#x13e;" horiz-adv-x="905" 
d="M573 0h-555v160h175v1319h-173l3 80v79h374v-1478h176v-160zM905 1667l-186 -412h-193l129 412h250z" />
    <glyph glyph-name="Lslash" unicode="&#x141;" horiz-adv-x="995" 
d="M424 160h364v166h164v-326h-911l2 80v80h176v377q-61 -53 -92 -78v180l92 78v602h-178l2 80v80h553v-160h-172v-430q67 48 139 117v-181q-69 -60 -139 -116v-549z" />
    <glyph glyph-name="lslash" unicode="&#x142;" horiz-adv-x="595" 
d="M399 160h179v-160h-555v160h172v487q-55 -49 -113 -94v182q71 63 113 94v650h-170v159h374v-637q65 58 119 101v-182l-119 -99v-661z" />
    <glyph glyph-name="Nacute" unicode="&#x143;" horiz-adv-x="1439" 
d="M43 0v160h174v1159h-172v160h387l596 -1100v940h-174v160h555v-160h-176v-1319h-213q-100 184 -299 551t-299 549v-940h176v-160h-555zM999 1980l-247 -340h-226q178 238 250 340h223z" />
    <glyph glyph-name="nacute" unicode="&#x144;" horiz-adv-x="1165" 
d="M39 0v160h174v772h-174v160h379v-131q110 141 270 141t223 -113t64 -317v-512h174v-160h-506v160h127v495q0 87 -10 143t-47 96t-101 40q-117 0 -194 -158v-616h127v-160h-506zM852 1630l-248 -340h-225q8 12 67 92t114 155q54 75 69 93h223z" />
    <glyph glyph-name="Ncommaaccent" unicode="&#x145;" horiz-adv-x="1439" 
d="M924 -125l-187 -412h-192l129 412h250zM43 0v160h174v1159h-172v160h387l596 -1100v940h-174v160h555v-160h-176v-1319h-213q-100 184 -299 551t-299 549v-940h176v-160h-555z" />
    <glyph glyph-name="ncommaaccent" unicode="&#x146;" horiz-adv-x="1165" 
d="M823 -113l-186 -411h-193l129 411h250zM39 0v160h174v772h-174v160h379v-131q110 141 270 141t223 -113t64 -317v-512h174v-160h-506v160h127v495q0 87 -10 143t-47 96t-101 40q-117 0 -194 -158v-616h127v-160h-506z" />
    <glyph glyph-name="Ncaron" unicode="&#x147;" horiz-adv-x="1439" 
d="M43 0v160h174v1159h-172v160h387l596 -1100v940h-174v160h555v-160h-176v-1319h-213q-100 184 -299 551t-299 549v-940h176v-160h-555zM1124 1997l-247 -340h-283q-14 20 -124 170t-124 170h225l164 -225l164 225h225z" />
    <glyph glyph-name="ncaron" unicode="&#x148;" horiz-adv-x="1165" 
d="M39 0v160h174v772h-174v160h379v-131q110 141 270 141t223 -113t64 -317v-512h174v-160h-506v160h127v495q0 87 -10 143t-47 96t-101 40q-117 0 -194 -158v-616h127v-160h-506zM446 1307q-197 266 -247 340h223q8 -9 35 -47t65 -90t66 -89l164 226h225q-51 -74 -248 -340
h-283z" />
    <glyph glyph-name="Omacron" unicode="&#x14c;" horiz-adv-x="1196" 
d="M268 724q0 -410 169 -521q69 -45 167 -45q197 0 265 178q59 149 61 407q0 578 -342 578q-149 0 -230 -115q-90 -132 -90 -482zM596 -10q-270 0 -402 206t-131 542q1 337 135 544t405 207t401 -205t131 -541q0 -461 -231 -651q-124 -102 -308 -102zM762 1647h-338v159h338
v-159z" />
    <glyph glyph-name="omacron" unicode="&#x14d;" horiz-adv-x="970" 
d="M252 545q0 -119 16 -198t72 -134t164 -55q110 0 156 102t47 283q0 393 -230 393q-225 0 -225 -391zM59 545q1 253 107 405t320 152t320 -152t105 -406q1 -254 -107 -405q-108 -149 -322 -149t-318 150t-105 405zM647 1294h-338v160h338v-160z" />
    <glyph glyph-name="Ohungarumlaut" unicode="&#x150;" horiz-adv-x="1196" 
d="M268 724q0 -410 169 -521q69 -45 167 -45q197 0 265 178q59 149 61 407q0 578 -342 578q-149 0 -230 -115q-90 -132 -90 -482zM596 -10q-270 0 -402 206t-131 542q1 337 135 544t405 207t401 -205t131 -541q0 -461 -231 -651q-124 -102 -308 -102zM1022 2042l-186 -410
h-193l131 410h248zM672 2042l-187 -410h-192l131 410h248z" />
    <glyph glyph-name="ohungarumlaut" unicode="&#x151;" horiz-adv-x="997" 
d="M252 545q0 -119 16 -198t72 -134t164 -55q110 0 156 102t47 283q0 393 -230 393q-225 0 -225 -391zM59 545q1 253 107 405t320 152t320 -152t105 -406q1 -254 -107 -405q-108 -149 -322 -149t-318 150t-105 405zM907 1690l-186 -410h-193l129 410h250zM557 1690
l-186 -410h-193l131 410h248z" />
    <glyph glyph-name="OE" unicode="&#x152;" horiz-adv-x="1591" 
d="M602 162q111 0 195 55v1061q-78 41 -177 41t-171 -46q-180 -115 -183 -560q0 -551 336 -551zM1542 0h-837q-43 -8 -111 -8q-270 0 -401 194t-131 530q0 337 135 554q136 217 436 217q55 0 96 -8h764v-326h-164v166h-325v-473h395v-162h-395v-524h376v166h162v-326z" />
    <glyph glyph-name="oe" unicode="&#x153;" horiz-adv-x="1548" 
d="M1106 934q-70 0 -112 -39t-56 -97t-18 -149h372q-4 135 -45 210t-141 75zM252 545q0 -119 16 -198t72 -134t164 -55q110 0 156 102t47 283q0 393 -230 393q-225 0 -225 -391zM59 545q1 253 107 405t317 152t322 -150q103 150 301 150t290 -132t91 -364v-108h-567
q6 -162 56 -251t173 -89q57 0 98 26t86 80l64 -55l61 -57q-78 -84 -146 -123t-163 -39q-223 0 -336 164q-109 -164 -327 -164t-322 150t-105 405z" />
    <glyph glyph-name="Racute" unicode="&#x154;" horiz-adv-x="1269" 
d="M422 639v-479h174v-160h-555v160h176v1159h-176v160h557q186 -1 290 -107t105 -297q0 -303 -229 -399l272 -516h236v-160h-365l-340 639h-145zM561 1319h-139v-518h174q190 0 190 260q0 119 -58 189t-167 69zM303 1640l248 340h225l-248 -340h-225z" />
    <glyph glyph-name="racute" unicode="&#x155;" horiz-adv-x="817" 
d="M129 0v160h174v772h-174v160h379v-93q113 102 272 103v-168q-176 0 -272 -98v-676h162v-160h-541zM555 1597l-248 -340h-225q197 266 248 340h225z" />
    <glyph glyph-name="Rcommaaccent" unicode="&#x156;" horiz-adv-x="1269" 
d="M877 -123l-187 -409h-192l131 409h248zM422 639v-479h174v-160h-555v160h176v1159h-176v160h557q186 -1 290 -107t105 -297q0 -303 -229 -399l272 -516h236v-160h-365l-340 639h-145zM561 1319h-139v-518h174q190 0 190 260q0 119 -58 189t-167 69z" />
    <glyph glyph-name="rcommaaccent" unicode="&#x157;" horiz-adv-x="724" 
d="M502 -117l-187 -409h-190l129 409h248zM39 0v160h174v772h-174v160h379v-91q113 100 272 101v-168q-176 0 -272 -96v-678h162v-160h-541z" />
    <glyph glyph-name="Rcaron" unicode="&#x158;" horiz-adv-x="1269" 
d="M422 639v-479h174v-160h-555v160h176v1159h-176v160h557q186 -1 290 -107t105 -297q0 -303 -229 -399l272 -516h236v-160h-365l-340 639h-145zM561 1319h-139v-518h174q190 0 190 260q0 119 -58 189t-167 69zM901 1997l-250 -340h-280q-14 20 -125 170t-125 170h225
q20 -25 79 -107q58 -81 85 -118q143 190 166 225h225z" />
    <glyph glyph-name="rcaron" unicode="&#x159;" horiz-adv-x="884" 
d="M131 160h174v772h-176v160h381v-91q113 100 272 101v-168q-176 0 -272 -96v-678h160v-160h-541l2 80v80zM287 1231q-197 266 -248 340h225q55 -82 164 -225q131 176 164 225h225q-51 -74 -248 -340h-282z" />
    <glyph glyph-name="Sacute" unicode="&#x15a;" horiz-adv-x="909" 
d="M842 364q0 -166 -118 -270t-302 -104t-344 123v290h164v-178q96 -67 188 -67t150 65q57 66 57 156t-66 161q-66 70 -202 152q-137 82 -215 180t-78 253t100 252t268 97t328 -118v-277h-164v193q-86 49 -163 49t-119 -53t-43 -135v-11q0 -88 60 -156t171 -137
q164 -98 246 -198t82 -267zM246 1642l248 340h223l-248 -340h-223z" />
    <glyph glyph-name="sacute" unicode="&#x15b;" horiz-adv-x="780" 
d="M386 162q140 0 138 140q0 66 -45 108q-45 41 -131 77q-133 51 -201 128q-67 77 -67 207t80 205t226 75t265 -92v-267h-162v164q-59 27 -113 27t-82 -33t-28 -82q0 -121 152 -180t226 -130t76 -213q1 -142 -88 -224t-245 -82t-328 108v279h162v-170q90 -45 165 -45z
M633 1630l-248 -340h-225q197 266 248 340h225z" />
    <glyph glyph-name="Scedilla" unicode="&#x15e;" horiz-adv-x="909" 
d="M514 -254q0 51 -39 51q-18 0 -41 -18l-141 127q14 33 37 90q-123 16 -252 117v290h164v-178q96 -67 188 -67t150 65q57 66 57 156t-66 161q-66 70 -202 152q-137 82 -215 180t-78 253t100 252t268 97t328 -118v-277h-164v193q-86 49 -163 49t-119 -53t-43 -135v-11
q0 -88 60 -156t171 -137q164 -98 246 -198t82 -251t-82 -249t-223 -129q-5 -8 -13 -28t-14 -29q63 -17 99 -71t36 -141t-61 -141q-62 -53 -153 -53t-161 51l84 129q45 -35 92 -34q68 0 68 61z" />
    <glyph glyph-name="scedilla" unicode="&#x15f;" horiz-adv-x="780" 
d="M386 162q140 0 138 140q0 66 -45 108q-45 41 -131 77q-133 51 -201 128q-67 77 -67 207t80 205t226 75t265 -92v-267h-162v164q-59 27 -113 27t-82 -33t-28 -82q0 -121 152 -180t226 -130t76 -199t-60 -207t-175 -103q-19 -38 -22 -47q63 -17 99 -71t36 -141t-62 -141
t-151 -55q-90 0 -162 54l84 127q45 -33 92 -33q68 0 68 61q0 51 -39 51q-20 0 -41 -20l-141 129q4 10 16 41t19 45q-100 25 -222 98v279h162v-170q90 -45 165 -45z" />
    <glyph glyph-name="Scaron" unicode="&#x160;" horiz-adv-x="937" 
d="M864 364q0 -166 -118 -270t-302 -104t-344 123v290h162v-176q98 -69 190 -69t150 66q57 66 57 155q0 90 -65 161q-66 70 -202 152t-215 180t-79 253t100 252t270 97q169 0 325 -118v-277h-162v191q-84 51 -163 51t-122 -53t-43 -135v-11q1 -88 61 -156t171 -137
q165 -98 247 -198t82 -267zM864 1999l-248 -340h-282q-14 20 -124 170t-124 170h223q8 -10 35 -47t66 -89t65 -89q138 186 164 225h225z" />
    <glyph glyph-name="scaron" unicode="&#x161;" horiz-adv-x="892" 
d="M460 -10q-155 0 -327 108v279h162v-170q90 -45 184 -45q53 0 86 38t33 104t-45 106q-45 41 -133 77q-133 51 -200 128q-66 77 -66 207t79 205q80 75 227 75t265 -92v-267h-162v164q-59 27 -115 27t-82 -33t-26 -82q0 -121 152 -180t226 -130q75 -71 76 -211t-89 -224
t-245 -84zM301 1307q-8 12 -68 92q-59 81 -113 155t-69 93h225q8 -9 35 -47t65 -90t64 -89q143 190 166 226h225q-145 -207 -249 -340h-281z" />
    <glyph glyph-name="Tcommaaccent" unicode="&#x162;" horiz-adv-x="1026" 
d="M694 -121l-186 -411h-193l131 411h248zM233 0v160h179v1149h-201v-158h-162v328h930v-328h-164v158h-199v-1149h172v-160h-555z" />
    <glyph glyph-name="tcommaaccent" unicode="&#x163;" horiz-adv-x="661" 
d="M543 -119l-187 -409h-192l131 409h248zM156 328v575h-127v160h127v166l204 104v-270h254v-160h-254v-567q0 -61 4 -93t25 -59q19 -26 63 -26t91 41l86 -140q-109 -70 -209 -69q-264 0 -264 338z" />
    <glyph glyph-name="Tcaron" unicode="&#x164;" horiz-adv-x="1026" 
d="M233 0v160h179v1149h-201v-158h-162v328h930v-328h-164v158h-199v-1149h172v-160h-555zM514 1769q131 177 164 226h225q-51 -74 -248 -340h-282q-197 266 -248 340h223q8 -10 35 -47t66 -89t65 -90z" />
    <glyph glyph-name="tcaron" unicode="&#x165;" horiz-adv-x="661" 
d="M156 328v600h-127v162h127v139l204 104v-243h254v-162h-254v-424h236l-156 -346h11q45 0 92 41l86 -140q-109 -70 -209 -69q-264 0 -264 338z" />
    <glyph glyph-name="Umacron" unicode="&#x16a;" horiz-adv-x="1368" 
d="M1153 567q0 -578 -475 -577q-244 0 -354 144t-111 423v762h-180v160h553v-160h-187v-729q0 -207 66 -315t227 -107q272 0 273 377v774h-183v160h553v-160h-182v-752zM852 1647h-338v159h338v-159z" />
    <glyph glyph-name="umacron" unicode="&#x16b;" horiz-adv-x="1124" 
d="M741 0v109q-94 -119 -217 -119q-332 0 -331 428v514h-175v160h379v-668q0 -127 33 -197t125 -69q106 0 186 168v606h-176v160h381v-932h158v-160h-363zM694 1296h-338v160h338v-160z" />
    <glyph glyph-name="Uring" unicode="&#x16e;" horiz-adv-x="1368" 
d="M1153 567q0 -578 -475 -577q-244 0 -354 144t-111 423v762h-180v160h553v-160h-187v-729q0 -207 66 -315t227 -107q272 0 273 377v774h-183v160h553v-160h-182v-752zM682 2054q-76 0 -76 -129t79 -129t79 129t-82 129zM434 1921q0 127 65 203t185 76t186 -76
q68 -76 68 -204t-67 -203t-187 -75t-184 76q-66 76 -66 203z" />
    <glyph glyph-name="uring" unicode="&#x16f;" horiz-adv-x="1124" 
d="M741 0v109q-94 -119 -217 -119q-332 0 -331 428v514h-175v160h379v-668q0 -127 33 -197t125 -69q106 0 186 168v606h-176v160h381v-932h158v-160h-363zM524 1704q-73 0 -73 -130q-1 -130 77 -130t78 130t-82 130zM276 1571q0 127 66 203t184 76t188 -76q68 -76 68 -203
t-68 -204t-186 -77q-120 0 -186 77t-66 204z" />
    <glyph glyph-name="Uhungarumlaut" unicode="&#x170;" horiz-adv-x="1368" 
d="M1153 567q0 -578 -475 -577q-244 0 -354 144t-111 423v762h-180v160h553v-160h-187v-729q0 -207 66 -315t227 -107q272 0 273 377v774h-183v160h553v-160h-182v-752zM1112 2042l-186 -410h-193l129 410h250zM762 2042l-187 -410h-192l131 410h248z" />
    <glyph glyph-name="uhungarumlaut" unicode="&#x171;" horiz-adv-x="1124" 
d="M741 0v109q-94 -119 -217 -119q-332 0 -331 428v514h-175v160h379v-668q0 -127 33 -197t125 -69q106 0 186 168v606h-176v160h381v-932h158v-160h-363zM954 1692l-186 -412h-193l132 412h247zM604 1692l-186 -412h-193l131 412h248z" />
    <glyph glyph-name="Uogonek" unicode="&#x172;" horiz-adv-x="1368" 
d="M494 -142q0 89 41 146q-322 78 -322 553v762h-180v160h553v-160h-187v-729q0 -207 66 -315t227 -107q272 0 273 377v774h-183v160h553v-160h-182v-752q0 -541 -416 -575q-80 -55 -80 -125t56 -70q20 0 59 31l94 -125q-82 -65 -172 -65t-145 66t-55 154z" />
    <glyph glyph-name="uogonek" unicode="&#x173;" horiz-adv-x="1124" 
d="M637 -120q0 108 104 188v41q-94 -119 -217 -119q-332 0 -331 428v514h-175v160h379v-668q0 -127 33 -197t125 -69q106 0 186 168v606h-176v160h381v-932h158v-160h-213q-88 -57 -88 -129t55 -72q23 0 57 31l97 -125q-88 -67 -176 -67t-144 66q-55 68 -55 176z" />
    <glyph glyph-name="Ydieresis" unicode="&#x178;" horiz-adv-x="1251" 
d="M8 1479h580v-160h-152q61 -150 180 -449q107 230 199 449h-145v160h579v-160h-227q-33 -70 -291 -629v-530h164v-160h-553v160h164v530l-273 629h-227l2 80v80zM907 1722q0 -102 -121 -102t-120 102q0 49 31 77q32 28 87 28t89 -27t34 -78zM584 1722q0 -102 -122 -102
t-122 102q0 49 33 77t88 28t89 -27t34 -78z" />
    <glyph glyph-name="Zacute" unicode="&#x179;" horiz-adv-x="1071" 
d="M1026 0h-983v160q565 950 688 1159h-469v-166h-162v326h879v-160q-459 -769 -519 -864q-61 -95 -177 -295h581v166h162v-326zM801 1978l-248 -340h-223q51 74 248 340h223z" />
    <glyph glyph-name="zacute" unicode="&#x17a;" horiz-adv-x="841" 
d="M791 0h-738v160q395 653 465 772h-278v-166h-162v326h694v-160q-154 -250 -253 -411t-123 -199t-43 -69q-19 -32 -56 -93h330v166h164v-326zM690 1628l-248 -340h-223q197 266 248 340h223z" />
    <glyph glyph-name="Zdotaccent" unicode="&#x17b;" horiz-adv-x="1071" 
d="M1026 0h-983v160q565 950 688 1159h-469v-166h-162v326h879v-160q-459 -769 -519 -864q-61 -95 -177 -295h581v166h162v-326zM538 1618q-122 0 -122 102q0 49 34 78t87 29t88 -28t34 -79q1 -102 -121 -102z" />
    <glyph glyph-name="zdotaccent" unicode="&#x17c;" horiz-adv-x="841" 
d="M791 0h-738v160q395 653 465 772h-278v-166h-162v326h694v-160q-154 -250 -253 -411t-123 -199t-43 -69q-19 -32 -56 -93h330v166h164v-326zM426 1266q-55 0 -88 28t-33 76q0 49 33 77t88 28t89 -27t34 -78q0 -104 -123 -104z" />
    <glyph glyph-name="Zcaron" unicode="&#x17d;" horiz-adv-x="1071" 
d="M1026 0h-983v160q565 950 688 1159h-469v-166h-162v326h879v-160q-459 -769 -519 -864q-61 -95 -177 -295h581v166h162v-326zM926 1995l-248 -340h-283q-14 20 -124 170t-124 170h226q8 -10 33 -45q24 -35 66 -92t65 -89l163 226h226z" />
    <glyph glyph-name="zcaron" unicode="&#x17e;" horiz-adv-x="911" 
d="M817 0h-739v160q158 262 277 458t139 229q20 34 51 85h-279v-166h-162v326h695v-160q-275 -444 -363 -586t-114 -186h331v166h164v-326zM311 1305q-197 266 -248 340h224q14 -17 75 -103q62 -86 89 -123q143 190 165 226h226q-51 -74 -248 -340h-283z" />
    <glyph glyph-name="florin" unicode="&#x192;" horiz-adv-x="733" 
d="M106 -133q-35 0 -81 10l20 80l18 80q6 -2 21 -2q74 0 94 149q6 35 123 803h-96v162h121q6 41 18 124t18 124q23 133 97 212t184 79q33 0 80 -11l-37 -159q-6 2 -18 2q-74 0 -90 -129q-6 -41 -18 -121t-19 -121h108v-162h-135q-59 -403 -129 -827q-23 -133 -95 -213
t-184 -80z" />
    <glyph glyph-name="Scommaaccent" unicode="&#x218;" horiz-adv-x="909" 
d="M559 -129l-186 -412h-191l129 412h248zM842 364q0 -166 -118 -270t-302 -104t-344 123v290h164v-178q96 -67 188 -67t150 65q57 66 57 156t-66 161q-66 70 -202 152q-137 82 -215 180t-78 253t100 252t268 97t328 -118v-277h-164v193q-86 49 -163 49t-119 -53t-43 -135
v-11q0 -88 60 -156t171 -137q164 -98 246 -198t82 -267z" />
    <glyph glyph-name="scommaaccent" unicode="&#x219;" horiz-adv-x="784" 
d="M479 -141l-186 -410h-191l129 410h248zM270 819q0 -121 152 -180t226 -130t76 -213q1 -142 -88 -224t-245 -82t-328 108v279h162v-170q90 -45 185 -45q53 0 86 38q32 38 32 104t-45 106q-45 41 -133 77q-134 51 -200 128t-66 207t80 205t226 75t265 -92v-267h-161v164
q-60 27 -114 27t-82 -33t-28 -82z" />
    <glyph glyph-name="circumflex" unicode="&#x2c6;" horiz-adv-x="978" 
d="M18 1210l248 340h283q14 -20 124 -170t124 -170h-224q-34 43 -163 226q-143 -190 -166 -226h-226z" />
    <glyph glyph-name="caron" unicode="&#x2c7;" horiz-adv-x="890" 
d="M797 1524l-248 -340h-283q-14 20 -124 170t-124 170h226q31 -38 164 -226q143 190 165 226h224z" />
    <glyph glyph-name="breve" unicode="&#x2d8;" horiz-adv-x="671" 
d="M294 1163q-134 0 -205 79t-71 216h197q0 -133 88 -133t88 131h197q0 -137 -80 -215t-214 -78z" />
    <glyph glyph-name="dotaccent" unicode="&#x2d9;" horiz-adv-x="614" 
d="M418 1372q0 -104 -121 -104t-121 104q0 49 32 77t87 28t89 -27t34 -78z" />
    <glyph glyph-name="ring" unicode="&#x2da;" horiz-adv-x="598" 
d="M268 1444q-73 0 -73 -130q-1 -130 77 -130t78 130t-82 130zM272 1030q-120 0 -186 77t-66 203t66 202t184 77q118 0 188 -76q68 -77 68 -203t-68 -203t-186 -77z" />
    <glyph glyph-name="ogonek" unicode="&#x2db;" horiz-adv-x="487" 
d="M242 129q25 -34 75 -111q-43 -27 -62 -41t-39 -43t-21 -61q0 -78 55 -78q20 0 59 31l94 -125q-85 -68 -173 -68t-144 67q-55 67 -55 165t52 152t159 112z" />
    <glyph glyph-name="tilde" unicode="&#x2dc;" horiz-adv-x="847" 
d="M524 1176q-94 0 -173 101q-7 9 -9 11t-11 14t-15 17q-24 22 -49 22q-81 0 -102 -65q-9 -30 -17 -50t-13 -40l-119 57q29 119 80 185q50 66 140 67q90 -1 152 -69t84 -76q61 -22 90 9q28 29 37 51t28 73l116 -64q-48 -181 -129 -223q-39 -20 -90 -20z" />
    <glyph glyph-name="hungarumlaut" unicode="&#x2dd;" horiz-adv-x="888" 
d="M807 1772l-186 -410h-193l131 410h248zM457 1772l-187 -410h-192l131 410h248z" />
    <glyph glyph-name="pi" unicode="&#x3c0;" horiz-adv-x="1093" 
d="M713 90v926h-326v-926h-192v926h-168v176h1038v-176h-162v-926h-190z" />
    <glyph glyph-name="endash" unicode="&#x2013;" horiz-adv-x="784" 
d="M709 483h-631v176h631v-176z" />
    <glyph glyph-name="emdash" unicode="&#x2014;" horiz-adv-x="1200" 
d="M1122 483h-1046v176h1046v-176z" />
    <glyph glyph-name="quoteleft" unicode="&#x2018;" horiz-adv-x="509" 
d="M76 1253l186 412h191l-129 -412h-248z" />
    <glyph glyph-name="quoteright" unicode="&#x2019;" horiz-adv-x="507" 
d="M453 1479l-187 -412h-190l129 412h248z" />
    <glyph glyph-name="quotesinglbase" unicode="&#x201a;" horiz-adv-x="491" 
d="M414 180l-187 -411h-190l129 411h248z" />
    <glyph glyph-name="quotedblleft" unicode="&#x201c;" horiz-adv-x="800" 
d="M49 1341l187 412h192l-129 -412h-250zM399 1341l187 412h192l-129 -412h-250z" />
    <glyph glyph-name="quotedblright" unicode="&#x201d;" horiz-adv-x="731" 
d="M743 1772l-186 -410h-190l129 410h247zM395 1772l-186 -410h-193l129 410h250z" />
    <glyph glyph-name="quotedblbase" unicode="&#x201e;" horiz-adv-x="835" 
d="M758 180l-187 -411h-192l131 411h248zM414 180l-187 -411h-190l129 411h248z" />
    <glyph glyph-name="dagger" unicode="&#x2020;" horiz-adv-x="1114" 
d="M1077 856h-424v-1470h-192v1470h-422v176h422v484h192v-484h424v-176z" />
    <glyph glyph-name="daggerdbl" unicode="&#x2021;" horiz-adv-x="1165" 
d="M1102 -111h-422v-503h-193v503h-424v177h424v790h-424v176h424v484h193v-484h422v-176h-422v-790h422v-177z" />
    <glyph glyph-name="bullet" unicode="&#x2022;" horiz-adv-x="669" 
d="M333 694q-113 0 -177 54t-64 151q0 99 66 155t176 56t176 -54q68 -54 68 -156t-66 -154t-179 -52z" />
    <glyph glyph-name="ellipsis" unicode="&#x2026;" horiz-adv-x="1075" 
d="M662 90q0 -102 -121 -102t-121 102q0 49 33 77t87 28t88 -27t34 -78zM879 -12q-121 0 -121 102q0 49 33 77t86 28q123 0 122 -105q1 -102 -120 -102zM197 -12q-121 0 -121 102q0 49 32 77t87 28t89 -27t33 -78q1 -102 -120 -102z" />
    <glyph glyph-name="perthousand" unicode="&#x2030;" horiz-adv-x="2562" 
d="M2005 326q0 -299 176 -299q94 -1 126 77t32 218t-35 217q-35 78 -129 77h-4q-94 0 -130 -78t-36 -212zM1403 616q-94 0 -130 -78t-36 -214q0 -138 39 -218t136 -80t129 78t32 220q0 293 -166 292h-4zM1831 325q0 201 88 319t260 118h4q168 0 253 -118t85 -318t-88 -322
q-88 -123 -259 -123t-257 122t-86 322zM1065 324q0 202 88 320t260 118h4q168 0 252 -118t84 -318t-87 -322q-87 -123 -259 -123t-257 121t-85 322zM217 1057q0 -299 176 -299q94 0 126 78t32 217t-35 217t-129 78h-4q-94 0 -130 -78t-36 -213zM686 -115h-190l639 1600h190z
M43 1055q0 201 88 319t260 119h4q168 0 253 -118q85 -117 85 -317t-88 -323t-260 -123t-257 121t-85 322z" />
    <glyph glyph-name="guilsinglleft" unicode="&#x2039;" horiz-adv-x="493" 
d="M412 227q-29 25 -173 127t-171 123v205q22 16 166 122t176 132v-191q-14 -12 -211 -165q201 -152 213 -162v-191z" />
    <glyph glyph-name="guilsinglright" unicode="&#x203a;" horiz-adv-x="493" 
d="M84 936l342 -254v-205q-25 -17 -169 -121t-173 -129v191q41 33 211 162q-172 135 -211 165v191z" />
    <glyph glyph-name="fraction" unicode="&#x2044;" horiz-adv-x="870" 
d="M211 -115h-191l639 1600h191z" />
    <glyph glyph-name="foursuperior" unicode="&#x2074;" horiz-adv-x="763" 
d="M371 1087v259l-156 -259h156zM217 729v119h154v108h-234l-86 131l320 527h166v-527h133v-131h-133v-108h155v-119h-475z" />
    <glyph glyph-name="Euro" unicode="&#x20ac;" horiz-adv-x="1202" 
d="M696 -10q-213 0 -340 123t-170 342h-133v170h113q-2 27 -2 83t2 85h-113v172h131q44 248 180 386t371 138q188 0 381 -150v-245h-164v155q-109 72 -227 72q-279 0 -338 -356h356v-172h-372q-2 -27 -2 -83t2 -85h372v-170h-352q66 -295 314 -295q97 0 167 40t148 122
l121 -121q-93 -107 -197 -159t-248 -52z" />
    <glyph glyph-name="trademark" unicode="&#x2122;" horiz-adv-x="1499" 
d="M1423 668v-133h-280v133h43l-25 227q-41 -174 -65 -313h-107q-12 70 -69 313l-25 -227h47v-133h-287v133h80q47 387 68 587h-68v131h226q33 -178 79 -507l80 507h226v-131h-72l74 -587h75zM469 668h68v-133h-304v133h70v587h-80v-96h-153v227h626v-227h-153v96h-74v-587z
" />
    <glyph glyph-name="estimated" unicode="&#x212e;" horiz-adv-x="1306" 
d="M656 1321q-169 0 -275 -96v-381h555v383q-111 94 -280 94zM701 -10q-301 0 -479 209q-177 209 -177 554t163 541t451 195q287 0 445 -186t158 -504v-109h-881v-403q129 -129 351 -129t364 157q93 -80 125 -108q-219 -217 -520 -217z" />
    <glyph glyph-name="partialdiff" unicode="&#x2202;" horiz-adv-x="911" 
d="M432 152q142 0 186 143q37 116 37 334q-68 133 -217 133q-94 0 -142 -84t-48 -213q0 -313 182 -313h2zM418 -10q-174 0 -268 125t-94 331t96 336q98 131 278 131q135 0 223 -82v33q0 292 -44 373q-47 93 -165 93q-66 0 -129 -75q-53 55 -55 56l-55 53q70 68 127 98
q58 30 148 29q90 0 166 -50q185 -123 186 -578q2 -456 -66 -623t-183 -220q-71 -30 -165 -30z" />
    <glyph glyph-name="product" unicode="&#x220f;" horiz-adv-x="1363" 
d="M47 0v162h172v1317h-168v159h1264v-159h-172v-1317h174v-162h-553v162h172v1317h-510v-1317h176v-162h-555z" />
    <glyph glyph-name="summation" unicode="&#x2211;" horiz-adv-x="829" 
d="M580 1319h-308l406 -557l-416 -600h318v168h186v-330l-94 82q8 -8 94 -82h-719v162l418 596h2l-418 561v160h717q-6 -4 -16 -15l16 15v-334h-186v174zM580 1319q6 4 16 14z" />
    <glyph glyph-name="minus" unicode="&#x2212;" horiz-adv-x="1193" 
d="M1116 553h-1038v176h1038v-176z" />
    <glyph glyph-name="divisionslash" unicode="&#x2215;" horiz-adv-x="858" 
d="M205 -115h-191l639 1600h191z" />
    <glyph glyph-name="bulletoperator" unicode="&#x2219;" horiz-adv-x="638" 
d="M317 694q-113 0 -176 54t-63 152q0 99 64 155q64 55 174 55t178 -54t68 -156t-66 -155q-66 -51 -179 -51z" />
    <glyph glyph-name="radical" unicode="&#x221a;" horiz-adv-x="1089" 
d="M47 588v160h365q2 -8 133 -459q203 707 336 1190h172l-412 -1479h-190q-90 322 -168 588h-236z" />
    <glyph glyph-name="infinity" unicode="&#x221e;" horiz-adv-x="1378" 
d="M414 442q-152 0 -248 110t-96 268t98 264q98 108 251 108t265 -172q112 170 266 170t257 -109t103 -265t-102 -264t-262 -108t-272 185q-108 -187 -260 -187zM1118 820q0 84 -47 146t-115 62t-109 -49q-42 -49 -77 -137q9 -34 18 -56t17 -46t13 -32q6 -8 16 -28
q43 -76 116 -76q74 0 121 66t47 150zM406 1030q-60 0 -101 -61t-41 -149t39 -152q39 -66 111 -66t111 67q26 42 63 142q-51 143 -87 181q-35 38 -95 38z" />
    <glyph glyph-name="integral" unicode="&#x222b;" horiz-adv-x="741" 
d="M100 -133q-33 0 -80 10l37 160q6 -2 19 -2q78 0 98 149q177 1150 184 1213q23 133 97 212t184 79q33 0 80 -11l-37 -159q-6 2 -18 2q-35 0 -60 -38t-31 -91q-63 -412 -194 -1231q-20 -133 -92 -213t-187 -80z" />
    <glyph glyph-name="approxequal" unicode="&#x2248;" horiz-adv-x="1056" 
d="M362 770q74 0 124 -30t114 -95q52 -61 109 -61q29 0 51 28t32 59q9 30 23 81l164 -50q-39 -145 -96 -217t-174 -71q-78 2 -130 32q-51 30 -109 90q-58 62 -112 62q-76 0 -110 -170q-66 20 -164 55q31 141 93 214t185 73zM707 981q29 0 51 28q22 29 33 59q10 30 22 81
q124 -40 164 -51q-39 -143 -96 -215t-174 -72q-78 0 -129 29q-52 29 -110 92t-108 63t-74 -45t-40 -127q-141 49 -164 56q31 141 93 214t185 72q74 -1 125 -29t107 -92t115 -63z" />
    <glyph glyph-name="notequal" unicode="&#x2260;" horiz-adv-x="1083" 
d="M1014 360h-496l-137 -337h-188l137 337h-260v170h327l115 285h-442v170h512l131 326h190l-131 -326h242v-170h-312l-114 -285h426v-170z" />
    <glyph glyph-name="lessequal" unicode="&#x2264;" horiz-adv-x="1067" 
d="M993 -4h-927v170h927v-170zM993 281q-486 262 -927 495v182q309 164 927 496v-180q-508 -270 -762 -408l762 -405v-180z" />
    <glyph glyph-name="greaterequal" unicode="&#x2265;" horiz-adv-x="1067" 
d="M72 -4v170h929v-170h-929zM74 281v180q508 270 760 405q-252 137 -760 408v180q618 -332 925 -496v-182q-175 -96 -501 -269t-424 -226z" />
    <glyph glyph-name="lozenge" unicode="&#x25ca;" horiz-adv-x="831" 
d="M414 1331l-158 -393q53 -133 160 -395q106 266 159 395q-12 29 -70 172t-91 221zM780 938l-262 -649h-205q-211 520 -262 649q86 217 262 647h205q180 -446 262 -647z" />
    <glyph glyph-name="commaaccent" unicode="&#xf6c3;" horiz-adv-x="538" 
d="M449 209l-187 -412h-192l131 412h248z" />
    <glyph glyph-name="fi" unicode="&#xfb01;" horiz-adv-x="866" 
d="M561 1528h4q4 0 4 2v4q-123 0 -156 -81q-32 -81 -32 -193v-134h403l2 2v-958h68v-170h-336v170h41v786h-178v-786h45v-170h-416v170h140v786h-138v170h138v99q0 217 98 348t311 131q111 0 229 -49v-312h-227v185z" />
    <glyph glyph-name="fl" unicode="&#xfb02;" horiz-adv-x="1630" 
d="M1319 170h268v-170h-649v170h156v786h-418v-786h164v-170h-666v170h272v786h-385v170h385v95q0 223 148 352t391 129q156 0 334 -49v-1483zM1028 1534h-33q-145 0 -232 -85t-87 -228v-95h418v402q-23 6 -66 6z" />
    <glyph glyph-name="tcedilla" horiz-adv-x="661" 
d="M356 -473q-90 0 -161 53l84 129q45 -35 84 -35q75 0 75 62q0 51 -39 51q-18 0 -41 -18l-141 127q23 59 55 133q-117 76 -116 299v600h-127v162h127v139l204 104v-243h254v-162h-254v-592q0 -61 4 -93t25 -59q19 -26 63 -26t91 41l86 -140q-88 -57 -168 -67q-4 -8 -12 -28
t-15 -30q64 -16 100 -70t36 -141t-62 -142q-62 -54 -152 -54z" />
    <glyph glyph-name="Tcedilla" horiz-adv-x="1026" 
d="M518 -471q-90 0 -162 53l84 127q45 -33 84 -33q76 0 76 62q0 51 -39 51q-18 0 -41 -18l-141 127q25 61 43 102h-189v160h179v1149h-201v-158h-162v328h930v-328h-164v158h-199v-1149h172v-160h-163q-8 -18 -29 -63q63 -17 99 -71t36 -141t-61 -142q-62 -54 -152 -54z" />
    <glyph glyph-name="softhyphen" horiz-adv-x="829" 
d="M752 686h-674v176h674v-176z" />
    <glyph glyph-name="litre" horiz-adv-x="618" 
d="M586 0h-555v160h174v1319h-172l2 80v79h375v-1478h176v-160z" />
    <glyph glyph-name="ruble" horiz-adv-x="1024" 
d="M530 834q242 0 242 237q0 119 -66 183t-192 65h-80v-485h96zM55 0v160h174v178h-120v170h120v156h-120v170h120v485h-174v160h486q207 -1 321 -105t115 -301q0 -197 -114 -301t-318 -108h-111v-156h258v-170h-258v-178h176v-160h-555z" />
    <glyph glyph-name="nullsuperior" horiz-adv-x="831" 
d="M244 1159q0 -299 176 -299q94 0 127 78t33 219q0 293 -166 293h-4q-94 0 -130 -78t-36 -213zM422 1595q168 1 253 -117t85 -318t-88 -322t-259 -123t-257 121t-86 322t88 319t260 118h4z" />
    <glyph glyph-name="omegamath" horiz-adv-x="1284" 
d="M90 709q0 477 239 673q128 106 318 107q141 0 247 -59t170 -167q126 -213 126 -549q0 -335 -139 -552h176v-162h-312l-120 162q111 110 151 240t39 308q0 374 -147 532q-82 87 -209 87q-334 0 -334 -620q0 -179 37 -307t141 -240l-113 -162h-305v162h178
q-143 223 -143 547z" />
    <glyph glyph-name="apostrophemod" horiz-adv-x="538" 
d="M457 1479l-185 -412h-192l129 412h248z" />
    <glyph glyph-name="mumath" horiz-adv-x="1163" 
d="M541 -8q-70 0 -125 18v-624h-205v1546h-176v162h381v-668q0 -129 33 -198t122 -68q106 0 187 164v608h-174v162h379v-932h159v-160h-364v107q-92 -117 -217 -117z" />
    <glyph glyph-name="macronmod" horiz-adv-x="444" 
d="M391 1239h-338v160h338v-160z" />
    <glyph glyph-name="turkishlira" horiz-adv-x="1239" 
d="M57 0v160h172v475h-127v170h127v168h-127v172h127v174h-172v160h559v-160h-182v-174h359v-172h-359v-168h359v-170h-359v-475h197q354 0 354 567h207q0 -343 -142 -535t-440 -192h-553z" />
    <glyph glyph-name="rupee" horiz-adv-x="1077" 
d="M0 0v41h1077v-41h-1077z" />
    <glyph glyph-name="deltamath" horiz-adv-x="1204" 
d="M229 176h744l-367 1137zM1165 0h-1128v176l465 1411h209l454 -1411v-176z" />
    <glyph glyph-name="logo" horiz-adv-x="3039" 
d="M2578 -10q-184 0 -342 121v290h162v-176q94 -67 188 -67t152 66t58 154q0 89 -67 161q-67 71 -203 153t-214 179t-78 253t100 253t270 97q169 0 325 -120v-275h-162v191q-84 51 -163 51t-122 -53t-43 -138v-10q0 -150 232 -291q165 -100 247 -200t82 -266t-118 -270
q-120 -103 -304 -103zM227 0v160h176v1149h-200v-158h-162v328h930v-328h-164v158h-199v-1149h174v-160h-555zM1569 1319h-158v-1159h195q207 0 284 161q72 146 72 398q0 441 -203 556q-77 44 -190 44zM1034 0v160h170v1159h-170v160h545q301 0 444 -199t143 -547
q0 -349 -142 -541t-437 -192h-553z" />
    </font>
</defs>
</svg>
