<?xml version="1.0" standalone="no"?>
<!DOCTYPE svg PUBLIC "-//W3C//DTD SVG 1.1//EN" "http://www.w3.org/Graphics/SVG/1.1/DTD/svg11.dtd" >
<svg xmlns="http://www.w3.org/2000/svg">
<metadata>
Created by FontPrep 20130207 at Thu Feb 19 11:05:01 2015
 By Simon Egli
</metadata>
<defs>
<font id="1246757e3adc9d9feb479b5fc8ffb91d" horiz-adv-x='1024' >
  <font-face 
    font-family="SeanSlab-CompressedSemibold"
    font-weight="184"
    font-stretch="extra-condensed"
    units-per-em="2048"
    panose-1="0 0 0 0 0 0 0 0 0 0"
    ascent="1434"
    descent="-614"
    x-height="1092"
    cap-height="1479"
    bbox="-29 -624 2920 2196"
    underline-thickness="0"
    underline-position="0"
    unicode-range="U+0020-FB02"
  />
<missing-glyph horiz-adv-x="1024" 
d="M205 -512h614v2048h-614v-2048zM102 -614v2252h820v-2252h-820z" />
    <glyph glyph-name=".notdef" horiz-adv-x="1024" 
d="M205 -512h614v2048h-614v-2048zM102 -614v2252h820v-2252h-820z" />
    <glyph glyph-name=".null" horiz-adv-x="0" 
 />
    <glyph glyph-name="nonmarkingreturn" horiz-adv-x="681" 
 />
    <glyph glyph-name="space" unicode=" " horiz-adv-x="491" 
 />
    <glyph glyph-name="exclam" unicode="!" horiz-adv-x="413" 
d="M305 80q0 -82 -97 -82t-97 82q1 38 27 60t69 22q98 0 98 -82zM287 469h-162v1010h162v-1010z" />
    <glyph glyph-name="quotedbl" unicode="&#x22;" horiz-adv-x="704" 
d="M592 1210h-154v385h154v-385zM272 1210h-161v385h161v-385z" />
    <glyph glyph-name="numbersign" unicode="#" horiz-adv-x="1058" 
d="M618 606l78 342h-258l-80 -342h260zM842 477h-90l-93 -397h-161l92 397h-260l-88 -383h-154l86 383h-100l30 129h99l78 342h-105l17 64l14 63h102l90 404h160l-92 -404h260l92 404h162l-92 -404h90l-33 -127h-88l-78 -342h94z" />
    <glyph glyph-name="dollar" unicode="$" horiz-adv-x="882" 
d="M489 -88h-159v186q-123 16 -244 97v245h129v-155q109 -66 207 -66t162 56q63 56 63 151t-83 164q-59 49 -191 124q-133 75 -207 163t-74 209q0 120 69 202t185 107v188h162v-184q115 -14 244 -103v-245h-129v170q-93 55 -183 55t-138 -53t-48 -136t55 -141t191 -134
q136 -77 223 -168q86 -91 86 -219t-87 -216t-233 -111v-186z" />
    <glyph glyph-name="percent" unicode="%" horiz-adv-x="1681" 
d="M1303 612q-103 0 -141 -82t-38 -234q0 -151 40 -237t144 -86t140 85q35 86 35 236t-38 234t-138 84h-4zM987 295q0 199 79 317t242 119q162 0 240 -117q78 -118 78 -316t-79 -320t-241 -122t-241 120q-78 120 -78 319zM371 1397q-102 0 -140 -83t-38 -234
q-1 -150 39 -236t147 -86q73 0 111 48t49 110q10 62 10 188t-37 209q-37 84 -137 84h-4zM608 -135h-151l630 1638h152zM381 1513q157 -1 235 -117t78 -314t-79 -320t-241 -121q-162 -1 -241 119q-78 120 -78 319t79 317t243 117h4z" />
    <glyph glyph-name="ampersand" unicode="&#x26;" horiz-adv-x="1118" 
d="M440 -10q-166 0 -263 110t-97 285q0 125 63 216t187 187q-152 198 -152 356t74 252t206 93q132 0 208 -91t75 -237q0 -205 -221 -393q7 -7 19 -27q127 -170 237 -323q35 96 72 260l65 -12l66 -15q-51 -233 -111 -360q146 -203 211 -291h-184q-52 67 -111 154
q-133 -164 -344 -164zM242 372q0 -104 53 -178t151 -75q164 0 259 147l-293 416q-84 -68 -127 -136q-43 -70 -43 -174zM332 1155q0 -125 108 -278q139 129 140 282q0 89 -31 145t-96 56q-121 0 -121 -205z" />
    <glyph glyph-name="quotesingle" unicode="'" horiz-adv-x="382" 
d="M272 1210h-161v385h161v-385z" />
    <glyph glyph-name="parenleft" unicode="(" horiz-adv-x="589" 
d="M74 668q0 365 89 641t302 567l96 -82q-186 -264 -257 -520t-71 -607t71 -607t259 -515l-98 -88q-213 293 -302 569t-89 642z" />
    <glyph glyph-name="parenright" unicode=")" horiz-adv-x="608" 
d="M377 668q0 346 -75 603t-271 521l98 86q223 -287 315 -562t92 -644t-96 -652t-317 -593l-98 84q193 283 273 547t79 610z" />
    <glyph glyph-name="asterisk" unicode="*" horiz-adv-x="716" 
d="M449 1032l131 -168l-111 -88q-10 16 -47 76t-57 90q-49 -70 -111 -166l-55 43q0 2 -56 45q35 45 136 164q-88 35 -175 70l46 123q68 -37 149 -78l-12 209h145q-8 -148 -8 -213q45 27 143 80l45 -121q-27 -12 -83 -34t-80 -32z" />
    <glyph glyph-name="plus" unicode="+" horiz-adv-x="1167" 
d="M1096 569h-437v-495h-151v495h-436v142h436v483h151v-485h437v-140z" />
    <glyph glyph-name="comma" unicode="," horiz-adv-x="477" 
d="M371 145l-176 -391h-152l133 391h195z" />
    <glyph glyph-name="hyphen" unicode="-" horiz-adv-x="643" 
d="M537 498h-433v141h433v-141z" />
    <glyph glyph-name="period" unicode="." horiz-adv-x="395" 
d="M293 72q0 -82 -95 -82t-96 82q0 40 26 62t69 22t69 -22t27 -62z" />
    <glyph glyph-name="slash" unicode="/" horiz-adv-x="894" 
d="M213 -86h-162q498 1380 631 1755h162q-133 -375 -631 -1755z" />
    <glyph glyph-name="zero" unicode="0" horiz-adv-x="1120" 
d="M242 782q0 -182 13 -283q32 -247 146 -327q68 -47 167 -47q199 0 259 187q31 92 41 190t10 239t-10 239q-29 246 -144 328q-67 46 -159 46t-150 -34t-92 -86q-33 -52 -57 -161t-24 -291zM84 737q0 752 485 752q266 0 371 -218q96 -198 95 -529t-97 -532
q-104 -220 -376 -220t-381 218q-97 196 -97 529z" />
    <glyph glyph-name="one" unicode="1" horiz-adv-x="759" 
d="M170 0v129h192v1143l-212 -225l-91 100l303 332h162v-1350h199v-129h-553z" />
    <glyph glyph-name="two" unicode="2" horiz-adv-x="884" 
d="M666 356h129v-356h-727v129q164 197 329 399q227 279 228 527q0 299 -191 299q-94 0 -145 -71q-41 -55 -66 -111q-26 -56 -30 -62l-58 33q-2 2 -57 33q115 313 362 313q168 0 252 -115t84 -313q0 -305 -280 -629q-174 -217 -263 -303l433 -2v229z" />
    <glyph glyph-name="three" unicode="3" horiz-adv-x="854" 
d="M375 -10q-86 0 -153 32t-146 97l88 96q110 -90 218 -90t172 79t64 215t-72 224q-73 88 -190 88v109q96 0 155 73q58 74 58 190q0 115 -49 183q-50 68 -154 68t-180 -131l-51 34q0 2 -53 35q43 84 124 140t181 57q162 -1 250 -103t88 -278q0 -217 -150 -317
q199 -104 199 -369q0 -204 -103 -318t-296 -114z" />
    <glyph glyph-name="four" unicode="4" horiz-adv-x="950" 
d="M518 645v541l-317 -541h317zM319 0v127h199v379h-399l-74 139l236 406q2 0 235 403h160l2 -809h207v-139h-207v-379h192v-127h-551z" />
    <glyph glyph-name="five" unicode="5" horiz-adv-x="831" 
d="M758 475q0 -209 -108 -347t-278 -138t-300 112l84 101q112 -80 218 -80t164 101t58 251q0 336 -205 336q-68 0 -115 -47l-153 53v662h590v-127l-437 -2v-426q61 25 123 24q175 0 267 -132t92 -341z" />
    <glyph glyph-name="six" unicode="6" horiz-adv-x="927" 
d="M485 133q100 0 149 85q48 85 48 212q0 313 -209 313q-166 0 -240 -196v-35q0 -379 252 -379zM483 877q175 0 269 -119t94 -322q0 -204 -94 -328t-284 -124t-290 142t-100 380q0 737 696 991l27 -63l24 -66q-432 -158 -553 -571q90 80 211 80z" />
    <glyph glyph-name="seven" unicode="7" horiz-adv-x="849" 
d="M207 1352v-205h-127v332h739v-127l-563 -1352h-164l580 1352h-465z" />
    <glyph glyph-name="eight" unicode="8" horiz-adv-x="897" 
d="M449 125q100 -1 151 65t51 174t-50 183q-50 74 -150 145q-104 -76 -155 -146q-50 -70 -50 -180t51 -176q52 -65 152 -65zM272 1135q0 -97 44 -157t137 -124q86 60 129 122t43 159t-46 159q-47 62 -135 62t-130 -62t-42 -159zM111 1130q0 166 88 262t251 97q162 0 248 -95
t86 -268q0 -120 -53 -198t-162 -154q123 -90 183 -180t61 -225q0 -179 -97 -279q-98 -100 -274 -100t-268 100t-92 258t61 247t189 179q-111 76 -166 156t-55 200z" />
    <glyph glyph-name="nine" unicode="9" horiz-adv-x="923" 
d="M455 737q158 0 233 160q2 23 2 70q0 379 -250 379q-102 0 -152 -82t-50 -219t53 -223t164 -85zM440 602q-176 0 -268 120t-92 322t93 327q93 124 283 124t290 -142q99 -142 100 -380q0 -738 -664 -1004l-30 64h-2q-2 4 -31 63q442 180 540 594q-92 -88 -219 -88z" />
    <glyph glyph-name="colon" unicode=":" horiz-adv-x="401" 
d="M297 72q0 -82 -95 -82t-96 82q0 40 26 62t69 22t69 -22t27 -62zM297 829q0 -84 -95 -84t-96 84q0 39 26 61t69 22t69 -22t27 -61z" />
    <glyph glyph-name="semicolon" unicode=";" horiz-adv-x="573" 
d="M438 168l-182 -371h-160l135 371h207zM343 745q-95 0 -95 84q0 39 25 61q26 22 69 22t70 -22t26 -61q0 -84 -95 -84z" />
    <glyph glyph-name="less" unicode="&#x3c;" horiz-adv-x="1044" 
d="M971 4l-916 541v139q299 184 901 553v-139q-131 -80 -393 -241t-393 -241l801 -473v-139z" />
    <glyph glyph-name="equal" unicode="=" horiz-adv-x="1144" 
d="M1038 379h-932v133h932v-133zM1038 834h-932v133h932v-133z" />
    <glyph glyph-name="greater" unicode="&#x3e;" horiz-adv-x="1042" 
d="M88 4v139q686 422 784 482q-532 315 -800 473v139q307 -180 917 -541v-139q-602 -369 -901 -553z" />
    <glyph glyph-name="question" unicode="?" horiz-adv-x="663" 
d="M219 -10q-43 0 -69 22t-25 59q0 37 27 61t67 24q96 0 96 -83t-96 -83zM299 453h-162v274h66q115 0 169 93q54 92 54 234q0 304 -203 304q-43 0 -88 -25l-24 66l-27 63q72 33 154 33q164 0 254 -122t90 -305t-74 -307t-209 -157v-151z" />
    <glyph glyph-name="at" unicode="@" horiz-adv-x="1294" 
d="M651 150q57 0 84 40t43 119q-4 66 -4 148t-26 145q-27 64 -107 64q-79 0 -107 -64t-28 -186t30 -194t115 -72zM664 -313q-287 1 -438 195q-150 194 -150 524t148 524t430 194t420 -190t138 -512q0 -180 -47 -278t-165 -97q-118 0 -173 80q-61 -104 -194 -104
q-273 0 -273 386t287 386q139 -1 207 -103t68 -272v-64q0 -96 14 -142t63 -46t62 60q12 60 12 188q0 258 -103 417q-104 159 -316 159t-322 -161t-111 -425q0 -264 113 -428t338 -162q115 0 205 65l63 -110q-68 -49 -128 -67t-148 -17z" />
    <glyph glyph-name="A" unicode="A" horiz-adv-x="1339" 
d="M571 127v-127h-587v127h209l419 1352h150l373 -1352h211v-127h-588v127h211q-40 162 -92 348h-408q-23 -82 -102 -348h204zM842 612q-27 102 -79 304t-79 305q-44 -145 -176 -609h334z" />
    <glyph glyph-name="B" unicode="B" horiz-adv-x="1079" 
d="M590 770h-176v-643h170q124 0 190 84q66 83 66 231t-62 238t-188 90zM578 1352h-164v-455h176q88 0 134 58t46 163q0 106 -49 170t-143 64zM53 0v127h193v1225h-191v127h523q166 1 259 -97t93 -273t-144 -271q215 -115 215 -402q-1 -204 -111 -320t-306 -116h-531z" />
    <glyph glyph-name="C" unicode="C" horiz-adv-x="1079" 
d="M588 -10q-262 0 -383 192t-121 531q0 338 121 552q61 108 169 166t253 58q180 0 364 -148v-245h-129v174q-119 84 -236 84q-226 0 -308 -191q-72 -166 -72 -452q0 -430 177 -540q71 -44 172 -44t175 41t152 127l96 -96q-92 -105 -192 -157t-238 -52z" />
    <glyph glyph-name="D" unicode="D" horiz-adv-x="1234" 
d="M578 1352h-170v-1225h204q209 0 295 158t86 440t-87 444q-96 183 -328 183zM55 0v127h191v1225h-191v127h531q293 0 431 -200t138 -547q0 -348 -136 -540t-423 -192h-541z" />
    <glyph glyph-name="E" unicode="E" horiz-adv-x="1026" 
d="M53 0v127h195v1225h-195v127h860v-310h-131v183h-372v-523h409v-129h-409v-573h424v182h129v-309h-910z" />
    <glyph glyph-name="F" unicode="F" horiz-adv-x="985" 
d="M53 0v127h195v1225h-195v127h867v-310h-129v183h-381v-523h401v-129h-401v-573h194v-127h-551z" />
    <glyph glyph-name="G" unicode="G" 
d="M647 -10q-289 0 -428 202t-139 548q0 347 134 548t417 201q240 0 440 -170v-246h-129v174q-143 106 -311 107q-389 0 -389 -598q0 -631 405 -631q164 0 303 90v358h-223v127h371v-540q-121 -90 -220 -130t-231 -40z" />
    <glyph glyph-name="H" unicode="H" horiz-adv-x="1404" 
d="M53 0v127h195v1225h-195v127h551v-127h-194v-545h585v545h-192v127h551v-127h-197v-1225h197v-127h-551v127h192v551h-585v-551h194v-127h-551z" />
    <glyph glyph-name="I" unicode="I" horiz-adv-x="657" 
d="M53 0v127h195v1225h-195v127h553v-127h-196v-1225h196v-127h-553z" />
    <glyph glyph-name="J" unicode="J" horiz-adv-x="819" 
d="M254 -10q-104 0 -211 94q43 57 76 102q78 -66 135 -66t93 26q59 42 73 186q4 51 4 137v883h-193v127h551v-127h-196v-883q0 -235 -77 -357t-255 -122z" />
    <glyph glyph-name="K" unicode="K" horiz-adv-x="1204" 
d="M53 0v127h195v1225h-195v127h492v-127h-135v-408l346 408h-140v127h545v-127h-219q-23 -25 -500 -574l541 -651h213v-127h-553v127h154q-258 319 -387 477v-477h137v-127h-494z" />
    <glyph glyph-name="L" unicode="L" horiz-adv-x="1007" 
d="M53 0v127h197v1225h-197v127h551v-127h-192v-1225h411v182h131v-309h-901z" />
    <glyph glyph-name="M" unicode="M" horiz-adv-x="1646" 
d="M590 127v-127h-551v127h209q51 864 71 1225h-194v127h344q57 -209 175 -625t177 -625q139 509 348 1250h351v-127h-189q49 -762 82 -1225h197v-127h-553v127h194q-25 511 -51 960q-225 -828 -299 -1087h-156q-143 520 -303 1083q-16 -301 -53 -956h201z" />
    <glyph glyph-name="N" unicode="N" horiz-adv-x="1441" 
d="M55 127h193v1225h-193v127h363q106 -197 315 -589t316 -589v1051h-193v127h551v-127h-197v-1352h-170q-430 799 -630 1178v-1051h194v-127h-551l2 63v64z" />
    <glyph glyph-name="O" unicode="O" 
d="M412 1306q-166 -114 -166 -566q0 -453 176 -568q72 -47 165 -47q170 0 255 123q98 146 98 495q0 442 -180 564q-72 47 -175 47t-173 -48zM84 766q0 433 215 619q119 103 299 104q380 0 476 -453q28 -131 28 -293q0 -327 -115 -532q-59 -105 -159 -163t-237 -58
q-272 0 -393 219q-114 205 -114 557z" />
    <glyph glyph-name="P" unicode="P" horiz-adv-x="1017" 
d="M55 0v127h193v1225h-193v127h477q193 0 304 -134q110 -133 110 -343t-102 -332t-291 -123q-72 0 -143 33v-453h196v-127h-551zM580 672q98 0 151 88t53 238t-69 252q-70 101 -203 102h-102v-635q72 -45 170 -45z" />
    <glyph glyph-name="Q" unicode="Q" horiz-adv-x="1202" 
d="M246 712q0 -158 26 -284q26 -127 109 -215q81 -88 201 -88t191 48q169 114 169 561t-180 566q-72 48 -174 48t-172 -48q-122 -82 -156 -328q-14 -102 -14 -260zM84 737q0 340 126 548t389 208t384 -205t121 -521t-93 -516t-294 -247q85 -170 195 -252t282 -82v-133
q-233 0 -384 111t-257 344q-165 10 -273 114t-152 262t-44 369z" />
    <glyph glyph-name="R" unicode="R" horiz-adv-x="1257" 
d="M1270 127v-127h-342q-53 104 -342 655h-176v-528h194v-127h-551v127h195v1225h-195v127h543q180 -1 278 -105t98 -272q1 -329 -231 -418l291 -557h238zM567 1352h-157v-568h188q109 0 161 77t52 208t-62 207q-63 76 -182 76z" />
    <glyph glyph-name="S" unicode="S" horiz-adv-x="907" 
d="M414 -10q-94 0 -165 30t-153 95v276h129v-188q109 -80 208 -80t162 72q62 72 62 174t-65 178q-66 75 -204 161t-210 180q-74 94 -74 246t92 248t253 97q93 0 161 -30t150 -93v-266h-129v202q-103 64 -187 64t-131 -60t-47 -153v-13q0 -98 60 -170t198 -158t216 -184
t79 -262q0 -164 -110 -265q-111 -101 -295 -101z" />
    <glyph glyph-name="T" unicode="T" horiz-adv-x="1042" 
d="M244 0v127h196v1214h-250v-174h-127v312h918v-312h-129v174h-250v-1214h195v-127h-553z" />
    <glyph glyph-name="U" unicode="U" horiz-adv-x="1366" 
d="M1128 559q0 -569 -448 -569q-236 0 -340 145t-104 422v795h-197v127h549v-127h-205v-770q0 -219 69 -335t238 -116q291 0 291 410v811h-203v127h551v-127h-201v-793z" />
    <glyph glyph-name="V" unicode="V" horiz-adv-x="1331" 
d="M-12 1352v127h598v-127h-219q43 -156 145 -531t158 -577q53 204 154 578t143 530h-222v127h596v-127h-208l-375 -1352h-178l-381 1352h-211z" />
    <glyph glyph-name="W" unicode="W" horiz-adv-x="1636" 
d="M1087 1352v127h553v-127h-208l-258 -1352h-140q-139 766 -209 1147q-170 -858 -229 -1147h-139q-164 901 -248 1352h-209v127h561v-127h-209q49 -287 183 -1043q123 651 221 1170h147q33 -195 99 -582t98 -582q33 173 95 519t95 518h-203z" />
    <glyph glyph-name="X" unicode="X" horiz-adv-x="1267" 
d="M51 1352v127h543v-127h-152q96 -197 195 -396l99 198q67 132 100 198h-156v127h541v-127h-215l-142 -284q-94 -189 -141 -286q270 -545 324 -655h213v-127h-562v127h176q-236 477 -237 481q-160 -319 -240 -481h170v-127h-559v127h213l330 657l-281 568h-219z" />
    <glyph glyph-name="Y" unicode="Y" horiz-adv-x="1220" 
d="M692 127h189v-127h-551v127h188v563q-199 459 -289 662h-229v127h569v-127h-176q92 -221 211 -518q68 152 227 518h-169v127h567v-127h-232q-256 -562 -305 -662v-563z" />
    <glyph glyph-name="Z" unicode="Z" horiz-adv-x="1054" 
d="M999 0h-944v127q647 1135 699 1225h-510v-183h-131v310h833v-127q-690 -1198 -704 -1225h626v182h131v-309z" />
    <glyph glyph-name="bracketleft" unicode="[" horiz-adv-x="448" 
d="M395 -244h-297v1821h297v-141h-135v-1538h135v-142z" />
    <glyph glyph-name="backslash" unicode="\" horiz-adv-x="858" 
d="M805 -139h-170q-96 311 -290 934t-290 934h168q98 -311 291 -934t291 -934z" />
    <glyph glyph-name="bracketright" unicode="]" horiz-adv-x="450" 
d="M350 -244h-297v142h137v1538h-137v141h297v-1821z" />
    <glyph glyph-name="asciicircum" unicode="^" horiz-adv-x="862" 
d="M610 942q-86 225 -180 457q-119 -303 -178 -457h-160q104 279 258 664h160q43 -109 131 -332t131 -332h-162z" />
    <glyph glyph-name="underscore" unicode="_" horiz-adv-x="1028" 
d="M1018 -403h-1010v127h1010v-127z" />
    <glyph glyph-name="grave" unicode="`" horiz-adv-x="724" 
d="M256 1550q55 -85 244 -340h-178q-14 20 -118 162t-126 178h178z" />
    <glyph glyph-name="a" unicode="a" horiz-adv-x="954" 
d="M600 0v121q-100 -131 -244 -131t-210 85q-67 85 -66 236q0 270 303 326q51 10 123 20t94 15v69q0 227 -176 228q-90 0 -172 -66v-201h-131v246q135 150 325 150q315 0 316 -318v-653h182v-127h-344zM381 117q80 0 124 46t95 144v252q-18 -2 -215 -39q-67 -14 -107 -67
t-40 -134q0 -202 143 -202z" />
    <glyph glyph-name="b" unicode="b" horiz-adv-x="1073" 
d="M604 123h2q225 0 225 414q0 319 -112 398q-47 34 -117 34q-123 0 -231 -138v-585q102 -123 233 -123zM618 -10q-143 0 -247 94v-84h-353v127h191v1384h-193l2 64v63h353v-651q111 115 252 115q188 0 278 -156t90 -402t-92 -401q-93 -153 -281 -153z" />
    <glyph glyph-name="c" unicode="c" horiz-adv-x="858" 
d="M485 -10q-406 0 -405 557q0 260 101 407t315 148q141 0 274 -137v-246h-131v188q-76 61 -152 62q-137 0 -191 -112q-54 -111 -54 -311t55 -312t197 -111q96 0 186 139l108 -76q-49 -94 -129 -145t-174 -51z" />
    <glyph glyph-name="d" unicode="d" horiz-adv-x="1079" 
d="M702 0v90q-92 -96 -231 -96q-195 0 -295 152t-100 396t99 400t298 156q129 0 229 -78v491h-190v127h360v-1511h191v-127h-361zM498 123q121 0 204 137v608q-84 100 -210 100t-190 -118q-64 -119 -64 -305q0 -253 107 -362q61 -60 153 -60z" />
    <glyph glyph-name="e" unicode="e" horiz-adv-x="890" 
d="M452 969q-114 0 -157 -86t-49 -246h409q-1 158 -45 245t-158 87zM494 -10q-410 0 -410 583q0 528 375 529q350 0 350 -492v-96h-563q6 -188 58 -290t190 -101q61 0 104 30t90 89l49 -43v-2q4 -2 51 -43q-74 -84 -140 -124t-154 -40z" />
    <glyph glyph-name="f" unicode="f" horiz-adv-x="733" 
d="M604 129v-129h-551v129h195v815h-195v129h195v211q0 162 73 263t209 102q94 0 185 -66v-246h-129v179q-27 10 -56 10q-121 0 -120 -248v-205h245v-129h-245v-815h194z" />
    <glyph glyph-name="g" unicode="g" horiz-adv-x="937" 
d="M219 -246q0 -110 67 -180q68 -70 180 -70t186 60t75 164q0 195 -285 225q-76 10 -133 31q-90 -74 -90 -230zM123 711q0 171 91 281q90 110 236 110t234 -82q119 88 137 100l84 -119q-66 -45 -143 -94q37 -82 37 -188q0 -167 -93 -273t-253 -106q-70 0 -127 22
q-35 -46 -35 -120t50 -116t130 -50q180 -18 291 -102t110 -232v-8q0 -166 -118 -262t-297 -96q-180 0 -290 102t-110 281t146 290q-74 67 -74 183t88 204q-94 105 -94 275zM637 720q0 110 -42 182t-131 73q-89 -1 -134 -75t-45 -184t47 -179q47 -70 134 -70t129 71
q42 72 42 182z" />
    <glyph glyph-name="h" unicode="h" horiz-adv-x="1130" 
d="M520 127v-127h-504l2 63v64h195v1384h-197l2 64v63h355v-700q109 160 270 160q283 0 283 -416v-555h192v-127h-502v127h148v541q0 145 -33 223t-133 78q-139 0 -225 -193v-649h147z" />
    <glyph glyph-name="i" unicode="i" horiz-adv-x="602" 
d="M47 0v127h191v838h-191v127h361v-965h176v-127h-537zM322 1290q-95 0 -95 82q0 39 26 62q27 22 69 22t69 -22t27 -62q-1 -82 -96 -82z" />
    <glyph glyph-name="j" unicode="j" horiz-adv-x="507" 
d="M76 -623q-20 0 -49 5q8 49 24 124q10 -2 33 -2q68 0 100 67t33 159v1235h-197v127h359v-1362q0 -152 -82 -252t-221 -101zM299 1290q-94 0 -94 82q0 39 25 62q26 22 69 22t69 -22t25 -62q0 -82 -94 -82z" />
    <glyph glyph-name="k" unicode="k" horiz-adv-x="1099" 
d="M1106 129v-129h-315q-51 53 -418 416v-289h143v-127h-500v127h197v1384h-195v127h355v-946q49 46 146 142t134 131h-133v127h529v-127h-213q-371 -360 -420 -412q102 -109 430 -424h260z" />
    <glyph glyph-name="l" unicode="l" horiz-adv-x="585" 
d="M569 0h-551v127h193v1384h-191v127h353v-1511h196v-127z" />
    <glyph glyph-name="m" unicode="m" horiz-adv-x="1597" 
d="M47 0v127h195v838h-195v127h356v-131q90 143 242 143q103 0 157 -44t75 -132q92 174 270 174t217 -165q22 -91 22 -255v-555h197v-127h-479v127h121v592q0 163 -33 207t-109 45q-119 0 -190 -187q2 -33 2 -102v-555h123v-127h-408v127h123v590q0 90 -6 136t-39 82t-98 36
q-121 0 -187 -180v-664h125v-127h-481z" />
    <glyph glyph-name="n" unicode="n" horiz-adv-x="1161" 
d="M47 0v127h195v838h-195v127h356v-150q109 160 268 160t221 -111t62 -309v-555h193v-127h-498v127h144v541q0 143 -37 222t-135 79q-133 0 -218 -189v-653h140v-127h-496z" />
    <glyph glyph-name="o" unicode="o" horiz-adv-x="960" 
d="M231 547q0 -313 123 -392q51 -32 125 -32q140 0 194 124q46 106 46 298q0 426 -244 426t-244 -424zM80 546q0 256 96 406t303 150t304 -151t97 -407t-96 -405q-98 -149 -306 -149t-303 150t-95 406z" />
    <glyph glyph-name="p" unicode="p" horiz-adv-x="1075" 
d="M16 -614v129h195v1450h-193v127h355v-103q117 113 260 113q201 0 283 -164q77 -150 77 -379q0 -569 -362 -569q-143 0 -258 110v-585h178v-129h-535zM604 117q90 0 144 61q53 60 69 146t17 211v16q0 308 -113 387q-47 33 -117 33q-133 0 -231 -119v-604
q106 -131 231 -131z" />
    <glyph glyph-name="q" unicode="q" horiz-adv-x="1067" 
d="M473 117q129 0 229 147v604q-113 102 -241 102t-178 -129q-43 -107 -43 -263t17 -245t71 -153t145 -63zM514 -614v129h188v600q-113 -127 -243 -127q-199 0 -289 152t-92 401q0 561 373 561q133 0 251 -109v99h349v-127h-181v-1450h179v-129h-535z" />
    <glyph glyph-name="r" unicode="r" horiz-adv-x="735" 
d="M47 0v127h195v838h-195v127h356v-109q115 119 289 119v-133q-188 0 -289 -125v-717h181v-127h-537z" />
    <glyph glyph-name="s" unicode="s" horiz-adv-x="782" 
d="M391 -10q-147 0 -313 108v271h129v-185q98 -57 203 -57q63 0 100 45t37 121t-47 123t-142 88q-127 49 -189 126q-63 78 -63 202t74 197t211 73t250 -94v-258h-129v184q-70 35 -132 35t-94 -39t-32 -99q0 -141 152 -203t223 -133q73 -71 73 -207t-82 -217t-229 -81z" />
    <glyph glyph-name="t" unicode="t" horiz-adv-x="655" 
d="M178 319v644h-147v127h147v161l162 82v-243h270v-127h-270v-637q0 -100 19 -150t77 -51q58 0 113 43l35 -55l32 -58q-100 -66 -194 -65q-244 0 -244 329z" />
    <glyph glyph-name="u" unicode="u" horiz-adv-x="1112" 
d="M752 0v129q-100 -139 -230 -139q-311 0 -311 416v559h-195v127h357v-678q0 -139 37 -215t137 -76q119 0 205 194v648h-195v127h356v-965h181v-127h-342z" />
    <glyph glyph-name="v" unicode="v" horiz-adv-x="1173" 
d="M10 965v127h527v-127h-148q33 -121 96 -362t97 -359l206 721h-147v127h526v-127h-215q-213 -726 -286 -965h-170q-88 322 -273 965h-213z" />
    <glyph glyph-name="w" unicode="w" horiz-adv-x="1638" 
d="M10 965v127h541v-127h-191q37 -156 170 -697l224 824h151q33 -134 100 -406t101 -410l172 689h-176v127h528v-127h-207q-164 -643 -249 -965h-140q-162 647 -207 831q-127 -449 -229 -831h-141l-240 965h-207z" />
    <glyph glyph-name="x" unicode="x" horiz-adv-x="1155" 
d="M45 965v127h487v-127h-102q12 -23 150 -263q137 240 149 263h-104v127h489v-127h-235q-18 -33 -226 -396l252 -442h234v-127h-510v127h125q-115 209 -174 313l-179 -313h123v-127h-510v127h236q233 406 256 444l-223 394h-238z" />
    <glyph glyph-name="y" unicode="y" horiz-adv-x="1167" 
d="M16 1092h537v-127h-156q105 -347 178 -576q33 95 102 287t103 289h-141v127h526v-127h-219q-186 -526 -555 -1579h-342v127h139l78 2q187 522 230 647q-181 534 -267 803h-215l2 63v64z" />
    <glyph glyph-name="z" unicode="z" horiz-adv-x="839" 
d="M774 0h-706v127q274 477 358 623t123 215h-326v-183h-129v310h654v-127q-281 -479 -488 -838h383v182h131v-309z" />
    <glyph glyph-name="braceleft" unicode="{" horiz-adv-x="456" 
d="M395 -240q-125 0 -185 92t-60 244v346q0 88 -20 138t-77 49v135q57 0 77 46q19 46 20 132v354q0 152 60 242t185 90v-127q-45 0 -67 -32q-22 -33 -27 -69q-4 -36 -4 -104v-333q0 -180 -80 -267q80 -88 80 -266v-340q0 -66 4 -102t27 -67q23 -32 67 -32v-129z" />
    <glyph glyph-name="bar" unicode="|" horiz-adv-x="362" 
d="M262 -614h-162v2252h162v-2252z" />
    <glyph glyph-name="braceright" unicode="}" horiz-adv-x="456" 
d="M61 -240v129q45 0 68 32t27 68t4 101v340q0 178 80 266q-80 86 -80 267v333q0 160 -42 190q-22 15 -57 15v127q125 0 185 -90t61 -242v-354q0 -178 96 -178v-135q-59 0 -77 -48t-19 -139v-346q-1 -152 -61 -244t-185 -92z" />
    <glyph glyph-name="asciitilde" unicode="~" horiz-adv-x="1062" 
d="M365 752q71 0 117 -29t104 -92q62 -72 125 -72q72 0 112 164l4 16l129 -39q-37 -140 -88 -208t-142 -67t-140 30q-50 29 -110 95t-114 66t-82 -48q-26 -48 -42 -134l-129 41q27 137 84 207t172 70z" />
    <glyph glyph-name="exclamdown" unicode="&#xa1;" horiz-adv-x="413" 
d="M287 0h-164q2 336 2 1010h164q-2 -336 -2 -1010zM303 1399q-1 -39 -27 -61t-70 -23t-71 21t-26 63q0 82 97 82t97 -82z" />
    <glyph glyph-name="cent" unicode="&#xa2;" horiz-adv-x="995" 
d="M608 -109h-162v218q-194 29 -282 199t-88 438q0 266 100 438t301 207v202h162v-198q150 -16 281 -154l-95 -100q-123 123 -279 123t-232 -140q-77 -140 -76 -370q0 -518 297 -518q86 0 145 38t135 121l100 -92q-139 -166 -307 -194v-218z" />
    <glyph glyph-name="sterling" unicode="&#xa3;" horiz-adv-x="778" 
d="M666 129v-129h-607v129q180 0 181 281q0 98 -27 297h-111v127h93q-16 125 -17 225q0 422 299 422q131 0 228 -111l-84 -92q-78 78 -152 78h-2q-147 0 -148 -254q0 -92 23 -268h246v-127h-228q20 -154 21 -265q0 -205 -66 -313h351z" />
    <glyph glyph-name="currency" unicode="&#xa4;" horiz-adv-x="892" 
d="M147 640q0 126 48 220q-40 45 -103 131l111 103q31 -41 96 -123q66 41 152 41t145 -35q31 41 92 119l111 -103q-34 -39 -101 -127q47 -88 47 -220t-40 -220q37 -45 106 -139l-117 -94q-57 74 -86 112q-68 -45 -162 -45t-163 47q-42 -54 -90 -117l-111 103q70 90 106 133
q-41 88 -41 214zM449 387q139 0 139 248t-144 248t-143 -248q0 -248 148 -248z" />
    <glyph glyph-name="yen" unicode="&#xa5;" horiz-adv-x="1277" 
d="M358 0v129h195v268h-248v142h248v125h-248v143h195q-41 90 -123 272l-123 273h-207v127h549v-127h-168q34 -82 104 -245t105 -243q33 68 112 233t123 255h-172v127h531v-127h-182q-45 -90 -137 -272l-138 -273h193v-143h-252v-125h252v-142h-252v-268h194v-129h-551z" />
    <glyph glyph-name="brokenbar" unicode="&#xa6;" horiz-adv-x="385" 
d="M274 -614h-161v761h161v-761zM274 877h-161v761h161v-761z" />
    <glyph glyph-name="section" unicode="&#xa7;" horiz-adv-x="811" 
d="M390 -57q-144 0 -265 129v241h131v-186q72 -57 142 -57t103 46q31 46 31 119t-44 113t-154 86q-250 106 -250 318q0 180 139 272q-88 88 -88 223t74 212t199 77t245 -94v-242h-129v178q-55 31 -114 31q-58 0 -90 -44t-31 -112q0 -131 141 -194q147 -61 223 -131t78 -189
q0 -197 -131 -282q86 -86 87 -221t-76 -214t-221 -79zM569 739q0 51 -19 73q-19 23 -38 42t-85 48l-91 42q-90 -63 -90 -192q0 -82 67 -127q31 -22 156 -84q100 55 100 198z" />
    <glyph glyph-name="dieresis" unicode="&#xa8;" horiz-adv-x="716" 
d="M445 1288q-95 0 -95 84q0 39 26 61q26 21 68 21t70 -22q27 -22 27 -60q-1 -84 -96 -84zM258 1371q0 -83 -95 -83t-95 84q0 39 25 61q26 22 69 21q96 0 96 -83z" />
    <glyph glyph-name="copyright" unicode="&#xa9;" horiz-adv-x="1193" 
d="M608 924q-154 0 -153 -262q-1 -123 29 -193t111 -70t148 72l84 -63q-49 -66 -103 -92t-134 -25q-135 0 -199 99q-63 99 -63 268t71 272q72 102 206 102t218 -84v-180h-123v125q-41 31 -92 31zM215 659q0 -241 103 -397q102 -156 290 -156t281 156q92 156 92 396t-95 399
q-95 157 -286 157t-288 -156t-97 -399zM82 660q0 288 137 476t381 187q244 0 378 -187q134 -188 134 -476t-132 -474t-376 -186t-383 186t-139 474z" />
    <glyph glyph-name="ordfeminine" unicode="&#xaa;" horiz-adv-x="753" 
d="M442 874v62q-61 -66 -150 -66t-142 56t-54 149q0 170 217 207l129 21v47q0 51 -29 81q-30 29 -87 29t-111 -57v-68h-92v127q90 106 211 106t183 -48q62 -49 63 -142v-411h77v-93h-215zM330 975q42 0 64 20t48 66v149q-51 -10 -118 -22q-92 -20 -93 -109q1 -104 99 -104z
" />
    <glyph glyph-name="guillemotleft" unicode="&#xab;" horiz-adv-x="876" 
d="M424 281l-332 225v139l332 223v-141l-227 -152l227 -155v-139zM784 281l-331 225v141l329 221v-141l-225 -152l227 -155v-139z" />
    <glyph glyph-name="logicalnot" unicode="&#xac;" horiz-adv-x="1075" 
d="M969 299h-162v270h-676v140h838v-410z" />
    <glyph glyph-name="registered" unicode="&#xae;" horiz-adv-x="1212" 
d="M563 580v-177h55v-106h-260v106h72v510h-72v109h256q92 0 144 -59t53 -160q0 -139 -94 -193l98 -207h66v-106h-164l-129 283h-25zM604 686q86 0 86 114t-100 113h-27v-227h41zM207 657q0 -249 105 -405q104 -156 304 -156t294 155t94 405t-98 408q-98 159 -298 159
q-201 0 -301 -158t-100 -408zM611 -2q-253 0 -392 182t-139 477t137 479t391 185q254 0 387 -184q133 -185 133 -479t-132 -477t-385 -183z" />
    <glyph glyph-name="macron" unicode="&#xaf;" horiz-adv-x="493" 
d="M367 1270h-334v129h334v-129z" />
    <glyph glyph-name="degree" unicode="&#xb0;" horiz-adv-x="739" 
d="M363 1307q-85 0 -113 -71t-27 -202q0 -131 29 -204q29 -72 118 -72t117 85q23 69 23 195t-31 197q-31 72 -116 72zM368 635q-280 0 -280 397t281 398q281 0 281 -398q-2 -398 -282 -397z" />
    <glyph glyph-name="plusminus" unicode="&#xb1;" horiz-adv-x="1204" 
d="M1114 72h-1024v141h436v356h-436v142h436v483h152v-485h436v-140h-436v-356h436v-141z" />
    <glyph glyph-name="twosuperior" unicode="&#xb2;" horiz-adv-x="739" 
d="M573 754q-2 2 -4 2zM633 686h-535v107q92 96 281 288q100 116 100 203q0 160 -112 160q-51 0 -79 -34t-50 -99l-99 39q53 201 234 200q109 0 171 -70t62 -174q0 -102 -34 -162t-107 -147q-80 -80 -232 -204h297v147h103v-254z" />
    <glyph glyph-name="threesuperior" unicode="&#xb3;" horiz-adv-x="671" 
d="M301 672h-10q-98 0 -187 71l66 82q59 -47 133 -47h4q61 0 96 38t35 104t-54 104t-144 43v96q78 6 127 42q49 37 49 99t-30 99t-84 37t-112 -74l-81 66q77 114 197 114t182 -61t62 -184t-120 -187q143 -51 143 -190v-4q0 -119 -72 -184q-73 -64 -200 -64z" />
    <glyph glyph-name="acute" unicode="&#xb4;" horiz-adv-x="528" 
d="M442 1550l-243 -340h-181q172 233 246 340h178z" />
    <glyph glyph-name="paragraph" unicode="&#xb6;" horiz-adv-x="1191" 
d="M930 127v1225h-172v-1225h172zM438 672q82 0 160 45v635h-102q-133 0 -204 -102t-71 -252t53 -238t164 -88zM401 0v127h197v455q-76 -35 -145 -35q-186 2 -290 124q-103 123 -103 331t110 342q111 134 303 135h617v-1479h-689z" />
    <glyph glyph-name="periodcentered" unicode="&#xb7;" horiz-adv-x="399" 
d="M295 901q0 -82 -95 -82t-96 82q0 39 26 62t69 23t69 -22t27 -63z" />
    <glyph glyph-name="cedilla" unicode="&#xb8;" horiz-adv-x="538" 
d="M406 -202q0 -85 -54 -136t-137 -51q-82 0 -149 49l65 102q45 -32 87 -32q81 1 81 73t-49 72q-23 0 -45 -22l-111 102q49 123 90 221l125 -90q-15 -44 -41 -92q66 -8 102 -60t36 -136z" />
    <glyph glyph-name="onesuperior" unicode="&#xb9;" horiz-adv-x="634" 
d="M422 793h129v-107h-395v107h133v579l-111 -125l-80 78l191 207h133v-739z" />
    <glyph glyph-name="ordmasculine" unicode="&#xba;" horiz-adv-x="712" 
d="M231 1229q0 -115 28 -178t106 -64q111 1 111 231t-120 230q-125 0 -125 -219zM96 1229q0 156 64 248t197 92t197 -92t64 -254t-63 -259t-195 -98q-264 1 -264 363z" />
    <glyph glyph-name="guillemotright" unicode="&#xbb;" horiz-adv-x="876" 
d="M430 281v139l227 155l-227 152v141l332 -223v-139zM70 281v139l227 155l-225 152v141l329 -221v-141z" />
    <glyph glyph-name="onequarter" unicode="&#xbc;" horiz-adv-x="1536" 
d="M1192 207v323l-195 -323h195zM1032 -131v98h160v133h-258l-68 107l326 547h133v-547h145v-107h-145v-133h162v-98h-455zM518 -135h-153l630 1638h154zM383 770h129v-108h-395v108h133v580l-111 -125l-80 78l191 204h133v-737z" />
    <glyph glyph-name="onehalf" unicode="&#xbd;" horiz-adv-x="1626" 
d="M1516 -68q0 2 -3 2zM1569 -129h-535v106q92 96 281 289q100 116 100 203q0 160 -112 160q-51 0 -79 -34t-50 -99l-99 39q53 201 234 200q109 1 171 -71t62 -174t-34 -162q-34 -61 -107 -146q-57 -59 -230 -205h295v148h103v-254zM567 -135h-153l633 1638h151zM379 770
h129v-108h-395v108h133v580l-111 -125l-80 78l191 204h133v-737z" />
    <glyph glyph-name="threequarters" unicode="&#xbe;" horiz-adv-x="1589" 
d="M1247 207v328l-194 -328h194zM1087 -131v98h160v133h-258l-69 107l327 547h133v-547h146v-107h-146v-133h162v-98h-455zM262 631h-12q-98 0 -187 71l68 80q57 -45 131 -45h8q59 0 94 38q34 38 34 103q0 64 -53 102q-54 38 -144 46v94q78 8 127 44t49 98t-30 99
q-30 36 -85 36t-112 -74l-82 68q80 115 198 115t181 -63q62 -62 63 -171q0 -135 -123 -199q147 -51 148 -192q0 -119 -74 -185t-199 -65zM571 -135h-151l631 1638h153z" />
    <glyph glyph-name="questiondown" unicode="&#xbf;" horiz-adv-x="663" 
d="M426 -10q-162 0 -253 122t-91 304t73 306t210 159v151h161v-274h-65q-115 0 -169 -93t-54 -235q0 -304 202 -303q43 0 88 25l52 -129q-68 -33 -154 -33zM444 1329q-96 0 -96 83t96 83q43 1 69 -21t26 -61t-27 -61t-68 -23z" />
    <glyph glyph-name="Agrave" unicode="&#xc0;" horiz-adv-x="1339" 
d="M571 127v-127h-587v127h209l419 1352h150l373 -1352h211v-127h-588v127h211q-40 162 -92 348h-408q-23 -82 -102 -348h204zM842 612q-27 102 -79 304t-79 305q-44 -145 -176 -609h334zM643 1995q55 -85 244 -340h-178q-23 35 -126 177t-118 163h178z" />
    <glyph glyph-name="Aacute" unicode="&#xc1;" horiz-adv-x="1339" 
d="M571 127v-127h-587v127h209l419 1352h150l373 -1352h211v-127h-588v127h211q-40 162 -92 348h-408q-23 -82 -102 -348h204zM842 612q-27 102 -79 304t-79 305q-44 -145 -176 -609h334zM498 1655q85 115 245 340h179l-246 -340h-178z" />
    <glyph glyph-name="Acircumflex" unicode="&#xc2;" horiz-adv-x="1339" 
d="M571 127v-127h-587v127h209l419 1352h150l373 -1352h211v-127h-588v127h211q-40 162 -92 348h-408q-23 -82 -102 -348h204zM842 612q-27 102 -79 304t-79 305q-44 -145 -176 -609h334zM690 1931q-155 -217 -176 -245h-178q172 238 244 339h221q12 -18 246 -339h-179
q-10 16 -76 105q-67 89 -102 140z" />
    <glyph glyph-name="Atilde" unicode="&#xc3;" horiz-adv-x="1339" 
d="M571 127v-127h-587v127h209l419 1352h150l373 -1352h211v-127h-588v127h211q-40 162 -92 348h-408q-23 -82 -102 -348h204zM842 612q-27 102 -79 304t-79 305q-44 -145 -176 -609h334zM827 1665q-97 0 -180 124q-37 54 -79 54t-57 -15t-27 -31t-24 -66q-13 -50 -16 -58
l-47 23l-49 20q25 121 70 186t139 64q80 0 128 -66q76 -104 133 -104t83 71q10 28 14 42t15 49l96 -49q-44 -184 -115 -225q-35 -19 -84 -19z" />
    <glyph glyph-name="Adieresis" unicode="&#xc4;" horiz-adv-x="1339" 
d="M571 127v-127h-587v127h209l419 1352h150l373 -1352h211v-127h-588v127h211q-40 162 -92 348h-408q-23 -82 -102 -348h204zM842 612q-27 102 -79 304t-79 305q-44 -145 -176 -609h334zM828 1640q-95 0 -95 82q0 39 26 62t68 22q96 0 97 -84q-1 -82 -96 -82zM643 1722
q0 -82 -95 -82t-95 82q0 39 25 62q26 22 69 22t69 -22t27 -62z" />
    <glyph glyph-name="Aring" unicode="&#xc5;" horiz-adv-x="1339" 
d="M571 127v-127h-587v127h209l419 1352h150l373 -1352h211v-127h-588v127h211q-40 162 -92 348h-408q-23 -82 -102 -348h204zM842 612q-27 102 -79 304t-79 305q-44 -145 -176 -609h334zM684 2077q-86 1 -86 -147t91 -148t91 148t-96 147zM461 1927q0 121 58 195t168 74
t171 -74q62 -74 62 -195t-60 -195t-171 -73q-110 -1 -169 73t-59 195z" />
    <glyph glyph-name="AE" unicode="&#xc6;" horiz-adv-x="1632" 
d="M-12 0v127h231l594 1225h-154v127h859v-310h-129v183h-375v-523h411v-129h-411v-573h424v182h131v-309h-910v127h195v305h-317l-142 -305h172v-127h-579zM854 567v549l-254 -549h254z" />
    <glyph glyph-name="Ccedilla" unicode="&#xc7;" horiz-adv-x="1079" 
d="M729 -269q-1 -85 -55 -135t-136 -51q-82 0 -149 49l68 103q45 -35 85 -35q79 0 81 76q0 70 -50 69q-20 0 -45 -20l-110 102q41 98 47 113q-381 88 -381 703q0 346 121 560q61 108 169 166t253 58q180 0 364 -148v-245h-129v174q-119 84 -236 84q-226 0 -308 -191
q-72 -166 -72 -452q0 -430 177 -540q71 -44 172 -44t175 41t152 127l96 -96q-88 -99 -181 -151t-219 -58q-4 -8 -12 -28t-14 -34q66 -10 102 -61t35 -136z" />
    <glyph glyph-name="Egrave" unicode="&#xc8;" horiz-adv-x="1026" 
d="M53 0v127h195v1225h-195v127h860v-310h-131v183h-372v-523h409v-129h-409v-573h424v182h129v-309h-910zM508 1991q233 -322 246 -340h-179q-48 75 -245 340h178z" />
    <glyph glyph-name="Eacute" unicode="&#xc9;" horiz-adv-x="1026" 
d="M53 0v127h195v1225h-195v127h860v-310h-131v183h-372v-523h409v-129h-409v-573h424v182h129v-309h-910zM786 1991l-243 -340h-178q12 18 245 340h176z" />
    <glyph glyph-name="Ecircumflex" unicode="&#xca;" horiz-adv-x="1026" 
d="M53 0v127h195v1225h-195v127h860v-310h-131v183h-372v-523h409v-129h-409v-573h424v182h129v-309h-910zM201 1681l245 340h222q85 -115 245 -340h-180q-12 18 -176 246q-136 -180 -178 -246h-178z" />
    <glyph glyph-name="Edieresis" unicode="&#xcb;" horiz-adv-x="1026" 
d="M53 0v127h195v1225h-195v127h860v-310h-131v183h-372v-523h409v-129h-409v-573h424v182h129v-309h-910zM695 1636q-95 0 -95 82q0 39 26 62q26 22 68 22t70 -22q27 -22 27 -62q-1 -82 -96 -82zM510 1718q0 -82 -95 -82t-96 82q0 39 25 62q25 22 69 22q45 0 71 -22t26 -62
z" />
    <glyph glyph-name="Igrave" unicode="&#xcc;" horiz-adv-x="661" 
d="M55 0v127h195v1225h-195v127h553v-127h-196v-1225h196v-127h-553zM287 1993q233 -322 245 -340h-178q-12 18 -245 340h178z" />
    <glyph glyph-name="Iacute" unicode="&#xcd;" horiz-adv-x="681" 
d="M53 0v127h195v1225h-195v127h553v-127h-196v-1225h196v-127h-553zM565 1993q-233 -322 -246 -340h-178q12 18 246 340h178z" />
    <glyph glyph-name="Icircumflex" unicode="&#xce;" horiz-adv-x="819" 
d="M131 0v127h195v1225h-195v127h553v-127h-197v-1225h197v-127h-553zM590 1683q-41 61 -178 246q-164 -227 -176 -246h-179q74 106 246 340h219q20 -31 122 -170t124 -170h-178z" />
    <glyph glyph-name="Idieresis" unicode="&#xcf;" horiz-adv-x="745" 
d="M96 0v127h193v1225h-193v127h551v-127h-196v-1225h196v-127h-551zM515 1638q-95 0 -95 82q0 39 24 62q25 22 69 22t71 -22t26 -62q0 -82 -95 -82zM232 1638q-95 0 -95 82q0 39 26 62t68 22q96 0 97 -84q-1 -82 -96 -82z" />
    <glyph glyph-name="Eth" unicode="&#xd0;" horiz-adv-x="1234" 
d="M623 678h-215v-551h204q209 0 295 158t86 440t-87 444q-96 183 -328 183h-170v-533h215v-141zM55 0v127h191v551h-121v141h121v533h-191v127h531q293 0 431 -200t138 -547q0 -348 -136 -540t-423 -192h-541z" />
    <glyph glyph-name="Ntilde" unicode="&#xd1;" horiz-adv-x="1441" 
d="M55 127h193v1225h-193v127h363q106 -197 315 -589t316 -589v1051h-193v127h551v-127h-197v-1352h-170q-430 799 -630 1178v-1051h194v-127h-551l2 63v64zM883 1663q-94 0 -175 118q-11 15 -16 19q-4 4 -15 16t-28 18q-17 7 -43 7q-26 -1 -48 -23t-32 -51t-17 -59t-9 -37
l-49 23l-50 20q27 121 72 187t137 65q47 0 79 -22t62 -59q30 -38 42 -51q37 -40 84 -40q62 0 108 162l96 -49q-45 -185 -114 -225q-35 -19 -84 -19z" />
    <glyph glyph-name="Ograve" unicode="&#xd2;" 
d="M412 1306q-166 -114 -166 -566q0 -453 176 -568q72 -47 165 -47q170 0 255 123q98 146 98 495q0 442 -180 564q-72 47 -175 47t-173 -48zM84 766q0 433 215 619q119 103 299 104q380 0 476 -453q28 -131 28 -293q0 -327 -115 -532q-59 -105 -159 -163t-237 -58
q-272 0 -393 219q-114 205 -114 557zM543 1993q233 -322 245 -340h-178q-12 18 -245 340h178z" />
    <glyph glyph-name="Oacute" unicode="&#xd3;" 
d="M412 1306q-166 -114 -166 -566q0 -453 176 -568q72 -47 165 -47q170 0 255 123q98 146 98 495q0 442 -180 564q-72 47 -175 47t-173 -48zM84 766q0 433 215 619q119 103 299 104q380 0 476 -453q28 -131 28 -293q0 -327 -115 -532q-59 -105 -159 -163t-237 -58
q-272 0 -393 219q-114 205 -114 557zM823 1993q-233 -322 -245 -340h-179q12 18 246 340h178z" />
    <glyph glyph-name="Ocircumflex" unicode="&#xd4;" 
d="M412 1306q-166 -114 -166 -566q0 -453 176 -568q72 -47 165 -47q170 0 255 123q98 146 98 495q0 442 -180 564q-72 47 -175 47t-173 -48zM84 766q0 433 215 619q119 103 299 104q380 0 476 -453q28 -131 28 -293q0 -327 -115 -532q-59 -105 -159 -163t-237 -58
q-272 0 -393 219q-114 205 -114 557zM770 1683q-20 30 -87 121q-67 92 -91 125q-164 -227 -176 -246h-178q23 31 122 170q100 139 121 170h221q180 -243 246 -340h-178z" />
    <glyph glyph-name="Otilde" unicode="&#xd5;" 
d="M412 1306q-166 -114 -166 -566q0 -453 176 -568q72 -47 165 -47q170 0 255 123q98 146 98 495q0 442 -180 564q-72 47 -175 47t-173 -48zM84 766q0 433 215 619q119 103 299 104q380 0 476 -453q28 -131 28 -293q0 -327 -115 -532q-59 -105 -159 -163t-237 -58
q-272 0 -393 219q-114 205 -114 557zM729 1663q-93 1 -172 115q-10 14 -13 17t-13 14q-26 32 -69 32t-63 -29q-19 -29 -26 -48q-6 -19 -11 -34t-16 -59l-47 23l-49 20q27 121 71 187t138 65q47 0 74 -17t60 -57t35 -42t10 -13q9 -10 13 -12q5 -2 13 -10q8 -7 13 -9t15 -7
t30 -5q62 0 95 113l14 49l97 -49q-43 -183 -115 -225q-35 -19 -84 -19z" />
    <glyph glyph-name="Odieresis" unicode="&#xd6;" 
d="M412 1306q-166 -114 -166 -566q0 -453 176 -568q72 -47 165 -47q170 0 255 123q98 146 98 495q0 442 -180 564q-72 47 -175 47t-173 -48zM84 766q0 433 215 619q119 103 299 104q380 0 476 -453q28 -131 28 -293q0 -327 -115 -532q-59 -105 -159 -163t-237 -58
q-272 0 -393 219q-114 205 -114 557zM825 1721q0 -83 -95 -83t-95 82q0 39 25 62q26 23 69 22q96 0 96 -83zM545 1720q0 -82 -95 -82t-96 82q0 39 26 62q26 22 69 22t69 -22t27 -62z" />
    <glyph glyph-name="multiply" unicode="&#xd7;" horiz-adv-x="1015" 
d="M821 227l-313 314l-311 -314l-101 99l314 313l-314 313l101 99l311 -314l313 314l99 -99l-314 -313l314 -313z" />
    <glyph glyph-name="Oslash" unicode="&#xd8;" 
d="M84 737q0 219 48 382t167 266t299 104q117 0 211 -45l55 143l113 -39l-68 -174q193 -186 193 -631q0 -327 -115 -532q-59 -105 -159 -163t-227 -58q-126 0 -214 41l-63 -162l-109 51l70 178q-201 184 -201 639zM593 125q238 0 308 260q39 139 39 358q0 319 -94 471
l-408 -1050q68 -39 155 -39zM582 1354q-203 0 -275 -188q-61 -159 -61 -462t98 -452l412 1057q-74 45 -174 45z" />
    <glyph glyph-name="Ugrave" unicode="&#xd9;" horiz-adv-x="1366" 
d="M1128 559q0 -569 -448 -569q-236 0 -340 145t-104 422v795h-197v127h549v-127h-205v-770q0 -219 69 -335t238 -116q291 0 291 410v811h-203v127h551v-127h-201v-793zM639 1993q233 -322 246 -340h-178q-18 27 -120 167q-101 140 -124 173h176z" />
    <glyph glyph-name="Uacute" unicode="&#xda;" horiz-adv-x="1366" 
d="M1128 559q0 -569 -448 -569q-236 0 -340 145t-104 422v795h-197v127h549v-127h-205v-770q0 -219 69 -335t238 -116q291 0 291 410v811h-203v127h551v-127h-201v-793zM920 1993q-233 -322 -246 -340h-178q12 18 245 340h179z" />
    <glyph glyph-name="Ucircumflex" unicode="&#xdb;" horiz-adv-x="1366" 
d="M1128 559q0 -569 -448 -569q-236 0 -340 145t-104 422v795h-197v127h549v-127h-205v-770q0 -219 69 -335t238 -116q291 0 291 410v811h-203v127h551v-127h-201v-793zM334 1683q157 212 244 340h221q19 -31 121 -170t124 -170h-178q-12 17 -42 59l-70 98q-41 56 -66 89
q-164 -227 -176 -246h-178z" />
    <glyph glyph-name="Udieresis" unicode="&#xdc;" horiz-adv-x="1366" 
d="M1128 559q0 -569 -448 -569q-236 0 -340 145t-104 422v795h-197v127h549v-127h-205v-770q0 -219 69 -335t238 -116q291 0 291 410v811h-203v127h551v-127h-201v-793zM826 1638q-95 0 -95 82q0 39 26 62t68 22q96 0 97 -84q-1 -82 -96 -82zM641 1720q0 -82 -95 -82t-95 82
q0 39 25 62q26 22 69 22t69 -22t27 -62z" />
    <glyph glyph-name="Yacute" unicode="&#xdd;" horiz-adv-x="1220" 
d="M692 127h189v-127h-551v127h188v563q-199 459 -289 662h-229v127h569v-127h-176q92 -221 211 -518q68 152 227 518h-169v127h567v-127h-232q-256 -562 -305 -662v-563zM842 1993q-233 -322 -246 -340h-178q12 18 246 340h178z" />
    <glyph glyph-name="Thorn" unicode="&#xde;" horiz-adv-x="1015" 
d="M55 0v127h193v1225h-193v127h551v-127h-196v-119h122q195 0 305 -124q109 -124 109 -323q0 -198 -97 -318t-274 -122q-82 0 -165 37v-256h196v-127h-551zM580 473q98 0 151 86t53 225t-69 230q-70 90 -203 90h-102v-586q72 -45 170 -45z" />
    <glyph glyph-name="germandbls" unicode="&#xdf;" horiz-adv-x="1001" 
d="M211 1237q0 180 88 291q88 110 250 110t250 -104t88 -277q0 -219 -150 -317q199 -100 199 -369q0 -326 -254 -403l-51 127q152 57 151 270q0 139 -73 228q-74 88 -189 88v108q98 0 156 73q57 72 57 188t-51 188t-145 71q-166 0 -166 -272v-1108h196v-129h-551v129h195
v1108z" />
    <glyph glyph-name="agrave" unicode="&#xe0;" horiz-adv-x="954" 
d="M600 0v121q-100 -131 -244 -131t-210 85q-67 85 -66 236q0 270 303 326q51 10 123 20t94 15v69q0 227 -176 228q-90 0 -172 -66v-201h-131v246q135 150 325 150q315 0 316 -318v-653h182v-127h-344zM381 117q80 0 124 46t95 144v252q-18 -2 -215 -39q-67 -14 -107 -67
t-40 -134q0 -202 143 -202zM410 1642q233 -322 245 -339h-178q-17 27 -119 167t-125 172h177z" />
    <glyph glyph-name="aacute" unicode="&#xe1;" horiz-adv-x="954" 
d="M600 0v121q-100 -131 -244 -131t-210 85q-67 85 -66 236q0 270 303 326q51 10 123 20t94 15v69q0 227 -176 228q-90 0 -172 -66v-201h-131v246q135 150 325 150q315 0 316 -318v-653h182v-127h-344zM381 117q80 0 124 46t95 144v252q-18 -2 -215 -39q-67 -14 -107 -67
t-40 -134q0 -202 143 -202zM690 1642q-233 -322 -246 -339h-178q12 18 246 339h178z" />
    <glyph glyph-name="acircumflex" unicode="&#xe2;" horiz-adv-x="954" 
d="M600 0v121q-100 -131 -244 -131t-210 85q-67 85 -66 236q0 270 303 326q51 10 123 20t94 15v69q0 227 -176 228q-90 0 -172 -66v-201h-131v246q135 150 325 150q315 0 316 -318v-653h182v-127h-344zM381 117q80 0 124 46t95 144v252q-18 -2 -215 -39q-67 -14 -107 -67
t-40 -134q0 -202 143 -202zM104 1333q157 212 244 340h221q42 -65 246 -340h-178q-20 30 -87 121q-67 92 -91 125q-164 -227 -176 -246h-179z" />
    <glyph glyph-name="atilde" unicode="&#xe3;" horiz-adv-x="954" 
d="M600 0v121q-100 -131 -244 -131t-210 85q-67 85 -66 236q0 270 303 326q51 10 123 20t94 15v69q0 227 -176 228q-90 0 -172 -66v-201h-131v246q135 150 325 150q315 0 316 -318v-653h182v-127h-344zM381 117q80 0 124 46t95 144v252q-18 -2 -215 -39q-67 -14 -107 -67
t-40 -134q0 -202 143 -202zM596 1313q-91 0 -172 114q-46 64 -85 64t-50 -9q-12 -9 -25 -20t-23 -43l-11 -41q-2 -8 -9 -30q-6 -22 -8 -27l-96 43q25 120 71 186t138 66q48 0 78 -20t61 -60q31 -39 43 -52q37 -40 76 -40q40 0 62 28t29 51q7 24 23 83l97 -50
q-43 -182 -115 -224q-35 -19 -84 -19z" />
    <glyph glyph-name="adieresis" unicode="&#xe4;" horiz-adv-x="954" 
d="M600 0v121q-100 -131 -244 -131t-210 85q-67 85 -66 236q0 270 303 326q51 10 123 20t94 15v69q0 227 -176 228q-90 0 -172 -66v-201h-131v246q135 150 325 150q315 0 316 -318v-653h182v-127h-344zM381 117q80 0 124 46t95 144v252q-18 -2 -215 -39q-67 -14 -107 -67
t-40 -134q0 -202 143 -202zM692 1371q0 -83 -95 -83t-95 82q0 39 25 62q26 23 69 22q96 0 96 -83zM316 1288q-95 0 -95 82q0 39 26 62q27 22 69 22t69 -22t27 -62q-1 -82 -96 -82z" />
    <glyph glyph-name="aring" unicode="&#xe5;" horiz-adv-x="954" 
d="M600 0v121q-100 -131 -244 -131t-210 85q-67 85 -66 236q0 270 303 326q51 10 123 20t94 15v69q0 227 -176 228q-90 0 -172 -66v-201h-131v246q135 150 325 150q315 0 316 -318v-653h182v-127h-344zM381 117q80 0 124 46t95 144v252q-18 -2 -215 -39q-67 -14 -107 -67
t-40 -134q0 -202 143 -202zM367 1580q0 -148 91 -148t91 148t-96 146q-86 2 -86 -146zM229 1577q-1 121 57 193t169 73q111 0 172 -73q61 -72 61 -194t-60 -195t-170 -73t-170 74t-59 195z" />
    <glyph glyph-name="ae" unicode="&#xe6;" horiz-adv-x="1402" 
d="M381 117q120 0 191 126q17 30 49 85q-18 76 -23 188h-2q-113 0 -209 -16q-152 -31 -151 -181q0 -202 145 -202zM967 969q-111 0 -156 -78t-51 -223v-31h407q-1 158 -45 245t-155 87zM1006 -10q-242 0 -340 207q-68 -103 -138 -155t-192 -52t-190 85q-67 85 -66 236
q0 252 297 307q100 18 221 19v104q0 227 -176 228q-98 0 -172 -64v-182h-129v225q131 150 318 150t266 -111q96 115 268 115q348 0 348 -492v-96h-563q6 -186 59 -288t189 -103q61 0 104 30t90 89l100 -88q-72 -84 -138 -124t-156 -40z" />
    <glyph glyph-name="ccedilla" unicode="&#xe7;" horiz-adv-x="858" 
d="M450 -422q-82 0 -149 49l66 103q47 -35 87 -35q79 0 81 76q0 70 -50 69q-20 0 -45 -20l-110 102q4 8 15 37t20 45q-285 80 -285 543q0 260 101 407t315 148q141 0 274 -137v-246h-131v188q-76 61 -152 62q-137 0 -191 -112t-54 -310q0 -358 174 -414l4 8l20 -14
q33 -4 54 -4q96 0 186 139l108 -76q-92 -178 -272 -194l-12 -31q66 -10 102 -61t35 -136q0 -85 -54 -136q-55 -50 -137 -50z" />
    <glyph glyph-name="egrave" unicode="&#xe8;" horiz-adv-x="890" 
d="M452 969q-114 0 -157 -86t-49 -246h409q-1 158 -45 245t-158 87zM494 -10q-410 0 -410 583q0 528 375 529q350 0 350 -492v-96h-563q6 -188 58 -290t190 -101q61 0 104 30t90 89l49 -43v-2q4 -2 51 -43q-74 -84 -140 -124t-154 -40zM403 1647q180 -243 246 -340h-178
q-180 243 -246 340h178z" />
    <glyph glyph-name="eacute" unicode="&#xe9;" horiz-adv-x="890" 
d="M452 969q-114 0 -157 -86t-49 -246h409q-1 158 -45 245t-158 87zM494 -10q-410 0 -410 583q0 528 375 529q350 0 350 -492v-96h-563q6 -188 58 -290t190 -101q61 0 104 30t90 89l49 -43v-2q4 -2 51 -43q-74 -84 -140 -124t-154 -40zM260 1307q180 243 246 340h176
q-78 -118 -244 -340h-178z" />
    <glyph glyph-name="ecircumflex" unicode="&#xea;" horiz-adv-x="909" 
d="M459 969q-115 0 -158 -86t-49 -246h412q-2 158 -46 245t-159 87zM502 -10q-410 0 -410 583q0 528 375 529q350 0 350 -492v-96h-565q6 -186 59 -288t191 -103q102 0 192 119l101 -88q-72 -84 -138 -124t-155 -40zM637 1337q-12 18 -176 246q-137 -184 -178 -246h-179
q233 322 246 340h221q72 -102 244 -340h-178z" />
    <glyph glyph-name="edieresis" unicode="&#xeb;" horiz-adv-x="890" 
d="M452 969q-114 0 -157 -86t-49 -246h409q-1 158 -45 245t-158 87zM494 -10q-410 0 -410 583q0 528 375 529q350 0 350 -492v-96h-563q6 -188 58 -290t190 -101q61 0 104 30t90 89l49 -43v-2q4 -2 51 -43q-74 -84 -140 -124t-154 -40zM686 1374q0 -82 -95 -82t-95 82
q0 39 25 62q26 22 69 22q44 0 70 -22t26 -62zM310 1292q-95 0 -95 82q0 39 26 62q27 22 69 22t69 -22t27 -62q-1 -82 -96 -82z" />
    <glyph glyph-name="igrave" unicode="&#xec;" horiz-adv-x="614" 
d="M49 127h191v838h-193l2 63v64h361v-965h174v-127h-537l2 63v64zM281 1645q12 -18 245 -340h-180q-23 33 -124 173t-120 167h179z" />
    <glyph glyph-name="iacute" unicode="&#xed;" horiz-adv-x="634" 
d="M47 0v127h191v838h-191v127h361v-965h176v-127h-537zM559 1645l-244 -340h-180q100 133 246 340h178z" />
    <glyph glyph-name="icircumflex" unicode="&#xee;" horiz-adv-x="770" 
d="M125 0v127h190v838h-190v127h360v-965h177v-127h-537zM51 1333l244 340h221q20 -31 122 -170t124 -170h-178q-20 30 -87 121q-67 92 -91 125q-164 -227 -177 -246h-178z" />
    <glyph glyph-name="idieresis" unicode="&#xef;" horiz-adv-x="696" 
d="M88 0v127h191v838h-191v127h361v-965h176v-127h-537zM602 1371q0 -83 -95 -83t-95 84q0 39 25 61q26 22 69 21q96 0 96 -83zM226 1288q-95 0 -95 84q0 39 26 61q27 21 69 21t69 -22t27 -60q-1 -84 -96 -84z" />
    <glyph glyph-name="eth" unicode="&#xf0;" horiz-adv-x="921" 
d="M432 131q250 0 250 379q0 47 -2 70q-76 160 -234 159q-112 0 -164 -85t-52 -221t50 -219t152 -83zM840 504q0 -238 -100 -380t-292 -142q-190 0 -283 124t-93 326q0 203 92 323t268 119q127 0 219 -88q-59 250 -237 410l-156 -156l-82 82l146 146q-88 61 -209 112l30 64
q2 2 31 63q137 -55 252 -135q47 49 139 141l82 -83l-129 -130q322 -291 322 -796z" />
    <glyph glyph-name="ntilde" unicode="&#xf1;" horiz-adv-x="1161" 
d="M47 0v127h195v838h-195v127h356v-150q109 160 268 160t221 -111t62 -309v-555h193v-127h-498v127h144v541q0 143 -37 222t-135 79q-133 0 -218 -189v-653h140v-127h-496zM752 1313q-95 0 -174 118q-12 17 -16 20q-3 3 -14 15q-25 27 -66 27t-65 -36q-23 -36 -48 -136
l-97 45q27 118 71 184t138 66q47 0 78 -20t63 -61q32 -40 42 -51q36 -40 86 -40q49 0 75 70l15 42q4 14 14 50l96 -47q-44 -186 -114 -227q-35 -19 -84 -19z" />
    <glyph glyph-name="ograve" unicode="&#xf2;" horiz-adv-x="960" 
d="M231 547q0 -313 123 -392q51 -32 125 -32q140 0 194 124q46 106 46 298q0 426 -244 426t-244 -424zM80 546q0 256 96 406t303 150t304 -151t97 -407t-96 -405q-98 -149 -306 -149t-303 150t-95 406zM430 1642q188 -253 246 -339h-178q-14 20 -118 162q-103 142 -126 177
h176z" />
    <glyph glyph-name="oacute" unicode="&#xf3;" horiz-adv-x="960" 
d="M231 547q0 -313 123 -392q51 -32 125 -32q140 0 194 124q46 106 46 298q0 426 -244 426t-244 -424zM80 546q0 256 96 406t303 150t304 -151t97 -407t-96 -405q-98 -149 -306 -149t-303 150t-95 406zM711 1642l-244 -339h-180q172 233 245 339h179z" />
    <glyph glyph-name="ocircumflex" unicode="&#xf4;" horiz-adv-x="960" 
d="M231 547q0 -313 123 -392q51 -32 125 -32q140 0 194 124q46 106 46 298q0 426 -244 426t-244 -424zM80 546q0 256 96 406t303 150t304 -151t97 -407t-96 -405q-98 -149 -306 -149t-303 150t-95 406zM125 1333q2 2 246 340h219q12 -18 246 -340h-179q-41 61 -178 246
q-164 -227 -176 -246h-178z" />
    <glyph glyph-name="otilde" unicode="&#xf5;" horiz-adv-x="960" 
d="M231 547q0 -313 123 -392q51 -32 125 -32q140 0 194 124q46 106 46 298q0 426 -244 426t-244 -424zM80 546q0 256 96 406t303 150t304 -151t97 -407t-96 -405q-98 -149 -306 -149t-303 150t-95 406zM616 1313q-86 0 -159 98q-3 2 -13 16l-13 18q-3 3 -12 14
q-26 32 -71 32t-67 -39q-23 -39 -34 -80q-11 -42 -14 -51l-96 43q25 120 71 186t138 66q47 0 79 -24t104 -109q36 -39 75 -39t62 28t29 51q7 24 24 83l96 -50q-43 -183 -115 -224q-35 -19 -84 -19z" />
    <glyph glyph-name="odieresis" unicode="&#xf6;" horiz-adv-x="960" 
d="M231 547q0 -313 123 -392q51 -32 125 -32q140 0 194 124q46 106 46 298q0 426 -244 426t-244 -424zM80 546q0 256 96 406t303 150t304 -151t97 -407t-96 -405q-98 -149 -306 -149t-303 150t-95 406zM618 1288q-96 0 -96 82q0 39 27 62q27 22 69 22t70 -22q27 -22 27 -62
q-1 -82 -97 -82zM337 1288q-95 0 -95 82q0 39 25 62q26 22 69 22t70 -22t26 -62q0 -82 -95 -82z" />
    <glyph glyph-name="divide" unicode="&#xf7;" horiz-adv-x="1236" 
d="M613 174q-95 0 -95 82q0 40 26 62t68 22t70 -22q27 -22 27 -62q-1 -82 -96 -82zM1130 569h-1024v140h1024v-140zM613 930q-95 0 -95 84q0 38 26 60t68 22t70 -22q27 -22 27 -60q-1 -84 -96 -84z" />
    <glyph glyph-name="oslash" unicode="&#xf8;" horiz-adv-x="960" 
d="M80 547q0 255 96 405t303 150q86 0 150 -25l53 137l109 -45l-60 -155q150 -141 150 -469q1 -256 -97 -406t-307 -149q-70 0 -135 20l-61 -157l-109 49l66 168q-158 135 -158 477zM496 123q58 0 104 32q119 81 119 396q0 197 -51 299l-277 -713q47 -14 105 -14zM231 547
q0 -233 64 -330l283 729q-43 25 -105 25q-242 0 -242 -424z" />
    <glyph glyph-name="ugrave" unicode="&#xf9;" horiz-adv-x="1112" 
d="M752 0v129q-100 -139 -230 -139q-311 0 -311 416v559h-195v127h357v-678q0 -139 37 -215t137 -76q119 0 205 194v648h-195v127h356v-965h181v-127h-342zM481 1645q72 -102 244 -340h-178q-172 238 -244 340h178z" />
    <glyph glyph-name="uacute" unicode="&#xfa;" horiz-adv-x="1112" 
d="M752 0v129q-100 -139 -230 -139q-311 0 -311 416v559h-195v127h357v-678q0 -139 37 -215t137 -76q119 0 205 194v648h-195v127h356v-965h181v-127h-342zM760 1645q-72 -102 -244 -340h-178q172 238 244 340h178z" />
    <glyph glyph-name="ucircumflex" unicode="&#xfb;" horiz-adv-x="1112" 
d="M752 0v129q-100 -139 -230 -139q-311 0 -311 416v559h-195v127h357v-678q0 -139 37 -215t137 -76q119 0 205 194v648h-195v127h356v-965h181v-127h-342zM174 1333q180 243 246 340h221q55 -85 244 -340h-178q-12 18 -177 246q-137 -184 -178 -246h-178z" />
    <glyph glyph-name="udieresis" unicode="&#xfc;" horiz-adv-x="1112" 
d="M752 0v129q-100 -139 -230 -139q-311 0 -311 416v559h-195v127h357v-678q0 -139 37 -215t137 -76q119 0 205 194v648h-195v127h356v-965h181v-127h-342zM764 1372q0 -84 -95 -84t-96 84q0 39 26 61q26 21 69 21q44 0 70 -22t26 -60zM481 1371q0 -83 -95 -83t-95 84
q0 39 25 61q26 22 69 21q96 0 96 -83z" />
    <glyph glyph-name="yacute" unicode="&#xfd;" horiz-adv-x="1167" 
d="M16 1092h537v-127h-156q105 -347 178 -576q33 95 102 287t103 289h-141v127h526v-127h-219q-186 -526 -555 -1579h-342v127h139l78 2q187 522 230 647q-181 534 -267 803h-215l2 63v64zM823 1647l-243 -340h-179q72 102 244 340h178z" />
    <glyph glyph-name="thorn" unicode="&#xfe;" horiz-adv-x="1030" 
d="M-29 -614v129h195v1949h-193v127h355v-602q117 113 254 113t221 -78t116 -194t31 -271q0 -569 -364 -569q-145 0 -258 112v-587h180v-129h-537zM561 117q227 0 227 405v29q0 307 -112 387q-47 33 -117 33q-127 0 -231 -121v-602q106 -131 233 -131z" />
    <glyph glyph-name="ydieresis" unicode="&#xff;" horiz-adv-x="1167" 
d="M16 1092h537v-127h-156q105 -347 178 -576q33 95 102 287t103 289h-141v127h526v-127h-219q-186 -526 -555 -1579h-342v127h139l78 2q187 522 230 647q-181 534 -267 803h-215l2 63v64zM732 1292q-95 0 -95 82q0 39 26 62q27 22 69 22t69 -22t26 -62q0 -82 -95 -82z
M547 1374q0 -82 -96 -82t-97 82q0 39 27 62q27 22 70 22t69 -22t27 -62z" />
    <glyph glyph-name="Amacron" unicode="&#x100;" horiz-adv-x="1339" 
d="M571 127v-127h-587v127h209l419 1352h150l373 -1352h211v-127h-588v127h211q-40 162 -92 348h-408q-23 -82 -102 -348h204zM842 612q-27 102 -79 304t-79 305q-44 -145 -176 -609h334zM850 1661h-332v129h332v-129z" />
    <glyph glyph-name="amacron" unicode="&#x101;" horiz-adv-x="954" 
d="M600 0v121q-100 -131 -244 -131t-210 85q-67 85 -66 236q0 270 303 326q51 10 123 20t94 15v69q0 227 -176 228q-90 0 -172 -66v-201h-131v246q135 150 325 150q315 0 316 -318v-653h182v-127h-344zM381 117q80 0 124 46t95 144v252q-18 -2 -215 -39q-67 -14 -107 -67
t-40 -134q0 -202 143 -202zM618 1311h-331v127h331v-127z" />
    <glyph glyph-name="Abreve" unicode="&#x102;" horiz-adv-x="1339" 
d="M571 127v-127h-587v127h209l419 1352h150l373 -1352h211v-127h-588v127h211q-40 162 -92 348h-408q-23 -82 -102 -348h204zM842 612q-27 102 -79 304t-79 305q-44 -145 -176 -609h334zM952 1939q0 -131 -72 -207t-196 -75q-126 0 -190 76t-64 206h156q0 -154 104 -153
q109 0 109 153h153z" />
    <glyph glyph-name="abreve" unicode="&#x103;" horiz-adv-x="954" 
d="M600 0v121q-100 -131 -244 -131t-210 85q-67 85 -66 236q0 270 303 326q51 10 123 20t94 15v69q0 227 -176 228q-90 0 -172 -66v-201h-131v246q135 150 325 150q315 0 316 -318v-653h182v-127h-344zM381 117q80 0 124 46t95 144v252q-18 -2 -215 -39q-67 -14 -107 -67
t-40 -134q0 -202 143 -202zM721 1587q1 -131 -71 -205t-197 -75t-190 75t-64 207h155q0 -156 105 -155q109 0 108 153h154z" />
    <glyph glyph-name="Aogonek" unicode="&#x104;" horiz-adv-x="1339" 
d="M842 612q-27 102 -79 304t-79 305q-44 -145 -176 -609h334zM1174 -221l75 -96q-77 -68 -160 -68t-134 63q-50 64 -50 160t66 162h-213v127h211q-40 162 -92 348h-408q-23 -82 -102 -348h204v-127h-587v127h209l419 1352h150l373 -1352h211v-127h-187q-59 -37 -91 -73
t-32 -82q0 -45 18 -73t48 -28q29 0 72 35z" />
    <glyph glyph-name="aogonek" unicode="&#x105;" horiz-adv-x="954" 
d="M381 117q80 0 124 46t95 144v252q-18 -2 -215 -39q-67 -14 -107 -67t-40 -134q0 -202 143 -202zM680 -379q-82 1 -131 63t-49 168t100 183v86q-100 -131 -244 -131t-210 85q-67 85 -66 236q0 270 303 326q51 10 123 20t94 15v69q0 227 -176 228q-90 0 -172 -66v-201h-131
v246q135 150 325 150q315 0 316 -318v-653h182v-127h-201q-113 -70 -113 -161t68 -91q27 0 68 37l76 -98q-80 -66 -162 -66z" />
    <glyph glyph-name="Cacute" unicode="&#x106;" horiz-adv-x="1079" 
d="M588 -10q-262 0 -383 192t-121 531q0 338 121 552q61 108 169 166t253 58q180 0 364 -148v-245h-129v174q-119 84 -236 84q-226 0 -308 -191q-72 -166 -72 -452q0 -430 177 -540q71 -44 172 -44t175 41t152 127l96 -96q-92 -105 -192 -157t-238 -52zM854 1993
q-215 -297 -244 -340h-178q72 102 244 340h178z" />
    <glyph glyph-name="cacute" unicode="&#x107;" horiz-adv-x="858" 
d="M485 -10q-406 0 -405 557q0 260 101 407t315 148q141 0 274 -137v-246h-131v188q-76 61 -152 62q-137 0 -191 -112q-54 -111 -54 -311t55 -312t197 -111q96 0 186 139l108 -76q-49 -94 -129 -145t-174 -51zM719 1645q-29 -43 -244 -340h-178q2 3 111 153t135 187h176z
" />
    <glyph glyph-name="Ccaron" unicode="&#x10c;" horiz-adv-x="1085" 
d="M588 -10q-262 0 -383 192t-121 531q0 338 121 552q61 108 169 166t253 58q180 0 364 -148v-245h-129v174q-119 84 -236 84q-226 0 -308 -191q-72 -166 -72 -452q0 -430 177 -540q71 -44 172 -44t175 41t152 127l96 -96q-92 -105 -192 -157t-238 -52zM979 2005
q-42 -65 -246 -340h-221q-23 31 -123 170t-123 170h180q12 -18 177 -246q117 154 178 246h178z" />
    <glyph glyph-name="ccaron" unicode="&#x10d;" horiz-adv-x="903" 
d="M485 -10q-406 0 -405 557q0 260 101 407t315 148q141 0 274 -137v-246h-131v188q-76 61 -152 62q-137 0 -191 -112q-54 -111 -54 -311t55 -312t197 -111q96 0 186 139l108 -76q-49 -94 -129 -145t-174 -51zM844 1655l-246 -340h-221q-55 85 -244 340h178q12 -18 176 -246
q142 188 179 246h178z" />
    <glyph glyph-name="Dcaron" unicode="&#x10e;" horiz-adv-x="1234" 
d="M578 1352h-170v-1225h204q209 0 295 158t86 440t-87 444q-96 183 -328 183zM55 0v127h191v1225h-191v127h531q293 0 431 -200t138 -547q0 -348 -136 -540t-423 -192h-541zM436 1663q-12 18 -246 340h179q12 -18 42 -59q31 -42 71 -98t65 -89q164 227 176 246h178
q-172 -238 -244 -340h-221z" />
    <glyph glyph-name="dcaron" unicode="&#x10f;" horiz-adv-x="1284" 
d="M702 0v90q-92 -96 -231 -96q-195 0 -295 152t-100 396t99 400t298 156q129 0 229 -78v491h-190v127h360v-1511h191v-127h-361zM498 123q121 0 204 137v608q-84 100 -210 100t-190 -118q-64 -119 -64 -305q0 -253 107 -362q61 -60 153 -60zM1294 1679l-174 -391h-153
l133 391h194z" />
    <glyph glyph-name="Dcroat" unicode="&#x110;" horiz-adv-x="1234" 
d="M623 678h-215v-551h204q209 0 295 158t86 440t-87 444q-96 183 -328 183h-170v-533h215v-141zM55 0v127h191v551h-121v141h121v533h-191v127h531q293 0 431 -200t138 -547q0 -348 -136 -540t-423 -192h-541z" />
    <glyph glyph-name="dcroat" unicode="&#x111;" horiz-adv-x="1079" 
d="M702 0v90q-92 -96 -231 -96q-195 0 -295 152t-100 396t99 400t298 156q129 0 229 -78v246h-239v110h239v135h-190v127h360v-262h107v-110h-107v-1139h191v-127h-361zM498 123q121 0 204 137v608q-84 100 -210 100t-190 -118q-64 -119 -64 -305q0 -253 107 -362
q61 -60 153 -60z" />
    <glyph glyph-name="Emacron" unicode="&#x112;" horiz-adv-x="1026" 
d="M53 0v127h195v1225h-195v127h860v-310h-131v183h-372v-523h409v-129h-409v-573h424v182h129v-309h-910zM717 1659h-334v127h334v-127z" />
    <glyph glyph-name="emacron" unicode="&#x113;" horiz-adv-x="890" 
d="M452 969q-114 0 -157 -86t-49 -246h409q-1 158 -45 245t-158 87zM494 -10q-410 0 -410 583q0 528 375 529q350 0 350 -492v-96h-563q6 -188 58 -290t190 -101q61 0 104 30t90 89l49 -43v-2q4 -2 51 -43q-74 -84 -140 -124t-154 -40zM612 1313h-333v129h333v-129z" />
    <glyph glyph-name="Edotaccent" unicode="&#x116;" horiz-adv-x="1026" 
d="M53 0v127h195v1225h-195v127h860v-310h-131v183h-372v-523h409v-129h-409v-573h424v182h129v-309h-910zM556 1636q-95 0 -95 82q0 39 25 62q26 22 69 22t70 -22t26 -62q0 -82 -95 -82z" />
    <glyph glyph-name="edotaccent" unicode="&#x117;" horiz-adv-x="890" 
d="M452 969q-114 0 -157 -86t-49 -246h409q-1 158 -45 245t-158 87zM494 -10q-410 0 -410 583q0 528 375 529q350 0 350 -492v-96h-563q6 -188 58 -290t190 -101q61 0 104 30t90 89l49 -43v-2q4 -2 51 -43q-74 -84 -140 -124t-154 -40zM547 1374q0 -82 -95 -82t-96 82
q0 39 26 62q26 22 69 22t69 -22t27 -62z" />
    <glyph glyph-name="Eogonek" unicode="&#x118;" horiz-adv-x="1058" 
d="M868 -365q-80 1 -132 63q-50 62 -50 152t49 150h-682v127h195v1225h-195v127h860v-310h-131v183h-372v-523h409v-129h-409v-573h424v182h129v-309h-54q-92 -63 -92 -139q1 -43 19 -71t46 -28t72 37q16 -21 76 -98q-82 -66 -162 -66z" />
    <glyph glyph-name="eogonek" unicode="&#x119;" horiz-adv-x="890" 
d="M452 969q-114 0 -157 -86t-49 -246h409q-1 158 -45 245t-158 87zM519 -371q-83 -1 -133 63t-50 156t53 152q-305 70 -305 573q0 528 375 529q350 0 350 -492v-96h-563q6 -188 58 -290t190 -101q61 0 104 30t90 89l49 -43v-2q4 -2 51 -43q-115 -133 -225 -158
q-94 -61 -94 -149t68 -89q29 0 67 35l76 -96q-78 -68 -161 -68z" />
    <glyph glyph-name="Ecaron" unicode="&#x11a;" horiz-adv-x="1026" 
d="M53 0v127h195v1225h-195v127h860v-310h-131v183h-372v-523h409v-129h-409v-573h424v182h129v-309h-910zM911 2003l-245 -340h-220q-20 31 -122 170t-123 170h178q12 -18 42 -59q30 -42 71 -98t65 -89l176 246h178z" />
    <glyph glyph-name="ecaron" unicode="&#x11b;" horiz-adv-x="909" 
d="M460 969q-114 0 -157 -86t-49 -246h410q-2 158 -46 245t-158 87zM502 -10q-410 0 -410 583q0 528 377 529q348 0 348 -492v-96h-563q6 -188 58 -290t190 -101q61 0 104 30t90 89l52 -43l49 -45q-72 -84 -139 -124t-156 -40zM350 1319q-233 322 -246 340h179
q61 -92 178 -246q164 227 176 246h178q-72 -102 -244 -340h-221z" />
    <glyph glyph-name="Gbreve" unicode="&#x11e;" 
d="M647 -10q-289 0 -428 202t-139 548q0 347 134 548t417 201q240 0 440 -170v-246h-129v174q-143 106 -311 107q-389 0 -389 -598q0 -631 405 -631q164 0 303 90v358h-223v127h371v-540q-121 -90 -220 -130t-231 -40zM877 1935q0 -131 -73 -205t-197 -75q-125 0 -189 76
t-64 206h156q0 -156 104 -155q109 0 109 153h154z" />
    <glyph glyph-name="gbreve" unicode="&#x11f;" horiz-adv-x="937" 
d="M219 -246q0 -110 67 -180q68 -70 180 -70t186 60t75 164q0 195 -285 225q-76 10 -133 31q-90 -74 -90 -230zM123 711q0 171 91 281q90 110 236 110t234 -82q119 88 137 100l84 -119q-66 -45 -143 -94q37 -82 37 -188q0 -167 -93 -273t-253 -106q-70 0 -127 22
q-35 -46 -35 -120t50 -116t130 -50q180 -18 291 -102t110 -232v-8q0 -166 -118 -262t-297 -96q-180 0 -290 102t-110 281t146 290q-74 67 -74 183t88 204q-94 105 -94 275zM637 720q0 110 -42 182t-131 73q-89 -1 -134 -75t-45 -184t47 -179q47 -70 134 -70t129 71
q42 72 42 182zM719 1587q0 -131 -72 -207t-197 -75q-126 1 -190 77t-63 207h155q0 -156 105 -155q109 0 108 153h154z" />
    <glyph glyph-name="Gcommaaccent" unicode="&#x122;" 
d="M799 -139l-176 -391h-152l131 391h197zM647 -10q-289 0 -428 202t-139 548q0 347 134 548t417 201q240 0 440 -170v-246h-129v174q-143 106 -311 107q-389 0 -389 -598q0 -631 405 -631q164 0 303 90v358h-223v127h371v-540q-121 -90 -220 -130t-231 -40z" />
    <glyph glyph-name="gcommaaccent" unicode="&#x123;" horiz-adv-x="937" 
d="M219 -246q0 -110 67 -180q68 -70 180 -70t186 60t75 164q0 195 -285 225q-76 10 -133 31q-90 -74 -90 -230zM123 711q0 171 91 281q90 110 236 110t234 -82q119 88 137 100l84 -119q-66 -45 -143 -94q37 -82 37 -188q0 -167 -93 -273t-253 -106q-70 0 -127 22
q-35 -46 -35 -120t50 -116t130 -50q180 -18 291 -102t110 -232v-8q0 -166 -118 -262t-297 -96q-180 0 -290 102t-110 281t146 290q-74 67 -74 183t88 204q-94 105 -94 275zM637 720q0 110 -42 182t-131 73q-89 -1 -134 -75t-45 -184t47 -179q47 -70 134 -70t129 71
q42 72 42 182zM342 1180l176 391h152l-131 -391h-197z" />
    <glyph glyph-name="Imacron" unicode="&#x12a;" horiz-adv-x="657" 
d="M53 0v127h195v1225h-195v127h553v-127h-196v-1225h196v-127h-553zM494 1661h-332v127h332v-127z" />
    <glyph glyph-name="imacron" unicode="&#x12b;" horiz-adv-x="602" 
d="M47 0v127h191v838h-191v127h361v-965h176v-127h-537zM487 1311h-331v127h331v-127z" />
    <glyph glyph-name="Iogonek" unicode="&#x12e;" horiz-adv-x="657" 
d="M322 -369q-80 1 -130 63t-51 154q0 92 52 152h-140v127h195v1225h-195v127h553v-127h-196v-1225h196v-127h-237q-97 -63 -97 -152t68 -90q27 0 68 37q52 -65 75 -98q-81 -66 -161 -66z" />
    <glyph glyph-name="iogonek" unicode="&#x12f;" horiz-adv-x="602" 
d="M318 -369q-80 1 -130 63t-51 154q0 92 51 152h-141v127h191v838h-191v127h361v-965h176v-127h-217q-98 -66 -99 -143q0 -43 18 -71t47 -28q28 0 73 37q23 -33 75 -98q-83 -66 -163 -66zM322 1290q-95 0 -95 82q0 39 26 62q27 22 69 22t69 -22t27 -62q-1 -82 -96 -82z" />
    <glyph glyph-name="Idotaccent" unicode="&#x130;" horiz-adv-x="657" 
d="M53 0v127h195v1225h-195v127h553v-127h-196v-1225h196v-127h-553zM428 1720q0 -82 -95 -82t-95 82q0 39 25 62q26 22 69 22q44 0 70 -22t26 -62z" />
    <glyph glyph-name="dotlessi" unicode="&#x131;" horiz-adv-x="602" 
d="M47 0v127h191v838h-191v127h361v-965h176v-127h-537z" />
    <glyph glyph-name="Kcommaaccent" unicode="&#x136;" horiz-adv-x="1204" 
d="M797 -127l-176 -391h-152l131 391h197zM53 0v127h195v1225h-195v127h492v-127h-135v-408l346 408h-140v127h545v-127h-219q-23 -25 -500 -574l541 -651h213v-127h-553v127h154q-258 319 -387 477v-477h137v-127h-494z" />
    <glyph glyph-name="kcommaaccent" unicode="&#x137;" horiz-adv-x="1099" 
d="M737 -141l-176 -391h-151l131 391h196zM1106 129v-129h-315q-51 53 -418 416v-289h143v-127h-500v127h197v1384h-195v127h355v-946q49 46 146 142t134 131h-133v127h529v-127h-213q-371 -360 -420 -412q102 -109 430 -424h260z" />
    <glyph glyph-name="Lacute" unicode="&#x139;" horiz-adv-x="1007" 
d="M53 0v127h197v1225h-197v127h551v-127h-192v-1225h411v182h131v-309h-901zM555 1991l-244 -340h-178q12 18 246 340h176z" />
    <glyph glyph-name="lacute" unicode="&#x13a;" horiz-adv-x="600" 
d="M569 0h-551v127h193v1384h-191v127h353v-1511h196v-127zM70 1749q48 75 245 340h177l-244 -340h-178z" />
    <glyph glyph-name="Lcommaaccent" unicode="&#x13b;" horiz-adv-x="1007" 
d="M709 -125l-177 -389h-151l131 389h197zM53 0v127h197v1225h-197v127h551v-127h-192v-1225h411v182h131v-309h-901z" />
    <glyph glyph-name="lcommaaccent" unicode="&#x13c;" horiz-adv-x="585" 
d="M446 -127l-176 -389h-151l131 389h196zM569 0h-551v127h193v1384h-191v127h353v-1511h196v-127z" />
    <glyph glyph-name="Lcaron" unicode="&#x13d;" horiz-adv-x="1112" 
d="M1085 1479l-176 -392h-151l131 392h196zM53 0v127h197v1225h-197v127h551v-127h-192v-1225h411v182h131v-309h-901z" />
    <glyph glyph-name="lcaron" unicode="&#x13e;" horiz-adv-x="811" 
d="M569 0h-551v127h193v1384h-191v127h353v-1511h196v-127zM821 1681l-176 -391h-151l131 391h196z" />
    <glyph glyph-name="Lslash" unicode="&#x141;" horiz-adv-x="1007" 
d="M412 127h411v182h131v-309h-901v127h197v459q-18 -14 -53 -44t-54 -44v149q100 82 107 88v617h-197v127h551v-127h-192v-482q68 54 163 138v-148l-163 -137v-596z" />
    <glyph glyph-name="lslash" unicode="&#x142;" horiz-adv-x="593" 
d="M215 1511h-190l2 64v63h350v-655q84 70 137 115v-148l-137 -114v-709h196v-127h-550v127h192v571l-131 -110v149l131 109v665z" />
    <glyph glyph-name="Nacute" unicode="&#x143;" horiz-adv-x="1441" 
d="M55 127h193v1225h-193v127h363q106 -197 315 -589t316 -589v1051h-193v127h551v-127h-197v-1352h-170q-430 799 -630 1178v-1051h194v-127h-551l2 63v64zM975 1993q-172 -238 -244 -340h-178q72 102 244 340h178z" />
    <glyph glyph-name="nacute" unicode="&#x144;" horiz-adv-x="1161" 
d="M47 0v127h195v838h-195v127h356v-150q109 160 268 160t221 -111t62 -309v-555h193v-127h-498v127h144v541q0 143 -37 222t-135 79q-133 0 -218 -189v-653h140v-127h-496zM827 1645q-12 -18 -245 -340h-179q233 322 246 340h178z" />
    <glyph glyph-name="Ncommaaccent" unicode="&#x145;" horiz-adv-x="1441" 
d="M891 -135l-176 -391h-152l131 391h197zM55 127h193v1225h-193v127h363q106 -197 315 -589t316 -589v1051h-193v127h551v-127h-197v-1352h-170q-430 799 -630 1178v-1051h194v-127h-551l2 63v64z" />
    <glyph glyph-name="ncommaaccent" unicode="&#x146;" horiz-adv-x="1161" 
d="M797 -127l-176 -391h-152l131 391h197zM47 0v127h195v838h-195v127h356v-150q109 160 268 160t221 -111t62 -309v-555h193v-127h-498v127h144v541q0 143 -37 222t-135 79q-133 0 -218 -189v-653h140v-127h-496z" />
    <glyph glyph-name="Ncaron" unicode="&#x147;" horiz-adv-x="1441" 
d="M55 127h193v1225h-193v127h363q106 -197 315 -589t316 -589v1051h-193v127h551v-127h-197v-1352h-170q-430 799 -630 1178v-1051h194v-127h-551l2 63v64zM1100 2005l-246 -340h-221q-55 85 -244 340h178q12 -18 176 -246q125 165 179 246h178z" />
    <glyph glyph-name="ncaron" unicode="&#x148;" horiz-adv-x="1161" 
d="M47 0v127h195v838h-195v127h356v-150q109 160 268 160t221 -111t62 -309v-555h193v-127h-498v127h144v541q0 143 -37 222t-135 79q-133 0 -218 -189v-653h140v-127h-496zM950 1655q-181 -244 -243 -340h-222q-197 265 -245 340h178q61 -92 178 -246q164 227 176 246h178z
" />
    <glyph glyph-name="Omacron" unicode="&#x14c;" 
d="M412 1306q-166 -114 -166 -566q0 -453 176 -568q72 -47 165 -47q170 0 255 123q98 146 98 495q0 442 -180 564q-72 47 -175 47t-173 -48zM84 766q0 433 215 619q119 103 299 104q380 0 476 -453q28 -131 28 -293q0 -327 -115 -532q-59 -105 -159 -163t-237 -58
q-272 0 -393 219q-114 205 -114 557zM752 1661h-332v127h332v-127z" />
    <glyph glyph-name="omacron" unicode="&#x14d;" horiz-adv-x="960" 
d="M231 547q0 -313 123 -392q51 -32 125 -32q140 0 194 124q46 106 46 298q0 426 -244 426t-244 -424zM80 546q0 256 96 406t303 150t304 -151t97 -407t-96 -405q-98 -149 -306 -149t-303 150t-95 406zM639 1309h-332v129h332v-129z" />
    <glyph glyph-name="Ohungarumlaut" unicode="&#x150;" 
d="M412 1306q-166 -114 -166 -566q0 -453 176 -568q72 -47 165 -47q170 0 255 123q98 146 98 495q0 442 -180 564q-72 47 -175 47t-173 -48zM84 766q0 433 215 619q119 103 299 104q380 0 476 -453q28 -131 28 -293q0 -327 -115 -532q-59 -105 -159 -163t-237 -58
q-272 0 -393 219q-114 205 -114 557zM965 2036l-177 -389h-151l131 389h197zM657 2036l-176 -389h-151l131 389h196z" />
    <glyph glyph-name="ohungarumlaut" unicode="&#x151;" horiz-adv-x="978" 
d="M231 547q0 -313 123 -392q51 -32 125 -32q140 0 194 124q46 106 46 298q0 426 -244 426t-244 -424zM80 546q0 256 96 406t303 150t304 -151t97 -407t-96 -405q-98 -149 -306 -149t-303 150t-95 406zM852 1686l-176 -392h-152l131 392h197zM545 1686l-176 -392h-152
l131 392h197z" />
    <glyph glyph-name="OE" unicode="&#x152;" horiz-adv-x="1572" 
d="M596 129q115 0 199 55v1127q-74 41 -181 41q-213 0 -296 -190q-74 -168 -74 -451q0 -582 352 -582zM1509 0h-815q-43 -8 -106 -8q-269 0 -387 198q-119 198 -119 515q0 233 51 402t175 273t317 105q45 0 82 -6h751v-310h-129v183h-375v-523h412v-129h-412v-573h424v182
h131v-309z" />
    <glyph glyph-name="oe" unicode="&#x153;" horiz-adv-x="1531" 
d="M1092 969q-115 0 -158 -86t-49 -246h409q-2 160 -44 246t-158 86zM231 547q0 -313 123 -392q51 -32 125 -32q140 0 194 124q46 106 46 298q0 426 -244 426t-244 -424zM486 -10q-216 0 -311 150t-95 406t96 406t307 150t312 -170q94 170 305 170q182 0 266 -131t84 -361
v-96h-565q6 -186 59 -288t189 -103q61 0 103 29t91 90l100 -88q-73 -84 -139 -124t-155 -40q-225 0 -330 182q-101 -182 -317 -182z" />
    <glyph glyph-name="Racute" unicode="&#x154;" horiz-adv-x="1257" 
d="M1270 127v-127h-342q-53 104 -342 655h-176v-528h194v-127h-551v127h195v1225h-195v127h543q180 -1 278 -105t98 -272q1 -329 -231 -418l291 -557h238zM567 1352h-157v-568h188q109 0 161 77t52 208t-62 207q-63 76 -182 76zM324 1653l245 340h179q-42 -65 -246 -340
h-178z" />
    <glyph glyph-name="racute" unicode="&#x155;" horiz-adv-x="800" 
d="M113 0v127h194v838h-194v127h356v-109q115 119 289 119v-133q-188 0 -289 -125v-717h180v-127h-536zM535 1620l-244 -340h-178q74 106 245 340h177z" />
    <glyph glyph-name="Rcommaaccent" unicode="&#x156;" horiz-adv-x="1257" 
d="M842 -133l-176 -391h-152l131 391h197zM1270 127v-127h-342q-53 104 -342 655h-176v-528h194v-127h-551v127h195v1225h-195v127h543q180 -1 278 -105t98 -272q1 -329 -231 -418l291 -557h238zM567 1352h-157v-568h188q109 0 161 77t52 208t-62 207q-63 76 -182 76z" />
    <glyph glyph-name="rcommaaccent" unicode="&#x157;" horiz-adv-x="735" 
d="M483 -129l-176 -391h-151l131 391h196zM47 0v127h195v838h-195v127h356v-109q115 119 289 119v-133q-188 0 -289 -125v-717h181v-127h-537z" />
    <glyph glyph-name="Rcaron" unicode="&#x158;" horiz-adv-x="1257" 
d="M1270 127v-127h-342q-53 104 -342 655h-176v-528h194v-127h-551v127h195v1225h-195v127h543q180 -1 278 -105t98 -272q1 -329 -231 -418l291 -557h238zM567 1352h-157v-568h188q109 0 161 77t52 208t-62 207q-63 76 -182 76zM406 1663q-12 18 -246 340h178q12 -18 42 -59
q30 -42 71 -98t65 -89q164 227 176 246h178q-172 -238 -243 -340h-221z" />
    <glyph glyph-name="rcaron" unicode="&#x159;" horiz-adv-x="849" 
d="M115 127h192v838h-194v127h356v-109q115 119 289 119v-133q-188 0 -289 -127v-715h180v-127h-536l2 63v64zM403 1354q131 172 179 245h178q-233 -322 -246 -339h-221q-72 102 -244 339h178q12 -18 176 -245z" />
    <glyph glyph-name="Sacute" unicode="&#x15a;" horiz-adv-x="907" 
d="M414 -10q-94 0 -165 30t-153 95v276h129v-188q109 -80 208 -80t162 72q62 72 62 174t-65 178q-66 75 -204 161t-210 180q-74 94 -74 246t92 248t253 97q93 0 161 -30t150 -93v-266h-129v202q-103 64 -187 64t-131 -60t-47 -153v-13q0 -98 60 -170t198 -158t216 -184
t79 -262q0 -164 -110 -265q-111 -101 -295 -101zM688 1995q-157 -212 -244 -340h-178q172 238 244 340h178z" />
    <glyph glyph-name="sacute" unicode="&#x15b;" horiz-adv-x="782" 
d="M391 -10q-147 0 -313 108v271h129v-185q98 -57 203 -57q63 0 100 45t37 121t-47 123t-142 88q-127 49 -189 126q-63 78 -63 202t74 197t211 73t250 -94v-258h-129v184q-70 35 -132 35t-94 -39t-32 -99q0 -141 152 -203t223 -133q73 -71 73 -207t-82 -217t-229 -81z
M602 1645l-244 -340h-178q172 238 244 340h178z" />
    <glyph glyph-name="Scedilla" unicode="&#x15e;" horiz-adv-x="907" 
d="M639 -260q-1 -84 -55 -135t-136 -51t-149 49l68 102q45 -35 85 -35t60 22t20 56q0 70 -49 70q-18 0 -45 -23l-110 103q12 37 39 94q-133 12 -271 123v276h129v-188q109 -80 208 -80t162 72q62 72 62 174t-65 178q-66 75 -204 161t-210 180q-74 94 -74 246t92 248t253 97
q93 0 161 -30t150 -93v-266h-129v202q-103 64 -187 64t-131 -60t-47 -153v-13q0 -98 60 -170t198 -158t216 -184t79 -246q0 -148 -77 -244t-212 -126q-12 -35 -28 -65q66 -9 102 -61t35 -136z" />
    <glyph glyph-name="scedilla" unicode="&#x15f;" horiz-adv-x="782" 
d="M383 -446q-84 0 -147 49l65 102q41 -33 94 -33q72 0 72 73t-47 73q-20 0 -47 -23l-111 103q4 12 20 46q15 34 23 54q-111 23 -227 100v271h129v-185q98 -57 203 -57q63 0 100 45t37 121t-47 123t-142 88q-127 49 -189 126q-63 78 -63 202t74 197t211 73t250 -94v-258
h-129v184q-70 35 -132 35t-94 -39t-32 -99q0 -141 152 -203t223 -133q73 -71 73 -198t-62 -205t-177 -96q-25 -55 -27 -59q66 -9 103 -61t37 -136t-55 -135q-54 -51 -138 -51z" />
    <glyph glyph-name="Scaron" unicode="&#x160;" horiz-adv-x="929" 
d="M430 -10q-94 0 -166 30t-151 95v276h129v-188q104 -80 204 -80t164 73t64 174t-66 177q-66 75 -203 161t-211 180t-75 246q0 152 93 248t253 97q92 0 161 -30t150 -93v-266h-129v202q-102 64 -186 64t-131 -60t-47 -153v-13q0 -98 60 -170q59 -72 197 -158t217 -184
t79 -262t-111 -264q-111 -102 -295 -102zM829 2005l-245 -340h-222q-62 96 -243 340h178q12 -18 176 -246q117 154 178 246h178z" />
    <glyph glyph-name="scaron" unicode="&#x161;" horiz-adv-x="862" 
d="M442 -10q-148 0 -311 108v271h129v-187q100 -55 203 -55q63 0 100 45t37 121t-47 123t-141 88q-127 49 -190 126q-62 78 -62 202t73 197q74 73 210 73t251 -94v-258h-129v182q-68 37 -131 37t-95 -39t-32 -99q-1 -141 151 -203t224 -133t73 -207t-81 -217
q-84 -81 -232 -81zM778 1655l-243 -340h-222q-197 265 -245 340h178q61 -92 178 -246q164 227 176 246h178z" />
    <glyph glyph-name="Tcommaaccent" unicode="&#x162;" horiz-adv-x="1042" 
d="M678 -133l-176 -391h-152l131 391h197zM244 0v127h196v1214h-250v-174h-127v312h918v-312h-129v174h-250v-1214h195v-127h-553z" />
    <glyph glyph-name="tcommaaccent" unicode="&#x163;" horiz-adv-x="655" 
d="M522 -135l-176 -391h-151l131 391h196zM178 319v605h-147v127h147v200l162 82v-282h270v-127h-270v-598q0 -100 19 -150t77 -51q58 0 113 43l35 -55l32 -58q-100 -66 -194 -65q-244 0 -244 329z" />
    <glyph glyph-name="Tcaron" unicode="&#x164;" horiz-adv-x="1042" 
d="M244 0v127h196v1214h-250v-174h-127v312h918v-312h-129v174h-250v-1214h195v-127h-553zM877 2003q-55 -85 -244 -340h-221q-23 31 -123 170t-123 170h178q12 -18 42 -59q30 -42 71 -98t65 -89q164 227 176 246h179z" />
    <glyph glyph-name="tcaron" unicode="&#x165;" horiz-adv-x="655" 
d="M178 319v644h-147v127h147v161l162 82v-243h270v-127h-270v-361l66 195h196l-176 -391h-86v-80q0 -100 19 -150t77 -51q58 0 113 43l35 -55l32 -58q-100 -66 -194 -65q-244 0 -244 329z" />
    <glyph glyph-name="Umacron" unicode="&#x16a;" horiz-adv-x="1366" 
d="M1128 559q0 -569 -448 -569q-236 0 -340 145t-104 422v795h-197v127h549v-127h-205v-770q0 -219 69 -335t238 -116q291 0 291 410v811h-203v127h551v-127h-201v-793zM848 1661h-332v127h332v-127z" />
    <glyph glyph-name="umacron" unicode="&#x16b;" horiz-adv-x="1112" 
d="M752 0v129q-100 -139 -230 -139q-311 0 -311 416v559h-195v127h357v-678q0 -139 37 -215t137 -76q119 0 205 194v648h-195v127h356v-965h181v-127h-342zM690 1311h-334v127h334v-127z" />
    <glyph glyph-name="Uring" unicode="&#x16e;" horiz-adv-x="1366" 
d="M1128 559q0 -569 -448 -569q-236 0 -340 145t-104 422v795h-197v127h549v-127h-205v-770q0 -219 69 -335t238 -116q291 0 291 410v811h-203v127h551v-127h-201v-793zM682 2077q-86 1 -86 -147t91 -148t91 148t-96 147zM459 1927q0 121 57 194t168 73t172 -74
q62 -72 62 -194t-60 -194t-171 -73q-110 -1 -169 73t-59 195z" />
    <glyph glyph-name="uring" unicode="&#x16f;" horiz-adv-x="1112" 
d="M752 0v129q-100 -139 -230 -139q-311 0 -311 416v559h-195v127h357v-678q0 -139 37 -215t137 -76q119 0 205 194v648h-195v127h356v-965h181v-127h-342zM436 1580q0 -148 91 -148t91 148t-94 146q-88 2 -88 -146zM299 1577q0 121 58 193t168 73q110 0 171 -73
q62 -72 62 -194t-60 -195t-171 -73q-110 0 -169 74t-59 195z" />
    <glyph glyph-name="Uhungarumlaut" unicode="&#x170;" horiz-adv-x="1366" 
d="M1128 559q0 -569 -448 -569q-236 0 -340 145t-104 422v795h-197v127h549v-127h-205v-770q0 -219 69 -335t238 -116q291 0 291 410v811h-203v127h551v-127h-201v-793zM1061 2036l-176 -389h-152l131 389h197zM754 2036l-176 -389h-152l131 389h197z" />
    <glyph glyph-name="uhungarumlaut" unicode="&#x171;" horiz-adv-x="1112" 
d="M752 0v129q-100 -139 -230 -139q-311 0 -311 416v559h-195v127h357v-678q0 -139 37 -215t137 -76q119 0 205 194v648h-195v127h356v-965h181v-127h-342zM901 1686l-176 -390h-152l132 390h196zM596 1686l-176 -390h-154l133 390h197z" />
    <glyph glyph-name="Uogonek" unicode="&#x172;" horiz-adv-x="1366" 
d="M691 -371q-81 -1 -131 63t-50 154t53 154q-328 63 -327 557v795h-197v127h549v-127h-205v-770q0 -219 69 -335t238 -116q291 0 291 410v811h-203v127h551v-127h-201v-793q0 -539 -399 -567q-88 -61 -88 -137q0 -41 18 -69q17 -28 47 -28t72 35q33 -45 37 -47t13 -16
q10 -14 26 -33q-82 -68 -163 -68z" />
    <glyph glyph-name="uogonek" unicode="&#x173;" horiz-adv-x="1112" 
d="M824 -369q-78 -1 -128 63t-51 170q0 106 107 187v78q-100 -139 -230 -139q-311 0 -311 416v559h-195v127h357v-678q0 -139 37 -215t137 -76q119 0 205 194v648h-195v127h356v-965h181v-127h-220q-98 -66 -98 -143q0 -41 18 -69t48 -28q29 0 71 35q33 -45 36 -47t14 -16
q10 -14 26 -33q-87 -68 -165 -68z" />
    <glyph glyph-name="Ydieresis" unicode="&#x178;" horiz-adv-x="1220" 
d="M692 127h189v-127h-551v127h188v563q-199 459 -289 662h-229v127h569v-127h-176q92 -221 211 -518q68 152 227 518h-169v127h567v-127h-232q-256 -562 -305 -662v-563zM844 1721q0 -83 -95 -83t-96 82q0 39 26 62t69 22q96 0 96 -83zM468 1638q-95 0 -95 82q0 39 25 62
q26 22 69 22t70 -22t26 -62q0 -82 -95 -82z" />
    <glyph glyph-name="Zacute" unicode="&#x179;" horiz-adv-x="1054" 
d="M999 0h-944v127q647 1135 699 1225h-510v-183h-131v310h833v-127q-690 -1198 -704 -1225h626v182h131v-309zM332 1653q180 243 246 340h178q-180 -243 -246 -340h-178z" />
    <glyph glyph-name="zacute" unicode="&#x17a;" horiz-adv-x="839" 
d="M774 0h-706v127q274 477 358 623t123 215h-326v-183h-129v310h654v-127q-281 -479 -488 -838h383v182h131v-309zM229 1303q4 4 246 339h176q-29 -43 -243 -339h-179z" />
    <glyph glyph-name="Zdotaccent" unicode="&#x17b;" horiz-adv-x="1054" 
d="M999 0h-944v127q647 1135 699 1225h-510v-183h-131v310h833v-127q-690 -1198 -704 -1225h626v182h131v-309zM618 1721q0 -83 -95 -83t-95 82q0 39 26 62t68 22q96 0 96 -83z" />
    <glyph glyph-name="zdotaccent" unicode="&#x17c;" horiz-adv-x="839" 
d="M774 0h-706v127q274 477 358 623t123 215h-326v-183h-129v310h654v-127q-281 -479 -488 -838h383v182h131v-309zM516 1370q0 -84 -95 -84t-95 84q0 39 25 61q26 21 69 21q44 0 70 -22t26 -60z" />
    <glyph glyph-name="Zcaron" unicode="&#x17d;" horiz-adv-x="1054" 
d="M999 0h-944v127q647 1135 699 1225h-510v-183h-131v310h833v-127q-690 -1198 -704 -1225h626v182h131v-309zM414 1663q-12 18 -246 340h178q16 -23 84 -116t94 -130q141 197 176 246h181q-100 -133 -246 -340h-221z" />
    <glyph glyph-name="zcaron" unicode="&#x17e;" horiz-adv-x="890" 
d="M793 0h-707v127q274 477 358 623t123 215h-325v-183h-127v310h651v-127q-281 -479 -487 -838h385v182h129v-309zM795 1653q-42 -65 -246 -340h-221q-157 212 -244 340h178q12 -18 176 -246q137 184 178 246h179z" />
    <glyph glyph-name="florin" unicode="&#x192;" horiz-adv-x="698" 
d="M98 -135q-37 0 -69 8l28 127q16 -4 25 -4q86 0 108 172q82 561 123 844h-110v129h129q8 45 20 136t21 136q20 127 86 203t166 76q31 0 71 -11l-14 -63l-16 -64q-16 4 -25 5q-82 0 -100 -152q-5 -45 -19 -134t-20 -132h125v-129h-146q-49 -310 -129 -865
q-20 -129 -86 -205t-168 -77z" />
    <glyph glyph-name="Scommaaccent" unicode="&#x218;" horiz-adv-x="907" 
d="M557 -139l-176 -391h-152l131 391h197zM414 -10q-94 0 -165 30t-153 95v276h129v-188q109 -80 208 -80t162 72q62 72 62 174t-65 178q-66 75 -204 161t-210 180q-74 94 -74 246t92 248t253 97q93 0 161 -30t150 -93v-266h-129v202q-103 64 -187 64t-131 -60t-47 -153v-13
q0 -98 60 -170t198 -158t216 -184t79 -262q0 -164 -110 -265q-111 -101 -295 -101z" />
    <glyph glyph-name="scommaaccent" unicode="&#x219;" horiz-adv-x="784" 
d="M469 -152l-174 -391h-154l133 391h195zM393 -10q-147 0 -313 108v271h131v-187q98 -55 201 -55q63 0 100 45t37 117v4q0 78 -47 124t-140 87q-127 49 -189 126q-62 78 -62 202t73 197q74 73 210 73t251 -94v-258h-131v184q-70 35 -132 35t-94 -39t-32 -99
q0 -141 152 -203t223 -133q72 -71 73 -207q0 -136 -82 -217t-229 -81z" />
    <glyph glyph-name="circumflex" unicode="&#x2c6;" horiz-adv-x="991" 
d="M18 1210l246 340h219q42 -65 246 -340h-178q-20 30 -87 121q-67 92 -91 125q-171 -237 -176 -246h-179z" />
    <glyph glyph-name="caron" unicode="&#x2c7;" horiz-adv-x="860" 
d="M729 1532q-42 -65 -246 -340h-219q-23 31 -123 170t-123 170h179q12 -18 42 -59q31 -41 71 -97t65 -90q159 221 176 246h178z" />
    <glyph glyph-name="breve" unicode="&#x2d8;" horiz-adv-x="655" 
d="M271 1192q-125 0 -189 77t-64 208h154q0 -156 106 -156t107 154h156q0 -131 -73 -207t-197 -76z" />
    <glyph glyph-name="dotaccent" unicode="&#x2d9;" horiz-adv-x="729" 
d="M348 1288q-96 0 -96 84q0 37 26 60q26 22 70 22t70 -22q27 -22 26 -60q0 -84 -96 -84z" />
    <glyph glyph-name="ring" unicode="&#x2da;" horiz-adv-x="579" 
d="M246 1475q-86 1 -86 -147t91 -148t91 148t-96 147zM23 1325q0 121 57 194t168 73t172 -74q61 -72 61 -194t-60 -195t-170 -73t-169 74t-59 195z" />
    <glyph glyph-name="ogonek" unicode="&#x2db;" horiz-adv-x="495" 
d="M301 -213q58 -72 78 -96q-86 -68 -165 -68q-79 -1 -129 63t-50 156t50 148t148 110l58 -90q-39 -25 -63 -43t-43 -50t-19 -67q0 -98 67 -98q29 0 68 35z" />
    <glyph glyph-name="tilde" unicode="&#x2dc;" horiz-adv-x="839" 
d="M494 1194q-95 0 -172 115q-10 14 -14 17q-3 2 -21 24t-55 22q-38 0 -62 -23t-34 -53q-9 -30 -16 -58l-9 -36l-48 23l-49 20q27 121 71 187t138 65q72 0 137 -80q64 -80 109 -90l20 -2q53 0 78 71l15 42l14 49l96 -49q-44 -184 -114 -225q-35 -19 -84 -19z" />
    <glyph glyph-name="hungarumlaut" unicode="&#x2dd;" horiz-adv-x="854" 
d="M743 1776l-176 -392h-153l133 392h196zM436 1776l-176 -392h-151l131 392h196z" />
    <glyph glyph-name="pi" unicode="&#x3c0;" horiz-adv-x="1085" 
d="M729 74v983h-364v-983h-152v983h-184v139h1024v-139h-172v-983h-152z" />
    <glyph glyph-name="endash" unicode="&#x2013;" horiz-adv-x="825" 
d="M719 498h-615v141h615v-141z" />
    <glyph glyph-name="emdash" unicode="&#x2014;" horiz-adv-x="1230" 
d="M1126 498h-1022v141h1022v-141z" />
    <glyph glyph-name="quoteleft" unicode="&#x2018;" horiz-adv-x="503" 
d="M102 1221l177 391h151l-131 -391h-197z" />
    <glyph glyph-name="quoteright" unicode="&#x2019;" horiz-adv-x="501" 
d="M430 1479l-176 -392h-152l131 392h197z" />
    <glyph glyph-name="quotesinglbase" unicode="&#x201a;" horiz-adv-x="477" 
d="M371 145l-176 -391h-152l133 391h195z" />
    <glyph glyph-name="quotedblleft" unicode="&#x201c;" horiz-adv-x="724" 
d="M66 1352l174 389h153l-133 -389h-194zM371 1352l176 389h151l-131 -389h-196z" />
    <glyph glyph-name="quotedblright" unicode="&#x201d;" horiz-adv-x="618" 
d="M649 1776l-176 -392h-151l131 392h196zM342 1776l-176 -392h-152l131 392h197z" />
    <glyph glyph-name="quotedblbase" unicode="&#x201e;" horiz-adv-x="780" 
d="M674 145l-176 -391h-152l131 391h197zM371 145l-176 -391h-152l133 391h195z" />
    <glyph glyph-name="dagger" unicode="&#x2020;" horiz-adv-x="1118" 
d="M1071 864h-436v-1478h-152v1478h-436v140h436v501h152v-501h436v-140z" />
    <glyph glyph-name="daggerdbl" unicode="&#x2021;" horiz-adv-x="1196" 
d="M1110 -94h-436v-520h-152v520h-436v141h436v817h-436v140h436v501h152v-501h436v-140h-436v-817h436v-141z" />
    <glyph glyph-name="bullet" unicode="&#x2022;" horiz-adv-x="638" 
d="M317 1067q85 0 139 -43t54 -124t-52 -123t-142 -42q-89 0 -138 43t-49 121t51 123t137 45z" />
    <glyph glyph-name="ellipsis" unicode="&#x2026;" horiz-adv-x="1038" 
d="M522 156q96 0 96 -83t-94 -83t-94 82q0 40 26 62t66 22zM840 156q96 0 96 -83t-95 -83t-96 82q0 40 27 62t68 22zM293 72q0 -82 -95 -82t-96 82q0 40 26 62t69 22t69 -22t27 -62z" />
    <glyph glyph-name="perthousand" unicode="&#x2030;" horiz-adv-x="2412" 
d="M2036 612q-102 0 -140 -82t-38 -234q0 -151 40 -237t146 -86q72 1 110 49t50 111q10 63 10 187t-37 208t-137 84h-4zM1313 612q-102 0 -140 -82t-38 -234q0 -151 40 -237t146 -86q72 1 111 49t49 111t10 187t-37 208t-137 84h-4zM1720 295q0 199 79 317t242 119
q163 0 241 -117q78 -118 77 -316q0 -198 -79 -320q-80 -122 -242 -122t-240 120t-78 319zM997 296q0 200 79 318t242 117q163 0 241 -117q77 -118 77 -316t-78 -320t-242 -122q-163 0 -241 120t-78 320zM371 1397q-102 0 -140 -83t-38 -234q-1 -150 39 -236t147 -86
q73 0 111 48t49 110q10 62 10 188t-37 209q-37 84 -137 84h-4zM618 -135h-153l631 1638h153zM381 1513q157 -1 235 -117t78 -314t-79 -320t-241 -121q-162 -1 -241 119q-78 120 -78 319t79 317t243 117h4z" />
    <glyph glyph-name="guilsinglleft" unicode="&#x2039;" horiz-adv-x="559" 
d="M444 252l-352 244v159q20 16 176 124t176 124v-149q-10 -8 -71 -52t-172 -127q190 -129 243 -174v-149z" />
    <glyph glyph-name="guilsinglright" unicode="&#x203a;" horiz-adv-x="559" 
d="M115 903l352 -248v-159q-18 -14 -175 -121t-177 -123v149q53 45 243 174l-243 179v149z" />
    <glyph glyph-name="fraction" unicode="&#x2044;" horiz-adv-x="825" 
d="M172 -135h-152l631 1638h154z" />
    <glyph glyph-name="foursuperior" unicode="&#x2074;" horiz-adv-x="786" 
d="M395 1022v328l-196 -328h196zM233 686v96h162v136h-258l-69 104l327 547h131v-547h146v-104h-146v-136h164v-96h-457z" />
    <glyph glyph-name="Euro" unicode="&#x20ac;" horiz-adv-x="1196" 
d="M686 -10q-410 0 -489 487h-127v135h112q-2 31 -2 97t2 100h-112v135h127q80 545 526 545q182 0 367 -148v-245h-132v176q-117 82 -243 82q-305 0 -359 -410h381v-135h-393q-2 -33 -2 -99t2 -98h393v-135h-379q55 -350 336 -350q100 0 173 41t151 127l49 -47q2 0 49 -49
q-94 -105 -193 -157t-237 -52z" />
    <glyph glyph-name="trademark" unicode="&#x2122;" horiz-adv-x="1505" 
d="M930 651v-108h-281v108h88q56 485 70 631h-82v107h209q28 -149 55 -327q26 -178 37 -241q32 196 88 568h211v-107h-86l76 -631h88v-108h-279v108h62l-35 326q-53 -266 -76 -399h-96q-20 121 -80 391l-33 -318h64zM459 651h80v-108h-293v108h80v631h-109v-111h-123v218
h588v-218h-123v111h-100v-631z" />
    <glyph glyph-name="estimated" unicode="&#x212e;" horiz-adv-x="1304" 
d="M655 1354q-203 0 -327 -125v-395h657v399q-127 121 -330 121zM721 -10q-313 0 -489 209q-175 209 -175 555t159 540q158 194 438 193q280 0 436 -182t155 -498v-96h-917v-426q143 -162 393 -162q115 0 223 43t176 125q54 -47 103 -82q-223 -219 -502 -219z" />
    <glyph glyph-name="partialdiff" unicode="&#x2202;" horiz-adv-x="909" 
d="M422 119q153 0 199 147q38 122 38 344q-66 168 -229 170q-102 -2 -154 -92t-51 -233q0 -336 195 -336h2zM74 440q0 202 88 332q88 129 248 129t247 -100v51q0 242 -12 294q-29 126 -58 155q-62 61 -142 61q-79 0 -144 -78l-88 86q117 121 231 121q222 0 294 -196
q61 -161 63 -443q0 -394 -37 -550t-109 -221q-98 -91 -254 -91q-155 0 -241 124t-86 326z" />
    <glyph glyph-name="product" unicode="&#x220f;" horiz-adv-x="1378" 
d="M59 0v129h193v1382h-189v127h1254v-127h-195v-1382h197v-129h-551v129h193v1382h-547v-1382h196v-129h-551z" />
    <glyph glyph-name="summation" unicode="&#x2211;" horiz-adv-x="827" 
d="M637 1389l-4 -3q2 1 4 3zM647 1397l-4 -2q2 0 4 2zM723 1464l6 4q-2 0 -6 -4zM594 1352h-356l424 -582l-433 -643h365v178h147v-305h-680v127l431 641l-429 584v127h676v-305h-145v178zM594 1352q6 4 16 14z" />
    <glyph glyph-name="minus" unicode="&#x2212;" horiz-adv-x="1236" 
d="M1130 569h-1024v140h1024v-140z" />
    <glyph glyph-name="divisionslash" unicode="&#x2215;" horiz-adv-x="806" 
d="M164 -135h-152l631 1638h154z" />
    <glyph glyph-name="bulletoperator" unicode="&#x2219;" horiz-adv-x="593" 
d="M294 735q-89 0 -138 43q-50 43 -50 121t52 123t137 45q86 0 139 -43t53 -124t-52 -123t-141 -42z" />
    <glyph glyph-name="radical" unicode="&#x221a;" horiz-adv-x="1073" 
d="M61 584v129h345q12 -43 137 -484q139 509 348 1250h137l-405 -1479h-156l-162 584h-244z" />
    <glyph glyph-name="infinity" unicode="&#x221e;" horiz-adv-x="1370" 
d="M418 453q-148 0 -236 107q-88 108 -88 260t90 258t240 106t254 -193q109 191 260 191q152 0 246 -104t94 -258q0 -153 -94 -259t-238 -106q-166 0 -276 207q-104 -209 -252 -209zM1126 821q0 94 -52 164t-126 70q-74 -1 -119 -57t-84 -156q53 -158 86 -201
q49 -57 121 -58t123 71t51 167zM410 580q51 0 89 36t59 82q21 47 44 119q-45 118 -68 161q-43 77 -120 78q-76 1 -121 -68t-45 -166q0 -98 43 -170t119 -72z" />
    <glyph glyph-name="integral" unicode="&#x222b;" horiz-adv-x="710" 
d="M90 -135q-35 0 -67 8l28 129q8 -2 23 -2q90 0 108 168q33 219 93 636t90 609q20 127 87 203t169 76q37 0 69 -9l-14 -63l-17 -66q-16 4 -22 5q-39 0 -67 -43t-35 -109l-191 -1260q-18 -129 -84 -205t-170 -77z" />
    <glyph glyph-name="approxequal" unicode="&#x2248;" horiz-adv-x="1069" 
d="M371 752q71 0 117 -29t104 -92q62 -72 125 -72q72 0 112 164l5 16l129 -39q-37 -140 -87 -208t-142 -67t-141 30q-51 29 -111 95t-116 66t-81 -54t-39 -128l-131 41q29 137 85 207t171 70zM713 932q68 0 99 112q5 18 17 66l132 -37q-37 -139 -89 -208t-159 -68
q-74 -1 -123 29q-50 30 -92 76t-54 56q-36 32 -85 31q-49 0 -74 -47t-43 -135l-131 41q29 137 86 207t172 69q71 0 117 -28t104 -92q62 -72 123 -72z" />
    <glyph glyph-name="notequal" unicode="&#x2260;" horiz-adv-x="1120" 
d="M1026 379h-496l-135 -346h-151l135 346h-283v133h336l125 322h-461v133h512l133 338h152l-133 -338h266v-133h-317l-125 -322h442v-133z" />
    <glyph glyph-name="lessequal" unicode="&#x2264;" horiz-adv-x="1103" 
d="M1006 -2h-918v135h918v-135zM217 854q393 -222 789 -438v-144q-81 47 -916 508v148q170 94 483 267t433 241v-146q-70 -38 -354 -194t-435 -242z" />
    <glyph glyph-name="greaterequal" unicode="&#x2265;" horiz-adv-x="1103" 
d="M98 -2v135h918v-135h-918zM98 1436q358 -202 918 -508v-148q-152 -86 -459 -255t-459 -253v144q739 410 791 438q-39 22 -791 436v146z" />
    <glyph glyph-name="lozenge" unicode="&#x25ca;" horiz-adv-x="811" 
d="M227 942q59 -154 179 -457q90 231 180 457q-92 231 -180 457q-120 -303 -179 -457zM324 279l-258 663l258 664h161q40 -106 260 -664l-260 -663h-161z" />
    <glyph glyph-name="commaaccent" unicode="&#xf6c3;" horiz-adv-x="548" 
d="M422 188l-176 -389h-152l131 389h197z" />
    <glyph glyph-name="fi" unicode="&#xfb01;" horiz-adv-x="907" 
d="M449 135v-135h-424v135h172v848h-168v133h168v115q0 205 92 330t295 125q121 0 196 -72l8 -254h-178v182h2q-8 8 -20 8q-147 0 -185 -106q-32 -89 -32 -227v-101h409l2 2v-983h105v-135h-350v135h67v848h-233v-848h74z" />
    <glyph glyph-name="fl" unicode="&#xfb02;" horiz-adv-x="1671" 
d="M1317 135h305v-135h-664v135h183v848h-473v-848h192v-135h-672v135h304v848h-416v133h416v109q0 213 142 336t374 122q143 0 309 -43v-1505zM1049 1550h-33q-158 0 -253 -90t-95 -243v-101h473v424q-33 10 -92 10z" />
    <glyph glyph-name="tcedilla" horiz-adv-x="655" 
d="M178 319v644h-147v127h147v161l162 82v-243h270v-127h-270v-637q0 -100 19 -150t77 -51q58 0 113 43l35 -55l32 -58q-88 -59 -163 -63q-5 -12 -15 -35t-14 -33q66 -8 102 -59t35 -136q0 -85 -54 -137q-55 -51 -138 -51t-148 51l68 101q41 -33 84 -33q80 0 82 76
q0 70 -49 69q-23 0 -46 -22l-110 102l53 131q-125 66 -125 303z" />
    <glyph glyph-name="Tcedilla" horiz-adv-x="1042" 
d="M725 -265q-1 -85 -55 -137t-136 -51q-82 0 -149 50l68 102q41 -33 84 -33q81 0 81 76q0 70 -49 70q-23 0 -45 -23l-110 102q6 13 21 53t22 56h-213v127h196v1214h-250v-174h-127v312h918v-312h-129v174h-250v-1214h195v-127h-179q-4 -10 -15 -34t-15 -36q66 -8 102 -59
t35 -136z" />
    <glyph glyph-name="softhyphen" horiz-adv-x="813" 
d="M709 643h-603v139h603v-139z" />
    <glyph glyph-name="litre" horiz-adv-x="624" 
d="M588 0h-551v127h192v1384h-190l2 64v63h350v-1511h197v-127z" />
    <glyph glyph-name="ruble" horiz-adv-x="1026" 
d="M530 1352h-102v-527h115q260 0 260 252q-1 275 -273 275zM74 0v127h192v227h-127v138h127v196h-127v137h127v527h-192v127h477q201 -1 307 -101t106 -294t-104 -292q-106 -98 -305 -104h-127v-196h287v-138h-287v-227h197v-127h-551z" />
    <glyph glyph-name="nullsuperior" horiz-adv-x="829" 
d="M233 1111q0 -151 40 -237t147 -86q72 0 110 48t50 112q10 63 10 187t-37 208t-137 84h-4q-102 0 -141 -82q-38 -83 -38 -234zM96 1111q0 199 79 317t242 118t241 -116t77 -316q0 -198 -79 -320q-80 -122 -242 -122t-240 120t-78 319z" />
    <glyph glyph-name="omegamath" horiz-adv-x="1263" 
d="M1155 698q0 -350 -156 -569h189v-129h-297l-47 66l-49 63q115 119 155 256q41 137 41 302q0 311 -78 480q-87 195 -290 195q-354 0 -355 -653q0 -187 39 -323t146 -257l-86 -129h-293v129h190q-158 236 -158 577t123 561t408 222q137 -1 239 -61t162 -168
q117 -212 117 -562z" />
    <glyph glyph-name="apostrophemod" horiz-adv-x="548" 
d="M436 1479l-176 -392h-151l131 392h196z" />
    <glyph glyph-name="mumath" horiz-adv-x="1171" 
d="M549 -10q-84 0 -150 33v-637h-161v1579h-195v127h356v-678q0 -137 37 -213t137 -76q119 0 205 194v646h-194v127h356v-963h180v-129h-342v129q-100 -139 -229 -139z" />
    <glyph glyph-name="macronmod" horiz-adv-x="475" 
d="M403 1270h-333v129h333v-129z" />
    <glyph glyph-name="turkishlira" horiz-adv-x="1236" 
d="M76 0v127h192v557h-141v137h141v195h-141v135h141v201h-192v127h555v-127h-203v-201h367v-135h-367v-195h367v-137h-367v-557h205q383 0 383 600h160q0 -339 -136 -533t-422 -194h-542z" />
    <glyph glyph-name="rupee" horiz-adv-x="1112" 
d="M0 0v41h1112v-41h-1112z" />
    <glyph glyph-name="deltamath" horiz-adv-x="1214" 
d="M199 141h815l-402 1248zM1167 0h-1122v141l487 1467h166l469 -1467v-141z" />
    <glyph glyph-name="logo" horiz-adv-x="2967" 
d="M2515 -12q-94 0 -166 30t-151 95v278h129v-190q106 -78 205 -78t163 72q63 72 64 174q0 102 -66 178q-66 77 -203 161t-212 180q-74 96 -74 246q0 152 93 247t253 96q92 0 161 -29t150 -92v-269h-129v203q-96 64 -184 64t-134 -58t-47 -155v-13q1 -96 61 -168t198 -158
q138 -88 216 -186t78 -262t-110 -265q-111 -101 -295 -101zM233 0v127h197v1214h-250v-174h-129v312h918v-312h-129v174h-248v-1214h192v-127h-551zM1589 127q383 -1 383 573q0 307 -87 469q-96 183 -329 183h-170v-1225h203zM1032 0v127h193v1225h-193v127h531
q295 0 433 -200t138 -547q0 -348 -136 -540t-423 -192h-543z" />
    </font>
</defs>
</svg>
