<?xml version="1.0" standalone="no"?>
<!DOCTYPE svg PUBLIC "-//W3C//DTD SVG 1.1//EN" "http://www.w3.org/Graphics/SVG/1.1/DTD/svg11.dtd" >
<svg xmlns="http://www.w3.org/2000/svg">
<metadata>
Created by FontPrep 20130207 at Thu Feb 19 11:25:03 2015
 By Simon Egli
</metadata>
<defs>
<font id="3d9d9a1b13248b1434b94675406a92ae" horiz-adv-x='1024' >
  <font-face 
    font-family="SeanSlab-CompressedLight"
    font-weight="36"
    font-stretch="ultra-condensed"
    units-per-em="2048"
    panose-1="0 0 0 0 0 0 0 0 0 0"
    ascent="1434"
    descent="-614"
    x-height="1092"
    cap-height="1479"
    bbox="-61 -623.01 2755 2182"
    underline-thickness="0"
    underline-position="0"
    unicode-range="U+0020-FB02"
  />
<missing-glyph horiz-adv-x="1024" 
d="M205 -512h614v2048h-614v-2048zM102 -614v2252h820v-2252h-820z" />
    <glyph glyph-name=".notdef" horiz-adv-x="1024" 
d="M205 -512h614v2048h-614v-2048zM102 -614v2252h820v-2252h-820z" />
    <glyph glyph-name=".null" horiz-adv-x="0" 
 />
    <glyph glyph-name="nonmarkingreturn" horiz-adv-x="681" 
 />
    <glyph glyph-name="space" unicode=" " horiz-adv-x="491" 
 />
    <glyph glyph-name="exclam" unicode="!" horiz-adv-x="425" 
d="M258 47q0 -39 -43 -39t-43 39t43 39t43 -39zM250 469h-74v1010h74v-1010z" />
    <glyph glyph-name="quotedbl" unicode="&#x22;" horiz-adv-x="694" 
d="M520 1116h-67v385h67v-385zM244 1116h-70v385h70v-385z" />
    <glyph glyph-name="numbersign" unicode="#" horiz-adv-x="1038" 
d="M643 561l96 434h-336l-96 -434h336zM821 500h-121l-94 -420h-69l94 420h-338l-90 -406h-68l88 406h-129l8 30l7 31h129l94 434h-135l8 31l6 29h135l92 424h72l-94 -424h338l94 424h72l-95 -424h115l-6 -29l-8 -31h-115l-96 -434h123z" />
    <glyph glyph-name="dollar" unicode="$" horiz-adv-x="864" 
d="M442 -88h-69v186q-131 10 -258 103v245h63v-206q131 -82 243 -82q113 0 187 70t74 176q0 108 -72 183t-202 153t-198 163q-67 86 -67 204t66 198t180 94v184h72v-182q125 -8 260 -107v-245h-62v211q-109 80 -218 80t-169 -67q-59 -67 -59 -166t58 -169q57 -70 191 -150
t213 -170t79 -212t-86 -210q-86 -87 -226 -98v-186z" />
    <glyph glyph-name="percent" unicode="%" horiz-adv-x="1460" 
d="M911 238q0 -176 43 -274t162 -97q119 0 159 97q40 98 40 274t-41 272t-156 96h-4q-119 0 -161 -96t-42 -272zM848 238q0 428 267 428t267 -428t-267 -428t-267 428zM143 1098q0 -146 43 -243t164 -97q82 0 127 55t57 128q11 73 11 218t-41 241t-156 97h-4q-82 0 -128 -53
t-60 -127q-14 -73 -13 -219zM467 -180h-76l617 1722h73zM78 1128q0 428 268 428t268 -428t-268 -428t-268 428z" />
    <glyph glyph-name="ampersand" unicode="&#x26;" horiz-adv-x="1044" 
d="M430 -10q-145 0 -228 105t-83 253t62 243t186 200q-74 106 -112 194t-38 209t57 208t171 87q115 0 175 -85t60 -214t-57 -223t-166 -189q6 -8 18 -28q11 -20 61 -90t230 -332q47 111 96 338l31 -7l31 -8q-57 -262 -115 -387l184 -264h-84q-68 94 -135 197
q-123 -207 -344 -207zM434 53q195 0 299 203q-55 82 -156 230t-124 182t-47 67q-104 -88 -158 -172q-54 -85 -55 -209q0 -124 63 -212t178 -89zM287 1176q0 -145 131 -342q190 160 190 346q0 110 -42 178t-122 68t-118 -71q-38 -70 -39 -179z" />
    <glyph glyph-name="quotesingle" unicode="'" horiz-adv-x="417" 
d="M244 1116h-70v385h70v-385z" />
    <glyph glyph-name="parenleft" unicode="(" horiz-adv-x="548" 
d="M182 667q0 -355 72 -617t264 -529l-22 -21l-25 -20q-201 283 -281 554q-80 272 -80 634t80 634t281 553l23 -18l22 -20q-188 -271 -261 -533t-73 -617z" />
    <glyph glyph-name="parenright" unicode=")" horiz-adv-x="567" 
d="M385 668q0 354 -76 615t-274 534l47 38q209 -281 293 -551t84 -634q0 -366 -87 -644t-296 -579l-49 43q197 291 277 558q81 266 81 620z" />
    <glyph glyph-name="asterisk" unicode="*" horiz-adv-x="772" 
d="M422 1366q0 -127 -6 -262l168 96l14 -31l14 -28q-105 -54 -186 -90q54 -78 139 -197l-26 -20l-29 -19q-111 174 -121 191q-74 -109 -125 -193l-53 41q113 158 139 195l-188 92q12 29 13 29t15 30q80 -47 168 -96q-4 176 -6 262h70z" />
    <glyph glyph-name="plus" unicode="+" horiz-adv-x="1206" 
d="M1100 600h-461v-555h-70v555h-463v68h463v534h70v-534h461v-68z" />
    <glyph glyph-name="comma" unicode="," horiz-adv-x="448" 
d="M283 76l-154 -350h-70l136 350h88z" />
    <glyph glyph-name="hyphen" unicode="-" horiz-adv-x="747" 
d="M584 526h-420v66h420v-66z" />
    <glyph glyph-name="period" unicode="." horiz-adv-x="401" 
d="M201 -6q-43 0 -43 40t43 40t43 -40t-43 -40z" />
    <glyph glyph-name="slash" unicode="/" horiz-adv-x="831" 
d="M145 -127h-71q410 1229 614 1841h72q-205 -612 -615 -1841z" />
    <glyph glyph-name="zero" unicode="0" horiz-adv-x="1101" 
d="M201 740q0 -158 14 -270q52 -417 331 -417q176 0 261 135q92 147 92 490q0 190 -6 279q-15 222 -86 336q-85 133 -269 133q-210 -1 -280 -208q-35 -103 -46 -212t-11 -266zM129 720q0 152 9 256t38 204t75 165t124 105q77 40 193 39q116 0 201 -56q145 -96 185 -398
q29 -225 13 -466q-17 -241 -71 -359q-103 -223 -343 -220q-258 0 -347 222q-77 193 -77 508z" />
    <glyph glyph-name="one" unicode="1" horiz-adv-x="739" 
d="M145 0v61h234v1319l-246 -284l-45 45l291 338h72v-1418h237v-61h-543z" />
    <glyph glyph-name="two" unicode="2" horiz-adv-x="870" 
d="M676 61v242h61v-303h-637v61q217 287 326 433q236 324 236 579q0 352 -224 352q-109 0 -165 -88q-43 -65 -95 -192l-59 29q53 150 127 232t194 83q293 0 293 -414q0 -276 -262 -629q-172 -231 -299 -385h504z" />
    <glyph glyph-name="three" unicode="3" horiz-adv-x="851" 
d="M383 -10q-78 0 -138 30t-130 95l39 47q63 -55 113 -82t118 -27q127 0 201 94t73 254q0 160 -81 261q-82 100 -213 100v51q113 0 181 87t66 224q0 137 -57 219t-172 82q-70 0 -124 -46t-87 -105l-49 31q39 76 108 130q70 54 158 54q145 0 220 -98t75 -242
q0 -276 -180 -358q111 -39 169 -141t58 -247q0 -195 -88 -304t-260 -109z" />
    <glyph glyph-name="four" unicode="4" horiz-adv-x="940" 
d="M528 598v745l-397 -745h397zM291 0v61h237v474h-430l-37 63q111 209 164 309q53 99 63 117t16 28q5 10 62 115q56 104 162 308h70l2 -877h242v-63h-242v-474h234v-61h-543z" />
    <glyph glyph-name="five" unicode="5" horiz-adv-x="821" 
d="M369 -10q-137 0 -263 102l21 25l18 24q68 -47 116 -67t110 -21q133 0 199 117t67 292q0 174 -59 284t-191 110q-74 0 -145 -53l-33 14l-35 12v650h498v-62h-430v-536q72 39 151 39q160 0 239 -129t79 -331t-88 -336t-254 -134z" />
    <glyph glyph-name="six" unicode="6" horiz-adv-x="907" 
d="M473 55q121 -1 179 105t59 258q0 362 -248 362q-104 0 -176 -77t-101 -187v-16q0 -445 287 -445zM457 -12q-170 0 -256 138t-86 370q0 370 166 626t483 379l24 -57q-250 -100 -400 -296t-189 -464q98 162 263 162t243 -117q77 -117 77 -311t-77 -312q-78 -118 -248 -118z
" />
    <glyph glyph-name="seven" unicode="7" horiz-adv-x="831" 
d="M160 1417v-200h-60v262h695v-62l-576 -1417h-78l590 1417h-571z" />
    <glyph glyph-name="eight" unicode="8" horiz-adv-x="876" 
d="M437 53q120 0 181 80q62 80 62 209t-59 217t-179 176q-123 -90 -183 -176t-60 -216t59 -210t179 -80zM225 1159q-1 -117 53 -191t164 -155q106 78 159 153q52 75 52 181q0 279 -219 278q-106 0 -158 -74q-51 -75 -51 -192zM154 1166q0 142 71 232q72 91 214 91t213 -90
q71 -91 71 -233t-55 -224t-172 -168q131 -96 193 -190q63 -94 63 -249t-82 -250t-235 -95t-231 96t-79 250q0 154 62 248q62 92 198 190q-119 84 -175 167t-56 225z" />
    <glyph glyph-name="nine" unicode="9" horiz-adv-x="903" 
d="M440 698q184 0 275 256v25q0 444 -285 444q-121 0 -179 -100t-58 -262q-1 -363 247 -363zM444 633q-170 0 -246 116q-76 117 -77 311q0 194 77 312q76 118 248 119q172 0 256 -137t84 -371q0 -373 -154 -624t-478 -390l-29 64q518 225 582 780q-93 -180 -263 -180z" />
    <glyph glyph-name="colon" unicode=":" horiz-adv-x="413" 
d="M207 -6q-43 0 -43 40t43 40t43 -40t-43 -40zM207 827q-43 0 -43 40t43 40t43 -40t-43 -40z" />
    <glyph glyph-name="semicolon" unicode=";" horiz-adv-x="595" 
d="M383 168l-164 -371h-72q121 308 144 371h92zM353 827q-42 0 -42 40t42 40t42 -40t-42 -40z" />
    <glyph glyph-name="less" unicode="&#x3c;" horiz-adv-x="1081" 
d="M971 41q-409 245 -893 541v65l878 553v-65l-825 -521q618 -373 840 -508v-65z" />
    <glyph glyph-name="equal" unicode="=" horiz-adv-x="1239" 
d="M1073 414h-907v63h907v-63zM1073 868h-907v64h907v-64z" />
    <glyph glyph-name="greater" unicode="&#x3e;" horiz-adv-x="1079" 
d="M123 41v65l825 521q-387 231 -839 508v65q594 -360 892 -541v-65z" />
    <glyph glyph-name="question" unicode="?" horiz-adv-x="675" 
d="M281 33q0 -39 -42 -39t-42 39t42 39t42 -39zM272 453h-71v239h22q129 0 194 104t65 260q0 157 -58 249q-57 92 -176 92q-57 0 -103 -29l-10 31l-12 31q70 33 131 32q145 0 222 -112t77 -288q0 -175 -72 -293t-209 -136v-180z" />
    <glyph glyph-name="at" unicode="@" horiz-adv-x="1257" 
d="M623 84q75 0 109 63t54 185v67q0 143 -35 222q-37 77 -135 77t-136 -76t-38 -224q0 -146 38 -230t143 -84zM641 -330q-270 0 -398 195t-128 525t128 522q128 194 392 194t381 -190t117 -513q0 -228 -40 -291t-135 -65q-121 0 -153 127q-51 -152 -187 -152t-188 101
q-53 100 -53 280q0 356 246 357q227 0 227 -359v-65q0 -180 52 -215q24 -16 68 -17t66 47q22 47 26 118q3 71 3 132q0 293 -100 467t-326 174q-160 0 -264 -88q-103 -88 -147 -229t-44 -334q0 -305 110 -482t351 -177q127 0 219 73l17 -28l14 -27q-107 -80 -254 -80z" />
    <glyph glyph-name="A" unicode="A" 
d="M516 61v-61h-557v61h234q70 238 209 710l210 708h70q243 -942 375 -1418h233v-61h-559v61h250q-69 290 -115 451h-467q-23 -74 -65 -226t-64 -225h246zM850 575q-88 332 -205 791q-161 -550 -227 -791h432z" />
    <glyph glyph-name="B" unicode="B" horiz-adv-x="1075" 
d="M590 807h-205v-746h195q150 -1 228 97t79 270t-73 276t-224 103zM575 1417h-190v-549h205q111 0 170 71t59 198q-1 127 -63 203t-181 77zM727 840q231 -92 231 -438q0 -174 -98 -288t-280 -114h-506v61h235v1356h-233v62h499q152 1 234 -93t82 -253q0 -215 -164 -293z
" />
    <glyph glyph-name="C" unicode="C" horiz-adv-x="1060" 
d="M577 -10q-258 0 -358 208q-94 194 -92 507q0 574 248 725q95 59 247 59t322 -148v-245h-61v219q-137 109 -267 109q-252 -1 -337 -213q-80 -192 -80 -504q0 -477 192 -598q78 -49 189 -49q110 0 188 45q78 46 158 139q23 -23 24 -23l23 -24q-92 -103 -181 -155t-215 -52z
" />
    <glyph glyph-name="D" unicode="D" horiz-adv-x="1230" 
d="M575 1417h-192v-1356h219q438 0 438 664q0 692 -465 692zM78 0v61h233v1356h-233v62h502q403 0 501 -451q29 -133 29 -298t-28 -294q-95 -436 -486 -436h-518z" />
    <glyph glyph-name="E" unicode="E" horiz-adv-x="1058" 
d="M76 0v61h235v1356h-235v62h842v-277h-64v215h-471v-620h442v-62h-442v-674h522v215h62v-276h-891z" />
    <glyph glyph-name="F" unicode="F" horiz-adv-x="1019" 
d="M76 0v61h235v1356h-235v62h848v-277h-62v215h-479v-620h434v-62h-434v-674h235v-61h-542z" />
    <glyph glyph-name="G" unicode="G" horiz-adv-x="1179" 
d="M631 -10q-508 0 -508 749t491 750q219 0 410 -174v-246h-61v217q-164 137 -349 137q-422 0 -421 -671q0 -511 225 -644q88 -52 213 -53q195 0 352 133v414h-274v62h340v-506q-113 -88 -204 -128t-214 -40z" />
    <glyph glyph-name="H" unicode="H" horiz-adv-x="1423" 
d="M76 0v61h235v1356h-235v62h542v-62h-235v-643h657v643h-233v62h543v-62h-240v-1356h240v-61h-543v61h233v652h-657v-652h235v-61h-542z" />
    <glyph glyph-name="I" unicode="I" horiz-adv-x="696" 
d="M76 0v61h235v1356h-235v62h545v-62h-238v-1356h238v-61h-545z" />
    <glyph glyph-name="J" unicode="J" horiz-adv-x="813" 
d="M250 -10q-96 0 -191 90q22 31 37 47q84 -76 152 -76q132 0 174 119q33 97 33 274v973h-234v62h543v-62h-238v-973q0 -226 -59 -340t-217 -114z" />
    <glyph glyph-name="K" unicode="K" horiz-adv-x="1216" 
d="M1217 61v-61h-527v61h207q-344 434 -514 652v-652h192v-61h-499v61h235v1356h-235v62h497v-62h-190v-577q319 385 477 577h-203v62h525v-62h-228l-540 -639q335 -413 577 -717h226z" />
    <glyph glyph-name="L" unicode="L" horiz-adv-x="1032" 
d="M74 0v61h239v1356h-239v62h542v-62h-233v-1356h512v215h61v-276h-882z" />
    <glyph glyph-name="M" unicode="M" horiz-adv-x="1636" 
d="M594 61v-61h-543v61h240q36 675 78 1356h-234v62h305q64 -229 190 -688t187 -689l375 1377h307v-62h-235l84 -1356h241v-61h-545v61h232q-43 799 -70 1233l-346 -1294h-82q-170 627 -352 1292q-23 -412 -68 -1231h236z" />
    <glyph glyph-name="N" unicode="N" horiz-adv-x="1445" 
d="M618 61v-61h-542v61h235v1356h-233v62h311q222 -430 703 -1342v1280h-234v62h543v-62h-238v-1417h-80q-398 766 -700 1341v-1280h235z" />
    <glyph glyph-name="O" unicode="O" horiz-adv-x="1159" 
d="M199 722q0 -485 191 -616q79 -53 193 -53q227 0 308 213q68 178 70 477q0 498 -193 629q-78 53 -182 53q-188 0 -279 -136q-108 -158 -108 -567zM127 739q0 750 453 750q452 0 452 -750t-452 -749q-453 -1 -453 749z" />
    <glyph glyph-name="P" unicode="P" horiz-adv-x="1013" 
d="M78 0v61h233v1356h-233v62h463q176 0 271 -131t95 -335t-85 -324t-251 -122q-92 0 -188 64v-570h238v-61h-543zM575 631q131 0 196 104q65 105 65 279t-77 289t-227 114h-149v-715q98 -71 192 -71z" />
    <glyph glyph-name="Q" unicode="Q" horiz-adv-x="1163" 
d="M271 261q82 -204 315 -206q373 0 376 632q0 203 -16 317t-57 214q-85 205 -312 205t-308 -208q-70 -177 -70 -476q0 -300 72 -478zM127 744q0 746 457 747q451 0 450 -746q0 -702 -389 -751q88 -209 208 -312t312 -104v-63q-223 1 -360 117t-234 358q-444 8 -444 754z
" />
    <glyph glyph-name="R" unicode="R" horiz-adv-x="1232" 
d="M618 61v-61h-544v61h237v1356h-237v62h518q166 1 253 -101t87 -271q0 -342 -238 -407q166 -319 326 -639h248v-61h-293q-233 459 -352 688h-240v-627h235zM580 1417h-197v-667h219q131 0 194 91q62 91 62 247t-70 242t-208 87z" />
    <glyph glyph-name="S" unicode="S" horiz-adv-x="907" 
d="M424 -10q-86 0 -150 30t-139 99v252h62v-217q63 -53 113 -78t120 -25q125 0 198 85q72 85 72 213t-65 212q-66 84 -203 177q-137 92 -205 182q-67 90 -67 236t76 237q76 92 217 92q84 0 144 -30t142 -97v-250h-61v221q-121 96 -228 96t-162 -75q-54 -76 -54 -198t60 -200
t197 -171t209 -189t72 -253t-92 -253t-256 -96z" />
    <glyph glyph-name="T" unicode="T" horiz-adv-x="1077" 
d="M266 0v61h238v1352h-350v-213h-62v279h895v-279h-61v213h-351v-1352h234v-61h-543z" />
    <glyph glyph-name="U" unicode="U" horiz-adv-x="1361" 
d="M1077 543q0 -265 -90 -409t-307 -144t-307 145t-90 420v862h-232v62h541v-62h-242v-850q0 -382 172 -474q68 -36 164 -36q324 0 324 475v885h-238v62h543v-62h-238v-874z" />
    <glyph glyph-name="V" unicode="V" horiz-adv-x="1259" 
d="M-33 1417v62h561v-62h-252q270 -985 355 -1300q152 551 352 1300h-252v62h561v-62h-233l-383 -1417h-86q-94 342 -391 1417h-232z" />
    <glyph glyph-name="W" unicode="W" horiz-adv-x="1570" 
d="M-12 1417v62h544v-62h-247q12 -74 221 -1282l254 1344h76l114 -669t115 -669q173 947 229 1276h-245v62h544v-62h-231q-131 -686 -264 -1417h-64q-186 1065 -237 1341l-262 -1341h-64q-154 860 -254 1417h-229z" />
    <glyph glyph-name="X" unicode="X" horiz-adv-x="1253" 
d="M1253 61v-61h-544v61h227q-52 107 -154 319l-153 318l-153 -318t-154 -319h221v-61h-545v61h238l352 721q-102 213 -303 635h-244v62h541v-62h-220q90 -184 267 -549q41 82 120 245t148 304h-221v62h541v-62h-240q-155 -315 -307 -635l348 -721h235z" />
    <glyph glyph-name="Y" unicode="Y" horiz-adv-x="1161" 
d="M-14 1417v62h546v-62h-229q45 -109 137 -325t138 -326q100 217 292 651h-227v62h547v-62h-244q-172 -375 -330 -727v-629h234v-61h-543v61h232v629l-312 727h-241z" />
    <glyph glyph-name="Z" unicode="Z" horiz-adv-x="1021" 
d="M942 0h-864v61l717 1356h-592v-215h-62v277h738v-62q-292 -553 -415 -781q-122 -230 -157 -296t-54 -102t-93 -177h721v215h61v-276z" />
    <glyph glyph-name="bracketleft" unicode="[" horiz-adv-x="473" 
d="M399 -252h-245v1831h245v-68h-176v-1695h176v-68z" />
    <glyph glyph-name="backslash" unicode="\" horiz-adv-x="796" 
d="M719 -139h-74q-377 1245 -567 1868h76z" />
    <glyph glyph-name="bracketright" unicode="]" horiz-adv-x="475" 
d="M322 -252h-248v68h178v1695h-178v68h248v-1831z" />
    <glyph glyph-name="asciicircum" unicode="^" horiz-adv-x="856" 
d="M139 952l252 697h72q129 -356 254 -697h-70q-109 291 -219 598q-127 -344 -217 -598h-72z" />
    <glyph glyph-name="underscore" unicode="_" horiz-adv-x="987" 
d="M985 -424h-985v59h985v-59z" />
    <glyph glyph-name="grave" unicode="`" horiz-adv-x="800" 
d="M199 1550q68 -93 237 -340h-82q-35 51 -118 170q-84 119 -119 170h82z" />
    <glyph glyph-name="a" unicode="a" horiz-adv-x="925" 
d="M629 0v205q-59 -111 -117 -163t-162 -52q-229 0 -229 303q0 264 256 315q53 11 252 49v119q0 131 -46 198q-46 66 -157 66t-213 -114v-221h-61v245q127 152 288 152q258 0 258 -307v-734h226v-61h-295zM354 51q85 0 120 31q34 31 54 49q22 21 101 182v289
q-94 -18 -254 -49q-88 -18 -136 -85q-49 -68 -49 -178t40 -174t124 -65z" />
    <glyph glyph-name="b" unicode="b" horiz-adv-x="1044" 
d="M590 51h2q260 0 260 488q0 366 -129 461q-53 40 -133 40q-150 0 -273 -192v-627q121 -170 273 -170zM924 541q0 -247 -77 -399t-247 -152t-283 139v-129h-303v61h234v1516h-234v61h303v-700q123 164 279 164q328 0 328 -561z" />
    <glyph glyph-name="c" unicode="c" horiz-adv-x="843" 
d="M121 546q0 264 82 409q82 146 278 147q125 0 242 -133v-246h-61v223q-98 94 -185 94q-158 0 -221 -131t-63 -362q0 -368 142 -459q59 -37 133 -37q131 0 222 164l27 -16l24 -17q-98 -193 -266 -192q-197 0 -275 146t-79 410z" />
    <glyph glyph-name="d" unicode="d" horiz-adv-x="1050" 
d="M727 0v139q-94 -150 -244 -149q-186 0 -277 154t-91 397q-1 157 33 279t119 202t219 80t241 -117v592h-233v61h309v-1577h233v-61h-309zM479 1040q-149 0 -221 -140t-72 -356t72 -354t222 -139q150 0 247 199v647q-100 143 -248 143z" />
    <glyph glyph-name="e" unicode="e" horiz-adv-x="874" 
d="M443 1040q-138 0 -189 -112t-55 -318h483v15q0 197 -50 306q-51 109 -189 109zM472 -10q-94 0 -165 44q-180 110 -180 521t163 508q65 39 159 39q165 0 233 -128t68 -356v-67h-551q0 -368 141 -462q57 -38 134 -38t123 36t99 110l49 -41q-63 -84 -121 -125t-152 -41z" />
    <glyph glyph-name="f" unicode="f" horiz-adv-x="720" 
d="M74 0v61h235v926h-233v62h233v264q1 147 59 241t175 95q82 0 159 -60v-246h-59v218q-47 29 -100 28q-164 0 -164 -284v-256h268v-62h-268v-926h237v-61h-542z" />
    <glyph glyph-name="g" unicode="g" horiz-adv-x="884" 
d="M156 -268q0 -131 74 -213t204 -82q129 0 213 75q84 74 84 194t-84 183q-85 63 -195 77t-165 42q-131 -88 -131 -276zM719 716q0 -138 -76 -238q-76 -101 -213 -101q-82 0 -139 37q-66 -66 -66 -168q1 -102 59 -155q58 -54 152 -64q162 -19 261 -97t100 -215v-4
q1 -153 -103 -243t-263 -90t-253 96q-94 98 -94 254q0 201 156 311q-86 69 -86 193t92 217q-99 96 -99 269t75 278q75 106 211 106t212 -103l160 125l20 -26l19 -29l-166 -123q41 -92 41 -230zM436 1042q-106 0 -162 -89t-55 -220q0 -131 56 -213q57 -82 161 -82t158 84
q53 84 53 216t-52 218q-53 86 -159 86z" />
    <glyph glyph-name="h" unicode="h" horiz-adv-x="1101" 
d="M14 0v61h236v1516h-236v61h308v-753q100 217 280 217q258 0 258 -402v-639h234v-61h-490v61h184v631q0 259 -98 322q-41 27 -102 26q-174 0 -266 -274v-705h182v-61h-490z" />
    <glyph glyph-name="i" unicode="i" horiz-adv-x="612" 
d="M66 0v61h233v969h-233v62h309v-1031h219v-61h-528zM334 1411q45 0 45 -38t-43 -38t-43 37q0 16 12 28t29 11z" />
    <glyph glyph-name="j" unicode="j" horiz-adv-x="512" 
d="M76 -623q-8 0 -45 7q8 45 12 65q16 -4 37 -4q82 0 128 81t46 187v1317h-238v62h308v-1379q0 -141 -66 -239t-182 -97zM291 1335q-41 0 -41 38t41 38t41 -38t-41 -38z" />
    <glyph glyph-name="k" unicode="k" horiz-adv-x="1079" 
d="M1104 61v-61h-291q-272 291 -491 510v-449h210v-61h-518v61h236v1516h-234v61h306v-1026q102 111 401 418h-188v62h514v-62h-236q-242 -250 -453 -469l484 -500h260z" />
    <glyph glyph-name="l" unicode="l" horiz-adv-x="573" 
d="M16 0v61h234v1516h-232v61h304v-1577h237v-61h-543z" />
    <glyph glyph-name="m" unicode="m" horiz-adv-x="1576" 
d="M539 61v-61h-473v61h235v969h-235v62h307v-191q84 203 252 203q106 0 155 -55t64 -166q82 219 257 219t210 -160q20 -92 20 -242v-639h238v-61h-473v61h164v631q0 205 -16 241q-16 37 -36 63q-32 46 -121 46q-152 0 -235 -274v-707h164v-61h-402v61h166v631
q0 197 -16 237q-16 41 -36 67q-34 46 -122 46t-141 -72t-92 -200v-709h166z" />
    <glyph glyph-name="n" unicode="n" horiz-adv-x="1150" 
d="M66 0v61h235v969h-235v62h307v-203q45 96 117 154q73 58 163 59q141 0 197 -106t57 -296v-639h236v-61h-477v61h172v631q0 164 -44 256t-159 92q-86 0 -155 -76t-107 -192v-711h168v-61h-475z" />
    <glyph glyph-name="o" unicode="o" horiz-adv-x="935" 
d="M328 1005q-138 -95 -138 -461q0 -365 137 -455q58 -38 141 -38t138 38q137 95 137 458t-140 458q-56 37 -138 37t-137 -37zM121 549q0 553 346 553q201 0 277 -163q71 -148 71 -394q0 -555 -348 -555q-131 0 -211 78t-108 196t-27 285z" />
    <glyph glyph-name="p" unicode="p" horiz-adv-x="1046" 
d="M12 -614v61h238v1583h-236v62h305v-131q115 141 279 141q328 0 328 -535q0 -578 -332 -577q-156 0 -275 160v-703h222v-61h-529zM590 51q264 0 264 484v28q0 479 -262 479q-164 0 -273 -163v-639q66 -94 125 -142q60 -47 146 -47z" />
    <glyph glyph-name="q" unicode="q" horiz-adv-x="1040" 
d="M461 49q154 0 268 207v637q-125 147 -268 147q-270 0 -270 -496t270 -495zM498 -614v61h231v715q-121 -174 -270 -174q-338 0 -340 557t336 557q147 0 274 -137v127h297v-62h-223v-1583h223v-61h-528z" />
    <glyph glyph-name="r" unicode="r" horiz-adv-x="755" 
d="M66 0v61h235v969h-235v62h307v-158q117 168 323 168v-62q-217 0 -323 -198v-781h221v-61h-528z" />
    <glyph glyph-name="s" unicode="s" horiz-adv-x="782" 
d="M400 -10q-131 0 -283 110v250h61v-215q119 -82 238 -82q84 -1 131 61t47 160t-52 156t-159 107q-221 98 -221 319q0 110 60 178t176 68t223 -94v-248h-62v221q-78 59 -164 59t-127 -52t-41 -132q0 -182 179 -260q129 -59 192 -130q62 -71 64 -196q2 -124 -64 -202
t-198 -78z" />
    <glyph glyph-name="t" unicode="t" horiz-adv-x="645" 
d="M412 -10q-100 0 -144 80q-43 80 -43 229v731h-186v62h186v202l37 21l35 18v-241h307v-62h-307v-729q0 -121 28 -183t95 -62t141 53l33 -58q-82 -61 -182 -61z" />
    <glyph glyph-name="u" unicode="u" horiz-adv-x="1085" 
d="M776 0v190q-102 -201 -254 -200q-272 0 -272 395v645h-238v62h307v-703q0 -338 213 -338q78 0 141 77q62 77 103 183v719h-235v62h307v-1031h221v-61h-293z" />
    <glyph glyph-name="v" unicode="v" horiz-adv-x="1136" 
d="M4 1030v62h506v-62h-195q141 -530 248 -919l262 919h-192v62h506v-62h-240q-168 -588 -297 -1030h-78q-162 592 -284 1030h-236z" />
    <glyph glyph-name="w" unicode="w" horiz-adv-x="1599" 
d="M4 1030v62h524v-62h-223q130 -558 213 -903q168 643 254 965h78q96 -397 229 -963l111 450q74 300 110 451h-202v62h504v-62h-230q-150 -600 -260 -1030h-65q-39 160 -116 476t-116 474l-4 21q-172 -647 -260 -971h-68l-250 1030h-229z" />
    <glyph glyph-name="x" unicode="x" horiz-adv-x="1155" 
d="M41 1030v62h479v-62h-155q142 -253 215 -391q76 143 217 391h-160v62h481v-62h-248q-168 -307 -254 -461q156 -276 281 -508h246v-61h-502v61h180q-127 227 -241 441q-41 -74 -122 -220t-122 -221h176v-61h-502v61h248l283 510q-123 234 -252 459h-248z" />
    <glyph glyph-name="y" unicode="y" horiz-adv-x="1128" 
d="M901 1030l-565 -1644h-291v61h234q164 475 245 711q-127 394 -278 872h-236l2 31v31h523v-62h-213q42 -127 120 -382t119 -382q176 508 264 764h-192v62h504v-62h-236z" />
    <glyph glyph-name="z" unicode="z" horiz-adv-x="837" 
d="M739 0h-639v61q138 259 232 441t129 246t65 124q31 60 82 158h-420v-215h-59v277h565v-62q-137 -260 -232 -441t-122 -231q-26 -50 -52 -99q-26 -48 -39 -74t-65 -124h494v215h61v-276z" />
    <glyph glyph-name="braceleft" unicode="{" horiz-adv-x="497" 
d="M408 -252q-199 0 -199 315v361q0 238 -135 238v63q135 0 135 233v367q0 311 199 311v-61q-80 0 -107 -65t-27 -185v-358q0 -205 -94 -275q94 -66 94 -274v-357q0 -121 27 -187t107 -64v-62z" />
    <glyph glyph-name="bar" unicode="|" horiz-adv-x="380" 
d="M225 -614h-71v2252h71v-2252z" />
    <glyph glyph-name="braceright" unicode="}" horiz-adv-x="497" 
d="M90 -252v62q86 0 110 72t25 179v357q0 207 92 274q-92 70 -92 275v358q0 78 -8 127t-40 86t-87 37v61q201 0 201 -311v-367q0 -233 133 -233v-63q-133 0 -133 -238v-361q0 -315 -201 -315z" />
    <glyph glyph-name="asciitilde" unicode="~" horiz-adv-x="1083" 
d="M225 446q-28 7 -28 8t-29 9q23 125 66 188q44 63 143 64q59 0 100 -28t85 -81q44 -52 78 -76t68 -24t52 6q16 6 28 20t22 24t17 37q8 26 12 37q3 11 10 42t9 39q22 -4 62 -15q-48 -196 -117 -233q-35 -17 -93 -17t-103 30q-46 30 -97 91q-68 86 -141 86t-103 -67
q-19 -41 -41 -140z" />
    <glyph glyph-name="exclamdown" unicode="&#xa1;" horiz-adv-x="425" 
d="M176 0v1010h74l-2 -1010h-72zM211 1393q-43 0 -43 39q0 38 43 38t43 -38t-43 -39z" />
    <glyph glyph-name="cent" unicode="&#xa2;" horiz-adv-x="983" 
d="M547 -109h-72v220q-360 23 -360 639q0 276 94 449t297 192v202h69v-200q160 -8 291 -156l-45 -41q-121 131 -278 131q-127 0 -210 -80t-116 -204t-33 -291q0 -580 330 -580q94 0 163 43t142 133l25 -20l22 -23q-150 -182 -319 -194v-220z" />
    <glyph glyph-name="sterling" unicode="&#xa3;" horiz-adv-x="802" 
d="M670 61v-61h-582v61q117 0 165 78q48 79 48 203t-37 399h-127v62h117q-27 205 -27 311q0 371 265 371q63 0 107 -24t95 -79l-41 -41q-82 82 -177 82q-181 0 -181 -299q0 -92 29 -321h276v-62h-268q33 -233 33 -368q0 -227 -93 -312h398z" />
    <glyph glyph-name="currency" unicode="&#xa4;" horiz-adv-x="897" 
d="M451 928q-179 0 -179 -298t183 -298q98 0 134 82t36 223q0 291 -174 291zM203 638q0 142 47 230l-117 166l49 47q26 -35 60 -83t51 -70q66 61 160 61t153 -55q47 63 109 149l49 -47q-20 -33 -115 -159q49 -89 49 -237t-43 -237q78 -111 119 -165l-24 -23l-27 -22
q-85 118 -107 147q-60 -68 -166 -68t-167 74q-55 -80 -111 -153l-49 47l121 166q-41 90 -41 232z" />
    <glyph glyph-name="yen" unicode="&#xa5;" horiz-adv-x="1325" 
d="M618 686q0 10 -6 16h-278v66h250q-51 123 -281 649h-237v62h526v-62h-211q223 -524 274 -649q197 434 295 649h-213v62h523v-62h-232q-168 -359 -301 -649h252v-66h-281q-6 -8 -8 -16v-166h289v-67h-289v-392h236v-61h-543v61h235v392h-284v67h284v166z" />
    <glyph glyph-name="brokenbar" unicode="&#xa6;" horiz-adv-x="421" 
d="M246 -614h-72v761h72v-761zM246 877h-72v761h72v-761z" />
    <glyph glyph-name="section" unicode="&#xa7;" horiz-adv-x="790" 
d="M388 -61q-122 0 -243 120v246h64v-219q92 -86 182 -86q170 0 170 211q0 82 -48 136t-138 99q-121 53 -184 124q-62 71 -62 182q0 195 154 282q-104 88 -105 244q0 118 58 190t163 72q106 0 219 -90v-246h-61v219q-80 55 -159 55q-150 1 -150 -200q0 -166 143 -234
t211 -130q68 -64 70 -175q0 -217 -156 -293q113 -90 114 -224q0 -134 -60 -208t-182 -75zM600 739q0 95 -74 151q-44 34 -109 67q-66 32 -81 42q-137 -74 -137 -247q0 -88 55 -142t121 -85q66 -30 80 -40q145 53 145 254z" />
    <glyph glyph-name="dieresis" unicode="&#xa8;" horiz-adv-x="663" 
d="M379 1370q0 -39 -42 -39t-42 39t42 39t42 -39zM186 1370q0 -39 -43 -39t-43 39t43 39t43 -39z" />
    <glyph glyph-name="copyright" unicode="&#xa9;" horiz-adv-x="1185" 
d="M604 963q-182 0 -182 -306q0 -141 36 -222t132 -81t166 80l20 -18q2 0 23 -19q-84 -100 -211 -100q-231 0 -232 356q0 167 62 267t190 100q98 0 176 -70v-172h-61v142q-55 43 -119 43zM997 655q0 265 -98 439t-303 174q-206 0 -306 -174t-100 -439q0 -266 106 -436
t308 -170q203 0 298 170t95 436zM123 656q0 288 121 478t352 189q231 0 349 -188t118 -480q0 -395 -199 -570q-106 -93 -260 -93q-233 0 -357 188t-124 476z" />
    <glyph glyph-name="ordfeminine" unicode="&#xaa;" horiz-adv-x="761" 
d="M475 879v84q-61 -86 -147 -86t-132 52t-46 138q0 164 182 201q51 10 143 24v84q0 60 -33 98q-34 38 -96 38t-119 -70v-88h-51v114q80 100 173 100t143 -46q50 -47 51 -129v-459h71v-55h-139zM334 934q53 0 81 27t60 83v199q-23 -4 -45 -8t-50 -9t-48 -9
q-117 -27 -117 -146q0 -61 33 -99t86 -38z" />
    <glyph glyph-name="guillemotleft" unicode="&#xab;" horiz-adv-x="1015" 
d="M510 307l-369 228v65l367 229v-67l-313 -195l315 -194v-66zM874 307l-368 228v65l366 229v-67l-313 -195l315 -194v-66z" />
    <glyph glyph-name="logicalnot" unicode="&#xac;" horiz-adv-x="1247" 
d="M1081 311h-69v289h-805v68h874v-357z" />
    <glyph glyph-name="registered" unicode="&#xae;" horiz-adv-x="1189" 
d="M582 600h-60v-240h88v-57h-254v57h101v592h-101v56h242q80 0 124 -56t44 -149q0 -137 -92 -182l117 -261h75v-57h-137q-87 205 -123 299q-8 -2 -24 -2zM586 952h-64v-295h68q113 0 112 142q0 69 -30 111t-86 42zM598 1270q-206 0 -308 -174t-102 -441q0 -268 106 -439
t316 -171q137 0 228 86q165 158 163 520q0 271 -98 445t-305 174zM602 -8q-232 0 -356 187t-123 477q0 290 122 478t354 189q232 0 350 -188q118 -187 118 -479t-116 -478q-117 -186 -349 -186z" />
    <glyph glyph-name="macron" unicode="&#xaf;" horiz-adv-x="567" 
d="M367 1333h-324v62h324v-62z" />
    <glyph glyph-name="degree" unicode="&#xb0;" horiz-adv-x="770" 
d="M199 912q0 -162 22 -238q23 -76 63 -105t100 -29q119 1 157 114q28 87 28 258q0 172 -39 266t-151 94q-57 0 -95 -28q-85 -63 -85 -332zM135 915q0 416 250 416t250 -420q0 -199 -55 -315t-197 -115q-97 1 -155 63t-75 151q-18 89 -18 220z" />
    <glyph glyph-name="plusminus" unicode="&#xb1;" horiz-adv-x="1269" 
d="M1133 43h-996v66h463v491h-461v68h461v534h70v-534h463v-68h-463v-491h463v-66z" />
    <glyph glyph-name="twosuperior" unicode="&#xb2;" horiz-adv-x="794" 
d="M571 651v176h58v-233h-477v57q45 51 139 153t139 154q67 84 87 137q21 55 21 121t-34 119q-36 53 -100 53t-96 -37q-32 -38 -60 -112l-53 23q57 184 206 184q97 0 149 -69t52 -176t-61 -195q-23 -33 -68 -91q-45 -51 -133 -143t-115 -121h346z" />
    <glyph glyph-name="threesuperior" unicode="&#xb3;" horiz-adv-x="720" 
d="M342 584h-14q-88 0 -168 69l33 41q72 -55 143 -55h4q76 0 119 48t44 127t-61 124t-163 53v58q88 8 145 54t57 121t-37 121q-38 46 -106 46t-127 -88l-43 32q70 111 172 111t154 -60t53 -159q0 -154 -158 -209q180 -45 180 -199v-4q0 -106 -61 -169q-62 -62 -166 -62z" />
    <glyph glyph-name="acute" unicode="&#xb4;" horiz-adv-x="471" 
d="M18 1210l240 340h82l-238 -340h-84z" />
    <glyph glyph-name="paragraph" unicode="&#xb6;" horiz-adv-x="1112" 
d="M883 61v1356h-201v-1356h201zM418 631q94 0 192 71v715h-147q-149 -1 -227 -115t-78 -288t65 -279q66 -104 195 -104zM373 0v61h237v570q-94 -63 -186 -64q-166 2 -251 122t-85 324t94 335t271 131h501v-1479h-581z" />
    <glyph glyph-name="periodcentered" unicode="&#xb7;" horiz-adv-x="409" 
d="M248 901q0 -39 -43 -39t-43 39t43 39t43 -39z" />
    <glyph glyph-name="cedilla" unicode="&#xb8;" horiz-adv-x="577" 
d="M367 -244q0 -74 -40 -119t-108 -45t-123 43l29 50q43 -35 96 -35q84 0 84 106t-63 107q-29 0 -58 -25l-49 49q63 166 68 176l28 -20l27 -23q-12 -31 -41 -100q8 2 25 2q61 0 93 -46t32 -120z" />
    <glyph glyph-name="onesuperior" unicode="&#xb9;" horiz-adv-x="690" 
d="M410 651h151v-57h-371v57h154v684l-147 -174l-45 41l192 225h66v-776z" />
    <glyph glyph-name="ordmasculine" unicode="&#xba;" horiz-adv-x="727" 
d="M213 1239q0 -95 10 -157t48 -107t104 -45q139 0 139 290t-145 289q-156 0 -156 -270zM147 1239q0 328 224 328q209 0 209 -332q0 -365 -207 -365q-226 0 -226 369z" />
    <glyph glyph-name="guillemotright" unicode="&#xbb;" horiz-adv-x="1015" 
d="M469 307v66l315 194l-313 195v67l367 -229v-65zM104 307v66l316 194l-314 195v67l367 -229v-65z" />
    <glyph glyph-name="onequarter" unicode="&#xbc;" horiz-adv-x="1413" 
d="M1106 115v467l-275 -467h275zM936 -178v53h170v186h-305l-37 54l342 592h63v-592h174v-54h-174v-186h177v-53h-410zM428 -180h-76l615 1722h75zM346 774h150v-57h-371v57h154v686l-148 -174l-45 39l193 227h67v-778z" />
    <glyph glyph-name="onehalf" unicode="&#xbd;" horiz-adv-x="1460" 
d="M1378 -176h-477v57q99 107 279 307q67 84 87 137q21 55 21 121t-35 119t-99 53t-97 -38t-60 -111l-26 12l-27 11q57 184 209 184q96 0 147 -69q52 -69 52 -174t-61 -197q-22 -33 -68 -93q-45 -51 -132 -142t-114 -120h344v174h57v-231zM453 -180h-76l614 1722h76z
M340 774h149v-57h-370v57h155v688l-149 -176l-45 39l194 227h66v-778z" />
    <glyph glyph-name="threequarters" unicode="&#xbe;" horiz-adv-x="1452" 
d="M1147 115v469l-275 -469h275zM975 -178v53h172v186h-305l-37 54l342 592h63v-592h174v-54h-174v-186h176v-53h-411zM281 686h-19q-92 0 -170 68l19 20l16 21q68 -53 141 -54h8q76 0 118 47t43 126t-61 124t-165 54v57q88 8 146 54q59 46 59 122t-37 121t-108 45t-126 -88
l-22 18l-23 17q72 108 174 108t155 -59q52 -59 52 -160q0 -154 -159 -209q182 -45 182 -198v-5q0 -105 -60 -167t-163 -62zM467 -180h-74l615 1722h75z" />
    <glyph glyph-name="questiondown" unicode="&#xbf;" horiz-adv-x="675" 
d="M422 -6q-143 0 -221 114t-78 286t72 293q72 120 208 138v179h72v-240h-20q-131 0 -196 -104t-65 -258q0 -156 59 -249q58 -93 175 -94q51 0 104 29l13 -31l10 -30q-72 -33 -133 -33zM440 1384q-45 0 -45 39t43 39t43 -37q-1 -17 -13 -29t-28 -12z" />
    <glyph glyph-name="Agrave" unicode="&#xc0;" 
d="M516 61v-61h-557v61h234q70 238 209 710l210 708h70q243 -942 375 -1418h233v-61h-559v61h250q-69 290 -115 451h-467q-23 -74 -65 -226t-64 -225h246zM850 575q-88 332 -205 791q-161 -550 -227 -791h432zM553 2021q152 -221 238 -340h-82q-217 309 -238 340h82z" />
    <glyph glyph-name="Aacute" unicode="&#xc1;" 
d="M516 61v-61h-557v61h234q70 238 209 710l210 708h70q243 -942 375 -1418h233v-61h-559v61h250q-69 290 -115 451h-467q-23 -74 -65 -226t-64 -225h246zM850 575q-88 332 -205 791q-161 -550 -227 -791h432zM815 2021q-20 -31 -237 -340h-84q59 82 239 340h82z" />
    <glyph glyph-name="Acircumflex" unicode="&#xc2;" 
d="M516 61v-61h-557v61h234q70 238 209 710l210 708h70q243 -942 375 -1418h233v-61h-559v61h250q-69 290 -115 451h-467q-23 -74 -65 -226t-64 -225h246zM850 575q-88 332 -205 791q-161 -550 -227 -791h432zM367 1686l239 339h94q180 -258 240 -339h-84q-16 25 -203 290
q-186 -266 -202 -290h-84z" />
    <glyph glyph-name="Atilde" unicode="&#xc3;" 
d="M516 61v-61h-557v61h234q70 238 209 710l210 708h70q243 -942 375 -1418h233v-61h-559v61h250q-69 290 -115 451h-467q-23 -74 -65 -226t-64 -225h246zM850 575q-88 332 -205 791q-161 -550 -227 -791h432zM454 1847q-22 -47 -30 -98t-8 -57l-54 16q12 82 25 126
q12 44 47 82t80 38t72 -16t42 -35q16 -17 38 -53t35 -53q35 -46 87 -46h3q53 0 75 88q8 33 14 69t9 44l53 -17q-2 -10 -14 -73t-20 -78q-7 -14 -15 -32q-27 -62 -129 -62q-65 0 -133 110q-4 6 -10 18t-11 18q-4 5 -10 15q-26 43 -75 43t-71 -47z" />
    <glyph glyph-name="Adieresis" unicode="&#xc4;" 
d="M516 61v-61h-557v61h234q70 238 209 710l210 708h70q243 -942 375 -1418h233v-61h-559v61h250q-69 290 -115 451h-467q-23 -74 -65 -226t-64 -225h246zM850 575q-88 332 -205 791q-161 -550 -227 -791h432zM746 1759q42 0 42 -40t-42 -40t-41 39q-1 41 41 41zM553 1679
q-43 0 -43 40t43 40t43 -40t-43 -40z" />
    <glyph glyph-name="Aring" unicode="&#xc5;" 
d="M516 61v-61h-557v61h234q70 238 209 710l210 708h70q243 -942 375 -1418h233v-61h-559v61h250q-69 290 -115 451h-467q-23 -74 -65 -226t-64 -225h246zM850 575q-88 332 -205 791q-161 -550 -227 -791h432zM537 1936q0 -185 114 -185q119 0 119 185t-121 186
q-112 -1 -112 -186zM471 1936q0 110 44 178t135 68t138 -68q48 -68 48 -179t-46 -177t-138 -66t-136 67q-45 67 -45 177z" />
    <glyph glyph-name="AE" unicode="&#xc6;" horiz-adv-x="1581" 
d="M-33 0v61h240l602 1356h-211v62h840v-277h-62v215h-471v-620h443v-62h-443v-674h520v215h64v-276h-891v61h236v443h-357l-190 -443h223v-61h-543zM834 567v760l-328 -760h328z" />
    <glyph glyph-name="Ccedilla" unicode="&#xc7;" horiz-adv-x="1060" 
d="M568 -420q-68 0 -126 45l17 25l14 24q37 -35 96 -34q84 0 84 106t-65 107q-27 0 -58 -25l-47 47l18 48t25 69q-399 37 -399 713q0 574 248 725q95 59 247 59t322 -148v-245h-61v219q-137 109 -267 109q-252 -1 -337 -213q-80 -192 -80 -504q0 -477 192 -598
q78 -49 189 -49q110 0 188 45q78 46 158 139q23 -23 24 -23l23 -24q-88 -99 -173 -151t-202 -56q-4 -8 -15 -36t-18 -44q6 2 23 2q125 0 125 -168q0 -76 -39 -120q-38 -44 -106 -44z" />
    <glyph glyph-name="Egrave" unicode="&#xc8;" horiz-adv-x="1058" 
d="M76 0v61h235v1356h-235v62h842v-277h-64v215h-471v-620h442v-62h-442v-674h522v215h62v-276h-891zM498 2017q38 -51 120 -170t119 -170h-84q-37 51 -118 170q-82 119 -119 170h82z" />
    <glyph glyph-name="Eacute" unicode="&#xc9;" horiz-adv-x="1058" 
d="M76 0v61h235v1356h-235v62h842v-277h-64v215h-471v-620h442v-62h-442v-674h522v215h62v-276h-891zM762 2017q-86 -119 -238 -340h-84q180 258 240 340h82z" />
    <glyph glyph-name="Ecircumflex" unicode="&#xca;" horiz-adv-x="1058" 
d="M76 0v61h235v1356h-235v62h842v-277h-64v215h-471v-620h442v-62h-442v-674h522v215h62v-276h-891zM313 1681q86 119 238 340h96q35 -51 119 -170t119 -170h-82q-61 88 -205 289q-126 -175 -203 -289h-82z" />
    <glyph glyph-name="Edieresis" unicode="&#xcb;" horiz-adv-x="1058" 
d="M76 0v61h235v1356h-235v62h842v-277h-64v215h-471v-620h442v-62h-442v-674h522v215h62v-276h-891zM692 1675q-43 0 -43 40t43 40t43 -40t-43 -40zM499 1675q-42 0 -42 40t42 40t42 -40t-42 -40z" />
    <glyph glyph-name="Igrave" unicode="&#xcc;" horiz-adv-x="696" 
d="M76 0v61h237v1356h-237v62h545v-62h-238v-1356h238v-61h-545zM252 2021q37 -51 120 -170t120 -170h-84q-217 309 -238 340h82z" />
    <glyph glyph-name="Iacute" unicode="&#xcd;" horiz-adv-x="700" 
d="M76 0v61h235v1356h-235v62h545v-62h-238v-1356h238v-61h-545zM516 2021l-240 -340h-81q180 258 239 340h82z" />
    <glyph glyph-name="Icircumflex" unicode="&#xce;" horiz-adv-x="727" 
d="M92 0v61h236v1356h-236v62h545v-62h-238v-1356h238v-61h-545zM82 1686l240 339h94q180 -258 239 -339h-84q-72 100 -202 288q-131 -188 -203 -288h-84z" />
    <glyph glyph-name="Idieresis" unicode="&#xcf;" horiz-adv-x="712" 
d="M84 0v61h235v1356h-235v62h545v-62h-238v-1356h238v-61h-545zM454 1679q-42 0 -42 40t42 40t42 -40t-42 -40zM260 1679q-43 0 -43 40t43 40t43 -40t-43 -40z" />
    <glyph glyph-name="Eth" unicode="&#xd0;" horiz-adv-x="1230" 
d="M600 733h-217v-672h219q438 0 438 664q0 692 -465 692h-192v-618h217v-66zM78 0v61h233v672h-149v66h149v618h-233v62h502q403 0 501 -451q29 -133 29 -298t-28 -294q-95 -436 -486 -436h-518z" />
    <glyph glyph-name="Ntilde" unicode="&#xd1;" horiz-adv-x="1445" 
d="M618 61v-61h-542v61h235v1356h-233v62h311q222 -430 703 -1342v1280h-234v62h543v-62h-238v-1417h-80q-398 766 -700 1341v-1280h235zM906 1690q-105 0 -165 109q-41 73 -61 84t-39 11q-35 0 -54 -18q-20 -17 -26 -33t-10 -25t-10 -39q-7 -30 -11 -55t-6 -32l-24 8l-27 8
q16 121 49 183q33 63 103 63t112 -50q14 -16 38 -54t36 -53q37 -46 88 -46h2q50 0 75 89q9 36 13 64t6 33q2 6 2 15l54 -17q-27 -147 -47 -184q-36 -61 -98 -61z" />
    <glyph glyph-name="Ograve" unicode="&#xd2;" horiz-adv-x="1159" 
d="M199 722q0 -485 191 -616q79 -53 193 -53q227 0 308 213q68 178 70 477q0 498 -193 629q-78 53 -182 53q-188 0 -279 -136q-108 -158 -108 -567zM127 739q0 750 453 750q452 0 452 -750t-452 -749q-453 -1 -453 749zM479 2021q86 -119 238 -340h-82q-217 309 -238 340h82
z" />
    <glyph glyph-name="Oacute" unicode="&#xd3;" horiz-adv-x="1159" 
d="M199 722q0 -485 191 -616q79 -53 193 -53q227 0 308 213q68 178 70 477q0 498 -193 629q-78 53 -182 53q-188 0 -279 -136q-108 -158 -108 -567zM127 739q0 750 453 750q452 0 452 -750t-452 -749q-453 -1 -453 749zM422 1681q127 176 237 340h82q-20 -31 -237 -340h-82z
" />
    <glyph glyph-name="Ocircumflex" unicode="&#xd4;" horiz-adv-x="1159" 
d="M199 722q0 -485 191 -616q79 -53 193 -53q227 0 308 213q68 178 70 477q0 498 -193 629q-78 53 -182 53q-188 0 -279 -136q-108 -158 -108 -567zM127 739q0 750 453 750q452 0 452 -750t-452 -749q-453 -1 -453 749zM782 1686q-72 100 -202 288q-131 -188 -203 -288h-84
q59 82 239 339h95q37 -51 119 -170t120 -169h-84z" />
    <glyph glyph-name="Otilde" unicode="&#xd5;" horiz-adv-x="1159" 
d="M199 722q0 -485 191 -616q79 -53 193 -53q227 0 308 213q68 178 70 477q0 498 -193 629q-78 53 -182 53q-188 0 -279 -136q-108 -158 -108 -567zM127 739q0 750 453 750q452 0 452 -750t-452 -749q-453 -1 -453 749zM709 1690q-47 0 -91 34t-71 95q-6 12 -10 17t-11 15
q-26 43 -75 43t-71 -47t-30 -98t-8 -57l-53 16q12 82 24 126t47 82q34 38 80 38t72 -16t42 -35q16 -17 38 -53t36 -53q37 -46 87 -46h2q51 0 76 88q8 33 14 69t8 44l53 -17q-2 -10 -14 -72t-28 -96q-15 -35 -25 -43t-28 -21q-17 -13 -64 -13z" />
    <glyph glyph-name="Odieresis" unicode="&#xd6;" horiz-adv-x="1159" 
d="M199 722q0 -485 191 -616q79 -53 193 -53q227 0 308 213q68 178 70 477q0 498 -193 629q-78 53 -182 53q-188 0 -279 -136q-108 -158 -108 -567zM127 739q0 750 453 750q452 0 452 -750t-452 -749q-453 -1 -453 749zM673 1679q-42 0 -42 40t42 40t42 -40t-42 -40z
M479 1679q-43 0 -43 40t43 40t43 -40t-43 -40z" />
    <glyph glyph-name="multiply" unicode="&#xd7;" horiz-adv-x="1048" 
d="M852 258l-328 328l-327 -328l-23 25l-24 22l327 330l-327 328l47 47l327 -328l328 328l25 -23l22 -24l-328 -328l328 -330z" />
    <glyph glyph-name="Oslash" unicode="&#xd8;" horiz-adv-x="1159" 
d="M127 737q0 752 455 752q127 0 219 -57l59 165l60 -20l-68 -186q180 -172 180 -648q0 -754 -452 -753q-123 0 -211 53l-66 -180l-59 24l69 197q-186 168 -186 653zM583 53q227 0 308 213q68 178 70 477q0 418 -136 574l-434 -1211q78 -53 192 -53zM199 737
q0 -432 141 -585l436 1212q-80 61 -186 61q-191 0 -283 -136q-81 -119 -100 -339q-8 -94 -8 -213z" />
    <glyph glyph-name="Ugrave" unicode="&#xd9;" horiz-adv-x="1361" 
d="M1077 543q0 -265 -90 -409t-307 -144t-307 145t-90 420v862h-232v62h541v-62h-242v-850q0 -382 172 -474q68 -36 164 -36q324 0 324 475v885h-238v62h543v-62h-238v-874zM590 2021q180 -258 239 -340h-84q-217 309 -237 340h82z" />
    <glyph glyph-name="Uacute" unicode="&#xda;" horiz-adv-x="1361" 
d="M1077 543q0 -265 -90 -409t-307 -144t-307 145t-90 420v862h-232v62h541v-62h-242v-850q0 -382 172 -474q68 -36 164 -36q324 0 324 475v885h-238v62h543v-62h-238v-874zM532 1681l238 340h84l-240 -340h-82z" />
    <glyph glyph-name="Ucircumflex" unicode="&#xdb;" horiz-adv-x="1361" 
d="M1077 543q0 -265 -90 -409t-307 -144t-307 145t-90 420v862h-232v62h541v-62h-242v-850q0 -382 172 -474q68 -36 164 -36q324 0 324 475v885h-238v62h543v-62h-238v-874zM406 1686l237 339h94q59 -82 240 -339h-84q-72 100 -203 288q-131 -188 -203 -288h-81z" />
    <glyph glyph-name="Udieresis" unicode="&#xdc;" horiz-adv-x="1361" 
d="M1077 543q0 -265 -90 -409t-307 -144t-307 145t-90 420v862h-232v62h541v-62h-242v-850q0 -382 172 -474q68 -36 164 -36q324 0 324 475v885h-238v62h543v-62h-238v-874zM783 1679q-42 0 -42 40t42 40t42 -40t-42 -40zM590 1679q-43 0 -43 40t43 40t43 -40t-43 -40z" />
    <glyph glyph-name="Yacute" unicode="&#xdd;" horiz-adv-x="1161" 
d="M-14 1417v62h546v-62h-229q45 -109 137 -325t138 -326q100 217 292 651h-227v62h547v-62h-244q-172 -375 -330 -727v-629h234v-61h-543v61h232v629l-312 727h-241zM422 1681q127 176 237 340h82q-20 -31 -237 -340h-82z" />
    <glyph glyph-name="Thorn" unicode="&#xde;" horiz-adv-x="1009" 
d="M78 0v61h233v1356h-233v62h543v-62h-238v-160h158q176 0 271 -129q95 -128 95 -330t-84 -321t-248 -121q-92 0 -192 62v-357h238v-61h-543zM575 418q131 0 196 104t65 276t-77 286q-77 112 -227 112h-149v-707q102 -71 192 -71z" />
    <glyph glyph-name="germandbls" unicode="&#xdf;" horiz-adv-x="968" 
d="M248 1262q0 172 70 278q71 106 214 106q144 0 218 -100t73 -266q0 -252 -176 -334q111 -39 168 -141t57 -244q0 -311 -219 -385l-10 31l-12 29q172 70 172 323q0 158 -82 258t-213 101v51q116 0 182 87t66 223t-60 221t-168 85t-158 -89t-51 -234v-1201h238v-61h-543v61
h234v1201z" />
    <glyph glyph-name="agrave" unicode="&#xe0;" horiz-adv-x="925" 
d="M629 0v205q-59 -111 -117 -163t-162 -52q-229 0 -229 303q0 264 256 315q53 11 252 49v119q0 131 -46 198q-46 66 -157 66t-213 -114v-221h-61v245q127 152 288 152q258 0 258 -307v-734h226v-61h-295zM354 51q85 0 120 31q34 31 54 49q22 21 101 182v289
q-94 -18 -254 -49q-88 -18 -136 -85q-49 -68 -49 -178t40 -174t124 -65zM342 1671q37 -51 120 -170t120 -170h-84q-217 309 -238 340h82z" />
    <glyph glyph-name="aacute" unicode="&#xe1;" horiz-adv-x="925" 
d="M629 0v205q-59 -111 -117 -163t-162 -52q-229 0 -229 303q0 264 256 315q53 11 252 49v119q0 131 -46 198q-46 66 -157 66t-213 -114v-221h-61v245q127 152 288 152q258 0 258 -307v-734h226v-61h-295zM354 51q85 0 120 31q34 31 54 49q22 21 101 182v289
q-94 -18 -254 -49q-88 -18 -136 -85q-49 -68 -49 -178t40 -174t124 -65zM606 1671l-239 -340h-82q180 258 239 340h82z" />
    <glyph glyph-name="acircumflex" unicode="&#xe2;" horiz-adv-x="925" 
d="M629 0v205q-59 -111 -117 -163t-162 -52q-229 0 -229 303q0 264 256 315q53 11 252 49v119q0 131 -46 198q-46 66 -157 66t-213 -114v-221h-61v245q127 152 288 152q258 0 258 -307v-734h226v-61h-295zM354 51q85 0 120 31q34 31 54 49q22 21 101 182v289
q-94 -18 -254 -49q-88 -18 -136 -85q-49 -68 -49 -178t40 -174t124 -65zM158 1335q169 246 237 340h94q59 -82 240 -340h-82q-150 211 -205 289q-131 -188 -202 -289h-82z" />
    <glyph glyph-name="atilde" unicode="&#xe3;" horiz-adv-x="925" 
d="M629 0v205q-59 -111 -117 -163t-162 -52q-229 0 -229 303q0 264 256 315q53 11 252 49v119q0 131 -46 198q-46 66 -157 66t-213 -114v-221h-61v245q127 152 288 152q258 0 258 -307v-734h226v-61h-295zM354 51q85 0 120 31q34 31 54 49q22 21 101 182v289
q-94 -18 -254 -49q-88 -18 -136 -85q-49 -68 -49 -178t40 -174t124 -65zM586 1339q-103 0 -164 110q-41 73 -62 84q-20 11 -46 11t-39 -11t-20 -19t-13 -22q-6 -15 -12 -27t-15 -64q-8 -52 -10 -60l-25 9l-26 8q16 121 49 183t112 63q63 0 103 -50q14 -18 38 -55t36 -52
q37 -46 88 -46h2q52 0 74 89q10 36 14 64t6 33q2 6 2 15l53 -17q-27 -147 -47 -184q-36 -62 -98 -62z" />
    <glyph glyph-name="adieresis" unicode="&#xe4;" horiz-adv-x="925" 
d="M629 0v205q-59 -111 -117 -163t-162 -52q-229 0 -229 303q0 264 256 315q53 11 252 49v119q0 131 -46 198q-46 66 -157 66t-213 -114v-221h-61v245q127 152 288 152q258 0 258 -307v-734h226v-61h-295zM354 51q85 0 120 31q34 31 54 49q22 21 101 182v289
q-94 -18 -254 -49q-88 -18 -136 -85q-49 -68 -49 -178t40 -174t124 -65zM537 1329q-43 0 -43 40t43 40t43 -40t-43 -40zM343 1329q-42 0 -42 40t42 40t42 -40t-42 -40z" />
    <glyph glyph-name="aring" unicode="&#xe5;" horiz-adv-x="925" 
d="M629 0v205q-59 -111 -117 -163t-162 -52q-229 0 -229 303q0 264 256 315q53 11 252 49v119q0 131 -46 198q-46 66 -157 66t-213 -114v-221h-61v245q127 152 288 152q258 0 258 -307v-734h226v-61h-295zM354 51q85 0 120 31q34 31 54 49q22 21 101 182v289
q-94 -18 -254 -49q-88 -18 -136 -85q-49 -68 -49 -178t40 -174t124 -65zM326 1586q0 -185 118 -185t117 185q0 185 -123 186q-112 -1 -112 -186zM260 1586q0 110 44 178t135 67q91 0 139 -68q48 -69 49 -179q0 -110 -46 -176q-45 -66 -137 -67t-138 67t-46 178z" />
    <glyph glyph-name="ae" unicode="&#xe6;" horiz-adv-x="1372" 
d="M563 551q-98 0 -184 -16q-190 -41 -191 -236q0 -119 39 -183t140 -65q101 0 164 79q36 44 56 78q19 34 58 107q-16 82 -20 236h-62zM1180 625q0 197 -50 306t-189 109q-138 0 -189 -112t-56 -318h484v15zM627 776q0 131 -46 198q-46 66 -163 66t-207 -108v-191h-61v209
q127 152 288 152q195 0 242 -170q76 170 266 170q301 0 301 -484v-67h-551q0 -367 142 -462q57 -38 134 -38t123 36t99 110l49 -41q-63 -84 -121 -125t-141 -41q-238 0 -315 241q-66 -121 -135 -181t-183 -60q-229 0 -229 303q0 248 254 299q94 18 209 18h43l2 54v112z" />
    <glyph glyph-name="ccedilla" unicode="&#xe7;" horiz-adv-x="843" 
d="M487 -86q61 0 93 -46t32 -121t-40 -119t-106 -44q-68 0 -124 43l29 49q43 -35 96 -34q84 0 84 106t-66 107q-31 0 -55 -25l-49 49q21 62 43 113q-168 20 -236 164t-68 398q0 255 83 401q82 146 278 147q125 0 242 -133v-246h-61v223q-98 94 -185 94q-158 0 -221 -131
t-63 -362q0 -145 19 -243q20 -98 78 -171q58 -72 159 -80v2l4 -4h26q63 0 119 49q55 49 92 115l27 -16l24 -17q-88 -176 -245 -192q-29 -70 -33 -78q8 2 24 2z" />
    <glyph glyph-name="egrave" unicode="&#xe8;" horiz-adv-x="874" 
d="M443 1040q-138 0 -189 -112t-55 -318h483v15q0 197 -50 306q-51 109 -189 109zM472 -10q-94 0 -165 44q-180 110 -180 521t163 508q65 39 159 39q165 0 233 -128t68 -356v-67h-551q0 -368 141 -462q57 -38 134 -38t123 36t99 110l49 -41q-63 -84 -121 -125t-152 -41z
M346 1675q43 -61 240 -340h-84q-20 31 -238 340h82z" />
    <glyph glyph-name="eacute" unicode="&#xe9;" horiz-adv-x="874" 
d="M443 1040q-138 0 -189 -112t-55 -318h483v15q0 197 -50 306q-51 109 -189 109zM472 -10q-94 0 -165 44q-180 110 -180 521t163 508q65 39 159 39q165 0 233 -128t68 -356v-67h-551q0 -368 141 -462q57 -38 134 -38t123 36t99 110l49 -41q-63 -84 -121 -125t-152 -41z
M608 1675q-217 -309 -237 -340h-82q20 31 237 340h82z" />
    <glyph glyph-name="ecircumflex" unicode="&#xea;" horiz-adv-x="878" 
d="M445 1040q-138 0 -189 -112t-55 -318h483v15q0 197 -50 306q-51 109 -189 109zM474 -10q-94 0 -165 44q-180 110 -180 520t163 509q65 39 159 39q301 0 301 -484v-67h-551q0 -368 141 -462q57 -38 134 -38t123 36t99 110l50 -41q-64 -84 -122 -125t-152 -41zM162 1341
l239 340h95q180 -258 239 -340h-84q-72 100 -202 289q-131 -188 -203 -289h-84z" />
    <glyph glyph-name="edieresis" unicode="&#xeb;" horiz-adv-x="874" 
d="M443 1040q-138 0 -189 -112t-55 -318h483v15q0 197 -50 306q-51 109 -189 109zM472 -10q-94 0 -165 44q-180 110 -180 521t163 508q65 39 159 39q165 0 233 -128t68 -356v-67h-551q0 -368 141 -462q57 -38 134 -38t123 36t99 110l49 -41q-63 -84 -121 -125t-152 -41z
M582 1374q0 -39 -42 -39t-42 39t42 39t42 -39zM346 1335q-43 0 -43 39t43 39t43 -39t-43 -39z" />
    <glyph glyph-name="igrave" unicode="&#xec;" horiz-adv-x="614" 
d="M66 0v61h233v969h-233v62h309v-1031h219v-61h-528zM242 1673q68 -94 237 -340h-82q-217 309 -237 340h82z" />
    <glyph glyph-name="iacute" unicode="&#xed;" horiz-adv-x="618" 
d="M66 0v61h233v969h-233v62h309v-1031h219v-61h-528zM504 1673q-20 -31 -238 -340h-84q59 82 240 340h82z" />
    <glyph glyph-name="icircumflex" unicode="&#xee;" horiz-adv-x="645" 
d="M80 0v61h233v969h-233v62h309v-1031h219v-61h-528zM72 1337l237 340h94q59 -82 240 -340h-84q-72 100 -203 289q-131 -188 -202 -289h-82z" />
    <glyph glyph-name="idieresis" unicode="&#xef;" horiz-adv-x="630" 
d="M74 0v61h233v969h-233v62h309v-1031h219v-61h-528zM442 1331q-43 0 -43 39t43 39t43 -39t-43 -39zM293 1370q0 -39 -43 -39t-43 39t43 39t43 -39z" />
    <glyph glyph-name="eth" unicode="&#xf0;" horiz-adv-x="899" 
d="M418 43q285 0 284 469q-90 258 -276 258q-246 0 -246 -364q0 -162 58 -262t180 -101zM432 -23q-172 0 -248 118t-75 313q1 194 77 310t245 116t263 -181q-43 381 -297 604l-178 -178l-20 23l-23 20q29 29 86 87t86 87q-100 78 -235 138l28 63q150 -66 258 -149l154 153
l45 -43l-149 -149q326 -287 325 -826q0 -231 -85 -369t-257 -137z" />
    <glyph glyph-name="ntilde" unicode="&#xf1;" horiz-adv-x="1150" 
d="M66 0v61h235v969h-235v62h307v-203q45 96 117 154q73 58 163 59q141 0 197 -106t57 -296v-639h236v-61h-477v61h172v631q0 164 -44 256t-159 92q-86 0 -155 -76t-107 -192v-711h168v-61h-475zM732 1339q-74 0 -154 140q-33 54 -59 63q-13 4 -36 4t-42 -16
q-20 -16 -26 -34q-7 -17 -13 -29t-15 -64q-8 -52 -10 -60l-25 9l-26 8q16 121 49 183q33 63 105 63t110 -52q14 -18 39 -56t35 -51t34 -29t54 -17q29 0 52 31t33 97q11 66 13 75l53 -17q-2 -8 -6 -37t-6 -38q-2 -10 -7 -34q-6 -24 -10 -33t-11 -27t-14 -27t-19 -23
q-24 -30 -98 -29z" />
    <glyph glyph-name="ograve" unicode="&#xf2;" horiz-adv-x="935" 
d="M328 1005q-138 -95 -138 -461q0 -365 137 -455q58 -38 141 -38t138 38q137 95 137 458t-140 458q-56 37 -138 37t-137 -37zM121 549q0 553 346 553q201 0 277 -163q71 -148 71 -394q0 -555 -348 -555q-131 0 -211 78t-108 196t-27 285zM373 1671q43 -61 239 -340h-84
q-20 31 -237 340h82z" />
    <glyph glyph-name="oacute" unicode="&#xf3;" horiz-adv-x="935" 
d="M328 1005q-138 -95 -138 -461q0 -365 137 -455q58 -38 141 -38t138 38q137 95 137 458t-140 458q-56 37 -138 37t-137 -37zM121 549q0 553 346 553q201 0 277 -163q71 -148 71 -394q0 -555 -348 -555q-131 0 -211 78t-108 196t-27 285zM637 1671l-240 -340h-82
q20 31 238 340h84z" />
    <glyph glyph-name="ocircumflex" unicode="&#xf4;" horiz-adv-x="935" 
d="M328 1005q-138 -95 -138 -461q0 -365 137 -455q58 -38 141 -38t138 38q137 95 137 458t-140 458q-56 37 -138 37t-137 -37zM121 549q0 553 346 553q201 0 277 -163q71 -148 71 -394q0 -555 -348 -555q-131 0 -211 78t-108 196t-27 285zM188 1337l238 340h94
q59 -82 240 -340h-84q-72 100 -203 289q-131 -188 -203 -289h-82z" />
    <glyph glyph-name="otilde" unicode="&#xf5;" horiz-adv-x="935" 
d="M328 1005q-138 -95 -138 -461q0 -365 137 -455q58 -38 141 -38t138 38q137 95 137 458t-140 458q-56 37 -138 37t-137 -37zM121 549q0 553 346 553q201 0 277 -163q71 -148 71 -394q0 -555 -348 -555q-131 0 -211 78t-108 196t-27 285zM453 1452q-4 6 -27 44t-42 44
t-36 6q-53 0 -75 -47q-21 -47 -29 -98t-8 -58l-25 9l-27 8q16 121 49 183q33 63 105 63t111 -52q15 -18 39 -56t34 -51t35 -29t53 -17q52 0 76 88q8 33 14 69t9 46l53 -17q-2 -8 -6 -39t-12 -63q-7 -31 -11 -40t-11 -27t-14 -27q-7 -8 -19 -23q-25 -29 -95 -29t-141 113z
" />
    <glyph glyph-name="odieresis" unicode="&#xf6;" horiz-adv-x="935" 
d="M328 1005q-138 -95 -138 -461q0 -365 137 -455q58 -38 141 -38t138 38q137 95 137 458t-140 458q-56 37 -138 37t-137 -37zM121 549q0 553 346 553q201 0 277 -163q71 -148 71 -394q0 -555 -348 -555q-131 0 -211 78t-108 196t-27 285zM608 1370q0 -39 -42 -39t-42 39
t42 39t42 -39zM373 1331q-43 0 -43 39t43 39t43 -39t-43 -39z" />
    <glyph glyph-name="divide" unicode="&#xf7;" horiz-adv-x="1325" 
d="M702 209q0 -39 -43 -39t-43 39t43 39t43 -39zM1159 600h-993v68h993v-68zM659 1001q-43 0 -43 40t43 40t43 -40t-43 -40z" />
    <glyph glyph-name="oslash" unicode="&#xf8;" horiz-adv-x="935" 
d="M121 549q0 553 346 553q92 0 164 -39l55 154l57 -23l-61 -170q133 -127 133 -479q0 -555 -348 -555q-84 0 -145 30l-66 -180l-55 25l67 188q-147 123 -147 496zM473 51q78 0 133 38q137 95 137 456q0 293 -88 407l-313 -872q53 -29 131 -29zM190 549q0 -324 103 -430
l315 880q-57 43 -141 43t-139 -38q-97 -66 -125 -262q-13 -82 -13 -193z" />
    <glyph glyph-name="ugrave" unicode="&#xf9;" horiz-adv-x="1085" 
d="M776 0v190q-102 -201 -254 -200q-272 0 -272 395v645h-238v62h307v-703q0 -338 213 -338q78 0 141 77q62 77 103 183v719h-235v62h307v-1031h221v-61h-293zM426 1673q59 -82 240 -340h-84q-217 309 -238 340h82z" />
    <glyph glyph-name="uacute" unicode="&#xfa;" horiz-adv-x="1085" 
d="M776 0v190q-102 -201 -254 -200q-272 0 -272 395v645h-238v62h307v-703q0 -338 213 -338q78 0 141 77q62 77 103 183v719h-235v62h307v-1031h221v-61h-293zM369 1333l239 340h82q-20 -31 -237 -340h-84z" />
    <glyph glyph-name="ucircumflex" unicode="&#xfb;" horiz-adv-x="1085" 
d="M776 0v190q-102 -201 -254 -200q-272 0 -272 395v645h-238v62h307v-703q0 -338 213 -338q78 0 141 77q62 77 103 183v719h-235v62h307v-1031h221v-61h-293zM731 1337q-72 100 -203 289q-131 -188 -202 -289h-84q180 258 239 340h94q35 -51 119 -170t119 -170h-82z" />
    <glyph glyph-name="udieresis" unicode="&#xfc;" horiz-adv-x="1085" 
d="M776 0v190q-102 -201 -254 -200q-272 0 -272 395v645h-238v62h307v-703q0 -338 213 -338q78 0 141 77q62 77 103 183v719h-235v62h307v-1031h221v-61h-293zM621 1331q-43 0 -43 39t43 39t43 -39t-43 -39zM469 1370q0 -39 -42 -39t-42 39t42 39t42 -39z" />
    <glyph glyph-name="yacute" unicode="&#xfd;" horiz-adv-x="1128" 
d="M901 1030l-565 -1644h-291v61h234q164 475 245 711q-127 394 -278 872h-236l2 31v31h523v-62h-213q42 -127 120 -382t119 -382q176 508 264 764h-192v62h504v-62h-236zM416 1339l239 340h82l-237 -340h-84z" />
    <glyph glyph-name="thorn" unicode="&#xfe;" horiz-adv-x="972" 
d="M-61 -614v61h235v2122h-233v61h305v-667q121 139 278 139q328 0 328 -535q0 -578 -332 -577q-156 0 -274 160v-703h221v-61h-528zM514 51q266 0 266 484v28q0 479 -264 479q-156 0 -270 -161v-641q62 -94 122 -142t146 -47z" />
    <glyph glyph-name="ydieresis" unicode="&#xff;" horiz-adv-x="1128" 
d="M901 1030l-565 -1644h-291v61h234q164 475 245 711q-127 394 -278 872h-236l2 31v31h523v-62h-213q42 -127 120 -382t119 -382q176 508 264 764h-192v62h504v-62h-236zM668 1339q-43 0 -43 39t43 39t43 -39t-43 -39zM516 1378q0 -39 -42 -39t-42 39t42 39t42 -39z" />
    <glyph glyph-name="Amacron" unicode="&#x100;" 
d="M516 61v-61h-557v61h234q70 238 209 710l210 708h70q243 -942 375 -1418h233v-61h-559v61h250q-69 290 -115 451h-467q-23 -74 -65 -226t-64 -225h246zM850 575q-88 332 -205 791q-161 -550 -227 -791h432zM805 1690h-324v61h324v-61z" />
    <glyph glyph-name="amacron" unicode="&#x101;" horiz-adv-x="925" 
d="M629 0v205q-59 -111 -117 -163t-162 -52q-229 0 -229 303q0 264 256 315q53 11 252 49v119q0 131 -46 198q-46 66 -157 66t-213 -114v-221h-61v245q127 152 288 152q258 0 258 -307v-734h226v-61h-295zM354 51q85 0 120 31q34 31 54 49q22 21 101 182v289
q-94 -18 -254 -49q-88 -18 -136 -85q-49 -68 -49 -178t40 -174t124 -65zM596 1339h-326v62h326v-62z" />
    <glyph glyph-name="Abreve" unicode="&#x102;" 
d="M516 61v-61h-557v61h234q70 238 209 710l210 708h70q243 -942 375 -1418h233v-61h-559v61h250q-69 290 -115 451h-467q-23 -74 -65 -226t-64 -225h246zM850 575q-88 332 -205 791q-161 -550 -227 -791h432zM868 1950q0 -118 -56 -188t-162 -70t-156 70q-51 70 -52 190h68
q0 -90 35 -146t109 -55q74 0 110 54q37 54 37 145h67z" />
    <glyph glyph-name="abreve" unicode="&#x103;" horiz-adv-x="925" 
d="M629 0v205q-59 -111 -117 -163t-162 -52q-229 0 -229 303q0 264 256 315q53 11 252 49v119q0 131 -46 198q-46 66 -157 66t-213 -114v-221h-61v245q127 152 288 152q258 0 258 -307v-734h226v-61h-295zM354 51q85 0 120 31q34 31 54 49q22 21 101 182v289
q-94 -18 -254 -49q-88 -18 -136 -85q-49 -68 -49 -178t40 -174t124 -65zM659 1599q0 -119 -57 -189q-58 -70 -162 -69q-104 0 -155 70t-52 191h68q0 -90 35 -146q36 -56 108 -55q72 0 109 54t37 144h69z" />
    <glyph glyph-name="Aogonek" unicode="&#x104;" 
d="M850 575q-88 332 -205 791q-161 -550 -227 -791h432zM1020 -399q-66 0 -105 56t-38 144q0 119 108 199h-254v61h250q-69 290 -115 451h-467q-23 -74 -65 -226t-64 -225h246v-61h-557v61h234q70 238 209 710l210 708h70q243 -942 375 -1418h233v-61h-221l2 -4
q-131 -78 -131 -206t94 -128q39 0 84 45l39 -41q-71 -65 -137 -65z" />
    <glyph glyph-name="aogonek" unicode="&#x105;" horiz-adv-x="925" 
d="M354 51q85 0 120 31q34 31 54 49q22 21 101 182v289q-94 -18 -254 -49q-88 -18 -136 -85q-49 -68 -49 -178t40 -174t124 -65zM745 -291l39 -41q-74 -66 -138 -66t-104 57q-38 56 -38 144q0 129 125 213v189q-59 -111 -117 -163t-162 -52q-229 0 -229 303q0 264 256 315
q53 11 252 49v119q0 131 -46 198q-46 66 -157 66t-213 -114v-221h-61v245q127 152 288 152q258 0 258 -307v-734h226v-61h-228l2 -2q-131 -74 -131 -195q0 -59 24 -99t65 -40t89 45z" />
    <glyph glyph-name="Cacute" unicode="&#x106;" horiz-adv-x="1060" 
d="M577 -10q-258 0 -358 208q-94 194 -92 507q0 574 248 725q95 59 247 59t322 -148v-245h-61v219q-137 109 -267 109q-252 -1 -337 -213q-80 -192 -80 -504q0 -477 192 -598q78 -49 189 -49q110 0 188 45q78 46 158 139q23 -23 24 -23l23 -24q-92 -103 -181 -155t-215 -52z
M451 1681q68 93 237 340h84l-240 -340h-81z" />
    <glyph glyph-name="cacute" unicode="&#x107;" horiz-adv-x="843" 
d="M121 546q0 264 82 409q82 146 278 147q125 0 242 -133v-246h-61v223q-98 94 -185 94q-158 0 -221 -131t-63 -362q0 -368 142 -459q59 -37 133 -37q131 0 222 164l27 -16l24 -17q-98 -193 -266 -192q-197 0 -275 146t-79 410zM322 1333l239 340h82q-20 -31 -237 -340h-84z
" />
    <glyph glyph-name="Ccaron" unicode="&#x10c;" horiz-adv-x="1062" 
d="M577 -10q-258 0 -358 208q-94 194 -92 507q0 574 248 725q95 59 247 59t322 -148v-245h-61v219q-137 109 -267 109q-252 -1 -337 -213q-80 -192 -80 -504q0 -477 192 -598q78 -49 189 -49q110 0 188 45q78 46 158 139q23 -23 24 -23l23 -24q-92 -103 -181 -155t-215 -52z
M895 2021l-240 -340h-94q-180 258 -239 340h84q16 -25 202 -290q186 266 203 290h84z" />
    <glyph glyph-name="ccaron" unicode="&#x10d;" horiz-adv-x="851" 
d="M121 546q0 264 82 409q82 146 278 147q125 0 242 -133v-246h-61v223q-98 94 -185 94q-158 0 -221 -131t-63 -362q0 -368 142 -459q59 -37 133 -37q131 0 222 164l27 -16l24 -17q-98 -193 -266 -192q-197 0 -275 146t-79 410zM432 1333q-127 176 -237 340h81
q80 -119 205 -289q156 217 203 289h82q-180 -258 -240 -340h-94z" />
    <glyph glyph-name="Dcaron" unicode="&#x10e;" horiz-adv-x="1230" 
d="M575 1417h-192v-1356h219q438 0 438 664q0 692 -465 692zM78 0v61h233v1356h-233v62h502q403 0 501 -451q29 -133 29 -298t-28 -294q-95 -436 -486 -436h-518zM831 2019q-68 -93 -237 -340h-94q-59 82 -240 340h82q113 -162 205 -288q117 164 203 288h81z" />
    <glyph glyph-name="dcaron" unicode="&#x10f;" horiz-adv-x="1091" 
d="M727 0v139q-94 -150 -244 -149q-186 0 -277 154t-91 397q-1 157 33 279t119 202t219 80t241 -117v592h-233v61h309v-1577h233v-61h-309zM479 1040q-149 0 -221 -140t-72 -356t72 -354t222 -139q150 0 247 199v647q-100 143 -248 143zM1122 1708l-153 -348h-70l135 348h88
z" />
    <glyph glyph-name="Dcroat" unicode="&#x110;" horiz-adv-x="1230" 
d="M600 733h-217v-672h219q438 0 438 664q0 692 -465 692h-192v-618h217v-66zM78 0v61h233v672h-149v66h149v618h-233v62h502q403 0 501 -451q29 -133 29 -298t-28 -294q-95 -436 -486 -436h-518z" />
    <glyph glyph-name="dcroat" unicode="&#x111;" horiz-adv-x="1050" 
d="M727 0v139q-94 -150 -244 -149q-186 0 -277 154t-91 397q-1 157 33 279t119 202t219 80t241 -117v346h-268v60h268v186h-233v61h309v-247h125v-60h-125v-1270h233v-61h-309zM479 1040q-149 0 -221 -140t-72 -356t72 -354t222 -139q150 0 247 199v647q-100 143 -248 143z
" />
    <glyph glyph-name="Emacron" unicode="&#x112;" horiz-adv-x="1058" 
d="M76 0v61h235v1356h-235v62h842v-277h-64v215h-471v-620h442v-62h-442v-674h522v215h62v-276h-891zM752 1686h-324v61h324v-61z" />
    <glyph glyph-name="emacron" unicode="&#x113;" horiz-adv-x="874" 
d="M443 1040q-138 0 -189 -112t-55 -318h483v15q0 197 -50 306q-51 109 -189 109zM472 -10q-94 0 -165 44q-180 110 -180 521t163 508q65 39 159 39q165 0 233 -128t68 -356v-67h-551q0 -368 141 -462q57 -38 134 -38t123 36t99 110l49 -41q-63 -84 -121 -125t-152 -41z
M600 1346h-326v59h326v-59z" />
    <glyph glyph-name="Edotaccent" unicode="&#x116;" horiz-adv-x="1058" 
d="M76 0v61h235v1356h-235v62h842v-277h-64v215h-471v-620h442v-62h-442v-674h522v215h62v-276h-891zM596 1675q-43 0 -43 40t43 40t43 -40t-43 -40z" />
    <glyph glyph-name="edotaccent" unicode="&#x117;" horiz-adv-x="874" 
d="M443 1040q-138 0 -189 -112t-55 -318h483v15q0 197 -50 306q-51 109 -189 109zM472 -10q-94 0 -165 44q-180 110 -180 521t163 508q65 39 159 39q165 0 233 -128t68 -356v-67h-551q0 -368 141 -462q57 -38 134 -38t123 36t99 110l49 -41q-63 -84 -121 -125t-152 -41z
M485 1374q0 -39 -42 -39t-42 39t42 39t42 -39z" />
    <glyph glyph-name="Eogonek" unicode="&#x118;" horiz-adv-x="1064" 
d="M894 -377q-64 0 -104 56q-40 55 -40 151t79 170h-753v61h235v1356h-235v62h842v-277h-64v215h-471v-620h442v-62h-442v-674h522v215h62v-276h-52q-102 -72 -102 -176q0 -59 24 -99q23 -40 65 -40t91 45l19 -19q8 -8 20 -22q-74 -66 -138 -66z" />
    <glyph glyph-name="eogonek" unicode="&#x119;" horiz-adv-x="874" 
d="M443 1040q-138 0 -189 -112t-55 -318h483v15q0 197 -50 306q-51 109 -189 109zM494 -385q-66 0 -105 56q-39 57 -39 153t82 168q-174 20 -240 180q-65 160 -65 403q0 390 163 488q65 39 159 39q165 0 233 -128t68 -356v-67h-551q0 -368 141 -462q57 -38 134 -38t123 36
t99 110l49 -41q-57 -76 -109 -117t-120 -47q-102 -72 -102 -176q0 -139 94 -140q39 0 84 45l39 -40q-71 -66 -137 -66z" />
    <glyph glyph-name="Ecaron" unicode="&#x11a;" horiz-adv-x="1058" 
d="M76 0v61h235v1356h-235v62h842v-277h-64v215h-471v-620h442v-62h-442v-674h522v215h62v-276h-891zM600 1729q104 144 203 288h82q-180 -258 -240 -340h-94q-35 51 -119 170t-119 170h82q61 -88 205 -288z" />
    <glyph glyph-name="ecaron" unicode="&#x11b;" horiz-adv-x="878" 
d="M445 1040q-138 0 -189 -112t-55 -318h483v15q0 197 -50 306q-51 109 -189 109zM474 -10q-94 0 -165 44q-180 110 -180 520t163 509q65 39 159 39q301 0 301 -484v-67h-551q0 -368 141 -462q57 -38 134 -38t123 36t99 110l50 -41q-64 -84 -122 -125t-152 -41zM401 1337
q-37 51 -119 170q-83 119 -120 170h84q154 -221 203 -291q49 70 202 291h84q-59 -82 -239 -340h-95z" />
    <glyph glyph-name="Gbreve" unicode="&#x11e;" horiz-adv-x="1179" 
d="M631 -10q-508 0 -508 749t491 750q219 0 410 -174v-246h-61v217q-164 137 -349 137q-422 0 -421 -671q0 -511 225 -644q88 -52 213 -53q195 0 352 133v414h-274v62h340v-506q-113 -88 -204 -128t-214 -40zM817 1946q0 -118 -56 -188q-55 -70 -161 -70t-158 69
q-51 70 -51 191h68q0 -90 35 -146q34 -56 108 -55q74 0 111 54t37 145h67z" />
    <glyph glyph-name="gbreve" unicode="&#x11f;" horiz-adv-x="884" 
d="M156 -268q0 -131 74 -213t204 -82q129 0 213 75q84 74 84 194t-84 183q-85 63 -195 77t-165 42q-131 -88 -131 -276zM719 716q0 -138 -76 -238q-76 -101 -213 -101q-82 0 -139 37q-66 -66 -66 -168q1 -102 59 -155q58 -54 152 -64q162 -19 261 -97t100 -215v-4
q1 -153 -103 -243t-263 -90t-253 96q-94 98 -94 254q0 201 156 311q-86 69 -86 193t92 217q-99 96 -99 269t75 278q75 106 211 106t212 -103l160 125l20 -26l19 -29l-166 -123q41 -92 41 -230zM436 1042q-106 0 -162 -89t-55 -220q0 -131 56 -213q57 -82 161 -82t158 84
q53 84 53 216t-52 218q-53 86 -159 86zM645 1599q0 -119 -56 -189q-55 -70 -161 -69q-106 0 -158 71q-51 71 -51 190h68q0 -88 35 -144q34 -56 108 -55q74 0 111 54t37 142h67z" />
    <glyph glyph-name="Gcommaaccent" unicode="&#x122;" horiz-adv-x="1179" 
d="M729 -158l-154 -350h-69l135 350h88zM631 -10q-508 0 -508 749t491 750q219 0 410 -174v-246h-61v217q-164 137 -349 137q-422 0 -421 -671q0 -511 225 -644q88 -52 213 -53q195 0 352 133v414h-274v62h340v-506q-113 -88 -204 -128t-214 -40z" />
    <glyph glyph-name="gcommaaccent" unicode="&#x123;" horiz-adv-x="884" 
d="M156 -268q0 -131 74 -213t204 -82q129 0 213 75q84 74 84 194t-84 183q-85 63 -195 77t-165 42q-131 -88 -131 -276zM719 716q0 -138 -76 -238q-76 -101 -213 -101q-82 0 -139 37q-66 -66 -66 -168q1 -102 59 -155q58 -54 152 -64q162 -19 261 -97t100 -215v-4
q1 -153 -103 -243t-263 -90t-253 96q-94 98 -94 254q0 201 156 311q-86 69 -86 193t92 217q-99 96 -99 269t75 278q75 106 211 106t212 -103l160 125l20 -26l19 -29l-166 -123q41 -92 41 -230zM436 1042q-106 0 -162 -89t-55 -220q0 -131 56 -213q57 -82 161 -82t158 84
q53 84 53 216t-52 218q-53 86 -159 86zM369 1147l153 350h70l-133 -350h-90z" />
    <glyph glyph-name="Imacron" unicode="&#x12a;" horiz-adv-x="696" 
d="M76 0v61h235v1356h-235v62h545v-62h-238v-1356h238v-61h-545zM506 1690h-326v61h326v-61z" />
    <glyph glyph-name="imacron" unicode="&#x12b;" horiz-adv-x="612" 
d="M66 0v61h233v969h-233v62h309v-1031h219v-61h-528zM494 1341h-324v60h324v-60z" />
    <glyph glyph-name="Iogonek" unicode="&#x12e;" horiz-adv-x="696" 
d="M332 -383q-66 0 -106 56q-40 55 -40 153t88 174h-198v61h235v1356h-235v62h545v-62h-238v-1356h238v-61h-261q-111 -74 -110 -182q0 -139 94 -140q39 0 84 46l39 -41q-69 -66 -135 -66z" />
    <glyph glyph-name="iogonek" unicode="&#x12f;" horiz-adv-x="612" 
d="M326 -383q-66 0 -106 56q-40 55 -40 153t88 174h-202v61h233v969h-233v62h309v-1031h219v-61h-238q-113 -76 -112 -182q0 -139 94 -140q37 0 86 46q10 -14 37 -41q-69 -66 -135 -66zM334 1411q45 0 45 -38t-43 -38t-43 37q0 16 12 28t29 11z" />
    <glyph glyph-name="Idotaccent" unicode="&#x130;" horiz-adv-x="696" 
d="M76 0v61h235v1356h-235v62h545v-62h-238v-1356h238v-61h-545zM349 1679q-42 0 -42 40t42 40t42 -40t-42 -40z" />
    <glyph glyph-name="dotlessi" unicode="&#x131;" horiz-adv-x="612" 
d="M66 0v61h233v969h-233v62h309v-1031h219v-61h-528z" />
    <glyph glyph-name="Kcommaaccent" unicode="&#x136;" horiz-adv-x="1216" 
d="M768 -156l-154 -350h-69l135 350h88zM1217 61v-61h-527v61h207q-344 434 -514 652v-652h192v-61h-499v61h235v1356h-235v62h497v-62h-190v-577q319 385 477 577h-203v62h525v-62h-228l-540 -639q335 -413 577 -717h226z" />
    <glyph glyph-name="kcommaaccent" unicode="&#x137;" horiz-adv-x="1079" 
d="M680 -158l-156 -350h-67l133 350h90zM1104 61v-61h-291q-272 291 -491 510v-449h210v-61h-518v61h236v1516h-234v61h306v-1026q102 111 401 418h-188v62h514v-62h-236q-242 -250 -453 -469l484 -500h260z" />
    <glyph glyph-name="Lacute" unicode="&#x139;" horiz-adv-x="1032" 
d="M74 0v61h239v1356h-239v62h542v-62h-233v-1356h512v215h61v-276h-882zM188 1679l238 340h82q-20 -31 -238 -340h-82z" />
    <glyph glyph-name="lacute" unicode="&#x13a;" horiz-adv-x="577" 
d="M16 0v61h234v1516h-232v61h304v-1577h237v-61h-543zM410 2120l-240 -340h-82q180 258 240 340h82z" />
    <glyph glyph-name="Lcommaaccent" unicode="&#x13b;" horiz-adv-x="1032" 
d="M678 -154l-156 -350h-69l135 350h90zM74 0v61h239v1356h-239v62h542v-62h-233v-1356h512v215h61v-276h-882z" />
    <glyph glyph-name="lcommaaccent" unicode="&#x13c;" horiz-adv-x="573" 
d="M387 -156l-154 -348h-69l133 348h90zM16 0v61h234v1516h-232v61h304v-1577h237v-61h-543z" />
    <glyph glyph-name="Lcaron" unicode="&#x13d;" horiz-adv-x="1056" 
d="M1026 1479l-154 -351h-69l133 351h90zM74 0v61h239v1356h-239v62h542v-62h-233v-1356h512v215h61v-276h-882z" />
    <glyph glyph-name="lcaron" unicode="&#x13e;" horiz-adv-x="618" 
d="M16 0v61h234v1516h-232v61h304v-1577h237v-61h-543zM649 1710l-153 -350h-70l135 350h88z" />
    <glyph glyph-name="Lslash" unicode="&#x141;" horiz-adv-x="1032" 
d="M383 61h512v215h61v-276h-882v61h239v627q-20 -18 -65 -55t-66 -55v81l131 111v647h-239v62h542v-62h-233v-590q174 146 217 185v-80q-46 -41 -217 -184v-687z" />
    <glyph glyph-name="lslash" unicode="&#x142;" horiz-adv-x="585" 
d="M330 61h237v-61h-542v61h233v740q-37 -29 -170 -144v82l170 142v696h-231v61h303v-696q67 54 176 148v-80q-109 -94 -176 -148v-801z" />
    <glyph glyph-name="Nacute" unicode="&#x143;" horiz-adv-x="1445" 
d="M618 61v-61h-542v61h235v1356h-233v62h311q222 -430 703 -1342v1280h-234v62h543v-62h-238v-1417h-80q-398 766 -700 1341v-1280h235zM926 2021l-240 -340h-82q180 258 240 340h82z" />
    <glyph glyph-name="nacute" unicode="&#x144;" horiz-adv-x="1150" 
d="M66 0v61h235v969h-235v62h307v-203q45 96 117 154q73 58 163 59q141 0 197 -106t57 -296v-639h236v-61h-477v61h172v631q0 164 -44 256t-159 92q-86 0 -155 -76t-107 -192v-711h168v-61h-475zM453 1333l239 340h82q-20 -31 -237 -340h-84z" />
    <glyph glyph-name="Ncommaaccent" unicode="&#x145;" horiz-adv-x="1445" 
d="M825 -156l-155 -350h-68l133 350h90zM618 61v-61h-542v61h235v1356h-233v62h311q222 -430 703 -1342v1280h-234v62h543v-62h-238v-1417h-80q-398 766 -700 1341v-1280h235z" />
    <glyph glyph-name="ncommaaccent" unicode="&#x146;" horiz-adv-x="1150" 
d="M741 -156l-155 -350h-70l135 350h90zM66 0v61h235v969h-235v62h307v-203q45 96 117 154q73 58 163 59q141 0 197 -106t57 -296v-639h236v-61h-477v61h172v631q0 164 -44 256t-159 92q-86 0 -155 -76t-107 -192v-711h168v-61h-475z" />
    <glyph glyph-name="Ncaron" unicode="&#x147;" horiz-adv-x="1445" 
d="M618 61v-61h-542v61h235v1356h-233v62h311q222 -430 703 -1342v1280h-234v62h543v-62h-238v-1417h-80q-398 766 -700 1341v-1280h235zM715 1681q-35 51 -119 170t-119 170h82q16 -25 203 -290q109 158 205 290h82q-180 -258 -240 -340h-94z" />
    <glyph glyph-name="ncaron" unicode="&#x148;" horiz-adv-x="1150" 
d="M66 0v61h235v969h-235v62h307v-203q45 96 117 154q73 58 163 59q141 0 197 -106t57 -296v-639h236v-61h-477v61h172v631q0 164 -44 256t-159 92q-86 0 -155 -76t-107 -192v-711h168v-61h-475zM897 1673q-86 -119 -238 -340h-94q-59 82 -239 340h82q158 -224 204 -291
q49 72 203 291h82z" />
    <glyph glyph-name="Omacron" unicode="&#x14c;" horiz-adv-x="1159" 
d="M199 722q0 -485 191 -616q79 -53 193 -53q227 0 308 213q68 178 70 477q0 498 -193 629q-78 53 -182 53q-188 0 -279 -136q-108 -158 -108 -567zM127 739q0 750 453 750q452 0 452 -750t-452 -749q-453 -1 -453 749zM733 1690h-325v61h325v-61z" />
    <glyph glyph-name="omacron" unicode="&#x14d;" horiz-adv-x="935" 
d="M328 1005q-138 -95 -138 -461q0 -365 137 -455q58 -38 141 -38t138 38q137 95 137 458t-140 458q-56 37 -138 37t-137 -37zM121 549q0 553 346 553q201 0 277 -163q71 -148 71 -394q0 -555 -348 -555q-131 0 -211 78t-108 196t-27 285zM627 1341h-326v60h326v-60z" />
    <glyph glyph-name="Ohungarumlaut" unicode="&#x150;" horiz-adv-x="1159" 
d="M199 722q0 -485 191 -616q79 -53 193 -53q227 0 308 213q68 178 70 477q0 498 -193 629q-78 53 -182 53q-188 0 -279 -136q-108 -158 -108 -567zM127 739q0 750 453 750q452 0 452 -750t-452 -749q-453 -1 -453 749zM846 2023l-154 -348h-69l133 348h90zM629 2023
l-156 -348h-70l136 348h90z" />
    <glyph glyph-name="ohungarumlaut" unicode="&#x151;" horiz-adv-x="940" 
d="M328 1005q-138 -95 -138 -461q0 -365 137 -455q58 -38 141 -38t138 38q137 95 137 458t-140 458q-56 37 -138 37t-137 -37zM121 549q0 553 346 553q201 0 277 -163q71 -148 71 -394q0 -555 -348 -555q-131 0 -211 78t-108 196t-27 285zM739 1675l-153 -350h-70l135 350
h88zM522 1675l-155 -350h-70l135 350h90z" />
    <glyph glyph-name="OE" unicode="&#x152;" horiz-adv-x="1533" 
d="M580 63q135 0 206 54v1255q-61 45 -182 45q-408 0 -407 -710q0 -644 383 -644zM1440 0h-770q-43 -6 -95 -6q-451 0 -450 711q0 568 249 718q97 59 234 60q29 0 70 -4h713v-277h-62v215h-471v-620h442v-62h-442v-674h520v215h62v-276z" />
    <glyph glyph-name="oe" unicode="&#x153;" horiz-adv-x="1492" 
d="M1075 1040q-157 0 -210 -128q-44 -105 -48 -302h486v15q0 127 -17 212q-16 85 -72 144t-139 59zM328 1005q-138 -95 -138 -461q0 -365 137 -455q58 -38 141 -38t138 38q137 95 137 458t-140 458q-56 37 -138 37t-137 -37zM121 549q0 553 346 553q236 0 309 -244
q68 244 293 244q301 0 301 -484v-67h-553q0 -369 142 -462q57 -38 135 -38t124 36t99 110l22 -21l25 -20q-62 -84 -120 -125t-140 -41q-248 0 -322 262q-72 -262 -315 -262q-131 0 -211 78t-108 196t-27 285z" />
    <glyph glyph-name="Racute" unicode="&#x154;" horiz-adv-x="1232" 
d="M618 61v-61h-544v61h237v1356h-237v62h518q166 1 253 -101t87 -271q0 -342 -238 -407q166 -319 326 -639h248v-61h-293q-233 459 -352 688h-240v-627h235zM580 1417h-197v-667h219q131 0 194 91q62 91 62 247t-70 242t-208 87zM688 2017q-180 -258 -239 -340h-82
q180 258 239 340h82z" />
    <glyph glyph-name="racute" unicode="&#x155;" horiz-adv-x="768" 
d="M78 0v61h235v969h-235v62h307v-158q117 168 326 168v-62q-219 0 -326 -200v-779h221v-61h-528zM176 1327l238 340h82q-217 -309 -238 -340h-82z" />
    <glyph glyph-name="Rcommaaccent" unicode="&#x156;" horiz-adv-x="1232" 
d="M768 -156l-156 -350h-69l135 350h90zM618 61v-61h-544v61h237v1356h-237v62h518q166 1 253 -101t87 -271q0 -342 -238 -407q166 -319 326 -639h248v-61h-293q-233 459 -352 688h-240v-627h235zM580 1417h-197v-667h219q131 0 194 91q62 91 62 247t-70 242t-208 87z" />
    <glyph glyph-name="rcommaaccent" unicode="&#x157;" horiz-adv-x="755" 
d="M444 -156l-155 -350h-70l135 350h90zM66 0v61h235v969h-235v62h307v-158q117 168 323 168v-62q-217 0 -323 -198v-781h221v-61h-528z" />
    <glyph glyph-name="Rcaron" unicode="&#x158;" horiz-adv-x="1232" 
d="M618 61v-61h-544v61h237v1356h-237v62h518q166 1 253 -101t87 -271q0 -342 -238 -407q166 -319 326 -639h248v-61h-293q-233 459 -352 688h-240v-627h235zM580 1417h-197v-667h219q131 0 194 91q62 91 62 247t-70 242t-208 87zM477 1677q-37 51 -119 170t-118 170h82
q32 -45 102 -145t100 -143q143 201 205 288h82q-180 -258 -240 -340h-94z" />
    <glyph glyph-name="rcaron" unicode="&#x159;" horiz-adv-x="778" 
d="M78 0v61h235v969h-235v62h307v-158q117 168 326 168v-62q-219 0 -326 -200v-779h221v-61h-528zM639 1663q-86 -119 -238 -340h-96q-37 51 -119 170t-118 170h82q80 -119 204 -289q156 217 203 289h82z" />
    <glyph glyph-name="Sacute" unicode="&#x15a;" horiz-adv-x="907" 
d="M424 -10q-86 0 -150 30t-139 99v252h62v-217q63 -53 113 -78t120 -25q125 0 198 85q72 85 72 213t-65 212q-66 84 -203 177q-137 92 -205 182q-67 90 -67 236t76 237q76 92 217 92q84 0 144 -30t142 -97v-250h-61v221q-121 96 -228 96t-162 -75q-54 -76 -54 -198t60 -200
t197 -171t209 -189t72 -253t-92 -253t-256 -96zM631 2017l-240 -340h-82q180 258 240 340h82z" />
    <glyph glyph-name="sacute" unicode="&#x15b;" horiz-adv-x="782" 
d="M400 -10q-131 0 -283 110v250h61v-215q119 -82 238 -82q84 -1 131 61t47 160t-52 156t-159 107q-221 98 -221 319q0 110 60 178t176 68t223 -94v-248h-62v221q-78 59 -164 59t-127 -52t-41 -132q0 -182 179 -260q129 -59 192 -130q62 -71 64 -196q2 -124 -64 -202
t-198 -78zM539 1673q-20 -31 -238 -340h-84q59 82 240 340h82z" />
    <glyph glyph-name="Scedilla" unicode="&#x15e;" horiz-adv-x="907" 
d="M197 154q123 -103 211 -103q48 0 59 2v2l2 -2q107 15 169 97t62 204t-65 207q-66 84 -203 177q-137 92 -205 182q-67 90 -67 236t76 237q76 92 217 92q84 0 144 -30t142 -97v-250h-61v221q-121 96 -228 96t-162 -75q-54 -76 -54 -198t60 -200t197 -171t209 -189t72 -240
t-66 -236q-66 -91 -190 -118q-2 -4 -14 -36t-21 -48q8 2 25 2q61 0 93 -47t32 -122t-40 -119t-109 -44t-122 45l15 23l14 24q41 -34 89 -34q93 1 92 108t-66 107q-29 0 -55 -27l-50 49q27 63 43 111h-18q-86 0 -150 30t-139 99v252h62v-217z" />
    <glyph glyph-name="scedilla" unicode="&#x15f;" horiz-adv-x="782" 
d="M384 -430q-68 0 -124 43l29 49q41 -35 96 -35q84 1 84 107t-66 106q-31 0 -55 -24l-49 49l49 129q-106 16 -231 106v250h61v-215q119 -82 238 -82q84 -1 131 61t47 160t-52 156t-159 107q-221 98 -221 319q0 110 60 178t176 68t223 -94v-248h-62v221q-78 59 -164 59
t-127 -52t-41 -132q0 -182 179 -260q129 -59 192 -130q62 -71 64 -195q2 -125 -62 -201t-182 -80q-16 -43 -37 -92q8 2 25 2q61 0 93 -46q31 -46 31 -121t-40 -119q-38 -44 -106 -44z" />
    <glyph glyph-name="Scaron" unicode="&#x160;" horiz-adv-x="911" 
d="M426 -10q-86 0 -150 30t-139 99v252h62v-215q67 -55 115 -80t118 -25q125 0 198 85q72 85 72 212t-64 212q-65 85 -202 178q-137 92 -205 182q-67 90 -67 236t75 237q75 92 216 92q84 0 144 -30t142 -97v-250h-61v223q-120 94 -228 94q-108 1 -162 -75t-54 -198t60 -199
t197 -171t209 -190t72 -253t-92 -253t-256 -96zM424 1677q-64 96 -240 340h84q72 -100 203 -288q131 188 203 288h84q-135 -186 -240 -340h-94z" />
    <glyph glyph-name="scaron" unicode="&#x161;" horiz-adv-x="798" 
d="M410 -10q-131 0 -283 110v250h61v-215q119 -82 238 -82q84 -1 131 61t47 160t-52 156t-159 107q-221 98 -221 319q0 110 60 178t177 68t222 -94v-248h-62v221q-78 59 -164 59q-87 0 -127 -52t-40 -132q0 -182 178 -260q129 -59 192 -130q62 -71 64 -196q2 -124 -64 -202
t-198 -78zM340 1333q-37 51 -120 170t-120 170h84q154 -219 203 -291q49 72 203 291h84q-59 -82 -240 -340h-94z" />
    <glyph glyph-name="Tcommaaccent" unicode="&#x162;" horiz-adv-x="1077" 
d="M647 -156l-155 -350h-70l135 350h90zM266 0v61h238v1352h-350v-213h-62v279h895v-279h-61v213h-351v-1352h234v-61h-543z" />
    <glyph glyph-name="tcommaaccent" unicode="&#x163;" horiz-adv-x="645" 
d="M481 -170l-155 -350h-68l133 350h90zM412 -10q-100 0 -144 80q-43 80 -43 229v666h-186v61h186v268l37 21l35 18v-307h307v-61h-307v-664q0 -121 28 -183t95 -62t141 53l33 -58q-82 -61 -182 -61z" />
    <glyph glyph-name="Tcaron" unicode="&#x164;" horiz-adv-x="1077" 
d="M266 0v61h238v1352h-350v-213h-62v279h895v-279h-61v213h-351v-1352h234v-61h-543zM823 2021l-237 -340h-94q-59 82 -240 340h82q30 -41 100 -141t105 -149q49 70 202 290h82z" />
    <glyph glyph-name="tcaron" unicode="&#x165;" horiz-adv-x="645" 
d="M412 -10q-100 0 -144 80q-43 80 -43 229v731h-186v62h186v202l37 21l35 18v-241h109l118 307h90l-137 -307h127v-62h-307v-729q0 -121 28 -183t95 -62t141 53l33 -58q-82 -61 -182 -61z" />
    <glyph glyph-name="Umacron" unicode="&#x16a;" horiz-adv-x="1361" 
d="M1077 543q0 -265 -90 -409t-307 -144t-307 145t-90 420v862h-232v62h541v-62h-242v-850q0 -382 172 -474q68 -36 164 -36q324 0 324 475v885h-238v62h543v-62h-238v-874zM844 1690h-326v61h326v-61z" />
    <glyph glyph-name="umacron" unicode="&#x16b;" horiz-adv-x="1085" 
d="M776 0v190q-102 -201 -254 -200q-272 0 -272 395v645h-238v62h307v-703q0 -338 213 -338q78 0 141 77q62 77 103 183v719h-235v62h307v-1031h221v-61h-293zM680 1341h-324v60h324v-60z" />
    <glyph glyph-name="Uring" unicode="&#x16e;" horiz-adv-x="1361" 
d="M1077 543q0 -265 -90 -409t-307 -144t-307 145t-90 420v862h-232v62h541v-62h-242v-850q0 -382 172 -474q68 -36 164 -36q324 0 324 475v885h-238v62h543v-62h-238v-874zM573 1936q0 -185 115 -185q121 0 121 185t-123 186q-113 -1 -113 -186zM508 1936q0 110 44 178
t135 68t139 -68t48 -179t-47 -177t-138 -66t-136 67t-45 177z" />
    <glyph glyph-name="uring" unicode="&#x16f;" horiz-adv-x="1085" 
d="M776 0v190q-102 -201 -254 -200q-272 0 -272 395v645h-238v62h307v-703q0 -338 213 -338q78 0 141 77q62 77 103 183v719h-235v62h307v-1031h221v-61h-293zM410 1588q0 -185 118 -185t117 185q0 185 -123 186q-112 -1 -112 -186zM346 1588q0 110 43 176t135 67
q92 0 140 -67q48 -68 47 -178q0 -110 -46 -176q-45 -66 -137 -67t-137 67t-45 178z" />
    <glyph glyph-name="Uhungarumlaut" unicode="&#x170;" horiz-adv-x="1361" 
d="M1077 543q0 -265 -90 -409t-307 -144t-307 145t-90 420v862h-232v62h541v-62h-242v-850q0 -382 172 -474q68 -36 164 -36q324 0 324 475v885h-238v62h543v-62h-238v-874zM956 2023l-153 -348h-70l135 348h88zM739 2023l-155 -348h-70l135 348h90z" />
    <glyph glyph-name="uhungarumlaut" unicode="&#x171;" horiz-adv-x="1085" 
d="M776 0v190q-102 -201 -254 -200q-272 0 -272 395v645h-238v62h307v-703q0 -338 213 -338q78 0 141 77q62 77 103 183v719h-235v62h307v-1031h221v-61h-293zM795 1675l-156 -350h-70l136 350h90zM575 1675l-153 -350h-70l135 350h88z" />
    <glyph glyph-name="Uogonek" unicode="&#x172;" horiz-adv-x="1361" 
d="M692 -385q-66 0 -106 56q-40 57 -39 153q0 96 82 168q-129 12 -208 88t-109 192t-29 283v862h-232v62h541v-62h-242v-850q0 -382 172 -474q68 -36 164 -36q324 0 324 475v885h-238v62h543v-62h-238v-874q0 -259 -84 -401t-282 -152q-100 -70 -101 -174q0 -139 95 -140
q37 0 86 45q10 -14 18 -22l18 -18q-69 -66 -135 -66z" />
    <glyph glyph-name="uogonek" unicode="&#x173;" horiz-adv-x="1085" 
d="M806 -381q-66 0 -105 56q-40 56 -39 145q0 125 114 203v167q-102 -201 -254 -200q-272 0 -272 395v645h-238v62h307v-703q0 -338 213 -338q78 0 141 77q62 77 103 183v719h-235v62h307v-1031h221v-61h-235q-109 -74 -109 -180q0 -139 94 -139q39 0 86 43l37 -39
q-70 -66 -136 -66z" />
    <glyph glyph-name="Ydieresis" unicode="&#x178;" horiz-adv-x="1161" 
d="M-14 1417v62h546v-62h-229q45 -109 137 -325t138 -326q100 217 292 651h-227v62h547v-62h-244q-172 -375 -330 -727v-629h234v-61h-543v61h232v629l-312 727h-241zM673 1679q-42 0 -42 40t42 40t42 -40t-42 -40zM479 1679q-43 0 -43 40t43 40t43 -40t-43 -40z" />
    <glyph glyph-name="Zacute" unicode="&#x179;" horiz-adv-x="1021" 
d="M942 0h-864v61l717 1356h-592v-215h-62v277h738v-62q-292 -553 -415 -781q-122 -230 -157 -296t-54 -102t-93 -177h721v215h61v-276zM340 1681l240 340h82q-20 -31 -238 -340h-84z" />
    <glyph glyph-name="zacute" unicode="&#x17a;" horiz-adv-x="837" 
d="M739 0h-639v61q138 259 232 441t129 246t65 124q31 60 82 158h-420v-215h-59v277h565v-62q-137 -260 -232 -441t-122 -231q-26 -50 -52 -99q-26 -48 -39 -74t-65 -124h494v215h61v-276zM571 1671q-20 -31 -237 -340h-84q59 82 239 340h82z" />
    <glyph glyph-name="Zdotaccent" unicode="&#x17b;" horiz-adv-x="1021" 
d="M942 0h-864v61l717 1356h-592v-215h-62v277h738v-62q-292 -553 -415 -781q-122 -230 -157 -296t-54 -102t-93 -177h721v215h61v-276zM539 1718q0 -39 -43 -39t-43 39t43 39t43 -39z" />
    <glyph glyph-name="zdotaccent" unicode="&#x17c;" horiz-adv-x="837" 
d="M739 0h-639v61q138 259 232 441t129 246t65 124q31 60 82 158h-420v-215h-59v277h565v-62q-137 -260 -232 -441t-122 -231q-26 -50 -52 -99q-26 -48 -39 -74t-65 -124h494v215h61v-276zM406 1329q-43 0 -44 39q0 39 44 39t43 -39q0 -39 -43 -39z" />
    <glyph glyph-name="Zcaron" unicode="&#x17d;" horiz-adv-x="1021" 
d="M942 0h-864v61l717 1356h-592v-215h-62v277h738v-62q-292 -553 -415 -781q-122 -230 -157 -296t-54 -102t-93 -177h721v215h61v-276zM784 2021l-237 -340h-94q-59 82 -240 340h82q61 -88 205 -288q133 184 202 288h82z" />
    <glyph glyph-name="zcaron" unicode="&#x17e;" horiz-adv-x="847" 
d="M743 0h-639v61q138 259 232 441t129 246t65 124q31 60 82 158h-419v-215h-60v277h565v-62q-137 -260 -232 -441t-122 -231q-26 -50 -52 -99q-26 -48 -39 -74t-65 -124h494v215h61v-276zM698 1671q-169 -246 -237 -340h-94q-59 82 -240 340h82q126 -178 205 -291
q49 72 202 291h82z" />
    <glyph glyph-name="florin" unicode="&#x192;" horiz-adv-x="628" 
d="M78 -78q106 0 133 211q23 156 64 466q42 310 65 464h-143v59h151q26 173 43 306q34 274 195 274q14 0 51 -8l-12 -62q-25 4 -33 4q-102 0 -125 -194q-8 -69 -45 -320h158v-59h-166q-20 -158 -64 -471q-44 -312 -64 -450q-39 -280 -202 -281q-23 0 -51 6l12 59
q12 -4 33 -4z" />
    <glyph glyph-name="Scommaaccent" unicode="&#x218;" horiz-adv-x="907" 
d="M553 -160l-154 -350h-69l135 350h88zM424 -10q-86 0 -150 30t-139 99v252h62v-217q63 -53 113 -78t120 -25q125 0 198 85q72 85 72 213t-65 212q-66 84 -203 177q-137 92 -205 182q-67 90 -67 236t76 237q76 92 217 92q84 0 144 -30t142 -97v-250h-61v221
q-121 96 -228 96t-162 -75q-54 -76 -54 -198t60 -200t197 -171t209 -189t72 -253t-92 -253t-256 -96z" />
    <glyph glyph-name="scommaaccent" unicode="&#x219;" horiz-adv-x="782" 
d="M449 -176l-154 -350h-70l135 350h89zM400 -10q-131 0 -281 110v250h61v-215q124 -82 222 -82q98 -1 145 61t47 158v4q0 98 -52 154t-159 107q-219 96 -219 319q0 110 59 178t176 68t224 -94v-248h-62v219q-80 61 -166 61t-127 -52t-41 -132q0 -182 179 -260
q129 -59 192 -130q62 -71 64 -197q2 -127 -64 -203t-198 -76z" />
    <glyph glyph-name="circumflex" unicode="&#x2c6;" horiz-adv-x="1017" 
d="M16 1210l240 340h94q180 -258 240 -340h-84q-16 25 -203 291q-186 -266 -203 -291h-84z" />
    <glyph glyph-name="caron" unicode="&#x2c7;" horiz-adv-x="796" 
d="M256 1206q-37 51 -120 170t-120 170h84q72 -100 203 -289q131 188 203 289h84q-59 -82 -240 -340h-94z" />
    <glyph glyph-name="breve" unicode="&#x2d8;" horiz-adv-x="626" 
d="M444 1511q0 -119 -58 -189t-161 -69q-104 0 -155 70t-52 190h68q0 -90 35 -145t107 -55t110 54q37 54 37 144h69z" />
    <glyph glyph-name="dotaccent" unicode="&#x2d9;" horiz-adv-x="966" 
d="M498 1370q0 -39 -43 -39t-43 39t43 39t43 -39z" />
    <glyph glyph-name="ring" unicode="&#x2da;" horiz-adv-x="540" 
d="M201 1540q-113 0 -113 -185t115 -186q121 -1 121 185t-123 186zM23 1354q0 112 44 178t135 66t139 -68q48 -66 48 -176t-47 -178t-138 -68t-136 68t-45 178z" />
    <glyph glyph-name="ogonek" unicode="&#x2db;" horiz-adv-x="507" 
d="M45 -197q0 145 168 236q4 -6 27 -41q-131 -80 -131 -195q0 -139 94 -139q35 0 86 43l37 -39q-70 -66 -136 -66t-105 57q-40 56 -40 144z" />
    <glyph glyph-name="tilde" unicode="&#x2dc;" horiz-adv-x="821" 
d="M436 1231q-55 -1 -88 27t-53 60t-42 68q-22 37 -42 44q-20 8 -37 8q-56 -2 -76 -48t-28 -98t-9 -59l-24 10l-27 8q16 121 49 183t105 63q72 0 110 -51q14 -18 38 -55t36 -53q35 -45 88 -46q51 0 76 88q8 32 14 68t9 45l53 -16q-2 -10 -6 -37t-6 -37t-8 -34q-5 -24 -9 -33
q-4 -8 -12 -28t-32 -48t-79 -29z" />
    <glyph glyph-name="hungarumlaut" unicode="&#x2dd;" horiz-adv-x="784" 
d="M610 1782l-155 -350h-70l135 350h90zM391 1782l-153 -350h-70l135 350h88z" />
    <glyph glyph-name="pi" unicode="&#x3c0;" horiz-adv-x="1071" 
d="M764 45v1094h-447v-1094h-67v1094h-215v67h995v-67h-196v-1094h-70z" />
    <glyph glyph-name="endash" unicode="&#x2013;" horiz-adv-x="907" 
d="M743 526h-579v66h579v-66z" />
    <glyph glyph-name="emdash" unicode="&#x2014;" horiz-adv-x="1294" 
d="M1133 526h-971v66h971v-66z" />
    <glyph glyph-name="quoteleft" unicode="&#x2018;" horiz-adv-x="491" 
d="M158 1155l155 350h70l-135 -350h-90z" />
    <glyph glyph-name="quoteright" unicode="&#x2019;" horiz-adv-x="489" 
d="M383 1479l-156 -351h-69l135 351h90z" />
    <glyph glyph-name="quotesinglbase" unicode="&#x201a;" horiz-adv-x="448" 
d="M283 76l-154 -350h-70l136 350h88z" />
    <glyph glyph-name="quotedblleft" unicode="&#x201c;" horiz-adv-x="565" 
d="M94 1370l156 350h69l-135 -350h-90zM313 1370l154 350h70l-134 -350h-90z" />
    <glyph glyph-name="quotedblright" unicode="&#x201d;" horiz-adv-x="387" 
d="M451 1782l-154 -350h-70l135 350h89zM233 1782l-155 -350h-68l133 350h90z" />
    <glyph glyph-name="quotedblbase" unicode="&#x201e;" horiz-adv-x="667" 
d="M502 76l-156 -350h-70l136 350h90zM283 76l-154 -350h-70l136 350h88z" />
    <glyph glyph-name="dagger" unicode="&#x2020;" horiz-adv-x="1124" 
d="M1059 879h-461v-1491h-70v1491h-462v67h462v539h70v-539h461v-67z" />
    <glyph glyph-name="daggerdbl" unicode="&#x2021;" horiz-adv-x="1255" 
d="M1124 -57h-462v-555h-68v555h-463v67h463v869h-463v67h463v539h68v-539h462v-67h-462v-869h462v-67z" />
    <glyph glyph-name="bullet" unicode="&#x2022;" horiz-adv-x="575" 
d="M373 901q0 -78 -85 -78t-85 78q1 35 23 57t61 21q86 0 86 -78z" />
    <glyph glyph-name="ellipsis" unicode="&#x2026;" horiz-adv-x="964" 
d="M490 74q42 0 42 -40t-42 -40t-41 41q-1 39 41 39zM763 -6q-42 0 -42 40t42 40t42 -40t-42 -40zM201 -6q-43 0 -43 40t43 40t43 -40t-43 -40z" />
    <glyph glyph-name="perthousand" unicode="&#x2030;" horiz-adv-x="2101" 
d="M1556 254q0 -296 100 -359q42 -28 105 -28q127 0 162 108t35 274q0 165 -41 261t-156 96h-4q-82 0 -128 -53q-45 -53 -59 -127q-14 -72 -14 -172zM922 208q0 -146 43 -244t161 -97q118 0 159 97q40 98 40 274t-41 272t-158 96h-4q-82 0 -128 -53t-59 -127
q-13 -72 -13 -218zM1491 238q0 428 268 428q269 0 269 -428t-268 -428t-269 428zM858 238q0 428 267 428t267 -428t-266 -428q-268 0 -268 428zM143 1098q0 -146 43 -243t164 -97q82 0 127 55t57 128q11 73 11 218t-41 241t-156 97h-4q-82 0 -128 -53t-60 -127
q-14 -73 -13 -219zM477 -180h-76l615 1722h76zM78 1128q0 428 268 428t268 -428t-268 -428t-268 428z" />
    <glyph glyph-name="guilsinglleft" unicode="&#x2039;" horiz-adv-x="692" 
d="M514 301l-373 231v70q3 4 185 118t186 116v-70q-68 -45 -315 -199q279 -172 317 -198v-68z" />
    <glyph glyph-name="guilsinglright" unicode="&#x203a;" horiz-adv-x="692" 
d="M178 301v68q39 27 318 198q-248 154 -316 199v70q4 -2 186 -116t185 -118v-70q-5 -2 -187 -116t-186 -115z" />
    <glyph glyph-name="fraction" unicode="&#x2044;" horiz-adv-x="731" 
d="M94 -180h-74l615 1722h76z" />
    <glyph glyph-name="foursuperior" unicode="&#x2074;" horiz-adv-x="831" 
d="M442 887v467l-274 -467h274zM272 594v53h170v187h-305l-37 53l342 594h64v-594h174v-53h-174v-187h176v-53h-410z" />
    <glyph glyph-name="Euro" unicode="&#x20ac;" horiz-adv-x="1183" 
d="M666 -10q-393 0 -443 532h-119v64h115q-4 38 -4 102t4 150h-117v65h121q53 586 475 586q162 0 336 -148v-245h-63v219q-137 109 -277 108q-192 0 -284 -137t-115 -383h430v-65h-434q-4 -43 -4 -128t4 -124h434v-64h-430q20 -219 107 -341t268 -122q108 0 186 45t158 140
q23 -23 24 -23l23 -24q-92 -103 -181 -155t-214 -52z" />
    <glyph glyph-name="trademark" unicode="&#x2122;" horiz-adv-x="1515" 
d="M705 1337v56h176q45 -264 112 -680q80 489 109 680h184v-56h-117q36 -314 78 -719h109v-57h-269v57h97q-21 227 -58 570q-87 -543 -98 -619h-70q-16 100 -50 301t-50 301q-16 -184 -53 -553h98v-57h-270v57h108l74 719h-110zM438 618h105v-57h-275v57h105v719h-168v-145
h-60v201h508v-201h-59v145h-156v-719z" />
    <glyph glyph-name="estimated" unicode="&#x212e;" horiz-adv-x="1300" 
d="M731 -10q-342 0 -514 262v-29l-106 252l-11 80q8 -33 13 -47q-27 115 -29 244h-2v61h2q0 7 1 21t1 20l-8 -39q6 109 31 201q-14 -61 -23 -162l47 238q-16 -39 -24 -76q12 63 32 112l2 13l74 151v-18q149 209 431 209t433 -197v10l25 -45q20 -29 41 -75l61 -111l23 -252h6
l-4 -18v-9h-2q-8 -12 -10 -20v20h-4v-34h-1000v-463q174 -238 514 -238q121 0 246 52t197 139q18 -18 30 -22t19 -9q-105 -105 -237 -163t-255 -58zM1217 819v-6h4v12q0 109 -25 199q21 -88 21 -205zM648 1421q-278 0 -431 -186v-422h864v434q-155 174 -433 174zM78 776
q0 -37 2 -53l-8 57l6 35v-39zM100 555q-16 72 -20 168z" />
    <glyph glyph-name="partialdiff" unicode="&#x2202;" horiz-adv-x="903" 
d="M397 51q163 0 219 143q48 118 54 341q-55 283 -258 282q-117 1 -175 -107t-59 -276q0 -383 219 -383zM395 -10q-149 0 -217 121t-68 319t72 321q72 124 228 123q180 0 260 -167q-2 49 -2 146q0 308 -36 416q-36 107 -104 140q-41 20 -96 21q-90 0 -160 -89l-20 21l-23 20
q90 109 217 109t192 -91t81 -228t16 -314v-213q0 -403 -84 -529q-35 -54 -99 -90t-157 -36z" />
    <glyph glyph-name="product" unicode="&#x220f;" horiz-adv-x="1406" 
d="M86 0v61h233v1516h-229v61h1227v-61h-236v-1516h238v-61h-543v61h234v1516h-617v-1516h236v-61h-543z" />
    <glyph glyph-name="summation" unicode="&#x2211;" horiz-adv-x="819" 
d="M688 250v-250h-598v59l457 727l-455 631v62h594v-250h-63v188h-453l455 -631l-463 -727h461v191h65zM623 59q12 -12 32 -28z" />
    <glyph glyph-name="minus" unicode="&#x2212;" horiz-adv-x="1325" 
d="M1159 600h-993v68h993v-68z" />
    <glyph glyph-name="divisionslash" unicode="&#x2215;" horiz-adv-x="700" 
d="M80 -180h-74l615 1722h75z" />
    <glyph glyph-name="bulletoperator" unicode="&#x2219;" horiz-adv-x="497" 
d="M334 901q0 -78 -85 -78t-85 78q0 35 22 57t60 21q88 0 88 -78z" />
    <glyph glyph-name="radical" unicode="&#x221a;" horiz-adv-x="1038" 
d="M90 575v62h303q72 -268 78 -286q6 -19 15 -54t55 -197q286 1050 374 1379h64l-395 -1479h-82q-131 489 -156 575h-256z" />
    <glyph glyph-name="infinity" unicode="&#x221e;" horiz-adv-x="1353" 
d="M410 475q-123 -1 -195 103t-72 247t74 243t195 101q92 1 148 -65t106 -182q104 246 266 245q123 0 201 -100q77 -101 77 -243t-76 -244t-188 -102q-110 0 -172 71q-61 72 -108 196q-50 -129 -106 -199t-150 -71zM940 537q84 0 142 87q58 88 58 202t-58 198
q-60 84 -146 84t-140 -75t-98 -197q62 -176 110 -238t132 -61zM410 535q57 0 99 42q59 59 103 195q16 52 21 62q-29 84 -52 134q-24 50 -69 95t-98 45h-4q-90 0 -142 -83t-53 -200t51 -203t144 -87z" />
    <glyph glyph-name="integral" unicode="&#x222b;" horiz-adv-x="649" 
d="M72 -139q-23 0 -49 6l12 61q20 -4 28 -4q109 0 138 214t89 652t89 654q18 118 67 188t129 70q14 0 52 -8l-6 -31l-9 -31q-20 4 -28 4q-49 0 -84 -55q-34 -55 -54 -197t-80 -584q-60 -441 -94 -675q-18 -121 -68 -193t-132 -71z" />
    <glyph glyph-name="approxequal" unicode="&#x2248;" horiz-adv-x="1095" 
d="M718 506q78 0 112 67q5 10 13 34q7 24 10 33t9 36t8 35l60 -15q-38 -163 -81 -207q-42 -43 -114 -43q-71 0 -115 29t-90 83t-73 75q-29 20 -66 20q-92 0 -124 -91q-17 -52 -29 -116l-60 17q23 125 68 188t143 64q59 0 99 -27t92 -86q39 -49 72 -73q34 -23 66 -23z
M203 777q0 1 -29 7q23 126 67 190t142 64q59 0 101 -28t89 -86q76 -95 154 -95q47 0 72 32t35 63t13 40q3 10 9 36t8 34l60 -14q-41 -193 -115 -234q-35 -18 -93 -18t-102 30q-45 30 -90 84t-73 74q-29 20 -66 20q-90 1 -124 -91q-11 -34 -30 -117l-21 6q-7 2 -7 3z" />
    <glyph glyph-name="notequal" unicode="&#x2260;" horiz-adv-x="1198" 
d="M1055 414h-502l-131 -361h-72l129 361h-332v63h355l141 391h-496v64h519l131 362h73l-131 -362h316v-64h-338l-142 -391h480v-63z" />
    <glyph glyph-name="lessequal" unicode="&#x2264;" horiz-adv-x="1181" 
d="M1028 0h-893v63h893v-63zM1028 256q-475 283 -893 532v78q150 90 447 266t446 267v-72q-662 -395 -835 -500q465 -279 835 -499v-72z" />
    <glyph glyph-name="greaterequal" unicode="&#x2265;" horiz-adv-x="1181" 
d="M152 0v63h895v-63h-895zM154 1399l890 -533v-78q-370 -223 -890 -532v72q371 221 835 499q-174 104 -835 500v72z" />
    <glyph glyph-name="lozenge" unicode="&#x25ca;" horiz-adv-x="772" 
d="M168 952q125 -346 217 -598q166 455 219 598q-109 291 -219 598q-127 -344 -217 -598zM674 952q-88 -243 -254 -696h-72q-168 463 -252 696l252 697h72q129 -356 254 -697z" />
    <glyph glyph-name="commaaccent" unicode="&#xf6c3;" horiz-adv-x="569" 
d="M369 150l-154 -351h-70l136 351h88z" />
    <glyph glyph-name="fi" unicode="&#xfb01;" horiz-adv-x="993" 
d="M492 63v-63h-439v63h236v973h-228v60h228v129q0 424 344 424q78 0 153 -35v-221h-75v178q-33 16 -87 16q-228 0 -254 -256q-5 -49 -5 -114v-121h417l2 2v-1035h181v-63h-385v63h131v973h-346v-973h127z" />
    <glyph glyph-name="fl" unicode="&#xfb02;" horiz-adv-x="1757" 
d="M1313 63h381v-63h-699v63h246v973h-586v-973h250v-63h-688v63h365v973h-476v60h476v125q0 199 130 313t343 113q135 0 258 -33v-1551zM1059 1587q-182 0 -293 -99t-111 -271v-121h586v473q-72 18 -182 18z" />
    <glyph glyph-name="tcedilla" horiz-adv-x="645" 
d="M400 -430q-69 0 -121 45l28 47q41 -33 96 -33q84 0 84 107t-63 106q-31 0 -57 -26l-50 49q31 82 52 131q-143 35 -144 303v731h-186v62h186v202l37 21l35 18v-241h307v-62h-307v-729q0 -121 28 -183t95 -62t141 53l33 -58q-74 -55 -158 -61q-31 -80 -35 -90q6 2 23 2
q61 0 93 -47t32 -122t-40 -119t-109 -44z" />
    <glyph glyph-name="Tcedilla" horiz-adv-x="1077" 
d="M568 -416q-69 0 -122 45l15 23l14 24q39 -33 96 -32q84 0 84 106t-65 107q-29 0 -55 -27l-50 49q43 111 47 121h-266v61h238v1352h-350v-213h-62v279h895v-279h-61v213h-351v-1352h234v-61h-205q-18 -41 -37 -86q8 2 25 2q61 0 93 -47t32 -122t-40 -119t-109 -44z" />
    <glyph glyph-name="softhyphen" horiz-adv-x="780" 
d="M616 555h-452v66h452v-66z" />
    <glyph glyph-name="litre" horiz-adv-x="638" 
d="M49 0v61h234v1516h-232v61h303v-1577h238v-61h-543z" />
    <glyph glyph-name="ruble" horiz-adv-x="1026" 
d="M563 1417h-147v-612h149q154 0 228 71q73 72 73 228t-72 234t-231 79zM111 0v61h233v332h-143v64h143v284h-143v64h143v612h-233v62h460q187 1 277 -93t90 -281t-89 -273t-276 -91h-157v-284h346v-64h-346v-332h237v-61h-542z" />
    <glyph glyph-name="nullsuperior" horiz-adv-x="829" 
d="M213 984q0 -144 43 -242t161 -99q117 0 157 97q40 98 40 274t-41 272t-155 96h-4q-82 0 -128 -53t-60 -127t-13 -218zM147 1014q-1 428 267 428t268 -428t-268 -428t-267 428z" />
    <glyph glyph-name="omegamath" horiz-adv-x="1222" 
d="M145 707q0 782 467 782t467 -776q0 -207 -41 -362t-145 -290h215v-61h-268l-43 61q121 135 165 287t44 365q0 715 -398 714q-393 0 -393 -720q0 -205 43 -356t158 -290l-39 -61h-266v61h219q-102 141 -144 293q-41 152 -41 353z" />
    <glyph glyph-name="apostrophemod" horiz-adv-x="569" 
d="M393 1479l-153 -351h-70l133 351h90z" />
    <glyph glyph-name="mumath" horiz-adv-x="1185" 
d="M576 -10q-144 0 -211 94v-698h-72v1644h-236v62h308v-703q0 -336 213 -336q78 0 140 76t103 182v719h-235v62h307v-1031h221v-61h-293v193q-101 -203 -245 -203z" />
    <glyph glyph-name="macronmod" horiz-adv-x="534" 
d="M428 1333h-324v62h324v-62z" />
    <glyph glyph-name="turkishlira" horiz-adv-x="1232" 
d="M115 0v61h233v725h-170v64h170v254h-172v63h172v250h-233v62h544v-62h-241v-250h381v-63h-381v-254h381v-64h-381v-725h219q240 0 340 190t98 478h72q0 -526 -276 -675q-101 -54 -240 -54h-516z" />
    <glyph glyph-name="rupee" horiz-adv-x="1181" 
d="M0 0v41h1182v-41h-1182z" />
    <glyph glyph-name="deltamath" horiz-adv-x="1234" 
d="M135 68h963l-467 1476zM1171 0h-1110v68l533 1581h78l499 -1581v-68z" />
    <glyph glyph-name="logo" horiz-adv-x="2820" 
d="M2406 -12q-86 0 -149 30t-139 99v252h61v-217q66 -51 115 -76t119 -25q125 0 197 84t73 212q0 128 -66 214q-65 86 -203 178q-138 91 -205 181t-67 234t76 237q76 92 217 92q84 0 144 -30t143 -97v-250h-62v223q-124 94 -230 94q-106 1 -160 -75t-54 -197t60 -200
t198 -172t209 -189q72 -96 72 -253q-1 -157 -93 -253t-256 -96zM248 0v61h237v1352h-352v-213h-59v279h893v-279h-60v213h-350v-1352h234v-61h-543zM1530 1417h-193v-1356h219q436 0 437 664q0 692 -463 692zM1032 0v61h234v1356h-234v62h502q404 0 502 -451
q29 -133 28 -299q0 -337 -122 -533t-392 -196h-518z" />
    </font>
</defs>
</svg>
