<?xml version="1.0" standalone="no"?>
<!DOCTYPE svg PUBLIC "-//W3C//DTD SVG 1.1//EN" "http://www.w3.org/Graphics/SVG/1.1/DTD/svg11.dtd" >
<svg xmlns="http://www.w3.org/2000/svg" xmlns:xlink="http://www.w3.org/1999/xlink" version="1.1">
<metadata>
Created by FontForge 20141219 at Thu Feb 19 09:37:27 2015
 By Simon Egli
Copyright 2015 Simon Egli
</metadata>
<defs>
<font id="Sean" horiz-adv-x="902" >
  <font-face 
    font-family="Slab"
    font-weight="120"
    font-stretch="extra-condensed"
    units-per-em="1000"
    panose-1="2 0 6 3 0 0 0 0 0 0"
    ascent="800"
    descent="-200"
    x-height="533"
    cap-height="722"
    bbox="-43 -332 2457 1081"
    underline-thickness="0"
    underline-position="0"
    unicode-range="U+0020-FB02"
  />
    <missing-glyph />
    <glyph glyph-name="A" unicode="A" horiz-adv-x="1122" 
d="M554.406 667.021c61.9964 -124.737 123.038 -249.93 183.965 -375.021h-389.108c67.9444 125.091 135.952 250.284 205.143 375.021zM527 722h-2c-124.545 -223.995 -252.546 -447.127 -377.578 -671l-174.422 -5.68434e-14v-51h146h51h20h192v51h-164.008
c34.2777 62.5738 68.3903 125.264 102.479 188h443.713c30.5581 -62.736 61.1171 -125.426 91.7829 -188h-167.967v-51h193h19h50h148v51h-173.444c-111.899 223.873 -226.023 447.005 -337.556 671h-2h-58z" />
    <glyph glyph-name="AE" unicode="&#xc6;" horiz-adv-x="1310" 
d="M697 0h540v25v26v94h-52v-94h-488v297h411v51h-411v273h443v-95h52v95v25v25h-482h-13h-31h-17h-3h-14h-164v-50h141.712l-450.698 -621h-181.014v-51h144h54h19h193v51h-156.622l107.708 151h292.914v-151h-164v-51h164h17h17h31zM632 612.649v-357.649
l-255.109 2.84217e-14z" />
    <glyph glyph-name="Aacute" unicode="&#xc1;" horiz-adv-x="1121" 
d="M503 833c73 56 147 111 220 166h-88c-74 -55 -147 -111 -220 -166h88zM553.93 667.589c61.7216 -124.925 122.964 -250.308 184.148 -375.589h-389.093c68.1466 125.28 136.087 250.664 204.945 375.589zM527 722h-2c-125.475 -223.995 -252.677 -447.127 -377.592 -671
l-175.408 -5.68434e-14v-51h147h51h19h193v51h-164.811c34.5013 62.5738 68.7696 125.264 102.946 188h443.828c30.6449 -62.736 61.2903 -125.426 91.9891 -188h-167.953v-51h193h19h50h147v51h-172.627c-112.584 223.873 -225.91 447.005 -338.373 671h-2h-57z" />
    <glyph glyph-name="Abreve" unicode="&#x102;" horiz-adv-x="1121" 
d="M691 961c0 -66 -61 -83 -136 -83c-74 0 -133 19 -133 84h-62c0 -99 83 -134 192 -134c114 0 200 32 200 133h-61zM553.93 667.589c61.7216 -124.925 122.964 -250.308 184.148 -375.589h-389.093c68.1466 125.28 136.087 250.664 204.945 375.589zM527 722h-2
c-125.475 -223.995 -252.677 -447.127 -377.592 -671l-175.408 -5.68434e-14v-51h147h51h19h193v51h-164.811c34.5013 62.5738 68.7696 125.264 102.946 188h443.828c30.6449 -62.736 61.2903 -125.426 91.9891 -188h-167.953v-51h193h19h50h147v51h-172.627
c-112.584 223.873 -225.91 447.005 -338.373 671h-2h-57z" />
    <glyph glyph-name="Acircumflex" unicode="&#xc2;" horiz-adv-x="1121" 
d="M823 833c-73 55 -146 111 -220 166h-11h-77h-11c-73 -55 -147 -111 -220 -166h88c60.9927 46.1566 121.306 91.6339 181.5 136.992c60.1939 -45.3579 120.507 -90.8352 181.5 -136.992h88zM553.93 667.589c61.7216 -124.925 122.964 -250.308 184.148 -375.589h-389.093
c68.1466 125.28 136.087 250.664 204.945 375.589zM527 722h-2c-125.475 -223.995 -252.677 -447.127 -377.592 -671l-175.408 -5.68434e-14v-51h147h51h19h193v51h-164.811c34.5013 62.5738 68.7696 125.264 102.946 188h443.828
c30.6449 -62.736 61.2903 -125.426 91.9891 -188h-167.953v-51h193h19h50h147v51h-172.627c-112.584 223.873 -225.91 447.005 -338.373 671h-2h-57z" />
    <glyph glyph-name="Adieresis" unicode="&#xc4;" horiz-adv-x="1121" 
d="M606 855h83c0 23 -18 35 -43 35c-24 0 -40 -13 -40 -35zM606 855h83c0 -24 -18 -35 -43 -35c-24 0 -40 12 -40 35zM420 855h83c0 23 -17 35 -42 35s-41 -13 -41 -35zM420 855h83c0 -24 -17 -35 -43 -35c-24 0 -40 12 -40 35zM553.93 667.589
c61.7216 -124.925 122.964 -250.308 184.148 -375.589h-389.093c68.1466 125.28 136.087 250.664 204.945 375.589zM527 722h-2c-125.475 -223.995 -252.677 -447.127 -377.592 -671l-175.408 -5.68434e-14v-51h147h51h19h193v51h-164.811
c34.5013 62.5738 68.7696 125.264 102.946 188h443.828c30.6449 -62.736 61.2903 -125.426 91.9891 -188h-167.953v-51h193h19h50h147v51h-172.627c-112.584 223.873 -225.91 447.005 -338.373 671h-2h-57z" />
    <glyph glyph-name="Agrave" unicode="&#xc0;" horiz-adv-x="1121" 
d="M679 833c-73 55 -147 111 -220 166h-88c73 -56 146 -111 220 -166h88zM553.93 667.589c61.7216 -124.925 122.964 -250.308 184.148 -375.589h-389.093c68.1466 125.28 136.087 250.664 204.945 375.589zM527 722h-2c-125.475 -223.995 -252.677 -447.127 -377.592 -671
l-175.408 -5.68434e-14v-51h147h51h19h193v51h-164.811c34.5013 62.5738 68.7696 125.264 102.946 188h443.828c30.6449 -62.736 61.2903 -125.426 91.9891 -188h-167.953v-51h193h19h50h147v51h-172.627c-112.584 223.873 -225.91 447.005 -338.373 671h-2h-57z" />
    <glyph glyph-name="Amacron" unicode="&#x100;" horiz-adv-x="1121" 
d="M698 882h-300v-50h300v50zM553.93 667.589c61.7216 -124.925 122.964 -250.308 184.148 -375.589h-389.093c68.1466 125.28 136.087 250.664 204.945 375.589zM527 722h-2c-125.475 -223.995 -252.677 -447.127 -377.592 -671l-175.408 -5.68434e-14v-51h147h51h19h193
v51h-164.811c34.5013 62.5738 68.7696 125.264 102.946 188h443.828c30.6449 -62.736 61.2903 -125.426 91.9891 -188h-167.953v-51h193h19h50h147v51h-172.627c-112.584 223.873 -225.91 447.005 -338.373 671h-2h-57z" />
    <glyph glyph-name="Aogonek" unicode="&#x104;" horiz-adv-x="1122" 
d="M554.406 667.021c61.9964 -124.737 123.038 -249.93 183.965 -375.021h-389.108c67.9444 125.091 135.952 250.284 205.143 375.021zM527 722h-2c-124.545 -223.995 -252.546 -447.127 -377.578 -671l-174.422 -5.68434e-14v-51h146h51h20h192v51h-164.008
c34.2777 62.5738 68.3903 125.264 102.479 188h443.713c30.5581 -62.736 61.1171 -125.426 91.7829 -188h-167.967v-51l124.913 3.55271e-15c-31.2033 -17.1048 -51.9125 -40.737 -51.9125 -82c0 -70 55 -106 132 -106c43 0 73 12 112 29l-29 40c-28 -13 -48 -20 -78 -20
c-43 0 -76 18 -76 58c0 53.4817 54.7249 60.4472 108.427 81h19.5734h148v51h-173.444c-111.899 223.873 -226.023 447.005 -337.556 671h-2h-58z" />
    <glyph glyph-name="Aring" unicode="&#xc5;" horiz-adv-x="1121" 
d="M446 954c0 55 45 80 105 80c65 0 115 -21 115 -80c0 -57 -49 -79 -112 -79c-61 0 -108 23 -108 79zM387 954c0 -86 73 -126 167 -126c97 0 171 38 171 126c0 89 -75 127 -174 127c-94 0 -164 -40 -164 -127zM553.93 667.589
c61.7216 -124.925 122.964 -250.308 184.148 -375.589h-389.093c68.1466 125.28 136.087 250.664 204.945 375.589zM527 722h-2c-125.475 -223.995 -252.677 -447.127 -377.592 -671l-175.408 -5.68434e-14v-51h147h51h19h193v51h-164.811
c34.5013 62.5738 68.7696 125.264 102.946 188h443.828c30.6449 -62.736 61.2903 -125.426 91.9891 -188h-167.953v-51h193h19h50h147v51h-172.627c-112.584 223.873 -225.91 447.005 -338.373 671h-2h-57z" />
    <glyph glyph-name="Atilde" unicode="&#xc3;" horiz-adv-x="1121" 
d="M766 977c-17 -53 -40 -94 -89 -94c-45 0 -75 14 -110 43c-42 34 -76 54 -131 54c-80 0 -128 -47 -150 -126c49 -20 1 0 50 -20c17 57 48 94 102 94c40 0 64 -17 95 -43c45 -36 84 -55 142 -55c77 0 117 52 143 127c-51 19 0 0 -52 20zM553.93 667.589
c61.7216 -124.925 122.964 -250.308 184.148 -375.589h-389.093c68.1466 125.28 136.087 250.664 204.945 375.589zM527 722h-2c-125.475 -223.995 -252.677 -447.127 -377.592 -671l-175.408 -5.68434e-14v-51h147h51h19h193v51h-164.811
c34.5013 62.5738 68.7696 125.264 102.946 188h443.828c30.6449 -62.736 61.2903 -125.426 91.9891 -188h-167.953v-51h193h19h50h147v51h-172.627c-112.584 223.873 -225.91 447.005 -338.373 671h-2h-57z" />
    <glyph glyph-name="B" unicode="B" horiz-adv-x="914" 
d="M289 51v332h163h32c147 0 274 -38 274 -172c0 -118 -97 -160 -229 -160h-240zM289 0h240c171 0 294 58 294 211c0 111.609 -74.6984 170.536 -175.039 198.967c65.4297 23.336 113.039 65.0616 113.039 137.033c0 122 -97 175 -229 175h-243h-31h-14h-23h-161v-50h161
v-621h-162v-51h162h23h13h32zM289 433v239h243c91 0 164 -37 164 -125c0 -93 -108 -114 -212 -114h-32h-163z" />
    <glyph glyph-name="C" unicode="C" horiz-adv-x="941" 
d="M855 655c-95 42 -197 72 -309 72c-266 0 -448 -129 -448 -383c0 -235 170 -349 418 -349c146 0 240 29 356 98c-31 42 -32 42 -32 42c-105 -65 -194 -87 -321 -87c-210 0 -356 99 -356 298c0 216 155 328 380 328c93.3697 0 179.765 -17.4358 260 -51.4934v-102.507h52
v135z" />
    <glyph glyph-name="Cacute" unicode="&#x106;" horiz-adv-x="941" 
d="M491 833c74 56 147 111 220 166h-88c-73 -55 -147 -111 -220 -166h88zM855 655c-95 42 -197 72 -309 72c-266 0 -448 -129 -448 -383c0 -235 170 -349 418 -349c146 0 240 29 356 98c-31 42 -32 42 -32 42c-105 -65 -194 -87 -321 -87c-210 0 -356 99 -356 298
c0 216 155 328 380 328c93.3697 0 179.765 -17.4358 260 -51.4934v-102.507h52v135z" />
    <glyph glyph-name="Ccaron" unicode="&#x10c;" horiz-adv-x="941" 
d="M272 996c73 -55 147 -111 220 -166h11h77h11c74 55 147 111 220 166h-88c-60.1812 -45.342 -121.042 -90.684 -181.462 -136.586c-60.2066 45.9023 -120.533 91.2443 -181.538 136.586h-88zM855 655c-95 42 -197 72 -309 72c-266 0 -448 -129 -448 -383
c0 -235 170 -349 418 -349c146 0 240 29 356 98c-31 42 -32 42 -32 42c-105 -65 -194 -87 -321 -87c-210 0 -356 99 -356 298c0 216 155 328 380 328c93.3697 0 179.765 -17.4358 260 -51.4934v-102.507h52v135z" />
    <glyph glyph-name="Ccedilla" unicode="&#xc7;" horiz-adv-x="941" 
d="M453 -103c16 9 30 11 49 11c32 0 57 -13 57 -43c0 -35 -34 -43 -74 -43c-33 0 -59 4 -93 18l-20 -38c39 -16 69 -23 111 -23c76 0 138 20 138 87c0 61 -49 90 -115 90c-2.78878 0 -5.51756 -0.0420071 -8.19515 -0.125091
c11.1035 14.1313 21.9138 27.9374 30.4801 39.1952c139.059 1.60515 231.001 30.8847 343.715 97.9299c-31 42 -32 42 -32 42c-105 -65 -194 -87 -321 -87c-210 0 -356 99 -356 298c0 216 155 328 380 328c93.3697 0 179.765 -17.4358 260 -51.4934v-102.507h52v135
c-95 42 -197 72 -309 72c-266 0 -448 -129 -448 -383c0 -215.05 142.361 -328.772 356.582 -346.531c-17.1043 -22.2429 -35.4484 -45.8197 -46.5819 -60.469c44 -39 0 0 44 -40c0.134352 0.179136 0.269564 0.359254 0.405623 0.540342z" />
    <glyph glyph-name="D" unicode="D" horiz-adv-x="1056" 
d="M290 722h-31h-35h-162v-50h162v-621h-162v-51h162h35h31h235c268 0 438 102 438 351c0 262 -174 371 -453 371h-220zM290 672h217c241 0 393 -96 393 -322c0 -211 -143 -299 -370 -299h-240v621z" />
    <glyph glyph-name="Dcaron" unicode="&#x10e;" horiz-adv-x="1056" 
d="M219 996c73 -55 147 -111 220 -166h11h77h11c74 55 147 111 220 166h-88c-60.9927 -46.1566 -121.306 -91.6339 -181.5 -136.992c-60.1939 45.3579 -120.507 90.8352 -181.5 136.992h-88zM290 722h-31h-35h-162v-50h162v-621h-162v-51h162h35h31h235
c268 0 438 102 438 351c0 262 -174 371 -453 371h-220zM290 672h217c241 0 393 -96 393 -322c0 -211 -143 -299 -370 -299h-240v621z" />
    <glyph glyph-name="Dcroat" unicode="&#x110;" horiz-adv-x="1055" 
d="M289 722h-30h-35h-162v-50h162v-292h-81v-55h81v-274h-162v-51h162h35h30h235c269 0 439 102 439 351c0 262 -174 371 -453 371h-221zM289 672h217c242 0 393 -96 393 -322c0 -211 -143 -299 -369 -299h-241v274h265v55h-265v292z" />
    <glyph glyph-name="E" unicode="E" 
d="M289 0h540v25v26v94h-52v-94h-488v297h411v51h-411v273h443v-95h52v95v25v25h-495h-31h-17h-17h-163v-50h163v-621h-163v-51h163h17h17h31z" />
    <glyph glyph-name="Eacute" unicode="&#xc9;" 
d="M427 833c73 56 146 111 220 166h-88c-74 -55 -147 -111 -220 -166h88zM289 0h540v25v26v94h-52v-94h-488v297h411v51h-411v273h443v-95h52v95v25v25h-495h-31h-17h-17h-163v-50h163v-621h-163v-51h163h17h17h31z" />
    <glyph glyph-name="Ecaron" unicode="&#x11a;" 
d="M208 996c73 -55 146 -111 220 -166h10h78h10c74 55 147 111 221 166h-89c-60.1469 -45.3161 -120.294 -90.6323 -181 -136.508c-60.7062 45.8755 -120.853 91.1916 -181 136.508h-88zM289 0h540v25v26v94h-52v-94h-488v297h411v51h-411v273h443v-95h52v95v25v25h-495h-31
h-17h-17h-163v-50h163v-621h-163v-51h163h17h17h31z" />
    <glyph glyph-name="Ecircumflex" unicode="&#xca;" 
d="M747 833c-73 55 -147 111 -220 166h-11h-78h-10c-74 -55 -147 -111 -220 -166h88c60.0884 46.0952 120.854 91.5129 181.183 136.811c60.6719 -45.2979 120.906 -90.7156 181.817 -136.811h88zM289 0h540v25v26v94h-52v-94h-488v297h411v51h-411v273h443v-95h52v95v25v25
h-495h-31h-17h-17h-163v-50h163v-621h-163v-51h163h17h17h31z" />
    <glyph glyph-name="Edieresis" unicode="&#xcb;" 
d="M530 855h83c0 23 -18 35 -43 35c-24 0 -40 -13 -40 -35zM530 855h83c0 -24 -18 -35 -43 -35c-24 0 -40 12 -40 35zM344 855h83c0 23 -18 35 -43 35c-24 0 -40 -13 -40 -35zM344 855h83c0 -24 -18 -35 -43 -35c-24 0 -40 12 -40 35zM289 0h540v25v26v94h-52v-94h-488v297
h411v51h-411v273h443v-95h52v95v25v25h-495h-31h-17h-17h-163v-50h163v-621h-163v-51h163h17h17h31z" />
    <glyph glyph-name="Edotaccent" unicode="&#x116;" 
d="M436 856h83c0 23 -17 35 -42 35s-41 -13 -41 -35zM436 856h83c0 -24 -17 -35 -43 -35c-24 0 -40 12 -40 35zM289 0h540v25v26v94h-52v-94h-488v297h411v51h-411v273h443v-95h52v95v25v25h-495h-31h-17h-17h-163v-50h163v-621h-163v-51h163h17h17h31z" />
    <glyph glyph-name="Egrave" unicode="&#xc8;" 
d="M603 833c-73 55 -147 111 -221 166h-88c74 -56 147 -111 221 -166h88zM289 0h540v25v26v94h-52v-94h-488v297h411v51h-411v273h443v-95h52v95v25v25h-495h-31h-17h-17h-163v-50h163v-621h-163v-51h163h17h17h31z" />
    <glyph glyph-name="Emacron" unicode="&#x112;" 
d="M622 882h-301v-50h301v50zM289 0h540v25v26v94h-52v-94h-488v297h411v51h-411v273h443v-95h52v95v25v25h-495h-31h-17h-17h-163v-50h163v-621h-163v-51h163h17h17h31z" />
    <glyph glyph-name="Eogonek" unicode="&#x118;" horiz-adv-x="905" 
d="M677.497 2.4869e-14c-27.5643 -16.7824 -45.4971 -39.8594 -45.4971 -78c0 -71 56 -106 132 -106c44 0 73 12 112 29l-29 40c-27 -13 -47 -21 -77 -21c-44 0 -76 19 -76 59c0 49.0055 46.8399 59.11 96.6629 77h38.3371v25v26v94h-52v-94h-488v297h411v51h-411v273h443
v-95h52v95v25v25h-495h-31h-17h-17h-163v-50h163v-621h-163v-51h163h17h17h31z" />
    <glyph glyph-name="Eth" unicode="&#xd0;" horiz-adv-x="1056" 
d="M290 722h-31h-35h-162v-50h162v-292h-81v-55h81v-274h-162v-51h162h35h31h235c268 0 438 102 438 351c0 262 -174 371 -453 371h-220zM290 672h217c241 0 393 -96 393 -322c0 -211 -143 -299 -370 -299h-240v274h265v55h-265v292z" />
    <glyph glyph-name="Euro" unicode="&#x20ac;" horiz-adv-x="1061" 
d="M948 655c-95 42 -197 72 -309 72c-220.647 0 -383.496 -88.761 -432.613 -264h-126.387v-53h115.415c-2.91898 -20.9705 -4.41499 -42.9715 -4.41499 -66c0 -19.4983 1.17721 -38.1637 3.47738 -56h-114.477v-53h125.247c45.8409 -161.337 198.576 -240 403.753 -240
c146 0 240 29 357 98l-32 42c-106 -65 -195 -87 -322 -87c-166.411 0 -292.634 62.1675 -337.863 187h347.863v53h-361.493c-2.97506 18.285 -4.50664 37.618 -4.50664 58c0 22.4609 1.67601 43.7972 4.93247 64h361.068v53h-348.099
c46.8626 139.301 182.075 211 362.099 211c93.3018 0 180.51 -17.4105 260 -51.4191v-102.581h52v135z" />
    <glyph glyph-name="F" unicode="F" horiz-adv-x="867" 
d="M290 672h449v-95h52v95v25v25h-501h-32h-15h-18h-164v-50h164v-622h-164v-50h164h33h32h165v50h-165v298h403v51h-403v273z" />
    <glyph glyph-name="G" unicode="G" horiz-adv-x="1053" 
d="M891 104.285c-111.097 -42.4181 -200.892 -55.2852 -325 -55.2852c-238 0 -406 98 -406 319c0 211 163 306 391 306c120.961 0 216.917 -17.8607 325 -64.5532v-98.4468h52v132c-127 60 -238 84 -377 84c-268 0 -456 -113 -456 -364c0 -256 195 -368 470 -368
c150 0 248 25 386 83v258h-20h-40h-254v-51h254v-180.715z" />
    <glyph glyph-name="Gbreve" unicode="&#x11e;" horiz-adv-x="1053" 
d="M690 961c0 -66 -61 -83 -136 -83c-74 0 -133 19 -133 84h-62c0 -99 83 -134 192 -134c114 0 200 32 200 133h-61zM891 104.285c-111.097 -42.4181 -200.892 -55.2852 -325 -55.2852c-238 0 -406 98 -406 319c0 211 163 306 391 306
c120.961 0 216.917 -17.8607 325 -64.5532v-98.4468h52v132c-127 60 -238 84 -377 84c-268 0 -456 -113 -456 -364c0 -256 195 -368 470 -368c150 0 248 25 386 83v258h-20h-40h-254v-51h254v-180.715z" />
    <glyph glyph-name="Gcommaaccent" unicode="&#x122;" horiz-adv-x="1053" 
d="M486 -322l153 196h-85l-134 -196h66zM891 104.285c-111.097 -42.4181 -200.892 -55.2852 -325 -55.2852c-238 0 -406 98 -406 319c0 211 163 306 391 306c120.961 0 216.917 -17.8607 325 -64.5532v-98.4468h52v132c-127 60 -238 84 -377 84c-268 0 -456 -113 -456 -364
c0 -256 195 -368 470 -368c150 0 248 25 386 83v258h-20h-40h-254v-51h254v-180.715z" />
    <glyph glyph-name="H" unicode="H" horiz-adv-x="1190" 
d="M900 338v-287h-164v-51h198h197v51h-166v621h166v50h-197h-198v-50h164v-284h-609v284h165v50h-165h-33h-32h-165v-50h165v-621h-165v-51h165h32h33h165v51h-165v287h609z" />
    <glyph glyph-name="I" unicode="I" horiz-adv-x="515" 
d="M224 0h34h31h167v51h-167v621h167v50h-167h-31h-34h-163v-50h163v-621h-163v-51h163z" />
    <glyph glyph-name="Iacute" unicode="&#xcd;" horiz-adv-x="525" 
d="M209 833c74 56 147 111 221 166h-88c-74 -55 -147 -111 -221 -166h88zM227 0h34h31h167v51h-167v621h167v50h-167h-31h-34h-163v-50h163v-621h-163v-51h163z" />
    <glyph glyph-name="Icircumflex" unicode="&#xce;" horiz-adv-x="651" 
d="M598 833c-73 55 -146 111 -220 166h-10h-78h-10c-74 -55 -148 -111 -221 -166h89c60.0884 46.0952 120.177 91.5129 180.823 136.811c60.3539 -45.2979 121.265 -90.7156 182.177 -136.811h87zM295 0h35h30h167v51h-167v621h167v50h-167h-30h-35h-163v-50h163v-621h-163
v-51h163z" />
    <glyph glyph-name="Idieresis" unicode="&#xcf;" horiz-adv-x="527" 
d="M316 855h83c0 23 -18 35 -43 35c-24 0 -40 -13 -40 -35zM316 855h83c0 -24 -18 -35 -43 -35c-24 0 -40 12 -40 35zM130 855h83c0 23 -18 35 -43 35c-24 0 -40 -13 -40 -35zM130 855h83c0 -24 -18 -35 -43 -35c-24 0 -40 12 -40 35zM230 0h34h31h167v51h-167v621h167v50
h-167h-31h-34h-163v-50h163v-621h-163v-51h163z" />
    <glyph glyph-name="Idotaccent" unicode="&#x130;" horiz-adv-x="515" 
d="M216 856h83c0 23 -18 35 -42 35c-25 0 -41 -13 -41 -35zM216 856h83c0 -24 -18 -35 -43 -35c-24 0 -40 12 -40 35zM224 0h34h31h167v51h-167v621h167v50h-167h-31h-34h-163v-50h163v-621h-163v-51h163z" />
    <glyph glyph-name="Igrave" unicode="&#xcc;" horiz-adv-x="525" 
d="M388 833c-73 55 -146 111 -220 166h-88c73 -56 147 -111 220 -166h88zM229 0h35h30h167v51h-167v621h167v50h-167h-30h-35h-163v-50h163v-621h-163v-51h163z" />
    <glyph glyph-name="Imacron" unicode="&#x12a;" horiz-adv-x="515" 
d="M402 882h-301v-50h301v50zM224 0h34h31h167v51h-167v621h167v50h-167h-31h-34h-163v-50h163v-621h-163v-51h163z" />
    <glyph glyph-name="Iogonek" unicode="&#x12e;" horiz-adv-x="515" 
d="M150.859 3.55271e-15c-20.2975 -15.9363 -32.8592 -37.4512 -32.8592 -70c0 -70 55 -105 132 -105c43 0 73 11 112 29l-29 39c-28 -12 -48 -20 -78 -20c-43 0 -76 19 -76 58c0 41.1104 32.3355 55.2746 71.686 69h7.31401h31h167v51h-167v621h167v50h-167h-31h-34h-163
v-50h163v-621h-163v-51z" />
    <glyph glyph-name="J" unicode="J" horiz-adv-x="682" 
d="M48 44c40 -21 96 -46 164 -46c160 0 264 76 264 229v445h166v50h-166h-31h-34h-164v-50h164v-445c0 -116 -78 -178 -199 -178c-53 0 -89 15 -134 34z" />
    <glyph glyph-name="K" unicode="K" horiz-adv-x="1032" 
d="M291 342.594c144.737 -96.8555 289.003 -194.654 433.698 -291.594h-134.698v-51h211h12h3h91h107v51h-184.833c-167.404 109.783 -333.16 219.016 -501.167 329c162.217 102.453 309.856 195.43 464.076 292h187.924v50h-108h-80h-21h-206v-50h127.133
c-133.827 -85.1646 -267.258 -171.516 -401.133 -256.538v256.538h160v50h-160h-33h-32h-165v-50h165v-621h-165v-51h165h32h33h165v51h-165v291.594z" />
    <glyph glyph-name="Kcommaaccent" unicode="&#x136;" horiz-adv-x="1032" 
d="M478 -319l153 196h-85l-134 -196h66zM291 342.594c144.737 -96.8555 289.003 -194.654 433.698 -291.594h-134.698v-51h211h12h3h91h107v51h-184.833c-167.404 109.783 -333.16 219.016 -501.167 329c162.217 102.453 309.856 195.43 464.076 292h187.924v50h-108h-80
h-21h-206v-50h127.133c-133.827 -85.1646 -267.258 -171.516 -401.133 -256.538v256.538h160v50h-160h-33h-32h-165v-50h165v-621h-165v-51h165h32h33h165v51h-165v291.594z" />
    <glyph glyph-name="L" unicode="L" horiz-adv-x="881" 
d="M291 0h529v25v26v94h-52v-94h-477v621h163v50h-163h-34h-32h-166v-50h166v-621h-166v-51h166h32h34z" />
    <glyph glyph-name="Lacute" unicode="&#x139;" horiz-adv-x="885" 
d="M210 832c74 56 147 111 220 166h-88c-73 -55 -147 -111 -220 -166h88zM295 0h529v25v26v94h-52v-94h-477v621h163v50h-163h-34h-32h-166v-50h166v-621h-166v-51h166h32h34z" />
    <glyph glyph-name="Lcaron" unicode="&#x13d;" horiz-adv-x="846" 
d="M616 526l152 196h-84l-135 -196h67zM291 0h529v25v26v94h-52v-94h-477v621h163v50h-163h-34h-32h-166v-50h166v-621h-166v-51h166h32h34z" />
    <glyph glyph-name="Lcommaaccent" unicode="&#x13b;" horiz-adv-x="881" 
d="M408 -320l153 196h-85l-134 -196h66zM291 0h529v25v26v94h-52v-94h-477v621h163v50h-163h-34h-32h-166v-50h166v-621h-166v-51h166h32h34z" />
    <glyph glyph-name="Lslash" unicode="&#x141;" horiz-adv-x="880" 
d="M290 0h530v25v26v94h-52v-94h-478v256.476c72.7459 61.0564 145.531 122.29 218 183.524v55c-72.4693 -61.2337 -145.254 -122.152 -218 -183.109v309.109h164v50h-164h-34h-31h-166v-50h166l-2.84217e-14 -363.612c-35.0469 -29.4159 -70.0601 -58.8654 -105 -88.3882
v-55c34.9399 29.252 69.9531 58.5774 105 87.9562v-201.956h-166v-51h166h31h34z" />
    <glyph glyph-name="M" unicode="M" horiz-adv-x="1389" 
d="M666 0h57h11c105.978 209.35 212.711 417.946 319.543 627.099c21.1849 -192.164 41.4305 -383.858 62.7702 -576.099l-162.313 -5.68434e-14v-51h168h30h35h162v51h-167.955c-24.3088 207.211 -49.8367 413.787 -73.4003 621h163.355v50h-169h-28h-31h-6
c-115.421 -222.531 -228.284 -444.21 -342.526 -666.611c-114.644 222.401 -230.207 444.08 -347.474 666.611h-4h-28h-32h-3h-163v-50h157.604c-22.3669 -207.213 -44.7338 -413.789 -67.1007 -621l-166.504 -5.68434e-14v-51h161h36h29h169v51h-163.525
c20.5045 191.893 39.9187 383.241 60.2652 575.056c108.204 -208.803 215.856 -417.053 324.26 -626.056h9z" />
    <glyph glyph-name="N" unicode="N" horiz-adv-x="1215" 
d="M953 0h63h2v672h160v50h-160h-31h-6h-28h-164v-50h164v-608.228c-217 219.589 -434 438.493 -651 658.228h-11h-31h-34h-7h-157v-50h164v-621h-165v-51h165h33h32h165v51h-165v598.122c214.009 -216.535 428.1 -432.424 643 -649.122h19z" />
    <glyph glyph-name="Nacute" unicode="&#x143;" horiz-adv-x="1215" 
d="M558 833c74 56 147 111 221 166h-88c-74 -55 -148 -111 -221 -166h88zM953 0h63h2v672h160v50h-160h-31h-6h-28h-164v-50h164v-608.228c-217 219.589 -434 438.493 -651 658.228h-11h-31h-34h-7h-157v-50h164v-621h-165v-51h165h33h32h165v51h-165v598.122
c214.009 -216.535 428.1 -432.424 643 -649.122h19z" />
    <glyph glyph-name="Ncaron" unicode="&#x147;" horiz-adv-x="1215" 
d="M339 996c73 -55 147 -111 221 -166h10h78h10c74 55 147 111 220 166h-88c-60.0884 -45.2721 -120.854 -90.5442 -181.183 -136.374c-60.6719 45.8298 -120.906 91.1019 -181.817 136.374h-88zM953 0h63h2v672h160v50h-160h-31h-6h-28h-164v-50h164v-608.228
c-217 219.589 -434 438.493 -651 658.228h-11h-31h-34h-7h-157v-50h164v-621h-165v-51h165h33h32h165v51h-165v598.122c214.009 -216.535 428.1 -432.424 643 -649.122h19z" />
    <glyph glyph-name="Ncommaaccent" unicode="&#x145;" horiz-adv-x="1215" 
d="M550 -319l153 196h-85l-134 -196h66zM953 0h63h2v672h160v50h-160h-31h-6h-28h-164v-50h164v-608.228c-217 219.589 -434 438.493 -651 658.228h-11h-31h-34h-7h-157v-50h164v-621h-165v-51h165h33h32h165v51h-165v598.122c214.009 -216.535 428.1 -432.424 643 -649.122
h19z" />
    <glyph glyph-name="Ntilde" unicode="&#xd1;" horiz-adv-x="1215" 
d="M822 977c-18 -53 -41 -94 -89 -94c-45 0 -75 14 -110 43c-43 34 -77 54 -131 54c-80 0 -128 -47 -150 -126c49 -20 1 0 49 -20c18 57 49 94 102 94c40 0 65 -17 96 -43c45 -36 83 -55 141 -55c78 0 117 52 143 127c-51 19 0 0 -51 20zM953 0h63h2v672h160v50h-160h-31h-6
h-28h-164v-50h164v-608.228c-217 219.589 -434 438.493 -651 658.228h-11h-31h-34h-7h-157v-50h164v-621h-165v-51h165h33h32h165v51h-165v598.122c214.009 -216.535 428.1 -432.424 643 -649.122h19z" />
    <glyph glyph-name="O" unicode="O" horiz-adv-x="1033" 
d="M98 360c0 -235 173 -365 418 -365c246 0 419 132 419 368c0 233 -172 364 -417 364c-246 0 -420 -132 -420 -367zM163 360c0 199 144 315 350 315c209 0 357 -113 357 -312s-144 -315 -351 -315c-209 0 -356 112 -356 312z" />
    <glyph glyph-name="OE" unicode="&#x152;" horiz-adv-x="1383" 
d="M770 0h540v25v26v94h-52v-94h-488v297h411v51h-411v273h443v-95h52v95v25v25h-495h-31h-16h-18h-100c-19.4015 1.37968 -39.5802 2 -60.9995 2c-264 0 -447 -128 -447 -380c0 -232 171 -346 418 -346c24.2566 0 46.5166 0.610069 67.4984 2l122.502 -2.22045e-16h18h16
h31zM705 653.713v-579.435c-62.2192 -19.438 -115.38 -22.2778 -187 -22.2778c-205 0 -356 97 -356 295c0 214 157 324 379 324c61.4229 0 111.133 -1.37793 164 -17.2867z" />
    <glyph glyph-name="Oacute" unicode="&#xd3;" horiz-adv-x="1033" 
d="M467 833c73 56 147 111 220 166h-88c-74 -55 -147 -111 -220 -166h88zM98 360c0 -235 173 -365 418 -365c246 0 419 132 419 368c0 233 -172 364 -417 364c-246 0 -420 -132 -420 -367zM163 360c0 199 144 315 350 315c209 0 357 -113 357 -312s-144 -315 -351 -315
c-209 0 -356 112 -356 312z" />
    <glyph glyph-name="Ocircumflex" unicode="&#xd4;" horiz-adv-x="1033" 
d="M787 833c-73 55 -146 111 -220 166h-11h-77h-11c-73 -55 -147 -111 -220 -166h88c61.0056 46.1664 121.332 91.6531 181.538 137.021c60.4199 -45.3674 121.281 -90.8542 181.462 -137.021h88zM98 360c0 -235 173 -365 418 -365c246 0 419 132 419 368
c0 233 -172 364 -417 364c-246 0 -420 -132 -420 -367zM163 360c0 199 144 315 350 315c209 0 357 -113 357 -312s-144 -315 -351 -315c-209 0 -356 112 -356 312z" />
    <glyph glyph-name="Odieresis" unicode="&#xd6;" horiz-adv-x="1033" 
d="M570 855h83c0 23 -18 35 -43 35c-24 0 -40 -13 -40 -35zM570 855h83c0 -24 -18 -35 -43 -35c-24 0 -40 12 -40 35zM384 855h83c0 23 -17 35 -42 35s-41 -13 -41 -35zM384 855h83c0 -24 -17 -35 -43 -35c-24 0 -40 12 -40 35zM98 360c0 -235 173 -365 418 -365
c246 0 419 132 419 368c0 233 -172 364 -417 364c-246 0 -420 -132 -420 -367zM163 360c0 199 144 315 350 315c209 0 357 -113 357 -312s-144 -315 -351 -315c-209 0 -356 112 -356 312z" />
    <glyph glyph-name="Ograve" unicode="&#xd2;" horiz-adv-x="1033" 
d="M643 833c-73 55 -147 111 -220 166h-88c73 -56 146 -111 220 -166h88zM98 360c0 -235 173 -365 418 -365c246 0 419 132 419 368c0 233 -172 364 -417 364c-246 0 -420 -132 -420 -367zM163 360c0 199 144 315 350 315c209 0 357 -113 357 -312s-144 -315 -351 -315
c-209 0 -356 112 -356 312z" />
    <glyph glyph-name="Ohungarumlaut" unicode="&#x150;" horiz-adv-x="1033" 
d="M607 772l153 195h-85l-134 -195h66zM419 772l153 195h-85l-134 -195h66zM98 360c0 -235 173 -365 418 -365c246 0 419 132 419 368c0 233 -172 364 -417 364c-246 0 -420 -132 -420 -367zM163 360c0 199 144 315 350 315c209 0 357 -113 357 -312s-144 -315 -351 -315
c-209 0 -356 112 -356 312z" />
    <glyph glyph-name="Omacron" unicode="&#x14c;" horiz-adv-x="1033" 
d="M662 882h-300v-50h300v50zM98 360c0 -235 173 -365 418 -365c246 0 419 132 419 368c0 233 -172 364 -417 364c-246 0 -420 -132 -420 -367zM163 360c0 199 144 315 350 315c209 0 357 -113 357 -312s-144 -315 -351 -315c-209 0 -356 112 -356 312z" />
    <glyph glyph-name="Oslash" unicode="&#xd8;" horiz-adv-x="1033" 
d="M98 360c0 -146.463 67.1993 -252.14 177.147 -310.979l-66.1467 -95.0212l41 -30l72.3648 103.61c56.7351 -21.533 122.118 -32.6104 193.635 -32.6104c246 0 419 132 419 368c0 140.575 -62.6088 244.022 -166.085 303.972l60.0847 86.0279l-45 27l-62.4863 -89.7629
c-58.8948 24.2223 -127.71 36.7629 -203.514 36.7629c-246 0 -420 -132 -420 -367zM163 360c0 199 144 315 350 315c65.3203 0 124.682 -11.0378 175.43 -32.2891l-379.752 -545.523c-90.6244 50.9802 -145.677 140.418 -145.677 262.812zM735.207 618.709
c84.0381 -52.1285 134.793 -139.172 134.793 -255.709c0 -199 -144 -315 -351 -315c-60.2624 0 -115.37 9.31148 -163.286 27.3591z" />
    <glyph glyph-name="Otilde" unicode="&#xd5;" horiz-adv-x="1033" 
d="M730 977c-17 -53 -40 -94 -89 -94c-45 0 -75 14 -110 43c-42 34 -76 54 -131 54c-80 0 -128 -47 -149 -126c48 -20 0 0 49 -20c17 57 48 94 102 94c40 0 64 -17 95 -43c45 -36 84 -55 142 -55c77 0 117 52 143 127c-51 19 0 0 -52 20zM98 360c0 -235 173 -365 418 -365
c246 0 419 132 419 368c0 233 -172 364 -417 364c-246 0 -420 -132 -420 -367zM163 360c0 199 144 315 350 315c209 0 357 -113 357 -312s-144 -315 -351 -315c-209 0 -356 112 -356 312z" />
    <glyph glyph-name="P" unicode="P" horiz-adv-x="860" 
d="M291 353.086v318.914h137c154 0 282 -49 282 -185c0 -119 -108 -168 -239 -168c-68.0787 0 -118.854 12.3592 -180 34.086zM263 722h-4h-34h-163v-50h163v-621h-163v-51h163h34h32h166v51h-166v249.155c56.8692 -18.629 111.479 -31.1553 174 -31.1553
c172 3 310 66 310 220c0 166 -152 233 -338 233h-146h-28z" />
    <glyph glyph-name="Q" unicode="Q" horiz-adv-x="1066" 
d="M98 360c0 -233.541 173.821 -363.381 416.444 -364.985c148.595 -186.271 311.09 -226.015 544.556 -226.015v53c-197.995 0 -340.35 29.1046 -469.831 176.809c208.096 23.275 348.831 152.431 348.831 366.191c0 233 -172 363 -417 363c-247 0 -423 -132 -423 -368z
M164 360c0 199 147 312 354 312c209 0 355 -111 355 -310s-144 -314 -351 -314c-210 0 -358 112 -358 312z" />
    <glyph glyph-name="R" unicode="R" horiz-adv-x="1088" 
d="M261 722h-4h-32h-166v-50h166v-621h-166v-51h166h32h34h163v51h-163v275h194c11.6709 0 23.1483 0.210652 34.4075 0.648304c105.06 -108.883 209.401 -217.766 314.592 -326.648h24h58h139v51h-188.641c-91.5477 94.1718 -182.458 188.344 -272.732 282.515
c120.835 18.7905 202.373 75.3381 202.373 197.485c0 148 -127 191 -294 191h-211h-30zM291 672h199c136 0 241 -28 241 -146c0 -117 -104 -149 -237 -149h-203v295z" />
    <glyph glyph-name="Racute" unicode="&#x154;" horiz-adv-x="1088" 
d="M413 833c73 56 147 111 220 166h-88c-74 -55 -147 -111 -220 -166h88zM261 722h-4h-32h-166v-50h166v-621h-166v-51h166h32h34h163v51h-163v275h194c11.6709 0 23.1483 0.210652 34.4075 0.648304c105.06 -108.883 209.401 -217.766 314.592 -326.648h24h58h139v51
h-188.641c-91.5477 94.1718 -182.458 188.344 -272.732 282.515c120.835 18.7905 202.373 75.3381 202.373 197.485c0 148 -127 191 -294 191h-211h-30zM291 672h199c136 0 241 -28 241 -146c0 -117 -104 -149 -237 -149h-203v295z" />
    <glyph glyph-name="Rcaron" unicode="&#x158;" horiz-adv-x="1088" 
d="M194 996c73 -55 146 -111 220 -166h10h78h10c74 55 148 111 221 166h-88c-60.9116 -45.2721 -121.146 -90.5442 -181.817 -136.374c-60.3281 45.8298 -121.094 91.1019 -181.183 136.374h-88zM261 722h-4h-32h-166v-50h166v-621h-166v-51h166h32h34h163v51h-163v275h194
c11.6709 0 23.1483 0.210652 34.4075 0.648304c105.06 -108.883 209.401 -217.766 314.592 -326.648h24h58h139v51h-188.641c-91.5477 94.1718 -182.458 188.344 -272.732 282.515c120.835 18.7905 202.373 75.3381 202.373 197.485c0 148 -127 191 -294 191h-211h-30z
M291 672h199c136 0 241 -28 241 -146c0 -117 -104 -149 -237 -149h-203v295z" />
    <glyph glyph-name="Rcommaaccent" unicode="&#x156;" horiz-adv-x="1088" 
d="M479 -320l152 196h-84l-135 -196h67zM261 722h-4h-32h-166v-50h166v-621h-166v-51h166h32h34h163v51h-163v275h194c11.6709 0 23.1483 0.210652 34.4075 0.648304c105.06 -108.883 209.401 -217.766 314.592 -326.648h24h58h139v51h-188.641
c-91.5477 94.1718 -182.458 188.344 -272.732 282.515c120.835 18.7905 202.373 75.3381 202.373 197.485c0 148 -127 191 -294 191h-211h-30zM291 672h199c136 0 241 -28 241 -146c0 -117 -104 -149 -237 -149h-203v295z" />
    <glyph glyph-name="S" unicode="S" horiz-adv-x="798" 
d="M103 56c93 -41 181 -61 282 -61c170 0 308 34 308 182c0 138 -132 169 -269 217c-112 38 -230 58 -230 162c0 91 93 123 200 123c80.9164 0 143.648 -17.3585 216 -46.8149v-99.1851h52v129c-91 40 -165 65 -266 65c-145 0 -267 -47 -267 -174c0 -131 127 -159 256 -203
c120 -41 243 -65 243 -173c0 -105 -107 -129 -238 -129c-84.1338 0 -158.655 17.4778 -235 49.1656v91.8344h-52v-133z" />
    <glyph glyph-name="Sacute" unicode="&#x15a;" horiz-adv-x="798" 
d="M347 833c74 56 147 111 221 166h-88c-74 -55 -148 -111 -221 -166h88zM103 56c93 -41 181 -61 282 -61c170 0 308 34 308 182c0 138 -132 169 -269 217c-112 38 -230 58 -230 162c0 91 93 123 200 123c80.9164 0 143.648 -17.3585 216 -46.8149v-99.1851h52v129
c-91 40 -165 65 -266 65c-145 0 -267 -47 -267 -174c0 -131 127 -159 256 -203c120 -41 243 -65 243 -173c0 -105 -107 -129 -238 -129c-84.1338 0 -158.655 17.4778 -235 49.1656v91.8344h-52v-133z" />
    <glyph glyph-name="Scaron" unicode="&#x160;" horiz-adv-x="801" 
d="M131 996c73 -55 147 -111 221 -166h10h78h10c74 55 147 111 220 166h-88c-60.0884 -45.2721 -120.854 -90.5442 -181.183 -136.374c-60.6719 45.8298 -120.906 91.1019 -181.817 136.374h-88zM106 56c93 -41 181 -61 282 -61c170 0 308 34 308 182
c0 138 -132 169 -269 217c-112 38 -230 58 -230 162c0 91 93 123 200 123c80.9164 0 143.648 -17.3585 216 -46.8149v-99.1851h52v129c-91 40 -165 65 -266 65c-145 0 -267 -47 -267 -174c0 -131 127 -159 256 -203c120 -41 243 -65 243 -173c0 -105 -107 -129 -238 -129
c-84.1338 0 -158.655 17.4778 -235 49.1656v91.8344h-52v-133z" />
    <glyph glyph-name="Scedilla" unicode="&#x15e;" horiz-adv-x="798" 
d="M328 -104c16 9 30 11 49 11c32 0 57 -13 57 -43c0 -35 -34 -43 -74 -43c-33 0 -58 4 -93 19l-20 -39c39 -16 69 -23 111 -23c76 0 138 20 138 88c0 60 -49 89 -115 89c-2.8158 0 -5.57043 -0.0428251 -8.27297 -0.127518
c11.4882 14.5429 22.6674 28.8058 31.3778 40.2771c161.115 2.57909 288.895 39.4359 288.895 181.85c0 138 -132 169 -269 217c-112 38 -230 58 -230 162c0 91 93 123 200 123c80.9164 0 143.648 -17.3585 216 -46.8149v-99.1851h52v129c-91 40 -165 65 -266 65
c-145 0 -267 -47 -267 -174c0 -131 127 -159 256 -203c120 -41 243 -65 243 -173c0 -105 -107 -129 -238 -129c-84.1338 0 -158.655 17.4778 -235 49.1656v91.8344h-52v-133c75.6779 -33.3634 148.045 -52.8211 226.8 -58.912
c-16.897 -22.1114 -35.0998 -45.8777 -46.8001 -61.088c20.1114 -17.8261 21.8379 -19.1474 21.9861 -19.1474c0 0 -0.229986 0.242137 1.69043 -1.46763z" />
    <glyph glyph-name="Scommaaccent" unicode="&#x218;" horiz-adv-x="798" 
d="M288 -322l152 196h-84l-135 -196h67zM103 56c93 -41 181 -61 282 -61c170 0 308 34 308 182c0 138 -132 169 -269 217c-112 38 -230 58 -230 162c0 91 93 123 200 123c80.9164 0 143.648 -17.3585 216 -46.8149v-99.1851h52v129c-91 40 -165 65 -266 65
c-145 0 -267 -47 -267 -174c0 -131 127 -159 256 -203c120 -41 243 -65 243 -173c0 -105 -107 -129 -238 -129c-84.1338 0 -158.655 17.4778 -235 49.1656v91.8344h-52v-133z" />
    <glyph glyph-name="T" unicode="T" horiz-adv-x="971" 
d="M453 668v-618h-166v-50h166h31h34h164v50h-164v618h330v-92h52v92v28v26h-828v-26v-28v-92h52v92h329z" />
    <glyph glyph-name="Tcaron" unicode="&#x164;" horiz-adv-x="971" 
d="M211 995c73 -55 147 -111 220 -166h11h77h11c74 55 147 111 220 166h-88c-60.1812 -45.342 -121.042 -90.684 -181.462 -136.586c-60.2066 45.9023 -120.533 91.2443 -181.538 136.586h-88zM453 668v-618h-166v-50h166h31h34h164v50h-164v618h330v-92h52v92v28v26h-828
v-26v-28v-92h52v92h329z" />
    <glyph glyph-name="Tcedilla" horiz-adv-x="971" 
d="M490.662 -42.1296c11.9222 15.3832 23.578 30.42 32.6743 42.1296h158.664v50h-164v618h329v-92h52v92v28v26h-827v-26v-28v-92h52v92h329v-618h-166v-50h160.513c-16.9789 -22.2503 -35.2561 -46.1884 -46.5129 -61l44 -40c17 9 31 10 49 10c33 0 57 -12 57 -42
c0 -35 -33 -43 -73 -43c-33 0 -59 4 -94 18l-19 -38c38 -16 69 -23 110 -23c77 0 138 20 138 87c0 61 -49 90 -114 90c-2.83835 0 -5.61454 -0.0435137 -8.33788 -0.129561z" />
    <glyph glyph-name="Tcommaaccent" unicode="&#x162;" horiz-adv-x="971" 
d="M424 -323l152 196h-84l-135 -196h67zM453 668v-618h-166v-50h166h31h34h164v50h-164v618h330v-92h52v92v28v26h-828v-26v-28v-92h52v92h329z" />
    <glyph glyph-name="Thorn" unicode="&#xde;" horiz-adv-x="850" 
d="M291 672h166v50h-166h-32h-34h-163v-50h163v-621h-163v-51h163h34h32h166v51h-166v151.783c58.8988 -19.4305 115.443 -30.7828 180 -30.7828c166 3 298 64 298 212c0 159 -150 223 -332 223h-146v65zM291 255.11v301.89h137c151 0 276 -46 276 -175
c0 -113 -105 -160 -233 -160c-68.0787 0 -118.854 11.5353 -180 33.11z" />
    <glyph glyph-name="U" unicode="U" horiz-adv-x="1143" 
d="M265 672h171v50h-198h-197v-50h164v-397c0 -208 140 -280 367 -280c225 0 364 72 364 278v399h167v50h-197h-197v-50h167v-406c0 -159 -116 -215 -298 -215c-193 0 -313 58 -313 233v388z" />
    <glyph glyph-name="Uacute" unicode="&#xda;" horiz-adv-x="1143" 
d="M519 833c74 56 147 111 221 166h-88c-74 -55 -147 -111 -221 -166h88zM265 672h171v50h-198h-197v-50h164v-397c0 -208 140 -280 367 -280c225 0 364 72 364 278v399h167v50h-197h-197v-50h167v-406c0 -159 -116 -215 -298 -215c-193 0 -313 58 -313 233v388z" />
    <glyph glyph-name="Ucircumflex" unicode="&#xdb;" horiz-adv-x="1143" 
d="M840 833c-73 55 -147 111 -221 166h-10h-78h-10c-74 -55 -147 -111 -220 -166h88c60.0884 46.0952 120.854 91.5129 181.183 136.811c60.6719 -45.2979 120.906 -90.7156 181.817 -136.811h88zM265 672h171v50h-198h-197v-50h164v-397c0 -208 140 -280 367 -280
c225 0 364 72 364 278v399h167v50h-197h-197v-50h167v-406c0 -159 -116 -215 -298 -215c-193 0 -313 58 -313 233v388z" />
    <glyph glyph-name="Udieresis" unicode="&#xdc;" horiz-adv-x="1143" 
d="M623 855h83c0 23 -18 35 -43 35c-24 0 -40 -13 -40 -35zM623 855h83c0 -24 -18 -35 -43 -35c-24 0 -40 12 -40 35zM437 855h83c0 23 -18 35 -43 35c-24 0 -40 -13 -40 -35zM437 855h83c0 -24 -18 -35 -43 -35c-24 0 -40 12 -40 35zM265 672h171v50h-198h-197v-50h164
v-397c0 -208 140 -280 367 -280c225 0 364 72 364 278v399h167v50h-197h-197v-50h167v-406c0 -159 -116 -215 -298 -215c-193 0 -313 58 -313 233v388z" />
    <glyph glyph-name="Ugrave" unicode="&#xd9;" horiz-adv-x="1143" 
d="M696 833c-73 55 -147 111 -221 166h-88c74 -56 147 -111 221 -166h88zM265 672h171v50h-198h-197v-50h164v-397c0 -208 140 -280 367 -280c225 0 364 72 364 278v399h167v50h-197h-197v-50h167v-406c0 -159 -116 -215 -298 -215c-193 0 -313 58 -313 233v388z" />
    <glyph glyph-name="Uhungarumlaut" unicode="&#x170;" horiz-adv-x="1143" 
d="M660 772l153 195h-85l-134 -195h66zM472 772l152 195h-84l-135 -195h67zM265 672h171v50h-198h-197v-50h164v-397c0 -208 140 -280 367 -280c225 0 364 72 364 278v399h167v50h-197h-197v-50h167v-406c0 -159 -116 -215 -298 -215c-193 0 -313 58 -313 233v388z" />
    <glyph glyph-name="Umacron" unicode="&#x16a;" horiz-adv-x="1143" 
d="M715 882h-301v-50h301v50zM265 672h171v50h-198h-197v-50h164v-397c0 -208 140 -280 367 -280c225 0 364 72 364 278v399h167v50h-197h-197v-50h167v-406c0 -159 -116 -215 -298 -215c-193 0 -313 58 -313 233v388z" />
    <glyph glyph-name="Uogonek" unicode="&#x172;" horiz-adv-x="1143" 
d="M575.202 -4.99511c223.116 0.682584 360.798 72.9742 360.798 277.995v399h167v50h-197h-197v-50h167v-406c0 -159 -116 -215 -298 -215c-193 0 -313 58 -313 233v388h171v50h-198h-197v-50h164v-397c0 -176.478 100.782 -255.053 269.974 -274.816
c-28.4308 -16.8798 -46.9738 -40.1385 -46.9738 -79.1837c0 -71 55 -106 131 -106c44 0 73 12 113 29l-29 40c-28 -13 -48 -20 -78 -20c-43 0 -76 18 -76 58c0 45.2516 40.6157 57.3337 86.2025 73.0049z" />
    <glyph glyph-name="Uring" unicode="&#x16e;" horiz-adv-x="1143" 
d="M462 954c0 55 46 80 106 80c65 0 114 -21 114 -80c0 -57 -48 -79 -111 -79c-61 0 -109 23 -109 79zM404 954c0 -86 72 -126 167 -126c97 0 171 38 171 126c0 89 -75 127 -174 127c-94 0 -164 -40 -164 -127zM265 672h171v50h-198h-197v-50h164v-397
c0 -208 140 -280 367 -280c225 0 364 72 364 278v399h167v50h-197h-197v-50h167v-406c0 -159 -116 -215 -298 -215c-193 0 -313 58 -313 233v388z" />
    <glyph glyph-name="V" unicode="V" horiz-adv-x="1121" 
d="M568 0h8c114.491 224.329 229.849 447.791 344.461 672h170.539v50h-145h-53h-6h-8h-204v-50h178.267c-105.424 -204.796 -210.799 -408.969 -315.508 -613.748c-106.399 204.779 -213.346 408.952 -318.998 613.748h175.239v50h-201h-11h-6h-53h-145v-50h171.135
c117.164 -224.209 233.582 -447.671 350.865 -672h8h60z" />
    <glyph glyph-name="W" unicode="W" horiz-adv-x="1382" 
d="M932.09 74.7022c-69.2359 215.923 -139.359 431.208 -211.09 647.298h-11h-51h-12c-78.0543 -216.219 -156.109 -431.634 -234.163 -647.688c-64.7041 198.898 -130.022 398.882 -195.388 597.688h170.551v50h-187h-10h-56h-142v-50h158.809
c75.3924 -224.209 150.725 -447.671 225.191 -672h9h51h7c80.0802 216.846 159.351 432.883 239.269 649.567c72.3861 -216.684 142.749 -432.721 214.731 -649.567h9h49h9c78.1893 224.329 156.379 447.791 234.568 672h159.432v50h-142h-56h-10h-187v-50h169.817
c-68.3517 -199.312 -134.839 -398.033 -201.727 -597.298z" />
    <glyph glyph-name="X" unicode="X" horiz-adv-x="1019" 
d="M511.2 338.163c86.7197 -95.6691 173.459 -191.348 260.471 -287.163l-153.671 -5.68434e-14v-51h198h2h83h112v51h-158.583c-100.96 110.472 -202.102 220.762 -303.23 331.065c88.122 96.7499 176.272 193.481 264.839 289.935h161.975v50h-116h-77h-5h-197v-50
h155.889c-75.7836 -82.0846 -151.859 -164.069 -227.95 -246.033c-75.1369 81.9636 -150.253 163.948 -225.269 246.033h154.331v50h-197h-3h-77h-118v-50h163.421c87.6507 -96.5178 175.025 -192.897 262.379 -289.267
c-102.608 -110.526 -205.156 -221.039 -306.962 -331.733l-161.838 -5.68434e-14v-51h115h82h3h195v51h-148.107c87.7171 95.5335 175.027 191.338 262.307 287.163z" />
    <glyph glyph-name="Y" unicode="Y" horiz-adv-x="962" 
d="M490 338.164c95.357 110.966 190.716 222.679 286.729 333.836h158.271v50h-115h-67h-15h-198v-50h169.729c-84.8387 -98.2203 -169.167 -196.875 -253.434 -295.064c-80.2864 98.1896 -160.108 196.844 -240.364 295.064h171.069v50h-198h-14h-67h-116v-50h156.636
c90.0206 -110.732 180.69 -222.015 271.364 -332.562v-289.438h-162v-50h162h35h35h163v50h-163v288.164z" />
    <glyph glyph-name="Yacute" unicode="&#xdd;" horiz-adv-x="962" 
d="M405 833c74 56 147 111 221 166h-88c-74 -55 -148 -111 -221 -166h88zM490 338.164c95.357 110.966 190.716 222.679 286.729 333.836h158.271v50h-115h-67h-15h-198v-50h169.729c-84.8387 -98.2203 -169.167 -196.875 -253.434 -295.064
c-80.2864 98.1896 -160.108 196.844 -240.364 295.064h171.069v50h-198h-14h-67h-116v-50h156.636c90.0206 -110.732 180.69 -222.015 271.364 -332.562v-289.438h-162v-50h162h35h35h163v50h-163v288.164z" />
    <glyph glyph-name="Ydieresis" unicode="&#x178;" horiz-adv-x="962" 
d="M508 855h84c0 23 -18 35 -43 35c-24 0 -41 -13 -41 -35zM508 855h84c0 -24 -18 -35 -43 -35s-41 12 -41 35zM323 855h83c0 23 -18 35 -43 35c-24 0 -40 -13 -40 -35zM323 855h83c0 -24 -18 -35 -43 -35c-24 0 -40 12 -40 35zM490 338.164
c95.357 110.966 190.716 222.679 286.729 333.836h158.271v50h-115h-67h-15h-198v-50h169.729c-84.8387 -98.2203 -169.167 -196.875 -253.434 -295.064c-80.2864 98.1896 -160.108 196.844 -240.364 295.064h171.069v50h-198h-14h-67h-116v-50h156.636
c90.0206 -110.732 180.69 -222.015 271.364 -332.562v-289.438h-162v-50h162h35h35h163v50h-163v288.164z" />
    <glyph glyph-name="Z" unicode="Z" horiz-adv-x="918" 
d="M146.654 50.0195c195.926 187.979 0.890916 0.710725 654.346 621.981v50h-689v-25v-25v-95h52v95h550.286c-193.828 -185.018 -1.00647 -0.944807 -652.286 -622v-50h779v25v26v94h-52v-94.0131c-216.914 -0.107178 -425.717 -0.838264 -642.346 -0.967411z" />
    <glyph glyph-name="Zacute" unicode="&#x179;" horiz-adv-x="918" 
d="M405 833c73 55 147 110 220 166h-88c-74 -55 -147 -111 -220 -166h88zM146.654 50.0195c195.926 187.979 0.890916 0.710725 654.346 621.981v50h-689v-25v-25v-95h52v95h550.286c-193.828 -185.018 -1.00647 -0.944807 -652.286 -622v-50h779v25v26v94h-52v-94.0131
c-216.914 -0.107178 -425.717 -0.838264 -642.346 -0.967411z" />
    <glyph glyph-name="Zcaron" unicode="&#x17d;" horiz-adv-x="918" 
d="M186 996c73 -55 146 -111 220 -166h10h78h10c74 55 148 111 221 166h-88c-60.9116 -46.0952 -121.146 -91.5129 -181.817 -136.811c-60.3281 45.2979 -121.094 90.7156 -181.183 136.811h-88zM146.654 50.0195c195.926 187.979 0.890916 0.710725 654.346 621.981v50
h-689v-25v-25v-95h52v95h550.286c-193.828 -185.018 -1.00647 -0.944807 -652.286 -622v-50h779v25v26v94h-52v-94.0131c-216.914 -0.107178 -425.717 -0.838264 -642.346 -0.967411z" />
    <glyph glyph-name="Zdotaccent" unicode="&#x17b;" horiz-adv-x="918" 
d="M414 855h84c0 -23 -18 -35 -43 -35s-41 12 -41 35zM414 855h84c0 23 -18 36 -43 36c-24 0 -41 -13 -41 -36zM146.654 50.0195c195.926 187.979 0.890916 0.710725 654.346 621.981v50h-689v-25v-25v-95h52v95h550.286
c-193.828 -185.018 -1.00647 -0.944807 -652.286 -622v-50h779v25v26v94h-52v-94.0131c-216.914 -0.107178 -425.717 -0.838264 -642.346 -0.967411z" />
    <glyph glyph-name="a" unicode="a" horiz-adv-x="787" 
d="M598 0h29h155v50h-155v331c0 131 -102 157 -242 157c-113 0 -196 -30 -265 -75v-122h52v92.7046c54.5118 30.3834 118.421 54.2954 204 54.2954c108 0 186 -16 186 -120v-42.8671c-88.3938 -8.01488 -149.735 -12.2469 -245 -22.1329c-126 -12 -223 -34 -223 -147
c0 -115 87 -161 212 -161c114.32 0 179.898 40.3858 256 111.861v-106.861h36zM562 163.997c-77.9127 -72.5963 -138.256 -119.997 -246 -119.997c-93 0 -158 31 -158 114c0 78 70 92 156 100c97.1754 9.80669 158.585 15.6394 248 24.5838v-118.587z" />
    <glyph glyph-name="aacute" unicode="&#xe1;" horiz-adv-x="787" 
d="M339 647c73 55 147 111 220 166h-88c-74 -55 -147 -111 -220 -166h88zM598 0h29h155v50h-155v331c0 131 -102 157 -242 157c-113 0 -196 -30 -265 -75v-122h52v92.7046c54.5118 30.3834 118.421 54.2954 204 54.2954c108 0 186 -16 186 -120v-42.8671
c-88.3938 -8.01488 -149.735 -12.2469 -245 -22.1329c-126 -12 -223 -34 -223 -147c0 -115 87 -161 212 -161c114.32 0 179.898 40.3858 256 111.861v-106.861h36zM562 163.997c-77.9127 -72.5963 -138.256 -119.997 -246 -119.997c-93 0 -158 31 -158 114
c0 78 70 92 156 100c97.1754 9.80669 158.585 15.6394 248 24.5838v-118.587z" />
    <glyph glyph-name="abreve" unicode="&#x103;" horiz-adv-x="787" 
d="M527 774c0 -65 -61 -83 -136 -83c-74 0 -133 20 -133 84h-62c0 -98 83 -133 192 -133c114 0 200 32 200 132h-61zM598 0h29h155v50h-155v331c0 131 -102 157 -242 157c-113 0 -196 -30 -265 -75v-122h52v92.7046c54.5118 30.3834 118.421 54.2954 204 54.2954
c108 0 186 -16 186 -120v-42.8671c-88.3938 -8.01488 -149.735 -12.2469 -245 -22.1329c-126 -12 -223 -34 -223 -147c0 -115 87 -161 212 -161c114.32 0 179.898 40.3858 256 111.861v-106.861h36zM562 163.997c-77.9127 -72.5963 -138.256 -119.997 -246 -119.997
c-93 0 -158 31 -158 114c0 78 70 92 156 100c97.1754 9.80669 158.585 15.6394 248 24.5838v-118.587z" />
    <glyph glyph-name="acircumflex" unicode="&#xe2;" horiz-adv-x="789" 
d="M661 647c-73 55 -147 111 -221 166h-10h-78h-10c-74 -55 -147 -111 -220 -166h88c60.0884 45.2721 120.854 91.2218 181.183 136.734c60.6719 -45.5118 120.906 -91.4614 181.817 -136.734h88zM599 0h30h155v50h-155v331c0 131 -102 157 -242 157
c-113 0 -196 -30 -265 -75v-122h52v92.7046c54.5118 30.3834 118.421 54.2954 204 54.2954c108 0 186 -16 186 -120v-42.845c-89.0903 -8.02922 -149.647 -12.2599 -245 -22.155c-126 -12 -223 -34 -223 -147c0 -115 86 -161 212 -161c114.32 0 179.898 40.3858 256 111.861
v-106.861h35zM564 163.997c-77.9127 -72.5963 -138.256 -119.997 -246 -119.997c-93 0 -158 31 -158 114c0 78 70 92 156 100c97.4339 9.83278 158.911 15.6704 248 24.6553v-118.658z" />
    <glyph glyph-name="acute" unicode="&#xb4;" horiz-adv-x="416" 
d="M100 591c73 55 147 111 220 166h-88c-74 -55 -147 -111 -220 -166h88z" />
    <glyph glyph-name="adieresis" unicode="&#xe4;" horiz-adv-x="787" 
d="M442 669h83c0 23 -18 35 -43 35c-24 0 -40 -13 -40 -35zM442 669h83c0 -24 -18 -35 -43 -35c-24 0 -40 12 -40 35zM256 669h83c0 23 -18 35 -42 35c-25 0 -41 -13 -41 -35zM256 669h83c0 -24 -18 -35 -43 -35c-24 0 -40 12 -40 35zM598 0h29h155v50h-155v331
c0 131 -102 157 -242 157c-113 0 -196 -30 -265 -75v-122h52v92.7046c54.5118 30.3834 118.421 54.2954 204 54.2954c108 0 186 -16 186 -120v-42.8671c-88.3938 -8.01488 -149.735 -12.2469 -245 -22.1329c-126 -12 -223 -34 -223 -147c0 -115 87 -161 212 -161
c114.32 0 179.898 40.3858 256 111.861v-106.861h36zM562 163.997c-77.9127 -72.5963 -138.256 -119.997 -246 -119.997c-93 0 -158 31 -158 114c0 78 70 92 156 100c97.1754 9.80669 158.585 15.6394 248 24.5838v-118.587z" />
    <glyph glyph-name="ae" unicode="&#xe6;" horiz-adv-x="1232" 
d="M1074 305h-447.9c10.5798 121.606 96.859 182 226.902 182c131.653 0 220.532 -55.706 220.998 -182zM625.716 257h510.284v42c0 163 -111 238 -279 238c-107.343 0 -192.281 -29.1617 -243.361 -90.0302c-30.1179 74.2906 -117.502 91.0302 -230.639 91.0302
c-112 0 -196 -30 -265 -75v-115h53v84.5076c55.2875 30.8541 115.632 55.4924 203 55.4924c108 0 186 -16 186 -120v-62.978c-6.89832 0.00608185 -13.6389 0.0110471 -20.2509 0.0110471c-76.7739 0 -136.204 -0.669421 -223.749 -8.03306c-126 -12 -223 -30 -223 -143
c0 -115 86 -159 212 -159c124.662 0 208.153 38.6497 298.224 121.34c53.9881 -82.4177 155.345 -122.34 285.776 -122.34c95 0 158 21 234 76l-37 40c-66 -47 -118 -65 -197 -65c-151.388 0 -253.822 69.8035 -263.284 212zM560.583 257.079
c1.88128 -34.7443 8.28574 -65.9465 18.7908 -93.6659c-80.9463 -73.2116 -155.032 -118.413 -264.374 -118.413c-89 0 -158 28 -158 110c0 69 72 88 158 96c65.4 5.4 112.8 6.48 164.016 6.48c25.369 0 51.6742 -0.264983 81.5671 -0.401185z" />
    <glyph glyph-name="agrave" unicode="&#xe0;" horiz-adv-x="787" 
d="M515 646c-73 55 -147 111 -220 166h-89c74 -55 147 -110 221 -166h88zM598 0h29h155v50h-155v331c0 131 -102 157 -242 157c-113 0 -196 -30 -265 -75v-122h52v92.7046c54.5118 30.3834 118.421 54.2954 204 54.2954c108 0 186 -16 186 -120v-42.8671
c-88.3938 -8.01488 -149.735 -12.2469 -245 -22.1329c-126 -12 -223 -34 -223 -147c0 -115 87 -161 212 -161c114.32 0 179.898 40.3858 256 111.861v-106.861h36zM562 163.997c-77.9127 -72.5963 -138.256 -119.997 -246 -119.997c-93 0 -158 31 -158 114
c0 78 70 92 156 100c97.1754 9.80669 158.585 15.6394 248 24.5838v-118.587z" />
    <glyph glyph-name="amacron" unicode="&#x101;" horiz-adv-x="787" 
d="M534 695h-300v-49h300v49zM598 0h29h155v50h-155v331c0 131 -102 157 -242 157c-113 0 -196 -30 -265 -75v-122h52v92.7046c54.5118 30.3834 118.421 54.2954 204 54.2954c108 0 186 -16 186 -120v-42.8671c-88.3938 -8.01488 -149.735 -12.2469 -245 -22.1329
c-126 -12 -223 -34 -223 -147c0 -115 87 -161 212 -161c114.32 0 179.898 40.3858 256 111.861v-106.861h36zM562 163.997c-77.9127 -72.5963 -138.256 -119.997 -246 -119.997c-93 0 -158 31 -158 114c0 78 70 92 156 100c97.1754 9.80669 158.585 15.6394 248 24.5838
v-118.587z" />
    <glyph glyph-name="ampersand" unicode="&#x26;" horiz-adv-x="948" 
d="M355.458 352.756c11.5979 -8.06518 23.184 -16.2676 34.5415 -24.7558c81.9433 -61.6028 168.953 -126.921 254.944 -191.439c-69.8171 -59.0596 -157.182 -91.5606 -262.944 -91.5606c-121 0 -225 34 -225 140c0 103.623 99.4225 127.155 198.458 167.756z
M688.193 104.113c47.2346 -35.4342 93.8457 -70.3926 138.807 -104.113h85c-61.4344 44.8944 -124.265 91.8049 -187.452 139.327c44.6948 48.1404 81.7927 107.467 111.452 176.673l-56 12c-26.2012 -61.0211 -58.9393 -113.604 -98.4193 -156.313
c-83.0991 62.6584 -166.409 125.822 -247.581 186.313c-7.51448 6.03014 -15.2355 11.8365 -23.0601 17.4934c104.524 42.5755 196.179 84.4036 197.06 194.507c0 109 -99 156 -219 156c-115 0 -205 -52 -205 -158c0 -85.4128 58.1574 -135.722 126.308 -183.921
c-112.884 -45.08 -218.308 -81.0816 -218.308 -199.079c0 -138 132 -190 287 -190c124.954 0 227.771 38.4143 309.193 109.113zM365.82 406.699c-61.7812 42.1826 -117.82 83.8628 -117.82 161.301c0 71 60 109 138 109c86 0 158 -31 158 -107
c-0.921165 -95.8011 -85.8482 -126.264 -178.18 -163.301z" />
    <glyph glyph-name="aogonek" unicode="&#x105;" horiz-adv-x="787" 
d="M610.938 -7.10543e-15l16.0618 7.10543e-15h155v50h-155v331c0 131 -102 157 -242 157c-113 0 -196 -30 -265 -75v-122h52v92.7046c54.5118 30.3834 118.421 54.2954 204 54.2954c108 0 186 -16 186 -120v-42.8671c-88.3938 -8.01488 -149.735 -12.2469 -245 -22.1329
c-126 -12 -223 -34 -223 -147c0 -115 87 -161 212 -161c114.32 0 179.898 40.3858 256 111.861v-80.0444c-63.1942 -20.4218 -115 -41.7167 -115 -107.817c0 -70 55 -105 131 -105c44 0 73 12 113 29l-30 39c-27 -12 -47 -20 -77 -20c-43 0 -76 19 -76 58
c0 51.725 50.3358 60.7925 102.938 80zM562 163.997c-77.9127 -72.5963 -138.256 -119.997 -246 -119.997c-93 0 -158 31 -158 114c0 78 70 92 156 100c97.1754 9.80669 158.585 15.6394 248 24.5838v-118.587z" />
    <glyph glyph-name="apostrophemod" horiz-adv-x="484" 
d="M197 526l153 196h-85l-134 -196h66z" />
    <glyph glyph-name="approxequal" unicode="&#x2248;" horiz-adv-x="949" 
d="M771 572c-24 -52 -59 -94 -125 -94c-2.13203 -0.0355339 -4.24008 -0.0533906 -6.32543 -0.0533906c-56.601 0 -96.4868 13.1549 -145.675 43.0534c-59 37 -102 56 -171 56c-99 0 -155 -39 -187 -126c26 -12 20 -10 46 -21c24 61 65 98 138 98c53 0 87 -12 131 -40
c66 -39 113 -59 189 -60c94 0 145 44 181 123c-28 11 -22 10 -50 21zM768 355c-24 -52 -59 -94 -125 -94c-2.13203 -0.0355339 -4.24008 -0.0533906 -6.32543 -0.0533906c-56.601 0 -96.4868 13.1549 -145.675 43.0534c-59 37 -102 56 -170 56c-100 0 -155 -39 -188 -126
c26 -12 20 -10 47 -21c23 61 64 98 137 98c53 0 87 -12 131 -40c66 -39 113 -59 189 -60c95 0 145 44 182 123c-28 11 -23 10 -51 21z" />
    <glyph glyph-name="aring" unicode="&#xe5;" horiz-adv-x="787" 
d="M282 768c0 55 45 80 105 80c65 0 115 -21 115 -80c0 -57 -49 -80 -112 -80c-61 0 -108 23 -108 80zM223 768c0 -87 72 -126 167 -126c97 0 171 38 171 126c0 89 -75 127 -174 127c-94 0 -164 -40 -164 -127zM598 0h29h155v50h-155v331c0 131 -102 157 -242 157
c-113 0 -196 -30 -265 -75v-122h52v92.7046c54.5118 30.3834 118.421 54.2954 204 54.2954c108 0 186 -16 186 -120v-42.8671c-88.3938 -8.01488 -149.735 -12.2469 -245 -22.1329c-126 -12 -223 -34 -223 -147c0 -115 87 -161 212 -161
c114.32 0 179.898 40.3858 256 111.861v-106.861h36zM562 163.997c-77.9127 -72.5963 -138.256 -119.997 -246 -119.997c-93 0 -158 31 -158 114c0 78 70 92 156 100c97.1754 9.80669 158.585 15.6394 248 24.5838v-118.587z" />
    <glyph glyph-name="asciicircum" unicode="^" horiz-adv-x="749" 
d="M642 462c-77 107 -158 222 -235 330h-1h-64h-2c-77 -110 -155 -220 -232 -330h66c66.3798 94.8283 133.503 189.657 200.088 284.485c66.6484 -94.3791 136.503 -192.395 201.912 -284.485h66z" />
    <glyph glyph-name="asciitilde" unicode="~" horiz-adv-x="942" 
d="M764 355c-24 -52 -59 -94 -125 -94c-2.13203 -0.0355339 -4.24008 -0.0533906 -6.32543 -0.0533906c-56.601 0 -96.4868 13.1549 -145.675 43.0534c-59 37 -101 56 -170 56c-100 0 -155 -39 -188 -126c26 -12 21 -10 47 -21c23 61 64 98 138 98c52 0 86 -12 130 -40
c66 -39 113 -59 189 -60c95 0 145 44 182 123c-28 11 -22 10 -51 21z" />
    <glyph glyph-name="asterisk" unicode="*" horiz-adv-x="644" 
d="M270.975 501.681c-41.6724 -31.786 -46.8419 -36.4174 -107.975 -82.6806l47 -37c61.2122 55.0023 64.973 53.3401 113.217 95.5514c47.9924 -43.0211 52.3326 -40.5455 112.783 -96.5514l47 38c-60.6144 47.329 -66.0724 50.533 -107.97 82.889
c56.1105 13.4441 64.2077 18.1156 145.97 37.111l-20 51c-82.877 -27.3409 -89.1037 -27.6716 -150.284 -47.1473c2.27844 49.692 0.0419468 51.7265 4.28416 122.147h-64c4.24983 -70.5471 1.99768 -71.7399 4.29647 -122.09
c-60.2395 19.1468 -66.7316 18.8035 -150.296 46.0899l-20 -50c81.7652 -18.996 89.8604 -22.9851 145.975 -37.3194z" />
    <glyph glyph-name="at" unicode="@" horiz-adv-x="1114" 
d="M781 -50c-75 -29 -128 -35 -207 -35c-245 0 -424 83 -424 303c0 215 180 296 420 296c226 0 390 -87 390 -293c0 -75 -26 -130 -94 -130c-71 0 -103 55 -103 132c0 119 -85 179 -210 179c-135 0 -228 -56 -228 -180c0 -126 88 -190 219 -190
c83.7001 0 142.93 32.8002 178.442 93.8926c23.8266 -51.3246 70.4937 -81.8926 138.558 -81.8926c105 0 161 70 161 180c0 239 -188 343 -448 343c-281 0 -486 -98 -486 -352c0 -251 204 -350 482 -350c92 0 158 11 234 42zM704.746 198.911
c-27.6545 -73.3383 -72.0225 -116.911 -150.746 -116.911c-101 0 -167 48 -167 143c0 88 66 127 160 127c93 0 157 -43 157 -132c0 -7.19935 0.249097 -14.2326 0.745726 -21.0892z" />
    <glyph glyph-name="atilde" unicode="&#xe3;" horiz-adv-x="787" 
d="M602 790c-17 -53 -40 -94 -89 -94c-45 0 -75 14 -110 43c-42 35 -76 54 -131 54c-80 0 -128 -46 -150 -125c49 -21 1 0 50 -21c17 58 48 95 102 95c40 0 64 -18 95 -43c45 -37 84 -55 142 -55c77 0 117 52 143 127c-51 19 0 0 -52 19zM598 0h29h155v50h-155v331
c0 131 -102 157 -242 157c-113 0 -196 -30 -265 -75v-122h52v92.7046c54.5118 30.3834 118.421 54.2954 204 54.2954c108 0 186 -16 186 -120v-42.8671c-88.3938 -8.01488 -149.735 -12.2469 -245 -22.1329c-126 -12 -223 -34 -223 -147c0 -115 87 -161 212 -161
c114.32 0 179.898 40.3858 256 111.861v-106.861h36zM562 163.997c-77.9127 -72.5963 -138.256 -119.997 -246 -119.997c-93 0 -158 31 -158 114c0 78 70 92 156 100c97.1754 9.80669 158.585 15.6394 248 24.5838v-118.587z" />
    <glyph glyph-name="b" unicode="b" horiz-adv-x="897" 
d="M212 0h30v60.9813c77.0343 -47.9798 155.016 -65.9813 253 -65.9813c177 0 308 99 308 270c0 172 -130 273 -305 273c-98.6845 0 -189.266 -33.0334 -256 -75.9735v337.974h-30h-35h-163v-50h163v-699.823l-163 0.823232v-51h163h35zM242 121.279v280.051
c58.4645 45.1293 150.105 84.6706 251 84.6706c142 0 245 -83 245 -224c0.988069 -133.389 -100.533 -215.036 -239.934 -215.036c-1.68327 0 -3.37207 0.0119047 -5.06628 0.0357668c-97.2547 0 -173.184 17.617 -251 74.2788z" />
    <glyph glyph-name="backslash" unicode="\" horiz-adv-x="715" 
d="M653 -68c-174 304 -348 608 -523 912h-68c174 -304 349 -608 523 -912h68z" />
    <glyph glyph-name="bar" unicode="|" horiz-adv-x="303" 
d="M184 -300v1100h-65v-1100h65z" />
    <glyph glyph-name="braceleft" unicode="{" horiz-adv-x="437" 
d="M367 797c-109 0 -184 -55 -184 -158v-176c0 -67 -53 -97 -124 -97v-52c71 0 124 -34 124 -101v-172c0 -104 76 -159 184 -159v49c-74 0 -125 38 -125 108v169c0 61.1906 -27.3516 105.826 -72.3392 131.748c44.4892 25.3766 71.3392 69.2223 71.3392 130.252v169
c0 70 51 108 126 108v50z" />
    <glyph glyph-name="braceright" unicode="}" horiz-adv-x="437" 
d="M70 747c74 0 125 -38 125 -108v-168c0 -62.5186 27.4641 -106.969 72.6167 -132.481c-44.4714 -25.8679 -71.6167 -70.1568 -71.6167 -130.519v-169c0 -71 -51 -108 -126 -108v-50c109 0 184 56 184 160v172c0 67 53 100 124 100v52c-71 0 -124 31 -124 98v176
c0 103 -75 157 -184 157v-49z" />
    <glyph glyph-name="bracketleft" unicode="[" horiz-adv-x="405" 
d="M346 770h-228v-890h228v55h-163v780h163v55z" />
    <glyph glyph-name="bracketright" unicode="]" horiz-adv-x="404" 
d="M221 -65h-162v-55h227v890h-227v-55h162v-780z" />
    <glyph glyph-name="breve" unicode="&#x2d8;" horiz-adv-x="548" 
d="M347 727c0 -66 -61 -84 -136 -84c-74 0 -133 20 -133 85h-62c0 -99 83 -134 192 -134c113 0 200 32 200 133h-61z" />
    <glyph glyph-name="brokenbar" unicode="&#xa6;" horiz-adv-x="334" 
d="M199 428v372h-64v-372h64zM199 -300v372h-64v-372h64z" />
    <glyph glyph-name="bullet" unicode="&#x2022;" horiz-adv-x="478" 
d="M156 440h166c0 46 -35 71 -85 71c-49 0 -81 -26 -81 -71zM156 440h166c0 -47 -35 -70 -86 -70c-48 0 -80 24 -80 70z" />
    <glyph glyph-name="bulletoperator" unicode="&#x2219;" horiz-adv-x="419" 
d="M126 440h167c0 46 -36 71 -86 71c-48 0 -81 -26 -81 -71zM126 440h167c0 -47 -36 -70 -86 -70c-49 0 -81 24 -81 70z" />
    <glyph glyph-name="c" unicode="c" horiz-adv-x="741" 
d="M651 472c-66 39 -146 66 -226 66c-196 0 -331 -83 -331 -271c0 -187 132 -272 328 -272c89 0 176 28 238 83c-37 41 0 0 -38 41c-55 -49 -126 -72 -198 -72c-156 0 -265 67 -265 220c0 152 108 219 263 219c61.9587 0 122.207 -16.2483 176 -44v-103h53v133z" />
    <glyph glyph-name="cacute" unicode="&#x107;" horiz-adv-x="741" 
d="M370 647c74 56 147 111 221 166h-88c-74 -55 -148 -111 -221 -166h88zM651 472c-66 39 -146 66 -226 66c-196 0 -331 -83 -331 -271c0 -187 132 -272 328 -272c89 0 176 28 238 83c-37 41 0 0 -38 41c-55 -49 -126 -72 -198 -72c-156 0 -265 67 -265 220
c0 152 108 219 263 219c61.9587 0 122.207 -16.2483 176 -44v-103h53v133z" />
    <glyph glyph-name="caron" unicode="&#x2c7;" horiz-adv-x="703" 
d="M11 757c73 -55 146 -111 220 -166h10h78h10c74 55 147 111 221 166h-89c-60.1469 -45.3161 -120.294 -91.3112 -181 -136.866c-60.7062 45.5552 -120.853 91.5502 -181 136.866h-88z" />
    <glyph glyph-name="ccaron" unicode="&#x10d;" horiz-adv-x="752" 
d="M151 810c73 -55 147 -111 221 -166h10h78h10c74 55 147 111 220 166h-88c-60.0884 -45.2721 -120.854 -90.5442 -181.183 -136.374c-60.6719 45.8298 -120.906 91.1019 -181.817 136.374h-88zM651 472c-66 39 -146 66 -226 66c-196 0 -331 -83 -331 -271
c0 -187 132 -272 328 -272c89 0 176 28 238 83c-37 41 0 0 -38 41c-55 -49 -126 -72 -198 -72c-156 0 -265 67 -265 220c0 152 108 219 263 219c61.9587 0 122.207 -16.2483 176 -44v-103h53v133z" />
    <glyph glyph-name="ccedilla" unicode="&#xe7;" horiz-adv-x="741" 
d="M370 -101c16 9 30 11 49 11c32 0 57 -13 57 -43c0 -35 -34 -43 -73 -43c-34 0 -59 4 -94 19l-19 -39c38 -16 68 -23 110 -23c77 0 138 20 138 88c0 60 -49 89 -115 89c-2.75939 0 -5.46003 -0.0411263 -8.11048 -0.122478
c10.7564 13.4898 21.3102 26.7383 29.9776 37.7412c80.889 4.38882 158.456 32.1039 215.133 82.3813c-37 41 0 0 -38 41c-55 -49 -126 -72 -198 -72c-156 0 -265 67 -265 220c0 152 108 219 263 219c61.9587 0 122.207 -16.2483 176 -44v-103h53v133
c-66 39 -146 66 -226 66c-196 0 -331 -83 -331 -271c0 -169.92 108.989 -255.622 275.948 -269.86c-16.2308 -21.2777 -33.2563 -43.509 -43.9483 -58.1402z" />
    <glyph glyph-name="cedilla" unicode="&#xb8;" horiz-adv-x="485" 
d="M189 67c-19 -25 -58 -76 -77 -101l0.798886 -0.72626c-0.265778 -0.0910129 -0.532071 -0.18226 -0.798886 -0.27374l44 -39c17 8 30 10 49 10c33 0 57 -13 57 -43c0 -34 -33 -43 -73 -43c-34 0 -59 4 -94 19l-19 -39c38 -15 69 -23 110 -23c77 0 138 21 138 88
c0 61 -49 90 -114 90c-2.73122 0 -5.4025 -0.0435913 -8.02189 -0.129165c13.9638 17.9294 27.5341 35.4788 37.0219 48.1292z" />
    <glyph glyph-name="cent" unicode="&#xa2;" horiz-adv-x="874" 
d="M516 680.687v97.3133h-65v-98.0539c-210.578 -11.2918 -363 -113.493 -363 -314.946c0 -194.025 137.03 -304.006 336 -313.351v-104.649h64v104.76c109.712 4.78314 193.689 32.403 294 90.2399l-35 44c-100 -60 -179 -83 -289 -83c-180 0 -305 94 -305 265
c0 177 141 262 332 262c101 0 174 -16 269 -63l29 45c-92.4613 47.1553 -166.97 66.0985 -267 68.6867z" />
    <glyph glyph-name="circumflex" unicode="&#x2c6;" horiz-adv-x="869" 
d="M549 591c-73 55 -146 111 -220 166h-10h-78h-10c-74 -55 -148 -111 -221 -166h88c60.9116 45.2721 121.146 91.2218 181.817 136.734c60.3281 -45.5118 121.094 -91.4614 181.183 -136.734h88z" />
    <glyph glyph-name="colon" unicode=":" horiz-adv-x="329" 
d="M126 28h77c0 22 -17 33 -40 33c-22 0 -37 -13 -37 -33zM126 28h77c0 -23 -17 -32 -40 -32c-22 0 -37 11 -37 32zM126 411h77c0 -22 -17 -32 -40 -32c-22 0 -37 12 -37 32zM126 411h77c0 22 -17 33 -40 33c-22 0 -37 -12 -37 -33z" />
    <glyph glyph-name="comma" unicode="," horiz-adv-x="395" 
d="M115 -134l152 196h-84l-135 -196h67z" />
    <glyph glyph-name="commaaccent" horiz-adv-x="485" 
d="M179 -134l153 196h-85l-134 -196h66z" />
    <glyph glyph-name="copyright" unicode="&#xa9;" horiz-adv-x="1052" 
d="M699 466c-53 26 -99 35 -161 35c-132 0 -231 -59 -231 -181c0 -117 90 -177 214 -177c74 0 127 10 191 48l-28 34c-58 -32 -101 -39 -161 -39c-94 0 -162 47 -162 136c0 93 74 137 175 137c46 0 77 -6 112 -19v-60h50v85.5398
c0.328854 0.151413 0.662167 0.304807 1 0.46021zM95 321c0 -218 201 -322 442 -322c231 0 420 110 420 322c0 215 -193 324 -426 324c-238 0 -436 -106 -436 -324zM150 321c0 190 172 282 381 282c203 0 371 -95 371 -284c0 -183 -164 -277 -363 -277
c-209 0 -389 87 -389 279z" />
    <glyph glyph-name="currency" unicode="&#xa4;" horiz-adv-x="792" 
d="M168 312c0 -42.4574 11.7959 -77.4082 32.7143 -104.976c-35.1524 -24.6197 -70.5934 -49.6519 -104.714 -74.024l44 -40c35.0685 25.0489 70.137 49.4007 104.623 74.2195c40.4362 -25.5764 94.3242 -38.2195 155.377 -38.2195
c57.8773 0 108.619 12.6856 147.107 37.439c33.2834 -24.1463 67.0883 -48.2927 100.893 -72.439l47 37c-34.9078 25.1661 -69.8156 50.3321 -104.723 74.9632c21.5851 28.4353 33.7233 64.5558 33.7233 108.037c0 44.7107 -13.639 80.6638 -37.4899 108.077
c33.177 23.9608 66.8334 47.442 100.49 70.9233l-44 40c-33.9857 -25.0847 -69.2809 -49.5146 -103.766 -73.8195c-37.2036 19.9754 -84.4553 29.8195 -137.234 29.8195c-57.8412 0 -109.63 -10.4024 -149.691 -32.1943c-34.7376 25.0648 -69.3501 50.1295 -103.309 75.1943
l-44 -40c33.6517 -24.0369 67.3033 -48.0738 100.441 -72.1107c-23.8216 -27.3248 -37.4406 -63.0898 -37.4406 -107.889zM232 312c0 86 72 127 165 127c94 0 163 -42 163 -128c0 -85 -66 -132 -157 -132c-98 0 -171 43 -171 133z" />
    <glyph glyph-name="d" unicode="d" 
d="M656 422.714v-285.665c-63.8367 -65.0115 -131.702 -91.0488 -223 -91.0488c-157 0 -278 72 -278 220s121 222 278 222c86.5893 0 159.308 -19.0715 223 -65.2858zM656 72.8522v-72.8522h35h33h164v50h-164v750h-34h-34h-164v-50h164v-270.474
c-63.2472 39.3066 -141.65 58.4737 -225 58.4737c-193 0 -341 -93 -341 -275c0 -180 152 -268 347 -268c92.0928 0 159.403 24.1626 219 77.8522z" />
    <glyph glyph-name="dagger" unicode="&#x2020;" horiz-adv-x="735" 
d="M396 533v266h-62v-266h-282v-55h282v-776h62v776h287v55h-287z" />
    <glyph glyph-name="daggerdbl" unicode="&#x2021;" horiz-adv-x="833" 
d="M383 -36v-262h62v262h287v56l-287 2.84217e-14v458h287v55h-287v266h-62v-266h-282v-55h282v-458h-282v-56h282z" />
    <glyph glyph-name="dcaron" unicode="&#x10f;" horiz-adv-x="1041" 
d="M859 605l152 195h-85l-134 -195h67zM656 422.714v-285.665c-63.8367 -65.0115 -131.702 -91.0488 -223 -91.0488c-157 0 -278 72 -278 220s121 222 278 222c86.5893 0 159.308 -19.0715 223 -65.2858zM656 72.8522v-72.8522h35h33h164v50h-164v750h-34h-34h-164v-50h164
v-270.474c-63.2472 39.3066 -141.65 58.4737 -225 58.4737c-193 0 -341 -93 -341 -275c0 -180 152 -268 347 -268c92.0928 0 159.403 24.1626 219 77.8522z" />
    <glyph glyph-name="dcroat" unicode="&#x111;" 
d="M656 630v-150.72c-63.5415 39.4725 -141.477 58.7195 -225 58.7195c-193 0 -342 -93 -342 -275c0 -180 153 -268 348 -268c91.5605 0 158.823 24.2977 219 78.3025v-73.3025h35h33h164v50h-164v580h116v43h-116v127h-35h-33h-164v-50h164v-77h-232v-43h232zM656 422.705
v-285.476c-64.5814 -65.1431 -131.618 -91.2283 -223 -91.2283c-157 0 -279 72 -279 220s122 222 279 222c85.6641 0 159.19 -19.0741 223 -65.2954z" />
    <glyph glyph-name="degree" unicode="&#xb0;" horiz-adv-x="661" 
d="M105 485c0 -132 89 -207 224 -207s227 74 227 205c0 128 -92 201 -227 201c-134 0 -224 -73 -224 -199zM159 485c0 97 66 155 167 155c105 0 175 -58 175 -157c0 -101 -67 -161 -170 -161c-104 0 -172 62 -172 163z" />
    <glyph glyph-name="deltamath" horiz-adv-x="1016" 
d="M49 0h916v56l-417 736h-3h-65h-3l-428 -736v-56zM512.116 735.452l385.884 -679.452h-781z" />
    <glyph glyph-name="dieresis" unicode="&#xa8;" horiz-adv-x="565" 
d="M264 657h84c0 23 -18 35 -43 35c-24 0 -41 -13 -41 -35zM264 657h84c0 -24 -18 -35 -43 -35s-41 12 -41 35zM79 657h83c0 23 -18 35 -43 35c-24 0 -40 -13 -40 -35zM79 657h83c0 -24 -18 -35 -43 -35c-24 0 -40 12 -40 35z" />
    <glyph glyph-name="divide" unicode="&#xf7;" horiz-adv-x="887" 
d="M128 283h631v55h-631v-55zM401 114h76c0 22 -17 33 -39 33s-37 -12 -37 -33zM401 114h76c0 -23 -17 -32 -40 -32c-22 0 -36 12 -36 32zM401 498h76c0 22 -17 32 -39 32s-37 -12 -37 -32zM401 498h76c0 -23 -17 -32 -40 -32c-22 0 -36 11 -36 32z" />
    <glyph glyph-name="divisionslash" unicode="&#x2215;" horiz-adv-x="644" 
d="M69 -74l569 815h-62l-569 -815h62z" />
    <glyph glyph-name="dollar" unicode="$" horiz-adv-x="764" 
d="M341.139 684.016c-128.46 -6.3072 -228.139 -44.1626 -228.139 -149.016c0 -116 115 -144 245 -183c121 -36 255 -54 255 -149c0 -93 -120 -107 -252 -107c-82.6067 0 -156.789 18.534 -221 39.3637v90.6363h-52v-129c68.3915 -25.1969 148.12 -46.3448 237 -50.3265
v-88.6735h66v88.434c155.768 3.91722 287 35.9149 287 158.566c0 125 -143 149 -282 192c-111 35 -218 52 -218 138c0 80 94 100 201 100c82.8518 0 143.67 -11.017 216 -37.7318v-93.2682h52v127.735l1 1.26471c-84.5935 31.2628 -152.278 48.9981 -241.145 51.6511
c-0.277242 29.3108 -0.854864 64.0285 -0.854864 88.3489h-64c0 -24.4965 -0.586013 -59.5412 -0.860836 -88.9845z" />
    <glyph glyph-name="dotaccent" unicode="&#x2d9;" horiz-adv-x="752" 
d="M313 657h83c0 23 -18 35 -43 35c-24 0 -40 -13 -40 -35zM313 657h83c0 -24 -18 -35 -43 -35c-24 0 -40 12 -40 35z" />
    <glyph glyph-name="dotlessi" unicode="&#x131;" horiz-adv-x="451" 
d="M216 483v-432h-164v-51h164h34h35h149v51h-149v482h-35h-34h-164v-50h164z" />
    <glyph glyph-name="e" unicode="e" horiz-adv-x="771" 
d="M611.998 305h-446.995c10.0918 122.159 95.6639 182 226.997 182c130.658 0 219.535 -54.7135 219.998 -182zM164.71 258h509.29v41c0 164 -111 239 -279 239c-179 0 -296 -83 -296 -258c0 -194 130 -285 328 -285c96 0 159 21 234 76l-36 40c-67 -47 -119 -65 -198 -65
c-151.388 0 -252.916 69.8035 -262.29 212z" />
    <glyph glyph-name="eacute" unicode="&#xe9;" horiz-adv-x="771" 
d="M343 647c73 56 147 111 220 166h-88c-74 -55 -147 -111 -220 -166h88zM611.998 305h-446.995c10.0918 122.159 95.6639 182 226.997 182c130.658 0 219.535 -54.7135 219.998 -182zM164.71 258h509.29v41c0 164 -111 239 -279 239c-179 0 -296 -83 -296 -258
c0 -194 130 -285 328 -285c96 0 159 21 234 76l-36 40c-67 -47 -119 -65 -198 -65c-151.388 0 -252.916 69.8035 -262.29 212z" />
    <glyph glyph-name="ecaron" unicode="&#x11b;" horiz-adv-x="771" 
d="M124 810c73 -55 146 -111 220 -166h10h78h10c74 55 148 111 221 166h-88c-60.9116 -45.2721 -121.146 -90.5442 -181.817 -136.374c-60.3281 45.8298 -121.094 91.1019 -181.183 136.374h-88zM611.998 305h-446.995c10.0918 122.159 95.6639 182 226.997 182
c130.658 0 219.535 -54.7135 219.998 -182zM164.71 258h509.29v41c0 164 -111 239 -279 239c-179 0 -296 -83 -296 -258c0 -194 130 -285 328 -285c96 0 159 21 234 76l-36 40c-67 -47 -119 -65 -198 -65c-151.388 0 -252.916 69.8035 -262.29 212z" />
    <glyph glyph-name="ecircumflex" unicode="&#xea;" horiz-adv-x="771" 
d="M663 647c-73 55 -147 111 -220 166h-11h-77h-11c-74 -55 -147 -111 -220 -166h88c60.1812 46.1664 121.042 91.6531 181.462 137.021c60.2066 -45.3674 120.533 -90.8542 181.538 -137.021h88zM611.998 305h-446.995c10.0918 122.159 95.6639 182 226.997 182
c130.658 0 219.535 -54.7135 219.998 -182zM164.71 258h509.29v41c0 164 -111 239 -279 239c-179 0 -296 -83 -296 -258c0 -194 130 -285 328 -285c96 0 159 21 234 76l-36 40c-67 -47 -119 -65 -198 -65c-151.388 0 -252.916 69.8035 -262.29 212z" />
    <glyph glyph-name="edieresis" unicode="&#xeb;" horiz-adv-x="771" 
d="M446 669h83c0 23 -18 35 -43 35c-24 0 -40 -13 -40 -35zM446 669h83c0 -24 -18 -35 -43 -35c-24 0 -40 12 -40 35zM260 669h83c0 23 -18 35 -42 35c-25 0 -41 -13 -41 -35zM260 669h83c0 -24 -18 -35 -43 -35c-24 0 -40 12 -40 35zM611.998 305h-446.995
c10.0918 122.159 95.6639 182 226.997 182c130.658 0 219.535 -54.7135 219.998 -182zM164.71 258h509.29v41c0 164 -111 239 -279 239c-179 0 -296 -83 -296 -258c0 -194 130 -285 328 -285c96 0 159 21 234 76l-36 40c-67 -47 -119 -65 -198 -65
c-151.388 0 -252.916 69.8035 -262.29 212z" />
    <glyph glyph-name="edotaccent" unicode="&#x117;" horiz-adv-x="771" 
d="M352 670h84c0 23 -18 35 -43 35c-24 0 -41 -13 -41 -35zM352 670h84c0 -24 -18 -35 -44 -35c-24 0 -40 12 -40 35zM611.998 305h-446.995c10.0918 122.159 95.6639 182 226.997 182c130.658 0 219.535 -54.7135 219.998 -182zM164.71 258h509.29v41
c0 164 -111 239 -279 239c-179 0 -296 -83 -296 -258c0 -194 130 -285 328 -285c96 0 159 21 234 76l-36 40c-67 -47 -119 -65 -198 -65c-151.388 0 -252.916 69.8035 -262.29 212z" />
    <glyph glyph-name="egrave" unicode="&#xe8;" horiz-adv-x="771" 
d="M519 647c-73 55 -147 111 -220 166h-89c74 -56 147 -111 221 -166h88zM611.998 305h-446.995c10.0918 122.159 95.6639 182 226.997 182c130.658 0 219.535 -54.7135 219.998 -182zM164.71 258h509.29v41c0 164 -111 239 -279 239c-179 0 -296 -83 -296 -258
c0 -194 130 -285 328 -285c96 0 159 21 234 76l-36 40c-67 -47 -119 -65 -198 -65c-151.388 0 -252.916 69.8035 -262.29 212z" />
    <glyph glyph-name="eight" unicode="8" horiz-adv-x="771" 
d="M388.087 403.385c-105.945 35.9749 -201.087 49.2482 -201.087 150.615c0 93 85 121 194 121c117 0 203 -24 203 -123c0 -99.9323 -92.4592 -115.256 -195.913 -148.615zM459.248 378.194c103.942 36.2412 189.752 63.2378 189.752 173.806c0 136 -111 175 -265 175
c-149 0 -262 -42 -262 -173c0 -111.816 85.8178 -141.513 191.912 -176.268c-119.547 -40.8772 -216.912 -72.7725 -216.912 -199.732c0 -142 121 -183 284 -183c166 0 294 37 294 183c0 124.634 -97.8366 159.135 -215.752 200.194zM388.014 352.697
c117.693 -39.9183 221.986 -61.4013 221.986 -174.697c0 -107 -100 -131 -226 -131s-222 25 -222 131c0 116.246 106.29 134.241 226.014 174.697z" />
    <glyph glyph-name="ellipsis" unicode="&#x2026;" horiz-adv-x="825" 
d="M368 28h83c0 23 -18 35 -43 35c-24 0 -40 -13 -40 -35zM368 28h83c0 -24 -18 -35 -43 -35c-24 0 -40 12 -40 35zM619 28h84c0 23 -18 35 -43 35c-24 0 -41 -13 -41 -35zM619 28h84c0 -24 -18 -35 -44 -35c-24 0 -40 12 -40 35zM122 28h84c0 23 -18 35 -43 35
c-24 0 -41 -13 -41 -35zM122 28h84c0 -24 -18 -35 -43 -35s-41 12 -41 35z" />
    <glyph glyph-name="emacron" unicode="&#x113;" horiz-adv-x="771" 
d="M538 696h-300v-50h300v50zM611.998 305h-446.995c10.0918 122.159 95.6639 182 226.997 182c130.658 0 219.535 -54.7135 219.998 -182zM164.71 258h509.29v41c0 164 -111 239 -279 239c-179 0 -296 -83 -296 -258c0 -194 130 -285 328 -285c96 0 159 21 234 76l-36 40
c-67 -47 -119 -65 -198 -65c-151.388 0 -252.916 69.8035 -262.29 212z" />
    <glyph glyph-name="emdash" unicode="&#x2014;" horiz-adv-x="1145" 
d="M125 248h895v56h-895v-56z" />
    <glyph glyph-name="endash" unicode="&#x2013;" horiz-adv-x="757" 
d="M126 248h505v55h-505v-55z" />
    <glyph glyph-name="eogonek" unicode="&#x119;" horiz-adv-x="771" 
d="M611.998 305h-446.995c10.0918 122.159 95.6639 182 226.997 182c130.658 0 219.535 -54.7135 219.998 -182zM438.503 -4.89584c89.6192 1.65228 150.534 23.1229 222.497 75.8958l-36 40c-67 -47 -119 -65 -198 -65c-151.388 0 -252.916 69.8035 -262.29 212h509.29v41
c0 164 -111 239 -279 239c-179 0 -296 -83 -296 -258c0 -166.066 95.2582 -256.659 246.885 -279.304c-24.3853 -16.4959 -39.8852 -38.9979 -39.8852 -74.6959c0 -71 55 -106 131 -106c44 0 73 12 113 29c-29 40 0 0 -30 40c-27 -13 -47 -20 -77 -20c-43 0 -76 18 -76 58
c0 40.4604 31.9291 54.4034 71.5026 68.1042z" />
    <glyph glyph-name="equal" unicode="=" horiz-adv-x="1096" 
d="M128 413h840v53h-840v-53zM128 191h840v53h-840v-53z" />
    <glyph glyph-name="estimated" unicode="&#x212e;" horiz-adv-x="822" 
d="M620 614.441v-212.441h-414v209.751c49.8002 40.8162 118.317 63.2489 204 63.2489c88.132 0 158.901 -21.448 210 -60.559zM206 356h578v41c0 203 -135 328 -370 328c-238 0 -376 -133 -376 -348c0 -236 153 -382 416 -382c114 0 222 37 315 107c-23 24 -14 15 -36 37
c-88 -62 -184 -94 -279 -94c-106.24 0 -189.832 29.58 -248 82.9633v228.037z" />
    <glyph glyph-name="eth" unicode="&#xf0;" horiz-adv-x="799" 
d="M633.275 320.602c-26.5947 145.392 -129.969 235.33 -273.121 291.299c-41.2923 -41.3222 -82.5661 -82.845 -125.154 -125.901c-8.85162 8.63033 -13.6703 13.0983 -15.9522 15.2568c0.0985356 0 -2.81162 3.14194 -17.0478 17.7432
c37.7251 37.315 74.2731 73.6211 110.609 109.815c-66.9313 21.638 -140.869 37.0795 -218.609 48.1853l11 54c90.8217 -11.4895 176.629 -29.7141 253.37 -56.5572c37.0023 36.9294 74.2057 74.1328 112.63 112.557c8.31454 -8.31454 12.7657 -13.012 15.0008 -15.2568
c-0.147175 0 2.76298 -3.14194 16.9992 -17.7432c-33.4102 -33.0471 -65.8973 -65.3029 -98.0838 -97.39c178.232 -74.6656 297.084 -203.325 297.084 -413.61c0 -173 -136 -253 -322 -253c-166 0 -287 67 -287 218c0 150 123 211 287 211
c108.194 0 194.063 -29.7674 253.275 -98.3977zM639.974 241.433c-59.1417 91.599 -139.574 125.567 -253.974 125.567c-130 0 -228 -45 -228 -162c0 -112 95 -156 219 -156c148.692 0 261.026 57.9754 262.974 192.433z" />
    <glyph glyph-name="exclam" unicode="!" horiz-adv-x="345" 
d="M205 229v493h-64v-493h64zM132 33h84c0 23 -18 35 -43 35c-24 0 -41 -13 -41 -35zM132 33h84c0 -24 -18 -35 -43 -35c-24 0 -41 12 -41 35z" />
    <glyph glyph-name="exclamdown" unicode="&#xa1;" horiz-adv-x="345" 
d="M140 493v-493h64v493h-64zM214 689h-85c0 -23 18 -35 43 -35c24 0 42 13 42 35zM214 689h-85c0 24 18 35 43 35c24 0 42 -12 42 -35z" />
    <glyph glyph-name="f" unicode="f" horiz-adv-x="653" 
d="M337 520v109c0 83 63 126 151 126c33.1588 0 66.3175 -6.85631 98 -16.6322v-96.3678h52v128c-49 18 -100 34 -150 34c-125 0 -216 -58 -216 -175v-109h-214v-51h214v-418.833l-165 0.833333v-51h165h33h32h165v51l-165 -0.837563v418.838h283v51h-283z" />
    <glyph glyph-name="fi" unicode="&#xfb01;" horiz-adv-x="833" 
d="M293 0h30h105v51h-105v440h255v-440h-105v-51h105h40h3h22h162v51h-162v490h-320v53c0 106 73 171 182 171c26 0 47 -1 72 -8v-87h65v125c-50 13 -88 19 -140 19c-143 0 -244 -82 -243 -220v-53h-215v-50h215v-440h-163v-51h163h34z" />
    <glyph glyph-name="five" unicode="5" horiz-adv-x="725" 
d="M203 436.051v235.949h406v50h-468v-317v-8l62 -13c29 11 91 20 136 20c130 0 234 -57 234 -174c0 -119 -113 -180 -246 -180c-78 0 -141 14 -213 42l-31 -48c79 -33 153 -49 241 -49c171 0 314 79 314 235c0 149 -130 228 -294 228
c-44.7021 0 -96.9592 -7.13522 -141 -21.9495z" />
    <glyph glyph-name="fl" unicode="&#xfb02;" horiz-adv-x="834" 
d="M295 0h28h107v51h-107v440h255v-440h-102v-51h102h42h3h20h164v51h-164v745c-51 13 -89 18 -141 18c-143 0 -244 -82 -243 -220v-53h-215v-50h215v-440h-161v-51h161h36zM323 541v53c0 106 73 171 182 171c26 0 48 0 73 -7v-217h-255z" />
    <glyph glyph-name="florin" unicode="&#x192;" horiz-adv-x="592" 
d="M580 823c-15.5764 2.26566 -30.6315 3.40843 -45.0829 3.40843c-87.6037 0 -153.024 -41.9936 -177.917 -130.408c-12.8052 -47.3333 -25.558 -94.6667 -38.2706 -142h-138.729v-50h125.315c-38.3249 -143 -76.32 -286 -114.315 -429
c-16.392 -60.3915 -61.0678 -90.2662 -121.827 -90.2662c-9.66698 0 -19.7411 0.756248 -30.1732 2.26616l-11 -50c14.4132 -1.81788 28.4217 -2.74215 41.9512 -2.74215c90.6646 0 159.814 41.5061 185.049 133.742c39.0581 145.073 78.6027 290.633 117.955 436h153.045
v50h-139.516c12.54 46.3682 25.0525 92.7088 37.5156 139c14.4915 57.9662 56.5962 83.2326 113.306 83.2326c9.81632 0 20.0702 -0.757059 30.6943 -2.23262z" />
    <glyph glyph-name="four" unicode="4" horiz-adv-x="849" 
d="M477 252v-201h-167v-51h197h198v51h-163v201h230v55h-230v407h-65l-428 -407l27 -55h401zM477 307h-343.569c337.958 323.612 -4.62194 -5.26664 343.569 328.964z" />
    <glyph glyph-name="foursuperior" unicode="&#x2074;" horiz-adv-x="694" 
d="M398 282h32h165v47h-165v79h118v48h-118v264v6h-64l-288 -270l24 -48h264v-79h-165v-47h165h32zM366 659.122v-203.122h-213.538z" />
    <glyph glyph-name="fraction" unicode="&#x2044;" horiz-adv-x="741" 
d="M65 -74l569 815h-63l-569 -815h63z" />
    <glyph glyph-name="g" unicode="g" horiz-adv-x="797" 
d="M237.401 -2.26283c41.5275 -10.0685 91.1689 -13.5605 141.599 -16.7372c141 -9 286 0 286 -116c0 -108 -137 -119 -279 -119c-132 0 -255 24 -255 130c0 64.6185 46.7662 98.8019 106.401 121.737zM180.689 19.386c-66.298 -27.844 -114.689 -70.3784 -114.689 -145.386
c0 -145 150 -178 317 -178c175.907 0 341.07 19.5323 341.07 167.657c0 1.76277 -0.0233911 3.54375 -0.0704336 5.34312c0 151 -165 150 -333 160c-98 4 -196 6 -196 87c0 36.7923 22.7283 59.5465 54.5211 77.0075c39.8263 -13.0658 86.3793 -19.0075 135.479 -19.0075
c146 0 268 51 268 181c0 37.596 -10.18 68.8943 -28.1833 94.3509c48.2305 17.5724 95.1818 34.6108 138.183 51.6491l-26 48c-51.2691 -19.331 -101.125 -40.0747 -151.944 -60.4502c-47.9242 33.8713 -116.95 49.4502 -193.056 49.4502c-147 0 -268 -58 -268 -189
c0 -62.3817 29.414 -105.889 76.2279 -133.921c-41.6118 -22.8371 -70.2279 -54.406 -70.2279 -104.079c0 -44.6186 19.3622 -73.0491 50.6893 -91.614zM190 351c0 96 93 138 202 138c108 0 196 -41 196 -136c0 -91 -90 -129 -197 -129s-201 33 -201 127z" />
    <glyph glyph-name="gbreve" unicode="&#x11f;" horiz-adv-x="797" 
d="M530 774c0 -66 -61 -83 -136 -83c-74 0 -133 19 -133 84h-61c0 -99 82 -134 192 -134c113 0 200 33 200 133h-62zM237.401 -2.26283c41.5275 -10.0685 91.1689 -13.5605 141.599 -16.7372c141 -9 286 0 286 -116c0 -108 -137 -119 -279 -119c-132 0 -255 24 -255 130
c0 64.6185 46.7662 98.8019 106.401 121.737zM180.689 19.386c-66.298 -27.844 -114.689 -70.3784 -114.689 -145.386c0 -145 150 -178 317 -178c175.907 0 341.07 19.5323 341.07 167.657c0 1.76277 -0.0233911 3.54375 -0.0704336 5.34312c0 151 -165 150 -333 160
c-98 4 -196 6 -196 87c0 36.7923 22.7283 59.5465 54.5211 77.0075c39.8263 -13.0658 86.3793 -19.0075 135.479 -19.0075c146 0 268 51 268 181c0 37.596 -10.18 68.8943 -28.1833 94.3509c48.2305 17.5724 95.1818 34.6108 138.183 51.6491l-26 48
c-51.2691 -19.331 -101.125 -40.0747 -151.944 -60.4502c-47.9242 33.8713 -116.95 49.4502 -193.056 49.4502c-147 0 -268 -58 -268 -189c0 -62.3817 29.414 -105.889 76.2279 -133.921c-41.6118 -22.8371 -70.2279 -54.406 -70.2279 -104.079
c0 -44.6186 19.3622 -73.0491 50.6893 -91.614zM190 351c0 96 93 138 202 138c108 0 196 -41 196 -136c0 -91 -90 -129 -197 -129s-201 33 -201 127z" />
    <glyph glyph-name="gcommaaccent" unicode="&#x123;" horiz-adv-x="797" 
d="M447 819l-153 -196h85l134 196h-66zM237.401 -2.26283c41.5275 -10.0685 91.1689 -13.5605 141.599 -16.7372c141 -9 286 0 286 -116c0 -108 -137 -119 -279 -119c-132 0 -255 24 -255 130c0 64.6185 46.7662 98.8019 106.401 121.737zM180.689 19.386
c-66.298 -27.844 -114.689 -70.3784 -114.689 -145.386c0 -145 150 -178 317 -178c175.907 0 341.07 19.5323 341.07 167.657c0 1.76277 -0.0233911 3.54375 -0.0704336 5.34312c0 151 -165 150 -333 160c-98 4 -196 6 -196 87c0 36.7923 22.7283 59.5465 54.5211 77.0075
c39.8263 -13.0658 86.3793 -19.0075 135.479 -19.0075c146 0 268 51 268 181c0 37.596 -10.18 68.8943 -28.1833 94.3509c48.2305 17.5724 95.1818 34.6108 138.183 51.6491l-26 48c-51.2691 -19.331 -101.125 -40.0747 -151.944 -60.4502
c-47.9242 33.8713 -116.95 49.4502 -193.056 49.4502c-147 0 -268 -58 -268 -189c0 -62.3817 29.414 -105.889 76.2279 -133.921c-41.6118 -22.8371 -70.2279 -54.406 -70.2279 -104.079c0 -44.6186 19.3622 -73.0491 50.6893 -91.614zM190 351c0 96 93 138 202 138
c108 0 196 -41 196 -136c0 -91 -90 -129 -197 -129s-201 33 -201 127z" />
    <glyph glyph-name="germandbls" unicode="&#xdf;" horiz-adv-x="830" 
d="M545 83c118 19 209 72 209 195c0 102.872 -64.2561 157.998 -164.451 183.263c72.2124 25.0223 119.451 72.9864 119.451 156.737c0 134 -118 183 -268 183c-148 0 -262 -58 -262 -192v-558h-165v-51h165h33h31h167v51h-167v558c0 98 84 142 192 142
c117 0 213 -32 213 -135c0 -102 -105 -137 -231 -137v-41c135 0 275 -31 275 -163c0 -91 -80 -125 -161 -142z" />
    <glyph glyph-name="grave" unicode="`" horiz-adv-x="664" 
d="M393 591c-73 55 -147 111 -221 166h-88c74 -55 147 -111 221 -166h88z" />
    <glyph glyph-name="greater" unicode="&#x3e;" horiz-adv-x="972" 
d="M824.109 305.475l-727.109 -241.475v-56l813 270v56c-275 88 -551 176 -826 264v-56c246.38 -78.8415 493.562 -157.683 740.109 -236.525z" />
    <glyph glyph-name="greaterequal" unicode="&#x2265;" horiz-adv-x="1049" 
d="M944 -1h-826v52h826v-52zM854.468 414.629c-245.339 75.5959 -491.301 150.483 -736.468 225.371v54c275 -84 551 -167 826 -252v-55c-275 -84 -551 -168 -826 -253v55c245.167 74.8874 491.129 150.57 736.468 225.629z" />
    <glyph glyph-name="guillemotleft" unicode="&#xab;" horiz-adv-x="711" 
d="M110 253l241 -119v55l-185.032 90.5965l186.032 88.4035v54l-242 -115v-54zM359 252l242 -118v54l-185.362 91.1489l185.362 88.8511v54l-242 -115v-55z" />
    <glyph glyph-name="guillemotright" unicode="&#xbb;" horiz-adv-x="711" 
d="M573 253l-241 -119v55l184.918 90.5408l-186.918 88.4592v54l243 -115v-54zM324 252l-242 -118v54l185.362 91.1489l-185.362 88.8511v54l242 -115v-55z" />
    <glyph glyph-name="guilsinglleft" unicode="&#x2039;" horiz-adv-x="571" 
d="M189.906 279.866c109.689 38.0866 60.0234 28.2355 243.094 88.1341v55c-217 -72 -107 -44 -323 -116v-54c216 -72 106 -43 323 -115v55c-183.07 59.8985 -133.404 48.624 -243.094 86.8659z" />
    <glyph glyph-name="guilsinglright" unicode="&#x203a;" horiz-adv-x="571" 
d="M380.76 279.866c-110.067 38.0866 -59.6895 28.2355 -242.76 88.1341v55c217 -72 106 -44 323 -116v-54c-217 -72 -106 -43 -323 -115v55c183.07 59.8985 132.693 48.624 242.76 86.8659z" />
    <glyph glyph-name="h" unicode="h" horiz-adv-x="915" 
d="M244 437.675v362.325h-32h-33h-165v-50h165v-699.833l-165 0.833333v-51h165h33h32h152v51l-152 -0.826087v311.153c53.1211 81.6581 148.393 126.673 247 126.673c113 0 185 -49 185 -158v-279.832l-153 0.831522v-51h153h31h34h164v51l-164 -0.828283v285.828
c0 141 -95 202 -242 202c-97.7326 0 -193.169 -32.717 -255 -100.325z" />
    <glyph glyph-name="hungarumlaut" unicode="&#x2dd;" horiz-adv-x="671" 
d="M384 641l152 196h-84l-135 -196h67zM196 641l152 196h-84l-135 -196h67z" />
    <glyph glyph-name="hyphen" unicode="-" horiz-adv-x="641" 
d="M126 248h389v55h-389v-55z" />
    <glyph glyph-name="i" unicode="i" horiz-adv-x="451" 
d="M211 670h77c0 -22 -17 -32 -40 -32s-37 11 -37 32zM211 670h77c0 22 -17 33 -40 33c-22 0 -37 -13 -37 -33zM216 483v-432h-164v-51h164h34h35h149v51h-149v482h-35h-34h-164v-50h164z" />
    <glyph glyph-name="iacute" unicode="&#xed;" horiz-adv-x="468" 
d="M202 648c74 55 147 111 221 166h-88c-74 -55 -147 -111 -221 -166h88zM216 483v-432h-164v-51h164h34h35h149v51h-149v482h-35h-34h-164v-50h164z" />
    <glyph glyph-name="icircumflex" unicode="&#xee;" horiz-adv-x="600" 
d="M590 645c-73 55 -147 111 -220 166h-10h-78h-11c-74 -55 -147 -111 -220 -166h88c60.1012 45.2817 120.88 91.2413 181.779 136.763c60.3407 -45.5213 121.12 -91.4808 181.221 -136.763h88zM290 483v-432h-165v-51h165h33h35h149v51h-149v482h-35h-33h-165v-50h165z" />
    <glyph glyph-name="idieresis" unicode="&#xef;" horiz-adv-x="468" 
d="M306 668h84c0 23 -18 35 -43 35c-24 0 -41 -13 -41 -35zM306 668h84c0 -24 -18 -35 -43 -35s-41 12 -41 35zM121 668h83c0 23 -18 35 -43 35c-24 0 -40 -13 -40 -35zM121 668h83c0 -24 -18 -35 -43 -35c-24 0 -40 12 -40 35zM223 483v-432h-164v-51h164h34h35h149v51
h-149v482h-35h-34h-164v-50h164z" />
    <glyph glyph-name="igrave" unicode="&#xec;" horiz-adv-x="472" 
d="M379 647c-73 55 -146 111 -220 166h-88c73 -56 147 -111 220 -166h88zM237 483v-432h-164v-51h164h33h36h149v51h-149v482h-36h-33h-164v-50h164z" />
    <glyph glyph-name="imacron" unicode="&#x12b;" horiz-adv-x="451" 
d="M393 694h-301v-50h301v50zM216 483v-432h-164v-51h164h34h35h149v51h-149v482h-35h-34h-164v-50h164z" />
    <glyph glyph-name="infinity" unicode="&#x221e;" horiz-adv-x="1207" 
d="M555.976 406.828c-51.436 -70.0664 -113.408 -132.828 -199.976 -132.828c-93 0 -180 45 -180 129c0 83 90 123 183 123c82.4399 0 148.099 -52.0213 196.976 -119.172zM592.778 454.68c-60.5226 71.4913 -139.365 121.32 -233.778 121.32c-127 0 -248 -58 -248 -173
s118 -178 245 -178c97.2341 0 175.715 56.258 236.826 132.168c63.6398 -76.3603 147.186 -131.168 247.174 -131.168c131 0 257 58 257 176c0 116 -127 172 -257 172c-98.2789 0 -183.231 -46.2516 -247.222 -119.32zM629.546 406.555
c52.7451 68.4675 123.155 117.445 210.454 117.445c97 0 192 -36 192 -122c0 -87 -94 -126 -192 -126c-89.4534 0 -155.945 58.6813 -210.454 130.555z" />
    <glyph glyph-name="integral" unicode="&#x222b;" horiz-adv-x="591" 
d="M572 824c-15.0676 2.05467 -29.6473 3.09614 -43.6646 3.09614c-88.3157 0 -154.308 -41.3418 -179.335 -131.096c-56 -207 -111 -414 -166 -621c-16.392 -60.3915 -61.0678 -90.2662 -121.185 -90.2662c-9.56482 0 -19.5205 0.756248 -29.8153 2.26616l-12 -50
c14.6272 -1.84488 28.8377 -2.78676 42.5536 -2.78676c90.3684 0 159.268 40.8869 184.446 133.787c56 209 113 416 169 625c15.344 57.9662 56.8477 83.2326 113.361 83.2326c9.78241 0 20.0146 -0.757059 30.6386 -2.23262z" />
    <glyph glyph-name="iogonek" unicode="&#x12f;" horiz-adv-x="451" 
d="M211 670h77c0 -22 -17 -32 -40 -32s-37 11 -37 32zM211 670h77c0 22 -17 33 -40 33c-22 0 -37 -13 -37 -33zM216 483v-432h-164v-51l98.5623 3.55271e-15c-23.0425 -16.2597 -37.5623 -38.4491 -37.5623 -73c0 -71 55 -106 131 -106c44 0 73 12 113 29l-30 40
c-27 -13 -47 -21 -77 -21c-44 0 -76 19 -76 59c0 44.28 38.242 56.7996 82.3723 72h28.6277h149v51h-149v482h-35h-34h-164v-50h164z" />
    <glyph glyph-name="j" unicode="j" horiz-adv-x="430" 
d="M14 -301c12 -1 26 -3 42 -3c125 0 229 51 229 169v668h-34h-32h-166v-50h166.016c0.128416 -205.472 0.983948 -411.736 0.983948 -618c0 -83 -74 -120 -162 -120c-12 0 -27 1 -34 2c-9 -48 -10 -48 -10 -48zM216 670h76c0 22 -17 33 -40 33c-22 0 -36 -12 -36 -33z
M216 670h76c0 -23 -17 -32 -40 -32c-22 0 -36 11 -36 32z" />
    <glyph glyph-name="k" unicode="k" horiz-adv-x="927" 
d="M289 275l377.302 208h8.69767h180v50h-98h-82h-21h-205v-50h115.149c-106.525 -59.6908 -212.461 -120.265 -319.149 -179.711l-2.84217e-14 496.711h-30h-35h-164v-50h164v-699.838l-166 0.838384v-51h166h32h33h133v51
c-64.9734 -0.379962 -79.8502 -0.478965 -82.6999 -0.500865c0 -0.00525565 -5.54143 -0.0424504 -50.3001 -0.305681v196.525c147.296 -82.091 292.04 -166.013 440 -246.719h4h104h108v51l-199.57 -0.94137c-137.477 75.0414 -274.953 149.657 -412.43 224.941z" />
    <glyph glyph-name="kcommaaccent" unicode="&#x137;" horiz-adv-x="927" 
d="M415 -321l153 196h-85l-134 -196h66zM289 275l377.302 208h8.69767h180v50h-98h-82h-21h-210v-50h120.149c-106.525 -59.6908 -212.461 -120.265 -319.149 -179.711l-2.84217e-14 496.711h-30h-35h-164v-50h164v-699.838l-166 0.838384v-51h166h32h33h138v51
l-138 -0.807018v196.526c147.296 -82.091 292.04 -166.013 440 -246.719h4h104h108v51l-199.57 -0.94137c-137.477 75.0414 -274.953 149.657 -412.43 224.941z" />
    <glyph glyph-name="l" unicode="l" horiz-adv-x="426" 
d="M245 50.1616v749.838h-29h-36h-161v-50h161v-699.832l-164 0.832487v-51h164h33h32h166v51z" />
    <glyph glyph-name="lacute" unicode="&#x13a;" horiz-adv-x="436" 
d="M165 894c74 56 147 111 221 166h-88c-74 -55 -148 -111 -221 -166h88zM247 50.1566v749.843h-28h-36h-162v-50h162v-699.833l-165 0.833333v-51h165h33h31h167v51z" />
    <glyph glyph-name="lcaron" unicode="&#x13e;" horiz-adv-x="581" 
d="M399 605l153 196h-85l-134 -196h66zM245 50.1616v749.838h-29h-36h-161v-50h161v-699.832l-164 0.832487v-51h164h33h32h166v51z" />
    <glyph glyph-name="lcommaaccent" unicode="&#x13c;" horiz-adv-x="426" 
d="M154 -318l153 196h-85l-134 -196h66zM245 50.1616v749.838h-29h-36h-161v-50h161v-699.832l-164 0.832487v-51h164h33h32h166v51z" />
    <glyph glyph-name="less" unicode="&#x3c;" horiz-adv-x="973" 
d="M147.014 300.566l726.986 241.434v56l-813 -270v-56c276 -88 551 -176 827 -264v56c-247.319 78.8552 -493.834 157.71 -740.986 236.566z" />
    <glyph glyph-name="lessequal" unicode="&#x2264;" horiz-adv-x="1049" 
d="M105 -1h826v52h-826v-52zM194.533 414.629c245.35 75.5959 491.408 150.483 737.467 225.371v54c-276 -84 -552 -167 -827 -252v-55c275 -84 551 -168 827 -253v55c-246.058 74.8874 -492.117 150.57 -737.467 225.629z" />
    <glyph glyph-name="litre" horiz-adv-x="474" 
d="M268 50.1566v749.843h-28h-37h-161v-50h161v-699.828l-164 0.828283v-51h164h34h31h167v51z" />
    <glyph glyph-name="logicalnot" unicode="&#xac;" horiz-adv-x="918" 
d="M728 338h-569v-55h569v-134h62v134v55h-62z" />
    <glyph glyph-name="logo" horiz-adv-x="2510" 
d="M1867 56c93 -41 181 -61 282 -61c170 0 308 34 308 182c0 138 -132 169 -270 217c-111 38 -229 58 -229 162c0 91 93 123 200 123c80.9164 0 143.648 -17.3585 216 -46.8149v-99.1851h52v129c-91 40 -166 65 -266 65c-145 0 -268 -47 -268 -174c0 -131 128 -159 257 -203
c120 -41 243 -65 243 -173c0 -105 -107 -129 -238 -129c-84.5011 0 -159.305 17.6307 -236 49.5814v91.4186h-52v-133h1zM1162 722h-30h-35h-162v-50h162v-621h-162v-51h162h35h30h235c269 0 439 102 439 351c0 262 -174 371 -453 371h-221zM1162 672h217
c242 0 393 -96 393 -322c0 -211 -143 -299 -369 -299h-241v621zM439 668v-618h-166v-50h166h31h34h164v50h-164v618h329v-92h52v92v28v26h-827v-26v-28v-92h52v92h329z" />
    <glyph glyph-name="lozenge" unicode="&#x25ca;" horiz-adv-x="685" 
d="M309 132h-1c-77 110 -155 220 -232 330h65c66.3803 94.829 133.504 189.658 200.089 284.487c66.6655 -94.3796 136.64 -192.396 202.911 -284.487h65c-76 107 -157 222 -234 330h-2h-64h-1c-77 -110 -155 -220 -232 -330h65
c66.4225 -94.8893 133.589 -189.779 200.216 -284.668c66.6273 93.7048 136.555 191.776 202.784 284.668h65c-76 -108 -157 -223 -234 -330h-2h-64z" />
    <glyph glyph-name="lslash" unicode="&#x142;" horiz-adv-x="434" 
d="M251 50.1616v356.627c53.2872 44.7373 106.644 89.4745 160 134.212v55c-53.3564 -44.7373 -106.713 -89.3061 -160 -133.845v337.845h-29h-36h-161v-50h161v-342.2c-54.7949 -45.8554 -109.487 -91.7384 -164 -137.8v-56c54.5132 46.0616 109.205 92.1232 164 138.185
v-302.017l-164 0.832487v-51h164h33h32h166v51z" />
    <glyph glyph-name="m" unicode="m" horiz-adv-x="1345" 
d="M282 436.893v96.1065h-32h-33h-165v-50h165v-432h-165v-51h165h33h32h138v51h-138v311.425c48.4136 79.889 120.579 123.575 215 123.575c108 0 163 -47 163 -156v-279h-138v-51h138h33h32h138v51h-138v285c0 8.81899 -0.277767 17.3245 -0.8343 25.521
c47.3516 79.7154 122.146 124.479 216.834 124.479c109 0 162 -47 162 -156v-279h-136v-51h136h34h32h166v51h-166v285c0 140 -72 201 -215 201c-101.491 0 -184.815 -38.2794 -241.089 -113.793c-25.6655 78.5022 -92.3825 113.793 -201.911 113.793
c-96.3204 0 -172.508 -32.7872 -229 -100.107z" />
    <glyph glyph-name="macron" unicode="&#xaf;" horiz-adv-x="490" 
d="M336 682h-301v-50h301v50z" />
    <glyph glyph-name="macronmod" horiz-adv-x="465" 
d="M382 682h-301v-50h301v50z" />
    <glyph glyph-name="minus" unicode="&#x2212;" horiz-adv-x="887" 
d="M128 283h631v55h-631v-55z" />
    <glyph glyph-name="multiply" unicode="&#xd7;" horiz-adv-x="716" 
d="M358.044 349.5l-203.044 203.5c-12 -12 -27 -28 -39 -39l203 -203.456l-204 -203.544l39 -39l203.956 203.5l203.044 -203.5l39 39l-203 203.456l204 203.544c-12 11 -27 27 -39 39z" />
    <glyph glyph-name="mumath" horiz-adv-x="973" 
d="M699 164.936c-53.2475 -68.4683 -138.383 -118.936 -227 -118.936c-117 0 -196 42 -196 152v335h-32h-32h-1h-164v-50h164v-289c0 -8.17517 0.336634 -16.066 1 -23.6783v-470.322h64v345.042c45.0752 -34.8251 111.244 -50.0421 191 -50.0421
c89.1183 0 173.432 41.4369 232 104.299v-99.2994h32h33h151v51h-151v482h-33h-32h-165v-50h165v-318.064z" />
    <glyph glyph-name="n" unicode="n" horiz-adv-x="953" 
d="M217 483v-432h-165v-51h165h32h33h152v51h-152v311.686c52.8574 79.7233 144.961 123.314 242 123.314c114 0 190 -48 190 -156v-279h-153v-51h153h31h34h163v51h-163v285c0 139 -94 201 -241 201c-99.753 0 -192.33 -32.2898 -256 -102.881v98.8806h-33h-32h-165v-50
h165z" />
    <glyph glyph-name="nacute" unicode="&#x144;" horiz-adv-x="953" 
d="M458 647c73 56 147 111 220 166h-88c-74 -55 -147 -111 -220 -166h88zM217 483v-432h-165v-51h165h32h33h152v51h-152v311.686c52.8574 79.7233 144.961 123.314 242 123.314c114 0 190 -48 190 -156v-279h-153v-51h153h31h34h163v51h-163v285c0 139 -94 201 -241 201
c-99.753 0 -192.33 -32.2898 -256 -102.881v98.8806h-33h-32h-165v-50h165z" />
    <glyph glyph-name="ncaron" unicode="&#x148;" horiz-adv-x="953" 
d="M239 810c73 -55 146 -111 220 -166h11h77h11c73 55 147 111 220 166h-88c-61.0056 -45.342 -121.332 -90.684 -181.538 -136.586c-60.4199 45.9023 -121.281 91.2443 -181.462 136.586h-88zM217 483v-432h-165v-51h165h32h33h152v51h-152v311.686
c52.8574 79.7233 144.961 123.314 242 123.314c114 0 190 -48 190 -156v-279h-153v-51h153h31h34h163v51h-163v285c0 139 -94 201 -241 201c-99.753 0 -192.33 -32.2898 -256 -102.881v98.8806h-33h-32h-165v-50h165z" />
    <glyph glyph-name="ncommaaccent" unicode="&#x146;" horiz-adv-x="953" 
d="M460 -317l153 196h-85l-134 -196h66zM217 483v-432h-165v-51h165h32h33h152v51h-152v311.686c52.8574 79.7233 144.961 123.314 242 123.314c114 0 190 -48 190 -156v-279h-153v-51h153h31h34h163v51h-163v285c0 139 -94 201 -241 201
c-99.753 0 -192.33 -32.2898 -256 -102.881v98.8806h-33h-32h-165v-50h165z" />
    <glyph glyph-name="nine" unicode="9" horiz-adv-x="802" 
d="M642.311 397.303c-41.164 -224.565 -267.294 -316.458 -538.311 -355.303c4.57223 -22.4455 5.17073 -26.059 5.17073 -26.5675c0 -0.714973 0 -0.714973 5.82927 -27.4325c331 42 596 174 596 489c0 172 -135 252 -322 252c-165 0 -287 -67 -287 -218
c0 -150 123 -211 287 -211c108.37 0 194.086 29.4509 253.311 97.3034zM648.976 477.488c-58.3837 -90.6837 -139.67 -125.488 -253.976 -125.488c-129 0 -228 45 -228 162c0 112 96 156 219 156c149.712 0 261.087 -57.9981 262.976 -192.512z" />
    <glyph glyph-name="notequal" unicode="&#x2260;" horiz-adv-x="1064" 
d="M409.326 191l-146.326 -208h63l146.023 208h480.977v53h-443.769l118.644 169h325.125v53h-287.917l143.917 205h-62l-144.215 -205h-488.785v-53h451.5l-118.89 -169h-332.61v-53h295.326z" />
    <glyph glyph-name="ntilde" unicode="&#xf1;" horiz-adv-x="953" 
d="M741 790c-18 -53 -41 -94 -90 -94c-45 0 -75 14 -110 43c-42 35 -76 54 -131 54c-80 0 -127 -47 -149 -126l49 -20c18 57 48 95 102 95c40 0 64 -18 95 -44c45 -36 84 -54 142 -54c78 0 117 51 143 127c-22.2901 8.30417 -25.096 9.15845 -25.4491 9.15845
c0 0 2.03441 -0.976202 -25.5509 9.84155zM217 483v-432h-165v-51h165h32h33h152v51h-152v311.686c52.8574 79.7233 144.961 123.314 242 123.314c114 0 190 -48 190 -156v-279h-153v-51h153h31h34h163v51h-163v285c0 139 -94 201 -241 201
c-99.753 0 -192.33 -32.2898 -256 -102.881v98.8806h-33h-32h-165v-50h165z" />
    <glyph glyph-name="nullsuperior" horiz-adv-x="696" 
d="M113 492c0 -137 94 -215 235 -215s235 79 235 217c0 135 -94 211 -234 211c-141 0 -236 -77 -236 -213zM175 492c0 102 68 163 172 163c0.839803 0.00807503 1.67719 0.0121073 2.51216 0.0121073c102.566 0 168.488 -60.8438 168.488 -163.012
c0 -103 -64 -165 -167 -165c-107 0 -176 60 -176 165z" />
    <glyph glyph-name="numbersign" unicode="#" horiz-adv-x="912" 
d="M744.081 522l84.9195 200h-65l-84.9195 -200h-306.4l84.3195 200h-65l-83.7278 -200h-119.272l-20 -50h118.34l-77.4114 -184.912c-39.3178 -0.0546236 -78.6233 -0.0880455 -117.929 -0.0880455l-21 -50l117.96 2.84217e-14l-79.9601 -191h63l80.5251 191
l305.545 -2.84217e-14l-84.0703 -198h65l84.0703 198h96.9297l19 51c-31.4732 0 -62.9043 -0.0210359 -94.2995 -0.0570058l78.1501 184.057h93.1493l19 50h-90.9195zM657.851 472l-78.19 -184.151c-102.259 -0.175159 -204.179 -0.464354 -305.974 -0.655784
l77.9141 184.807h306.25z" />
    <glyph glyph-name="o" unicode="o" horiz-adv-x="829" 
d="M94 268c0 -180 129 -273 319 -273c191 0 322 90 322 271c0 178 -131 272 -323 272c-190 0 -318 -95 -318 -270zM159 268c0 143 100 220 250 220c156 0 260 -77 260 -222s-102 -220 -253 -220c-154 0 -257 77 -257 222z" />
    <glyph glyph-name="oacute" unicode="&#xf3;" horiz-adv-x="829" 
d="M360 647c74 55 147 110 220 166h-88c-73 -55 -147 -111 -220 -166h88zM94 268c0 -180 129 -273 319 -273c191 0 322 90 322 271c0 178 -131 272 -323 272c-190 0 -318 -95 -318 -270zM159 268c0 143 100 220 250 220c156 0 260 -77 260 -222s-102 -220 -253 -220
c-154 0 -257 77 -257 222z" />
    <glyph glyph-name="ocircumflex" unicode="&#xf4;" horiz-adv-x="829" 
d="M680 647c-73 55 -146 111 -220 166h-10h-78h-10c-74 -55 -147 -111 -221 -166h88c60.9116 45.2721 121.146 91.2218 181.817 136.734c60.3281 -45.5118 121.094 -91.4614 181.183 -136.734h88zM94 268c0 -180 129 -273 319 -273c191 0 322 90 322 271
c0 178 -131 272 -323 272c-190 0 -318 -95 -318 -270zM159 268c0 143 100 220 250 220c156 0 260 -77 260 -222s-102 -220 -253 -220c-154 0 -257 77 -257 222z" />
    <glyph glyph-name="odieresis" unicode="&#xf6;" horiz-adv-x="829" 
d="M463 669h84c0 23 -18 35 -43 35c-24 0 -41 -13 -41 -35zM463 669h84c0 -24 -18 -35 -44 -35c-24 0 -40 12 -40 35zM278 669h83c0 23 -18 35 -43 35c-24 0 -40 -13 -40 -35zM278 669h83c0 -24 -18 -35 -43 -35c-24 0 -40 12 -40 35zM94 268c0 -180 129 -273 319 -273
c191 0 322 90 322 271c0 178 -131 272 -323 272c-190 0 -318 -95 -318 -270zM159 268c0 143 100 220 250 220c156 0 260 -77 260 -222s-102 -220 -253 -220c-154 0 -257 77 -257 222z" />
    <glyph glyph-name="oe" unicode="&#x153;" horiz-adv-x="1343" 
d="M1185 305h-446.982c10.1514 121.333 95.6471 182 225.983 182c131.656 0 220.535 -54.7135 220.998 -182zM737.71 258h509.29v41c0 164 -111 239 -279 239c-128.69 0 -224.667 -42.4252 -268.927 -130.565c-51.4835 85.9532 -154.803 130.565 -287.073 130.565
c-190 0 -318 -95 -318 -270c0 -180 129 -273 319 -273c136.871 0 242.93 46.2165 292.052 139.017c50.5491 -93.7149 156.006 -139.017 294.948 -139.017c96 0 158 21 234 76l-37 40c-66 -47 -118 -65 -197 -65c-151.388 0 -252.916 69.8035 -262.29 212zM159 268
c0 143 100 220 250 220c156 0 260 -77 260 -222s-102 -220 -253 -220c-154 0 -257 76 -257 222z" />
    <glyph glyph-name="ogonek" unicode="&#x2db;" horiz-adv-x="422" 
d="M190 41c-79 -27 -153 -42 -153 -120c0 -71 55 -106 132 -106c43 0 73 12 112 29l-29 40c-28 -13 -48 -20 -77 -20c-44 0 -77 18 -77 58c0 55 60 61 116 84z" />
    <glyph glyph-name="ograve" unicode="&#xf2;" horiz-adv-x="829" 
d="M536 646c-73 55 -146 111 -220 166h-88c73 -55 147 -111 220 -166h88zM94 268c0 -180 129 -273 319 -273c191 0 322 90 322 271c0 178 -131 272 -323 272c-190 0 -318 -95 -318 -270zM159 268c0 143 100 220 250 220c156 0 260 -77 260 -222s-102 -220 -253 -220
c-154 0 -257 77 -257 222z" />
    <glyph glyph-name="ohungarumlaut" unicode="&#x151;" horiz-adv-x="829" 
d="M501 585l152 196h-84l-135 -196h67zM313 585l152 196h-85l-134 -196h67zM94 268c0 -180 129 -273 319 -273c191 0 322 90 322 271c0 178 -131 272 -323 272c-190 0 -318 -95 -318 -270zM159 268c0 143 100 220 250 220c156 0 260 -77 260 -222s-102 -220 -253 -220
c-154 0 -257 77 -257 222z" />
    <glyph glyph-name="omacron" unicode="&#x14d;" horiz-adv-x="829" 
d="M555 695h-300v-49h300v49zM94 268c0 -180 129 -273 319 -273c191 0 322 90 322 271c0 178 -131 272 -323 272c-190 0 -318 -95 -318 -270zM159 268c0 143 100 220 250 220c156 0 260 -77 260 -222s-102 -220 -253 -220c-154 0 -257 77 -257 222z" />
    <glyph glyph-name="omegamath" horiz-adv-x="1030" 
d="M802.496 50c93.4411 72.8046 143.504 169.215 143.504 299c0 240 -179 377 -430 377c-253 0 -433 -138 -433 -380c0 -128.138 51.9603 -220.76 144.146 -296h-198.146v-50h269l36 50c-117 72 -186 160 -186 296c0 207 149 331 362 331c217 0 371 -121 371 -328
c0 -139 -72 -230 -194 -299l38 -50h273v50h-195.504z" />
    <glyph glyph-name="one" unicode="1" horiz-adv-x="605" 
d="M330 722l-261 -166l29 -46l232 144.794v-603.794h-162v-51h162h36h29h168v51h-168v671h-65z" />
    <glyph glyph-name="onehalf" unicode="&#xbd;" horiz-adv-x="1377" 
d="M943 229c38 48 86 68 149 68c70 0 127 -21 127 -80c0 -54 -46 -73 -92 -103c-87 -48 -173 -96 -258 -144v-50h444v131h-49v-81l-293.72 -3.55271e-14c66.7551 35.6138 128.474 70.2804 189.72 104c65 43 123 72 123 145c0 92 -82 128 -184 128c-88 0 -153 -21 -202 -87z
M429 -74l568 815h-62l-569 -815h63zM1288.88 -54.1375c0 1.63701 -3.43474 5.92813 -24.8814 24.1375c21.4466 -18.2094 24.8814 -22.5005 24.8814 -24.1375zM229 744l-166 -110l29 -39l137 96.3069v-320.307h-122v-47h122h180v47h-115v366v7h-65zM261.5 347.5
c0 -0.054914 0.012757 -0.109828 0.012757 -0.154635c-0.165648 -0.0722113 -0.277782 -0.101361 -0.353692 -0.101361c-0.228903 0 -0.128404 0.265065 -0.172527 0.413754c0.164234 0.0699293 0.275937 0.0982376 0.351911 0.0982376
c0.161551 0 0.161551 -0.127998 0.161551 -0.255996z" />
    <glyph glyph-name="onequarter" unicode="&#xbc;" horiz-adv-x="1340" 
d="M433 -74l569 815h-63l-569 -815h63zM1107 -86h32h165v47h-165v79h118v48h-118v264v6h-64l-288 -270l24 -48h264v-79h-166v-47h166h32zM1075 291.122v-203.122h-213.538zM233 744l-166 -110l29 -39l137 96.3069v-320.307h-122v-47h122h181v47h-116v366v7h-65zM265.5 347.5
c0 -0.054914 0.012757 -0.109828 0.012757 -0.154635c-0.165648 -0.0722113 -0.277782 -0.101361 -0.353692 -0.101361c-0.228903 0 -0.128404 0.265065 -0.172527 0.413754c0.164234 0.0699293 0.275937 0.0982376 0.351911 0.0982376
c0.161551 0 0.161551 -0.127998 0.161551 -0.255996z" />
    <glyph glyph-name="onesuperior" unicode="&#xb9;" horiz-adv-x="564" 
d="M282 702l-166 -110l29 -39l137 96.3069v-320.307h-122v-46h122h181v46h-116v366v7h-65zM314.5 306c0 -0.0577678 0.014851 -0.115536 0.014851 -0.161765c-0.163368 -0.0688284 -0.274898 -0.096753 -0.351037 -0.096753
c-0.238624 0 -0.129649 0.274276 -0.179416 0.423297c0.161954 0.0666313 0.273038 0.0937398 0.349229 0.0937398c0.166373 0 0.166373 -0.129259 0.166373 -0.258518z" />
    <glyph glyph-name="ordfeminine" unicode="&#xaa;" horiz-adv-x="659" 
d="M411 636.664c-52.5888 -4.08194 -93.8988 -5.68265 -152 -11.6637c-81 -7 -144 -31 -144 -105c0 -73 64 -101 148 -101c61.6473 0 108.214 23.16 148 58.8073v-51.8073h32h25h77v39h-77v212c0 79 -77 95 -168 95c-68 0 -127 -21 -168 -52v-77h41v51.936
c31.4811 18.6501 74.6292 35.064 123 35.064c61 0 115 -9 115 -69v-24.3363zM411 526.985c-37.2314 -38.6455 -83.2767 -66.9847 -142 -66.9847c-56 0 -102 15 -102 62c0 44 40 60 90 65c58.403 5.07852 101.045 8.00776 154 13.0325v-73.0478z" />
    <glyph glyph-name="ordmasculine" unicode="&#xba;" horiz-adv-x="653" 
d="M114 601c0 -120 88 -183 214 -183c125 0 211 63 211 182c0 115 -87 176 -212 176s-213 -61 -213 -175zM170 601c0 85 63 131 155 131c93 0 158 -47 158 -132c0 -88 -62 -138 -152 -138c-95 0 -161 50 -161 139z" />
    <glyph glyph-name="oslash" unicode="&#xf8;" horiz-adv-x="829" 
d="M94 268c0 -113.315 51.1229 -192.151 136.404 -235.012l-58.404 -83.9881l40 -30l66.3233 94.7683c39.9681 -12.477 85.2591 -18.7683 134.677 -18.7683c191 0 322 90 322 271c0 105.04 -45.6184 180.828 -122.47 225.31l56.4704 80.6897l-45 27l-59.406 -85.429
c-44.3155 16.1997 -95.7846 24.429 -152.594 24.429c-190 0 -318 -95 -318 -270zM159 268c0 143 100 220 250 220c46.3093 0 88.0363 -6.78545 123.821 -20.1209l-269.677 -387.809c-65.4361 35.7064 -104.144 99.0409 -104.144 187.93zM579.715 444.422
c56.4482 -36.9392 89.2851 -96.9454 89.2851 -178.422c0 -145 -102 -220 -253 -220c-38.4962 0 -73.8056 4.81156 -105.116 14.2941z" />
    <glyph glyph-name="otilde" unicode="&#xf5;" horiz-adv-x="829" 
d="M624 790c-18 -53 -41 -94 -89 -94c-45 0 -75 14 -110 43c-43 35 -77 54 -131 54c-81 0 -128 -46 -150 -125c49 -21 0 -1 49 -21c18 58 48 95 102 95c40 0 65 -18 95 -43c46 -37 84 -55 142 -55c78 0 117 52 143 127zM94 268c0 -180 129 -273 319 -273
c191 0 322 90 322 271c0 178 -131 272 -323 272c-190 0 -318 -95 -318 -270zM159 268c0 143 100 220 250 220c156 0 260 -77 260 -222s-102 -220 -253 -220c-154 0 -257 77 -257 222z" />
    <glyph glyph-name="p" unicode="p" horiz-adv-x="898" 
d="M244 469.985v63.0151h-32h-33h-164v-50h164v-733h-166v-49h166v-1h31h34h151v50h-151v319.126c77.7642 -51.5778 152.276 -74.1262 250 -74.1262c179 0 310 103 309 280c0 164 -129 264 -306 264c-97.0474 0 -187.464 -28.9327 -253 -69.0151zM244 127.192v285.024
c56.8364 43.1558 149.747 75.7849 250 75.7849c145 0 245 -82 245 -216c0.0422423 -2.02763 0.0632699 -4.04336 0.0632699 -6.04713c0 -138.644 -100.669 -219.988 -240.048 -219.988c-1.66641 0 -3.33836 0.0116279 -5.01573 0.0349247
c-97.9889 0 -166.111 25.3418 -250 81.1916z" />
    <glyph glyph-name="paragraph" unicode="&#xb6;" horiz-adv-x="957" 
d="M836 0v722h-54h-11h-152h-34h-4h-28h-146c-185 0 -338 -67 -338 -233c0 -154 138 -217 311 -220c61.7067 0 116.162 12.5254 173 31.1532v-249.153h-166v-51h166h32h34h152h11h54zM553 672v-318.914c-61.1456 -21.7268 -111.921 -34.086 -180 -34.086
c-131 0 -239 49 -239 168c0 136 128 185 282 185h137zM619 51v621h152v-621h-152z" />
    <glyph glyph-name="parenleft" unicode="(" horiz-adv-x="484" 
d="M459 -225c-199 146 -309 304 -309 551s111 402 307 553l-38 33c-213 -157 -334 -322 -334 -586s122 -428 336 -587z" />
    <glyph glyph-name="parenright" unicode=")" horiz-adv-x="498" 
d="M61 -276c219 167 353 329 353 604c0 268 -127 430 -348 585l-38 -36c203 -148 320 -302 320 -552c0 -255 -126 -408 -326 -568z" />
    <glyph glyph-name="partialdiff" unicode="&#x2202;" horiz-adv-x="756" 
d="M593.65 327.313c3.59332 28.7778 5.34958 58.8282 5.34958 89.6873c0 150 -77 261 -218 261c-59 0 -102 -19 -156 -42l-29 39c65 32 115 52 188 52c175 0 277 -128 277 -310c0 -235.368 -97.4761 -421.004 -311.276 -421.004
c-0.573755 0 -1.14835 0.0013369 -1.72378 0.00401332c-150 0 -263 74 -263 215c0 147 119 224 276 224c102.627 0 186.972 -35.5183 232.65 -107.687zM577.319 245.403c-27.3058 94.6472 -107.134 141.597 -213.319 141.597c-117 0 -214 -56 -214 -168
c0 -111 88 -174 198 -174c121.844 0.696249 195.696 82.3479 229.319 200.403z" />
    <glyph glyph-name="percent" unicode="%" horiz-adv-x="1426" 
d="M481 -74l569 815h-63l-568 -815h62zM895 133c0 -137 93 -215 234 -215s235 79 235 218c0 135 -94 210 -233 211c-142 0 -236 -77 -236 -214zM957 133c0 103 67 163 171 163c0.839803 0.00807503 1.67719 0.0121073 2.51216 0.0121073
c102.566 0 168.488 -60.8438 168.488 -163.012c0 -102 -64 -165 -167 -165c-107 0 -175 61 -175 165zM62 530c0 -136 93 -214 234 -214s235 78 235 217c0 135 -93 211 -233 211c-142 0 -236 -77 -236 -214zM124 530c0 103 67 163 171 163
c0.839858 0.00807556 1.6773 0.0121078 2.51232 0.0121078c102.565 0 168.488 -60.8358 168.488 -162.012c0 -103 -64 -166 -167 -166c-107 0 -175 61 -175 165z" />
    <glyph glyph-name="period" unicode="." horiz-adv-x="328" 
d="M122 28h84c0 23 -18 35 -43 35c-24 0 -41 -13 -41 -35zM122 28h84c0 -24 -18 -35 -43 -35s-41 12 -41 35z" />
    <glyph glyph-name="periodcentered" unicode="&#xb7;" horiz-adv-x="333" 
d="M125 440h83c0 23 -18 35 -43 35c-24 0 -40 -13 -40 -35zM125 440h83c0 -24 -18 -35 -43 -35c-24 0 -40 12 -40 35z" />
    <glyph glyph-name="perthousand" unicode="&#x2030;" horiz-adv-x="1969" 
d="M481 -74l569 815h-63l-568 -815h62zM1441 133c0 -137 93 -215 234 -215s235 79 235 218c0 135 -94 210 -233 211c-142 0 -236 -77 -236 -214zM1503 133c0 103 67 163 171 163c0.839803 0.00807503 1.67719 0.0121073 2.51216 0.0121073
c102.566 0 168.488 -60.8438 168.488 -163.012c0 -102 -64 -165 -167 -165c-107 0 -175 61 -175 165zM895 133c0 -137 93 -215 234 -215s235 79 235 218c0 135 -94 210 -233 211c-142 0 -236 -77 -236 -214zM957 133c0 103 67 163 171 163
c0.839803 0.00807503 1.67719 0.0121073 2.51216 0.0121073c102.566 0 168.488 -60.8438 168.488 -163.012c0 -102 -64 -165 -167 -165c-107 0 -175 61 -175 165zM62 530c0 -136 93 -214 234 -214s235 78 235 217c0 135 -93 211 -233 211c-142 0 -236 -77 -236 -214z
M124 530c0 103 67 163 171 163c0.839858 0.00807556 1.6773 0.0121078 2.51232 0.0121078c102.565 0 168.488 -60.8358 168.488 -162.012c0 -103 -64 -166 -167 -166c-107 0 -175 61 -175 165z" />
    <glyph glyph-name="pi" unicode="&#x3c0;" horiz-adv-x="700" 
d="M220 535h259v-517h62v517h126v56h-638v-56h130v-517h61v517z" />
    <glyph glyph-name="plus" unicode="+" horiz-adv-x="797" 
d="M427 338v250h-61v-250h-283v-55h283v-265h61v265h287v55h-287z" />
    <glyph glyph-name="plusminus" unicode="&#xb1;" horiz-adv-x="845" 
d="M451 338v250h-62v-250h-282v-55h282v-210h-282v-55h282h62h287v55h-287v210h287v55h-287z" />
    <glyph glyph-name="product" unicode="&#x220f;" horiz-adv-x="1169" 
d="M282 800h-15h-35h-162v-50h162v-700h-165v-50h165h33h31h166v50h-166v700h574v-700h-165v-50h165h33h31h166v50h-166v700h165v50h-165h-21h-14h-29h-574h-14z" />
    <glyph glyph-name="q" unicode="q" horiz-adv-x="891" 
d="M656 420.896v-288.789c-68.1402 -59.2822 -155.84 -86.1062 -247 -86.1062c-146 0 -252 80 -252 220s103 222 250 222c86.5259 0 173.052 -24.8867 249 -67.1044zM656 69.2052v-319.205h-161v-50h161h36h33h151v50h-151v733h151v50h-151h-33h-36v-60.8577
c-76.866 40.8865 -164.262 65.8577 -251 65.8577c-184 0 -314 -100 -314 -275c0 -173 135 -268 319 -268c89.9214 0 174.777 24.0632 246 74.2052z" />
    <glyph glyph-name="question" unicode="?" horiz-adv-x="586" 
d="M115 658c34 10 59 14 95 14c121 0 219 -45 219 -153c0 -118 -109 -170 -241 -170h-19v-127h65v75.8749c145.271 12.1283 257 83.3546 257 221.125c0 138 -125 205 -275 205c-45 0 -79 -5 -122 -16zM164 13h76c0 22 -15 32 -38 32c-22 0 -38 -12 -38 -32zM164 13h76
c0 -23 -15 -32 -38 -32s-38 11 -38 32z" />
    <glyph glyph-name="questiondown" unicode="&#xbf;" horiz-adv-x="586" 
d="M471 47c-34 -9 -59 -14 -95 -14c-121 0 -219 45 -219 153c0 119 109 170 241 170h19v128h-65v-76.8749c-145.271 -12.1283 -257 -83.3546 -257 -221.125c0 -138 125 -205 275 -205c45 0 79 5 122 16zM422 693h-76c0 22 15 31 38 31s38 -11 38 -31zM422 693h-76
c0 -23 15 -33 38 -33c22 0 38 12 38 33z" />
    <glyph glyph-name="quotedbl" unicode="&#x22;" horiz-adv-x="580" 
d="M446 658v188h-62v-188h62zM199 658v188h-65v-188h65z" />
    <glyph glyph-name="quotedblbase" unicode="&#x201e;" horiz-adv-x="582" 
d="M301 -134l153 196h-85l-134 -196h66zM115 -134l152 196h-84l-135 -196h67z" />
    <glyph glyph-name="quotedblleft" unicode="&#x201c;" horiz-adv-x="507" 
d="M227 883l-152 -196h84l135 196h-67zM416 883l-153 -196h85l134 196h-66z" />
    <glyph glyph-name="quotedblright" unicode="&#x201d;" horiz-adv-x="472" 
d="M265 641l152 196h-84l-135 -196h67zM77 641l152 196h-84l-135 -196h67z" />
    <glyph glyph-name="quoteleft" unicode="&#x2018;" horiz-adv-x="427" 
d="M275 771l-153 -195h85l134 195h-66z" />
    <glyph glyph-name="quoteright" unicode="&#x2019;" horiz-adv-x="424" 
d="M189 526l152 196h-84l-135 -196h67z" />
    <glyph glyph-name="quotesinglbase" unicode="&#x201a;" horiz-adv-x="395" 
d="M115 -134l152 196h-84l-135 -196h67z" />
    <glyph glyph-name="quotesingle" unicode="'" horiz-adv-x="332" 
d="M198 658v188h-64v-188h64z" />
    <glyph glyph-name="r" unicode="r" horiz-adv-x="630" 
d="M283 387.349c79.7356 93.392 181.103 98.6508 300 98.6508v52c-118.919 0 -222.468 -14.6387 -300 -88.3762v83.3762h-33h-32h-166v-50h166v-432h-165v-51h165h33h32h152v51h-152v336.349z" />
    <glyph glyph-name="racute" unicode="&#x155;" horiz-adv-x="630" 
d="M255 647c74 55 147 110 220 166h-88c-73 -55 -147 -111 -220 -166h88zM283 387.349c79.7356 93.392 181.103 98.6508 300 98.6508v52c-118.919 0 -222.468 -14.6387 -300 -88.3762v83.3762h-33h-32h-166v-50h166v-432h-165v-51h165h33h32h152v51h-152v336.349z" />
    <glyph glyph-name="radical" unicode="&#x221a;" horiz-adv-x="900" 
d="M485 0c122 241 245 481 368 722h-65c-115.415 -222.521 -228.273 -444.19 -342.51 -666.58c-83.4465 162.237 -29.7437 57.9344 -145.49 277.58h-32h-32h-166v-51h192.439c87.3243 -168.55 30.6174 -60.3889 145.561 -282h9h57h11z" />
    <glyph glyph-name="rcaron" unicode="&#x159;" horiz-adv-x="665" 
d="M56 810c73 -55 147 -111 220 -166h11h78h10c74 55 147 111 220 166h-88c-60.1012 -46.105 -120.88 -91.5322 -181.221 -136.84c-60.8988 45.3074 -121.678 90.7346 -181.779 136.84h-88zM303 387.349c79.7356 93.392 181.103 98.6508 300 98.6508v52
c-118.919 0 -222.468 -14.6387 -300 -88.3762v83.3762h-33h-32h-166v-50h166v-432h-165v-51h165h33h32h152v51h-152v336.349z" />
    <glyph glyph-name="rcommaaccent" unicode="&#x157;" horiz-adv-x="630" 
d="M240 -319l153 195h-85l-134 -195h66zM283 387.349c79.7356 93.392 181.103 98.6508 300 98.6508v52c-118.919 0 -222.468 -14.6387 -300 -88.3762v83.3762h-33h-32h-166v-50h166v-432h-165v-51h165h33h32h152v51h-152v336.349z" />
    <glyph glyph-name="registered" unicode="&#xae;" horiz-adv-x="1052" 
d="M402 146h134v43h-79v98h57c10.9146 0 21.546 0.25616 31.8129 0.84362c35.6071 -46.7548 70.1613 -94.6671 106.187 -141.844h119v43h-79c-28.3319 36.3002 -57.4477 71.8166 -85.9593 107.937c45.5378 12.8721 74.9593 40.4659 74.9593 95.0629c0 76 -67 104 -152 104
h-72h-148v-42h93v-265h-93v-42h93l30.6186 23.3814zM457 454h62c59 0 108 -13 108 -65s-47 -60 -105 -60h-65v125zM457 454v42zM95 321c0 -221 198 -322 442 -322c234 0 420 107 420 322c0 218 -189 324 -426 324c-242 0 -436 -103 -436 -324zM147 321
c0 194 171 285 384 285c207 0 374 -95 374 -287c0 -187 -163 -280 -366 -280c-214 0 -392 86 -392 282z" />
    <glyph glyph-name="ring" unicode="&#x2da;" horiz-adv-x="475" 
d="M79 715c0 56 45 81 105 81c65 0 115 -22 115 -81c0 -56 -49 -79 -112 -79c-61 0 -108 23 -108 79zM20 715c0 -86 73 -126 167 -126c97 0 171 38 171 126c0 89 -75 127 -174 127c-94 0 -164 -40 -164 -127z" />
    <glyph glyph-name="ruble" horiz-adv-x="868" 
d="M460 309c200 3 339 27 339 207c0 176 -138 206 -339 206h-146h-27h-4h-34h-164v-50h164v-310h-121v-53h121v-85h-121v-53h121v-120h-164v-51h164h34h31h166v51h-166v120h356v53h-356v85h146zM314 672h137c167 0 282 -12 282 -157c0 -143 -115 -153 -280 -153h-139v310z
" />
    <glyph glyph-name="rupee" horiz-adv-x="1042" 
d="M0 0h1042v20h-1042v-20z" />
    <glyph glyph-name="s" unicode="s" horiz-adv-x="670" 
d="M143 89.8139v88.1861h-52v-128h3c86 -32 159 -55 247 -55c134 0 236 33 236 152c0 118 -112 125 -236 153c-86 19 -166 36 -166 106c0 64 64 82 145 82c55.1587 0 120.399 -14.4023 167 -32.2074v-89.7926h52v125c-52 24 -143 47 -217 47c-117 0 -206 -28 -206 -132
c0 -106 91 -130 204 -155c97 -24 195 -25 195 -105c0 -77 -73 -100 -164 -100c-75.1181 0 -136.476 18.0609 -208 43.8139z" />
    <glyph glyph-name="sacute" unicode="&#x15b;" horiz-adv-x="670" 
d="M273 647c74 55 147 111 220 166h-88c-73 -55 -147 -111 -220 -166h88zM143 89.8139v88.1861h-52v-128h3c86 -32 159 -55 247 -55c134 0 236 33 236 152c0 118 -112 125 -236 153c-86 19 -166 36 -166 106c0 64 64 82 145 82c55.1587 0 120.399 -14.4023 167 -32.2074
v-89.7926h52v125c-52 24 -143 47 -217 47c-117 0 -206 -28 -206 -132c0 -106 91 -130 204 -155c97 -24 195 -25 195 -105c0 -77 -73 -100 -164 -100c-75.1181 0 -136.476 18.0609 -208 43.8139z" />
    <glyph glyph-name="scaron" unicode="&#x161;" horiz-adv-x="704" 
d="M74 810c73 -55 146 -111 220 -166h10h78h10c74 55 147 111 221 166h-89c-60.1469 -45.3161 -120.294 -91.3112 -181 -136.866c-60.7062 45.5552 -120.853 91.5502 -181 136.866h-88zM162 89.8859v88.1141h-51v-128h2c87 -32 160 -55 248 -55c133 0 236 33 236 152
c-1 118 -113 125 -237 153c-86 19 -165 36 -165 106c0 64 64 82 144 82c55.4271 0 121.761 -14.5428 168 -32.4674v-89.5326h52v125c-53 24 -143 47 -217 47c-117 0 -206 -28 -206 -132c0 -106 91 -130 203 -155c97 -24 196 -25 196 -105c0 -77 -73 -100 -165 -100
c-74.2598 0 -135.595 18.0945 -208 43.8859z" />
    <glyph glyph-name="scedilla" unicode="&#x15f;" horiz-adv-x="670" 
d="M321.667 -49.1228c12.6611 16.3365 25.0213 32.282 34.3343 44.266c126.537 2.46466 220.998 37.3389 220.998 151.857c0 118 -112 125 -236 153c-86 19 -166 36 -166 106c0 64 64 82 145 82c55.1587 0 120.399 -14.4023 167 -32.2074v-89.7926h52v125
c-52 24 -143 47 -217 47c-117 0 -206 -28 -206 -132c0 -106 91 -130 204 -155c97 -24 195 -25 195 -105c0 -77 -73 -100 -164 -100c-75.1181 0 -136.476 18.0609 -208 43.8139v88.1861h-52v-128h3c66.3391 -24.6843 124.943 -44.0133 188.663 -51.561
c-18.0813 -23.698 -38.4822 -50.4116 -50.6631 -66.439l44 -40c17 8 30 10 49 10c32 0 57 -13 57 -42c0 -35 -34 -43 -73 -43c-34 0 -59 4 -94 18l-19 -38c38 -16 68 -23 110 -23c77 0 138 20 138 87c0 61 -49 90 -114 90c-2.8393 0 -5.61382 -0.0412209 -8.33261 -0.122759
z" />
    <glyph glyph-name="scommaaccent" unicode="&#x219;" horiz-adv-x="670" 
d="M242 -325l153 195h-85l-134 -195h66zM143 89.8139v88.1861h-52v-128h3c86 -32 159 -55 247 -55c134 0 236 33 236 152c0 118 -112 125 -236 153c-86 19 -166 36 -166 106c0 64 64 82 145 82c55.1587 0 120.399 -14.4023 167 -32.2074v-89.7926h52v125
c-52 24 -143 47 -217 47c-117 0 -206 -28 -206 -132c0 -106 91 -130 204 -155c97 -24 195 -25 195 -105c0 -77 -73 -100 -164 -100c-75.1181 0 -136.476 18.0609 -208 43.8139z" />
    <glyph glyph-name="section" unicode="&#xa7;" horiz-adv-x="693" 
d="M120 30c78 -42 141 -58 229 -58c117 0 213 34 213 139c-1.16111 56.3137 -31.3079 89.3715 -76.5477 111.501c68.1096 23.4171 114.548 63.8342 114.548 138.499c-1 120 -124 124 -249 152c-74 18 -142 37 -142 103c0 64 59 85 135 85
c58.5079 0 101.469 -7.40305 155 -26.6679v-90.3321h52v123c-71 29 -124 44 -201 44c-116 0 -205 -37 -205 -135c0 -55.5415 28.4285 -89.9439 71.8635 -113.769c-68.7814 -23.0806 -117.864 -61.1384 -117.864 -135.231c0 -113 110 -128 229 -155c83 -22 170 -33 170 -103
c0 -64 -66 -87 -146 -87c-69.0463 0 -117.991 11.2571 -180 38.0975v92.9025h-52v-123zM405.936 249.556c-12.0022 2.98049 -24.3574 5.75675 -36.9364 8.44351c-99 25 -205 28 -205 113c0 63.8274 52.5305 87.2468 119.812 104.405
c11.0626 -3.34593 22.4963 -6.45095 34.1875 -9.40451c103 -26 218 -21 218 -108c0 -65.0051 -56.3 -94.3272 -130.064 -108.444z" />
    <glyph glyph-name="semicolon" unicode=";" horiz-adv-x="484" 
d="M179 -99c83 96 69 85 152 181h-83c-68 -96 -66 -85 -134 -181h65zM241 411h77c0 -22 -17 -32 -40 -32c-22 0 -37 12 -37 32zM241 411h77c0 22 -17 33 -40 33c-22 0 -37 -12 -37 -33z" />
    <glyph glyph-name="seven" unicode="7" horiz-adv-x="757" 
d="M692 722h-607v-50v-120h52v120h514.972c-510.678 -637.894 25.0177 31.5234 -538.972 -672h77c536 671 0 0 536 672v50h-34z" />
    <glyph glyph-name="six" unicode="6" horiz-adv-x="799" 
d="M161.228 328.714c45.7102 211.676 275.845 292.578 538.772 354.286l-13 49c-333 -67 -597 -172 -597 -487c0 -172 137 -252 323 -252c166 0 288 67 288 217c0 151 -124 212 -288 212c-107.279 0 -185.854 -29.2656 -251.772 -93.2856zM153.027 244.324
c59.9013 91.5777 147.097 124.676 253.973 124.676c130 0 227 -44 227 -161c0 -112 -95 -156 -218 -156c-149.633 0 -260.969 58.9183 -262.973 192.324z" />
    <glyph glyph-name="slash" unicode="/" horiz-adv-x="750" 
d="M123 -50c190 291 379 582 569 873h-65c-190 -291 -379 -582 -569 -873h65z" />
    <glyph glyph-name="softhyphen" horiz-adv-x="642" 
d="M127 248h388v56h-388v-56z" />
    <glyph glyph-name="space" unicode=" " horiz-adv-x="240" 
 />
    <glyph glyph-name="sterling" unicode="&#xa3;" horiz-adv-x="711" 
d="M627 670c-63 37 -113 51 -185 51c-143.501 0 -233.103 -102.538 -233.103 -244.733c0 -24.0555 2.56436 -49.2459 7.86594 -75.2668h-101.763v-49h113.966c7.88512 -32.9348 11.7276 -64.7742 11.7276 -94.6392c0 -119.481 -61.5018 -207.361 -171.694 -207.361v-49h538
v49h-387.634c56.6455 45.8784 86.988 120.553 86.988 209.248c0 29.5439 -3.36659 60.6433 -10.2491 92.7523h247.895v49h-259.984c-5.76038 25.9996 -8.52409 51.1842 -8.52409 75.0558c0 113.923 62.9433 197.944 163.508 197.944c61 0 103 -12 158 -42z" />
    <glyph glyph-name="summation" unicode="&#x2211;" horiz-adv-x="723" 
d="M562 381l-399.801 291h400.801v-84h59v134h-546v-50l400 -292l-406 -330v-50h552v136h-59v-86h-411.019z" />
    <glyph glyph-name="t" unicode="t" horiz-adv-x="582" 
d="M516 73c-44 -17 -76 -26 -122 -26c-78 0 -123 31 -123 108v328h268v50h-268v121l-65 -32v-89h-173v-50h173v-331c0 -109 71 -157 181 -157c59 0 98 14 147 33c-18 45 -1 0 -18 45z" />
    <glyph glyph-name="tcaron" unicode="&#x165;" horiz-adv-x="572" 
d="M301 -332l152 196h-84l-135 -196h67zM516 73c-44 -17 -76 -26 -122 -26c-78 0 -123 31 -123 108v328h268v50h-268v121l-65 -32v-89h-173v-50h173v-331c0 -109 71 -157 181 -157c59 0 98 14 147 33c-18 45 -1 0 -18 45z" />
    <glyph glyph-name="tcedilla" horiz-adv-x="581" 
d="M515 73c-44 -17 -76 -26 -122 -26c-77 0 -123 31 -123 108v328h269v50h-269v121l-65 -32v-89h-173v-50h173v-331c0 -88.2735 47.2216 -136.54 123.606 -151.704c-18.769 -24.6026 -40.7591 -53.3925 -53.6058 -70.2961l44 -40c17 9 30 10 49 10c33 0 57 -12 57 -42
c0 -35 -33 -43 -73 -43c-34 0 -59 4 -94 18l-19 -38c38 -16 69 -23 110 -23c77 0 138 20 138 87c0 61 -49 90 -114 90c-2.8393 0 -5.61382 -0.0412209 -8.33261 -0.122759c13.4213 17.3175 26.5047 34.1956 35.9785 46.3813c51.5832 1.98858 88.1527 15.245 132.354 32.7414
z" />
    <glyph glyph-name="tcommaaccent" unicode="&#x163;" horiz-adv-x="582" 
d="M301 -332l152 196h-84l-135 -196h67zM516 73c-44 -17 -76 -26 -122 -26c-78 0 -123 31 -123 108v303h268v51h-268v145l-65 -32v-113h-173v-51h173v-306c0 -109 71 -157 181 -157c59 0 98 14 147 33c-18 45 -1 0 -18 45z" />
    <glyph glyph-name="thorn" unicode="&#xfe;" horiz-adv-x="842" 
d="M188 469.985v330.015h-32h-33h-164v-50h164v-1000h-166v-49h166v-1h31h34h151v50h-151v319.126c77.7642 -51.5778 152.276 -74.1262 250 -74.1262c179 0 310 103 309 280c0 164 -129 264 -306 264c-97.0474 0 -187.464 -28.9327 -253 -69.0151zM188 127.192v285.024
c56.8364 43.1558 149.747 75.7849 250 75.7849c145 0 245 -82 245 -216c0.0422423 -2.02763 0.0632699 -4.04336 0.0632699 -6.04713c0 -138.644 -100.669 -219.988 -240.048 -219.988c-1.66641 0 -3.33836 0.0116279 -5.01573 0.0349247
c-97.9889 0 -166.111 25.3418 -250 81.1916z" />
    <glyph glyph-name="three" unicode="3" horiz-adv-x="750" 
d="M138 605c43 37 120 67 200 67c118 0 212 -25 212 -131c0 -108 -114 -136 -230 -136v-43c134 0 274 -31 274 -162c0 -125 -127 -150 -253 -150c-76 0 -139 14 -217 48c-36 -40 0 0 -36 -41c79 -39 154 -62 250 -62c179 0 318 43 318 208
c0 102.237 -63.9067 157.757 -162.753 183.529c71.4875 25.7439 118.753 74.3239 118.753 157.471c0 137 -118 183 -269 183c-100 0 -192 -37 -247 -90z" />
    <glyph glyph-name="threequarters" unicode="&#xbe;" horiz-adv-x="1329" 
d="M73 346c51 -24 101 -36 156 -36c7.2822 -0.174773 14.4931 -0.268091 21.6158 -0.268091c115.139 0 207.209 24.3851 204.384 123.268c0 60.653 -33.12 87.6918 -83.5086 99.7938c38.377 16.5116 62.5086 45.1892 62.5086 95.2062c0 90 -84 113 -187 113
c-63 0 -121 -19 -167 -55l29 -36c41 30 86 44 131 44c71 0 130 -11 130 -70c0 -72 -98 -68 -188 -73v-8v-33v-3c107 -4 208 4 208 -74c0 -63.0297 -60.1409 -76.2283 -135.827 -76.2283c-5.96837 0 -12.0334 0.082075 -18.1733 0.228262c-46 0 -89 7 -137 27zM428 -74
l568 815h-62l-569 -815h63zM1096 -86h32h165v47h-165v79h118v48h-118v264v6h-64l-288 -270l24 -48h264v-79h-166v-47h166h32zM1064 291.122v-203.122h-213.538z" />
    <glyph glyph-name="threesuperior" unicode="&#xb3;" horiz-adv-x="622" 
d="M123 312c52 -23 101 -35 157 -35c9.11582 -0.294059 18.129 -0.453007 27.0037 -0.453007c109.613 0 198.107 24.248 198.107 117.66c0 1.90218 -0.0366951 3.83303 -0.110654 5.79295c0 59.8829 -32.8201 86.9457 -82.8237 99.2493
c38.5369 16.6024 62.8237 45.2252 62.8237 94.7507c0 91 -85 114 -188 114c-62 0 -121 -20 -167 -56l29 -35c41 29 87 43 131 43c71 0 130 -11 130 -69c0 -73 -97 -69 -188 -73v-8v-34v-3c107 -3 209 4 209 -74c0 -63.0297 -61.0001 -76.2283 -136.812 -76.2283
c-5.97828 0 -12.0487 0.082075 -18.1885 0.228262c-45 0 -88 8 -136 27z" />
    <glyph glyph-name="tilde" unicode="&#x2dc;" horiz-adv-x="720" 
d="M490 728c-17 -53 -40 -94 -89 -94c-45 0 -75 14 -110 43c-43 34 -76 54 -131 54c-80 0 -128 -47 -150 -126c49 -20 1 0 49 -20c18 57 49 94 102 94c41 0 65 -17 96 -43c45 -36 84 -55 142 -55c77 0 116 52 143 127c-52 19 -1 0 -52 20z" />
    <glyph glyph-name="trademark" unicode="&#x2122;" horiz-adv-x="1350" 
d="M870 281h44h-44zM1125 312c-22.6087 108.333 -47.8796 216.667 -69.961 325h107.961v42h-166c-35.4874 -108.938 -104.981 -328.652 -104.981 -328.652c-34.937 109.857 -70.3193 219.596 -105.019 328.652h-161v-42h102.339
c-21.0216 -108.333 -44.4612 -216.667 -66.1387 -325h-0.20005zM717.967 312c16.1149 87.291 31.9245 174.582 48.3584 261.873zM1016.44 579.641c17.4579 -88.811 34.3483 -178.569 51.9762 -267.641zM709 269h1zM324 637h54h147v-61h50v103h-197v1l-1.25581 -1h-264.744
v-103h50v61h162zM378 679h-1.25581l-52.7442 -42v-325h-99v-43h99h150v43h-96v325zM378 312h-54z" />
    <glyph glyph-name="turkishlira" horiz-adv-x="1058" 
d="M926 351c0 -211 -143 -300 -369 -300h-241v266h356v53h-356v122h356v53h-356v127h164v50h-164h-30h-3h-33h-162v-50h162v-127h-120v-53h120v-122h-120v-53h120v-266h-162v-51h162h36h30h235c268 0 439 102 439 351h-64z" />
    <glyph glyph-name="two" unicode="2" horiz-adv-x="793" 
d="M142 545c69 86 140 128 245 128c118 0 206 -43 206 -154c0 -132 -100 -190 -218 -265c-100 -68 -201 -136 -301 -203v-51h8h605v51v120h-52v-120h-465.381c89.2024 54.3246 167.212 108.952 246.381 163c134 84 239 152 239 307c0 145 -110 206 -265 206
c-127 0 -223 -49 -292 -151z" />
    <glyph glyph-name="twosuperior" unicode="&#xb2;" horiz-adv-x="689" 
d="M191 591c38 49 86 68 149 68c70 0 127 -20 127 -79c0 -54 -46 -74 -92 -103c-87 -49 -173 -97 -258 -145v-50h444v131h-49v-81h-293.777c66.7769 35.6913 128.514 70.5825 189.777 105c65 42 123 71 123 145c0 92 -82 127 -184 127c-88 0 -153 -21 -202 -86z
M536.881 308.155c0 1.5083 -3.43474 5.63568 -24.8814 23.8451c21.4466 -18.2094 24.8814 -22.3368 24.8814 -23.8451z" />
    <glyph glyph-name="u" unicode="u" horiz-adv-x="897" 
d="M665 164.935c-53.2433 -68.4681 -138.316 -118.935 -226 -118.935c-118 0 -196 42 -196 152v335h-33h-32h-165v-50h165v-289c0 -143 102 -199 255 -199c88.9122 0 173.64 41.2454 232 103.864v-98.8635h33h32h152v51h-152v482h-32h-33h-165v-50h165v-318.065z" />
    <glyph glyph-name="uacute" unicode="&#xfa;" horiz-adv-x="897" 
d="M387 647c73 55 146 110 220 166h-88c-74 -55 -147 -111 -220 -166h88zM665 164.935c-53.2433 -68.4681 -138.316 -118.935 -226 -118.935c-118 0 -196 42 -196 152v335h-33h-32h-165v-50h165v-289c0 -143 102 -199 255 -199c88.9122 0 173.64 41.2454 232 103.864
v-98.8635h33h32h152v51h-152v482h-32h-33h-165v-50h165v-318.065z" />
    <glyph glyph-name="ucircumflex" unicode="&#xfb;" horiz-adv-x="897" 
d="M707 647c-73 55 -147 111 -220 166h-11h-78h-10c-74 -55 -147 -111 -220 -166h88c60.0884 45.2721 120.854 90.5442 181.183 136.374c60.6719 -45.8298 120.906 -91.1019 181.817 -136.374h88zM665 164.935c-53.2433 -68.4681 -138.316 -118.935 -226 -118.935
c-118 0 -196 42 -196 152v335h-33h-32h-165v-50h165v-289c0 -143 102 -199 255 -199c88.9122 0 173.64 41.2454 232 103.864v-98.8635h33h32h152v51h-152v482h-32h-33h-165v-50h165v-318.065z" />
    <glyph glyph-name="udieresis" unicode="&#xfc;" horiz-adv-x="897" 
d="M490 668h83c0 -23 -18 -35 -43 -35c-24 0 -40 13 -40 35zM490 668h83c0 24 -18 36 -43 36c-24 0 -40 -13 -40 -36zM304 668h83c0 -23 -18 -35 -43 -35c-24 0 -40 13 -40 35zM304 668h83c0 24 -18 36 -43 36c-24 0 -40 -13 -40 -36zM665 164.935
c-53.2433 -68.4681 -138.316 -118.935 -226 -118.935c-118 0 -196 42 -196 152v335h-33h-32h-165v-50h165v-289c0 -143 102 -199 255 -199c88.9122 0 173.64 41.2454 232 103.864v-98.8635h33h32h152v51h-152v482h-32h-33h-165v-50h165v-318.065z" />
    <glyph glyph-name="ugrave" unicode="&#xf9;" horiz-adv-x="897" 
d="M563 646c-73 55 -147 111 -221 166h-88c74 -56 147 -111 221 -166h88zM665 164.935c-53.2433 -68.4681 -138.316 -118.935 -226 -118.935c-118 0 -196 42 -196 152v335h-33h-32h-165v-50h165v-289c0 -143 102 -199 255 -199c88.9122 0 173.64 41.2454 232 103.864
v-98.8635h33h32h152v51h-152v482h-32h-33h-165v-50h165v-318.065z" />
    <glyph glyph-name="uhungarumlaut" unicode="&#x171;" horiz-adv-x="897" 
d="M527 585l153 196h-85l-134 -196h66zM339 585l152 196h-84l-135 -196h67zM665 164.935c-53.2433 -68.4681 -138.316 -118.935 -226 -118.935c-118 0 -196 42 -196 152v335h-33h-32h-165v-50h165v-289c0 -143 102 -199 255 -199c88.9122 0 173.64 41.2454 232 103.864
v-98.8635h33h32h152v51h-152v482h-32h-33h-165v-50h165v-318.065z" />
    <glyph glyph-name="umacron" unicode="&#x16b;" horiz-adv-x="897" 
d="M582 695h-301v-50h301v50zM665 164.935c-53.2433 -68.4681 -138.316 -118.935 -226 -118.935c-118 0 -196 42 -196 152v335h-33h-32h-165v-50h165v-289c0 -143 102 -199 255 -199c88.9122 0 173.64 41.2454 232 103.864v-98.8635h33h32h152v51h-152v482h-32h-33h-165v-50
h165v-318.065z" />
    <glyph glyph-name="underscore" unicode="_" horiz-adv-x="920" 
d="M4 -201h911v50h-911v-50z" />
    <glyph glyph-name="uogonek" unicode="&#x173;" horiz-adv-x="897" 
d="M693.273 0h4.72684h32h152v51h-152v482h-32h-33h-165v-50h165v-318.065c-53.2433 -68.4681 -138.316 -118.935 -226 -118.935c-118 0 -196 42 -196 152v335h-33h-32h-165v-50h165v-289c0 -143 102 -199 255 -199c88.9122 0 173.64 41.2454 232 103.864v-64.4333
c-63.4547 -20.993 -116 -42.1426 -116 -107.43c0 -71 56 -106 132 -106c43 0 73 12 112 29l-29 40c-27 -13 -47 -21 -77 -21c-44 0 -77 19 -77 59c0 44.28 38.8902 56.7996 83.2732 72z" />
    <glyph glyph-name="uring" unicode="&#x16f;" horiz-adv-x="897" 
d="M329 767c0 56 46 80 106 80c65 0 115 -21 115 -80c0 -56 -49 -79 -112 -79c-61 0 -109 23 -109 79zM271 767c0 -86 72 -126 167 -126c97 0 171 38 171 126c0 89 -75 127 -174 127c-94 0 -164 -40 -164 -127zM665 164.935
c-53.2433 -68.4681 -138.316 -118.935 -226 -118.935c-118 0 -196 42 -196 152v335h-33h-32h-165v-50h165v-289c0 -143 102 -199 255 -199c88.9122 0 173.64 41.2454 232 103.864v-98.8635h33h32h152v51h-152v482h-32h-33h-165v-50h165v-318.065z" />
    <glyph glyph-name="v" unicode="v" horiz-adv-x="942" 
d="M464.762 56.5393c-73.6263 142.317 -147.185 284.128 -220.163 426.461h156.4v50h-182h-16h-52h-145v-50h170.88c83.5354 -161.171 167.738 -321.675 251.12 -483h6h60h6c87.9131 161.325 175.005 321.829 263.509 483h171.491v50h-144h-54h-13h-184v-50h156.795z" />
    <glyph glyph-name="w" unicode="w" horiz-adv-x="1371" 
d="M972 0h1c77.0373 161.325 153.253 321.829 230.136 483h160.864v50h-137h-60h-7h-191v-50h167.418c-65.3497 -138.642 -130.148 -276.79 -194.87 -415.391c-70.072 155.256 -140.81 309.942 -211.548 465.391h-7h-59h-8
c-78.1164 -156.233 -156.233 -311.695 -234.349 -467.739c-62.7226 139.39 -125.445 278.315 -188.168 417.739h167.517v50h-190h-8h-59h-138v-50h160.788c73.5579 -161.171 147.706 -321.675 220.212 -483h2h62h1c80.5409 157.541 160.298 314.3 239.966 471.661
c71.8703 -157.361 144.344 -314.12 216.034 -471.661h2h62z" />
    <glyph glyph-name="x" unicode="x" horiz-adv-x="942" 
d="M431.612 278.345c-80.6436 -75.738 -161.303 -151.468 -241.669 -227.345l-177.944 -2.84217e-14v-51h124h73h12h186v51h-132.747c65.6027 62.8826 131.229 125.968 196.969 189.079c65.1815 -62.984 130.294 -125.981 195.292 -189.079l-131.515 -2.84217e-14v-51h184
h13h70h127v51h-180.345c-79.2643 75.711 -158.675 151.275 -238.078 226.848c71.3751 68.4726 142.905 136.933 214.702 205.152h185.721v50h-133h-65h-11h-186v-50h133.116c-59.2214 -55.9168 -118.603 -111.753 -178.022 -167.571
c-58.6376 55.8183 -117.257 111.655 -175.796 167.571h131.702v50h-184h-13h-9h-53h-136v-50h187.71c70.6668 -68.3005 141.32 -136.481 211.902 -204.655z" />
    <glyph glyph-name="y" unicode="y" horiz-adv-x="942" 
d="M425.946 77.3221c-71.1285 -109.052 -142.257 -218.119 -213.386 -327.322h-179.561v-50h147h48h20c170.146 261.33 340.293 521.776 510.439 783h171.561v50h-139h-59h-9h-188v-50h155.439c-77.6219 -119.172 -155.244 -238.182 -232.866 -357.188
c-69.0205 118.579 -138.719 238.599 -209.574 357.188h162v50h-192h-6h-62h-135v-50h165.308c81.8657 -135.39 162.594 -271.307 245.638 -405.678z" />
    <glyph glyph-name="yacute" unicode="&#xfd;" horiz-adv-x="942" 
d="M409 648c73 55 147 111 220 166h-88c-74 -55 -147 -111 -220 -166h88zM425.946 77.3221c-71.1285 -109.052 -142.257 -218.119 -213.386 -327.322h-179.561v-50h147h48h20c170.146 261.33 340.293 521.776 510.439 783h171.561v50h-139h-59h-9h-188v-50h155.439
c-77.6219 -119.172 -155.244 -238.182 -232.866 -357.188c-69.0205 118.579 -138.719 238.599 -209.574 357.188h162v50h-192h-6h-62h-135v-50h165.308c81.8657 -135.39 162.594 -271.307 245.638 -405.678z" />
    <glyph glyph-name="ydieresis" unicode="&#xff;" horiz-adv-x="942" 
d="M512 670h83c0 23 -18 35 -42 35c-25 0 -41 -13 -41 -35zM512 670h83c0 -24 -18 -35 -43 -35c-24 0 -40 12 -40 35zM326 670h84c0 23 -18 35 -43 35c-24 0 -41 -13 -41 -35zM326 670h84c0 -24 -18 -35 -43 -35s-41 12 -41 35zM425.946 77.3221
c-71.1285 -109.052 -142.257 -218.119 -213.386 -327.322h-179.561v-50h147h48h20c170.146 261.33 340.293 521.776 510.439 783h171.561v50h-139h-59h-9h-188v-50h155.439c-77.6219 -119.172 -155.244 -238.182 -232.866 -357.188
c-69.0205 118.579 -138.719 238.599 -209.574 357.188h162v50h-192h-6h-62h-135v-50h165.308c81.8657 -135.39 162.594 -271.307 245.638 -405.678z" />
    <glyph glyph-name="yen" unicode="&#xa5;" horiz-adv-x="1112" 
d="M547.99 373.499c-80.0791 99.5003 -159.682 199.001 -239.725 298.501h138.736v50h-179h-19h-51h-146v-50h186.789c77.657 -95 156.118 -190 233.787 -285h-222.576v-55h265v-73h-265v-55h265v-153h-165v-50h165v-1h32h32h166v51l-166 -0.838384v153.838h268v55h-268v73
h268v55h-222.247c85.7213 95.3598 171.873 190.207 257.541 285h177.706v50h-198h-197v-50h147.619c-88.6257 -99.2652 -176.66 -198.59 -264.629 -298.501z" />
    <glyph glyph-name="z" unicode="z" horiz-adv-x="729" 
d="M98 508v-25v-95h53v95h388.403c-131.04 -126.019 -1.32578 -0.891329 -460.403 -432v-51h575v25v26v94h-52v-94h-436.258c130.137 124.359 1.477 1.07576 461.258 432v50h-529v-25z" />
    <glyph glyph-name="zacute" unicode="&#x17a;" horiz-adv-x="729" 
d="M309 648c73 55 147 110 220 166h-88c-74 -55 -147 -111 -220 -166h88zM98 508v-25v-95h53v95h388.403c-131.04 -126.019 -1.32578 -0.891329 -460.403 -432v-51h575v25v26v94h-52v-94h-436.258c130.137 124.359 1.477 1.07576 461.258 432v50h-529v-25z" />
    <glyph glyph-name="zcaron" unicode="&#x17e;" horiz-adv-x="735" 
d="M95 811c73 -55 147 -111 221 -166h10h78h10c74 55 147 111 220 166h-88c-60.0884 -46.0952 -120.854 -91.5129 -181.183 -136.811c-60.6719 45.2979 -120.906 90.7156 -181.817 136.811h-88zM104 508v-25v-95h52v95h388.404
c-131.039 -126.019 -1.29027 -0.891329 -459.404 -432v-51h575v25v26v94h-53v-94l-435.364 7.10543e-15c129.318 124.359 1.58279 1.07576 461.364 432v50h-529v-25z" />
    <glyph glyph-name="zdotaccent" unicode="&#x17c;" horiz-adv-x="729" 
d="M318 670h84c0 23 -18 35 -43 35c-24 0 -41 -13 -41 -35zM318 670h84c0 -24 -18 -35 -44 -35c-24 0 -40 12 -40 35zM98 508v-25v-95h53v95h388.403c-131.04 -126.019 -1.32578 -0.891329 -460.403 -432v-51h575v25v26v94h-52v-94h-436.258
c130.137 124.359 1.477 1.07576 461.258 432v50h-529v-25z" />
    <glyph glyph-name="zero" unicode="0" horiz-adv-x="979" 
d="M99 360c0 -233 154 -365 393 -365c237 0 387 134 387 368c0 232 -149 364 -385 364c-241 0 -395 -132 -395 -367zM163 360c0 199 124 314 326 314c201 0 327 -115 327 -312s-123 -313 -321 -313c-204 0 -332 113 -332 311z" />
    </font>
</defs>
</svg>
