<?xml version="1.0" standalone="no"?>
<!DOCTYPE svg PUBLIC "-//W3C//DTD SVG 1.1//EN" "http://www.w3.org/Graphics/SVG/1.1/DTD/svg11.dtd" >
<svg xmlns="http://www.w3.org/2000/svg" xmlns:xlink="http://www.w3.org/1999/xlink" version="1.1">
<metadata>
Created by FontForge 20141219 at Thu Feb 19 10:37:03 2015
 By Simon Egli
Copyright 2015 Simon Egli
</metadata>
<defs>
<font id="Sean" horiz-adv-x="864" >
  <font-face 
    font-family="Slab"
    font-weight="0"
    font-stretch="ultra-condensed"
    units-per-em="1000"
    panose-1="2 0 2 3 0 0 0 0 0 0"
    ascent="800"
    descent="-200"
    x-height="533"
    cap-height="722"
    bbox="-51 -304 1888 1070"
    underline-thickness="0"
    underline-position="0"
    unicode-range="U+0020-FB02"
  />
    <missing-glyph />
    <glyph glyph-name="A" unicode="A" 
d="M426.484 697.149c53.5087 -140.234 106.69 -280.152 159.742 -420.149h-337.179c59.0932 139.997 118.108 279.916 177.437 420.149zM417 722h-2c-99.8654 -233.666 -199.731 -466.391 -299.596 -700h-150.404v-22h141h25h1h170v22h-160.69
c32.751 77.4082 65.4051 154.719 98.0286 232h355.602c29.2757 -77.2806 58.5151 -154.592 87.7514 -232h-161.692v-22h170h1h24h141v22h-149.399c-89.2011 233.609 -178.431 466.334 -268.601 700h-2h-20z" />
    <glyph glyph-name="AE" unicode="&#xc6;" horiz-adv-x="1044" 
d="M543 0h428v11v11v109h-22v-109h-406v341h329v22h-329v315h371v-109h22v109v11v11h-393h-11h-12h-1h-1h-151v-22h138.568l-383.136 -678h-151.432v-22h139h27h1h166v22h-153.659l118.92 212h249.74v-212h-152v-22h152h1h12h11zM519 679.215v-422.215h-236.838z" />
    <glyph glyph-name="Aacute" unicode="&#xc1;" 
d="M368 836c57 55 113 110 169 166h-32c-57 -55 -113 -111 -169 -166h32zM426.484 697.149c53.5087 -140.234 106.69 -280.152 159.742 -420.149h-337.179c59.0932 139.997 118.108 279.916 177.437 420.149zM417 722h-2c-99.8654 -233.666 -199.731 -466.391 -299.596 -700
h-150.404v-22h141h25h1h170v22h-160.69c32.751 77.4082 65.4051 154.719 98.0286 232h355.602c29.2757 -77.2806 58.5151 -154.592 87.7514 -232h-161.692v-22h170h1h24h141v22h-149.399c-89.2011 233.609 -178.431 466.334 -268.601 700h-2h-20z" />
    <glyph glyph-name="Abreve" unicode="&#x102;" 
d="M546 961c0 -68 -47 -102 -118 -102c-69 0 -113 36 -113 103h-22c0 -81 51 -124 133 -124c87 0 143 40 143 123h-23zM426.484 697.149c53.5087 -140.234 106.69 -280.152 159.742 -420.149h-337.179c59.0932 139.997 118.108 279.916 177.437 420.149zM417 722h-2
c-99.8654 -233.666 -199.731 -466.391 -299.596 -700h-150.404v-22h141h25h1h170v22h-160.69c32.751 77.4082 65.4051 154.719 98.0286 232h355.602c29.2757 -77.2806 58.5151 -154.592 87.7514 -232h-161.692v-22h170h1h24h141v22h-149.399
c-89.2011 233.609 -178.431 466.334 -268.601 700h-2h-20z" />
    <glyph glyph-name="Acircumflex" unicode="&#xc2;" 
d="M617 835c-57 55 -113 111 -170 166h-6h-26h-6c-57 -55 -113 -111 -169 -166h32c52.5894 50.7442 104.328 101.488 156 153.018c51.6723 -51.5296 103.411 -102.274 156 -153.018h33zM426.484 697.149c53.5087 -140.234 106.69 -280.152 159.742 -420.149h-337.179
c59.0932 139.997 118.108 279.916 177.437 420.149zM417 722h-2c-99.8654 -233.666 -199.731 -466.391 -299.596 -700h-150.404v-22h141h25h1h170v22h-160.69c32.751 77.4082 65.4051 154.719 98.0286 232h355.602c29.2757 -77.2806 58.5151 -154.592 87.7514 -232h-161.692
v-22h170h1h24h141v22h-149.399c-89.2011 233.609 -178.431 466.334 -268.601 700h-2h-20z" />
    <glyph glyph-name="Adieresis" unicode="&#xc4;" 
d="M472 847h34c0 -10 -7 -16 -18 -16c-10 0 -16 6 -16 16zM472 847h34c0 10 -7 16 -18 16c-10 0 -16 -6 -16 -16zM349 847h34c0 -10 -7 -16 -18 -16c-10 0 -16 6 -16 16zM349 847h34c0 10 -7 16 -18 16c-10 0 -16 -6 -16 -16zM426.484 697.149
c53.5087 -140.234 106.69 -280.152 159.742 -420.149h-337.179c59.0932 139.997 118.108 279.916 177.437 420.149zM417 722h-2c-99.8654 -233.666 -199.731 -466.391 -299.596 -700h-150.404v-22h141h25h1h170v22h-160.69c32.751 77.4082 65.4051 154.719 98.0286 232
h355.602c29.2757 -77.2806 58.5151 -154.592 87.7514 -232h-161.692v-22h170h1h24h141v22h-149.399c-89.2011 233.609 -178.431 466.334 -268.601 700h-2h-20z" />
    <glyph glyph-name="Agrave" unicode="&#xc0;" 
d="M503 835c-57 55 -113 111 -170 166h-32c56 -55 112 -111 169 -166h33zM426.484 697.149c53.5087 -140.234 106.69 -280.152 159.742 -420.149h-337.179c59.0932 139.997 118.108 279.916 177.437 420.149zM417 722h-2c-99.8654 -233.666 -199.731 -466.391 -299.596 -700
h-150.404v-22h141h25h1h170v22h-160.69c32.751 77.4082 65.4051 154.719 98.0286 232h355.602c29.2757 -77.2806 58.5151 -154.592 87.7514 -232h-161.692v-22h170h1h24h141v22h-149.399c-89.2011 233.609 -178.431 466.334 -268.601 700h-2h-20z" />
    <glyph glyph-name="Amacron" unicode="&#x100;" 
d="M537 858h-231v-21h231v21zM426.484 697.149c53.5087 -140.234 106.69 -280.152 159.742 -420.149h-337.179c59.0932 139.997 118.108 279.916 177.437 420.149zM417 722h-2c-99.8654 -233.666 -199.731 -466.391 -299.596 -700h-150.404v-22h141h25h1h170v22h-160.69
c32.751 77.4082 65.4051 154.719 98.0286 232h355.602c29.2757 -77.2806 58.5151 -154.592 87.7514 -232h-161.692v-22h170h1h24h141v22h-149.399c-89.2011 233.609 -178.431 466.334 -268.601 700h-2h-20z" />
    <glyph glyph-name="Aogonek" unicode="&#x104;" 
d="M426.484 697.149c53.5087 -140.234 106.69 -280.152 159.742 -420.149h-337.179c59.0932 139.997 118.108 279.916 177.437 420.149zM417 722h-2c-99.8654 -233.666 -199.731 -466.391 -299.596 -700h-150.404v-22h141h25h1h170v22h-160.69
c32.751 77.4082 65.4051 154.719 98.0286 232h355.602c29.2757 -77.2806 58.5151 -154.592 87.7514 -232h-161.692v-22l149.646 8.88178e-16c-44.8619 -21.8883 -77.6462 -47.9862 -77.6462 -99c0 -58 36 -95 93 -95c32 0 54 13 81 29c-8 11 -4 4 -12 15
c-23 -14 -41 -23 -67 -23c-45 0 -72 29 -72 74c0 55 45 74 97 99h3h141v22h-149.399c-89.2011 233.609 -178.431 466.334 -268.601 700h-2h-20z" />
    <glyph glyph-name="Aring" unicode="&#xc5;" 
d="M335 953c0 58 32 96 91 96c61 0 98 -35 98 -96c0 -59 -36 -95 -96 -95c-59 0 -93 36 -93 95zM312 953c0 -71 44 -116 116 -116c73 0 119 43 119 116c0 74 -47 117 -121 117c-72 0 -114 -45 -114 -117zM426.484 697.149
c53.5087 -140.234 106.69 -280.152 159.742 -420.149h-337.179c59.0932 139.997 118.108 279.916 177.437 420.149zM417 722h-2c-99.8654 -233.666 -199.731 -466.391 -299.596 -700h-150.404v-22h141h25h1h170v22h-160.69c32.751 77.4082 65.4051 154.719 98.0286 232
h355.602c29.2757 -77.2806 58.5151 -154.592 87.7514 -232h-161.692v-22h170h1h24h141v22h-149.399c-89.2011 233.609 -178.431 466.334 -268.601 700h-2h-20z" />
    <glyph glyph-name="Atilde" unicode="&#xc3;" 
d="M599 960c-14 -54 -29 -103 -75 -103c-40 0 -64 19 -91 48c-29 32 -52 55 -96 55c-65 0 -90 -51 -104 -119l19 -5c13 57 32 103 85 103c36 0 55 -21 79 -47c31 -34 60 -56 106 -56c63 0 81 55 97 120zM426.484 697.149c53.5087 -140.234 106.69 -280.152 159.742 -420.149
h-337.179c59.0932 139.997 118.108 279.916 177.437 420.149zM417 722h-2c-99.8654 -233.666 -199.731 -466.391 -299.596 -700h-150.404v-22h141h25h1h170v22h-160.69c32.751 77.4082 65.4051 154.719 98.0286 232h355.602c29.2757 -77.2806 58.5151 -154.592 87.7514 -232
h-161.692v-22h170h1h24h141v22h-149.399c-89.2011 233.609 -178.431 466.334 -268.601 700h-2h-20z" />
    <glyph glyph-name="B" unicode="B" horiz-adv-x="739" 
d="M236 22v377h146h11c135 0 229 -62 229 -195c0 -120 -79 -182 -204 -182h-182zM236 0h182c139 0 228 70 228 204c0 115.98 -66.042 182.883 -167.943 206.84c71.0022 19.7711 119.943 65.3158 119.943 144.16c0 108 -70 167 -180 167h-182h-10h-12h-4h-150v-22h150.003
c0.0369567 -153.295 0.441751 -306.21 0.441751 -459.259c0 -72.8645 -0.0917489 -145.76 -0.358619 -218.741l-151.086 -1.42109e-14v-22h151h4h10h12zM236 421v279h182c94 0 156 -51 156 -145s-82 -134 -181 -134h-10h-147z" />
    <glyph glyph-name="C" unicode="C" horiz-adv-x="750" 
d="M662 655c-69 41 -144 72 -231 72c-221 0 -330 -151 -330 -383c0 -213 103 -349 308 -349c114 0 186 35 272 101c-15 17 0 0 -16 17c-79 -63 -149 -93 -255 -93c-190 0 -285 128 -285 325c0 215 101 359 305 359c78.1813 0 148.181 -24.5438 210 -60.6309v-108.369h22v120
z" />
    <glyph glyph-name="Cacute" unicode="&#x106;" horiz-adv-x="750" 
d="M371 836c57 55 113 110 169 166h-32c-57 -55 -113 -111 -169 -166h32zM662 655c-69 41 -144 72 -231 72c-221 0 -330 -151 -330 -383c0 -213 103 -349 308 -349c114 0 186 35 272 101c-15 17 0 0 -16 17c-79 -63 -149 -93 -255 -93c-190 0 -285 128 -285 325
c0 215 101 359 305 359c78.1813 0 148.181 -24.5438 210 -60.6309v-108.369h22v120z" />
    <glyph glyph-name="Ccaron" unicode="&#x10c;" horiz-adv-x="750" 
d="M243 1000c56 -55 112 -111 169 -166h6h26h6c57 55 113 111 170 166h-33c-52.5894 -50.7442 -104.328 -102.34 -156 -153.216c-51.6723 50.8759 -103.411 102.471 -156 153.216h-32zM662 655c-69 41 -144 72 -231 72c-221 0 -330 -151 -330 -383c0 -213 103 -349 308 -349
c114 0 186 35 272 101c-15 17 0 0 -16 17c-79 -63 -149 -93 -255 -93c-190 0 -285 128 -285 325c0 215 101 359 305 359c78.1813 0 148.181 -24.5438 210 -60.6309v-108.369h22v120z" />
    <glyph glyph-name="Ccedilla" unicode="&#xc7;" horiz-adv-x="750" 
d="M389.475 -53.1741c9.08062 16.0425 18.3789 31.9891 27.6972 48.235c109.307 1.64455 179.901 36.5301 263.828 100.939c-15 17 0 0 -16 17c-79 -63 -149 -93 -255 -93c-190 0 -285 128 -285 325c0 215 101 359 305 359c78.1813 0 148.181 -24.5438 210 -60.6309
v-108.369h22v120c-69 41 -144 72 -231 72c-221 0 -330 -151 -330 -383c0 -206.703 97 -340.892 290.086 -348.645l-34.0861 -61.3551l16 -17c15 10 28 13 47 13c35 0 54 -22 54 -57c0 -38 -28 -55 -68 -55c-27 0 -47 3 -71 16l-10 -17c27 -14 49 -21 80 -21
c55 0 93 25 93 77c0 48 -29 78 -76 78c-12.2055 0 -22.504 -1.43014 -32.525 -4.17405z" />
    <glyph glyph-name="D" unicode="D" horiz-adv-x="849" 
d="M238 722h-11h-14h-151v-22h151v-678h-151v-22h151h14h11h183c221 0 334 130 334 353c0 234 -117 369 -347 369h-170zM238 700h169c216 0 324 -128 324 -347c0 -209 -102 -331 -307 -331h-186v678z" />
    <glyph glyph-name="Dcaron" unicode="&#x10e;" horiz-adv-x="849" 
d="M198 999c57 -55 113 -111 170 -166h5h27h6c57 55 113 111 169 166h-33c-51.5061 -50.5863 -103.858 -102.019 -155.5 -152.741c-51.6419 50.7221 -103.994 102.154 -155.5 152.741h-33zM238 722h-11h-14h-151v-22h151v-678h-151v-22h151h14h11h183c221 0 334 130 334 353
c0 234 -117 369 -347 369h-170zM238 700h169c216 0 324 -128 324 -347c0 -209 -102 -331 -307 -331h-186v678z" />
    <glyph glyph-name="Dcroat" unicode="&#x110;" horiz-adv-x="849" 
d="M238 722h-11h-14h-151v-22h151v-323h-80v-24h80v-331h-151v-22h151h14h11h183c221 0 334 130 334 353c0 234 -117 369 -347 369h-170zM238 700h169c216 0 324 -128 324 -347c0 -209 -102 -331 -307 -331h-186v331h195v24h-195v323z" />
    <glyph glyph-name="E" unicode="E" horiz-adv-x="738" 
d="M237 0h427v11v11v109h-21v-109h-406v341h328v22h-328v315h371v-109h22v109v11v11h-393h-11h-13h-153v-22h153v-678h-153v-22h153h13h11z" />
    <glyph glyph-name="Eacute" unicode="&#xc9;" horiz-adv-x="738" 
d="M346 835c57 55 113 110 169 166h-32c-57 -55 -113 -111 -169 -166h32zM237 0h427v11v11v109h-21v-109h-406v341h328v22h-328v315h371v-109h22v109v11v11h-393h-11h-13h-153v-22h153v-678h-153v-22h153h13h11z" />
    <glyph glyph-name="Ecaron" unicode="&#x11a;" horiz-adv-x="738" 
d="M218 999c56 -55 112 -111 169 -166h6h26h6c57 55 113 111 170 166h-33c-52.5894 -50.7442 -104.328 -102.34 -156 -153.216c-51.6723 50.8759 -103.411 102.471 -156 153.216h-32zM237 0h427v11v11v109h-21v-109h-406v341h328v22h-328v315h371v-109h22v109v11v11h-393
h-11h-13h-153v-22h153v-678h-153v-22h153h13h11z" />
    <glyph glyph-name="Ecircumflex" unicode="&#xca;" horiz-adv-x="738" 
d="M595 834c-57 55 -113 111 -170 166h-6h-26h-6c-57 -55 -113 -111 -169 -166h32c52.5894 50.7442 104.328 101.488 156 153.018c51.6723 -51.5296 103.411 -102.274 156 -153.018h33zM237 0h427v11v11v109h-21v-109h-406v341h328v22h-328v315h371v-109h22v109v11v11h-393
h-11h-13h-153v-22h153v-678h-153v-22h153h13h11z" />
    <glyph glyph-name="Edieresis" unicode="&#xcb;" horiz-adv-x="738" 
d="M450 846h34c0 -10 -7 -16 -18 -16c-10 0 -16 6 -16 16zM450 846h34c0 10 -7 16 -18 16c-10 0 -16 -6 -16 -16zM327 846h34c0 -10 -7 -16 -18 -16c-10 0 -16 6 -16 16zM327 846h34c0 10 -7 16 -18 16c-10 0 -16 -6 -16 -16zM237 0h427v11v11v109h-21v-109h-406v341h328v22
h-328v315h371v-109h22v109v11v11h-393h-11h-13h-153v-22h153v-678h-153v-22h153h13h11z" />
    <glyph glyph-name="Edotaccent" unicode="&#x116;" horiz-adv-x="738" 
d="M388 847h33c0 -10 -7 -16 -17 -16s-16 6 -16 16zM388 847h33c0 10 -7 16 -17 16s-16 -7 -16 -16zM237 0h427v11v11v109h-21v-109h-406v341h328v22h-328v315h371v-109h22v109v11v11h-393h-11h-13h-153v-22h153v-678h-153v-22h153h13h11z" />
    <glyph glyph-name="Egrave" unicode="&#xc8;" horiz-adv-x="738" 
d="M481 834c-57 55 -113 111 -170 166h-32c56 -55 112 -111 169 -166h33zM237 0h427v11v11v109h-21v-109h-406v341h328v22h-328v315h371v-109h22v109v11v11h-393h-11h-13h-153v-22h153v-678h-153v-22h153h13h11z" />
    <glyph glyph-name="Emacron" unicode="&#x112;" horiz-adv-x="738" 
d="M515 857h-231v-21h231v21zM237 0h427v11v11v109h-21v-109h-406v341h328v22h-328v315h371v-109h22v109v11v11h-393h-11h-13h-153v-22h153v-678h-153v-22h153h13h11z" />
    <glyph glyph-name="Eogonek" unicode="&#x118;" horiz-adv-x="735" 
d="M599.044 1.77636e-15c-37.734 -20.5953 -64.0443 -46.2997 -64.0443 -92c0 -58 36 -95 93 -95c32 0 54 13 81 29c-8 11 -4 4 -12 15c-23 -14 -41 -23 -67 -23c-45 0 -72 29 -72 74c0 49.7739 36.8545 70.0642 82.3991 92h23.6009v11v11v109h-21v-109h-406v341h328v22
h-328v315h371v-109h22v109v11v11h-393h-11h-13h-153v-22h153v-678h-153v-22h153h13h11z" />
    <glyph glyph-name="Eth" unicode="&#xd0;" horiz-adv-x="849" 
d="M238 722h-11h-14h-151v-22h151v-323h-80v-24h80v-331h-151v-22h151h14h11h183c221 0 334 130 334 353c0 234 -117 369 -347 369h-170zM238 700h169c216 0 324 -128 324 -347c0 -209 -102 -331 -307 -331h-186v331h195v24h-195v323z" />
    <glyph glyph-name="Euro" unicode="&#x20ac;" horiz-adv-x="854" 
d="M737 655c-69 41 -144 72 -231 72c-188.455 0 -295.468 -109.802 -322.899 -286h-102.101v-23h99.0142c-2.67749 -23.61 -4.01419 -48.3083 -4.01419 -74c0 -22.5533 1.15478 -44.2433 3.46314 -65h-97.4631v-23h100.554c25.6189 -161.737 126.309 -261 301.446 -261
c114 0 186 35 272 101c-15 17 0 0 -16 17c-79 -63 -149 -93 -255 -93c-159.607 0 -252.176 90.3247 -277.707 236h297.707v23h-301.126c-2.58293 20.9996 -3.87439 43.0308 -3.87439 66c0 25.3612 1.40535 49.7345 4.21932 73h299.781v23h-296.479
c26.8414 160.78 125.602 263 297.479 263c78.1813 0 148.181 -24.5438 210 -60.6309v-108.369h22v120z" />
    <glyph glyph-name="F" unicode="F" horiz-adv-x="711" 
d="M238 700h375v-109h22v109v11v11h-397h-12h-12h-154v-22h154v-678h-154v-22h154h12h12h153v22h-153v341h322v22h-322v315z" />
    <glyph glyph-name="G" unicode="G" horiz-adv-x="839" 
d="M712 90.097c-83.5664 -44.9317 -161.768 -70.097 -267 -70.097c-212 0 -324 130 -324 347c0 208 109 337 313 337c99.0438 0 177.745 -24.9657 261 -74.008v-107.992h22v120c-91 58 -175 85 -283 85c-220 0 -337 -136 -337 -362c0 -232 122 -370 348 -370
c116 0 189 26 289 82v242h-8h-14h-212v-22h212v-206.903z" />
    <glyph glyph-name="Gbreve" unicode="&#x11e;" horiz-adv-x="839" 
d="M551 960c0 -68 -47 -102 -118 -102c-69 0 -113 36 -113 103h-22c0 -81 50 -124 133 -124c87 0 143 40 143 123h-23zM712 90.097c-83.5664 -44.9317 -161.768 -70.097 -267 -70.097c-212 0 -324 130 -324 347c0 208 109 337 313 337
c99.0438 0 177.745 -24.9657 261 -74.008v-107.992h22v120c-91 58 -175 85 -283 85c-220 0 -337 -136 -337 -362c0 -232 122 -370 348 -370c116 0 189 26 289 82v242h-8h-14h-212v-22h212v-206.903z" />
    <glyph glyph-name="Gcommaaccent" unicode="&#x122;" horiz-adv-x="839" 
d="M380 -282l111 174h-32l-104 -174h25zM712 90.097c-83.5664 -44.9317 -161.768 -70.097 -267 -70.097c-212 0 -324 130 -324 347c0 208 109 337 313 337c99.0438 0 177.745 -24.9657 261 -74.008v-107.992h22v120c-91 58 -175 85 -283 85c-220 0 -337 -136 -337 -362
c0 -232 122 -370 348 -370c116 0 189 26 289 82v242h-8h-14h-212v-22h212v-206.903z" />
    <glyph glyph-name="H" unicode="H" horiz-adv-x="968" 
d="M731 352v-330h-152v-22h165h166v22h-155v678h155v22h-166h-165v-22h152v-326h-493v326h153v22h-153h-12h-12h-154v-22h154v-678h-154v-22h154h12h12h153v22h-153v330h493z" />
    <glyph glyph-name="I" unicode="I" horiz-adv-x="450" 
d="M213 0h13h11h155v22h-155v678h155v22h-155h-11h-13h-153v-22h153v-678h-153v-22h153z" />
    <glyph glyph-name="Iacute" unicode="&#xcd;" horiz-adv-x="450" 
d="M167 836c56 55 113 110 169 166h-32c-57 -55 -113 -111 -170 -166h33zM213 0h13h11h155v22h-155v678h155v22h-155h-11h-13h-153v-22h153v-678h-153v-22h153z" />
    <glyph glyph-name="Icircumflex" unicode="&#xce;" horiz-adv-x="491" 
d="M438 835c-57 55 -113 111 -170 166h-5h-27h-6c-57 -55 -113 -111 -169 -166h32c52.4572 50.6166 104.068 101.233 156.39 152.629c51.5428 -51.3961 103.153 -102.013 155.61 -152.629h33zM235 0h13h11h155v22h-155v678h155v22h-155h-11h-13h-152v-22h152v-678h-152v-22
h152z" />
    <glyph glyph-name="Idieresis" unicode="&#xcf;" horiz-adv-x="450" 
d="M271 847h33c0 -10 -7 -16 -17 -16s-16 6 -16 16zM271 847h33c0 10 -7 16 -17 16s-16 -6 -16 -16zM148 847h33c0 -10 -7 -16 -17 -16s-16 6 -16 16zM148 847h33c0 10 -7 16 -17 16s-16 -6 -16 -16zM213 0h13h11h155v22h-155v678h155v22h-155h-11h-13h-153v-22h153v-678
h-153v-22h153z" />
    <glyph glyph-name="Idotaccent" unicode="&#x130;" horiz-adv-x="450" 
d="M208 848h34c0 -10 -7 -16 -18 -16c-10 0 -16 6 -16 16zM208 848h34c0 10 -7 16 -18 16c-10 0 -16 -7 -16 -16zM213 0h13h11h155v22h-155v678h155v22h-155h-11h-13h-153v-22h153v-678h-153v-22h153z" />
    <glyph glyph-name="Igrave" unicode="&#xcc;" horiz-adv-x="450" 
d="M301 835c-56 55 -112 111 -169 166h-33c56 -55 113 -111 169 -166h33zM213 0h13h11h155v22h-155v678h155v22h-155h-11h-13h-153v-22h153v-678h-153v-22h153z" />
    <glyph glyph-name="Imacron" unicode="&#x12a;" horiz-adv-x="450" 
d="M335 858h-230v-21h230v21zM213 0h13h11h155v22h-155v678h155v22h-155h-11h-13h-153v-22h153v-678h-153v-22h153z" />
    <glyph glyph-name="Iogonek" unicode="&#x12e;" horiz-adv-x="450" 
d="M223.685 7.10543e-15l2.31547 -7.10543e-15h11h155v22h-155v678h155v22h-155h-11h-13h-153v-22h153v-678h-153v-22h122.893c-38.7204 -20.7652 -65.8928 -46.5571 -65.8928 -93c0 -58 35 -95 92 -95c33 0 55 13 82 29c-8 11 -5 4 -13 15c-22 -14 -40 -23 -67 -23
c-44 0 -72 29 -72 74c0 50.5293 38.8257 70.6733 84.6845 93z" />
    <glyph glyph-name="J" unicode="J" horiz-adv-x="550" 
d="M47 41c31 -22 72 -44 124 -44c128 0 187 82 187 220v483h154v22h-154h-11h-1h-13h-152v-22h152v-483c0 -119 -49 -197 -162 -197c-46 0 -77 18 -112 38c-8 -12 -4 -6 -12 -17z" />
    <glyph glyph-name="K" unicode="K" horiz-adv-x="834" 
d="M238 367.915c132.903 -114.754 265.806 -230.311 398.708 -345.915h-138.708v-22h164h2h39h121v22h-146.801c-140.291 119.663 -279.745 239.276 -419.199 358c130.058 106.667 261.868 213.333 392.971 320h150.029v22h-123h-38h-1h-164v-22h137.357
c-124.566 -102.813 -249.84 -205.625 -374.357 -308.438v308.438h144v22h-144h-12h-12h-154v-22h154v-678h-154v-22h154h12h12h144v22h-144v345.915z" />
    <glyph glyph-name="Kcommaaccent" unicode="&#x136;" horiz-adv-x="834" 
d="M402 -282l110 174h-32l-103 -174h25zM238 367.915c132.903 -114.754 265.806 -230.311 398.708 -345.915h-138.708v-22h164h2h39h121v22h-146.801c-140.291 119.663 -279.745 239.276 -419.199 358c130.058 106.667 261.868 213.333 392.971 320h150.029v22h-123h-38h-1
h-164v-22h137.357c-124.566 -102.813 -249.84 -205.625 -374.357 -308.438v308.438h144v22h-144h-12h-12h-154v-22h154v-678h-154v-22h154h12h12h144v22h-144v345.915z" />
    <glyph glyph-name="L" unicode="L" horiz-adv-x="717" 
d="M238 0h419v11v11v109h-22v-109h-397v678h152v22h-152h-14h-11h-154v-22h154v-678h-154v-22h154h11h14z" />
    <glyph glyph-name="Lacute" unicode="&#x139;" horiz-adv-x="717" 
d="M166 835c56 55 113 110 169 166h-32c-57 -55 -113 -111 -170 -166h33zM238 0h419v11v11v109h-22v-109h-397v678h152v22h-152h-14h-11h-154v-22h154v-678h-154v-22h154h11h14z" />
    <glyph glyph-name="Lcaron" unicode="&#x13d;" horiz-adv-x="693" 
d="M523 549l110 173h-32l-103 -173h25zM238 0h419v11v11v109h-22v-109h-397v678h152v22h-152h-14h-11h-154v-22h154v-678h-154v-22h154h11h14z" />
    <glyph glyph-name="Lcommaaccent" unicode="&#x13b;" horiz-adv-x="717" 
d="M337 -282l111 174h-32l-104 -174h25zM238 0h419v11v11v109h-22v-109h-397v678h152v22h-152h-14h-11h-154v-22h154v-678h-154v-22h154h11h14z" />
    <glyph glyph-name="Lslash" unicode="&#x141;" horiz-adv-x="717" 
d="M238 0h419v11v11v109h-22v-109h-397v306.962c61.0684 51.2776 122.223 102.469 183 154.038v27c-60.7774 -50.9548 -121.932 -102.286 -183 -153.532v343.532h152v22h-152h-14h-11h-154v-22h154v-364.51c-30.0545 -25.2179 -60.073 -50.3996 -90 -75.4899v-28
c29.927 25.3926 59.9455 50.6939 90 75.959v-285.959h-154v-22h154h11h14z" />
    <glyph glyph-name="M" unicode="M" horiz-adv-x="1114" 
d="M549 0h17h9c88.5056 226.913 177.011 452.94 265.517 679.75c18.3226 -219.479 37.3783 -438.225 55.6544 -657.75h-151.171v-22h153h13h11h155v22h-156.917c-19.7218 226.276 -39.4437 451.724 -59.1655 678h153.083v22h-155h-2h-8h-12h-3
c-93.1369 -233.812 -184.391 -466.683 -276.503 -700.44c-92.2245 233.756 -185.39 466.627 -279.497 700.44h-4h-8h-12h-2h-152v-22h150.174c-18.7827 -226.276 -37.5654 -451.724 -56.3481 -678h-154.826v-22h153h13h11h154v22h-152.177
c18.1773 219.641 35.5489 438.501 52.8723 658.097c90.4316 -226.926 180.812 -453.068 270.305 -680.097h8z" />
    <glyph glyph-name="N" unicode="N" horiz-adv-x="981" 
d="M767 0h24h1v700h154v22h-154h-11h-14h-152v-22h152v-668.399c-174.998 230.384 -349.956 459.934 -524 690.399h-5h-11h-13h-2h-150v-22h152v-678h-153l-1 -22h154h12h12h154v22h-154v665.766c174.333 -229.501 348.667 -458.18 523 -687.766h6z" />
    <glyph glyph-name="Nacute" unicode="&#x143;" horiz-adv-x="981" 
d="M445 836c56 55 113 110 169 166h-32c-57 -55 -113 -111 -170 -166h33zM767 0h24h1v700h154v22h-154h-11h-14h-152v-22h152v-668.399c-174.998 230.384 -349.956 459.934 -524 690.399h-5h-11h-13h-2h-150v-22h152v-678h-153l-1 -22h154h12h12h154v22h-154v665.766
c174.333 -229.501 348.667 -458.18 523 -687.766h6z" />
    <glyph glyph-name="Ncaron" unicode="&#x147;" horiz-adv-x="981" 
d="M316 1000c57 -55 113 -111 170 -166h5h27h6c57 55 113 111 169 166h-33c-51.5061 -50.5863 -103.858 -102.019 -155.5 -152.741c-51.6419 50.7221 -103.994 102.154 -155.5 152.741h-33zM767 0h24h1v700h154v22h-154h-11h-14h-152v-22h152v-668.399
c-174.998 230.384 -349.956 459.934 -524 690.399h-5h-11h-13h-2h-150v-22h152v-678h-153l-1 -22h154h12h12h154v22h-154v665.766c174.333 -229.501 348.667 -458.18 523 -687.766h6z" />
    <glyph glyph-name="Ncommaaccent" unicode="&#x145;" horiz-adv-x="981" 
d="M439 -282l111 174h-32l-104 -174h25zM767 0h24h1v700h154v22h-154h-11h-14h-152v-22h152v-668.399c-174.998 230.384 -349.956 459.934 -524 690.399h-5h-11h-13h-2h-150v-22h152v-678h-153l-1 -22h154h12h12h154v22h-154v665.766
c174.333 -229.501 348.667 -458.18 523 -687.766h6z" />
    <glyph glyph-name="Ntilde" unicode="&#xd1;" horiz-adv-x="981" 
d="M675 960c-13 -54 -28 -103 -75 -103c-39 0 -63 19 -90 48c-30 32 -53 55 -96 55c-65 0 -90 -51 -104 -119l19 -5c13 57 32 103 85 103c36 0 54 -21 79 -47c31 -34 59 -56 105 -56c64 0 81 55 98 120zM767 0h24h1v700h154v22h-154h-11h-14h-152v-22h152v-668.399
c-174.998 230.384 -349.956 459.934 -524 690.399h-5h-11h-13h-2h-150v-22h152v-678h-153l-1 -22h154h12h12h154v22h-154v665.766c174.333 -229.501 348.667 -458.18 523 -687.766h6z" />
    <glyph glyph-name="O" unicode="O" horiz-adv-x="818" 
d="M101 360c0 -215 103 -365 308 -365c206 0 308 153 308 368c0 214 -103 364 -308 364c-206 0 -308 -153 -308 -367zM125 360c0 199 92 345 282 345c191 0 286 -143 286 -342c0 -198 -92 -345 -283 -345c-192 0 -285 142 -285 342z" />
    <glyph glyph-name="OE" unicode="&#x152;" horiz-adv-x="1082" 
d="M581 0h427v11v11v109h-21v-109h-406v341h328v22h-328v315h371v-109h22v109v11v11h-393h-11h-13h-75.346c-16.2577 1.56246 -33.4714 2 -52.654 2c-220 0 -330 -151 -330 -380c0 -209 105 -346 309 -346c19.3902 0 37.0896 0.533935 53.9211 2l95.0789 -2.22045e-16h13h11
zM557 22h-0.819992c0.273131 0.108624 0.546461 0.217712 0.819992 0.327265v-0.327265zM557 678.153v-631.456c-50.6148 -22.7587 -90.8684 -23.6964 -148 -23.6964c-183 0 -286 127 -286 322c0 214 106 355 305 355c50.8353 0 86.6048 -0.886224 129 -21.8473z" />
    <glyph glyph-name="Oacute" unicode="&#xd3;" horiz-adv-x="818" 
d="M350 836c56 55 112 110 169 166h-33c-57 -55 -113 -111 -169 -166h33zM101 360c0 -215 103 -365 308 -365c206 0 308 153 308 368c0 214 -103 364 -308 364c-206 0 -308 -153 -308 -367zM125 360c0 199 92 345 282 345c191 0 286 -143 286 -342
c0 -198 -92 -345 -283 -345c-192 0 -285 142 -285 342z" />
    <glyph glyph-name="Ocircumflex" unicode="&#xd4;" horiz-adv-x="818" 
d="M598 835c-57 55 -113 111 -170 166h-5h-27h-6c-57 -55 -113 -111 -169 -166h33c51.5397 50.6194 103.079 101.239 155.399 152.638c51.6747 -51.399 104.061 -102.018 155.601 -152.638h33zM101 360c0 -215 103 -365 308 -365c206 0 308 153 308 368
c0 214 -103 364 -308 364c-206 0 -308 -153 -308 -367zM125 360c0 199 92 345 282 345c191 0 286 -143 286 -342c0 -198 -92 -345 -283 -345c-192 0 -285 142 -285 342z" />
    <glyph glyph-name="Odieresis" unicode="&#xd6;" horiz-adv-x="818" 
d="M453 847h34c0 -10 -7 -16 -18 -16c-10 0 -16 6 -16 16zM453 847h34c0 10 -7 16 -18 16c-10 0 -16 -6 -16 -16zM330 847h34c0 -10 -7 -16 -18 -16c-10 0 -16 6 -16 16zM330 847h34c0 10 -7 16 -18 16c-10 0 -16 -6 -16 -16zM101 360c0 -215 103 -365 308 -365
c206 0 308 153 308 368c0 214 -103 364 -308 364c-206 0 -308 -153 -308 -367zM125 360c0 199 92 345 282 345c191 0 286 -143 286 -342c0 -198 -92 -345 -283 -345c-192 0 -285 142 -285 342z" />
    <glyph glyph-name="Ograve" unicode="&#xd2;" horiz-adv-x="818" 
d="M484 835c-57 55 -113 111 -170 166h-32c56 -55 113 -111 169 -166h33zM101 360c0 -215 103 -365 308 -365c206 0 308 153 308 368c0 214 -103 364 -308 364c-206 0 -308 -153 -308 -367zM125 360c0 199 92 345 282 345c191 0 286 -143 286 -342
c0 -198 -92 -345 -283 -345c-192 0 -285 142 -285 342z" />
    <glyph glyph-name="Ohungarumlaut" unicode="&#x150;" horiz-adv-x="818" 
d="M456 801l110 174h-32l-103 -174h25zM326 801l110 174h-32l-103 -174h25zM101 360c0 -215 103 -365 308 -365c206 0 308 153 308 368c0 214 -103 364 -308 364c-206 0 -308 -153 -308 -367zM125 360c0 199 92 345 282 345c191 0 286 -143 286 -342
c0 -198 -92 -345 -283 -345c-192 0 -285 142 -285 342z" />
    <glyph glyph-name="Omacron" unicode="&#x14c;" horiz-adv-x="818" 
d="M518 858h-230v-21h230v21zM101 360c0 -215 103 -365 308 -365c206 0 308 153 308 368c0 214 -103 364 -308 364c-206 0 -308 -153 -308 -367zM125 360c0 199 92 345 282 345c191 0 286 -143 286 -342c0 -198 -92 -345 -283 -345c-192 0 -285 142 -285 342z" />
    <glyph glyph-name="Oslash" unicode="&#xd8;" horiz-adv-x="818" 
d="M101 360c0 -143.313 45.7646 -257.745 136.998 -318.122l-53.9977 -104.878l21 -11l53.2908 103.751c41.8946 -22.5065 92.1388 -34.751 150.709 -34.751c206 0 308 153 308 368c0 137.811 -42.7147 249.081 -127.877 310.842l48.877 95.1578l-21 9l-47.1059 -91.4921
c-43.8569 26.147 -97.4981 40.4921 -160.894 40.4921c-206 0 -308 -153 -308 -367zM125 360c0 199 92 345 282 345c60.1462 0 110.773 -14.1803 151.911 -39.8242l-309.841 -601.792c-83.2941 57.1837 -124.07 164.185 -124.07 296.616zM577.91 652.012
c76.812 -58.939 115.09 -162.693 115.09 -289.012c0 -198 -92 -345 -283 -345c-55.0126 0 -101.898 11.6576 -140.796 32.997z" />
    <glyph glyph-name="Otilde" unicode="&#xd5;" horiz-adv-x="818" 
d="M580 960c-13 -54 -28 -103 -75 -103c-40 0 -63 19 -90 48c-30 32 -53 55 -96 55c-65 0 -91 -51 -104 -119l19 -5c13 57 32 103 85 103c36 0 54 -21 78 -47c32 -34 60 -56 106 -56c64 0 81 55 98 120zM101 360c0 -215 103 -365 308 -365c206 0 308 153 308 368
c0 214 -103 364 -308 364c-206 0 -308 -153 -308 -367zM125 360c0 199 92 345 282 345c191 0 286 -143 286 -342c0 -198 -92 -345 -283 -345c-192 0 -285 142 -285 342z" />
    <glyph glyph-name="P" unicode="P" horiz-adv-x="696" 
d="M238 343.468v356.532h120c136 0 228 -75 228 -207c0 -119 -79 -190 -198 -190c-59.0683 0 -99.3832 15.0027 -150 40.4682zM230 722h-3h-13h-152v-22h152v-678h-152v-22h152h13h11h155v22h-155v297.504c46.5789 -22.7617 93.1039 -39.5038 148 -39.5038
c135 3 224 78 224 214c0 144 -101 228 -249 228h-123h-8z" />
    <glyph glyph-name="Q" unicode="Q" horiz-adv-x="826" 
d="M101 360c0 -214 105 -365 310 -365c0.759913 0 1.51842 0.00624154 2.27553 0.00624154c101.832 -171.234 221.027 -235.006 411.724 -235.006v23c-176.97 0 -287.336 58.2776 -384.481 213.09c186.321 14.044 279.481 162.486 279.481 367.91c0 214 -104 363 -309 363
c-206 0 -310 -152 -310 -367zM125 360c0 199 94 344 285 344c190 0 285 -143 285 -341c0 -200 -92 -344 -282 -344c-193 0 -288 142 -288 341z" />
    <glyph glyph-name="R" unicode="R" horiz-adv-x="862" 
d="M228 722h-4h-11h-154v-22h154v-678h-154v-22h154h11h14h152v22h-152v318h164c10.1248 0 19.9764 0.355011 29.5401 1.06584c83.8891 -113.689 168.639 -227.377 252.46 -341.066h2h27h139v22h-155.231c-79.2666 107.367 -159.258 214.734 -238.468 322.102
c104.089 16.1455 167.7 80.0282 167.7 192.898c0 128 -87 185 -221 185h-167h-10zM238 700h163c122 0 201 -50 201 -165c0 -116 -77 -173 -197 -173h-167v338z" />
    <glyph glyph-name="Racute" unicode="&#x154;" horiz-adv-x="862" 
d="M314 835c57 55 113 110 169 166h-32c-57 -55 -113 -111 -169 -166h32zM228 722h-4h-11h-154v-22h154v-678h-154v-22h154h11h14h152v22h-152v318h164c10.1248 0 19.9764 0.355011 29.5401 1.06584c83.8891 -113.689 168.639 -227.377 252.46 -341.066h2h27h139v22
h-155.231c-79.2666 107.367 -159.258 214.734 -238.468 322.102c104.089 16.1455 167.7 80.0282 167.7 192.898c0 128 -87 185 -221 185h-167h-10zM238 700h163c122 0 201 -50 201 -165c0 -116 -77 -173 -197 -173h-167v338z" />
    <glyph glyph-name="Rcaron" unicode="&#x158;" horiz-adv-x="862" 
d="M186 999c56 -55 112 -111 169 -166h6h26h6c57 55 113 111 170 166h-33c-52.5894 -50.7442 -104.328 -102.34 -156 -153.216c-51.6723 50.8759 -103.411 102.471 -156 153.216h-32zM228 722h-4h-11h-154v-22h154v-678h-154v-22h154h11h14h152v22h-152v318h164
c10.1248 0 19.9764 0.355011 29.5401 1.06584c83.8891 -113.689 168.639 -227.377 252.46 -341.066h2h27h139v22h-155.231c-79.2666 107.367 -159.258 214.734 -238.468 322.102c104.089 16.1455 167.7 80.0282 167.7 192.898c0 128 -87 185 -221 185h-167h-10zM238 700h163
c122 0 201 -50 201 -165c0 -116 -77 -173 -197 -173h-167v338z" />
    <glyph glyph-name="Rcommaaccent" unicode="&#x156;" horiz-adv-x="862" 
d="M383 -282l110 174h-32l-103 -174h25zM228 722h-4h-11h-154v-22h154v-678h-154v-22h154h11h14h152v22h-152v318h164c10.1248 0 19.9764 0.355011 29.5401 1.06584c83.8891 -113.689 168.639 -227.377 252.46 -341.066h2h27h139v22h-155.231
c-79.2666 107.367 -159.258 214.734 -238.468 322.102c104.089 16.1455 167.7 80.0282 167.7 192.898c0 128 -87 185 -221 185h-167h-10zM238 700h163c122 0 201 -50 201 -165c0 -116 -77 -173 -197 -173h-167v338z" />
    <glyph glyph-name="S" unicode="S" horiz-adv-x="646" 
d="M105 58c67 -40 131 -63 210 -63c132 0 223 51 223 174c0 118 -93 160 -202 213c-96 46 -181 80 -181 181c0 93 69 142 167 142c68.4509 0 121.954 -22.8605 177 -52.9168v-109.083h22v120c-67 39 -120 64 -198 64c-113 0 -193 -58 -193 -165c0 -111 89 -149 191 -199
c103 -48 193 -87 193 -194c0 -105 -82 -151 -198 -151c-70.5218 0 -128.329 20.8887 -189 54.8764l-1.42109e-14 105.124h-22v-120z" />
    <glyph glyph-name="Sacute" unicode="&#x15a;" horiz-adv-x="646" 
d="M268 835c57 55 113 110 169 166h-32c-57 -55 -113 -111 -169 -166h32zM105 58c67 -40 131 -63 210 -63c132 0 223 51 223 174c0 118 -93 160 -202 213c-96 46 -181 80 -181 181c0 93 69 142 167 142c68.4509 0 121.954 -22.8605 177 -52.9168v-109.083h22v120
c-67 39 -120 64 -198 64c-113 0 -193 -58 -193 -165c0 -111 89 -149 191 -199c103 -48 193 -87 193 -194c0 -105 -82 -151 -198 -151c-70.5218 0 -128.329 20.8887 -189 54.8764l-1.42109e-14 105.124h-22v-120z" />
    <glyph glyph-name="Scaron" unicode="&#x160;" horiz-adv-x="646" 
d="M140 999c56 -55 112 -111 169 -166h6h26h6c57 55 113 111 170 166h-33c-52.5894 -50.7442 -104.328 -102.34 -156 -153.216c-51.6723 50.8759 -103.411 102.471 -156 153.216h-32zM105 58c67 -40 131 -63 210 -63c132 0 223 51 223 174c0 118 -93 160 -202 213
c-96 46 -181 80 -181 181c0 93 69 142 167 142c68.4509 0 121.954 -22.8605 177 -52.9168v-109.083h22v120c-67 39 -120 64 -198 64c-113 0 -193 -58 -193 -165c0 -111 89 -149 191 -199c103 -48 193 -87 193 -194c0 -105 -82 -151 -198 -151
c-70.5218 0 -128.329 20.8887 -189 54.8764l-1.42109e-14 105.124h-22v-120z" />
    <glyph glyph-name="Scedilla" unicode="&#x15e;" horiz-adv-x="646" 
d="M282 -83c15 10 28 13 46 13c35 0 55 -22 55 -57c0 -38 -28 -55 -68 -55c-28 0 -48 3 -72 16l-9 -17c26 -14 49 -21 80 -21c54 0 92 25 92 77c0 48 -28 78 -76 78c-11.5776 0 -21.7589 -1.39625 -31.7788 -4.07648c9.23488 16.0248 18.3479 31.9546 27.1422 48.1834
c126.376 2.63488 212.637 54.1389 212.637 173.893c0 118 -93 160 -202 213c-96 46 -181 80 -181 181c0 93 69 142 167 142c68.4509 0 121.954 -22.8605 177 -52.9168v-109.083h22v120c-67 39 -120 64 -198 64c-113 0 -193 -58 -193 -165c0 -111 89 -149 191 -199
c103 -48 193 -87 193 -194c0 -105 -82 -151 -198 -151c-70.5218 0 -128.329 20.8887 -189 54.8764l-1.42109e-14 105.124h-22v-120c62.438 -37.2764 122.271 -59.789 194.066 -62.682l-34.0656 -61.318l16 -17c0.121233 0.212158 0.242466 0.424258 0.363698 0.636302z" />
    <glyph glyph-name="Scommaaccent" unicode="&#x218;" horiz-adv-x="646" 
d="M250 -285l111 174h-32l-104 -174h25zM105 58c67 -40 131 -63 210 -63c132 0 223 51 223 174c0 118 -93 160 -202 213c-96 46 -181 80 -181 181c0 93 69 142 167 142c68.4509 0 121.954 -22.8605 177 -52.9168v-109.083h22v120c-67 39 -120 64 -198 64
c-113 0 -193 -58 -193 -165c0 -111 89 -149 191 -199c103 -48 193 -87 193 -194c0 -105 -82 -151 -198 -151c-70.5218 0 -128.329 20.8887 -189 54.8764l-1.42109e-14 105.124h-22v-120z" />
    <glyph glyph-name="T" unicode="T" horiz-adv-x="780" 
d="M378 698v-676h-155v-22h155h11h13h153v22h-153v676h284v-108h22v108v12v12h-636v-12v-12v-108h22v108h284z" />
    <glyph glyph-name="Tcaron" unicode="&#x164;" horiz-adv-x="780" 
d="M200 1000c56 -55 112 -111 169 -166h6h27h5c57 55 113 111 170 166h-33c-51.5397 -51.5397 -103.927 -102.232 -155.601 -152.858c-52.3193 50.6252 -103.859 101.318 -155.399 152.858h-33zM378 698v-676h-155v-22h155h11h13h153v22h-153v676h284v-108h22v108v12v12
h-636v-12v-12v-108h22v108h284z" />
    <glyph glyph-name="Tcedilla" horiz-adv-x="780" 
d="M366 -83c15 10 28 13 46 13c35 0 55 -22 55 -57c0 -38 -28 -55 -68 -55c-28 0 -48 3 -71 16l-10 -17c27 -14 49 -21 80 -21c55 0 93 25 93 77c0 48 -29 78 -77 78c-11.6079 0 -21.8123 -1.40358 -31.7445 -4.09761c10.2482 17.6393 20.4963 35.1633 30.7445 53.0976h142
v22h-153v676h284v-108h22v108v12v12h-636v-12v-12v-108h22v108h284v-676h-155v-22h155h7.66667l-36.6667 -66l16 -17c0.125948 0.220409 0.251896 0.440755 0.377844 0.661041z" />
    <glyph glyph-name="Tcommaaccent" unicode="&#x162;" horiz-adv-x="780" 
d="M334 -285l111 174h-32l-104 -174h25zM378 698v-676h-155v-22h155h11h13h153v22h-153v676h284v-108h22v108v12v12h-636v-12v-12v-108h22v108h284z" />
    <glyph glyph-name="Thorn" unicode="&#xde;" horiz-adv-x="691" 
d="M238 700h155v22h-155h-11h-13h-152v-22h152v-678h-152v-22h152h13h11h155v22h-155v193.504c46.5789 -22.7617 93.1039 -39.5038 148 -39.5038c135 3 224 78 224 214c0 144 -101 228 -249 228h-123v82zM238 239.468v356.532h120c136 0 228 -75 228 -207
c0 -119 -79 -190 -198 -190c-59.0683 0 -99.3832 15.0027 -150 40.4682z" />
    <glyph glyph-name="U" unicode="U" horiz-adv-x="920" 
d="M213 700h157v22h-165h-166v-22h151v-429c0 -184 88 -276 272 -276c180 0 267 89 267 268v437h154v22h-166h-165v-22h154v-441c0 -158 -81 -240 -242 -240c-171 0 -251 86 -251 256v425z" />
    <glyph glyph-name="Uacute" unicode="&#xda;" horiz-adv-x="920" 
d="M402 836c56 55 113 110 169 166h-32c-57 -55 -113 -111 -170 -166h33zM213 700h157v22h-165h-166v-22h151v-429c0 -184 88 -276 272 -276c180 0 267 89 267 268v437h154v22h-166h-165v-22h154v-441c0 -158 -81 -240 -242 -240c-171 0 -251 86 -251 256v425z" />
    <glyph glyph-name="Ucircumflex" unicode="&#xdb;" horiz-adv-x="920" 
d="M650 835c-56 55 -112 111 -169 166h-6h-27h-5c-57 -55 -113 -111 -170 -166h33c51.5061 50.5863 103.858 101.173 155.5 152.537c51.6419 -51.3644 103.994 -101.951 155.5 -152.537h33zM213 700h157v22h-165h-166v-22h151v-429c0 -184 88 -276 272 -276
c180 0 267 89 267 268v437h154v22h-166h-165v-22h154v-441c0 -158 -81 -240 -242 -240c-171 0 -251 86 -251 256v425z" />
    <glyph glyph-name="Udieresis" unicode="&#xdc;" horiz-adv-x="920" 
d="M506 847h33c0 -10 -7 -16 -17 -16s-16 6 -16 16zM506 847h33c0 10 -7 16 -17 16s-16 -6 -16 -16zM383 847h33c0 -10 -7 -16 -17 -16s-16 6 -16 16zM383 847h33c0 10 -7 16 -17 16s-16 -6 -16 -16zM213 700h157v22h-165h-166v-22h151v-429c0 -184 88 -276 272 -276
c180 0 267 89 267 268v437h154v22h-166h-165v-22h154v-441c0 -158 -81 -240 -242 -240c-171 0 -251 86 -251 256v425z" />
    <glyph glyph-name="Ugrave" unicode="&#xd9;" horiz-adv-x="920" 
d="M536 835c-56 55 -112 111 -169 166h-33c56 -55 113 -111 169 -166h33zM213 700h157v22h-165h-166v-22h151v-429c0 -184 88 -276 272 -276c180 0 267 89 267 268v437h154v22h-166h-165v-22h154v-441c0 -158 -81 -240 -242 -240c-171 0 -251 86 -251 256v425z" />
    <glyph glyph-name="Uhungarumlaut" unicode="&#x170;" horiz-adv-x="920" 
d="M508 801l111 174h-32l-104 -174h25zM378 801l111 174h-32l-104 -174h25zM213 700h157v22h-165h-166v-22h151v-429c0 -184 88 -276 272 -276c180 0 267 89 267 268v437h154v22h-166h-165v-22h154v-441c0 -158 -81 -240 -242 -240c-171 0 -251 86 -251 256v425z" />
    <glyph glyph-name="Umacron" unicode="&#x16a;" horiz-adv-x="920" 
d="M570 858h-230v-21h230v21zM213 700h157v22h-165h-166v-22h151v-429c0 -184 88 -276 272 -276c180 0 267 89 267 268v437h154v22h-166h-165v-22h154v-441c0 -158 -81 -240 -242 -240c-171 0 -251 86 -251 256v425z" />
    <glyph glyph-name="Uogonek" unicode="&#x172;" horiz-adv-x="920" 
d="M422.952 -3.50671c-38.2191 -20.6786 -64.9521 -46.4274 -64.9521 -92.4933c0 -58 36 -95 93 -95c32 0 54 13 81 29c-8 11 -4 4 -12 15c-23 -14 -41 -23 -67 -23c-45 0 -72 29 -72 74c0 49.0171 35.7423 69.4404 80.3277 91.0004
c0.223964 0 0.448071 -0.000409575 0.672321 -0.000409575c180 0 267 89 267 268v437h154v22h-166h-165v-22h154v-441c0 -158 -81 -240 -242 -240c-171 0 -251 86 -251 256v425h157v22h-165h-166v-22h151v-429c0 -170.466 75.5303 -261.968 232.952 -274.507z" />
    <glyph glyph-name="Uring" unicode="&#x16e;" horiz-adv-x="920" 
d="M368 953c0 58 33 96 91 96c62 0 98 -35 98 -96c0 -59 -35 -95 -96 -95c-59 0 -93 36 -93 95zM346 953c0 -71 44 -116 115 -116c74 0 119 43 119 116c0 74 -46 117 -121 117c-71 0 -113 -45 -113 -117zM213 700h157v22h-165h-166v-22h151v-429c0 -184 88 -276 272 -276
c180 0 267 89 267 268v437h154v22h-166h-165v-22h154v-441c0 -158 -81 -240 -242 -240c-171 0 -251 86 -251 256v425z" />
    <glyph glyph-name="V" unicode="V" horiz-adv-x="868" 
d="M429 0h5c92.1089 233.666 184.218 466.391 276.327 700h148.673v22h-140h-26h-1h-170v-22h161.327c-88.4797 -224.404 -176.959 -447.994 -265.439 -672.384c-90.2727 224.391 -179.711 447.98 -269.123 672.384h160.235v22h-169h-2h-26h-141v-22h149.767
c93.1357 -233.609 187.154 -466.334 280.233 -700h6h22z" />
    <glyph glyph-name="W" unicode="W" horiz-adv-x="1081" 
d="M727.216 35.2202c-57.2575 229.169 -116.237 457.522 -175.216 686.78h-7h-15h-8c-63.7127 -229.175 -129.234 -457.447 -193.984 -686.533c-56.2276 221.813 -113.178 443.584 -168.511 664.533h160.495v22h-166h-25h-141v-22h146.66
c60.1141 -233.609 120.257 -466.334 181.34 -700h2h19h2c66.3649 231.796 131.805 462.668 198.099 694.393c59.5616 -231.726 118.269 -462.597 177.901 -694.393h3h18h3c63.0219 233.666 126.044 466.391 189.066 700h145.934v22h-140h-25h-166v-22h160.157
c-58.9332 -221.869 -117.841 -442.942 -175.941 -664.78z" />
    <glyph glyph-name="X" unicode="X" horiz-adv-x="830" 
d="M415.876 361.356c79.0876 -113.05 158.286 -226.099 237.698 -339.356h-154.573v-22h165h5h30h131v22h-146.429c-84.3564 120.266 -168.705 240.299 -252.922 360.346c74.4803 105.816 149.063 211.644 223.834 317.654h148.518v22h-133h-28h-4h-166v-22h154.391
c-70.2529 -99.0213 -140.347 -197.884 -210.422 -296.727c-69.327 98.8429 -138.56 197.706 -207.628 296.727h150.659v22h-165h-1h-29h-136v-22h151.338c73.9075 -105.995 147.821 -211.809 221.825 -317.611c-85.1165 -120.061 -170.218 -240.108 -255.554 -360.389
h-148.609v-22h133h32h1h165v22h-150.571c79.4408 113.257 158.888 226.307 238.446 339.356z" />
    <glyph glyph-name="Y" unicode="Y" horiz-adv-x="776" 
d="M371.244 357.178c-72.0158 114.035 -143.281 228.78 -214.5 342.822h161.256v22h-166h-9h-26h-131v-22h144.744c75.4217 -120.772 150.894 -242.33 227.256 -363v-315h-153v-22h153h13h13h152v22h-152v315c80.1323 120.67 159.376 242.228 239.406 363h144.594v22h-130
h-26h-9h-166v-22h160.397c-75.6647 -114.043 -151.284 -228.787 -226.153 -342.822z" />
    <glyph glyph-name="Yacute" unicode="&#xdd;" horiz-adv-x="776" 
d="M310 836c57 55 113 110 169 166h-32c-57 -55 -113 -111 -169 -166h32zM371.244 357.178c-72.0158 114.035 -143.281 228.78 -214.5 342.822h161.256v22h-166h-9h-26h-131v-22h144.744c75.4217 -120.772 150.894 -242.33 227.256 -363v-315h-153v-22h153h13h13h152v22
h-152v315c80.1323 120.67 159.376 242.228 239.406 363h144.594v22h-130h-26h-9h-166v-22h160.397c-75.6647 -114.043 -151.284 -228.787 -226.153 -342.822z" />
    <glyph glyph-name="Ydieresis" unicode="&#x178;" horiz-adv-x="776" 
d="M414 847h34c0 -10 -7 -16 -18 -16c-10 0 -16 6 -16 16zM414 847h34c0 10 -7 16 -18 16c-10 0 -16 -6 -16 -16zM291 847h34c0 -10 -7 -16 -18 -16c-10 0 -16 6 -16 16zM291 847h34c0 10 -7 16 -18 16c-10 0 -16 -6 -16 -16zM371.244 357.178
c-72.0158 114.035 -143.281 228.78 -214.5 342.822h161.256v22h-166h-9h-26h-131v-22h144.744c75.4217 -120.772 150.894 -242.33 227.256 -363v-315h-153v-22h153h13h13h152v22h-152v315c80.1323 120.67 159.376 242.228 239.406 363h144.594v22h-130h-26h-9h-166v-22
h160.397c-75.6647 -114.043 -151.284 -228.787 -226.153 -342.822z" />
    <glyph glyph-name="Z" unicode="Z" horiz-adv-x="723" 
d="M90.7577 22c170.737 225.333 0.00518065 4.34444e-06 517.242 678v22h-505v-11v-11v-109h22v109h454.242c-170.737 -225.333 -0.00518065 -4.34444e-06 -517.242 -678v-22h589v11v11v109h-22v-109z" />
    <glyph glyph-name="Zacute" unicode="&#x179;" horiz-adv-x="723" 
d="M298 836c56 55 113 110 169 166h-32c-57 -55 -113 -111 -170 -166h33zM90.7577 22c170.737 225.333 0.00518065 4.34444e-06 517.242 678v22h-505v-11v-11v-109h22v109h454.242c-170.737 -225.333 -0.00518065 -4.34444e-06 -517.242 -678v-22h589v11v11v109h-22v-109z
" />
    <glyph glyph-name="Zcaron" unicode="&#x17d;" horiz-adv-x="723" 
d="M169 1000c57 -55 113 -111 170 -166h5h27h6c57 55 113 111 169 166h-33c-51.5397 -50.6194 -103.079 -102.086 -155.399 -152.84c-51.6747 50.7543 -104.061 102.221 -155.601 152.84h-33zM90.7577 22c170.737 225.333 0.00518065 4.34444e-06 517.242 678v22h-505v-11
v-11v-109h22v109h454.242c-170.737 -225.333 -0.00518065 -4.34444e-06 -517.242 -678v-22h589v11v11v109h-22v-109z" />
    <glyph glyph-name="Zdotaccent" unicode="&#x17b;" horiz-adv-x="723" 
d="M339 848h34c0 -10 -7 -16 -18 -16c-10 0 -16 6 -16 16zM339 848h34c0 10 -7 16 -18 16c-10 0 -16 -7 -16 -16zM90.7577 22c170.737 225.333 0.00518065 4.34444e-06 517.242 678v22h-505v-11v-11v-109h22v109h454.242
c-170.737 -225.333 -0.00518065 -4.34444e-06 -517.242 -678v-22h589v11v11v109h-22v-109z" />
    <glyph glyph-name="a" unicode="a" horiz-adv-x="626" 
d="M470 0h10h145v22h-145v368c0 109 -62 148 -171 148c-87 0 -148 -34 -196 -74v-120h22v110.498c42.0098 30.7254 97.9559 61.5018 171 61.5018c97 0 150 -34 150 -133v-64.3516c-74.917 -10.0778 -120.435 -15.1091 -199 -25.6484c-96 -14 -161 -51 -161 -146
c0 -98 53 -152 152 -152c103.477 0 147.633 52.7298 208 132.015v-127.015h14zM456 158.524c-62.2621 -80.7914 -105.586 -141.524 -203 -141.524c-88 0 -133 46 -133 132c0 81 56 113 136 125c78.9132 10.4584 124.38 15.4931 200 25.4174v-140.893z" />
    <glyph glyph-name="aacute" unicode="&#xe1;" horiz-adv-x="626" 
d="M254 657c56 55 113 111 169 166h-32c-57 -55 -113 -111 -170 -166h33zM470 0h10h145v22h-145v368c0 109 -62 148 -171 148c-87 0 -148 -34 -196 -74v-120h22v110.498c42.0098 30.7254 97.9559 61.5018 171 61.5018c97 0 150 -34 150 -133v-64.3516
c-74.917 -10.0778 -120.435 -15.1091 -199 -25.6484c-96 -14 -161 -51 -161 -146c0 -98 53 -152 152 -152c103.477 0 147.633 52.7298 208 132.015v-127.015h14zM456 158.524c-62.2621 -80.7914 -105.586 -141.524 -203 -141.524c-88 0 -133 46 -133 132
c0 81 56 113 136 125c78.9132 10.4584 124.38 15.4931 200 25.4174v-140.893z" />
    <glyph glyph-name="abreve" unicode="&#x103;" horiz-adv-x="626" 
d="M432 782c0 -68 -47 -102 -118 -102c-69 0 -113 37 -113 103h-23c0 -81 51 -124 134 -124c86 0 143 41 143 123h-23zM470 0h10h145v22h-145v368c0 109 -62 148 -171 148c-87 0 -148 -34 -196 -74v-120h22v110.498c42.0098 30.7254 97.9559 61.5018 171 61.5018
c97 0 150 -34 150 -133v-64.3516c-74.917 -10.0778 -120.435 -15.1091 -199 -25.6484c-96 -14 -161 -51 -161 -146c0 -98 53 -152 152 -152c103.477 0 147.633 52.7298 208 132.015v-127.015h14zM456 158.524c-62.2621 -80.7914 -105.586 -141.524 -203 -141.524
c-88 0 -133 46 -133 132c0 81 56 113 136 125c78.9132 10.4584 124.38 15.4931 200 25.4174v-140.893z" />
    <glyph glyph-name="acircumflex" unicode="&#xe2;" horiz-adv-x="626" 
d="M502 656c-56 55 -112 111 -169 166h-6h-27h-5c-57 -55 -113 -111 -170 -166h33c51.5397 50.6194 103.927 102.086 155.601 152.84c52.3193 -50.7543 103.859 -102.221 155.399 -152.84h33zM470 0h10h145v22h-145v368c0 109 -62 148 -171 148c-87 0 -148 -34 -196 -74
v-120h22v110.498c42.0098 30.7254 97.9559 61.5018 171 61.5018c97 0 150 -34 150 -133v-64.3516c-74.917 -10.0778 -120.435 -15.1091 -199 -25.6484c-96 -14 -161 -51 -161 -146c0 -98 53 -152 152 -152c103.477 0 147.633 52.7298 208 132.015v-127.015h14zM456 158.524
c-62.2621 -80.7914 -105.586 -141.524 -203 -141.524c-88 0 -133 46 -133 132c0 81 56 113 136 125c78.9132 10.4584 124.38 15.4931 200 25.4174v-140.893z" />
    <glyph glyph-name="acute" unicode="&#xb4;" horiz-adv-x="311" 
d="M42 591c57 55 113 111 170 166h-33c-57 -55 -113 -111 -169 -166h32z" />
    <glyph glyph-name="adieresis" unicode="&#xe4;" horiz-adv-x="626" 
d="M358 669h33c0 -10 -7 -16 -17 -16s-16 6 -16 16zM358 669h33c0 10 -7 16 -17 16s-16 -7 -16 -16zM235 669h33c0 -10 -7 -16 -17 -16s-16 6 -16 16zM235 669h33c0 10 -7 16 -17 16s-16 -7 -16 -16zM470 0h10h145v22h-145v368c0 109 -62 148 -171 148
c-87 0 -148 -34 -196 -74v-120h22v110.498c42.0098 30.7254 97.9559 61.5018 171 61.5018c97 0 150 -34 150 -133v-64.3516c-74.917 -10.0778 -120.435 -15.1091 -199 -25.6484c-96 -14 -161 -51 -161 -146c0 -98 53 -152 152 -152c103.477 0 147.633 52.7298 208 132.015
v-127.015h14zM456 158.524c-62.2621 -80.7914 -105.586 -141.524 -203 -141.524c-88 0 -133 46 -133 132c0 81 56 113 136 125c78.9132 10.4584 124.38 15.4931 200 25.4174v-140.893z" />
    <glyph glyph-name="ae" unicode="&#xe6;" horiz-adv-x="969" 
d="M847 294h-368.813c3.65778 135.04 61.1384 222 187.813 222c124 0 181 -81 181 -212v-10zM478.043 273h391.957v29c0 146 -65 236 -202 236c-98.1583 0 -160.646 -45.0341 -191.334 -121.704c-9.53802 89.0521 -69.8457 121.704 -168.666 121.704
c-87 0 -149 -33 -196 -74v-105h21v93.6351c42.639 33.7356 94.3006 63.3649 172 63.3649c96 0 149 -34 149 -133v-87.9923c-8.59482 0.00822146 -16.7904 0.0200974 -24.6852 0.0200974c-60.3704 0 -103.148 -0.694444 -172.315 -9.02778c-96 -14 -162 -46 -162 -141
c0 -97 52 -150 152 -150c106.438 0 168.515 51.4598 232.194 134.322c34.2547 -85.2295 104.127 -135.322 213.806 -135.322c74 0 121 27 176 81l-16 15c-50 -47 -92 -73 -160 -73c-146.802 0 -213.035 100.954 -214.957 256zM454.041 273.028
c0.51415 -43.9572 5.92049 -83.8367 16.4514 -118.809c-64.1177 -81.8382 -120.776 -137.219 -218.492 -137.219c-85 0 -133 45 -133 130c0 75 59 107 139 119c52.5 6.25 89.7656 7.42188 130.107 7.42188c20.4016 0 41.5899 -0.299708 65.9331 -0.393898z" />
    <glyph glyph-name="agrave" unicode="&#xe0;" horiz-adv-x="626" 
d="M388 657c-56 55 -112 111 -169 166h-33c57 -56 113 -111 169 -166h33zM470 0h10h145v22h-145v368c0 109 -62 148 -171 148c-87 0 -148 -34 -196 -74v-120h22v110.498c42.0098 30.7254 97.9559 61.5018 171 61.5018c97 0 150 -34 150 -133v-64.3516
c-74.917 -10.0778 -120.435 -15.1091 -199 -25.6484c-96 -14 -161 -51 -161 -146c0 -98 53 -152 152 -152c103.477 0 147.633 52.7298 208 132.015v-127.015h14zM456 158.524c-62.2621 -80.7914 -105.586 -141.524 -203 -141.524c-88 0 -133 46 -133 132
c0 81 56 113 136 125c78.9132 10.4584 124.38 15.4931 200 25.4174v-140.893z" />
    <glyph glyph-name="amacron" unicode="&#x101;" horiz-adv-x="626" 
d="M423 680h-231v-22h231v22zM470 0h10h145v22h-145v368c0 109 -62 148 -171 148c-87 0 -148 -34 -196 -74v-120h22v110.498c42.0098 30.7254 97.9559 61.5018 171 61.5018c97 0 150 -34 150 -133v-64.3516c-74.917 -10.0778 -120.435 -15.1091 -199 -25.6484
c-96 -14 -161 -51 -161 -146c0 -98 53 -152 152 -152c103.477 0 147.633 52.7298 208 132.015v-127.015h14zM456 158.524c-62.2621 -80.7914 -105.586 -141.524 -203 -141.524c-88 0 -133 46 -133 132c0 81 56 113 136 125c78.9132 10.4584 124.38 15.4931 200 25.4174
v-140.893z" />
    <glyph glyph-name="ampersand" unicode="&#x26;" horiz-adv-x="723" 
d="M286.614 368.197c10.7977 -10.5383 21.6884 -21.2068 32.3859 -32.1973c69.2862 -68.6731 138.197 -137.346 207.192 -206.019c-53.7101 -69.6851 -124.831 -112.981 -222.192 -112.981c-108 0 -185 57 -185 160c0 100.47 80.1514 140.578 167.614 191.197z
M542.429 113.822c38.1275 -37.9406 76.2921 -75.8811 114.571 -113.822h30c-44.3137 43.5626 -88.2044 87.2663 -131.99 131.005c36.1084 51.9941 63.9764 116.037 86.9897 186.995l-21 5c-21.7397 -66.3634 -48.2798 -126.617 -82.2278 -175.768
c-67.3609 67.3327 -134.565 134.718 -202.772 201.768c-9.70603 10.5884 -19.7365 20.8091 -29.786 30.8626c86.2495 51.6386 158.786 100.044 158.786 199.137c0 92 -63 148 -155 148c-89 0 -146 -60 -146 -150c0 -82.4458 49.6066 -137.064 106.001 -192.556
c-93.5141 -55.3516 -175.001 -100.72 -175.001 -207.444c0 -116 87 -182 208 -182c106.585 0 182.631 45.315 239.429 118.822zM290.121 395.879c-52.5593 52.2921 -101.121 102.917 -101.121 181.121c0 76 46 128 120 128c79 0 132 -48 132 -126
c0 -93.6648 -68.9244 -137.203 -150.879 -183.121z" />
    <glyph glyph-name="aogonek" unicode="&#x105;" horiz-adv-x="626" 
d="M479 0h1h145v22h-145v368c0 109 -62 148 -171 148c-87 0 -148 -34 -196 -74v-120h22v110.498c42.0098 30.7254 97.9559 61.5018 171 61.5018c97 0 150 -34 150 -133v-64.3516c-74.917 -10.0778 -120.435 -15.1091 -199 -25.6484c-96 -14 -161 -51 -161 -146
c0 -98 53 -152 152 -152c103.477 0 147.633 52.7298 208 132.015v-117.876c-54.4673 -23.4014 -97 -50.0327 -97 -108.138c0 -57 36 -95 93 -95c32 0 54 13 81 30c-8 11 -5 4 -12 15c-23 -14 -41 -23 -67 -23c-45 0 -72 29 -72 73c0 55 45 75 97 99zM456 158.524
c-62.2621 -80.7914 -105.586 -141.524 -203 -141.524c-88 0 -133 46 -133 132c0 81 56 113 136 125c78.9132 10.4584 124.38 15.4931 200 25.4174v-140.893z" />
    <glyph glyph-name="apostrophemod" horiz-adv-x="410" 
d="M160 549l111 173h-32l-104 -173h25z" />
    <glyph glyph-name="approxequal" unicode="&#x2248;" horiz-adv-x="783" 
d="M629 527c-18 -50 -43 -103 -106 -103c-50 0 -83 17 -121 49c-40 33 -73 55 -126 55c-81 0 -115 -46 -136 -120l19 -6c18 59 47 105 116 105c44 0 72 -17 106 -45c45 -37 81 -58 140 -59c77 0 106 52 129 119zM629 344c-19 -50 -44 -103 -106 -103c-50 0 -83 17 -121 49
c-41 33 -74 55 -126 55c-81 0 -116 -46 -136 -120l19 -6c17 59 47 105 115 105c45 0 73 -17 106 -45c45 -37 82 -58 140 -59c78 0 106 52 129 119z" />
    <glyph glyph-name="aring" unicode="&#xe5;" horiz-adv-x="626" 
d="M220 775c0 58 33 95 91 95c62 0 98 -35 98 -95c0 -59 -35 -95 -95 -95c-59 0 -94 35 -94 95zM198 775c0 -72 44 -117 116 -117c73 0 118 44 118 117s-46 116 -121 116c-71 0 -113 -44 -113 -116zM470 0h10h145v22h-145v368c0 109 -62 148 -171 148
c-87 0 -148 -34 -196 -74v-120h22v110.498c42.0098 30.7254 97.9559 61.5018 171 61.5018c97 0 150 -34 150 -133v-64.3516c-74.917 -10.0778 -120.435 -15.1091 -199 -25.6484c-96 -14 -161 -51 -161 -146c0 -98 53 -152 152 -152c103.477 0 147.633 52.7298 208 132.015
v-127.015h14zM456 158.524c-62.2621 -80.7914 -105.586 -141.524 -203 -141.524c-88 0 -133 46 -133 132c0 81 56 113 136 125c78.9132 10.4584 124.38 15.4931 200 25.4174v-140.893z" />
    <glyph glyph-name="asciicircum" unicode="^" horiz-adv-x="605" 
d="M496 466c-59 111 -122 233 -181 344h-1h-23h-1c-60 -115 -119 -229 -179 -344h25c55.2032 107.599 111.282 214.324 166.598 321.81c54.8521 -104.92 114.243 -218.161 168.402 -321.81h25z" />
    <glyph glyph-name="asciitilde" unicode="~" horiz-adv-x="775" 
d="M623 344c-19 -50 -44 -103 -106 -103c-50 0 -83 17 -121 49c-41 33 -74 55 -126 55c-81 0 -116 -46 -136 -120l19 -6c17 59 47 105 115 105c45 0 73 -17 106 -45c45 -37 82 -58 140 -59c78 0 106 52 129 119z" />
    <glyph glyph-name="asterisk" unicode="*" horiz-adv-x="559" 
d="M262.913 513.888c-32.6375 -32.7911 -65.2751 -66.2505 -97.9126 -98.888l18 -15c31.5737 34.3596 64.8722 68.7193 97.4929 103.079c32.4975 -34.3548 64.9335 -68.648 96.5071 -102.079l19 14c-32.7844 33.695 -65.5687 66.5607 -98.3531 99.3523
c44.127 16.0451 88.3347 31.441 133.353 47.6477l-10 21l-130.978 -51.8453c0.152781 45.7681 1.06523 92.223 1.97767 137.845h-24c0.912447 -45.6223 1.82489 -92.0772 1.97767 -137.845l-130.978 51.8453l-10 -22c45.2087 -16.2751 89.5998 -31.7327 133.913 -47.112z
" />
    <glyph glyph-name="at" unicode="@" horiz-adv-x="880" 
d="M614 -89c-56 -31 -98 -37 -163 -37c-214 0 -337 118 -337 330c0 208 125 326 335 326c200 0 311 -121 311 -321c0 -83 -17 -151 -84 -151c-74 0 -90 68 -90 151c0 105 -51 173 -151 173c-106 0 -162 -65 -162 -172c0 -111 51 -184 158 -184
c77.4832 0 117.32 45.9414 137.859 115.907c10.4666 -61.4678 39.6961 -103.907 105.141 -103.907c89 0 110 75 110 172c0 216 -119 343 -333 343c-228 0 -361 -125 -361 -350s132 -351 359 -351c70 0 116 8 176 39zM564.234 191.892
c-20.989 -81.6112 -52.6721 -143.892 -129.234 -143.892c-96 0 -139 65 -139 163c0 93 46 149 136 149c89 0 132 -59 132 -152c0 -5.43842 0.0753748 -10.8113 0.233816 -16.1083z" />
    <glyph glyph-name="atilde" unicode="&#xe3;" horiz-adv-x="626" 
d="M485 781c-14 -54 -29 -103 -75 -103c-40 0 -64 19 -91 49c-29 32 -53 55 -96 55c-65 0 -90 -51 -104 -119l19 -6c13 58 32 104 85 104c36 0 55 -21 79 -48c31 -34 59 -56 106 -56c63 0 80 55 97 120zM470 0h10h145v22h-145v368c0 109 -62 148 -171 148
c-87 0 -148 -34 -196 -74v-120h22v110.498c42.0098 30.7254 97.9559 61.5018 171 61.5018c97 0 150 -34 150 -133v-64.3516c-74.917 -10.0778 -120.435 -15.1091 -199 -25.6484c-96 -14 -161 -51 -161 -146c0 -98 53 -152 152 -152c103.477 0 147.633 52.7298 208 132.015
v-127.015h14zM456 158.524c-62.2621 -80.7914 -105.586 -141.524 -203 -141.524c-88 0 -133 46 -133 132c0 81 56 113 136 125c78.9132 10.4584 124.38 15.4931 200 25.4174v-140.893z" />
    <glyph glyph-name="b" unicode="b" horiz-adv-x="713" 
d="M176 0h10v78.6356c58.729 -56.5026 121.765 -83.6356 207 -83.6356c146 0 224 114 224 269c0 157 -76 274 -222 274c-88.4544 0 -162.043 -46.9451 -209 -95.1578v357.158h-10h-14h-151v-22h151v-756h-151v-22h151h14zM186 107.024v306.558
c43.6817 47.7836 116.507 102.418 206 102.418c134 0 201 -108 201 -253c0 -135.783 -66.7977 -246.027 -197.472 -246.027c-1.17078 0 -2.34668 0.00884945 -3.52771 0.0266093c-84.6126 0 -145.025 30.0078 -206 90.0235z" />
    <glyph glyph-name="backslash" unicode="\" horiz-adv-x="550" 
d="M489 -68l-402 912h-25l402 -912h25z" />
    <glyph glyph-name="bar" unicode="|" horiz-adv-x="269" 
d="M147 -300v1100h-24v-1100h24z" />
    <glyph glyph-name="braceleft" unicode="{" horiz-adv-x="366" 
d="M295 800c-86 0 -129 -60 -129 -150v-180c0 -73 -37 -120 -107 -120v-22c70 0 107 -50 107 -123v-178c0 -90 44 -150 129 -150v21c-73 0 -107 52 -107 128v177c0 64.7714 -24.9426 114.577 -72.3517 135.8c47.0195 20.4621 71.3517 68.7595 71.3517 134.2v177
c0 76 35 129 108 129v21z" />
    <glyph glyph-name="braceright" unicode="}" horiz-adv-x="366" 
d="M71 778c73 0 108 -52 108 -128v-177c0 -65.1488 24.1157 -113.855 70.724 -134.757c-46.2113 -21.5283 -70.724 -71.0316 -70.724 -135.243v-177c0 -76 -34 -128 -108 -128v-22c86 0 130 61 130 151v178c0 73 36 122 106 122v23c-70 0 -107 47 -107 120v180
c0 90 -43 150 -129 150v-22z" />
    <glyph glyph-name="bracketleft" unicode="[" horiz-adv-x="342" 
d="M284 771h-162v-895h162v24h-138v847h138v24z" />
    <glyph glyph-name="bracketright" unicode="]" horiz-adv-x="342" 
d="M196.935 -100h-137.935v-24h162v895h-162v-24h137.999c-0.0254892 -190.667 -0.443229 -381.333 -0.443229 -572c0 -91.6667 0.0965559 -183.333 0.379677 -275z" />
    <glyph glyph-name="breve" unicode="&#x2d8;" horiz-adv-x="434" 
d="M266 742c0 -68 -47 -102 -118 -102c-69 0 -113 37 -113 103h-22c0 -81 50 -124 133 -124c87 0 143 41 143 123h-23z" />
    <glyph glyph-name="brokenbar" unicode="&#xa6;" horiz-adv-x="302" 
d="M163 428v372h-24v-372h24zM163 -300v372h-24v-372h24z" />
    <glyph glyph-name="bullet" unicode="&#x2022;" horiz-adv-x="391" 
d="M162 440h67c0 -20 -14 -32 -35 -32c-20 0 -32 12 -32 32zM162 440h67c0 20 -14 32 -35 32c-20 0 -32 -13 -32 -32z" />
    <glyph glyph-name="bulletoperator" unicode="&#x2219;" horiz-adv-x="328" 
d="M131 440h67c0 -20 -14 -32 -35 -32c-20 0 -32 12 -32 32zM131 440h67c0 20 -14 32 -35 32c-20 0 -32 -13 -32 -32z" />
    <glyph glyph-name="c" unicode="c" horiz-adv-x="595" 
d="M503 473c-46 36 -104 65 -166 65c-161 0 -241 -102 -241 -271s78 -272 239 -272c70 0 134 35 179 90l-17 14c-40 -46 -98 -82 -161 -82c-145 0 -216 95 -216 250s73 249 216 249c52.6466 0 102.642 -22.0955 145 -52.1614v-110.839h22v120z" />
    <glyph glyph-name="cacute" unicode="&#x107;" horiz-adv-x="595" 
d="M277 658c57 55 113 110 170 166h-33c-57 -55 -113 -111 -169 -166h32zM503 473c-46 36 -104 65 -166 65c-161 0 -241 -102 -241 -271s78 -272 239 -272c70 0 134 35 179 90l-17 14c-40 -46 -98 -82 -161 -82c-145 0 -216 95 -216 250s73 249 216 249
c52.6466 0 102.642 -22.0955 145 -52.1614v-110.839h22v120z" />
    <glyph glyph-name="caron" unicode="&#x2c7;" horiz-adv-x="547" 
d="M8 757c57 -55 113 -111 170 -166h5h27h6c57 55 113 111 169 166h-32c-52.4572 -50.6166 -104.068 -102.08 -156.39 -152.832c-51.5428 50.7516 -103.153 102.215 -155.61 152.832h-33z" />
    <glyph glyph-name="ccaron" unicode="&#x10d;" horiz-adv-x="589" 
d="M149 822c56 -55 112 -111 169 -166h6h27h5c57 55 113 111 170 166h-33c-51.5397 -50.6194 -103.927 -102.086 -155.601 -152.84c-52.3193 50.7543 -103.859 102.221 -155.399 152.84h-33zM503 473c-46 36 -104 65 -166 65c-161 0 -241 -102 -241 -271s78 -272 239 -272
c70 0 134 35 179 90l-17 14c-40 -46 -98 -82 -161 -82c-145 0 -216 95 -216 250s73 249 216 249c52.6466 0 102.642 -22.0955 145 -52.1614v-110.839h22v120z" />
    <glyph glyph-name="ccedilla" unicode="&#xe7;" horiz-adv-x="595" 
d="M300 -84c15 10 28 13 46 13c35 0 55 -22 55 -57c0 -38 -28 -55 -68 -55c-27 0 -48 3 -71 16l-10 -17c27 -14 49 -21 80 -21c55 0 93 25 93 77c0 48 -29 78 -77 78c-11.6079 0 -21.8123 -1.40358 -31.7445 -4.09761c9.52914 16.4017 19.0583 32.7038 28.5874 49.3287
c66.1396 3.10799 126.275 37.3577 169.157 89.769l-17 14c-40 -46 -98 -82 -161 -82c-145 0 -216 95 -216 250s73 249 216 249c52.6466 0 102.642 -22.0955 145 -52.1614v-110.839h22v120c-46 36 -104 65 -166 65c-161 0 -241 -102 -241 -271
c0 -162.821 72.4005 -264.38 221.673 -271.589l-34.6729 -62.4113l16 -17c0.125948 0.220409 0.251896 0.440755 0.377844 0.661041z" />
    <glyph glyph-name="cedilla" unicode="&#xb8;" horiz-adv-x="416" 
d="M124 -81c15 10 28 13 46 13c35 0 55 -21 55 -57c0 -38 -28 -55 -68 -55c-27 0 -48 3 -71 17l-10 -17c27 -15 49 -21 80 -21c55 0 93 24 93 76c0 48 -29 78 -76 78c-12.1813 0 -22.7007 -1.42449 -32.8307 -4.15779c10.0955 17.8712 20.4631 36.0145 30.8307 54.1578
l-19 14c-15 -27 -30 -53 -45 -80l1 -1z" />
    <glyph glyph-name="cent" unicode="&#xa2;" horiz-adv-x="695" 
d="M392 678.954v99.0462h-23v-99.3007c-178.059 -6.76519 -279 -127.186 -279 -312.699c0 -180.521 85.6667 -307.14 257 -311.863v-107.137h25v107.24c91.8401 2.99146 155.965 33.9114 230 92.7597l-15 17c-72 -58 -134 -88 -228 -88c-163 0 -245 120 -245 291
c0 176 98 290 269 290c83 0 140 -20 207 -67l14 16c-69.0805 50.5941 -128.694 71.8418 -212 72.9538z" />
    <glyph glyph-name="circumflex" unicode="&#x2c6;" horiz-adv-x="725" 
d="M385 591c-56 55 -112 111 -169 166h-6h-27h-5c-57 -55 -113 -111 -170 -166h33c51.5397 50.6194 103.927 102.086 155.601 152.84c52.3193 -50.7543 103.859 -102.221 155.399 -152.84h33z" />
    <glyph glyph-name="colon" unicode=":" horiz-adv-x="290" 
d="M131 12h28c0 -9 -6 -14 -15 -14c-8 0 -13 6 -13 14zM131 12h28c0 9 -6 14 -15 14c-8 0 -13 -6 -13 -14zM131 428h28c0 9 -6 14 -15 14c-8 0 -13 -6 -13 -14zM131 428h28c0 -10 -6 -14 -15 -14c-8 0 -13 5 -13 14z" />
    <glyph glyph-name="comma" unicode="," horiz-adv-x="314" 
d="M72 -143l110 174h-32l-103 -174h25z" />
    <glyph glyph-name="commaaccent" horiz-adv-x="410" 
d="M141 -124l110 174h-32l-103 -174h25z" />
    <glyph glyph-name="copyright" unicode="&#xa9;" horiz-adv-x="838" 
d="M522 452v-71h22v83c-38 23 -69 32 -115 32c-106 0 -168 -69 -168 -177c0 -104 55 -173 156 -173c56 0 96 12 141 47l-16 15c-39 -30 -74 -41 -124 -41c-88 0 -133 62 -133 153c0 94 50 154 143 154c39.7677 0 64.7091 -6.91892 94.4777 -21.7394zM98 319
c0 -195 133 -324 330 -324c191 0 313 132 313 324c0 194 -126 327 -318 327c-196 0 -325 -131 -325 -327zM122 319c0 184 118 306 301 306c179 0 294 -125 294 -307c0 -178 -112 -301 -288 -301c-183 0 -307 118 -307 302z" />
    <glyph glyph-name="currency" unicode="&#xa4;" horiz-adv-x="639" 
d="M158 310c0 -44.9343 10.5813 -82.9908 30.7072 -112.022c-30.2357 -29.1788 -60.4714 -57.6588 -90.7072 -86.9783l16 -17c30.3361 28.4976 59.8272 56.9952 89.2501 86.2696c28.1938 -29.0541 68.9872 -45.2696 120.75 -45.2696
c48.0007 0 85.8142 15.9451 112.398 43.6665c28.7165 -28.3728 58.0569 -56.1218 86.6016 -84.6665l17 16c-28.968 28.968 -59.575 57.936 -88.8536 86.904c20.2962 29.8164 30.8536 68.9398 30.8536 114.096c0 46.9058 -12.2654 86.4101 -35.2402 115.401
c29.4134 28.3494 58.8268 56.077 88.2402 84.5991l-17 17c-28.5353 -27.6436 -57.8658 -56.0823 -87.2823 -84.6072c-26.4183 23.4797 -62.4534 36.6072 -106.718 36.6072c-48.2667 0 -87.2358 -13.735 -115.256 -38.7767
c-28.7724 28.5922 -58.2582 57.1845 -87.7439 85.7767l-16 -17c28.922 -28.922 58.6608 -57.027 87.7399 -85.7918c-22.6606 -28.6799 -34.7399 -67.4836 -34.7399 -114.208zM181 310c0 90 52 148 141 148s136 -58 136 -148c0 -91 -45 -154 -133 -154
c-93 0 -144 61 -144 154z" />
    <glyph glyph-name="d" unicode="d" horiz-adv-x="716" 
d="M527 437.278v-310.5c-47.7598 -67.7748 -101.879 -109.778 -184 -109.778c-142 0 -228 101 -228 248c0 148 85 251 227 251c74.4076 0 136.676 -28.9478 185 -78.7221zM527 90.747v-90.747h13h12h154v22h-154v778h-13h-12h-154v-22h154v-311.031
c-51.4505 45.2869 -110.924 71.0311 -186 71.0311c-157 0 -250 -112 -250 -274c0 -160 96 -269 253 -269c80.2666 0 136.175 35.0148 183 95.747z" />
    <glyph glyph-name="dagger" unicode="&#x2020;" horiz-adv-x="656" 
d="M337 494v267h-24v-267h-262v-24h262v-769h24v769h268v24h-268z" />
    <glyph glyph-name="daggerdbl" unicode="&#x2021;" horiz-adv-x="761" 
d="M366 -24v-275h24v275h267v25h-267v469h267v24h-267v267h-24v-267h-262v-24h262v-469h-262v-25h262z" />
    <glyph glyph-name="dcaron" unicode="&#x10f;" horiz-adv-x="759" 
d="M639 646l111 173h-32l-104 -173h25zM527 437.278v-310.5c-47.7598 -67.7748 -101.879 -109.778 -184 -109.778c-142 0 -228 101 -228 248c0 148 85 251 227 251c74.4076 0 136.676 -28.9478 185 -78.7221zM527 90.747v-90.747h13h12h154v22h-154v778h-13h-12h-154v-22
h154v-311.031c-51.4505 45.2869 -110.924 71.0311 -186 71.0311c-157 0 -250 -112 -250 -274c0 -160 96 -269 253 -269c80.2666 0 136.175 35.0148 183 95.747z" />
    <glyph glyph-name="dcroat" unicode="&#x111;" horiz-adv-x="716" 
d="M527 657v-190.031c-51.4505 45.2869 -110.924 71.0311 -186 71.0311c-157 0 -250 -112 -250 -274c0 -160 96 -269 253 -269c80.2666 0 136.175 35.0148 183 95.747v-90.747h13h12h154v22h-154v635h99v24h-99v119h-13h-12h-154v-22h154v-97h-191v-24h191zM527 437.278
v-310.5c-47.7598 -67.7748 -101.879 -109.778 -184 -109.778c-142 0 -228 101 -228 248c0 148 85 251 227 251c74.4076 0 136.676 -28.9478 185 -78.7221z" />
    <glyph glyph-name="degree" unicode="&#xb0;" horiz-adv-x="550" 
d="M107 433c0 -125 51 -216 167 -216s168 90 168 214c0 120 -54 207 -168 207c-113 0 -167 -86 -167 -205zM130 433c0 106 42 184 142 184c101 0 148 -78 148 -186c0 -111 -42 -193 -145 -193c-104 0 -145 84 -145 195z" />
    <glyph glyph-name="deltamath" horiz-adv-x="853" 
d="M48 0h755v24l-356 786h-3h-24h-3l-369 -786v-24zM431.785 783.981l344.215 -759.981h-701z" />
    <glyph glyph-name="dieresis" unicode="&#xa8;" horiz-adv-x="464" 
d="M203 669h33c0 -10 -7 -16 -17 -16s-16 6 -16 16zM203 669h33c0 10 -7 16 -17 16s-16 -6 -16 -16zM80 669h33c0 -10 -7 -16 -17 -16s-16 6 -16 16zM80 669h33c0 10 -7 16 -17 16s-16 -6 -16 -16z" />
    <glyph glyph-name="divide" unicode="&#xf7;" horiz-adv-x="818" 
d="M132 297h554v24h-554v-24zM393 96h28c0 -9 -6 -14 -15 -14c-8 0 -13 6 -13 14zM393 96h28c0 9 -6 14 -15 14c-8 0 -13 -6 -13 -14zM393 512h28c0 9 -6 14 -15 14c-8 0 -13 -6 -13 -14zM393 512h28c0 -10 -6 -14 -15 -14c-8 0 -13 5 -13 14z" />
    <glyph glyph-name="divisionslash" unicode="&#x2215;" horiz-adv-x="469" 
d="M30 -93l437 850h-27l-437 -850h27z" />
    <glyph glyph-name="dollar" unicode="$" horiz-adv-x="611" 
d="M290 682.535c-102.153 -5.08789 -175 -51.8785 -175 -139.535c0 -97 82 -135 183 -178c101 -41 201 -76 201 -168c0 -89 -92 -128 -208 -128c-68.8386 0 -128.785 22.2309 -179 44.8906v105.109h-22v-120c52.3645 -25.7062 115.607 -48.693 188 -50.837v-91.163h24
v91.1527c123.865 2.93589 221 48.3718 221 149.847c0 103 -103 141 -211 187c-95 40 -173 72 -173 158c0 79 73 119 168 119c69.4384 0 118.971 -15.3816 177 -44.4236v-106.576h22v120c-64.2834 33.1157 -117.183 51.0529 -191.038 51.9635
c-0.182779 30.0122 -0.961957 60.0243 -0.961957 90.0365h-24v-90.4654z" />
    <glyph glyph-name="dotaccent" unicode="&#x2d9;" horiz-adv-x="740" 
d="M330 669h34c0 -10 -7 -16 -18 -16c-10 0 -16 6 -16 16zM330 669h34c0 10 -7 16 -18 16c-10 0 -16 -6 -16 -16z" />
    <glyph glyph-name="dotlessi" unicode="&#x131;" horiz-adv-x="386" 
d="M204 511v-489l-153 -2.84217e-14v-22h153h13h13h142v22h-142v511h-13h-13h-153v-22h153z" />
    <glyph glyph-name="e" unicode="e" horiz-adv-x="616" 
d="M494 295h-368.81c3.68254 134.082 61.166 221 187.81 221c124 0 181 -81 181 -211v-10zM125.056 273h392.944v30c0 145 -66 235 -203 235c-147 0 -214 -100 -214 -257c0 -174 75 -286 239 -286c74 0 121 27 176 80l-16 15c-50 -47 -92 -73 -160 -73
c-146.487 0 -212.75 101.487 -214.944 256z" />
    <glyph glyph-name="eacute" unicode="&#xe9;" horiz-adv-x="616" 
d="M256 659c56 55 112 110 169 166h-33c-57 -55 -113 -111 -169 -166h33zM494 295h-368.81c3.68254 134.082 61.166 221 187.81 221c124 0 181 -81 181 -211v-10zM125.056 273h392.944v30c0 145 -66 235 -203 235c-147 0 -214 -100 -214 -257c0 -174 75 -286 239 -286
c74 0 121 27 176 80l-16 15c-50 -47 -92 -73 -160 -73c-146.487 0 -212.75 101.487 -214.944 256z" />
    <glyph glyph-name="ecaron" unicode="&#x11b;" horiz-adv-x="616" 
d="M127 823c56 -55 112 -111 169 -166h6h27h5c57 55 113 111 170 166h-33c-51.5397 -50.6194 -103.927 -102.086 -155.601 -152.84c-52.3193 50.7543 -103.859 102.221 -155.399 152.84h-33zM494 295h-368.81c3.68254 134.082 61.166 221 187.81 221c124 0 181 -81 181 -211
v-10zM125.056 273h392.944v30c0 145 -66 235 -203 235c-147 0 -214 -100 -214 -257c0 -174 75 -286 239 -286c74 0 121 27 176 80l-16 15c-50 -47 -92 -73 -160 -73c-146.487 0 -212.75 101.487 -214.944 256z" />
    <glyph glyph-name="ecircumflex" unicode="&#xea;" horiz-adv-x="616" 
d="M504 658c-57 55 -113 111 -170 166h-5h-27h-6c-57 -55 -113 -111 -169 -166h33c51.5397 50.6194 103.079 101.239 155.399 152.638c51.6747 -51.399 104.061 -102.018 155.601 -152.638h33zM494 295h-368.81c3.68254 134.082 61.166 221 187.81 221
c124 0 181 -81 181 -211v-10zM125.056 273h392.944v30c0 145 -66 235 -203 235c-147 0 -214 -100 -214 -257c0 -174 75 -286 239 -286c74 0 121 27 176 80l-16 15c-50 -47 -92 -73 -160 -73c-146.487 0 -212.75 101.487 -214.944 256z" />
    <glyph glyph-name="edieresis" unicode="&#xeb;" horiz-adv-x="616" 
d="M359 670h34c0 -10 -7 -16 -18 -16c-10 0 -16 6 -16 16zM359 670h34c0 10 -7 16 -18 16c-10 0 -16 -6 -16 -16zM236 670h34c0 -10 -7 -16 -18 -16c-10 0 -16 6 -16 16zM236 670h34c0 10 -7 16 -18 16c-10 0 -16 -6 -16 -16zM494 295h-368.81
c3.68254 134.082 61.166 221 187.81 221c124 0 181 -81 181 -211v-10zM125.056 273h392.944v30c0 145 -66 235 -203 235c-147 0 -214 -100 -214 -257c0 -174 75 -286 239 -286c74 0 121 27 176 80l-16 15c-50 -47 -92 -73 -160 -73c-146.487 0 -212.75 101.487 -214.944 256
z" />
    <glyph glyph-name="edotaccent" unicode="&#x117;" horiz-adv-x="616" 
d="M297 671h33c0 -10 -7 -16 -17 -16s-16 6 -16 16zM297 671h33c0 10 -7 16 -17 16s-16 -7 -16 -16zM494 295h-368.81c3.68254 134.082 61.166 221 187.81 221c124 0 181 -81 181 -211v-10zM125.056 273h392.944v30c0 145 -66 235 -203 235c-147 0 -214 -100 -214 -257
c0 -174 75 -286 239 -286c74 0 121 27 176 80l-16 15c-50 -47 -92 -73 -160 -73c-146.487 0 -212.75 101.487 -214.944 256z" />
    <glyph glyph-name="egrave" unicode="&#xe8;" horiz-adv-x="616" 
d="M390 658c-57 55 -113 111 -170 166h-32c56 -55 113 -111 169 -166h33zM494 295h-368.81c3.68254 134.082 61.166 221 187.81 221c124 0 181 -81 181 -211v-10zM125.056 273h392.944v30c0 145 -66 235 -203 235c-147 0 -214 -100 -214 -257c0 -174 75 -286 239 -286
c74 0 121 27 176 80l-16 15c-50 -47 -92 -73 -160 -73c-146.487 0 -212.75 101.487 -214.944 256z" />
    <glyph glyph-name="eight" unicode="8" horiz-adv-x="617" 
d="M309.716 391.159c-91.3211 45.5953 -166.716 75.7613 -166.716 172.841c0 93 64 140 163 140c104 0 168 -44 168 -142c0 -94.9551 -74.1672 -127.948 -164.284 -170.841zM335.294 378.082c90.1654 46.9946 162.706 81.3976 162.706 183.918c0 113 -72 165 -191 165
c-115 0 -188 -54 -188 -163c0 -104.367 71.6093 -140.662 164.122 -186.189c-103.547 -52.9403 -184.122 -91.4836 -184.122 -208.811c0 -118 80 -174 207 -174s212 53 212 174c0 115.54 -80.7216 156.637 -182.706 209.082zM309.53 364.746
c102.046 -50.7943 183.47 -88.7119 183.47 -195.746c0 -105 -74 -150 -186 -150s-183 46 -183 150c0 110.003 82.4463 144.193 185.53 195.746z" />
    <glyph glyph-name="ellipsis" unicode="&#x2026;" horiz-adv-x="667" 
d="M315 12h34c0 -10 -7 -16 -18 -16c-10 0 -16 6 -16 16zM315 12h34c0 10 -7 16 -18 16c-10 0 -16 -6 -16 -16zM508 12h33c0 -10 -7 -16 -17 -16s-16 6 -16 16zM508 12h33c0 10 -7 16 -17 16s-16 -6 -16 -16zM126 12h34c0 -10 -7 -16 -18 -16c-10 0 -16 6 -16 16zM126 12h34
c0 10 -7 16 -18 16c-10 0 -16 -6 -16 -16z" />
    <glyph glyph-name="emacron" unicode="&#x113;" horiz-adv-x="616" 
d="M424 681h-230v-21h230v21zM494 295h-368.81c3.68254 134.082 61.166 221 187.81 221c124 0 181 -81 181 -211v-10zM125.056 273h392.944v30c0 145 -66 235 -203 235c-147 0 -214 -100 -214 -257c0 -174 75 -286 239 -286c74 0 121 27 176 80l-16 15
c-50 -47 -92 -73 -160 -73c-146.487 0 -212.75 101.487 -214.944 256z" />
    <glyph glyph-name="emdash" unicode="&#x2014;" horiz-adv-x="942" 
d="M129 260h684v24h-684v-24z" />
    <glyph glyph-name="endash" unicode="&#x2013;" horiz-adv-x="652" 
d="M130 260h392v24h-392v-24z" />
    <glyph glyph-name="eogonek" unicode="&#x119;" horiz-adv-x="616" 
d="M494 295h-368.81c3.68254 134.082 61.166 221 187.81 221c124 0 181 -81 181 -211v-10zM350.239 17.2036c-3.34797 -0.135486 -6.75947 -0.203565 -10.239 -0.203565c-146.487 0 -212.75 101.487 -214.944 256h392.944v30c0 145 -66 235 -203 235
c-147 0 -214 -100 -214 -257c0 -161.793 64.8459 -269.98 205.793 -284.364c-35.9856 -20.242 -60.7932 -46.2604 -60.7932 -90.6364c0 -57 35 -95 92 -95c33 0 54 13 81 30c-7 11 -4 4 -12 15c-23 -14 -40 -23 -67 -23c-45 0 -72 29 -72 73
c0 47.2795 33.2532 68.6955 75.6209 89.0218c71.9236 0.871218 118.282 27.8478 172.379 79.9782l-16 15c-45.3877 -42.6644 -84.1832 -68.0245 -141.819 -72.3402c-0.344661 0.674815 -0.73512 1.44777 -1.18133 2.34018
c-2.26955 -0.930143 -4.52387 -1.86167 -6.76095 -2.79643z" />
    <glyph glyph-name="equal" unicode="=" horiz-adv-x="909" 
d="M132 428h645v23h-645v-23zM132 206h645v23h-645v-23z" />
    <glyph glyph-name="estimated" unicode="&#x212e;" horiz-adv-x="727" 
d="M681 378.899c1.13503 1.3669 2.29777 2.73381 3.29904 4.10071h0.70096l-0.0831372 0.876139c0.0278983 0.0412871 0.0556125 0.0825742 0.0831372 0.123861c2 3 3 7 5 10h-6.0438l-11.9562 126l-16.2348 26.3816c-12.6593 31.8772 -29.9292 59.8628 -51.4628 83.6271
l-4.30231 6.99125v-2.359c-55.0894 57.87 -136.548 89.359 -239 89.359c-99.2111 0 -178.693 -32.7958 -233 -93.1997v2.19969l-4.29443 -7.09515c-46.0108 -53.7563 -72.9087 -128.247 -77.1216 -220.071l-5.58395 -23.834l6.01208 -37.3795
c2.16394 -37.139 7.77811 -71.7142 16.6518 -103.531l0.336081 -2.08955l0.609508 -1.24759c12.6709 -44.022 31.6456 -82.685 56.4096 -115.463l6.98092 -14.2891v5.39274c62.3122 -76.4673 158.054 -118.393 280 -118.393c90 0 196 40 275 108c-10 10 -4 0 -16 13
c-69 -61 -172 -99 -259 -99c-122.142 0 -218.251 40.8656 -280 115.602l-2.84217e-14 239.398h553v6.89929zM600 616.577v-222.577h-472v217.437c53.6202 58.6374 132.966 90.5635 232 90.5635c103.147 0 185.127 -30.1237 240 -85.4229zM52.8347 432.514
c3.62429 32.4456 10.6841 62.3178 20.9494 89.4181z" />
    <glyph glyph-name="eth" unicode="&#xf0;" horiz-adv-x="635" 
d="M510.382 278.428c-12.1076 159.044 -91.5978 271.216 -218.67 346.285l-112.712 -112.712l-16 17c35.9216 35.9216 71.6255 71.8432 107.315 107.765c-54.8985 29.4802 -117.809 52.659 -187.315 70.2352l7 23c74.0538 -18.2412 140.843 -42.857 198.835 -74.5941
c34.6403 34.8647 69.3 69.7294 104.165 104.594l17 -17l-99.8317 -99.8317c142.097 -85.4325 225.832 -217.705 225.832 -409.168c0 -152 -86 -246 -237 -246c-131 0 -207 78 -207 208s78 206 209 206c99.176 0 166.737 -43.8299 209.382 -123.572zM511.991 232.476
c-41.9237 86.4731 -103.407 146.524 -208.991 146.524c-118 0 -187 -67 -187 -184c0 -114 69 -183 182 -183c135.157 0 213.031 85.9245 213.991 220.476z" />
    <glyph glyph-name="exclam" unicode="!" horiz-adv-x="304" 
d="M165 229v493h-24v-493h24zM137 19h33c0 -10 -7 -16 -17 -16s-16 6 -16 16zM137 19h33c0 10 -7 16 -17 16s-16 -6 -16 -16z" />
    <glyph glyph-name="exclamdown" unicode="&#xa1;" horiz-adv-x="304" 
d="M139 493v-493h24v493h-24zM167 703h-33c0 10 7 16 17 16s16 -6 16 -16zM167 703h-33c0 -10 7 -16 17 -16s16 7 16 16z" />
    <glyph glyph-name="f" unicode="f" horiz-adv-x="510" 
d="M260 509v131c0 87 46 144 129 144c30.5374 0 60.3135 -9.135 88 -20.7631v-108.237h21v120c-34 16 -72 30 -109 30c-97 0 -153 -65 -153 -165v-131h-178v-22h178v-465h-153v-22h153h12h12h154v22h-154v465h220v22h-220z" />
    <glyph glyph-name="fi" unicode="&#xfb01;" horiz-adv-x="681" 
d="M233 0h14h97v22h-97v490h241v-490h-100v-22h100h14h10h144v22h-144v511v1l-1.09091 -1h-263.909v61c0 107 52 185 172 185c25 0 47 -3 68 -10v-85h24v101c-33 11 -58 16 -93 16c-132 0 -196 -87 -195 -207v-61h-178v-21h178v-490h-156v-22h156h10z" />
    <glyph glyph-name="five" unicode="5" horiz-adv-x="580" 
d="M158 421.631v278.369h313v22h-336v-313v-6l23 -7c25 13 79 27 118 27c119 0 191 -81 191 -199c0 -120 -82 -204 -202 -204c-64 0 -110 16 -168 45l-13 -21c57 -31 112 -49 180 -49c136 0 227 93 227 229c0 131 -82 222 -214 222
c-39.7034 0 -85.7121 -9.45814 -119 -24.3689z" />
    <glyph glyph-name="fl" unicode="&#xfb02;" horiz-adv-x="868" 
d="M308 0h10h129v22h-129v490h300v-490h-127v-22h127h19h4h195v22h-195v763c-43 11 -76 15 -120 15c-134 0 -227 -77 -226 -206v-61h-239v-21h239v-490h-186v-22h186h13zM318 533v61c0 116 83 185 204 185c34 0 63 -1 96 -10v-236h-300z" />
    <glyph glyph-name="florin" unicode="&#x192;" horiz-adv-x="447" 
d="M444 828c-10.5133 2.05137 -20.5827 3.05071 -30.1872 3.05071c-65.3077 0 -109.121 -46.205 -124.813 -122.051l-32.4491 -163h-116.551v-21h112.37l-92.3704 -464c-13.0624 -65.3122 -48.1168 -107.874 -104.503 -107.874
c-8.36381 0 -17.197 0.936456 -26.4973 2.87403l-4 -21c10.5847 -2.01613 20.7407 -3.00019 30.4439 -3.00019c67.3017 0 112.824 47.3409 128.556 126c30.911 155.274 61.8219 311.064 92.7329 467h128.267v21h-124.104c10.7015 53.9897 21.403 107.995 32.1044 162
c13.0826 63.6686 47.4643 101.474 101.818 101.474c7.96628 0 16.3616 -0.812084 25.1817 -2.47385z" />
    <glyph glyph-name="four" unicode="4" horiz-adv-x="675" 
d="M385 265v-243h-155v-22h165h166v22h-152v243h188v23h-188v434h-24c-336 -434 -337 -434 -337 -434l14 -23h323zM385 288h-305.43l305.43 399.819v-399.819z" />
    <glyph glyph-name="foursuperior" unicode="&#x2074;" horiz-adv-x="589" 
d="M334 288h149v21h-137v98h111v20h-111v286v9h-23l-243 -295l13 -20h230v-98h-137v-21h148zM323 685.182v-258.182h-213.464z" />
    <glyph glyph-name="fraction" unicode="&#x2044;" horiz-adv-x="546" 
d="M30 -93l437 850h-27l-437 -850h27z" />
    <glyph glyph-name="g" unicode="g" horiz-adv-x="618" 
d="M193.697 6.79242c29.4593 -10.9513 64.9155 -16.7089 102.303 -19.7924c118 -10 229 -27 229 -131c0 -103 -105 -139 -227 -139c-115 0 -208 47 -208 149c0 68.3493 41.7027 112.604 103.697 140.792zM172.274 16.2901
c-64.5675 -31.7649 -106.274 -77.4833 -106.274 -151.29c0 -118 103 -169 231 -169c136 0 252 39 250 162c0 117 -117 139 -247 150c-85 6 -161 26 -161 104c0 44.6291 22.5414 73.93 59.9186 98.1769c28.3526 -13.8755 62.3328 -21.1769 100.081 -21.1769
c113 0 192 64 192 173c0 41.0415 -10.7747 76.1285 -30.189 103.927c42.0561 21.1745 84.0406 43.0421 125.189 64.0734l-13 20c-41.4146 -22.0878 -83.6761 -44.1755 -126.005 -67.0428c-33.1843 35.3692 -83.3042 55.0428 -143.995 55.0428c-115 0 -192 -69 -192 -181
c0 -61.5574 26.3053 -108.276 69.9069 -136.63c-40.1515 -26.8911 -65.9069 -61.2377 -65.9069 -111.37c0 -45.3788 22.3367 -74.271 57.2745 -92.7099zM135 358c0 96 68 159 168 159c99 0 164 -60 164 -156c0 -92 -67 -151 -166 -151c-96 0 -166 55 -166 148z" />
    <glyph glyph-name="gbreve" unicode="&#x11f;" horiz-adv-x="618" 
d="M421 782c0 -68 -47 -102 -118 -102c-69 0 -113 37 -113 103h-22c0 -81 50 -124 133 -124c87 0 143 41 143 123h-23zM193.697 6.79242c29.4593 -10.9513 64.9155 -16.7089 102.303 -19.7924c118 -10 229 -27 229 -131c0 -103 -105 -139 -227 -139c-115 0 -208 47 -208 149
c0 68.3493 41.7027 112.604 103.697 140.792zM172.274 16.2901c-64.5675 -31.7649 -106.274 -77.4833 -106.274 -151.29c0 -118 103 -169 231 -169c136 0 252 39 250 162c0 117 -117 139 -247 150c-85 6 -161 26 -161 104c0 44.6291 22.5414 73.93 59.9186 98.1769
c28.3526 -13.8755 62.3328 -21.1769 100.081 -21.1769c113 0 192 64 192 173c0 41.0415 -10.7747 76.1285 -30.189 103.927c42.0561 21.1745 84.0406 43.0421 125.189 64.0734l-13 20c-41.4146 -22.0878 -83.6761 -44.1755 -126.005 -67.0428
c-33.1843 35.3692 -83.3042 55.0428 -143.995 55.0428c-115 0 -192 -69 -192 -181c0 -61.5574 26.3053 -108.276 69.9069 -136.63c-40.1515 -26.8911 -65.9069 -61.2377 -65.9069 -111.37c0 -45.3788 22.3367 -74.271 57.2745 -92.7099zM135 358c0 96 68 159 168 159
c99 0 164 -60 164 -156c0 -92 -67 -151 -166 -151c-96 0 -166 55 -166 148z" />
    <glyph glyph-name="gcommaaccent" unicode="&#x123;" horiz-adv-x="618" 
d="M362 768l-110 -173h32l103 173h-25zM193.697 6.79242c29.4593 -10.9513 64.9155 -16.7089 102.303 -19.7924c118 -10 229 -27 229 -131c0 -103 -105 -139 -227 -139c-115 0 -208 47 -208 149c0 68.3493 41.7027 112.604 103.697 140.792zM172.274 16.2901
c-64.5675 -31.7649 -106.274 -77.4833 -106.274 -151.29c0 -118 103 -169 231 -169c136 0 252 39 250 162c0 117 -117 139 -247 150c-85 6 -161 26 -161 104c0 44.6291 22.5414 73.93 59.9186 98.1769c28.3526 -13.8755 62.3328 -21.1769 100.081 -21.1769
c113 0 192 64 192 173c0 41.0415 -10.7747 76.1285 -30.189 103.927c42.0561 21.1745 84.0406 43.0421 125.189 64.0734l-13 20c-41.4146 -22.0878 -83.6761 -44.1755 -126.005 -67.0428c-33.1843 35.3692 -83.3042 55.0428 -143.995 55.0428c-115 0 -192 -69 -192 -181
c0 -61.5574 26.3053 -108.276 69.9069 -136.63c-40.1515 -26.8911 -65.9069 -61.2377 -65.9069 -111.37c0 -45.3788 22.3367 -74.271 57.2745 -92.7099zM135 358c0 96 68 159 168 159c99 0 164 -60 164 -156c0 -92 -67 -151 -166 -151c-96 0 -166 55 -166 148z" />
    <glyph glyph-name="germandbls" unicode="&#xdf;" horiz-adv-x="656" 
d="M433 87c91 22 147 81 147 186c0 105.627 -62.4135 169.645 -165.223 190.481c79.7217 20.6203 131.223 75.0121 131.223 164.519c0 115 -77 177 -195 177c-116 0 -187 -71 -187 -186v-597h-153v-22h153h12h11h155v22h-155v597c0 101 62 164 162 164
c103 0 174 -54 174 -156c0 -100 -80 -156 -189 -156v-17c118 0 223 -57 223 -182c0 -91 -56 -142 -131 -164z" />
    <glyph glyph-name="grave" unicode="`" horiz-adv-x="577" 
d="M290 591c-57 55 -113 111 -170 166h-32c56 -55 112 -111 169 -166h33z" />
    <glyph glyph-name="greater" unicode="&#x3e;" horiz-adv-x="781" 
d="M691.694 305.752l-595.694 -257.752v-24l624 270v24c-212 88 -423 176 -635 264v-24c202.563 -84.0826 404.212 -168.165 606.694 -252.248z" />
    <glyph glyph-name="greaterequal" unicode="&#x2265;" 
d="M756 0h-635v22h635v-22zM121 678c212 -88 424 -175 635 -263v-2v-23v-2c-211 -88 -423 -176 -635 -263v24c202.765 84.1667 405.53 168.333 607.42 252.5c-201.89 84.1648 -404.655 168.29 -607.42 251.5v25z" />
    <glyph glyph-name="guillemotleft" unicode="&#xab;" horiz-adv-x="648" 
d="M113 265l214 -118v23l-192.876 106.352l192.876 103.648v24l-214 -116v-23zM321 265l214 -118v23l-192.966 106.402l192.966 104.598v23l-214 -116v-23z" />
    <glyph glyph-name="guillemotright" unicode="&#xbb;" horiz-adv-x="648" 
d="M505 265l-214 -118v23l192.876 106.352l-192.876 103.648v24l214 -116v-23zM297 265l-214 -118v23l192.966 106.402l-192.966 104.598v23l214 -116v-23z" />
    <glyph glyph-name="guilsinglleft" unicode="&#x2039;" horiz-adv-x="520" 
d="M147.349 276.511c103.37 36.8362 103.289 59.3981 229.651 98.4886v24c-139 -44 -125 -67 -264 -111v-23c139 -44 125 -66 265 -110v23c-127.272 39.9996 -230.651 61.8178 -230.651 98.5114z" />
    <glyph glyph-name="guilsinglright" unicode="&#x203a;" horiz-adv-x="520" 
d="M373.639 276.515c-103.367 36.8339 -103.372 59.3956 -230.639 98.4847v24c140 -44 126 -67 265 -111v-23c-139 -44 -126 -66 -265 -110v23c126.367 40.001 127.107 61.8193 230.639 98.5153z" />
    <glyph glyph-name="h" unicode="h" horiz-adv-x="728" 
d="M188 407.057v392.943h-12h-12h-153v-22h153v-756h-153v-22h153h12h12h134v22h-134v343.797c37.8282 84.4132 112.233 150.203 204 150.203c105 0 154 -66 154 -175v-319h-135v-22h135h11h13h152v22h-152v322c0 122 -57 194 -175 194
c-89.7438 0 -167.069 -52.5972 -207 -130.943z" />
    <glyph glyph-name="hungarumlaut" unicode="&#x2dd;" horiz-adv-x="539" 
d="M289 682l110 174h-32l-103 -174h25zM159 682l110 174h-32l-103 -174h25z" />
    <glyph glyph-name="hyphen" unicode="-" horiz-adv-x="558" 
d="M130 260h298v24h-298v-24z" />
    <glyph glyph-name="i" unicode="i" horiz-adv-x="386" 
d="M202 670h29c0 -9 -7 -13 -15 -13c-9 0 -14 5 -14 13zM202 670h29c0 9 -7 14 -15 14c-9 0 -14 -6 -14 -14zM204 511v-489l-153 -2.84217e-14v-22h153h13h13h142v22h-142v511h-13h-13h-153v-22h153z" />
    <glyph glyph-name="iacute" unicode="&#xed;" horiz-adv-x="386" 
d="M157 657c57 55 113 110 169 166h-32c-57 -55 -113 -111 -169 -166h32zM204 511v-489l-153 -2.84217e-14v-22h153h13h13h142v22h-142v511h-13h-13h-153v-22h153z" />
    <glyph glyph-name="icircumflex" unicode="&#xee;" horiz-adv-x="432" 
d="M429 656c-57 55 -113 111 -170 166h-5h-27h-6c-57 -55 -113 -111 -169 -166h32c52.4572 50.6166 104.068 101.233 156.39 152.629c51.5428 -51.3961 103.153 -102.013 155.61 -152.629h33zM227 511v-489l-153 -2.84217e-14v-22h153h13h13h142v22h-142v511h-13h-13h-153
v-22h153z" />
    <glyph glyph-name="idieresis" unicode="&#xef;" horiz-adv-x="386" 
d="M261 668h34c0 -10 -7 -16 -18 -16c-10 0 -16 6 -16 16zM261 668h34c0 10 -7 16 -18 16c-10 0 -16 -6 -16 -16zM138 668h34c0 -10 -7 -16 -18 -16c-10 0 -16 6 -16 16zM138 668h34c0 10 -7 16 -18 16c-10 0 -16 -6 -16 -16zM204 511v-489l-153 -2.84217e-14v-22h153h13h13
h142v22h-142v511h-13h-13h-153v-22h153z" />
    <glyph glyph-name="igrave" unicode="&#xec;" horiz-adv-x="386" 
d="M292 656c-57 55 -113 111 -170 166h-32c56 -55 112 -111 169 -166h33zM204 511v-489l-153 -2.84217e-14v-22h153h13h13h142v22h-142v511h-13h-13h-153v-22h153z" />
    <glyph glyph-name="imacron" unicode="&#x12b;" horiz-adv-x="386" 
d="M326 679h-231v-21h231v21zM204 511v-489l-153 -2.84217e-14v-22h153h13h13h142v22h-142v511h-13h-13h-153v-22h153z" />
    <glyph glyph-name="infinity" unicode="&#x221e;" horiz-adv-x="959" 
d="M458.982 408.715c-41.8191 -75.7351 -86.6249 -152.715 -168.982 -152.715c-86 0 -152 63 -152 149c0 84 69 143 154 143c76.3199 0 128.374 -66.2644 166.982 -139.285zM471.448 431.192c-42.5961 73.8154 -96.1197 137.808 -179.448 137.808c-99 0 -178 -67 -178 -164
c0 -99 76 -171 176 -171c86.421 0 138.429 73.2388 181.718 150.919c43.7817 -78.7375 100.302 -148.919 189.282 -148.919c102 0 184 68 184 168c0 98 -83 164 -184 164c-86.2606 0 -146.148 -61.5386 -189.552 -136.808zM484.257 408.136
c39.8246 74.5988 96.6417 138.864 176.743 138.864c86 0 161 -57 161 -143c0 -87 -73 -147 -161 -147c-84.1472 0 -134.617 73.904 -176.743 151.136z" />
    <glyph glyph-name="integral" unicode="&#x222b;" horiz-adv-x="453" 
d="M436 828c-10.866 2.25271 -21.258 3.3465 -31.1548 3.3465c-64.7894 0 -108.363 -46.8751 -124.845 -122.346c-42 -216 -85 -432 -128 -648c-13.2133 -66.0666 -50.4815 -107.302 -107.02 -107.302c-7.64498 0 -15.6423 0.753947 -23.9801 2.3024l-4 -22
c10.0602 -1.79647 19.7189 -2.67495 28.9604 -2.67495c67.9225 0 113.315 47.4538 130.04 126.675c43 217 86 433 129 650c13.0826 63.6686 50.507 101.474 102.985 101.474c7.69134 0 15.706 -0.812084 24.0149 -2.47385z" />
    <glyph glyph-name="iogonek" unicode="&#x12f;" horiz-adv-x="386" 
d="M202 670h29c0 -9 -7 -13 -15 -13c-9 0 -14 5 -14 13zM202 670h29c0 9 -7 14 -15 14c-9 0 -14 -6 -14 -14zM204 511v-489l-153 -2.84217e-14v-22l119.442 1.77636e-15c-36.3358 -20.2942 -61.4419 -46.3578 -61.4419 -91c0 -57 36 -95 93 -95c32 0 54 13 81 30
c-8 11 -4 4 -12 15c-23 -14 -41 -23 -67 -23c-45 0 -72 29 -72 73c0 48.8153 35.4487 70.0595 79.7776 91l5.22238 7.10543e-15h13h142v22h-142v511h-13h-13h-153v-22h153z" />
    <glyph glyph-name="j" unicode="j" horiz-adv-x="354" 
d="M15 -301c8 -1 19 -3 31 -3c96 0 162 64 162 162v675h-13h-11h-155v-22h155v-653c0 -81 -57 -138 -138 -138c-9 0 -21 1 -27 2c-3 -21 0 -2 -4 -23zM183 670h28c0 -9 -5 -13 -15 -13c-8 0 -13 5 -13 13zM183 670h28c0 9 -5 14 -15 14c-8 0 -13 -6 -13 -14z" />
    <glyph glyph-name="k" unicode="k" horiz-adv-x="737" 
d="M214 275c108.853 78.6667 218.542 157.333 328.303 236h146.697v22h-116h-36h-1h-155v-22h124.302l-316.302 -226.683v515.683h-11h-13h-153v-22h153v-756h-154v-22h154h11h13h140v22h-140v243.727c124.538 -88.8452 247.302 -176.819 371 -265.727h4h36h129v22h-159.873
c-118.703 84.5255 -237.339 168.339 -355.127 253z" />
    <glyph glyph-name="kcommaaccent" unicode="&#x137;" horiz-adv-x="737" 
d="M333 -282l110 174h-32l-103 -174h25zM214 275c108.853 78.6667 218.542 157.333 328.303 236h146.697v22h-116h-36h-1h-155v-22h124.302l-316.302 -226.683v515.683h-11h-13h-153v-22h153v-756h-154v-22h154h11h13h140v22h-140v243.727
c124.538 -88.8452 247.302 -176.819 371 -265.727h4h36h129v22h-159.873c-118.703 84.5255 -237.339 168.339 -355.127 253z" />
    <glyph glyph-name="l" unicode="l" horiz-adv-x="354" 
d="M189 22v778h-9h-15h-151v-22h151v-756h-153v-22h153h13h11h155v22h-155z" />
    <glyph glyph-name="lacute" unicode="&#x13a;" horiz-adv-x="354" 
d="M107 891c57 55 113 110 169 166h-32c-57 -55 -113 -111 -169 -166h32zM189 22v778h-9h-15h-151v-22h151v-756h-153v-22h153h13h11h155v22h-155z" />
    <glyph glyph-name="lcaron" unicode="&#x13e;" horiz-adv-x="413" 
d="M293 646l111 174h-32l-104 -174h25zM189 22v778h-9h-15h-151v-22h151v-756h-153v-22h153h13h11h155v22h-155z" />
    <glyph glyph-name="lcommaaccent" unicode="&#x13c;" horiz-adv-x="354" 
d="M121 -282l111 174h-32l-104 -174h25zM189 22v778h-9h-15h-151v-22h151v-756h-153v-22h153h13h11h155v22h-155z" />
    <glyph glyph-name="less" unicode="&#x3c;" horiz-adv-x="783" 
d="M89.2463 300.222l595.754 257.778v24l-624 -270v-24c211 -88 423 -176 634 -264v24c-201.586 84.074 -404.086 168.148 -605.754 252.222z" />
    <glyph glyph-name="lessequal" unicode="&#x2264;" 
d="M108 0h634v22h-634v-22zM742 678c-211 -88 -423 -175 -634 -263v-2v-23v-2c211 -88 423 -176 634 -263v24c-201.809 84.1667 -404.532 168.333 -606.421 252.5c201.888 84.1648 404.612 168.29 606.421 251.5v25z" />
    <glyph glyph-name="litre" horiz-adv-x="407" 
d="M214 22v778h-9h-15h-150v-22h150v-756h-152v-22h152h13h11h155v22h-155z" />
    <glyph glyph-name="logicalnot" unicode="&#xac;" horiz-adv-x="826" 
d="M670 321h-505v-24h505v-144h24v144v24h-24z" />
    <glyph glyph-name="logo" horiz-adv-x="1940" 
d="M1455 58c67 -41 131 -64 210 -64c132 0 223 52 223 175c0 118 -93 159 -202 213c-96 46 -181 79 -181 181c0 92 69 142 167 142c68.4509 0 121.954 -23.7397 177 -53.9056v-108.094h22v120c-67 39 -120 63 -198 63c-113 0 -193 -57 -193 -164c0 -112 89 -149 191 -199
c103 -49 193 -87 193 -194c0 -105 -82 -151 -198 -151c-70.5218 0 -128.329 20.8887 -189 54.8764v105.124h-22v-120zM910 722h-11h-14h-151v-22h151v-678h-151v-22h151h14h11h183c221 0 334 130 334 353c0 234 -117 369 -347 369h-170zM910 700h169
c216 0 324 -128 324 -347c0 -209 -102 -331 -307 -331h-186v678zM363 698v-676h-155v-22h155h11h13h153v22h-153v676h284v-108h22v108v12v12h-636v-12v-12v-108h22v108h284z" />
    <glyph glyph-name="lozenge" unicode="&#x25ca;" horiz-adv-x="538" 
d="M256 122h-1c-59 115 -119 229 -178 344h24c55.9712 107.278 111.942 213.686 167.102 320.847c54.7163 -104.649 113.974 -217.515 168.898 -320.847h24c-58 -111 -122 -233 -180 -344h-1h-24zM268.102 145.153c54.7163 104.649 113.974 217.515 168.898 320.847h24
c-58 111 -122 233 -180 344h-1h-24h-1c-59 -115 -119 -229 -178 -344h24c55.9712 -107.278 111.942 -213.686 167.102 -320.847z" />
    <glyph glyph-name="lslash" unicode="&#x142;" horiz-adv-x="364" 
d="M195 22v390.07c45.7485 38.3917 91.4799 76.7664 137 114.93v28c-45.5201 -38.6231 -91.2515 -77.0347 -137 -115.332v360.332h-9h-15h-150v-22h150v-358.413c-45.7485 -38.2605 -91.4799 -76.4238 -137 -114.587v-28c45.5201 38.1633 91.2515 76.538 137 114.93v-369.93
h-152v-22h152h13h11h155v22h-155z" />
    <glyph glyph-name="m" unicode="m" horiz-adv-x="1070" 
d="M229 410.274v122.726h-12h-12h-154v-22h154v-489l-154 -2.84217e-14v-22h154h12h12h123v22h-123v344.424c36.2943 86.7409 93.1442 150.576 181 150.576c104 0 135 -64 135 -176v-319h-123v-22h123h12h12h123v22h-123v322c0 7.29894 -0.128197 14.4142 -0.393361 21.3422
c36.4269 86.4286 95.17 151.658 182.393 151.658c104 0 134 -64 134 -176v-319h-121v-22h121h14h11h154v22h-154v322c0 124 -38 194 -155 194c-89.935 0 -153.948 -54.1304 -189.377 -135.763c-11.4124 87.7324 -53.3944 136.763 -150.623 136.763
c-87.9438 0 -150.145 -50.7694 -186 -128.726z" />
    <glyph glyph-name="macron" unicode="&#xaf;" horiz-adv-x="423" 
d="M263 680h-230v-21h230v21z" />
    <glyph glyph-name="macronmod" horiz-adv-x="396" 
d="M313 680h-231v-21h231v21z" />
    <glyph glyph-name="minus" unicode="&#x2212;" horiz-adv-x="818" 
d="M132 297h554v24h-554v-24z" />
    <glyph glyph-name="multiply" unicode="&#xd7;" horiz-adv-x="646" 
d="M323 326l-187 187l-17 -17l187 -187l-187 -187l17 -17l187 187l187 -187l17 17l-187 187l187 187l-17 17z" />
    <glyph glyph-name="mumath" horiz-adv-x="797" 
d="M573 154.643c-38.9149 -69.5307 -108.759 -137.643 -187 -137.643c-108 0 -163 61 -163 170v346h-1h-11h-12h-154v-22h154v-326v-485h23v376.784c28.284 -53.5182 82.4073 -81.7844 161 -81.7844c79.3117 0 146.987 55.2742 190 121.165v-116.165h12h12h143v22h-143v511
h-12h-12h-153v-22h153v-356.357z" />
    <glyph glyph-name="n" unicode="n" horiz-adv-x="768" 
d="M205 511v-489l-154 -2.84217e-14v-22h154h12h12h130v22h-130v345.293c37.5986 83.3106 113.976 148.707 202 148.707c104 0 155 -66 155 -175v-319h-131v-22h131h11h13h152v22h-152v322c0 121 -57 194 -175 194c-88.4326 0 -165.297 -52.0583 -206 -129.738v124.738h-12
h-12h-154v-22h154z" />
    <glyph glyph-name="nacute" unicode="&#x144;" horiz-adv-x="768" 
d="M352 658c56 55 113 110 169 166h-32c-57 -55 -113 -111 -170 -166h33zM205 511v-489l-154 -2.84217e-14v-22h154h12h12h130v22h-130v345.293c37.5986 83.3106 113.976 148.707 202 148.707c104 0 155 -66 155 -175v-319h-131v-22h131h11h13h152v22h-152v322
c0 121 -57 194 -175 194c-88.4326 0 -165.297 -52.0583 -206 -129.738v124.738h-12h-12h-154v-22h154z" />
    <glyph glyph-name="ncaron" unicode="&#x148;" horiz-adv-x="768" 
d="M223 822c57 -55 113 -111 170 -166h5h27h6c57 55 113 111 169 166h-33c-51.5061 -50.5863 -103.858 -102.019 -155.5 -152.741c-51.6419 50.7221 -103.994 102.154 -155.5 152.741h-33zM205 511v-489l-154 -2.84217e-14v-22h154h12h12h130v22h-130v345.293
c37.5986 83.3106 113.976 148.707 202 148.707c104 0 155 -66 155 -175v-319h-131v-22h131h11h13h152v22h-152v322c0 121 -57 194 -175 194c-88.4326 0 -165.297 -52.0583 -206 -129.738v124.738h-12h-12h-154v-22h154z" />
    <glyph glyph-name="ncommaaccent" unicode="&#x146;" horiz-adv-x="768" 
d="M375 -282l110 174h-32l-103 -174h25zM205 511v-489l-154 -2.84217e-14v-22h154h12h12h130v22h-130v345.293c37.5986 83.3106 113.976 148.707 202 148.707c104 0 155 -66 155 -175v-319h-131v-22h131h11h13h152v22h-152v322c0 121 -57 194 -175 194
c-88.4326 0 -165.297 -52.0583 -206 -129.738v124.738h-12h-12h-154v-22h154z" />
    <glyph glyph-name="nine" unicode="9" horiz-adv-x="639" 
d="M520.357 436.238c-17.93 -233.607 -181.323 -366.022 -427.357 -428.238l7 -23c273 67 446 220 446 496c0 152 -85 246 -237 246c-131 0 -207 -78 -207 -208s78 -206 209 -206c98.8995 0 167.075 44.3005 209.357 123.238zM522 480.501
c-41.9728 -85.3851 -104.242 -144.501 -209 -144.501c-117 0 -186 67 -186 184c0 114 68 183 181 183c136.832 0 213.811 -86.7865 214 -222.499z" />
    <glyph glyph-name="notequal" unicode="&#x2260;" horiz-adv-x="876" 
d="M366.615 206l-107.615 -204h26l107.927 204h369.073v23h-356.905l105.281 199h251.624v23h-239.456l108.456 205h-27l-108.142 -205h-378.858v-23h366.725l-104.977 -199l-261.748 2.84217e-14v-23h249.615z" />
    <glyph glyph-name="ntilde" unicode="&#xf1;" horiz-adv-x="768" 
d="M596 781c-14 -54 -29 -103 -75 -103c-40 0 -64 19 -91 49c-29 32 -52 55 -96 55c-65 0 -90 -51 -104 -119l19 -6c13 58 32 104 85 104c36 0 55 -21 79 -48c31 -34 60 -56 106 -56c63 0 81 55 97 120zM205 511v-489l-154 -2.84217e-14v-22h154h12h12h130v22h-130v345.293
c37.5986 83.3106 113.976 148.707 202 148.707c104 0 155 -66 155 -175v-319h-131v-22h131h11h13h152v22h-152v322c0 121 -57 194 -175 194c-88.4326 0 -165.297 -52.0583 -206 -129.738v124.738h-12h-12h-154v-22h154z" />
    <glyph glyph-name="nullsuperior" horiz-adv-x="579" 
d="M117 492c0 -122 56 -208 173 -208s172 87 172 210c0 122 -56 206 -172 206c-117 0 -173 -85 -173 -208zM140 492c0 109 46 186 149 186c0.661509 0.00642242 1.32067 0.00962754 1.97748 0.00962754c101.611 0 147.023 -76.7097 147.023 -185.01
c0 -109 -44 -188 -147 -188c-104 0 -151 77 -151 187z" />
    <glyph glyph-name="numbersign" unicode="#" horiz-adv-x="729" 
d="M573.761 513l68.2387 209h-24l-68.2387 -209h-266.47l67.7086 209h-24l-67.3994 -209h-106.601l-6 -21h105.828l-71.9142 -223h-102.914l-6 -22h101.82l-64.8195 -201h23l65.1169 201h265.795l-67.9122 -208h24l67.9122 208h88.0878l6 22h-86.9048l72.8097 223h83.0952
l5 21h-81.2387zM542.905 492l-72.8097 -223h-265.851l72.2441 223h266.417z" />
    <glyph glyph-name="o" unicode="o" horiz-adv-x="658" 
d="M96 268c0 -163 76 -273 233 -273s233 108 233 271c0 164 -77 272 -235 272c-155 0 -231 -109 -231 -270zM120 268c0 150 68 249 206 249c143 0 212 -100 212 -251c0 -149 -69 -249 -208 -249c-145 0 -210 102 -210 251z" />
    <glyph glyph-name="oacute" unicode="&#xf3;" horiz-adv-x="658" 
d="M269 657c56 55 113 111 169 166h-32c-57 -55 -113 -111 -170 -166h33zM96 268c0 -163 76 -273 233 -273s233 108 233 271c0 164 -77 272 -235 272c-155 0 -231 -109 -231 -270zM120 268c0 150 68 249 206 249c143 0 212 -100 212 -251c0 -149 -69 -249 -208 -249
c-145 0 -210 102 -210 251z" />
    <glyph glyph-name="ocircumflex" unicode="&#xf4;" horiz-adv-x="658" 
d="M517 656c-56 55 -112 111 -169 166h-6h-27h-5c-57 -55 -113 -111 -170 -166h33c51.5061 50.5863 103.858 102.019 155.5 152.741c51.6419 -50.7221 103.994 -102.154 155.5 -152.741h33zM96 268c0 -163 76 -273 233 -273s233 108 233 271c0 164 -77 272 -235 272
c-155 0 -231 -109 -231 -270zM120 268c0 150 68 249 206 249c143 0 212 -100 212 -251c0 -149 -69 -249 -208 -249c-145 0 -210 102 -210 251z" />
    <glyph glyph-name="odieresis" unicode="&#xf6;" horiz-adv-x="658" 
d="M373 669h33c0 -10 -7 -16 -17 -16s-16 6 -16 16zM373 669h33c0 10 -7 16 -17 16s-16 -7 -16 -16zM250 669h33c0 -10 -7 -16 -17 -16s-16 6 -16 16zM250 669h33c0 10 -7 16 -17 16s-16 -7 -16 -16zM96 268c0 -163 76 -273 233 -273s233 108 233 271
c0 164 -77 272 -235 272c-155 0 -231 -109 -231 -270zM120 268c0 150 68 249 206 249c143 0 212 -100 212 -251c0 -149 -69 -249 -208 -249c-145 0 -210 102 -210 251z" />
    <glyph glyph-name="oe" unicode="&#x153;" horiz-adv-x="1055" 
d="M933 295h-368.81c3.68254 134.082 61.166 221 187.81 221c124 0 181 -81 181 -211v-10zM564.056 273h391.944v30c0 145 -65 235 -202 235c-116.035 0 -182.224 -62.3082 -204.96 -165.776c-27.9682 102.799 -101.388 165.776 -222.04 165.776c-155 0 -231 -109 -231 -270
c0 -163 76 -273 233 -273c124.229 0 197.743 67.6189 223.021 176.6c27.093 -110.11 100.618 -176.6 226.979 -176.6c74 0 121 27 176 80l-16 15c-50 -47 -92 -73 -160 -73c-146.487 0 -212.75 101.487 -214.944 256zM120 268c0 150 68 249 206 249c143 0 212 -100 212 -251
c0 -149 -69 -249 -208 -249c-145 0 -210 102 -210 251z" />
    <glyph glyph-name="ogonek" unicode="&#x2db;" horiz-adv-x="354" 
d="M145 14c-60 -25 -110 -51 -110 -114c0 -57 35 -95 92 -95c33 0 54 13 81 30c-7 11 -4 4 -12 15c-23 -14 -41 -23 -67 -23c-45 0 -72 29 -72 73c0 55 45 75 97 99z" />
    <glyph glyph-name="ograve" unicode="&#xf2;" horiz-adv-x="658" 
d="M403 657c-56 55 -112 111 -169 166h-33c56 -56 113 -111 169 -166h33zM96 268c0 -163 76 -273 233 -273s233 108 233 271c0 164 -77 272 -235 272c-155 0 -231 -109 -231 -270zM120 268c0 150 68 249 206 249c143 0 212 -100 212 -251c0 -149 -69 -249 -208 -249
c-145 0 -210 102 -210 251z" />
    <glyph glyph-name="ohungarumlaut" unicode="&#x151;" horiz-adv-x="658" 
d="M375 623l111 173h-32l-104 -173h25zM245 623l111 173h-32l-104 -173h25zM96 268c0 -163 76 -273 233 -273s233 108 233 271c0 164 -77 272 -235 272c-155 0 -231 -109 -231 -270zM120 268c0 150 68 249 206 249c143 0 212 -100 212 -251c0 -149 -69 -249 -208 -249
c-145 0 -210 102 -210 251z" />
    <glyph glyph-name="omacron" unicode="&#x14d;" horiz-adv-x="658" 
d="M437 680h-230v-22h230v22zM96 268c0 -163 76 -273 233 -273s233 108 233 271c0 164 -77 272 -235 272c-155 0 -231 -109 -231 -270zM120 268c0 150 68 249 206 249c143 0 212 -100 212 -251c0 -149 -69 -249 -208 -249c-145 0 -210 102 -210 251z" />
    <glyph glyph-name="omegamath" horiz-adv-x="813" 
d="M587.572 22c96.8083 85.7156 137.428 188.933 137.428 326c0 221 -108 379 -318 379c-212 0 -319 -160 -319 -382c0 -134.917 42.6967 -233.114 135.192 -323l-176.192 -2.84217e-14v-22h200l13 22c-102 89 -148 186 -148 323c0 208 99 360 293 360
c195 0 296 -149 296 -357c0 -140 -47 -240 -155 -326l15 -22h201v22h-174.428z" />
    <glyph glyph-name="one" unicode="1" horiz-adv-x="495" 
d="M275 722l-206 -169l16 -17l190 156.682v-670.682h-151v-22h151h14h10h156v22h-156v700h-24z" />
    <glyph glyph-name="onehalf" unicode="&#xbd;" horiz-adv-x="1074" 
d="M736 223c29 47 63 75 122 75c66 0 109 -34 109 -98c0 -56 -38 -83 -80 -120c-67.997 -50.9978 -133.994 -102.995 -200.991 -153.993c0 0 0.00717297 -0.00666358 0.0127292 -0.00666358h-0.0214844s0.00875522 0.00858874 0.00875522 0.00666358
l-0.00875522 -0.00666358v-21h11h313v116h-22v-95h-264.006c59.2169 45.9841 118.988 91.8687 178.006 137c47 43 87 74 87 138c0 76 -52 119 -130 119c-67 0 -111 -28 -142 -86zM330 -93l437 850h-27l-437 -850h27zM199 762l-136 -111l15 -18l121 99.9931v-356.993h-111
v-21h111h131v21h-107v386h-24z" />
    <glyph glyph-name="onequarter" unicode="&#xbc;" horiz-adv-x="1046" 
d="M328 -93l437 850h-27l-437 -850h27zM857 -100h12h137v21h-137v98l111 7.10543e-15v20h-111v286v9h-23l-243 -295l13 -20h230v-98h-137v-21h137h11zM846 297.182v-258.182h-213.464zM204 762l-136 -111l15 -18l121 100.692v-357.692h-112v-21h111h1h130v21h-107v386h-23z
" />
    <glyph glyph-name="onesuperior" unicode="&#xb9;" horiz-adv-x="490" 
d="M256 695l-136 -111l15 -17l121 99.9931v-356.993h-111v-22h111h131v22h-107v385h-24z" />
    <glyph glyph-name="ordfeminine" unicode="&#xaa;" horiz-adv-x="549" 
d="M346 629.689c-43.292 -5.01869 -75.75 -7.14832 -121 -12.6891c-61 -9 -106 -40 -106 -100c0 -61 44 -93 109 -93c52.3508 0 89.3125 26.7638 118 64.4194v-60.4194h14h11h61v22h-61v231c0 61 -52 85 -118 85c-50 0 -91 -21 -121 -50v-64h21v52.2188
c24.2352 20.7505 56.0668 39.7812 97 39.7812c54 0 96 -19 96 -70v-44.3109zM346 517.58c-26.3087 -39.7354 -61.0478 -71.5799 -113 -71.5799c-53 0 -90 24 -90 73c0 47 34 71 81 78c44.9147 5.49975 78.9067 8.4789 122 13.5583v-92.9784z" />
    <glyph glyph-name="ordmasculine" unicode="&#xba;" horiz-adv-x="533" 
d="M117 603c0 -109 51 -182 154 -182c96 0 145 73 145 180c0 100 -50 166 -147 166c-100 0 -152 -66 -152 -164zM141 603c0 86 43 143 127 143c81 0 123 -59 123 -145c0 -93 -40 -158 -119 -158c-89 0 -131 65 -131 160z" />
    <glyph glyph-name="oslash" unicode="&#xf8;" horiz-adv-x="658" 
d="M96 268c0 -110.015 34.621 -195.886 105.4 -240.088l-49.4004 -95.9119l20 -11l49.3166 96.0377c30.2879 -14.3401 66.1515 -22.0377 107.683 -22.0377c157 0 233 108 233 271c0 104.084 -31.0149 185.612 -94.0673 231.29l46.0673 89.71l-20 9l-44.7012 -86.7884
c-33.274 18.6972 -74.0022 28.7884 -122.299 28.7884c-155 0 -231 -109 -231 -270zM120 268c0 150 68 249 206 249c44.8585 0 82.435 -9.84051 112.884 -28.0089l-226.928 -440.585c-62.8058 41.1079 -91.9562 119.812 -91.9562 219.594zM457.203 476.396
c54.262 -42.7289 80.7968 -116.756 80.7968 -210.396c0 -149 -69 -249 -208 -249c-38.2359 0 -70.9089 7.09261 -98.2941 20.2693z" />
    <glyph glyph-name="otilde" unicode="&#xf5;" horiz-adv-x="658" 
d="M499 781c-13 -54 -28 -103 -75 -103c-39 0 -63 19 -90 49c-30 32 -53 55 -96 55c-65 0 -90 -51 -104 -119l19 -6c13 58 32 104 85 104c36 0 54 -21 79 -48c31 -34 59 -56 105 -56c64 0 81 55 98 120zM96 268c0 -163 76 -273 233 -273s233 108 233 271
c0 164 -77 272 -235 272c-155 0 -231 -109 -231 -270zM120 268c0 150 68 249 206 249c143 0 212 -100 212 -251c0 -149 -69 -249 -208 -249c-145 0 -210 102 -210 251z" />
    <glyph glyph-name="p" unicode="p" horiz-adv-x="713" 
d="M187 457.232v75.7679h-11h-13h-152v-22l152 0.921212v-789.921h-154v-22h154h12h12h143v22l-143 -0.922581v369.414c59.1008 -58.3377 118.724 -95.4911 205 -95.4911c151 0 225 122 225 283c0 151 -79 260 -223 260c-85.7464 0 -160.775 -36.7469 -207 -80.7679z
M187 118.082v311.645c41.6667 44.6539 118.393 87.273 206 87.273c132 0 200 -102 200 -241c0.0625543 -3.08601 0.0938043 -6.15638 0.0938043 -9.21039c0 -142.762 -68.2864 -249.796 -199.303 -249.796c-0.595656 0 -1.19261 0.00221238 -1.79086 0.00664385
c-87.1128 0 -143.568 41.1957 -205 101.082z" />
    <glyph glyph-name="paragraph" unicode="&#xb6;" horiz-adv-x="752" 
d="M627 0v722h-9h-15h-137h-14h-3h-8h-123c-148 0 -249 -84 -249 -228c0 -136 89 -211 225 -214c53.6898 0 99.9267 16.5619 147 39.1357v-297.136h-154v-22h154h11h14h137h15h9zM441 700v-357.032c-50.2202 -25.1616 -91.2816 -39.9679 -149 -39.9679
c-120 0 -198 71 -198 190c0 132 91 207 227 207h120zM466 22v678h137v-678h-137z" />
    <glyph glyph-name="parenleft" unicode="(" horiz-adv-x="377" 
d="M354 -236c-168 166 -242 325 -242 562s76 394 241 563l-15 14c-172 -170 -251 -332 -251 -577c0 -244 80 -406 252 -577z" />
    <glyph glyph-name="parenright" unicode=")" horiz-adv-x="387" 
d="M36 -267c175 179 266 341 266 594c0 247 -84 407 -262 576l-15 -14c171 -168 251 -323 251 -563c0 -245 -90 -401 -256 -578z" />
    <glyph glyph-name="partialdiff" unicode="&#x2202;" horiz-adv-x="613" 
d="M474.966 284.22c4.40912 43.0637 6.03439 88.9541 6.03439 135.78c0 155 -44 286 -179 286c-51 0 -85 -20 -123 -45l-14 16c44 31 82 51 138 51c152 0 201 -140 201 -308c0 -225 -31 -425 -228 -425c-122 0 -189 87 -189 212c0 129 73 216 199 216
c98.6449 0 161.986 -52.956 188.966 -138.78zM468.488 235.356c-19.3149 100.678 -81.7033 167.644 -181.488 167.644c-106 0 -176 -78 -176 -193c0 -113 63 -193 165 -193c118.98 0 171.447 91.8733 192.488 218.356z" />
    <glyph glyph-name="percent" unicode="%" horiz-adv-x="1086" 
d="M354 -93l437 850h-27l-437 -850h27zM680 109c0 -123 56 -209 173 -209c116 0 171 87 171 211c0 121 -55 206 -171 206c-117 0 -173 -86 -173 -208zM703 109c0 109 46 186 149 186c0.661509 0.00642242 1.32063 0.00962754 1.97735 0.00962754
c101.599 0 146.023 -76.7097 146.023 -185.01c0 -109 -43 -189 -146 -189c-105 0 -151 77 -151 188zM62 555c0 -123 56 -208 173 -208c116 0 171 86 171 210c0 121 -55 206 -171 206c-117 0 -173 -86 -173 -208zM85 555c0 109 46 186 149 186
c0.661509 0.00642242 1.32063 0.00962754 1.97735 0.00962754c101.599 0 146.023 -76.7097 146.023 -185.01c0 -109 -43 -188 -146 -188c-105 0 -151 77 -151 187z" />
    <glyph glyph-name="period" unicode="." horiz-adv-x="286" 
d="M126 12h34c0 -10 -7 -16 -18 -16c-10 0 -16 6 -16 16zM126 12h34c0 10 -7 16 -18 16c-10 0 -16 -6 -16 -16z" />
    <glyph glyph-name="periodcentered" unicode="&#xb7;" horiz-adv-x="292" 
d="M129 440h34c0 -10 -7 -16 -18 -16c-10 0 -16 6 -16 16zM129 440h34c0 10 -7 16 -18 16c-10 0 -16 -6 -16 -16z" />
    <glyph glyph-name="perthousand" unicode="&#x2030;" horiz-adv-x="1503" 
d="M357 -93l437 850h-27l-437 -850h27zM1100 109c0 -123 56 -209 173 -209s172 87 172 211c0 121 -56 206 -172 206c-117 0 -173 -86 -173 -208zM1123 109c0 109 46 186 149 186c0.661509 0.00642242 1.32067 0.00962754 1.97748 0.00962754
c101.611 0 147.023 -76.7097 147.023 -185.01c0 -109 -44 -189 -147 -189c-104 0 -151 77 -151 188zM682 109c0 -123 56 -209 173 -209s172 87 172 211c0 121 -56 206 -172 206c-117 0 -173 -86 -173 -208zM705 109c0 109 46 186 149 186
c0.661509 0.00642242 1.32067 0.00962754 1.97748 0.00962754c101.611 0 147.023 -76.7097 147.023 -185.01c0 -109 -44 -189 -147 -189c-104 0 -151 77 -151 188zM62 555c0 -123 56 -208 173 -208c116 0 171 86 171 210c0 121 -55 206 -171 206c-117 0 -173 -86 -173 -208z
M85 555c0 109 46 186 149 186c0.661509 0.00642242 1.32063 0.00962754 1.97735 0.00962754c101.599 0 146.023 -76.7097 146.023 -185.01c0 -109 -43 -188 -146 -188c-105 0 -151 77 -151 187z" />
    <glyph glyph-name="pi" unicode="&#x3c0;" horiz-adv-x="612" 
d="M179 566h258v-548h24v548h120v24h-554v-24h128v-548h24v548z" />
    <glyph glyph-name="plus" unicode="+" horiz-adv-x="722" 
d="M370 321v267h-24v-267h-262v-24h262v-279h24v279h268v24h-268z" />
    <glyph glyph-name="plusminus" unicode="&#xb1;" horiz-adv-x="773" 
d="M396 321v267h-24v-267h-262v-24h262v-255h-262v-24h262h24h267v24h-267v255h267v24h-267z" />
    <glyph glyph-name="product" unicode="&#x220f;" horiz-adv-x="958" 
d="M245 800h-9h-1h-14h-151v-21h151v-757h-153v-22h153h12h12h154v22h-154v757h466v-757h-153v-22h153h12h11h155v22h-155v757h154v21h-154h-14h-5h-4h-466z" />
    <glyph glyph-name="q" unicode="q" horiz-adv-x="708" 
d="M528 434.682v-305.827c-51.4607 -65.2525 -121.748 -111.854 -203 -111.854c-134 0 -207 104 -207 248c0 145 70 251 205 251c74.9798 0 148.158 -34.2309 205 -81.3183zM528 97.1491v-376.064l-151 0.915152v-22h151h14h11h144v22l-144 -0.929032v789.929h144v22h-144
h-11h-14v-71.6596c-57.5784 46.3597 -130.992 76.6596 -206 76.6596c-152 0 -229 -115 -229 -274c1 -158 81 -270 232 -270c80.5289 0 151.661 43.854 203 103.149z" />
    <glyph glyph-name="question" unicode="?" horiz-adv-x="483" 
d="M104 672c28 11 51 16 79 16c107 0 178 -63 178 -169c0 -115 -79 -185 -197 -185h-2v-112h24v89.7545c119.793 8.35187 199 85.5496 199 207.245c0 118 -82 191 -200 191c-33 0 -58 -6 -89 -16zM160 11h29c0 -9 -6 -13 -15 -13c-8 0 -14 5 -14 13zM160 11h29
c0 9 -6 14 -15 14c-8 0 -14 -6 -14 -14z" />
    <glyph glyph-name="questiondown" unicode="&#xbf;" horiz-adv-x="483" 
d="M379 36c-28 -10 -51 -15 -79 -15c-107 0 -178 63 -178 168c0 115 79 185 197 185h2v113h-24v-90.7545c-119.793 -8.35187 -199 -85.5496 -199 -207.245c0 -117 82 -191 200 -191c33 0 58 6 89 16zM323 697h-29c0 9 6 13 15 13c8 0 14 -5 14 -13zM323 697h-29
c0 -9 6 -14 15 -14c8 0 14 6 14 14z" />
    <glyph glyph-name="quotedbl" unicode="&#x22;" horiz-adv-x="491" 
d="M353 596v188h-23v-188h23zM162 596v188h-24v-188h24z" />
    <glyph glyph-name="quotedblbase" unicode="&#x201e;" horiz-adv-x="443" 
d="M201 -143l110 174h-32l-103 -174h25zM72 -143l110 174h-32l-103 -174h25z" />
    <glyph glyph-name="quotedblleft" unicode="&#x201c;" horiz-adv-x="362" 
d="M186 848l-111 -174h32l104 174h-25zM316 848l-111 -174h32l104 174h-25z" />
    <glyph glyph-name="quotedblright" unicode="&#x201d;" horiz-adv-x="290" 
d="M161 682l111 174h-32l-104 -174h25zM31 682l111 174h-32l-104 -174h25z" />
    <glyph glyph-name="quoteleft" unicode="&#x2018;" horiz-adv-x="349" 
d="M237 722l-111 -173h32l104 173h-25z" />
    <glyph glyph-name="quoteright" unicode="&#x2019;" horiz-adv-x="346" 
d="M151 549l111 173h-32l-104 -173h25z" />
    <glyph glyph-name="quotesinglbase" unicode="&#x201a;" horiz-adv-x="314" 
d="M72 -143l110 174h-32l-103 -174h25z" />
    <glyph glyph-name="quotesingle" unicode="'" horiz-adv-x="300" 
d="M162 596v188h-24v-188h24z" />
    <glyph glyph-name="r" unicode="r" horiz-adv-x="518" 
d="M229 402.345c57.8588 86.5896 141.596 113.655 244 113.655v22c-103.27 0 -188.165 -25.0559 -244 -101.882v96.8822h-12h-12h-154v-22h154v-489l-153 -2.84217e-14v-22h153h12h12h144v22h-144v380.345z" />
    <glyph glyph-name="racute" unicode="&#x155;" horiz-adv-x="518" 
d="M186 657c56 55 113 111 169 166h-32c-57 -55 -113 -111 -170 -166h33zM229 402.345c57.8588 86.5896 141.596 113.655 244 113.655v22c-103.27 0 -188.165 -25.0559 -244 -101.882v96.8822h-12h-12h-154v-22h154v-489l-153 -2.84217e-14v-22h153h12h12h144v22h-144
v380.345z" />
    <glyph glyph-name="radical" unicode="&#x221a;" horiz-adv-x="711" 
d="M383 0c94 241 188 481 282 722h-23c-93.1364 -233.811 -184.39 -466.681 -276.501 -700.436c-82.4423 209.077 -22.5526 56.0241 -116.499 289.436h-12h-12h-154v-22h162.767c83.0914 -208.428 23.2883 -55.7503 115.233 -289h8h17h9z" />
    <glyph glyph-name="rcaron" unicode="&#x159;" horiz-adv-x="515" 
d="M54 822c57 -55 113 -111 170 -166h5h27h6c57 55 113 111 169 166h-32c-52.4572 -51.5369 -104.068 -102.227 -156.39 -152.849c-51.5428 50.6225 -103.153 101.312 -155.61 152.849h-33zM226 402.345c57.8588 86.5896 141.596 113.655 244 113.655v22
c-103.27 0 -188.165 -25.0559 -244 -101.882v96.8822h-12h-12h-154v-22h154v-489l-153 -2.84217e-14v-22h153h12h12h144v22h-144v380.345z" />
    <glyph glyph-name="rcommaaccent" unicode="&#x157;" horiz-adv-x="518" 
d="M196 -282l111 174h-32l-104 -174h25zM229 402.345c57.8588 86.5896 141.596 113.655 244 113.655v22c-103.27 0 -188.165 -25.0559 -244 -101.882v96.8822h-12h-12h-154v-22h154v-489l-153 -2.84217e-14v-22h153h12h12h144v22h-144v380.345z" />
    <glyph glyph-name="registered" unicode="&#xae;" horiz-adv-x="838" 
d="M357 295h54c9.7751 0 19.0953 0.530743 27.9005 1.62615c27.8358 -49.7338 56.3941 -98.68 84.0995 -147.626h88v21h-71c-24.4876 43.3241 -50.7492 86.6483 -76.2786 131.643c40.6025 11.89 65.2786 40.3604 65.2786 90.3567c0 64 -44 99 -109 99h-63h-107v-22h83v-299
h-83v-21h83h97v21h-73v125zM357 469h59c53 0 90 -27 90 -79c0 -54 -37 -73 -91 -73h-58v152zM333 469h24v22zM357 170h-24zM98 319c0 -195 133 -324 330 -324c190 0 313 132 313 324c0 194 -126 327 -318 327c-196 0 -325 -131 -325 -327zM122 319c0 184 118 306 301 306
c179 0 294 -125 294 -307c0 -178 -112 -301 -288 -301c-183 0 -307 118 -307 302z" />
    <glyph glyph-name="ring" unicode="&#x2da;" horiz-adv-x="372" 
d="M39 710c0 58 33 95 91 95c62 0 98 -35 98 -95c0 -59 -35 -95 -95 -95c-59 0 -94 35 -94 95zM17 710c0 -72 44 -117 116 -117c73 0 118 44 118 117s-46 116 -121 116c-71 0 -113 -44 -113 -116z" />
    <glyph glyph-name="ruble" horiz-adv-x="705" 
d="M388 342c158 2 248 41 248 187c0 150 -89 193 -249 193h-123h-8h-3h-14h-152v-22h152v-335h-104v-23h104v-129l-104 2.84217e-14v-23h104v-168h-152v-22h152h14h11h154v22h-154v168h281v23h-281v129h124zM264 700h120c146 0 227 -36 227 -172c0 -131 -82 -163 -226 -163
h-121v335z" />
    <glyph glyph-name="rupee" horiz-adv-x="855" 
d="M0 0h855v20h-855v-20z" />
    <glyph glyph-name="s" unicode="s" horiz-adv-x="547" 
d="M115 65.5442v104.456h-22v-120h1c63 -32 123 -55 191 -55c101 0 167 45 167 141c-1 98 -78 120 -174 151c-77 24 -134 54 -134 131c0 67 49 98 123 98c50.0294 0 101.714 -14.8936 140 -37.1543v-107.846h22v120c-42 27 -103 47 -161 47c-87 0 -146 -39 -146 -120
c0 -89 61 -124 149 -152c84 -28 158 -45 158 -130c0 -81 -58 -119 -140 -119c-62.6923 0 -117.264 20.7524 -174 48.5442z" />
    <glyph glyph-name="sacute" unicode="&#x15b;" horiz-adv-x="547" 
d="M206 658c57 55 113 110 169 166h-32c-57 -55 -113 -111 -169 -166h32zM115 65.5442v104.456h-22v-120h1c63 -32 123 -55 191 -55c101 0 167 45 167 141c-1 98 -78 120 -174 151c-77 24 -134 54 -134 131c0 67 49 98 123 98c50.0294 0 101.714 -14.8936 140 -37.1543
v-107.846h22v120c-42 27 -103 47 -161 47c-87 0 -146 -39 -146 -120c0 -89 61 -124 149 -152c84 -28 158 -45 158 -130c0 -81 -58 -119 -140 -119c-62.6923 0 -117.264 20.7524 -174 48.5442z" />
    <glyph glyph-name="scaron" unicode="&#x161;" horiz-adv-x="548" 
d="M76 822c56 -55 112 -111 169 -166h6h27h5c57 55 113 111 170 166h-33c-51.5397 -50.6194 -103.927 -102.086 -155.601 -152.84c-52.3193 50.7543 -103.859 102.221 -155.399 152.84h-33zM113 65.6098v104.39h-22v-120h1c63 -32 123 -55 191 -55c101 0 167 45 167 141
c-1 98 -78 120 -174 151c-77 24 -134 54 -134 131c0 67 50 98 123 98c50.0294 0 101.714 -14.8936 140 -37.1543v-107.846h22v120c-42 27 -103 47 -161 47c-87 0 -146 -39 -146 -120c0 -89 61 -124 149 -152c85 -28 158 -45 158 -130c0 -81 -58 -119 -140 -119
c-62.7416 0 -116.446 20.785 -174 48.6098z" />
    <glyph glyph-name="scedilla" unicode="&#x15f;" horiz-adv-x="547" 
d="M234 -91c15 10 28 13 46 13c35 0 55 -21 55 -57c0 -38 -28 -55 -68 -55c-28 0 -48 3 -72 17l-9 -17c26 -15 49 -21 80 -21c54 0 92 24 92 76c0 48 -28 78 -76 78c-11.7238 0 -22.0159 -1.43175 -32.1584 -4.17868c10.2914 17.878 20.435 36.0283 30.1584 54.1787
l-2.69788 2.09835c2.55487 -0.0653154 5.12063 -0.0983542 7.69788 -0.0983542c101 0 167 45 167 141c-1 98 -78 120 -174 151c-77 24 -134 54 -134 131c0 67 49 98 123 98c50.0294 0 101.714 -14.8936 140 -37.1543v-107.846h22v120c-42 27 -103 47 -161 47
c-87 0 -146 -39 -146 -120c0 -89 61 -124 149 -152c84 -28 158 -45 158 -130c0 -81 -58 -119 -140 -119c-62.6923 0 -117.264 20.7524 -174 48.5442v104.456h-22v-120h1c53.9249 -27.3904 105.652 -48.187 162.079 -53.6101
c-13.0264 -23.2491 -26.0528 -45.9424 -39.0792 -69.3899l0.649485 -0.690078c-0.216056 -0.102862 -0.432548 -0.20617 -0.649485 -0.309922l16 -16z" />
    <glyph glyph-name="scommaaccent" unicode="&#x219;" horiz-adv-x="547" 
d="M202 -292l111 173h-32l-104 -173h25zM115 65.5442v104.456h-22v-120h1c63 -32 123 -55 191 -55c101 0 167 45 167 141c-1 98 -78 120 -174 151c-77 24 -134 54 -134 131c0 67 49 98 123 98c50.0294 0 101.714 -14.8936 140 -37.1543v-107.846h22v120
c-42 27 -103 47 -161 47c-87 0 -146 -39 -146 -120c0 -89 61 -124 149 -152c84 -28 158 -45 158 -130c0 -81 -58 -119 -140 -119c-62.6923 0 -117.264 20.7524 -174 48.5442z" />
    <glyph glyph-name="section" unicode="&#xa7;" horiz-adv-x="556" 
d="M111 28c56 -39 103 -58 171 -58c88 0 150 44 150 130c-1.47463 59.7225 -35.0236 93.3506 -85.0146 117.318c70.9928 23.3026 114.015 68.1863 114.015 143.682c-1 97 -89 114 -185 144c-67 23 -115 56 -115 122c0 67 45 104 118 104
c51.1218 0 86.6925 -12.0952 130 -33.8766v-108.123h22v120c-52 28 -91 43 -150 43c-87 0 -144 -45 -144 -125c0 -57.4947 29.7599 -93.814 76.724 -119.782c-68.1688 -24.8096 -111.724 -66.2874 -111.724 -140.218c0 -92 79 -117 171 -147c72 -25 135 -49 135 -120
c0 -68 -50 -108 -125 -108c-61.1017 0 -101.239 16.4066 -150 47.4795v108.52h-22v-120zM318.117 229.556c-9.6546 3.65427 -19.7211 7.10655 -30.1171 10.4435c-84 28 -162 47 -162 127c0 69.8351 43.2753 105.803 110.664 128.889
c8.70368 -3.85624 17.8354 -7.4691 27.3362 -10.8894c87 -30 174 -39 174 -124c0 -70.7538 -46.031 -114.265 -119.883 -131.444z" />
    <glyph glyph-name="semicolon" unicode=";" horiz-adv-x="417" 
d="M141 -99c38 60 76 121 113 181h-31c-35 -60 -70 -121 -106 -181h24zM223 428h28c0 9 -6 14 -15 14c-8 0 -13 -6 -13 -14zM223 428h28c0 -10 -6 -14 -15 -14c-8 0 -13 5 -13 14z" />
    <glyph glyph-name="seven" unicode="7" horiz-adv-x="591" 
d="M550 722h-473v-11v-11v-109h21v109h438.574c-29.3435 -48.4359 -122.818 -203.51 -420.574 -700h29c417 700 0 0 418 700v22h-13z" />
    <glyph glyph-name="six" unicode="6" horiz-adv-x="638" 
d="M119.335 292.655c21.6899 229.181 192.503 352.403 428.665 423.345l-6 18c-267 -74 -450 -217 -450 -493c0 -152 87 -246 238 -246c130 0 208 79 208 208c0 131 -80 206 -210 206c-95.9902 0 -165.729 -43.7517 -208.665 -116.345zM117.008 239.528
c38.1905 86.8611 110.551 146.472 208.992 146.472c117 0 186 -66 186 -184c0 -108 -68 -182 -181 -182c-136.174 0 -213.069 83.9782 -213.992 219.528z" />
    <glyph glyph-name="slash" unicode="/" horiz-adv-x="576" 
d="M82 -67c145 303 291 607 436 910h-24c-145 -303 -291 -607 -436 -910h24z" />
    <glyph glyph-name="softhyphen" horiz-adv-x="559" 
d="M131 260h298v24h-298v-24z" />
    <glyph glyph-name="space" unicode=" " horiz-adv-x="240" 
 />
    <glyph glyph-name="sterling" unicode="&#xa3;" horiz-adv-x="579" 
d="M493 675c-46 33 -82 49 -138 49c-118.004 0 -167.917 -92.1241 -167.917 -218.373c0 -36.7898 4.23851 -76.4774 12.2657 -117.627h-94.3486v-22h98.8337c9.75885 -49.0633 15.2777 -96.5083 15.2777 -139.686c0 -118.127 -41.3079 -204.314 -150.111 -204.314v-22h413
v22h-322.961c59.502 35.2535 83.3022 109.938 83.3022 202.519c0 43.9018 -5.35192 91.8277 -14.7867 141.481h206.445v22h-210.774c-7.46918 39.1811 -11.4013 77.1946 -11.4013 112.46c0 116.185 42.6813 202.54 142.175 202.54c51 0 85 -15 126 -44z" />
    <glyph glyph-name="summation" unicode="&#x2211;" horiz-adv-x="579" 
d="M428 386l-327.26 315h353.26v-93h21v114h-403v-21l325 -315l-326 -365v-21h8h397v116h-22v-95l-356.013 3.55271e-15z" />
    <glyph glyph-name="t" unicode="t" horiz-adv-x="461" 
d="M406 47c-35 -18 -61 -29 -100 -29c-74 0 -106 45 -106 127v366h231v22h-231v118l-24 -14v-104h-146v-22h146v-368c0 -94 40 -148 128 -148c44 0 73 12 113 31z" />
    <glyph glyph-name="tcaron" unicode="&#x165;" horiz-adv-x="454" 
d="M264 130l111 173h-32l-104 -173h25zM406 47c-35 -18 -61 -29 -100 -29c-74 0 -106 45 -106 127v366h231v22h-231v118l-24 -14v-104h-146v-22h146v-368c0 -94 40 -148 128 -148c44 0 73 12 113 31z" />
    <glyph glyph-name="tcedilla" horiz-adv-x="461" 
d="M406 47c-35 -18 -61 -29 -100 -29c-74 0 -106 45 -106 127v366h231v22h-231v118l-24 -14v-104h-146v-22h146v-368c0 -85.9465 33.4395 -138.453 106.434 -146.82l-38.4335 -69.1803l16 -17c16 10 28 13 47 13c35 0 54 -22 54 -57c0 -38 -28 -55 -68 -55
c-27 0 -47 3 -71 16l-10 -17c27 -14 50 -21 80 -21c55 0 93 25 93 77c0 48 -29 78 -76 78c-11.9934 0 -22.1456 -1.38087 -32.0024 -4.03221c9.94061 17.6172 19.7669 35.1201 30.0024 53.0322l-2.40089 2.00074c43.6648 0.108499 72.5827 12.0856 112.401 30.9993z" />
    <glyph glyph-name="tcommaaccent" unicode="&#x163;" horiz-adv-x="461" 
d="M229 -292l110 174h-32l-103 -174h25zM406 47c-35 -18 -61 -29 -100 -29c-74 0 -106 45 -106 127v331h231v22h-231v153l-24 -14v-139h-146v-22h146v-333c0 -94 40 -148 128 -148c44 0 73 12 113 31z" />
    <glyph glyph-name="thorn" unicode="&#xfe;" horiz-adv-x="653" 
d="M127 457.232v342.768h-11h-13h-153v-22h153v-1056h-154v-22h154h12h12h143v22l-143 -0.922581v369.414c59.1008 -58.3377 118.724 -95.4911 205 -95.4911c151 0 225 122 225 283c0 151 -79 260 -223 260c-85.7464 0 -160.775 -36.7469 -207 -80.7679zM127 118.082
l1.42109e-14 311.645c41.6667 44.6539 118.393 87.273 206 87.273c132 0 200 -102 200 -241c0.0625543 -3.08601 0.0938043 -6.15638 0.0938043 -9.21039c0 -142.762 -68.2864 -249.796 -199.303 -249.796c-0.595656 0 -1.19261 0.00221238 -1.79086 0.00664385
c-87.1128 0 -143.568 41.1957 -205 101.082z" />
    <glyph glyph-name="three" unicode="3" horiz-adv-x="603" 
d="M114 626c32 39 92 76 161 76c106 0 175 -48 175 -152c0 -105 -87 -156 -189 -156v-19c117 0 222 -57 222 -181c0 -123 -95 -174 -207 -174c-68 0 -114 18 -173 52l-13 -16c61 -38 111 -61 185 -61c141 0 232 61 232 200c0 104.525 -61.1184 168.942 -162.02 190.709
c77.8734 21.8503 129.02 77.09 129.02 165.291c0 117 -77 176 -197 176c-78 0 -143 -42 -180 -88z" />
    <glyph glyph-name="threequarters" unicode="&#xbe;" horiz-adv-x="1050" 
d="M74 374c36 -22 73 -33 115 -33c4.99464 -0.219544 9.92601 -0.330639 14.7857 -0.330639c83.6815 0 146.105 32.9411 144.214 112.331c0 68.2938 -51.2471 90.8509 -120.199 99.1684c60.6233 11.7464 104.199 40.17 104.199 102.832c0 73 -55 104 -133 104
c-47 0 -89 -21 -119 -52l16 -13c28 25 60 45 100 45c65 0 112 -25 112 -86c0 -71 -77 -84 -157 -89v-7v-12v-4c93 -5 173 -15 173 -89c0 -66.3824 -51.8318 -91.1143 -124.329 -91.1143c-2.8587 0 -5.74952 0.0384543 -8.67057 0.114326c-38 0 -72 10 -105 28zM332 -93
l437 850h-27l-437 -850h27zM861 -100h12h137v21h-137v98l111 7.10543e-15v20h-111v286v9h-23l-243 -295l13 -20h230v-98h-137v-21h137h11zM850 297.182v-258.182h-213.464z" />
    <glyph glyph-name="threesuperior" unicode="&#xb3;" horiz-adv-x="522" 
d="M128 317c36 -22 73 -33 115 -33c4.99464 -0.219544 9.92601 -0.330639 14.7857 -0.330639c83.6815 0 146.105 32.9411 144.214 112.331c0 68.2938 -51.2471 90.8509 -120.199 99.1684c60.6233 11.7464 104.199 40.17 104.199 102.832c0 73 -55 104 -133 104
c-47 0 -89 -21 -119 -52l16 -13c28 25 60 45 100 45c65 0 112 -25 112 -86c0 -71 -77 -84 -157 -89v-7v-12v-4c93 -5 173 -15 173 -89c0 -66.3824 -51.8318 -91.1143 -124.329 -91.1143c-2.8587 0 -5.74952 0.0384543 -8.67057 0.114326c-38 0 -72 10 -105 28z" />
    <glyph glyph-name="tilde" unicode="&#x2dc;" horiz-adv-x="579" 
d="M372 730c-14 -54 -29 -103 -75 -103c-40 0 -64 19 -91 49c-29 32 -52 55 -96 55c-65 0 -90 -51 -104 -119l20 -6c12 58 32 104 84 104c36 0 55 -21 79 -48c31 -34 60 -56 106 -56c63 0 81 55 97 120z" />
    <glyph glyph-name="trademark" unicode="&#x2122;" horiz-adv-x="1085" 
d="M556.039 298c15.9757 110.652 31.3131 220.666 47.2205 331.25c27.5802 -116.899 55.1605 -234.574 82.7407 -352.25h8h15h10c26.1084 119.353 53.0863 238.706 79.3123 358.059c17.0142 -112.353 33.4236 -224.706 50.4899 -337.059zM872 298l-55.621 363h92.621v20
h-121c-28.5397 -123.365 -86.6012 -371.858 -86.6012 -371.858c-29.3258 124.28 -57.9385 248.493 -87.3988 371.858h-117v-21h88.6832c-17.5611 -120.048 -35.1221 -241.024 -52.6832 -362h-1zM851 277h1h-1zM279 661h23h131v-75h21v95h-152v1l-1.09524 -1h-184.905v-95h21
v75h142zM302 681h-1.09524l-21.9048 -20v-363h-85v-21h85h106v21h-83v363zM302 298h-23z" />
    <glyph glyph-name="turkishlira" horiz-adv-x="852" 
d="M760 353c0 -208 -105 -331 -308 -331h-186v351h289v23h-289v140h288v23h-288v141h154v22h-154h-10h-2h-12h-152v-22h152v-141h-111v-23h111v-140h-110v-23h110v-351h-152v-22h152h14h10h184c221 0 333 130 333 353h-23z" />
    <glyph glyph-name="two" unicode="2" horiz-adv-x="626" 
d="M116 563c48 83 99 140 194 140c108 0 170 -64 170 -177c0 -133 -90 -221 -171 -289c-78 -72 -156 -144 -234 -215v-22h11h431v22v120h-22v-120l-385.194 7.10543e-15c71.2365 65.8385 143.12 132.324 214.194 198c87 72 181 166 181 307c0 127 -70 200 -194 200
c-103 0 -168 -61 -215 -152z" />
    <glyph glyph-name="twosuperior" unicode="&#xb2;" horiz-adv-x="576" 
d="M170 606c29 47 63 75 122 75c66 0 109 -34 109 -98c0 -56 -38 -83 -80 -120c-68 -51 -134 -102 -201 -153v-22h324v116h-22v-94h-263.554c59.0689 45.2177 118.686 90.9836 177.554 136c47 43 87 74 87 138c0 76 -52 119 -130 119c-67 0 -111 -28 -142 -86z" />
    <glyph glyph-name="u" unicode="u" horiz-adv-x="716" 
d="M537 154.643c-38.9149 -69.5307 -108.759 -137.643 -187 -137.643c-108 0 -163 61 -163 170v346h-12h-12h-154v-22h154v-326c0 -123 63 -190 184 -190c79.3117 0 146.987 55.2742 190 121.165v-116.165h12h12h143v22h-143v511h-12h-12h-153v-22h153v-356.357z" />
    <glyph glyph-name="uacute" unicode="&#xfa;" horiz-adv-x="716" 
d="M290 657c56 55 113 111 169 166h-32c-57 -55 -113 -111 -170 -166h33zM537 154.643c-38.9149 -69.5307 -108.759 -137.643 -187 -137.643c-108 0 -163 61 -163 170v346h-12h-12h-154v-22h154v-326c0 -123 63 -190 184 -190c79.3117 0 146.987 55.2742 190 121.165
v-116.165h12h12h143v22h-143v511h-12h-12h-153v-22h153v-356.357z" />
    <glyph glyph-name="ucircumflex" unicode="&#xfb;" horiz-adv-x="716" 
d="M538 656c-56 55 -112 111 -169 166h-6h-27h-5c-57 -55 -113 -111 -170 -166h33c51.5061 50.5863 103.858 102.019 155.5 152.741c51.6419 -50.7221 103.994 -102.154 155.5 -152.741h33zM537 154.643c-38.9149 -69.5307 -108.759 -137.643 -187 -137.643
c-108 0 -163 61 -163 170v346h-12h-12h-154v-22h154v-326c0 -123 63 -190 184 -190c79.3117 0 146.987 55.2742 190 121.165v-116.165h12h12h143v22h-143v511h-12h-12h-153v-22h153v-356.357z" />
    <glyph glyph-name="udieresis" unicode="&#xfc;" horiz-adv-x="716" 
d="M394 669h33c0 -10 -7 -16 -17 -16s-16 6 -16 16zM394 669h33c0 10 -7 16 -17 16s-16 -7 -16 -16zM271 669h33c0 -10 -7 -16 -17 -16s-16 6 -16 16zM271 669h33c0 10 -7 16 -17 16s-16 -7 -16 -16zM537 154.643c-38.9149 -69.5307 -108.759 -137.643 -187 -137.643
c-108 0 -163 61 -163 170v346h-12h-12h-154v-22h154v-326c0 -123 63 -190 184 -190c79.3117 0 146.987 55.2742 190 121.165v-116.165h12h12h143v22h-143v511h-12h-12h-153v-22h153v-356.357z" />
    <glyph glyph-name="ugrave" unicode="&#xf9;" horiz-adv-x="716" 
d="M424 657c-56 55 -112 111 -169 166h-33c56 -56 113 -111 169 -166h33zM537 154.643c-38.9149 -69.5307 -108.759 -137.643 -187 -137.643c-108 0 -163 61 -163 170v346h-12h-12h-154v-22h154v-326c0 -123 63 -190 184 -190c79.3117 0 146.987 55.2742 190 121.165
v-116.165h12h12h143v22h-143v511h-12h-12h-153v-22h153v-356.357z" />
    <glyph glyph-name="uhungarumlaut" unicode="&#x171;" horiz-adv-x="716" 
d="M396 623l111 173h-32l-104 -173h25zM266 623l111 173h-32l-104 -173h25zM537 154.643c-38.9149 -69.5307 -108.759 -137.643 -187 -137.643c-108 0 -163 61 -163 170v346h-12h-12h-154v-22h154v-326c0 -123 63 -190 184 -190c79.3117 0 146.987 55.2742 190 121.165
v-116.165h12h12h143v22h-143v511h-12h-12h-153v-22h153v-356.357z" />
    <glyph glyph-name="umacron" unicode="&#x16b;" horiz-adv-x="716" 
d="M458 680h-230v-22h230v22zM537 154.643c-38.9149 -69.5307 -108.759 -137.643 -187 -137.643c-108 0 -163 61 -163 170v346h-12h-12h-154v-22h154v-326c0 -123 63 -190 184 -190c79.3117 0 146.987 55.2742 190 121.165v-116.165h12h12h143v22h-143v511h-12h-12h-153v-22
h153v-356.357z" />
    <glyph glyph-name="underscore" unicode="_" horiz-adv-x="698" 
d="M-1 -210h699v22h-699v-22z" />
    <glyph glyph-name="uogonek" unicode="&#x173;" horiz-adv-x="716" 
d="M546.327 7.10543e-15l2.67317 -7.10543e-15h12h143v22h-143v511h-12h-12h-153v-22h153v-356.357c-38.9149 -69.5307 -108.759 -137.643 -187 -137.643c-108 0 -163 61 -163 170v346h-12h-12h-154v-22h154v-326c0 -123 63 -190 184 -190
c79.3117 0 146.987 55.2742 190 121.165v-100.557c-53.0211 -23.6831 -94 -49.5734 -94 -106.608c0 -58 36 -95 93 -95c32 0 54 13 81 29c-8 11 -4 4 -12 15c-23 -14 -41 -23 -67 -23c-45 0 -72 29 -72 74c0 49.0168 35.7418 69.4401 80.3268 91z" />
    <glyph glyph-name="uring" unicode="&#x16f;" horiz-adv-x="716" 
d="M256 775c0 58 33 95 91 95c62 0 98 -35 98 -95c0 -59 -35 -95 -96 -95c-59 0 -93 35 -93 95zM234 775c0 -72 44 -117 115 -117c74 0 119 44 119 117s-46 116 -121 116c-71 0 -113 -44 -113 -116zM537 154.643c-38.9149 -69.5307 -108.759 -137.643 -187 -137.643
c-108 0 -163 61 -163 170v346h-12h-12h-154v-22h154v-326c0 -123 63 -190 184 -190c79.3117 0 146.987 55.2742 190 121.165v-116.165h12h12h143v22h-143v511h-12h-12h-153v-22h153v-356.357z" />
    <glyph glyph-name="v" unicode="v" horiz-adv-x="753" 
d="M372.241 24.4765c-64.7373 162.424 -128.679 324.091 -192.587 486.523h143.346v22h-152h-4h-23h-142v-22h150.782c68.1484 -170.589 137.102 -340.335 204.218 -511h5h20h5c70.9506 170.665 142.821 340.411 213.847 511h151.153v22h-142h-23h-2h-154v-22h144.795z" />
    <glyph glyph-name="w" unicode="w" horiz-adv-x="1087" 
d="M751 0h1c62.3215 170.665 124.643 340.411 186.964 511h147.036v22h-139h-26h-1h-155v-22h148.088c-57.6378 -160.234 -115.276 -319.724 -172.913 -479.93c-58.3883 167.537 -116.725 334.29 -174.175 501.93h-5h-20h-7
c-64.136 -167.886 -129.162 -334.881 -193.399 -502.666c-55.023 160.454 -110.092 320.187 -165.942 480.666h153.34v22h-161h-26h-139v-22h146.783c60.3265 -170.589 119.772 -340.335 179.217 -511h1h22h1c66.4634 169.007 132.025 337.112 198.397 506.028
c58.87 -168.916 117.785 -337.021 177.603 -506.028h1h22z" />
    <glyph glyph-name="x" unicode="x" horiz-adv-x="770" 
d="M371.511 278.224c-69.2366 -85.3441 -138.473 -170.678 -207.71 -256.224h-155.802v-22h138h27h4h152v22h-134.322c63.81 79.3916 127.628 158.601 191.543 237.805c63.2458 -79.2039 126.39 -158.413 189.342 -237.805h-135.564v-22h153h3h28h137v22h-154.673
c-68.6344 85.4423 -137.057 170.673 -205.49 255.914c62.6611 77.6315 125.422 155.271 188.366 233.086h155.797v22h-138h-28h-1h-150v-22h132.198c-58.0243 -71.6926 -116.049 -143.236 -174.073 -214.762c-57.4223 71.5255 -114.863 143.069 -172.452 214.762h130.327v22
h-148h-2h-26h-140v-22h157.554c62.0213 -77.7114 124.035 -155.248 185.957 -232.776z" />
    <glyph glyph-name="y" unicode="y" horiz-adv-x="757" 
d="M358.429 76.4303c-59.1427 -118.075 -118.285 -236.167 -177.428 -354.43l-150.001 -5.68434e-14v-22h139h25h3c134.359 270.666 269.667 540.384 404.999 811h151.001v22h-140h-26h-1h-154v-22h142.999c-68.0369 -136.049 -136.074 -271.871 -204.111 -407.7
l-187.757 407.7h149.868v22h-160h-1h-26h-139v-22h149.197c66.758 -144.195 133.558 -291.545 201.232 -434.57z" />
    <glyph glyph-name="yacute" unicode="&#xfd;" horiz-adv-x="757" 
d="M313 660c57 55 113 111 169 166h-32c-57 -55 -113 -111 -169 -166h32zM358.429 76.4303c-59.1427 -118.075 -118.285 -236.167 -177.428 -354.43l-150.001 -5.68434e-14v-22h139h25h3c134.359 270.666 269.667 540.384 404.999 811h151.001v22h-140h-26h-1h-154v-22
h142.999c-68.0369 -136.049 -136.074 -271.871 -204.111 -407.7l-187.757 407.7h149.868v22h-160h-1h-26h-139v-22h149.197c66.758 -144.195 133.558 -291.545 201.232 -434.57z" />
    <glyph glyph-name="ydieresis" unicode="&#xff;" horiz-adv-x="757" 
d="M417 672h34c0 -10 -7 -16 -18 -16c-10 0 -16 6 -16 16zM417 672h34c0 10 -7 16 -18 16c-10 0 -16 -7 -16 -16zM294 672h34c0 -10 -7 -16 -18 -16c-10 0 -16 6 -16 16zM294 672h34c0 10 -7 16 -18 16c-10 0 -16 -7 -16 -16zM358.429 76.4303
c-59.1427 -118.075 -118.285 -236.167 -177.428 -354.43l-150.001 -5.68434e-14v-22h139h25h3c134.359 270.666 269.667 540.384 404.999 811h151.001v22h-140h-26h-1h-154v-22h142.999c-68.0369 -136.049 -136.074 -271.871 -204.111 -407.7l-187.757 407.7h149.868v22
h-160h-1h-26h-139v-22h149.197c66.758 -144.195 133.558 -291.545 201.232 -434.57z" />
    <glyph glyph-name="yen" unicode="&#xa5;" horiz-adv-x="904" 
d="M445.36 353.769c-4.11792 -6.25623 -8.23797 -12.5126 -12.3604 -18.7689v-83h-215v-23h215v-207h-153v-21h153v-1h12h12h154v22h-154v207h219v23h-219v83c2.85531 4.33335 5.71061 8.66669 8.56592 13h210.434v23h-195.279c72.6675 110.276 145.335 220.485 218.003 330
h154.276v21h-166h-160v-21h146.732c-76.3635 -115.219 -152.002 -231.206 -228.372 -347.231zM457 335l-11.6396 18.7689l-215.337 347.231h146.977v21h-160h-26h-140v-21h153.186c69.0673 -110 138.095 -220 206.463 -330h-192.649v-23h206.935
c2.68956 -4.33333 5.37802 -8.66667 8.06536 -13z" />
    <glyph glyph-name="z" unicode="z" horiz-adv-x="583" 
d="M485 22h-375.25c121.75 162.333 0.00714915 8.347e-06 370.25 489v22h-385v-11v-11v-109h21v109h334.244c-122.74 -162.333 -0.00105161 -8.347e-06 -370.244 -489v-22h427v11v11v109h-22v-109z" />
    <glyph glyph-name="zacute" unicode="&#x17a;" horiz-adv-x="583" 
d="M227 657c57 55 113 111 169 166h-32c-57 -55 -113 -111 -170 -166h33zM485 22h-375.25c121.75 162.333 0.00714915 8.347e-06 370.25 489v22h-385v-11v-11v-109h21v109h334.244c-122.74 -162.333 -0.00105161 -8.347e-06 -370.244 -489v-22h427v11v11v109h-22v-109z" />
    <glyph glyph-name="zcaron" unicode="&#x17e;" horiz-adv-x="583" 
d="M98 822c57 -55 113 -111 170 -166h6h26h6c57 55 113 111 169 166h-32c-52.5894 -51.6668 -104.328 -102.482 -156 -153.232c-51.6723 50.7497 -103.411 101.565 -156 153.232h-33zM485 22h-375.25c121.75 162.333 0.00714915 8.347e-06 370.25 489v22h-385v-11v-11v-109
h21v109h334.244c-122.74 -162.333 -0.00105161 -8.347e-06 -370.244 -489v-22h427v11v11v109h-22v-109z" />
    <glyph glyph-name="zdotaccent" unicode="&#x17c;" horiz-adv-x="583" 
d="M268 669h34c0 -10 -7 -16 -18 -16c-10 0 -16 6 -16 16zM268 669h34c0 10 -7 16 -18 16c-10 0 -16 -6 -16 -16zM485 22h-375.25c121.75 162.333 0.00714915 8.347e-06 370.25 489v22h-385v-11v-11v-109h21v109h334.244
c-122.74 -162.333 -0.00105161 -8.347e-06 -370.244 -489v-22h427v11v11v109h-22v-109z" />
    <glyph glyph-name="zero" unicode="0" horiz-adv-x="779" 
d="M102 360c0 -215 87 -365 290 -365c201 0 284 153 284 368c0 214 -84 364 -284 364c-204 0 -290 -151 -290 -367zM127 360c0 201 77 344 263 344s261 -143 261 -341c0 -200 -77 -344 -258 -344c-184 0 -266 141 -266 341z" />
    </font>
</defs>
</svg>
