<?xml version="1.0" standalone="no"?>
<!DOCTYPE svg PUBLIC "-//W3C//DTD SVG 1.1//EN" "http://www.w3.org/Graphics/SVG/1.1/DTD/svg11.dtd" >
<svg xmlns="http://www.w3.org/2000/svg">
<metadata>
Created by FontPrep 20130207 at Thu Feb 19 11:24:04 2015
 By Simon Egli
Copyright 2015 Simon Egli
</metadata>
<defs>
<font id="40d18d5a7ae85f9597a40f1306041fd1" horiz-adv-x='1024' >
  <font-face 
    font-family="Sean"
    font-weight="184"
    font-stretch="extra-condensed"
    units-per-em="2048"
    panose-1="2 0 7 3 0 0 0 0 0 0"
    ascent="1638"
    descent="-410"
    x-height="1092"
    cap-height="1479"
    bbox="-37 -623 3449 2200"
    underline-thickness="0"
    underline-position="0"
    unicode-range="U+0020-FB02"
  />
<missing-glyph horiz-adv-x="745" 
d="M135 68h408v1228h-408v-1228zM68 0v1364h542v-1364h-542z" />
    <glyph glyph-name=".notdef" horiz-adv-x="745" 
d="M135 68h408v1228h-408v-1228zM68 0v1364h542v-1364h-542z" />
    <glyph glyph-name=".null" horiz-adv-x="0" 
 />
    <glyph glyph-name="nonmarkingreturn" horiz-adv-x="681" 
 />
    <glyph glyph-name="space" unicode=" " horiz-adv-x="491" 
 />
    <glyph glyph-name="exclam" unicode="!" horiz-adv-x="471" 
d="M317 469h-165v1010h165v-1010zM338 80q0 -84 -102 -84q-45 0 -73 22t-28 62h203zM338 80h-203q0 38 29 62t74 24q44 0 72 -22t28 -64z" />
    <glyph glyph-name="quotedbl" unicode="&#x22;" horiz-adv-x="806" 
d="M303 1245h-166v385h166v-385zM670 1245h-160v385h160v-385z" />
    <glyph glyph-name="numbersign" unicode="#" horiz-adv-x="1249" 
d="M844 948h-338l-94 -342h336zM1044 1077h111l-37 -129h-108l-97 -342h117l-39 -129h-112l-111 -397h-166l111 397h-336l-107 -383h-159l104 383h-131l39 129h127l94 342h-133l37 129h131l108 402h166l-110 -402h336l112 402h166z" />
    <glyph glyph-name="dollar" unicode="$" horiz-adv-x="1042" 
d="M422 1583h166v-182q93 -9 162 -37t141 -68v-252h-131v170q-122 60 -236 60t-178 -50t-63 -143q0 -93 85 -150q48 -34 81 -51q33 -16 119 -58t142 -74q160 -88 213 -189q29 -59 29 -143t-50 -156q-96 -139 -335 -164v-182h-166v182q-150 16 -301 99v254h133v-160
q139 -68 265 -68t207 51q81 52 81 146t-84 164q-55 43 -233 124q-178 80 -265 164t-87 216t83 210t222 101v186z" />
    <glyph glyph-name="percent" unicode="%" horiz-adv-x="1974" 
d="M213 1073q0 -317 223 -317q207 0 207 317t-213 318h-4q-213 -1 -213 -318zM68 1075q0 201 94 319t271 118t269 -118q92 -116 92 -317t-92 -321q-94 -120 -272 -121t-270 119t-92 321zM1540 612q-215 0 -215 -317t223 -318q207 -1 207 317t-211 318h-4zM1180 297
q0 201 94 319t272 117q178 0 270 -117q92 -118 91 -318q0 -200 -93 -321q-94 -121 -272 -121t-270 120t-92 321zM698 -135h-155l762 1638h157z" />
    <glyph glyph-name="ampersand" unicode="&#x26;" horiz-adv-x="1325" 
d="M702 1157q0 93 -44 147t-123 54t-117 -56t-39 -142q1 -86 35 -152t100 -142q92 63 140 131t48 160zM518 -10q-188 0 -304 108t-116 287q0 139 83 230t214 173q-135 155 -163 263q-13 49 -13 104q0 150 87 242t235 92q147 0 237 -90t90 -240q0 -86 -38 -161t-91 -125
t-137 -105q12 -16 77 -87t245 -275q51 104 100 272l137 -29q-59 -215 -141 -354q2 -4 29 -34l31 -35q4 -6 28 -32q23 -26 31 -34t30 -34t46 -54q24 -27 37 -42t28 -30h-197q-63 72 -149 172q-164 -182 -416 -182zM264 374q0 -110 71 -182t191 -71q193 0 318 155l-359 414
q-113 -74 -167 -140t-54 -176z" />
    <glyph glyph-name="quotesingle" unicode="'" horiz-adv-x="440" 
d="M303 1245h-166v385h166v-385z" />
    <glyph glyph-name="parenleft" unicode="(" horiz-adv-x="688" 
d="M90 668q0 368 110 646t357 562l98 -82q-219 -260 -310 -519t-91 -607t91 -608t312 -513l-100 -90q-248 287 -357 565q-110 278 -110 646z" />
    <glyph glyph-name="parenright" unicode=")" horiz-adv-x="710" 
d="M621 671q0 -373 -117 -655t-375 -589l-100 84q225 283 326 547t101 610t-96 604t-323 518l100 88q256 -283 370 -559t114 -648z" />
    <glyph glyph-name="asterisk" unicode="*" horiz-adv-x="843" 
d="M326 1024l-197 70l47 125q55 -25 182 -82q-4 96 -12 215h154q-2 -23 -2 -45l-4 -105q0 -8 -1 -36t-1 -33q141 72 176 86l47 -125q-42 -14 -74 -25q-33 -12 -47 -17q-14 -4 -34 -12t-36 -12l35 -40q65 -78 113 -126l-115 -90q-33 41 -74 98t-57 78q-76 -109 -135 -176
l-117 92q27 25 81 85q55 59 71 75z" />
    <glyph glyph-name="plus" unicode="+" horiz-adv-x="1269" 
d="M713 709h469v-142h-469v-501h-156v501h-469v144h469v487h156v-489z" />
    <glyph glyph-name="comma" unicode="," horiz-adv-x="557" 
d="M213 -248h-160l166 398h205z" />
    <glyph glyph-name="hyphen" unicode="-" horiz-adv-x="782" 
d="M131 498v141h520v-141h-520z" />
    <glyph glyph-name="period" unicode="." horiz-adv-x="452" 
d="M326 72h-199q0 38 27 62q28 24 72 24t72 -22t28 -64zM326 72q0 -84 -100 -84t-99 84h199z" />
    <glyph glyph-name="slash" unicode="/" horiz-adv-x="1054" 
d="M229 -86h-166q254 586 762 1753h166q-508 -1167 -762 -1753z" />
    <glyph glyph-name="zero" unicode="0" horiz-adv-x="1329" 
d="M264 737q0 -610 410 -610q389 0 389 613t-404 614q-223 0 -314 -179q-81 -160 -81 -438zM104 737q0 348 140 550t427 202q288 0 421 -201t133 -548t-135 -549t-424 -201q-195 0 -323 98q-239 183 -239 649z" />
    <glyph glyph-name="one" unicode="1" horiz-adv-x="872" 
d="M598 1479v-1350h227v-129h-614v129h221v1155l-272 -244l-86 107l358 332h166z" />
    <glyph glyph-name="two" unicode="2" horiz-adv-x="1060" 
d="M158 1142q0 1 -60 36q147 311 426 311q190 0 290 -113t101 -309q0 -197 -88 -343t-243 -292l-37 -37q-25 -25 -57 -60t-52 -52q-20 -18 -58 -55t-64 -58q-26 -22 -46 -41h547v233h133v-362h-868v129q266 266 399 401q125 121 202 246q77 124 77 272q0 304 -242 304
q-102 0 -166 -60t-137 -186q-57 35 -57 36z" />
    <glyph glyph-name="three" unicode="3" horiz-adv-x="1013" 
d="M456 127q130 0 215 75t85 218t-94 226t-236 83v111q119 0 195 70q75 70 75 191q0 123 -66 187t-193 64q-128 0 -230 -129l-107 71q54 84 150 140t209 55q185 0 291 -99t106 -282q0 -217 -170 -317q232 -106 229 -369q1 -213 -123 -323t-346 -109q-172 0 -352 129l90 100
q142 -92 272 -92z" />
    <glyph glyph-name="four" unicode="4" horiz-adv-x="1136" 
d="M625 647v570l-398 -570h398zM625 506h-496l-74 141q283 401 283 404l283 403h165v-807h269v-141h-269v-377h224v-129h-615v129h230v377z" />
    <glyph glyph-name="five" unicode="5" horiz-adv-x="985" 
d="M895 474q0 -212 -129 -348q-130 -136 -326 -136t-352 108l84 107q139 -78 269 -78t208 98t78 250t-68 244t-198 92q-84 0 -150 -45l-157 49v664h690v-129h-533v-430q80 29 158 28q199 0 313 -131t113 -343z" />
    <glyph glyph-name="six" unicode="6" horiz-adv-x="1095" 
d="M256 512q0 -174 81 -275t236 -102q121 0 187 82t66 221t-68 221t-199 82q-205 0 -303 -213v-16zM569 879q201 0 313 -118t112 -326t-114 -330q-112 -121 -326 -121t-337 140t-123 382q0 737 832 991l47 -131q-260 -82 -436 -232t-244 -364q115 109 276 109z" />
    <glyph glyph-name="seven" unicode="7" horiz-adv-x="1019" 
d="M98 1479h885v-129l-692 -1350h-176l708 1350h-594v-215h-131v344z" />
    <glyph glyph-name="eight" unicode="8" horiz-adv-x="1056" 
d="M528 125q124 0 192 63q68 62 68 180t-63 187q-64 69 -193 143q-163 -86 -217 -163q-45 -70 -46 -176q-1 -107 67 -171t192 -63zM956 371q0 -188 -115 -285q-116 -96 -318 -96q-201 0 -311 97t-110 266t79 256t214 163q-121 71 -172 127q-51 55 -69 109t-19 120
q1 174 105 268t290 93q186 0 288 -92t104 -273q0 -126 -62 -200t-194 -150q181 -103 243 -211q34 -66 40 -110q7 -44 7 -82zM301 1128q0 -107 70 -169q48 -44 161 -111q115 64 169 122t55 154q0 229 -236 230q-104 0 -162 -60t-57 -166z" />
    <glyph glyph-name="nine" unicode="9" horiz-adv-x="1093" 
d="M838 967q0 174 -80 275t-220 101q-140 1 -206 -79q-68 -80 -68 -219t71 -223t204 -85q197 1 299 187v43zM508 600q-184 0 -296 118q-110 118 -110 326t112 329q112 122 326 122t336 -140t121 -382q0 -752 -804 -1002l-56 133q555 179 670 607q-115 -111 -299 -111z" />
    <glyph glyph-name="colon" unicode=":" horiz-adv-x="456" 
d="M326 827h-195q-1 84 97 84t98 -84zM326 827q0 -84 -98 -84t-97 84h195zM326 72h-195q0 38 27 62t69 24q99 0 99 -86zM326 72q0 -82 -98 -82t-97 82h195z" />
    <glyph glyph-name="semicolon" unicode=";" horiz-adv-x="661" 
d="M498 168l-213 -371h-166l168 371h211zM492 827h-195q-1 84 97 84t98 -84zM492 827q0 -84 -98 -84t-97 84h195z" />
    <glyph glyph-name="less" unicode="&#x3c;" horiz-adv-x="1265" 
d="M211 616q604 -297 965 -471v-143q-371 180 -1108 541v143q725 369 1089 553v-143q-354 -179 -946 -480z" />
    <glyph glyph-name="equal" unicode="=" horiz-adv-x="1390" 
d="M133 377v137h1124v-137h-1124zM133 831v138h1124v-138h-1124z" />
    <glyph glyph-name="greater" unicode="&#x3e;" horiz-adv-x="1263" 
d="M1053 625q-604 297 -965 471v143q371 -180 1108 -541v-143q-725 -369 -1090 -553v143q355 179 947 480z" />
    <glyph glyph-name="question" unicode="?" horiz-adv-x="784" 
d="M283 1495q181 0 291 -120t110 -307t-91 -311t-251 -155v-149h-166v276h64q137 0 212 92q74 93 74 235t-67 222q-68 80 -193 80q-53 0 -110 -25l-54 129q82 33 181 33zM358 61q0 -84 -98 -84q-43 0 -70 23t-26 61h194zM358 61h-194q0 37 26 61q27 24 70 23q98 0 98 -84z
" />
    <glyph glyph-name="at" unicode="@" horiz-adv-x="1531" 
d="M932 422q0 250 -177 250t-177 -240q0 -272 190 -272q72 0 108 47q35 47 58 139v16l-2 17v43zM784 -305q-328 0 -509 190q-181 191 -181 529t180 528t500 190t490 -186q168 -188 168 -516q0 -375 -256 -375q-131 0 -193 103q-77 -127 -237 -127t-239 104q-79 105 -79 287
t85 281t246 99t241 -100q80 -102 81 -274q0 -82 5 -129t30 -85t69 -38q45 0 67 37t27 85t5 126q0 264 -131 419t-380 155t-388 -156q-139 -154 -139 -428t142 -432t405 -158q137 -1 258 67l63 -110q-143 -86 -330 -86z" />
    <glyph glyph-name="A" unicode="A" 
d="M1573 129v-129h-653v129h239q-49 150 -110 346h-525q-34 -94 -64 -179t-59 -167h230v-129h-651v129h241l506 1350h154l448 -1350h244zM799 1262q-68 -188 -228 -650h435q-160 505 -207 650z" />
    <glyph glyph-name="B" unicode="B" horiz-adv-x="1267" 
d="M459 899h227q106 0 171 55t65 162t-58 170t-166 64h-239v-451zM702 0h-636v129h221v1221h-219v129h630q182 -1 284 -97t103 -274q0 -178 -163 -270q118 -54 184 -156t65 -246q-1 -208 -125 -322t-344 -114zM459 129h243q143 0 224 81q80 80 80 232t-84 239t-236 87h-227
v-639z" />
    <glyph glyph-name="C" unicode="C" horiz-adv-x="1280" 
d="M1178 1083h-131v181q-147 88 -312 88q-239 0 -353 -172t-114 -456t106 -440q106 -157 335 -157q121 0 212 41t191 129l92 -100q-114 -107 -230 -157t-274 -50q-294 0 -446 191t-152 540t162 559t479 209q210 -1 435 -148v-258z" />
    <glyph glyph-name="D" unicode="D" horiz-adv-x="1454" 
d="M455 1350v-1221h268q469 0 469 590q0 631 -506 631h-231zM68 1479h626q332 0 498 -197t166 -550q0 -352 -163 -542t-486 -190h-641v129h221v1221h-221v129z" />
    <glyph glyph-name="E" unicode="E" horiz-adv-x="1216" 
d="M1139 0h-1073v129h223v1221h-223v129h1013v-312h-133v183h-491v-521h512v-131h-512v-569h553v182h131v-311z" />
    <glyph glyph-name="F" unicode="F" horiz-adv-x="1169" 
d="M457 1350v-521h499v-131h-499v-569h223v-129h-614v129h225v1221h-225v129h1021v-312h-133v183h-497z" />
    <glyph glyph-name="G" unicode="G" horiz-adv-x="1413" 
d="M1155 573h-289v129h441v-542q-150 -90 -267 -130t-270 -40q-326 0 -498 198t-172 551q0 352 165 551t485 199q281 0 526 -170v-256h-133v178q-183 111 -409 111t-347 -159t-121 -445t124 -454q124 -167 380 -167q209 0 385 94v352z" />
    <glyph glyph-name="H" unicode="H" horiz-adv-x="1650" 
d="M1194 678h-737v-549h223v-129h-614v129h225v1221h-225v129h614v-129h-223v-541h737v541h-221v129h612v-129h-225v-1221h225v-129h-612v129h221v549z" />
    <glyph glyph-name="I" unicode="I" horiz-adv-x="745" 
d="M682 0h-616v129h223v1221h-223v129h616v-129h-227v-1221h227v-129z" />
    <glyph glyph-name="J" unicode="J" horiz-adv-x="958" 
d="M520 471v879h-223v129h616v-129h-227v-879q0 -479 -389 -479q-125 0 -244 94q2 4 78 102q102 -66 166 -65q125 0 174 91t49 257z" />
    <glyph glyph-name="K" unicode="K" horiz-adv-x="1421" 
d="M1405 129v-129h-637v129h174q-84 86 -246 253q-161 167 -239 247v-500h182v-129h-573v129h225v1221h-225v129h565v-129h-174v-428l438 428h-160v129h627v-129h-262q-149 -144 -596 -572l649 -649h252z" />
    <glyph glyph-name="L" unicode="L" horiz-adv-x="1193" 
d="M1128 0h-1062v129h225v1221h-225v129h614v-129h-223v-1221h538v182h133v-311z" />
    <glyph glyph-name="M" unicode="M" horiz-adv-x="1935" 
d="M1565 1350l96 -1221h229v-129h-616v129h223q-12 178 -67 1006l-379 -1135h-166q-57 168 -164 487t-219 641q-27 -387 -68 -999h228v-129h-615v129h236l88 1221h-221v129h380q55 -164 206 -602t231 -676q208 621 430 1278h385v-129h-217z" />
    <glyph glyph-name="N" unicode="N" horiz-adv-x="1691" 
d="M1427 0h-184q-160 245 -786 1212v-1083h223v-129h-614l2 129h223v1221h-223v129h401q115 -178 252 -389q137 -212 289 -446t252 -388v1094h-222v129h609v-129h-222v-1350z" />
    <glyph glyph-name="O" unicode="O" horiz-adv-x="1406" 
d="M696 1354q-226 0 -326 -168t-100 -448t106 -446t330 -167q226 0 329 170t103 447q0 276 -108 444q-109 168 -334 168zM707 1489q295 0 447 -204t151 -544q0 -339 -154 -545t-449 -206q-296 0 -448 204t-152 544q0 339 155 545t450 206z" />
    <glyph glyph-name="P" unicode="P" horiz-adv-x="1193" 
d="M455 129h227v-129h-614v129h221v1221h-221v129h548q224 0 356 -130q132 -131 132 -347t-123 -334t-334 -123q-96 0 -192 41v-457zM674 672q118 0 192 87t74 241t-92 252q-92 97 -252 98h-141v-627q101 -51 219 -51z" />
    <glyph glyph-name="Q" unicode="Q" horiz-adv-x="1439" 
d="M1141 741q0 275 -108 441t-332 166q-225 0 -329 -168t-104 -444q0 -278 109 -444t336 -165q152 0 250 84t138 217t40 313zM102 737q0 340 157 548t452 208t445 -204t151 -521q0 -317 -117 -517t-346 -247q109 -174 246 -253t340 -79v-135q-268 1 -446 107t-312 346
q-203 10 -342 127q-228 196 -228 620z" />
    <glyph glyph-name="R" unicode="R" horiz-adv-x="1490" 
d="M457 1350v-564h239q131 0 202 74t71 210t-78 208t-221 72h-213zM457 655v-526h223v-129h-614v129h225v1221h-225v129h632q207 1 322 -101t115 -278q0 -333 -273 -418l348 -553h275v-129h-375l-416 655h-237z" />
    <glyph glyph-name="S" unicode="S" horiz-adv-x="1077" 
d="M115 393h131v-184q139 -84 267 -84t208 68t80 180t-88 184q-88 73 -202 132q-114 60 -166 94q-145 95 -188 199q-26 62 -26 142q0 168 110 262t291 95q104 0 188 -30t183 -95v-271h-133v199q-128 72 -238 72t-174 -60t-62 -169q1 -108 91 -183q66 -55 182 -116
q115 -62 170 -98t115 -90q114 -103 113 -279q0 -175 -128 -273t-333 -98t-391 125v278z" />
    <glyph glyph-name="T" unicode="T" horiz-adv-x="1263" 
d="M549 1341h-340v-174h-131v312h1110v-312h-133v174h-340v-1212h223v-129h-614v129h225v1212z" />
    <glyph glyph-name="U" unicode="U" horiz-adv-x="1601" 
d="M426 1350v-766q0 -221 91 -336t292 -115q365 0 365 412v805h-232v129h614v-129h-231v-789q0 -571 -528 -571q-522 0 -523 569v791h-227v129h615v-129h-236z" />
    <glyph glyph-name="V" unicode="V" horiz-adv-x="1570" 
d="M-16 1350v129h665v-129h-250q68 -203 195 -584t186 -555q168 520 373 1139h-252v129h664v-129h-242l-453 -1350h-182q-414 1211 -463 1350h-241z" />
    <glyph glyph-name="W" unicode="W" horiz-adv-x="1929" 
d="M0 1350v129h621v-129h-238q162 -750 229 -1078q211 907 279 1207h160q54 -267 249 -1207q111 508 238 1078h-233v129h618v-129h-235q-129 -559 -310 -1350h-149q-146 662 -260 1198q-98 -409 -289 -1198h-150l-299 1350h-231z" />
    <glyph glyph-name="X" unicode="X" horiz-adv-x="1464" 
d="M1454 129v-129h-623v129h201q-152 256 -297 500q-184 -307 -299 -500h193v-129h-621v129h238q123 201 397 653q-172 291 -338 568h-242v129h609v-129h-185q102 -172 248 -414q147 240 252 414h-188v129h608v-129h-240q-121 -203 -340 -568l392 -653h235z" />
    <glyph glyph-name="Y" unicode="Y" horiz-adv-x="1400" 
d="M776 129h215v-129h-612v129h217v561q-281 532 -348 660h-250v129h629v-129h-211q145 -285 268 -531q80 143 291 531h-209v129h629v-129h-252q-345 -619 -367 -656v-565z" />
    <glyph glyph-name="Z" unicode="Z" horiz-adv-x="1251" 
d="M1047 129v180h131v-309h-1110v129q276 397 449 646t209 300t71 101t121 174h-650v-181h-131v310h983v-129q-278 -396 -452 -646t-238 -339t-166 -236h783z" />
    <glyph glyph-name="bracketleft" unicode="[" horiz-adv-x="530" 
d="M467 1577v-141h-178v-1536h178v-144h-344v1821h344z" />
    <glyph glyph-name="backslash" unicode="\" horiz-adv-x="1009" 
d="M942 -139h-172q-236 623 -702 1868h172q235 -623 702 -1868z" />
    <glyph glyph-name="bracketright" unicode="]" horiz-adv-x="532" 
d="M244 -100v1536h-178v141h344v-1821h-347l3 144h178z" />
    <glyph glyph-name="asciicircum" unicode="^" horiz-adv-x="1017" 
d="M113 942l311 664h168q276 -586 313 -664h-166q-121 255 -149 315q-29 60 -82 175q-76 -164 -229 -490h-166z" />
    <glyph glyph-name="underscore" unicode="_" horiz-adv-x="1243" 
d="M10 -403v129h1221v-129h-1221z" />
    <glyph glyph-name="grave" unicode="`" horiz-adv-x="858" 
d="M582 1210h-193q-35 37 -148 170q-114 133 -149 170h193q37 -39 151 -172t146 -168z" />
    <glyph glyph-name="a" unicode="a" horiz-adv-x="1114" 
d="M260 322q0 -203 184 -203q102 0 165 59q36 33 58 61q21 28 60 83v239q-19 -4 -117 -18q-98 -13 -174 -25t-126 -62t-50 -134zM1104 0h-377v147q-69 -77 -139 -117t-172 -40q-156 0 -237 85t-81 240q0 268 346 320q49 8 139 19t144 20v67q0 227 -223 228q-119 0 -228 -80
v-189h-131v248q160 150 381 150q367 0 367 -320v-649h211v-129z" />
    <glyph glyph-name="b" unicode="b" horiz-adv-x="1257" 
d="M705 125h4q145 0 216 116q71 117 69 303t-70 304q-70 118 -224 119q-154 0 -292 -146v-569q131 -127 297 -127zM408 0h-388v129h222v1378l-222 2v129h388v-661q145 125 313 125q211 0 325 -155t114 -403t-117 -401q-116 -154 -326 -153q-176 0 -309 104v-94z" />
    <glyph glyph-name="c" unicode="c" horiz-adv-x="1011" 
d="M907 709h-131v188q-98 70 -198 70q-314 0 -314 -421t320 -421q125 0 235 137l107 -84q-125 -188 -357 -188q-231 0 -351 146t-120 410t123 410q123 145 363 146q163 0 323 -137v-256z" />
    <glyph glyph-name="d" unicode="d" horiz-adv-x="1267" 
d="M94 542q0 248 125 402t352 154q158 0 281 -84v495h-221v129h395v-1509h221v-129h-395v102q-113 -109 -279 -108q-225 0 -352 150t-127 398zM260 545q0 -188 85 -305t242 -117t265 151v588q-110 104 -264 106q-154 1 -241 -117t-87 -306z" />
    <glyph glyph-name="e" unicode="e" horiz-adv-x="1052" 
d="M584 123q74 0 127 30t114 91l101 -94q-84 -84 -161 -122t-181 -38q-240 0 -360 154t-120 417q0 261 109 401t322 140t315 -130t102 -362v-96h-682q18 -391 314 -391zM535 969q-246 0 -265 -332h525q-6 332 -260 332z" />
    <glyph glyph-name="f" unicode="f" horiz-adv-x="878" 
d="M479 1073h324v-129h-324v-815h223v-129h-612v129h223v815h-247v129h247v203q-2 168 85 269t243 102q100 0 217 -66v-252h-131v178q-45 16 -86 17q-162 0 -162 -248v-203z" />
    <glyph glyph-name="g" unicode="g" horiz-adv-x="1107" 
d="M770 720q0 112 -58 182t-164 71q-106 -1 -170 -73q-63 -72 -63 -185q-1 -113 63 -179t170 -67q106 0 164 69q58 70 58 182zM158 232q0 115 102 204q-110 100 -110 274t108 284q108 108 280 108q171 0 273 -88q123 76 178 106l78 -121q-55 -33 -170 -94q39 -82 39 -186
q0 -175 -111 -277t-290 -102q-88 0 -162 29q-49 -51 -49 -129q0 -146 224 -164t352 -93t129 -249t-137 -265t-350 -91t-341 94q-129 96 -129 281t166 296q-80 68 -80 183zM550 -496q142 0 234 56q94 56 94 174q0 117 -109 165q-91 40 -217 51t-200 36q-115 -78 -114 -232
q0 -118 85 -184t227 -66z" />
    <glyph glyph-name="h" unicode="h" horiz-adv-x="1314" 
d="M737 1098q340 0 340 -418v-551h221v-129h-569v129h182v537q0 303 -213 303q-177 0 -288 -211v-629h182v-129h-572v129h226v1378l-226 2v129h390v-708q131 168 327 168z" />
    <glyph glyph-name="i" unicode="i" horiz-adv-x="677" 
d="M279 963h-222v129h396v-963h202v-129h-598v129h222v834zM463 1372q-1 -82 -99 -82t-98 82h197zM463 1372h-197q0 39 27 62q27 22 71 22t71 -22q28 -22 28 -62z" />
    <glyph glyph-name="j" unicode="j" horiz-adv-x="593" 
d="M92 -496q84 0 131 65t47 161v1233h-227v129h391v-1362q0 -158 -96 -255t-252 -98q-26 1 -59 5q16 86 24 126q25 -4 41 -4zM453 1372q1 -82 -97 -82t-98 82h195zM453 1372h-195q0 39 26 62t68 22q101 0 101 -84z" />
    <glyph glyph-name="k" unicode="k" horiz-adv-x="1292" 
d="M1286 131v-131h-352q-53 41 -240 200t-282 238v-309h163v-129h-555v129h226v1380h-223v129h389v-964q267 220 344 289h-150v129h615v-129h-258q-463 -379 -496 -406q51 -41 136 -111l204 -168q119 -99 174 -147h305z" />
    <glyph glyph-name="l" unicode="l" horiz-adv-x="657" 
d="M410 129h227v-129h-614v129h221v1378l-219 2v129h385v-1509z" />
    <glyph glyph-name="m" unicode="m" horiz-adv-x="1880" 
d="M741 1102q228 0 277 -193q117 191 304 191q186 0 250 -102t64 -318v-551h228v-129h-549v129h155v537q0 158 -34 230t-150 73q-154 0 -246 -205q2 -39 2 -84v-551h158v-129h-481v129h158v537q0 158 -36 230t-151 73q-152 0 -241 -201v-639h157v-129h-549v129h226v834h-226
v129h392v-148q111 158 292 158z" />
    <glyph glyph-name="n" unicode="n" horiz-adv-x="1351" 
d="M283 963h-226v129h392v-162q131 170 327 170q338 0 338 -420v-551h221v-129h-567v129h180v537q0 301 -221 301q-86 -1 -158 -57t-120 -148v-633h176v-129h-568v129h226v834z" />
    <glyph glyph-name="o" unicode="o" horiz-adv-x="1134" 
d="M258 547q0 -424 313 -424q154 0 227 114q72 115 72 309t-76 310t-233 115q-159 1 -231 -115t-72 -309zM565 -10q-231 0 -349 150t-118 405q0 257 119 407t350 150t351 -151t118 -407q0 -256 -120 -406q-120 -148 -351 -148z" />
    <glyph glyph-name="p" unicode="p" horiz-adv-x="1259" 
d="M700 119q152 1 224 115t71 301v16q0 188 -69 304q-70 116 -228 116t-288 -129v-584q138 -139 290 -139zM727 1104q215 0 325 -152t110 -400t-110 -406q-110 -157 -327 -156q-178 0 -315 119v-594l206 2v-131h-598v131h226v1446h-224v129h390v-109q145 121 317 121z" />
    <glyph glyph-name="q" unicode="q" horiz-adv-x="1251" 
d="M549 -10q-221 0 -337 152t-116 401q0 251 111 405t334 154q158 0 311 -115v105h379v-129h-205v-1448l205 2v-131h-598v131l219 -2v604q-139 -129 -303 -129zM557 969q-151 0 -223 -116t-72 -306t73 -309t231 -119t286 151v590q-143 109 -295 109z" />
    <glyph glyph-name="r" unicode="r" horiz-adv-x="864" 
d="M813 969q-245 0 -364 -144v-696h206v-129h-598l2 129h224v834h-226v129h392v-125q137 135 364 135v-133z" />
    <glyph glyph-name="s" unicode="s" horiz-adv-x="917" 
d="M448 969q-170 0 -169 -147q0 -70 51 -116t177 -90t221 -109q95 -66 94 -213q-1 -148 -97 -226t-260 -78t-367 108h-2v271h133v-179q133 -66 233 -66t149 46q51 44 51 106t-18 95q-28 54 -126 96q-33 14 -94 35q-147 51 -221 125q-74 75 -74 205t85 200q86 70 244 70
t296 -94v-260h-133v178q-89 43 -173 43z" />
    <glyph glyph-name="t" unicode="t" horiz-adv-x="782" 
d="M231 319v642h-192v131h192v159l166 84v-243h330v-131h-330v-635q0 -98 30 -150q29 -52 99 -51q70 0 144 45l63 -115q-119 -66 -223 -65q-279 0 -279 329z" />
    <glyph glyph-name="u" unicode="u" horiz-adv-x="1290" 
d="M897 963h-223v129h389v-963h207v-129h-373v147q-123 -158 -285 -157q-369 0 -368 418v555h-226v129h392v-678q0 -291 225 -291q145 0 262 207v633z" />
    <glyph glyph-name="v" unicode="v" horiz-adv-x="1359" 
d="M12 963v129h596v-129h-182q25 -75 112 -341t134 -409l264 750h-182v129h596v-129h-246q-234 -653 -344 -963h-176q-96 283 -328 963h-244z" />
    <glyph glyph-name="w" unicode="w" horiz-adv-x="1923" 
d="M12 963v129h606v-129h-221q98 -332 213 -727q212 647 281 856h164q207 -696 252 -848q72 229 221 719h-211v129h596v-129h-232l-301 -963h-149q-119 391 -260 864q-156 -467 -289 -864h-150l-286 963h-234z" />
    <glyph glyph-name="x" unicode="x" horiz-adv-x="1339" 
d="M49 963v129h567v-129h-133q80 -115 189 -273q55 80 100 146t88 127h-135v129h569v-129h-272q-115 -168 -268 -394q209 -303 303 -440h262v-129h-582v129h150q-96 143 -217 320q-99 -143 -219 -320h149v-129h-582v129h263q112 163 307 442q-203 302 -266 392h-273z" />
    <glyph glyph-name="y" unicode="y" horiz-adv-x="1351" 
d="M20 963v129h605v-129h-195q94 -244 234 -611q162 379 260 611h-179v129h598v-129h-249q-643 -1513 -670 -1577h-373v129l254 2q103 235 275 641q-107 271 -320 805h-240z" />
    <glyph glyph-name="z" unicode="z" horiz-adv-x="995" 
d="M115 780v312h766v-129q-345 -481 -418 -585q-75 -104 -99 -138t-79 -111h497v182h131v-311h-829v129l588 834h-426v-183h-131z" />
    <glyph glyph-name="braceleft" unicode="{" horiz-adv-x="552" 
d="M346 92q0 -201 131 -201v-129q-137 0 -210 92t-72 244v346q0 184 -132 185v135q131 0 132 178v354q0 154 72 243q73 89 210 89v-129q-131 0 -131 -203v-335q0 -177 -94 -267q96 -88 94 -264v-338z" />
    <glyph glyph-name="bar" unicode="|" horiz-adv-x="413" 
d="M289 -614h-166v2252h166v-2252z" />
    <glyph glyph-name="braceright" unicode="}" horiz-adv-x="552" 
d="M76 1499v129q137 0 210 -89t72 -243v-354q0 -178 131 -178v-135q-131 0 -131 -185v-346q0 -154 -72 -244t-210 -92v129q133 0 133 201v338q0 176 94 266q-94 86 -94 265v335q0 203 -133 203z" />
    <glyph glyph-name="asciitilde" unicode="~" horiz-adv-x="1259" 
d="M426 752q78 0 133 -28t130 -98t159 -69q41 0 72 31q31 32 44 62t31 89q37 -11 131 -45q-43 -137 -103 -204q-59 -68 -161 -66t-160 31t-135 97q-76 68 -143 66q-67 0 -102 -49t-60 -137l-129 47q35 137 101 205q67 68 192 68z" />
    <glyph glyph-name="exclamdown" unicode="&#xa1;" horiz-adv-x="471" 
d="M152 0l2 1010h165l-2 -1010h-165zM133 1399h203q0 -41 -28 -64t-74 -23t-73 24q-28 22 -28 63zM133 1399q0 84 103 84q44 0 72 -23t28 -61h-203z" />
    <glyph glyph-name="cent" unicode="&#xa2;" horiz-adv-x="1183" 
d="M650 1262q-186 0 -289 -140t-103 -370t92 -372t281 -142q104 0 182 38t174 123l98 -100q-176 -168 -376 -193v-215h-166v215q-221 25 -335 197q-114 171 -114 443t126 444t360 203v200h165v-196q105 -13 182 -48t160 -104l-90 -106q-161 123 -347 123z" />
    <glyph glyph-name="sterling" unicode="&#xa3;" horiz-adv-x="933" 
d="M801 131v-131h-727v129q215 2 215 326q-1 93 -11 153t-14 99h-135v129h115q-17 113 -17 193q0 81 17 155q59 297 334 297q143 0 266 -111l-43 -47q-5 -5 -41 -47q-104 80 -191 80q-188 0 -188 -303q0 -96 20 -217h310v-131h-289q18 -106 18 -226q0 -227 -86 -350l112 2
h335z" />
    <glyph glyph-name="currency" unicode="&#xa4;" horiz-adv-x="1062" 
d="M528 883q-92 -1 -138 -67t-46 -178t47 -180t143 -69q96 0 138 70q43 70 43 182q0 242 -187 242zM186 644q0 124 54 212q-90 96 -127 135l114 103q80 -86 121 -129q82 47 188 47t181 -41l119 125l112 -103q-8 -10 -123 -131q51 -90 51 -215t-47 -219q13 -10 27 -26t26 -30
q12 -13 37 -39q24 -26 42 -44l-119 -96q-45 50 -115 120q-79 -53 -195 -53t-200 55q-39 -43 -119 -125l-113 103q87 93 131 137q-45 90 -45 214z" />
    <glyph glyph-name="yen" unicode="&#xa5;" horiz-adv-x="1515" 
d="M858 1350v129h600v-129h-223q-51 -82 -162 -264t-170 -279h250v-143h-322v-125h322v-144h-322v-266l226 2v-131h-615v131h226v264h-316v144h316v125h-316v143h250l-295 543h-250v129h613v-129h-183l267 -514q233 399 301 514h-197z" />
    <glyph glyph-name="brokenbar" unicode="&#xa6;" horiz-adv-x="444" 
d="M305 -614h-166v761h166v-761zM305 877h-166v761h166v-761z" />
    <glyph glyph-name="section" unicode="&#xa7;" horiz-adv-x="952" 
d="M690 737q0 76 -58 110t-125 57q-67 22 -85 30t-31 12q-121 -61 -121 -192q0 -59 24 -81q24 -23 36 -35q23 -23 104 -55q82 -32 97 -36q14 -4 26 -10q133 55 133 200zM166 1244q0 140 85 216t228 76t291 -92v-246h-133v172q-76 37 -154 37q-79 0 -119 -43t-40 -113
q0 -125 176 -192q158 -54 230 -101t99 -98t27 -121q0 -195 -156 -280q100 -84 102 -223q2 -138 -88 -216q-89 -78 -251 -78t-316 128v243h134v-180q98 -61 186 -61t132 44t44 108t-36 102q-37 39 -71 55t-110 45q-158 55 -240 126t-82 200q0 180 162 272q-100 80 -100 220z
" />
    <glyph glyph-name="dieresis" unicode="&#xa8;" horiz-adv-x="815" 
d="M283 1362q0 -41 -28 -64t-75 -22q-96 0 -96 86h199zM283 1362h-199q0 40 27 62t71 22t72 -22q29 -22 29 -62zM594 1362q0 -86 -98 -86t-99 86h197zM594 1362h-197q1 84 99 84t98 -84z" />
    <glyph glyph-name="copyright" unicode="&#xa9;" horiz-adv-x="1421" 
d="M238 659q0 -247 133 -399t353 -152t341 154t121 398t-125 399t-346 155t-349 -154t-128 -401zM100 659q0 293 168 477t446 185q278 0 443 -184q164 -183 164 -477t-161 -477q-162 -183 -440 -183t-449 183t-171 476zM971 770h-125v121q-51 33 -137 33q-85 0 -135 -71
t-50 -191q0 -262 185 -263q98 0 190 74l82 -70q-61 -63 -126 -88t-153 -24q-152 0 -230 98t-79 269q0 170 87 272t240 102t251 -82v-180z" />
    <glyph glyph-name="ordfeminine" unicode="&#xaa;" horiz-adv-x="884" 
d="M254 1079q0 -106 123 -106q49 0 84 24q34 25 69 74v141q-158 -23 -163 -24q-113 -18 -113 -109zM530 1348q0 117 -139 116q-76 0 -147 -59v-74h-94v137q106 106 242 106q280 1 280 -196v-411h94v-93h-236v72q-78 -78 -182 -78t-166 54q-61 54 -61 151q0 176 239 211
q8 3 170 21v43z" />
    <glyph glyph-name="guillemotleft" unicode="&#xab;" horiz-adv-x="1001" 
d="M516 504v143l371 223v-141l-254 -154l254 -157v-142zM115 504v143l370 223v-141l-254 -154l254 -157v-142z" />
    <glyph glyph-name="logicalnot" unicode="&#xac;" horiz-adv-x="1247" 
d="M164 709h952v-410h-164v268h-788v142z" />
    <glyph glyph-name="registered" unicode="&#xae;" horiz-adv-x="1435" 
d="M229 657q-1 -255 135 -407t367 -152t353 153t122 405t-126 410q-126 157 -358 157t-363 -156q-130 -156 -130 -410zM100 658q0 300 167 482t454 181q287 0 451 -181q164 -180 163 -480t-161 -480t-447 -180t-457 179t-170 479zM655 580v-174h78v-109h-309v109h94v507h-94
v109h303q105 0 167 -58t62 -161q0 -133 -96 -189q20 -46 36 -75q16 -30 36 -73t31 -60h86v-109h-187q-37 74 -149 283h-58zM655 913v-225h62q113 0 112 109q0 55 -33 86q-34 31 -94 30h-47z" />
    <glyph glyph-name="macron" unicode="&#xaf;" horiz-adv-x="602" 
d="M444 1399v-131h-403v131h403z" />
    <glyph glyph-name="degree" unicode="&#xb0;" horiz-adv-x="876" 
d="M246 1034q0 -280 194 -278q184 0 184 279t-194 280q-184 -1 -184 -281zM111 1037q0 183 82 291q83 108 245 108t245 -109t83 -292t-84 -292t-247 -109t-244 110q-80 110 -80 293z" />
    <glyph glyph-name="plusminus" unicode="&#xb1;" horiz-adv-x="1316" 
d="M111 63v142h469v362h-467v144h467v487h155v-489h469v-142h-469v-362h469v-142h-1093z" />
    <glyph glyph-name="twosuperior" unicode="&#xb2;" horiz-adv-x="888" 
d="M446 1526q125 0 200 -70t75 -192q0 -64 -27 -120q-26 -56 -54 -86t-91 -91q-88 -76 -258 -199h356v147h109v-260h-635v113q113 96 229 194t133 115l21 21q28 28 34 36t15 23q10 15 12 23q1 8 9 26t8 69q0 52 -39 94t-107 42q-105 0 -168 -131l-104 49q76 197 282 197z
M647 768q23 -20 36 -32q-14 13 -36 32z" />
    <glyph glyph-name="threesuperior" unicode="&#xb3;" horiz-adv-x="804" 
d="M368 1522q290 0 288 -246q0 -125 -126 -186q154 -50 155 -186t-85 -199t-235 -64h-15q-114 0 -223 74l68 86q84 -49 170 -49h6q72 0 108 25q58 40 60 114q0 135 -250 145v103q221 16 221 137q0 133 -148 133q-70 0 -147 -76l-80 74q95 115 233 115z" />
    <glyph glyph-name="acute" unicode="&#xb4;" horiz-adv-x="612" 
d="M510 1550l-297 -340h-193l297 340h193z" />
    <glyph glyph-name="paragraph" unicode="&#xb6;" horiz-adv-x="1380" 
d="M889 129h201v1221h-201v-1221zM723 1350h-139q-160 0 -252 -98t-92 -252t72 -241t192 -87q118 0 219 49v629zM1255 0h-757v129h225v457q-98 -41 -191 -41q-214 4 -336 123q-122 118 -122 334t133 346t354 131h694v-1479z" />
    <glyph glyph-name="periodcentered" unicode="&#xb7;" horiz-adv-x="456" 
d="M328 901q0 -84 -100 -84t-99 84h199zM328 901h-199q0 39 27 63q28 24 72 24t72 -24q28 -22 28 -63z" />
    <glyph glyph-name="cedilla" unicode="&#xb8;" horiz-adv-x="634" 
d="M471 -202q0 -88 -61 -136q-60 -49 -154 -49t-174 49l61 102q61 -36 109 -36q99 1 96 75q0 72 -61 72q-27 1 -56 -22l-112 104q4 10 51 101t61 122l127 -90q-14 -29 -49 -94q76 -8 119 -59t43 -139z" />
    <glyph glyph-name="onesuperior" unicode="&#xb9;" horiz-adv-x="745" 
d="M489 1507v-741h150v-111h-449v111h156v590l-145 -144l-80 84l225 211h143z" />
    <glyph glyph-name="ordmasculine" unicode="&#xba;" horiz-adv-x="854" 
d="M256 1231q0 -246 178 -246q158 0 158 242q0 105 -41 167t-127 62t-127 -62t-41 -163zM119 1226q0 165 79 258q78 93 230 93t230 -94t77 -259q0 -165 -78 -262q-77 -98 -229 -98t-230 98t-79 264z" />
    <glyph glyph-name="guillemotright" unicode="&#xbb;" horiz-adv-x="1001" 
d="M459 504l-373 -228v142l256 157l-254 154v141l371 -223v-143zM860 504l-373 -228v142l256 157l-256 154v141l373 -223v-143z" />
    <glyph glyph-name="onequarter" unicode="&#xbc;" horiz-adv-x="1816" 
d="M442 1507v-739h150v-113h-451v113h156v588l-145 -144l-80 84l225 211h145zM1421 215v336l-239 -336h239zM1765 -135h-542v102h198v137h-317l-68 111l385 543h144v-543h164v-111h-164v-137h200v-102zM602 -135h-156l764 1638h156zM369 711q2 0 3 1t5 4t11 9t22 17l-41 -29
q-2 -2 -6 -5t-11 -9q15 12 17 12z" />
    <glyph glyph-name="onehalf" unicode="&#xbd;" horiz-adv-x="1904" 
d="M438 1507v-739h150v-113h-451v113h156v588l-146 -144l-79 84l225 211h145zM639 -135h-158l764 1638h156zM1798 475q0 -63 -26 -119t-56 -87q-29 -32 -90 -91q-95 -81 -258 -198h356v147h111v-260h-637v113q57 49 195 164t162 139l26 26q55 54 59 72t12 35t7 71
q0 54 -38 95t-108 41q-106 0 -167 -131l-105 49q74 197 283 196q126 1 200 -69t74 -193zM399 737l4 3zM366 713q-1 0 -2 -1q-2 -1 -6 -4t-10 -9q16 12 17 12q2 0 2 1t4 3t11 9q-7 -5 -15 -11h-1z" />
    <glyph glyph-name="threequarters" unicode="&#xbe;" horiz-adv-x="1851" 
d="M1456 215v336l-239 -336h239zM1800 -135h-543v102h199v137h-317l-68 111l385 543h143v-543h166v-111h-166v-137h201v-102zM643 -135h-158l764 1638h156zM461 1257q0 134 -151 134q-73 0 -144 -76l-82 74q98 115 236 115t212 -61q74 -60 74 -183t-125 -189
q154 -49 154 -192q2 -127 -84 -191t-232 -63h-20q-110 -1 -221 71l67 86q80 -47 168 -47h13q101 0 142 63q22 32 21 76q0 131 -249 146v100q221 16 221 137z" />
    <glyph glyph-name="questiondown" unicode="&#xbf;" horiz-adv-x="784" 
d="M504 -23q-184 0 -294 121q-110 120 -110 308t91 312t251 154v150h166v-277h-63q-135 0 -210 -92t-75 -234t67 -222t191 -80q58 -1 113 24l51 -131q-90 -33 -178 -33zM428 1413q0 82 96 82q45 1 72 -21t27 -61h-195zM428 1413h195q0 -39 -28 -61t-71 -23q-96 0 -96 84z
" />
    <glyph glyph-name="Agrave" unicode="&#xc0;" 
d="M1573 129v-129h-653v129h239q-49 150 -110 346h-525q-34 -94 -64 -179t-59 -167h230v-129h-651v129h241l506 1350h154l448 -1350h244zM799 1262q-68 -188 -228 -650h435q-160 505 -207 650zM1026 1663h-192q-35 37 -148 170t-147 170h192q35 -37 147 -170t148 -170z" />
    <glyph glyph-name="Aacute" unicode="&#xc1;" 
d="M1573 129v-129h-653v129h239q-49 150 -110 346h-525q-34 -94 -64 -179t-59 -167h230v-129h-651v129h241l506 1350h154l448 -1350h244zM799 1262q-68 -188 -228 -650h435q-160 505 -207 650zM1071 2003l-297 -340h-192l297 340h192z" />
    <glyph glyph-name="Acircumflex" unicode="&#xc2;" 
d="M1573 129v-129h-653v129h239q-49 150 -110 346h-525q-34 -94 -64 -179t-59 -167h230v-129h-651v129h241l506 1350h154l448 -1350h244zM799 1262q-68 -188 -228 -650h435q-160 505 -207 650zM393 1688l297 340h230q34 -37 148 -170t149 -170h-195q-10 10 -217 251
q-193 -225 -219 -251h-193z" />
    <glyph glyph-name="Atilde" unicode="&#xc3;" 
d="M1573 129v-129h-653v129h239q-49 150 -110 346h-525q-34 -94 -64 -179t-59 -167h230v-129h-651v129h241l506 1350h154l448 -1350h244zM799 1262q-68 -188 -228 -650h435q-160 505 -207 650zM967 1669q-100 0 -191 103q-29 33 -39 43q-35 36 -81 36q-46 -1 -74 -27
t-39 -56q-12 -30 -29 -89l-106 47q27 121 80 188q54 67 157 66q55 0 94 -22t82 -69q43 -46 73 -65q30 -20 68 -20t64 27t36 55t28 84l106 -49q-33 -121 -81 -187t-148 -65z" />
    <glyph glyph-name="Adieresis" unicode="&#xc4;" 
d="M1573 129v-129h-653v129h239q-49 150 -110 346h-525q-34 -94 -64 -179t-59 -167h230v-129h-651v129h241l506 1350h154l448 -1350h244zM799 1262q-68 -188 -228 -650h435q-160 505 -207 650zM745 1729h-196q1 39 27 63t69 23q100 0 100 -86zM745 1729q0 -84 -98 -84
t-98 84h196zM1059 1729h-199q0 39 27 63t71 23q101 0 101 -86zM1059 1729q1 -84 -99 -84t-100 84h199z" />
    <glyph glyph-name="Aring" unicode="&#xc5;" 
d="M1573 129v-129h-653v129h239q-49 150 -110 346h-525q-34 -94 -64 -179t-59 -167h230v-129h-651v129h241l506 1350h154l448 -1350h244zM799 1262q-68 -188 -228 -650h435q-160 505 -207 650zM802 2200q124 0 196 -71t71 -197q0 -126 -71 -198q-72 -72 -194 -71t-192 73
t-69 196q0 124 67 196q68 72 192 72zM684 1933q0 -147 120 -147t120 147t-125 148q-115 -1 -115 -148z" />
    <glyph glyph-name="AE" unicode="&#xc6;" horiz-adv-x="1890" 
d="M963 561v578l-306 -578h306zM1812 0h-1073v129h224v295h-377l-158 -295h201v-129h-645v129h268l668 1221h-181v129h1014v-312h-133v183h-492v-521h512v-131h-512v-569h553v182h131v-311z" />
    <glyph glyph-name="Ccedilla" unicode="&#xc7;" horiz-adv-x="1280" 
d="M858 -272q0 -88 -62 -138t-154 -49q-92 0 -175 49l63 103q56 -35 106 -35q102 0 99 76q0 70 -61 69q-25 0 -56 -20l-112 102q20 45 57 117q-227 43 -344 227t-117 476q0 365 162 575t479 209q209 0 435 -148v-258h-131v181q-147 88 -312 88q-239 0 -353 -172t-114 -456
t106 -440q106 -157 335 -157q121 0 212 41t191 129l92 -100q-108 -103 -218 -153t-255 -54q-12 -23 -35 -64q76 -8 119 -59t43 -139z" />
    <glyph glyph-name="Egrave" unicode="&#xc8;" horiz-adv-x="1216" 
d="M1139 0h-1073v129h223v1221h-223v129h1013v-312h-133v183h-491v-521h512v-131h-512v-569h553v182h131v-311zM872 1661h-192q-35 37 -148 170t-147 170h193q35 -37 147 -170t147 -170z" />
    <glyph glyph-name="Eacute" unicode="&#xc9;" horiz-adv-x="1216" 
d="M1139 0h-1073v129h223v1221h-223v129h1013v-312h-133v183h-491v-521h512v-131h-512v-569h553v182h131v-311zM918 2001l-295 -340h-193l295 340h193z" />
    <glyph glyph-name="Ecircumflex" unicode="&#xca;" horiz-adv-x="1216" 
d="M1139 0h-1073v129h223v1221h-223v129h1013v-312h-133v183h-491v-521h512v-131h-512v-569h553v182h131v-311zM242 1683l295 340h231q36 -37 148 -170t147 -170h-193q-16 16 -219 254q-118 -147 -217 -254h-192z" />
    <glyph glyph-name="Edieresis" unicode="&#xcb;" horiz-adv-x="1216" 
d="M1139 0h-1073v129h223v1221h-223v129h1013v-312h-133v183h-491v-521h512v-131h-512v-569h553v182h131v-311zM594 1726q0 -84 -99 -84t-100 84h199zM594 1726h-199q0 39 27 63q27 23 72 23q44 0 72 -22t28 -64zM905 1726h-196q0 39 26 63q27 24 70 23q100 0 100 -86z
M905 1726q0 -84 -98 -84t-98 84h196z" />
    <glyph glyph-name="Igrave" unicode="&#xcc;" horiz-adv-x="757" 
d="M688 0h-616v129h223v1221h-223v129h616v-129h-227v-1221h227v-129zM604 1663h-192q-35 37 -149 170t-148 170h192q35 -37 149 -170t148 -170z" />
    <glyph glyph-name="Iacute" unicode="&#xcd;" horiz-adv-x="772" 
d="M684 0h-616v129h223v1221h-223v129h616v-129h-227v-1221h227v-129zM645 2003l-297 -340h-192l297 340h192z" />
    <glyph glyph-name="Icircumflex" unicode="&#xce;" horiz-adv-x="952" 
d="M784 0h-616v129h223v1221h-223v129h616v-129h-227v-1221h227v-129zM68 1686l297 339h229q34 -37 148 -169t149 -170h-193q-12 14 -219 251q-207 -238 -219 -251h-192z" />
    <glyph glyph-name="Idieresis" unicode="&#xcf;" horiz-adv-x="821" 
d="M717 0h-615v129h224v1221h-224v129h615v-129h-228v-1221h228v-129zM354 1729q0 -84 -99 -84t-99 84h198zM354 1729h-198q0 39 26 63t72 23q44 -1 72 -23t28 -63zM668 1729h-199q0 39 27 63q28 24 72 23t72 -23t28 -63zM668 1729q0 -84 -100 -84t-99 84h199z" />
    <glyph glyph-name="Eth" unicode="&#xd0;" horiz-adv-x="1454" 
d="M455 1350v-537h290v-143h-290v-541h268q469 0 469 590q0 631 -506 631h-231zM68 1479h626q332 0 498 -197t166 -550q0 -352 -163 -542t-486 -190h-641v129h221v541h-131v143h131v537h-221v129z" />
    <glyph glyph-name="Ntilde" unicode="&#xd1;" horiz-adv-x="1691" 
d="M1427 0h-184q-160 245 -786 1212v-1083h223v-129h-614l2 129h223v1221h-223v129h401q115 -178 252 -389q137 -212 289 -446t252 -388v1094h-222v129h609v-129h-222v-1350zM1028 1669q-100 0 -194 100q-25 31 -37 43q-39 39 -83 39q-44 -1 -72 -27t-40 -57t-29 -90
l-106 47q27 121 81 188q54 66 150 66t185 -92q76 -84 133 -84t83 42q25 42 50 126l106 -51q-35 -121 -81 -185t-146 -65z" />
    <glyph glyph-name="Ograve" unicode="&#xd2;" horiz-adv-x="1406" 
d="M696 1354q-226 0 -326 -168t-100 -448t106 -446t330 -167q226 0 329 170t103 447q0 276 -108 444q-109 168 -334 168zM707 1489q295 0 447 -204t151 -544q0 -339 -154 -545t-449 -206q-296 0 -448 204t-152 544q0 339 155 545t450 206zM926 1663h-195q-31 33 -144 167
q-114 134 -151 173h193q35 -37 149 -170t148 -170z" />
    <glyph glyph-name="Oacute" unicode="&#xd3;" horiz-adv-x="1406" 
d="M696 1354q-226 0 -326 -168t-100 -448t106 -446t330 -167q226 0 329 170t103 447q0 276 -108 444q-109 168 -334 168zM707 1489q295 0 447 -204t151 -544q0 -339 -154 -545t-449 -206q-296 0 -448 204t-152 544q0 339 155 545t450 206zM969 2003l-295 -340h-193l295 340
h193z" />
    <glyph glyph-name="Ocircumflex" unicode="&#xd4;" horiz-adv-x="1406" 
d="M696 1354q-226 0 -326 -168t-100 -448t106 -446t330 -167q226 0 329 170t103 447q0 276 -108 444q-109 168 -334 168zM707 1489q295 0 447 -204t151 -544q0 -339 -154 -545t-449 -206q-296 0 -448 204t-152 544q0 339 155 545t450 206zM293 1686l295 339h231
q35 -37 147 -169t148 -170h-192q-12 14 -217 251q-193 -223 -220 -251h-192z" />
    <glyph glyph-name="Otilde" unicode="&#xd5;" horiz-adv-x="1406" 
d="M696 1354q-226 0 -326 -168t-100 -448t106 -446t330 -167q226 0 329 170t103 447q0 276 -108 444q-109 168 -334 168zM707 1489q295 0 447 -204t151 -544q0 -339 -154 -545t-449 -206q-296 0 -448 204t-152 544q0 339 155 545t450 206zM868 1669q-100 0 -194 100
q-25 31 -37 43q-39 39 -83 39q-44 -1 -72 -27t-40 -57t-28 -90l-107 47q27 121 81 188q54 66 150 66t185 -92q49 -52 81 -68q92 -44 135 26q25 42 50 126l107 -51q-35 -121 -82 -185q-46 -64 -146 -65z" />
    <glyph glyph-name="Odieresis" unicode="&#xd6;" horiz-adv-x="1406" 
d="M696 1354q-226 0 -326 -168t-100 -448t106 -446t330 -167q226 0 329 170t103 447q0 276 -108 444q-109 168 -334 168zM707 1489q295 0 447 -204t151 -544q0 -339 -154 -545t-449 -206q-296 0 -448 204t-152 544q0 339 155 545t450 206zM645 1729h-199q0 39 27 63t72 23
q100 0 100 -86zM645 1729q0 -84 -99 -84t-100 84h199zM958 1729h-198q0 39 26 63t72 23q44 -1 72 -23t28 -63zM958 1729q0 -84 -99 -84t-99 84h198z" />
    <glyph glyph-name="multiply" unicode="&#xd7;" horiz-adv-x="1112" 
d="M557 739l336 336q49 -51 100 -100l-336 -336l336 -336l-100 -100l-336 336l-338 -336q-20 20 -98 100l336 336l-336 336l100 100z" />
    <glyph glyph-name="Oslash" unicode="&#xd8;" horiz-adv-x="1406" 
d="M510 170q80 -45 199 -45q223 0 326 170t103 468t-134 458zM270 737q0 -334 140 -489l495 1055q-90 51 -211 51q-224 0 -324 -168t-100 -449zM709 1489q150 0 258 -53l73 155l115 -47l-82 -176q231 -193 232 -625q0 -341 -154 -547t-451 -206q-141 0 -251 49l-82 -174
l-109 57l86 182q-121 94 -181 258q-61 164 -61 375q0 340 155 546t452 206z" />
    <glyph glyph-name="Ugrave" unicode="&#xd9;" horiz-adv-x="1601" 
d="M426 1350v-766q0 -221 91 -336t292 -115q365 0 365 412v805h-232v129h614v-129h-231v-789q0 -571 -528 -571q-522 0 -523 569v791h-227v129h615v-129h-236zM1026 1663h-192q-35 37 -149 170t-148 170h192q35 -37 149 -170t148 -170z" />
    <glyph glyph-name="Uacute" unicode="&#xda;" horiz-adv-x="1601" 
d="M426 1350v-766q0 -221 91 -336t292 -115q365 0 365 412v805h-232v129h614v-129h-231v-789q0 -571 -528 -571q-522 0 -523 569v791h-227v129h615v-129h-236zM1069 2003l-295 -340h-192l295 340h192z" />
    <glyph glyph-name="Ucircumflex" unicode="&#xdb;" horiz-adv-x="1601" 
d="M426 1350v-766q0 -221 91 -336t292 -115q365 0 365 412v805h-232v129h614v-129h-231v-789q0 -571 -528 -571q-522 0 -523 569v791h-227v129h615v-129h-236zM393 1686l295 339h232q34 -37 148 -169t149 -170h-195q-38 38 -217 251q-207 -238 -219 -251h-193z" />
    <glyph glyph-name="Udieresis" unicode="&#xdc;" horiz-adv-x="1601" 
d="M426 1350v-766q0 -221 91 -336t292 -115q365 0 365 412v805h-232v129h614v-129h-231v-789q0 -571 -528 -571q-522 0 -523 569v791h-227v129h615v-129h-236zM745 1729h-196q1 39 27 63t69 23q100 0 100 -86zM745 1729q0 -84 -98 -84t-98 84h196zM1059 1729q1 -84 -99 -84
t-100 84h199zM1059 1729h-199q0 39 27 63t71 23t73 -23q28 -22 28 -63z" />
    <glyph glyph-name="Yacute" unicode="&#xdd;" horiz-adv-x="1400" 
d="M776 129h215v-129h-612v129h217v561q-281 532 -348 660h-250v129h629v-129h-211q145 -285 268 -531q80 143 291 531h-209v129h629v-129h-252q-345 -619 -367 -656v-565zM956 2003l-297 -340h-192l297 340h192z" />
    <glyph glyph-name="Thorn" unicode="&#xde;" horiz-adv-x="1185" 
d="M674 473q116 0 188 84t72 227q0 142 -90 230t-248 88h-141v-576q103 -53 219 -53zM455 1350v-117h161q220 0 352 -121t132 -326q0 -204 -116 -320t-316 -120q-106 0 -213 43v-260h227v-129h-614v129h221v1221h-221v129h614v-129h-227z" />
    <glyph glyph-name="germandbls" unicode="&#xdf;" horiz-adv-x="1171" 
d="M604 879v110q123 0 197 70q73 71 73 191t-67 190q-68 70 -179 70t-166 -75q-54 -75 -54 -198v-1106h227v-131h-615v131h224v1106q0 184 104 293q104 108 288 108t290 -101t106 -280q0 -219 -168 -317q147 -63 201 -207q27 -72 27 -160q0 -327 -301 -407l-48 131
q190 61 191 268q0 147 -94 231t-236 83z" />
    <glyph glyph-name="agrave" unicode="&#xe0;" horiz-adv-x="1114" 
d="M260 322q0 -203 184 -203q102 0 165 59q36 33 58 61q21 28 60 83v239q-19 -4 -117 -18q-98 -13 -174 -25t-126 -62t-50 -134zM1104 0h-377v147q-69 -77 -139 -117t-172 -40q-156 0 -237 85t-81 240q0 268 346 320q49 8 139 19t144 20v67q0 227 -223 228q-119 0 -228 -80
v-189h-131v248q160 150 381 150q367 0 367 -320v-649h211v-129zM760 1305h-195q-35 37 -147 170q-113 133 -148 170h193q35 -37 149 -170t148 -170z" />
    <glyph glyph-name="aacute" unicode="&#xe1;" horiz-adv-x="1114" 
d="M260 322q0 -203 184 -203q102 0 165 59q36 33 58 61q21 28 60 83v239q-19 -4 -117 -18q-98 -13 -174 -25t-126 -62t-50 -134zM1104 0h-377v147q-69 -77 -139 -117t-172 -40q-156 0 -237 85t-81 240q0 268 346 320q49 8 139 19t144 20v67q0 227 -223 228q-119 0 -228 -80
v-189h-131v248q160 150 381 150q367 0 367 -320v-649h211v-129zM803 1645l-295 -340h-193l295 340h193z" />
    <glyph glyph-name="acircumflex" unicode="&#xe2;" horiz-adv-x="1116" 
d="M262 322q0 -203 184 -203q106 0 164 57t119 148v237q-19 -4 -117 -18t-166 -25q-184 -29 -184 -196zM1104 0h-375v147q-69 -77 -139 -117t-172 -40q-156 0 -237 85t-81 240q0 268 346 320q49 8 139 19t144 20v67q0 227 -225 228q-117 0 -225 -80v-189h-134v248
q160 150 383 150q365 0 365 -320v-649h211v-129zM127 1327l297 340h229q37 -39 151 -172t146 -168h-192l-219 252q-42 -45 -120 -137q-77 -92 -97 -115h-195z" />
    <glyph glyph-name="atilde" unicode="&#xe3;" horiz-adv-x="1114" 
d="M260 322q0 -203 184 -203q102 0 165 59q36 33 58 61q21 28 60 83v239q-19 -4 -117 -18q-98 -13 -174 -25t-126 -62t-50 -134zM1104 0h-377v147q-69 -77 -139 -117t-172 -40q-156 0 -237 85t-81 240q0 268 346 320q49 8 139 19t144 20v67q0 227 -223 228q-119 0 -228 -80
v-189h-131v248q160 150 381 150q367 0 367 -320v-649h211v-129zM380 1493q-28 0 -55 -15t-46 -65q-19 -49 -33 -94l-105 49q27 122 81 188t150 66t185 -94q76 -84 133 -84t83 43q25 43 48 125l109 -51q-35 -121 -82 -186q-48 -65 -148 -65t-192 103q-29 33 -39 43t-35 24
q-26 14 -54 13z" />
    <glyph glyph-name="adieresis" unicode="&#xe4;" horiz-adv-x="1114" 
d="M260 322q0 -203 184 -203q102 0 165 59q36 33 58 61q21 28 60 83v239q-19 -4 -117 -18q-98 -13 -174 -25t-126 -62t-50 -134zM1104 0h-377v147q-69 -77 -139 -117t-172 -40q-156 0 -237 85t-81 240q0 268 346 320q49 8 139 19t144 20v67q0 227 -223 228q-119 0 -228 -80
v-189h-131v248q160 150 381 150q367 0 367 -320v-649h211v-129zM479 1370q0 -84 -99 -84t-99 84h198zM479 1370h-198q0 39 26 63q27 23 72 23t73 -22q27 -23 27 -64zM793 1370h-199q0 39 27 63q27 23 71 23t73 -22q28 -22 28 -64zM793 1370q1 -84 -99 -84t-100 84h199z" />
    <glyph glyph-name="aring" unicode="&#xe5;" horiz-adv-x="1114" 
d="M260 322q0 -203 184 -203q102 0 165 59q36 33 58 61q21 28 60 83v239q-19 -4 -117 -18q-98 -13 -174 -25t-126 -62t-50 -134zM1104 0h-377v147q-69 -77 -139 -117t-172 -40q-156 0 -237 85t-81 240q0 268 346 320q49 8 139 19t144 20v67q0 227 -223 228q-119 0 -228 -80
v-189h-131v248q160 150 381 150q367 0 367 -320v-649h211v-129zM274 1574q0 124 69 196t191 71q122 0 195 -72q72 -73 72 -197t-70 -196q-69 -72 -193 -72t-194 74q-70 72 -70 196zM418 1576q0 -148 119 -149q121 0 121 148t-126 147q-114 2 -114 -146z" />
    <glyph glyph-name="ae" unicode="&#xe6;" horiz-adv-x="1673" 
d="M1204 123q74 0 127 30t115 91l100 -94q-84 -84 -161 -122t-181 -38q-285 0 -403 219q-88 -111 -174 -165q-85 -54 -227 -54t-222 84t-80 232t86 218t234 91t307 22v102q0 229 -223 230q-123 0 -228 -78v-172h-131v229q160 150 386 150t313 -125q112 129 318 129t308 -130
t103 -362v-96h-680q18 -391 313 -391zM1153 969q-242 0 -262 -328v-4h522q-6 332 -260 332zM258 319q0 -201 186 -200q107 0 169 55t139 160q-23 82 -27 180h-53q-160 0 -216 -12q-198 -42 -198 -183z" />
    <glyph glyph-name="ccedilla" unicode="&#xe7;" horiz-adv-x="1011" 
d="M446 2q-348 78 -348 564q0 245 123 390t363 146q164 0 323 -137v-256h-131v188q-98 70 -198 70q-313 0 -314 -420q0 -370 246 -416q2 2 2 4l8 -6l50 -4h14q125 0 235 137l107 -84q-56 -82 -138 -130t-176 -56q-10 -18 -22 -41q76 -9 119 -59t43 -138t-62 -137t-154 -49
q-94 0 -174 49l64 102q55 -35 117 -34q86 0 86 75q0 70 -60 70q-25 0 -55 -20l-113 102q14 29 45 90z" />
    <glyph glyph-name="egrave" unicode="&#xe8;" horiz-adv-x="1052" 
d="M584 123q74 0 127 30t114 91l101 -94q-84 -84 -161 -122t-181 -38q-240 0 -360 154t-120 417q0 261 109 401t322 140t315 -130t102 -362v-96h-682q18 -391 314 -391zM535 969q-246 0 -265 -332h525q-6 332 -260 332zM756 1307h-193q-33 35 -145 168q-113 133 -150 172
h193q37 -39 151 -173t144 -167z" />
    <glyph glyph-name="eacute" unicode="&#xe9;" horiz-adv-x="1052" 
d="M584 123q74 0 127 30t114 91l101 -94q-84 -84 -161 -122t-181 -38q-240 0 -360 154t-120 417q0 261 109 401t322 140t315 -130t102 -362v-96h-682q18 -391 314 -391zM535 969q-246 0 -265 -332h525q-6 332 -260 332zM801 1649l-295 -340h-193l295 340h193z" />
    <glyph glyph-name="ecircumflex" unicode="&#xea;" horiz-adv-x="1067" 
d="M590 123q74 0 127 30t114 91l101 -94q-84 -84 -161 -122t-181 -38q-240 0 -361 154t-121 417q0 262 110 402q110 139 322 139t314 -130t102 -362v-96h-680q18 -391 314 -391zM541 969q-246 0 -265 -332h523q-6 332 -258 332zM129 1331l297 340h229q37 -39 151 -172
t146 -168h-192q-93 105 -147 168q-54 64 -72 84q-18 -23 -46 -55t-91 -106q-63 -75 -80 -91h-195z" />
    <glyph glyph-name="edieresis" unicode="&#xeb;" horiz-adv-x="1052" 
d="M584 123q74 0 127 30t114 91l101 -94q-84 -84 -161 -122t-181 -38q-240 0 -360 154t-120 417q0 261 109 401t322 140t315 -130t102 -362v-96h-682q18 -391 314 -391zM535 969q-246 0 -265 -332h525q-6 332 -260 332zM477 1374q0 -86 -100 -86q-45 0 -72 23t-26 63h198z
M477 1374h-198q0 39 26 62q27 22 72 22q100 -2 100 -84zM791 1374q1 -86 -99 -86t-100 86h199zM791 1374h-199q0 39 26 62q27 22 71 22t73 -22t29 -62z" />
    <glyph glyph-name="igrave" unicode="&#xec;" horiz-adv-x="702" 
d="M295 963h-221l2 129h393v-963h203v-129h-598l2 129h219v834zM596 1307h-195q-33 37 -146 169q-114 132 -149 171h193q31 -35 145 -168t152 -172z" />
    <glyph glyph-name="iacute" unicode="&#xed;" horiz-adv-x="714" 
d="M279 963h-222v129h396v-963h202v-129h-598v129h222v834zM639 1647l-297 -340h-192l296 340h193z" />
    <glyph glyph-name="icircumflex" unicode="&#xee;" horiz-adv-x="894" 
d="M381 963h-221l2 129h393v-963h203v-129h-598l2 129h219v834zM59 1327l297 340h230q34 -37 148 -170t149 -170h-195q-20 23 -57 65t-85 99t-75 88q-207 -238 -219 -252h-193z" />
    <glyph glyph-name="idieresis" unicode="&#xef;" horiz-adv-x="761" 
d="M315 963h-221v129h395v-963h201v-129h-596v129h221v834zM346 1370h-199q0 39 27 63q27 23 72 23q44 0 72 -22t28 -64zM346 1370q0 -84 -99 -84t-100 84h199zM657 1370h-196q0 39 26 63q27 24 70 23q100 0 100 -86zM657 1370q0 -84 -98 -84t-98 84h196z" />
    <glyph glyph-name="eth" unicode="&#xf0;" horiz-adv-x="1089" 
d="M528 739q-134 0 -204 -83t-70 -222t68 -220t207 -81t220 101t80 276v43q-102 186 -301 186zM989 504q0 -242 -122 -382t-337 -140q-214 0 -326 122t-112 329q0 208 111 326t295 118t301 -113q-72 270 -316 438l-59 -59q-28 -29 -58 -59t-59 -56l-82 82l156 156
q-113 61 -254 106l55 133q172 -53 307 -131q90 90 162 164l84 -84l-143 -143q397 -283 397 -807z" />
    <glyph glyph-name="ntilde" unicode="&#xf1;" horiz-adv-x="1351" 
d="M283 963h-226v129h392v-162q131 170 327 170q338 0 338 -420v-551h221v-129h-567v129h180v537q0 301 -221 301q-86 -1 -158 -57t-120 -148v-633h176v-129h-568v129h226v834zM564 1493q-34 0 -62 -27q-28 -28 -39 -58q-12 -30 -29 -89l-106 49q29 122 83 188t149 66
t185 -94q39 -42 69 -62t73 -20h2q51 0 74 46t47 120l53 -27q2 0 55 -24q-35 -121 -82 -186t-147 -65t-193 103q-29 33 -39 43q-11 10 -35 24t-58 13z" />
    <glyph glyph-name="ograve" unicode="&#xf2;" horiz-adv-x="1134" 
d="M258 547q0 -424 313 -424q154 0 227 114q72 115 72 309t-76 310t-233 115q-159 1 -231 -115t-72 -309zM565 -10q-231 0 -349 150t-118 405q0 257 119 407t350 150t351 -151t118 -407q0 -256 -120 -406q-120 -148 -351 -148zM786 1305h-192q-35 37 -148 170t-147 170h193
q37 -39 150 -173t144 -167z" />
    <glyph glyph-name="oacute" unicode="&#xf3;" horiz-adv-x="1134" 
d="M258 547q0 -424 313 -424q154 0 227 114q72 115 72 309t-76 310t-233 115q-159 1 -231 -115t-72 -309zM565 -10q-231 0 -349 150t-118 405q0 257 119 407t350 150t351 -151t118 -407q0 -256 -120 -406q-120 -148 -351 -148zM831 1645l-294 -340h-193l295 340h192z" />
    <glyph glyph-name="ocircumflex" unicode="&#xf4;" horiz-adv-x="1134" 
d="M258 547q0 -424 313 -424q154 0 227 114q72 115 72 309t-76 310t-233 115q-159 1 -231 -115t-72 -309zM565 -10q-231 0 -349 150t-118 405q0 257 119 407t350 150t351 -151t118 -407q0 -256 -120 -406q-120 -148 -351 -148zM156 1327l295 340h231q36 -37 148 -170
t147 -170h-193q-12 12 -219 254q-205 -242 -217 -254h-192z" />
    <glyph glyph-name="otilde" unicode="&#xf5;" horiz-adv-x="1134" 
d="M258 547q0 -424 313 -424q154 0 227 114q72 115 72 309t-76 310t-233 115q-159 1 -231 -115t-72 -309zM565 -10q-231 0 -349 150t-118 405q0 257 119 407t350 150t351 -151t118 -407q0 -256 -120 -406q-120 -148 -351 -148zM322 1440q-19 -35 -48 -121l-106 47
q29 122 83 188q55 66 151 66t184 -92q76 -84 133 -84t83 43q25 43 48 125l108 -51q-36 -121 -82 -186t-146 -65t-193 101q-27 31 -38 43q-36 39 -93 39t-84 -53z" />
    <glyph glyph-name="odieresis" unicode="&#xf6;" horiz-adv-x="1134" 
d="M258 547q0 -424 313 -424q154 0 227 114q72 115 72 309t-76 310t-233 115q-159 1 -231 -115t-72 -309zM565 -10q-231 0 -349 150t-118 405q0 257 119 407t350 150t351 -151t118 -407q0 -256 -120 -406q-120 -148 -351 -148zM508 1370q0 -84 -99 -84t-100 84h199z
M508 1370h-199q0 39 27 63q27 23 72 23q44 0 72 -22t28 -64zM821 1370h-198q0 39 26 63q27 23 72 23t73 -22q27 -23 27 -64zM821 1370q0 -84 -99 -84t-99 84h198z" />
    <glyph glyph-name="divide" unicode="&#xf7;" horiz-adv-x="1357" 
d="M133 567v142h1092v-142h-1092zM768 1012q0 -84 -97 -84t-98 84h195zM768 1012h-195q0 40 27 62t71 22q45 0 71 -22t26 -62zM768 256q0 -84 -97 -84t-98 84h195zM768 256h-195q0 40 27 62t71 22q45 0 71 -22t26 -62z" />
    <glyph glyph-name="oslash" unicode="&#xf8;" horiz-adv-x="1134" 
d="M571 123q154 0 227 114t73 314t-80 311l-338 -721q53 -18 118 -18zM559 971q-301 0 -301 -443q0 -212 94 -317l342 731q-59 29 -135 29zM565 -10q-100 0 -172 26l-78 -168l-106 56l78 168q-189 139 -189 475q0 255 119 405t350 150q104 0 187 -33l69 150l111 -52
l-74 -157q176 -143 176 -465q0 -259 -120 -407t-351 -148z" />
    <glyph glyph-name="ugrave" unicode="&#xf9;" horiz-adv-x="1290" 
d="M897 963h-223v129h389v-963h207v-129h-373v147q-123 -158 -285 -157q-369 0 -368 418v555h-226v129h392v-678q0 -291 225 -291q145 0 262 207v633zM842 1305h-193q-35 37 -148 170q-114 133 -149 170h193q35 -37 149 -170t148 -170z" />
    <glyph glyph-name="uacute" unicode="&#xfa;" horiz-adv-x="1290" 
d="M897 963h-223v129h389v-963h207v-129h-373v147q-123 -158 -285 -157q-369 0 -368 418v555h-226v129h392v-678q0 -291 225 -291q145 0 262 207v633zM885 1645l-295 -340h-193l295 340h193z" />
    <glyph glyph-name="ucircumflex" unicode="&#xfb;" horiz-adv-x="1290" 
d="M897 963h-223v129h389v-963h207v-129h-373v147q-123 -158 -285 -157q-369 0 -368 418v555h-226v129h392v-678q0 -291 225 -291q145 0 262 207v633zM209 1327l295 340h231q35 -37 149 -170t148 -170h-194q-16 18 -45 50t-55 63q-26 32 -60 72t-57 67q-210 -241 -220 -252
h-192z" />
    <glyph glyph-name="udieresis" unicode="&#xfc;" horiz-adv-x="1290" 
d="M897 963h-223v129h389v-963h207v-129h-373v147q-123 -158 -285 -157q-369 0 -368 418v555h-226v129h392v-678q0 -291 225 -291q145 0 262 207v633zM561 1370h-196q0 39 26 63q27 24 70 23q100 0 100 -86zM561 1370q0 -84 -98 -84t-98 84h196zM874 1370q0 -84 -99 -84
t-99 84h198zM874 1370h-198q0 39 26 63q27 23 72 23t73 -22q27 -23 27 -64z" />
    <glyph glyph-name="yacute" unicode="&#xfd;" horiz-adv-x="1351" 
d="M20 963v129h605v-129h-195q94 -244 234 -611q162 379 260 611h-179v129h598v-129h-249q-643 -1513 -670 -1577h-373v129l254 2q103 235 275 641q-107 271 -320 805h-240zM944 1649l-295 -340h-194l297 340h192z" />
    <glyph glyph-name="thorn" unicode="&#xfe;" horiz-adv-x="1204" 
d="M649 119q147 1 219 115t72 301v16q0 188 -70 304t-228 116t-288 -129v-584q72 -70 140 -104t155 -35zM672 1104q214 0 324 -152t110 -400t-110 -406q-110 -157 -326 -156q-178 0 -316 119v-594l207 2v-131h-598v131h225v1956h-223v131h389v-621q145 121 318 121z" />
    <glyph glyph-name="ydieresis" unicode="&#xff;" horiz-adv-x="1351" 
d="M20 963v129h605v-129h-195q94 -244 234 -611q162 379 260 611h-179v129h598v-129h-249q-643 -1513 -670 -1577h-373v129l254 2q103 235 275 641q-107 271 -320 805h-240zM621 1374q1 -84 -99 -84t-100 84h199zM621 1374h-199q0 39 27 63q27 23 71 23t73 -22
q28 -22 28 -64zM932 1374q0 -84 -98 -84t-99 84h197zM932 1374h-197q0 39 27 63q26 23 70 23t72 -22t28 -64z" />
    <glyph glyph-name="Amacron" unicode="&#x100;" 
d="M1573 129v-129h-653v129h239q-49 150 -110 346h-525q-34 -94 -64 -179t-59 -167h230v-129h-651v129h241l506 1350h154l448 -1350h244zM799 1262q-68 -188 -228 -650h435q-160 505 -207 650zM999 1798v-129h-403v129h403z" />
    <glyph glyph-name="amacron" unicode="&#x101;" horiz-adv-x="1114" 
d="M260 322q0 -203 184 -203q102 0 165 59q36 33 58 61q21 28 60 83v239q-19 -4 -117 -18q-98 -13 -174 -25t-126 -62t-50 -134zM1104 0h-377v147q-69 -77 -139 -117t-172 -40q-156 0 -237 85t-81 240q0 268 346 320q49 8 139 19t144 20v67q0 227 -223 228q-119 0 -228 -80
v-189h-131v248q160 150 381 150q367 0 367 -320v-649h211v-129zM731 1440v-131h-401v131h401z" />
    <glyph glyph-name="Abreve" unicode="&#x102;" 
d="M1573 129v-129h-653v129h239q-49 150 -110 346h-525q-34 -94 -64 -179t-59 -167h230v-129h-651v129h241l506 1350h154l448 -1350h244zM799 1262q-68 -188 -228 -650h435q-160 505 -207 650zM950 1944h158q0 -135 -84 -208t-224 -73t-217 74t-77 209h158q0 -74 36 -114
t106 -40q68 0 106 40t38 112z" />
    <glyph glyph-name="abreve" unicode="&#x103;" horiz-adv-x="1114" 
d="M260 322q0 -203 184 -203q102 0 165 59q36 33 58 61q21 28 60 83v239q-19 -4 -117 -18q-98 -13 -174 -25t-126 -62t-50 -134zM1104 0h-377v147q-69 -77 -139 -117t-172 -40q-156 0 -237 85t-81 240q0 268 346 320q49 8 139 19t144 20v67q0 227 -223 228q-119 0 -228 -80
v-189h-131v248q160 150 381 150q367 0 367 -320v-649h211v-129zM682 1585h158q0 -135 -83 -209t-225 -74t-218 76q-77 74 -76 209h159q0 -154 142 -153q67 0 105 40t38 111z" />
    <glyph glyph-name="Aogonek" unicode="&#x104;" 
d="M1573 129v-129h-223q-62 -36 -101 -65q-39 -30 -40 -83q-1 -52 22 -80t57 -28t92 37q74 -94 78 -100q-98 -63 -186 -63t-146 60q-57 62 -57 160t72 162h-221v129h239q-49 150 -110 346h-525q-34 -94 -64 -179t-59 -167h230v-129h-651v129h241l506 1350h154l448 -1350h244
zM799 1262q-68 -188 -228 -650h435q-160 505 -207 650z" />
    <glyph glyph-name="aogonek" unicode="&#x105;" horiz-adv-x="1114" 
d="M260 322q0 -203 184 -203q102 0 165 59q36 33 58 61q21 28 60 83v239q-19 -4 -117 -18q-98 -13 -174 -25t-126 -62t-50 -134zM907 -213l78 -100q-96 -66 -185 -66q-88 1 -146 63t-58 174t131 189v100q-69 -77 -139 -117t-172 -40q-156 0 -237 85t-81 240q0 268 346 320
q49 8 139 19t144 20v67q0 227 -223 228q-119 0 -228 -80v-189h-131v248q160 150 381 150q367 0 367 -320v-649h211v-129h-234q-43 -23 -67 -40q-65 -44 -65 -116q0 -42 21 -68t59 -26t89 37z" />
    <glyph glyph-name="Cacute" unicode="&#x106;" horiz-adv-x="1280" 
d="M1178 1083h-131v181q-147 88 -312 88q-239 0 -353 -172t-114 -456t106 -440q106 -157 335 -157q121 0 212 41t191 129l92 -100q-114 -107 -230 -157t-274 -50q-294 0 -446 191t-152 540t162 559t479 209q210 -1 435 -148v-258zM1004 2003l-295 -340h-193l295 340h193z
" />
    <glyph glyph-name="cacute" unicode="&#x107;" horiz-adv-x="1011" 
d="M907 709h-131v188q-98 70 -198 70q-314 0 -314 -421t320 -421q125 0 235 137l107 -84q-125 -188 -357 -188q-231 0 -351 146t-120 410t123 410q123 145 363 146q163 0 323 -137v-256zM842 1645l-295 -340h-193l295 340h193z" />
    <glyph glyph-name="Ccaron" unicode="&#x10c;" horiz-adv-x="1284" 
d="M1178 1083h-131v181q-147 88 -312 88q-239 0 -353 -172t-114 -456t106 -440q106 -157 335 -157q121 0 212 41t191 129l92 -100q-114 -107 -230 -157t-274 -50q-294 0 -446 191t-152 540t162 559t479 209q210 -1 435 -148v-258zM1149 2009l-297 -340h-229q-35 37 -149 170
q-113 133 -148 170h194q10 -10 217 -252q193 225 219 252h193z" />
    <glyph glyph-name="ccaron" unicode="&#x10d;" horiz-adv-x="1058" 
d="M907 709h-131v188q-98 70 -198 70q-314 0 -314 -421t320 -421q125 0 235 137l107 -84q-125 -188 -357 -188q-231 0 -351 146t-120 410t123 410q123 145 363 146q163 0 323 -137v-256zM987 1653l-295 -340h-231q-35 37 -149 170q-113 133 -148 170h194l48 -54t90 -104
q57 -68 79 -94q210 241 220 252h192z" />
    <glyph glyph-name="Dcaron" unicode="&#x10e;" horiz-adv-x="1454" 
d="M455 1350v-1221h268q469 0 469 590q0 631 -506 631h-231zM68 1479h626q332 0 498 -197t166 -550q0 -352 -163 -542t-486 -190h-641v129h221v1221h-221v129zM1067 2009l-297 -340h-231q-35 37 -148 170q-112 133 -147 170h192q87 -94 219 -252q161 189 217 252h195z" />
    <glyph glyph-name="dcaron" unicode="&#x10f;" horiz-adv-x="1505" 
d="M94 542q0 248 125 402t352 154q158 0 281 -84v495h-221v129h395v-1509h221v-129h-395v102q-113 -109 -279 -108q-225 0 -352 150t-127 398zM260 545q0 -188 85 -305t242 -117t265 151v588q-110 104 -264 106q-154 1 -241 -117t-87 -306zM1288 1272h-158l164 397h205z" />
    <glyph glyph-name="Dcroat" unicode="&#x110;" horiz-adv-x="1454" 
d="M453 1350v-537h292v-143h-292v-541h270q469 0 469 590q0 299 -123 465t-383 166h-233zM68 1479h626q332 0 498 -197t166 -550q0 -352 -163 -542t-486 -190h-641v129h221v541h-133v143h133v537h-221v129z" />
    <glyph glyph-name="dcroat" unicode="&#x111;" horiz-adv-x="1265" 
d="M588 969q-154 0 -241 -118t-87 -306t85 -305t242 -117t265 151v586q-110 109 -264 109zM852 1264h-295v110h295v135h-221v129h395v-264h133v-110h-133v-1135h221v-129h-395v102q-113 -109 -279 -108q-225 0 -352 150t-127 398t125 402t352 154q158 0 281 -86v252z" />
    <glyph glyph-name="Emacron" unicode="&#x112;" horiz-adv-x="1216" 
d="M1139 0h-1073v129h223v1221h-223v129h1013v-312h-133v183h-491v-521h512v-131h-512v-569h553v182h131v-311zM846 1796v-131h-404v131h404z" />
    <glyph glyph-name="emacron" unicode="&#x113;" horiz-adv-x="1052" 
d="M584 123q74 0 127 30t114 91l101 -94q-84 -84 -161 -122t-181 -38q-240 0 -360 154t-120 417q0 261 109 401t322 140t315 -130t102 -362v-96h-682q18 -391 314 -391zM535 969q-246 0 -265 -332h525q-6 332 -260 332zM729 1442v-129h-403v129h403z" />
    <glyph glyph-name="Edotaccent" unicode="&#x116;" horiz-adv-x="1216" 
d="M1139 0h-1073v129h223v1221h-223v129h1013v-312h-133v183h-491v-521h512v-131h-512v-569h553v182h131v-311zM752 1726h-199q0 39 27 63q28 23 72 23t72 -22t28 -64zM752 1726q0 -84 -100 -84t-99 84h199z" />
    <glyph glyph-name="edotaccent" unicode="&#x117;" horiz-adv-x="1052" 
d="M584 123q74 0 127 30t114 91l101 -94q-84 -84 -161 -122t-181 -38q-240 0 -360 154t-120 417q0 261 109 401t322 140t315 -130t102 -362v-96h-682q18 -391 314 -391zM535 969q-246 0 -265 -332h525q-6 332 -260 332zM635 1374q0 -42 -28 -64t-75 -22q-96 0 -96 86h199z
M635 1374h-199q0 39 27 62q27 22 71 22t72 -22q29 -22 29 -62z" />
    <glyph glyph-name="Eogonek" unicode="&#x118;" horiz-adv-x="1245" 
d="M1133 -201l77 -100q-96 -66 -185 -66q-89 1 -146 63t-57 154t52 150h-808v129h223v1221h-223v129h1013v-312h-133v183h-491v-521h512v-131h-512v-569h553v182h131v-311h-66q-111 -61 -110 -139q-1 -45 21 -72t60 -27t89 37z" />
    <glyph glyph-name="eogonek" unicode="&#x119;" horiz-adv-x="1052" 
d="M627 -240q37 0 92 37q74 -98 76 -100q-102 -66 -188 -66q-85 1 -143 63t-58 156t57 152q-357 73 -359 577q0 243 109 383t322 140t315 -130t102 -362v-96h-682q18 -391 314 -391q74 0 127 30t114 91l101 -94q-70 -70 -134 -108t-141 -48q-51 -29 -78 -59q-27 -31 -27 -75
t22 -72t59 -28zM535 969q-246 0 -265 -332h525q-6 332 -260 332z" />
    <glyph glyph-name="Ecaron" unicode="&#x11a;" horiz-adv-x="1216" 
d="M1139 0h-1073v129h223v1221h-223v129h1013v-312h-133v183h-491v-521h512v-131h-512v-569h553v182h131v-311zM1063 2007l-297 -340h-229q-35 37 -149 170q-113 133 -148 170h192q84 -94 219 -252q11 15 25 31t27 30t27 31q14 15 26 31q14 16 26 32t29 33q17 18 33 37
t24 27h195z" />
    <glyph glyph-name="ecaron" unicode="&#x11b;" horiz-adv-x="1067" 
d="M590 123q74 0 127 30t114 91l101 -94q-84 -84 -161 -122t-181 -38q-240 0 -360 154t-120 417q0 262 110 402q110 139 322 139t314 -130t102 -362v-96h-679q18 -391 311 -391zM541 969q-131 0 -193 -87t-69 -245h522q-6 332 -260 332zM952 1655l-297 -340h-229
q-35 37 -148 170q-114 133 -149 170h195q26 -29 106 -123t111 -129q115 135 219 252h192z" />
    <glyph glyph-name="Gbreve" unicode="&#x11e;" horiz-adv-x="1413" 
d="M1155 573h-289v129h441v-542q-150 -90 -267 -130t-270 -40q-326 0 -498 198t-172 551q0 352 165 551t485 199q281 0 526 -170v-256h-133v178q-183 111 -409 111t-347 -159t-121 -445t124 -454q124 -167 380 -167q209 0 385 94v352zM883 1942h157q0 -135 -83 -209
t-224 -74t-218 75t-77 210h160q0 -154 141 -154q68 0 106 40t38 112z" />
    <glyph glyph-name="gbreve" unicode="&#x11f;" horiz-adv-x="1107" 
d="M770 720q0 112 -58 182t-164 71q-106 -1 -170 -73q-63 -72 -63 -185q-1 -113 63 -179t170 -67q106 0 164 69q58 70 58 182zM158 232q0 115 102 204q-110 100 -110 274t108 284q108 108 280 108q171 0 273 -88q123 76 178 106l78 -121q-55 -33 -170 -94q39 -82 39 -186
q0 -175 -111 -277t-290 -102q-88 0 -162 29q-49 -51 -49 -129q0 -146 224 -164t352 -93t129 -249t-137 -265t-350 -91t-341 94q-129 96 -129 281t166 296q-80 68 -80 183zM550 -496q142 0 234 56q94 56 94 174q0 117 -109 165q-91 40 -217 51t-200 36q-115 -78 -114 -232
q0 -118 85 -184t227 -66zM543 1432q143 0 143 153h158q0 -135 -83 -209t-223 -74t-218 74q-76 74 -76 209h157q0 -73 37 -113t105 -40z" />
    <glyph glyph-name="Gcommaaccent" unicode="&#x122;" horiz-adv-x="1413" 
d="M1155 573h-289v129h441v-542q-150 -90 -267 -130t-270 -40q-326 0 -498 198t-172 551q0 352 165 551t485 199q281 0 526 -170v-256h-133v178q-183 111 -409 111t-347 -159t-121 -445t124 -454q124 -167 380 -167q209 0 385 94v352zM717 -563h-160l166 397h205z" />
    <glyph glyph-name="gcommaaccent" unicode="&#x123;" horiz-adv-x="1107" 
d="M770 720q0 112 -58 182t-164 71q-106 -1 -170 -73q-63 -72 -63 -185q-1 -113 63 -179t170 -67q106 0 164 69q58 70 58 182zM158 232q0 115 102 204q-110 100 -110 274t108 284q108 108 280 108q171 0 273 -88q123 76 178 106l78 -121q-55 -33 -170 -94q39 -82 39 -186
q0 -175 -111 -277t-290 -102q-88 0 -162 29q-49 -51 -49 -129q0 -146 224 -164t352 -93t129 -249t-137 -265t-350 -91t-341 94q-129 96 -129 281t166 296q-80 68 -80 183zM550 -496q142 0 234 56q94 56 94 174q0 117 -109 165q-91 40 -217 51t-200 36q-115 -78 -114 -232
q0 -118 85 -184t227 -66zM612 1599h158l-166 -397h-203z" />
    <glyph glyph-name="Imacron" unicode="&#x12a;" horiz-adv-x="745" 
d="M682 0h-616v129h223v1221h-223v129h616v-129h-227v-1221h227v-129zM571 1796v-129h-403v129h403z" />
    <glyph glyph-name="imacron" unicode="&#x12b;" horiz-adv-x="677" 
d="M279 963h-222v129h396v-963h202v-129h-598v129h222v834zM563 1438v-129h-403v129h403z" />
    <glyph glyph-name="Iogonek" unicode="&#x12e;" horiz-adv-x="745" 
d="M365 -362q-88 0 -147 61q-58 61 -58 153t51 148h-145v129h223v1221h-223v129h616v-129h-227v-1221h227v-129h-274q-106 -61 -107 -135q0 -45 23 -73q24 -28 58 -28t91 37l78 -100q-98 -63 -186 -63z" />
    <glyph glyph-name="iogonek" unicode="&#x12f;" horiz-adv-x="677" 
d="M279 963h-222v129h396v-963h202v-129h-243q-37 -20 -59 -36q-56 -42 -56 -95q0 -109 86 -109q29 0 86 37q74 -94 78 -100q-98 -63 -186 -63q-87 0 -145 60q-58 62 -58 156t55 150h-156v129h222v834zM463 1372q-1 -82 -99 -82t-98 82h197zM463 1372h-197q0 39 27 62
q27 22 71 22t71 -22q28 -22 28 -62z" />
    <glyph glyph-name="Idotaccent" unicode="&#x130;" horiz-adv-x="745" 
d="M682 0h-616v129h223v1221h-223v129h616v-129h-227v-1221h227v-129zM475 1729h-199q0 39 27 63t72 23q100 0 100 -86zM475 1729q0 -84 -99 -84t-100 84h199z" />
    <glyph glyph-name="dotlessi" unicode="&#x131;" horiz-adv-x="677" 
d="M279 963h-222v129h396v-963h202v-129h-598v129h222v834z" />
    <glyph glyph-name="Kcommaaccent" unicode="&#x136;" horiz-adv-x="1421" 
d="M1405 129v-129h-637v129h174q-84 86 -246 253q-161 167 -239 247v-500h182v-129h-573v129h225v1221h-225v129h565v-129h-174v-428l438 428h-160v129h627v-129h-262q-149 -144 -596 -572l649 -649h252zM702 -551h-159l166 397h204z" />
    <glyph glyph-name="kcommaaccent" unicode="&#x137;" horiz-adv-x="1292" 
d="M1286 131v-131h-352q-53 41 -240 200t-282 238v-309h168v-129h-560v129h226v1380h-223v129h389v-964q267 220 344 289h-152v129h617v-129h-258q-463 -379 -496 -406q51 -41 136 -111l204 -168q119 -99 174 -147h305zM635 -563h-160l166 397h205z" />
    <glyph glyph-name="Lacute" unicode="&#x139;" horiz-adv-x="1196" 
d="M1130 0h-1062v129h227v1221h-227v129h614v-129h-221v-1221h538v182h131v-311zM639 2001l-297 -340h-192l296 340h193z" />
    <glyph glyph-name="lacute" unicode="&#x13a;" horiz-adv-x="675" 
d="M412 129h227v-129h-614v129h221v1378l-219 2v129h385v-1509zM573 2105l-297 -340h-192l297 340h192z" />
    <glyph glyph-name="Lcommaaccent" unicode="&#x13b;" horiz-adv-x="1193" 
d="M1128 0h-1062v129h225v1221h-225v129h614v-129h-223v-1221h538v182h133v-311zM604 -551h-158l166 397h205z" />
    <glyph glyph-name="lcommaaccent" unicode="&#x13c;" horiz-adv-x="657" 
d="M410 129h227v-129h-614v129h221v1378l-219 2v129h385v-1509zM287 -551h-158l166 397h203z" />
    <glyph glyph-name="Lcaron" unicode="&#x13d;" horiz-adv-x="1257" 
d="M1128 0h-1062v129h225v1221h-225v129h614v-129h-223v-1221h538v182h133v-311zM995 1081h-159l165 398h205z" />
    <glyph glyph-name="lcaron" unicode="&#x13e;" horiz-adv-x="915" 
d="M410 129h227v-129h-614v129h221v1378l-219 2v129h385v-1509zM698 1274h-159l166 397h204z" />
    <glyph glyph-name="Lslash" unicode="&#x141;" horiz-adv-x="1193" 
d="M1128 0h-1065l3 129h225v436q-74 -61 -131 -110v149l131 109v637h-228l3 129h614v-129h-223v-498l225 188v-147q-84 -70 -225 -188v-576h538v182h133v-311z" />
    <glyph glyph-name="lslash" unicode="&#x142;" horiz-adv-x="665" 
d="M416 129h227v-129h-616v129h223v567q-100 -86 -176 -149v149q117 98 176 148v663l-219 2v129h385v-655q94 78 178 150v-148q-72 -59 -178 -149v-707z" />
    <glyph glyph-name="Nacute" unicode="&#x143;" horiz-adv-x="1691" 
d="M1427 0h-184q-160 245 -786 1212v-1083h223v-129h-614l2 129h223v1221h-223v129h401q115 -178 252 -389q137 -212 289 -446t252 -388v1094h-222v129h609v-129h-222v-1350zM1128 2003l-294 -340h-193l295 340h192z" />
    <glyph glyph-name="nacute" unicode="&#x144;" horiz-adv-x="1351" 
d="M283 963h-226v129h392v-162q131 170 327 170q338 0 338 -420v-551h221v-129h-567v129h180v537q0 301 -221 301q-86 -1 -158 -57t-120 -148v-633h176v-129h-568v129h226v834zM969 1645l-295 -340h-193l295 340h193z" />
    <glyph glyph-name="Ncommaaccent" unicode="&#x145;" horiz-adv-x="1691" 
d="M1427 0h-184q-160 245 -786 1212v-1083h223v-129h-614l2 129h223v1221h-223v129h401q115 -178 252 -389q137 -212 289 -446t252 -388v1094h-222v129h609v-129h-222v-1350zM817 -559h-160l166 397h205z" />
    <glyph glyph-name="ncommaaccent" unicode="&#x146;" horiz-adv-x="1351" 
d="M283 963h-226v129h392v-162q131 170 327 170q338 0 338 -420v-551h221v-129h-567v129h180v537q0 301 -221 301q-86 -1 -158 -57t-120 -148v-633h176v-129h-568v129h226v834zM698 -551h-157l164 397h204z" />
    <glyph glyph-name="Ncaron" unicode="&#x147;" horiz-adv-x="1691" 
d="M1427 0h-184q-160 245 -786 1212v-1083h223v-129h-614l2 129h223v1221h-223v129h401q115 -178 252 -389q137 -212 289 -446t252 -388v1094h-222v129h609v-129h-222v-1350zM1274 2009l-297 -340h-229q-35 37 -149 170q-113 133 -148 170h194q10 -10 217 -252
q193 225 219 252h193z" />
    <glyph glyph-name="ncaron" unicode="&#x148;" horiz-adv-x="1351" 
d="M283 963h-226v129h392v-162q131 170 327 170q338 0 338 -420v-551h221v-129h-567v129h180v537q0 301 -221 301q-86 -1 -158 -57t-120 -148v-633h176v-129h-568v129h226v834zM1114 1653l-297 -340h-229q-35 37 -149 170q-113 133 -148 170h194q64 -70 128 -146
q63 -77 89 -106q19 23 39 45q21 22 33 36l24 28q11 14 23 28q11 14 23 28t23 25q11 13 21 23t17 20q8 10 17 19h192z" />
    <glyph glyph-name="Omacron" unicode="&#x14c;" horiz-adv-x="1406" 
d="M696 1354q-226 0 -326 -168t-100 -448t106 -446t330 -167q226 0 329 170t103 447q0 276 -108 444q-109 168 -334 168zM707 1489q295 0 447 -204t151 -544q0 -339 -154 -545t-449 -206q-296 0 -448 204t-152 544q0 339 155 545t450 206zM897 1796v-129h-401v129h401z" />
    <glyph glyph-name="omacron" unicode="&#x14d;" horiz-adv-x="1134" 
d="M258 547q0 -424 313 -424q154 0 227 114q72 115 72 309t-76 310t-233 115q-159 1 -231 -115t-72 -309zM565 -10q-231 0 -349 150t-118 405q0 257 119 407t350 150t351 -151t118 -407q0 -256 -120 -406q-120 -148 -351 -148zM760 1438v-129h-404v129h404z" />
    <glyph glyph-name="Ohungarumlaut" unicode="&#x150;" horiz-adv-x="1406" 
d="M696 1354q-226 0 -326 -168t-100 -448t106 -446t330 -167q226 0 329 170t103 447q0 276 -108 444q-109 168 -334 168zM707 1489q295 0 447 -204t151 -544q0 -339 -154 -545t-449 -206q-296 0 -448 204t-152 544q0 339 155 545t450 206zM575 1626h-159l166 397h204z
M907 1626h-157l165 397h205z" />
    <glyph glyph-name="ohungarumlaut" unicode="&#x151;" horiz-adv-x="1148" 
d="M258 547q0 -424 313 -424q154 0 227 114q72 115 72 309t-76 310t-233 115q-159 1 -231 -115t-72 -309zM565 -10q-231 0 -349 150t-118 405q0 257 119 407t350 150t351 -151t118 -407q0 -256 -120 -406q-120 -148 -351 -148zM438 1268h-159l165 397h205zM770 1268h-158
l166 397h203z" />
    <glyph glyph-name="OE" unicode="&#x152;" horiz-adv-x="1878" 
d="M735 1348q-241 0 -355 -171t-114 -451t110 -438q110 -157 331 -157q141 0 243 53v1125q-86 39 -215 39zM741 1485q64 0 97 -6h901v-312h-133v183h-492v-521h512v-131h-512v-569h553v182h133v-311h-977q-58 -8 -125 -8q-296 0 -446 191t-150 537t161 556q161 209 478 209z
" />
    <glyph glyph-name="oe" unicode="&#x153;" horiz-adv-x="1824" 
d="M258 547q0 -424 313 -424q154 0 227 114q72 115 72 309t-76 310t-233 115q-159 1 -231 -115t-72 -309zM1724 610v-96h-682q18 -391 314 -391q74 0 127 30t114 91l101 -94q-84 -82 -162 -121t-180 -39q-276 0 -398 209q-119 -209 -393 -209q-231 0 -349 150t-118 405
q0 257 119 407t365 150t366 -193q111 193 367 193q205 0 307 -130t102 -362zM1567 637q-9 332 -260 332q-246 0 -265 -332h525z" />
    <glyph glyph-name="Racute" unicode="&#x154;" horiz-adv-x="1490" 
d="M457 1350v-564h239q131 0 202 74t71 210t-78 208t-221 72h-213zM457 655v-526h223v-129h-614v129h225v1221h-225v129h632q207 1 322 -101t115 -278q0 -333 -273 -418l348 -553h275v-129h-375l-416 655h-237zM883 2003l-295 -340h-193l295 340h193z" />
    <glyph glyph-name="racute" unicode="&#x155;" horiz-adv-x="913" 
d="M498 129h207v-129h-599l3 129h223v834h-226v129h392v-125q139 135 362 135v-133q-241 -1 -362 -144v-696zM645 1628l-295 -340h-192l295 340h192z" />
    <glyph glyph-name="Rcommaaccent" unicode="&#x156;" horiz-adv-x="1490" 
d="M457 1350v-564h239q131 0 202 74t71 210t-78 208t-221 72h-213zM457 655v-526h223v-129h-614v129h225v1221h-225v129h632q207 1 322 -101t115 -278q0 -333 -273 -418l348 -553h275v-129h-375l-416 655h-237zM745 -557h-159l166 397h204z" />
    <glyph glyph-name="rcommaaccent" unicode="&#x157;" horiz-adv-x="864" 
d="M813 969q-245 0 -364 -144v-696h206v-129h-598l2 129h224v834h-226v129h392v-125q137 135 364 135v-133zM350 -553h-160l166 397h205z" />
    <glyph glyph-name="Rcaron" unicode="&#x158;" horiz-adv-x="1490" 
d="M457 1350v-564h239q131 0 202 74t71 210t-78 208t-221 72h-213zM457 655v-526h223v-129h-614v129h225v1221h-225v129h632q207 1 322 -101t115 -278q0 -333 -273 -418l348 -553h275v-129h-375l-416 655h-237zM1028 2009l-297 -340h-229q-35 37 -149 170q-113 133 -148 170
h192q12 -14 219 -252q207 238 220 252h192z" />
    <glyph glyph-name="rcaron" unicode="&#x159;" horiz-adv-x="978" 
d="M514 129h209v-129h-598v129h225v834h-225v129h389v-127q139 137 365 137v-133q-246 -1 -365 -146v-694zM883 1610l-297 -340h-230q-35 37 -148 170q-114 133 -149 170h195q10 -10 217 -252l219 252h193z" />
    <glyph glyph-name="Sacute" unicode="&#x15a;" horiz-adv-x="1077" 
d="M115 393h131v-184q139 -84 267 -84t208 68t80 180t-88 184q-88 73 -202 132q-114 60 -166 94q-145 95 -188 199q-26 62 -26 142q0 168 110 262t291 95q104 0 188 -30t183 -95v-271h-133v199q-128 72 -238 72t-174 -60t-62 -169q1 -108 91 -183q66 -55 182 -116
q115 -62 170 -98t115 -90q114 -103 113 -279q0 -175 -128 -273t-333 -98t-391 125v278zM805 2003l-295 -340h-193l295 340h193z" />
    <glyph glyph-name="sacute" unicode="&#x15b;" horiz-adv-x="917" 
d="M448 969q-170 0 -169 -147q0 -70 51 -116t177 -90t221 -109q95 -66 94 -213q-1 -148 -97 -226t-260 -78t-367 108h-2v271h133v-179q133 -66 233 -66t149 46q51 44 51 106t-18 95q-28 54 -126 96q-33 14 -94 35q-147 51 -221 125q-74 75 -74 205t85 200q86 70 244 70
t296 -94v-260h-133v178q-89 43 -173 43zM705 1645l-297 -340h-193l297 340h193z" />
    <glyph glyph-name="Scedilla" unicode="&#x15e;" horiz-adv-x="1077" 
d="M731 -266q0 -88 -61 -137q-60 -49 -154 -49t-176 49l63 102q57 -35 107 -35q101 0 98 76q0 70 -61 70q-29 0 -55 -21l-113 102q18 39 49 103q-154 14 -313 121v278h131v-184q139 -84 267 -84t208 68t80 180t-88 184q-88 73 -202 132q-114 60 -166 94q-145 95 -188 199
q-26 62 -26 142q0 168 110 262t291 95q104 0 188 -30t183 -95v-271h-133v199q-128 72 -238 72t-174 -60t-62 -169q1 -108 91 -183q66 -55 182 -116q115 -62 170 -98t115 -90q114 -103 113 -267q1 -164 -97 -259t-266 -118q-12 -23 -35 -64q76 -8 119 -59t43 -139z" />
    <glyph glyph-name="scedilla" unicode="&#x15f;" horiz-adv-x="917" 
d="M448 969q-170 0 -169 -147q0 -70 51 -116t177 -90t221 -109q95 -66 94 -204q-1 -139 -79 -217t-219 -92q-24 -46 -32 -64q76 -8 118 -59t43 -138q0 -87 -61 -137q-60 -50 -154 -50t-174 48l62 103q63 -35 118 -35q86 0 86 76q0 70 -59 69q-33 0 -55 -20l-115 104
q16 31 55 109q-111 20 -258 98h-2v271h133v-179q133 -66 233 -66t149 46q51 44 51 106t-18 95q-28 54 -126 96q-33 14 -94 35q-147 51 -221 125q-74 75 -74 205t85 200q86 70 244 70t296 -94v-260h-133v178q-89 43 -173 43z" />
    <glyph glyph-name="Scaron" unicode="&#x160;" horiz-adv-x="1093" 
d="M129 393h131v-184q139 -84 267 -84t208 68t80 180t-88 185q-88 72 -201 131q-114 60 -166 94q-145 94 -189 199q-26 62 -26 142q0 168 110 262t292 95q104 0 187 -30t184 -95v-271h-134v199q-129 72 -238 72q-108 0 -172 -60t-64 -168q0 -107 79 -173q78 -66 194 -127
q115 -62 171 -98t114 -90q113 -103 113 -279q0 -175 -128 -273t-333 -98t-391 125v278zM965 2011l-297 -340h-230q-37 39 -151 172q-115 133 -146 168h195q52 -60 119 -140q67 -79 98 -112q115 135 219 252h193z" />
    <glyph glyph-name="scaron" unicode="&#x161;" horiz-adv-x="1003" 
d="M717 276q0 62 -17 95q-26 53 -127 96q-33 14 -92 35q-147 51 -222 125q-75 75 -75 205t85 200t244 70t296 -94v-260h-133v178q-88 43 -171 43t-126 -38t-43 -109q0 -70 50 -116t187 -93t219 -112t84 -209q0 -144 -96 -224q-96 -78 -258 -78t-368 108h-2v271h133v-179
q135 -66 233 -66t149 46q50 44 50 106zM903 1651l-295 -340h-231q-35 37 -148 170q-112 133 -147 170h192q27 -27 220 -252q193 225 217 252h192z" />
    <glyph glyph-name="Tcommaaccent" unicode="&#x162;" horiz-adv-x="1263" 
d="M549 1341h-340v-174h-131v312h1110v-312h-133v174h-340v-1212h223v-129h-614v129h225v1212zM592 -557h-158l166 397h203z" />
    <glyph glyph-name="tcommaaccent" unicode="&#x163;" horiz-adv-x="782" 
d="M231 319v603h-192v131h192v198l166 84v-282h328v-131h-328v-596q0 -98 30 -150q29 -52 99 -51q70 0 144 45l63 -115q-119 -66 -223 -65q-279 0 -279 329zM414 -565h-158l164 397h205z" />
    <glyph glyph-name="Tcaron" unicode="&#x164;" horiz-adv-x="1263" 
d="M549 1341h-340v-174h-131v312h1110v-312h-133v174h-340v-1212h223v-129h-614v129h225v1212zM1040 2007l-297 -340h-229q-35 37 -148 170q-114 133 -149 170h193q27 -27 219 -252q161 189 217 252h194z" />
    <glyph glyph-name="tcaron" unicode="&#x165;" horiz-adv-x="778" 
d="M231 319v642h-192v131h192v159l166 84v-243h330v-131h-330v-627l82 196h205l-209 -395q25 -10 73 -10t122 45l63 -115q-119 -66 -223 -65q-279 0 -279 329z" />
    <glyph glyph-name="Umacron" unicode="&#x16a;" horiz-adv-x="1601" 
d="M426 1350v-766q0 -221 91 -336t292 -115q365 0 365 412v805h-232v129h614v-129h-231v-789q0 -571 -528 -571q-522 0 -523 569v791h-227v129h615v-129h-236zM997 1796v-129h-401v129h401z" />
    <glyph glyph-name="umacron" unicode="&#x16b;" horiz-adv-x="1290" 
d="M897 963h-223v129h389v-963h207v-129h-373v147q-123 -158 -285 -157q-369 0 -368 418v555h-226v129h392v-678q0 -291 225 -291q145 0 262 207v633zM813 1440v-131h-401v131h401z" />
    <glyph glyph-name="Uring" unicode="&#x16e;" horiz-adv-x="1601" 
d="M426 1350v-766q0 -221 91 -336t292 -115q365 0 365 412v805h-232v129h614v-129h-231v-789q0 -571 -528 -571q-522 0 -523 569v791h-227v129h615v-129h-236zM541 1931q0 123 68 196q69 73 192 73t195 -72t73 -197q0 -125 -71 -197q-72 -72 -194 -71t-192 73t-71 195z
M684 1931q0 -65 30 -105t89 -40q121 0 121 148t-125 147q-115 0 -115 -150z" />
    <glyph glyph-name="uring" unicode="&#x16f;" horiz-adv-x="1290" 
d="M897 963h-223v129h389v-963h207v-129h-373v147q-123 -158 -285 -157q-369 0 -368 418v555h-226v129h392v-678q0 -291 225 -291q145 0 262 207v633zM356 1573q0 123 69 195t191 73q122 0 196 -72q73 -73 73 -197t-71 -196t-194 -72q-124 0 -194 74q-70 72 -70 195z
M500 1576q0 -148 118 -149q121 0 121 148t-125 147q-114 2 -114 -146z" />
    <glyph glyph-name="Uhungarumlaut" unicode="&#x170;" horiz-adv-x="1601" 
d="M426 1350v-766q0 -221 91 -336t292 -115q365 0 365 412v805h-232v129h614v-129h-231v-789q0 -571 -528 -571q-522 0 -523 569v791h-227v129h615v-129h-236zM676 1626h-160l166 397h205zM1010 1626h-160l166 397h205z" />
    <glyph glyph-name="uhungarumlaut" unicode="&#x171;" horiz-adv-x="1290" 
d="M897 963h-223v129h389v-963h207v-129h-373v147q-123 -158 -285 -157q-369 0 -368 418v555h-226v129h392v-678q0 -291 225 -291q145 0 262 207v633zM492 1270h-160l166 397h204zM825 1270h-159l165 397h205z" />
    <glyph glyph-name="Uogonek" unicode="&#x172;" horiz-adv-x="1601" 
d="M802 -371q-90 1 -148 63t-58 158t59 152q-379 70 -381 557v791h-227v129h615v-129h-236v-766q0 -221 91 -336t292 -115q365 0 365 412v805h-232v129h614v-129h-231v-789q0 -546 -485 -571q-103 -57 -103 -133q0 -45 23 -72q22 -27 60 -27t89 37l78 -100q-96 -66 -185 -66
z" />
    <glyph glyph-name="uogonek" unicode="&#x173;" horiz-adv-x="1290" 
d="M966 -367q-88 1 -146 63t-58 148t35 134q35 46 100 83v86q-123 -158 -285 -157q-369 0 -368 418v555h-226v129h392v-678q0 -291 225 -291q145 0 262 207v633h-223v129h389v-963h207v-129h-256q-53 -32 -82 -62t-29 -76t22 -73q23 -27 61 -27t89 37l76 -100
q-96 -66 -185 -66z" />
    <glyph glyph-name="Ydieresis" unicode="&#x178;" horiz-adv-x="1400" 
d="M776 129h215v-129h-612v129h217v561q-281 532 -348 660h-250v129h629v-129h-211q145 -285 268 -531q80 143 291 531h-209v129h629v-129h-252q-345 -619 -367 -656v-565zM633 1729h-199q0 39 27 63t71 23t73 -23q28 -22 28 -63zM633 1729q1 -84 -99 -84t-100 84h199z
M944 1729h-199q0 39 27 63t72 23q100 0 100 -86zM944 1729q0 -84 -99 -84t-100 84h199z" />
    <glyph glyph-name="Zacute" unicode="&#x179;" horiz-adv-x="1251" 
d="M1047 129v180h131v-309h-1110v129q276 397 449 646t209 300t71 101t121 174h-650v-181h-131v310h983v-129q-278 -396 -452 -646t-238 -339t-166 -236h783zM887 2001l-295 -340h-193l295 340h193z" />
    <glyph glyph-name="zacute" unicode="&#x17a;" horiz-adv-x="995" 
d="M115 780v312h766v-129q-345 -481 -418 -585q-75 -104 -99 -138t-79 -111h497v182h131v-311h-829v129l588 834h-426v-183h-131zM762 1645l-295 -340h-195l297 340h193z" />
    <glyph glyph-name="Zdotaccent" unicode="&#x17b;" horiz-adv-x="1251" 
d="M1047 129v180h131v-309h-1110v129q276 397 449 646t209 300t71 101t121 174h-650v-181h-131v310h983v-129q-278 -396 -452 -646t-238 -339t-166 -236h783zM721 1729q0 -41 -28 -64t-73 -23q-46 0 -72 23t-26 64h199zM721 1729h-199q0 39 27 61t72 22t73 -21t27 -62z" />
    <glyph glyph-name="zdotaccent" unicode="&#x17c;" horiz-adv-x="995" 
d="M115 780v312h766v-129q-345 -481 -418 -585q-75 -104 -99 -138t-79 -111h497v182h131v-311h-829v129l588 834h-426v-183h-131zM594 1370q0 -84 -98 -84t-99 84h197zM594 1370h-197q0 39 27 63q27 23 71 23q43 0 71 -22t28 -64z" />
    <glyph glyph-name="Zcaron" unicode="&#x17d;" horiz-adv-x="1251" 
d="M1047 129v180h131v-309h-1110v129q276 397 449 646t209 300t71 101t121 174h-650v-181h-131v310h983v-129q-278 -396 -452 -646t-238 -339t-166 -236h783zM1032 2009l-297 -340h-229q-35 37 -149 170q-113 133 -148 170h194q27 -29 107 -123t111 -129l219 252h192z" />
    <glyph glyph-name="zcaron" unicode="&#x17e;" horiz-adv-x="1038" 
d="M133 780v312h766v-129q-195 -271 -317 -443t-148 -209q-28 -37 -52 -71t-79 -111h498v182h131v-311h-830v129l588 834h-426v-183h-131zM924 1651l-295 -340h-232q-35 37 -147 170q-113 133 -148 170h193q16 -17 46 -51q29 -34 53 -62t63 -73q39 -46 57 -66
q205 238 217 252h193z" />
    <glyph glyph-name="florin" unicode="&#x192;" horiz-adv-x="827" 
d="M758 1556q-51 0 -85 -40t-46 -109l-47 -266h157v-129h-182l-156 -865q-27 -131 -101 -207t-192 -75q-35 0 -73 8l30 129q16 -4 31 -4q55 0 91 47t48 123q61 348 150 844h-139v129h162q6 29 15 80l15 85t9 52t10 55q25 129 99 204q75 75 183 75q25 0 80 -11l-29 -129
q-16 4 -30 4z" />
    <glyph glyph-name="Scommaaccent" unicode="&#x218;" horiz-adv-x="1077" 
d="M115 393h131v-184q139 -84 267 -84t208 68t80 180t-88 184q-88 73 -202 132q-114 60 -166 94q-145 95 -188 199q-26 62 -26 142q0 168 110 262t291 95q104 0 188 -30t183 -95v-271h-133v199q-128 72 -238 72t-174 -60t-62 -169q1 -108 91 -183q66 -55 182 -116
q115 -62 170 -98t115 -90q114 -103 113 -279q0 -175 -128 -273t-333 -98t-391 125v278zM430 -561h-160l166 397h205z" />
    <glyph glyph-name="scommaaccent" unicode="&#x219;" horiz-adv-x="919" 
d="M450 969q-170 0 -169 -147q0 -70 51 -116t177 -90t221 -109q95 -66 94 -213q-1 -148 -97 -226t-260 -78t-367 108h-2v271h133v-179q133 -66 233 -66t149 46q51 44 51 106t-18 95q-28 54 -126 96q-33 14 -94 35q-147 51 -221 125q-74 75 -74 205t85 200q86 70 244 70
t296 -94v-260h-133v178q-89 43 -173 43zM340 -573h-160l166 397h205z" />
    <glyph glyph-name="circumflex" unicode="&#x2c6;" horiz-adv-x="1167" 
d="M20 1210l295 340h232q35 -37 147 -170t148 -170h-193q-27 29 -219 252q-205 -238 -217 -252h-193z" />
    <glyph glyph-name="caron" unicode="&#x2c7;" horiz-adv-x="1003" 
d="M842 1536l-295 -340h-232q-35 37 -147 170q-113 133 -148 170h193q12 -14 217 -252q193 223 219 252h193z" />
    <glyph glyph-name="breve" unicode="&#x2d8;" horiz-adv-x="768" 
d="M467 1473h158q0 -135 -84 -208q-85 -73 -225 -73t-217 74t-76 209h157q0 -72 37 -113t106 -41t107 40t37 112z" />
    <glyph glyph-name="dotaccent" unicode="&#x2d9;" horiz-adv-x="870" 
d="M512 1362q0 -86 -98 -86t-99 86h197zM512 1362h-197q0 40 27 62t70 22q100 0 100 -84z" />
    <glyph glyph-name="ring" unicode="&#x2da;" horiz-adv-x="675" 
d="M27 1350q-1 124 67 196t191 72t195 -72t73 -198q0 -126 -71 -197q-72 -72 -194 -72t-192 73q-69 73 -69 198zM170 1352q0 -148 117 -148q121 0 121 148t-125 147q-113 1 -113 -147z" />
    <glyph glyph-name="ogonek" unicode="&#x2db;" horiz-adv-x="577" 
d="M182 -150q0 -42 23 -69t61 -27t88 37q23 -33 31 -41t9 -10t4 -4t34 -45q-96 -66 -185 -66q-89 1 -147 63t-57 164q0 102 70 155q58 47 159 95q45 -66 62 -90q-53 -29 -77 -43q-23 -14 -49 -46q-26 -31 -26 -73z" />
    <glyph glyph-name="tilde" unicode="&#x2dc;" horiz-adv-x="987" 
d="M252 1368q-34 0 -61 -27t-39 -57t-29 -90q-53 23 -53 24t-54 25q27 121 81 188t157 66q91 0 170 -85q37 -40 52 -53q46 -40 89 -40t69 28q26 27 36 55t28 85l107 -51q-33 -119 -81 -185q-48 -65 -148 -65t-191 100q-27 31 -38 43q-11 11 -36 25t-59 14z" />
    <glyph glyph-name="hungarumlaut" unicode="&#x2dd;" horiz-adv-x="976" 
d="M293 1362h-160l166 397h205zM627 1362h-160l166 397h205z" />
    <glyph glyph-name="pi" unicode="&#x3c0;" horiz-adv-x="1171" 
d="M389 1059v-993h-156v993h-198v141h1098v-141h-191v-993h-156v993h-397z" />
    <glyph glyph-name="endash" unicode="&#x2013;" horiz-adv-x="980" 
d="M131 498v141h719v-141h-719z" />
    <glyph glyph-name="emdash" unicode="&#x2014;" horiz-adv-x="1482" 
d="M129 498v141h1223v-141h-1223z" />
    <glyph glyph-name="quoteleft" unicode="&#x2018;" horiz-adv-x="587" 
d="M338 1618h160l-166 -397h-205z" />
    <glyph glyph-name="quoteright" unicode="&#x2019;" horiz-adv-x="585" 
d="M287 1081h-160l166 398h205z" />
    <glyph glyph-name="quotesinglbase" unicode="&#x201a;" horiz-adv-x="557" 
d="M213 -248h-160l166 398h205z" />
    <glyph glyph-name="quotedblleft" unicode="&#x201c;" horiz-adv-x="813" 
d="M625 1765h157l-164 -397h-204zM291 1765h160l-166 -397h-205z" />
    <glyph glyph-name="quotedblright" unicode="&#x201d;" horiz-adv-x="720" 
d="M176 1362h-160l166 397h205zM508 1362h-158l164 397h205z" />
    <glyph glyph-name="quotedblbase" unicode="&#x201e;" horiz-adv-x="884" 
d="M213 -248h-160l166 398h205zM541 -248h-158l166 398h205z" />
    <glyph glyph-name="dagger" unicode="&#x2020;" horiz-adv-x="1208" 
d="M682 1026h469v-141h-469v-1497h-156v1497h-469v141h469v512h156v-512z" />
    <glyph glyph-name="daggerdbl" unicode="&#x2021;" horiz-adv-x="1304" 
d="M573 -92h-467v143h467v834h-467v141h467v512h156v-512h469v-141h-469v-834h469v-143h-469v-520h-156v520z" />
    <glyph glyph-name="bullet" unicode="&#x2022;" horiz-adv-x="716" 
d="M555 901q0 -84 -54 -127q-53 -43 -145 -43t-144 44t-52 126h395zM555 901h-395q0 80 53 125t142 45t145 -44t55 -126z" />
    <glyph glyph-name="ellipsis" unicode="&#x2026;" horiz-adv-x="1187" 
d="M326 72h-199q0 38 27 62q28 24 72 24t72 -22t28 -64zM326 72q0 -84 -100 -84t-99 84h199zM1061 72h-197q0 42 27 64t70 22q100 0 100 -86zM1061 72q0 -84 -98 -84t-99 84h197zM696 72h-196q0 42 26 64t70 22q100 0 100 -86zM696 72q0 -84 -98 -84t-98 84h196z" />
    <glyph glyph-name="perthousand" unicode="&#x2030;" horiz-adv-x="2803" 
d="M213 1073q0 -317 223 -317q207 0 207 317t-213 318h-4q-213 -1 -213 -318zM68 1075q0 201 94 319t271 118t269 -118q92 -116 92 -317t-92 -321q-94 -120 -272 -121t-270 119t-92 321zM1546 612q-213 0 -213 -317t223 -318q205 -1 205 317t-211 318h-4zM1188 297
q0 201 94 319t271 117q177 0 269 -117q92 -118 93 -318q0 -200 -93 -321q-94 -121 -272 -121t-270 120t-92 321zM2372 612q-215 0 -215 -317t223 -318q207 -1 207 317t-211 318h-4zM2011 297q0 201 94 319q95 118 273 117q178 0 270 -117q92 -118 92 -318t-93 -321
t-272 -121t-272 120q-92 120 -92 321zM705 -135h-156l762 1638h157z" />
    <glyph glyph-name="guilsinglleft" unicode="&#x2039;" horiz-adv-x="679" 
d="M254 578q184 -131 285 -175v-149q-61 29 -212 122t-212 122v157q66 29 214 124t208 122v-149q-63 -27 -283 -174z" />
    <glyph glyph-name="guilsinglright" unicode="&#x203a;" horiz-adv-x="679" 
d="M426 578q-220 147 -283 174v149q59 -27 207 -122t215 -124v-157q-63 -29 -211 -122t-213 -122v149q55 24 163 94q108 71 122 81z" />
    <glyph glyph-name="fraction" unicode="&#x2044;" horiz-adv-x="997" 
d="M174 -135h-156l762 1638h158z" />
    <glyph glyph-name="foursuperior" unicode="&#x2074;" horiz-adv-x="923" 
d="M467 1006v331l-238 -331h238zM811 655h-543v103h199v137h-315l-68 111l383 542h145v-542h164v-111h-164v-137h199v-103z" />
    <glyph glyph-name="Euro" unicode="&#x20ac;" horiz-adv-x="1421" 
d="M219 708q0 52 4 105h-137v135h154q49 256 204 399q156 142 416 142q205 -1 434 -148v-258h-133v183q-147 86 -309 86q-365 0 -446 -404h456v-135h-473q-4 -49 -4 -102t4 -101h473v-137h-452q82 -346 415 -346q121 0 212 41t192 129l92 -100q-115 -107 -231 -157t-273 -50
q-240 0 -385 127t-190 356h-156v137h137q-4 46 -4 98z" />
    <glyph glyph-name="trademark" unicode="&#x2122;" horiz-adv-x="1798" 
d="M1581 1389v-107h-117v7l-6 44h-134q8 41 11 56h246zM117 1389h684v-218h-125v111h-141v-631h104v-108h-348v108h106v631h-155v-111h-125v218zM1111 1333h213q-24 -116 -90 -446l-51 85q-52 263 -72 361zM1098 651v-108h-99q6 53 15 108h-133q31 202 86 631h-111v107h244
q2 -10 11 -56h-138q-4 -25 -6 -51h32l184 -310q15 -78 34 -169q9 44 17 84l78 -132q-30 -137 -38 -177h-111q-16 80 -104 440q-27 -229 -45 -367h84zM1464 1282q17 -106 34 -225t32 -220t26 -186h-133zM1373 651l-61 104q6 25 27 121t35 150q41 -305 49 -375h-50zM1341 543
v108h32l65 -108h-97z" />
    <glyph glyph-name="estimated" unicode="&#x212e;" horiz-adv-x="1398" 
d="M772 -10q-336 0 -524 209t-188 555t170 540t472 193q302 0 470 -182t167 -498v-96h-977v-430q152 -158 411 -158t437 172l101 -86q-242 -219 -539 -219zM702 1354q-211 0 -340 -119v-401h682v405q-131 115 -342 115z" />
    <glyph glyph-name="partialdiff" unicode="&#x2202;" horiz-adv-x="1060" 
d="M506 778q-121 0 -190 -90q-68 -90 -68 -235t60 -239t179 -93h5q157 0 218 126q62 126 74 328q-74 203 -278 203zM495 901q189 0 296 -127v78q0 372 -129 468q-54 40 -140 40t-182 -78l-86 92q141 117 278 117q408 0 408 -639q0 -500 -124 -691q-48 -75 -133 -123
t-200 -48q-186 0 -289 123q-104 123 -104 327t108 333q108 128 297 128z" />
    <glyph glyph-name="product" unicode="&#x220f;" horiz-adv-x="1615" 
d="M76 1638h1464v-129h-223v-1380h225v-129h-614v129h223v1380h-690v-1380h227v-129h-616v129h223v1380h-219v129z" />
    <glyph glyph-name="summation" unicode="&#x2211;" horiz-adv-x="980" 
d="M723 129v174h151v-303h-798v129l524 639l-518 582v129h790q-63 -53 -73 -66q45 41 73 66v-303h-149v174h-455l516 -578l-528 -643h467z" />
    <glyph glyph-name="minus" unicode="&#x2212;" horiz-adv-x="1357" 
d="M133 567v142h1092v-142h-1092z" />
    <glyph glyph-name="divisionslash" unicode="&#x2215;" horiz-adv-x="944" 
d="M170 -135h-158l764 1638h156z" />
    <glyph glyph-name="bulletoperator" unicode="&#x2219;" horiz-adv-x="657" 
d="M526 901q0 -84 -54 -127t-145 -43t-144 44q-52 44 -52 126h395zM526 901h-395q0 80 53 125q52 45 142 45t145 -44t55 -126z" />
    <glyph glyph-name="radical" unicode="&#x221a;" horiz-adv-x="1259" 
d="M76 578v131h381q79 -233 115 -337t59 -171q80 242 428 1278h147l-491 -1479h-166q-100 296 -195 578h-278z" />
    <glyph glyph-name="infinity" unicode="&#x221e;" horiz-adv-x="1632" 
d="M1358 821q0 100 -66 166t-155 66q-89 -1 -147 -59t-109 -158q59 -121 94 -167q64 -85 158 -85q93 0 159 68t66 169zM1130 455q-190 0 -331 223q-135 -225 -316 -225q-158 0 -262 106t-104 263t106 259t264 103q187 0 318 -207q135 205 325 205q164 0 276 -102t112 -260
q0 -157 -112 -261t-276 -104zM502 582q20 0 52 15t62 41t57 82t50 103q-51 108 -86 152q-63 78 -152 79q-88 1 -148 -66q-61 -67 -61 -166t56 -170t147 -70h23z" />
    <glyph glyph-name="integral" unicode="&#x222b;" horiz-adv-x="835" 
d="M740 1556q-24 0 -51 -19q-52 -35 -71 -132q-168 -930 -229 -1258q-25 -131 -99 -207t-192 -75q-35 0 -73 8l30 129q14 -2 27 -2q57 0 94 46t48 110q103 604 222 1255q25 131 100 205t185 74q37 -1 78 -9l-31 -129q-14 4 -38 4z" />
    <glyph glyph-name="approxequal" unicode="&#x2248;" horiz-adv-x="1265" 
d="M432 752q78 0 133 -28t132 -98t159 -69q41 0 71 31q30 32 43 62t31 89q27 -8 132 -45q-41 -134 -103 -202t-162 -67q-102 1 -160 30t-134 97t-145 66q-69 0 -103 -49t-58 -137l-129 47q35 135 102 204t191 69zM430 1010q-70 0 -104 -49t-58 -138l-129 47q35 137 101 205
t190 68q78 0 133 -28q55 -27 132 -97t159 -70q41 0 72 31t44 61t31 90l132 -45q-43 -135 -105 -203t-162 -66q-100 1 -159 30q-59 28 -133 96t-144 68z" />
    <glyph glyph-name="notequal" unicode="&#x2260;" horiz-adv-x="1359" 
d="M119 377v137h418l149 317h-567v138h633l168 352h155l-168 -352h336v-138h-401l-152 -317h553v-137h-618l-172 -361h-154l172 361h-352z" />
    <glyph glyph-name="lessequal" unicode="&#x2264;" horiz-adv-x="1339" 
d="M111 782v148q946 432 1108 508v-146q-358 -162 -953 -436q594 -274 953 -436v-144q-625 283 -1108 506zM111 -2v135h1108v-135h-1108z" />
    <glyph glyph-name="greaterequal" unicode="&#x2265;" horiz-adv-x="1339" 
d="M123 1438q908 -415 1108 -508v-148q-201 -92 -1108 -506v144q465 211 952 436q-487 225 -952 436v146zM1231 -2h-1108v135h1108v-135z" />
    <glyph glyph-name="lozenge" unicode="&#x25ca;" horiz-adv-x="954" 
d="M477 455q109 222 232 487h165q-145 -311 -315 -663h-166l-313 663h166zM874 942h-165q-20 45 -77 162t-93 194q-35 77 -62 132l-231 -488h-166l313 664h166q61 -132 315 -664z" />
    <glyph glyph-name="fi" unicode="&#xfb01;" horiz-adv-x="1097" 
d="M551 0h-488v135h207v848h-229v133h229v113q0 207 104 332t316 125q113 0 230 -46v-280h-177v180q-14 10 -45 10q-143 0 -196 -90t-53 -243v-101h469l2 2v-983h153v-135h-430v135h98v848h-292v-848h102v-135z" />
    <glyph glyph-name="fl" unicode="&#xfb02;" horiz-adv-x="1671" 
d="M1068 1550h-52q-158 0 -253 -90t-95 -243v-101h473v424q-37 10 -73 10zM860 0h-672v135h304v848h-416v133h416v101q-2 217 140 342t376 124q143 0 309 -43v-1505h305v-135h-664v135h183v848h-473v-848h192v-135z" />
    <glyph glyph-name="Tcedilla" horiz-adv-x="1263" 
d="M852 -262q0 -92 -61 -142t-155 -50t-173 48l63 103q59 -35 117 -35q86 0 86 76q0 70 -59 69q-29 0 -56 -20l-112 102h2l-2 2l55 109h-235v129h227v1212h-340v-174h-131v312h1108v-312h-131v174h-340v-1212h223v-129h-209q-5 -14 -15 -30t-22 -40q131 -13 156 -148
q4 -22 4 -44z" />
    <glyph glyph-name="apostrophemod" horiz-adv-x="645" 
d="M295 1081h-160l166 398h205z" />
    <glyph glyph-name="commaaccent" horiz-adv-x="645" 
d="M276 -215h-159l166 397h204z" />
    <glyph glyph-name="deltamath" horiz-adv-x="1406" 
d="M711 1409l-496 -1266h975zM55 0v143l572 1463h172l553 -1463v-143h-1297z" />
    <glyph glyph-name="litre" horiz-adv-x="704" 
d="M432 129h227v-129h-614v129h223v1378l-221 2l2 129h383v-1509z" />
    <glyph glyph-name="logo" horiz-adv-x="3508" 
d="M535 1341h-340v-174h-132v312h1111v-312h-134v174h-340v-1212h224v-129h-615v129h226v1212zM1632 1350v-1221h271q469 0 469 590q0 299 -124 465t-384 166h-232zM1245 1479h627q332 0 498 -197t166 -550t-163 -543q-163 -189 -485 -189h-643v129h221v1221h-221v129z
M2599 393h131v-184q139 -84 267 -84q128 1 208 67t80 179t-91 187t-248 156q-156 82 -244 170t-89 248q0 160 110 254t292 95q104 0 187 -30t185 -95v-271h-133v199q-131 72 -240 72q-110 0 -172 -62t-62 -167q0 -106 81 -174q80 -67 242 -152q162 -86 254 -180t92 -266
q0 -173 -128 -269t-333 -96t-389 123v280z" />
    <glyph glyph-name="macronmod" horiz-adv-x="577" 
d="M489 1399v-131h-403v131h403z" />
    <glyph glyph-name="mumath" horiz-adv-x="1366" 
d="M930 963h-223v129h389v-961h207v-131h-373v147q-123 -158 -285 -157q-121 0 -203 47v-651h-166v1577h-225v129h391v-678q0 -289 226 -289q78 1 146 59t116 146v633z" />
    <glyph glyph-name="nullsuperior" horiz-adv-x="964" 
d="M264 1078q0 -318 223 -316q207 0 207 317t-213 318h-4q-213 -1 -213 -319zM119 1083q0 201 94 319t271 118q178 0 270 -117t92 -317t-93 -323q-93 -122 -271 -122q-178 1 -271 121q-92 120 -92 321z" />
    <glyph glyph-name="omegamath" horiz-adv-x="1474" 
d="M1403 129v-129h-361l-98 129q131 117 188 256q56 139 56 330q0 287 -117 466t-344 179q-152 0 -254 -90q-188 -166 -188 -561q0 -183 52 -321t177 -259l-90 -129h-356v129h237q-186 240 -186 586t159 560q160 214 462 214t458 -213t156 -568t-185 -579h234z" />
    <glyph glyph-name="ruble" horiz-adv-x="1202" 
d="M479 1350v-539h150q164 0 249 59q85 60 85 204t-87 210t-258 66h-139zM479 674v-187h387v-137h-387v-221h226v-129h-615v129h223v221h-153v137h153v187h-153v137h153v539h-223v129h551q487 0 487 -404q0 -395 -485 -401h-164z" />
    <glyph glyph-name="rupee" horiz-adv-x="1343" 
d="M0 0v41h1343v-41h-1343z" />
    <glyph glyph-name="softhyphen" horiz-adv-x="911" 
d="M131 606v142h649v-142h-649z" />
    <glyph glyph-name="tcedilla" horiz-adv-x="782" 
d="M448 -465q-94 0 -172 51l64 101q59 -35 117 -35q86 0 86 76q0 70 -60 69q-29 0 -55 -20l-113 104l66 133q-150 66 -150 305v642h-192v131h192v159l166 84v-243h328v-131h-328v-635q0 -98 30 -150q29 -52 99 -51q70 0 144 45l61 -115q-100 -57 -188 -63q0 -2 -37 -72
q99 -8 140 -97q19 -42 20 -95q0 -92 -62 -142t-156 -51z" />
    <glyph glyph-name="turkishlira" horiz-adv-x="1458" 
d="M1219 725h163q0 -346 -162 -536q-163 -189 -485 -189h-641v129h219v539h-161v137h161v201h-163v137h163v207h-219v129h615v-129h-230v-207h447v-137h-447v-201h449v-137h-449v-539h271q240 -1 354 157t115 439z" />
    </font>
</defs>
</svg>
