<?xml version="1.0" standalone="no"?>
<!DOCTYPE svg PUBLIC "-//W3C//DTD SVG 1.1//EN" "http://www.w3.org/Graphics/SVG/1.1/DTD/svg11.dtd" >
<svg xmlns="http://www.w3.org/2000/svg" xmlns:xlink="http://www.w3.org/1999/xlink" version="1.1">
<metadata>
Created by FontForge 20141219 at Thu Feb 19 10:34:20 2015
 By Simon Egli
Copyright 2015 Simon Egli
</metadata>
<defs>
<font id="Sean" horiz-adv-x="1006" >
  <font-face 
    font-family="Slab"
    font-weight="184"
    font-stretch="extra-condensed"
    units-per-em="1000"
    panose-1="2 0 7 3 0 0 0 0 0 0"
    ascent="800"
    descent="-200"
    x-height="533"
    cap-height="722"
    bbox="-26 -313 2202 1080"
    underline-thickness="0"
    underline-position="0"
    unicode-range="U+0020-FB02"
  />
    <missing-glyph />
    <glyph glyph-name="A" unicode="A" 
d="M503.954 639.409c48.9379 -112.934 97.1701 -226.209 145.422 -339.409h-307.365c53.8216 113.2 107.457 226.475 161.943 339.409zM468 722h-2c-107.388 -219.326 -219.745 -437.823 -328.026 -657h-152.974v-65h121h60h32h168v65h-136.45
c26.7151 55.2629 53.2136 110.612 79.6169 166h369.635c23.6378 -55.3876 47.3157 -110.737 71.1189 -166h-140.921v-65h169h31h58h123v65h-151.668c-96.9138 219.177 -195.865 437.674 -292.332 657h-2h-76z" />
    <glyph glyph-name="AE" unicode="&#xc6;" horiz-adv-x="1177" 
d="M662 0h462v32v33v87h-67v-87h-395v276h348v65h-348v251h355v-87h67v87v33v32h-408h-14h-41h-15h-9h-20h-137v-65h112.976l-400.953 -592h-163.024v-65h119h62h32h167v65h-124.327l87.9723 134h244.355v-134h-137v-65h137h29h15h41zM577 571.203v-303.203h-199.055z" />
    <glyph glyph-name="Aacute" unicode="&#xc1;" 
d="M474 821c60 49 134 117 194 166h-108c-60 -48 -135 -117 -194 -166h108zM503.498 640.462c49.0944 -113.283 97.4765 -226.91 145.879 -340.462h-307.74c53.76 113.552 107.295 227.179 161.861 340.462zM468 722h-2c-108.298 -219.326 -219.908 -437.823 -328.048 -657
h-152.952v-65h121h60h32h168v65h-136.473c26.6774 55.2629 53.0947 110.612 79.398 166h369.877c23.6378 -55.3876 47.3157 -110.737 71.1189 -166h-140.921v-65h169h31h58h123v65h-151.668c-96.9212 219.177 -195.955 437.674 -293.332 657h-2h-75z" />
    <glyph glyph-name="Abreve" unicode="&#x102;" 
d="M611 954c0 -55 -45 -73 -106 -73c-60 0 -104 19 -104 74h-81c0 -98 76 -138 182 -138c110 0 190 38 190 137h-81zM503.498 640.462c49.0944 -113.283 97.4765 -226.91 145.879 -340.462h-307.74c53.76 113.552 107.295 227.179 161.861 340.462zM468 722h-2
c-108.298 -219.326 -219.908 -437.823 -328.048 -657h-152.952v-65h121h60h32h168v65h-136.473c26.6774 55.2629 53.0947 110.612 79.398 166h369.877c23.6378 -55.3876 47.3157 -110.737 71.1189 -166h-140.921v-65h169h31h58h123v65h-151.668
c-96.9212 219.177 -195.955 437.674 -293.332 657h-2h-75z" />
    <glyph glyph-name="Acircumflex" unicode="&#xc2;" 
d="M759 826c-59 48 -134 117 -194 166h-13h-95h-14c-60 -49 -134 -118 -194 -166h109c44.9042 36.6718 97.65 83.9856 146.5 126.012c48.85 -42.0268 101.596 -89.3406 146.5 -126.012h108zM503.498 640.462c49.0944 -113.283 97.4765 -226.91 145.879 -340.462h-307.74
c53.76 113.552 107.295 227.179 161.861 340.462zM468 722h-2c-108.298 -219.326 -219.908 -437.823 -328.048 -657h-152.952v-65h121h60h32h168v65h-136.473c26.6774 55.2629 53.0947 110.612 79.398 166h369.877c23.6378 -55.3876 47.3157 -110.737 71.1189 -166h-140.921
v-65h169h31h58h123v65h-151.668c-96.9212 219.177 -195.955 437.674 -293.332 657h-2h-75z" />
    <glyph glyph-name="Adieresis" unicode="&#xc4;" 
d="M545 851h104c0 -29 -23 -43 -54 -43c-30 0 -50 15 -50 43zM545 851h104c0 30 -23 44 -54 44c-30 0 -50 -16 -50 -44zM362 851h103c0 -29 -22 -43 -53 -43c-30 0 -50 15 -50 43zM362 851h103c0 30 -22 44 -53 44c-30 0 -50 -16 -50 -44zM503.498 640.462
c49.0944 -113.283 97.4765 -226.91 145.879 -340.462h-307.74c53.76 113.552 107.295 227.179 161.861 340.462zM468 722h-2c-108.298 -219.326 -219.908 -437.823 -328.048 -657h-152.952v-65h121h60h32h168v65h-136.473c26.6774 55.2629 53.0947 110.612 79.398 166
h369.877c23.6378 -55.3876 47.3157 -110.737 71.1189 -166h-140.921v-65h169h31h58h123v65h-151.668c-96.9212 219.177 -195.955 437.674 -293.332 657h-2h-75z" />
    <glyph glyph-name="Agrave" unicode="&#xc0;" 
d="M637 821c-60 49 -134 117 -194 166h-109c60 -49 135 -117 195 -166h108zM503.498 640.462c49.0944 -113.283 97.4765 -226.91 145.879 -340.462h-307.74c53.76 113.552 107.295 227.179 161.861 340.462zM468 722h-2c-108.298 -219.326 -219.908 -437.823 -328.048 -657
h-152.952v-65h121h60h32h168v65h-136.473c26.6774 55.2629 53.0947 110.612 79.398 166h369.877c23.6378 -55.3876 47.3157 -110.737 71.1189 -166h-140.921v-65h169h31h58h123v65h-151.668c-96.9212 219.177 -195.955 437.674 -293.332 657h-2h-75z" />
    <glyph glyph-name="Amacron" unicode="&#x100;" 
d="M632 886h-264v-64h264v64zM503.498 640.462c49.0944 -113.283 97.4765 -226.91 145.879 -340.462h-307.74c53.76 113.552 107.295 227.179 161.861 340.462zM468 722h-2c-108.298 -219.326 -219.908 -437.823 -328.048 -657h-152.952v-65h121h60h32h168v65h-136.473
c26.6774 55.2629 53.0947 110.612 79.398 166h369.877c23.6378 -55.3876 47.3157 -110.737 71.1189 -166h-140.921v-65h169h31h58h123v65h-151.668c-96.9212 219.177 -195.955 437.674 -293.332 657h-2h-75z" />
    <glyph glyph-name="Aogonek" unicode="&#x104;" 
d="M503.954 639.409c48.9379 -112.934 97.1701 -226.209 145.422 -339.409h-307.365c53.8216 113.2 107.457 226.475 161.943 339.409zM468 722h-2c-107.388 -219.326 -219.745 -437.823 -328.026 -657h-152.974v-65h121h60h32h168v65h-136.45
c26.7151 55.2629 53.2136 110.612 79.6169 166h369.635c23.6378 -55.3876 47.3157 -110.737 71.1189 -166h-140.921v-65h109.07c-22.7477 -17.2478 -37.0696 -40.1213 -37.0696 -75c0 -72 52 -111 128 -111c42 0 70 12 107 30c-37 50 -1 2 -39 51c-21 -10 -37 -18 -61 -18
c-34 0 -58 17 -58 49c0 44.7021 45.2303 55.0291 90.0909 74h18.9091h123v65h-151.668c-96.9138 219.177 -195.865 437.674 -292.332 657h-2h-76z" />
    <glyph glyph-name="Aring" unicode="&#xc5;" 
d="M419 948c0 47 33 72 83 72c53 0 90 -21 90 -72c0 -48 -35 -71 -88 -71c-50 0 -85 23 -85 71zM344 948c0 -87 68 -131 160 -131c95 0 164 43 164 131c0 90 -70 132 -166 132c-93 0 -158 -44 -158 -132zM503.498 640.462
c49.0944 -113.283 97.4765 -226.91 145.879 -340.462h-307.74c53.76 113.552 107.295 227.179 161.861 340.462zM468 722h-2c-108.298 -219.326 -219.908 -437.823 -328.048 -657h-152.952v-65h121h60h32h168v65h-136.473c26.6774 55.2629 53.0947 110.612 79.398 166
h369.877c23.6378 -55.3876 47.3157 -110.737 71.1189 -166h-140.921v-65h169h31h58h123v65h-151.668c-96.9212 219.177 -195.955 437.674 -293.332 657h-2h-75z" />
    <glyph glyph-name="Atilde" unicode="&#xc3;" 
d="M687 975c-15 -48 -34 -86 -74 -86c-39 0 -63 14 -93 40c-38 33 -69 51 -119 51c-80 0 -123 -50 -144 -128c61 -26 1 0 61 -26c16 51 39 88 85 88c35 0 55 -18 80 -41c40 -34 75 -52 128 -52c79 0 115 54 139 128c-27.6994 11.6159 -30.6486 12.653 -31.0518 12.653
c-0.499253 0 -0.805322 0 -31.9482 13.347zM503.498 640.462c49.0944 -113.283 97.4765 -226.91 145.879 -340.462h-307.74c53.76 113.552 107.295 227.179 161.861 340.462zM468 722h-2c-108.298 -219.326 -219.908 -437.823 -328.048 -657h-152.952v-65h121h60h32h168v65
h-136.473c26.6774 55.2629 53.0947 110.612 79.398 166h369.877c23.6378 -55.3876 47.3157 -110.737 71.1189 -166h-140.921v-65h169h31h58h123v65h-151.668c-96.9212 219.177 -195.955 437.674 -293.332 657h-2h-75z" />
    <glyph glyph-name="B" unicode="B" horiz-adv-x="802" 
d="M268 65v310h122h40c124 0 222 -44 222 -161c0 -105 -79 -149 -193 -149h-191zM268 0h191c164 0 278 64 278 214c0 103.328 -63.1231 163.633 -149.581 195.575c55.3465 25.2546 94.5808 66.9884 94.5808 133.425c0 122 -92 179 -222 179h-192h-42h-13h-34h-135v-65
h135.022c0.0897422 -138.898 0.422362 -277.523 0.422362 -416.259c0 -58.5509 -0.0592429 -117.122 -0.220988 -175.741l-136.223 1.42109e-14v-65h136h34h11h44zM268 440v217h192c79 0 137 -36 137 -114c0 -79 -81 -103 -167 -103h-40h-122z" />
    <glyph glyph-name="C" unicode="C" horiz-adv-x="821" 
d="M757 655c-85 41 -176 72 -279 72c-251 0 -408 -136 -408 -383c0 -228 147 -349 381 -349c134 0 219 31 320 98c-42 53 0 0 -43 53c-89 -59 -164 -83 -273 -83c-186 0 -301 102 -301 284c0 198 121 312 320 312c78.5158 0 150.516 -16.2894 216 -45.928v-96.072h67v138z
" />
    <glyph glyph-name="Cacute" unicode="&#x106;" horiz-adv-x="821" 
d="M443 821c60 49 134 117 194 166h-109c-60 -48 -134 -117 -194 -166h109zM757 655c-85 41 -176 72 -279 72c-251 0 -408 -136 -408 -383c0 -228 147 -349 381 -349c134 0 219 31 320 98c-42 53 0 0 -43 53c-89 -59 -164 -83 -273 -83c-186 0 -301 102 -301 284
c0 198 121 312 320 312c78.5158 0 150.516 -16.2894 216 -45.928v-96.072h67v138z" />
    <glyph glyph-name="Ccaron" unicode="&#x10c;" horiz-adv-x="822" 
d="M217 986c60 -49 134 -117 194 -166h14h95h13c60 49 135 117 194 166h-108c-44.9042 -36.6718 -97.65 -83.9856 -146.5 -126.012c-48.85 42.0268 -101.596 89.3406 -146.5 126.012h-109zM757 655c-85 41 -176 72 -279 72c-251 0 -408 -136 -408 -383
c0 -228 147 -349 381 -349c134 0 219 31 320 98c-42 53 0 0 -43 53c-89 -59 -164 -83 -273 -83c-186 0 -301 102 -301 284c0 198 121 312 320 312c78.5158 0 150.516 -16.2894 216 -45.928v-96.072h67v138z" />
    <glyph glyph-name="Ccedilla" unicode="&#xc7;" horiz-adv-x="821" 
d="M441.057 -38.3188c8.66807 12.1391 16.967 23.7723 23.8264 33.4328c126.082 2.09859 208.649 33.2294 306.117 97.886c-42 53 0 0 -43 53c-89 -59 -164 -83 -273 -83c-186 0 -301 102 -301 284c0 198 121 312 320 312c78.5158 0 150.516 -16.2894 216 -45.928v-96.072
h67v138c-85 41 -176 72 -279 72c-251 0 -408 -136 -408 -383c0 -201.247 114.526 -319.131 302.318 -344.025c-15.4394 -22.5607 -31.0149 -45.52 -39.3184 -57.9753c21.7145 -19.4682 27.1697 -24.3591 28.4877 -25.5878
c0.174973 -0.271451 -2.14095 1.55212 28.5123 -26.4122c12 7 23 10 37 10c24 0 41 -12 41 -35c0 -28 -25 -37 -56 -37c-28 0 -50 6 -81 19l-26 -50c35 -16 63 -24 102 -24c77 0 136 24 136 93c0 59.4217 -41.8126 92.1545 -101.943 95.6812z" />
    <glyph glyph-name="D" unicode="D" horiz-adv-x="926" 
d="M266 722h-40h-45h-136v-65h136v-592h-136v-65h136h45h40h190c253 0 404 111 404 353c0 252 -154 369 -415 369h-179zM266 657h174c214 0 336 -100 336 -307c0 -192 -114 -285 -313 -285h-197v592z" />
    <glyph glyph-name="Dcaron" unicode="&#x10e;" horiz-adv-x="926" 
d="M171 986c59 -49 134 -118 194 -166h13h95h14c60 48 134 117 194 166h-109c-44.1772 -36.6895 -97.3248 -84.5921 -146.429 -126.496c-48.8699 41.9039 -101.645 89.8064 -146.571 126.496h-108zM266 722h-40h-45h-136v-65h136v-592h-136v-65h136h45h40h190
c253 0 404 111 404 353c0 252 -154 369 -415 369h-179zM266 657h174c214 0 336 -100 336 -307c0 -192 -114 -285 -313 -285h-197v592z" />
    <glyph glyph-name="Dcroat" unicode="&#x110;" horiz-adv-x="925" 
d="M266 722h-40h-45h-136v-65h136v-266h-75v-71h75v-255h-136v-65h136h45h40h189c254 0 405 111 405 353c0 252 -154 369 -416 369h-178zM266 657h174c214 0 336 -100 336 -307c0 -192 -114 -285 -313 -285h-197v255h217v71h-217v266z" />
    <glyph glyph-name="E" unicode="E" horiz-adv-x="781" 
d="M266 0h462v32v33v87h-67v-87h-395v276h349v65h-349v251h355v-87h68v87v33v32h-423h-41h-14h-30h-137v-65h137v-592h-137v-65h137h30h14h41z" />
    <glyph glyph-name="Eacute" unicode="&#xc9;" horiz-adv-x="781" 
d="M381 821c60 49 134 117 194 166h-108c-60 -49 -135 -117 -194 -166h108zM266 0h462v32v33v87h-67v-87h-395v276h349v65h-349v251h355v-87h68v87v33v32h-423h-41h-14h-30h-137v-65h137v-592h-137v-65h137h30h14h41z" />
    <glyph glyph-name="Ecaron" unicode="&#x11a;" horiz-adv-x="781" 
d="M156 986c59 -49 133 -118 194 -166h13h95h14c60 48 134 117 194 166h-109c-44.9042 -36.6718 -97.65 -83.9856 -146.5 -126.012c-48.85 42.0268 -101.596 89.3406 -146.5 126.012h-108zM266 0h462v32v33v87h-67v-87h-395v276h349v65h-349v251h355v-87h68v87v33v32h-423
h-41h-14h-30h-137v-65h137v-592h-137v-65h137h30h14h41z" />
    <glyph glyph-name="Ecircumflex" unicode="&#xca;" horiz-adv-x="781" 
d="M666 825c-60 49 -134 118 -194 166h-13h-95h-14c-60 -48 -134 -117 -194 -166h108c44.9284 36.6915 98.2674 84.0365 147.421 126.08c48.8721 -42.0437 101.65 -89.3887 146.579 -126.08h108zM266 0h462v32v33v87h-67v-87h-395v276h349v65h-349v251h355v-87h68v87v33v32
h-423h-41h-14h-30h-137v-65h137v-592h-137v-65h137h30h14h41z" />
    <glyph glyph-name="Edieresis" unicode="&#xcb;" horiz-adv-x="781" 
d="M451 851h104c0 -29 -22 -43 -53 -43c-30 0 -51 15 -51 43zM451 851h104c0 29 -22 44 -53 44c-30 0 -51 -16 -51 -44zM268 851h104c0 -29 -22 -43 -53 -43s-51 15 -51 43zM268 851h104c0 29 -22 44 -53 44c-30 0 -51 -16 -51 -44zM266 0h462v32v33v87h-67v-87h-395v276
h349v65h-349v251h355v-87h68v87v33v32h-423h-41h-14h-30h-137v-65h137v-592h-137v-65h137h30h14h41z" />
    <glyph glyph-name="Edotaccent" unicode="&#x116;" horiz-adv-x="781" 
d="M360 852h104c0 29 -22 43 -53 43c-30 0 -51 -16 -51 -43zM360 852h104c0 -30 -22 -44 -53 -44s-51 15 -51 44zM266 0h462v32v33v87h-67v-87h-395v276h349v65h-349v251h355v-87h68v87v33v32h-423h-41h-14h-30h-137v-65h137v-592h-137v-65h137h30h14h41z" />
    <glyph glyph-name="Egrave" unicode="&#xc8;" horiz-adv-x="781" 
d="M544 821c-60 48 -134 117 -194 166h-109c60 -49 134 -117 194 -166h109zM266 0h462v32v33v87h-67v-87h-395v276h349v65h-349v251h355v-87h68v87v33v32h-423h-41h-14h-30h-137v-65h137v-592h-137v-65h137h30h14h41z" />
    <glyph glyph-name="Emacron" unicode="&#x112;" horiz-adv-x="781" 
d="M539 885h-265v-64h265v64zM266 0h462v32v33v87h-67v-87h-395v276h349v65h-349v251h355v-87h68v87v33v32h-423h-41h-14h-30h-137v-65h137v-592h-137v-65h137h30h14h41z" />
    <glyph glyph-name="Eogonek" unicode="&#x118;" horiz-adv-x="790" 
d="M562.133 0c-18.6657 -16.5082 -30.1326 -38.0178 -30.1326 -69c0 -72 53 -111 129 -111c42 0 70 12 107 30c-38 50 -1 2 -39 51c-21 -10 -37 -18 -61 -18c-34 0 -58 17 -58 49c0 39.7881 35.1162 52.3433 75.0141 68h42.9859v32v33v87h-67v-87h-395v276h349v65h-349v251
h355v-87h68v87v33v32h-423h-41h-14h-30h-137v-65h137v-592h-137v-65h137h30h14h41h296.133z" />
    <glyph glyph-name="Eth" unicode="&#xd0;" horiz-adv-x="926" 
d="M266 722h-40h-45h-136v-65h136v-266h-74v-71h74v-255h-136v-65h136h45h40h190c253 0 404 111 404 353c0 252 -154 369 -415 369h-179zM266 657h174c214 0 336 -100 336 -307c0 -192 -114 -285 -313 -285h-197v255h218v71h-218v266z" />
    <glyph glyph-name="Euro" unicode="&#x20ac;" horiz-adv-x="914" 
d="M833 655c-85 41 -176 72 -279 72c-204.781 0 -347.659 -90.5255 -393.334 -258h-103.666v-69h90.8784c-1.90849 -17.9773 -2.87837 -36.648 -2.87837 -56c0 -16.5667 0.781384 -32.5685 2.32037 -48h-90.3204v-69h103.237c43.3609 -152.166 176.691 -232 366.763 -232
c134 0 219 31 319 98l-42 53c-89 -59 -164 -83 -274 -83c-140.009 0 -239.222 57.7944 -279.725 164h292.725v69h-309.779c-2.13431 16.2238 -3.221 33.2306 -3.221 51c0 18.4001 1.04495 36.0748 3.10034 53h309.9v69h-294.632c40.8761 122.067 148.013 190 301.632 190
c78.5158 0 150.516 -16.2894 216 -45.928v-96.072h67v138z" />
    <glyph glyph-name="F" unicode="F" horiz-adv-x="749" 
d="M268 657h360v-87h67v87v33v32h-427h-43h-13h-29h-139v-65h139v-592h-139v-65h139h42h43h138v65h-138v276h341v65h-341v251z" />
    <glyph glyph-name="G" unicode="G" horiz-adv-x="914" 
d="M765 112.169c-88.6945 -36.3233 -165.027 -48.1689 -269 -48.1689c-210 0 -344 102 -344 305c0 192 131 290 331 290c101.862 0 183.512 -16.8425 272 -58.2554v-90.7446h67v134c-113 58 -212 83 -339 83c-252 0 -416 -122 -416 -365c0 -247 171 -367 429 -367
c136 0 223 27 346 83v266h-24h-53h-206v-65h206v-166.831z" />
    <glyph glyph-name="Gbreve" unicode="&#x11e;" horiz-adv-x="914" 
d="M588 954c0 -55 -45 -74 -106 -74c-60 0 -104 20 -104 75h-81c0 -99 76 -139 182 -139c109 0 190 38 190 138h-81zM765 112.169c-88.6945 -36.3233 -165.027 -48.1689 -269 -48.1689c-210 0 -344 102 -344 305c0 192 131 290 331 290
c101.862 0 183.512 -16.8425 272 -58.2554v-90.7446h67v134c-113 58 -212 83 -339 83c-252 0 -416 -122 -416 -365c0 -247 171 -367 429 -367c136 0 223 27 346 83v266h-24h-53h-206v-65h206v-166.831z" />
    <glyph glyph-name="Gcommaaccent" unicode="&#x122;" horiz-adv-x="914" 
d="M441 -308l138 201h-108l-114 -201h84zM765 112.169c-88.6945 -36.3233 -165.027 -48.1689 -269 -48.1689c-210 0 -344 102 -344 305c0 192 131 290 331 290c101.862 0 183.512 -16.8425 272 -58.2554v-90.7446h67v134c-113 58 -212 83 -339 83
c-252 0 -416 -122 -416 -365c0 -247 171 -367 429 -367c136 0 223 27 346 83v266h-24h-53h-206v-65h206v-166.831z" />
    <glyph glyph-name="H" unicode="H" horiz-adv-x="1045" 
d="M777 330v-265h-138v-65h181h181v65h-139v592h139v65h-181h-181v-65h138v-262h-509v262h138v65h-138h-43h-42h-139v-65h139v-592h-139v-65h139h42h43h138v65h-138v265h509z" />
    <glyph glyph-name="I" unicode="I" horiz-adv-x="450" 
d="M181 0h44h41h141v65h-141v592h141v65h-141h-41h-44h-137v-65h137v-592h-137v-65h137z" />
    <glyph glyph-name="Iacute" unicode="&#xcd;" horiz-adv-x="465" 
d="M199 821c60 49 134 117 194 166h-109c-60 -48 -134 -117 -194 -166h109zM185 0h44h41h140v65h-140v592h140v65h-140h-41h-44h-137v-65h137v-592h-137v-65h137z" />
    <glyph glyph-name="Icircumflex" unicode="&#xce;" horiz-adv-x="593" 
d="M554 826c-60 48 -134 117 -194 166h-13h-95h-14c-60 -49 -134 -118 -194 -166h108c44.8637 35.891 98.114 83.5231 147.209 125.756c48.677 -42.2329 101.927 -89.865 146.791 -125.756h108zM255 0h44h41h140v65h-140v592h140v65h-140h-41h-44h-137v-65h137v-592h-137
v-65h137z" />
    <glyph glyph-name="Idieresis" unicode="&#xcf;" horiz-adv-x="475" 
d="M278 851h103c0 -29 -22 -43 -53 -43c-30 0 -50 15 -50 43zM278 851h103c0 29 -22 44 -53 44c-30 0 -50 -16 -50 -44zM94 851h104c0 -29 -22 -43 -53 -43c-30 0 -51 15 -51 43zM94 851h104c0 29 -22 44 -53 44c-30 0 -51 -16 -51 -44zM193 0h44h41h141v65h-141v592h141v65
h-141h-41h-44h-137v-65h137v-592h-137v-65h137z" />
    <glyph glyph-name="Idotaccent" unicode="&#x130;" horiz-adv-x="450" 
d="M174 852h104c0 29 -22 43 -53 43c-30 0 -51 -16 -51 -43zM174 852h104c0 -30 -22 -43 -53 -43s-51 14 -51 43zM181 0h44h41h141v65h-141v592h141v65h-141h-41h-44h-137v-65h137v-592h-137v-65h137z" />
    <glyph glyph-name="Igrave" unicode="&#xcc;" horiz-adv-x="462" 
d="M365 821c-60 49 -134 117 -194 166h-109c60 -49 134 -117 194 -166h109zM188 0h44h41h140v65h-140v592h140v65h-140h-41h-44h-137v-65h137v-592h-137v-65h137z" />
    <glyph glyph-name="Imacron" unicode="&#x12a;" horiz-adv-x="450" 
d="M353 886h-264v-65h264v65zM181 0h44h41h141v65h-141v592h141v65h-141h-41h-44h-137v-65h137v-592h-137v-65h137z" />
    <glyph glyph-name="Iogonek" unicode="&#x12e;" horiz-adv-x="450" 
d="M119.368 3.55271e-15c-13.4353 -15.2833 -21.3682 -34.7001 -21.3682 -61c0 -71 52 -111 128 -111c42 0 70 13 107 31c-37 50 -1 1 -38 51c-22 -11 -38 -19 -62 -19c-34 0 -58 18 -58 50c0 32.3324 23.6619 46.6817 53.7314 59l37.2686 3.55271e-15h141v65h-141v592h141
v65h-141h-41h-44h-137v-65h137v-592h-137v-65z" />
    <glyph glyph-name="J" unicode="J" horiz-adv-x="603" 
d="M36 43c37 -22 88 -46 152 -46c154 0 245 79 245 234v426h140v65h-140h-41h-44h-137v-65h137v-426c0 -105 -56 -169 -160 -169c-46 0 -76 15 -114 33c-37 -50 -1 -2 -38 -52z" />
    <glyph glyph-name="K" unicode="K" horiz-adv-x="905" 
d="M268 321.376c111.659 -85.2397 223.005 -171.106 334.649 -256.376h-106.649v-65h192h24h3h100h76v65h-163.396c-141.112 105.073 -280.982 209.693 -423.604 315c137.569 97.9167 259.421 186.011 387.284 277h168.716v65h-77h-92h-29h-187v-65h97.1764
c-101.301 -73.6364 -202.423 -148.048 -304.176 -221.613v221.613h125v65h-125h-43h-42h-139v-65h139v-592h-139v-65h139h42h43h132v65h-132v256.376z" />
    <glyph glyph-name="Kcommaaccent" unicode="&#x136;" horiz-adv-x="905" 
d="M424 -302l138 200h-108l-115 -200h85zM268 321.376c111.659 -85.2397 223.005 -171.106 334.649 -256.376h-106.649v-65h192h24h3h100h76v65h-163.396c-141.112 105.073 -280.982 209.693 -423.604 315c137.569 97.9167 259.421 186.011 387.284 277h168.716v65h-77h-92
h-29h-187v-65h97.1764c-101.301 -73.6364 -202.423 -148.048 -304.176 -221.613v221.613h125v65h-125h-43h-42h-139v-65h139v-592h-139v-65h139h42h43h132v65h-132v256.376z" />
    <glyph glyph-name="L" unicode="L" horiz-adv-x="765" 
d="M268 0h453v32v33v87h-67v-87h-386v592h137v65h-137h-44h-41h-140v-65h140v-592h-140v-65h140h41h44z" />
    <glyph glyph-name="Lacute" unicode="&#x139;" horiz-adv-x="770" 
d="M198 820c60 49 134 117 194 166h-108c-61 -48 -135 -117 -195 -166h109zM273 0h452v32v33v87h-66v-87h-386v592h137v65h-137h-44h-41h-140v-65h140v-592h-140v-65h140h41h44z" />
    <glyph glyph-name="Lcaron" unicode="&#x13d;" horiz-adv-x="758" 
d="M569 521l138 201h-108l-114 -201h84zM268 0h453v32v33v87h-67v-87h-386v592h137v65h-137h-44h-41h-140v-65h140v-592h-140v-65h140h41h44z" />
    <glyph glyph-name="Lcommaaccent" unicode="&#x13b;" horiz-adv-x="765" 
d="M366 -304l138 201h-108l-114 -201h84zM268 0h453v32v33v87h-67v-87h-386v592h137v65h-137h-44h-41h-140v-65h140v-592h-140v-65h140h41h44z" />
    <glyph glyph-name="Lslash" unicode="&#x141;" horiz-adv-x="764" 
d="M268 0h452v32v33v87h-67v-87h-385v262.096c56.4166 47.3013 112.83 94.6026 169 141.904v72c-56.1703 -47.3013 -112.583 -94.6026 -169 -141.784v257.784h137v65h-137h-44h-41h-140v-65h140v-328.788c-29.7108 -24.7931 -59.3891 -49.5363 -89 -74.2121v-73
c29.6109 24.9355 59.2892 49.871 89 74.8064v-190.806h-140v-65h140h41h44z" />
    <glyph glyph-name="M" unicode="M" horiz-adv-x="1226" 
d="M576 0h74h10c87.3367 194.89 174.673 389.126 262.01 583.766c16.0862 -172.993 31.5345 -345.668 47.8302 -518.766h-135.84v-65h142h39h46h135v65h-141.544c-20.0859 197.517 -41.8267 394.483 -61.9125 592h135.456v65h-142h-2h-37h-38h-6
c-97.5602 -213.746 -193.547 -426.705 -290.054 -640.272c-97.0518 213.568 -195.499 426.527 -293.946 640.272h-3h-38h-40h-3h-138v-65h131.795c-18.863 -197.517 -37.726 -394.483 -56.589 -592h-141.205v-65h135h46h37h144v65h-138.064
c15.715 171.97 31.4758 343.523 47.6466 515.385c88.1855 -193.508 175.978 -386.623 264.417 -580.385h9z" />
    <glyph glyph-name="N" unicode="N" horiz-adv-x="1071" 
d="M825 0h83h2v657h133v65h-133h-41h-7h-37h-138v-65h138v-561.792c-182.317 209.05 -364.536 417.544 -546 626.792h-11h-41h-44h-7h-130v-65h137v-592h-138l-1 -65h139h43h42h139v65h-139v551.477c179.333 -205.593 358.667 -410.67 538 -616.477h19z" />
    <glyph glyph-name="Nacute" unicode="&#x143;" horiz-adv-x="1071" 
d="M507 821c60 49 135 117 195 166h-109c-60 -48 -134 -117 -194 -166h108zM825 0h83h2v657h133v65h-133h-41h-7h-37h-138v-65h138v-561.792c-182.317 209.05 -364.536 417.544 -546 626.792h-11h-41h-44h-7h-130v-65h137v-592h-138l-1 -65h139h43h42h139v65h-139v551.477
c179.333 -205.593 358.667 -410.67 538 -616.477h19z" />
    <glyph glyph-name="Ncaron" unicode="&#x147;" horiz-adv-x="1071" 
d="M282 986c60 -49 134 -117 194 -166h14h94h14c60 49 134 117 194 166h-108c-44.928 -36.6912 -98.2664 -84.0357 -147 -126.079c-48.7336 42.0434 -102.072 89.3879 -147 126.079h-108zM825 0h83h2v657h133v65h-133h-41h-7h-37h-138v-65h138v-561.792
c-182.317 209.05 -364.536 417.544 -546 626.792h-11h-41h-44h-7h-130v-65h137v-592h-138l-1 -65h139h43h42h139v65h-139v551.477c179.333 -205.593 358.667 -410.67 538 -616.477h19z" />
    <glyph glyph-name="Ncommaaccent" unicode="&#x145;" horiz-adv-x="1071" 
d="M498 -304l137 201h-108l-114 -201h85zM825 0h83h2v657h133v65h-133h-41h-7h-37h-138v-65h138v-561.792c-182.317 209.05 -364.536 417.544 -546 626.792h-11h-41h-44h-7h-130v-65h137v-592h-138l-1 -65h139h43h42h139v65h-139v551.477
c179.333 -205.593 358.667 -410.67 538 -616.477h19z" />
    <glyph glyph-name="Ntilde" unicode="&#xd1;" horiz-adv-x="1071" 
d="M720 975c-15 -48 -34 -86 -74 -86c-39 0 -63 14 -92 40c-39 33 -69 50 -120 50c-79 0 -123 -49 -144 -127c61 -27 1 0 61 -27c16 52 40 88 86 88c34 0 54 -17 80 -40c40 -35 74 -52 128 -52c78 0 114 54 138 128c-27.6994 11.6159 -30.6486 12.653 -31.0518 12.653
c-0.499253 0 -0.805322 0 -31.9482 13.347zM825 0h83h2v657h133v65h-133h-41h-7h-37h-138v-65h138v-561.792c-182.317 209.05 -364.536 417.544 -546 626.792h-11h-41h-44h-7h-130v-65h137v-592h-138l-1 -65h139h43h42h139v65h-139v551.477
c179.333 -205.593 358.667 -410.67 538 -616.477h19z" />
    <glyph glyph-name="O" unicode="O" horiz-adv-x="904" 
d="M70 360c0 -228 149 -365 381 -365c233 0 383 138 383 368c0 227 -148 364 -379 364c-234 0 -385 -138 -385 -367zM155 360c0 182 109 300 292 300c186 0 302 -114 302 -297c0 -182 -111 -300 -294 -300c-186 0 -300 113 -300 297z" />
    <glyph glyph-name="OE" unicode="&#x152;" horiz-adv-x="1214" 
d="M700 0h462v32v33v87h-67v-87h-395v276h349v65h-349v251h355v-87h68v87v33v32h-423h-41h-14h-30h-77.2604c-19.4066 2.00517 -39.5446 3 -60.7396 3c-250 0 -409 -135 -409 -381c0 -226 149 -347 382 -347c25.3041 0 48.4771 0.947187 70.2246 3l94.7754 2.22045e-16h30
h14h41zM615 639.378v-549.983c-51.0227 -18.6462 -98.5908 -23.3954 -161 -23.3954c-182 0 -301 100 -301 281c0 197 123 309 320 309c52.5119 0 97.4944 -2.89592 142 -16.6219z" />
    <glyph glyph-name="Oacute" unicode="&#xd3;" horiz-adv-x="904" 
d="M423 821c59 49 134 117 194 166h-109c-60 -48 -134 -117 -194 -166h109zM70 360c0 -228 149 -365 381 -365c233 0 383 138 383 368c0 227 -148 364 -379 364c-234 0 -385 -138 -385 -367zM155 360c0 182 109 300 292 300c186 0 302 -114 302 -297
c0 -182 -111 -300 -294 -300c-186 0 -300 113 -300 297z" />
    <glyph glyph-name="Ocircumflex" unicode="&#xd4;" horiz-adv-x="904" 
d="M708 826c-60 48 -134 117 -194 166h-14h-95h-14c-60 -49 -134 -118 -194 -166h109c44.9042 35.9234 97.65 83.609 146.5 125.87c48.85 -42.2613 101.596 -89.9469 146.5 -125.87h109zM70 360c0 -228 149 -365 381 -365c233 0 383 138 383 368c0 227 -148 364 -379 364
c-234 0 -385 -138 -385 -367zM155 360c0 182 109 300 292 300c186 0 302 -114 302 -297c0 -182 -111 -300 -294 -300c-186 0 -300 113 -300 297z" />
    <glyph glyph-name="Odieresis" unicode="&#xd6;" horiz-adv-x="904" 
d="M493 851h104c0 29 -23 44 -53 44c-31 0 -51 -16 -51 -44zM493 851h104c0 -29 -22 -43 -54 -43c-30 0 -50 15 -50 43zM310 851h104c0 -29 -23 -43 -54 -43c-30 0 -50 15 -50 43zM310 851h104c0 29 -23 44 -53 44c-31 0 -51 -16 -51 -44zM70 360c0 -228 149 -365 381 -365
c233 0 383 138 383 368c0 227 -148 364 -379 364c-234 0 -385 -138 -385 -367zM155 360c0 182 109 300 292 300c186 0 302 -114 302 -297c0 -182 -111 -300 -294 -300c-186 0 -300 113 -300 297z" />
    <glyph glyph-name="Ograve" unicode="&#xd2;" horiz-adv-x="904" 
d="M585 821c-59 49 -134 117 -194 166h-108c60 -49 134 -117 194 -166h108zM70 360c0 -228 149 -365 381 -365c233 0 383 138 383 368c0 227 -148 364 -379 364c-234 0 -385 -138 -385 -367zM155 360c0 182 109 300 292 300c186 0 302 -114 302 -297
c0 -182 -111 -300 -294 -300c-186 0 -300 113 -300 297z" />
    <glyph glyph-name="Ohungarumlaut" unicode="&#x150;" horiz-adv-x="904" 
d="M560 776l138 200h-108l-114 -200h84zM372 776l138 200h-108l-115 -200h85zM70 360c0 -228 149 -365 381 -365c233 0 383 138 383 368c0 227 -148 364 -379 364c-234 0 -385 -138 -385 -367zM155 360c0 182 109 300 292 300c186 0 302 -114 302 -297
c0 -182 -111 -300 -294 -300c-186 0 -300 113 -300 297z" />
    <glyph glyph-name="Omacron" unicode="&#x14c;" horiz-adv-x="904" 
d="M581 886h-265v-65h265v65zM70 360c0 -228 149 -365 381 -365c233 0 383 138 383 368c0 227 -148 364 -379 364c-234 0 -385 -138 -385 -367zM155 360c0 182 109 300 292 300c186 0 302 -114 302 -297c0 -182 -111 -300 -294 -300c-186 0 -300 113 -300 297z" />
    <glyph glyph-name="Oslash" unicode="&#xd8;" horiz-adv-x="904" 
d="M70 360c0 -140.342 56.454 -246.206 153.969 -306.863l-55.9695 -89.1366l53 -35l60.2817 95.543c49.5309 -19.3858 106.548 -29.543 169.718 -29.543c233 0 383 138 383 368c0 137.343 -54.1778 241.74 -148.137 302.781l53.1371 84.2193l-58 31l-53.3732 -85.0018
c-50.1326 20.3271 -108.146 31.0018 -172.627 31.0018c-234 0 -385 -138 -385 -367zM155 360c0 182 109 300 292 300c53.1221 0 100.534 -9.29884 141.165 -26.8482l-323.635 -515.419c-70.1809 50.5709 -109.53 134.166 -109.53 242.267zM644.536 600.279
c66.8068 -51.1443 104.464 -133.012 104.464 -237.279c0 -182 -111 -300 -294 -300c-50.3218 0 -95.3735 8.27113 -134.323 23.9817z" />
    <glyph glyph-name="Otilde" unicode="&#xd5;" horiz-adv-x="904" 
d="M636 975c-16 -48 -35 -86 -75 -86c-39 0 -63 14 -92 40c-39 33 -69 50 -120 50c-79 0 -123 -49 -144 -127c61 -27 1 0 61 -27c17 52 40 88 86 88c34 0 54 -17 80 -40c40 -35 74 -52 128 -52c78 0 114 54 139 128c-28.1462 11.6159 -31.3425 12.653 -31.7933 12.653
c-0.558156 0 -0.558156 0 -31.2067 13.347zM70 360c0 -228 149 -365 381 -365c233 0 383 138 383 368c0 227 -148 364 -379 364c-234 0 -385 -138 -385 -367zM155 360c0 182 109 300 292 300c186 0 302 -114 302 -297c0 -182 -111 -300 -294 -300c-186 0 -300 113 -300 297z
" />
    <glyph glyph-name="P" unicode="P" horiz-adv-x="755" 
d="M268 356.441v300.559h105c133 0 236 -51 236 -173c0 -105 -84 -156 -196 -156c-55.1887 0 -97.4012 10.0926 -145 28.4414zM230 722h-4h-43h-138v-65h138v-592h-138v-65h138h43h42h139v65h-139v223.767c44.008 -15.0481 87.9348 -24.7672 138 -24.7672
c164 2 288 71 288 223c0 160 -135 235 -310 235h-116h-38z" />
    <glyph glyph-name="Q" unicode="Q" horiz-adv-x="937" 
d="M70 360c0 -224.12 146.87 -360.31 371.275 -364.881c129.365 -174.618 274.634 -221.119 488.725 -221.119v68c-169.927 0 -288.119 33.9507 -394.55 159.267c186.197 29.553 301.55 162.037 301.55 363.733c0 227 -149 364 -380 364c-234 0 -387 -139 -387 -369z
M155 360c0 182 114 297 297 297c186 0 300 -113 300 -295c0 -183 -111 -299 -295 -299c-186 0 -302 113 -302 297z" />
    <glyph glyph-name="R" unicode="R" horiz-adv-x="955" 
d="M228 722h-4h-41h-140v-65h140v-592h-140v-65h140h41h44h138v65h-138v254h156c7.64458 0 15.1909 0.114583 22.6323 0.347545c90.9453 -106.449 181.156 -212.898 271.368 -319.348h36h66h115v65h-170.547c-75.3092 88.2469 -150.264 176.494 -225.702 264.741
c106.385 22.617 175.249 82.8356 175.249 198.259c0 144 -115 194 -273 194h-173h-40zM268 657h158c117 0 203 -31 203 -135c0 -103 -82 -138 -194 -138h-167v273z" />
    <glyph glyph-name="Racute" unicode="&#x154;" horiz-adv-x="955" 
d="M370 821c60 49 134 117 194 166h-109c-60 -49 -134 -117 -194 -166h109zM228 722h-4h-41h-140v-65h140v-592h-140v-65h140h41h44h138v65h-138v254h156c7.64458 0 15.1909 0.114583 22.6323 0.347545c90.9453 -106.449 181.156 -212.898 271.368 -319.348h36h66h115v65
h-170.547c-75.3092 88.2469 -150.264 176.494 -225.702 264.741c106.385 22.617 175.249 82.8356 175.249 198.259c0 144 -115 194 -273 194h-173h-40zM268 657h158c117 0 203 -31 203 -135c0 -103 -82 -138 -194 -138h-167v273z" />
    <glyph glyph-name="Rcaron" unicode="&#x158;" horiz-adv-x="955" 
d="M144 986c60 -49 134 -117 194 -166h14h95h13c61 49 135 117 195 166h-109c-44.9042 -36.6718 -97.65 -83.9856 -146.5 -126.012c-48.85 42.0268 -101.596 89.3406 -146.5 126.012h-109zM228 722h-4h-41h-140v-65h140v-592h-140v-65h140h41h44h138v65h-138v254h156
c7.64458 0 15.1909 0.114583 22.6323 0.347545c90.9453 -106.449 181.156 -212.898 271.368 -319.348h36h66h115v65h-170.547c-75.3092 88.2469 -150.264 176.494 -225.702 264.741c106.385 22.617 175.249 82.8356 175.249 198.259c0 144 -115 194 -273 194h-173h-40z
M268 657h158c117 0 203 -31 203 -135c0 -103 -82 -138 -194 -138h-167v273z" />
    <glyph glyph-name="Rcommaaccent" unicode="&#x156;" horiz-adv-x="955" 
d="M443 -304l137 200h-108l-114 -200h85zM228 722h-4h-41h-140v-65h140v-592h-140v-65h140h41h44h138v65h-138v254h156c7.64458 0 15.1909 0.114583 22.6323 0.347545c90.9453 -106.449 181.156 -212.898 271.368 -319.348h36h66h115v65h-170.547
c-75.3092 88.2469 -150.264 176.494 -225.702 264.741c106.385 22.617 175.249 82.8356 175.249 198.259c0 144 -115 194 -273 194h-173h-40zM268 657h158c117 0 203 -31 203 -135c0 -103 -82 -138 -194 -138h-167v273z" />
    <glyph glyph-name="S" unicode="S" horiz-adv-x="690" 
d="M75 55c82 -40 157 -60 250 -60c161 0 290 43 290 186c0 130 -116 169 -243 219c-97 37 -197 62 -197 152c0 80 73 112 163 112c65.8718 0 118.57 -16.1005 175 -40.1627v-95.8373h67v134c-81 39 -147 64 -239 64c-139 0 -251 -52 -251 -178c0 -124 112 -158 232 -205
c104 -40 208 -68 208 -162c0 -88 -88 -118 -198 -118c-70.8841 0 -129.38 16.5173 -192 45.0488v85.9512h-66v-139h1z" />
    <glyph glyph-name="Sacute" unicode="&#x15a;" horiz-adv-x="690" 
d="M313 821c60 49 134 117 194 166h-108c-61 -48 -135 -117 -194 -166h108zM75 55c82 -40 157 -60 250 -60c161 0 290 43 290 186c0 130 -116 169 -243 219c-97 37 -197 62 -197 152c0 80 73 112 163 112c65.8718 0 118.57 -16.1005 175 -40.1627v-95.8373h67v134
c-81 39 -147 64 -239 64c-139 0 -251 -52 -251 -178c0 -124 112 -158 232 -205c104 -40 208 -68 208 -162c0 -88 -88 -118 -198 -118c-70.8841 0 -129.38 16.5173 -192 45.0488v85.9512h-66v-139h1z" />
    <glyph glyph-name="Scaron" unicode="&#x160;" horiz-adv-x="696" 
d="M93 986c60 -49 134 -117 194 -166h14h94h14c60 49 134 117 194 166h-108c-44.928 -36.6912 -98.2664 -84.0357 -147 -126.079c-48.7336 42.0434 -102.072 89.3879 -147 126.079h-108zM80 55c83 -40 158 -60 250 -60c161 0 291 43 291 186c0 130 -116 169 -243 219
c-98 37 -197 62 -197 152c0 80 73 112 162 112c67.1015 0 119.401 -16.2816 176 -40.5682v-95.4318h67v134c-82 39 -148 64 -240 64c-139 0 -250 -52 -250 -178c0 -124 111 -158 231 -205c104 -40 209 -68 209 -162c0 -88 -89 -118 -199 -118
c-70.5067 0 -128.757 16.3419 -191 44.594v86.406h-67v-139h1z" />
    <glyph glyph-name="Scedilla" unicode="&#x15e;" horiz-adv-x="690" 
d="M343.534 -37.3468c8.65031 12.1273 16.9058 23.7509 23.6205 33.4086c140.784 7.38344 247.846 54.664 247.846 184.938c0 130 -116 169 -243 219c-97 37 -197 62 -197 152c0 80 73 112 163 112c65.8718 0 118.57 -16.1005 175 -40.1627v-95.8373h67v134
c-81 39 -147 64 -239 64c-139 0 -251 -52 -251 -178c0 -124 112 -158 232 -205c104 -40 208 -68 208 -162c0 -88 -88 -118 -198 -118c-70.8841 0 -129.38 16.5173 -192 45.0488v85.9512h-66v-139h1c66.0333 -32.2114 127.527 -51.4531 197.537 -57.7251
c-14.598 -21.3382 -29.1966 -42.5002 -37.537 -54.2749l0.771705 -0.691874c-0.256752 -0.102329 -0.513985 -0.205038 -0.771705 -0.308126l58 -51c12 7 22 9 36 9c25 0 42 -11 42 -34c0 -28 -26 -37 -56 -37c-29 0 -51 5 -81 19l-27 -50c35 -17 64 -25 102 -25
c77 0 137 25 137 94c0 59.2679 -42.4814 91.9849 -102.466 95.6532z" />
    <glyph glyph-name="Scommaaccent" unicode="&#x218;" horiz-adv-x="690" 
d="M256 -306l138 201h-108l-114 -201h84zM75 55c82 -40 157 -60 250 -60c161 0 290 43 290 186c0 130 -116 169 -243 219c-97 37 -197 62 -197 152c0 80 73 112 163 112c65.8718 0 118.57 -16.1005 175 -40.1627v-95.8373h67v134c-81 39 -147 64 -239 64
c-139 0 -251 -52 -251 -178c0 -124 112 -158 232 -205c104 -40 208 -68 208 -162c0 -88 -88 -118 -198 -118c-70.8841 0 -129.38 16.5173 -192 45.0488v85.9512h-66v-139h1z" />
    <glyph glyph-name="T" unicode="T" horiz-adv-x="832" 
d="M374 653v-588h-140v-65h140h41h44h137v65h-137v588h255v-84h67v84v36v33h-729v-33v-36v-84h67v84h255z" />
    <glyph glyph-name="Tcaron" unicode="&#x164;" horiz-adv-x="832" 
d="M156 985c60 -49 134 -117 195 -166h13h95h14c60 49 134 117 194 166h-109c-44.9042 -36.6718 -97.65 -83.9856 -146.5 -126.012c-48.85 42.0268 -101.596 89.3406 -146.5 126.012h-109zM374 653v-588h-140v-65h140h41h44h137v65h-137v588h255v-84h67v84v36v33h-729v-33
v-36v-84h67v84h255z" />
    <glyph glyph-name="Tcedilla" horiz-adv-x="832" 
d="M438.151 -35.3058c9.09141 12.869 17.7541 25.2163 24.6977 35.3058h133.151v65h-137v588h255v-84h67v84v36v33h-729v-33v-36v-84h66v84h256v-588h-140v-65l133.773 -3.55271e-15c-14.6765 -21.335 -29.3877 -42.6686 -37.7731 -55l58 -51c12 7 22 9 36 9
c25 0 42 -11 42 -35c0 -27 -25 -36 -56 -36c-29 0 -51 5 -81 19l-27 -51c35 -16 64 -24 102 -24c78 0 137 25 137 94c0 59.4434 -41.8432 91.2882 -102.849 94.6942z" />
    <glyph glyph-name="Tcommaaccent" unicode="&#x162;" horiz-adv-x="832" 
d="M377 -306l138 201h-108l-115 -201h85zM374 653v-588h-140v-65h140h41h44h137v65h-137v588h255v-84h67v84v36v33h-729v-33v-36v-84h67v84h255z" />
    <glyph glyph-name="Thorn" unicode="&#xde;" horiz-adv-x="745" 
d="M268 657h139v65h-139h-42h-43h-138v-65h138v-592h-138v-65h138h43h42h139v65h-139v129.183c47.0736 -15.6283 94.0866 -25.1827 148 -25.1827c154 3 271 68 271 213c0 149 -132 219 -303 219h-116v56zM268 260.829v275.171h105c129 0 229 -47 229 -157
c0 -98 -81 -146 -189 -146c-55.1887 0 -97.4012 10.0926 -145 27.8293z" />
    <glyph glyph-name="U" unicode="U" horiz-adv-x="1011" 
d="M248 657h145v65h-181h-181v-65h139.977c-0.091445 -85.0541 -0.421177 -159.089 -0.421177 -237.63c0 -45.5926 0.111111 -92.7037 0.444444 -144.37c0 -200 121 -280 334 -280c212 0 334 82 334 282v380h142v65h-181h-181v-65h142v-388c0 -143 -93 -203 -249 -203
c-168 0 -264 63 -264 221v370z" />
    <glyph glyph-name="Uacute" unicode="&#xda;" horiz-adv-x="1011" 
d="M476 821c60 49 134 117 194 166h-109c-60 -48 -134 -117 -194 -166h109zM248 657h145v65h-181h-181v-65h139.977c-0.091445 -85.0541 -0.421177 -159.089 -0.421177 -237.63c0 -45.5926 0.111111 -92.7037 0.444444 -144.37c0 -200 121 -280 334 -280
c212 0 334 82 334 282v380h142v65h-181h-181v-65h142v-388c0 -143 -93 -203 -249 -203c-168 0 -264 63 -264 221v370z" />
    <glyph glyph-name="Ucircumflex" unicode="&#xdb;" horiz-adv-x="1011" 
d="M761 826c-60 48 -134 117 -194 166h-14h-95h-13c-61 -49 -135 -118 -195 -166h109c44.9042 35.9234 97.65 83.609 146.5 125.87c48.85 -42.2613 101.596 -89.9469 146.5 -125.87h109zM248 657h145v65h-181h-181v-65h139.977
c-0.091445 -85.0541 -0.421177 -159.089 -0.421177 -237.63c0 -45.5926 0.111111 -92.7037 0.444444 -144.37c0 -200 121 -280 334 -280c212 0 334 82 334 282v380h142v65h-181h-181v-65h142v-388c0 -143 -93 -203 -249 -203c-168 0 -264 63 -264 221v370z" />
    <glyph glyph-name="Udieresis" unicode="&#xdc;" horiz-adv-x="1011" 
d="M546 851h104c0 -29 -22 -43 -54 -43c-30 0 -50 15 -50 43zM546 851h104c0 29 -22 44 -53 44s-51 -16 -51 -44zM363 851h104c0 29 -23 44 -53 44c-31 0 -51 -16 -51 -44zM363 851h104c0 -29 -22 -43 -54 -43c-30 0 -50 15 -50 43zM248 657h145v65h-181h-181v-65h139.977
c-0.091445 -85.0541 -0.421177 -159.089 -0.421177 -237.63c0 -45.5926 0.111111 -92.7037 0.444444 -144.37c0 -200 121 -280 334 -280c212 0 334 82 334 282v380h142v65h-181h-181v-65h142v-388c0 -143 -93 -203 -249 -203c-168 0 -264 63 -264 221v370z" />
    <glyph glyph-name="Ugrave" unicode="&#xd9;" horiz-adv-x="1011" 
d="M638 821c-59 49 -134 117 -194 166h-108c60 -49 134 -117 194 -166h108zM248 657h145v65h-181h-181v-65h139.977c-0.091445 -85.0541 -0.421177 -159.089 -0.421177 -237.63c0 -45.5926 0.111111 -92.7037 0.444444 -144.37c0 -200 121 -280 334 -280
c212 0 334 82 334 282v380h142v65h-181h-181v-65h142v-388c0 -143 -93 -203 -249 -203c-168 0 -264 63 -264 221v370z" />
    <glyph glyph-name="Uhungarumlaut" unicode="&#x170;" horiz-adv-x="1011" 
d="M614 776l137 200h-108l-114 -200h85zM425 776l138 200h-108l-114 -200h84zM248 657h145v65h-181h-181v-65h139.977c-0.091445 -85.0541 -0.421177 -159.089 -0.421177 -237.63c0 -45.5926 0.111111 -92.7037 0.444444 -144.37c0 -200 121 -280 334 -280
c212 0 334 82 334 282v380h142v65h-181h-181v-65h142v-388c0 -143 -93 -203 -249 -203c-168 0 -264 63 -264 221v370z" />
    <glyph glyph-name="Umacron" unicode="&#x16a;" horiz-adv-x="1011" 
d="M634 886h-265v-65h265v65zM248 657h145v65h-181h-181v-65h139.977c-0.091445 -85.0541 -0.421177 -159.089 -0.421177 -237.63c0 -45.5926 0.111111 -92.7037 0.444444 -144.37c0 -200 121 -280 334 -280c212 0 334 82 334 282v380h142v65h-181h-181v-65h142v-388
c0 -143 -93 -203 -249 -203c-168 0 -264 63 -264 221v370z" />
    <glyph glyph-name="Uogonek" unicode="&#x172;" horiz-adv-x="1011" 
d="M517.211 -4.90755c204.467 3.12662 321.789 85.7793 321.789 281.908v380h142v65h-181h-181v-65h142v-388c0 -143 -93 -203 -249 -203c-168 0 -264 63 -264 221v370h145v65h-181h-181v-65h139.977c-0.091445 -85.0541 -0.421177 -159.089 -0.421177 -237.63
c0 -45.5926 0.111111 -92.7037 0.444444 -144.37c0 -167.532 84.9022 -250.863 237.661 -273.504c-20.1742 -16.8273 -32.6615 -38.9282 -32.6615 -71.4963c0 -71 53 -111 128 -111c43 0 71 13 108 31c-38 50 -2 1 -39 51c-22 -11 -38 -19 -61 -19c-34 0 -58 17 -58 50
c0 35.9603 28.6845 49.6755 63.2108 63.0925z" />
    <glyph glyph-name="Uring" unicode="&#x16e;" horiz-adv-x="1011" 
d="M421 948c0 47 33 72 82 72c54 0 90 -21 90 -72c0 -48 -35 -71 -87 -71c-51 0 -85 23 -85 71zM346 948c0 -87 67 -131 160 -131c95 0 163 42 163 131s-69 132 -166 132c-92 0 -157 -44 -157 -132zM248 657h145v65h-181h-181v-65h139.977
c-0.091445 -85.0541 -0.421177 -159.089 -0.421177 -237.63c0 -45.5926 0.111111 -92.7037 0.444444 -144.37c0 -200 121 -280 334 -280c212 0 334 82 334 282v380h142v65h-181h-181v-65h142v-388c0 -143 -93 -203 -249 -203c-168 0 -264 63 -264 221v370z" />
    <glyph glyph-name="V" unicode="V" horiz-adv-x="1000" 
d="M527 0h8c99.1971 219.326 197.566 437.823 297.368 657h148.632v65h-119h-62h-8h-18h-182v-65h152.838c-85.5423 -190.468 -171.597 -380.422 -257.176 -570.853c-86.9945 190.431 -173.989 380.386 -260.984 570.853h151.322v65h-181h-19h-8h-61h-121v-65h150.701
c100.256 -219.177 201.192 -437.674 301.299 -657h9h78z" />
    <glyph glyph-name="W" unicode="W" horiz-adv-x="1228" 
d="M830.866 108.297c-57.0158 204.664 -114.357 408.822 -173.866 613.703h-10h-68h-11c-64.6225 -204.921 -128.522 -409.12 -192.928 -613.825c-52.2714 183.054 -104.138 365.702 -156.478 548.825h143.406v65h-162h-19h-1h-63h-118v-65h137.156
c64.6146 -219.177 129.229 -437.674 193.844 -657h11h65h7c66.9383 204.204 132.441 407.691 198.332 611.676c59.5021 -203.985 117.508 -407.471 177.668 -611.676h10h62h11c68.2549 219.326 134.853 437.823 202.81 657h138.19v65h-118h-63h-1h-19h-162v-65h142.62
c-54.4789 -183.082 -107.958 -365.69 -161.755 -548.703z" />
    <glyph glyph-name="X" unicode="X" horiz-adv-x="907" 
d="M455.197 318.792c67.5053 -84.5538 135.04 -169.122 202.777 -253.792h-121.973v-65h174h7h2h95h86v65h-138.365c-85.2208 105.706 -170.6 211.254 -255.967 316.813c73.534 91.8194 147.085 183.622 220.873 275.187h141.459v65h-89h-91h-1h-6h-174v-65h121.319
c-57.5727 -70.924 -115.366 -141.777 -173.254 -212.61c-57.2705 70.8328 -114.521 141.686 -171.7 212.61h121.635v65h-174h-6h-2h-90h-90v-65h142.027c73.2878 -91.6081 146.338 -183.098 219.372 -274.578c-86.5069 -105.762 -173.139 -211.513 -259.472 -317.422
h-139.927l-1 -65h88h94h1h12h169v65h-116.541c68.0573 84.4527 135.912 169.108 203.738 253.792z" />
    <glyph glyph-name="Y" unicode="Y" horiz-adv-x="859" 
d="M658 722h-181v-65h135.139c-66.3378 -88.2664 -132.363 -176.141 -198.722 -263.948c-62.4032 88.2772 -124.806 176.152 -187.209 263.948h135.793v65h-181v-1.40659c-0.333333 0.468865 -0.666667 0.937729 -1 1.40659h-1h-86h-95v-65h141.639
c75.5299 -105.431 150.611 -210.977 226.361 -317.196v-274.804h-135v-65h135h46h47h135v65h-135v275.919c80.3975 105.069 159.475 210.798 239.445 316.081h142.555v65h-93h-87h-1v-1.32991c-0.666713 -0.886676 -1.33338 -1.7733 -2 -2.65989v3.98979z" />
    <glyph glyph-name="Yacute" unicode="&#xdd;" horiz-adv-x="859" 
d="M385 821c60 49 134 117 194 166h-109c-60 -48 -134 -117 -194 -166h109zM658 722h-181v-65h135.139c-66.3378 -88.2664 -132.363 -176.141 -198.722 -263.948c-62.4032 88.2772 -124.806 176.152 -187.209 263.948h135.793v65h-181v-1.40659
c-0.333333 0.468865 -0.666667 0.937729 -1 1.40659h-1h-86h-95v-65h141.639c75.5299 -105.431 150.611 -210.977 226.361 -317.196v-274.804h-135v-65h135h46h47h135v65h-135v275.919c80.3975 105.069 159.475 210.798 239.445 316.081h142.555v65h-93h-87h-1v-1.32991
c-0.666713 -0.886676 -1.33338 -1.7733 -2 -2.65989v3.98979z" />
    <glyph glyph-name="Ydieresis" unicode="&#x178;" horiz-adv-x="859" 
d="M658 722h-181v-65h135.139c-66.3378 -88.2664 -132.363 -176.141 -198.722 -263.948c-62.4032 88.2772 -124.806 176.152 -187.209 263.948h135.793v65h-181v-1.40659c-0.333333 0.468865 -0.666667 0.937729 -1 1.40659h-1h-86h-95v-65h141.639
c75.5299 -105.431 150.611 -210.977 226.361 -317.196v-274.804h-135v-65h135h46h47h135v65h-135v275.919c80.3975 105.069 159.475 210.798 239.445 316.081h142.555v65h-93h-87h-1v-1.32991c-0.666713 -0.886676 -1.33338 -1.7733 -2 -2.65989v3.98979zM455 851h104
c0 -29 -22 -43 -53 -43s-51 15 -51 43zM455 851h104c0 29 -22 44 -53 44c-30 0 -51 -16 -51 -44zM272 851h104c0 -29 -22 -43 -53 -43s-51 15 -51 43zM272 851h104c0 29 -22 44 -53 44c-30 0 -51 -16 -51 -44z" />
    <glyph glyph-name="Z" unicode="Z" horiz-adv-x="804" 
d="M153.772 65c158.766 167.716 1.86748 1.80945 564.228 592v65h-629v-32v-33v-87h67v87h450.343c-197.397 -209.486 -561.343 -592 -561.343 -592v-65h705v32v33v87h-67v-87h-529.228z" />
    <glyph glyph-name="Zacute" unicode="&#x179;" horiz-adv-x="804" 
d="M368 820c60 49 134 117 194 166h-108c-60 -48 -135 -117 -194 -166h108zM153.772 65c158.766 167.716 1.86748 1.80945 564.228 592v65h-629v-32v-33v-87h67v87h450.343c-197.397 -209.486 -561.343 -592 -561.343 -592v-65h705v32v33v87h-67v-87h-529.228z" />
    <glyph glyph-name="Zcaron" unicode="&#x17d;" horiz-adv-x="804" 
d="M143 985c59 -48 133 -117 194 -166h13h95h14c60 49 134 118 194 166h-109c-44.9042 -36.6718 -97.65 -83.9856 -146.5 -126.012c-48.85 42.0268 -101.596 89.3406 -146.5 126.012h-108zM153.772 65c158.766 167.716 1.86748 1.80945 564.228 592v65h-629v-32v-33v-87h67
v87h450.343c-197.397 -209.486 -561.343 -592 -561.343 -592v-65h705v32v33v87h-67v-87h-529.228z" />
    <glyph glyph-name="Zdotaccent" unicode="&#x17b;" horiz-adv-x="804" 
d="M347 851h104c0 29 -22 44 -53 44c-30 0 -51 -16 -51 -44zM347 851h104c0 -30 -22 -43 -53 -43s-51 15 -51 43zM153.772 65c158.766 167.716 1.86748 1.80945 564.228 592v65h-629v-32v-33v-87h67v87h450.343c-197.397 -209.486 -561.343 -592 -561.343 -592v-65h705v32
v33v87h-67v-87h-529.228z" />
    <glyph glyph-name="a" unicode="a" horiz-adv-x="700" 
d="M524 0h40h129v65h-129v313c0 127 -95 159 -229 159c-104 0 -180 -30 -241 -74v-122h67v85.9876c43.2933 25.1428 94.6091 46.0124 163 46.0124c91 0 155 -20 155 -112v-32.1238c-70.5566 -6.97178 -121.97 -10.5466 -200 -19.8762c-122 -13 -212 -41 -212 -152
c0 -112 78 -162 198 -162c96.5804 0 153.308 35.298 214 93.4363v-88.4363h45zM479 164.473c-61.4841 -62.5381 -110.895 -105.473 -200 -105.473c-79 0 -129 29 -129 99c0 67 56 85 126 93c80.3637 8.37122 131.996 14.6401 203 22.3265v-108.853z" />
    <glyph glyph-name="aacute" unicode="&#xe1;" horiz-adv-x="700" 
d="M309 639c60 49 134 117 194 166h-109c-60 -49 -134 -118 -194 -166h109zM524 0h40h129v65h-129v313c0 127 -95 159 -229 159c-104 0 -180 -30 -241 -74v-122h67v85.9876c43.2933 25.1428 94.6091 46.0124 163 46.0124c91 0 155 -20 155 -112v-32.1238
c-70.5566 -6.97178 -121.97 -10.5466 -200 -19.8762c-122 -13 -212 -41 -212 -152c0 -112 78 -162 198 -162c96.5804 0 153.308 35.298 214 93.4363v-88.4363h45zM479 164.473c-61.4841 -62.5381 -110.895 -105.473 -200 -105.473c-79 0 -129 29 -129 99c0 67 56 85 126 93
c80.3637 8.37122 131.996 14.6401 203 22.3265v-108.853z" />
    <glyph glyph-name="abreve" unicode="&#x103;" horiz-adv-x="700" 
d="M446 771c0 -55 -46 -73 -106 -73s-105 19 -105 74h-81c0 -98 76 -138 183 -138c109 0 189 38 189 137h-80zM524 0h40h129v65h-129v313c0 127 -95 159 -229 159c-104 0 -180 -30 -241 -74v-122h67v85.9876c43.2933 25.1428 94.6091 46.0124 163 46.0124
c91 0 155 -20 155 -112v-32.1238c-70.5566 -6.97178 -121.97 -10.5466 -200 -19.8762c-122 -13 -212 -41 -212 -152c0 -112 78 -162 198 -162c96.5804 0 153.308 35.298 214 93.4363v-88.4363h45zM479 164.473c-61.4841 -62.5381 -110.895 -105.473 -200 -105.473
c-79 0 -129 29 -129 99c0 67 56 85 126 93c80.3637 8.37122 131.996 14.6401 203 22.3265v-108.853z" />
    <glyph glyph-name="acircumflex" unicode="&#xe2;" horiz-adv-x="702" 
d="M596 643c-60 49 -134 117 -194 166h-14h-95h-13c-60 -49 -135 -117 -194 -166h108c44.9042 36.6718 97.65 83.9856 146.5 126.012c48.85 -42.0268 101.596 -89.3406 146.5 -126.012h109zM526 0h40h129v65h-129v313c0 127 -95 159 -229 159c-104 0 -180 -30 -241 -74v-122
h67v85.9876c43.2933 25.1428 94.6091 46.0124 163 46.0124c91 0 155 -20 155 -112v-32.1238c-70.5566 -6.97178 -121.97 -10.5466 -200 -19.8762c-121 -13 -212 -41 -212 -152c0 -112 78 -162 198 -162c96.5804 0 153.308 35.298 214 93.4363v-88.4363h45zM481 164.473
c-61.4841 -62.5381 -110.895 -105.473 -200 -105.473c-79 0 -129 29 -129 99c0 67 56 85 126 93c80.3637 8.37122 131.996 14.6401 203 22.3265v-108.853z" />
    <glyph glyph-name="acute" unicode="&#xb4;" horiz-adv-x="383" 
d="M120 591c60 49 134 117 194 166h-108c-60 -49 -135 -117 -194 -166h108z" />
    <glyph glyph-name="adieresis" unicode="&#xe4;" horiz-adv-x="700" 
d="M379 669h104c0 29 -22 43 -53 43c-30 0 -51 -16 -51 -43zM379 669h104c0 -30 -22 -43 -53 -43s-51 14 -51 43zM196 669h104c0 29 -22 43 -53 43c-30 0 -51 -16 -51 -43zM196 669h104c0 -30 -22 -43 -53 -43s-51 14 -51 43zM524 0h40h129v65h-129v313
c0 127 -95 159 -229 159c-104 0 -180 -30 -241 -74v-122h67v85.9876c43.2933 25.1428 94.6091 46.0124 163 46.0124c91 0 155 -20 155 -112v-32.1238c-70.5566 -6.97178 -121.97 -10.5466 -200 -19.8762c-122 -13 -212 -41 -212 -152c0 -112 78 -162 198 -162
c96.5804 0 153.308 35.298 214 93.4363v-88.4363h45zM479 164.473c-61.4841 -62.5381 -110.895 -105.473 -200 -105.473c-79 0 -129 29 -129 99c0 67 56 85 126 93c80.3637 8.37122 131.996 14.6401 203 22.3265v-108.853z" />
    <glyph glyph-name="ae" unicode="&#xe6;" horiz-adv-x="1080" 
d="M930.934 310h-366.454c10.3689 104.445 74.9227 162 184.52 162c110.981 0 179.521 -53.0526 181.934 -162zM564.182 250h446.818v47c0 160 -98 240 -258 240c-92.0756 0 -164.378 -24.6451 -211.691 -73.9353c-34.9052 57.219 -111.182 73.9353 -207.309 73.9353
c-104 0 -180 -30 -241 -74v-116h67v78.5431c43.4969 26.2386 92.9708 47.4569 163 47.4569c91 0 155 -20 155 -112v-50.896c-12.1513 0.0440268 -23.7719 0.0853323 -35.0842 0.0853323c-54.4957 0 -101.839 -0.95858 -166.916 -7.18935c-121 -13 -210 -37 -210 -148
s77 -160 198 -160c112.45 0 182.452 39.3615 258.824 113.338c49.7791 -75.2254 139.09 -113.338 258.176 -113.338c89 0 146 23 214 75l-49 51c-54 -42 -98 -61 -165 -61c-129.157 0 -206.511 67.3446 -216.818 190zM478.936 250.162
c1.9943 -29.9919 7.15513 -57.3758 15.297 -82.1325c-65.8299 -65.693 -124.997 -109.029 -216.233 -109.029c-76 0 -129 28 -129 98c0 61 58 79 128 87c57.6 5.4 98.64 6.48 143.64 6.48c18.315 0 37.2859 -0.178901 58.2963 -0.318264z" />
    <glyph glyph-name="agrave" unicode="&#xe0;" horiz-adv-x="700" 
d="M471 638c-59 49 -133 118 -194 166h-108c60 -49 134 -117 194 -166h108zM524 0h40h129v65h-129v313c0 127 -95 159 -229 159c-104 0 -180 -30 -241 -74v-122h67v85.9876c43.2933 25.1428 94.6091 46.0124 163 46.0124c91 0 155 -20 155 -112v-32.1238
c-70.5566 -6.97178 -121.97 -10.5466 -200 -19.8762c-122 -13 -212 -41 -212 -152c0 -112 78 -162 198 -162c96.5804 0 153.308 35.298 214 93.4363v-88.4363h45zM479 164.473c-61.4841 -62.5381 -110.895 -105.473 -200 -105.473c-79 0 -129 29 -129 99c0 67 56 85 126 93
c80.3637 8.37122 131.996 14.6401 203 22.3265v-108.853z" />
    <glyph glyph-name="amacron" unicode="&#x101;" horiz-adv-x="700" 
d="M467 703h-265v-64h265v64zM524 0h40h129v65h-129v313c0 127 -95 159 -229 159c-104 0 -180 -30 -241 -74v-122h67v85.9876c43.2933 25.1428 94.6091 46.0124 163 46.0124c91 0 155 -20 155 -112v-32.1238c-70.5566 -6.97178 -121.97 -10.5466 -200 -19.8762
c-122 -13 -212 -41 -212 -152c0 -112 78 -162 198 -162c96.5804 0 153.308 35.298 214 93.4363v-88.4363h45zM479 164.473c-61.4841 -62.5381 -110.895 -105.473 -200 -105.473c-79 0 -129 29 -129 99c0 67 56 85 126 93c80.3637 8.37122 131.996 14.6401 203 22.3265
v-108.853z" />
    <glyph glyph-name="ampersand" unicode="&#x26;" horiz-adv-x="849" 
d="M309.494 342.289c7.55746 -5.99528 15.0839 -12.0751 22.5061 -18.2891c68.459 -58.275 143.32 -122.312 216.977 -185.047c-56.1402 -50.2094 -126.276 -78.9525 -213.977 -78.9525c-102 0 -185 36 -185 129c0 88.4048 77.0717 115.326 159.494 153.289z
M601.688 94.1122c38.3192 -32.5501 75.7953 -64.2665 111.312 -94.1122h108c-55.6268 45.5495 -113.528 94.3487 -172.067 144.04c38.767 47.7828 70.5237 105.748 96.0674 171.96l-72 15c-21.1364 -53.8319 -46.6357 -101.665 -77.4342 -141.59
c-69.2178 58.9015 -138.631 118.049 -205.566 173.59c-4.21524 3.79372 -8.50663 7.50766 -12.8497 11.1586c92.0227 44.0042 169.147 89.5026 170.85 190.841c0 109 -91 162 -207 162c-112 0 -195 -58 -195 -164c0 -79.4654 49.4537 -129.753 108.715 -177.642
c-100.346 -45.8991 -188.715 -87.9903 -188.715 -196.358c0 -134 118 -194 265 -194c111.005 0 200.155 35.659 270.688 99.1122zM323.215 416.731c-50.2903 39.4233 -94.2154 79.5723 -94.2154 146.269c0 62 45 99 109 99c71 0 125 -31 125 -97
c0 -81.2471 -64.7319 -114.14 -139.785 -148.269z" />
    <glyph glyph-name="aogonek" unicode="&#x105;" horiz-adv-x="700" 
d="M548.289 0h15.7114h129v65h-129v313c0 127 -95 159 -229 159c-104 0 -180 -30 -241 -74v-122h67v85.9876c43.2933 25.1428 94.6091 46.0124 163 46.0124c91 0 155 -20 155 -112v-32.1238c-70.5566 -6.97178 -121.97 -10.5466 -200 -19.8762c-122 -13 -212 -41 -212 -152
c0 -112 78 -162 198 -162c96.5804 0 153.308 35.298 214 93.4363v-57.1721c-52.7353 -21.0516 -93 -45.7822 -93 -104.264c0 -71 52 -111 128 -111c42 0 70 13 107 31c-37 50 -1 1 -39 51c-21 -11 -37 -19 -61 -19c-34 0 -58 17 -58 49
c0 43.1068 42.0596 54.2482 85.2886 72zM479 164.473c-61.4841 -62.5381 -110.895 -105.473 -200 -105.473c-79 0 -129 29 -129 99c0 67 56 85 126 93c80.3637 8.37122 131.996 14.6401 203 22.3265v-108.853z" />
    <glyph glyph-name="apostrophemod" horiz-adv-x="408" 
d="M176 522l138 200h-108l-115 -200h85z" />
    <glyph glyph-name="approxequal" unicode="&#x2248;" horiz-adv-x="811" 
d="M655 570c-20 -47 -46 -89 -101 -89c-50 0 -83 12 -124 40c-54 37 -93 56 -159 56c-96 0 -146 -43 -176 -131c30 -13 31 -14 61 -27c20 56 50 93 112 93c44 0 71 -11 107 -36c60 -39 102 -59 173 -60c93 0 138 47 173 128c-32 13 -33 14 -66 26zM654 361
c-20 -48 -46 -90 -101 -90c-50 0 -83 12 -125 40c-54 37 -92 57 -158 57c-96 0 -147 -44 -177 -132c30 -13 32 -14 62 -26c19 55 50 93 111 93c45 0 72 -11 108 -36c59 -40 101 -60 173 -60c93 0 138 46 173 127c-32 13 -34 15 -66 27z" />
    <glyph glyph-name="aring" unicode="&#xe5;" horiz-adv-x="700" 
d="M254 766c0 47 33 72 82 72c54 0 90 -22 90 -72c0 -49 -35 -71 -87 -71c-51 0 -85 23 -85 71zM179 766c0 -87 67 -132 160 -132c95 0 163 43 163 132s-69 131 -166 131c-92 0 -157 -44 -157 -131zM524 0h40h129v65h-129v313c0 127 -95 159 -229 159
c-104 0 -180 -30 -241 -74v-122h67v85.9876c43.2933 25.1428 94.6091 46.0124 163 46.0124c91 0 155 -20 155 -112v-32.1238c-70.5566 -6.97178 -121.97 -10.5466 -200 -19.8762c-122 -13 -212 -41 -212 -152c0 -112 78 -162 198 -162c96.5804 0 153.308 35.298 214 93.4363
v-88.4363h45zM479 164.473c-61.4841 -62.5381 -110.895 -105.473 -200 -105.473c-79 0 -129 29 -129 99c0 67 56 85 126 93c80.3637 8.37122 131.996 14.6401 203 22.3265v-108.853z" />
    <glyph glyph-name="asciicircum" unicode="^" horiz-adv-x="649" 
d="M574 460c-68 105 -139 217 -207 323h-1h-84h-1c-68 -108 -137 -215 -205 -323h85c54.0584 85.8574 108.749 171.083 163.066 256.681c54.4988 -85.6378 110.976 -173.363 164.934 -256.681h85z" />
    <glyph glyph-name="asciitilde" unicode="~" horiz-adv-x="806" 
d="M651 361c-20 -48 -46 -90 -101 -90c-50 0 -83 12 -125 40c-54 37 -92 57 -158 57c-96 0 -147 -44 -177 -132c30 -13 32 -14 62 -26c19 55 50 93 112 93c44 0 71 -11 107 -36c60 -40 102 -60 173 -60c93 0 138 46 173 127c-32 13 -34 15 -66 27z" />
    <glyph glyph-name="asterisk" unicode="*" horiz-adv-x="535" 
d="M206.028 497.006c-31.7319 -26.5274 -32.2751 -29.9147 -89.0277 -75.0059l61 -48c56.3234 54.6421 53.285 52.7491 90.6894 89.3731c37.3063 -37.1038 34.6887 -33.9085 90.3106 -90.3731l60 48c-56.21 46.061 -56.3475 48.8486 -87.4877 75.9294
c39.5117 10.605 42.7315 13.8216 116.488 32.0706l-25 65c-74.0432 -26.4997 -75.7978 -28.0932 -117.948 -43.1309c1.71549 42.017 -0.0614943 40.5722 3.94752 111.131h-82c4.83578 -70.1189 3.82537 -68.7842 5.86887 -111.697
c-42.1704 15.2615 -44.301 16.4307 -119.869 43.6974c0 0 0 -1 -26 -64c75.0833 -18.9604 78.8422 -21.8154 119.028 -32.9941z" />
    <glyph glyph-name="at" unicode="@" horiz-adv-x="979" 
d="M682 -42c-63 -27 -109 -34 -176 -34c-216 0 -363 89 -363 289c0 196 147 281 358 281c198 0 333 -91 333 -279c0 -67 -15 -119 -70 -119c-59 0 -79 53 -79 122c0 117 -77 183 -198 183c-130 0 -213 -61 -213 -185c0 -125 77 -193 204 -193
c72.1696 0 122.748 27.8193 155.481 77.8394c23.7192 -41.2932 64.3722 -65.8394 123.519 -65.8394c106 0 156 73 156 184c0 231 -165 343 -408 343c-262 0 -442 -108 -442 -352c0 -242 179 -351 438 -351c84 0 145 13 212 44zM609.072 187.116
c-21.4281 -60.8349 -54.8866 -100.116 -120.072 -100.116c-85 0 -136 48 -136 133c0 76 49 116 127 116c81 0 128 -43 128 -122c0 -9.21983 0.355576 -18.19 1.07199 -26.8842z" />
    <glyph glyph-name="atilde" unicode="&#xe3;" horiz-adv-x="700" 
d="M522 792c-16 -47 -35 -86 -75 -86c-39 0 -63 14 -92 40c-38 33 -69 51 -120 51c-79 0 -122 -49 -143 -127c0 0 0 -1 60 -27c17 51 40 88 86 88c35 0 54 -18 80 -40c40 -35 75 -53 128 -53c78 0 114 54 139 128c-63 26 -1 0 -63 26zM524 0h40h129v65h-129v313
c0 127 -95 159 -229 159c-104 0 -180 -30 -241 -74v-122h67v85.9876c43.2933 25.1428 94.6091 46.0124 163 46.0124c91 0 155 -20 155 -112v-32.1238c-70.5566 -6.97178 -121.97 -10.5466 -200 -19.8762c-122 -13 -212 -41 -212 -152c0 -112 78 -162 198 -162
c96.5804 0 153.308 35.298 214 93.4363v-88.4363h45zM479 164.473c-61.4841 -62.5381 -110.895 -105.473 -200 -105.473c-79 0 -129 29 -129 99c0 67 56 85 126 93c80.3637 8.37122 131.996 14.6401 203 22.3265v-108.853z" />
    <glyph glyph-name="b" unicode="b" horiz-adv-x="795" 
d="M194 0h41v50.9032c62.5035 -38.4746 128.082 -55.9032 210 -55.9032c168 0 284 103 283 270c0 168 -113 273 -279 273c-82.8423 0 -156.66 -28.075 -214 -65.0564v327.056h-41h-44h-137v-65h137v-670h-137v-65h137h44zM235 126.885v269.599
c49.3409 39.4888 123.102 74.5157 206 74.5157c124 0 202 -82 202 -209c1.98764 -120.252 -77.014 -200.009 -199.705 -200.009c-0.76323 0 -1.52815 0.00308641 -2.29475 0.00926869c-80.5068 0 -142.611 17.5266 -206 64.8851z" />
    <glyph glyph-name="backslash" unicode="\" horiz-adv-x="639" 
d="M595 -68c-154 304 -307 608 -461 912h-89c154 -304 308 -608 461 -912h89z" />
    <glyph glyph-name="bar" unicode="|" horiz-adv-x="252" 
d="M168 -300v1100h-84v-1100h84z" />
    <glyph glyph-name="braceleft" unicode="{" horiz-adv-x="365" 
d="M315 795c-107 0 -175 -58 -175 -162v-173s-38 -86 -97 -86v-68c59 0 97 -32 97 -89v-169c0 -104 68 -164 175 -164v65c-63 0 -98 36 -98 96v166c0 56.9274 -21.4927 101.084 -58.7412 128.992c36.7178 27.7601 57.7412 71.7369 57.7412 129.008v164c0 61 36 98 99 98v64z
" />
    <glyph glyph-name="braceright" unicode="}" horiz-adv-x="365" 
d="M50 730c63 0 98 -37 98 -97v-164c0 -57.9312 21.4096 -101.9 58.5251 -129.486c-36.5841 -27.9333 -57.5251 -71.9108 -57.5251 -128.514v-166c0 -60 -36 -97 -99 -97v-64c107 0 176 60 176 164v169c0 57 37 89 96 89v68c-59 0 -97 29 -97 86v173c0 103 -68 162 -175 162
v-65z" />
    <glyph glyph-name="bracketleft" unicode="[" horiz-adv-x="340" 
d="M297 770h-214v-889h214v72h-129v746h129v71z" />
    <glyph glyph-name="bracketright" unicode="]" horiz-adv-x="340" 
d="M172 -47h-129v-72h214v889h-214v-71h129v-746z" />
    <glyph glyph-name="breve" unicode="&#x2d8;" horiz-adv-x="484" 
d="M306 719c0 -55 -46 -74 -106 -74c-61 0 -105 20 -105 75h-81c0 -99 76 -139 182 -139c110 0 190 38 190 138h-80z" />
    <glyph glyph-name="brokenbar" unicode="&#xa6;" horiz-adv-x="273" 
d="M179 428v372h-85v-372h85zM179 -300v372h-85v-372h85z" />
    <glyph glyph-name="bullet" unicode="&#x2022;" horiz-adv-x="425" 
d="M108 440h208c0 58 -44 87 -106 87c-61 0 -102 -32 -102 -87zM108 440h208c0 -60 -44 -87 -107 -87c-61 0 -101 30 -101 87z" />
    <glyph glyph-name="bulletoperator" unicode="&#x2219;" horiz-adv-x="385" 
d="M89 440h207c0 58 -44 87 -106 87c-61 0 -101 -32 -101 -87zM89 440h207c0 -60 -44 -87 -107 -87c-60 0 -100 30 -100 87z" />
    <glyph glyph-name="c" unicode="c" horiz-adv-x="645" 
d="M579 471c-59 39 -132 67 -207 67c-186 0 -305 -88 -305 -271c0 -182 116 -272 302 -272c83 0 163 29 217 84l-49 50c-45 -42 -103 -67 -165 -67c-136 0 -221 68 -221 205c0 136 84 204 218 204c50.649 0 99.7189 -14.2123 143 -37.7257v-97.2743h67v135z" />
    <glyph glyph-name="cacute" unicode="&#x107;" horiz-adv-x="645" 
d="M338 639c59 49 134 117 194 166h-109c-60 -49 -134 -117 -194 -166h109zM579 471c-59 39 -132 67 -207 67c-186 0 -305 -88 -305 -271c0 -182 116 -272 302 -272c83 0 163 29 217 84l-49 50c-45 -42 -103 -67 -165 -67c-136 0 -221 68 -221 205c0 136 84 204 218 204
c50.649 0 99.7189 -14.2123 143 -37.7257v-97.2743h67v135z" />
    <glyph glyph-name="caron" unicode="&#x2c7;" horiz-adv-x="628" 
d="M11 755c60 -49 134 -118 194 -166h14h94h14c60 48 134 117 194 166h-108c-44.928 -36.6912 -98.2664 -84.0357 -147 -126.079c-48.7336 42.0434 -102.072 89.3879 -147 126.079h-108z" />
    <glyph glyph-name="ccaron" unicode="&#x10d;" horiz-adv-x="668" 
d="M112 804c60 -49 134 -117 194 -166h14h95h13c60 49 134 117 194 166h-108c-44.9284 -36.6915 -97.7067 -84.0365 -146.579 -126.08c-49.1538 42.0437 -102.493 89.3887 -147.421 126.08h-108zM579 471c-59 39 -132 67 -207 67c-186 0 -305 -88 -305 -271
c0 -182 116 -272 302 -272c83 0 163 29 217 84l-49 50c-45 -42 -103 -67 -165 -67c-136 0 -221 68 -221 205c0 136 84 204 218 204c50.649 0 99.7189 -14.2123 143 -37.7257v-97.2743h67v135z" />
    <glyph glyph-name="ccedilla" unicode="&#xe7;" horiz-adv-x="645" 
d="M323 -103c12 7 22 9 36 9c24 0 41 -11 41 -35c0 -27 -25 -36 -56 -36c-28 0 -50 5 -80 19l-27 -51c35 -16 63 -24 102 -24c77 0 136 25 136 94c0 59.2859 -41.6217 92.0048 -101.531 95.6565c6.88665 9.60508 13.5069 18.8941 19.3012 27.1405
c74.331 5.00272 144.407 33.4761 193.23 83.2029l-49 50c-45 -42 -103 -67 -165 -67c-136 0 -221 68 -221 205c0 136 84 204 218 204c50.649 0 99.7189 -14.2123 143 -37.7257v-97.2743h67v135c-59 39 -132 67 -207 67c-186 0 -305 -88 -305 -271
c0 -158.324 87.7831 -247.028 233.067 -267.427c-13.7461 -20.1678 -27.1308 -39.9025 -35.0671 -51.5734c27.2134 -23.929 28.8899 -25.4032 28.8899 -25.494c0 -0.102751 0 -0.354846 28.1101 -25.506c0.126239 0.179392 0.253714 0.360418 0.382408 0.543055z" />
    <glyph glyph-name="cedilla" unicode="&#xb8;" horiz-adv-x="405" 
d="M191.057 0.681171c13.025 18.2407 25.2165 35.3391 32.943 46.3188l-65 45c-17 -25 -60 -87 -76 -112c26.3767 -23.6002 28.3418 -25.1443 28.4882 -25.1443c0 0 -0.0922573 0.095836 0.387888 -0.325253
c0.0100633 -0.0127537 0.0138264 -0.0201616 0.0138261 -0.0244648c0 -0.102751 0 -0.354846 28.1101 -25.506c12 7 23 9 37 9c24 0 41 -11 41 -34c0 -28 -25 -37 -56 -37c-28 0 -50 5 -81 19l-26 -51c35 -16 63 -24 102 -24c77 0 136 25 136 94
c0 59.4217 -41.8126 92.1545 -101.943 95.6812z" />
    <glyph glyph-name="cent" unicode="&#xa2;" horiz-adv-x="761" 
d="M467 682.159v95.841h-84v-96.9407c-191.301 -15.532 -320 -124.033 -320 -316.059c0 -185.631 114.265 -300.945 295 -314.628v-103.372h85v103.671c94.5506 6.89335 167.858 35.4282 253 91.3293l-47 55c-85 -55 -150 -80 -246 -80c-157 0 -256 95 -256 251
c0 160 113 247 277 247c89 0 151 -16 233 -60l40 57c-79.4571 45.0257 -144.884 65.8888 -230 70.159z" />
    <glyph glyph-name="circumflex" unicode="&#x2c6;" horiz-adv-x="741" 
d="M521 591c-60 49 -134 117 -194 166h-14h-95h-13c-60 -49 -134 -117 -194 -166h108c44.9284 36.6915 97.7067 84.0365 146.579 126.08c49.1538 -42.0437 102.493 -89.3887 147.421 -126.08h108z" />
    <glyph glyph-name="colon" unicode=":" horiz-adv-x="277" 
d="M89 36h99c0 28 -21 42 -51 42c-29 0 -48 -15 -48 -42zM89 36h99c0 -29 -21 -42 -51 -42c-29 0 -48 15 -48 42zM89 403h99c0 -29 -21 -41 -51 -41c-29 0 -48 14 -48 41zM89 403h99c0 29 -21 43 -51 43c-29 0 -48 -16 -48 -43z" />
    <glyph glyph-name="comma" unicode="," horiz-adv-x="348" 
d="M121 -124l137 200h-108l-114 -200h85z" />
    <glyph glyph-name="commaaccent" horiz-adv-x="409" 
d="M164 -119l138 200h-108l-115 -200h85z" />
    <glyph glyph-name="copyright" unicode="&#xa9;" horiz-adv-x="916" 
d="M620 466c-47 27 -93 38 -151 38c-127 0 -214 -63 -214 -183c0 -115 79 -179 197 -179c69 0 119 10 176 50l-36 40c-50 -27 -86 -36 -136 -36c-82 0 -132 48 -132 128c0 82 56 126 142 126c37 0 62 -5 89 -16v-56h64v87.5467
c0.32984 0.149544 0.663161 0.300623 1 0.453253zM585.746 448.991c-1.96316 -1.36743 -8.49748 -4.74945 -30.746 -14.9908c20.4736 9.59698 27.9505 13.3608 30.746 14.9908zM67 322c0 -209 176 -321 400 -321c217 0 382 116 382 322s-169 322 -387 322
c-221 0 -395 -114 -395 -323zM138 322c0 174 140 269 324 269c180 0 317 -98 317 -271c0 -168 -133 -266 -309 -266c-185 0 -332 92 -332 268z" />
    <glyph glyph-name="currency" unicode="&#xa4;" horiz-adv-x="684" 
d="M127 313c0 -39.9579 9.65446 -73.694 27.1364 -100.998l-86.1364 -68.0024l58 -51c27.5262 22.1739 55.6371 43.7631 83.8855 66.1088c36.1832 -21.2664 82.43 -32.1088 135.114 -32.1088c50.122 0 93.9145 10.7603 128.482 31.2738
c27.1146 -21.6885 54.086 -42.9811 80.5183 -64.2738l62 48c-28.7765 22.7183 -58.1265 46.0101 -87.1814 69.0067c18.1794 28.1937 28.1814 63.0696 28.1814 103.993c0 42.1348 -11.1534 77.1366 -31.125 104.678c27.1223 21.4222 54.6237 42.61 82.125 64.3216l-58 52
c-27.5508 -22.3385 -55.656 -44.6769 -83.9028 -66.6025c-32.5668 16.2871 -72.4178 24.6025 -117.097 24.6025c-50.1282 0 -94.6063 -8.92132 -130.338 -26.8213c-28.2206 22.3286 -56.4413 44.7992 -84.6619 67.8213l-58 -52
c27.6252 -21.6522 55.2504 -43.3043 82.4593 -65.3727c-20.2025 -27.4405 -31.4593 -62.302 -31.4593 -104.627zM211 313c0 75 53 117 131 117c79 0 131 -42 131 -118c0 -75 -49 -121 -125 -121c-83 0 -137 43 -137 122z" />
    <glyph glyph-name="d" unicode="d" horiz-adv-x="801" 
d="M562 415.621v-275.102c-51.0244 -54.1556 -107.026 -80.5193 -183 -80.5193c-135 0 -231 75 -231 206c0 132 97 207 232 207c70.6793 0 130.152 -18.4102 182 -57.379zM562 58.2352v-58.2352h45h44h137v65l-137 -0.756906v735.757h-45h-44h-137v-65h137v-245.514
c-53.0043 31.5587 -118.506 47.5141 -187 47.5141c-182 0 -311 -99 -311 -274c0 -174 133 -267 316 -267c76.6054 0 133.454 20.7451 182 62.2352z" />
    <glyph glyph-name="dagger" unicode="&#x2020;" horiz-adv-x="677" 
d="M378 522v261h-80v-261h-260v-71h260v-749h80v749h261v71h-261z" />
    <glyph glyph-name="daggerdbl" unicode="&#x2021;" horiz-adv-x="743" 
d="M331 -43v-255h80v255h261v72h-261v422h261v71h-261v261h-80v-261h-260v-71h260v-422h-260v-72h260z" />
    <glyph glyph-name="dcaron" unicode="&#x10f;" horiz-adv-x="951" 
d="M795 605l137 200h-108l-114 -200h85zM562 415.621v-275.102c-51.0244 -54.1556 -107.026 -80.5193 -183 -80.5193c-135 0 -231 75 -231 206c0 132 97 207 232 207c70.6793 0 130.152 -18.4102 182 -57.379zM562 58.2352v-58.2352h45h44h137v65l-137 -0.756906v735.757
h-45h-44h-137v-65h137v-245.514c-53.0043 31.5587 -118.506 47.5141 -187 47.5141c-182 0 -311 -99 -311 -274c0 -174 133 -267 316 -267c76.6054 0 133.454 20.7451 182 62.2352z" />
    <glyph glyph-name="dcroat" unicode="&#x111;" horiz-adv-x="800" 
d="M562 617v-128.112c-53.1794 31.9552 -119.075 48.1122 -188 48.1122c-182 0 -311 -99 -311 -274c0 -174 134 -267 316 -267c77.5077 0 134.66 20.8523 183 62.5568v-58.5568h45h43h138v65l-138 -0.762431v552.762h93v53h-93v130h-44h-44h-137v-65h137v-65h-198v-53h198z
M562 415.621v-275.1c-51.0348 -54.1564 -107.132 -80.5205 -184 -80.5205c-135 0 -230 75 -230 206c0 132 97 207 232 207c70.6793 0 130.152 -18.4102 182 -57.379z" />
    <glyph glyph-name="degree" unicode="&#xb0;" horiz-adv-x="562" 
d="M74 511c0 -126 78 -200 205 -200c129 0 209 73 209 199c0 122 -79 196 -208 196c-127 0 -206 -74 -206 -195zM144 511c0 83 48 138 133 138c88 0 140 -54 140 -139c0 -87 -49 -142 -135 -142c-88 0 -138 56 -138 143z" />
    <glyph glyph-name="deltamath" horiz-adv-x="876" 
d="M36 0h803v71l-351 712h-4h-82h-3l-363 -712v-71zM442.426 701.23l311.574 -630.23h-632z" />
    <glyph glyph-name="dieresis" unicode="&#xa8;" horiz-adv-x="493" 
d="M240 655h103c0 29 -22 44 -53 44c-30 0 -50 -16 -50 -44zM240 655h103c0 -30 -22 -43 -53 -43c-30 0 -50 15 -50 43zM56 655h104c0 29 -22 44 -53 44c-30 0 -51 -16 -51 -44zM56 655h104c0 -30 -22 -43 -53 -43s-51 15 -51 43z" />
    <glyph glyph-name="divide" unicode="&#xf7;" horiz-adv-x="780" 
d="M89 276h601v71h-601v-71zM335 124h100c0 -29 -22 -41 -51 -41c-30 0 -49 14 -49 41zM335 124h100c0 29 -22 42 -51 42s-49 -15 -49 -42zM335 492h100c0 28 -22 42 -51 42s-49 -16 -49 -42zM335 492h100c0 -29 -22 -42 -51 -42c-30 0 -49 15 -49 42z" />
    <glyph glyph-name="divisionslash" unicode="&#x2215;" horiz-adv-x="596" 
d="M88 -65l501 798h-80l-501 -798h80z" />
    <glyph glyph-name="dollar" unicode="$" horiz-adv-x="666" 
d="M281 683.045c-115.864 -9.32597 -201 -52.957 -201 -151.045c0 -111 101 -146 221 -187c104 -35 218 -55 219 -139c-1 -79 -97 -97 -207 -97c-67.7735 0 -129.349 17.0436 -182 36.1294v80.8706h-67v-131c58.4769 -23.2188 126.568 -43.4794 203 -48.6989v-87.3011h85
v87.1379c139.956 7.06448 252 48.4272 252 162.862c0 117 -125 150 -253 194c-96 34 -186 53 -186 129c0 67 74 89 162 89c68.7422 0 118.843 -10.0972 177 -32.3452v-85.6548h67v130c-71.5337 30.5327 -130.13 47.3671 -205 51.1671v88.8329h-85v-89.9554z" />
    <glyph glyph-name="dotaccent" unicode="&#x2d9;" horiz-adv-x="562" 
d="M214 655h104c0 29 -22 44 -53 44c-30 0 -51 -16 -51 -44zM214 655h104c0 -30 -22 -43 -53 -43s-51 15 -51 43z" />
    <glyph glyph-name="dotlessi" unicode="&#x131;" horiz-adv-x="404" 
d="M176 468v-403h-137l-1 -65h138h44h45h124v65h-124v468h-45h-44h-137l-1 -65h138z" />
    <glyph glyph-name="e" unicode="e" horiz-adv-x="672" 
d="M522.911 311h-366.407c10.4439 103.533 74.9828 161 184.496 161c111.621 0 179.141 -52.728 181.911 -161zM156.251 250h447.749v48c0 160 -98 240 -258 240c-172 0 -276 -87 -276 -258c0 -189 115 -285 303 -285c89 0 147 23 214 75l-48 51c-55 -41 -98 -60 -166 -60
c-128.872 0 -206.169 66.1878 -216.749 189z" />
    <glyph glyph-name="eacute" unicode="&#xe9;" horiz-adv-x="672" 
d="M312 639c60 49 135 117 195 166h-109c-60 -48 -134 -117 -194 -166h108zM522.911 311h-366.407c10.4439 103.533 74.9828 161 184.496 161c111.621 0 179.141 -52.728 181.911 -161zM156.251 250h447.749v48c0 160 -98 240 -258 240c-172 0 -276 -87 -276 -258
c0 -189 115 -285 303 -285c89 0 147 23 214 75l-48 51c-55 -41 -98 -60 -166 -60c-128.872 0 -206.169 66.1878 -216.749 189z" />
    <glyph glyph-name="ecaron" unicode="&#x11b;" horiz-adv-x="675" 
d="M88 804c60 -48 134 -117 194 -166h14h94h14c60 49 134 118 194 166h-108c-44.928 -36.6912 -98.2664 -84.0357 -147 -126.079c-48.7336 42.0434 -102.072 89.3879 -147 126.079h-108zM523.911 311h-366.407c10.4439 103.533 74.9828 161 184.496 161
c111.621 0 179.141 -52.728 181.911 -161zM157.251 250h447.749v48c0 160 -98 240 -258 240c-172 0 -276 -87 -276 -258c0 -189 115 -285 303 -285c89 0 147 23 214 75l-48 51c-55 -41 -98 -60 -166 -60c-128.872 0 -206.169 66.1878 -216.749 189z" />
    <glyph glyph-name="ecircumflex" unicode="&#xea;" horiz-adv-x="675" 
d="M598 644c-59 48 -133 117 -194 166h-13h-95h-14c-60 -49 -134 -118 -194 -166h109c44.9042 36.6718 97.65 83.9856 146.5 126.012c48.85 -42.0268 101.596 -89.3406 146.5 -126.012h108zM523.91 311h-366.406c10.4439 103.533 74.9828 161 184.496 161
c110.641 0 179.1 -52.728 181.91 -161zM157.251 250h447.749v48c0 160 -98 240 -258 240c-172 0 -276 -87 -276 -258c0 -189 115 -285 303 -285c89 0 147 23 214 75l-48 51c-55 -41 -99 -60 -166 -60c-128.872 0 -206.169 66.1878 -216.749 189z" />
    <glyph glyph-name="edieresis" unicode="&#xeb;" horiz-adv-x="672" 
d="M383 670h104c0 29 -23 43 -53 43c-31 0 -51 -16 -51 -43zM383 670h104c0 -30 -23 -44 -54 -44c-30 0 -50 15 -50 44zM200 670h104c0 29 -23 43 -53 43c-31 0 -51 -16 -51 -43zM200 670h104c0 -30 -23 -44 -54 -44c-30 0 -50 15 -50 44zM522.911 311h-366.407
c10.4439 103.533 74.9828 161 184.496 161c111.621 0 179.141 -52.728 181.911 -161zM156.251 250h447.749v48c0 160 -98 240 -258 240c-172 0 -276 -87 -276 -258c0 -189 115 -285 303 -285c89 0 147 23 214 75l-48 51c-55 -41 -98 -60 -166 -60
c-128.872 0 -206.169 66.1878 -216.749 189z" />
    <glyph glyph-name="edotaccent" unicode="&#x117;" horiz-adv-x="672" 
d="M291 670h104c0 29 -22 44 -53 44c-30 0 -51 -16 -51 -44zM291 670h104c0 -30 -22 -43 -53 -43s-51 15 -51 43zM522.911 311h-366.407c10.4439 103.533 74.9828 161 184.496 161c111.621 0 179.141 -52.728 181.911 -161zM156.251 250h447.749v48c0 160 -98 240 -258 240
c-172 0 -276 -87 -276 -258c0 -189 115 -285 303 -285c89 0 147 23 214 75l-48 51c-55 -41 -98 -60 -166 -60c-128.872 0 -206.169 66.1878 -216.749 189z" />
    <glyph glyph-name="egrave" unicode="&#xe8;" horiz-adv-x="672" 
d="M475 639c-60 49 -134 117 -194 166h-108c60 -49 134 -117 194 -166h108zM522.911 311h-366.407c10.4439 103.533 74.9828 161 184.496 161c111.621 0 179.141 -52.728 181.911 -161zM156.251 250h447.749v48c0 160 -98 240 -258 240c-172 0 -276 -87 -276 -258
c0 -189 115 -285 303 -285c89 0 147 23 214 75l-48 51c-55 -41 -98 -60 -166 -60c-128.872 0 -206.169 66.1878 -216.749 189z" />
    <glyph glyph-name="eight" unicode="8" horiz-adv-x="674" 
d="M338.821 411.429c-87.4355 33.4051 -162.821 51.1948 -162.821 138.571c0 80 66 110 156 110c98 0 166 -27 166 -112c0 -85.8291 -73.4623 -105.542 -159.179 -136.571zM421.603 378.119c90.1457 36.3969 161.397 69.2426 161.397 169.881c0 133 -100 179 -247 179
c-142 0 -245 -48 -245 -177c0 -101.972 70.7921 -136.587 162.234 -172.224c-104.526 -41.9846 -185.234 -80.3282 -185.234 -195.776c0 -139 110 -187 264 -187c157 0 273 44 273 187c0 113.87 -80.1551 154.084 -183.397 196.119zM338.394 344.579
c99.5413 -38.5009 181.606 -64.1608 181.606 -162.579c0 -92 -78 -120 -184 -120s-183 28 -183 120c0 101.131 85.3697 124.499 185.394 162.579z" />
    <glyph glyph-name="ellipsis" unicode="&#x2026;" horiz-adv-x="727" 
d="M312 36h103c0 29 -22 44 -53 44c-30 0 -50 -16 -50 -44zM312 36h103c0 -30 -22 -43 -53 -43c-30 0 -50 15 -50 43zM537 36h104c0 29 -23 44 -53 44c-31 0 -51 -16 -51 -44zM537 36h104c0 -30 -23 -43 -54 -43c-30 0 -50 15 -50 43zM86 36h104c0 29 -22 44 -53 44
c-30 0 -51 -16 -51 -44zM86 36h104c0 -30 -22 -43 -53 -43s-51 15 -51 43z" />
    <glyph glyph-name="emacron" unicode="&#x113;" horiz-adv-x="672" 
d="M470 704h-264v-64h264v64zM522.911 311h-366.407c10.4439 103.533 74.9828 161 184.496 161c111.621 0 179.141 -52.728 181.911 -161zM156.251 250h447.749v48c0 160 -98 240 -258 240c-172 0 -276 -87 -276 -258c0 -189 115 -285 303 -285c89 0 147 23 214 75l-48 51
c-55 -41 -98 -60 -166 -60c-128.872 0 -206.169 66.1878 -216.749 189z" />
    <glyph glyph-name="emdash" unicode="&#x2014;" horiz-adv-x="969" 
d="M88 242h793v71h-793v-71z" />
    <glyph glyph-name="endash" unicode="&#x2013;" horiz-adv-x="630" 
d="M88 242h454v71h-454v-71z" />
    <glyph glyph-name="eogonek" unicode="&#x119;" horiz-adv-x="672" 
d="M522.911 311h-366.407c10.4439 103.533 74.9828 161 184.496 161c111.621 0 179.141 -52.728 181.911 -161zM399.296 -4.27652c74.6238 4.26745 127.535 27.5777 187.704 74.2765l-48 51c-55 -41 -98 -60 -166 -60c-128.872 0 -206.169 66.1878 -216.749 189h447.749v48
c0 160 -98 240 -258 240c-172 0 -276 -87 -276 -258c0 -160.529 82.9627 -253.967 223.153 -278.475c-17.5096 -16.3113 -28.153 -37.4573 -28.153 -67.525c0 -72 53 -111 128 -111c42 0 71 13 108 31c-38 49 -2 1 -39 50c-22 -10 -38 -18 -61 -18c-34 0 -58 17 -58 49
c0 33.5292 24.9372 47.7194 56.2955 60.7235z" />
    <glyph glyph-name="equal" unicode="=" horiz-adv-x="919" 
d="M90 406h739v67h-739v-67zM90 184h739v67h-739v-67z" />
    <glyph glyph-name="estimated" unicode="&#x212e;" horiz-adv-x="776" 
d="M570 608.137v-201.137h-359l2.84217e-14 198.552c43.7824 35.6722 102.953 55.4484 177 55.4484c75.5779 0 136.772 -18.8089 182 -52.8634zM211 347h534v47c0 203 -128 332 -353 332c-229 0 -361 -136 -361 -351c0 -233 145 -380 396 -380c111 0 210 36 299 107
c-25 25 -24 22 -47 46c-79 -60 -164 -88 -252 -88c-92.1945 0 -164.613 26.0879 -216 72.7633v214.237z" />
    <glyph glyph-name="eth" unicode="&#xf0;" horiz-adv-x="698" 
d="M535.089 353.821c-30.7596 114.745 -114.473 190.362 -229.399 241.869l-106.69 -106.69l-41 41c30.1419 30.1419 59.7563 59.6244 89.2263 88.9744c-52.0944 18.4354 -109.034 33.0773 -169.226 45.0256l19 69c74.5078 -13.3668 144.726 -31.6968 208.214 -56.2185
c32.2977 32.251 64.7245 64.7587 97.7859 98.2185c11.2536 -11.0239 17.1361 -16.5623 19.8449 -19.1468c-0.0969529 0 3.47091 -3.80055 21.1551 -21.8532l-81.8161 -81.8161c161.313 -77.7395 266.816 -204.467 266.816 -405.184c0 -169 -120 -256 -297 -256
c-158 0 -267 74 -267 222c0 147 110 215 266 215c86.7148 0 154.038 -25.168 204.089 -74.179zM547.992 252.796c-47.9673 74.3834 -113.719 108.204 -209.992 108.204c-111 0 -189 -47 -189 -151c0 -98 75 -143 180 -143c130 0 219 60 219 183
c0 0.934058 -0.00816466 1.86612 -0.00816466 2.79618z" />
    <glyph glyph-name="exclam" unicode="!" horiz-adv-x="288" 
d="M186 229v493h-84v-493h84zM92 40h106c0 29 -23 43 -54 43c-30 0 -52 -15 -52 -43zM92 40h106c0 -30 -23 -43 -54 -43c-30 0 -52 15 -52 43z" />
    <glyph glyph-name="exclamdown" unicode="&#xa1;" horiz-adv-x="288" 
d="M102 493c0 -164 0 -329 -1 -493h85v493h-84zM196 682h-106c0 -29 23 -44 54 -44c30 0 52 16 52 44zM196 682h-106c0 30 23 43 54 43c30 0 52 -15 52 -43z" />
    <glyph glyph-name="f" unicode="f" horiz-adv-x="573" 
d="M303 525v98c-1 73 45 118 118 118c24.3292 0 48.2016 -4.56719 71 -11.541v-88.459h67v129c-44 18 -91 33 -138 33c-121 0 -204 -63 -203 -180v-98h-175v-65h175v-395h-139v-65h139h42h43h138v65h-138v395h232v65h-232z" />
    <glyph glyph-name="fi" unicode="&#xfb01;" horiz-adv-x="722" 
d="M250 0h41h78v66h-78v414h201v-414h-78v-66h78h52h3h32h122v66h-122v479h-288v49c-1 96 51 163 153 163c18 0 33 -1 48 -6v-88h86v138c-49 14 -86 21 -137 21c-148 0 -239 -89 -237 -228v-49h-173v-65h173v-414h-134v-66h134h46z" />
    <glyph glyph-name="five" unicode="5" horiz-adv-x="631" 
d="M186 446.055v210.945h354v65h-435v-321v-5l81 -20c24 11 71 19 106 19c112 0 192 -57 192 -162c0 -107 -89 -169 -202 -169c-67 0 -119 12 -181 39l-42 -58c72 -34 138 -50 219 -50c162 0 291 85 291 238c0 146 -114 231 -270 231
c-36.1565 0 -76.39 -5.82442 -113 -17.9447z" />
    <glyph glyph-name="fl" unicode="&#xfb02;" horiz-adv-x="816" 
d="M288 0h38h94v66h-94v414h231v-414h-89v-66h89h54h4h28h149v66h-149v735c-54 14 -95 21 -151 21c-149 0 -254 -85 -252 -228v-49h-203v-65h203v-414h-148v-66h148h48zM326 545v49c0 100 68 163 170 163c5.5 0 10.75 0.0625 15.8594 0.0625
c15.3281 0 29.3906 -0.5625 45.1406 -5.0625v-207h-231z" />
    <glyph glyph-name="florin" unicode="&#x192;" horiz-adv-x="529" 
d="M518 821c-15.289 2.54816 -30.0368 3.81373 -44.167 3.81373c-85.6843 0 -148.655 -46.5364 -171.833 -135.814c-10.6733 -44 -21.2991 -88 -31.8981 -132h-111.102v-64h95.7016c-32.8557 -136.667 -65.5498 -273.333 -98.7016 -410
c-12.2218 -52.379 -46.5444 -81.895 -96.315 -81.895c-7.24148 0 -14.81 0.624837 -22.685 1.895l-15 -64c15.0974 -2.33323 29.6673 -3.49855 43.6399 -3.49855c87.8328 0 152.066 46.0469 175.36 137.499c33.6016 139.893 68.1438 279.785 102.337 420h124.663v64
h-109.091c10.4272 42.9621 20.8032 85.959 31.091 129c12.0869 48.3478 44.2991 72.8435 90.2013 72.8435c7.26513 0 14.8732 -0.613634 22.7987 -1.84345z" />
    <glyph glyph-name="four" unicode="4" horiz-adv-x="736" 
d="M407 246v-181h-140v-65h181h181v65h-137v181h189v71h-189v393h-85c-371 -393 0 -1 -371 -393l36 -71h335zM407 317h-268.897l268.897 288.815v-288.815z" />
    <glyph glyph-name="foursuperior" unicode="&#x2074;" horiz-adv-x="587" 
d="M340 290h41h134v57h-134v68h100v59h-100v260h-81l-244 -260l31 -59h213v-68h-135v-57h135h40zM300 641.86v-167.86h-157.605z" />
    <glyph glyph-name="fraction" unicode="&#x2044;" horiz-adv-x="654" 
d="M86 -65l501 798h-80l-501 -798h80z" />
    <glyph glyph-name="g" unicode="g" horiz-adv-x="707" 
d="M214.122 -6.1676c36.0041 -9.22372 77.8627 -13.6063 120.878 -16.8324c120 -8 242 -7 242 -108c0 -93 -113 -109 -233 -109c-111 0 -212 28 -212 122c0 55.8369 34.387 89.4233 82.1223 111.832zM147.278 22.6125c-58.6568 -29.5688 -99.2778 -73.256 -99.2778 -144.612
c0 -140 135 -182 292 -182c166 0 317 32 314 179c0 142 -148 154 -304 164c-81 5 -161 12 -161 79c0 29.2912 14.1022 49.5571 36.3753 65.0342c34.6378 -11.4709 74.3895 -17.0342 116.625 -17.0342c139 0 251 58 251 185c0 34.6504 -8.16767 64.385 -22.8392 89.2871
c38.9275 15.5242 76.8769 30.6186 110.839 45.7129l-36 62c-41.1927 -17.8761 -82.3855 -36.9603 -123.578 -55.8442c-43.9554 30.7273 -104.719 45.8442 -172.422 45.8442c-141 0 -250 -64 -250 -193c0 -58.8436 24.9468 -102.353 65.6431 -131.732
c-36.3299 -23.6124 -60.6431 -55.0118 -60.6431 -102.268c0 -41.0629 16.3476 -69.0182 43.2778 -88.3875zM185 348c0 83 72 126 164 126c91 0 159 -42 159 -125c0 -80 -69 -119 -159 -119s-164 35 -164 118z" />
    <glyph glyph-name="gbreve" unicode="&#x11f;" horiz-adv-x="707" 
d="M455 771c0 -55 -46 -73 -106 -73s-105 19 -105 74h-81c0 -98 76 -138 183 -138c109 0 189 38 189 137h-80zM214.122 -6.1676c36.0041 -9.22372 77.8627 -13.6063 120.878 -16.8324c120 -8 242 -7 242 -108c0 -93 -113 -109 -233 -109c-111 0 -212 28 -212 122
c0 55.8369 34.387 89.4233 82.1223 111.832zM147.278 22.6125c-58.6568 -29.5688 -99.2778 -73.256 -99.2778 -144.612c0 -140 135 -182 292 -182c166 0 317 32 314 179c0 142 -148 154 -304 164c-81 5 -161 12 -161 79c0 29.2912 14.1022 49.5571 36.3753 65.0342
c34.6378 -11.4709 74.3895 -17.0342 116.625 -17.0342c139 0 251 58 251 185c0 34.6504 -8.16767 64.385 -22.8392 89.2871c38.9275 15.5242 76.8769 30.6186 110.839 45.7129l-36 62c-41.1927 -17.8761 -82.3855 -36.9603 -123.578 -55.8442
c-43.9554 30.7273 -104.719 45.8442 -172.422 45.8442c-141 0 -250 -64 -250 -193c0 -58.8436 24.9468 -102.353 65.6431 -131.732c-36.3299 -23.6124 -60.6431 -55.0118 -60.6431 -102.268c0 -41.0629 16.3476 -69.0182 43.2778 -88.3875zM185 348c0 83 72 126 164 126
c91 0 159 -42 159 -125c0 -80 -69 -119 -159 -119s-164 35 -164 118z" />
    <glyph glyph-name="gcommaaccent" unicode="&#x123;" horiz-adv-x="707" 
d="M389 808l-137 -201h108l114 201h-85zM214.122 -6.1676c36.0041 -9.22372 77.8627 -13.6063 120.878 -16.8324c120 -8 242 -7 242 -108c0 -93 -113 -109 -233 -109c-111 0 -212 28 -212 122c0 55.8369 34.387 89.4233 82.1223 111.832zM147.278 22.6125
c-58.6568 -29.5688 -99.2778 -73.256 -99.2778 -144.612c0 -140 135 -182 292 -182c166 0 317 32 314 179c0 142 -148 154 -304 164c-81 5 -161 12 -161 79c0 29.2912 14.1022 49.5571 36.3753 65.0342c34.6378 -11.4709 74.3895 -17.0342 116.625 -17.0342
c139 0 251 58 251 185c0 34.6504 -8.16767 64.385 -22.8392 89.2871c38.9275 15.5242 76.8769 30.6186 110.839 45.7129l-36 62c-41.1927 -17.8761 -82.3855 -36.9603 -123.578 -55.8442c-43.9554 30.7273 -104.719 45.8442 -172.422 45.8442c-141 0 -250 -64 -250 -193
c0 -58.8436 24.9468 -102.353 65.6431 -131.732c-36.3299 -23.6124 -60.6431 -55.0118 -60.6431 -102.268c0 -41.0629 16.3476 -69.0182 43.2778 -88.3875zM185 348c0 83 72 126 164 126c91 0 159 -42 159 -125c0 -80 -69 -119 -159 -119s-164 35 -164 118z" />
    <glyph glyph-name="germandbls" unicode="&#xdf;" horiz-adv-x="739" 
d="M490 81c115 21 194 78 194 199c0 94.4085 -52.4915 150.974 -137.228 179.561c60.2588 27.8742 98.2283 76.6175 98.2283 153.439c0 131 -106 187 -248 187c-143 0 -246 -64 -246 -197v-538h-138v-65h138h43h41h141v65h-141v538c0 87 63 132 155 132
c98 0 175 -34 175 -125s-84 -127 -190 -127v-54c115 0 229 -36 229 -153c0 -80 -63 -114 -133 -130z" />
    <glyph glyph-name="grave" unicode="`" horiz-adv-x="550" 
d="M363 591c-59 49 -134 117 -194 166h-108c60 -49 134 -117 194 -166h108z" />
    <glyph glyph-name="greater" unicode="&#x3e;" horiz-adv-x="832" 
d="M690.535 305.297c-206.495 -77.7656 -412.888 -155.531 -618.535 -233.297v-72c238 90 477 180 716 270v72c-243 88 -486 176 -728 264v-72c209.645 -76.2344 420.04 -152.469 630.535 -228.703z" />
    <glyph glyph-name="greaterequal" unicode="&#x2265;" horiz-adv-x="885" 
d="M811 -1h-728v67h728v-67zM83 703c242 -82 486 -164 728 -246v-1v-71c-242 -83 -486 -165 -728 -248v71c207.289 71.0949 416.045 142.19 623.755 212.656c-207.71 70.8669 -416.466 141.105 -623.755 211.344v71z" />
    <glyph glyph-name="guillemotleft" unicode="&#xab;" horiz-adv-x="612" 
d="M77 246l221 -114v70l-151.417 78.7916l152.417 76.2084v71l-222 -111v-71zM314 246l220 -114v70l-151.189 79.0308l151.189 76.9692v70l-220 -111v-71z" />
    <glyph glyph-name="guillemotright" unicode="&#xbb;" horiz-adv-x="612" 
d="M515 246l-220 -114v70l150.731 78.7912l-151.731 76.2088v71l221 -111v-71zM279 246l-221 -114v70l151.877 79.0308l-151.877 76.9692v70l221 -111v-71z" />
    <glyph glyph-name="guilsinglleft" unicode="&#x2039;" horiz-adv-x="450" 
d="M168.168 281.607c58.743 27.1667 82.9449 46.9795 185.832 84.393v71c-143 -51 -134 -67 -277 -119v-73c143 -52 134 -67 277 -118v72c-102.887 36.694 -127.089 55.7873 -185.832 82.607z" />
    <glyph glyph-name="guilsinglright" unicode="&#x203a;" horiz-adv-x="450" 
d="M281.918 281.646c-58.448 27.1466 -82.3608 46.9584 -185.918 84.3539v71c144 -51 134 -67 277 -119v-73c-143 -52 -134 -67 -277 -118v72c102.937 36.7118 127.112 55.8059 185.918 82.6461z" />
    <glyph glyph-name="h" unicode="h" horiz-adv-x="822" 
d="M236 451.902v348.098h-42h-43h-138v-65h138v-670h-138v-65h138h43h42h124v65h-124v296.988c45.2282 68.4077 120.003 111.012 203 111.012c97 0 150 -51 150 -148v-260h-124v-65h124h41h44h138v65h-138v267c0 137 -81 205 -222 205
c-82.4953 0 -161.21 -29.774 -216 -85.0983z" />
    <glyph glyph-name="hungarumlaut" unicode="&#x2dd;" horiz-adv-x="595" 
d="M363 643l138 200h-108l-114 -200h84zM175 643l138 200h-108l-115 -200h85z" />
    <glyph glyph-name="hyphen" unicode="-" horiz-adv-x="519" 
d="M89 242h342v71h-342v-71z" />
    <glyph glyph-name="i" unicode="i" horiz-adv-x="404" 
d="M169 670h100c0 28 -21 42 -51 42c-29 0 -49 -16 -49 -42zM169 670h100c0 -29 -21 -41 -51 -41c-29 0 -49 14 -49 41zM176 468v-403h-137l-1 -65h138h44h45h124v65h-124v468h-45h-44h-137l-1 -65h138z" />
    <glyph glyph-name="iacute" unicode="&#xed;" horiz-adv-x="427" 
d="M195 641c60 49 134 117 194 166h-108c-60 -49 -135 -118 -194 -166h108zM176 468v-403h-137l-1 -65h138h44h45h124v65h-124v468h-45h-44h-137l-1 -65h138z" />
    <glyph glyph-name="icircumflex" unicode="&#xee;" horiz-adv-x="558" 
d="M548 641c-59 49 -133 118 -194 166h-13h-95h-14c-60 -48 -134 -117 -194 -166h109c44.9042 36.6718 97.65 84.5457 146.5 126.435c48.85 -41.8894 101.596 -89.7634 146.5 -126.435h108zM251 468v-403h-137v-65h137h44h45h124v65h-124v468h-45h-44h-137v-65h137z" />
    <glyph glyph-name="idieresis" unicode="&#xef;" horiz-adv-x="435" 
d="M272 669h103c0 29 -22 43 -53 43c-30 0 -50 -16 -50 -43zM272 669h103c0 -30 -22 -44 -53 -44c-30 0 -50 15 -50 44zM88 669h104c0 29 -22 43 -53 43c-30 0 -51 -16 -51 -43zM88 669h104c0 -30 -22 -44 -53 -44s-51 15 -51 44zM189 468v-403h-138v-65h138h44h45h124v65
h-124v468h-45h-44h-138v-65h138z" />
    <glyph glyph-name="igrave" unicode="&#xec;" horiz-adv-x="429" 
d="M359 640c-60 48 -134 117 -194 166h-109c60 -49 134 -118 194 -166h109zM200 468v-403h-138v-65h138h44h45h124v65h-124v468h-45h-44h-138v-65h138z" />
    <glyph glyph-name="imacron" unicode="&#x12b;" horiz-adv-x="404" 
d="M347 702h-264v-64h264v64zM176 468v-403h-137l-1 -65h138h44h45h124v65h-124v468h-45h-44h-137l-1 -65h138z" />
    <glyph glyph-name="infinity" unicode="&#x221e;" horiz-adv-x="1052" 
d="M471.047 404.683c-41.8927 -62.613 -89.522 -120.683 -163.047 -120.683c-78 0 -146 45 -146 118s71 112 148 112c69.9557 0 121.092 -49.4007 161.047 -109.317zM517.763 469.729c-53.1453 64.446 -122.4 109.271 -207.763 109.271c-121 0 -232 -64 -232 -177
c0 -114 108 -182 230 -182c86.9486 0 155.025 51.0248 208.32 119.181c55.3491 -68.4223 128.105 -118.181 217.68 -118.181c126 0 241 64 241 180c0 114 -116 176 -241 176c-87.7002 0 -160.75 -42.5552 -216.237 -107.271zM562.883 406.07
c42.8663 59.7076 98.0889 106.93 171.117 106.93c80 0 157 -37 157 -112s-76 -115 -157 -115c-76.6418 0 -127.075 55.5945 -171.117 120.07z" />
    <glyph glyph-name="integral" unicode="&#x222b;" horiz-adv-x="529" 
d="M513 821c-15.4305 2.54816 -30.2999 3.81373 -44.5344 3.81373c-86.3169 0 -149.288 -46.5364 -172.466 -135.814c-48 -202 -97 -404 -145 -606c-13.0948 -52.379 -47.5283 -81.895 -96.6476 -81.895c-7.14673 0 -14.6043 0.624837 -22.3524 1.895l-16 -64
c15.293 -2.36347 30.0448 -3.54789 44.1829 -3.54789c87.5545 0 151.571 45.4238 174.817 137.548c50 205 100 408 150 613c11.2236 48.3478 44.8086 72.8435 89.815 72.8435c7.12335 0 14.5328 -0.613634 22.185 -1.84345z" />
    <glyph glyph-name="iogonek" unicode="&#x12f;" horiz-adv-x="404" 
d="M169 670h100c0 28 -21 42 -51 42c-29 0 -49 -16 -49 -42zM169 670h100c0 -29 -21 -41 -51 -41c-29 0 -49 14 -49 41zM176 468v-403h-137l-1 -65h85.5936c-17.1766 -16.2396 -27.5936 -37.2538 -27.5936 -67c0 -72 53 -111 128 -111c42 0 71 13 108 31c-38 50 -2 1 -39 51
c-22 -11 -38 -19 -61 -19c-34 0 -58 17 -58 49c0 38.0815 32.1683 51.2161 69.3768 66h21.6232h124v65h-124v468h-45h-44h-137l-1 -65h138z" />
    <glyph glyph-name="j" unicode="j" horiz-adv-x="373" 
d="M14 -302c10 0 23 -2 38 -2c121 0 216 57 216 173v664h-44h-41h-140v-65h140v-599c0 -71 -55 -110 -128 -110c-10 0 -22 1 -29 2c-11 -62 0 -1 -12 -63zM177 670h100c0 28 -22 42 -51 42s-49 -15 -49 -42zM177 670h100c0 -29 -21 -41 -51 -41s-49 14 -49 41z" />
    <glyph glyph-name="k" unicode="k" horiz-adv-x="820" 
d="M280 274c95.1508 56.9406 207.703 129.037 312.002 194h5.99801h4h163v65h-163h-4h-217v-65h87.4578c-76.1042 -48.6788 -156.557 -102.172 -231.458 -149.518v481.518h-40h-45h-137v-65h137v-670h-139v-65h139h42h43h102v65h-102v164.305
c117.899 -74.7374 249.204 -163.985 360 -229.305h9h118h80v65h-187.594c-112.379 69.3478 -233.432 147.366 -336.406 209z" />
    <glyph glyph-name="kcommaaccent" unicode="&#x137;" horiz-adv-x="820" 
d="M381 -307l138 200h-108l-115 -200h85zM280 274c95.1508 56.9406 207.703 129.037 312.002 194h5.99801h4h163v65h-163h-4h-223v-65h93.4578c-76.1042 -48.6788 -156.557 -102.172 -231.458 -149.518v481.518h-40h-45h-137v-65h137v-670h-139v-65h139h42h43h108v65h-108
v164.305c117.899 -74.7374 249.204 -163.985 360 -229.305h9h118h80v65h-187.594c-112.379 69.3478 -233.432 147.366 -336.406 209z" />
    <glyph glyph-name="l" unicode="l" horiz-adv-x="390" 
d="M236 65v735h-38h-46h-135l-1 -65h136v-670h-138v-65h138h43h41h141v65h-141z" />
    <glyph glyph-name="lacute" unicode="&#x13a;" horiz-adv-x="403" 
d="M164 879c60 49 134 117 194 166h-108c-60 -49 -134 -118 -194 -166h108zM239 65v735h-38h-46h-135l-1 -65h136v-670h-138v-65h138h43h41h141v65h-141z" />
    <glyph glyph-name="lcaron" unicode="&#x13e;" horiz-adv-x="549" 
d="M393 605l138 201h-108l-115 -201h85zM236 65v735h-38h-46h-135l-1 -65h136v-670h-138v-65h138h43h41h141v65h-141z" />
    <glyph glyph-name="lcommaaccent" unicode="&#x13c;" horiz-adv-x="390" 
d="M157 -302l138 201h-109l-114 -201h85zM236 65v735h-38h-46h-135l-1 -65h136v-670h-138v-65h138h43h41h141v65h-141z" />
    <glyph glyph-name="less" unicode="&#x3c;" horiz-adv-x="834" 
d="M142.115 300.704c205.865 77.7653 412.375 155.531 618.885 233.296v72c-239 -90 -478 -180 -716 -270v-72c242 -88 485 -176 728 -264v72c-210.512 76.2347 -421.023 152.469 -630.885 228.704z" />
    <glyph glyph-name="lessequal" unicode="&#x2264;" horiz-adv-x="885" 
d="M74 -1h728v67h-728v-67zM802 703c-243 -82 -486 -164 -728 -246v-1v-71c242 -83 485 -165 728 -248v71c-208.145 71.0949 -416.291 142.19 -623.808 212.656c207.517 70.8669 415.662 141.105 623.808 211.344v71z" />
    <glyph glyph-name="litre" horiz-adv-x="422" 
d="M252 65v735h-39h-46h-135v-65h135v-670h-137v-65h137h44h41h140v65h-140z" />
    <glyph glyph-name="logicalnot" unicode="&#xac;" horiz-adv-x="779" 
d="M608 347h-497v-71h497v-130h81v130v71h-81z" />
    <glyph glyph-name="logo" horiz-adv-x="2241" 
d="M1661 55c83 -41 158 -60 250 -60c161 0 291 43 291 186c0 130 -116 169 -243 218c-98 38 -197 63 -197 152c0 81 73 112 162 112c67.1015 0 119.401 -16.2816 176 -40.5682v-94.4318h67v134c-82 39 -148 64 -239 64c-140 0 -251 -53 -251 -178c0 -124 111 -158 231 -205
c104 -40 209 -68 209 -162c0 -88 -89 -118 -199 -118c-70.5067 0 -128.757 16.3419 -191 43.8554v87.1446h-67v-139h1zM1037 722h-40h-45h-136v-65h136v-592h-136v-65h136h45h40h189c254 0 405 111 405 353c0 252 -154 369 -416 369h-178zM1037 657h174
c214 0 336 -100 336 -307c0 -192 -114 -285 -313 -285h-197v592zM364 653v-588h-140v-65h140h41h44h138v65h-138v588h255v-84h67v84v36v33h-729v-33v-36v-84h67v84h255z" />
    <glyph glyph-name="lozenge" unicode="&#x25ca;" horiz-adv-x="606" 
d="M260 137h-1c-69 108 -137 215 -205 323h85c54.0569 85.8551 108.746 171.078 163.062 256.674c54.4636 -85.6356 110.775 -173.358 163.938 -256.674h85c-67 105 -138 217 -206 323h-1h-84h-1c-69 -108 -137 -215 -205 -323h85
c54.1088 -85.9376 108.851 -171.242 163.218 -256.921c54.4149 85.0934 110.669 172.892 163.782 256.921h85c-67 -106 -138 -218 -206 -323h-1h-84z" />
    <glyph glyph-name="lslash" unicode="&#x142;" horiz-adv-x="395" 
d="M240 65v343.263c42.6667 35.8774 85.3333 71.8072 128 107.737v72c-42.6667 -35.9298 -85.3333 -71.7196 -128 -107.474v319.474h-39h-45h-136v-65h136v-324.85c-43.3333 -36.3121 -86.6667 -72.6588 -130 -109.15v-72c43.3333 36.1111 86.6667 72.3667 130 108.712
v-272.712h-138v-65h138h43h41h140v65h-140z" />
    <glyph glyph-name="m" unicode="m" horiz-adv-x="1193" 
d="M262 452.372v80.6278h-42h-43h-138l-1 -65h139v-403h-138l-1 -65h139h43h42h110v65h-110v299.228c39.5541 66.0053 95.3574 106.772 173 106.772c95 0 133 -48 133 -146v-260h-111v-65h111h42h42h110v65h-110v267c0 10.6074 -0.336773 20.7895 -1.02167 30.5488
c39.5743 66.3831 97.7035 108.451 175.022 108.451c95 0 132 -48 132 -146v-260h-109v-65h109h44h41h140v65h-140v267c0 138 -58 204 -197 204c-89.1994 0 -159.857 -35.9592 -209.447 -100.718c-25.2039 67.8482 -82.4594 100.718 -180.553 100.718
c-82.3657 0 -145.416 -28.7382 -194 -83.6278z" />
    <glyph glyph-name="macron" unicode="&#xaf;" horiz-adv-x="399" 
d="M292 683h-265v-65h265v65z" />
    <glyph glyph-name="macronmod" horiz-adv-x="382" 
d="M323 683h-265v-65h265v65z" />
    <glyph glyph-name="minus" unicode="&#x2212;" horiz-adv-x="781" 
d="M90 276h601v71h-601v-71z" />
    <glyph glyph-name="multiply" unicode="&#xd7;" horiz-adv-x="637" 
d="M318.78 361.78l-186.78 187.22l-51 -51l187.22 -186.78l-187.22 -187.22l50 -50l187.5 187.059l187.5 -187.059l50 50l-186.999 187.441l186.999 186.559c-19 19 -31 32 -50 51z" />
    <glyph glyph-name="mumath" horiz-adv-x="856" 
d="M603 168.689c-43.4798 -59.4841 -111.88 -107.689 -186 -107.689c-100 0 -159 46 -159 142v330h-42h-42h-1h-138v-65h138v-269c0 -8.59857 0.335727 -16.9105 1 -24.9384v-474.062h84v329.024c38.8319 -22.9698 89.907 -34.024 151 -34.024
c75.9206 0 144.079 35.9003 194 89.1159v-84.1159h42h43h126v65h-126v468h-43h-42h-139v-65h139v-299.311z" />
    <glyph glyph-name="n" unicode="n" horiz-adv-x="847" 
d="M177 468v-403h-139v-65h139h42h43h122v65h-122v297.448c43.7777 66.441 117.064 108.552 197 108.552c98 0 155 -50 155 -146v-260h-123v-65h123h42h43h138v65h-138v267c0 136 -79 204 -220 204c-84.877 0 -160.749 -29.5168 -217 -87.8428v84.8428h-43h-42h-139v-65h139
z" />
    <glyph glyph-name="nacute" unicode="&#x144;" horiz-adv-x="847" 
d="M419 639c60 49 134 117 194 166h-109c-60 -49 -134 -117 -194 -166h109zM177 468v-403h-139v-65h139h42h43h122v65h-122v297.448c43.7777 66.441 117.064 108.552 197 108.552c98 0 155 -50 155 -146v-260h-123v-65h123h42h43h138v65h-138v267c0 136 -79 204 -220 204
c-84.877 0 -160.749 -29.5168 -217 -87.8428v84.8428h-43h-42h-139v-65h139z" />
    <glyph glyph-name="ncaron" unicode="&#x148;" horiz-adv-x="847" 
d="M193 804c60 -49 134 -117 194 -166h14h95h13c61 49 135 117 194 166h-108c-44.9042 -36.6718 -97.65 -83.9856 -146.5 -126.012c-48.85 42.0268 -101.596 89.3406 -146.5 126.012h-109zM177 468v-403h-139v-65h139h42h43h122v65h-122v297.448
c43.7777 66.441 117.064 108.552 197 108.552c98 0 155 -50 155 -146v-260h-123v-65h123h42h43h138v65h-138v267c0 136 -79 204 -220 204c-84.877 0 -160.749 -29.5168 -217 -87.8428v84.8428h-43h-42h-139v-65h139z" />
    <glyph glyph-name="ncommaaccent" unicode="&#x146;" horiz-adv-x="847" 
d="M418 -300l138 200h-108l-114 -200h84zM177 468v-403h-139v-65h139h42h43h122v65h-122v297.448c43.7777 66.441 117.064 108.552 197 108.552c98 0 155 -50 155 -146v-260h-123v-65h123h42h43h138v65h-138v267c0 136 -79 204 -220 204
c-84.877 0 -160.749 -29.5168 -217 -87.8428v84.8428h-43h-42h-139v-65h139z" />
    <glyph glyph-name="nine" unicode="9" horiz-adv-x="700" 
d="M540.877 366.715c-48.9454 -180.474 -229.757 -264.631 -456.877 -309.715c8.89618 -32.3072 9.46162 -34.1414 9.49756 -34.1414c0.040818 0 9.50244 -34.8586 9.50244 -34.8586c301 54 532 189 532 487c0 168 -119 255 -296 255c-159 0 -268 -73 -268 -222
c0 -147 110 -215 266 -215c86.441 0 153.612 25.0093 203.877 73.7153zM553.992 468.226c-47.9596 -74.2313 -113.628 -107.226 -208.992 -107.226c-111 0 -189 46 -189 150c0 98 75 143 179 143c130 0 219 -60 219 -183
c0 -0.926473 -0.00809696 -1.85099 -0.00809696 -2.77356z" />
    <glyph glyph-name="notequal" unicode="&#x2260;" horiz-adv-x="898" 
d="M320.429 184l-121.429 -190h80l121.429 190h419.571v67h-376.752l99.0602 155h277.692v67h-234.872l118.872 186h-80l-118.872 -186h-425.128v-67h382.308l-99.0602 -155h-283.248v-67h240.429z" />
    <glyph glyph-name="ntilde" unicode="&#xf1;" horiz-adv-x="847" 
d="M645 792c-15 -47 -34 -86 -75 -86c-38 0 -63 14 -92 40c-38 33 -69 51 -119 51c-80 0 -123 -49 -144 -127c60 -27 1 -1 61 -27c16 51 39 88 85 88c35 0 54 -18 80 -40c40 -35 75 -53 128 -53c78 0 114 54 139 128zM177 468v-403h-139v-65h139h42h43h122v65h-122v297.448
c43.7777 66.441 117.064 108.552 197 108.552c98 0 155 -50 155 -146v-260h-123v-65h123h42h43h138v65h-138v267c0 136 -79 204 -220 204c-84.877 0 -160.749 -29.5168 -217 -87.8428v84.8428h-43h-42h-139v-65h139z" />
    <glyph glyph-name="nullsuperior" horiz-adv-x="601" 
d="M80 501c0 -135 83 -217 219 -217c138 0 223 82 223 220c0 133 -85 212 -220 212c-137 0 -222 -80 -222 -215zM159 501c0 92 50 152 139 152c0.735357 0.00808084 1.46804 0.0121131 2.19803 0.0121131c89.6068 0 138.802 -60.7556 138.802 -152.012
c0 -92 -47 -154 -136 -154c-93 0 -144 60 -144 154z" />
    <glyph glyph-name="numbersign" unicode="#" horiz-adv-x="796" 
d="M662.823 526l73.1772 196h-85l-73.1772 -196h-240.598l72.7751 196h-85l-71.9053 -196h-92.0947l-23 -64h91.6154l-60.5325 -165h-92.0828l-24 -65h92.2367l-68.2367 -186h82l69.0621 186h239.995l-72.0571 -193h85l72.0571 193h76.9429l24 65h-76.675l61.6032 165
h75.0717l23 64h-74.1772zM553.928 462l-61.6032 -165h-240.128l61.2648 165h240.467z" />
    <glyph glyph-name="o" unicode="o" horiz-adv-x="725" 
d="M67 268c0 -176 114 -273 294 -273c182 0 298 94 298 271c0 173 -115 272 -298 272c-181 0 -294 -99 -294 -270zM151 268c0 127 76 205 206 205c136 0 217 -78 217 -207c0 -131 -79 -206 -209 -206c-136 1 -214 77 -214 208z" />
    <glyph glyph-name="oacute" unicode="&#xf3;" horiz-adv-x="725" 
d="M331 639c59 49 134 117 194 166h-109c-60 -49 -134 -117 -194 -166h109zM67 268c0 -176 114 -273 294 -273c182 0 298 94 298 271c0 173 -115 272 -298 272c-181 0 -294 -99 -294 -270zM151 268c0 127 76 205 206 205c136 0 217 -78 217 -207c0 -131 -79 -206 -209 -206
c-136 1 -214 77 -214 208z" />
    <glyph glyph-name="ocircumflex" unicode="&#xf4;" horiz-adv-x="725" 
d="M616 643c-60 49 -134 117 -194 166h-14h-95h-14c-60 -49 -134 -117 -194 -166h109c44.9042 36.6718 97.65 83.9856 146.5 126.012c48.85 -42.0268 101.596 -89.3406 146.5 -126.012h109zM67 268c0 -176 114 -273 294 -273c182 0 298 94 298 271c0 173 -115 272 -298 272
c-181 0 -294 -99 -294 -270zM151 268c0 127 76 205 206 205c136 0 217 -78 217 -207c0 -131 -79 -206 -209 -206c-136 1 -214 77 -214 208z" />
    <glyph glyph-name="odieresis" unicode="&#xf6;" horiz-adv-x="725" 
d="M401 669h104c0 29 -23 44 -53 44c-31 0 -51 -16 -51 -44zM401 669h104c0 -30 -22 -43 -54 -43c-30 0 -50 15 -50 43zM218 669h104c0 29 -23 44 -53 44c-31 0 -51 -16 -51 -44zM218 669h104c0 -30 -23 -43 -54 -43c-30 0 -50 15 -50 43zM67 268c0 -176 114 -273 294 -273
c182 0 298 94 298 271c0 173 -115 272 -298 272c-181 0 -294 -99 -294 -270zM151 268c0 127 76 205 206 205c136 0 217 -78 217 -207c0 -131 -79 -206 -209 -206c-136 1 -214 77 -214 208z" />
    <glyph glyph-name="oe" unicode="&#x153;" horiz-adv-x="1178" 
d="M1028.91 311h-366.406c10.4439 103.533 74.9828 161 184.496 161c110.641 0 179.1 -52.728 181.91 -161zM662.251 250h447.749v48c0 159 -98 240 -258 240c-111.815 0 -194.892 -36.7673 -239.341 -109.478c-49.8285 70.9631 -137.516 109.478 -251.659 109.478
c-181 0 -294 -99 -294 -270c0 -176 114 -273 294 -273c118.668 0 209.278 39.9628 257.969 116.839c49.5551 -77.6318 139.886 -116.839 260.031 -116.839c89 0 146 23 214 75l-49 51c-54 -41 -98 -60 -165 -60c-128.872 0 -206.169 66.1878 -216.749 189zM151 268
c0 127 76 205 206 205c136 0 217 -78 217 -207c0 -131 -79 -206 -209 -206c-136 1 -214 76 -214 208z" />
    <glyph glyph-name="ogonek" unicode="&#x2db;" horiz-adv-x="362" 
d="M172 52c-75 -27 -144 -46 -144 -122c0 -72 53 -111 129 -111c42 0 70 12 107 30c-38 50 -1 1 -39 51c-21 -11 -37 -19 -61 -19c-34 0 -58 18 -58 50c0 47 49 56 97 77c-30 43 -1 1 -31 44z" />
    <glyph glyph-name="ograve" unicode="&#xf2;" horiz-adv-x="725" 
d="M493 638c-59 49 -134 118 -194 166h-108c60 -49 134 -117 194 -166h108zM67 268c0 -176 114 -273 294 -273c182 0 298 94 298 271c0 173 -115 272 -298 272c-181 0 -294 -99 -294 -270zM151 268c0 127 76 205 206 205c136 0 217 -78 217 -207c0 -131 -79 -206 -209 -206
c-136 1 -214 77 -214 208z" />
    <glyph glyph-name="ohungarumlaut" unicode="&#x151;" horiz-adv-x="728" 
d="M468 594l138 200h-108l-114 -200h84zM280 594l138 200h-108l-115 -200h85zM67 268c0 -176 114 -273 294 -273c182 0 298 94 298 271c0 173 -115 272 -298 272c-181 0 -294 -99 -294 -270zM151 268c0 127 76 205 206 205c136 0 217 -78 217 -207
c0 -131 -79 -206 -209 -206c-136 1 -214 77 -214 208z" />
    <glyph glyph-name="omacron" unicode="&#x14d;" horiz-adv-x="725" 
d="M489 703h-265v-64h265v64zM67 268c0 -176 114 -273 294 -273c182 0 298 94 298 271c0 173 -115 272 -298 272c-181 0 -294 -99 -294 -270zM151 268c0 127 76 205 206 205c136 0 217 -78 217 -207c0 -131 -79 -206 -209 -206c-136 1 -214 77 -214 208z" />
    <glyph glyph-name="omegamath" horiz-adv-x="926" 
d="M741.38 65c76.269 72.9705 114.62 164.461 114.62 284c0 233 -154 378 -391 378c-240 0 -397 -145 -397 -381c0 -118.097 40.5772 -206.201 116.771 -281h-156.771v-65h236l46 65c-102 72 -157 156 -157 281c0 190 117 316 304 316c191 0 314 -121 314 -313
c0 -129 -58 -215 -165 -284l50 -65h239v65h-153.62z" />
    <glyph glyph-name="one" unicode="1" horiz-adv-x="536" 
d="M279 722l-230 -162l40 -58l190 131.654v-568.654h-136v-65h136h45h40h141v65h-141v657h-85z" />
    <glyph glyph-name="onehalf" unicode="&#xbd;" horiz-adv-x="1200" 
d="M825 236c30 43 68 64 121 64c58 0 101 -22 101 -71c0 -48 -37 -68 -76 -96c-75 -47 -150 -93 -225 -140v-62h408v133h-61v-71h-230.796c53.961 30.7094 103.482 60.6707 150.796 91c61 44 115 75 115 147c0 91 -76 131 -174 131c-83 0 -143 -22 -186 -90zM381 -65
l501 798h-80l-501 -798h80zM1123.84 -36.466c0 2.03071 -4.63841 7.56693 -30.8391 29.466c26.2007 -21.8991 30.8391 -27.4353 30.8391 -29.466zM189 735l-143 -107l38 -47l105 84.1129v-293.113h-99v-59h99c34.2754 26.2355 39.5433 29.7305 40.353 29.7305
c0 0 -0.100945 -0.122178 -0.100945 -0.197981c0 -0.0340901 0.020416 -0.0588007 0.0796112 -0.0588007c0.652384 0 6.01489 3.00135 40.6684 29.5262c-34.2754 -26.2355 -39.5433 -29.7305 -40.353 -29.7305c0 0 4.14253 5.01391 -40.647 -29.2695h175v59h-94v358v5h-81z
" />
    <glyph glyph-name="onequarter" unicode="&#xbc;" horiz-adv-x="1162" 
d="M377 -65l502 798h-80l-501 -798h79zM957 -72h175v58h-134v68h100v59h-100v260h-81l-244 -260l31 -59h213v-68h-135v-58h175zM917 280.86v-167.86h-157.605zM192 735l-143 -107l38 -47l105 84.1129v-293.113h-99v-59h99c34.2754 26.2355 39.5433 29.7305 40.353 29.7305
c0 0 -0.100945 -0.122178 -0.100945 -0.197981c0 -0.0340901 0.020416 -0.0588007 0.0796112 -0.0588007c0.652384 0 6.01489 3.00135 40.6684 29.5262c-34.2754 -26.2355 -39.5433 -29.7305 -40.353 -29.7305c0 0 4.14253 5.01391 -40.647 -29.2695h175v59h-94v358v5h-81z
" />
    <glyph glyph-name="onesuperior" unicode="&#xb9;" horiz-adv-x="471" 
d="M225 712l-143 -108l38 -46l105 84.1129v-294.113h-99v-58h99h175v58h-94v359v5h-81z" />
    <glyph glyph-name="ordfeminine" unicode="&#xaa;" horiz-adv-x="560" 
d="M345 639.855c-41.7713 -3.51379 -76.0545 -5.28489 -123 -10.8547c-80 -9 -141 -32 -141 -105c0 -72 59 -103 141 -103c51.5614 0 89.5765 18.7901 123 47.4156v-42.4156h41h30h64v48h-64v200c0 79 -72 99 -160 99c-65 0 -119 -21 -158 -51v-75h49v42.1153
c27.044 16.8779 61.32 30.8847 104 30.8847c51 0 94 -11 94 -65v-15.1453zM345 528.002c-31.4809 -32.3278 -66.4765 -56.0016 -115 -56.0016c-47 0 -83 15 -83 54c0 36 33 50 74 55c47.9676 5.50448 82.3314 8.53555 124 12.9832v-65.9815z" />
    <glyph glyph-name="ordmasculine" unicode="&#xba;" horiz-adv-x="554" 
d="M80 602c0 -117 78 -183 198 -183c119 0 196 65 196 182c0 111 -76 175 -196 175s-198 -63 -198 -174zM151 602c0 73 47 117 124 117c78 0 127 -44 127 -118c0 -77 -46 -124 -121 -124c-81 0 -130 46 -130 125z" />
    <glyph glyph-name="oslash" unicode="&#xf8;" horiz-adv-x="725" 
d="M67 268c0 -109.737 44.3185 -188.762 121.321 -232.712l-50.3206 -80.2882l52 -35l56.9784 90.4375c34.0554 -10.2167 72.2624 -15.4375 114.022 -15.4375c182 0 298 94 298 271c0 101.922 -39.9152 178.159 -110.135 223.599l48.1349 76.4009l-56 32l-50.2643 -80.1984
c-37.9409 13.3128 -81.4735 20.1984 -129.736 20.1984c-181 0 -294 -99 -294 -270zM151 268c0 127 76 205 206 205c35.9083 0 67.9824 -5.43759 95.7438 -15.8158l-225.041 -359.06c-49.7838 34.9403 -76.7031 92.9172 -76.7031 169.876zM508.305 425.222
c42.4654 -35.6838 65.6946 -90.1399 65.6946 -159.222c0 -131 -79 -206 -209 -206c-29.4081 0.216236 -56.1042 3.93931 -79.8861 10.967z" />
    <glyph glyph-name="otilde" unicode="&#xf5;" horiz-adv-x="725" 
d="M544 793c-16 -48 -35 -87 -75 -87c-39 0 -63 14 -92 40c-39 33 -69 51 -120 51c-79 0 -123 -49 -144 -127c61 -27 1 -1 61 -27c17 52 40 88 86 88c34 0 54 -17 80 -40c40 -35 74 -53 128 -53c78 0 114 55 139 128c-63 26 -1 0 -63 27zM67 268c0 -176 114 -273 294 -273
c182 0 298 94 298 271c0 173 -115 272 -298 272c-181 0 -294 -99 -294 -270zM151 268c0 127 76 205 206 205c136 0 217 -78 217 -207c0 -131 -79 -206 -209 -206c-136 1 -214 77 -214 208z" />
    <glyph glyph-name="p" unicode="p" horiz-adv-x="796" 
d="M236 477.596l2.84217e-14 55.404h-41h-44h-137l-1 -65l138 0.758242v-703.758h-139v-65h139h42h43h127v65h-127v291.251c63.5306 -42.2286 126.975 -61.2505 210 -61.2505c171 0 284 106 283 278c0 160 -110 266 -280 266c-82.0406 0 -156.578 -26.0103 -213 -61.404z
M236 130.788v273.867c48.5068 36.7422 122.844 68.3442 206 68.3442c128 0 203 -83 203 -203c1.98779 -129.206 -76.0384 -210.009 -199.716 -210.009c-0.759696 0 -1.52111 0.00304878 -2.28425 0.00915384c-82.7277 0 -137.807 23.3284 -207 70.7884z" />
    <glyph glyph-name="paragraph" unicode="&#xb6;" horiz-adv-x="858" 
d="M773 0v722h-74h-11h-127h-43h-4h-38h-116c-175 0 -311 -75 -311 -235c0 -152 125 -221 289 -223c50.0652 0 93.992 9.71919 138 24.7672v-223.767h-140v-65h140h42h43h127h11h74zM476 657v-300.432c-48.152 -18.4287 -89.834 -28.5676 -146 -28.5676
c-111 0 -196 51 -196 156c0 122 104 173 237 173h105zM561 65v592h127v-592h-127z" />
    <glyph glyph-name="parenleft" unicode="(" horiz-adv-x="433" 
d="M413 -220c-179 153 -268 309 -268 546s89 392 266 548l-50 43c-196 -167 -300 -332 -300 -591s105 -424 301 -592z" />
    <glyph glyph-name="parenright" unicode=")" horiz-adv-x="446" 
d="M69 -281c200 177 317 341 317 609c0 262 -110 425 -312 590l-51 -46c183 -154 279 -307 279 -547c0 -245 -105 -398 -284 -563z" />
    <glyph glyph-name="partialdiff" unicode="&#x2202;" horiz-adv-x="666" 
d="M514.496 360.34c1.02252 18.2253 1.50407 36.8249 1.50407 55.6603c0 138 -56 247 -182 247c-50 0 -86 -17 -129 -39l-40 49c59 34 106 55 173 55c170 0 257 -133 257 -312c0 -232 -79 -421 -289 -421c-144 0 -245 79 -245 218c0 145 105 228 256 228
c84.4615 0 153.34 -27.7459 197.496 -80.6603zM502.06 259.781c-26.2824 76.7658 -91.2279 119.219 -181.06 119.219c-101 0 -177 -56 -177 -156c0 -99 67 -163 164 -163c112.749 0 170.185 83.4712 194.06 199.781z" />
    <glyph glyph-name="percent" unicode="%" horiz-adv-x="1251" 
d="M428 -65l502 798h-80l-501 -798h79zM764 146c0 -135 84 -217 220 -217c138 0 222 83 222 220c0 133 -84 212 -219 212c-137 0 -223 -80 -223 -215zM843 146c0 92 50 152 140 152c0.74731 0.0082122 1.49186 0.0123105 2.23363 0.0123105
c89.5842 0 138.766 -59.776 138.766 -152.012c0 -92 -47 -154 -136 -154c-93 0 -145 60 -145 154zM45 521c0 -135 83 -217 219 -217c138 0 223 82 223 220c0 133 -85 212 -220 212c-137 0 -222 -80 -222 -215zM124 521c0 92 50 152 139 152
c0.735357 0.00808084 1.46804 0.0121131 2.19803 0.0121131c89.6068 0 138.802 -60.7556 138.802 -152.012c0 -92 -46 -154 -136 -154c-93 0 -144 60 -144 154z" />
    <glyph glyph-name="period" unicode="." horiz-adv-x="276" 
d="M86 36h104c0 29 -22 44 -53 44c-30 0 -51 -16 -51 -44zM86 36h104c0 -30 -22 -43 -53 -43s-51 15 -51 43z" />
    <glyph glyph-name="periodcentered" unicode="&#xb7;" horiz-adv-x="279" 
d="M88 440h103c0 29 -22 44 -53 44c-30 0 -50 -16 -50 -44zM88 440h103c0 -30 -22 -43 -53 -43c-30 0 -50 15 -50 43z" />
    <glyph glyph-name="perthousand" unicode="&#x2030;" horiz-adv-x="1752" 
d="M430 -65l501 798h-80l-501 -798h80zM1267 146c0 -135 83 -217 220 -217s222 83 222 220c0 133 -85 212 -220 212c-137 0 -222 -80 -222 -215zM1346 146c0 92 50 152 140 152c0.739098 0.0082122 1.4755 0.0123105 2.2092 0.0123105
c88.6087 0 137.791 -59.776 137.791 -152.012c0 -92 -46 -154 -135 -154c-93 0 -145 60 -145 154zM766 146c0 -135 83 -217 219 -217c138 0 222 83 222 220c0 133 -84 212 -219 212c-137 0 -222 -80 -222 -215zM844 146c0 92 50 152 140 152
c0.74731 0.0082122 1.49186 0.0123105 2.23363 0.0123105c89.5842 0 138.766 -59.776 138.766 -152.012c0 -92 -47 -154 -136 -154c-93 0 -145 60 -145 154zM45 521c0 -135 83 -217 219 -217c138 0 223 82 223 220c0 133 -85 212 -220 212c-137 0 -222 -80 -222 -215z
M124 521c0 92 50 152 139 152c0.735357 0.00808084 1.46804 0.0121131 2.19803 0.0121131c89.6068 0 138.802 -60.7556 138.802 -152.012c0 -92 -46 -154 -136 -154c-93 0 -144 60 -144 154z" />
    <glyph glyph-name="pi" unicode="&#x3c0;" horiz-adv-x="657" 
d="M215 519h226v-496h80v496h110v71h-608v-71h112v-496h80v496z" />
    <glyph glyph-name="plus" unicode="+" horiz-adv-x="720" 
d="M399 347v240h-80v-240h-260v-71h260v-253h80v253h261v71h-261z" />
    <glyph glyph-name="plusminus" unicode="&#xb1;" horiz-adv-x="752" 
d="M75 22h601v71h-261v183h261v71h-261v240h-80v-240h-260v-71h260v-183h-260v-71z" />
    <glyph glyph-name="product" unicode="&#x220f;" horiz-adv-x="1022" 
d="M256 800h-24h-46h-135v-64h135v-671h-137v-65h137h44h41h140v65h-140v671h478v-671h-139v-65h139h43h41h140v65h-140v671h139v64h-139h-19h-26h-39h-478h-15z" />
    <glyph glyph-name="q" unicode="q" horiz-adv-x="790" 
d="M562 415.337v-280.746c-55.6902 -49.4839 -126.606 -74.5903 -204 -74.5903c-127 0 -208 81 -208 207c0 125 78 206 207 206c71.7831 0 142.8 -21.4573 205 -57.6633zM562 57.7824v-292.782h-135v-65h135h46h43h126v65h-126v703h126v65h-126h-43h-46v-54.0575
c-64.3222 35.8147 -135.46 59.0575 -210 59.0575c-176 0 -287 -106 -287 -275c0 -168 116 -268 292 -268c76.3838 0 145.359 21.6974 205 62.7824z" />
    <glyph glyph-name="question" unicode="?" horiz-adv-x="502" 
d="M94 651c28 9 49 13 79 13c103 0 180 -48 180 -145c0 -107 -85 -162 -199 -162h-30v-136h85v70.4198c131.08 16.8318 225 95.4273 225 227.58c0 137 -110 212 -254 212c-41 0 -73 -4 -113 -16zM117 19h100c0 -29 -20 -41 -50 -41c-29 0 -50 14 -50 41zM117 19h100
c0 29 -20 42 -50 42c-29 0 -50 -16 -50 -42z" />
    <glyph glyph-name="questiondown" unicode="&#xbf;" horiz-adv-x="502" 
d="M408 59c-29 -9 -50 -14 -79 -14c-104 0 -180 48 -180 145c0 107 85 163 198 163h31v135h-86c0 -19.2268 0.27003 -44.9344 0.529451 -70.3873c-130.712 -16.763 -225.529 -95.3746 -225.529 -227.613c0 -136 111 -212 254 -212c42 0 74 4 114 16zM384 690h-99
c0 -28 20 -42 50 -42c28 0 49 16 49 42zM384 690h-99c0 29 19 41 50 41c29 0 49 -14 49 -41z" />
    <glyph glyph-name="quotedbl" unicode="&#x22;" horiz-adv-x="495" 
d="M402 641v188h-81v-188h81zM179 641v188h-85v-188h85z" />
    <glyph glyph-name="quotedblbase" unicode="&#x201e;" horiz-adv-x="535" 
d="M307 -124l138 200h-108l-114 -200h84zM121 -124l137 200h-108l-114 -200h85z" />
    <glyph glyph-name="quotedblleft" unicode="&#x201c;" horiz-adv-x="484" 
d="M192 884l-138 -200h108l114 200h-84zM380 884l-138 -200h108l115 200h-85z" />
    <glyph glyph-name="quotedblright" unicode="&#x201d;" horiz-adv-x="451" 
d="M283 643l138 200h-108l-114 -200h84zM95 643l137 200h-108l-114 -200h85z" />
    <glyph glyph-name="quoteleft" unicode="&#x2018;" horiz-adv-x="369" 
d="M223 795l-137 -200h108l114 200h-85z" />
    <glyph glyph-name="quoteright" unicode="&#x2019;" horiz-adv-x="367" 
d="M170 522l138 200h-108l-114 -200h84z" />
    <glyph glyph-name="quotesinglbase" unicode="&#x201a;" horiz-adv-x="348" 
d="M121 -124l137 200h-108l-114 -200h85z" />
    <glyph glyph-name="quotesingle" unicode="'" horiz-adv-x="272" 
d="M178 641v188h-84v-188h84z" />
    <glyph glyph-name="r" unicode="r" horiz-adv-x="548" 
d="M263 387.945c64.9394 74.2448 150.662 83.0548 250 83.0548v67c-99.2248 0 -184.186 -18.6046 -250 -76.8137v71.8137h-43h-42h-139l-1 -65h140v-403h-138v-65h138h43h42h127v65h-127v322.945z" />
    <glyph glyph-name="racute" unicode="&#x155;" horiz-adv-x="556" 
d="M229 636c60 49 134 117 194 166h-108c-60 -49 -135 -118 -194 -166h108zM271 387.945c64.9394 74.2448 150.662 83.0548 250 83.0548v67c-99.2248 0 -184.186 -18.6046 -250 -76.8137v71.8137h-44h-41h-139l-1 -65h140v-403h-138l-1 -65h139h43h42h127v65h-127v322.945z
" />
    <glyph glyph-name="radical" unicode="&#x221a;" horiz-adv-x="798" 
d="M439 0c108 241 216 481 324 722h-81c-97.5398 -213.701 -193.507 -426.615 -289.993 -640.138c-57.3486 127.036 -23.7842 53.3933 -119.007 260.138h-41h-41h-141v-65h170.665c68.6687 -150.484 28.0597 -61.6876 126.335 -277h8h74h10z" />
    <glyph glyph-name="rcaron" unicode="&#x159;" horiz-adv-x="605" 
d="M41 797c60 -49 134 -118 194 -166h14h95h13c60 48 134 117 194 166h-108c-44.8637 -36.6387 -98.114 -83.9003 -146.791 -125.899c-49.0951 41.9984 -102.345 89.26 -147.209 125.899h-108zM296 387.91c65.1112 74.2771 151.646 83.0899 251 83.0899v67
c-100.017 0 -185.149 -18.6064 -251 -76.8222v71.8222h-43h-42h-139v-65h139v-403h-138v-65h138h43h42h127v65h-127v322.91z" />
    <glyph glyph-name="rcommaaccent" unicode="&#x157;" horiz-adv-x="548" 
d="M212 -303l138 200h-108l-114 -200h84zM263 387.945c64.9394 74.2448 150.662 83.0548 250 83.0548v67c-99.2248 0 -184.186 -18.6046 -250 -76.8137v71.8137h-43h-42h-139l-1 -65h140v-403h-138v-65h138h43h42h127v65h-127v322.945z" />
    <glyph glyph-name="registered" unicode="&#xae;" horiz-adv-x="918" 
d="M409 282h38c7.25285 0 14.3565 0.14916 21.2895 0.466099c31.2368 -45.6923 62.4737 -92.2549 93.7105 -137.466h111v54h-60c-22.4236 32.7729 -45.591 64.802 -68.8607 97.3703c38.825 15.2854 62.8607 44.5 62.8607 95.6297c0 75 -62 107 -143 107h-55h-140v-53h70
v-247h-70v-54h70h128v54h-58v83zM409 446h42c49 0 87 -13 87 -57s-35 -53 -81 -53h-48v110zM339 446h70v53zM409 199h-70zM67 321c0 -213 172 -321 402 -321c221 0 382 113 382 322c0 212 -164 323 -388 323c-227 0 -396 -110 -396 -324zM133 321c0 181 140 275 330 275
c187 0 323 -98 323 -276c0 -175 -132 -271 -315 -271c-192 0 -338 91 -338 272z" />
    <glyph glyph-name="ring" unicode="&#x2da;" horiz-adv-x="423" 
d="M92 682c0 47 33 72 83 72c53 0 90 -21 90 -72c0 -48 -36 -71 -88 -71c-50 0 -85 23 -85 71zM17 682c0 -87 67 -131 160 -131c95 0 164 43 164 131c0 90 -70 132 -166 132c-93 0 -158 -44 -158 -132z" />
    <glyph glyph-name="ruble" horiz-adv-x="760" 
d="M400 314c183 3 310 36 310 204c0 164 -127 204 -310 204h-117h-37h-4h-44h-137v-65h137v-275h-100v-68h100v-79h-100v-68h100v-102h-137v-65h137h44h41h140v65h-140v102h289v68h-289v79h117zM283 657h106c139 0 236 -16 236 -140c0 -122 -97 -135 -234 -135h-108v275z
" />
    <glyph glyph-name="rupee" horiz-adv-x="884" 
d="M0 0h884v20h-884v-20z" />
    <glyph glyph-name="s" unicode="s" horiz-adv-x="582" 
d="M132 98.8274v82.1726h-67v-132h2c78 -32 145 -54 226 -54c128 0 223 39 223 155c-1 113 -101 127 -218 156c-72 19 -137 37 -137 97c0 50 50 70 114 70c44.9555 0 95.5093 -11.8187 134 -26.6253v-82.3747h67v128c-48 24 -129 46 -197 46c-112 0 -195 -35 -195 -136
c0 -102 81 -132 187 -158c82 -22 164 -30 163 -96c0 -62 -57 -87 -130 -87c-62.9405 0 -113.307 14.9313 -172 37.8274z" />
    <glyph glyph-name="sacute" unicode="&#x15b;" horiz-adv-x="582" 
d="M249 639c60 49 134 117 194 166h-109c-60 -49 -134 -118 -194 -166h109zM132 98.8274v82.1726h-67v-132h2c78 -32 145 -54 226 -54c128 0 223 39 223 155c-1 113 -101 127 -218 156c-72 19 -137 37 -137 97c0 50 50 70 114 70c44.9555 0 95.5093 -11.8187 134 -26.6253
v-82.3747h67v128c-48 24 -129 46 -197 46c-112 0 -195 -35 -195 -136c0 -102 81 -132 187 -158c82 -22 164 -30 163 -96c0 -62 -57 -87 -130 -87c-62.9405 0 -113.307 14.9313 -172 37.8274z" />
    <glyph glyph-name="scaron" unicode="&#x161;" horiz-adv-x="629" 
d="M53 803c60 -48 134 -117 194 -166h14h95h14c60 49 134 118 194 166h-109c-44.9042 -35.9234 -97.65 -83.609 -146.5 -125.87c-48.85 42.2613 -101.596 89.9469 -146.5 125.87h-109zM162 98.8274v82.1726h-67v-132h2c79 -32 145 -54 226 -54c128 0 223 39 223 155
c-1 113 -101 127 -218 156c-72 19 -137 37 -137 97c0 50 50 70 115 70c44.1632 0 94.5457 -11.8168 133 -26.6217v-82.3783h67v128c-48 24 -129 46 -197 46c-112 0 -195 -35 -195 -136c0 -102 81 -132 187 -158c82 -22 164 -30 164 -96c0 -62 -57 -87 -131 -87
c-62.9405 0 -113.307 14.9313 -172 37.8274z" />
    <glyph glyph-name="scedilla" unicode="&#x15f;" horiz-adv-x="582" 
d="M293.533 -40.3474c9.41158 13.1946 18.3558 25.7929 25.3567 35.9118c114.713 5.15685 197.11 46.4038 197.11 154.436c-1 113 -101 127 -218 156c-72 19 -137 37 -137 97c0 50 50 70 114 70c44.9555 0 95.5093 -11.8187 134 -26.6253v-82.3747h67v128
c-48 24 -129 46 -197 46c-112 0 -195 -35 -195 -136c0 -102 81 -132 187 -158c82 -22 164 -30 163 -96c0 -62 -57 -87 -130 -87c-62.9405 0 -113.307 14.9313 -172 37.8274v82.1726h-67v-132h2c55.748 -22.871 105.877 -40.6337 159.514 -48.9072
c-15.8688 -23.2303 -32.4155 -47.2476 -41.5142 -60.0928l58 -52c12 7 22 10 36 10c25 0 42 -12 42 -35c0 -28 -26 -37 -57 -37c-28 0 -50 6 -80 19l-27 -50c35 -16 63 -24 102 -24c77 0 136 24 136 93c0 59.2647 -41.5919 91.9813 -101.467 95.6526z" />
    <glyph glyph-name="scommaaccent" unicode="&#x219;" horiz-adv-x="582" 
d="M210 -309l138 200h-108l-114 -200h84zM132 98.828v82.172h-67v-132h2c79 -32 145 -54 226 -54c128 0 223 39 223 155c0 113 -101 127 -217 156c-73 19 -138 37 -138 97c0 50 50 70 115 70c44.1632 0 94.5457 -11.8168 133 -26.6217v-82.3783h67v128
c-48 24 -129 46 -197 46c-112 0 -195 -35 -195 -136c0 -102 81 -132 188 -158c82 -22 163 -30 163 -96c0 -62 -57 -87 -130 -87c-63.8276 0 -114.295 14.9316 -173 37.828z" />
    <glyph glyph-name="section" unicode="&#xa7;" horiz-adv-x="605" 
d="M94 31c70 -42 128 -59 209 -59c114 0 202 40 202 144c-0.547421 50.9102 -23.8698 84.4395 -60.7805 108.298c58.1608 25.7481 94.7805 68.2223 94.7805 136.702c-1 113 -110 127 -227 156c-62 18 -119 36 -119 94c0 53 45 75 107 75
c46.5266 0 80.8268 -7.07847 122 -22.2678v-80.7322h67v123c-65 29 -113 44 -183 44c-113 0 -196 -42 -196 -139c0 -51.6614 22.7351 -86.1891 59.3159 -111.338c-59.2934 -25.1444 -99.3159 -64.6097 -99.3159 -132.662c0 -107 96 -131 206 -160c72 -20 146 -33 146 -93
c0 -54 -51 -77 -116 -77c-55.6763 0 -95.2113 10.2717 -145 32.7004v84.2996h-67v-123zM356.309 261.035c-8.56986 2.4401 -17.3542 4.74948 -26.3091 6.9651c-85 24 -175 30 -175 103c0 52.7185 37.5964 76.5167 90.0425 92.9116
c8.10031 -2.75622 16.4323 -5.38219 24.9575 -7.91162c87 -25 185 -25 185 -98c0 -55.3206 -40.7488 -82.5387 -98.6909 -96.9651z" />
    <glyph glyph-name="semicolon" unicode=";" horiz-adv-x="410" 
d="M165 -99c90 116 47 65 138 181h-109c-69 -115 -44 -65 -114 -181h85zM193 403h100c0 -29 -21 -41 -51 -41s-49 14 -49 41zM193 403h100c0 29 -21 43 -51 43c-29 0 -49 -16 -49 -43z" />
    <glyph glyph-name="seven" unicode="7" horiz-adv-x="663" 
d="M594 722h-528v-62v-3v-115h68v115h413.723c-435.928 -612.25 28.8213 41.8848 -468.723 -657h96l464 657v65h-45z" />
    <glyph glyph-name="six" unicode="6" horiz-adv-x="698" 
d="M161.257 356.031c53.385 170.709 240.434 253.338 458.743 308.969c-8.9944 29.6815 -9.89888 32.6663 -9.89888 32.9664c0 0.367267 0 1.41913 -9.10112 33.0336c-306 -70 -537 -186 -537 -484c0 -168 121 -255 297 -255c159 0 268 74 268 222c0 147 -110 215 -266 215
c-86.6148 0 -149.299 -25.9589 -201.743 -72.9685zM146.003 249.826c47.3446 75.3819 117.85 111.174 209.997 111.174c111 0 187 -46 187 -150c0 -97 -74 -143 -178 -143c-130.579 0 -218.434 60.6086 -218.997 181.826z" />
    <glyph glyph-name="slash" unicode="/" horiz-adv-x="670" 
d="M127 -41c167 285 334 570 501 854h-85c-167 -284 -334 -569 -501 -854h85z" />
    <glyph glyph-name="softhyphen" horiz-adv-x="541" 
d="M89 260h363v71h-363v-71z" />
    <glyph glyph-name="space" unicode=" " horiz-adv-x="240" 
 />
    <glyph glyph-name="sterling" unicode="&#xa3;" horiz-adv-x="608" 
d="M548 668c-56 39 -102 53 -169 53c-139.83 0 -218.309 -102.038 -218.309 -242.797c0 -22.4979 2.00484 -45.985 6.08446 -70.2028h-77.7757v-64h91.7345c6.64712 -32.3614 10.0207 -63.6406 10.0207 -92.8207c0 -107.275 -45.5949 -186.179 -141.755 -186.179v-65h475v65
h-313.146c41.8109 45.7747 62.788 112.588 62.788 190.191c0 28.3313 -2.79594 58.1007 -8.39481 88.8094h202.752v64h-216.533c-4.69998 25.5825 -7.02857 50.3576 -7.02857 73.7423c0 102.481 44.7211 178.258 130.562 178.258c52 0 88 -13 132 -40z" />
    <glyph glyph-name="summation" unicode="&#x2211;" horiz-adv-x="628" 
d="M505 378l-342.5 280h317.5v-82h77v146c-15 -13 -62 -52 -77 -64c74 61 3 2 77 64h-500v-64l342 -282l-349 -312v-64h507v147h-77v-83h-326.984z" />
    <glyph glyph-name="t" unicode="t" horiz-adv-x="506" 
d="M445 85c-35 -15 -62 -23 -100 -23c-64 0 -96 31 -96 98v308h218v65h-218v122l-85 -42v-80h-139v-65h139v-312c0 -109 64 -161 173 -161c54 0 91 14 133 32c-25 58 0 1 -25 58z" />
    <glyph glyph-name="tcaron" unicode="&#x165;" horiz-adv-x="500" 
d="M278 -200l137 201l-20.3193 -4.44089e-16c26.502 5.75311 50.0023 15.1499 75.3193 26c-25 58 0 1 -25 58c-35 -15 -62 -23 -100 -23c-64 0 -96 31 -96 98v308h218v65h-218v122l-85 -42v-80h-139v-65h139v-312c0 -97.6928 51.4105 -149.598 140.552 -159.316
l-111.552 -196.684h85z" />
    <glyph glyph-name="tcedilla" horiz-adv-x="505" 
d="M275 -115c12 7 22 9 36 9c24 0 41 -11 41 -34c0 -28 -25 -37 -56 -37c-28 0 -50 5 -80 19l-27 -50c35 -16 63 -25 102 -25c77 0 136 25 136 94c0 59.2859 -41.6217 92.0048 -101.531 95.6565c10.3839 14.4828 20.1621 28.2469 27.4164 38.8021
c46.0026 2.5496 79.5598 15.4464 117.115 31.5414c-25 58 0 1 -25 58c-36 -15 -62 -23 -100 -23c-64 0 -97 31 -97 98v308h219v65h-219v122l-84 -42v-80h-139v-65h139v-312c0 -81.6793 35.9378 -131.352 99.3977 -151.121
c-17.2929 -25.4765 -36.2763 -53.5903 -46.3977 -67.8794c0.259551 -0.232701 0.51678 -0.46332 0.771706 -0.691874c-0.256752 -0.102329 -0.513985 -0.205038 -0.771706 -0.308126c26.8394 -23.6002 28.839 -25.1443 28.988 -25.1443l0.00370529 -9.43328e-06
c0.561056 -0.631933 4.21475 -4.14929 28.0083 -25.8557c0.127742 0.181528 0.25675 0.364729 0.387006 0.54958c0.20287 -0.181883 0.407197 -0.365073 0.612994 -0.54958z" />
    <glyph glyph-name="tcommaaccent" unicode="&#x163;" horiz-adv-x="506" 
d="M268 -313l138 200h-108l-115 -200h85zM445 85c-35 -15 -62 -23 -100 -23c-64 0 -96 31 -96 98v289h218v65h-218v141l-85 -42v-99h-139v-65h139v-293c0 -109 64 -161 173 -161c54 0 91 14 133 32c-25 58 0 1 -25 58z" />
    <glyph glyph-name="thorn" unicode="&#xfe;" horiz-adv-x="758" 
d="M198 477.095v316.905h-41h-44h-137v-65h137v-964h-139v-65h139h42h43h127v65h-127v291.531c63.8117 -42.4251 126.791 -61.5314 210 -61.5314c171 0 284 106 283 278c0 160 -110 266 -280 266c-82.4276 0 -156.776 -26.2562 -213 -61.9054zM198 131.355v273.298
c48.5242 36.7432 122.985 68.3464 207 68.3464c127 0 202 -83 202 -203c0.054443 -2.3592 0.081551 -4.70226 0.081551 -7.02899c0 -125.101 -78.3663 -202.98 -199.797 -202.98c-0.759769 0 -1.52122 0.00304878 -2.28436 0.00915384
c-82.1231 0 -138.119 23.5141 -207 71.3551z" />
    <glyph glyph-name="three" unicode="3" horiz-adv-x="650" 
d="M123 595c35 32 98 63 166 63c101 0 174 -28 174 -121c0 -94 -91 -127 -189 -127v-54c115 0 228 -37 228 -153c0 -110 -102 -139 -209 -139c-63 0 -117 15 -184 46l-46 -52c69 -39 138 -63 226 -63c170 0 295 52 295 212c0 94.6242 -53.1403 151.233 -138.513 179.757
c60.7902 28.0247 99.5131 76.8731 99.5131 153.243c0 134 -106 187 -249 187c-94 0 -179 -39 -228 -92c55 -40 1 0 55 -40z" />
    <glyph glyph-name="threequarters" unicode="&#xbe;" horiz-adv-x="1160" 
d="M52 334c47 -23 92 -36 143 -36c5.73789 -0.144653 11.4223 -0.219557 17.0447 -0.219557c110.983 0 197.811 29.186 194.955 127.22c0 55.6153 -29.2741 83.1465 -74.3537 96.9911c34.7677 17.6055 56.3537 46.2644 56.3537 93.0089c0 89 -77 118 -176 118
c-59 0 -114 -21 -156 -57l38 -43c34 26 73 40 109 40c58 0 104 -13 104 -62c0 -58 -79 -62 -154 -65v-9v-43v-2c89 -3 172 -5 172 -68c0 -54.069 -51.2723 -68.0523 -116.014 -68.0523c-2.31219 0 -4.64156 0.0178359 -6.98639 0.0523187c-39 0 -75 8 -117 25zM382 -65
l501 798h-80l-501 -798h80zM955 -72h176v58h-135v68h100v59h-100v260h-81l-244 -260l32 -59h212v-68h-135v-58h175zM915 280.57v-167.57h-156.794z" />
    <glyph glyph-name="threesuperior" unicode="&#xb3;" horiz-adv-x="523" 
d="M86 320c47 -23 92 -37 143 -37c5.57285 -0.140492 11.0953 -0.212998 16.5594 -0.212998c111.215 0 198.3 30.0366 195.441 128.213c0 55.4517 -29.1021 82.9842 -73.9561 96.8686c34.5346 17.7541 55.9561 46.5654 55.9561 93.1314c0 89 -77 118 -176 118
c-59 0 -114 -21 -156 -58l38 -43c34 27 73 41 109 41c58 0 104 -14 104 -62c0 -59 -79 -62 -154 -66v-8v-43v-3c89 -3 172 -4 172 -67c0 -52.6617 -48.6381 -68.1816 -110.987 -68.1816c-3.95237 0 -7.95983 0.0623666 -12.0135 0.181592c-39 0 -75 7 -117 25z" />
    <glyph glyph-name="tilde" unicode="&#x2dc;" horiz-adv-x="627" 
d="M440 726c-15 -48 -34 -86 -74 -86c-39 0 -63 14 -92 40c-39 33 -70 51 -120 51c-79 0 -123 -50 -144 -128c61 -26 1 0 61 -26c16 51 39 88 86 88c34 0 54 -18 80 -41c40 -34 74 -52 128 -52c78 0 114 54 138 128c-27.6994 11.6159 -30.6486 12.653 -31.0518 12.653
c-0.499253 0 -0.805322 0 -31.9482 13.347z" />
    <glyph glyph-name="trademark" unicode="&#x2122;" horiz-adv-x="1165" 
d="M754 282h56h-56zM997 319c-19.4091 102.591 -41.3809 204.328 -60.3888 306h84.3888v53h-154c-28.6157 -99.402 -85 -298.206 -85 -298.206c-28.3356 99.402 -56.3843 198.804 -85 298.206h-150v-53h80.4604c-18.6937 -102.2 -38.8317 -203.678 -57.2802 -306h-0.180239z
M640.165 319c11.6496 69.4317 22.8777 139.074 34.319 208.61zM888.839 532.566c12.5133 -71.1824 24.9069 -142.485 37.5214 -213.566zM630 265h1zM264 625h70h110v-54h64v107h-174v1l-1.2963 -1h-253.704v-107h64v54h121zM334 678h-1.2963l-68.7037 -53v-306h-76v-54h76
h145v54h-75v306zM334 319h-70z" />
    <glyph glyph-name="turkishlira" horiz-adv-x="927" 
d="M794 353c0 -193 -115 -288 -314 -288h-196v243h298v68h-298v105h298v68h-298v108h140v65h-140h-40h-1h-44h-136v-65h136v-108h-103v-68h103v-105h-103v-68h103v-243h-136v-65h136h45h40h189c254 0 405 111 405 353h-84z" />
    <glyph glyph-name="two" unicode="2" horiz-adv-x="689" 
d="M127 537c60 78 116 121 208 121c101 0 170 -44 170 -143c0 -120 -90 -185 -188 -254c-88 -66 -175 -130 -263 -196v-65h5h555v65v118h-67v-118l-377.876 -1.42109e-14c74.9661 48.5249 137.446 97.7378 200.876 146c117 81 214 157 214 307c0 142 -98 209 -245 209
c-121 0 -208 -52 -269 -151z" />
    <glyph glyph-name="twosuperior" unicode="&#xb2;" horiz-adv-x="579" 
d="M161 594c30 44 68 64 121 64c58 0 101 -22 101 -71c0 -48 -37 -67 -76 -96c-75 -47 -150 -93 -225 -140v-61h5h403v132h-61v-71h-231.288c54.152 31.0038 103.83 61.187 151.288 91c62 44 115 75 115 147c0 91 -75 131 -174 131c-83 0 -143 -22 -186 -90z" />
    <glyph glyph-name="u" unicode="u" horiz-adv-x="805" 
d="M580 167.329c-43.5244 -58.8571 -111.446 -106.329 -185 -106.329c-101 0 -160 46 -160 142v330h-42h-42h-139v-65h139v-269c0 -140 89 -204 236 -204c74.988 0 143.227 35.6753 193 88.6153v-83.6153h42h43h127v65h-127v468h-43h-42h-139v-65h139v-300.671z" />
    <glyph glyph-name="uacute" unicode="&#xfa;" horiz-adv-x="805" 
d="M361 639c60 49 134 117 194 166h-108c-61 -49 -135 -118 -195 -166h109zM580 167.329c-43.5244 -58.8571 -111.446 -106.329 -185 -106.329c-101 0 -160 46 -160 142v330h-42h-42h-139v-65h139v-269c0 -140 89 -204 236 -204c74.988 0 143.227 35.6753 193 88.6153
v-83.6153h42h43h127v65h-127v468h-43h-42h-139v-65h139v-300.671z" />
    <glyph glyph-name="ucircumflex" unicode="&#xfb;" horiz-adv-x="805" 
d="M646 643c-60 49 -134 117 -194 166h-14h-95h-13c-60 -49 -134 -117 -194 -166h108c44.9284 36.6915 97.7067 84.0365 146.579 126.08c49.1538 -42.0437 102.493 -89.3887 147.421 -126.08h108zM580 167.329c-43.5244 -58.8571 -111.446 -106.329 -185 -106.329
c-101 0 -160 46 -160 142v330h-42h-42h-139v-65h139v-269c0 -140 89 -204 236 -204c74.988 0 143.227 35.6753 193 88.6153v-83.6153h42h43h127v65h-127v468h-43h-42h-139v-65h139v-300.671z" />
    <glyph glyph-name="udieresis" unicode="&#xfc;" horiz-adv-x="805" 
d="M431 669h104c0 29 -22 43 -53 43c-30 0 -51 -16 -51 -43zM431 669h104c0 -30 -22 -43 -53 -43s-51 14 -51 43zM248 669h104c0 29 -22 43 -53 43c-30 0 -51 -16 -51 -43zM248 669h104c0 -30 -22 -43 -53 -43s-51 14 -51 43zM580 167.329
c-43.5244 -58.8571 -111.446 -106.329 -185 -106.329c-101 0 -160 46 -160 142v330h-42h-42h-139v-65h139v-269c0 -140 89 -204 236 -204c74.988 0 143.227 35.6753 193 88.6153v-83.6153h42h43h127v65h-127v468h-43h-42h-139v-65h139v-300.671z" />
    <glyph glyph-name="ugrave" unicode="&#xf9;" horiz-adv-x="805" 
d="M524 638c-60 49 -134 118 -194 166h-109c60 -49 134 -117 194 -166h109zM580 167.329c-43.5244 -58.8571 -111.446 -106.329 -185 -106.329c-101 0 -160 46 -160 142v330h-42h-42h-139v-65h139v-269c0 -140 89 -204 236 -204c74.988 0 143.227 35.6753 193 88.6153
v-83.6153h42h43h127v65h-127v468h-43h-42h-139v-65h139v-300.671z" />
    <glyph glyph-name="uhungarumlaut" unicode="&#x171;" horiz-adv-x="805" 
d="M499 593l138 201h-109l-114 -201h85zM310 593l138 201h-108l-114 -201h84zM580 167.329c-43.5244 -58.8571 -111.446 -106.329 -185 -106.329c-101 0 -160 46 -160 142v330h-42h-42h-139v-65h139v-269c0 -140 89 -204 236 -204c74.988 0 143.227 35.6753 193 88.6153
v-83.6153h42h43h127v65h-127v468h-43h-42h-139v-65h139v-300.671z" />
    <glyph glyph-name="umacron" unicode="&#x16b;" horiz-adv-x="805" 
d="M519 703h-265v-64h265v64zM580 167.329c-43.5244 -58.8571 -111.446 -106.329 -185 -106.329c-101 0 -160 46 -160 142v330h-42h-42h-139v-65h139v-269c0 -140 89 -204 236 -204c74.988 0 143.227 35.6753 193 88.6153v-83.6153h42h43h127v65h-127v468h-43h-42h-139v-65
h139v-300.671z" />
    <glyph glyph-name="underscore" unicode="_" horiz-adv-x="816" 
d="M7 -197h802v65h-802v-65z" />
    <glyph glyph-name="uogonek" unicode="&#x173;" horiz-adv-x="805" 
d="M580 167.329c-43.5244 -58.8571 -111.446 -106.329 -185 -106.329c-101 0 -160 46 -160 142v330h-42h-42h-139v-65h139v-269c0 -140 89 -204 236 -204c74.988 0 143.227 35.6753 193 88.6153v-44.953c-53.2254 -21.139 -94 -45.8113 -94 -104.662c0 -71 52 -111 128 -111
c42 0 70 13 107 31c-37 50 -1 1 -39 51c-21 -11 -37 -19 -61 -19c-34 0 -58 17 -58 49c0 37.2209 31.358 50.6098 67.7506 65h34.2494h127v65h-127v468h-43h-42h-139v-65h139v-300.671z" />
    <glyph glyph-name="uring" unicode="&#x16f;" horiz-adv-x="805" 
d="M306 766c0 47 33 72 83 72c53 0 90 -22 90 -72c0 -49 -36 -71 -88 -71c-50 0 -85 23 -85 71zM231 766c0 -88 67 -132 160 -132c95 0 164 43 164 132s-70 131 -166 131c-93 0 -158 -44 -158 -131zM580 167.329c-43.5244 -58.8571 -111.446 -106.329 -185 -106.329
c-101 0 -160 46 -160 142v330h-42h-42h-139v-65h139v-269c0 -140 89 -204 236 -204c74.988 0 143.227 35.6753 193 88.6153v-83.6153h42h43h127v65h-127v468h-43h-42h-139v-65h139v-300.671z" />
    <glyph glyph-name="v" unicode="v" horiz-adv-x="844" 
d="M416.997 83.6009c-58.2348 128.24 -116.031 256.123 -173.763 384.399h123.766v65h-153h-26h-62h-119v-65h148.92c71.8115 -156.132 142.946 -311.68 214.08 -468h7h78h6c75.5252 156.32 150.279 311.868 225.617 468h149.383v65h-118h-63h-23h-155v-65h123.902z" />
    <glyph glyph-name="w" unicode="w" horiz-adv-x="1219" 
d="M874 0h2c64.9868 156.32 129.974 311.868 195.638 468h139.362v65h-112h-69h-16h-163v-65h136.324c-50.6156 -123.246 -101.29 -246.128 -152.356 -369.312c-57.571 144.828 -116.102 289.238 -173.969 434.312h-5h-78h-7
c-64.0403 -146.143 -128.755 -291.612 -193.036 -437.514c-49.4398 124.257 -98.5657 248.201 -148.061 372.514h138.098v65h-164h-16h-68h-113v-65h139.266c63.0295 -156.132 125.382 -311.68 187.734 -468h2h80h1c66.2884 147.492 131.89 294.297 197.943 441.553
c59.4242 -147.256 118.397 -294.061 178.057 -441.553h1h80z" />
    <glyph glyph-name="x" unicode="x" horiz-adv-x="834" 
d="M368.601 278.715c-66.898 -71.2025 -133.734 -142.398 -200.185 -213.715l-157.415 -2.84217e-14v-65h97h82h2h18h158v65h-98.2153c49.0817 53.4216 98.1744 106.98 147.306 160.567c48.7695 -53.49 97.4482 -106.994 146.036 -160.567l-98.1264 -2.84217e-14v-65h157h19
h2h79h100v65h-159.966c-65.5969 71.0185 -131.315 141.916 -197.025 212.821c58.2136 63.4643 116.493 126.918 174.885 190.179h167.107v65h-107h-71h-4h-18h-155v-65h94.2639c-43.116 -46.0627 -86.3255 -92.0746 -129.541 -138.071
c-42.6131 45.9959 -85.2101 92.0079 -127.756 138.071h93.0338v65h-153h-20h-14h-59h-108v-65h167h0.515412c57.8212 -63.1607 115.516 -126.226 173.085 -189.285z" />
    <glyph glyph-name="y" unicode="y" horiz-adv-x="840" 
d="M367.087 77.5053c-59.8463 -104.12 -119.706 -208.253 -179.684 -312.505h-159.403v-65h122h57h32c146.605 256.328 293.209 511.805 439.814 768h150.186v65h-113h-68h-19h-159v-65h121.597c-61.1907 -106.359 -122.258 -212.595 -183.313 -318.819
c-53.798 105.956 -107.828 212.909 -163.111 318.819h129.827v65h-164h-15h-73h-108v-65h143.239c69.9388 -129.842 138.326 -261.236 208.848 -390.495z" />
    <glyph glyph-name="yacute" unicode="&#xfd;" horiz-adv-x="840" 
d="M384 640c60 49 134 117 194 166h-108c-60 -49 -135 -117 -194 -166h108zM367.087 77.5053c-59.8463 -104.12 -119.706 -208.253 -179.684 -312.505h-159.403v-65h122h57h32c146.605 256.328 293.209 511.805 439.814 768h150.186v65h-113h-68h-19h-159v-65h121.597
c-61.1907 -106.359 -122.258 -212.595 -183.313 -318.819c-53.798 105.956 -107.828 212.909 -163.111 318.819h129.827v65h-164h-15h-73h-108v-65h143.239c69.9388 -129.842 138.326 -261.236 208.848 -390.495z" />
    <glyph glyph-name="ydieresis" unicode="&#xff;" horiz-adv-x="840" 
d="M454 670h104c0 29 -22 44 -53 44c-30 0 -51 -16 -51 -44zM454 670h104c0 -30 -22 -43 -53 -43c-30 0 -51 15 -51 43zM271 670h104c0 29 -22 44 -53 44c-30 0 -51 -16 -51 -44zM271 670h104c0 -30 -22 -43 -53 -43s-51 15 -51 43zM367.087 77.5053
c-59.8463 -104.12 -119.706 -208.253 -179.684 -312.505h-159.403v-65h122h57h32c146.605 256.328 293.209 511.805 439.814 768h150.186v65h-113h-68h-19h-159v-65h121.597c-61.1907 -106.359 -122.258 -212.595 -183.313 -318.819
c-53.798 105.956 -107.828 212.909 -163.111 318.819h129.827v65h-164h-15h-73h-108v-65h143.239c69.9388 -129.842 138.326 -261.236 208.848 -390.495z" />
    <glyph glyph-name="yen" unicode="&#xa5;" horiz-adv-x="973" 
d="M480.845 392.006c-62.3738 88.6647 -124.414 177.329 -186.771 265.994h105.926v64h-151h-29h-1h-62h-119v-64h164.867c63.1034 -87.6667 127.21 -175.333 190.752 -263h-175.619v-71h219v-62h-219v-71h219v-126h-139v-65h139h42h42h139v65h-139v126h223v71h-223v62h223
v71h-175.832c71.6354 87.7699 143.99 175.18 215.526 263h151.306v64h-180h-2h-178v-64h116.989c-70.8796 -88.3595 -140.866 -177.551 -211.144 -265.994z" />
    <glyph glyph-name="z" unicode="z" horiz-adv-x="638" 
d="M75 501v-33v-87h67v87h305.276c-99.9254 -105.769 -3.00188 -2.5664 -390.276 -403v-65h527v32v33v87h-68v-87h-349.116c100.663 105.769 3.08199 2.5664 394.116 403v65h-486v-32z" />
    <glyph glyph-name="zacute" unicode="&#x17a;" horiz-adv-x="638" 
d="M285 639c60 49 134 117 194 166h-109c-60 -49 -134 -117 -194 -166h109zM75 501v-33v-87h67v87h305.276c-99.9254 -105.769 -3.00188 -2.5664 -390.276 -403v-65h527v32v33v87h-68v-87h-349.116c100.663 105.769 3.08199 2.5664 394.116 403v65h-486v-32z" />
    <glyph glyph-name="zcaron" unicode="&#x17e;" horiz-adv-x="651" 
d="M68 804c60 -49 134 -117 194 -166h14h95h13c60 49 134 117 194 166h-108c-44.9284 -36.6915 -97.7067 -84.0365 -146.579 -126.08c-49.1538 42.0437 -102.493 89.3887 -147.421 126.08h-108zM84 501v-33v-87h67v87h305.276
c-99.9254 -105.769 -3.00188 -2.5664 -390.276 -403v-65h526v32v33v87h-67v-87h-349.116c100.663 105.769 3.08199 2.5664 394.116 403v65h-486v-32z" />
    <glyph glyph-name="zdotaccent" unicode="&#x17c;" horiz-adv-x="638" 
d="M264 670h104c0 29 -23 43 -53 43c-31 0 -51 -16 -51 -43zM264 670h104c0 -30 -23 -44 -54 -44c-30 0 -50 15 -50 44zM75 501v-33v-87h67v87h305.276c-99.9254 -105.769 -3.00188 -2.5664 -390.276 -403v-65h527v32v33v87h-68v-87h-349.116
c100.663 105.769 3.08199 2.5664 394.116 403v65h-486v-32z" />
    <glyph glyph-name="zero" unicode="0" horiz-adv-x="854" 
d="M70 360c0 -227 131 -365 359 -365c226 0 354 139 354 368c0 226 -127 364 -350 364c-230 0 -363 -138 -363 -367zM153 360c0 183 93 299 272 299s276 -115 276 -296c0 -182 -93 -299 -269 -299c-180 0 -279 113 -279 296z" />
    </font>
</defs>
</svg>
