<?xml version="1.0" standalone="no"?>
<!DOCTYPE svg PUBLIC "-//W3C//DTD SVG 1.1//EN" "http://www.w3.org/Graphics/SVG/1.1/DTD/svg11.dtd" >
<svg xmlns="http://www.w3.org/2000/svg">
<metadata>
Created by FontPrep 20130207 at Thu Feb 19 10:06:01 2015
 By Simon Egli
</metadata>
<defs>
<font id="ec848f2a828ee565b8256f1ad31e0d41" horiz-adv-x='1024' >
  <font-face 
    font-family="SeanSlab-WideBlack"
    font-weight="400"
    font-stretch="normal"
    units-per-em="2048"
    panose-1="0 0 0 0 0 0 0 0 0 0"
    ascent="1434"
    descent="-614"
    x-height="1092"
    cap-height="1479"
    bbox="0 -686 5063 2232"
    underline-thickness="0"
    underline-position="0"
    unicode-range="U+0020-FB02"
  />
<missing-glyph horiz-adv-x="1024" 
d="M205 -512h614v2048h-614v-2048zM102 -614v2252h820v-2252h-820z" />
    <glyph glyph-name=".notdef" horiz-adv-x="1024" 
d="M205 -512h614v2048h-614v-2048zM102 -614v2252h820v-2252h-820z" />
    <glyph glyph-name=".null" horiz-adv-x="0" 
 />
    <glyph glyph-name="nonmarkingreturn" horiz-adv-x="681" 
 />
    <glyph glyph-name="space" unicode=" " horiz-adv-x="491" 
 />
    <glyph glyph-name="exclam" unicode="!" horiz-adv-x="454" 
d="M225 -20q-88 0 -142 40t-54 113q0 74 55 115t143 41q87 0 143 -39t56 -117q0 -153 -201 -153zM389 469h-330v1010h330v-1010z" />
    <glyph glyph-name="quotedbl" unicode="&#x22;" horiz-adv-x="882" 
d="M850 1348h-313v385h313v-385zM362 1348h-329v385h329v-385z" />
    <glyph glyph-name="numbersign" unicode="#" horiz-adv-x="1665" 
d="M977 678l78 192h-379l-80 -192h381zM1327 438h-121l-147 -358h-330l148 358h-379l-144 -344h-313l139 344h-151l104 240h143l78 192h-131l99 240h129l149 369h328l-154 -369h381l152 369h329l-151 -369h125l-97 -240h-129l-77 -192h120z" />
    <glyph glyph-name="dollar" unicode="$" horiz-adv-x="1386" 
d="M786 -78h-329v170q-205 18 -428 94v308h250v-115q193 -55 358 -55h102q95 0 149 6t97 34t43 74q0 86 -104 125q-60 23 -286 76t-345 105q-119 53 -159 90q-103 95 -101 227q0 293 456 340v182h328v-180q184 -14 430 -100v-308h-250v133q-156 43 -360 43t-252 -50
q-23 -25 -23 -59q0 -66 88 -103q66 -27 167 -52t131 -33t73 -20q283 -80 383 -141q154 -96 154 -256q0 -334 -572 -367v-168z" />
    <glyph glyph-name="percent" unicode="%" horiz-adv-x="2639" 
d="M1823 390q1 -108 67 -169t172 -61t164 62t58 168t-62 166t-168 60h-4q-104 0 -166 -59q-61 -59 -61 -167zM2055 -80q-251 0 -399 124t-147 348q0 224 152 344q151 120 401 119t400 -118t150 -342t-154 -350q-152 -125 -403 -125zM342 980q0 -108 67 -169t173 -61t163 62
t57 168t-60 166q-62 60 -169 60h-4q-104 0 -166 -59q-61 -59 -61 -167zM905 -63h-299l1135 1503h299zM29 982q0 224 151 344q152 120 402 119t400 -118t148 -342q0 -225 -152 -350t-404 -125q-251 0 -398 124t-147 348z" />
    <glyph glyph-name="ampersand" unicode="&#x26;" horiz-adv-x="1959" 
d="M696 -10q-285 0 -467 93q-94 48 -147 132q-53 83 -53 181t27 159q63 138 350 242q-94 73 -146 147t-51 176q0 182 144 276t375 93q230 0 380 -89t149 -276q-2 -141 -89 -224t-253 -150q68 -47 361 -269q76 88 137 217l285 -61q-88 -190 -207 -318q236 -176 440 -319h-432
q-129 98 -205 152q-252 -162 -598 -162zM358 414q0 -115 103 -150t278 -35t336 86q-403 308 -420 318q-16 10 -18 12q-162 -53 -209 -88q-70 -53 -70 -143zM539 1120q0 -127 145 -221q190 62 226 139q17 37 18 86q0 125 -219 125q-74 0 -122 -34t-48 -95z" />
    <glyph glyph-name="quotesingle" unicode="'" horiz-adv-x="393" 
d="M360 1348h-327v385h327v-385z" />
    <glyph glyph-name="parenleft" unicode="(" horiz-adv-x="964" 
d="M29 674q0 407 188 701q96 151 221 277t301 259l99 -76l96 -78q-295 -233 -438 -488q-144 -255 -144 -601t144 -601t440 -481l-193 -168q-362 274 -538 562t-176 694z" />
    <glyph glyph-name="parenright" unicode=")" horiz-adv-x="999" 
d="M647 664q0 348 -150 601q-151 253 -458 484l194 168q246 -178 401 -346t246 -394t91 -471t-50 -425q-49 -180 -153 -335t-231 -282t-314 -272l-194 153q205 170 333 323q128 152 206 354q79 202 79 442z" />
    <glyph glyph-name="asterisk" unicode="*" horiz-adv-x="890" 
d="M299 1184l-14 159h327l-14 -163q12 6 168 59l96 -244q-32 -6 -68 -13t-54 -11t-31 -6q70 -53 116 -93l-237 -180q-123 125 -144 148l-143 -140l-240 181l121 90q-25 4 -153 33l100 235l170 -59v4z" />
    <glyph glyph-name="plus" unicode="+" horiz-adv-x="1384" 
d="M1354 510h-498v-473h-307v473h-518v262h518v432h307v-432h498v-262z" />
    <glyph glyph-name="comma" unicode="," horiz-adv-x="729" 
d="M362 -203h-329l243 471h420z" />
    <glyph glyph-name="hyphen" unicode="-" horiz-adv-x="839" 
d="M807 451h-774v264h774v-264z" />
    <glyph glyph-name="period" unicode="." horiz-adv-x="452" 
d="M221 -20q-86 0 -137 38t-51 114q0 75 52 116t139 41q88 0 142 -39t54 -117q0 -153 -199 -153z" />
    <glyph glyph-name="slash" unicode="/" horiz-adv-x="1521" 
d="M29 -18l1134 1609h330q-758 -1072 -1135 -1609h-329z" />
    <glyph glyph-name="zero" unicode="0" horiz-adv-x="1802" 
d="M344 737q0 -241 155 -369t412 -128t402 132t145 372t-153 367q-154 128 -411 128q-258 0 -404 -131t-146 -371zM29 738q-1 364 241 558t642 193q400 0 631 -194q231 -193 231 -555t-236 -556t-636 -194t-637 192q-236 192 -236 556z" />
    <glyph glyph-name="one" unicode="1" horiz-adv-x="1116" 
d="M293 0v240h227v927l-356 -221l-135 223l491 310h328v-1239h239v-240h-794z" />
    <glyph glyph-name="two" unicode="2" horiz-adv-x="1454" 
d="M1174 240v245h251v-485h-1396v240q358 216 583 360q211 125 273 178q131 113 131 248q0 213 -322 213q-125 0 -222 -49t-214 -162l-213 152q223 309 664 309q285 0 447 -109t163 -342q0 -174 -91 -312q-92 -136 -407 -316q-186 -119 -274 -170h627z" />
    <glyph glyph-name="three" unicode="3" horiz-adv-x="1339" 
d="M590 240q94 0 149 4q170 12 224 84q33 42 33 114t-39 123q-86 115 -412 115v203q106 0 177 10t128 53q57 42 57 110t-23 105q-39 60 -175 74q-49 4 -131 4q-166 0 -334 -98l-209 155q98 88 248 140t317 53q623 0 623 -410q0 -182 -138 -280q225 -106 226 -348
q0 -270 -215 -371q-191 -90 -511 -90q-319 0 -556 135l182 201q209 -86 379 -86z" />
    <glyph glyph-name="four" unicode="4" 
d="M817 721v338q-201 -183 -201 -185l-170 -153h371zM582 0v240h235v217h-663l-125 264l393 350h2l393 352h328v-702h360v-264h-360v-217h229v-240h-792z" />
    <glyph glyph-name="five" unicode="5" horiz-adv-x="1316" 
d="M526 -10q-236 0 -497 98l164 215q160 -63 353 -63t304 66t111 191q1 126 -105 186t-246 60t-188 -16l-313 72v680h1091v-240h-778v-262q96 18 190 18q296 0 486 -129t190 -368q0 -168 -102 -286t-263 -170t-397 -52z" />
    <glyph glyph-name="six" unicode="6" horiz-adv-x="1466" 
d="M778 256q330 0 330 197q0 225 -363 225q-270 0 -403 -156q14 -266 436 -266zM748 -25q-320 1 -520 137t-199 410q0 395 279 614q241 189 696 292q127 30 290 61l70 -256q-307 -72 -518 -150t-340 -192q111 39 268 39q303 0 483 -113q181 -113 181 -357t-184 -365
q-186 -120 -506 -120z" />
    <glyph glyph-name="seven" unicode="7" horiz-adv-x="1449" 
d="M92 1479h1329v-240l-1018 -1239h-374l1022 1239h-707v-246h-252v486z" />
    <glyph glyph-name="eight" unicode="8" horiz-adv-x="1409" 
d="M734 231q136 0 227 36q90 36 90 145t-92 161q-69 41 -155 63q-86 23 -99 28q-193 -51 -248 -86q-98 -59 -99 -177q0 -71 50 -109t120 -50t206 -11zM408 1094q0 -48 23 -82q23 -35 48 -49q25 -13 38 -21t44 -17t45 -13t51 -14q37 -9 52 -13q170 39 215 67q78 44 78 138
t-80 124t-232 31q-280 1 -282 -151zM80 1086q0 231 182 322q158 79 450 80t454 -87t163 -309q1 -131 -69 -200t-209 -118q165 -59 247 -141t82 -232q0 -194 -131 -290q-159 -121 -559 -121q-488 0 -612 210q-49 83 -49 217t82 216t243 141q-134 49 -204 120t-70 192z" />
    <glyph glyph-name="nine" unicode="9" horiz-adv-x="1466" 
d="M723 801q268 0 401 155q-10 262 -434 263q-156 0 -244 -42t-88 -151q0 -225 365 -225zM172 -10q-10 41 -57 262q229 41 372 76q143 34 295 106t232 172q-133 -57 -322 -57q-303 0 -483 113q-180 114 -180 358t184 364t505 119q320 0 520 -136t200 -411q0 -190 -69 -341
t-181 -251t-280 -178q-169 -76 -343 -120t-393 -76z" />
    <glyph glyph-name="colon" unicode=":" horiz-adv-x="448" 
d="M219 -20q-86 0 -137 38t-51 114q0 75 52 116t139 41q88 0 142 -39t54 -117q0 -153 -199 -153zM219 614q-86 0 -137 39t-51 114t52 116t139 41q88 0 142 -39t54 -117q0 -154 -199 -154z" />
    <glyph glyph-name="semicolon" unicode=";" horiz-adv-x="720" 
d="M360 -203h-329q119 184 121 187l118 184h420zM469 614q-86 0 -137 39t-51 114t52 116t139 41t141 -39t55 -117q0 -154 -199 -154z" />
    <glyph glyph-name="less" unicode="&#x3c;" horiz-adv-x="1708" 
d="M422 616l1257 -411v-262q-1102 359 -1618 530l-30 10v262l1622 553v-262z" />
    <glyph glyph-name="equal" unicode="=" horiz-adv-x="1740" 
d="M1708 319h-1675v252h1675v-252zM1708 774h-1675v252h1675v-252z" />
    <glyph glyph-name="greater" unicode="&#x3e;" horiz-adv-x="1705" 
d="M55 -57v262l1229 420q-260 86 -1255 411v262q1098 -360 1648 -540v-262z" />
    <glyph glyph-name="question" unicode="?" horiz-adv-x="974" 
d="M279 -119q-86 0 -140 40q-53 40 -53 114t54 115t139 40q195 0 194 -155q1 -154 -194 -154zM442 453h-327v333h133q168 0 276 71t109 200q0 129 -97 187t-253 59q-66 0 -150 -23l-104 238q123 33 284 32q273 0 453 -127t180 -349t-137 -352t-367 -171v-98z" />
    <glyph glyph-name="at" unicode="@" horiz-adv-x="2109" 
d="M813 453q0 -195 261 -195q126 0 192 111q-4 45 -4 69q0 172 -224 172t-225 -157zM1098 -289q-484 0 -766 158q-303 171 -303 561q0 197 80 340q215 385 987 385q439 0 702 -160q135 -82 209 -220q74 -137 74 -327t-114 -296t-300 -106t-293 95q-128 -123 -360 -123
t-373 106t-141 317q0 210 150 310q150 99 394 99t380 -101t136 -289t121 -188q53 0 70 43q16 43 16 147t-51 196q-51 90 -146 144q-186 104 -489 103q-417 0 -599 -143q-140 -110 -140 -322q0 -489 754 -489q170 0 379 63l106 -200q-233 -103 -483 -103z" />
    <glyph glyph-name="A" unicode="A" horiz-adv-x="2314" 
d="M903 240v-240h-870v240h319l697 1239h303l620 -1239h312v-240h-869v240h215q-16 41 -82 178h-751l-92 -178h198zM1432 670l-240 516l-264 -516h504z" />
    <glyph glyph-name="B" unicode="B" horiz-adv-x="1687" 
d="M932 707h-328v-467h367q356 0 356 223q0 244 -395 244zM977 1239h-373v-293h328q270 0 270 135q0 158 -225 158zM31 0v240h229v999h-227v240h944q255 -1 405 -97t150 -301q0 -154 -137 -243q262 -123 262 -375q0 -463 -686 -463h-940z" />
    <glyph glyph-name="C" unicode="C" horiz-adv-x="1724" 
d="M958 -10q-426 0 -676 177t-251 538q-1 199 73 351q138 284 522 386q179 47 400 47q307 0 668 -150v-348h-252v185q-188 63 -430 63q-297 0 -474 -132q-178 -132 -178 -381t166 -368t447 -118q174 0 304 30t269 111l74 -100q2 -1 74 -103q-172 -102 -337 -145t-399 -43z
" />
    <glyph glyph-name="D" unicode="D" horiz-adv-x="1961" 
d="M915 1239h-329v-999h387q633 0 633 475q-1 524 -691 524zM31 0v240h227v999h-227v240h901q999 0 999 -754q0 -394 -264 -559q-264 -166 -719 -166h-917z" />
    <glyph glyph-name="E" unicode="E" horiz-adv-x="1597" 
d="M31 0v240h229v999h-229v240h1446v-365h-252v125h-635v-356h719v-240h-719v-403h725v125h252v-365h-1536z" />
    <glyph glyph-name="F" unicode="F" horiz-adv-x="1521" 
d="M31 0v240h233v999h-233v240h1460v-365h-252v125h-647v-356h704v-240h-704v-403h233v-240h-794z" />
    <glyph glyph-name="G" unicode="G" horiz-adv-x="1918" 
d="M1090 -10q-204 0 -358 24q-701 111 -701 740q0 178 74 324q142 276 530 368q180 43 405 43q420 0 801 -166v-328h-250v158q-240 86 -552 86t-495 -115q-184 -116 -184 -374t190 -384t516 -126q325 0 523 55v231h-377v240h676v-604q-240 -92 -417 -132t-381 -40z" />
    <glyph glyph-name="H" unicode="H" horiz-adv-x="2203" 
d="M31 0v240h233v999h-233v240h794v-240h-231v-377h1016v377h-232v240h795v-240h-236v-999h236v-240h-795v240h232v383h-1016v-383h231v-240h-794z" />
    <glyph glyph-name="I" unicode="I" horiz-adv-x="856" 
d="M31 0v240h229v999h-229v240h794v-240h-235v-999h235v-240h-794z" />
    <glyph glyph-name="J" unicode="J" horiz-adv-x="1294" 
d="M403 -10q-176 0 -372 102l149 191q128 -55 244 -55t197 72q80 73 79 206v733h-231v240h795v-240h-236v-733q0 -260 -166 -388t-459 -128z" />
    <glyph glyph-name="K" unicode="K" horiz-adv-x="1923" 
d="M1892 240v-240h-987v240h127q-282 202 -440 313v-313h233v-240h-794v240h233v999h-233v240h755v-240h-194v-248q257 168 364 248h-77v240h933v-240h-389q-102 -68 -700 -461q344 -228 805 -538h364z" />
    <glyph glyph-name="L" unicode="L" horiz-adv-x="1581" 
d="M31 0v240h235v999h-235v240h794v-240h-231v-999h706v125h250v-365h-1519z" />
    <glyph glyph-name="M" unicode="M" horiz-adv-x="2646" 
d="M825 240v-240h-794v240h235q48 447 105 999h-203v240h559q397 -782 594 -1174q393 782 588 1174h567v-240h-221l121 -999h239v-240h-792v240h227q-12 120 -36 362l-36 363l-477 -965h-352q-215 424 -481 954q-25 -240 -74 -714h231z" />
    <glyph glyph-name="N" unicode="N" horiz-adv-x="2295" 
d="M31 0v240h233v999h-231v240h604l1106 -1149v909h-232v240h754v-240h-194v-1239h-414q-178 184 -533 553q-354 369 -532 553v-866h233v-240h-794z" />
    <glyph glyph-name="O" unicode="O" horiz-adv-x="1929" 
d="M360 735q0 -239 168 -367t440 -128t437 132q164 132 164 372t-171 368q-172 127 -444 127t-433 -132t-161 -372zM31 737q0 244 125 416q244 336 821 336q414 0 668 -194q253 -193 253 -555t-260 -556t-678 -194t-674 194t-255 553z" />
    <glyph glyph-name="P" unicode="P" horiz-adv-x="1587" 
d="M31 0v240h231v999h-231v240h766q322 0 534 -112q105 -55 165 -155t60 -230q0 -259 -208 -372q-208 -112 -519 -114q-121 0 -239 28v-284h235v-240h-794zM874 735q150 1 252 55t103 177q0 272 -477 272h-162v-469q134 -35 284 -35z" />
    <glyph glyph-name="Q" unicode="Q" horiz-adv-x="2076" 
d="M969 1231q-273 0 -441 -129t-168 -368q0 -238 170 -366t444 -128t437 130q164 130 164 368t-167 366q-167 127 -439 127zM31 746q0 358 264 556t688 197q565 0 801 -336q121 -172 121 -413q0 -288 -166 -474t-453 -251q150 -123 324 -163t436 -40v-250q-395 0 -655 85
t-486 335q-393 12 -633 204t-241 550z" />
    <glyph glyph-name="R" unicode="R" horiz-adv-x="2054" 
d="M825 240v-240h-794v240h235v999h-235v240h903q492 0 619 -213q50 -84 51 -205q0 -324 -347 -418l381 -403h385v-240h-563l-567 602h-299v-362h231zM874 1239h-280v-397h319q174 0 268 39q93 39 93 163t-120 163q-101 32 -280 32z" />
    <glyph glyph-name="S" unicode="S" horiz-adv-x="1396" 
d="M31 106v336h250v-133q186 -70 364 -69q391 0 391 159q0 92 -99 143q-92 48 -338 114q-28 8 -71 22q-254 80 -344 141q-143 100 -143 271q0 399 639 399q147 0 272 -33t297 -102v-314h-250v160q-174 60 -322 60t-227 -33t-79 -115t60 -123q60 -40 129 -60q69 -21 131 -39
q317 -89 452 -159q211 -111 223 -307v-25q0 -245 -230 -333q-198 -76 -505 -76q-308 0 -594 116h-6z" />
    <glyph glyph-name="T" unicode="T" horiz-adv-x="1712" 
d="M457 0v240h235v985h-409v-113h-252v367h1650v-367h-251v113h-410v-985h231v-240h-794z" />
    <glyph glyph-name="U" unicode="U" horiz-adv-x="2187" 
d="M1909 606q0 -328 -212 -472q-211 -144 -609 -144t-606 136t-208 454v659h-243l2 121v119h792v-240h-252v-616q-1 -203 139 -286t390 -83t379 74t129 252v659h-246v240h793v-240h-248v-633z" />
    <glyph glyph-name="V" unicode="V" horiz-adv-x="2258" 
d="M31 1239v240h909v-240h-274q357 -700 469 -924q154 309 460 924h-278v240h911v-240h-299q-389 -774 -618 -1239h-350q-102 203 -631 1239h-299z" />
    <glyph glyph-name="W" unicode="W" horiz-adv-x="2732" 
d="M1909 1239v240h792v-240h-239q-231 -686 -420 -1239h-334q-90 281 -330 1065q-309 -881 -374 -1065h-334q-90 279 -404 1239h-235v240h794v-240h-233q51 -162 139 -458t117 -390l360 1088h346q121 -385 324 -1082q43 139 129 420t131 422h-229z" />
    <glyph glyph-name="X" unicode="X" horiz-adv-x="1939" 
d="M31 0v240h245q158 174 498 544l-399 455h-244v240h795v-240h-160l105 -117q71 -78 106 -116q35 38 105 116t106 117h-148v240h795v-240h-254q-135 -152 -401 -459q324 -360 487 -540h242v-240h-795v240h137q-172 195 -272 311q-47 -53 -138 -155t-136 -156h120v-240h-794
z" />
    <glyph glyph-name="Y" unicode="Y" horiz-adv-x="1826" 
d="M1079 240h217v-240h-794v240h217v469l-422 530h-266v240h794v-240h-194q187 -234 272 -346q96 117 289 346h-191v240h795v-240h-270l-447 -532v-467z" />
    <glyph glyph-name="Z" unicode="Z" horiz-adv-x="1720" 
d="M1692 0h-1661v240q1137 969 1171 999h-827v-125h-250v365h1538v-240q-381 -323 -631 -533t-348 -293t-205 -173h961v125h252v-365z" />
    <glyph glyph-name="bracketleft" unicode="[" horiz-adv-x="612" 
d="M584 -229h-553v1804h553v-262h-226v-1278h226v-264z" />
    <glyph glyph-name="backslash" unicode="\" horiz-adv-x="1445" 
d="M1417 -139h-344l-1044 1868h344z" />
    <glyph glyph-name="bracketright" unicode="]" horiz-adv-x="612" 
d="M582 -229h-553v264h223v1278h-223v262h553v-1804z" />
    <glyph glyph-name="asciicircum" unicode="^" horiz-adv-x="1320" 
d="M657 1319q-92 -123 -299 -393h-327q307 406 463 608h327q51 -68 216 -280t253 -328h-327q-100 131 -306 393z" />
    <glyph glyph-name="underscore" unicode="_" horiz-adv-x="1886" 
d="M1851 -371h-1816v240h1816v-240z" />
    <glyph glyph-name="grave" unicode="`" horiz-adv-x="927" 
d="M897 1210h-426q-104 80 -440 340h428q74 -57 219 -171t219 -169z" />
    <glyph glyph-name="a" unicode="a" 
d="M963 0v119q-184 -129 -426 -129q-506 0 -506 348q0 149 102 227q43 33 123 56t196 38t292 27t219 16q-8 107 -105 137q-75 23 -216 23q-140 0 -280 -71v-105h-251v260q254 156 583 156q441 0 551 -178q45 -74 45 -185v-499h213v-240h-540zM584 223q182 0 379 146v127
q-248 -27 -366 -36t-164 -25q-46 -15 -62 -39t-17 -58q1 -115 230 -115z" />
    <glyph glyph-name="b" unicode="b" horiz-adv-x="1736" 
d="M987 240h6q170 0 277 72q106 73 106 212v11q0 153 -110 235t-306 82t-372 -98v-439q145 -75 399 -75zM31 240h227v1159h-227v239q152 0 227 -2v2h330v-616q209 82 420 82q306 0 502 -146t196 -411v-4q0 -265 -199 -409t-510 -144q-229 0 -409 67v-57h-160v-2l-397 2v240z
" />
    <glyph glyph-name="c" unicode="c" horiz-adv-x="1331" 
d="M791 1102q268 0 509 -141v-336h-251v178q-127 49 -267 49q-422 0 -422 -306t435 -306q193 0 323 102l88 -100l86 -103q-180 -149 -520 -149t-541 134t-201 428t218 426q198 124 543 124z" />
    <glyph glyph-name="d" unicode="d" horiz-adv-x="1757" 
d="M31 537q0 281 216 423t560 142q180 0 348 -64v361h-225v239h569v-1398h227v-240h-571v61q-133 -71 -315 -71q-359 1 -574 125q-111 63 -173 171t-62 251zM813 229q207 0 342 103v456q-137 74 -340 74t-330 -77t-127 -237t124 -240q124 -79 331 -79z" />
    <glyph glyph-name="e" unicode="e" horiz-adv-x="1404" 
d="M711 860q-274 0 -336 -186h682q-35 186 -346 186zM786 -10q-352 0 -554 140t-202 426t186 416q184 128 498 128t487 -123t173 -381v-141h-997q70 -225 409 -226q168 0 330 99l180 -199q-120 -75 -236 -107t-274 -32z" />
    <glyph glyph-name="f" unicode="f" horiz-adv-x="1257" 
d="M125 240h233v634h-327v240h327v127q0 195 146 296t383 101q145 0 340 -73v-297h-250v135q-45 6 -90 6q-91 0 -145 -45t-54 -127v-123h463v-240h-463v-634h232v-240l-398 -2l-397 2v240z" />
    <glyph glyph-name="g" unicode="g" horiz-adv-x="1570" 
d="M774 -383h49q257 0 329 34q34 15 58 44t25 69q0 40 -14 67q-22 44 -95 68t-212 27q-314 5 -455 33q-101 -59 -101 -171t132 -144q113 -27 284 -27zM1534 -213v-12q0 -173 -114 -258q-114 -86 -273 -112q-160 -26 -336 -27q-176 0 -276 10q-233 24 -368 115
q-136 91 -136 280q0 188 182 289q-55 66 -55 171t98 179q-109 98 -109 250q1 152 89 250q164 182 544 182q250 0 406 -78q164 70 233 92l62 -114l59 -117q-49 -25 -162 -58q23 -63 23 -135q0 -213 -179 -312t-464 -99q-139 0 -256 24q-14 -25 -14 -53q-1 -73 165 -87
q86 -7 111 -7l22 -2h11q336 -16 456 -47q281 -72 281 -324zM477 688q0 -166 297 -166t297 162q0 180 -297 180t-297 -176z" />
    <glyph glyph-name="h" unicode="h" horiz-adv-x="1843" 
d="M1044 240h209v385q0 119 -73 178q-74 59 -205 59q-240 0 -383 -149v-473h207v-240l-371 -2l-397 2v240h231v1159h-231v239q154 0 231 -2v2h330v-639q180 102 422 103q569 0 569 -453v-409h229v-240l-397 -2l-371 2v240z" />
    <glyph glyph-name="i" unicode="i" horiz-adv-x="829" 
d="M31 0v240h227v612h-227v240h571v-852h197v-240h-768zM424 1219q-88 1 -139 39t-51 113t52 116t139 41t141 -39t55 -117q0 -153 -197 -153z" />
    <glyph glyph-name="j" unicode="j" horiz-adv-x="745" 
d="M121 -625q-16 0 -90 7l45 227q25 -4 59 -4q96 0 158 38q61 38 61 115v1094h-235v240h235v2h328v-1336q0 -195 -156 -289t-405 -94zM518 1219q-88 1 -139 39t-51 113t52 116t139 41t141 -39t55 -117q0 -153 -197 -153z" />
    <glyph glyph-name="k" unicode="k" horiz-adv-x="1792" 
d="M1266 0h-29q-158 88 -643 387v-147h94v-240l-191 -2h-71l-395 2v240h233v1159h-229v239q154 0 229 -2v2h330v-897l178 111h-90v240h1018v-240h-447q-172 -96 -512 -289q383 -219 582 -325l190 2h248v-240l-495 -2v2z" />
    <glyph glyph-name="l" unicode="l" horiz-adv-x="856" 
d="M31 240h231v1159h-225v239q150 0 225 -2v2h328v-1398h235v-240l-397 -2l-397 2v240z" />
    <glyph glyph-name="m" unicode="m" horiz-adv-x="2625" 
d="M31 0v240h231v612h-231v240h561v-105q156 104 381 105q311 0 426 -156q186 156 448 156t387 -106t125 -337v-409h236v-240h-742v240h179v385q0 119 -60 173t-184 54q-193 0 -313 -137q2 -20 2 -66v-409h178v-240h-688v240h180v385q-1 119 -61 173t-183 54
q-193 0 -311 -135v-477h180v-240h-741z" />
    <glyph glyph-name="n" unicode="n" horiz-adv-x="1843" 
d="M31 0v240h231v612h-231v240h561v-111q178 111 437 111t405 -108t147 -335v-409h231v-240h-768v240h209v385q0 227 -297 227q-223 0 -364 -141v-471h205v-240h-766z" />
    <glyph glyph-name="o" unicode="o" horiz-adv-x="1538" 
d="M1180 544q0 154 -116 236t-304 82t-294 -82t-106 -236q0 -155 113 -235t300 -80t297 80t110 235zM31 542q0 274 201 417q202 143 538 143t537 -142t201 -420t-202 -414t-540 -136t-537 139q-198 139 -198 413z" />
    <glyph glyph-name="p" unicode="p" horiz-adv-x="1740" 
d="M31 -614v239h233v1227h-231l2 121v119h557v-74q205 88 412 88q314 0 510 -151t196 -404v-4q0 -273 -201 -415t-516 -142q-240 0 -401 63v-428h207v-239h-768zM993 229h6q170 0 277 75q106 75 106 226v9q0 147 -106 237t-302 90t-382 -110v-441q112 -51 196 -69t205 -17z
" />
    <glyph glyph-name="q" unicode="q" horiz-adv-x="1730" 
d="M760 229q262 0 393 64v498q-177 71 -375 71t-308 -83t-110 -231t111 -234q111 -85 289 -85zM932 -614v239h221v418q-154 -53 -387 -53q-326 0 -530 141t-205 409q0 268 199 414q200 147 522 148q184 0 401 -86v76h547v-240h-203v-1227h203v-239h-768z" />
    <glyph glyph-name="r" unicode="r" horiz-adv-x="1124" 
d="M35 0v240h231v612h-235l2 121v119h563v-111q195 121 498 121v-248h-35q-109 0 -173 -5t-147 -33q-82 -28 -143 -83v-493h207v-240h-768z" />
    <glyph glyph-name="s" unicode="s" horiz-adv-x="1177" 
d="M566 -10q-132 0 -242 24t-287 80h-6v301h252v-110q177 -55 299 -55t186 27q63 28 63 72t-71 64q-48 13 -225 42t-272 69q-95 41 -133 76q-86 81 -87 211q0 171 133 241t371 70q115 0 249 -28t224 -64v-283h-252v100q-124 35 -220 35t-151 -18t-55 -51q0 -27 22 -44
q22 -18 44 -25t36 -12q14 -4 39 -10t40 -9t43 -8t50 -10t170 -33q149 -28 187 -50q111 -62 129 -95q45 -81 45 -172t-44 -161t-126 -107q-83 -37 -181 -52t-230 -15z" />
    <glyph glyph-name="t" unicode="t" horiz-adv-x="1062" 
d="M276 352v500h-245v240h245v108l328 154v-262h361v-240h-361v-487q0 -127 156 -127q115 0 192 30l80 -213q-147 -68 -303 -67q-213 0 -333 88t-120 276z" />
    <glyph glyph-name="u" unicode="u" horiz-adv-x="1800" 
d="M1235 0v109q-168 -119 -373 -119q-284 0 -442 110t-158 342v410h-231v240h561v-637q0 -115 79 -170t216 -56q190 0 348 154v469h-234v240h564v-852h204v-240h-534z" />
    <glyph glyph-name="v" unicode="v" horiz-adv-x="1861" 
d="M31 852v240h794v-240h-178q45 -90 275 -545l288 545h-174v240h795v-240h-289l-455 -852h-342q-216 423 -432 852h-282z" />
    <glyph glyph-name="w" unicode="w" horiz-adv-x="2691" 
d="M31 852v240h794v-240h-221l221 -504l363 744h346q217 -487 324 -732q59 123 225 492h-217v240h794v-240h-245q-201 -436 -396 -852h-329q-270 601 -336 754q-61 -127 -373 -754h-330q-195 442 -377 852h-243z" />
    <glyph glyph-name="x" unicode="x" horiz-adv-x="1767" 
d="M1737 240v-240h-793v240h72l-135 135l-136 -135h80v-240h-794v240h301q329 312 352 333l-278 279h-363v240h795v-240h-56l97 -94q16 16 49 47t49 47h-55v240h794v-240h-360q-188 -188 -281 -283l340 -329h322z" />
    <glyph glyph-name="y" unicode="y" horiz-adv-x="1812" 
d="M31 -614v239h348l340 535q-55 94 -410 692h-258v240h795v-240h-209q100 -182 240 -444l282 444h-172v240h795v-240h-289l-930 -1466h-532z" />
    <glyph glyph-name="z" unicode="z" horiz-adv-x="1355" 
d="M1325 0h-1294v240q516 408 634 497q117 89 148 115h-477v-125h-252v365h1198v-240q-652 -503 -707 -544q-55 -40 -88 -68h586v125h252v-365z" />
    <glyph glyph-name="braceleft" unicode="{" horiz-adv-x="671" 
d="M643 -219q-207 0 -332 95t-125 278v319q0 100 -157 100v252q158 0 157 93v333q0 181 124 273t333 92v-240q-72 0 -115 -32t-43 -93v-299q0 -154 -94 -254q94 -94 94 -247v-310q0 -121 158 -121v-239z" />
    <glyph glyph-name="bar" unicode="|" horiz-adv-x="391" 
d="M360 -614h-329v2252h329v-2252z" />
    <glyph glyph-name="braceright" unicode="}" horiz-adv-x="671" 
d="M29 -219v239q160 0 159 121v310q0 150 95 247q-94 98 -95 254v299q0 61 -44 93t-115 32v240q209 0 333 -92t125 -273v-333q0 -92 156 -93v-252q-156 0 -156 -100v-319q1 -182 -125 -278t-333 -95z" />
    <glyph glyph-name="asciitilde" unicode="~" horiz-adv-x="1568" 
d="M1118 627q71 0 102 39t68 114q141 -61 250 -112q-76 -150 -179 -214t-249 -64q-146 1 -232 29t-198 90t-206 62t-139 -41q-44 -41 -77 -124q-180 84 -227 108q63 156 167 226t273 71q115 0 196 -26t197 -92t254 -66z" />
    <glyph glyph-name="exclamdown" unicode="&#xa1;" horiz-adv-x="454" 
d="M395 0h-329v1010h329v-1010zM426 1346q0 -74 -56 -115t-143 -41q-88 0 -143 39t-55 117q0 154 200 153q89 0 143 -40q54 -39 54 -113z" />
    <glyph glyph-name="cent" unicode="&#xa2;" horiz-adv-x="1603" 
d="M1026 -109h-330v207q-305 33 -486 198q-181 166 -181 454t195 450q196 162 530 197v196h327v-190q244 -20 488 -133l-139 -223q-154 61 -269 86t-252 24q-247 0 -399 -99t-152 -301t142 -308t374 -107q140 0 258 33t273 114l170 -217q-276 -147 -549 -174v-207z" />
    <glyph glyph-name="sterling" unicode="&#xa3;" horiz-adv-x="1214" 
d="M1102 240v-240h-1073v240q117 0 180 83t63 218q0 61 -10 106h-139v240h88q-2 18 -2 57q0 231 159 381t410 150q125 0 217 -27t191 -94l-154 -178q-136 72 -254 72t-176 -80q-58 -79 -59 -203q0 -39 6 -78h428v-240h-377q4 -57 4 -86q0 -184 -90 -321h588z" />
    <glyph glyph-name="currency" unicode="&#xa4;" horiz-adv-x="1398" 
d="M141 651q0 102 45 183q-28 16 -76 48t-61 40l225 192q25 -16 76 -50l78 -52q126 39 282 39t261 -35q68 43 151 100l226 -192l-138 -88q43 -78 43 -178t-39 -183l154 -104l-238 -181q-72 47 -141 95q-121 -47 -291 -47t-292 47q-75 -48 -150 -99l-225 191l147 98
q-37 74 -37 176zM695 811q-101 0 -163 -41t-61 -125q0 -84 68 -126t169 -42t159 43q59 43 59 126t-65 124t-166 41z" />
    <glyph glyph-name="yen" unicode="&#xa5;" horiz-adv-x="2074" 
d="M29 1239v240h794v-240h-63q45 -59 136 -179t138 -179q215 231 336 358h-119v240h795v-240h-322q-123 -125 -368 -371h262v-264h-434v-43h434v-264h-434v-57h233v-240h-794v240h233v57h-428v264h428v43h-428v264h283q-176 219 -303 371h-379z" />
    <glyph glyph-name="brokenbar" unicode="&#xa6;" horiz-adv-x="391" 
d="M360 -614h-329v761h329v-761zM360 877h-329v761h329v-761z" />
    <glyph glyph-name="section" unicode="&#xa7;" horiz-adv-x="1255" 
d="M621 -53q-264 0 -508 121v266h249v-107q130 -41 232 -41t136 3t63 21t29 49q-1 55 -66 77q-65 23 -193 48t-192 42q-179 47 -248 108q-96 84 -94 216q0 172 168 260q-78 78 -78 200q0 322 518 322q195 0 436 -92v-266h-250v96q-101 22 -197 22t-138 -16t-42 -67t53 -73
t247 -60t260 -62q221 -81 221 -275q0 -174 -156 -264q78 -78 80 -199q0 -329 -530 -329zM899 721q0 61 -88 86q-48 13 -178 33t-174 37q-51 -16 -77 -39t-26 -61t25 -68t103 -45t142 -25t103 -18l55 -13q115 29 115 113z" />
    <glyph glyph-name="dieresis" unicode="&#xa8;" horiz-adv-x="942" 
d="M713 1133q-86 0 -138 38q-51 39 -51 114t52 116t140 41q87 0 141 -39t54 -117q1 -153 -198 -153zM219 1133q-86 1 -137 39t-51 113t52 116t139 41q88 0 142 -39t54 -117q0 -153 -199 -153z" />
    <glyph glyph-name="copyright" unicode="&#xa9;" horiz-adv-x="1931" 
d="M944 283q-223 0 -361 95q-139 95 -139 288q0 192 150 290t379 98t399 -89v-191h-244v68q-78 20 -176 20t-171 -47t-73 -143t68 -148q68 -51 192 -51t289 62l62 -76l59 -78q-106 -57 -203 -77t-231 -21zM1204 877l-4 -3q2 1 4 3zM1229 889l-4 -2q2 0 4 2zM1233 891
q2 0 4 2zM293 666q0 -121 56 -212q57 -90 157 -144q200 -107 484 -106t467 117q183 117 183 343t-188 346t-481 118q-293 0 -486 -115q-192 -116 -192 -347zM29 666q0 166 75 295q138 235 507 321q167 39 395 39t433 -67q204 -68 334 -218t130 -366t-128 -369
q-242 -287 -790 -287q-405 0 -671 153q-134 77 -210 205q-75 128 -75 294z" />
    <glyph glyph-name="ordfeminine" unicode="&#xaa;" horiz-adv-x="1036" 
d="M629 872v50q-104 -57 -236 -58q-362 0 -362 236q0 130 110 174q91 37 225 49q135 12 259 18q-11 55 -51 71t-129 18q-89 0 -189 -46v-51h-172v176q172 105 382 105t320 -52t109 -192v-336h111v-162h-377zM396 1038q125 0 233 76v66q-83 -8 -177 -18t-127 -12
q-33 -3 -44 -18q-10 -16 -11 -32q1 -62 126 -62z" />
    <glyph glyph-name="guillemotleft" unicode="&#xab;" horiz-adv-x="1114" 
d="M512 240l-481 217v264l485 211v-262l-190 -84l186 -84v-262zM1083 240l-481 217v264l481 211v-262l-186 -82l186 -86v-262z" />
    <glyph glyph-name="logicalnot" unicode="&#xac;" horiz-adv-x="1388" 
d="M1356 285h-307v225h-1016v262h1323v-487z" />
    <glyph glyph-name="registered" unicode="&#xae;" horiz-adv-x="1931" 
d="M905 547v-68h60v-192h-412v192h88v375h-88v190h434q365 0 365 -241q0 -141 -111 -203q76 -82 186 -121v-192h-266q-11 13 -203 260h-53zM965 854h-60v-117h76q55 0 82 9q27 10 27 48t-32 49t-93 11zM272 686q0 -150 56 -246q100 -172 383 -230q127 -26 284 -26
q301 0 484 117q182 117 182 363t-187 365q-187 120 -499 120q-207 0 -360 -45q-153 -44 -248 -156t-95 -262zM29 666q0 499 572 619q167 36 372 36q412 0 661 -147q127 -76 198 -204t71 -300q0 -334 -251 -495t-669 -161t-676 145q-278 157 -278 507z" />
    <glyph glyph-name="macron" unicode="&#xaf;" horiz-adv-x="663" 
d="M633 1165h-600v240h600v-240z" />
    <glyph glyph-name="degree" unicode="&#xb0;" horiz-adv-x="1071" 
d="M530 1421q-110 0 -172 -47t-61 -134q0 -87 67 -132t176 -45t173 45q63 45 63 132t-68 134t-178 47zM31 1238q0 188 138 286q137 98 367 98t367 -98t137 -287t-138 -282t-368 -93t-367 94q-136 94 -136 282z" />
    <glyph glyph-name="plusminus" unicode="&#xb1;" horiz-adv-x="1384" 
d="M1354 37h-1323v262h518v211h-518v262h518v432h307v-432h498v-262h-498v-211h498v-262z" />
    <glyph glyph-name="twosuperior" unicode="&#xb2;" horiz-adv-x="1083" 
d="M1038 520l-8 6q8 -8 8 -6zM934 629q2 0 2 2zM907 670l2 -2q0 2 -2 2zM870 705q-4 4 -8 6zM856 717q-2 2 -4 2zM829 737l5 -2q-3 2 -5 2zM1053 508h-1022v240q55 29 271 135t266 138q50 31 67 55q16 25 16 52q1 74 -155 74t-232 -104l-227 155q88 109 204 149t304 40
t313 -73t125 -232q0 -62 -16 -92q-15 -30 -25 -47t-33 -37q-23 -19 -35 -31t-45 -32t-46 -30q-13 -8 -52 -30t-55 -33t-58 -31t-53 -26h252v73h236v-313z" />
    <glyph glyph-name="threesuperior" unicode="&#xb3;" horiz-adv-x="968" 
d="M440 494h-59q-154 0 -352 84l123 186q160 -49 262 -49h20q176 0 176 86q0 47 -70 60t-200 13h-45v199q206 0 252 32q23 15 23 47t-43 44q-42 12 -124 12q-133 0 -237 -75l-133 174q176 131 405 131q138 0 234 -22t162 -86t66 -168q0 -103 -60 -169q100 -57 100 -194v-13
q0 -164 -134 -228t-366 -64z" />
    <glyph glyph-name="acute" unicode="&#xb4;" horiz-adv-x="927" 
d="M897 1550l-438 -340h-428l438 340h428z" />
    <glyph glyph-name="paragraph" unicode="&#xb6;" horiz-adv-x="1896" 
d="M1538 240v999h-215v-999h215zM712 735q150 0 283 35v469h-161q-477 0 -478 -272q0 -123 102 -177q104 -54 254 -55zM760 0v240h235v284q-238 -58 -522 0q-444 94 -444 455q0 375 465 472q133 28 294 28h1078v-1479h-1106z" />
    <glyph glyph-name="periodcentered" unicode="&#xb7;" horiz-adv-x="448" 
d="M219 748q-86 0 -137 38t-51 114q0 75 52 116t139 41q88 0 142 -39t54 -117q0 -153 -199 -153z" />
    <glyph glyph-name="cedilla" unicode="&#xb8;" horiz-adv-x="702" 
d="M289 -356q-109 0 -256 57l88 184q131 -47 184 -47t53 31q0 18 -21 18t-36 -10l-223 193q18 20 241 305l254 -166l-18 -24q-28 -35 -70 -83q184 -51 185 -223q0 -235 -381 -235z" />
    <glyph glyph-name="onesuperior" unicode="&#xb9;" horiz-adv-x="808" 
d="M483 616v5h-2q0 -5 2 -5zM500 625q2 0 2 2zM512 633q2 0 2 2zM547 657q2 0 6 5zM565 670l-4 -2q2 0 4 2zM573 676q2 0 7 4zM176 510v219h141v418l-149 -125l-139 172l288 227h330v-692h131v-219h-602z" />
    <glyph glyph-name="ordmasculine" unicode="&#xba;" horiz-adv-x="1071" 
d="M530 1421q-110 0 -172 -47t-61 -134q0 -87 67 -132t176 -45t173 45q63 45 63 132t-68 134t-178 47zM31 1238q0 188 138 286q137 98 367 98t367 -98t137 -287t-138 -282t-368 -93t-367 94q-136 94 -136 282z" />
    <glyph glyph-name="guillemotright" unicode="&#xbb;" horiz-adv-x="1114" 
d="M602 240v262l186 84l-188 84v262l483 -211v-264zM31 240v262l186 86l-186 82v262l481 -211v-264z" />
    <glyph glyph-name="onequarter" unicode="&#xbc;" horiz-adv-x="2377" 
d="M1788 444v111l-113 -111h113zM483 639v4h-2q0 -4 2 -4zM500 647q2 0 2 2zM512 655q2 0 2 2zM547 680q2 0 6 4zM565 692l-4 -2q2 0 4 2zM573 698q2 0 7 4zM1556 -74v219h232v72h-342l-107 227l449 437h330v-437h163v-227h-163v-72h231v-219h-793zM762 -63h-299l1134 1503
h299zM176 532v220h141v417l-149 -125l-139 173l288 227h330v-692h131v-220h-602z" />
    <glyph glyph-name="onehalf" unicode="&#xbd;" horiz-adv-x="2449" 
d="M2406 -66l-8 7q8 -9 8 -7zM2302 43q2 0 2 2zM2275 84l2 -2q0 2 -2 2zM2238 119q-4 4 -8 6zM2224 131q-2 2 -4 2zM2198 152l4 -2q-2 2 -4 2zM483 639v4h-2q0 -4 2 -4zM500 647q2 0 2 2zM512 655q2 0 2 2zM547 680q2 0 6 4zM565 692l-4 -2q2 0 4 2zM573 698q2 0 7 4z
M2421 -78h-1022v240q55 28 229 114q237 116 297 152q60 35 77 61t17 54q1 73 -155 73t-232 -104l-227 156q88 108 204 148t304 40t313 -73t125 -232q0 -61 -16 -91q-15 -30 -25 -47t-33 -37t-38 -36q-15 -15 -92 -60q-77 -44 -107 -63t-107 -55h252v74h236v-314zM762 -63
h-299l1134 1503h299zM176 532v220h141v417l-149 -125l-139 173l288 227h330v-692h131v-220h-602z" />
    <glyph glyph-name="threequarters" unicode="&#xbe;" horiz-adv-x="2351" 
d="M1761 444v111l-112 -111h112zM440 494h-59q-154 0 -352 84l123 186q160 -49 262 -49h20q176 0 176 86q0 47 -70 60t-200 13h-45v199q206 0 252 32q23 15 23 47t-43 44q-42 12 -124 12q-133 0 -237 -75l-133 174q176 131 405 131q138 0 234 -22t162 -86t66 -168
q0 -103 -60 -169q100 -57 100 -194v-13q0 -164 -134 -228t-366 -64zM1530 -74v219h231v72h-342l-106 227l448 437h330v-437h164v-227h-164v-72h231v-219h-792zM774 -63h-299l1135 1503h299z" />
    <glyph glyph-name="questiondown" unicode="&#xbf;" horiz-adv-x="974" 
d="M662 -119q-274 0 -454 127q-179 128 -179 350t137 352t366 171v98h328v-334h-133q-169 0 -277 -71q-108 -72 -108 -200t97 -186t253 -59q66 0 150 23l104 -238q-123 -33 -284 -33zM696 1241q-195 0 -194 156q0 154 194 153q86 0 140 -40t53 -114t-55 -114
q-54 -41 -138 -41z" />
    <glyph glyph-name="Agrave" unicode="&#xc0;" horiz-adv-x="2312" 
d="M901 240v-240h-870v240h319l697 1239h303l620 -1239h311v-240h-868v240h215l-82 178h-751l-93 -178h199zM1430 670l-240 516l-264 -516h504zM1624 1640h-428q-72 55 -218 170t-220 170h428q74 -55 219 -170t219 -170z" />
    <glyph glyph-name="Aacute" unicode="&#xc1;" horiz-adv-x="2312" 
d="M901 240v-240h-870v240h319l697 1239h303l620 -1239h311v-240h-868v240h215l-82 178h-751l-93 -178h199zM1430 670l-240 516l-264 -516h504zM1642 1980l-438 -340h-428l438 340h428z" />
    <glyph glyph-name="Acircumflex" unicode="&#xc2;" horiz-adv-x="2312" 
d="M901 240v-240h-870v240h319l697 1239h303l620 -1239h311v-240h-868v240h215l-82 178h-751l-93 -178h199zM1430 670l-240 516l-264 -516h504zM524 1647l439 340h456q74 -55 219 -169t220 -171h-428q-160 123 -238 184l-240 -184h-428z" />
    <glyph glyph-name="Atilde" unicode="&#xc3;" horiz-adv-x="2312" 
d="M901 240v-240h-870v240h319l697 1239h303l620 -1239h311v-240h-868v240h215l-82 178h-751l-93 -178h199zM1430 670l-240 516l-264 -516h504zM1438 1896q68 0 118 148l127 -57h3q2 0 126 -54q-109 -295 -380 -295q-176 0 -316 107q-4 4 -41 30q-50 35 -100 35
q-86 0 -146 -149q-215 100 -245 115q86 287 381 286q93 0 161 -24t146 -82q78 -60 166 -60z" />
    <glyph glyph-name="Adieresis" unicode="&#xc4;" horiz-adv-x="2312" 
d="M901 240v-240h-870v240h319l697 1239h303l620 -1239h311v-240h-868v240h215l-82 178h-751l-93 -178h199zM1430 670l-240 516l-264 -516h504zM1438 1597q-86 0 -138 39q-51 39 -51 114q1 75 53 116t139 41t141 -39t54 -117q1 -154 -198 -154zM944 1597q-86 0 -137 39
t-51 114t52 116t139 41t141 -39t55 -117q0 -154 -199 -154z" />
    <glyph glyph-name="Aring" unicode="&#xc5;" horiz-adv-x="2312" 
d="M901 240v-240h-870v240h319l697 1239h303l620 -1239h311v-240h-868v240h215l-82 178h-751l-93 -178h199zM1430 670l-240 516l-264 -516h504zM1059 1925q0 -88 137 -88t137 88q0 53 -38 71t-107 17q-129 0 -129 -88zM766 1925q0 156 116 232q116 75 310 75t316 -74
q120 -74 120 -232q0 -156 -120 -232t-314 -76t-312 76q-116 76 -116 231z" />
    <glyph glyph-name="AE" unicode="&#xc6;" horiz-adv-x="2623" 
d="M33 0v240h375l790 999h-141v240h1446v-365h-252v125h-635v-356h719v-240h-719v-403h725v125h252v-365h-1536v240h229v116h-442l-86 -116h145v-240h-870zM1286 608v338l-252 -338h252z" />
    <glyph glyph-name="Ccedilla" unicode="&#xc7;" horiz-adv-x="1724" 
d="M754 -522q-109 0 -256 57l88 184q131 -47 184 -47t53 31q0 18 -21 18t-36 -10l-223 193q2 2 35 44t57 72q-285 56 -445 228t-159 457q-1 199 73 351q138 284 522 386q179 47 400 47q307 0 668 -150v-348h-252v185q-188 63 -430 63q-297 0 -474 -132q-178 -132 -178 -381
t166 -368t447 -118q174 0 304 30t269 111l74 -100q2 0 74 -103q-168 -98 -326 -142t-373 -46q-12 -16 -45 -53q184 -51 185 -224q0 -235 -381 -235z" />
    <glyph glyph-name="Egrave" unicode="&#xc8;" horiz-adv-x="1597" 
d="M31 0v240h229v999h-229v240h1446v-365h-252v125h-635v-356h719v-240h-719v-403h725v125h252v-365h-1536zM1233 1640h-428q-74 55 -220 170t-218 170h428q72 -55 219 -170t219 -170z" />
    <glyph glyph-name="Eacute" unicode="&#xc9;" horiz-adv-x="1597" 
d="M31 0v240h229v999h-229v240h1446v-365h-252v125h-635v-356h719v-240h-719v-403h725v125h252v-365h-1536zM1251 1980l-438 -340h-428l438 340h428z" />
    <glyph glyph-name="Ecircumflex" unicode="&#xca;" horiz-adv-x="1597" 
d="M31 0v240h229v999h-229v240h1446v-365h-252v125h-635v-356h719v-240h-719v-403h725v125h252v-365h-1536zM133 1647l438 340h457q72 -55 218 -169t220 -171h-428q-160 123 -237 184l-240 -184h-428z" />
    <glyph glyph-name="Edieresis" unicode="&#xcb;" horiz-adv-x="1597" 
d="M31 0v240h229v999h-229v240h1446v-365h-252v125h-635v-356h719v-240h-719v-403h725v125h252v-365h-1536zM1047 1597q-86 0 -138 39q-51 39 -51 114t52 116t140 41t141 -39q54 -39 54 -117q1 -154 -198 -154zM553 1597q-86 0 -137 39t-51 114t52 116t139 41t141 -39
t55 -117q0 -154 -199 -154z" />
    <glyph glyph-name="Igrave" unicode="&#xcc;" horiz-adv-x="927" 
d="M70 0v240h229v999h-229v240h794v-240h-235v-999h235v-240h-794zM897 1640h-426q-104 80 -440 340h428q72 -55 218 -170t220 -170z" />
    <glyph glyph-name="Iacute" unicode="&#xcd;" horiz-adv-x="927" 
d="M51 0v240h230v999h-230v240h795v-240h-236v-999h236v-240h-795zM897 1980l-438 -340h-428l438 340h428z" />
    <glyph glyph-name="Icircumflex" unicode="&#xce;" horiz-adv-x="1394" 
d="M303 0v240h229v999h-229v240h795v-240h-236v-999h236v-240h-795zM31 1647q299 236 438 340h457q139 -104 438 -340h-426l-240 184l-239 -184h-428z" />
    <glyph glyph-name="Idieresis" unicode="&#xcf;" horiz-adv-x="942" 
d="M72 0v240h229v999h-229v240h794v-240h-235v-999h235v-240h-794zM713 1597q-86 0 -138 39q-51 39 -51 114t52 116t140 41q87 0 141 -39t54 -117q1 -154 -198 -154zM219 1597q-86 0 -137 39t-51 114t52 116t139 41q88 0 142 -39t54 -117q0 -154 -199 -154z" />
    <glyph glyph-name="Eth" unicode="&#xd0;" horiz-adv-x="1961" 
d="M1036 588h-450v-348h387q633 0 633 475q0 524 -691 524h-329v-387h450v-264zM31 0v240h227v348h-156v264h156v387h-227v240h901q999 0 999 -754q0 -394 -264 -559q-264 -166 -719 -166h-917z" />
    <glyph glyph-name="Ntilde" unicode="&#xd1;" horiz-adv-x="2295" 
d="M31 0v240h233v999h-231v240h604l1106 -1149v909h-232v240h754v-240h-194v-1239h-414q-178 184 -533 553q-354 369 -532 553v-866h233v-240h-794zM1372 1896q68 0 119 148l127 -57h2q2 0 127 -54q-109 -295 -381 -295q-176 0 -315 107q-9 9 -53 37t-89 28q-86 0 -145 -149
q-215 100 -246 115q86 287 381 286q92 0 161 -24q68 -24 146 -82q78 -60 166 -60z" />
    <glyph glyph-name="Ograve" unicode="&#xd2;" horiz-adv-x="1929" 
d="M360 735q0 -239 168 -367t440 -128t437 132q164 132 164 372t-171 368q-172 127 -444 127t-433 -132t-161 -372zM31 737q0 244 125 416q244 336 821 336q414 0 668 -194q253 -193 253 -555t-260 -556t-678 -194t-674 194t-255 553zM1399 1640h-428q-72 55 -218 170
t-221 170h429q72 -55 219 -170t219 -170z" />
    <glyph glyph-name="Oacute" unicode="&#xd3;" horiz-adv-x="1929" 
d="M360 735q0 -239 168 -367t440 -128t437 132q164 132 164 372t-171 368q-172 127 -444 127t-433 -132t-161 -372zM31 737q0 244 125 416q244 336 821 336q414 0 668 -194q253 -193 253 -555t-260 -556t-678 -194t-674 194t-255 553zM1417 1980l-438 -340h-428l438 340h428
z" />
    <glyph glyph-name="Ocircumflex" unicode="&#xd4;" horiz-adv-x="1929" 
d="M360 735q0 -239 168 -367t440 -128t437 132q164 132 164 372t-171 368q-172 127 -444 127t-433 -132t-161 -372zM31 737q0 244 125 416q244 336 821 336q414 0 668 -194q253 -193 253 -555t-260 -556t-678 -194t-674 194t-255 553zM299 1647l438 340h457
q139 -104 438 -340h-428q-160 123 -237 184l-240 -184h-428z" />
    <glyph glyph-name="Otilde" unicode="&#xd5;" horiz-adv-x="1929" 
d="M360 735q0 -239 168 -367t440 -128t437 132q164 132 164 372t-171 368q-172 127 -444 127t-433 -132t-161 -372zM31 737q0 244 125 416q244 336 821 336q414 0 668 -194q253 -193 253 -555t-260 -556t-678 -194t-674 194t-255 553zM1212 1896q68 0 119 148l127 -57h2
q2 0 127 -54q-109 -295 -381 -295q-176 0 -315 107q-4 4 -26 19q-23 16 -29 20q-38 26 -86 26q-86 0 -146 -149q-215 100 -246 115q86 287 381 286q92 0 161 -24q68 -24 146 -82q78 -60 166 -60z" />
    <glyph glyph-name="Odieresis" unicode="&#xd6;" horiz-adv-x="1929" 
d="M360 735q0 -239 168 -367t440 -128t437 132q164 132 164 372t-171 368q-172 127 -444 127t-433 -132t-161 -372zM31 737q0 244 125 416q244 336 821 336q414 0 668 -194q253 -193 253 -555t-260 -556t-678 -194t-674 194t-255 553zM1212 1597q-86 0 -137 39t-51 114
t52 116t139 41t141 -39t55 -117q0 -154 -199 -154zM719 1597q-86 0 -137 39q-52 39 -52 114t52 116t140 41q87 0 141 -39t55 -117q0 -154 -199 -154z" />
    <glyph glyph-name="multiply" unicode="&#xd7;" horiz-adv-x="1183" 
d="M967 80l-375 375l-375 -375l-186 186l375 375l-375 375l186 186l375 -375l375 375l186 -186l-375 -375l375 -375z" />
    <glyph glyph-name="Oslash" unicode="&#xd8;" horiz-adv-x="1929" 
d="M31 737q0 244 125 416q244 336 821 336q190 0 350 -43l131 176l215 -131l-108 -141q334 -199 333 -607q0 -365 -260 -559t-680 -194q-215 0 -383 51l-137 -180l-186 143l100 133q-321 201 -321 600zM973 240q268 0 432 132t164 372t-178 372l-646 -850q101 -26 228 -26z
M360 738q0 -237 164 -367l633 848q-94 20 -211 20q-264 0 -425 -132t-161 -369z" />
    <glyph glyph-name="Ugrave" unicode="&#xd9;" horiz-adv-x="2187" 
d="M1909 606q0 -328 -212 -472q-211 -144 -609 -144t-606 136t-208 454v659h-243l2 121v119h792v-240h-252v-616q-1 -203 139 -286t390 -83t379 74t129 252v659h-246v240h793v-240h-248v-633zM1528 1640h-428q-72 55 -219 170t-219 170h428q74 -55 219 -170t219 -170z" />
    <glyph glyph-name="Uacute" unicode="&#xda;" horiz-adv-x="2187" 
d="M1909 606q0 -328 -212 -472q-211 -144 -609 -144t-606 136t-208 454v659h-243l2 121v119h792v-240h-252v-616q-1 -203 139 -286t390 -83t379 74t129 252v659h-246v240h793v-240h-248v-633zM1546 1980l-438 -340h-428l438 340h428z" />
    <glyph glyph-name="Ucircumflex" unicode="&#xdb;" horiz-adv-x="2187" 
d="M1909 606q0 -328 -212 -472q-211 -144 -609 -144t-606 136t-208 454v659h-243l2 121v119h792v-240h-252v-616q-1 -203 139 -286t390 -83t379 74t129 252v659h-246v240h793v-240h-248v-633zM428 1647q195 154 438 340h457q72 -55 218 -169t220 -171h-428
q-160 123 -237 184l-240 -184h-428z" />
    <glyph glyph-name="Udieresis" unicode="&#xdc;" horiz-adv-x="2187" 
d="M1909 606q0 -328 -212 -472q-211 -144 -609 -144t-606 136t-208 454v659h-243l2 121v119h792v-240h-252v-616q-1 -203 139 -286t390 -83t379 74t129 252v659h-246v240h793v-240h-248v-633zM1341 1597q-86 0 -137 39t-51 114t52 116t139 41q88 0 142 -39t54 -117
q0 -154 -199 -154zM848 1597q-86 0 -137 39t-51 114t52 116t139 41t141 -39t55 -117q0 -154 -199 -154z" />
    <glyph glyph-name="Yacute" unicode="&#xdd;" horiz-adv-x="1826" 
d="M1079 240h217v-240h-794v240h217v469l-422 530h-266v240h794v-240h-194q187 -234 272 -346q96 117 289 346h-191v240h795v-240h-270l-447 -532v-467zM1364 1980l-438 -340h-428l438 340h428z" />
    <glyph glyph-name="Thorn" unicode="&#xde;" horiz-adv-x="1546" 
d="M31 0v240h231v999h-231v240h794v-240h-235v-53h207q299 0 505 -95q101 -49 157 -135q57 -86 57 -200t-50 -199q-50 -84 -141 -132q-182 -97 -453 -99q-143 0 -282 28v-114h235v-240h-794zM863 561q140 0 233 44q92 44 92 138q0 203 -436 203h-162v-350q133 -35 273 -35z
" />
    <glyph glyph-name="germandbls" unicode="&#xdf;" horiz-adv-x="1634" 
d="M262 1196q0 152 86 250t223 139t322 41q283 0 453 -96t170 -311q0 -184 -138 -283q225 -104 226 -346q0 -199 -134 -302t-378 -141l-60 246q157 26 204 68q54 44 54 118q0 148 -146 198q-118 40 -306 40v203q274 0 337 88q28 39 27 98q0 106 -89 144t-231 36
q-292 -1 -292 -190v-956h235v-240h-794v240h231v956z" />
    <glyph glyph-name="agrave" unicode="&#xe0;" 
d="M963 0v119q-184 -129 -426 -129q-506 0 -506 348q0 149 102 227q43 33 123 56t196 38t292 27t219 16q-8 107 -105 137q-75 23 -216 23q-140 0 -280 -71v-105h-251v260q254 156 583 156q441 0 551 -178q45 -74 45 -185v-499h213v-240h-540zM584 223q182 0 379 146v127
q-248 -27 -366 -36t-164 -25q-46 -15 -62 -39t-17 -58q1 -115 230 -115zM1118 1257h-428q-72 55 -218 169t-220 171h428q195 -154 438 -340z" />
    <glyph glyph-name="aacute" unicode="&#xe1;" 
d="M963 0v119q-184 -129 -426 -129q-506 0 -506 348q0 149 102 227q43 33 123 56t196 38t292 27t219 16q-8 107 -105 137q-75 23 -216 23q-140 0 -280 -71v-105h-251v260q254 156 583 156q441 0 551 -178q45 -74 45 -185v-499h213v-240h-540zM584 223q182 0 379 146v127
q-248 -27 -366 -36t-164 -25q-46 -15 -62 -39t-17 -58q1 -115 230 -115zM1137 1597l-439 -340h-428q164 125 439 340h428z" />
    <glyph glyph-name="acircumflex" unicode="&#xe2;" horiz-adv-x="1546" 
d="M975 0v119q-184 -129 -426 -129q-506 0 -506 348q0 147 102 227q43 33 123 56t198 38t292 27t217 16q-8 107 -105 137q-75 23 -215 23t-280 -71v-105h-252v260q254 156 584 156q440 0 550 -178q45 -74 46 -185v-499h213v-240h-541zM596 223q182 0 379 146v127
q-248 -27 -348 -35q-135 -11 -197 -31q-63 -20 -63 -92q0 -115 229 -115zM31 1264l438 340h457q74 -55 220 -170t218 -170h-428q-160 123 -238 184l-239 -184h-428z" />
    <glyph glyph-name="atilde" unicode="&#xe3;" 
d="M963 0v119q-184 -129 -426 -129q-506 0 -506 348q0 149 102 227q43 33 123 56t196 38t292 27t219 16q-8 107 -105 137q-75 23 -216 23q-140 0 -280 -71v-105h-251v260q254 156 583 156q441 0 551 -178q45 -74 45 -185v-499h213v-240h-540zM584 223q182 0 379 146v127
q-248 -27 -366 -36t-164 -25q-46 -15 -62 -39t-17 -58q1 -115 230 -115zM932 1513q68 0 119 148l127 -57h2q2 0 127 -54q-109 -295 -381 -295q-176 0 -316 107q-4 4 -41 30q-50 35 -100 35q-86 0 -145 -149q-215 100 -246 115q86 287 381 286q92 1 161 -23q68 -24 146 -84
t166 -59z" />
    <glyph glyph-name="adieresis" unicode="&#xe4;" 
d="M963 0v119q-184 -129 -426 -129q-506 0 -506 348q0 149 102 227q43 33 123 56t196 38t292 27t219 16q-8 107 -105 137q-75 23 -216 23q-140 0 -280 -71v-105h-251v260q254 156 583 156q441 0 551 -178q45 -74 45 -185v-499h213v-240h-540zM584 223q182 0 379 146v127
q-248 -27 -366 -36t-164 -25q-46 -15 -62 -39t-17 -58q1 -115 230 -115zM932 1214q-86 0 -137 39t-51 114t52 116t139 41t141 -39t54 -117q1 -154 -198 -154zM438 1214q-86 0 -137 39t-51 114t52 116t139 41t141 -39t55 -117q0 -154 -199 -154z" />
    <glyph glyph-name="aring" unicode="&#xe5;" 
d="M963 0v119q-184 -129 -426 -129q-506 0 -506 348q0 149 102 227q43 33 123 56t196 38t292 27t219 16q-8 107 -105 137q-75 23 -216 23q-140 0 -280 -71v-105h-251v260q254 156 583 156q441 0 551 -178q45 -74 45 -185v-499h213v-240h-540zM584 223q182 0 379 146v127
q-248 -27 -366 -36t-164 -25q-46 -15 -62 -39t-17 -58q1 -115 230 -115zM553 1542q0 -88 137 -88t137 88q0 53 -37 71q-38 17 -108 17q-129 0 -129 -88zM260 1542q0 156 116 232t310 76t316 -76q120 -74 120 -231t-120 -233t-314 -75q-194 -1 -312 75q-116 76 -116 232z" />
    <glyph glyph-name="ae" unicode="&#xe6;" horiz-adv-x="2336" 
d="M584 223q112 0 204 40t199 124q-8 25 -16 70h-82q-167 1 -313 -11t-181 -32q-39 -27 -41 -76q1 -115 230 -115zM1642 860q-274 0 -335 -186h682q-36 186 -347 186zM1718 -10q-420 0 -610 188q-133 -104 -261 -146t-310 -42q-506 0 -506 348q0 139 72 200q40 34 79 56
t112 35q245 47 568 47h101v8q0 91 -63 135q-63 43 -230 43q-168 0 -308 -71v-105h-251v260q253 156 593 156t476 -109q178 107 479 107t474 -123t173 -381v-141h-997q70 -225 409 -226q168 0 330 99l180 -199q-120 -75 -236 -107t-274 -32z" />
    <glyph glyph-name="ccedilla" unicode="&#xe7;" horiz-adv-x="1331" 
d="M645 -508q-109 0 -256 57l88 185q131 -47 184 -47t54 30q1 19 -21 19t-37 -10l-223 192q14 16 76 96q-479 92 -479 533q0 299 217 431q198 124 543 124q268 0 509 -141v-336h-251v178q-127 49 -267 49q-422 0 -422 -306t435 -306q193 0 323 102l88 -100l86 -103
q-145 -123 -413 -145l-37 -43q184 -51 184 -223q0 -236 -381 -236z" />
    <glyph glyph-name="egrave" unicode="&#xe8;" horiz-adv-x="1404" 
d="M711 860q-274 0 -336 -186h682q-35 186 -346 186zM786 -10q-352 0 -554 140t-202 426t186 416q184 128 498 128t487 -123t173 -381v-141h-997q70 -225 409 -226q168 0 330 99l180 -199q-120 -75 -236 -107t-274 -32zM1145 1260h-428q-313 248 -438 339h428
q74 -55 219 -169t219 -170z" />
    <glyph glyph-name="eacute" unicode="&#xe9;" horiz-adv-x="1404" 
d="M711 860q-274 0 -336 -186h682q-35 186 -346 186zM786 -10q-352 0 -554 140t-202 426t186 416q184 128 498 128t487 -123t173 -381v-141h-997q70 -225 409 -226q168 0 330 99l180 -199q-120 -75 -236 -107t-274 -32zM1163 1599l-438 -339h-428l438 339h428z" />
    <glyph glyph-name="ecircumflex" unicode="&#xea;" horiz-adv-x="1409" 
d="M711 860q-274 0 -336 -186h682q-35 186 -346 186zM786 -10q-352 0 -554 140t-202 426t186 416q184 128 498 128t487 -123t173 -381v-141h-997q70 -225 409 -226q168 0 330 99l180 -199q-120 -75 -236 -107t-274 -32zM45 1266l438 340h457q72 -57 219 -170t219 -170h-428
q-160 123 -237 184l-240 -184h-428z" />
    <glyph glyph-name="edieresis" unicode="&#xeb;" horiz-adv-x="1404" 
d="M711 860q-274 0 -336 -186h682q-35 186 -346 186zM786 -10q-352 0 -554 140t-202 426t186 416q184 128 498 128t487 -123t173 -381v-141h-997q70 -225 409 -226q168 0 330 99l180 -199q-120 -75 -236 -107t-274 -32zM958 1217q-86 1 -137 39t-51 113t52 116t140 41
t141 -39q54 -39 54 -117q0 -153 -199 -153zM465 1217q-86 1 -137 39q-52 38 -52 113t52 116t140 41q87 0 141 -39t55 -117q0 -153 -199 -153z" />
    <glyph glyph-name="igrave" unicode="&#xec;" horiz-adv-x="970" 
d="M172 0v240h227v612h-227v240h571v-852h197v-240h-768zM897 1270h-428q-74 57 -220 171t-218 169h428q74 -55 219 -169t219 -171z" />
    <glyph glyph-name="iacute" unicode="&#xed;" horiz-adv-x="942" 
d="M31 0v240h227v612h-227v240h571v-852h197v-240h-768zM911 1614l-438 -340h-428l438 340h428z" />
    <glyph glyph-name="icircumflex" unicode="&#xee;" horiz-adv-x="1394" 
d="M309 0v240h228v612h-228v240h572v-852h196v-240h-768zM31 1260q313 248 438 339h457q160 -119 438 -339h-426l-240 184l-239 -184h-428z" />
    <glyph glyph-name="idieresis" unicode="&#xef;" horiz-adv-x="942" 
d="M78 0v240h227v612h-227v240h571v-852h197v-240h-768zM713 1219q-86 0 -138 38q-51 39 -51 114t52 116t140 41q87 0 141 -39t54 -117q1 -153 -198 -153zM219 1219q-86 1 -137 39t-51 113t52 116t139 41q88 0 142 -39t54 -117q0 -153 -199 -153z" />
    <glyph glyph-name="eth" unicode="&#xf0;" horiz-adv-x="1470" 
d="M692 274q424 0 434 263q-133 156 -401 155q-365 0 -365 -225q0 -109 88 -151t244 -42zM1440 537q0 -275 -200 -411t-520 -136t-505 120q-184 120 -184 364t180 358q180 112 483 112q188 0 322 -57q-129 162 -459 258l-178 -178l-141 141l92 92q-139 29 -213 41l28 131
q0 6 29 131q244 -37 387 -76q57 59 182 185l142 -142l-109 -108q664 -238 664 -825z" />
    <glyph glyph-name="ntilde" unicode="&#xf1;" horiz-adv-x="1843" 
d="M31 0v240h231v612h-231v240h561v-111q178 111 437 111t405 -108t147 -335v-409h231v-240h-768v240h209v385q0 227 -297 227q-223 0 -364 -141v-471h205v-240h-766zM1223 1516q68 0 118 147l127 -57h2q2 0 127 -54q-109 -295 -380 -295q-176 0 -316 107q-4 4 -41 30
q-48 33 -100 36q-86 0 -146 -150q-215 100 -245 115q86 287 381 286q92 1 160 -23t147 -83q78 -59 166 -59z" />
    <glyph glyph-name="ograve" unicode="&#xf2;" horiz-adv-x="1538" 
d="M1180 544q0 154 -116 236t-304 82t-294 -82t-106 -236q0 -155 113 -235t300 -80t297 80t110 235zM31 542q0 274 201 417q202 143 538 143t537 -142t201 -420t-202 -414t-540 -136t-537 139q-198 139 -198 413zM1200 1262h-428q-123 97 -438 340h428q123 -97 438 -340z
" />
    <glyph glyph-name="oacute" unicode="&#xf3;" horiz-adv-x="1538" 
d="M1180 544q0 154 -116 236t-304 82t-294 -82t-106 -236q0 -155 113 -235t300 -80t297 80t110 235zM31 542q0 274 201 417q202 143 538 143t537 -142t201 -420t-202 -414t-540 -136t-537 139q-198 139 -198 413zM1219 1602l-439 -340h-428l439 340h428z" />
    <glyph glyph-name="ocircumflex" unicode="&#xf4;" horiz-adv-x="1538" 
d="M1180 544q0 154 -116 236t-304 82t-294 -82t-106 -236q0 -155 113 -235t300 -80t297 80t110 235zM31 542q0 274 201 417q202 143 538 143t537 -142t201 -420t-202 -414t-540 -136t-537 139q-198 139 -198 413zM100 1268l439 340h456q74 -55 220 -170t219 -170h-428
q-160 123 -238 184l-240 -184h-428z" />
    <glyph glyph-name="otilde" unicode="&#xf5;" horiz-adv-x="1538" 
d="M1180 544q0 154 -116 236t-304 82t-294 -82t-106 -236q0 -155 113 -235t300 -80t297 80t110 235zM31 542q0 274 201 417q202 143 538 143t537 -142t201 -420t-202 -414t-540 -136t-537 139q-198 139 -198 413zM1014 1518q68 0 119 147l127 -57h2q2 0 127 -54
q-109 -295 -381 -294q-176 0 -316 106q-4 4 -41 30q-48 33 -100 36q-86 0 -145 -150q-215 100 -246 115q86 287 381 286q93 1 161 -23t146 -83t166 -59z" />
    <glyph glyph-name="odieresis" unicode="&#xf6;" horiz-adv-x="1538" 
d="M1180 544q0 154 -116 236t-304 82t-294 -82t-106 -236q0 -155 113 -235t300 -80t297 80t110 235zM31 542q0 274 201 417q202 143 538 143t537 -142t201 -420t-202 -414t-540 -136t-537 139q-198 139 -198 413zM1014 1219q-86 1 -137 39t-51 113t52 116t139 41t141 -39
t54 -117q1 -153 -198 -153zM520 1219q-86 1 -137 39t-51 113t52 116t139 41t141 -39t55 -117q0 -153 -199 -153z" />
    <glyph glyph-name="divide" unicode="&#xf7;" horiz-adv-x="1384" 
d="M668 168q-86 0 -138 39q-51 39 -51 114t52 115q51 40 139 41q88 0 142 -39t54 -116q1 -154 -198 -154zM31 510v262h1323v-262h-1323zM668 803q-86 0 -138 39q-51 40 -51 114t52 115q51 41 139 41t142 -39t54 -117q1 -153 -198 -153z" />
    <glyph glyph-name="oslash" unicode="&#xf8;" horiz-adv-x="1538" 
d="M31 549q0 268 201 410q202 142 538 143q145 0 260 -27l117 158l215 -131l-90 -119q236 -147 236 -434t-202 -423t-544 -136q-123 0 -230 18l-141 -186l-186 143l92 123q-266 142 -266 461zM778 229q182 0 292 80q110 81 110 223t-82 220l-396 -519q49 -4 76 -4zM360 549
q0 -150 105 -234l401 539q-47 8 -112 8q-182 0 -288 -82t-106 -231z" />
    <glyph glyph-name="ugrave" unicode="&#xf9;" horiz-adv-x="1800" 
d="M1235 0v109q-168 -119 -373 -119q-284 0 -442 110t-158 342v410h-231v240h561v-637q0 -115 79 -170t216 -56q190 0 348 154v469h-234v240h564v-852h204v-240h-534zM1309 1260h-428q-275 217 -439 339h428q72 -55 218 -169t221 -170z" />
    <glyph glyph-name="uacute" unicode="&#xfa;" horiz-adv-x="1800" 
d="M1235 0v109q-168 -119 -373 -119q-284 0 -442 110t-158 342v410h-231v240h561v-637q0 -115 79 -170t216 -56q190 0 348 154v469h-234v240h564v-852h204v-240h-534zM1327 1599q-160 -119 -438 -339h-428q313 248 438 339h428z" />
    <glyph glyph-name="ucircumflex" unicode="&#xfb;" horiz-adv-x="1800" 
d="M1235 0v109q-168 -119 -373 -119q-284 0 -442 110t-158 342v410h-231v240h561v-637q0 -115 79 -170t216 -56q190 0 348 154v469h-234v240h564v-852h204v-240h-534zM209 1266q123 97 438 340h457q74 -57 219 -170t219 -170h-428q-160 123 -237 184l-240 -184h-428z" />
    <glyph glyph-name="udieresis" unicode="&#xfc;" horiz-adv-x="1800" 
d="M1235 0v109q-168 -119 -373 -119q-284 0 -442 110t-158 342v410h-231v240h561v-637q0 -115 79 -170t216 -56q190 0 348 154v469h-234v240h564v-852h204v-240h-534zM1122 1217q-86 1 -137 39t-51 113t52 116t139 41t141 -39t55 -117q0 -153 -199 -153zM629 1217
q-86 1 -137 39q-52 38 -52 113t52 116t140 41q87 0 141 -39t54 -117q1 -153 -198 -153z" />
    <glyph glyph-name="yacute" unicode="&#xfd;" horiz-adv-x="1812" 
d="M31 -614v239h348l340 535q-55 94 -410 692h-258v240h795v-240h-209q100 -182 240 -444l282 444h-172v240h795v-240h-289l-930 -1466h-532zM1356 1599l-438 -339h-429q234 185 439 339h428z" />
    <glyph glyph-name="thorn" unicode="&#xfe;" horiz-adv-x="1740" 
d="M31 -614v239h233v1774h-231l2 121v118h557v-620q205 88 412 88q314 0 510 -151t196 -404v-4q0 -273 -201 -415t-516 -142q-240 0 -401 63v-428h207v-239h-768zM993 229h6q170 0 277 75q106 75 106 226v9q0 147 -106 237t-302 90t-382 -110v-441q112 -51 196 -69t205 -17z
" />
    <glyph glyph-name="ydieresis" unicode="&#xff;" horiz-adv-x="1812" 
d="M31 -614v239h348l340 535q-55 94 -410 692h-258v240h795v-240h-209q100 -182 240 -444l282 444h-172v240h795v-240h-289l-930 -1466h-532zM1151 1217q-86 1 -137 39t-51 113t52 116t139 41t141 -39t55 -117q0 -153 -199 -153zM657 1217q-86 1 -137 39t-51 113t52 116
t139 41q88 0 142 -39t54 -117q0 -153 -199 -153z" />
    <glyph glyph-name="Amacron" unicode="&#x100;" horiz-adv-x="2312" 
d="M901 240v-240h-870v240h319l697 1239h303l620 -1239h311v-240h-868v240h215l-82 178h-751l-93 -178h199zM1430 670l-240 516l-264 -516h504zM1489 1640h-600v240h600v-240z" />
    <glyph glyph-name="amacron" unicode="&#x101;" 
d="M963 0v119q-184 -129 -426 -129q-506 0 -506 348q0 149 102 227q43 33 123 56t196 38t292 27t219 16q-8 107 -105 137q-75 23 -216 23q-140 0 -280 -71v-105h-251v260q254 156 583 156q441 0 551 -178q45 -74 45 -185v-499h213v-240h-540zM584 223q182 0 379 146v127
q-248 -27 -366 -36t-164 -25q-46 -15 -62 -39t-17 -58q1 -115 230 -115zM983 1257h-600v240h600v-240z" />
    <glyph glyph-name="Abreve" unicode="&#x102;" horiz-adv-x="2312" 
d="M901 240v-240h-870v240h319l697 1239h303l620 -1239h311v-240h-868v240h215l-82 178h-751l-93 -178h199zM1430 670l-240 516l-264 -516h504zM1018 1933q0 -55 43 -69t127 -13q84 -1 118 9t46 26t12 45h313q0 -317 -487 -317t-488 319h316z" />
    <glyph glyph-name="abreve" unicode="&#x103;" 
d="M963 0v119q-184 -129 -426 -129q-506 0 -506 348q0 149 102 227q43 33 123 56t196 38t292 27t219 16q-8 107 -105 137q-75 23 -216 23q-140 0 -280 -71v-105h-251v260q254 156 583 156q441 0 551 -178q45 -74 45 -185v-499h213v-240h-540zM584 223q182 0 379 146v127
q-248 -27 -366 -36t-164 -25q-46 -15 -62 -39t-17 -58q1 -115 230 -115zM512 1550q0 -54 43 -68t127 -14t118 10t46 25q12 16 12 45h313q0 -317 -487 -317t-487 319h315z" />
    <glyph glyph-name="Aogonek" unicode="&#x104;" horiz-adv-x="2314" 
d="M1432 670l-240 516l-264 -516h504zM2284 240v-240h-271q-12 -4 -70 -19t-68 -34q-11 -20 -11 -37q0 -45 65 -45q25 0 99 29l149 -191q-163 -68 -299 -68t-232 68t-96 199q0 57 23 98h-158v240h215q-16 41 -82 178h-751l-92 -178h198v-240h-870v240h319l697 1239h303
l620 -1239h312z" />
    <glyph glyph-name="aogonek" unicode="&#x105;" 
d="M584 223q182 0 379 146v127q-248 -27 -366 -36t-164 -25q-46 -15 -62 -39t-17 -58q1 -115 230 -115zM793 -88q0 86 51 137q-135 -59 -307 -59q-506 0 -506 348q0 149 102 227q43 33 123 56t196 38t292 27t219 16q-8 107 -105 137q-75 23 -216 23q-140 0 -280 -71v-105
h-251v260q254 156 583 156q441 0 551 -178q45 -74 45 -185v-499h213v-240h-282q-72 -18 -93 -38q-22 -19 -22 -42q0 -45 65 -45q25 0 99 29l149 -191q-331 -139 -530 0q-96 68 -96 199z" />
    <glyph glyph-name="Cacute" unicode="&#x106;" horiz-adv-x="1724" 
d="M958 -10q-426 0 -676 177t-251 538q-1 199 73 351q138 284 522 386q179 47 400 47q307 0 668 -150v-348h-252v185q-188 63 -430 63q-297 0 -474 -132q-178 -132 -178 -381t166 -368t447 -118q174 0 304 30t269 111l74 -100q2 -1 74 -103q-172 -102 -337 -145t-399 -43z
M1444 1980l-438 -340h-428l438 340h428z" />
    <glyph glyph-name="cacute" unicode="&#x107;" horiz-adv-x="1331" 
d="M791 1102q268 0 509 -141v-336h-251v178q-127 49 -267 49q-422 0 -422 -306t435 -306q193 0 323 102l88 -100l86 -103q-180 -149 -520 -149t-541 134t-201 428t218 426q198 124 543 124zM1219 1599l-439 -339h-428q74 57 219 171t220 168h428z" />
    <glyph glyph-name="Ccaron" unicode="&#x10c;" horiz-adv-x="1724" 
d="M958 -10q-426 0 -676 177t-251 538q-1 199 73 351q138 284 522 386q179 47 400 47q307 0 668 -150v-348h-252v185q-188 63 -430 63q-297 0 -474 -132q-178 -132 -178 -381t166 -368t447 -118q174 0 304 30t269 111l74 -100q2 -1 74 -103q-172 -102 -337 -145t-399 -43z
M1657 1970q-315 -243 -438 -340h-457q-74 57 -219 170t-219 170h428l239 -184q78 61 238 184h428z" />
    <glyph glyph-name="ccaron" unicode="&#x10d;" horiz-adv-x="1462" 
d="M791 1102q268 0 509 -141v-336h-251v178q-127 49 -267 49q-422 0 -422 -306t435 -306q193 0 323 102l88 -100l86 -103q-180 -149 -520 -149t-541 134t-201 428t218 426q198 124 543 124zM1432 1589l-439 -340h-456q-71 55 -219 170t-220 170h428l240 -184q78 61 238 184
h428z" />
    <glyph glyph-name="Dcaron" unicode="&#x10e;" horiz-adv-x="1961" 
d="M915 1239h-329v-999h387q633 0 633 475q-1 524 -691 524zM31 0v240h227v999h-227v240h901q999 0 999 -754q0 -394 -264 -559q-264 -166 -719 -166h-917zM1581 1970l-438 -340h-457q-315 243 -438 340h428l239 -184q78 61 238 184h428z" />
    <glyph glyph-name="dcaron" unicode="&#x10f;" horiz-adv-x="2291" 
d="M31 537q0 281 216 423t560 142q180 0 348 -64v361h-225v239h569v-1398h227v-240h-571v61q-133 -71 -315 -71q-359 1 -574 125q-111 63 -173 171t-62 251zM813 229q207 0 342 103v456q-137 74 -340 74t-330 -77t-127 -237t124 -240q124 -79 331 -79zM1927 1169h-330
l244 471h420z" />
    <glyph glyph-name="Dcroat" unicode="&#x110;" horiz-adv-x="1957" 
d="M1034 588h-450v-348h387q633 0 633 475q0 524 -691 524h-329v-387h450v-264zM29 0v240h227v348h-156v264h156v387h-227v240h901q999 0 999 -754q0 -394 -264 -559q-264 -166 -719 -166h-917z" />
    <glyph glyph-name="dcroat" unicode="&#x111;" horiz-adv-x="1753" 
d="M29 537q0 281 216 423t560 142q180 0 348 -64v127h-405v181h405v53h-225v239h569v-292h152v-181h-152v-925h227v-240h-571v61q-133 -71 -315 -71q-359 1 -574 125q-111 63 -173 171t-62 251zM811 229q207 0 342 103v456q-137 74 -340 74t-330 -77t-127 -237t124 -240
q124 -79 331 -79z" />
    <glyph glyph-name="Emacron" unicode="&#x112;" horiz-adv-x="1597" 
d="M31 0v240h229v999h-229v240h1446v-365h-252v125h-635v-356h719v-240h-719v-403h725v125h252v-365h-1536zM1098 1640h-600v240h600v-240z" />
    <glyph glyph-name="emacron" unicode="&#x113;" horiz-adv-x="1404" 
d="M711 860q-274 0 -336 -186h682q-35 186 -346 186zM786 -10q-352 0 -554 140t-202 426t186 416q184 128 498 128t487 -123t173 -381v-141h-997q70 -225 409 -226q168 0 330 99l180 -199q-120 -75 -236 -107t-274 -32zM1010 1260h-600v239h600v-239z" />
    <glyph glyph-name="Edotaccent" unicode="&#x116;" horiz-adv-x="1597" 
d="M31 0v240h229v999h-229v240h1446v-365h-252v125h-635v-356h719v-240h-719v-403h725v125h252v-365h-1536zM805 1597q-86 0 -137 39q-52 39 -52 114t52 116t140 41q87 0 141 -39t55 -117q0 -154 -199 -154z" />
    <glyph glyph-name="edotaccent" unicode="&#x117;" horiz-adv-x="1404" 
d="M711 860q-274 0 -336 -186h682q-35 186 -346 186zM786 -10q-352 0 -554 140t-202 426t186 416q184 128 498 128t487 -123t173 -381v-141h-997q70 -225 409 -226q168 0 330 99l180 -199q-120 -75 -236 -107t-274 -32zM717 1217q-86 1 -137 39q-52 38 -52 113t52 116
t140 41q87 0 141 -39t54 -117q1 -153 -198 -153z" />
    <glyph glyph-name="Eogonek" unicode="&#x118;" horiz-adv-x="1644" 
d="M987 -82q0 43 14 82h-970v240h229v999h-229v240h1446v-365h-252v125h-635v-356h719v-240h-719v-403h725v125h252v-365h-174q-45 -12 -69 -28t-24 -46q0 -45 66 -45q25 0 98 29l150 -191q-162 -67 -298 -67t-233 68q-96 68 -96 198z" />
    <glyph glyph-name="eogonek" unicode="&#x119;" horiz-adv-x="1404" 
d="M711 860q-274 0 -336 -186h682q-35 186 -346 186zM890 -330q-136 0 -233 68q-96 68 -96 199q0 33 10 67q-541 82 -540 565q0 275 185 403q184 128 498 128t487 -123t173 -381v-141h-997q70 -225 409 -226q168 0 330 99l180 -199q-180 -115 -391 -135q-31 -16 -31 -49
q0 -45 66 -45q25 0 98 28l150 -190q-162 -68 -298 -68z" />
    <glyph glyph-name="Ecaron" unicode="&#x11a;" horiz-adv-x="1597" 
d="M31 0v240h229v999h-229v240h1446v-365h-252v125h-635v-356h719v-240h-719v-403h725v125h252v-365h-1536zM1464 1970l-438 -340h-457q-72 57 -219 170t-219 170h428l240 -184q78 61 237 184h428z" />
    <glyph glyph-name="ecaron" unicode="&#x11b;" horiz-adv-x="1406" 
d="M711 860q-274 0 -336 -186h682q-35 186 -346 186zM786 -10q-352 0 -554 140t-202 426t186 416q184 128 498 128t487 -123t173 -381v-141h-997q70 -225 409 -226q168 0 330 99l180 -199q-120 -75 -236 -107t-274 -32zM1376 1589l-438 -340h-457q-74 55 -219 170t-219 170
h428l240 -184q78 61 237 184h428z" />
    <glyph glyph-name="Gbreve" unicode="&#x11e;" horiz-adv-x="1918" 
d="M1090 -10q-204 0 -358 24q-701 111 -701 740q0 178 74 324q142 276 530 368q180 43 405 43q420 0 801 -166v-328h-250v158q-240 86 -552 86t-495 -115q-184 -116 -184 -374t190 -384t516 -126q325 0 523 55v231h-377v240h676v-604q-240 -92 -417 -132t-381 -40zM858 1933
q0 -55 43 -69t127 -13q84 -1 118 9t46 26t12 45h314q0 -317 -488 -317t-487 319h315z" />
    <glyph glyph-name="gbreve" unicode="&#x11f;" horiz-adv-x="1570" 
d="M774 -383h49q257 0 329 34q34 15 58 44t25 69q0 40 -14 67q-22 44 -95 68t-212 27q-314 5 -455 33q-101 -59 -101 -171t132 -144q113 -27 284 -27zM1534 -213v-12q0 -173 -114 -258q-114 -86 -273 -112q-160 -26 -336 -27q-176 0 -276 10q-233 24 -368 115
q-136 91 -136 280q0 188 182 289q-55 66 -55 171t98 179q-109 98 -109 250q1 152 89 250q164 182 544 182q250 0 406 -78q164 70 233 92l62 -114l59 -117q-49 -25 -162 -58q23 -63 23 -135q0 -213 -179 -312t-464 -99q-139 0 -256 24q-14 -25 -14 -53q-1 -73 165 -87
q86 -7 111 -7l22 -2h11q336 -16 456 -47q281 -72 281 -324zM477 688q0 -166 297 -166t297 162q0 180 -297 180t-297 -176zM600 1552q0 -54 43 -68t111 -14q154 0 180 35q12 16 12 45h314q0 -317 -488 -317t-487 319h315z" />
    <glyph glyph-name="Gcommaaccent" unicode="&#x122;" horiz-adv-x="1918" 
d="M999 -678h-329l243 471h420zM1090 -10q-204 0 -358 24q-701 111 -701 740q0 178 74 324q142 276 530 368q180 43 405 43q420 0 801 -166v-328h-250v158q-240 86 -552 86t-495 -115q-184 -116 -184 -374t190 -384t516 -126q325 0 523 55v231h-377v240h676v-604
q-240 -92 -417 -132t-381 -40z" />
    <glyph glyph-name="gcommaaccent" unicode="&#x123;" horiz-adv-x="1570" 
d="M774 -383h49q257 0 329 34q34 15 58 44t25 69q0 40 -14 67q-22 44 -95 68t-212 27q-314 5 -455 33q-101 -59 -101 -171t132 -144q113 -27 284 -27zM1534 -213v-12q0 -173 -114 -258q-114 -86 -273 -112q-160 -26 -336 -27q-176 0 -276 10q-233 24 -368 115
q-136 91 -136 280q0 188 182 289q-55 66 -55 171t98 179q-109 98 -109 250q1 152 89 250q164 182 544 182q250 0 406 -78q164 70 233 92l62 -114l59 -117q-49 -25 -162 -58q23 -63 23 -135q0 -213 -179 -312t-464 -99q-139 0 -256 24q-14 -25 -14 -53q-1 -73 165 -87
q86 -7 111 -7l22 -2h11q336 -16 456 -47q281 -72 281 -324zM477 688q0 -166 297 -166t297 162q0 180 -297 180t-297 -176zM895 1229h-420l334 471h330z" />
    <glyph glyph-name="Imacron" unicode="&#x12a;" horiz-adv-x="856" 
d="M31 0v240h229v999h-229v240h794v-240h-235v-999h235v-240h-794zM723 1640h-600v240h600v-240z" />
    <glyph glyph-name="imacron" unicode="&#x12b;" horiz-adv-x="829" 
d="M31 0v240h227v612h-227v240h571v-852h197v-240h-768zM723 1257h-600v240h600v-240z" />
    <glyph glyph-name="Iogonek" unicode="&#x12e;" horiz-adv-x="856" 
d="M476 -299q-136 0 -232 68t-97 198q0 23 3 33h-119v240h229v999h-229v240h794v-240h-235v-999h235v-240h-358q-6 -8 -6 -25q0 -45 65 -45q25 0 99 29l149 -190q-162 -68 -298 -68z" />
    <glyph glyph-name="iogonek" unicode="&#x12f;" horiz-adv-x="829" 
d="M168 -82q0 43 14 82h-151v240h227v612h-227v240h571v-852h197v-240h-226q-45 -12 -69 -28t-23 -46q0 -45 66 -45q25 0 98 29l150 -191q-163 -67 -299 -67t-232 68t-96 198zM424 1219q-88 1 -139 39t-51 113t52 116t139 41t141 -39t55 -117q0 -153 -197 -153z" />
    <glyph glyph-name="Idotaccent" unicode="&#x130;" horiz-adv-x="856" 
d="M31 0v240h229v999h-229v240h794v-240h-235v-999h235v-240h-794zM430 1597q-86 0 -137 39t-51 114t52 116t139 41t141 -39t55 -117q0 -154 -199 -154z" />
    <glyph glyph-name="dotlessi" unicode="&#x131;" horiz-adv-x="829" 
d="M31 0v240h227v612h-227v240h571v-852h197v-240h-768z" />
    <glyph glyph-name="Kcommaaccent" unicode="&#x136;" horiz-adv-x="1923" 
d="M856 -655h-330l244 471h420zM1892 240v-240h-987v240h127q-282 202 -440 313v-313h233v-240h-794v240h233v999h-233v240h755v-240h-194v-248q257 168 364 248h-77v240h933v-240h-389q-102 -68 -700 -461q344 -228 805 -538h364z" />
    <glyph glyph-name="kcommaaccent" unicode="&#x137;" horiz-adv-x="1792" 
d="M862 -672h-330l244 471h420zM1266 0h-29q-158 88 -643 387v-147h127v-240l-204 -2h-91l-395 2v240h233v1159h-229v239q154 0 229 -2v2h330v-897l178 111h-123v240h1051v-240h-447q-172 -96 -512 -289q383 -219 582 -325l190 2h248v-240l-495 -2v2z" />
    <glyph glyph-name="Lacute" unicode="&#x139;" horiz-adv-x="1609" 
d="M59 0v240h236v999h-236v240h795v-240h-231v-999h706v125h250v-365h-1520zM897 1978l-438 -340h-428l438 340h428z" />
    <glyph glyph-name="lacute" unicode="&#x13a;" horiz-adv-x="927" 
d="M49 240h232v1159h-226v239q150 0 226 -2v2h327v-1398h236v-240l-398 -2l-397 2v240zM897 2105l-438 -340h-428q299 236 438 340h428z" />
    <glyph glyph-name="Lcommaaccent" unicode="&#x13b;" horiz-adv-x="1581" 
d="M778 -666h-329l243 471h420zM31 0v240h235v999h-235v240h794v-240h-231v-999h706v125h250v-365h-1519z" />
    <glyph glyph-name="lcommaaccent" unicode="&#x13c;" horiz-adv-x="856" 
d="M416 -651h-330l244 471h420zM31 240h231v1159h-225v239q150 0 225 -2v2h328v-1398h235v-240l-397 -2l-397 2v240z" />
    <glyph glyph-name="Lcaron" unicode="&#x13d;" horiz-adv-x="1585" 
d="M1221 1006h-330l244 471h419zM31 0v240h235v999h-235v240h794v-240h-231v-999h706v125h250v-365h-1519z" />
    <glyph glyph-name="lcaron" unicode="&#x13e;" horiz-adv-x="1359" 
d="M995 1167h-329l243 471h420zM31 240h231v1159h-225v239q150 0 225 -2v2h328v-1398h235v-240l-397 -2l-397 2v240z" />
    <glyph glyph-name="Lslash" unicode="&#x141;" horiz-adv-x="1576" 
d="M592 240h706v125h250v-365h-1519v240h235v206q-106 -88 -174 -145v264q68 57 174 146v528h-235v240h794v-240h-231v-254q47 39 137 116t137 113v-262l-274 -229v-483z" />
    <glyph glyph-name="lslash" unicode="&#x142;" horiz-adv-x="851" 
d="M29 240h231v342q-12 -10 -225 -189v264q9 8 225 189v553h-225v239q150 0 225 -2v2h328v-518q211 176 223 187v-263q-173 -145 -223 -188v-616h235v-240l-397 -2l-397 2v240z" />
    <glyph glyph-name="Nacute" unicode="&#x143;" horiz-adv-x="2295" 
d="M31 0v240h233v999h-231v240h604l1106 -1149v909h-232v240h754v-240h-194v-1239h-414q-178 184 -533 553q-354 369 -532 553v-866h233v-240h-794zM1577 1980l-438 -340h-428l438 340h428z" />
    <glyph glyph-name="nacute" unicode="&#x144;" horiz-adv-x="1843" 
d="M31 0v240h231v612h-231v240h561v-111q178 111 437 111t405 -108t147 -335v-409h231v-240h-768v240h209v385q0 227 -297 227q-223 0 -364 -141v-471h205v-240h-766zM1427 1599l-438 -339h-428l438 339h428z" />
    <glyph glyph-name="Ncommaaccent" unicode="&#x145;" horiz-adv-x="2295" 
d="M1100 -657h-330l244 471h420zM31 0v240h233v999h-231v240h604l1106 -1149v909h-232v240h754v-240h-194v-1239h-414q-178 184 -533 553q-354 369 -532 553v-866h233v-240h-794z" />
    <glyph glyph-name="ncommaaccent" unicode="&#x146;" horiz-adv-x="1843" 
d="M911 -641h-329l243 471h420zM31 0v240h231v612h-231v240h561v-111q178 111 437 111t405 -108t147 -335v-409h231v-240h-768v240h209v385q0 227 -297 227q-223 0 -364 -141v-471h205v-240h-766z" />
    <glyph glyph-name="Ncaron" unicode="&#x147;" horiz-adv-x="2295" 
d="M31 0v240h233v999h-231v240h604l1106 -1149v909h-232v240h754v-240h-194v-1239h-414q-178 184 -533 553q-354 369 -532 553v-866h233v-240h-794zM1790 1970l-438 -340h-457q-315 243 -438 340h428l239 -184q78 61 238 184h428z" />
    <glyph glyph-name="ncaron" unicode="&#x148;" horiz-adv-x="1843" 
d="M31 0v240h231v612h-231v240h561v-111q178 111 437 111t405 -108t147 -335v-409h231v-240h-768v240h209v385q0 227 -297 227q-223 0 -364 -141v-471h205v-240h-766zM1640 1589l-438 -340h-457q-72 55 -218 170t-220 170h428l240 -184q78 61 237 184h428z" />
    <glyph glyph-name="Omacron" unicode="&#x14c;" horiz-adv-x="1929" 
d="M360 735q0 -239 168 -367t440 -128t437 132q164 132 164 372t-171 368q-172 127 -444 127t-433 -132t-161 -372zM31 737q0 244 125 416q244 336 821 336q414 0 668 -194q253 -193 253 -555t-260 -556t-678 -194t-674 194t-255 553zM1264 1640h-600v240h600v-240z" />
    <glyph glyph-name="omacron" unicode="&#x14d;" horiz-adv-x="1538" 
d="M1180 544q0 154 -116 236t-304 82t-294 -82t-106 -236q0 -155 113 -235t300 -80t297 80t110 235zM31 542q0 274 201 417q202 143 538 143t537 -142t201 -420t-202 -414t-540 -136t-537 139q-198 139 -198 413zM1065 1262h-600v239h600v-239z" />
    <glyph glyph-name="Ohungarumlaut" unicode="&#x150;" horiz-adv-x="1929" 
d="M360 735q0 -239 168 -367t440 -128t437 132q164 132 164 372t-171 368q-172 127 -444 127t-433 -132t-161 -372zM31 737q0 244 125 416q244 336 821 336q414 0 668 -194q253 -193 253 -555t-260 -556t-678 -194t-674 194t-255 553zM1348 1536h-330l244 471h419zM846 1536
h-330l244 471h420z" />
    <glyph glyph-name="ohungarumlaut" unicode="&#x151;" horiz-adv-x="1538" 
d="M1180 544q0 154 -116 236t-304 82t-294 -82t-106 -236q0 -155 113 -235t300 -80t297 80t110 235zM31 542q0 274 201 417q202 143 538 143t537 -142t201 -420t-202 -414t-540 -136t-537 139q-198 139 -198 413zM1149 1157h-330l244 471h420zM647 1157h-330l244 471h420z
" />
    <glyph glyph-name="OE" unicode="&#x152;" horiz-adv-x="2658" 
d="M973 242q207 0 350 43v923q-137 29 -313 29q-299 0 -475 -131q-177 -131 -177 -380q0 -248 166 -366t449 -118zM2630 0h-1479q-80 -8 -195 -8q-426 0 -676 176t-251 537q0 262 130 441q248 341 867 341q86 0 154 -8h1360v-365h-252v125h-635v-356h719v-240h-719v-403h725
v125h252v-365z" />
    <glyph glyph-name="oe" unicode="&#x153;" horiz-adv-x="2555" 
d="M1862 860q-274 0 -336 -186h682q-35 186 -346 186zM1180 544q0 154 -116 236t-304 82t-294 -82t-106 -236q0 -155 113 -235t300 -80t297 80t110 235zM31 542q0 274 201 417q202 143 551 143t546 -160q178 158 549 158q301 0 474 -123t173 -381v-141h-997
q70 -225 409 -226q168 0 330 99l180 -199q-119 -75 -235 -107t-275 -32q-399 0 -589 170q-195 -170 -586 -170q-334 0 -533 139q-198 139 -198 413z" />
    <glyph glyph-name="Racute" unicode="&#x154;" horiz-adv-x="2054" 
d="M825 240v-240h-794v240h235v999h-235v240h903q492 0 619 -213q50 -84 51 -205q0 -324 -347 -418l381 -403h385v-240h-563l-567 602h-299v-362h231zM874 1239h-280v-397h319q174 0 268 39q93 39 93 163t-120 163q-101 32 -280 32zM1272 1980l-438 -340h-428l438 340h428z
" />
    <glyph glyph-name="racute" unicode="&#x155;" horiz-adv-x="1124" 
d="M35 0v240h231v612h-235l2 121v119h563v-111q195 121 498 121v-248h-35q-109 0 -173 -5t-147 -33q-82 -28 -143 -83v-493h207v-240h-768zM989 1599l-438 -339h-428q313 248 438 339h428z" />
    <glyph glyph-name="Rcommaaccent" unicode="&#x156;" horiz-adv-x="2054" 
d="M1012 -662h-330l244 472h420zM825 240v-240h-794v240h235v999h-235v240h903q492 0 619 -213q50 -84 51 -205q0 -324 -347 -418l381 -403h385v-240h-563l-567 602h-299v-362h231zM874 1239h-280v-397h319q174 0 268 39q93 39 93 163t-120 163q-101 32 -280 32z" />
    <glyph glyph-name="rcommaaccent" unicode="&#x157;" horiz-adv-x="1124" 
d="M430 -659h-330l244 471h420zM35 0v240h231v612h-235l2 121v119h563v-111q195 121 498 121v-248h-35q-109 0 -173 -5t-147 -33q-82 -28 -143 -83v-493h207v-240h-768z" />
    <glyph glyph-name="Rcaron" unicode="&#x158;" horiz-adv-x="2054" 
d="M825 240v-240h-794v240h235v999h-235v240h903q492 0 619 -213q50 -84 51 -205q0 -324 -347 -418l381 -403h385v-240h-563l-567 602h-299v-362h231zM874 1239h-280v-397h319q174 0 268 39q93 39 93 163t-120 163q-101 32 -280 32zM1485 1970q-123 -97 -438 -340h-457
q-72 57 -219 170t-219 170h428l239 -184q78 61 238 184h428z" />
    <glyph glyph-name="rcaron" unicode="&#x159;" horiz-adv-x="1394" 
d="M197 0v240h231v612h-235l2 121v119h563v-111q195 121 497 121v-248h-34q-109 0 -173 -5t-147 -33q-82 -28 -143 -83v-493h207v-240h-768zM1364 1589l-438 -340h-457q-74 55 -220 170t-218 170h428l239 -184l240 184h426z" />
    <glyph glyph-name="Sacute" unicode="&#x15a;" horiz-adv-x="1396" 
d="M31 106v336h250v-133q186 -70 364 -69q391 0 391 159q0 92 -99 143q-92 48 -338 114q-28 8 -71 22q-254 80 -344 141q-143 100 -143 271q0 399 639 399q147 0 272 -33t297 -102v-314h-250v160q-174 60 -322 60t-227 -33t-79 -115t60 -123q60 -40 129 -60q69 -21 131 -39
q317 -89 452 -159q211 -111 223 -307v-25q0 -245 -230 -333q-198 -76 -505 -76q-308 0 -594 116h-6zM1130 1980l-438 -340h-428l438 340h428z" />
    <glyph glyph-name="sacute" unicode="&#x15b;" horiz-adv-x="1177" 
d="M566 -10q-132 0 -242 24t-287 80h-6v301h252v-110q177 -55 299 -55t186 27q63 28 63 72t-71 64q-48 13 -225 42t-272 69q-95 41 -133 76q-86 81 -87 211q0 171 133 241t371 70q115 0 249 -28t224 -64v-283h-252v100q-124 35 -220 35t-151 -18t-55 -51q0 -27 22 -44
q22 -18 44 -25t36 -12q14 -4 39 -10t40 -9t43 -8t50 -10t170 -33q149 -28 187 -50q111 -62 129 -95q45 -81 45 -172t-44 -161t-126 -107q-83 -37 -181 -52t-230 -15zM1001 1597l-438 -340h-428l438 340h428z" />
    <glyph glyph-name="Scedilla" unicode="&#x15e;" horiz-adv-x="1396" 
d="M584 -522q-109 0 -256 57l88 184q131 -47 184 -47t53 31q0 18 -21 18t-36 -10l-223 193q18 20 73 94q-193 20 -409 108h-6v336h250v-133q186 -70 364 -69q391 0 391 159q0 92 -99 143q-92 48 -338 114q-28 8 -71 22q-254 80 -344 141q-143 100 -143 271q0 399 639 399
q147 0 272 -33t297 -102v-314h-250v160q-174 60 -322 60t-227 -33t-79 -115t60 -123q60 -40 129 -60q69 -21 131 -39q317 -89 452 -159q211 -111 223 -307v-25q0 -354 -535 -401q-27 -35 -51 -61q184 -51 185 -224q0 -235 -381 -235z" />
    <glyph glyph-name="scedilla" unicode="&#x15f;" horiz-adv-x="1177" 
d="M436 -524q-109 0 -256 57l88 184q130 -47 184 -47t54 31q0 18 -22 18t-35 -10l-224 193q6 6 43 54t47 60q-102 20 -278 78h-6v301h252v-110q177 -55 299 -55t186 27q63 28 63 72t-71 64q-48 13 -225 42t-272 69q-95 41 -133 76q-86 81 -87 211q0 171 133 241t371 70
q115 0 249 -28t224 -64v-283h-252v100q-124 35 -220 35t-151 -18t-55 -51q0 -27 22 -44q22 -18 44 -25t36 -12q14 -4 39 -10t40 -9t43 -8t50 -10t170 -33q149 -28 187 -50q111 -62 129 -95q45 -81 45 -161q0 -174 -123 -252t-342 -90q-27 -35 -49 -60q184 -51 184 -223
q0 -235 -381 -235z" />
    <glyph glyph-name="Scaron" unicode="&#x160;" horiz-adv-x="1417" 
d="M51 106v336h250v-133q186 -70 365 -69q391 0 391 159q0 91 -100 143q-92 48 -338 114q-28 8 -70 22q-254 80 -344 141q-143 100 -144 271q0 399 639 399q146 0 272 -33t298 -102v-314h-250v160q-174 60 -322 60t-228 -33q-79 -33 -79 -115t61 -123t129 -61
q69 -20 131 -38q316 -89 451 -159q211 -111 223 -307v-25q0 -245 -230 -333q-198 -76 -505 -76t-594 116h-6zM1364 1970q-123 -97 -438 -340h-457q-315 243 -438 340h428l239 -184q78 61 238 184h428z" />
    <glyph glyph-name="scaron" unicode="&#x161;" horiz-adv-x="1394" 
d="M716 -10q-132 0 -242 24t-288 80h-6v301h252v-110q178 -55 300 -55t186 27q63 28 63 73t-62 60q-62 16 -235 45q-174 28 -270 69t-134 76q-88 82 -87 211q0 171 133 241t370 70q115 0 249 -28t224 -64v-283h-251v100q-124 35 -220 35t-151 -18t-55 -51q0 -27 22 -44
q22 -18 44 -25t36 -12q14 -4 39 -10t40 -9t43 -8t50 -10t170 -34q149 -29 188 -50q109 -61 127 -94q45 -82 45 -172q0 -91 -44 -161t-126 -107t-180 -52t-230 -15zM1364 1587q-123 -97 -438 -340h-457q-315 243 -438 340h428l239 -184q78 61 238 184h428z" />
    <glyph glyph-name="Tcommaaccent" unicode="&#x162;" horiz-adv-x="1712" 
d="M842 -655h-330l244 471h420zM457 0v240h235v985h-409v-113h-252v367h1650v-367h-251v113h-410v-985h231v-240h-794z" />
    <glyph glyph-name="tcommaaccent" unicode="&#x163;" horiz-adv-x="1062" 
d="M618 -686h-329l243 471h420zM276 352v502h-245v240h245v106l328 154v-260h361v-240h-361v-489q0 -127 156 -127q115 0 192 30l80 -213q-147 -68 -303 -67q-213 0 -333 88t-120 276z" />
    <glyph glyph-name="Tcaron" unicode="&#x164;" horiz-adv-x="1712" 
d="M457 0v240h235v985h-409v-113h-252v367h1650v-367h-251v113h-410v-985h231v-240h-794zM1501 1968l-438 -340h-457q-74 55 -220 170t-218 170h428l240 -184q78 61 237 184h428z" />
    <glyph glyph-name="tcaron" unicode="&#x165;" horiz-adv-x="1062" 
d="M618 -686h-329l243 471h420zM276 352v502h-245v240h245v106l328 154v-260h361v-240h-361v-489q0 -127 156 -127q115 0 192 30l80 -213q-147 -68 -303 -67q-213 0 -333 88t-120 276z" />
    <glyph glyph-name="Umacron" unicode="&#x16a;" horiz-adv-x="2187" 
d="M1909 606q0 -328 -212 -472q-211 -144 -609 -144t-606 136t-208 454v659h-243l2 121v119h792v-240h-252v-616q-1 -203 139 -286t390 -83t379 74t129 252v659h-246v240h793v-240h-248v-633zM1393 1640h-600v240h600v-240z" />
    <glyph glyph-name="umacron" unicode="&#x16b;" horiz-adv-x="1800" 
d="M1235 0v109q-168 -119 -373 -119q-284 0 -442 110t-158 342v410h-231v240h561v-637q0 -115 79 -170t216 -56q190 0 348 154v469h-234v240h564v-852h204v-240h-534zM1174 1260h-601v239h601v-239z" />
    <glyph glyph-name="Uring" unicode="&#x16e;" horiz-adv-x="2187" 
d="M1909 606q0 -328 -212 -472q-211 -144 -609 -144t-606 136t-208 454v659h-243l2 121v119h792v-240h-252v-616q-1 -203 139 -286t390 -83t379 74t129 252v659h-246v240h793v-240h-248v-633zM963 1925q0 -88 137 -88t137 88q0 53 -38 71t-107 17q-129 0 -129 -88zM670 1925
q0 156 115 232q116 75 311 75q196 0 316 -74t120 -232q0 -156 -120 -232t-314 -76t-312 76q-116 76 -116 231z" />
    <glyph glyph-name="uring" unicode="&#x16f;" horiz-adv-x="1800" 
d="M1235 0v109q-168 -119 -373 -119q-284 0 -442 110t-158 342v410h-231v240h561v-637q0 -115 79 -170t216 -56q190 0 348 154v469h-234v240h564v-852h204v-240h-534zM743 1544q-1 -88 137 -88t138 88q0 52 -38 70t-108 18q-129 0 -129 -88zM451 1544q0 156 115 232
q116 76 310 76t316 -76q121 -74 121 -231t-120 -233q-121 -76 -315 -75q-194 -1 -310 75t-117 232z" />
    <glyph glyph-name="Uhungarumlaut" unicode="&#x170;" horiz-adv-x="2187" 
d="M1909 606q0 -328 -212 -472q-211 -144 -609 -144t-606 136t-208 454v659h-243l2 121v119h792v-240h-252v-616q-1 -203 139 -286t390 -83t379 74t129 252v659h-246v240h793v-240h-248v-633zM1477 1536h-330l244 471h419zM975 1536h-330l244 471h420z" />
    <glyph glyph-name="uhungarumlaut" unicode="&#x171;" horiz-adv-x="1800" 
d="M1235 0v109q-168 -119 -373 -119q-284 0 -442 110t-158 342v410h-231v240h561v-637q0 -115 79 -170t216 -56q190 0 348 154v469h-234v240h564v-852h204v-240h-534zM1257 1155h-329l243 471h420zM756 1155h-330l244 471h420z" />
    <glyph glyph-name="Uogonek" unicode="&#x172;" horiz-adv-x="2187" 
d="M1119 -340q-136 0 -232 68t-96 198q0 41 14 84q-258 41 -394 177t-137 393v659h-243l2 121v119h792v-240h-252v-616q-1 -203 139 -286t390 -83t379 74t129 252v659h-246v240h793v-240h-248v-633q0 -316 -197 -460t-567 -156q-41 -16 -41 -56q0 -45 65 -45q25 0 99 29
l149 -190q-162 -68 -298 -68z" />
    <glyph glyph-name="uogonek" unicode="&#x173;" horiz-adv-x="1800" 
d="M1394 -338q-136 0 -233 68q-96 68 -96 198q0 63 25 103q-106 -41 -228 -41q-284 0 -442 110t-158 342v410h-231v240h561v-637q0 -115 79 -170t216 -56q190 0 348 154v469h-234v240h564v-852h204v-240h-331q-59 -20 -60 -63q0 -45 66 -46q25 0 98 29l150 -190
q-162 -68 -298 -68z" />
    <glyph glyph-name="Ydieresis" unicode="&#x178;" horiz-adv-x="1826" 
d="M1079 240h217v-240h-794v240h217v469l-422 530h-266v240h794v-240h-194q187 -234 272 -346q96 117 289 346h-191v240h795v-240h-270l-447 -532v-467zM1159 1597q-86 0 -137 39t-51 114t52 116t139 41q88 0 142 -39t54 -117q0 -154 -199 -154zM666 1597q-86 0 -138 39
q-51 39 -51 114t52 116q51 41 139 41t142 -39t54 -117q1 -154 -198 -154z" />
    <glyph glyph-name="Zacute" unicode="&#x179;" horiz-adv-x="1720" 
d="M1692 0h-1661v240q1137 969 1171 999h-827v-125h-250v365h1538v-240q-381 -323 -631 -533t-348 -293t-205 -173h961v125h252v-365zM1294 1976l-440 -340h-426q243 186 438 340h428z" />
    <glyph glyph-name="zacute" unicode="&#x17a;" horiz-adv-x="1355" 
d="M1325 0h-1294v240q516 408 634 497q117 89 148 115h-477v-125h-252v365h1198v-240q-652 -503 -707 -544q-55 -40 -88 -68h586v125h252v-365zM1112 1602q-243 -186 -438 -340h-428l438 340h428z" />
    <glyph glyph-name="Zdotaccent" unicode="&#x17b;" horiz-adv-x="1720" 
d="M1692 0h-1661v240q1137 969 1171 999h-827v-125h-250v365h1538v-240q-381 -323 -631 -533t-348 -293t-205 -173h961v125h252v-365zM848 1593q-86 0 -137 39t-51 114t52 116t139 41t141 -39t55 -117q0 -154 -199 -154z" />
    <glyph glyph-name="zdotaccent" unicode="&#x17c;" horiz-adv-x="1355" 
d="M1325 0h-1294v240q516 408 634 497q117 89 148 115h-477v-125h-252v365h1198v-240q-652 -503 -707 -544q-55 -40 -88 -68h586v125h252v-365zM666 1219q-86 0 -138 38q-51 39 -51 114t52 116q51 41 139 41t142 -39t54 -117q1 -153 -198 -153z" />
    <glyph glyph-name="Zcaron" unicode="&#x17d;" horiz-adv-x="1720" 
d="M1692 0h-1661v240q1137 969 1171 999h-827v-125h-250v365h1538v-240q-381 -323 -631 -533t-348 -293t-205 -173h961v125h252v-365zM1507 1966l-438 -340h-457q-72 55 -218 170t-220 170h426l240 -184l239 184h428z" />
    <glyph glyph-name="zcaron" unicode="&#x17e;" horiz-adv-x="1394" 
d="M1364 0h-1294v240q516 408 634 497q117 89 148 115h-477v-125h-252v365h1198v-240q-652 -503 -707 -544q-55 -40 -88 -68h586v125h252v-365zM1364 1591q-299 -236 -438 -340h-457q-139 104 -438 340h428l239 -184q78 61 238 184h428z" />
    <glyph glyph-name="florin" unicode="&#x192;" horiz-adv-x="1200" 
d="M145 -123q-55 0 -114 6l59 240q12 -2 37 -2q117 0 147 102q33 117 101 351t102 354h-123v239h191q25 103 55 193q94 313 453 313q61 0 116 -8l-28 -119l-31 -119q-14 2 -41 3q-102 0 -125 -80q-32 -123 -53 -183h151v-239h-221q-108 -360 -217 -742q-94 -309 -459 -309z
" />
    <glyph glyph-name="Scommaaccent" unicode="&#x218;" horiz-adv-x="1396" 
d="M516 -653h-330l244 471h420zM31 106v336h250v-133q186 -70 364 -69q391 0 391 159q0 92 -99 143q-92 48 -338 114q-28 8 -71 22q-254 80 -344 141q-143 100 -143 271q0 399 639 399q147 0 272 -33t297 -102v-314h-250v160q-174 60 -322 60t-227 -33t-79 -115t60 -123
q60 -40 129 -60q69 -21 131 -39q317 -89 452 -159q211 -111 223 -307v-25q0 -245 -230 -333q-198 -76 -505 -76q-308 0 -594 116h-6z" />
    <glyph glyph-name="scommaaccent" unicode="&#x219;" horiz-adv-x="1177" 
d="M410 -649h-330l244 471h419zM566 -10q-132 0 -242 24t-287 80h-6v301h252v-110q177 -55 299 -55t186 27q63 28 63 72t-71 64q-48 13 -225 42t-272 69q-95 41 -133 76q-86 81 -87 211q0 171 133 241t371 70q115 0 249 -28t224 -64v-283h-252v100q-124 35 -220 35t-151 -18
t-55 -51q0 -27 22 -44q22 -18 44 -25t36 -12q14 -4 39 -10t40 -9t43 -8t50 -10t170 -33q149 -28 187 -50q111 -62 129 -95q45 -81 45 -172t-44 -161t-126 -107q-83 -37 -181 -52t-230 -15z" />
    <glyph glyph-name="circumflex" unicode="&#x2c6;" horiz-adv-x="1394" 
d="M31 1210l438 340h457q74 -57 220 -171t218 -169h-428q-160 123 -238 185l-239 -185h-428z" />
    <glyph glyph-name="caron" unicode="&#x2c7;" horiz-adv-x="1394" 
d="M1364 1550q-299 -236 -438 -340h-457q-139 104 -438 340h428l239 -184q78 61 238 184h428z" />
    <glyph glyph-name="breve" unicode="&#x2d8;" horiz-adv-x="1036" 
d="M346 1415q0 -55 43 -69t127 -13q84 -1 118 9t46 26t12 45h314q0 -317 -488 -317t-487 319h315z" />
    <glyph glyph-name="dotaccent" unicode="&#x2d9;" horiz-adv-x="448" 
d="M219 1133q-86 1 -137 39t-51 113t52 116t139 41q88 0 142 -39t54 -117q0 -153 -199 -153z" />
    <glyph glyph-name="ring" unicode="&#x2da;" horiz-adv-x="923" 
d="M324 1276q0 -88 137 -88t137 88q0 52 -38 70t-107 18q-129 0 -129 -88zM31 1276q-1 156 115 232t311 75q195 0 315 -75q120 -76 121 -232q0 -156 -119 -232q-120 -76 -314 -76t-312 76q-117 76 -117 232z" />
    <glyph glyph-name="ogonek" unicode="&#x2db;" horiz-adv-x="692" 
d="M362 -340q-136 0 -233 68q-96 68 -96 198q0 86 41 125l41 41q16 16 62 34q47 18 65 26t78 25t77 24l121 -168q-20 -9 -58 -19t-58 -17t-38 -23q-17 -16 -18 -40q0 -45 66 -45q25 0 98 29l149 -190q-161 -68 -297 -68z" />
    <glyph glyph-name="tilde" unicode="&#x2dc;" horiz-adv-x="1290" 
d="M885 1329q68 0 119 148l126 -58h3q2 0 127 -53q-109 -295 -381 -295q-176 0 -316 107q-4 4 -41 30q-50 35 -100 35q-86 0 -146 -149q-215 100 -245 114q86 287 381 287q92 0 160 -24t147 -83q78 -59 166 -59z" />
    <glyph glyph-name="hungarumlaut" unicode="&#x2dd;" horiz-adv-x="1226" 
d="M862 1229h-330l244 471h420zM360 1229h-329l243 471h420z" />
    <glyph glyph-name="pi" unicode="&#x3c0;" horiz-adv-x="1421" 
d="M893 37v917h-383v-917h-307v917h-174v263h1364v-263h-193v-917h-307z" />
    <glyph glyph-name="endash" unicode="&#x2013;" horiz-adv-x="1095" 
d="M1063 451h-1030v264h1030v-264z" />
    <glyph glyph-name="emdash" unicode="&#x2014;" horiz-adv-x="1869" 
d="M1837 451h-1804v264h1804v-264z" />
    <glyph glyph-name="quoteleft" unicode="&#x2018;" horiz-adv-x="724" 
d="M451 1343h-420l334 472h329z" />
    <glyph glyph-name="quoteright" unicode="&#x2019;" horiz-adv-x="724" 
d="M360 1008h-329l243 471h420z" />
    <glyph glyph-name="quotesinglbase" unicode="&#x201a;" horiz-adv-x="729" 
d="M362 -203h-329l243 471h420z" />
    <glyph glyph-name="quotedblleft" unicode="&#x201c;" horiz-adv-x="1230" 
d="M453 1454h-420l334 471h329zM954 1454h-419l333 471h330z" />
    <glyph glyph-name="quotedblright" unicode="&#x201d;" horiz-adv-x="1226" 
d="M862 1229h-330l244 471h420zM360 1229h-329l243 471h420z" />
    <glyph glyph-name="quotedblbase" unicode="&#x201e;" horiz-adv-x="1228" 
d="M862 -203h-330l244 471h420zM362 -203h-329l243 471h420z" />
    <glyph glyph-name="dagger" unicode="&#x2020;" horiz-adv-x="1380" 
d="M1352 829h-498v-1439h-307v1439h-518v263h518v542h307v-542h498v-263z" />
    <glyph glyph-name="daggerdbl" unicode="&#x2021;" horiz-adv-x="1380" 
d="M1352 -129h-498v-481h-307v481h-518v262h518v696h-518v263h518v542h307v-542h498v-263h-498v-696h498v-262z" />
    <glyph glyph-name="bullet" unicode="&#x2022;" horiz-adv-x="835" 
d="M414 1210q176 0 284 -78t107 -234q1 -154 -107 -230t-286 -76t-280 79q-101 79 -101 227t104 230q103 82 279 82z" />
    <glyph glyph-name="ellipsis" unicode="&#x2026;" horiz-adv-x="1464" 
d="M743 -20q-86 0 -137 38t-51 114q0 75 52 116t139 41q88 0 142 -39t54 -117q0 -153 -199 -153zM1233 -20q-86 0 -137 38q-52 38 -52 114q0 75 52 116t140 41q87 0 141 -39t55 -117q0 -153 -199 -153zM221 -20q-86 0 -137 38t-51 114q0 75 52 116t139 41q88 0 142 -39
t54 -117q0 -153 -199 -153z" />
    <glyph glyph-name="perthousand" unicode="&#x2030;" horiz-adv-x="3801" 
d="M2984 390q0 -108 66 -169t174 -61q106 0 163 62t57 168t-60 166q-62 60 -169 60h-4q-104 0 -166 -59q-61 -59 -61 -167zM1823 390q1 -108 67 -169t172 -61t164 62t58 168t-62 166t-168 60h-4q-104 0 -166 -59q-61 -59 -61 -167zM2671 392q0 224 151 344q152 120 402 119
t400 -118t148 -342q0 -225 -152 -350t-404 -125q-251 0 -398 124t-147 348zM2055 -80q-251 0 -399 124t-147 348q0 224 152 344q151 120 401 119t400 -118t150 -342t-154 -350q-152 -125 -403 -125zM342 980q0 -108 67 -169t173 -61t163 62t57 168t-60 166q-62 60 -169 60
h-4q-104 0 -166 -59q-61 -59 -61 -167zM905 -63h-299l1135 1503h299zM29 982q0 224 151 344q152 120 402 119t400 -118t148 -342q0 -225 -152 -350t-404 -125q-251 0 -398 124t-147 348z" />
    <glyph glyph-name="guilsinglleft" unicode="&#x2039;" horiz-adv-x="618" 
d="M307 590q175 -82 281 -131v-264q-459 217 -557 262v264q77 35 279 133t278 133v-262q-76 -37 -281 -135z" />
    <glyph glyph-name="guilsinglright" unicode="&#x203a;" horiz-adv-x="618" 
d="M31 987l557 -266v-264q-98 -45 -557 -262v264q74 34 280 131q-205 98 -280 135v262z" />
    <glyph glyph-name="fraction" unicode="&#x2044;" horiz-adv-x="1490" 
d="M328 -63h-299l1134 1503h299z" />
    <glyph glyph-name="foursuperior" unicode="&#x2074;" horiz-adv-x="1069" 
d="M477 1026v111l-112 -111h112zM246 508v219h231v72h-342l-106 227l448 436h330v-436h164v-227h-164v-72h231v-219h-792z" />
    <glyph glyph-name="Euro" unicode="&#x20ac;" horiz-adv-x="1841" 
d="M1077 -10q-322 0 -548 102t-320 309h-180v252h123q-2 15 -2 57t2 64h-123v252h182q98 231 343 347q246 116 572 116t686 -150v-348h-251v185q-188 63 -431 63q-391 0 -555 -213h535v-252h-629q-2 -18 -2 -49t4 -72h627v-252h-514q160 -162 498 -161q172 0 302 30t271 111
l74 -100l71 -103q-172 -102 -336 -145t-399 -43z" />
    <glyph glyph-name="trademark" unicode="&#x2122;" horiz-adv-x="2387" 
d="M2357 705v-193h-450v193h43l-37 184q-82 -221 -107 -297h-245q-33 92 -103 280q-18 -104 -33 -167h54v-193h-453v193h135q17 91 59 255t56 232h-121v190h377q27 -76 154 -440q125 346 157 440h383v-190h-133l123 -487h141zM709 705h112v-193h-493v193h118v487h-176v-57
h-239v247h1065v-247h-240v57h-147v-487z" />
    <glyph glyph-name="estimated" unicode="&#x212e;" horiz-adv-x="1691" 
d="M855 1255q-132 0 -226 -47v-344h456v344q-98 47 -230 47zM911 -10q-420 0 -651 209t-231 552t220 541t610 199t597 -191t207 -514v-135h-1034v-358q119 -66 271 -66t262 33t241 119l55 -55q22 -22 52 -54t63 -65q-153 -115 -305 -165t-357 -50z" />
    <glyph glyph-name="partialdiff" unicode="&#x2202;" horiz-adv-x="1402" 
d="M690 719q-147 0 -239 -57q-93 -58 -93 -176t80 -188t209 -69h6q289 2 375 332q-90 158 -338 158zM653 -10q-276 0 -450 116t-174 352t180 362t465 126q231 0 387 -88q-4 176 -95 285t-251 108q-96 0 -260 -63l-150 190q127 59 220 86t204 27q293 0 469 -177t176 -470
q0 -381 -190 -618q-191 -236 -531 -236z" />
    <glyph glyph-name="product" unicode="&#x220f;" horiz-adv-x="2123" 
d="M29 0v240h229v1159h-227v239h2064v-239h-235v-1159h235v-240h-795v240h232v1159h-944v-1159h235v-240h-794z" />
    <glyph glyph-name="summation" unicode="&#x2211;" horiz-adv-x="1306" 
d="M979 240v131h299v-369l-150 119l150 -121h-1249v240l733 512l-696 487v240h1212l-299 -240l299 240v-369h-299v129h-481l686 -481l-715 -518h510z" />
    <glyph glyph-name="minus" unicode="&#x2212;" horiz-adv-x="1388" 
d="M33 510v262h1323v-262h-1323z" />
    <glyph glyph-name="divisionslash" unicode="&#x2215;" horiz-adv-x="1490" 
d="M328 -63h-299l1134 1503h299z" />
    <glyph glyph-name="bulletoperator" unicode="&#x2219;" horiz-adv-x="835" 
d="M414 1210q176 0 284 -78t107 -234q1 -154 -107 -230t-286 -76t-280 79q-101 79 -101 227t104 230q103 82 279 82z" />
    <glyph glyph-name="radical" unicode="&#x221a;" horiz-adv-x="1753" 
d="M29 508v240h559q166 -328 223 -443q393 782 588 1174h325q-367 -737 -733 -1479h-352l-256 508h-354z" />
    <glyph glyph-name="infinity" unicode="&#x221e;" horiz-adv-x="2228" 
d="M1583 655q121 0 203 38t82 122q0 152 -285 152q-158 0 -299 -146q147 -166 299 -166zM618 653q141 0 281 170q-131 145 -274 146q-113 0 -189 -36t-76 -116t74 -122t184 -42zM618 416q-335 0 -501 179q-86 93 -86 222t87 220q163 171 507 171q260 0 467 -172
q211 170 491 170q352 0 523 -171q92 -91 92 -221t-90 -223q-170 -175 -525 -175q-274 0 -491 188q-212 -188 -474 -188z" />
    <glyph glyph-name="integral" unicode="&#x222b;" horiz-adv-x="1193" 
d="M141 -123q-53 0 -112 6l59 240q12 -2 37 -2q117 0 147 102q37 127 150 523t176 614q94 313 451 313q61 0 116 -8l-28 -119l-31 -119q-14 2 -41 3q-100 0 -123 -80q-57 -195 -171 -582t-171 -582q-92 -309 -459 -309z" />
    <glyph glyph-name="approxequal" unicode="&#x2248;" horiz-adv-x="1564" 
d="M1116 627q71 0 102 39t68 114q141 -61 250 -112q-76 -150 -179 -214t-249 -64q-146 1 -232 29t-198 90t-206 62t-138 -41q-43 -41 -78 -124q-180 84 -227 108q63 156 167 226t273 71q115 0 196 -26t197 -92t254 -66zM1116 1085q70 0 101 38t69 116q141 -61 250 -113
q-76 -150 -179 -214t-249 -64q-146 2 -232 30t-198 90t-206 62t-138 -41q-43 -41 -78 -125q-180 84 -227 109q63 157 167 227t273 70q115 0 196 -26t197 -92t254 -67z" />
    <glyph glyph-name="notequal" unicode="&#x2260;" horiz-adv-x="1736" 
d="M1706 319h-958l-244 -319h-299l244 319h-418v252h608l154 203h-762v252h954l229 303h299l-229 -303h422v-252h-614l-154 -203h768v-252z" />
    <glyph glyph-name="lessequal" unicode="&#x2264;" horiz-adv-x="1708" 
d="M1677 -4h-1648v250h1648v-250zM1677 315q-514 146 -1648 465v264q514 146 1648 465v-262q-197 -55 -591 -167t-590 -167q676 -195 1181 -335v-263z" />
    <glyph glyph-name="greaterequal" unicode="&#x2265;" horiz-adv-x="1708" 
d="M31 -4v250h1648v-250h-1648zM31 1509l1648 -465v-264q-274 -78 -824 -232t-824 -233v263q506 141 1181 335l-1181 334v262z" />
    <glyph glyph-name="lozenge" unicode="&#x25ca;" horiz-adv-x="1316" 
d="M655 1319q-115 -155 -299 -393q52 -66 150 -197t149 -197q205 262 306 394q-100 131 -306 393zM1288 926l-469 -609h-327q-156 203 -463 609q307 406 463 608h327z" />
    <glyph glyph-name="commaaccent" unicode="&#xf6c3;" horiz-adv-x="729" 
d="M362 -203h-329l243 471h420z" />
    <glyph glyph-name="fi" unicode="&#xfb01;" horiz-adv-x="1546" 
d="M799 240v-240h-652v240h213v665h-327v240h327v80q0 239 161 375t421 137q170 0 383 -58v-370h-328v188q-14 2 -41 2q-122 0 -194 -77t-72 -201v-76h635v-905h193v-240h-621v240h100v665h-307v-665h109z" />
    <glyph glyph-name="fl" unicode="&#xfb02;" horiz-adv-x="1546" 
d="M1323 240h193v-240h-615v240h94v665h-307v-665h109v-240h-652v240h213v665h-327v240h327v80q0 239 161 375t421 137q170 -1 383 -58v-1439zM688 1221v-76h307v356h-8l-33 -2q-122 0 -194 -77t-72 -201z" />
    <glyph glyph-name="tcedilla" horiz-adv-x="1058" 
d="M539 -532q-109 0 -256 57l88 184q131 -47 184 -47t53 31q0 18 -21 18t-36 -10l-223 193q11 16 53 68q43 53 65 81q-172 88 -172 309v502h-245v240h245v106l328 154v-260h361v-240h-361v-489q0 -127 156 -127q115 0 192 30l80 -213q-125 -55 -242 -65q-27 -35 -53 -64
q184 -51 185 -223q0 -235 -381 -235z" />
    <glyph glyph-name="Tcedilla" horiz-adv-x="1708" 
d="M782 -500q-109 0 -256 58l88 184q130 -47 184 -47t54 31q0 18 -22 18t-35 -10l-111 96q-6 4 -113 96q4 6 26 32t34 42h-176v240h235v985h-409v-113h-252v367h1650v-367h-252v113h-409v-985h231v-240h-235q-10 -12 -35 -41q184 -51 184 -223q0 -236 -381 -236z" />
    <glyph glyph-name="softhyphen" horiz-adv-x="841" 
d="M809 451h-776v264h776v-264z" />
    <glyph glyph-name="litre" horiz-adv-x="851" 
d="M29 240h231v1159h-225v239q150 0 225 -2v2h328v-1398h235v-240l-397 -2l-397 2v240z" />
    <glyph glyph-name="ruble" horiz-adv-x="1583" 
d="M1227 1038q0 72 -26 113q-42 66 -186 83q-52 5 -138 5h-289v-381h162l143 -2q109 0 173 10t113 54q48 46 48 118zM29 0v240h231v55h-176v252h176v59h-176v252h176v381h-231v240h766q559 0 701 -215q58 -88 58 -212t-42 -204t-105 -125t-172 -72t-207 -35t-242 -10h-198
v-59h577v-252h-577v-55h235v-240h-794z" />
    <glyph glyph-name="nullsuperior" horiz-adv-x="1159" 
d="M569 1190q-103 0 -165 -60t-62 -166q0 -108 67 -169t173 -61t163 62t57 168t-60 165q-62 60 -169 61h-4zM29 966q0 224 151 344q152 120 402 119t400 -118t148 -342q0 -225 -152 -351q-153 -124 -404 -124t-398 124t-147 348z" />
    <glyph glyph-name="omegamath" horiz-adv-x="2095" 
d="M86 711q0 375 270 577t698 201q428 0 690 -202q263 -202 263 -570q0 -283 -164 -477h223v-240h-540l-96 121l-99 119q168 88 257 200t89 277q0 254 -180 393q-181 139 -461 139t-450 -143t-170 -395q0 -158 82 -270t241 -201l-180 -240h-530v240h225q-168 197 -168 471z
" />
    <glyph glyph-name="apostrophemod" horiz-adv-x="724" 
d="M360 1008h-329l243 471h420z" />
    <glyph glyph-name="mumath" horiz-adv-x="1800" 
d="M862 -10q-150 0 -270 30v-634h-328v1007q-2 14 -2 49v410h-231v240h561v-637q0 -115 79 -170t216 -56q190 0 348 154v469h-234v240h564v-852h204v-240h-534v109q-168 -119 -373 -119z" />
    <glyph glyph-name="macronmod" horiz-adv-x="663" 
d="M633 1165h-600v240h600v-240z" />
    <glyph glyph-name="turkishlira" horiz-adv-x="1957" 
d="M29 0v240h227v252h-184v251h184v121h-184v252h184v123h-227v240h794v-240h-239v-123h569v-252h-569v-121h569v-251h-569v-252h387q299 0 466 118t167 367h325q0 -394 -264 -559q-264 -166 -719 -166h-917z" />
    <glyph glyph-name="rupee" horiz-adv-x="1734" 
d="M0 0v41h1735v-41h-1735z" />
    <glyph glyph-name="deltamath" horiz-adv-x="1677" 
d="M356 264h965l-467 948zM1649 0h-1620v264l665 1270h328l627 -1270v-264z" />
    <glyph glyph-name="logo" horiz-adv-x="5091" 
d="M3727 106v336h250v-133q186 -70 365 -69q391 0 391 159q0 91 -89 137t-205 79q-115 33 -143 41t-71 22q-254 80 -344 141q-143 100 -143 271q0 399 639 399q147 0 272 -33t297 -102v-314h-250v160q-174 60 -322 60t-228 -33q-79 -33 -79 -115t60 -123q60 -40 130 -60
q69 -21 131 -39t88 -26t60 -18q266 -86 365 -150q162 -109 162 -297q0 -244 -231 -333q-198 -76 -505 -76t-593 116h-7zM455 0v240h235v985h-409v-113h-252v367h1650v-367h-252v113h-409v-985h231v-240h-794zM2662 1239h-329v-999h387q633 0 633 475q-1 524 -691 524z
M1778 0v240h227v999h-227v240h901q999 0 999 -754q0 -394 -264 -559q-264 -166 -719 -166h-917z" />
    </font>
</defs>
</svg>
