<?xml version="1.0" standalone="no"?>
<!DOCTYPE svg PUBLIC "-//W3C//DTD SVG 1.1//EN" "http://www.w3.org/Graphics/SVG/1.1/DTD/svg11.dtd" >
<svg xmlns="http://www.w3.org/2000/svg" xmlns:xlink="http://www.w3.org/1999/xlink" version="1.1">
<metadata>
Created by FontForge 20141219 at Thu Feb 19 10:34:32 2015
 By Simon Egli
Copyright 2015 Simon Egli
</metadata>
<defs>
<font id="Sean" horiz-adv-x="994" >
  <font-face 
    font-family="Slab"
    font-weight="36"
    font-stretch="ultra-condensed"
    units-per-em="1000"
    panose-1="2 0 3 3 0 0 0 0 0 0"
    ascent="800"
    descent="-200"
    x-height="533"
    cap-height="722"
    bbox="-53 -311 2175 1075"
    underline-thickness="0"
    underline-position="0"
    unicode-range="U+0020-FB02"
  />
    <missing-glyph />
    <glyph glyph-name="A" unicode="A" 
d="M488.607 688.769c59.7808 -136.092 118.982 -271.895 178.325 -407.769h-377.796c66.2072 135.873 132.397 271.676 199.471 407.769zM474 722h-2c-115.02 -230.998 -230.04 -461.078 -344.179 -692h-162.821v-30h148h34h5h185v30l-170.319 3.55271e-15
c35.9023 73.3996 71.6382 146.714 107.349 220l406.442 2.84217e-14c32.0185 -73.2859 64.0941 -146.6 96.3399 -220h-171.813v-30h185h5h33h149v30h-162.322c-102.561 230.922 -205.16 461.002 -308.678 692h-1h-31z" />
    <glyph glyph-name="AE" unicode="&#xc6;" horiz-adv-x="1182" 
d="M612 0h490v15v15v105h-30v-105h-460v329h376v30h-376v303h420v-105h31v105v15v15h-446h-5h-16h-15h-1h-4h-162v-30h146.762l-424.524 -662h-165.238v-30h146h36h6h182v30h-162.97l119.892 189h278.078v-189h-162v-30h162h5h15h16zM576 657.367v-406.367h-257.778z" />
    <glyph glyph-name="Aacute" unicode="&#xc1;" 
d="M428 837c65 54 132 112 196 166h-49c-65 -53 -131 -112 -196 -166h49zM488.196 689.704c59.9193 -136.406 119.24 -272.519 178.508 -408.704h-377.627c66.2731 136.185 132.404 272.298 199.119 408.704zM474 722h-2c-115.02 -230.998 -230.04 -461.078 -344.179 -692
h-162.821v-30h148h34h5h184v30h-169.319c35.9018 73.3996 71.6333 146.714 107.308 220l406.204 2.84217e-14c31.8882 -73.2859 63.7729 -146.6 95.7388 -220h-170.932v-30h184h6h33h149v30h-162.322c-102.561 230.922 -205.16 461.002 -308.678 692h-2h-30z" />
    <glyph glyph-name="Abreve" unicode="&#x102;" 
d="M622 962c0 -69 -57 -96 -133 -96c-74 0 -127 30 -127 97h-34c0 -88 65 -126 159 -126c98 0 168 36 168 125h-33zM488.196 689.704c59.9193 -136.406 119.24 -272.519 178.508 -408.704h-377.627c66.2731 136.185 132.404 272.298 199.119 408.704zM474 722h-2
c-115.02 -230.998 -230.04 -461.078 -344.179 -692h-162.821v-30h148h34h5h184v30h-169.319c35.9018 73.3996 71.6333 146.714 107.308 220l406.204 2.84217e-14c31.8882 -73.2859 63.7729 -146.6 95.7388 -220h-170.932v-30h184h6h33h149v30h-162.322
c-102.561 230.922 -205.16 461.002 -308.678 692h-2h-30z" />
    <glyph glyph-name="Acircumflex" unicode="&#xc2;" 
d="M713 837c-64 54 -131 113 -196 166h-8h-41h-8c-65 -53 -132 -112 -196 -166h49c57.2915 48.3397 116.987 99.8849 175.5 148.897c58.5129 -49.0117 118.208 -100.557 175.5 -148.897h49zM488.196 689.704c59.9193 -136.406 119.24 -272.519 178.508 -408.704h-377.627
c66.2731 136.185 132.404 272.298 199.119 408.704zM474 722h-2c-115.02 -230.998 -230.04 -461.078 -344.179 -692h-162.821v-30h148h34h5h184v30h-169.319c35.9018 73.3996 71.6333 146.714 107.308 220l406.204 2.84217e-14
c31.8882 -73.2859 63.7729 -146.6 95.7388 -220h-170.932v-30h184h6h33h149v30h-162.322c-102.561 230.922 -205.16 461.002 -308.678 692h-2h-30z" />
    <glyph glyph-name="Adieresis" unicode="&#xc4;" 
d="M539 851h49c0 -14 -10 -22 -25 -22s-24 8 -24 22zM539 851h49c0 14 -10 22 -25 22c-14 0 -24 -8 -24 -22zM389 851h49c0 -14 -10 -22 -26 -22c-14 0 -23 8 -23 22zM389 851h49c0 14 -10 22 -26 22c-14 0 -23 -8 -23 -22zM488.196 689.704
c59.9193 -136.406 119.24 -272.519 178.508 -408.704h-377.627c66.2731 136.185 132.404 272.298 199.119 408.704zM474 722h-2c-115.02 -230.998 -230.04 -461.078 -344.179 -692h-162.821v-30h148h34h5h184v30h-169.319c35.9018 73.3996 71.6333 146.714 107.308 220
l406.204 2.84217e-14c31.8882 -73.2859 63.7729 -146.6 95.7388 -220h-170.932v-30h184h6h33h149v30h-162.322c-102.561 230.922 -205.16 461.002 -308.678 692h-2h-30z" />
    <glyph glyph-name="Agrave" unicode="&#xc0;" 
d="M580 837c-64 53 -131 112 -196 166h-49c65 -54 132 -112 196 -166h49zM488.196 689.704c59.9193 -136.406 119.24 -272.519 178.508 -408.704h-377.627c66.2731 136.185 132.404 272.298 199.119 408.704zM474 722h-2c-115.02 -230.998 -230.04 -461.078 -344.179 -692
h-162.821v-30h148h34h5h184v30h-169.319c35.9018 73.3996 71.6333 146.714 107.308 220l406.204 2.84217e-14c31.8882 -73.2859 63.7729 -146.6 95.7388 -220h-170.932v-30h184h6h33h149v30h-162.322c-102.561 230.922 -205.16 461.002 -308.678 692h-2h-30z" />
    <glyph glyph-name="Amacron" unicode="&#x100;" 
d="M615 867h-266v-30h266v30zM488.196 689.704c59.9193 -136.406 119.24 -272.519 178.508 -408.704h-377.627c66.2731 136.185 132.404 272.298 199.119 408.704zM474 722h-2c-115.02 -230.998 -230.04 -461.078 -344.179 -692h-162.821v-30h148h34h5h184v30h-169.319
c35.9018 73.3996 71.6333 146.714 107.308 220l406.204 2.84217e-14c31.8882 -73.2859 63.7729 -146.6 95.7388 -220h-170.932v-30h184h6h33h149v30h-162.322c-102.561 230.922 -205.16 461.002 -308.678 692h-2h-30z" />
    <glyph glyph-name="Aogonek" unicode="&#x104;" 
d="M488.607 688.769c59.7808 -136.092 118.982 -271.895 178.325 -407.769h-377.796c66.2072 135.873 132.397 271.676 199.471 407.769zM474 722h-2c-115.02 -230.998 -230.04 -461.078 -344.179 -692h-162.821v-30h148h34h5h185v30l-170.319 3.55271e-15
c35.9023 73.3996 71.6382 146.714 107.349 220l406.442 2.84217e-14c32.0185 -73.2859 64.0941 -146.6 96.3399 -220h-171.813v-30h148.128c-43.3615 -19.4071 -75.1275 -43.8947 -75.1275 -94c0 -62 44 -98 109 -98c37 0 63 12 95 29c-15 21 -2 2 -17 23
c-26 -14 -46 -22 -75 -22c-46 0 -78 24 -78 69c0 55.4609 51.1232 69.2659 105.469 93h10.5309h149v30h-162.322c-102.561 230.922 -205.16 461.002 -308.678 692h-1h-31z" />
    <glyph glyph-name="Aring" unicode="&#xc5;" 
d="M384 955c0 59 40 91 102 91c66 0 111 -30 111 -91c0 -60 -44 -90 -108 -90c-63 0 -105 30 -105 90zM351 955c0 -77 57 -119 138 -119c83 0 141 40 141 119c0 80 -59 120 -144 120c-80 0 -135 -42 -135 -120zM488.196 689.704
c59.9193 -136.406 119.24 -272.519 178.508 -408.704h-377.627c66.2731 136.185 132.404 272.298 199.119 408.704zM474 722h-2c-115.02 -230.998 -230.04 -461.078 -344.179 -692h-162.821v-30h148h34h5h184v30h-169.319c35.9018 73.3996 71.6333 146.714 107.308 220
l406.204 2.84217e-14c31.8882 -73.2859 63.7729 -146.6 95.7388 -220h-170.932v-30h184h6h33h149v30h-162.322c-102.561 230.922 -205.16 461.002 -308.678 692h-2h-30z" />
    <glyph glyph-name="Atilde" unicode="&#xc3;" 
d="M685 966c-16 -54 -36 -100 -86 -100c-44 0 -72 17 -104 47c-35 33 -63 54 -111 54c-71 0 -107 -49 -124 -121l27 -9c15 58 41 100 97 100c39 0 62 -19 90 -46c38 -35 71 -55 123 -55c69 0 95 54 116 121zM488.196 689.704
c59.9193 -136.406 119.24 -272.519 178.508 -408.704h-377.627c66.2731 136.185 132.404 272.298 199.119 408.704zM474 722h-2c-115.02 -230.998 -230.04 -461.078 -344.179 -692h-162.821v-30h148h34h5h184v30h-169.319c35.9018 73.3996 71.6333 146.714 107.308 220
l406.204 2.84217e-14c31.8882 -73.2859 63.7729 -146.6 95.7388 -220h-170.932v-30h184h6h33h149v30h-162.322c-102.561 230.922 -205.16 461.002 -308.678 692h-2h-30z" />
    <glyph glyph-name="B" unicode="B" horiz-adv-x="837" 
d="M262 30v364h163h17c145 0 259 -51 259 -188c0 -122 -90 -176 -221 -176h-218zM262 0h218c153 0 257 64 257 206c0 116.147 -73.9009 178.689 -178.902 204.522c71.7132 20.9925 123.902 64.2703 123.902 142.478c0 113 -82 169 -201 169h-219h-15h-13h-9h-161v-30h161
v-662h-162v-30h162h9h11h17zM262 425v267h219c96 0 165 -46 165 -139c0 -97 -99 -128 -204 -128h-17h-163z" />
    <glyph glyph-name="C" unicode="C" horiz-adv-x="858" 
d="M763 655c-82 41 -170 72 -269 72c-242 0 -386 -141 -386 -383c0 -223 135 -349 361 -349c129 0 212 32 314 100l-20 24c-94 -65 -175 -91 -293 -91c-204 0 -326 116 -326 317c0 219 130 350 348 350c88.4769 0 167.903 -21.7223 240 -58.2782v-104.722h31v123z" />
    <glyph glyph-name="Cacute" unicode="&#x106;" horiz-adv-x="858" 
d="M434 837c64 54 131 112 195 166h-49c-65 -53 -131 -112 -196 -166h50zM763 655c-82 41 -170 72 -269 72c-242 0 -386 -141 -386 -383c0 -223 135 -349 361 -349c129 0 212 32 314 100l-20 24c-94 -65 -175 -91 -293 -91c-204 0 -326 116 -326 317c0 219 130 350 348 350
c88.4769 0 167.903 -21.7223 240 -58.2782v-104.722h31v123z" />
    <glyph glyph-name="Ccaron" unicode="&#x10c;" horiz-adv-x="858" 
d="M269 1002c64 -54 131 -113 196 -166h8h41h8c65 53 132 112 196 166h-49c-57.2915 -48.3397 -116.987 -99.8849 -175.5 -148.897c-58.5129 49.0117 -118.208 100.557 -175.5 148.897h-49zM763 655c-82 41 -170 72 -269 72c-242 0 -386 -141 -386 -383
c0 -223 135 -349 361 -349c129 0 212 32 314 100l-20 24c-94 -65 -175 -91 -293 -91c-204 0 -326 116 -326 317c0 219 130 350 348 350c88.4769 0 167.903 -21.7223 240 -58.2782v-104.722h31v123z" />
    <glyph glyph-name="Ccedilla" unicode="&#xc7;" horiz-adv-x="858" 
d="M422 -90c17 10 32 12 52 12c36 0 60 -18 60 -52c0 -39 -33 -52 -76 -52c-31 0 -54 3 -83 17l-13 -23c33 -15 59 -22 94 -22c64 0 112 23 112 80c0 52 -38 81 -92 81c-10.3049 0 -19.5996 -0.757599 -28.5572 -2.22793c10.7294 15.8433 21.6871 31.9909 31.2579 46.2894
c123.51 1.58024 204.879 33.6584 304.299 99.9385l-20 24c-94 -65 -175 -91 -293 -91c-204 0 -326 116 -326 317c0 219 130 350 348 350c88.4769 0 167.903 -21.7223 240 -58.2782v-104.722h31v123c-82 41 -170 72 -269 72c-242 0 -386 -141 -386 -383
c0 -212.476 122.559 -336.891 329.616 -348.161c-13.3689 -20.6133 -27.7172 -42.9407 -39.616 -61.8388z" />
    <glyph glyph-name="D" unicode="D" horiz-adv-x="964" 
d="M265 722h-16h-21h-161v-30h161v-662h-161v-30h161h21h16h215c243 0 383 116 383 352c0 247 -144 370 -397 370h-201zM265 692h199c232 0 364 -115 364 -341c0 -214 -125 -321 -344 -321h-219v662z" />
    <glyph glyph-name="Dcaron" unicode="&#x10e;" horiz-adv-x="964" 
d="M218 1001c64 -54 131 -112 196 -166h8h41h8c65 54 132 112 196 166h-49c-57.2915 -48.3397 -116.987 -99.8849 -175.5 -148.897c-58.5129 49.0117 -118.208 100.557 -175.5 148.897h-49zM265 722h-16h-21h-161v-30h161v-662h-161v-30h161h21h16h215
c243 0 383 116 383 352c0 247 -144 370 -397 370h-201zM265 692h199c232 0 364 -115 364 -341c0 -214 -125 -321 -344 -321h-219v662z" />
    <glyph glyph-name="Dcroat" unicode="&#x110;" horiz-adv-x="964" 
d="M265 722h-17h-20h-162v-30h162v-317h-80v-33h80v-312h-162v-30h162h20h17h215c243 0 383 116 383 352c0 247 -144 370 -397 370h-201zM265 692h199c232 0 363 -115 363 -341c0 -214 -124 -321 -343 -321h-219v312h235v33h-235v317z" />
    <glyph glyph-name="E" unicode="E" horiz-adv-x="833" 
d="M263 0h491v15v15v105h-30v-105h-461v329h376v30h-376v303h420v-105h31v105v15v15h-451h-16h-15h-4h-163v-30h163v-662h-163v-30h163h4h15h16z" />
    <glyph glyph-name="Eacute" unicode="&#xc9;" horiz-adv-x="833" 
d="M391 837c64 54 131 112 195 166h-49c-65 -54 -131 -112 -196 -166h50zM263 0h491v15v15v105h-30v-105h-461v329h376v30h-376v303h420v-105h31v105v15v15h-451h-16h-15h-4h-163v-30h163v-662h-163v-30h163h4h15h16z" />
    <glyph glyph-name="Ecaron" unicode="&#x11a;" horiz-adv-x="833" 
d="M226 1001c64 -54 131 -112 196 -166h8h41h8c65 54 132 112 196 166h-49c-57.2915 -48.3397 -116.987 -99.8849 -175.5 -148.897c-58.5129 49.0117 -118.208 100.557 -175.5 148.897h-49zM263 0h491v15v15v105h-30v-105h-461v329h376v30h-376v303h420v-105h31v105v15v15
h-451h-16h-15h-4h-163v-30h163v-662h-163v-30h163h4h15h16z" />
    <glyph glyph-name="Ecircumflex" unicode="&#xca;" horiz-adv-x="833" 
d="M675 837c-64 54 -131 112 -196 166h-8h-41h-8c-65 -54 -132 -112 -196 -166h49c57.2502 48.3049 117.701 99.8105 175.627 148.791c58.4724 -48.98 118.123 -100.486 175.373 -148.791h49zM263 0h491v15v15v105h-30v-105h-461v329h376v30h-376v303h420v-105h31v105v15v15
h-451h-16h-15h-4h-163v-30h163v-662h-163v-30h163h4h15h16z" />
    <glyph glyph-name="Edieresis" unicode="&#xcb;" horiz-adv-x="833" 
d="M501 851h49c0 14 -10 22 -25 22c-14 0 -24 -9 -24 -22zM501 851h49c0 -15 -10 -23 -25 -23c-14 0 -24 9 -24 23zM351 851h49c0 14 -10 22 -25 22s-24 -9 -24 -22zM351 851h49c0 -15 -10 -23 -26 -23c-14 0 -23 9 -23 23zM263 0h491v15v15v105h-30v-105h-461v329h376v30
h-376v303h420v-105h31v105v15v15h-451h-16h-15h-4h-163v-30h163v-662h-163v-30h163h4h15h16z" />
    <glyph glyph-name="Edotaccent" unicode="&#x116;" horiz-adv-x="833" 
d="M425 851h49c0 -14 -10 -22 -25 -22s-24 8 -24 22zM425 851h49c0 14 -10 23 -25 23s-24 -9 -24 -23zM263 0h491v15v15v105h-30v-105h-461v329h376v30h-376v303h420v-105h31v105v15v15h-451h-16h-15h-4h-163v-30h163v-662h-163v-30h163h4h15h16z" />
    <glyph glyph-name="Egrave" unicode="&#xc8;" horiz-adv-x="833" 
d="M542 836c-64 54 -131 112 -196 166h-49c65 -54 132 -112 196 -166h49zM263 0h491v15v15v105h-30v-105h-461v329h376v30h-376v303h420v-105h31v105v15v15h-451h-16h-15h-4h-163v-30h163v-662h-163v-30h163h4h15h16z" />
    <glyph glyph-name="Emacron" unicode="&#x112;" horiz-adv-x="833" 
d="M577 866h-266v-29h266v29zM263 0h491v15v15v105h-30v-105h-461v329h376v30h-376v303h420v-105h31v105v15v15h-451h-16h-15h-4h-163v-30h163v-662h-163v-30h163h4h15h16z" />
    <glyph glyph-name="Eogonek" unicode="&#x118;" horiz-adv-x="831" 
d="M663.753 1.77636e-15c-37.5193 -18.6928 -63.7526 -43.0951 -63.7526 -89c0 -62 44 -98 108 -98c38 0 63 12 95 29c-15 21 -2 2 -17 23c-26 -14 -46 -23 -75 -23c-46 0 -78 25 -78 69c0 52.9979 45.0874 68.423 95.5891 89l25.4109 7.10543e-15v15v15v105h-30v-105h-461
v329h376v30h-376v303h420v-105h31v105v15v15h-451h-16h-15h-4h-163v-30h163v-662h-163v-30h163h4h15h16z" />
    <glyph glyph-name="Eth" unicode="&#xd0;" horiz-adv-x="964" 
d="M265 722h-16h-21h-161v-30h161v-317h-80v-33h80v-312h-161v-30h161h21h16h215c243 0 383 116 383 352c0 247 -144 370 -397 370h-201zM265 692h199c232 0 364 -115 364 -341c0 -214 -125 -321 -344 -321h-219v312h235v33h-235v317z" />
    <glyph glyph-name="Euro" unicode="&#x20ac;" horiz-adv-x="977" 
d="M851 655c-81 41 -169 72 -269 72c-204.067 0 -339.303 -101.095 -375.96 -279h-119.04v-31h113.76c-3.15461 -23.1837 -4.76047 -47.5326 -4.76047 -73c0 -22.3143 1.36174 -43.6573 4.03813 -64h-113.038v-32h118.501c34.4885 -162.813 161.142 -253 351.499 -253
c129 0 213 32 315 100l-21 24c-94 -65 -175 -91 -292 -91c-168.519 0 -281.764 79.1584 -316.059 220h330.059v32h-336.324c-3.09665 20.5455 -4.67551 42.2272 -4.67551 65c0 25.1857 1.73257 49.2075 5.13077 72h335.869v31h-330.053
c35.6685 156.426 156.785 247 338.053 247c87.1243 0 167.074 -21.5236 239 -57.7764v-105.224h31v123z" />
    <glyph glyph-name="F" unicode="F" horiz-adv-x="803" 
d="M265 692h424v-105h31v105v15v15h-455h-18h-13h-5h-164v-30h164v-662h-164v-30h164h18h18h164v30h-164v329h368v30h-368v303z" />
    <glyph glyph-name="G" unicode="G" horiz-adv-x="960" 
d="M814 93.12c-100.368 -45.1438 -185.794 -65.12 -303 -65.12c-228 0 -371 117 -371 339c0 213 139 328 358 328c112.436 0 200.862 -22.1643 299 -71.8178v-103.182h30v122c-108 60 -205 85 -329 85c-243 0 -394 -125 -394 -363c0 -243 158 -369 407 -369
c132 0 218 25 336 82v247h-12h-21h-239v-30h239v-200.88z" />
    <glyph glyph-name="Gbreve" unicode="&#x11e;" horiz-adv-x="960" 
d="M632 962c0 -69 -57 -96 -133 -96c-73 0 -127 29 -127 97h-33c0 -88 64 -127 158 -127c98 0 168 36 168 126h-33zM814 93.12c-100.368 -45.1438 -185.794 -65.12 -303 -65.12c-228 0 -371 117 -371 339c0 213 139 328 358 328c112.436 0 200.862 -22.1643 299 -71.8178
v-103.182h30v122c-108 60 -205 85 -329 85c-243 0 -394 -125 -394 -363c0 -243 158 -369 407 -369c132 0 218 25 336 82v247h-12h-21h-239v-30h239v-200.88z" />
    <glyph glyph-name="Gcommaaccent" unicode="&#x122;" horiz-adv-x="960" 
d="M435 -301l131 181h-48l-120 -181h37zM814 93.12c-100.368 -45.1438 -185.794 -65.12 -303 -65.12c-228 0 -371 117 -371 339c0 213 139 328 358 328c112.436 0 200.862 -22.1643 299 -71.8178v-103.182h30v122c-108 60 -205 85 -329 85c-243 0 -394 -125 -394 -363
c0 -243 158 -369 407 -369c132 0 218 25 336 82v247h-12h-21h-239v-30h239v-200.88z" />
    <glyph glyph-name="H" unicode="H" horiz-adv-x="1092" 
d="M828 348v-318h-163v-30h182h182v30h-165v662h165v30h-182h-182v-30h163v-314h-563v314h164v30h-164h-18h-18h-164v-30h164v-662h-164v-30h164h18h18h164v30h-164v318h563z" />
    <glyph glyph-name="I" unicode="I" horiz-adv-x="493" 
d="M228 0h19h16h166v30h-166v662h166v30h-166h-16h-19h-163v-30h163v-662h-163v-30h163z" />
    <glyph glyph-name="Iacute" unicode="&#xcd;" horiz-adv-x="496" 
d="M188 837c64 54 131 112 195 166h-48c-65 -53 -132 -112 -196 -166h49zM228 0h20h16h166v30h-166v662h166v30h-166h-16h-20h-162v-30h162v-662h-162v-30h162z" />
    <glyph glyph-name="Icircumflex" unicode="&#xce;" horiz-adv-x="570" 
d="M513 837c-64 54 -131 113 -195 166h-9h-40h-9c-65 -53 -131 -112 -195 -166h49c57.3634 48.4003 117.137 100.014 175 149.081c57.8632 -49.0668 117.637 -100.681 175 -149.081h49zM269 0h20h16h166v30h-166v662h166v30h-166h-16h-20h-162v-30h162v-662h-162v-30h162z
" />
    <glyph glyph-name="Idieresis" unicode="&#xcf;" horiz-adv-x="498" 
d="M300 851h49c0 -14 -10 -22 -25 -22s-24 8 -24 22zM300 851h49c0 14 -10 22 -25 22s-24 -8 -24 -22zM150 851h49c0 -14 -11 -22 -26 -22c-14 0 -23 8 -23 22zM150 851h49c0 14 -11 22 -26 22c-14 0 -23 -8 -23 -22zM230 0h19h17h166v30h-166v662h166v30h-166h-17h-19h-163
v-30h163v-662h-163v-30h163z" />
    <glyph glyph-name="Idotaccent" unicode="&#x130;" horiz-adv-x="493" 
d="M221 852h50c0 -14 -11 -22 -26 -22c-14 0 -24 8 -24 22zM221 852h50c0 14 -11 22 -26 22c-14 0 -24 -9 -24 -22zM228 0h19h16h166v30h-166v662h166v30h-166h-16h-19h-163v-30h163v-662h-163v-30h163z" />
    <glyph glyph-name="Igrave" unicode="&#xcc;" horiz-adv-x="495" 
d="M340 837c-64 53 -131 112 -196 166h-49c65 -54 132 -112 196 -166h49zM229 0h19h17h166v30h-166v662h166v30h-166h-17h-19h-163v-30h163v-662h-163v-30h163z" />
    <glyph glyph-name="Imacron" unicode="&#x12a;" horiz-adv-x="493" 
d="M374 867h-267v-30h267v30zM228 0h19h16h166v30h-166v662h166v30h-166h-16h-19h-163v-30h163v-662h-163v-30h163z" />
    <glyph glyph-name="Iogonek" unicode="&#x12e;" horiz-adv-x="493" 
d="M181.52 0c-35.704 -18.441 -60.5195 -42.7142 -60.5195 -87c0 -62 44 -98 109 -98c37 0 62 12 95 29c-15 21 -2 2 -17 23c-26 -14 -46 -22 -75 -22c-46 0 -78 24 -78 68c0 51.268 42.192 67.3759 89.9718 87h2.0282h16h166v30h-166v662h166v30h-166h-16h-19h-163v-30h163
v-662h-163v-30h116.52z" />
    <glyph glyph-name="J" unicode="J" horiz-adv-x="622" 
d="M51 42c35 -21 83 -44 142 -44c142 0 223 79 223 222v472h165v30h-165h-17h-20h-163v-30h163v-472c0 -120 -66 -191 -186 -191c-50 0 -84 17 -126 37c-15 -21 -1 -3 -16 -24z" />
    <glyph glyph-name="K" unicode="K" horiz-adv-x="944" 
d="M266 360.359c146.187 -110.359 293.092 -220.041 440.056 -330.359h-146.056v-30h186h2h2h55h124v30h-164.885c-158.225 116.281 -315.67 233.988 -473.115 350c148.692 104.905 294.055 208.146 442.162 312h167.838v30h-125h-53h-4h-185v-30h142.895
c-137.24 -97.7883 -274.416 -195.577 -410.895 -293.365v293.365h157v30h-157h-19h-18h-164v-30h164v-662h-164v-30h164h18h19h158v30h-158v330.359z" />
    <glyph glyph-name="Kcommaaccent" unicode="&#x136;" horiz-adv-x="944" 
d="M447 -300l131 182h-47l-121 -182h37zM266 360.359c146.187 -110.359 293.092 -220.041 440.056 -330.359h-146.056v-30h186h2h2h55h124v30h-164.885c-158.225 116.281 -315.67 233.988 -473.115 350c148.692 104.905 294.055 208.146 442.162 312h167.838v30h-125h-53h-4
h-185v-30h142.895c-137.24 -97.7883 -274.416 -195.577 -410.895 -293.365v293.365h157v30h-157h-19h-18h-164v-30h164v-662h-164v-30h164h18h19h158v30h-158v330.359z" />
    <glyph glyph-name="L" unicode="L" horiz-adv-x="811" 
d="M265 0h481v15v15v105h-31v-105h-450v662h162v30h-162h-20h-17h-165v-30h165v-662h-165v-30h165h17h20z" />
    <glyph glyph-name="Lacute" unicode="&#x139;" horiz-adv-x="812" 
d="M188 836c64 54 131 112 195 166h-49c-64 -53 -131 -112 -195 -166h49zM266 0h481v15v15v105h-31v-105h-450v662h162v30h-162h-20h-17h-165v-30h165v-662h-165v-30h165h17h20z" />
    <glyph glyph-name="Lcaron" unicode="&#x13d;" horiz-adv-x="780" 
d="M572 540l131 182h-47l-121 -182h37zM265 0h481v15v15v105h-31v-105h-450v662h162v30h-162h-20h-17h-165v-30h165v-662h-165v-30h165h17h20z" />
    <glyph glyph-name="Lcommaaccent" unicode="&#x13b;" horiz-adv-x="811" 
d="M376 -301l131 182h-47l-121 -182h37zM265 0h481v15v15v105h-31v-105h-450v662h162v30h-162h-20h-17h-165v-30h165v-662h-165v-30h165h17h20z" />
    <glyph glyph-name="Lslash" unicode="&#x141;" horiz-adv-x="811" 
d="M265 0h481v15v15v105h-31v-105h-450v281.935c69.6667 58.54 139.333 117.302 209 176.065v34c-69.6667 -58.1565 -139.333 -116.68 -209 -175.126v345.126h162v30h-162h-20h-17h-165v-30h165v-376.157c-33 -27.6653 -66 -55.2954 -99 -82.8433v-35
c33 27.5478 66 55.178 99 82.8669v-250.867h-165v-30h165h17h20z" />
    <glyph glyph-name="M" unicode="M" horiz-adv-x="1263" 
d="M618 0h28h9c100.527 222.265 201.053 443.68 301.58 665.813c21.012 -212.137 41.3689 -423.62 62.4371 -635.813h-161.017v-30h164h18h18h164v30h-167.112c-22.9234 220.924 -45.8119 441.076 -67.8944 662h164.007v30h-167h-2h-13h-18h-4
c-106.27 -230.731 -210.708 -460.546 -315.067 -691.199c-105.396 230.653 -211.748 460.468 -319.933 691.199h-4h-14h-17h-2h-163v-30h160.131c-21.1639 -220.924 -43.0989 -441.076 -64.2629 -662h-164.869v-30h162h20h16h166v30h-163.142
c20.1869 212.204 39.6302 423.696 59.0133 635.844c102.37 -222.144 204.675 -443.569 306.128 -665.844h9z" />
    <glyph glyph-name="N" unicode="N" horiz-adv-x="1109" 
d="M870 0h36h1v692h164v30h-164h-17h-1h-19h-162v-30h162v-651.074c-199.893 227.254 -398.947 453.719 -598 681.074h-6h-17h-20h-3h-159v-30h162v-662h-163l-1 -30h164h19h18h164v30h-164v646.337c197.781 -225.664 396.33 -450.562 594 -676.337h10z" />
    <glyph glyph-name="Nacute" unicode="&#x143;" horiz-adv-x="1109" 
d="M503 837c64 54 131 112 196 166h-49c-65 -53 -132 -112 -196 -166h49zM870 0h36h1v692h164v30h-164h-17h-1h-19h-162v-30h162v-651.074c-199.893 227.254 -398.947 453.719 -598 681.074h-6h-17h-20h-3h-159v-30h162v-662h-163l-1 -30h164h19h18h164v30h-164v646.337
c197.781 -225.664 396.33 -450.562 594 -676.337h10z" />
    <glyph glyph-name="Ncaron" unicode="&#x147;" horiz-adv-x="1109" 
d="M339 1002c64 -54 131 -113 196 -166h8h40h9c65 53 131 112 196 166h-49c-58.2599 -48.4005 -118.126 -100.014 -175.999 -149.081c-57.8634 49.0669 -117.637 100.681 -175.001 149.081h-49zM870 0h36h1v692h164v30h-164h-17h-1h-19h-162v-30h162v-651.074
c-199.893 227.254 -398.947 453.719 -598 681.074h-6h-17h-20h-3h-159v-30h162v-662h-163l-1 -30h164h19h18h164v30h-164v646.337c197.781 -225.664 396.33 -450.562 594 -676.337h10z" />
    <glyph glyph-name="Ncommaaccent" unicode="&#x145;" horiz-adv-x="1109" 
d="M498 -301l130 182h-47l-121 -182h38zM870 0h36h1v692h164v30h-164h-17h-1h-19h-162v-30h162v-651.074c-199.893 227.254 -398.947 453.719 -598 681.074h-6h-17h-20h-3h-159v-30h162v-662h-163l-1 -30h164h19h18h164v30h-164v646.337
c197.781 -225.664 396.33 -450.562 594 -676.337h10z" />
    <glyph glyph-name="Ntilde" unicode="&#xd1;" horiz-adv-x="1109" 
d="M759 966c-16 -54 -36 -100 -86 -100c-43 0 -71 17 -103 47c-36 33 -64 54 -112 54c-71 0 -106 -49 -124 -121l27 -9c16 58 42 100 98 100c39 0 62 -19 90 -46c38 -35 71 -55 122 -55c69 0 96 53 117 121zM870 0h36h1v692h164v30h-164h-17h-1h-19h-162v-30h162v-651.074
c-199.893 227.254 -398.947 453.719 -598 681.074h-6h-17h-20h-3h-159v-30h162v-662h-163l-1 -30h164h19h18h164v30h-164v646.337c197.781 -225.664 396.33 -450.562 594 -676.337h10z" />
    <glyph glyph-name="O" unicode="O" horiz-adv-x="937" 
d="M108 360c0 -224 137 -365 360 -365c225 0 361 143 361 368c0 223 -137 364 -360 364c-225 0 -361 -143 -361 -367zM144 360c0 203 120 336 322 336c204 0 327 -131 327 -333s-120 -336 -323 -336c-204 0 -326 130 -326 333z" />
    <glyph glyph-name="OE" unicode="&#x152;" horiz-adv-x="1243" 
d="M674 0h490v15v15v105h-30v-105h-460v329h376v30h-376v303h420v-105h30v105v15v15h-450h-17h-14h-5h-86.0229c-18.6626 1.50816 -38.3362 2 -59.9771 2c-241 0 -386 -141 -386 -380c0 -220 138 -346 361 -346c22.3612 0 42.7195 0.560836 62.0046 2l108.995 -4.44089e-16
h5h14h17zM638 671.032v-617.062c-57.8327 -21.2358 -104.744 -22.9702 -169 -22.9702c-197 0 -327 115 -327 314c0 218 134 346 349 346c56.5694 0 98.9864 -0.832491 147 -19.9676z" />
    <glyph glyph-name="Oacute" unicode="&#xd3;" horiz-adv-x="937" 
d="M409 837c64 54 132 112 196 166h-49c-65 -53 -132 -112 -196 -166h49zM108 360c0 -224 137 -365 360 -365c225 0 361 143 361 368c0 223 -137 364 -360 364c-225 0 -361 -143 -361 -367zM144 360c0 203 120 336 322 336c204 0 327 -131 327 -333s-120 -336 -323 -336
c-204 0 -326 130 -326 333z" />
    <glyph glyph-name="Ocircumflex" unicode="&#xd4;" horiz-adv-x="937" 
d="M694 837c-64 54 -131 113 -196 166h-9h-40h-8c-65 -53 -132 -112 -196 -166h49c57.3635 48.4005 117.137 100.014 175.001 149.081c57.873 -49.0669 117.74 -100.681 175.999 -149.081h49zM108 360c0 -224 137 -365 360 -365c225 0 361 143 361 368
c0 223 -137 364 -360 364c-225 0 -361 -143 -361 -367zM144 360c0 203 120 336 322 336c204 0 327 -131 327 -333s-120 -336 -323 -336c-204 0 -326 130 -326 333z" />
    <glyph glyph-name="Odieresis" unicode="&#xd6;" horiz-adv-x="937" 
d="M520 851h49c0 -14 -10 -22 -25 -22s-24 8 -24 22zM520 851h49c0 14 -10 22 -25 22s-24 -8 -24 -22zM370 851h49c0 -14 -11 -22 -26 -22c-14 0 -23 8 -23 22zM370 851h49c0 14 -11 22 -26 22c-14 0 -23 -8 -23 -22zM108 360c0 -224 137 -365 360 -365
c225 0 361 143 361 368c0 223 -137 364 -360 364c-225 0 -361 -143 -361 -367zM144 360c0 203 120 336 322 336c204 0 327 -131 327 -333s-120 -336 -323 -336c-204 0 -326 130 -326 333z" />
    <glyph glyph-name="Ograve" unicode="&#xd2;" horiz-adv-x="937" 
d="M561 837c-64 53 -131 112 -196 166h-49c64 -54 131 -112 196 -166h49zM108 360c0 -224 137 -365 360 -365c225 0 361 143 361 368c0 223 -137 364 -360 364c-225 0 -361 -143 -361 -367zM144 360c0 203 120 336 322 336c204 0 327 -131 327 -333s-120 -336 -323 -336
c-204 0 -326 130 -326 333z" />
    <glyph glyph-name="Ohungarumlaut" unicode="&#x150;" horiz-adv-x="937" 
d="M529 788l131 182h-48l-120 -182h37zM374 788l130 182h-47l-121 -182h38zM108 360c0 -224 137 -365 360 -365c225 0 361 143 361 368c0 223 -137 364 -360 364c-225 0 -361 -143 -361 -367zM144 360c0 203 120 336 322 336c204 0 327 -131 327 -333s-120 -336 -323 -336
c-204 0 -326 130 -326 333z" />
    <glyph glyph-name="Omacron" unicode="&#x14c;" horiz-adv-x="937" 
d="M596 867h-267v-30h267v30zM108 360c0 -224 137 -365 360 -365c225 0 361 143 361 368c0 223 -137 364 -360 364c-225 0 -361 -143 -361 -367zM144 360c0 203 120 336 322 336c204 0 327 -131 327 -333s-120 -336 -323 -336c-204 0 -326 130 -326 333z" />
    <glyph glyph-name="Oslash" unicode="&#xd8;" horiz-adv-x="937" 
d="M108 360c0 -145.787 58.0312 -256.416 160.034 -315.898l-62.0337 -103.102l26 -16l63.1397 104.982c49.3495 -22.8325 107.4 -34.9824 172.86 -34.9824c225 0 361 143 361 368c0 139.538 -53.6409 246.97 -148.428 307.84l55.4277 92.1595l-27 14l-54.752 -90.9994
c-51.9279 26.6976 -114.226 40.9994 -185.248 40.9994c-225 0 -361 -143 -361 -367zM144 360c0 203 120 336 322 336c65.858 0 123.274 -13.653 170.835 -38.9402l-351.12 -583.571c-90.8917 54.8756 -141.715 155.488 -141.715 286.511zM662.866 641.401
c83.486 -56.5315 130.134 -154.003 130.134 -278.401c0 -202 -120 -336 -323 -336c-59.8377 0 -112.62 11.1849 -157.338 32.1162z" />
    <glyph glyph-name="Otilde" unicode="&#xd5;" horiz-adv-x="937" 
d="M665 966c-16 -54 -35 -100 -86 -100c-43 0 -71 17 -103 47c-35 33 -64 54 -112 54c-71 0 -106 -49 -124 -121c27 -9 28 -9 28 -9c15 58 41 100 97 100c39 0 62 -19 90 -46c38 -35 71 -55 122 -55c69 0 96 53 117 121c-28 9 -29 9 -29 9zM108 360
c0 -224 137 -365 360 -365c225 0 361 143 361 368c0 223 -137 364 -360 364c-225 0 -361 -143 -361 -367zM144 360c0 203 120 336 322 336c204 0 327 -131 327 -333s-120 -336 -323 -336c-204 0 -326 130 -326 333z" />
    <glyph glyph-name="P" unicode="P" horiz-adv-x="788" 
d="M265 346.121v345.879h135c147 0 259 -64 259 -201c0 -122 -95 -184 -224 -184c-64.677 0 -112.166 14.4744 -170 39.1211zM252 722h-3h-20h-162v-30h162v-662h-162v-30h162h20h16h166v30h-166v284.108c54.1181 -22.1867 105.74 -37.1076 166 -37.1076
c153 3 265 72 265 216c0 153 -126 229 -292 229h-139h-13z" />
    <glyph glyph-name="Q" unicode="Q" horiz-adv-x="953" 
d="M108 360c0 -224 139 -365 363 -365c0.171444 0 0.342837 0.000253037 0.514179 0.000253037c125.103 -180.104 265.755 -232 478.486 -232v32c-192.459 0 -321.374 44.4804 -436.909 201.767c198.95 17.0738 318.909 156.691 318.909 367.233c0 223 -137 363 -360 363
c-225 0 -364 -143 -364 -367zM145 360c0 203 122 334 325 334s325 -129 325 -331c0 -203 -120 -335 -322 -335c-205 0 -328 129 -328 332z" />
    <glyph glyph-name="R" unicode="R" horiz-adv-x="986" 
d="M249 722h-4h-17h-165v-30h165v-662h-165v-30h165h17h20h163v30h-163v306h185c11.4589 0 22.6665 0.311531 33.5971 0.945905l288.403 -336.946h8h36h145v30h-170.678l-266.186 310.989c114.504 16.6339 189.864 75.9386 189.864 194.011c0 137 -106 187 -255 187h-194
h-16zM265 692h188c131 0 225 -41 225 -160c0 -120 -93 -166 -223 -166h-190v326z" />
    <glyph glyph-name="Racute" unicode="&#x154;" horiz-adv-x="986" 
d="M366 837c64 54 131 112 195 166h-48c-65 -54 -132 -112 -196 -166h49zM249 722h-4h-17h-165v-30h165v-662h-165v-30h165h17h20h163v30h-163v306h185c11.4589 0 22.6665 0.311531 33.5971 0.945905l288.403 -336.946h8h36h145v30h-170.678l-266.186 310.989
c114.504 16.6339 189.864 75.9386 189.864 194.011c0 137 -106 187 -255 187h-194h-16zM265 692h188c131 0 225 -41 225 -160c0 -120 -93 -166 -223 -166h-190v326z" />
    <glyph glyph-name="Rcaron" unicode="&#x158;" horiz-adv-x="986" 
d="M201 1001c65 -53 131 -112 196 -166h9h40h8c65 54 132 113 196 166h-49c-57.3635 -48.4005 -117.137 -100.014 -175.001 -149.081c-57.873 49.0669 -117.74 100.681 -175.999 149.081h-49zM249 722h-4h-17h-165v-30h165v-662h-165v-30h165h17h20h163v30h-163v306h185
c11.4589 0 22.6665 0.311531 33.5971 0.945905l288.403 -336.946h8h36h145v30h-170.678l-266.186 310.989c114.504 16.6339 189.864 75.9386 189.864 194.011c0 137 -106 187 -255 187h-194h-16zM265 692h188c131 0 225 -41 225 -160c0 -120 -93 -166 -223 -166h-190v326z
" />
    <glyph glyph-name="Rcommaaccent" unicode="&#x156;" horiz-adv-x="986" 
d="M430 -301l131 182h-47l-121 -182h37zM249 722h-4h-17h-165v-30h165v-662h-165v-30h165h17h20h163v30h-163v306h185c11.4589 0 22.6665 0.311531 33.5971 0.945905l288.403 -336.946h8h36h145v30h-170.678l-266.186 310.989
c114.504 16.6339 189.864 75.9386 189.864 194.011c0 137 -106 187 -255 187h-194h-16zM265 692h188c131 0 225 -41 225 -160c0 -120 -93 -166 -223 -166h-190v326z" />
    <glyph glyph-name="S" unicode="S" horiz-adv-x="736" 
d="M113 57c79 -41 157 -62 246 -62c150 0 261 43 261 176c0 128 -113 164 -235 214c-106 43 -208 71 -208 176c-1 94 83 136 189 136c76.2535 0 135.212 -20.7541 201 -51.0041v-105.996h31v123c-79 39 -142 64 -231 64c-127 0 -227 -53 -227 -168c0 -120 108 -153 223 -200
c113 -45 221 -78 221 -188c0 -109 -95 -144 -222 -144c-78.8825 0 -147.829 19.8714 -218 53.605v100.395h-31v-124z" />
    <glyph glyph-name="Sacute" unicode="&#x15a;" horiz-adv-x="736" 
d="M310 837c65 54 132 112 196 166h-49c-65 -54 -131 -112 -196 -166h49zM113 57c79 -41 157 -62 246 -62c150 0 261 43 261 176c0 128 -113 164 -235 214c-106 43 -208 71 -208 176c-1 94 83 136 189 136c76.2535 0 135.212 -20.7541 201 -51.0041v-105.996h31v123
c-79 39 -142 64 -231 64c-127 0 -227 -53 -227 -168c0 -120 108 -153 223 -200c113 -45 221 -78 221 -188c0 -109 -95 -144 -222 -144c-78.8825 0 -147.829 19.8714 -218 53.605v100.395h-31v-124z" />
    <glyph glyph-name="Scaron" unicode="&#x160;" horiz-adv-x="737" 
d="M147 1001c64 -53 131 -112 196 -166h8h41h8c65 54 132 113 196 166h-49c-57.2915 -48.3397 -116.987 -99.8849 -175.5 -148.897c-58.5129 49.0117 -118.208 100.557 -175.5 148.897h-49zM114 57c80 -41 157 -62 246 -62c150 0 261 43 261 176c0 128 -112 164 -235 214
c-106 43 -208 71 -208 176c-1 94 83 136 189 136c76.2535 0 135.212 -20.7541 201 -51.0041v-105.996h31v123c-78 39 -142 64 -231 64c-127 0 -227 -53 -227 -168c0 -120 108 -153 223 -200c113 -45 221 -78 221 -188c0 -109 -95 -144 -222 -144
c-78.8825 0 -147.829 19.8714 -218 53.605v100.395h-31v-124z" />
    <glyph glyph-name="Scedilla" unicode="&#x15e;" horiz-adv-x="736" 
d="M309 -90c17 10 31 12 51 12c37 0 61 -18 61 -53c0 -38 -34 -51 -76 -51c-31 0 -54 3 -83 17l-13 -23c32 -15 58 -22 94 -22c63 0 111 22 111 80c0 52 -37 81 -91 81c-10.7426 0 -20.3312 -0.769356 -29.4544 -2.26215c10.6865 15.946 21.5942 32.0382 31.1281 46.2829
c147.117 1.08156 255.326 44.6617 255.326 175.979c0 128 -113 164 -235 214c-106 43 -208 71 -208 176c-1 94 83 136 189 136c76.2535 0 135.212 -20.7541 201 -51.0041v-105.996h31v123c-79 39 -142 64 -231 64c-127 0 -227 -53 -227 -168c0 -120 108 -153 223 -200
c113 -45 221 -78 221 -188c0 -109 -95 -144 -222 -144c-78.8825 0 -147.829 19.8714 -218 53.605v100.395h-31v-124c68.77 -35.6908 136.782 -56.2259 211.953 -60.9458c-13.8144 -21.1408 -28.8932 -43.6104 -40.9526 -62.0542l24 -24
c0.13017 0.202487 0.260654 0.40534 0.391447 0.608553z" />
    <glyph glyph-name="Scommaaccent" unicode="&#x218;" horiz-adv-x="736" 
d="M273 -304l130 182h-47l-121 -182h38zM113 57c79 -41 157 -62 246 -62c150 0 261 43 261 176c0 128 -113 164 -235 214c-106 43 -208 71 -208 176c-1 94 83 136 189 136c76.2535 0 135.212 -20.7541 201 -51.0041v-105.996h31v123c-79 39 -142 64 -231 64
c-127 0 -227 -53 -227 -168c0 -120 108 -153 223 -200c113 -45 221 -78 221 -188c0 -109 -95 -144 -222 -144c-78.8825 0 -147.829 19.8714 -218 53.605v100.395h-31v-124z" />
    <glyph glyph-name="T" unicode="T" horiz-adv-x="890" 
d="M427 690v-660h-165v-30h165h17h19h163v30h-163v660h319v-104h31v104v16v16h-735v-16v-16v-104h31v104h318z" />
    <glyph glyph-name="Tcaron" unicode="&#x164;" horiz-adv-x="890" 
d="M218 1001c64 -54 131 -112 196 -166h8h41h8c65 54 132 112 196 166h-49c-57.2915 -48.3397 -116.987 -99.8849 -175.5 -148.897c-58.5129 49.0117 -118.208 100.557 -175.5 148.897h-49zM427 690v-660h-165v-30h165h17h19h163v30h-163v660h319v-104h31v104v16v16h-735
v-16v-16v-104h31v104h318z" />
    <glyph glyph-name="Tcedilla" horiz-adv-x="890" 
d="M412 -90c17 10 32 12 52 12c36 0 60 -18 60 -52c0 -39 -33 -52 -76 -52c-31 0 -54 3 -83 17l-13 -23c32 -15 59 -22 94 -22c64 0 111 22 111 80c0 52 -37 81 -91 81c-10.5217 0 -19.9903 -0.789821 -29.1223 -2.3217c12.0171 17.7266 24.2273 35.8394 35.1223 51.3217
h154v30h-163v660h319v-104h31v104v16v16h-735v-16v-16v-104h31v104h318v-660h-165v-30h165l3.57451 1.77636e-15c-14.2347 -21.9903 -30.036 -45.6923 -43.5745 -66l24 -23z" />
    <glyph glyph-name="Tcommaaccent" unicode="&#x162;" horiz-adv-x="890" 
d="M381 -304l131 181h-48l-120 -181h37zM427 690v-660h-165v-30h165h17h19h163v30h-163v660h319v-104h31v104v16v16h-735v-16v-16v-104h31v104h318z" />
    <glyph glyph-name="Thorn" unicode="&#xde;" horiz-adv-x="782" 
d="M265 692h166v30h-166h-16h-20h-162v-30h162v-662h-162v-30h162h20h16h166v30h-166v182.245c55.1169 -22.2624 107.616 -37.2449 168 -37.2449c151 3 261 72 261 214c0 151 -125 226 -290 226h-139v77zM265 244.121v340.879h135c147 0 258 -63 258 -198
c0 -120 -95 -182 -223 -182c-64.677 0 -112.166 14.4744 -170 39.1211z" />
    <glyph glyph-name="U" unicode="U" horiz-adv-x="1040" 
d="M238 692h169v30h-182h-182v-30h162v-420c0 -195 113 -277 317 -277c200 0 313 80 313 271v426h164v30h-182h-182v-30h166v-431c0 -162 -101 -233 -276 -233c-185 0 -287 73 -287 249v415z" />
    <glyph glyph-name="Uacute" unicode="&#xda;" horiz-adv-x="1040" 
d="M460 837c64 54 131 112 195 166h-48c-65 -53 -132 -112 -196 -166h49zM238 692h169v30h-182h-182v-30h162v-420c0 -195 113 -277 317 -277c200 0 313 80 313 271v426h164v30h-182h-182v-30h166v-431c0 -162 -101 -233 -276 -233c-185 0 -287 73 -287 249v415z" />
    <glyph glyph-name="Ucircumflex" unicode="&#xdb;" horiz-adv-x="1040" 
d="M744 837c-64 54 -131 113 -195 166h-9h-40h-9c-64 -53 -131 -112 -195 -166h49c57.3634 48.4003 117.137 100.014 175 149.081c57.8632 -49.0668 117.637 -100.681 175 -149.081h49zM238 692h169v30h-182h-182v-30h162v-420c0 -195 113 -277 317 -277
c200 0 313 80 313 271v426h164v30h-182h-182v-30h166v-431c0 -162 -101 -233 -276 -233c-185 0 -287 73 -287 249v415z" />
    <glyph glyph-name="Udieresis" unicode="&#xdc;" horiz-adv-x="1040" 
d="M571 851h49c0 -14 -11 -22 -26 -22c-14 0 -23 8 -23 22zM571 851h49c0 14 -11 22 -26 22c-14 0 -23 -8 -23 -22zM420 851h49c0 -14 -10 -22 -25 -22s-24 8 -24 22zM420 851h49c0 14 -10 22 -25 22c-14 0 -24 -8 -24 -22zM238 692h169v30h-182h-182v-30h162v-420
c0 -195 113 -277 317 -277c200 0 313 80 313 271v426h164v30h-182h-182v-30h166v-431c0 -162 -101 -233 -276 -233c-185 0 -287 73 -287 249v415z" />
    <glyph glyph-name="Ugrave" unicode="&#xd9;" horiz-adv-x="1040" 
d="M612 837c-65 53 -131 112 -196 166h-49c64 -54 131 -112 195 -166h50zM238 692h169v30h-182h-182v-30h162v-420c0 -195 113 -277 317 -277c200 0 313 80 313 271v426h164v30h-182h-182v-30h166v-431c0 -162 -101 -233 -276 -233c-185 0 -287 73 -287 249v415z" />
    <glyph glyph-name="Uhungarumlaut" unicode="&#x170;" horiz-adv-x="1040" 
d="M579 788l131 182h-47l-121 -182h37zM424 788l131 182h-47l-121 -182h37zM238 692h169v30h-182h-182v-30h162v-420c0 -195 113 -277 317 -277c200 0 313 80 313 271v426h164v30h-182h-182v-30h166v-431c0 -162 -101 -233 -276 -233c-185 0 -287 73 -287 249v415z" />
    <glyph glyph-name="Umacron" unicode="&#x16a;" horiz-adv-x="1040" 
d="M647 867h-267v-30h267v30zM238 692h169v30h-182h-182v-30h162v-420c0 -195 113 -277 317 -277c200 0 313 80 313 271v426h164v30h-182h-182v-30h166v-431c0 -162 -101 -233 -276 -233c-185 0 -287 73 -287 249v415z" />
    <glyph glyph-name="Uogonek" unicode="&#x172;" horiz-adv-x="1040" 
d="M462.027 -2.36954c-38.1982 -18.7755 -65.0266 -43.2077 -65.0266 -89.6305c0 -62 44 -98 109 -98c37 0 62 12 94 29c-14 21 -2 2 -16 23c-26 -14 -46 -22 -75 -22c-47 0 -79 24 -79 68c0 50.6906 41.247 67.0087 89.0273 87.0058
c0.988756 -0.00388995 1.97967 -0.00583314 2.97274 -0.00583314c200 0 313 80 313 271v426h164v30h-182h-182v-30h166v-431c0 -162 -101 -233 -276 -233c-185 0 -287 73 -287 249v415h169v30h-182h-182v-30h162v-420c0 -174.965 90.9728 -258.957 257.027 -274.37z" />
    <glyph glyph-name="Uring" unicode="&#x16e;" horiz-adv-x="1040" 
d="M415 955c0 59 41 91 103 91c65 0 110 -30 110 -91c0 -60 -44 -90 -108 -90c-62 0 -105 30 -105 90zM382 955c0 -77 57 -119 138 -119c83 0 142 40 142 119s-60 120 -144 120c-81 0 -136 -42 -136 -120zM238 692h169v30h-182h-182v-30h162v-420c0 -195 113 -277 317 -277
c200 0 313 80 313 271v426h164v30h-182h-182v-30h166v-431c0 -162 -101 -233 -276 -233c-185 0 -287 73 -287 249v415z" />
    <glyph glyph-name="V" unicode="V" horiz-adv-x="998" 
d="M493 0h7c104.476 230.998 209.872 461.078 315.305 692h160.695v30h-147h-35h-1h-3h-187v-30h173.31c-100.053 -219.294 -199.347 -437.828 -299.389 -657.111c-101.117 219.283 -202.943 437.817 -303.216 657.111h171.295v30h-185h-5h-1h-35h-148v-30h161.939
c107.276 -230.922 213.709 -461.002 321.061 -692h7h32z" />
    <glyph glyph-name="W" unicode="W" horiz-adv-x="1239" 
d="M832.287 47.1551c-65.5513 225.164 -131.919 449.567 -198.287 674.845h-9h-25h-9c-73.093 -225.839 -147.064 -450.799 -220.268 -676.527c-62.7715 215.065 -126.243 431.531 -188.98 646.527h171.248v30h-180h-2h-35h-148v-30h156.964
c69.0119 -230.922 138.024 -461.002 207.036 -692h4h28h4c74.6386 227.695 149.277 454.497 223.916 682.094c67.9236 -227.596 135.004 -454.399 202.084 -682.094h4h28h4c71.8874 230.998 143.775 461.078 215.662 692h157.338v30h-148h-34h-1h-2h-180v-30h170.792
c-66.0287 -215.205 -131.293 -429.678 -196.504 -644.845z" />
    <glyph glyph-name="X" unicode="X" horiz-adv-x="933" 
d="M467.798 355.215c87.5097 -108.341 175.122 -216.685 262.93 -325.215h-163.727v-30h182h6h44h132v30h-156.278c-95.0668 117.454 -190.134 234.69 -285.2 351.94c83.9634 103.29 167.938 206.59 252.081 310.06h158.397v30h-134h-42h-6h-182v-30h163.468
c-77.2221 -94.4004 -154.585 -188.66 -231.968 -282.899c-76.4073 94.2391 -152.815 188.499 -229.222 282.899h159.722v30h-181h-1h-2h-42h-137v-30h161.153c83.1512 -103.261 166.31 -206.354 249.555 -309.435c-96.4557 -117.458 -192.926 -234.902 -289.177 -352.565
h-158.532v-30h134h47h1h182v30h-158.603c88.2585 108.53 176.331 216.874 264.4 325.215z" />
    <glyph glyph-name="Y" unicode="Y" horiz-adv-x="879" 
d="M677 722h-182v-30h173.028c-84.1071 -109.823 -168.777 -220.266 -252.12 -330.07c-79.5997 109.804 -158.56 220.247 -238.141 330.07h173.233v30h-182h-13h-38h-131v-30h152.568c84.955 -118.139 170.694 -236.994 256.432 -355v-307h-163v-30h163h20h19h163v30h-163
v307c90.3482 118.006 179.846 236.861 270.845 355h154.155v30h-131h-38h-13v-16.978c-0.333323 -0.435282 -0.666657 -0.870574 -1 -1.30588v18.2838z" />
    <glyph glyph-name="Yacute" unicode="&#xdd;" horiz-adv-x="879" 
d="M355 837c64 54 131 112 196 166h-49c-65 -53 -132 -112 -196 -166h49zM677 722h-182v-30h173.028c-84.1071 -109.823 -168.777 -220.266 -252.12 -330.07c-79.5997 109.804 -158.56 220.247 -238.141 330.07h173.233v30h-182h-13h-38h-131v-30h152.568
c84.955 -118.139 170.694 -236.994 256.432 -355v-307h-163v-30h163h20h19h163v30h-163v307c90.3482 118.006 179.846 236.861 270.845 355h154.155v30h-131h-38h-13v-16.978c-0.333323 -0.435282 -0.666657 -0.870574 -1 -1.30588v18.2838z" />
    <glyph glyph-name="Ydieresis" unicode="&#x178;" horiz-adv-x="879" 
d="M677 722h-182v-30h173.028c-84.1071 -109.823 -168.777 -220.266 -252.12 -330.07c-79.5997 109.804 -158.56 220.247 -238.141 330.07h173.233v30h-182h-13h-38h-131v-30h152.568c84.955 -118.139 170.694 -236.994 256.432 -355v-307h-163v-30h163h20h19h163v30h-163
v307c90.3482 118.006 179.846 236.861 270.845 355h154.155v30h-131h-38h-13v-16.978c-0.333323 -0.435282 -0.666657 -0.870574 -1 -1.30588v18.2838zM466 851h49c0 -14 -10 -22 -26 -22c-14 0 -23 8 -23 22zM466 851h49c0 14 -10 22 -26 22c-14 0 -23 -8 -23 -22zM315 851
h50c0 -14 -11 -22 -26 -22c-14 0 -24 8 -24 22zM315 851h50c0 14 -11 22 -26 22c-14 0 -24 -8 -24 -22z" />
    <glyph glyph-name="Z" unicode="Z" horiz-adv-x="831" 
d="M111.462 30c191.564 214.667 0.0758162 0.0612816 593.538 662v30h-592v-15v-15v-105h31v105h515.541c-190.568 -213.667 -0.0913728 -0.0844318 -592.541 -662v-30h683v15v15v105h-31v-105z" />
    <glyph glyph-name="Zacute" unicode="&#x179;" horiz-adv-x="831" 
d="M353 837c64 54 131 112 195 166h-49c-65 -54 -131 -112 -196 -166h50zM111.462 30c191.564 214.667 0.0758162 0.0612816 593.538 662v30h-592v-15v-15v-105h31v105h515.541c-190.568 -213.667 -0.0913728 -0.0844318 -592.541 -662v-30h683v15v15v105h-31v-105z" />
    <glyph glyph-name="Zcaron" unicode="&#x17d;" horiz-adv-x="831" 
d="M188 1002c64 -54 131 -113 196 -166h8h41h8c65 53 132 112 196 166h-49c-57.2915 -49.2349 -116.987 -100.073 -175.5 -148.926c-58.5129 48.8536 -118.208 99.6912 -175.5 148.926h-49zM111.462 30c191.564 214.667 0.0758162 0.0612816 593.538 662v30h-592v-15v-15
v-105h31v105h515.541c-190.568 -213.667 -0.0913728 -0.0844318 -592.541 -662v-30h683v15v15v105h-31v-105z" />
    <glyph glyph-name="Zdotaccent" unicode="&#x17b;" horiz-adv-x="831" 
d="M387 852h49c0 14 -10 22 -25 22s-24 -9 -24 -22zM387 852h49c0 -15 -10 -23 -25 -23s-24 9 -24 23zM111.462 30c191.564 214.667 0.0758162 0.0612816 593.538 662v30h-592v-15v-15v-105h31v105h515.541c-190.568 -213.667 -0.0913728 -0.0844318 -592.541 -662v-30h683
v15v15v105h-31v-105z" />
    <glyph glyph-name="a" unicode="a" horiz-adv-x="712" 
d="M540 0h15h155v30h-155v357c0 119 -80 151 -202 151c-100 0 -172 -32 -230 -74v-121h31v105.763c49.5921 31.1328 111.529 58.2365 194 58.2365c105 0 171 -25 171 -128v-57.8583c-84.524 -9.74272 -138.518 -14.7806 -228 -25.1417c-108 -13 -188 -43 -188 -145
c0 -105 69 -156 180 -156c110.254 0 165.958 49.0158 236 126.662v-121.662h21zM519 159.174c-72.1924 -78.8143 -124.339 -134.174 -230 -134.174c-94 0 -150 40 -150 128c0 82 65 106 151 116c89.8383 10.294 143.771 16.2092 229 25.9411v-135.767z" />
    <glyph glyph-name="aacute" unicode="&#xe1;" horiz-adv-x="712" 
d="M298 655c65 54 132 112 196 166h-49c-65 -54 -131 -112 -196 -166h49zM540 0h15h155v30h-155v357c0 119 -80 151 -202 151c-100 0 -172 -32 -230 -74v-121h31v105.763c49.5921 31.1328 111.529 58.2365 194 58.2365c105 0 171 -25 171 -128v-57.8583
c-84.524 -9.74272 -138.518 -14.7806 -228 -25.1417c-108 -13 -188 -43 -188 -145c0 -105 69 -156 180 -156c110.254 0 165.958 49.0158 236 126.662v-121.662h21zM519 159.174c-72.1924 -78.8143 -124.339 -134.174 -230 -134.174c-94 0 -150 40 -150 128
c0 82 65 106 151 116c89.8383 10.294 143.771 16.2092 229 25.9411v-135.767z" />
    <glyph glyph-name="abreve" unicode="&#x103;" horiz-adv-x="712" 
d="M492 780c0 -69 -57 -96 -133 -96c-74 0 -127 29 -127 97h-34c0 -88 65 -127 159 -127c98 0 168 36 168 126h-33zM540 0h15h155v30h-155v357c0 119 -80 151 -202 151c-100 0 -172 -32 -230 -74v-121h31v105.763c49.5921 31.1328 111.529 58.2365 194 58.2365
c105 0 171 -25 171 -128v-57.8583c-84.524 -9.74272 -138.518 -14.7806 -228 -25.1417c-108 -13 -188 -43 -188 -145c0 -105 69 -156 180 -156c110.254 0 165.958 49.0158 236 126.662v-121.662h21zM519 159.174c-72.1924 -78.8143 -124.339 -134.174 -230 -134.174
c-94 0 -150 40 -150 128c0 82 65 106 151 116c89.8383 10.294 143.771 16.2092 229 25.9411v-135.767z" />
    <glyph glyph-name="acircumflex" unicode="&#xe2;" horiz-adv-x="712" 
d="M583 655c-64 54 -131 112 -195 166h-9h-40h-9c-65 -54 -131 -112 -196 -166h50c57.3634 48.4003 117.137 100.014 175 149.081c57.8632 -49.0668 117.637 -100.681 175 -149.081h49zM540 0h16h154v30h-154v357c0 119 -80 151 -203 151c-99 0 -171 -32 -229 -74v-121h30
v105.749c49.7419 31.1391 112.423 58.2515 194 58.2515c105 0 172 -25 172 -128v-57.8396c-85.4515 -9.755 -139.403 -14.7927 -228 -25.1604c-109 -13 -188 -43 -188 -145c0 -105 68 -156 179 -156c111.519 0 167.323 49.348 237 127.451v-122.451h20zM520 160.266
c-72.7126 -79.3943 -124.852 -135.266 -231 -135.266c-93 0 -150 40 -150 128c0 82 65 106 151 116c90.7742 10.294 144.767 16.2092 230 25.9411v-134.675z" />
    <glyph glyph-name="acute" unicode="&#xb4;" horiz-adv-x="361" 
d="M59 591c65 54 132 112 196 166h-49c-65 -54 -131 -112 -196 -166h49z" />
    <glyph glyph-name="adieresis" unicode="&#xe4;" horiz-adv-x="712" 
d="M409 669h49c0 -14 -10 -22 -25 -22s-24 8 -24 22zM409 669h49c0 14 -10 22 -25 22s-24 -9 -24 -22zM259 669h49c0 14 -11 22 -26 22c-14 0 -23 -9 -23 -22zM259 669h49c0 -14 -10 -22 -26 -22c-14 0 -23 8 -23 22zM540 0h15h155v30h-155v357c0 119 -80 151 -202 151
c-100 0 -172 -32 -230 -74v-121h31v105.763c49.5921 31.1328 111.529 58.2365 194 58.2365c105 0 171 -25 171 -128v-57.8583c-84.524 -9.74272 -138.518 -14.7806 -228 -25.1417c-108 -13 -188 -43 -188 -145c0 -105 69 -156 180 -156
c110.254 0 165.958 49.0158 236 126.662v-121.662h21zM519 159.174c-72.1924 -78.8143 -124.339 -134.174 -230 -134.174c-94 0 -150 40 -150 128c0 82 65 106 151 116c89.8383 10.294 143.771 16.2092 229 25.9411v-135.767z" />
    <glyph glyph-name="ae" unicode="&#xe6;" horiz-adv-x="1112" 
d="M972 297h-418.64c5.74624 133.513 80.1649 210 212.64 210c131 0 206 -71 206 -203v-7zM553.162 268h452.838v33c0 154 -87 236 -237 236c-104.918 0 -179.637 -38.5889 -219.266 -110.605c-16.0629 86.7358 -90.3008 111.605 -198.734 111.605c-99 0 -172 -32 -229 -74
v-109h30v91.3949c51.1065 33.6446 108.203 60.6051 194 60.6051c105 0 171 -25 171 -128v-81.9759c-19.2591 0.045433 -36.9508 0.139127 -53.8863 0.139127c-55.8892 0 -103.542 -1.02041 -172.114 -8.16327c-109 -13 -189 -38 -189 -140c0 -105 68 -154 179 -154
c116.483 0 190.61 46.7693 267.971 131.189c42.9207 -85.8098 127.913 -132.189 248.029 -132.189c85 0 139 24 205 79l-22 22c-60 -48 -107 -70 -183 -70c-153.082 0 -239.614 88.4158 -243.838 243zM517.147 268.034c1.02734 -41.576 7.44795 -78.8313 18.9759 -111.48
c-74.2797 -79.7891 -142.407 -131.554 -249.122 -131.554c-89 0 -150 38 -150 126c0 73 68 100 154 110c60.625 6.25 104.062 7.42188 151.064 7.42188c23.3074 0 47.4913 -0.288162 75.0821 -0.388172z" />
    <glyph glyph-name="agrave" unicode="&#xe0;" horiz-adv-x="712" 
d="M450 654c-64 54 -131 113 -196 166h-49c65 -54 132 -112 196 -166h49zM540 0h15h155v30h-155v357c0 119 -80 151 -202 151c-100 0 -172 -32 -230 -74v-121h31v105.763c49.5921 31.1328 111.529 58.2365 194 58.2365c105 0 171 -25 171 -128v-57.8583
c-84.524 -9.74272 -138.518 -14.7806 -228 -25.1417c-108 -13 -188 -43 -188 -145c0 -105 69 -156 180 -156c110.254 0 165.958 49.0158 236 126.662v-121.662h21zM519 159.174c-72.1924 -78.8143 -124.339 -134.174 -230 -134.174c-94 0 -150 40 -150 128
c0 82 65 106 151 116c89.8383 10.294 143.771 16.2092 229 25.9411v-135.767z" />
    <glyph glyph-name="amacron" unicode="&#x101;" horiz-adv-x="712" 
d="M485 684h-266v-29h266v29zM540 0h15h155v30h-155v357c0 119 -80 151 -202 151c-100 0 -172 -32 -230 -74v-121h31v105.763c49.5921 31.1328 111.529 58.2365 194 58.2365c105 0 171 -25 171 -128v-57.8583c-84.524 -9.74272 -138.518 -14.7806 -228 -25.1417
c-108 -13 -188 -43 -188 -145c0 -105 69 -156 180 -156c110.254 0 165.958 49.0158 236 126.662v-121.662h21zM519 159.174c-72.1924 -78.8143 -124.339 -134.174 -230 -134.174c-94 0 -150 40 -150 128c0 82 65 106 151 116c89.8383 10.294 143.771 16.2092 229 25.9411
v-135.767z" />
    <glyph glyph-name="ampersand" unicode="&#x26;" horiz-adv-x="837" 
d="M326.611 363.86c11.8516 -9.73715 23.7482 -19.6215 35.3891 -29.8598c77.6907 -66.8501 156.832 -134.426 235.677 -201.634c-63.4249 -67.6243 -145.227 -107.366 -250.677 -107.366c-117 0 -210 47 -210 155c0 104.417 93.154 137.028 189.611 183.86zM621.537 112.03
c44.0712 -37.5565 87.9944 -74.9637 131.463 -112.03h45c-52.1802 44.1229 -104.655 88.9819 -157.254 134.069c41.0196 50.2913 73.9156 112.329 100.254 182.931l-30 8c-24.9575 -65.6971 -55.8421 -123.581 -94.0381 -170.538
c-76.6175 65.715 -153.446 131.75 -229.962 196.538c-10.1263 9.45125 -20.599 18.5014 -31.14 27.345c96.2611 47.7149 181.219 91.7019 182.14 197.655c0 99 -80 150 -184 150c-100 0 -171 -56 -171 -152c0 -85.5007 55.9467 -137.783 119.347 -190.214
c-104.33 -50.8527 -201.347 -90.3608 -201.347 -203.786c0 -126 109 -185 245 -185c116.91 0 206.688 43.2105 275.537 117.03zM332.054 398.052c-59.283 48.8617 -114.054 95.799 -114.054 175.948c0 76 56 123 134 123c86 0 150 -41 150 -121
c0 -96.9319 -79.708 -135.411 -169.946 -177.948z" />
    <glyph glyph-name="aogonek" unicode="&#x105;" horiz-adv-x="712" 
d="M548.281 0h6.71876h155v30h-155v357c0 119 -80 151 -202 151c-100 0 -172 -32 -230 -74v-121h31v105.763c49.5921 31.1328 111.529 58.2365 194 58.2365c105 0 171 -25 171 -128v-57.8583c-84.524 -9.74272 -138.518 -14.7806 -228 -25.1417c-108 -13 -188 -43 -188 -145
c0 -105 69 -156 180 -156c110.254 0 165.958 49.0158 236 126.662v-106.563c-59.9142 -22.7473 -109 -45.306 -109 -108.099c0 -62 44 -98 108 -98c38 0 63 12 95 29c-15 21 -2 2 -17 22c-26 -13 -45 -22 -75 -22c-46 0 -78 25 -78 69c0 56.3689 51.0054 70.2332 105.281 93
zM519 159.174c-72.1924 -78.8143 -124.339 -134.174 -230 -134.174c-94 0 -150 40 -150 128c0 82 65 106 151 116c89.8383 10.294 143.771 16.2092 229 25.9411v-135.767z" />
    <glyph glyph-name="apostrophemod" horiz-adv-x="462" 
d="M182 540l131 182h-48l-120 -182h37z" />
    <glyph glyph-name="approxequal" unicode="&#x2248;" horiz-adv-x="887" 
d="M716 548c-22 -52 -54 -100 -120 -100c-56 0 -93 14 -139 47c-49 35 -87 55 -146 55c-90 0 -135 -42 -161 -121c22 -8 7 -3 28 -11c21 61 58 102 131 102c49 0 81 -14 121 -43c54 -38 96 -58 163 -59c85 0 123 49 152 120c-23 7 -7 3 -29 10zM714 348
c-22 -52 -54 -101 -120 -101c-56 0 -93 15 -139 47c-49 35 -87 55 -146 55c-90 0 -135 -42 -161 -121c22 -8 7 -3 28 -11c20 62 58 103 131 103c49 0 81 -14 121 -43c54 -38 96 -59 163 -59c85 0 123 48 152 119c-23 8 -7 3 -29 11z" />
    <glyph glyph-name="aring" unicode="&#xe5;" horiz-adv-x="712" 
d="M254 773c0 58 40 91 102 91c66 0 111 -30 111 -91c0 -60 -44 -91 -108 -91c-63 0 -105 31 -105 91zM221 773c0 -78 56 -119 138 -119c83 0 141 40 141 119s-59 119 -144 119c-80 0 -135 -41 -135 -119zM540 0h15h155v30h-155v357c0 119 -80 151 -202 151
c-100 0 -172 -32 -230 -74v-121h31v105.763c49.5921 31.1328 111.529 58.2365 194 58.2365c105 0 171 -25 171 -128v-57.8583c-84.524 -9.74272 -138.518 -14.7806 -228 -25.1417c-108 -13 -188 -43 -188 -145c0 -105 69 -156 180 -156
c110.254 0 165.958 49.0158 236 126.662v-121.662h21zM519 159.174c-72.1924 -78.8143 -124.339 -134.174 -230 -134.174c-94 0 -150 40 -150 128c0 82 65 106 151 116c89.8383 10.294 143.771 16.2092 229 25.9411v-135.767z" />
    <glyph glyph-name="asciicircum" unicode="^" horiz-adv-x="689" 
d="M572 465c-68 110 -141 230 -209 340h-1h-35h-2c-68 -114 -137 -227 -206 -340h37c62.232 103.415 126.139 206.83 188.655 311.011c62.0368 -101.862 128.274 -210.603 190.345 -311.011h37z" />
    <glyph glyph-name="asciitilde" unicode="~" horiz-adv-x="879" 
d="M708 348c-21 -52 -54 -101 -120 -101c-55 0 -93 15 -138 47c-49 35 -87 55 -147 55c-90 0 -134 -42 -160 -121c21 -8 6 -3 27 -11c21 62 59 103 131 103c49 0 82 -14 121 -43c55 -38 97 -59 164 -59c84 0 123 48 151 119c-22 8 -6 3 -29 11z" />
    <glyph glyph-name="asterisk" unicode="*" horiz-adv-x="625" 
d="M286.382 510.652c-38.5193 -33.059 -66.7962 -58.3756 -108.382 -94.6524l26 -21c41.2777 38.5259 69.9343 64.4306 109.896 101.64c39.1795 -37.0665 67.8334 -62.2038 109.104 -101.64l26 21c-41.6221 36.3087 -69.9121 61.6379 -108.483 95.4339
c51.8615 15.0472 90.4258 27.7656 147.483 43.5661l-12 30c-57.2158 -19.6679 -95.2501 -32.1428 -148.399 -50.2857c1.41181 47.6221 1.51123 81.779 2.39928 133.286h-35c1.78712 -51.8265 1.97734 -86.0872 3.42452 -134.174
c-52.4771 18.271 -91.1849 31.5351 -147.425 51.1743c-13 -30 -1 0 -13 -30c57.1378 -16.7018 95.7304 -28.7673 148.382 -44.3476z" />
    <glyph glyph-name="at" unicode="@" horiz-adv-x="1008" 
d="M705 -74c-67 -31 -115 -36 -187 -36c-233 0 -387 103 -387 322c0 215 155 317 384 317c216 0 356 -107 356 -313c0 -82 -24 -145 -94 -145c-74 0 -100 63 -100 146c0 110 -67 175 -178 175c-119 0 -191 -61 -191 -175c0 -117 68 -186 186 -186
c81.9174 0 131.576 41.3888 158.473 110.396c15.6007 -59.5051 53.6472 -98.3956 121.527 -98.3956c96 0 132 73 132 175c0 227 -153 343 -389 343c-252 0 -420 -112 -420 -351c0 -237 167 -351 418 -351c80 0 134 9 205 40zM644.334 199.033
c-24.2971 -81.9047 -63.5774 -137.033 -145.334 -137.033c-101 0 -157 58 -157 157c0 93 58 142 153 142c94 0 149 -53 149 -146c0 -5.40231 0.110177 -10.7272 0.333618 -15.967z" />
    <glyph glyph-name="atilde" unicode="&#xe3;" horiz-adv-x="712" 
d="M555 783c-16 -54 -36 -99 -86 -99c-44 0 -72 16 -104 47c-35 32 -63 54 -112 54c-71 0 -106 -49 -124 -121c0 0 1 0 28 -9c15 58 41 100 97 100c39 0 62 -19 90 -46c38 -35 71 -56 123 -56c69 0 95 54 116 122zM540 0h15h155v30h-155v357c0 119 -80 151 -202 151
c-100 0 -172 -32 -230 -74v-121h31v105.763c49.5921 31.1328 111.529 58.2365 194 58.2365c105 0 171 -25 171 -128v-57.8583c-84.524 -9.74272 -138.518 -14.7806 -228 -25.1417c-108 -13 -188 -43 -188 -145c0 -105 69 -156 180 -156
c110.254 0 165.958 49.0158 236 126.662v-121.662h21zM519 159.174c-72.1924 -78.8143 -124.339 -134.174 -230 -134.174c-94 0 -150 40 -150 128c0 82 65 106 151 116c89.8383 10.294 143.771 16.2092 229 25.9411v-135.767z" />
    <glyph glyph-name="b" unicode="b" horiz-adv-x="811" 
d="M194 0h16v73.9104c69.8171 -55.579 141.521 -78.9104 235 -78.9104c160 0 263 107 263 269c0 164 -101 274 -260 274c-96.2116 0 -180.616 -42.0624 -238 -90.0542v352.054h-16h-20h-162v-30h162v-740h-162v-30h162h20zM210 110.795v298.941
c51.919 48.5763 136.197 97.2642 234 97.2642c142 0 228 -98 228 -244c0 -138.61 -85.2807 -237.03 -223.815 -237.03c-1.38949 0 -2.78433 0.0099009 -4.1845 0.0297615c-92.8579 0 -161.83 24.8407 -234 84.7946z" />
    <glyph glyph-name="backslash" unicode="\" horiz-adv-x="635" 
d="M569 -68c-155 304 -309 608 -465 912h-37c155 -304 310 -608 464 -912h38z" />
    <glyph glyph-name="bar" unicode="|" horiz-adv-x="299" 
d="M167 -300v1100h-35v-1100h35z" />
    <glyph glyph-name="braceleft" unicode="{" horiz-adv-x="413" 
d="M337 799c-96 0 -154 -57 -154 -152v-179c0 -73 -46 -113 -120 -113v-31c74 0 121 -44 121 -116v-177c0 -95 58 -153 153 -153v30c-77 0 -121 46 -121 122v175c0 63.6946 -28.2801 111.092 -76.8759 134.228c48.1617 22.3563 75.8759 68.4852 75.8759 132.772v175
c0 76 45 122 122 122v30z" />
    <glyph glyph-name="braceright" unicode="}" horiz-adv-x="413" 
d="M76 769c77 0 121 -47 121 -122v-175c0 -65.0874 28.2872 -111.476 76.8942 -133.856c-47.8679 -22.9539 -75.8942 -69.7362 -75.8942 -133.144v-175c0 -76 -45 -123 -122 -123v-29c96 0 154 58 154 153v177c0 72 46 115 120 115v31c-74 0 -121 41 -121 114v179
c0 95 -57 151 -153 151v-29z" />
    <glyph glyph-name="bracketleft" unicode="[" horiz-adv-x="385" 
d="M322 771h-192v-894h192v33h-155v828h155v33z" />
    <glyph glyph-name="bracketright" unicode="]" horiz-adv-x="385" 
d="M218 -90h-155v-33h191v894h-191v-33h155v-828z" />
    <glyph glyph-name="breve" unicode="&#x2d8;" horiz-adv-x="497" 
d="M308 738c0 -70 -57 -97 -132 -97c-74 0 -128 30 -128 98h-33c0 -88 64 -127 158 -127c98 0 169 36 169 126h-34z" />
    <glyph glyph-name="brokenbar" unicode="&#xa6;" horiz-adv-x="334" 
d="M185 428v372h-36v-372h36zM185 -300v372h-36v-372h36z" />
    <glyph glyph-name="bullet" unicode="&#x2022;" horiz-adv-x="445" 
d="M173 440h98c0 28 -20 44 -51 44c-28 0 -47 -17 -47 -44zM173 440h98c0 -29 -20 -44 -51 -44c-28 0 -47 16 -47 44z" />
    <glyph glyph-name="bulletoperator" unicode="&#x2219;" horiz-adv-x="378" 
d="M140 440h98c0 28 -21 44 -51 44c-29 0 -47 -17 -47 -44zM140 440h98c0 -29 -21 -44 -51 -44c-29 0 -47 16 -47 44z" />
    <glyph glyph-name="c" unicode="c" horiz-adv-x="679" 
d="M580 473c-56 37 -124 65 -194 65c-177 0 -283 -94 -283 -271s103 -272 281 -272c78 0 154 32 208 88l-24 21c-49 -49 -114 -78 -183 -78c-154 0 -246 84 -246 241s93 240 245 240c59.3313 0 116.002 -19.5124 165 -50.1843v-106.816h31v123z" />
    <glyph glyph-name="cacute" unicode="&#x107;" horiz-adv-x="679" 
d="M325 655c64 54 131 112 195 166h-48c-65 -53 -132 -112 -196 -166h49zM580 473c-56 37 -124 65 -194 65c-177 0 -283 -94 -283 -271s103 -272 281 -272c78 0 154 32 208 88l-24 21c-49 -49 -114 -78 -183 -78c-154 0 -246 84 -246 241s93 240 245 240
c59.3313 0 116.002 -19.5124 165 -50.1843v-106.816h31v123z" />
    <glyph glyph-name="caron" unicode="&#x2c7;" horiz-adv-x="629" 
d="M9 757c64 -54 131 -113 196 -166h8h41h8c65 53 132 112 196 166h-49c-57.2502 -49.1994 -117.701 -99.9992 -175.627 -148.82c-58.4724 48.8212 -118.123 99.621 -175.373 148.82h-49z" />
    <glyph glyph-name="ccaron" unicode="&#x10d;" horiz-adv-x="677" 
d="M160 820c64 -54 131 -113 196 -166h9h40h8c65 53 132 112 196 166h-49c-57.3635 -48.4005 -117.137 -100.014 -175.001 -149.081c-57.873 49.0669 -117.74 100.681 -175.999 149.081h-49zM580 473c-56 37 -124 65 -194 65c-177 0 -283 -94 -283 -271s103 -272 281 -272
c78 0 154 32 208 88l-24 21c-49 -49 -114 -78 -183 -78c-154 0 -246 84 -246 241s93 240 245 240c59.3313 0 116.002 -19.5124 165 -50.1843v-106.816h31v123z" />
    <glyph glyph-name="ccedilla" unicode="&#xe7;" horiz-adv-x="679" 
d="M341 -89c17 10 32 12 52 12c36 0 60 -18 60 -52c0 -39 -33 -52 -76 -52c-31 0 -54 3 -83 17l-13 -23c32 -15 59 -22 94 -22c64 0 111 22 111 80c0 52 -37 81 -91 81c-10.6301 0 -20.0047 -0.753333 -28.9246 -2.21551c10.5056 15.661 21.1525 31.4611 30.9333 45.5118
c73.3875 3.34209 143.998 34.8222 194.991 87.7037l-24 21c-49 -49 -114 -78 -183 -78c-154 0 -246 84 -246 241s93 240 245 240c59.3313 0 116.002 -19.5124 165 -50.1843v-106.816h31v123c-56 37 -124 65 -194 65c-177 0 -283 -94 -283 -271
c0 -167.574 92.3217 -261.649 253.204 -271.194c-13.3248 -20.4869 -27.7258 -42.0884 -40.2044 -60.8063c24 -23 24 -24 24 -24c0.13453 0.198255 0.26926 0.39686 0.404189 0.595811z" />
    <glyph glyph-name="cedilla" unicode="&#xb8;" horiz-adv-x="466" 
d="M142 -79c17 10 31 12 51 12c36 0 61 -18 61 -52c0 -39 -34 -52 -76 -52c-31 0 -54 3 -83 17l-13 -23c32 -15 58 -22 94 -22c63 0 111 22 111 80c0 52 -37 81 -91 81c-10.7982 0 -20.4304 -0.777344 -29.5961 -2.2854c11.9969 17.715 24.2816 35.8136 34.5961 51.2854
l-27 21c-17 -27 -40 -60 -57 -87l24 -23z" />
    <glyph glyph-name="cent" unicode="&#xa2;" horiz-adv-x="796" 
d="M454 679.901v98.0991h-35v-98.4757c-194.159 -8.12583 -322 -120.064 -322 -313.524c0 -188.313 112.338 -307.128 298 -312.788v-106.212h35v106.342c102.941 3.42403 177.819 32.6624 265 92.6579l-21 24c-86 -60 -157 -86 -261 -86c-175 0 -281 109 -281 283
c0 180 123 282 307 282c94 0 159 -18 240 -66l18 26c-81.5591 48.9354 -149.308 69.3299 -243 70.9009z" />
    <glyph glyph-name="circumflex" unicode="&#x2c6;" horiz-adv-x="819" 
d="M458 591c-64 54 -131 112 -196 166h-9h-40h-8c-65 -54 -132 -112 -196 -166h49c57.3635 48.4005 117.137 100.014 175.001 149.081c57.873 -49.0669 117.74 -100.681 175.999 -149.081h49z" />
    <glyph glyph-name="colon" unicode=":" horiz-adv-x="322" 
d="M140 17h42c0 12 -9 19 -22 19c-12 0 -20 -8 -20 -19zM140 17h42c0 -14 -9 -20 -22 -20c-12 0 -20 8 -20 20zM140 423h42c0 12 -9 19 -22 19c-12 0 -20 -8 -20 -19zM140 423h42c0 -14 -9 -20 -22 -20c-12 0 -20 8 -20 20z" />
    <glyph glyph-name="comma" unicode="," horiz-adv-x="360" 
d="M88 -142l131 182h-48l-120 -182h37z" />
    <glyph glyph-name="commaaccent" horiz-adv-x="462" 
d="M161 -133l131 182h-47l-121 -182h37z" />
    <glyph glyph-name="copyright" unicode="&#xa9;" horiz-adv-x="958" 
d="M626 465c-45 24 -83 32 -136 32c-117 0 -197 -64 -197 -178c0 -109 72 -174 183 -174c64 0 110 11 164 48l-19 20c-48 -31 -88 -40 -144 -40c-93 0 -151 55 -151 148c0 95 64 149 163 149c45 0 73 -7 107 -21v-69h29v84l-13.6712 -7.0713
c0.284452 0.333742 -1.11044 -0.0916081 14.6712 8.0713zM105 320c0 -207 166 -323 384 -323c210 0 365 121 365 323c0 204 -158 325 -371 325c-215 0 -378 -119 -378 -325zM137 320c0 189 148 298 346 298c194 0 338 -112 338 -300c0 -183 -140 -294 -330 -294
c-199 0 -354 105 -354 296z" />
    <glyph glyph-name="currency" unicode="&#xa4;" horiz-adv-x="728" 
d="M173 311c0 -44.6623 11.972 -81.6503 33.631 -110.122c-33.877 -27.7985 -67.754 -56.133 -101.631 -82.878l24 -24c34.1678 26.9746 67.5272 54.7577 100.805 82.6223c34.0811 -28.5481 81.9274 -43.6223 139.195 -43.6223c53.0394 0 97.4866 14.9813 129.722 42.3587
c32.3076 -27.5552 65.1692 -54.457 97.2777 -81.3587l26 22c-33.4656 27.3009 -66.9312 55.3774 -100.397 83.5464c22.1453 29.2426 34.3968 67.2885 34.3968 112.454c0 46.6341 -14.1701 84.6916 -39.2096 112.884c32.7365 26.7226 65.4731 53.5481 98.2096 81.1157l-24 23
l-99.719 -81.3497c-31.7457 22.4514 -73.655 34.3497 -122.281 34.3497c-53.435 0 -98.9439 -12.515 -132.621 -36.6877l-99.3792 83.6877l-24 -24c32.4566 -28.0706 65.6827 -54.6022 98.3283 -82.2948c-24.5576 -27.9085 -38.3283 -65.3619 -38.3283 -111.705zM208 311
c0 90 64 141 158 141s154 -51 154 -142s-58 -147 -150 -147c-99 0 -162 53 -162 148z" />
    <glyph glyph-name="d" unicode="d" horiz-adv-x="815" 
d="M602 433.083v-303.691c-58.5559 -68.6366 -120.059 -103.392 -209 -103.392c-153 0 -259 89 -259 239c0 151 106 242 258 242c82.1538 0 152.444 -24.6389 210 -73.9168zM602 87.0893v-87.0893h19h18h164v30h-164v770h-19h-18h-164v-30h164v-300.024
c-59.3505 45.5655 -128.938 68.0244 -212 68.0244c-173 0 -292 -104 -292 -274c0 -169 122 -269 296 -269c88.3568 0 152.43 30.9068 208 92.0893z" />
    <glyph glyph-name="dagger" unicode="&#x2020;" horiz-adv-x="702" 
d="M365 515v266h-35v-266h-275v-33h275v-780h35v780h282v33h-282z" />
    <glyph glyph-name="daggerdbl" unicode="&#x2021;" horiz-adv-x="814" 
d="M386 -28v-270h35v270h282v34h-282v476h282v33h-282v266h-35v-266h-275v-33h275v-476l-275 -5.68434e-14v-34h275z" />
    <glyph glyph-name="dcaron" unicode="&#x10f;" horiz-adv-x="896" 
d="M744 627l131 182h-48l-120 -182h37zM602 433.083v-303.691c-58.5559 -68.6366 -120.059 -103.392 -209 -103.392c-153 0 -259 89 -259 239c0 151 106 242 258 242c82.1538 0 152.444 -24.6389 210 -73.9168zM602 87.0893v-87.0893h19h18h164v30h-164v770h-19h-18h-164
v-30h164v-300.024c-59.3505 45.5655 -128.938 68.0244 -212 68.0244c-173 0 -292 -104 -292 -274c0 -169 122 -269 296 -269c88.3568 0 152.43 30.9068 208 92.0893z" />
    <glyph glyph-name="dcroat" unicode="&#x111;" horiz-adv-x="815" 
d="M601 649v-178.26c-59.1318 45.052 -128.404 67.2596 -211 67.2596c-173 0 -292 -104 -292 -274c0 -169 122 -269 296 -269c87.8273 0 151.661 30.5375 207 90.9926v-85.9926h20h18h164v30h-164v619h112v29h-112v122h-19h-19h-163v-30h163v-92h-214v-29h214zM601 433.195
v-303.951c-57.6449 -68.5379 -119.123 -103.243 -208 -103.243c-153 0 -259 89 -259 239c0 151 105 242 258 242c82.0918 0 152.338 -24.6018 209 -73.8054z" />
    <glyph glyph-name="degree" unicode="&#xb0;" horiz-adv-x="620" 
d="M115 448c0 -128 69 -213 194 -213s196 84 196 211c0 125 -73 205 -196 205s-194 -80 -194 -203zM147 448c0 105 56 175 159 175c106 0 167 -70 167 -177c0 -109 -57 -183 -163 -183c-107 0 -163 76 -163 185z" />
    <glyph glyph-name="deltamath" horiz-adv-x="957" 
d="M52 0h851v33l-399 772h-4h-35h-4l-409 -772v-33zM482.283 771.559l381.717 -738.559h-773z" />
    <glyph glyph-name="dieresis" unicode="&#xa8;" horiz-adv-x="528" 
d="M236 666h49c0 -14 -10 -22 -25 -22s-24 8 -24 22zM236 666h49c0 14 -10 22 -25 22s-24 -8 -24 -22zM86 666h49c0 -14 -11 -22 -26 -22c-14 0 -23 8 -23 22zM86 666h49c0 14 -11 22 -26 22c-14 0 -23 -8 -23 -22z" />
    <glyph glyph-name="divide" unicode="&#xf7;" horiz-adv-x="874" 
d="M141 293h592v33h-592v-33zM413 102h42c0 12 -9 19 -22 19c-12 0 -20 -8 -20 -19zM413 102h42c0 -14 -9 -20 -22 -20c-12 0 -20 8 -20 20zM413 507h42c0 -13 -9 -19 -22 -19c-12 0 -20 7 -20 19zM413 507h42c0 13 -9 20 -22 20c-12 0 -20 -8 -20 -20z" />
    <glyph glyph-name="divisionslash" unicode="&#x2215;" horiz-adv-x="550" 
d="M41 -88l506 840h-38l-505 -840h37z" />
    <glyph glyph-name="dollar" unicode="$" horiz-adv-x="698" 
d="M327 682.474c-115.002 -4.95109 -203 -45.3319 -203 -141.474c0 -107 98 -138 213 -180c113 -39 231 -66 231 -162c0 -93 -109 -122 -235 -122c-77.6256 0 -146.504 20.9925 -205 43.3444v99.6556h-31v-122c60.8282 -25.2671 133.041 -47.9069 215 -50.709v-90.291h37
v90.2264c139.26 3.20612 255 41.0806 255 152.774c0 113 -123 144 -246 189c-105 38 -198 62 -198 152c0 82 86 113 190 113c78.0148 0 133.943 -13.2522 201 -42.248v-102.752h31v122v1h-2.23551c-73.7324 32.8789 -134.317 49.5647 -216.764 50.9113v90.0887h-36v-90.5261
z" />
    <glyph glyph-name="dotaccent" unicode="&#x2d9;" horiz-adv-x="802" 
d="M352 666h49c0 -14 -11 -22 -26 -22c-14 0 -23 8 -23 22zM352 666h49c0 14 -11 22 -26 22c-14 0 -23 -8 -23 -22z" />
    <glyph glyph-name="dotlessi" unicode="&#x131;" horiz-adv-x="424" 
d="M219 503v-473h-164v-30h164h18h20h151v30h-151v503h-20h-18h-164v-30h164z" />
    <glyph glyph-name="e" unicode="e" horiz-adv-x="704" 
d="M564 298h-419.64c5.74931 133.436 80.2062 209 213.64 209c130 0 206 -70 206 -202v-7zM144.164 269h453.836v33c0 153 -87 236 -238 236c-161 0 -252 -92 -252 -257c0 -183 102 -286 281 -286c84 0 138 24 204 79l-22 22c-59 -48 -107 -70 -182 -70
c-153.082 0 -240.565 88.4158 -244.836 243z" />
    <glyph glyph-name="eacute" unicode="&#xe9;" horiz-adv-x="704" 
d="M300 656c64 54 131 112 195 166h-48c-65 -54 -132 -112 -196 -166h49zM564 298h-419.64c5.74931 133.436 80.2062 209 213.64 209c130 0 206 -70 206 -202v-7zM144.164 269h453.836v33c0 153 -87 236 -238 236c-161 0 -252 -92 -252 -257c0 -183 102 -286 281 -286
c84 0 138 24 204 79l-22 22c-59 -48 -107 -70 -182 -70c-153.082 0 -240.565 88.4158 -244.836 243z" />
    <glyph glyph-name="ecaron" unicode="&#x11b;" horiz-adv-x="704" 
d="M136 820c64 -54 131 -112 195 -166h9h40h9c65 54 131 112 196 166h-50c-57.3634 -48.4003 -117.137 -100.014 -175 -149.081c-57.8632 49.0668 -117.637 100.681 -175 149.081h-49zM564 298h-418.64c5.74777 133.436 80.1662 209 212.64 209c131 0 206 -70 206 -202v-7z
M571.995 95.9959c-59.9976 -47.9972 -107.997 -69.9959 -182.995 -69.9959c-153.082 0 -239.614 88.4158 -243.838 243h452.838v33c0 153 -87 236 -237 236c-162 0 -252 -92 -252 -257c0 -183 101 -286 280 -286c84 0 139 24 205 79
c-21.6866 20.7437 -22.0359 21.9283 -22.0051 21.9959zM571.995 95.9959c0 0.00409687 0.00512627 0.00409842 0.00512627 0.00409842z" />
    <glyph glyph-name="ecircumflex" unicode="&#xea;" horiz-adv-x="704" 
d="M585 656c-65 54 -131 112 -196 166h-9h-40h-9c-64 -54 -131 -112 -195 -166h49c57.3634 48.4003 117.137 100.014 175 149.081c57.8632 -49.0668 117.637 -100.681 175 -149.081h50zM564 298h-418.64c5.74777 133.436 80.1662 209 212.64 209c131 0 206 -70 206 -202v-7z
M145.162 269h452.838v33c0 153 -87 236 -237 236c-162 0 -252 -92 -252 -257c0 -183 101 -286 280 -286c84 0 139 24 205 79l-23 22c-59 -48 -107 -70 -182 -70c-153.082 0 -239.614 88.4158 -243.838 243z" />
    <glyph glyph-name="edieresis" unicode="&#xeb;" horiz-adv-x="704" 
d="M411 670h49c0 14 -11 22 -26 22c-14 0 -23 -9 -23 -22zM411 670h49c0 -15 -11 -23 -26 -23c-14 0 -23 9 -23 23zM260 670h49c0 14 -10 22 -25 22s-24 -9 -24 -22zM260 670h49c0 -15 -10 -23 -25 -23s-24 9 -24 23zM564 298h-419.64
c5.74931 133.436 80.2062 209 213.64 209c130 0 206 -70 206 -202v-7zM144.164 269h453.836v33c0 153 -87 236 -238 236c-161 0 -252 -92 -252 -257c0 -183 102 -286 281 -286c84 0 138 24 204 79l-22 22c-59 -48 -107 -70 -182 -70
c-153.082 0 -240.565 88.4158 -244.836 243z" />
    <glyph glyph-name="edotaccent" unicode="&#x117;" horiz-adv-x="704" 
d="M334 670h49c0 -14 -10 -22 -25 -22s-24 8 -24 22zM334 670h49c0 14 -10 22 -25 22c-14 0 -24 -8 -24 -22zM564 298h-419.64c5.74931 133.436 80.2062 209 213.64 209c130 0 206 -70 206 -202v-7zM144.164 269h453.836v33c0 153 -87 236 -238 236
c-161 0 -252 -92 -252 -257c0 -183 102 -286 281 -286c84 0 138 24 204 79l-22 22c-59 -48 -107 -70 -182 -70c-153.082 0 -240.565 88.4158 -244.836 243z" />
    <glyph glyph-name="egrave" unicode="&#xe8;" horiz-adv-x="704" 
d="M451 655c-64 54 -131 112 -195 166h-49c64 -54 131 -112 195 -166h49zM564 298h-419.64c5.74931 133.436 80.2062 209 213.64 209c130 0 206 -70 206 -202v-7zM144.164 269h453.836v33c0 153 -87 236 -238 236c-161 0 -252 -92 -252 -257c0 -183 102 -286 281 -286
c84 0 138 24 204 79l-22 22c-59 -48 -107 -70 -182 -70c-153.082 0 -240.565 88.4158 -244.836 243z" />
    <glyph glyph-name="eight" unicode="8" horiz-adv-x="704" 
d="M354.275 394.897c-101.18 41.629 -189.275 63.0274 -189.275 165.103c0 97 77 135 184 135c113 0 190 -35 190 -137c0 -98.9289 -85.7936 -124.057 -184.725 -163.103zM393.772 378.175c99.0699 42.5453 181.228 71.783 181.228 179.825c0 123 -90 169 -225 169
c-130 0 -221 -48 -221 -167c0 -109.847 82.1184 -140.928 184.225 -182.219c-114.256 -47.8299 -207.225 -82.0271 -207.225 -205.781c0 -129 100 -177 243 -177c144 0 249 45 249 177c0 122.104 -91.5582 158.64 -204.228 206.175zM354.049 361.038
c112.809 -46.1234 207.951 -77.0055 207.951 -189.038c0 -110 -89 -145 -212 -145c-122 0 -208 36 -208 145c0 115 98.059 142.213 212.049 189.038z" />
    <glyph glyph-name="ellipsis" unicode="&#x2026;" horiz-adv-x="761" 
d="M352 17h49c0 14 -10 22 -25 22s-24 -9 -24 -22zM352 17h49c0 -15 -10 -22 -25 -22s-24 8 -24 22zM577 17h49c0 14 -10 22 -25 22s-24 -9 -24 -22zM577 17h49c0 -15 -10 -22 -25 -22s-24 8 -24 22zM135 17h49c0 14 -10 22 -25 22s-24 -9 -24 -22zM135 17h49
c0 -15 -10 -22 -25 -22s-24 8 -24 22z" />
    <glyph glyph-name="emacron" unicode="&#x113;" horiz-adv-x="704" 
d="M487 685h-267v-29h267v29zM564 298h-419.64c5.74931 133.436 80.2062 209 213.64 209c130 0 206 -70 206 -202v-7zM144.164 269h453.836v33c0 153 -87 236 -238 236c-161 0 -252 -92 -252 -257c0 -183 102 -286 281 -286c84 0 138 24 204 79l-22 22
c-59 -48 -107 -70 -182 -70c-153.082 0 -240.565 88.4158 -244.836 243z" />
    <glyph glyph-name="emdash" unicode="&#x2014;" horiz-adv-x="1069" 
d="M138 256h792v34h-792v-34z" />
    <glyph glyph-name="endash" unicode="&#x2013;" horiz-adv-x="728" 
d="M139 257h450v33h-450v-33z" />
    <glyph glyph-name="eogonek" unicode="&#x119;" horiz-adv-x="704" 
d="M564 298h-419.64c5.74931 133.436 80.2062 209 213.64 209c130 0 206 -70 206 -202v-7zM404.569 26.3336c-5.06273 -0.222896 -10.2478 -0.33363 -15.5687 -0.333628c-153.082 0 -240.565 88.4158 -244.836 243h453.836v33c0 153 -87 236 -238 236
c-161 0 -252 -92 -252 -257c0 -164.524 82.4435 -264.386 229.164 -282.874c-34.5099 -18.3351 -58.1637 -42.5364 -58.1637 -86.1261c0 -62 44 -98 109 -98c37 0 62 12 94 29c-14 21 -2 2 -16 22c-26 -13 -46 -22 -75 -22c-47 0 -79 25 -79 69
c0 47.7672 36.6267 65.0122 80.8325 83.0169c81.8218 0.724364 135.177 24.8242 200.168 78.9831l-22 22c-53.3259 -43.3838 -97.6658 -65.528 -161.077 -69.386c-0.291571 0.438086 -0.599026 0.899635 -0.923275 1.38601
c-1.48094 -0.558037 -2.9582 -1.11331 -4.43125 -1.66637z" />
    <glyph glyph-name="equal" unicode="=" horiz-adv-x="1028" 
d="M141 424h746v31h-746v-31zM141 202h746v31h-746v-31z" />
    <glyph glyph-name="estimated" unicode="&#x212e;" horiz-adv-x="774" 
d="M618 617.205v-220.205h-460v216.48c53.3779 52.0409 130.116 80.52 226 80.52c99.696 0 179.265 -27.0846 234 -76.7946zM158 367h572v33c0 203 -127 324 -344 324c-214 0 -342 -129 -342 -345c0 -239 144 -384 388 -384c100 0 209 39 294 108c-15 15 -6 4 -22 20
c-79 -62 -181 -98 -272 -98c-118.778 0 -212.144 36.7372 -274 103.679v238.321z" />
    <glyph glyph-name="eth" unicode="&#xf0;" horiz-adv-x="727" 
d="M583.486 289.039c-16.1477 159.459 -108.995 265.096 -246.827 333.005c-40.9629 -40.8483 -81.8108 -81.7095 -122.659 -123.044l-22 22c38.6655 38.2106 76.9172 76.4213 115.132 114.726c-63.8797 27.8297 -136.18 48.4523 -214.132 63.274l8 32
c85.3891 -14.9855 163.983 -37.4059 232.798 -68.527c36.9076 37.0392 73.862 74.1866 111.202 111.527c7.44744 -7.77125 9.8622 -10.405 10.5374 -11.1943c0.299593 -0.211706 2.36386 -2.08612 11.4626 -10.8057c-34.7803 -34.7803 -69.3933 -69.2258 -103.907 -103.61
c157.663 -80.5318 256.907 -211.888 256.907 -411.39c0 -162 -109 -249 -276 -249c-146 0 -244 73 -244 212c0 138 100 207 246 207c106.884 0 186.994 -39.1308 237.486 -117.961zM585.994 236.046c-51.6627 91.7456 -124.427 138.954 -236.994 138.954
c-127 0 -213 -57 -213 -177c0 -116 85 -175 206 -175c146.315 0 243.094 74.3022 243.994 213.046z" />
    <glyph glyph-name="exclam" unicode="!" horiz-adv-x="339" 
d="M188 229v493h-36v-493h36zM146 23h50c0 -14 -11 -22 -26 -22c-14 0 -24 8 -24 22zM146 23h50c0 14 -11 22 -26 22c-14 0 -24 -8 -24 -22z" />
    <glyph glyph-name="exclamdown" unicode="&#xa1;" horiz-adv-x="339" 
d="M151 493v-493h35v493h-35zM192 699h-49c0 14 10 22 26 22c14 0 23 -8 23 -22zM192 699h-49c0 -14 10 -22 26 -22c14 0 23 8 23 22z" />
    <glyph glyph-name="f" unicode="f" horiz-adv-x="587" 
d="M300 512v125c0 87 56 138 144 138c34.1221 0 66.7887 -8.73236 98 -19.9895v-104.011h31v122c-41 17 -85 32 -129 32c-108 0 -181 -61 -180 -168v-125h-202v-30h202v-452h-164v-30h164h18h18h164v30h-164v452h257v30h-257z" />
    <glyph glyph-name="fi" unicode="&#xfb01;" horiz-adv-x="764" 
d="M265 0h19h105v31h-105v475h257v-475h-108v-31h108h22h1h13h159v31h-159v504v1l-1.2 -1h-291.8v59c0 108 64 181 181 181c27 0 50 -3 75 -10v-86h36v108c-40 12 -71 18 -112 18c-136 0 -217 -84 -216 -211v-59h-201v-29h201v-475h-165v-31h165h17z" />
    <glyph glyph-name="five" unicode="5" horiz-adv-x="662" 
d="M181 425.427v266.573h363v30h-398v-313v-9l35 -8c28 13 89 25 133 25c127 0 217 -71 217 -191c0 -123 -100 -197 -230 -197c-72 0 -127 16 -193 45l-18 -30c67 -32 132 -49 210 -49c151 0 267 86 267 231c0 139 -104 223 -251 223
c-43.4487 0 -95.3149 -8.97877 -135 -23.5732z" />
    <glyph glyph-name="fl" unicode="&#xfb02;" horiz-adv-x="858" 
d="M304 0h16h122v31h-122v475h286v-475h-120v-31h120h26h1h8h186v31h-186v757c-45 12 -79 16 -126 16c-137 0 -232 -78 -231 -210v-59h-232v-29h232v-475h-178v-31h178h20zM320 535v59c0 113 80 181 197 181c32 0 58 -1 89 -9v-231h-286z" />
    <glyph glyph-name="florin" unicode="&#x192;" horiz-adv-x="523" 
d="M515 826c-13.2672 2.39939 -26.0364 3.58362 -38.2485 3.58362c-74.3125 0 -127.998 -43.8508 -147.752 -124.584c-11.951 -51.9502 -23.902 -103.96 -35.8529 -156h-132.147v-30h125.258c-34.7528 -151.361 -69.5055 -302.932 -104.258 -454
c-15.6643 -65.2678 -57.8346 -102.515 -119.261 -102.515c-9.15941 0 -18.747 0.828159 -28.7387 2.51507l-6 -30c11.6595 -1.70034 22.9354 -2.54513 33.7902 -2.54513c78.5199 0 135.003 44.2046 155.21 128.545c35.6416 152.546 71.2831 305.092 106.563 458h145.437v30
h-138.522c11.8891 51.6181 23.7343 103.28 35.5217 155c14.6709 62.9987 55.4086 95.4622 113.857 95.4622c9.27895 0 19.0043 -0.818164 29.1425 -2.46221z" />
    <glyph glyph-name="four" unicode="4" horiz-adv-x="774" 
d="M439 261v-231h-165v-30h182h182v30h-163v231h215v32h-215v427h-36c-387 -426 0 0 -387 -427l18 -32h369zM439 293h-340.251l340.251 378.721v-378.721z" />
    <glyph glyph-name="foursuperior" unicode="&#x2074;" horiz-adv-x="660" 
d="M375 292h18h156v28h-156v92h118v28h-118v288h-35l-272 -288l16 -28h256v-92h-156v-28h156h17zM358 683.007v-243.007h-229.55z" />
    <glyph glyph-name="fraction" unicode="&#x2044;" horiz-adv-x="648" 
d="M38 -88l506 840h-37l-506 -840h37z" />
    <glyph glyph-name="g" unicode="g" horiz-adv-x="713" 
d="M219.48 3.79236c137.755 -40.7473 382.52 7.51214 382.52 -144.792c0 -109 -123 -133 -258 -133c-126 0 -237 37 -237 143c0 69.2301 48.1381 108.702 112.48 134.792zM186.83 16.3188c-67.6207 -28.5299 -115.83 -72.4842 -115.83 -148.319c0 -130 125 -172 271 -172
c155 0 296 29 293 165c0 133 -141 143 -288 153c-94 5 -183 16 -183 99c0 43.7244 25.7233 70.8531 62.8083 91.9683c34.0757 -14.0225 74.5213 -20.9683 118.192 -20.9683c127 0 226 58 226 176c0 40.4114 -11.4527 74.142 -31.5972 100.986
c46.841 20.3257 93.501 40.5608 138.597 60.0141l-17 28c-47.5924 -20.6533 -95.1848 -42.113 -143.501 -64.379c-40.0498 35.3175 -99.4809 53.379 -167.499 53.379c-129 0 -227 -63 -227 -183c0 -63.2614 29.6557 -108.669 76.9816 -136.722
c-42.8133 -24.1798 -71.9816 -57.2542 -71.9816 -108.278c0 -47.4558 22.9841 -75.9054 58.8299 -93.6812zM160 356c0 98 82 153 190 153c106 0 185 -52 185 -150c0 -95 -81 -145 -187 -145c-104 0 -188 46 -188 142z" />
    <glyph glyph-name="gbreve" unicode="&#x11f;" horiz-adv-x="713" 
d="M483 780c0 -70 -56 -97 -132 -97c-74 0 -127 30 -127 98h-34c0 -88 65 -127 159 -127c98 0 168 36 168 126h-34zM219.48 3.79236c137.755 -40.7473 382.52 7.51214 382.52 -144.792c0 -109 -123 -133 -258 -133c-126 0 -237 37 -237 143
c0 69.2301 48.1381 108.702 112.48 134.792zM186.83 16.3188c-67.6207 -28.5299 -115.83 -72.4842 -115.83 -148.319c0 -130 125 -172 271 -172c155 0 296 29 293 165c0 133 -141 143 -288 153c-94 5 -183 16 -183 99c0 43.7244 25.7233 70.8531 62.8083 91.9683
c34.0757 -14.0225 74.5213 -20.9683 118.192 -20.9683c127 0 226 58 226 176c0 40.4114 -11.4527 74.142 -31.5972 100.986c46.841 20.3257 93.501 40.5608 138.597 60.0141l-17 28c-47.5924 -20.6533 -95.1848 -42.113 -143.501 -64.379
c-40.0498 35.3175 -99.4809 53.379 -167.499 53.379c-129 0 -227 -63 -227 -183c0 -63.2614 29.6557 -108.669 76.9816 -136.722c-42.8133 -24.1798 -71.9816 -57.2542 -71.9816 -108.278c0 -47.4558 22.9841 -75.9054 58.8299 -93.6812zM160 356c0 98 82 153 190 153
c106 0 185 -52 185 -150c0 -95 -81 -145 -187 -145c-104 0 -188 46 -188 142z" />
    <glyph glyph-name="gcommaaccent" unicode="&#x123;" horiz-adv-x="713" 
d="M410 794l-130 -181h47l121 181h-38zM219.48 3.79236c137.755 -40.7473 382.52 7.51214 382.52 -144.792c0 -109 -123 -133 -258 -133c-126 0 -237 37 -237 143c0 69.2301 48.1381 108.702 112.48 134.792zM186.83 16.3188
c-67.6207 -28.5299 -115.83 -72.4842 -115.83 -148.319c0 -130 125 -172 271 -172c155 0 296 29 293 165c0 133 -141 143 -288 153c-94 5 -183 16 -183 99c0 43.7244 25.7233 70.8531 62.8083 91.9683c34.0757 -14.0225 74.5213 -20.9683 118.192 -20.9683
c127 0 226 58 226 176c0 40.4114 -11.4527 74.142 -31.5972 100.986c46.841 20.3257 93.501 40.5608 138.597 60.0141l-17 28c-47.5924 -20.6533 -95.1848 -42.113 -143.501 -64.379c-40.0498 35.3175 -99.4809 53.379 -167.499 53.379c-129 0 -227 -63 -227 -183
c0 -63.2614 29.6557 -108.669 76.9816 -136.722c-42.8133 -24.1798 -71.9816 -57.2542 -71.9816 -108.278c0 -47.4558 22.9841 -75.9054 58.8299 -93.6812zM160 356c0 98 82 153 190 153c106 0 185 -52 185 -150c0 -95 -81 -145 -187 -145c-104 0 -188 46 -188 142z" />
    <glyph glyph-name="germandbls" unicode="&#xdf;" horiz-adv-x="747" 
d="M491 86c102 20 174 75 174 188c0 107.513 -67.6438 166.3 -174.285 188.513c81.0697 22.1478 135.285 72.9193 135.285 162.487c0 123 -97 178 -229 178c-130 0 -221 -64 -221 -187v-586h-164v-30h164h18h17h166v30h-166v586c0 103 75 158 183 158
c113 0 198 -45 198 -150c0 -103 -95 -151 -215 -151v-24c129 0 254 -45 254 -176c0 -93 -69 -138 -149 -158z" />
    <glyph glyph-name="grave" unicode="`" horiz-adv-x="643" 
d="M338 591c-65 54 -131 112 -196 166h-49c64 -54 131 -112 196 -166h49z" />
    <glyph glyph-name="greater" unicode="&#x3e;" horiz-adv-x="892" 
d="M781.491 305.688c-225.607 -84.5627 -451.991 -169.125 -677.491 -253.688v-32c240 90 481 180 721 270v32c-244 88 -489 176 -733 264v-32c229.5 -82.7706 459.885 -165.541 689.491 -248.312z" />
    <glyph glyph-name="greaterequal" unicode="&#x2265;" horiz-adv-x="980" 
d="M864 0h-734v31h734v-31zM130 682c245 -87 490 -173 734 -260v-1v-32v-1c-244 -87 -489 -174 -734 -260v33c229.976 81.6648 459.951 162.449 689.1 244.005c-229.149 81.6613 -459.124 163.269 -689.1 243.995v33z" />
    <glyph glyph-name="guillemotleft" unicode="&#xab;" horiz-adv-x="695" 
d="M121 261l227 -119v32l-195.324 103.255l196.324 100.745v32l-228 -116v-33zM346 261l228 -119v32l-196.253 103.291l196.253 100.709v32l-228 -116v-33z" />
    <glyph glyph-name="guillemotright" unicode="&#xbb;" horiz-adv-x="695" 
d="M542 261l-227 -119v32l195.324 103.255l-196.324 100.745v32l228 -116v-33zM317 261l-228 -119v32l196.253 103.291l-196.253 100.709v32l228 -116v-33z" />
    <glyph glyph-name="guilsinglleft" unicode="&#x2039;" horiz-adv-x="573" 
d="M170.753 277.5c129.936 44.4908 72.5232 38.6958 249.247 95.4998v32c-196 -63 -104 -48 -299 -111v-33c195 -63 103 -48 300 -111v32c-177.626 56.8041 -120.301 51.009 -250.247 95.5002z" />
    <glyph glyph-name="guilsinglright" unicode="&#x203a;" horiz-adv-x="573" 
d="M402.247 277.5c-129.937 44.491 -72.5235 38.6959 -249.247 95.5v32c196 -63 104 -48 299 -111v-33c-195 -63 -103 -48 -299 -111v32c176.724 56.8041 119.31 51.009 249.247 95.5z" />
    <glyph glyph-name="h" unicode="h" horiz-adv-x="824" 
d="M212 414.822v385.178h-18h-18h-164v-30h164v-740h-164v-30h164h18h18h148v30h-148v335.241c45.8488 85.8726 133.989 141.759 231 141.759c112 0 174 -58 174 -169v-308h-148v-30h148h17h19h163v30h-163v312c0 129 -74 196 -205 196
c-96.7739 0 -185.892 -44.5431 -236 -123.178z" />
    <glyph glyph-name="hungarumlaut" unicode="&#x2dd;" horiz-adv-x="615" 
d="M335 665l131 182h-47l-121 -182h37zM180 665l131 182h-47l-121 -182h37z" />
    <glyph glyph-name="hyphen" unicode="-" horiz-adv-x="623" 
d="M139 257h345v33h-345v-33z" />
    <glyph glyph-name="i" unicode="i" horiz-adv-x="424" 
d="M215 670h43c0 -13 -9 -18 -22 -18c-12 0 -21 6 -21 18zM215 670h43c0 13 -9 19 -22 19c-12 0 -21 -7 -21 -19zM219 503v-473h-164v-30h164h18h20h151v30h-151v503h-20h-18h-164v-30h164z" />
    <glyph glyph-name="iacute" unicode="&#xed;" horiz-adv-x="428" 
d="M178 654c64 54 131 112 196 166h-49c-65 -53 -132 -112 -196 -166h49zM219 503v-473h-164v-30h164h18h20h151v30h-151v503h-20h-18h-164v-30h164z" />
    <glyph glyph-name="icircumflex" unicode="&#xee;" horiz-adv-x="510" 
d="M504 654c-64 54 -131 112 -196 166h-8h-41h-8c-65 -54 -132 -112 -196 -166h49c57.2502 48.3049 116.901 99.8105 175.373 148.791c57.9254 -48.98 118.376 -100.486 175.627 -148.791h49zM262 503v-473h-164v-30h164h18h20h151v30h-151v503h-20h-18h-164v-30h164z" />
    <glyph glyph-name="idieresis" unicode="&#xef;" horiz-adv-x="429" 
d="M290 668h49c0 14 -10 22 -25 22s-24 -9 -24 -22zM290 668h49c0 -15 -10 -22 -25 -22s-24 8 -24 22zM140 668h49c0 14 -11 22 -26 22c-14 0 -23 -9 -23 -22zM140 668h49c0 -15 -11 -22 -26 -22c-14 0 -23 8 -23 22zM222 503v-473h-164v-30h164h18h20h150v30h-150v503h-20
h-18h-164v-30h164z" />
    <glyph glyph-name="igrave" unicode="&#xec;" horiz-adv-x="428" 
d="M330 654c-64 53 -131 112 -196 166h-49c64 -54 131 -112 196 -166h49zM224 503v-473h-164v-30h164h18h20h151v30h-151v503h-20h-18h-164v-30h164z" />
    <glyph glyph-name="imacron" unicode="&#x12b;" horiz-adv-x="424" 
d="M364 683h-267v-29h267v29zM219 503v-473h-164v-30h164h18h20h151v30h-151v503h-20h-18h-164v-30h164z" />
    <glyph glyph-name="infinity" unicode="&#x221e;" horiz-adv-x="1097" 
d="M519.769 407.534c-48.3036 -75.8226 -104.125 -146.534 -190.769 -146.534c-92 0 -171 56 -171 143s82 138 174 138c82.1016 0 143.241 -61.0634 187.769 -134.466zM539.633 437.919c-50.7334 74.3083 -118.11 133.081 -207.633 133.081c-111 0 -209 -63 -209 -167
c0 -105 95 -172 206 -172c93.1846 0 158.279 66.3957 210.204 144.997c54.309 -79.2056 124.617 -143.997 218.796 -143.997c116 0 218 63 218 170c0 106 -104 167 -218 167c-92.4451 0 -165.234 -56.4042 -218.367 -132.081zM558.951 408.112
c47.536 73.8032 113.309 131.888 199.049 131.888c95 0 183 -48 183 -137s-87 -140 -183 -140c-88.8167 0 -149.36 68.4045 -199.049 145.112z" />
    <glyph glyph-name="integral" unicode="&#x222b;" horiz-adv-x="525" 
d="M506 827c-12.6758 2.15758 -24.8969 3.22411 -36.6096 3.22411c-75.1449 0 -129.357 -43.8999 -148.39 -125.224c-50 -213 -99 -426 -148 -640c-15.6643 -65.2678 -58.5919 -102.515 -118.897 -102.515c-8.99218 0 -18.3707 0.828159 -28.1029 2.51507l-7 -30
c12.2833 -1.91927 24.141 -2.87262 35.5289 -2.87262c77.6147 0 133.414 44.2839 153.471 128.873c50 214 99 428 150 643c14.6709 62.9987 56.1533 95.4622 113.521 95.4622c9.10728 0 18.6149 -0.818164 28.4792 -2.46221z" />
    <glyph glyph-name="iogonek" unicode="&#x12f;" horiz-adv-x="424" 
d="M215 670h43c0 -13 -9 -18 -22 -18c-12 0 -21 6 -21 18zM215 670h43c0 13 -9 19 -22 19c-12 0 -21 -7 -21 -19zM219 503v-473h-164v-30l114.507 1.77636e-15c-33.4335 -18.2014 -56.5071 -42.2968 -56.5071 -85c0 -62 44 -98 109 -98c37 0 62 12 95 29c-15 21 -2 2 -17 22
c-26 -13 -46 -22 -75 -22c-47 0 -79 25 -79 69c0 49.5169 40.088 66.2346 86.0392 85h4.96082h20h151v30h-151v503h-20h-18h-164v-30h164z" />
    <glyph glyph-name="j" unicode="j" horiz-adv-x="399" 
d="M14 -301c10 0 23 -3 36 -3c109 0 192 57 192 164v673h-19h-17h-165v-30h165v-643c0 -85 -67 -133 -155 -133c-10 0 -24 1 -31 2c-5 -29 0 0 -6 -30zM205 670h42c0 -13 -9 -19 -23 -19c-12 0 -19 7 -19 19zM205 670h42c0 13 -9 20 -23 20c-12 0 -19 -8 -19 -20z" />
    <glyph glyph-name="k" unicode="k" horiz-adv-x="838" 
d="M244 275c120.447 74.3937 246.385 152.709 368.782 228h162.218v30h-166h-181v-30h128.415c-114.145 -69.9454 -230.322 -143.664 -343.415 -213.768l-2.84217e-14 510.768h-16h-20h-163v-30h163v-740h-165v-30h165h17h19h145v30h-145v230.564
c137.918 -86.5721 280.651 -176.26 418 -260.564h4h56h129v30h-177.927c-131.808 80.9307 -267.314 164.943 -398.073 245z" />
    <glyph glyph-name="kcommaaccent" unicode="&#x137;" horiz-adv-x="838" 
d="M374 -301l131 182h-47l-121 -182h37zM244 275c120.447 74.3937 246.385 152.709 368.782 228h162.218v30h-166h-182v-30h129.415c-114.145 -69.9454 -230.322 -143.664 -343.415 -213.768l-2.84217e-14 510.768h-16h-20h-163v-30h163v-740h-165v-30h165h17h19h146v30
h-146v230.564c137.918 -86.5721 280.651 -176.26 418 -260.564h4h56h129v30h-177.927c-131.808 80.9307 -267.314 164.943 -398.073 245z" />
    <glyph glyph-name="l" unicode="l" horiz-adv-x="391" 
d="M213 30v770h-14h-22h-160l-1 -30h161v-740h-163v-30h163h19h17h166v30h-166z" />
    <glyph glyph-name="lacute" unicode="&#x13a;" horiz-adv-x="394" 
d="M132 895c64 54 131 112 195 166h-48c-65 -54 -132 -112 -196 -166h49zM214 30v770h-15h-21h-161v-30h161v-740h-163v-30h163h19h17h165v30h-165z" />
    <glyph glyph-name="lcaron" unicode="&#x13e;" horiz-adv-x="493" 
d="M340 628l131 181h-47l-121 -181h37zM213 30v770h-14h-22h-160l-1 -30h161v-740h-163v-30h163h19h17h166v30h-166z" />
    <glyph glyph-name="lcommaaccent" unicode="&#x13c;" horiz-adv-x="391" 
d="M133 -300l131 182h-48l-120 -182h37zM213 30v770h-14h-22h-160l-1 -30h161v-740h-163v-30h163h19h17h166v30h-166z" />
    <glyph glyph-name="less" unicode="&#x3c;" horiz-adv-x="893" 
d="M109.509 300.312c225.611 84.5627 452.051 169.125 678.491 253.688v32c-241 -90 -482 -180 -722 -270v-32c244 -88 489 -176 734 -264v32c-230.441 82.7706 -460.882 165.541 -690.491 248.312z" />
    <glyph glyph-name="lessequal" unicode="&#x2264;" horiz-adv-x="980" 
d="M116 0h733v31h-733v-31zM850 682c-245 -87 -490 -173 -734 -260v-1v-32v-1c244 -87 489 -174 734 -260v33c-229.976 81.6648 -459.951 162.449 -689.1 244.005c229.149 81.6613 459.124 163.269 689.1 243.995v33z" />
    <glyph glyph-name="litre" horiz-adv-x="447" 
d="M240 30v770h-14h-22h-160l-1 -30h161v-740h-163v-30h163h19h17h166v30h-166z" />
    <glyph glyph-name="logicalnot" unicode="&#xac;" horiz-adv-x="895" 
d="M718 326h-542v-33h542v-141h36v141v33h-36z" />
    <glyph glyph-name="logo" horiz-adv-x="2232" 
d="M1669 57c79 -41 157 -62 246 -62c150 0 260 43 260 176c0 127 -112 164 -234 214c-106 43 -209 71 -209 176c0 94 84 136 189 136c77.5018 0 136.694 -20.9257 202 -51.3789v-105.621h31v123c-79 39 -142 63 -231 63c-127 0 -227 -52 -227 -167c0 -120 108 -153 223 -201
c113 -45 220 -77 220 -187c0 -109 -95 -144 -222 -144c-78.8825 0 -147.829 19.8714 -218 52.7466v101.253h-30v-124zM1040 722h-16h-20h-162v-30h162v-662h-162v-30h162h20h16h216c243 0 382 116 382 352c0 247 -144 370 -397 370h-201zM1040 692h199
c233 0 364 -115 364 -341c0 -214 -124 -321 -344 -321h-219v662zM411 690v-660h-165v-30h165h17h19h163v30h-163v660h319v-104h31v104v16v16h-735v-16v-16v-104h31v104h318z" />
    <glyph glyph-name="lozenge" unicode="&#x25ca;" horiz-adv-x="617" 
d="M290 125h-1c-69 113 -138 226 -207 340h37c63.1235 -104.291 126.247 -207.745 188.605 -311.128c62.1952 101.895 129.214 210.681 190.395 311.128h37c-68 -110 -141 -230 -208 -340h-2h-35zM498 465h37c-68 110 -141 230 -208 340h-2h-35h-1
c-69 -114 -138 -227 -207 -340h37c63.1474 103.415 126.295 206.831 188.676 311.012c62.1753 -101.862 129.166 -210.603 190.324 -311.012z" />
    <glyph glyph-name="lslash" unicode="&#x142;" horiz-adv-x="401" 
d="M220 30v377.363c51 42.7985 102 85.6192 153 128.637v35c-51 -43.0174 -102 -86.0348 -153 -128.965v357.965h-14h-22h-161v-30h161v-358.253c-52 -43.7252 -104 -87.3383 -156 -130.747v-35c52 43.8609 104 87.5173 156 131.154v-347.154h-163v-30h163h19h17h166v30
h-166z" />
    <glyph glyph-name="m" unicode="m" horiz-adv-x="1216" 
d="M255 416.756v116.244h-18h-18h-164v-30h164v-473h-164v-30h164h18h18h136v30h-136v333.883c43.2483 87.5758 109.264 144.117 204 144.117c109 0 154 -57 154 -170v-308h-135v-30h135h18h18h135v30h-135v312c0 7.85876 -0.187141 15.48 -0.566821 22.8639
c42.7214 86.0859 111.244 142.136 205.567 142.136c109 0 152 -56 152 -169v-308h-133v-30h133h20h17h165v30h-165v312c0 131 -53 196 -182 196c-97.6748 0 -173.327 -47.7165 -217.521 -129.941c-16.4059 86.8076 -70.3942 129.941 -175.479 129.941
c-95.2949 0 -167.243 -43.2597 -213 -121.244z" />
    <glyph glyph-name="macron" unicode="&#xaf;" horiz-adv-x="474" 
d="M303 681h-267v-30h267v30z" />
    <glyph glyph-name="macronmod" horiz-adv-x="445" 
d="M355 681h-267v-30h267v30z" />
    <glyph glyph-name="minus" unicode="&#x2212;" horiz-adv-x="874" 
d="M141 293h592v33h-592v-33z" />
    <glyph glyph-name="multiply" unicode="&#xd7;" horiz-adv-x="696" 
d="M347.764 332.764l-196.764 197.236c-17 -17 -6 -6 -23 -24l196.5 -196.5l-197.5 -197.5c17 -17 6 -6 24 -23l197.236 196.764l196.764 -196.764l23 23l-196.501 196.972l197.501 197.028c-17 18 -6 7 -24 24z" />
    <glyph glyph-name="mumath" horiz-adv-x="896" 
d="M646 157.586c-46.9961 -71.0226 -126.786 -131.586 -213 -131.586c-115 0 -184 52 -184 164v343h-1h-17h-18h-164v-30h164v-315v-488h35v365.841c35.9795 -47.9912 98.3761 -70.8406 181 -70.8406c87.2918 0 166.13 50.7239 217 117.875v-112.875h18h18h152v30h-152v503
h-18h-18h-164v-30h164v-345.414z" />
    <glyph glyph-name="n" unicode="n" horiz-adv-x="867" 
d="M219 503v-473h-164v-30h164h18h18h146v30h-146v335.105c45.7452 85.1299 132.938 141.895 229 141.895c111 0 176 -58 176 -169v-308h-146v-30h146h17h20h162v30h-162v312c0 129 -75 196 -205 196c-97.2594 0 -186.083 -44.9912 -237 -124.364v119.364h-18h-18h-164v-30
h164z" />
    <glyph glyph-name="nacute" unicode="&#x144;" horiz-adv-x="867" 
d="M403 655c65 54 132 112 196 166h-49c-65 -53 -132 -112 -196 -166h49zM219 503v-473h-164v-30h164h18h18h146v30h-146v335.105c45.7452 85.1299 132.938 141.895 229 141.895c111 0 176 -58 176 -169v-308h-146v-30h146h17h20h162v30h-162v312c0 129 -75 196 -205 196
c-97.2594 0 -186.083 -44.9912 -237 -124.364v119.364h-18h-18h-164v-30h164z" />
    <glyph glyph-name="ncaron" unicode="&#x148;" horiz-adv-x="867" 
d="M239 820c64 -54 131 -113 196 -166h8h41h8c65 53 132 112 196 166h-49c-57.2502 -48.3049 -117.701 -99.8105 -175.627 -148.791c-58.4724 48.98 -118.123 100.486 -175.373 148.791h-49zM219 503v-473h-164v-30h164h18h18h146v30h-146v335.105
c45.7452 85.1299 132.938 141.895 229 141.895c111 0 176 -58 176 -169v-308h-146v-30h146h17h20h162v30h-162v312c0 129 -75 196 -205 196c-97.2594 0 -186.083 -44.9912 -237 -124.364v119.364h-18h-18h-164v-30h164z" />
    <glyph glyph-name="ncommaaccent" unicode="&#x146;" horiz-adv-x="867" 
d="M420 -300l131 182h-47l-121 -182h37zM219 503v-473h-164v-30h164h18h18h146v30h-146v335.105c45.7452 85.1299 132.938 141.895 229 141.895c111 0 176 -58 176 -169v-308h-146v-30h146h17h20h162v30h-162v312c0 129 -75 196 -205 196
c-97.2594 0 -186.083 -44.9912 -237 -124.364v119.364h-18h-18h-164v-30h164z" />
    <glyph glyph-name="nine" unicode="9" horiz-adv-x="731" 
d="M594.486 426.961c-24.4406 -241.352 -224.593 -359.404 -490.486 -409.961c3.61217 -13.9971 3.9624 -15.1504 3.99635 -15.1504c0.0412497 0 4.00365 -15.8496 4.00365 -15.8496c302 53 519 199 519 494c0 161 -109 248 -276 248c-146 0 -244 -73 -244 -211
c0 -139 100 -208 246 -208c106.884 0 186.994 39.1308 237.486 117.961zM596.994 479.954c-51.6627 -91.7456 -124.427 -138.954 -236.994 -138.954c-127 0 -213 58 -213 177c0 116 85 175 206 175c146.315 0 243.094 -74.3022 243.994 -213.046z" />
    <glyph glyph-name="notequal" unicode="&#x2260;" horiz-adv-x="993" 
d="M406.956 202l-129.956 -212h37l129.956 212h427.044v31h-408.041l117.083 191h290.959v31h-271.956l129.956 212h-37l-129.956 -212h-437.044v-31h418.041l-117.083 -191h-300.959v-31h281.956z" />
    <glyph glyph-name="ntilde" unicode="&#xf1;" horiz-adv-x="867" 
d="M678 783c-16 -54 -35 -100 -86 -100c-43 0 -71 17 -103 47c-35 33 -64 54 -112 54c-71 0 -106 -48 -124 -120c27 -10 0 0 28 -10c15 59 41 101 97 101c39 0 62 -20 90 -47c38 -35 71 -55 122 -55c69 0 96 54 117 122c-28 8 0 -1 -29 8zM219 503v-473h-164v-30h164h18h18
h146v30h-146v335.105c45.7452 85.1299 132.938 141.895 229 141.895c111 0 176 -58 176 -169v-308h-146v-30h146h17h20h162v30h-162v312c0 129 -75 196 -205 196c-97.2594 0 -186.083 -44.9912 -237 -124.364v119.364h-18h-18h-164v-30h164z" />
    <glyph glyph-name="nullsuperior" horiz-adv-x="653" 
d="M125 497c0 -128 74 -210 202 -210c127 0 200 83 200 212c0 127 -73 207 -200 207s-202 -81 -202 -209zM159 497c0 109 60 179 167 179c0.754721 0.00705347 1.50705 0.0105746 2.25699 0.0105746c105.572 0 163.743 -69.7794 163.743 -178.011c0 -109 -57 -182 -164 -182
c-108 0 -169 71 -169 181z" />
    <glyph glyph-name="numbersign" unicode="#" horiz-adv-x="832" 
d="M663.184 516l77.8155 206h-36l-77.8155 -206h-298.282l77.0976 206h-36l-76.4882 -206h-119.512l-10 -30h118.373l-78.6772 -211.896c-38.6481 -0.0641854 -77.232 -0.104318 -115.696 -0.104318l-10 -30l114.518 2.84217e-14l-73.5178 -198h34l74.1036 198h297.334
l-77.4378 -205h36l77.4378 205h95.5622l10 31c-31.1965 0 -62.4997 -0.0266775 -93.8791 -0.0713178l79.7312 211.071h91.1479l9 30h-88.8155zM615.852 486l-79.7533 -211.13c-98.9125 -0.179684 -198.464 -0.504247 -297.705 -0.702148l79.2803 211.832h298.178z" />
    <glyph glyph-name="o" unicode="o" horiz-adv-x="753" 
d="M103 268c0 -171 101 -273 273 -273s274 100 274 271c0 170 -103 272 -276 272c-171 0 -271 -102 -271 -270zM139 268c0 150 86 240 233 240c153 0 242 -91 242 -242s-88 -240 -237 -240c-152 0 -238 91 -238 242z" />
    <glyph glyph-name="oacute" unicode="&#xf3;" horiz-adv-x="753" 
d="M314 655c64 54 131 112 196 166h-49c-65 -54 -132 -113 -196 -166h49zM103 268c0 -171 101 -273 273 -273s274 100 274 271c0 170 -103 272 -276 272c-171 0 -271 -102 -271 -270zM139 268c0 150 86 240 233 240c153 0 242 -91 242 -242s-88 -240 -237 -240
c-152 0 -238 91 -238 242z" />
    <glyph glyph-name="ocircumflex" unicode="&#xf4;" horiz-adv-x="753" 
d="M599 655c-65 53 -131 112 -196 166h-9h-40h-8c-65 -54 -132 -113 -196 -166h49c57.3635 48.4005 117.137 100.014 175.001 149.081c57.873 -49.0669 117.74 -100.681 175.999 -149.081h49zM103 268c0 -171 101 -273 273 -273s274 100 274 271c0 170 -103 272 -276 272
c-171 0 -271 -102 -271 -270zM139 268c0 150 86 240 233 240c153 0 242 -91 242 -242s-88 -240 -237 -240c-152 0 -238 91 -238 242z" />
    <glyph glyph-name="odieresis" unicode="&#xf6;" horiz-adv-x="753" 
d="M425 668h49c0 -14 -10 -22 -26 -22c-14 0 -23 8 -23 22zM425 668h49c0 15 -10 23 -25 23s-24 -9 -24 -23zM274 668h50c0 -14 -11 -22 -26 -22c-14 0 -24 8 -24 22zM274 668h50c0 15 -11 23 -26 23c-14 0 -24 -9 -24 -23zM103 268c0 -171 101 -273 273 -273
s274 100 274 271c0 170 -103 272 -276 272c-171 0 -271 -102 -271 -270zM139 268c0 150 86 240 233 240c153 0 242 -91 242 -242s-88 -240 -237 -240c-152 0 -238 91 -238 242z" />
    <glyph glyph-name="oe" unicode="&#x153;" horiz-adv-x="1211" 
d="M1071 298h-418.635c5.78594 132.557 80.2385 209 213.635 209c130 0 205 -70 205 -202v-7zM652.162 269h453.838v33c0 153 -87 236 -238 236c-124.691 0 -206.727 -54.5043 -237.9 -154.849c-37.7462 98.5902 -127.619 154.849 -256.1 154.849
c-171 0 -271 -102 -271 -270c0 -171 101 -273 273 -273c132.571 0 223.557 59.4077 258.305 164.944c36.6581 -106.703 127.341 -164.944 262.695 -164.944c84 0 138 24 204 79l-22 22c-59 -48 -107 -70 -182 -70c-154.057 0 -240.613 88.4158 -244.838 243zM139 268
c0 150 86 240 233 240c153 0 242 -91 242 -242s-88 -240 -237 -240c-152 0 -238 91 -238 242z" />
    <glyph glyph-name="ogonek" unicode="&#x2db;" horiz-adv-x="397" 
d="M168 23c-69 -27 -130 -46 -130 -116c0 -62 44 -98 109 -98c37 0 62 12 94 28c-14 21 -2 2 -16 23c-26 -14 -46 -22 -75 -22c-47 0 -79 25 -79 69c0 58 54 70 110 95c-12 18 -1 2 -13 21z" />
    <glyph glyph-name="ograve" unicode="&#xf2;" horiz-adv-x="753" 
d="M466 654c-64 54 -131 112 -196 166h-49c64 -54 131 -112 196 -166h49zM103 268c0 -171 101 -273 273 -273s274 100 274 271c0 170 -103 272 -276 272c-171 0 -271 -102 -271 -270zM139 268c0 150 86 240 233 240c153 0 242 -91 242 -242s-88 -240 -237 -240
c-152 0 -238 91 -238 242z" />
    <glyph glyph-name="ohungarumlaut" unicode="&#x151;" horiz-adv-x="754" 
d="M434 605l130 182h-47l-121 -182h38zM278 605l131 182h-47l-121 -182h37zM103 268c0 -171 101 -273 273 -273s274 100 274 271c0 170 -103 272 -276 272c-171 0 -271 -102 -271 -270zM139 268c0 150 86 240 233 240c153 0 242 -91 242 -242s-88 -240 -237 -240
c-152 0 -238 91 -238 242z" />
    <glyph glyph-name="omacron" unicode="&#x14d;" horiz-adv-x="753" 
d="M501 684h-267v-29h267v29zM103 268c0 -171 101 -273 273 -273s274 100 274 271c0 170 -103 272 -276 272c-171 0 -271 -102 -271 -270zM139 268c0 150 86 240 233 240c153 0 242 -91 242 -242s-88 -240 -237 -240c-152 0 -238 91 -238 242z" />
    <glyph glyph-name="omegamath" horiz-adv-x="923" 
d="M683.85 30c100.589 79.6751 149.15 180.823 149.15 318c0 230 -142 378 -371 378c-231 0 -373 -150 -373 -381c0 -135.399 50.7839 -231.917 148.111 -315h-198.111v-30h236l20 30c-112 82 -170 176 -170 315c0 211 127 352 334 352c209 0 339 -138 339 -349
c0 -142 -60 -240 -177 -318l21 -30h239v30h-197.15z" />
    <glyph glyph-name="one" unicode="1" horiz-adv-x="557" 
d="M311 722l-237 -169l20 -26l217 154.37v-651.37h-161v-30h161h21h15h167v30h-167v692h-36z" />
    <glyph glyph-name="onehalf" unicode="&#xbd;" horiz-adv-x="1252" 
d="M861 224c35 48 77 73 140 73c71 0 123 -28 123 -93c0 -57 -43 -80 -90 -115c-77 -50 -154 -101 -231 -151v-29h379v121h-29v-92h-296.138c67.8242 42.6667 133.318 85.3333 198.138 128c54 42 103 72 103 140c0 82 -66 120 -154 120c-76 0 -130 -24 -169 -86zM389 -88
l505 840h-37l-505 -840h37zM222 756l-154 -110l18 -24l136 100v-348h-122v-29h121h1h151v29h-116v382h-35z" />
    <glyph glyph-name="onequarter" unicode="&#xbc;" horiz-adv-x="1218" 
d="M390 -88l506 840h-38l-505 -840h37zM1003 -97h18h156v28h-156v92h118v27h-118v289h-35l-273 -289l17 -27h256v-92h-156v-28h156h17zM986 294.007v-244.007h-230.495zM227 756l-154 -110l18 -24l136 100v-348h-123v-29h122h1h151v29h-117v373v9h-34z" />
    <glyph glyph-name="onesuperior" unicode="&#xb9;" horiz-adv-x="545" 
d="M283 702l-154 -109l18 -24l136 99.2v-347.2h-123v-29h122h1h151v29h-117v372v9h-34z" />
    <glyph glyph-name="ordfeminine" unicode="&#xaa;" horiz-adv-x="621" 
d="M390 631.275c-50.2205 -5.49111 -88.1326 -6.80593 -141 -12.275c-69 -8 -122 -37 -122 -102c0 -66 54 -96 126 -96c59.3333 0 102.594 27.0012 137 66.055v-60.055h20h14h72v27h-72v225c0 69 -63 88 -140 88c-58 0 -109 -21 -143 -51v-70h27v53.8156
c28.4031 20.5172 66.9551 39.1844 112 39.1844c60 0 110 -14 110 -69v-38.725zM390 521.764c-31.9146 -41.3443 -73.5602 -73.764 -131 -73.764c-56 0 -100 20 -100 70c0 48 39 69 89 75c52.2771 6.3093 91.5558 8.55663 142 14.0643v-85.3003z" />
    <glyph glyph-name="ordmasculine" unicode="&#xba;" horiz-adv-x="607" 
d="M125 601c0 -113 69 -183 182 -183c109 0 175 70 175 181c0 107 -68 171 -177 171c-110 0 -180 -63 -180 -169zM159 601c0 88 55 141 145 141c89 0 144 -55 144 -143c0 -92 -52 -152 -139 -152c-94 0 -150 60 -150 154z" />
    <glyph glyph-name="oslash" unicode="&#xf8;" horiz-adv-x="753" 
d="M103 268c0 -112.511 43.7242 -195.152 122.627 -238.521l-55.6273 -92.4787l25 -16l57.5663 95.7509c35.5499 -14.2827 76.8926 -21.7509 123.434 -21.7509c172 0 274 100 274 271c0 104.894 -39.2138 183.899 -109.889 229.028l52.8894 87.9718l-26 14
l-52.7256 -87.6547c-39.3035 18.7607 -86.394 28.6547 -140.274 28.6547c-171 0 -271 -102 -271 -270zM139 268c0 150 86 240 233 240c48.5527 0 90.6604 -9.16401 125.524 -26.5014l-254.76 -423.531c-67.3383 38.9006 -103.764 111.76 -103.764 210.032zM522.97 466.518
c58.877 -40.6759 91.0297 -109.759 91.0297 -200.518c0 -151 -88 -240 -237 -240c-40.6799 0 -76.6325 6.518 -107.474 18.9597z" />
    <glyph glyph-name="otilde" unicode="&#xf5;" horiz-adv-x="753" 
d="M570 783c-16 -54 -36 -100 -86 -100c-43 0 -71 17 -103 47c-36 33 -64 55 -112 55c-71 0 -106 -49 -124 -121l27 -10c16 59 42 101 98 101c39 0 61 -20 90 -47c38 -34 71 -55 122 -55c69 0 96 54 117 122zM103 268c0 -171 101 -273 273 -273s274 100 274 271
c0 170 -103 272 -276 272c-171 0 -271 -102 -271 -270zM139 268c0 150 86 240 233 240c153 0 242 -91 242 -242s-88 -240 -237 -240c-152 0 -238 91 -238 242z" />
    <glyph glyph-name="p" unicode="p" horiz-adv-x="812" 
d="M211 459.42v73.5798h-16h-19h-163l-1 -30h164v-773h-165v-29h165v-1h17h18h152v30h-152v355.308c69.8487 -58.3724 138.683 -90.3085 234 -90.3085c164 0 264 115 263 281c0 158 -102 262 -261 262c-93.9661 0 -179.905 -34.2969 -236 -78.5798zM211 121v303.649
c49.954 45.3011 137.11 83.3507 234 83.3507c141 0 228 -93 228 -233c0.0496128 -2.4641 0.0743379 -4.91535 0.0743379 -7.3535c0 -144.275 -86.577 -242.654 -225.993 -242.654c-0.69249 0 -1.38628 0.00242718 -2.08138 0.00728797
c-95.3795 0 -161.395 35.995 -234 96.0001z" />
    <glyph glyph-name="paragraph" unicode="&#xb6;" horiz-adv-x="860" 
d="M727 0v722h-23h-14h-149h-19h-4h-13h-139c-166 0 -292 -76 -292 -229c0 -144 113 -213 265 -216c60.2602 0 111.882 14.9209 166 37.1076v-284.108h-165v-30h165h17h19h149h14h23zM505 692v-345.882c-57.7451 -24.6449 -104.374 -39.1182 -170 -39.1182
c-129 0 -224 62 -224 184c0 137 112 201 260 201h134zM541 30v662h149v-662h-149z" />
    <glyph glyph-name="parenleft" unicode="(" horiz-adv-x="433" 
d="M408 -233c-185 157 -278 315 -278 559c0 243 94 400 276 560l-21 20c-192 -163 -291 -326 -291 -580s100 -416 292 -580z" />
    <glyph glyph-name="parenright" unicode=")" horiz-adv-x="445" 
d="M45 -270c196 172 308 334 308 597c0 257 -105 418 -304 579l-22 -21c189 -159 288 -313 288 -559c0 -252 -109 -406 -293 -575z" />
    <glyph glyph-name="partialdiff" unicode="&#x2202;" horiz-adv-x="693" 
d="M541.958 292.551c5.54054 40.0164 8.0421 82.6289 8.0421 126.449c0 156 -63 279 -205 279c-55 0 -95 -20 -142 -45l-17 23c54 32 98 51 161 51c162 0 236 -134 236 -308c0 -229.41 -61.6821 -423.004 -265.424 -423.004
c-0.524309 0 -1.04956 0.00128205 -1.57575 0.00384884c-134 0 -222 81 -222 212c0 136 94 218 234 218c103.874 0 180.295 -47.884 213.958 -133.449zM531.872 237.105c-22.5701 101.877 -96.6636 160.964 -202.872 161.895c-114 -1 -200 -70 -200 -186
c0 -115 78 -188 187 -188c121.979 0 187.279 87.9016 215.872 212.105z" />
    <glyph glyph-name="percent" unicode="%" horiz-adv-x="1278" 
d="M426 -88l506 840h-38l-505 -840h37zM810 116c0 -129 74 -210 201 -210s201 82 201 212c0 127 -74 207 -200 207c-128 0 -202 -81 -202 -209zM844 116c0 109 59 179 166 179c0.744278 0.00695587 1.48623 0.0104281 2.22586 0.0104281
c105.592 0 163.774 -70.7686 163.774 -179.01c0 -108 -57 -181 -163 -181c-109 0 -169 71 -169 181zM66 547c0 -128 74 -210 202 -210c127 0 200 82 200 212c0 127 -73 207 -200 207s-202 -81 -202 -209zM100 547c0 109 60 179 167 179
c0.754721 0.00705347 1.50705 0.0105746 2.25699 0.0105746c105.572 0 163.743 -69.7794 163.743 -178.011c0 -109 -57 -182 -164 -182c-108 0 -169 71 -169 181z" />
    <glyph glyph-name="period" unicode="." horiz-adv-x="319" 
d="M135 17h49c0 14 -10 22 -25 22s-24 -9 -24 -22zM135 17h49c0 -15 -10 -22 -25 -22s-24 8 -24 22z" />
    <glyph glyph-name="periodcentered" unicode="&#xb7;" horiz-adv-x="325" 
d="M138 440h49c0 -14 -10 -22 -25 -22s-24 8 -24 22zM138 440h49c0 14 -10 22 -25 22s-24 -8 -24 -22z" />
    <glyph glyph-name="perthousand" unicode="&#x2030;" horiz-adv-x="1758" 
d="M428 -88l505 840h-37l-505 -840h37zM1293 116c0 -129 74 -210 202 -210c127 0 200 82 200 212c0 127 -73 207 -200 207c-128 0 -202 -81 -202 -209zM1327 116c0 109 60 179 167 179c0.744278 0.00695587 1.48623 0.0104281 2.22586 0.0104281
c105.592 0 163.774 -70.7686 163.774 -179.01c0 -108 -57 -181 -164 -181c-109 0 -169 71 -169 181zM811 116c0 -129 74 -210 201 -210c128 0 201 82 201 212c0 127 -74 207 -200 207c-128 0 -202 -81 -202 -209zM845 116c0 109 60 179 166 179
c0.744278 0.00695587 1.48623 0.0104281 2.22586 0.0104281c105.592 0 163.774 -70.7686 163.774 -179.01c0 -108 -56 -181 -163 -181c-109 0 -169 71 -169 181zM66 547c0 -128 74 -210 202 -210c127 0 200 82 200 212c0 127 -73 207 -200 207s-202 -81 -202 -209zM100 547
c0 109 60 179 167 179c0.754721 0.00705347 1.50705 0.0105746 2.25699 0.0105746c105.572 0 163.743 -69.7794 163.743 -178.011c0 -109 -57 -182 -164 -182c-108 0 -169 71 -169 181z" />
    <glyph glyph-name="pi" unicode="&#x3c0;" horiz-adv-x="657" 
d="M198 556h264v-537h35v537h126v33h-593v-33h133v-537h35v537z" />
    <glyph glyph-name="plus" unicode="+" horiz-adv-x="773" 
d="M401 326v262h-35v-262h-275v-33h275v-274h35v274h281v33h-281z" />
    <glyph glyph-name="plusminus" unicode="&#xb1;" horiz-adv-x="827" 
d="M427 326v262h-35v-262h-274v-33h274v-241h-275v-33h275h35h282v33h-282v241h282v33h-282z" />
    <glyph glyph-name="product" unicode="&#x220f;" horiz-adv-x="1078" 
d="M261 800h-3h-21h-162v-30h162v-740h-164v-30h164h18h17h165v30h-165v740h531v-740h-164v-30h164h18h17h165v30h-165v740h164v30h-164h-20h-15h-531h-11z" />
    <glyph glyph-name="q" unicode="q" horiz-adv-x="805" 
d="M602 431.093v-300.399c-60.9913 -66.2125 -141.958 -105.694 -231 -105.694c-143 0 -234 94 -234 240s88 243 232 243c82.5685 0 166.017 -31.6932 233 -76.9069zM602 89.8775v-359.878h-161v-30h161h21h17h153v30h-153v773h153v30h-153h-17h-21v-69.575
c-67.7228 45.4718 -150.861 74.575 -234 74.575c-167 0 -268 -108 -268 -274c0 -165 106 -269 271 -269c88.1164 0 168.77 36.5687 231 94.8775z" />
    <glyph glyph-name="question" unicode="?" horiz-adv-x="547" 
d="M115 668c32 10 56 15 89 15c117 0 203 -55 203 -164c0 -119 -96 -181 -224 -181h-7v-116h37v86.0472c131.97 9.37612 229 81.5753 229 210.953c0 126 -102 195 -235 195c-38 0 -67 -6 -104 -16zM174 13h42c0 12 -8 19 -21 19s-21 -8 -21 -19zM174 13h42
c0 -13 -8 -19 -21 -19s-21 7 -21 19z" />
    <glyph glyph-name="questiondown" unicode="&#xbf;" horiz-adv-x="547" 
d="M432 40c-32 -10 -57 -15 -89 -15c-117 0 -204 55 -204 164c0 119 97 181 224 181h7v117h-36v-85.9911c-132.356 -9.2021 -229 -82.309 -229 -212.009c0 -126 102 -195 235 -195c38 0 67 6 104 16zM373 696h-43c0 -13 9 -20 22 -20c12 0 21 8 21 20zM373 696h-43
c0 13 8 18 22 18c12 0 21 -7 21 -18z" />
    <glyph glyph-name="quotedbl" unicode="&#x22;" horiz-adv-x="553" 
d="M405 630v188h-34v-188h34zM184 630v188h-36v-188h36z" />
    <glyph glyph-name="quotedblbase" unicode="&#x201e;" horiz-adv-x="514" 
d="M241 -142l131 182h-47l-121 -182h37zM88 -142l131 182h-48l-120 -182h37z" />
    <glyph glyph-name="quotedblleft" unicode="&#x201c;" horiz-adv-x="428" 
d="M212 859l-131 -182h47l121 182h-37zM367 859l-131 -182h47l121 182h-37z" />
    <glyph glyph-name="quotedblright" unicode="&#x201d;" horiz-adv-x="373" 
d="M200 665l131 182h-48l-120 -182h37zM45 665l131 182h-48l-120 -182h37z" />
    <glyph glyph-name="quoteleft" unicode="&#x2018;" horiz-adv-x="397" 
d="M266 736l-131 -182h47l121 182h-37z" />
    <glyph glyph-name="quoteright" unicode="&#x2019;" horiz-adv-x="393" 
d="M172 540l131 182h-47l-121 -182h37z" />
    <glyph glyph-name="quotesinglbase" unicode="&#x201a;" horiz-adv-x="360" 
d="M88 -142l131 182h-48l-120 -182h37z" />
    <glyph glyph-name="quotesingle" unicode="'" horiz-adv-x="331" 
d="M184 630v188h-36v-188h36z" />
    <glyph glyph-name="r" unicode="r" horiz-adv-x="582" 
d="M256 398.269c71.0037 92.1799 164.807 108.731 277 108.731v31c-112.64 0 -209.851 -19.4883 -277 -99.4412v94.4412h-19h-17h-165v-30h165v-473h-164v-30h164h18h18h153v30h-153v368.269z" />
    <glyph glyph-name="racute" unicode="&#x155;" horiz-adv-x="584" 
d="M220 654c64 54 131 112 195 166h-48c-65 -54 -132 -112 -196 -166h49zM258 398.424c70.1108 92.0432 163.911 108.576 277 108.576v31c-113.389 0 -210.58 -19.4361 -277 -99.12v94.12h-19h-17h-165v-30h165v-473h-164v-30h164h18h18h152v30h-152v368.424z" />
    <glyph glyph-name="radical" unicode="&#x221a;" horiz-adv-x="812" 
d="M435 0c109 241 217 481 326 722h-35c-106.289 -230.771 -209.827 -460.625 -315.004 -691.318c-89.6042 196.312 -27.1763 59.3667 -134.996 289.318h-18h-17h-165v-30h178.821c90.9276 -197.311 28.1453 -59.7827 134.179 -290h8h28h10z" />
    <glyph glyph-name="rcaron" unicode="&#x159;" horiz-adv-x="590" 
d="M59 818c65 -54 131 -113 196 -166h9h40h9c64 53 131 112 195 166h-49c-57.3634 -48.4003 -117.137 -100.014 -175 -149.081c-57.8632 49.0668 -117.637 100.681 -175 149.081h-50zM259 398.269c71.0053 92.18 164.848 108.731 278 108.731v31
c-113.541 0 -210.842 -19.4885 -278 -99.4424v94.4424h-18h-18h-164v-30h164v-473h-164v-30h164h18h18h153v30h-153v368.269z" />
    <glyph glyph-name="rcommaaccent" unicode="&#x157;" horiz-adv-x="582" 
d="M222 -300l131 181h-47l-121 -181h37zM256 398.269c71.0037 92.1799 164.807 108.731 277 108.731v31c-112.64 0 -209.851 -19.4883 -277 -99.4412v94.4412h-19h-17h-165v-30h165v-473h-164v-30h164h18h18h153v30h-153v368.269z" />
    <glyph glyph-name="registered" unicode="&#xae;" horiz-adv-x="959" 
d="M410 293h60c10.8889 0 21.3887 0.426101 31.4036 1.35395c32.357 -48.7847 63.9767 -97.5693 95.5964 -146.354h103v27h-79c-27.8843 41.8264 -56.6325 82.7889 -84.6386 125.296c44.1831 11.705 72.6386 38.9235 72.6386 91.7036c0 69 -55 100 -128 100h-71h-126v-27h94
v-289h-94v-28h93h1h113v27h-82l-4 -3.375l5 4.375v117zM410 465h65c58 0 102 -21 102 -75c0 -56 -44 -70 -103 -70h-64v145zM410 465v27zM105 320c0 -208 165 -323 384 -323c211 0 365 120 365 323c0 205 -157 325 -370 325c-217 0 -379 -118 -379 -325zM137 320
c0 190 147 299 347 299c195 0 339 -112 339 -301c0 -184 -141 -295 -332 -295c-201 0 -354 105 -354 297z" />
    <glyph glyph-name="ring" unicode="&#x2da;" horiz-adv-x="428" 
d="M52 723c0 58 41 91 102 91c66 0 111 -30 111 -91c0 -60 -44 -91 -108 -91c-63 0 -105 31 -105 91zM19 723c0 -78 57 -120 138 -120c83 0 141 41 141 120s-59 119 -144 119c-80 0 -135 -42 -135 -119z" />
    <glyph glyph-name="ruble" horiz-adv-x="797" 
d="M432 325c179 3 291 35 291 197c0 163 -111 200 -292 200h-138h-14h-3h-20h-162v-30h162v-335h-116v-32h116v-111l-116 2.84217e-14v-31h116v-153h-162v-30h162h20h17h165v30h-165v153h325v31h-325v111h139zM293 692h134c160 0 259 -27 259 -171
c0 -141 -99 -164 -258 -164h-135v335z" />
    <glyph glyph-name="rupee" horiz-adv-x="969" 
d="M0 0h969v20h-969v-20z" />
    <glyph glyph-name="s" unicode="s" horiz-adv-x="620" 
d="M130 73.3893v99.6107h-30v-123h2c73 -32 141 -55 218 -55c115 0 198 39 198 145c-1 107 -95 121 -203 151c-84 22 -154 46 -154 122c0 70 59 94 139 94c54.7498 0 115.944 -15.3059 159 -35.7952v-102.205h31v122c-47 25 -123 47 -189 47c-100 0 -173 -33 -173 -125
c0 -96 76 -125 175 -151c93 -27 181 -35 180 -122c0 -84 -67 -114 -157 -114c-70.1541 0 -129.523 19.7727 -196 47.3893z" />
    <glyph glyph-name="sacute" unicode="&#x15b;" horiz-adv-x="620" 
d="M241 655c64 54 131 112 196 166h-49c-65 -54 -132 -112 -196 -166h49zM130 73.3893v99.6107h-30v-123h2c73 -32 141 -55 218 -55c115 0 198 39 198 145c-1 107 -95 121 -203 151c-84 22 -154 46 -154 122c0 70 59 94 139 94c54.7498 0 115.944 -15.3059 159 -35.7952
v-102.205h31v122c-47 25 -123 47 -189 47c-100 0 -173 -33 -173 -125c0 -96 76 -125 175 -151c93 -27 181 -35 180 -122c0 -84 -67 -114 -157 -114c-70.1541 0 -129.523 19.7727 -196 47.3893z" />
    <glyph glyph-name="scaron" unicode="&#x161;" horiz-adv-x="631" 
d="M81 820c64 -54 131 -113 195 -166h9h40h9c65 53 131 112 196 166h-50c-57.3634 -49.2966 -117.137 -100.2 -175 -149.11c-57.8632 48.9098 -117.637 99.8132 -175 149.11h-49zM134 73.3893v99.6107h-30v-123h1c74 -32 142 -55 219 -55c115 0 198 39 198 145
c-1 107 -95 121 -204 151c-83 22 -153 46 -153 122c0 70 59 94 139 94c54.7498 0 115.944 -15.3059 159 -35.7952v-102.205h30v122c-46 25 -122 47 -188 47c-100 0 -173 -33 -173 -125c0 -96 76 -125 175 -151c93 -27 180 -35 180 -122c0 -84 -67 -114 -158 -114
c-69.206 0 -128.526 19.7726 -195 47.3893z" />
    <glyph glyph-name="scedilla" unicode="&#x15f;" horiz-adv-x="620" 
d="M287.584 -57.2048c11.9397 17.8154 24.1531 35.8105 34.416 51.2048l-1.28636 1.0005c114.63 0.161224 197.286 39.2189 197.286 144.999c-1 107 -95 121 -203 151c-84 22 -154 46 -154 122c0 70 59 94 139 94c54.7498 0 115.944 -15.3059 159 -35.7952v-102.205h31v122
c-47 25 -123 47 -189 47c-100 0 -173 -33 -173 -125c0 -96 76 -125 175 -151c93 -27 181 -35 180 -122c0 -84 -67 -114 -157 -114c-70.1541 0 -129.523 19.7727 -196 47.3893v99.6107h-30v-123h2c61.0786 -26.7742 118.657 -47.2479 180.935 -53.2208
c-15.1565 -23.0178 -31.5871 -48.3645 -44.9352 -68.7792l24 -24c18 10 32 12 52 12c36 0 60 -18 60 -53c0 -38 -33 -51 -75 -51c-32 0 -55 3 -83 17l-13 -23c32 -15 58 -22 94 -22c63 0 111 22 111 80c0 52 -37 81 -92 81c-10.2507 0 -19.5019 -0.749661 -28.416 -2.20482z
" />
    <glyph glyph-name="scommaaccent" unicode="&#x219;" horiz-adv-x="620" 
d="M227 -310l131 182h-47l-121 -182h37zM130 73.3893v99.6107h-30v-123h2c74 -32 141 -55 218 -55c116 0 198 39 198 145c-1 107 -95 121 -203 151c-84 22 -154 46 -154 122c0 70 59 94 139 94c54.7498 0 115.944 -15.3059 159 -35.7952v-102.205h31v122
c-47 25 -123 47 -189 47c-100 0 -173 -33 -173 -125c0 -96 76 -125 175 -151c93 -27 181 -35 180 -122c0 -84 -67 -114 -157 -114c-70.1541 0 -129.523 19.7727 -196 47.3893z" />
    <glyph glyph-name="section" unicode="&#xa7;" horiz-adv-x="634" 
d="M123 29c66 -41 120 -58 198 -58c101 0 177 39 177 132c-0.683579 60.155 -35.9459 93.2077 -87.2605 115.768c73.4514 22.9365 122.26 64.8355 122.26 142.232c-1 108 -107 117 -217 146c-72 21 -131 48 -131 117c0 68 54 98 132 98
c57.0638 0 96.8986 -9.84513 147 -31.0216v-102.978h31v120c-61 29 -107 44 -175 44c-99 0 -170 -41 -170 -128c0 -58.7576 32.0739 -93.9609 80.6114 -118.737c-71.3193 -23.3343 -121.611 -62.6162 -121.611 -138.263c0 -102 95 -121 200 -149c79 -24 154 -42 154 -115
c0 -69 -60 -102 -141 -102c-66.7425 0 -112.277 14.1387 -169 44.0774v103.923h-30v-120zM365.041 235.378c-11.0038 3.37829 -22.3915 6.54914 -34.0415 9.62166c-93 27 -186 39 -186 123c0 70.2016 51.2986 100.804 121.452 121.69
c10.1164 -3.78497 20.6643 -7.32159 31.5479 -10.6903c97 -28 199 -30 199 -119c0 -71.1033 -53.9272 -108.951 -131.959 -124.622z" />
    <glyph glyph-name="semicolon" unicode=";" horiz-adv-x="465" 
d="M161 -99c53 71 80 110 132 181h-46c-47 -71 -75 -110 -122 -181h36zM242 423h43c0 12 -9 19 -22 19s-21 -8 -21 -19zM242 423h43c0 -14 -9 -20 -23 -20c-12 0 -20 8 -20 20z" />
    <glyph glyph-name="seven" unicode="7" horiz-adv-x="680" 
d="M630 722h-545v-25v-5v-115h30v115h494.016c-469.882 -671.741 11.8151 18.7239 -484.016 -692h43c480 691 0 0 481 692v30h-19z" />
    <glyph glyph-name="six" unicode="6" horiz-adv-x="729" 
d="M137.407 299.878c28.6299 234.332 234.21 339.222 491.593 406.122l-8 27c-300 -71 -523 -196 -523 -491c0 -161 112 -248 279 -248c146 0 244 73 244 211c0 139 -100 208 -246 208c-105.718 0 -183.661 -39.6794 -237.593 -113.122zM134.076 239.037
c49.6801 94.2762 132.597 140.963 237.924 140.963c126 0 211 -56 211 -176c0 -113 -84 -174 -205 -174c-145.253 0 -240.711 72.2517 -243.924 209.037z" />
    <glyph glyph-name="slash" unicode="/" horiz-adv-x="665" 
d="M98 -62c169 300 337 599 505 899h-36c-168 -300 -336 -599 -505 -899h36z" />
    <glyph glyph-name="softhyphen" horiz-adv-x="629" 
d="M140 260h349v33h-349v-33z" />
    <glyph glyph-name="space" unicode=" " horiz-adv-x="240" 
 />
    <glyph glyph-name="sterling" unicode="&#xa3;" horiz-adv-x="658" 
d="M566 673c-54 34 -97 50 -161 50c-129.122 0 -195.636 -98.5625 -195.636 -233.216c0 -30.9416 3.51204 -63.7889 10.5835 -97.7839h-103.948v-30h110.815c9.16619 -40.8197 13.8327 -80.2962 13.8327 -116.917c0 -123.878 -53.3974 -215.083 -166.648 -215.083v-29h478
v29l-368.411 1.42109e-14c62.8349 40.0432 92.5964 118.303 92.5964 214.187c0 37.0368 -4.44043 76.7033 -13.1304 117.813h232.945v30h-239.693c-6.93651 32.7026 -10.3529 64.3845 -10.3529 94.1496c0 119.327 54.9081 207.85 158.046 207.85c57 0 96 -13 144 -44z" />
    <glyph glyph-name="summation" unicode="&#x2211;" horiz-adv-x="661" 
d="M494 384l-369.417 308h393.417v-90h32v120h-472v-30l369 -309l-371 -353v-30h474v122h-32v-92l-398.334 -7.10543e-15z" />
    <glyph glyph-name="t" unicode="t" horiz-adv-x="529" 
d="M466 55c-40 -18 -70 -29 -113 -29c-79 0 -119 39 -119 121v356h259v30h-259v119l-36 -20v-99h-165v-30h165v-357c0 -100 54 -151 151 -151c51 0 85 13 130 32z" />
    <glyph glyph-name="tcaron" unicode="&#x165;" horiz-adv-x="519" 
d="M364.06 -4.60412c42.9685 2.30992 74.5161 14.5361 114.94 31.6041l-13 28c-28.269 -12.721 -51.5434 -21.9459 -77.9417 -26.2626l23.9417 33.2626h-47l-23.7331 -35.6978c-71.2262 3.76953 -107.267 42.8618 -107.267 120.698v356h259v30h-259v119l-36 -20v-99h-165
v-30h165v-357c0 -90.095 43.8324 -140.416 123.453 -149.501l-77.4527 -116.499h37z" />
    <glyph glyph-name="tcedilla" horiz-adv-x="529" 
d="M295 -97c18 10 32 12 52 12c36 0 60 -18 60 -52c0 -39 -33 -52 -75 -52c-32 0 -55 3 -83 17l-13 -23c32 -15 58 -22 94 -22c63 0 111 22 111 80c0 52 -37 81 -92 81c-10.3049 0 -19.5996 -0.757599 -28.5572 -2.22793c11.9846 17.6966 24.2538 35.7729 34.5572 51.2279
l-2.59651 2.01951c49.1259 0.566175 82.605 13.4063 126.597 31.9805l-13 28c-40 -18 -70 -29 -113 -29c-79 0 -119 39 -119 121v356h259v30h-259v119l-36 -20v-99h-165v-30h165v-357c0 -88.4353 42.2324 -138.549 119.089 -148.957
c-15.1158 -23.1005 -32.5151 -48.4845 -46.0891 -70.0432z" />
    <glyph glyph-name="tcommaaccent" unicode="&#x163;" horiz-adv-x="529" 
d="M265 -311l131 182h-47l-121 -182h37zM466 55c-40 -18 -70 -29 -113 -29c-79 0 -119 39 -119 121v324h259v30h-259v151l-36 -20v-131h-165v-30h165v-325c0 -100 54 -151 151 -151c51 0 85 13 130 32z" />
    <glyph glyph-name="thorn" unicode="&#xfe;" horiz-adv-x="748" 
d="M148 460.203v338.797h-17h-19h-163v-31h163v-1038h-165v-29h165v-1h17h19h152v30h-152v354.507c69.6941 -57.8632 138.998 -89.5069 233 -89.5069c164 0 264 115 263 281c0 158 -102 262 -260 262c-94.2605 0 -179.868 -33.8931 -236 -77.7966zM148 120.246v305.293
c50.2243 44.9082 137.746 82.4603 234 82.4603c140 0 227 -93 227 -233c0.0496128 -2.4641 0.0743379 -4.91535 0.0743379 -7.3535c0 -144.275 -86.577 -242.654 -225.993 -242.654c-0.69249 0 -1.38628 0.00242718 -2.08138 0.00728797
c-94.9795 0 -159.901 35.6937 -233 95.2464z" />
    <glyph glyph-name="three" unicode="3" horiz-adv-x="688" 
d="M128 620c39 40 109 73 185 73c115 0 198 -38 198 -146s-103 -150 -215 -150v-26c129 0 254 -45 254 -175c0 -127 -114 -167 -236 -167c-74 0 -129 17 -197 51c-20 -23 0 0 -20 -24c71 -38 131 -61 216 -61c158 0 272 52 272 203
c0 105.775 -66.9691 164.84 -172.199 187.751c79.7733 23.1453 133.199 74.7411 133.199 163.249c0 126 -96 178 -230 178c-88 0 -166 -39 -211 -89z" />
    <glyph glyph-name="threequarters" unicode="&#xbe;" horiz-adv-x="1215" 
d="M79 366c43 -23 87 -34 135 -34c5.26276 -0.150365 10.4753 -0.227876 15.6291 -0.227876c97.673 0 174.271 27.8391 172.371 115.228c0 67.3572 -46.0901 90.6819 -110.552 99.5408c54.2173 13.0836 91.5516 40.8766 91.5516 100.459c0 80 -68 106 -156 106
c-54 0 -104 -19 -141 -53l20 -19c34 27 73 44 117 44c70 0 126 -18 126 -81c0 -75 -90 -79 -178 -84v-7v-18v-4c103 -4 196 -5 196 -85c0 -68.2105 -59.2355 -86.1607 -136.893 -86.1607c-4.31433 0 -8.68552 0.0554017 -13.1066 0.160665c-42 0 -82 8 -122 27zM389 -88
l505 840h-37l-505 -840h37zM1000 -97h18h157v28h-157v92h118v27h-118v289h-34l-273 -289l16 -27h257v-92h-157v-28h157h16zM984 295.066v-245.066h-231.495z" />
    <glyph glyph-name="threesuperior" unicode="&#xb3;" horiz-adv-x="588" 
d="M137 321c43 -23 86 -34 134 -34c5.31288 -0.150365 10.5705 -0.227876 15.7648 -0.227876c98.4396 0 174.135 27.8391 172.235 115.228c0 67.2608 -45.9583 90.6151 -110.275 99.5027c54.2383 13.0677 91.2749 40.8568 91.2749 100.497c0 80 -68 106 -156 106
c-54 0 -103 -19 -140 -53l19 -19c34 27 73 44 117 44c70 0 126 -18 126 -81c0 -75 -90 -79 -178 -84v-7v-18v-4c103 -4 196 -5 196 -85c0 -68.2105 -59.2355 -86.1607 -136.893 -86.1607c-4.31433 0 -8.68552 0.0554017 -13.1066 0.160665c-42 0 -82 8 -121 27z" />
    <glyph glyph-name="tilde" unicode="&#x2dc;" horiz-adv-x="661" 
d="M433 729c-16 -54 -36 -99 -86 -99c-44 0 -72 16 -104 47c-35 32 -63 54 -111 54c-71 0 -107 -49 -124 -121l27 -9c15 58 42 100 97 100c39 0 62 -19 90 -46c38 -35 72 -56 123 -56c69 0 96 54 117 122c-29 8 -1 0 -29 8z" />
    <glyph glyph-name="trademark" unicode="&#x2122;" horiz-adv-x="1239" 
d="M795 278h22h-22zM917.091 620.009c18.4828 -105.601 36.4629 -211.781 55.007 -318.009h32.9016c-20.306 117.001 -42.4819 234.937 -63.8156 352h104.816v26h-142c-33.2833 -119.64 -98.1502 -361.591 -98.1502 -361.591
c-33.2833 120.693 -66.5666 241.951 -99.8498 361.591h-137v-27h100.01c-19.4085 -116.67 -40.5843 -233.372 -60.8379 -351h-0.172157zM641.491 302c16.7914 104.611 33.6284 208.629 51.0219 312.565zM636 274h1zM312 654h33h145v-71h30v97h-175v1l-1.22222 -1h-219.778
v-97h29v71h159zM345 680h-1.22222l-31.7778 -26v-352h-96v-28h96h126v28h-93v352zM345 302h-33z" />
    <glyph glyph-name="turkishlira" horiz-adv-x="967" 
d="M858 352c0 -214 -126 -322 -344 -322h-219v321h331v32h-331v136h330v32h-330v141h163v30h-163h-16h-3h-18h-161v-30h161v-141h-118v-32h118v-136h-118v-32h118v-321h-161v-30h161h21h16h215c243 0 383 116 383 352h-35z" />
    <glyph glyph-name="two" unicode="2" horiz-adv-x="720" 
d="M131 558c58 86 121 136 223 136c116 0 193 -55 193 -170c0 -136 -95 -208 -197 -282c-90 -71 -180 -142 -269 -212v-30h10h512v30v120h-31v-120h-440.329c83.5384 62.4458 162.063 125.965 241.329 188c110 79 209 159 209 307c0 134 -89 202 -226 202
c-115 0 -195 -56 -252 -152c12.7913 -7.76617 13.8957 -8.43665 13.8957 -8.49453c0 -0.0688239 0 -0.254584 13.1043 -8.50547z" />
    <glyph glyph-name="twosuperior" unicode="&#xb2;" horiz-adv-x="649" 
d="M187 607c34 48 76 73 140 73c71 0 123 -28 123 -93c0 -57 -44 -80 -90 -115c-78 -50 -155 -101 -231 -151v-29h379c-13.0794 12.2075 -14.564 13.9606 -14.564 14.3751c0 0.53628 0 1.15131 -14.436 14.6249c13.0794 -12.2075 14.564 -13.9606 14.564 -14.3751
c0 -0.53628 0 -1.15131 14.436 -14.6249v121h-29v-92h-296.586c67.2718 42.6667 132.766 85.3333 197.586 128c55 42 103 72 103 140c0 82 -65 120 -154 120c-76 0 -129 -24 -168 -86z" />
    <glyph glyph-name="u" unicode="u" horiz-adv-x="810" 
d="M608 159.101c-46.7938 -71.6741 -126.174 -133.101 -213 -133.101c-116 0 -184 52 -184 164v343h-18h-18h-164v-30h164v-315c0 -132 81 -193 216 -193c87.4849 0 165.771 50.9485 217 118.321v-113.321h18h18h152v30h-152v503h-18h-18h-164v-30h164v-343.899z" />
    <glyph glyph-name="uacute" unicode="&#xfa;" horiz-adv-x="810" 
d="M335 655c64 54 131 112 195 166h-49c-65 -54 -131 -113 -196 -166h50zM608 159.101c-46.7938 -71.6741 -126.174 -133.101 -213 -133.101c-116 0 -184 52 -184 164v343h-18h-18h-164v-30h164v-315c0 -132 81 -193 216 -193c87.4849 0 165.771 50.9485 217 118.321
v-113.321h18h18h152v30h-152v503h-18h-18h-164v-30h164v-343.899z" />
    <glyph glyph-name="ucircumflex" unicode="&#xfb;" horiz-adv-x="810" 
d="M619 655c-64 53 -131 112 -196 166h-8h-41h-8c-65 -54 -132 -113 -196 -166h49c57.2915 48.3397 116.987 99.8849 175.5 148.897c58.5129 -49.0117 118.208 -100.557 175.5 -148.897h49zM608 159.101c-46.7938 -71.6741 -126.174 -133.101 -213 -133.101
c-116 0 -184 52 -184 164v343h-18h-18h-164v-30h164v-315c0 -132 81 -193 216 -193c87.4849 0 165.771 50.9485 217 118.321v-113.321h18h18h152v30h-152v503h-18h-18h-164v-30h164v-343.899z" />
    <glyph glyph-name="udieresis" unicode="&#xfc;" horiz-adv-x="810" 
d="M445 668h49c0 -14 -10 -22 -25 -22s-24 8 -24 22zM445 668h49c0 14 -10 23 -25 23c-14 0 -24 -9 -24 -23zM295 668h49c0 -14 -10 -22 -26 -22c-14 0 -23 8 -23 22zM295 668h49c0 14 -10 23 -25 23s-24 -9 -24 -23zM608 159.101
c-46.7938 -71.6741 -126.174 -133.101 -213 -133.101c-116 0 -184 52 -184 164v343h-18h-18h-164v-30h164v-315c0 -132 81 -193 216 -193c87.4849 0 165.771 50.9485 217 118.321v-113.321h18h18h152v30h-152v503h-18h-18h-164v-30h164v-343.899z" />
    <glyph glyph-name="ugrave" unicode="&#xf9;" horiz-adv-x="810" 
d="M486 654c-64 54 -131 112 -196 166h-49c65 -54 132 -112 196 -166h49zM608 159.101c-46.7938 -71.6741 -126.174 -133.101 -213 -133.101c-116 0 -184 52 -184 164v343h-18h-18h-164v-30h164v-315c0 -132 81 -193 216 -193c87.4849 0 165.771 50.9485 217 118.321
v-113.321h18h18h152v30h-152v503h-18h-18h-164v-30h164v-343.899z" />
    <glyph glyph-name="uhungarumlaut" unicode="&#x171;" horiz-adv-x="810" 
d="M454 605l131 182h-47l-121 -182h37zM299 605l131 182h-48l-120 -182h37zM608 159.101c-46.7938 -71.6741 -126.174 -133.101 -213 -133.101c-116 0 -184 52 -184 164v343h-18h-18h-164v-30h164v-315c0 -132 81 -193 216 -193c87.4849 0 165.771 50.9485 217 118.321
v-113.321h18h18h152v30h-152v503h-18h-18h-164v-30h164v-343.899z" />
    <glyph glyph-name="umacron" unicode="&#x16b;" horiz-adv-x="810" 
d="M521 684h-266v-29h266v29zM608 159.101c-46.7938 -71.6741 -126.174 -133.101 -213 -133.101c-116 0 -184 52 -184 164v343h-18h-18h-164v-30h164v-315c0 -132 81 -193 216 -193c87.4849 0 165.771 50.9485 217 118.321v-113.321h18h18h152v30h-152v503h-18h-18h-164v-30
h164v-343.899z" />
    <glyph glyph-name="underscore" unicode="_" horiz-adv-x="810" 
d="M1 -207h808v29h-808v-29z" />
    <glyph glyph-name="uogonek" unicode="&#x173;" horiz-adv-x="810" 
d="M620.488 0h5.51197h18h152v30h-152v503h-18h-18h-164v-30h164v-343.899c-46.7938 -71.6741 -126.174 -133.101 -213 -133.101c-116 0 -184 52 -184 164v343h-18h-18h-164v-30h164v-315c0 -132 81 -193 216 -193c87.4849 0 165.771 50.9485 217 118.321v-91.3174
c-59.2487 -22.7151 -109 -45.2984 -109 -108.004c0 -62 44 -98 109 -98c37 0 62 12 95 29c-15 21 -2 2 -17 23c-26 -14 -46 -22 -75 -22c-47 0 -79 24 -79 68c0 50.3946 41.5217 66.817 88.488 86z" />
    <glyph glyph-name="uring" unicode="&#x16f;" horiz-adv-x="810" 
d="M290 772c0 59 41 91 102 91c66 0 111 -29 111 -91c0 -60 -44 -90 -108 -90c-63 0 -105 31 -105 90zM257 772c0 -77 57 -119 138 -119c83 0 141 40 141 119c0 80 -59 120 -144 120c-80 0 -135 -42 -135 -120zM608 159.101
c-46.7938 -71.6741 -126.174 -133.101 -213 -133.101c-116 0 -184 52 -184 164v343h-18h-18h-164v-30h164v-315c0 -132 81 -193 216 -193c87.4849 0 165.771 50.9485 217 118.321v-113.321h18h18h152v30h-152v503h-18h-18h-164v-30h164v-343.899z" />
    <glyph glyph-name="v" unicode="v" horiz-adv-x="852" 
d="M420.432 32.0041c-71.5919 157.226 -143.184 313.764 -214.776 470.996h156.344v30h-170h-7h-32h-150v-30h163.824c77.3919 -167.897 154.784 -335.003 232.176 -503h6h30h6c81.1671 167.997 162.334 335.103 243.501 503h164.499v30h-150h-32h-5h-172v-30h157.535z" />
    <glyph glyph-name="w" unicode="w" horiz-adv-x="1237" 
d="M861 0h2c70.7852 167.997 141.57 335.103 212.356 503h157.644v30h-145h-37h-1h-176v-30h163.524c-64.3626 -154.733 -128.683 -308.794 -192.302 -463.499c-65.8728 164.701 -132.476 328.671 -198.222 493.499h-6h-30h-7
c-73.2094 -164.953 -147.277 -329.047 -220.613 -493.874c-61.8058 154.831 -123.612 309.016 -185.417 463.874h167.03v30h-179h-1h-36h-146v-30h158.139c67.9538 -167.897 135.908 -335.003 203.861 -503h1h33h1c75.6711 166.29 150.469 331.706 225.21 497.881
c67.2632 -166.175 134.526 -331.592 201.79 -497.881h2h32z" />
    <glyph glyph-name="x" unicode="x" horiz-adv-x="865" 
d="M412.045 278.239c-77.7958 -82.6885 -155.611 -165.367 -233.04 -248.239h-170.004v-30h142h40h6h171v30h-143.182c69.5926 75.0295 139.195 149.901 208.883 224.765c69.0546 -74.8637 138.016 -149.735 206.81 -224.765h-144.51v-30h172h5h40h142v30h-169.817
c-76.7039 82.698 -153.408 165.204 -230.112 247.719c69.8659 75.0356 139.825 150.079 209.953 225.281h170.977v30h-143h-38h-1h-3h-172v-30h143.996c-63.0016 -67.4294 -126.258 -134.731 -189.552 -202.015c-62.5421 67.2833 -125.084 134.585 -187.626 202.015h142.183
v30h-170h-4h-3h-34h-145v-30h172.649c69.167 -75.0282 138.324 -149.898 207.396 -224.761z" />
    <glyph glyph-name="y" unicode="y" horiz-adv-x="857" 
d="M399.869 75.9286c-66.7771 -115.245 -133.632 -230.507 -200.493 -345.929h-165.376v-30h148h32h7c155.208 267.999 310.416 535.068 464.728 803h163.272v30h-146h-36h-3h-174v-30h156.728c-75.8394 -131.68 -151.895 -263.151 -228.061 -394.627
c-68.5974 131.542 -138.59 263.085 -208.681 394.627h162.014v30h-178h-2h-37h-145v-30h161.237c76.6431 -141.925 151.795 -285.341 228.633 -427.071z" />
    <glyph glyph-name="yacute" unicode="&#xfd;" horiz-adv-x="857" 
d="M359 657c64 54 131 112 196 166h-49c-65 -54 -132 -112 -196 -166h49zM399.869 75.9286c-66.7771 -115.245 -133.632 -230.507 -200.493 -345.929h-165.376v-30h148h32h7c155.208 267.999 310.416 535.068 464.728 803h163.272v30h-146h-36h-3h-174v-30h156.728
c-75.8394 -131.68 -151.895 -263.151 -228.061 -394.627c-68.5974 131.542 -138.59 263.085 -208.681 394.627h162.014v30h-178h-2h-37h-145v-30h161.237c76.6431 -141.925 151.795 -285.341 228.633 -427.071z" />
    <glyph glyph-name="ydieresis" unicode="&#xff;" horiz-adv-x="857" 
d="M470 671h49c0 14 -11 22 -26 22c-14 0 -23 -9 -23 -22zM470 671h49c0 -15 -11 -23 -26 -23c-14 0 -23 9 -23 23zM319 671h49c0 14 -10 22 -25 22c-14 0 -24 -9 -24 -22zM319 671h49c0 -15 -10 -23 -25 -23s-24 9 -24 23zM399.869 75.9286
c-66.7771 -115.245 -133.632 -230.507 -200.493 -345.929h-165.376v-30h148h32h7c155.208 267.999 310.416 535.068 464.728 803h163.272v30h-146h-36h-3h-174v-30h156.728c-75.8394 -131.68 -151.895 -263.151 -228.061 -394.627
c-68.5974 131.542 -138.59 263.085 -208.681 394.627h162.014v30h-178h-2h-37h-145v-30h161.237c76.6431 -141.925 151.795 -285.341 228.633 -427.071z" />
    <glyph glyph-name="yen" unicode="&#xa5;" horiz-adv-x="1018" 
d="M501.119 358.669c-6.03634 -7.88615 -12.076 -15.7759 -18.1195 -23.6694v-81h-245v-33h245v-191h-164v-29h164v-1h18h17h165v30h-165v191h250v33h-250v81c2.06283 2.6671 4.12567 5.33376 6.18849 8h243.812v33h-218.265c81.9157 105.756 163.758 210.9 244.961 316
h167.304v30h-181h-1h-179v-30h155.721c-85.4191 -110.839 -170.177 -221.727 -255.602 -333.331zM518 335l-16.8805 23.6694l-237.724 333.331h153.605v30h-175h-4h-1h-34h-148v-30h169.843c76.6328 -105.333 152.651 -210.667 228.598 -316h-215.441v-33h239.233
c1.92249 -2.66667 3.84497 -5.33333 5.76745 -8z" />
    <glyph glyph-name="z" unicode="z" horiz-adv-x="664" 
d="M551 30h-419.562c134.605 151.667 0.11672 0.0862601 423.562 473v30h-453v-15v-15v-105h31v105h375.562c-134.605 -151.667 -0.106081 -0.0862601 -422.562 -473v-30h496v15v15v105h-31v-105z" />
    <glyph glyph-name="zacute" unicode="&#x17a;" horiz-adv-x="664" 
d="M268 655c64 54 131 112 195 166h-48c-65 -54 -132 -112 -196 -166h49zM551 30h-419.562c134.605 151.667 0.11672 0.0862601 423.562 473v30h-453v-15v-15v-105h31v105h375.562c-134.605 -151.667 -0.106081 -0.0862601 -422.562 -473v-30h496v15v15v105h-31v-105z" />
    <glyph glyph-name="zcaron" unicode="&#x17e;" horiz-adv-x="667" 
d="M105 819c64 -53 131 -112 196 -166h8h41h8c65 54 132 113 196 166h-49c-57.2915 -48.3397 -116.987 -99.0835 -175.5 -148.645c-58.5129 49.5611 -118.208 100.305 -175.5 148.645h-49zM104 518v-15v-105h31v105h375.562
c-134.605 -151.667 -0.106081 -0.0862601 -422.562 -473v-30h496v15v15v105h-31v-105h-419.562c134.605 151.667 0.11672 0.0862601 423.562 473v30h-453v-15z" />
    <glyph glyph-name="zdotaccent" unicode="&#x17c;" horiz-adv-x="664" 
d="M302 670h49c0 14 -10 22 -25 22s-24 -9 -24 -22zM302 670h49c0 -15 -10 -23 -25 -23s-24 9 -24 23zM551 30h-419.562c134.605 151.667 0.11672 0.0862601 423.562 473v30h-453v-15v-15v-105h31v105h375.562c-134.605 -151.667 -0.106081 -0.0862601 -422.562 -473v-30
h496v15v15v105h-31v-105z" />
    <glyph glyph-name="zero" unicode="0" horiz-adv-x="891" 
d="M109 360c0 -223 119 -365 339 -365c218 0 332 144 332 368c0 222 -115 364 -332 364c-220 0 -339 -142 -339 -367zM146 360c0 203 102 335 300 335c196 0 299 -132 299 -333c0 -202 -102 -334 -295 -334c-198 0 -304 129 -304 332z" />
    </font>
</defs>
</svg>
