<?xml version="1.0" standalone="no"?>
<!DOCTYPE svg PUBLIC "-//W3C//DTD SVG 1.1//EN" "http://www.w3.org/Graphics/SVG/1.1/DTD/svg11.dtd" >
<svg xmlns="http://www.w3.org/2000/svg" xmlns:xlink="http://www.w3.org/1999/xlink" version="1.1">
<metadata>
Created by FontForge 20141219 at Thu Feb 19 10:37:07 2015
 By Simon Egli
Copyright 2015 Simon Egli
</metadata>
<defs>
<font id="Sean" horiz-adv-x="795" >
  <font-face 
    font-family="Slab"
    font-weight="184"
    font-stretch="extra-condensed"
    units-per-em="1000"
    panose-1="2 0 7 3 0 0 0 0 0 0"
    ascent="800"
    descent="-200"
    x-height="533"
    cap-height="722"
    bbox="-22 -304 1943 1077"
    underline-thickness="0"
    underline-position="0"
    unicode-range="U+0020-FB02"
  />
    <missing-glyph />
    <glyph glyph-name="A" unicode="A" horiz-adv-x="889" 
d="M446.948 629.382c41.3022 -109.944 82.1383 -220.199 123.082 -330.382h-259.507c45.3078 110.183 90.4004 220.438 136.425 330.382zM412 722h-1c-94.7907 -219.659 -192.904 -438.488 -287.526 -658h-136.474v-64h109h57h33h151v64h-123.953
c23.5112 55.9277 46.7553 111.945 69.8833 168h312.018c20.8728 -56.0555 41.8035 -112.072 62.8678 -168l-128.817 5.68434e-14v-64h153h32h55h110v64h-134.771c-85.199 219.512 -172.375 438.341 -256.229 658h-2h-74z" />
    <glyph glyph-name="AE" unicode="&#xc6;" horiz-adv-x="1050" 
d="M606 0h399v32v32v88h-66v-88h-333v277h300v64h-300v253h298v-88h66v88v32v32h-353h-11h-40h-12h-14h-16h-123v-64h99.8199l-363.64 -594h-146.18v-64h107h58h33h149v64h-111.061l82.3989 139h214.662v-139h-123v-64h123h30h12h40zM524 565.117v-294.117h-174.352z" />
    <glyph glyph-name="Aacute" unicode="&#xc1;" horiz-adv-x="888" 
d="M426 817c47 42 123 123 169 166h-101c-47 -42 -122 -124 -169 -166h101zM446.927 629.436c41.3091 -109.962 82.152 -220.235 123.102 -330.436h-259.933c45.3802 110.201 90.7036 220.474 136.831 330.436zM412 722h-2
c-93.8793 -219.659 -191.912 -438.488 -287.284 -658h-135.716v-64h108h58h33h151v64h-124.174c23.3557 55.9277 46.5381 111.945 69.6605 168h312.462c20.8728 -56.0555 41.8035 -112.072 62.8678 -168h-128.817v-64h153h31h55h111v64h-135.529
c-84.4418 219.512 -171.618 438.341 -255.471 658h-2h-74z" />
    <glyph glyph-name="Abreve" unicode="&#x102;" horiz-adv-x="888" 
d="M537 952c0 -51 -35 -74 -88 -74s-87 24 -87 75h-79c0 -94 65 -139 162 -139c102 0 171 43 171 138h-79zM446.927 629.436c41.3091 -109.962 82.152 -220.235 123.102 -330.436h-259.933c45.3802 110.201 90.7036 220.474 136.831 330.436zM412 722h-2
c-93.8793 -219.659 -191.912 -438.488 -287.284 -658h-135.716v-64h108h58h33h151v64h-124.174c23.3557 55.9277 46.5381 111.945 69.6605 168h312.462c20.8728 -56.0555 41.8035 -112.072 62.8678 -168h-128.817v-64h153h31h55h111v64h-135.529
c-84.4418 219.512 -171.618 438.341 -255.471 658h-2h-74z" />
    <glyph glyph-name="Acircumflex" unicode="&#xc2;" horiz-adv-x="888" 
d="M677 825c-47 42 -123 123 -170 166h-16h-85h-16c-47 -43 -123 -124 -169 -166h101c34.4698 30.8028 84 82.5826 126.5 124.965c42.5 -42.3823 92.0302 -94.1621 126.5 -124.965h102zM446.927 629.436c41.3091 -109.962 82.152 -220.235 123.102 -330.436h-259.933
c45.3802 110.201 90.7036 220.474 136.831 330.436zM412 722h-2c-93.8793 -219.659 -191.912 -438.488 -287.284 -658h-135.716v-64h108h58h33h151v64h-124.174c23.3557 55.9277 46.5381 111.945 69.6605 168h312.462c20.8728 -56.0555 41.8035 -112.072 62.8678 -168
h-128.817v-64h153h31h55h111v64h-135.529c-84.4418 219.512 -171.618 438.341 -255.471 658h-2h-74z" />
    <glyph glyph-name="Adieresis" unicode="&#xc4;" horiz-adv-x="888" 
d="M483 848h100c0 28 -22 43 -51 43c-30 0 -49 -16 -49 -43zM483 848h100c0 -29 -21 -42 -52 -42c-29 0 -48 14 -48 42zM315 848h100c0 28 -21 43 -51 43s-49 -16 -49 -43zM315 848h100c0 -29 -21 -42 -51 -42s-49 14 -49 42zM446.927 629.436
c41.3091 -109.962 82.152 -220.235 123.102 -330.436h-259.933c45.3802 110.201 90.7036 220.474 136.831 330.436zM412 722h-2c-93.8793 -219.659 -191.912 -438.488 -287.284 -658h-135.716v-64h108h58h33h151v64h-124.174c23.3557 55.9277 46.5381 111.945 69.6605 168
h312.462c20.8728 -56.0555 41.8035 -112.072 62.8678 -168h-128.817v-64h153h31h55h111v64h-135.529c-84.4418 219.512 -171.618 438.341 -255.471 658h-2h-74z" />
    <glyph glyph-name="Agrave" unicode="&#xc0;" horiz-adv-x="888" 
d="M569 817c-47 42 -122 123 -169 166h-101c47 -43 122 -124 169 -166h101zM446.927 629.436c41.3091 -109.962 82.152 -220.235 123.102 -330.436h-259.933c45.3802 110.201 90.7036 220.474 136.831 330.436zM412 722h-2
c-93.8793 -219.659 -191.912 -438.488 -287.284 -658h-135.716v-64h108h58h33h151v64h-124.174c23.3557 55.9277 46.5381 111.945 69.6605 168h312.462c20.8728 -56.0555 41.8035 -112.072 62.8678 -168h-128.817v-64h153h31h55h111v64h-135.529
c-84.4418 219.512 -171.618 438.341 -255.471 658h-2h-74z" />
    <glyph glyph-name="Amacron" unicode="&#x100;" horiz-adv-x="888" 
d="M560 882h-231v-64h231v64zM446.927 629.436c41.3091 -109.962 82.152 -220.235 123.102 -330.436h-259.933c45.3802 110.201 90.7036 220.474 136.831 330.436zM412 722h-2c-93.8793 -219.659 -191.912 -438.488 -287.284 -658h-135.716v-64h108h58h33h151v64h-124.174
c23.3557 55.9277 46.5381 111.945 69.6605 168h312.462c20.8728 -56.0555 41.8035 -112.072 62.8678 -168h-128.817v-64h153h31h55h111v64h-135.529c-84.4418 219.512 -171.618 438.341 -255.471 658h-2h-74z" />
    <glyph glyph-name="Aogonek" unicode="&#x104;" horiz-adv-x="889" 
d="M446.948 629.382c41.3022 -109.944 82.1383 -220.199 123.082 -330.382h-259.507c45.3078 110.183 90.4004 220.438 136.425 330.382zM412 722h-1c-94.7907 -219.659 -192.904 -438.488 -287.526 -658h-136.474v-64h109h57h33h151v64h-123.953
c23.5112 55.9277 46.7553 111.945 69.8833 168h312.018c20.8728 -56.0555 41.8035 -112.072 62.8678 -168l-128.817 5.68434e-14v-64l108.914 3.55271e-15c-22.5869 -18.0722 -36.9141 -41.3052 -36.9141 -76c0 -69 46 -111 117 -111c38 0 64 13 96 31c-36 48 -2 3 -38 50
c-18 -10 -32 -18 -52 -18c-30 0 -50 19 -50 49c0 42.5169 40.1501 56.0884 80.7512 75h14.2488h110v64h-134.771c-85.199 219.512 -172.375 438.341 -256.229 658h-2h-74z" />
    <glyph glyph-name="Aring" unicode="&#xc5;" horiz-adv-x="888" 
d="M377 946c0 44 24 72 69 72c48 0 76 -25 76 -72c0 -45 -27 -71 -74 -71c-45 0 -71 26 -71 71zM304 946c0 -84 58 -131 144 -131c88 0 147 46 147 131s-60 131 -149 131c-86 0 -142 -47 -142 -131zM446.927 629.436c41.3091 -109.962 82.152 -220.235 123.102 -330.436
h-259.933c45.3802 110.201 90.7036 220.474 136.831 330.436zM412 722h-2c-93.8793 -219.659 -191.912 -438.488 -287.284 -658h-135.716v-64h108h58h33h151v64h-124.174c23.3557 55.9277 46.5381 111.945 69.6605 168h312.462
c20.8728 -56.0555 41.8035 -112.072 62.8678 -168h-128.817v-64h153h31h55h111v64h-135.529c-84.4418 219.512 -171.618 438.341 -255.471 658h-2h-74z" />
    <glyph glyph-name="Atilde" unicode="&#xc3;" horiz-adv-x="888" 
d="M610 969c-14 -45 -30 -84 -68 -84c-35 0 -55 15 -81 40c-32 31 -59 48 -103 48c-75 0 -111 -51 -130 -125c56 -25 0 -1 56 -25c15 48 33 86 76 86c32 0 49 -18 71 -40c34 -33 64 -51 111 -51c75 0 104 57 125 125c-57 25 0 0 -57 26zM446.927 629.436
c41.3091 -109.962 82.152 -220.235 123.102 -330.436h-259.933c45.3802 110.201 90.7036 220.474 136.831 330.436zM412 722h-2c-93.8793 -219.659 -191.912 -438.488 -287.284 -658h-135.716v-64h108h58h33h151v64h-124.174c23.3557 55.9277 46.5381 111.945 69.6605 168
h312.462c20.8728 -56.0555 41.8035 -112.072 62.8678 -168h-128.817v-64h153h31h55h111v64h-135.529c-84.4418 219.512 -171.618 438.341 -255.471 658h-2h-74z" />
    <glyph glyph-name="B" unicode="B" horiz-adv-x="710" 
d="M246 64v311h99h38c111 0 188 -52 188 -161c0 -100 -66 -150 -170 -150h-155zM246 0h155c152 0 253 70 253 214c0 100.121 -56.5936 162.136 -136.873 195.082c52.2866 25.9344 88.8727 68.526 88.8727 133.918c0 118 -82 179 -205 179h-155h-42h-11h-33h-122v-64h122
v-594h-123v-64h123h33h10h43zM246 439v219h155c74 0 122 -40 122 -115c0 -74 -63 -104 -140 -104h-37h-100z" />
    <glyph glyph-name="C" unicode="C" horiz-adv-x="723" 
d="M666 655c-73 41 -153 72 -245 72c-233 0 -361 -145 -361 -383c0 -218 121 -349 336 -349c121 0 198 33 284 100c-44 50 -1 0 -45 50c-74 -56 -138 -82 -235 -82c-170 0 -257 110 -257 284c0 190 92 313 274 313c67.2671 0 128.267 -17.2346 183 -44.7701v-92.2299h66v132
z" />
    <glyph glyph-name="Cacute" unicode="&#x106;" horiz-adv-x="723" 
d="M394 817c47 42 123 123 169 166h-101c-47 -43 -122 -124 -169 -166h101zM666 655c-73 41 -153 72 -245 72c-233 0 -361 -145 -361 -383c0 -218 121 -349 336 -349c121 0 198 33 284 100c-44 50 -1 0 -45 50c-74 -56 -138 -82 -235 -82c-170 0 -257 110 -257 284
c0 190 92 313 274 313c67.2671 0 128.267 -17.2346 183 -44.7701v-92.2299h66v132z" />
    <glyph glyph-name="Ccaron" unicode="&#x10c;" horiz-adv-x="724" 
d="M188 984c47 -43 122 -124 169 -166h17h85h16c47 42 122 123 169 166h-101c-34.4328 -31.5023 -84.4305 -83.4001 -126.794 -125.416c-42.7041 42.0161 -92.506 93.9139 -126.206 125.416h-102zM666 655c-73 41 -153 72 -245 72c-233 0 -361 -145 -361 -383
c0 -218 121 -349 336 -349c121 0 198 33 284 100c-44 50 -1 0 -45 50c-74 -56 -138 -82 -235 -82c-170 0 -257 110 -257 284c0 190 92 313 274 313c67.2671 0 128.267 -17.2346 183 -44.7701v-92.2299h66v132z" />
    <glyph glyph-name="Ccedilla" unicode="&#xc7;" horiz-adv-x="723" 
d="M390.127 -37.4522c7.44639 11.7723 14.5781 23.0913 20.4644 32.6171c112.705 2.58405 186.917 35.5683 269.409 99.8352c-44 50 -1 0 -45 50c-74 -56 -138 -82 -235 -82c-170 0 -257 110 -257 284c0 190 92 313 274 313c67.2671 0 128.267 -17.2346 183 -44.7701
v-92.2299h66v132c-73 41 -153 72 -245 72c-233 0 -361 -145 -361 -383c0 -192.223 94.0771 -316.804 263.721 -343.578c-13.1511 -22.0397 -26.4976 -44.5227 -33.7212 -57.4219l56 -51c11 7 19 10 32 10c22 0 35 -13 35 -35c0 -26 -21 -36 -49 -36c-25 0 -44 5 -69 18
l-29 -50c31 -16 56 -25 91 -25c72 0 124 28 124 94c0 56.9289 -35.7099 90.3414 -90.8729 94.5478z" />
    <glyph glyph-name="D" unicode="D" horiz-adv-x="818" 
d="M244 722h-40h-43h-122v-64h122v-594h-122v-64h122h43h40h157c234 0 360 122 360 353c0 241 -129 369 -369 369h-148zM244 658h144c194 0 291 -111 291 -307c0 -184 -90 -287 -271 -287h-164v594z" />
    <glyph glyph-name="Dcaron" unicode="&#x10e;" horiz-adv-x="818" 
d="M145 983c47 -42 122 -124 169 -166h16h85h16c48 42 123 124 170 166h-102c-33.7002 -30.7697 -83.502 -82.4716 -126.206 -124.829c-42.3633 42.3569 -92.361 94.0588 -126.794 124.829h-101zM244 722h-40h-43h-122v-64h122v-594h-122v-64h122h43h40h157
c234 0 360 122 360 353c0 241 -129 369 -369 369h-148zM244 658h144c194 0 291 -111 291 -307c0 -184 -90 -287 -271 -287h-164v594z" />
    <glyph glyph-name="Dcroat" unicode="&#x110;" horiz-adv-x="818" 
d="M244 722h-40h-43h-122v-64h122v-264h-70v-70h70v-260h-122v-64h122h43h40h157c233 0 360 122 360 353c0 241 -129 369 -370 369h-147zM244 658h143c195 0 292 -111 292 -307c0 -184 -90 -287 -271 -287h-164v260h179v70h-179v264z" />
    <glyph glyph-name="E" unicode="E" horiz-adv-x="688" 
d="M244 0h398v32v32v88h-66v-88h-332v277h299v64h-299v253h298v-88h66v88v32v32h-364h-40h-13h-30h-123v-64h123v-594h-123v-64h123h30h13h40z" />
    <glyph glyph-name="Eacute" unicode="&#xc9;" horiz-adv-x="688" 
d="M342 816c47 43 123 123 170 166h-102c-47 -42 -122 -124 -169 -166h101zM244 0h398v32v32v88h-66v-88h-332v277h299v64h-299v253h298v-88h66v88v32v32h-364h-40h-13h-30h-123v-64h123v-594h-123v-64h123h30h13h40z" />
    <glyph glyph-name="Ecaron" unicode="&#x11a;" horiz-adv-x="688" 
d="M136 983c47 -42 122 -124 170 -166h16h85h16c47 42 122 124 169 166h-101c-34.4698 -30.8028 -84 -82.5826 -126.5 -124.965c-42.5 42.3823 -92.0302 94.1621 -126.5 124.965h-102zM244 0h398v32v32v88h-66v-88h-332v277h299v64h-299v253h298v-88h66v88v32v32h-364h-40
h-13h-30h-123v-64h123v-594h-123v-64h123h30h13h40z" />
    <glyph glyph-name="Ecircumflex" unicode="&#xca;" horiz-adv-x="688" 
d="M593 824c-47 42 -122 123 -170 166h-16h-85h-16c-47 -43 -122 -124 -169 -166h101c34.4698 30.8028 84 82.5826 126.5 124.965c42.5 -42.3823 92.0302 -94.1621 126.5 -124.965h102zM244 0h398v32v32v88h-66v-88h-332v277h299v64h-299v253h298v-88h66v88v32v32h-364h-40
h-13h-30h-123v-64h123v-594h-123v-64h123h30h13h40z" />
    <glyph glyph-name="Edieresis" unicode="&#xcb;" horiz-adv-x="688" 
d="M399 847h100c0 29 -22 43 -51 43c-30 0 -49 -16 -49 -43zM399 847h100c0 -29 -21 -42 -51 -42s-49 15 -49 42zM231 847h100c0 -29 -21 -42 -51 -42s-49 15 -49 42zM231 847h100c0 29 -21 43 -51 43s-49 -16 -49 -43zM244 0h398v32v32v88h-66v-88h-332v277h299v64h-299
v253h298v-88h66v88v32v32h-364h-40h-13h-30h-123v-64h123v-594h-123v-64h123h30h13h40z" />
    <glyph glyph-name="Edotaccent" unicode="&#x116;" horiz-adv-x="688" 
d="M315 847h100c0 -28 -21 -42 -51 -42s-49 15 -49 42zM315 847h100c0 29 -21 43 -51 43c-29 0 -49 -16 -49 -43zM244 0h398v32v32v88h-66v-88h-332v277h299v64h-299v253h298v-88h66v88v32v32h-364h-40h-13h-30h-123v-64h123v-594h-123v-64h123h30h13h40z" />
    <glyph glyph-name="Egrave" unicode="&#xc8;" horiz-adv-x="688" 
d="M485 816c-47 42 -122 123 -169 166h-101c46 -43 122 -124 169 -166h101zM244 0h398v32v32v88h-66v-88h-332v277h299v64h-299v253h298v-88h66v88v32v32h-364h-40h-13h-30h-123v-64h123v-594h-123v-64h123h30h13h40z" />
    <glyph glyph-name="Emacron" unicode="&#x112;" horiz-adv-x="688" 
d="M476 881h-231v-64h231v64zM244 0h398v32v32v88h-66v-88h-332v277h299v64h-299v253h298v-88h66v88v32v32h-364h-40h-13h-30h-123v-64h123v-594h-123v-64h123h30h13h40z" />
    <glyph glyph-name="Eogonek" unicode="&#x118;" horiz-adv-x="699" 
d="M495.161 -3.55271e-15c-17.4925 -17.1157 -28.161 -38.8085 -28.161 -69c0 -69 46 -110 116 -110c38 0 64 12 97 31c-36 47 -3 2 -39 49c-18 -10 -31 -18 -52 -18c-30 0 -49 19 -49 49c0 37.1307 29.9095 52.1853 65.0896 68h36.9104v32v32v88h-66v-88h-332v277h299v64
h-299v253h298v-88h66v88v32v32h-364h-40h-13h-30h-123v-64h123v-594h-123v-64h123h30h13h40z" />
    <glyph glyph-name="Eth" unicode="&#xd0;" horiz-adv-x="818" 
d="M244 722h-40h-43h-122v-64h122v-264h-69v-70h69v-260h-122v-64h122h43h40h157c234 0 360 122 360 353c0 241 -129 369 -369 369h-148zM244 658h144c194 0 291 -111 291 -307c0 -184 -90 -287 -271 -287h-164v260h180v70h-180v264z" />
    <glyph glyph-name="Euro" unicode="&#x20ac;" horiz-adv-x="804" 
d="M733 655c-74 41 -154 72 -246 72c-189.161 0 -309.848 -96.3954 -347.969 -261h-90.0313v-68h79.3449c-1.55912 -17.4171 -2.34486 -35.4253 -2.34486 -54c0 -16.1501 0.664085 -31.8227 1.98168 -47h-77.9817v-68h89.0402c36.604 -148.23 149.182 -234 323.96 -234
c120 0 197 33 283 100l-44 50c-75 -56 -139 -82 -236 -82c-126.661 0 -207.824 61.7885 -240.541 166h256.541v68h-270.392c-1.73607 16.0026 -2.60755 32.6844 -2.60755 50c0 17.589 0.796999 34.6038 2.38703 51h270.613v68h-258.515
c32.5707 120.756 119.841 194 259.515 194c67.6771 0 129.01 -17.4453 184 -45.2746v-91.7254h66v132z" />
    <glyph glyph-name="F" unicode="F" horiz-adv-x="660" 
d="M245 658h302v-88h66v88v32v32h-368h-41h-12h-30h-124v-64h124v-594h-124v-64h124h42h41h124v64h-124v277h293v64h-293v253z" />
    <glyph glyph-name="G" unicode="G" horiz-adv-x="802" 
d="M664 110.304c-72.3212 -33.0517 -139.659 -47.3037 -228 -47.3037c-191 0 -295 112 -295 306c0 183 102 291 284 291c87.6765 0 157.379 -17.974 232 -57.6145v-87.3855h65v129c-97 57 -185 83 -298 83c-231 0 -366 -132 -366 -365c0 -237 141 -367 378 -367
c121 0 198 27 304 83v265h-24h-52h-173v-64h173v-168.696z" />
    <glyph glyph-name="Gbreve" unicode="&#x11e;" horiz-adv-x="802" 
d="M510 951c0 -51 -36 -74 -89 -74c-52 0 -86 24 -86 75h-79c0 -94 64 -139 161 -139c102 0 171 43 171 138h-78zM664 110.304c-72.3212 -33.0517 -139.659 -47.3037 -228 -47.3037c-191 0 -295 112 -295 306c0 183 102 291 284 291c87.6765 0 157.379 -17.974 232 -57.6145
v-87.3855h65v129c-97 57 -185 83 -298 83c-231 0 -366 -132 -366 -365c0 -237 141 -367 378 -367c121 0 198 27 304 83v265h-24h-52h-173v-64h173v-168.696z" />
    <glyph glyph-name="Gcommaaccent" unicode="&#x122;" horiz-adv-x="802" 
d="M395 -292l121 198h-104l-98 -198h81zM664 110.304c-72.3212 -33.0517 -139.659 -47.3037 -228 -47.3037c-191 0 -295 112 -295 306c0 183 102 291 284 291c87.6765 0 157.379 -17.974 232 -57.6145v-87.3855h65v129c-97 57 -185 83 -298 83c-231 0 -366 -132 -366 -365
c0 -237 141 -367 378 -367c121 0 198 27 304 83v265h-24h-52h-173v-64h173v-168.696z" />
    <glyph glyph-name="H" unicode="H" horiz-adv-x="925" 
d="M680 331v-267h-123v-64h165h166v64h-125v594h125v64h-166h-165v-64h123v-263h-435v263h124v64h-124h-41h-42h-124v-64h124v-594h-124v-64h124h42h41h124v64h-124v267h435z" />
    <glyph glyph-name="I" unicode="I" horiz-adv-x="407" 
d="M161 0h43h40h126v64h-126v594h126v64h-126h-40h-43h-123v-64h123v-594h-123v-64h123z" />
    <glyph glyph-name="Iacute" unicode="&#xcd;" horiz-adv-x="421" 
d="M185 817c46 42 122 123 169 166h-102c-47 -43 -122 -124 -169 -166h102zM164 0h42h40h126v64h-126v594h126v64h-126h-40h-42h-124v-64h124v-594h-124v-64h124z" />
    <glyph glyph-name="Icircumflex" unicode="&#xce;" horiz-adv-x="529" 
d="M494 824c-46 43 -122 124 -169 166h-16h-85h-16c-47 -42 -123 -123 -169 -166h101c34.4698 31.5362 84 83.5115 126.5 125.551c42.5 -42.0399 92.0302 -94.0153 126.5 -125.551h101zM223 0h43h40h126v64h-126v594h126v64h-126h-40h-43h-123v-64h123v-594h-123v-64h123z
" />
    <glyph glyph-name="Idieresis" unicode="&#xcf;" horiz-adv-x="438" 
d="M253 848h101c0 28 -22 42 -52 42c-29 0 -49 -15 -49 -42zM253 848h101c0 -29 -22 -43 -52 -43c-29 0 -49 15 -49 43zM85 848h101c0 28 -22 42 -51 42c-30 0 -50 -15 -50 -42zM85 848h101c0 -29 -22 -43 -52 -43c-29 0 -49 15 -49 43zM176 0h43h40h125v64h-125v594h125v64
h-125h-40h-43h-123v-64h123v-594h-123v-64h123z" />
    <glyph glyph-name="Idotaccent" unicode="&#x130;" horiz-adv-x="407" 
d="M155 848h100c0 28 -21 43 -51 43s-49 -16 -49 -43zM155 848h100c0 -29 -21 -42 -51 -42s-49 14 -49 42zM161 0h43h40h126v64h-126v594h126v64h-126h-40h-43h-123v-64h123v-594h-123v-64h123z" />
    <glyph glyph-name="Igrave" unicode="&#xcc;" horiz-adv-x="416" 
d="M330 816c-47 43 -122 124 -169 166h-102c47 -42 123 -123 169 -166h102zM166 0h43h40h126v64h-126v594h126v64h-126h-40h-43h-123v-64h123v-594h-123v-64h123z" />
    <glyph glyph-name="Imacron" unicode="&#x12a;" horiz-adv-x="407" 
d="M316 882h-231v-64h231v64zM161 0h43h40h126v64h-126v594h126v64h-126h-40h-43h-123v-64h123v-594h-123v-64h123z" />
    <glyph glyph-name="Iogonek" unicode="&#x12e;" horiz-adv-x="407" 
d="M111.95 -3.55271e-15c-14.9616 -16.23 -23.9499 -36.5197 -23.9499 -64c0 -69 46 -110 117 -110c38 0 64 12 96 31c-36 47 -2 2 -38 49c-18 -10 -32 -18 -52 -18c-30 0 -50 19 -50 49c0 33.2187 24.5091 48.768 54.5934 63l28.4066 -3.55271e-15h126v64h-126v594h126v64
h-126h-40h-43h-123v-64h123v-594h-123v-64z" />
    <glyph glyph-name="J" unicode="J" horiz-adv-x="535" 
d="M31 43c33 -23 79 -46 136 -46c143 0 217 82 217 233v428h125v64h-125h-40h-1h-42h-123v-64h123v-428c0 -101 -39 -169 -134 -169c-40 0 -67 15 -98 32c-36 -47 -2 -3 -38 -50z" />
    <glyph glyph-name="K" unicode="K" horiz-adv-x="800" 
d="M245 315.475c95.6289 -83.6339 190.97 -167.844 286.6 -251.475h-96.6v-64h170h27h3h86h67v64h-142.449c-124.052 105.409 -246.61 210.358 -370.551 316c118.494 96.5806 227.107 186.574 339.205 278h148.795v64h-70h-86h-25h-165v-64h88.0877l-260.088 -216.423
v216.423h105v64h-105h-41h-42h-124v-64h124v-594h-124v-64h124h42h41h111v64h-111v251.475z" />
    <glyph glyph-name="Kcommaaccent" unicode="&#x136;" horiz-adv-x="800" 
d="M384 -286l120 197h-104l-98 -197h82zM245 315.475c95.6289 -83.6339 190.97 -167.844 286.6 -251.475h-96.6v-64h170h27h3h86h67v64h-142.449c-124.052 105.409 -246.61 210.358 -370.551 316c118.494 96.5806 227.107 186.574 339.205 278h148.795v64h-70h-86h-25h-165
v-64h88.0877l-260.088 -216.423v216.423h105v64h-105h-41h-42h-124v-64h124v-594h-124v-64h124h42h41h111v64h-111v251.475z" />
    <glyph glyph-name="L" unicode="L" horiz-adv-x="674" 
d="M246 0h390v32v32v88h-66v-88h-324v594h123v64h-123h-43h-40h-125l-1 -64h126v-594h-125l-1 -64h126h40h43z" />
    <glyph glyph-name="Lacute" unicode="&#x139;" horiz-adv-x="677" 
d="M183 816c47 42 122 123 169 166h-101c-48 -43 -123 -124 -170 -166h102zM249 0h390v32v32v88h-66v-88h-324v594h123v64h-123h-43h-40h-125v-64h125v-594h-125v-64h125h40h43z" />
    <glyph glyph-name="Lcaron" unicode="&#x13d;" horiz-adv-x="686" 
d="M528 524l120 198h-104l-98 -198h82zM246 0h390v32v32v88h-66v-88h-324v594h123v64h-123h-43h-40h-125l-1 -64h126v-594h-125l-1 -64h126h40h43z" />
    <glyph glyph-name="Lcommaaccent" unicode="&#x13b;" horiz-adv-x="674" 
d="M331 -286l120 197h-104l-97 -197h81zM246 0h390v32v32v88h-66v-88h-324v594h123v64h-123h-43h-40h-125l-1 -64h126v-594h-125l-1 -64h126h40h43z" />
    <glyph glyph-name="Lslash" unicode="&#x141;" horiz-adv-x="673" 
d="M245 0h390v32v32v88h-65v-88h-325v270.64c46.8181 39.2026 93.5193 78.3917 140 117.36v72c-46.4807 -38.9687 -93.1819 -78.1578 -140 -117.36v251.36h123v64h-123h-42h-41h-125v-64h125v-320.746c-25.3225 -21.127 -50.6612 -42.2224 -76 -63.2536v-72
c25.3388 21.0312 50.6775 42.1265 76 63.2536v-201.254h-125v-64h125h41h42z" />
    <glyph glyph-name="M" unicode="M" horiz-adv-x="1085" 
d="M507 0h71h9c74.2586 190.386 148.517 380.149 222.776 570.273c13.7991 -168.813 26.4569 -337.341 40.7341 -506.273h-122.51v-64h128h38h45h120v64h-125.866c-18.2301 198.186 -36.9576 395.814 -54.5106 594h120.376v64h-126h-4h-35h-37h-5
c-83.2289 -211.139 -166.458 -421.51 -249.687 -632.458c-84.1185 210.948 -168.332 421.32 -253.313 632.458h-3h-35h-39h-2h-125v-64h119.687c-16.458 -198.186 -32.9159 -395.814 -49.3739 -594h-128.313v-64h123h43h35h130v64h-124.71
c13.8217 167.861 27.2007 335.322 40.4755 503.061c75.4114 -189.049 150.823 -377.747 226.234 -567.061h7z" />
    <glyph glyph-name="N" unicode="N" horiz-adv-x="949" 
d="M721 0h81h1v658h121v64h-121h-40h-4h-38h-123v-64h123v-551.309c-155.766 205.202 -311.02 409.892 -467 615.309h-9h-40h-43h-4h-119v-64h123v-594h-123l-1 -64h124h42h41h125v64h-125v542.96c153.27 -202.406 307.135 -404.329 461 -606.96h15z" />
    <glyph glyph-name="Nacute" unicode="&#x143;" horiz-adv-x="949" 
d="M457 817c47 42 123 123 169 166h-101c-47 -43 -122 -124 -169 -166h101zM721 0h81h1v658h121v64h-121h-40h-4h-38h-123v-64h123v-551.309c-155.766 205.202 -311.02 409.892 -467 615.309h-9h-40h-43h-4h-119v-64h123v-594h-123l-1 -64h124h42h41h125v64h-125v542.96
c153.27 -202.406 307.135 -404.329 461 -606.96h15z" />
    <glyph glyph-name="Ncaron" unicode="&#x147;" horiz-adv-x="949" 
d="M251 984c47 -43 122 -124 169 -166h16h86h16c47 42 122 123 169 166h-101c-34.38 -31.454 -84.2772 -83.241 -126.99 -125.223c-42.6603 41.9819 -92.3612 93.7688 -126.01 125.223h-102zM721 0h81h1v658h121v64h-121h-40h-4h-38h-123v-64h123v-551.309
c-155.766 205.202 -311.02 409.892 -467 615.309h-9h-40h-43h-4h-119v-64h123v-594h-123l-1 -64h124h42h41h125v64h-125v542.96c153.27 -202.406 307.135 -404.329 461 -606.96h15z" />
    <glyph glyph-name="Ncommaaccent" unicode="&#x145;" horiz-adv-x="949" 
d="M448 -288l121 197h-104l-98 -197h81zM721 0h81h1v658h121v64h-121h-40h-4h-38h-123v-64h123v-551.309c-155.766 205.202 -311.02 409.892 -467 615.309h-9h-40h-43h-4h-119v-64h123v-594h-123l-1 -64h124h42h41h125v64h-125v542.96
c153.27 -202.406 307.135 -404.329 461 -606.96h15z" />
    <glyph glyph-name="Ntilde" unicode="&#xd1;" horiz-adv-x="949" 
d="M641 968c-15 -45 -30 -84 -68 -84c-35 0 -55 16 -81 41c-32 30 -59 48 -103 48c-75 0 -111 -52 -130 -126l56 -25c15 49 33 87 76 87c32 0 49 -18 71 -40c34 -33 64 -51 111 -51c75 0 104 57 125 125zM721 0h81h1v658h121v64h-121h-40h-4h-38h-123v-64h123v-551.309
c-155.766 205.202 -311.02 409.892 -467 615.309h-9h-40h-43h-4h-119v-64h123v-594h-123l-1 -64h124h42h41h125v64h-125v542.96c153.27 -202.406 307.135 -404.329 461 -606.96h15z" />
    <glyph glyph-name="O" unicode="O" 
d="M60 360c0 -220 122 -365 337 -365c216 0 338 147 338 368c0 218 -120 364 -335 364c-217 0 -340 -146 -340 -367zM143 360c0 175 82 300 250 300c171 0 260 -121 260 -297c0 -175 -84 -301 -253 -301c-171 0 -257 122 -257 298z" />
    <glyph glyph-name="OE" unicode="&#x152;" horiz-adv-x="1066" 
d="M622 0h398v32v32v88h-65v-88h-333v277h299v64h-299v253h298v-88h66v88v32v32h-364h-40h-13h-30h-64.8152c-17.3081 2.01026 -35.2825 3 -54.1848 3c-232 0 -361 -145 -361 -381c0 -217 122 -347 336 -347c22.4746 0 43.1023 0.951451 62.4392 3l81.5608 -2.22045e-16h30
h13h40zM539 639.37v-549.254c-43.6683 -19.182 -85.3067 -25.116 -140 -25.116c-166 0 -257 109 -257 282c0 189 94 310 274 310c46.1275 0 84.8214 -4.00275 123 -17.6295z" />
    <glyph glyph-name="Oacute" unicode="&#xd3;" 
d="M376 817c47 42 122 123 169 166h-101c-47 -43 -123 -124 -170 -166h102zM60 360c0 -220 122 -365 337 -365c216 0 338 147 338 368c0 218 -120 364 -335 364c-217 0 -340 -146 -340 -367zM143 360c0 175 82 300 250 300c171 0 260 -121 260 -297
c0 -175 -84 -301 -253 -301c-171 0 -257 122 -257 298z" />
    <glyph glyph-name="Ocircumflex" unicode="&#xd4;" 
d="M626 824c-47 43 -122 124 -169 166h-16h-86h-16c-47 -42 -122 -123 -169 -166h102c33.6485 31.454 83.3493 83.241 126.01 125.223c42.7131 -41.9819 92.6103 -93.7688 126.99 -125.223h101zM60 360c0 -220 122 -365 337 -365c216 0 338 147 338 368
c0 218 -120 364 -335 364c-217 0 -340 -146 -340 -367zM143 360c0 175 82 300 250 300c171 0 260 -121 260 -297c0 -175 -84 -301 -253 -301c-171 0 -257 122 -257 298z" />
    <glyph glyph-name="Odieresis" unicode="&#xd6;" 
d="M432 848h100c0 28 -21 42 -51 42c-29 0 -49 -15 -49 -42zM432 848h100c0 -29 -21 -43 -51 -43s-49 15 -49 43zM264 848h100c0 28 -21 42 -51 42c-29 0 -49 -15 -49 -42zM264 848h100c0 -29 -21 -43 -51 -43s-49 15 -49 43zM60 360c0 -220 122 -365 337 -365
c216 0 338 147 338 368c0 218 -120 364 -335 364c-217 0 -340 -146 -340 -367zM143 360c0 175 82 300 250 300c171 0 260 -121 260 -297c0 -175 -84 -301 -253 -301c-171 0 -257 122 -257 298z" />
    <glyph glyph-name="Ograve" unicode="&#xd2;" 
d="M518 816c-46 43 -122 124 -169 166h-101c47 -42 122 -123 169 -166h101zM60 360c0 -220 122 -365 337 -365c216 0 338 147 338 368c0 218 -120 364 -335 364c-217 0 -340 -146 -340 -367zM143 360c0 175 82 300 250 300c171 0 260 -121 260 -297
c0 -175 -84 -301 -253 -301c-171 0 -257 122 -257 298z" />
    <glyph glyph-name="Ohungarumlaut" unicode="&#x150;" 
d="M502 785l120 197h-104l-97 -197h81zM326 785l121 197h-104l-98 -197h81zM60 360c0 -220 122 -365 337 -365c216 0 338 147 338 368c0 218 -120 364 -335 364c-217 0 -340 -146 -340 -367zM143 360c0 175 82 300 250 300c171 0 260 -121 260 -297
c0 -175 -84 -301 -253 -301c-171 0 -257 122 -257 298z" />
    <glyph glyph-name="Omacron" unicode="&#x14c;" 
d="M509 882h-230v-64h230v64zM60 360c0 -220 122 -365 337 -365c216 0 338 147 338 368c0 218 -120 364 -335 364c-217 0 -340 -146 -340 -367zM143 360c0 175 82 300 250 300c171 0 260 -121 260 -297c0 -175 -84 -301 -253 -301c-171 0 -257 122 -257 298z" />
    <glyph glyph-name="Oslash" unicode="&#xd8;" 
d="M60 360c0 -137.589 47.7181 -245.844 136.06 -307.64l-49.0605 -89.3602l53 -32l50.2624 91.4977c42.453 -17.9367 91.5292 -27.4977 146.738 -27.4977c216 0 338 147 338 368c0 134.344 -45.5728 241.345 -130.867 303.683l46.8674 85.3174l-56 27l-44.6554 -81.3367
c-43.1445 19.0998 -93.414 29.3367 -150.345 29.3367c-217 0 -340 -146 -340 -367zM143 360c0 175 82 300 250 300c47.0332 0 87.863 -9.15382 122.344 -26.0882l-282.771 -515.046c-59.647 52.2817 -89.5731 137.313 -89.5731 241.135zM566.835 598.786
c57.0057 -52.3242 86.165 -135.045 86.165 -235.786c0 -175 -84 -301 -253 -301c-44.0941 0 -82.5364 8.11201 -115.31 23.1701z" />
    <glyph glyph-name="Otilde" unicode="&#xd5;" 
d="M559 968c-14 -45 -30 -84 -67 -84c-35 0 -56 16 -81 41c-33 30 -59 48 -104 48c-75 0 -111 -52 -130 -126c0 0 1 0 57 -25c15 49 32 87 76 87c32 0 48 -18 70 -40c34 -33 65 -51 112 -51c74 0 104 57 125 125zM60 360c0 -220 122 -365 337 -365c216 0 338 147 338 368
c0 218 -120 364 -335 364c-217 0 -340 -146 -340 -367zM143 360c0 175 82 300 250 300c171 0 260 -121 260 -297c0 -175 -84 -301 -253 -301c-171 0 -257 122 -257 298z" />
    <glyph glyph-name="P" unicode="P" horiz-adv-x="669" 
d="M245 354.457v303.543h87c119 0 202 -60 202 -174c0 -99 -66 -156 -166 -156c-47.9606 0 -82.9295 9.57285 -123 26.4569zM208 722h-4h-42h-123v-64h123v-594h-123v-64h123h42h41h125v64h-125v223.885c36.5641 -13.7005 73.986 -22.8845 116 -22.8845
c150 2 256 77 256 222c0 152 -115 235 -274 235h-98h-37z" />
    <glyph glyph-name="Q" unicode="Q" horiz-adv-x="820" 
d="M60 360c0 -215.011 118.44 -358.386 324.515 -364.777c108.222 -165.621 235.029 -221.223 429.485 -221.223v67c-151.021 0 -251.734 42.3233 -339.959 160.509c169.212 30.8088 263.959 168.649 263.959 363.491c0 219 -121 364 -335 364c-218 0 -343 -148 -343 -369z
M143 360c0 175 86 297 254 297c170 0 258 -120 258 -295s-84 -300 -252 -300c-172 1 -260 122 -260 298z" />
    <glyph glyph-name="R" unicode="R" horiz-adv-x="842" 
d="M206 722h-3h-41h-125v-64h125v-594h-125v-64h125h41h42h124v64h-124v256h131c5.70234 0 11.3361 0.0877496 16.8986 0.264061c78.865 -106.755 158.392 -213.509 237.101 -320.264h35h60h105v64h-152.273c-66.0304 89.2545 -132.426 178.509 -198.321 267.764
c95.3172 24.4045 154.594 87.5216 154.594 196.236c0 136 -98 194 -243 194h-146h-39zM245 658h131c105 0 175 -39 175 -136c0 -95 -64 -138 -164 -138h-142v274z" />
    <glyph glyph-name="Racute" unicode="&#x154;" horiz-adv-x="842" 
d="M328 816c47 43 123 124 170 166h-102c-47 -42 -122 -123 -169 -166h101zM206 722h-3h-41h-125v-64h125v-594h-125v-64h125h41h42h124v64h-124v256h131c5.70234 0 11.3361 0.0877496 16.8986 0.264061c78.865 -106.755 158.392 -213.509 237.101 -320.264h35h60h105v64
h-152.273c-66.0304 89.2545 -132.426 178.509 -198.321 267.764c95.3172 24.4045 154.594 87.5216 154.594 196.236c0 136 -98 194 -243 194h-146h-39zM245 658h131c105 0 175 -39 175 -136c0 -95 -64 -138 -164 -138h-142v274z" />
    <glyph glyph-name="Rcaron" unicode="&#x158;" horiz-adv-x="842" 
d="M122 983c47 -42 122 -123 170 -166h16h85h16c47 43 122 124 169 166h-101c-34.4115 -30.7507 -84.3688 -82.4078 -126.715 -124.75c-42.4519 42.3423 -91.8731 93.9993 -126.285 124.75h-102zM206 722h-3h-41h-125v-64h125v-594h-125v-64h125h41h42h124v64h-124v256h131
c5.70234 0 11.3361 0.0877496 16.8986 0.264061c78.865 -106.755 158.392 -213.509 237.101 -320.264h35h60h105v64h-152.273c-66.0304 89.2545 -132.426 178.509 -198.321 267.764c95.3172 24.4045 154.594 87.5216 154.594 196.236c0 136 -98 194 -243 194h-146h-39z
M245 658h131c105 0 175 -39 175 -136c0 -95 -64 -138 -164 -138h-142v274z" />
    <glyph glyph-name="Rcommaaccent" unicode="&#x156;" horiz-adv-x="842" 
d="M403 -288l121 197h-104l-98 -197h81zM206 722h-3h-41h-125v-64h125v-594h-125v-64h125h41h42h124v64h-124v256h131c5.70234 0 11.3361 0.0877496 16.8986 0.264061c78.865 -106.755 158.392 -213.509 237.101 -320.264h35h60h105v64h-152.273
c-66.0304 89.2545 -132.426 178.509 -198.321 267.764c95.3172 24.4045 154.594 87.5216 154.594 196.236c0 136 -98 194 -243 194h-146h-39zM245 658h131c105 0 175 -39 175 -136c0 -95 -64 -138 -164 -138h-142v274z" />
    <glyph glyph-name="S" unicode="S" horiz-adv-x="608" 
d="M65 55c72 -40 136 -60 219 -60c147 0 259 51 259 186c0 122 -98 166 -213 218c-87 39 -170 70 -170 153c0 74 58 111 138 111c55.734 0 101.088 -16.6074 147 -38.3099v-95.6901h66v133c-71 39 -129 62 -211 62c-127 0 -223 -57 -223 -175c0 -116 95 -157 203 -206
c92 -42 181 -76 181 -162c0 -80 -74 -119 -170 -119c-61.2304 0 -109.074 16.5369 -161 43.3216v87.6784h-65v-138z" />
    <glyph glyph-name="Sacute" unicode="&#x15a;" horiz-adv-x="608" 
d="M281 817c47 42 122 123 169 166h-101c-47 -43 -123 -124 -169 -166h101zM65 55c72 -40 136 -60 219 -60c147 0 259 51 259 186c0 122 -98 166 -213 218c-87 39 -170 70 -170 153c0 74 58 111 138 111c55.734 0 101.088 -16.6074 147 -38.3099v-95.6901h66v133
c-71 39 -129 62 -211 62c-127 0 -223 -57 -223 -175c0 -116 95 -157 203 -206c92 -42 181 -76 181 -162c0 -80 -74 -119 -170 -119c-61.2304 0 -109.074 16.5369 -161 43.3216v87.6784h-65v-138z" />
    <glyph glyph-name="Scaron" unicode="&#x160;" horiz-adv-x="615" 
d="M81 984c47 -43 122 -124 169 -166h16h86h16c47 42 122 123 169 166h-101c-34.3826 -31.4564 -84.2848 -83.2488 -127 -125.232c-42.7152 41.9835 -92.6174 93.776 -127 125.232h-101zM72 55c71 -40 135 -60 218 -60c147 0 260 51 260 186c0 122 -99 166 -214 218
c-87 39 -170 70 -170 153c0 74 59 111 138 111c56.3915 0 101.779 -16.5052 147 -38.1093v-95.8907h66v133c-71 39 -128 62 -210 62c-128 0 -224 -57 -224 -175c0 -116 95 -157 203 -206c93 -42 181 -76 181 -162c0 -80 -73 -119 -170 -119
c-61.1103 0 -108.886 16.4722 -160 43.1642v87.8358h-66v-138h1z" />
    <glyph glyph-name="Scedilla" unicode="&#x15e;" horiz-adv-x="608" 
d="M267 -106c10 7 19 10 31 10c22 0 36 -13 36 -35c0 -26 -22 -37 -50 -37c-24 0 -44 6 -69 18l-28 -50c30 -16 56 -24 91 -24c71 0 123 28 123 94c0 55.902 -35.5907 90.1024 -90.5965 94.5134c7.28646 11.6501 14.2497 22.8577 20.042 32.3243
c123.507 10.1984 212.555 63.7876 212.555 184.162c0 122 -98 166 -213 218c-87 39 -170 70 -170 153c0 74 58 111 138 111c55.734 0 101.088 -16.6074 147 -38.3099v-95.6901h66v133c-71 39 -129 62 -211 62c-127 0 -223 -57 -223 -175c0 -116 95 -157 203 -206
c92 -42 181 -76 181 -162c0 -80 -74 -119 -170 -119c-61.2304 0 -109.074 16.5369 -161 43.3216v87.6784h-65v-138c58.9864 -32.7702 112.603 -52.1168 175.697 -58.0399c-12.1367 -20.4663 -24.0273 -40.5259 -30.6973 -51.9601l56 -51
c0.119005 0.189008 0.239137 0.37978 0.36038 0.572291z" />
    <glyph glyph-name="Scommaaccent" unicode="&#x218;" horiz-adv-x="608" 
d="M233 -290l120 197h-104l-97 -197h81zM65 55c72 -40 136 -60 219 -60c147 0 259 51 259 186c0 122 -98 166 -213 218c-87 39 -170 70 -170 153c0 74 58 111 138 111c55.734 0 101.088 -16.6074 147 -38.3099v-95.6901h66v133c-71 39 -129 62 -211 62
c-127 0 -223 -57 -223 -175c0 -116 95 -157 203 -206c92 -42 181 -76 181 -162c0 -80 -74 -119 -170 -119c-61.2304 0 -109.074 16.5369 -161 43.3216v87.6784h-65v-138z" />
    <glyph glyph-name="T" unicode="T" horiz-adv-x="725" 
d="M321 654v-590h-125v-64h125h40h43h123v64h-123v590h211v-85h65v85v35v33h-635v-33v-35v-85h65v85h211z" />
    <glyph glyph-name="Tcaron" unicode="&#x164;" horiz-adv-x="725" 
d="M131 983c47 -43 122 -124 170 -166h16h85h16c47 42 122 123 169 166h-101c-34.4698 -31.5362 -84 -83.5115 -126.5 -125.551c-42.5 42.0399 -92.0302 94.0153 -126.5 125.551h-102zM321 654v-590h-125v-64h125h40h43h123v64h-123v590h211v-85h65v85v35v33h-635v-33v-35
v-85h65v85h211z" />
    <glyph glyph-name="Tcedilla" horiz-adv-x="724" 
d="M387.508 -34.4301c7.78904 12.5298 15.2351 24.5452 21.261 34.4301h118.231v64h-123v590h210v-85h66v85v35v33h-635v-33v-35v-85h65v85h211v-590h-125v-64h123.407c-12.5511 -21.1644 -25.0233 -42.1861 -32.407 -54c0 0 1 0 57 -51c10 7 19 10 32 10
c22 0 35 -13 35 -35c0 -26 -21 -37 -49 -37c-25 0 -44 6 -69 18l-29 -50c31 -16 56 -24 91 -24c71 0 124 28 124 94c0 56.1479 -36.7802 90.4029 -91.4922 94.5699z" />
    <glyph glyph-name="Tcommaaccent" unicode="&#x162;" horiz-adv-x="725" 
d="M333 -289l121 197h-104l-98 -197h81zM321 654v-590h-125v-64h125h40h43h123v64h-123v590h211v-85h65v85v35v33h-635v-33v-35v-85h65v85h211z" />
    <glyph glyph-name="Thorn" unicode="&#xde;" horiz-adv-x="662" 
d="M245 658h125v64h-125h-41h-42h-123v-64h123v-594h-123v-64h123h42h41h125v64h-125v128.05c39.5967 -14.3602 80.1432 -23.0496 126 -23.0496c142 3 241 75 241 214c0 141 -112 218 -269 218h-98v57zM245 259.022v277.978h87c116 0 197 -54 197 -157
c0 -93 -64 -148 -161 -148c-47.9606 0 -82.9295 9.57285 -123 27.0223z" />
    <glyph glyph-name="U" unicode="U" horiz-adv-x="896" 
d="M228 658h130v64h-166h-165v-64h125v-384c0 -190 100 -279 295 -279s296 90 296 281v382h127v64h-165h-165v-64h127v-391c0 -135 -75 -201 -213 -201c-152 0 -226 71 -226 220v372z" />
    <glyph glyph-name="Uacute" unicode="&#xda;" horiz-adv-x="896" 
d="M427 817c47 42 122 123 169 166h-101c-47 -43 -123 -124 -169 -166h101zM228 658h130v64h-166h-165v-64h125v-384c0 -190 100 -279 295 -279s296 90 296 281v382h127v64h-165h-165v-64h127v-391c0 -135 -75 -201 -213 -201c-152 0 -226 71 -226 220v372z" />
    <glyph glyph-name="Ucircumflex" unicode="&#xdb;" horiz-adv-x="896" 
d="M677 824c-47 43 -122 124 -169 166h-16h-85h-16c-48 -42 -123 -123 -170 -166h102c34.4115 31.4829 83.8327 83.336 126.285 125.338c42.3466 -42.0023 92.3038 -93.8555 126.715 -125.338h101zM228 658h130v64h-166h-165v-64h125v-384c0 -190 100 -279 295 -279
s296 90 296 281v382h127v64h-165h-165v-64h127v-391c0 -135 -75 -201 -213 -201c-152 0 -226 71 -226 220v372z" />
    <glyph glyph-name="Udieresis" unicode="&#xdc;" horiz-adv-x="896" 
d="M483 848h100c0 28 -21 42 -51 42c-29 0 -49 -15 -49 -42zM483 848h100c0 -29 -21 -43 -51 -43s-49 15 -49 43zM315 848h101c0 28 -22 42 -52 42c-29 0 -49 -15 -49 -42zM315 848h101c0 -29 -22 -43 -52 -43c-29 0 -49 15 -49 43zM228 658h130v64h-166h-165v-64h125v-384
c0 -190 100 -279 295 -279s296 90 296 281v382h127v64h-165h-165v-64h127v-391c0 -135 -75 -201 -213 -201c-152 0 -226 71 -226 220v372z" />
    <glyph glyph-name="Ugrave" unicode="&#xd9;" horiz-adv-x="896" 
d="M570 816c-47 43 -123 124 -170 166h-101c47 -42 122 -123 169 -166h102zM228 658h130v64h-166h-165v-64h125v-384c0 -190 100 -279 295 -279s296 90 296 281v382h127v64h-165h-165v-64h127v-391c0 -135 -75 -201 -213 -201c-152 0 -226 71 -226 220v372z" />
    <glyph glyph-name="Uhungarumlaut" unicode="&#x170;" horiz-adv-x="896" 
d="M553 785l120 197h-104l-97 -197h81zM378 785l120 197h-104l-98 -197h82zM228 658h130v64h-166h-165v-64h125v-384c0 -190 100 -279 295 -279s296 90 296 281v382h127v64h-165h-165v-64h127v-391c0 -135 -75 -201 -213 -201c-152 0 -226 71 -226 220v372z" />
    <glyph glyph-name="Umacron" unicode="&#x16a;" horiz-adv-x="896" 
d="M561 882h-231v-64h231v64zM228 658h130v64h-166h-165v-64h125v-384c0 -190 100 -279 295 -279s296 90 296 281v382h127v64h-165h-165v-64h127v-391c0 -135 -75 -201 -213 -201c-152 0 -226 71 -226 220v372z" />
    <glyph glyph-name="Uogonek" unicode="&#x172;" horiz-adv-x="896" 
d="M463.808 -4.77044c183.993 5.10166 279.192 95.3364 279.192 280.77v382h127v64h-165h-165v-64h127v-391c0 -135 -75 -201 -213 -201c-152 0 -226 71 -226 220v372h130v64h-166h-165v-64h125v-384c0 -161.201 71.983 -249.7 212.895 -272.824
c-19.1452 -17.3654 -30.8953 -39.491 -30.8953 -71.1759c0 -69 46 -111 116 -111c39 0 64 13 97 31c-36 48 -3 3 -39 50c-17 -10 -31 -18 -51 -18c-31 0 -50 19 -50 49c0 34.1776 25.3412 49.651 56.8081 64.2296z" />
    <glyph glyph-name="Uring" unicode="&#x16e;" horiz-adv-x="896" 
d="M378 946c0 44 24 72 69 72c48 0 75 -26 75 -72c0 -45 -26 -71 -73 -71c-46 0 -71 26 -71 71zM305 946c0 -84 58 -132 144 -132c88 0 146 47 146 132s-59 131 -148 131c-86 0 -142 -48 -142 -131zM228 658h130v64h-166h-165v-64h125v-384c0 -190 100 -279 295 -279
s296 90 296 281v382h127v64h-165h-165v-64h127v-391c0 -135 -75 -201 -213 -201c-152 0 -226 71 -226 220v372z" />
    <glyph glyph-name="V" unicode="V" horiz-adv-x="883" 
d="M471 0h9c86.5877 219.659 172.345 438.488 259.542 658h133.458v64h-108h-58h-7h-21h-163v-64h138.029c-73.5114 -188.36 -146.969 -376.217 -219.893 -564.528c-74.2997 188.31 -148.599 376.167 -222.899 564.528h135.763v64h-161h-23h-7h-57h-109v-64h134.525
c87.6463 -219.512 175.976 -438.341 263.475 -658h10h73z" />
    <glyph glyph-name="W" unicode="W" horiz-adv-x="1085" 
d="M732.489 118.704c-48.5441 201.649 -97.3173 401.773 -147.489 603.296h-8h-66h-9c-55.3248 -202.019 -109.947 -403.336 -165.044 -605.128c-44.7789 180.475 -89.1776 360.57 -134.039 541.128h130.083v64h-146h-20h-2h-57h-109v-64h125.493
c56.657 -219.512 113.998 -438.341 170.507 -658h10h61h7c56.5136 200.291 112.337 399.891 169.191 599.949c50.8271 -200.058 100.282 -399.658 151.809 -599.949h8h59h12c58.3328 219.659 117.496 438.488 176.733 658h126.267v64h-109h-57h-1h-21h-144v-64h127.309
c-46.8244 -179.947 -92.6807 -359.434 -138.82 -539.296z" />
    <glyph glyph-name="X" unicode="X" horiz-adv-x="811" 
d="M407.153 314.117c58.0367 -83.329 116.089 -166.674 174.24 -250.117h-110.393v-64h155h11h2h84h82v64h-126.895c-74.4589 106.11 -148.918 212.06 -223.377 318.021c64.4205 91.9471 128.849 183.903 193.399 275.979h129.873v64h-85h-78h-3h-11h-152v-64h106.551
c-49.395 -69.5029 -98.8585 -138.937 -148.342 -208.351c-48.7712 69.4139 -97.5425 138.848 -146.314 208.351h105.105v64h-150h-13h-2h-78h-86v-64h130.607c64.0236 -91.8701 127.927 -183.62 191.822 -275.362c-75.7061 -106.167 -151.424 -212.322 -226.981 -318.638
h-128.449v-64h83h83h2h15h151v64h-106.127c58.4975 83.4434 116.896 166.788 175.279 250.117z" />
    <glyph glyph-name="Y" unicode="Y" horiz-adv-x="771" 
d="M419 340.036c70.1419 106.477 138.942 212.277 208.651 317.964h133.349v64h-91h-74h-5h-6h-159v-64h117.377c-56.7731 -87.3889 -112.927 -174.159 -169.723 -261.57c-53.3933 87.4109 -106.146 174.181 -159.517 261.57h119.863v64h-159h-6h-5h-74h-91l-1 -64h131.997
c66.001 -105.624 132.002 -211.362 198.003 -317.775v-276.225h-120v-64h120h45h46h120v64h-120v276.036z" />
    <glyph glyph-name="Yacute" unicode="&#xdd;" horiz-adv-x="771" 
d="M354 817c46 42 122 123 169 166h-102c-47 -43 -122 -124 -169 -166h102zM419 340.036c70.1419 106.477 138.942 212.277 208.651 317.964h133.349v64h-91h-74h-5h-6h-159v-64h117.377c-56.7731 -87.3889 -112.927 -174.159 -169.723 -261.57
c-53.3933 87.4109 -106.146 174.181 -159.517 261.57h119.863v64h-159h-6h-5h-74h-91l-1 -64h131.997c66.001 -105.624 132.002 -211.362 198.003 -317.775v-276.225h-120v-64h120h45h46h120v64h-120v276.036z" />
    <glyph glyph-name="Ydieresis" unicode="&#x178;" horiz-adv-x="771" 
d="M410 848h100c0 28 -21 42 -51 42s-49 -15 -49 -42zM410 848h100c0 -29 -21 -43 -51 -43s-49 15 -49 43zM242 848h100c0 28 -21 42 -51 42c-29 0 -49 -15 -49 -42zM242 848h100c0 -29 -21 -43 -51 -43s-49 15 -49 43zM419 340.036
c70.1419 106.477 138.942 212.277 208.651 317.964h133.349v64h-91h-74h-5h-6h-159v-64h117.377c-56.7731 -87.3889 -112.927 -174.159 -169.723 -261.57c-53.3933 87.4109 -106.146 174.181 -159.517 261.57h119.863v64h-159h-6h-5h-74h-91l-1 -64h131.997
c66.001 -105.624 132.002 -211.362 198.003 -317.775v-276.225h-120v-64h120h45h46h120v64h-120v276.036z" />
    <glyph glyph-name="Z" unicode="Z" horiz-adv-x="708" 
d="M141.798 64c174.126 212.849 490.202 594 490.202 594v64h-554v-32v-32v-88h65v88h383.284c-134.865 -165.731 -1.91367 -2.15509 -487.284 -594v-64h624v32v32v88h-66v-88h-455.202z" />
    <glyph glyph-name="Zacute" unicode="&#x179;" horiz-adv-x="708" 
d="M329 816c46 43 122 123 169 166h-102c-47 -42 -122 -124 -169 -166h102zM141.798 64c174.126 212.849 490.202 594 490.202 594v64h-554v-32v-32v-88h65v88h383.284c-134.865 -165.731 -1.91367 -2.15509 -487.284 -594v-64h624v32v32v88h-66v-88h-455.202z" />
    <glyph glyph-name="Zcaron" unicode="&#x17d;" horiz-adv-x="708" 
d="M122 983c47 -42 123 -124 170 -166h16h85h16c47 42 123 124 169 166h-101c-34.4698 -31.5362 -84 -82.9736 -126.5 -125.121c-42.5 42.1476 -92.0302 93.5851 -126.5 125.121h-102zM141.798 64c174.126 212.849 490.202 594 490.202 594v64h-554v-32v-32v-88h65v88
h383.284c-134.865 -165.731 -1.91367 -2.15509 -487.284 -594v-64h624v32v32v88h-66v-88h-455.202z" />
    <glyph glyph-name="Zdotaccent" unicode="&#x17b;" horiz-adv-x="708" 
d="M301 847h100c0 -29 -21 -42 -51 -42s-49 15 -49 42zM301 847h100c0 29 -21 43 -51 43c-29 0 -49 -16 -49 -43zM141.798 64c174.126 212.849 490.202 594 490.202 594v64h-554v-32v-32v-88h65v88h383.284c-134.865 -165.731 -1.91367 -2.15509 -487.284 -594v-64h624v32
v32v88h-66v-88h-455.202z" />
    <glyph glyph-name="a" unicode="a" horiz-adv-x="622" 
d="M461 0h39h116v64h-116v315c0 120 -82 158 -204 158c-94 0 -161 -32 -214 -74v-122h66v88.9476c35.8056 23.198 79.6874 43.0524 137 43.0524c81 0 132 -27 132 -112v-31.6832c-58.837 -6.86814 -101.915 -11.0347 -169 -19.3168c-111 -15 -190 -49 -190 -155
s65 -160 176 -160c84.7658 0 133.409 34.5742 183 87.0414v-82.0414h44zM417 161.176c-49.8418 -59.3088 -90.229 -103.176 -169 -103.176c-71 0 -109 33 -109 100c0 61 46 86 108 94c68.5025 8.97056 111.068 13.9508 170 21.449v-112.273z" />
    <glyph glyph-name="aacute" unicode="&#xe1;" horiz-adv-x="622" 
d="M278 638c47 43 123 123 170 166h-102c-47 -42 -122 -124 -169 -166h101zM461 0h39h116v64h-116v315c0 120 -82 158 -204 158c-94 0 -161 -32 -214 -74v-122h66v88.9476c35.8056 23.198 79.6874 43.0524 137 43.0524c81 0 132 -27 132 -112v-31.6832
c-58.837 -6.86814 -101.915 -11.0347 -169 -19.3168c-111 -15 -190 -49 -190 -155s65 -160 176 -160c84.7658 0 133.409 34.5742 183 87.0414v-82.0414h44zM417 161.176c-49.8418 -59.3088 -90.229 -103.176 -169 -103.176c-71 0 -109 33 -109 100c0 61 46 86 108 94
c68.5025 8.97056 111.068 13.9508 170 21.449v-112.273z" />
    <glyph glyph-name="abreve" unicode="&#x103;" horiz-adv-x="622" 
d="M390 773c0 -51 -36 -74 -89 -74c-52 0 -87 24 -87 75h-79c0 -94 65 -139 162 -139c102 0 171 43 171 138h-78zM461 0h39h116v64h-116v315c0 120 -82 158 -204 158c-94 0 -161 -32 -214 -74v-122h66v88.9476c35.8056 23.198 79.6874 43.0524 137 43.0524
c81 0 132 -27 132 -112v-31.6832c-58.837 -6.86814 -101.915 -11.0347 -169 -19.3168c-111 -15 -190 -49 -190 -155s65 -160 176 -160c84.7658 0 133.409 34.5742 183 87.0414v-82.0414h44zM417 161.176c-49.8418 -59.3088 -90.229 -103.176 -169 -103.176
c-71 0 -109 33 -109 100c0 61 46 86 108 94c68.5025 8.97056 111.068 13.9508 170 21.449v-112.273z" />
    <glyph glyph-name="acircumflex" unicode="&#xe2;" horiz-adv-x="624" 
d="M530 646c-47 42 -122 123 -169 166h-16h-86h-16c-47 -43 -122 -124 -169 -166h101c34.3826 30.7249 84.2848 82.3209 127 124.643c42.7152 -42.3223 92.6174 -93.9183 127 -124.643h101zM462 0h39h116v64h-116v315c0 120 -82 158 -204 158c-93 0 -161 -32 -213 -74v-122
h65v88.3848c35.6911 23.4387 79.2245 43.6152 137 43.6152c81 0 132 -27 132 -112v-31.7247c-58.3276 -6.84346 -102.05 -11.0099 -169 -19.2753c-111 -15 -190 -49 -190 -155s65 -160 176 -160c84.923 0 133.687 34.1218 183 86.0104v-81.0104h44zM418 161.176
c-49.8418 -59.3088 -90.229 -103.176 -169 -103.176c-70 0 -109 33 -109 100c0 61 47 86 108 94c68.5025 8.97056 111.068 13.9508 170 21.449v-112.273z" />
    <glyph glyph-name="acute" unicode="&#xb4;" horiz-adv-x="341" 
d="M112 591c47 43 123 123 170 166h-102c-47 -42 -122 -124 -169 -166h101z" />
    <glyph glyph-name="adieresis" unicode="&#xe4;" horiz-adv-x="622" 
d="M335 669h100c0 28 -22 43 -51 43c-30 0 -49 -16 -49 -43zM335 669h100c0 -29 -21 -42 -52 -42c-29 0 -48 14 -48 42zM167 669h100c0 28 -21 43 -51 43s-49 -16 -49 -43zM167 669h100c0 -29 -21 -42 -51 -42s-49 14 -49 42zM461 0h39h116v64h-116v315
c0 120 -82 158 -204 158c-94 0 -161 -32 -214 -74v-122h66v88.9476c35.8056 23.198 79.6874 43.0524 137 43.0524c81 0 132 -27 132 -112v-31.6832c-58.837 -6.86814 -101.915 -11.0347 -169 -19.3168c-111 -15 -190 -49 -190 -155s65 -160 176 -160
c84.7658 0 133.409 34.5742 183 87.0414v-82.0414h44zM417 161.176c-49.8418 -59.3088 -90.229 -103.176 -169 -103.176c-71 0 -109 33 -109 100c0 61 46 86 108 94c68.5025 8.97056 111.068 13.9508 170 21.449v-112.273z" />
    <glyph glyph-name="ae" unicode="&#xe6;" horiz-adv-x="948" 
d="M810.924 311h-311.65c8.26109 99.392 57.0285 161 156.725 161c100.732 0 152.686 -58.3436 154.924 -161zM498.978 250h390.022v47c0 154 -80 241 -229 241c-80.7899 0 -142.733 -24.2688 -184.123 -69.7891c-31.9864 50.6831 -96.6639 68.7891 -180.877 68.7891
c-94 0 -161 -32 -214 -74v-114h66v81.0107c35.7025 23.8976 78.2969 42.9893 137 42.9893c81 0 132 -27 132 -112v-49.9669c-59.7421 0 -104.033 -0.682996 -171 -8.03305c-111 -15 -188 -45 -188 -149c0 -106 65 -159 176 -159c100.859 0 160.075 43.1036 223.233 111.202
c43.3608 -71.9724 120.287 -111.202 227.767 -111.202c80 0 131 25 191 77l-49 48c-45 -39 -82 -60 -142 -60c-117.578 0 -176.871 72.8558 -185.022 190zM415.785 251.123c1.76834 -30.7297 6.51885 -58.9832 14.1773 -84.6007
c-54.5454 -63.4646 -100.9 -108.523 -182.962 -108.523c-69 0 -109 32 -109 99c0 57 48 79 109 87c57.4615 6.23077 96.7101 7.18935 143.295 7.18935c8.22107 0 16.6706 -0.0298529 25.4891 -0.0658516z" />
    <glyph glyph-name="agrave" unicode="&#xe0;" horiz-adv-x="622" 
d="M421 638c-47 42 -122 123 -169 166h-102c47 -43 123 -124 170 -166h101zM461 0h39h116v64h-116v315c0 120 -82 158 -204 158c-94 0 -161 -32 -214 -74v-122h66v88.9476c35.8056 23.198 79.6874 43.0524 137 43.0524c81 0 132 -27 132 -112v-31.6832
c-58.837 -6.86814 -101.915 -11.0347 -169 -19.3168c-111 -15 -190 -49 -190 -155s65 -160 176 -160c84.7658 0 133.409 34.5742 183 87.0414v-82.0414h44zM417 161.176c-49.8418 -59.3088 -90.229 -103.176 -169 -103.176c-71 0 -109 33 -109 100c0 61 46 86 108 94
c68.5025 8.97056 111.068 13.9508 170 21.449v-112.273z" />
    <glyph glyph-name="amacron" unicode="&#x101;" horiz-adv-x="622" 
d="M412 703h-231v-64h231v64zM461 0h39h116v64h-116v315c0 120 -82 158 -204 158c-94 0 -161 -32 -214 -74v-122h66v88.9476c35.8056 23.198 79.6874 43.0524 137 43.0524c81 0 132 -27 132 -112v-31.6832c-58.837 -6.86814 -101.915 -11.0347 -169 -19.3168
c-111 -15 -190 -49 -190 -155s65 -160 176 -160c84.7658 0 133.409 34.5742 183 87.0414v-82.0414h44zM417 161.176c-49.8418 -59.3088 -90.229 -103.176 -169 -103.176c-71 0 -109 33 -109 100c0 61 46 86 108 94c68.5025 8.97056 111.068 13.9508 170 21.449v-112.273z
" />
    <glyph glyph-name="ampersand" unicode="&#x26;" horiz-adv-x="748" 
d="M273.617 339.589c5.4977 -5.13124 10.9707 -10.3198 16.3828 -15.5895c59.9707 -58.8284 125.487 -123.529 190.028 -186.834c-46.5418 -48.7992 -105.872 -78.1658 -184.028 -78.1658c-90 0 -157 43 -157 129c0 80.7582 63.1639 113.512 134.617 151.589z
M528.222 89.9903c31.8519 -31.1054 63.0506 -61.4057 92.7785 -89.9903h102c-48.4421 45.6163 -98.8398 94.3289 -149.811 143.967c34.0407 48.5269 61.0987 106.895 82.8115 172.033l-69 15c-17.8078 -51.115 -38.5519 -98.0975 -63.9537 -138.114
c-58.8876 57.5208 -117.937 115.327 -175.046 170.114c-3.82527 3.88697 -7.71525 7.70922 -11.6474 11.4816c81.748 47.2783 148.795 96.8489 149.647 191.518c0 103 -78 161 -184 161c-104 0 -176 -62 -176 -163c0 -76.8804 44.593 -128.424 97.7064 -178.438
c-89.9123 -48.647 -166.706 -94.7066 -166.706 -197.562c0 -126 101 -193 235 -193c99.5088 0 176.422 35.0899 236.222 94.9903zM286.98 419.787c-43.1224 39.9942 -79.9802 81.3731 -79.9802 144.213c0 58 35 99 92 99c62 0 104 -36 104 -97
c0 -74.3785 -51.6115 -110.609 -116.02 -146.213z" />
    <glyph glyph-name="aogonek" unicode="&#x105;" horiz-adv-x="622" 
d="M485.727 0h14.2731h116v64h-116v315c0 120 -82 158 -204 158c-94 0 -161 -32 -214 -74v-122h66v88.9476c35.8056 23.198 79.6874 43.0524 137 43.0524c81 0 132 -27 132 -112v-31.6832c-58.837 -6.86814 -101.915 -11.0347 -169 -19.3168c-111 -15 -190 -49 -190 -155
s65 -160 176 -160c84.7658 0 133.409 34.5742 183 87.0414v-54.2386c-45.4042 -21.8631 -79 -48.6746 -79 -101.803c0 -68 46 -110 117 -110c38 0 64 12 96 31c-36 47 -2 2 -38 50c-18 -11 -32 -19 -52 -19c-30 0 -50 19 -50 49c0 40.4112 36.2716 54.6731 74.7269 73z
M417 161.176c-49.8418 -59.3088 -90.229 -103.176 -169 -103.176c-71 0 -109 33 -109 100c0 61 46 86 108 94c68.5025 8.97056 111.068 13.9508 170 21.449v-112.273z" />
    <glyph glyph-name="apostrophemod" horiz-adv-x="361" 
d="M160 525l120 197h-104l-97 -197h81z" />
    <glyph glyph-name="approxequal" unicode="&#x2248;" horiz-adv-x="714" 
d="M572 561c-17 -45 -38 -89 -86 -89c-43 0 -70 13 -104 38c-47 37 -81 58 -141 58c-91 0 -134 -47 -160 -133c31 -12 32 -13 63 -24c15 52 40 91 94 91c38 0 61 -12 90 -35c52 -39 89 -59 153 -60c88 0 126 51 156 130c-32 11 -33 13 -65 24zM571 361
c-16 -46 -37 -89 -86 -89c-43 0 -69 12 -103 38c-47 37 -81 58 -141 58c-91 0 -135 -48 -160 -133c30 -12 32 -13 62 -24c16 52 40 91 94 91c39 0 61 -12 91 -35c51 -39 88 -60 153 -60c88 0 126 50 156 130c-32 11 -33 13 -66 24z" />
    <glyph glyph-name="aring" unicode="&#xe5;" horiz-adv-x="622" 
d="M229 767c0 44 24 72 69 72c48 0 76 -25 76 -72c0 -45 -27 -71 -74 -71c-45 0 -71 26 -71 71zM156 767c0 -84 58 -131 144 -131c88 0 147 46 147 131s-60 131 -149 131c-86 0 -142 -47 -142 -131zM461 0h39h116v64h-116v315c0 120 -82 158 -204 158
c-94 0 -161 -32 -214 -74v-122h66v88.9476c35.8056 23.198 79.6874 43.0524 137 43.0524c81 0 132 -27 132 -112v-31.6832c-58.837 -6.86814 -101.915 -11.0347 -169 -19.3168c-111 -15 -190 -49 -190 -155s65 -160 176 -160c84.7658 0 133.409 34.5742 183 87.0414
v-82.0414h44zM417 161.176c-49.8418 -59.3088 -90.229 -103.176 -169 -103.176c-71 0 -109 33 -109 100c0 61 46 86 108 94c68.5025 8.97056 111.068 13.9508 170 21.449v-112.273z" />
    <glyph glyph-name="asciicircum" unicode="^" horiz-adv-x="573" 
d="M508 460c-59 105 -121 217 -180 323h-1h-82h-1c-60 -108 -119 -215 -178 -323h83c45.3967 83.099 91.3854 165.606 137.055 248.432c45.9562 -83.0133 93.6304 -167.787 138.945 -248.432h83z" />
    <glyph glyph-name="asciitilde" unicode="~" horiz-adv-x="711" 
d="M568 361c-16 -46 -37 -89 -86 -89c-43 0 -69 12 -103 38c-47 37 -81 58 -141 58c-91 0 -135 -48 -160 -133c30 -12 32 -13 62 -24c16 52 40 91 94 91c39 0 61 -12 91 -35c51 -39 88 -60 153 -60c88 0 126 50 156 130c-32 11 -33 13 -66 24z" />
    <glyph glyph-name="asterisk" unicode="*" horiz-adv-x="473" 
d="M182.402 498.726c-28.1116 -26.215 -36.3755 -37.9109 -81.4016 -76.7265l59 -46c42.1716 44.6046 48.8269 55.666 78.6396 87.5908c28.5665 -32.3614 35.2929 -42.4783 77.3604 -88.5908l58 46c-44.4715 39.7903 -52.4201 50.971 -80.3613 78.1845
c34.5073 10.5281 48.0578 16.1873 105.361 31.8155l-25 63c-55.0788 -21.2971 -68.63 -28.572 -101.648 -42.0239c1.06502 38.4526 0.509034 50.9526 3.64802 109.024h-78c3.91747 -57.1951 4.15176 -70.192 5.51246 -108.73
c-31.7833 13.0642 -46.7096 20.1591 -103.512 41.7298l-25 -62c58.1349 -16.1895 72.9477 -22.6315 107.402 -33.2735z" />
    <glyph glyph-name="at" unicode="@" horiz-adv-x="863" 
d="M598 -47c-54 -26 -93 -34 -152 -34c-194 0 -315 101 -315 290c0 184 121 282 310 282c180 0 290 -102 290 -280c0 -66 -10 -120 -59 -120c-53 0 -66 54 -66 122c0 114 -64 184 -176 184c-121 0 -189 -67 -189 -185c0 -120 62 -193 180 -193
c64.1312 0 107.398 25.9888 135.559 70.6582c20.9916 -36.6717 55.9217 -58.6582 108.441 -58.6582c102 0 141 75 141 183c0 221 -138 344 -362 344c-239 0 -390 -120 -390 -352c0 -231 151 -351 388 -351c75 0 127 12 186 43zM532.382 176.699
c-17.5468 -54.7244 -43.6529 -93.6989 -100.382 -93.6989c-77 0 -114 51 -114 132c0 73 36 117 106 117c73 0 107 -47 107 -122c0 -11.4739 0.45036 -22.5949 1.38197 -33.3011z" />
    <glyph glyph-name="atilde" unicode="&#xe3;" horiz-adv-x="622" 
d="M462 790c-14 -45 -30 -84 -68 -84c-34 0 -55 15 -81 40c-32 31 -59 48 -103 48c-75 0 -111 -51 -130 -125c56 -25 0 -1 56 -25c15 48 33 86 76 86c32 0 49 -18 71 -40c34 -33 64 -51 111 -51c75 0 104 57 125 125c-57 25 0 0 -57 26zM461 0h39h116v64h-116v315
c0 120 -82 158 -204 158c-94 0 -161 -32 -214 -74v-122h66v88.9476c35.8056 23.198 79.6874 43.0524 137 43.0524c81 0 132 -27 132 -112v-31.6832c-58.837 -6.86814 -101.915 -11.0347 -169 -19.3168c-111 -15 -190 -49 -190 -155s65 -160 176 -160
c84.7658 0 133.409 34.5742 183 87.0414v-82.0414h44zM417 161.176c-49.8418 -59.3088 -90.229 -103.176 -169 -103.176c-71 0 -109 33 -109 100c0 61 46 86 108 94c68.5025 8.97056 111.068 13.9508 170 21.449v-112.273z" />
    <glyph glyph-name="b" unicode="b" horiz-adv-x="705" 
d="M177 0h40v49.0046c51.8717 -35.884 108.634 -54.0046 181 -54.0046c154 0 249 109 249 270c0 162 -93 273 -247 273c-72.0695 0 -134.431 -27.7359 -183 -64.0358v326.036h-40h-43h-122l-1 -64h123v-672h-122v-64h122h43zM217 124.62v273.808
c41.1591 36.9084 102.213 73.5721 175 73.5721c114 0 172 -88 172 -210c0.994307 -114.345 -58.3188 -201.009 -170.075 -201.009c-0.639857 0 -1.28143 0.0028409 -1.92473 0.00853376c-70.2113 0 -122.5 19.6297 -175 63.6199z" />
    <glyph glyph-name="backslash" unicode="\" horiz-adv-x="566" 
d="M527 -68c-134 304 -267 608 -402 912h-86l402 -912h86z" />
    <glyph glyph-name="bar" unicode="|" horiz-adv-x="227" 
d="M155 -300v1100h-83v-1100h83z" />
    <glyph glyph-name="braceleft" unicode="{" horiz-adv-x="317" 
d="M274 795c-99 0 -157 -62 -157 -162v-173c0 -54 -27 -86 -80 -86v-67c53 0 81 -36 81 -90v-169c0 -100 57 -164 156 -164v64c-57 0 -81 39 -81 97v166c0 55.5289 -18.6215 100.463 -52.5899 128.98c33.9684 27.8955 52.5899 72.3574 52.5899 129.02v164c0 58 24 98 81 98
v64z" />
    <glyph glyph-name="braceright" unicode="}" horiz-adv-x="317" 
d="M44 731c57 0 81 -40 81 -98v-164c0 -56.7793 18.3762 -101.63 52.1997 -129.793c-33.6547 -28.2484 -52.1997 -72.7919 -52.1997 -128.207v-166c0 -58 -24 -97 -81 -97v-64c99 0 156 63 156 164v169c0 54 27 89 80 89v67c-52 0 -80 33 -80 87v173c0 100 -57 162 -156 162
v-64z" />
    <glyph glyph-name="bracketleft" unicode="[" horiz-adv-x="300" 
d="M263 770h-192v-889h192v71h-109v748h109v70z" />
    <glyph glyph-name="bracketright" unicode="]" horiz-adv-x="300" 
d="M145.86 -48l-108.86 -1.42109e-14v-71h192v28c-0.333333 92.3333 -0.444444 184.667 -0.444444 277.037c0 184.741 0.444444 369.63 0.444444 554.963v29h-192v-70h108.993c-0.0562451 -171.605 -0.437548 -342.848 -0.437548 -513.963
c0 -78.0313 0.0792921 -156.036 0.30486 -234.037z" />
    <glyph glyph-name="breve" unicode="&#x2d8;" horiz-adv-x="430" 
d="M267 719c0 -51 -36 -74 -89 -74c-52 0 -86 24 -86 75h-79c0 -93 64 -138 161 -138c102 0 171 42 171 137h-78z" />
    <glyph glyph-name="brokenbar" unicode="&#xa6;" horiz-adv-x="245" 
d="M164 428v372h-83v-372h83zM164 -300v372h-83v-372h83z" />
    <glyph glyph-name="bullet" unicode="&#x2022;" horiz-adv-x="387" 
d="M93 440h201c0 56 -43 85 -103 85c-58 0 -98 -32 -98 -85zM93 440h201c0 -58 -43 -85 -103 -85c-59 0 -98 29 -98 85z" />
    <glyph glyph-name="bulletoperator" unicode="&#x2219;" horiz-adv-x="353" 
d="M76 440h201c0 56 -43 85 -103 85c-58 0 -98 -32 -98 -85zM76 440h201c0 -58 -43 -85 -103 -85c-59 0 -98 29 -98 85z" />
    <glyph glyph-name="c" unicode="c" horiz-adv-x="570" 
d="M511 471c-51 38 -115 67 -182 67c-173 0 -272 -95 -272 -271c0 -175 96 -272 268 -272c76 0 148 31 194 88l-51 46c-36 -39 -85 -68 -139 -68c-124 0 -189 76 -189 206c0 129 64 205 186 205c42.4716 0 83.4407 -15.0257 119 -36.6117v-94.3883h66v130z" />
    <glyph glyph-name="cacute" unicode="&#x107;" horiz-adv-x="570" 
d="M302 638c47 43 123 124 169 166h-101c-47 -42 -122 -123 -169 -166h101zM511 471c-51 38 -115 67 -182 67c-173 0 -272 -95 -272 -271c0 -175 96 -272 268 -272c76 0 148 31 194 88l-51 46c-36 -39 -85 -68 -139 -68c-124 0 -189 76 -189 206c0 129 64 205 186 205
c42.4716 0 83.4407 -15.0257 119 -36.6117v-94.3883h66v130z" />
    <glyph glyph-name="caron" unicode="&#x2c7;" horiz-adv-x="559" 
d="M10 752c47 -42 122 -123 170 -166h16h85h16c47 43 122 124 169 166h-101c-34.4115 -30.7507 -84.3688 -82.4078 -126.715 -124.75c-42.4519 42.3423 -91.8731 93.9993 -126.285 124.75h-102z" />
    <glyph glyph-name="ccaron" unicode="&#x10d;" horiz-adv-x="592" 
d="M96 805c47 -42 122 -123 169 -166h17h85h16c47 43 122 124 169 166h-101c-34.4328 -30.7697 -84.4305 -82.4716 -126.794 -124.829c-42.7041 42.3569 -92.506 94.0588 -126.206 124.829h-102zM511 471c-51 38 -115 67 -182 67c-173 0 -272 -95 -272 -271
c0 -175 96 -272 268 -272c76 0 148 31 194 88l-51 46c-36 -39 -85 -68 -139 -68c-124 0 -189 76 -189 206c0 129 64 205 186 205c42.4716 0 83.4407 -15.0257 119 -36.6117v-94.3883h66v130z" />
    <glyph glyph-name="ccedilla" unicode="&#xe7;" horiz-adv-x="570" 
d="M330.847 -27.5229c5.11013 8.13172 10.0655 16.0377 14.5607 23.2727c68.3421 5.04125 131.732 35.3806 173.592 87.2502l-51 46c-36 -39 -85 -68 -139 -68c-11.4771 0 -22.4487 0.651076 -32.9101 1.93578l-0.0899046 0.0642176
c-0.0098905 -0.0164842 -0.0197901 -0.032984 -0.0296989 -0.0494994c-102.487 12.6379 -155.97 86.1278 -155.97 204.049c0 129 64 205 186 205c42.4716 0 83.4407 -15.0257 119 -36.6117v-94.3883h66v130c-51 38 -115 67 -182 67c-173 0 -272 -95 -272 -271
c0 -151.045 71.5165 -243.982 201.69 -266.596c-11.2514 -18.8339 -22.0363 -36.7587 -28.6897 -47.4041l57 -51c10 6 19 10 31 10c23 0 36 -13 36 -35c0 -26 -21 -37 -49 -37c-25 0 -44 6 -69 18l-29 -50c31 -16 56 -24 91 -24c71 0 123 28 123 94
c0 55.7515 -35.3992 89.918 -90.1525 94.4771z" />
    <glyph glyph-name="cedilla" unicode="&#xb8;" horiz-adv-x="358" 
d="M136 90c-15 -25 -51 -86 -66 -110l57 -51c10 6 19 10 31 10c23 0 36 -13 36 -35c0 -26 -21 -37 -49 -37c-25 0 -44 6 -69 18l-29 -50c31 -16 56 -24 91 -24c71 0 123 28 123 94c0 55.7515 -35.3992 89.918 -90.1525 94.4771
c11.1991 17.821 21.6548 34.5581 28.1525 45.5229z" />
    <glyph glyph-name="cent" unicode="&#xa2;" horiz-adv-x="670" 
d="M415 681.949v96.0507h-82v-97.3887c-172.856 -17.7075 -279 -132.963 -279 -315.611c0 -178.087 92.1513 -297.927 257 -313.317v-104.683h83v104.918c83.3903 7.3217 147.581 35.967 219 92.0822l-47 52c-71 -52 -126 -80 -210 -80c-143 0 -219 102 -219 252
c0 152 89 248 236 248c78 0 131 -18 199 -60l42 54c-67.1553 45.3516 -124.422 67.1234 -199 71.9493z" />
    <glyph glyph-name="circumflex" unicode="&#x2c6;" horiz-adv-x="655" 
d="M466 591c-47 42 -122 124 -169 166h-16h-86h-16c-47 -42 -122 -124 -169 -166h102c33.6485 31.454 83.3493 82.7059 126.01 124.792c42.7131 -42.0859 92.6103 -93.3378 126.99 -124.792h101z" />
    <glyph glyph-name="colon" unicode=":" horiz-adv-x="250" 
d="M76 36h98c0 28 -21 41 -50 41s-48 -15 -48 -41zM76 36h98c0 -29 -21 -41 -50 -41s-48 14 -48 41zM76 404h98c0 28 -21 41 -50 41s-48 -15 -48 -41zM76 404h98c0 -29 -21 -41 -50 -41s-48 14 -48 41z" />
    <glyph glyph-name="comma" unicode="," horiz-adv-x="310" 
d="M112 -123l121 197h-104l-98 -197h81z" />
    <glyph glyph-name="commaaccent" horiz-adv-x="362" 
d="M149 -112l121 197h-104l-98 -197h81z" />
    <glyph glyph-name="copyright" unicode="&#xa9;" horiz-adv-x="805" 
d="M516.2 450.421c1.09061 0.845458 6.12591 3.43621 30.7996 14.5791c-21.7485 -10.0112 -28.6004 -13.3487 -30.7996 -14.5791zM547 465c-41 28 -82 39 -135 39c-116 0 -189 -68 -189 -183c0 -111 65 -179 175 -179c62 0 106 11 156 52l-39 38c-40 -26 -70 -36 -114 -36
c-74 0 -111 51 -111 127c0 78 42 128 119 128c32 0 53 -6 75 -16v-58h63v88zM58 322c0 -199 147 -321 353 -321c198 0 336 125 336 321c0 198 -141 323 -341 323c-203 0 -348 -124 -348 -323zM127 322c0 165 112 270 279 270c163 0 273 -108 273 -272
c0 -160 -106 -266 -266 -266c-167 0 -286 101 -286 268z" />
    <glyph glyph-name="currency" unicode="&#xa4;" horiz-adv-x="602" 
d="M109 313c0 -39.6265 8.60322 -73.747 24.6053 -101.545c-25.2014 -22.4848 -50.1225 -44.9697 -75.6053 -67.4545l57 -51c23.6936 21.4723 47.3871 42.3964 71.0807 63.99c31.1265 -19.5833 70.7048 -29.99 116.919 -29.99c43.8979 0 81.461 10.1356 111.263 28.9278
c22.9404 -20.8789 46.089 -41.4034 68.7366 -61.9278l60 48c-25.8793 22.8347 -51.1792 45.6693 -76.3407 68.504c16.507 28.6315 25.3407 63.8646 25.3407 104.496c0 41.5536 -9.91093 76.9129 -28.1496 104.954c23.4651 21.6191 47.3073 43.0934 71.1496 64.0457l-56 52
l-71.3131 -64.8301c-27.8856 14.9227 -61.8668 22.8301 -100.687 22.8301c-43.7666 0 -81.9463 -8.64644 -112.793 -25.2601c-24.0891 22.0667 -48.4084 43.9033 -72.2075 66.2601l-56 -52c23.8626 -21.6254 47.7251 -43.2509 71.5877 -65.291
c-18.5004 -27.8734 -28.5877 -62.9934 -28.5877 -104.709zM190 313c0 71 40 117 110 117c72 0 111 -45 111 -117s-36 -123 -106 -123c-75 0 -115 48 -115 123z" />
    <glyph glyph-name="d" unicode="d" horiz-adv-x="710" 
d="M489 418.213v-281.158c-41.5171 -48.9412 -88.8809 -77.0545 -156 -77.0545c-121 0 -195 82 -195 206c0 125 75 207 197 207c60.4005 0 110.839 -19.1568 154 -54.7873zM489 54.4083v-54.4083h44h43h123v64h-123v736h-44h-43h-122v-64h122v-244.056
c-45.9418 29.2653 -101.818 45.0565 -162 45.0565c-167 0 -272 -108 -272 -274c0 -164 109 -267 275 -267c67.2535 0 117.432 20.3054 159 58.4083z" />
    <glyph glyph-name="dagger" unicode="&#x2020;" horiz-adv-x="633" 
d="M355 512v255h-78v-255h-244v-71h244v-740h78v740h245v71h-245z" />
    <glyph glyph-name="daggerdbl" unicode="&#x2021;" horiz-adv-x="690" 
d="M306 -44v-255h78v255h245v71h-245v414h245v71h-245v255h-78v-255h-245v-71h245v-414h-245v-71h245z" />
    <glyph glyph-name="dcaron" unicode="&#x10f;" horiz-adv-x="843" 
d="M712 613l120 197h-104l-97 -197h81zM489 418.213v-281.158c-41.5171 -48.9412 -88.8809 -77.0545 -156 -77.0545c-121 0 -195 82 -195 206c0 125 75 207 197 207c60.4005 0 110.839 -19.1568 154 -54.7873zM489 54.4083v-54.4083h44h43h123v64h-123v736h-44h-43h-122v-64
h122v-244.056c-45.9418 29.2653 -101.818 45.0565 -162 45.0565c-167 0 -272 -108 -272 -274c0 -164 109 -267 275 -267c67.2535 0 117.432 20.3054 159 58.4083z" />
    <glyph glyph-name="dcroat" unicode="&#x111;" horiz-adv-x="709" 
d="M489 617v-125.056c-45.9418 29.2653 -101.818 45.0565 -162 45.0565c-168 0 -272 -108 -272 -274c0 -164 109 -267 275 -267c66.6855 0 117.165 20.3734 159 58.5996v-54.5996h44h43h122v64h-122v553h79v54h-79v129h-44h-43h-123v-64h123v-65h-171v-54h171zM489 417.648
v-279.798c-41.0054 -49.4322 -88.5179 -77.8505 -156 -77.8505c-121 0 -195 82 -195 206c0 125 75 207 197 207c60.7187 0 111.371 -19.3591 154 -55.3517z" />
    <glyph glyph-name="degree" unicode="&#xb0;" horiz-adv-x="495" 
d="M64 510c0 -121 63 -199 182 -199s185 77 185 197c0 118 -65 195 -184 195s-183 -76 -183 -193zM132 510c0 78 35 135 111 135c80 0 118 -56 118 -137c0 -82 -35 -140 -112 -140c-81 0 -117 59 -117 142z" />
    <glyph glyph-name="deltamath" horiz-adv-x="782" 
d="M31 0h718v70l-310 713h-4h-78h-4l-322 -713v-70zM395.259 695.003l271.741 -625.003h-554z" />
    <glyph glyph-name="dieresis" unicode="&#xa8;" horiz-adv-x="446" 
d="M217 660h100c0 28 -22 43 -51 43c-30 0 -49 -16 -49 -43zM217 660h100c0 -29 -21 -42 -52 -42c-29 0 -48 14 -48 42zM49 660h100c0 28 -21 43 -51 43s-49 -16 -49 -43zM49 660h100c0 -29 -21 -42 -51 -42s-49 14 -49 42z" />
    <glyph glyph-name="divide" unicode="&#xf7;" horiz-adv-x="721" 
d="M77 276h567v71h-567v-71zM308 125h97c0 27 -21 41 -50 41c-28 0 -47 -15 -47 -41zM308 125h97c0 -29 -21 -42 -50 -42s-47 15 -47 42zM308 493h97c0 28 -21 41 -50 41c-28 0 -47 -15 -47 -41zM308 493h97c0 -29 -21 -41 -50 -41s-47 14 -47 41z" />
    <glyph glyph-name="divisionslash" unicode="&#x2215;" horiz-adv-x="529" 
d="M85 -65l437 798h-78l-437 -798h78z" />
    <glyph glyph-name="dollar" unicode="$" horiz-adv-x="588" 
d="M244 682.532c-102.647 -11.0184 -176 -59.2228 -176 -150.532c0 -103 86 -144 195 -187c92 -35 189 -61 189 -139c0 -72 -80 -97 -175 -97c-58.5524 0 -110.432 16.3115 -155 34.2508v78.7492h-66v-127c50.5313 -22.7391 108.865 -42.641 175 -48.3562v-88.6438h83
v88.5796c124.866 9.05663 221 57.6995 221 162.42c0 107 -109 148 -223 194c-85 34 -161 58 -161 129c0 62 60 90 138 90c57.5388 0 100.327 -10.3253 148 -31.6091v-84.3909h66v127c-60.7889 29.1102 -112.048 46.4916 -177 50.889v89.111h-82v-90.4682z" />
    <glyph glyph-name="dotaccent" unicode="&#x2d9;" horiz-adv-x="493" 
d="M184 660h100c0 28 -21 43 -51 43c-29 0 -49 -16 -49 -43zM184 660h100c0 -29 -21 -42 -51 -42s-49 14 -49 42z" />
    <glyph glyph-name="dotlessi" unicode="&#x131;" horiz-adv-x="368" 
d="M156 469v-405l-122 -2.84217e-14l-1 -64h123h43h44h112v64h-112v469h-44h-43h-122l-1 -64h123z" />
    <glyph glyph-name="e" unicode="e" horiz-adv-x="593" 
d="M454.926 311h-310.714c8.072 99.2465 56.8334 162 156.789 162c100.733 0 151.73 -59.3007 153.926 -162zM143.964 251h390.036v47c0 153 -80 240 -229 240c-159 0 -245 -94 -245 -258c0 -181 94 -285 269 -285c80 0 131 25 191 77l-49 48c-45 -39 -83 -60 -142 -60
c-117.647 0 -176.941 72.9408 -185.036 191z" />
    <glyph glyph-name="eacute" unicode="&#xe9;" horiz-adv-x="593" 
d="M280 639c47 43 122 123 169 166h-101c-48 -42 -123 -124 -170 -166h102zM454.926 311h-310.714c8.072 99.2465 56.8334 162 156.789 162c100.733 0 151.73 -59.3007 153.926 -162zM143.964 251h390.036v47c0 153 -80 240 -229 240c-159 0 -245 -94 -245 -258
c0 -181 94 -285 269 -285c80 0 131 25 191 77l-49 48c-45 -39 -83 -60 -142 -60c-117.647 0 -176.941 72.9408 -185.036 191z" />
    <glyph glyph-name="ecaron" unicode="&#x11b;" horiz-adv-x="598" 
d="M76 806c46 -42 122 -124 169 -166h16h85h16c47 42 123 124 169 166h-101c-34.4698 -31.5362 -84 -82.9736 -126.5 -125.121c-42.5 42.1476 -92.0302 93.5851 -126.5 125.121h-101zM456.926 311h-310.714c8.072 99.2465 56.8334 162 156.789 162
c100.733 0 151.73 -59.3007 153.926 -162zM145.964 251h390.036v47c0 153 -80 240 -229 240c-159 0 -245 -94 -245 -258c0 -181 94 -285 269 -285c80 0 131 25 191 77l-49 48c-45 -39 -83 -60 -142 -60c-117.647 0 -176.941 72.9408 -185.036 191z" />
    <glyph glyph-name="ecircumflex" unicode="&#xea;" horiz-adv-x="598" 
d="M532 647c-47 42 -122 123 -170 166h-16h-85h-16c-47 -43 -122 -124 -169 -166h101c34.4115 30.7507 84.3688 82.4078 126.715 124.75c42.4519 -42.3423 91.8731 -93.9993 126.285 -124.75h102zM456.926 311h-310.714c8.072 99.2465 56.8334 162 156.789 162
c100.733 0 151.73 -59.3007 153.926 -162zM145.964 251l390.036 2.84217e-14v47c0 153 -81 240 -229 240c-160 0 -245 -94 -245 -258c0 -181 94 -285 269 -285c80 0 131 25 191 77l-49 48c-46 -39 -83 -60 -142 -60c-117.647 0 -176.941 72.9408 -185.036 191z" />
    <glyph glyph-name="edieresis" unicode="&#xeb;" horiz-adv-x="593" 
d="M336 670h100c0 28 -21 43 -51 43c-29 0 -49 -16 -49 -43zM336 670h100c0 -29 -21 -42 -51 -42s-49 14 -49 42zM168 670h100c0 28 -21 43 -51 43c-29 0 -49 -16 -49 -43zM168 670h100c0 -29 -21 -42 -51 -42s-49 14 -49 42zM454.926 311h-310.714
c8.072 99.2465 56.8334 162 156.789 162c100.733 0 151.73 -59.3007 153.926 -162zM143.964 251h390.036v47c0 153 -80 240 -229 240c-159 0 -245 -94 -245 -258c0 -181 94 -285 269 -285c80 0 131 25 191 77l-49 48c-45 -39 -83 -60 -142 -60
c-117.647 0 -176.941 72.9408 -185.036 191z" />
    <glyph glyph-name="edotaccent" unicode="&#x117;" horiz-adv-x="593" 
d="M252 670h100c0 -29 -21 -42 -51 -42s-49 15 -49 42zM252 670h100c0 29 -21 43 -51 43c-29 0 -49 -16 -49 -43zM454.926 311h-310.714c8.072 99.2465 56.8334 162 156.789 162c100.733 0 151.73 -59.3007 153.926 -162zM143.964 251h390.036v47c0 153 -80 240 -229 240
c-159 0 -245 -94 -245 -258c0 -181 94 -285 269 -285c80 0 131 25 191 77l-49 48c-45 -39 -83 -60 -142 -60c-117.647 0 -176.941 72.9408 -185.036 191z" />
    <glyph glyph-name="egrave" unicode="&#xe8;" horiz-adv-x="593" 
d="M422 639c-47 42 -122 123 -169 166h-101c47 -43 122 -124 169 -166h101zM454.926 311h-310.714c8.072 99.2465 56.8334 162 156.789 162c100.733 0 151.73 -59.3007 153.926 -162zM143.964 251h390.036v47c0 153 -80 240 -229 240c-159 0 -245 -94 -245 -258
c0 -181 94 -285 269 -285c80 0 131 25 191 77l-49 48c-45 -39 -83 -60 -142 -60c-117.647 0 -176.941 72.9408 -185.036 191z" />
    <glyph glyph-name="eight" unicode="8" horiz-adv-x="595" 
d="M299.265 412.772c-75.7309 33.9143 -137.365 58.0382 -138.265 137.228c1 75 52 110 132 110c86 0 140 -32 140 -111c0 -77.9016 -60.1333 -103.688 -133.735 -136.228zM372.91 378.255c80.9569 39.4465 143.09 75.7944 143.09 170.745c0 125 -85 178 -219 178
c-131 0 -218 -55 -218 -177c0 -95.5759 61.1514 -133.515 144.561 -172.157c-94.8217 -45.0406 -164.561 -87.1733 -164.561 -196.843c0 -130 93 -186 234 -186c143 0 243 52 243 186c0 108.117 -69.9476 152.177 -163.09 197.255zM299.405 343.102
c85.4933 -39.7965 153.595 -71.8819 153.595 -162.102c0 -85 -63 -119 -156 -119c-94 0 -155 34 -155 119c0 93.0758 69.9443 122.036 157.405 162.102z" />
    <glyph glyph-name="ellipsis" unicode="&#x2026;" horiz-adv-x="653" 
d="M278 36h100c0 28 -22 42 -51 42c-30 0 -49 -15 -49 -42zM278 36h100c0 -29 -22 -43 -52 -43c-29 0 -48 15 -48 43zM479 36h100c0 28 -21 42 -51 42c-29 0 -49 -15 -49 -42zM479 36h100c0 -29 -21 -43 -51 -43c-29 0 -49 15 -49 43zM74 36h100c0 28 -21 42 -51 42
c-29 0 -49 -15 -49 -42zM74 36h100c0 -29 -21 -43 -51 -43s-49 15 -49 43z" />
    <glyph glyph-name="emacron" unicode="&#x113;" horiz-adv-x="593" 
d="M413 704h-230v-64h230v64zM454.926 311h-310.714c8.072 99.2465 56.8334 162 156.789 162c100.733 0 151.73 -59.3007 153.926 -162zM143.964 251h390.036v47c0 153 -80 240 -229 240c-159 0 -245 -94 -245 -258c0 -181 94 -285 269 -285c80 0 131 25 191 77l-49 48
c-45 -39 -83 -60 -142 -60c-117.647 0 -176.941 72.9408 -185.036 191z" />
    <glyph glyph-name="emdash" unicode="&#x2014;" horiz-adv-x="846" 
d="M76 242h695v71h-695v-71z" />
    <glyph glyph-name="endash" unicode="&#x2013;" horiz-adv-x="554" 
d="M76 242h402v71h-402v-71z" />
    <glyph glyph-name="eogonek" unicode="&#x119;" horiz-adv-x="593" 
d="M454.926 311h-310.714c8.072 99.2465 56.8334 162 156.789 162c100.733 0 151.73 -59.3007 153.926 -162zM358.856 -3.72428c63.5765 5.6917 108.956 30.4944 161.144 75.7243l-49 48c-45 -39 -83 -60 -142 -60c-117.647 0 -176.941 72.9408 -185.036 191h390.036v47
c0 153 -80 240 -229 240c-159 0 -245 -94 -245 -258c0 -155.215 69.1251 -253.805 199.177 -278.746c-17.48 -16.8534 -28.1774 -38.2748 -28.1774 -68.254c0 -69 47 -111 117 -111c38 0 64 13 96 31c-35 48 -2 2 -38 50c-18 -10 -31 -18 -52 -18c-30 0 -49 18 -49 48
c0 33.102 23.7712 48.6585 53.8559 63.2757z" />
    <glyph glyph-name="equal" unicode="=" horiz-adv-x="799" 
d="M77 406h645v67h-645v-67zM77 184h645v67h-645v-67z" />
    <glyph glyph-name="estimated" unicode="&#x212e;" horiz-adv-x="730" 
d="M540 606.949v-199.949h-346v197.213c42.1928 36.5154 99.4208 56.7866 171 56.7866c72.977 0 131.802 -19.2466 175 -54.0514zM194 347h505v47c0 203 -120 332 -331 332c-214 0 -338 -136 -338 -351c0 -233 136 -380 372 -380c104 0 198 36 281 107c-23 22 -26 22 -48 44
c-68 -58 -150 -86 -233 -86c-88.6351 0 -158.535 26.7034 -208 74.4138v212.586z" />
    <glyph glyph-name="eth" unicode="&#xf0;" horiz-adv-x="615" 
d="M461.734 363.022c-27.9209 102.303 -95.4988 175.591 -190.94 228.505c-32.0601 -32.1248 -64.0168 -64.3257 -95.794 -96.5265l-41 41c27.2932 27.2932 54.8512 54.7188 82.4814 82.2286c-44.5107 19.4125 -93.6363 35.4509 -146.481 48.7714l23 67
c64.6046 -15.3137 124.801 -35.2076 178.999 -60.4353c29.8138 29.7714 59.5613 59.6034 89.0007 89.4353l41 -41c-25.6027 -25.2658 -51.2053 -50.6451 -76.7697 -76.0996c141.73 -82.1749 230.77 -209.397 230.77 -398.9c0 -162 -100 -256 -263 -256
c-146 0 -238 80 -238 222c0 140 92 215 236 215c73.0763 0 128.722 -23.9238 170.734 -64.9783zM475.899 260.146c-39.0745 65.1877 -93.3676 100.854 -177.899 100.854c-99 0 -161 -53 -161 -151c0 -92 60 -144 152 -144c118 0 187 68 187 184
c0 3.40659 -0.0335993 6.7886 -0.100546 10.1462z" />
    <glyph glyph-name="exclam" unicode="!" horiz-adv-x="259" 
d="M171 229v493h-83v-493h83zM79 39h103c0 -29 -22 -42 -52 -42s-51 15 -51 42zM79 39h103c0 29 -22 43 -52 43c-29 0 -51 -16 -51 -43z" />
    <glyph glyph-name="exclamdown" unicode="&#xa1;" horiz-adv-x="259" 
d="M88 493v-493h83v493h-83zM180 682h-102c0 -28 22 -42 52 -42c29 0 50 15 50 42zM180 682h-102c0 30 21 43 52 43c29 0 50 -15 50 -43z" />
    <glyph glyph-name="f" unicode="f" horiz-adv-x="501" 
d="M268 524v99c0 71 34 119 99 119c19.2093 0 38.0345 -3.8397 56 -9.61568v-87.3843h66v126c-38 18 -80 33 -122 33c-112 0 -183 -69 -182 -181v-99h-148v-64h148v-396h-124v-64h124h42h41h124v64h-124v396h195v64h-195z" />
    <glyph glyph-name="fi" unicode="&#xfb01;" horiz-adv-x="629" 
d="M214 0h41h64v66h-64v414h172v-414h-63v-66h63h51h3h33h99v66h-99v479h-259v49c-1 91 36 163 138 163c12 0 25 -2 34 -5v-89h87v138c-44 14 -79 22 -125 22c-144.15 0 -221.038 -92.6083 -221.038 -223.926c0 -1.68493 0.0126582 -3.37624 0.037995 -5.0738v-49h-142v-65
h142v-414h-117v-66h117h46z" />
    <glyph glyph-name="five" unicode="5" horiz-adv-x="556" 
d="M169 447.31v210.69h307v64h-386v-322v-3l79 -22c20 11 58 21 90 21c99 0 161 -64 161 -164s-71 -169 -173 -169c-58 0 -101 13 -154 39l-42 -55c63 -36 121 -52 193 -52c149 0 259 92 259 237c0 141 -95 232 -239 232c-30.4069 0 -63.8958 -5.65021 -95 -16.6903z" />
    <glyph glyph-name="fl" unicode="&#xfb02;" horiz-adv-x="816" 
d="M288 0h38h94v66h-94v414h231v-414h-89v-66h89h54h4h28h149v66h-149v735c-54 14 -95 21 -151 21c-149 0 -254 -85 -252 -228v-49h-203v-65h203v-414h-148v-66h148h48zM326 545v49c0 100 68 163 170 163c5.5 0 10.75 0.0625 15.8594 0.0625
c15.3281 0 29.3906 -0.5625 45.1406 -5.0625v-207h-231z" />
    <glyph glyph-name="florin" unicode="&#x192;" horiz-adv-x="466" 
d="M459 821c-14.6786 2.87815 -28.7359 4.28594 -42.1153 4.28594c-79.5927 0 -135.195 -49.8206 -154.885 -136.286c-9.3656 -43.9966 -18.6363 -87.9931 -27.8535 -132h-95.1465v-64h81.7766c-28.5026 -136.749 -56.6818 -273.645 -85.7766 -411
c-10.5953 -49.4445 -38.3412 -81.7383 -82.5497 -81.7383c-5.86127 0 -12.0119 0.567665 -18.4503 1.73829l-15 -64c13.8042 -2.38919 27.0446 -3.56274 39.6815 -3.56274c82.5687 0 139.371 50.1015 159.318 138.563c29.4561 139.745 59.3814 279.959 89.1331 420h106.867
v64h-93.2814c9.12571 43.0319 18.2258 86.0381 27.2814 129c9.63468 46.4216 36.9142 73.6641 77.8068 73.6641c5.79484 0 11.8631 -0.547066 18.1932 -1.66415z" />
    <glyph glyph-name="four" unicode="4" horiz-adv-x="645" 
d="M356 246v-182h-126v-64h165h166v64h-123v182h160v70h-160v394h-82v-0.228665c-0.947483 0.228665 -1 0.228665 -1 0.228665c-323 -393 0 -1 -324 -394l36 -70h289zM356 316h-232.213l232.213 286.247v-286.247z" />
    <glyph glyph-name="foursuperior" unicode="&#x2074;" horiz-adv-x="519" 
d="M302 305h38h116v53h-116v68h90v56h-90v263h-76l-216 -263l33 -56h183v-68h-116v-53h116h38zM264 648.626v-166.626h-136.968z" />
    <glyph glyph-name="fraction" unicode="&#x2044;" horiz-adv-x="570" 
d="M85 -65l437 798h-78l-437 -798h78z" />
    <glyph glyph-name="g" unicode="g" horiz-adv-x="624" 
d="M194.153 -6.12563c30.2991 -8.90735 64.9662 -13.8843 100.847 -16.8744c105 -8 208 -17 208 -109c0 -85 -94 -109 -199 -109c-98 0 -180 35 -180 122c0 53.1466 27.5836 89.0535 70.1526 112.874zM132.499 22.9814
c-54.9979 -31.6304 -91.4992 -76.5512 -91.4992 -144.981c0 -131 117 -182 260 -182c149 0 280 43 277 179c0 129 -128 153 -268 163c-71 5 -137 19 -137 79c0 28.4065 11.1763 48.4307 30.1869 64.6678c29.0739 -10.3872 62.2085 -15.6678 97.8131 -15.6678
c128 0 224 64 224 185c0 34.4566 -7.58528 64.5435 -21.359 89.9292c33.8608 15.6418 67.3037 30.2918 97.359 46.0708l-37 61c-35.0074 -17.5037 -70.0148 -36.1657 -105.463 -54.6638c-38.2574 29.2615 -90.6041 44.6638 -150.537 44.6638c-129 0 -222 -70 -222 -193
c0 -57.6276 22.5617 -101.912 60.0377 -132.017c-33.9357 -25.1092 -56.0377 -56.639 -56.0377 -101.983c0 -39.9331 16.1059 -68.0774 42.4992 -88.0186zM169 348c0 78 57 126 139 126c81 0 134 -47 134 -125c0 -75 -54 -119 -133 -119c-80 0 -140 41 -140 118z" />
    <glyph glyph-name="gbreve" unicode="&#x11f;" horiz-adv-x="624" 
d="M395 772c0 -50 -35 -74 -88 -74s-87 25 -87 75h-79c0 -93 65 -138 162 -138c101 0 171 43 171 137h-79zM194.153 -6.12563c30.2991 -8.90735 64.9662 -13.8843 100.847 -16.8744c105 -8 208 -17 208 -109c0 -85 -94 -109 -199 -109c-98 0 -180 35 -180 122
c0 53.1466 27.5836 89.0535 70.1526 112.874zM132.499 22.9814c-54.9979 -31.6304 -91.4992 -76.5512 -91.4992 -144.981c0 -131 117 -182 260 -182c149 0 280 43 277 179c0 129 -128 153 -268 163c-71 5 -137 19 -137 79c0 28.4065 11.1763 48.4307 30.1869 64.6678
c29.0739 -10.3872 62.2085 -15.6678 97.8131 -15.6678c128 0 224 64 224 185c0 34.4566 -7.58528 64.5435 -21.359 89.9292c33.8608 15.6418 67.3037 30.2918 97.359 46.0708l-37 61c-35.0074 -17.5037 -70.0148 -36.1657 -105.463 -54.6638
c-38.2574 29.2615 -90.6041 44.6638 -150.537 44.6638c-129 0 -222 -70 -222 -193c0 -57.6276 22.5617 -101.912 60.0377 -132.017c-33.9357 -25.1092 -56.0377 -56.639 -56.0377 -101.983c0 -39.9331 16.1059 -68.0774 42.4992 -88.0186zM169 348c0 78 57 126 139 126
c81 0 134 -47 134 -125c0 -75 -54 -119 -133 -119c-80 0 -140 41 -140 118z" />
    <glyph glyph-name="gcommaaccent" unicode="&#x123;" horiz-adv-x="624" 
d="M344 794l-120 -197h104l97 197h-81zM194.153 -6.12563c30.2991 -8.90735 64.9662 -13.8843 100.847 -16.8744c105 -8 208 -17 208 -109c0 -85 -94 -109 -199 -109c-98 0 -180 35 -180 122c0 53.1466 27.5836 89.0535 70.1526 112.874zM132.499 22.9814
c-54.9979 -31.6304 -91.4992 -76.5512 -91.4992 -144.981c0 -131 117 -182 260 -182c149 0 280 43 277 179c0 129 -128 153 -268 163c-71 5 -137 19 -137 79c0 28.4065 11.1763 48.4307 30.1869 64.6678c29.0739 -10.3872 62.2085 -15.6678 97.8131 -15.6678
c128 0 224 64 224 185c0 34.4566 -7.58528 64.5435 -21.359 89.9292c33.8608 15.6418 67.3037 30.2918 97.359 46.0708l-37 61c-35.0074 -17.5037 -70.0148 -36.1657 -105.463 -54.6638c-38.2574 29.2615 -90.6041 44.6638 -150.537 44.6638c-129 0 -222 -70 -222 -193
c0 -57.6276 22.5617 -101.912 60.0377 -132.017c-33.9357 -25.1092 -56.0377 -56.639 -56.0377 -101.983c0 -39.9331 16.1059 -68.0774 42.4992 -88.0186zM169 348c0 78 57 126 139 126c81 0 134 -47 134 -125c0 -75 -54 -119 -133 -119c-80 0 -140 41 -140 118z" />
    <glyph glyph-name="germandbls" unicode="&#xdf;" horiz-adv-x="656" 
d="M438 81c104 23 170 84 170 199c0 90.6372 -46.7709 149.385 -124.509 179.294c56.436 28.8377 91.5094 79.0134 91.5094 153.706c0 124 -90 187 -221 187s-219 -70 -219 -196v-540h-124v-64h124h42h40h126v64h-126v540c0 81 48 132 130 132c87 0 149 -41 149 -126
s-69 -127 -161 -127v-54c102 0 195 -45 195 -153c0 -75 -50 -113 -113 -131z" />
    <glyph glyph-name="grave" unicode="`" horiz-adv-x="484" 
d="M324 591c-47 42 -123 124 -170 166h-101c47 -43 122 -123 169 -166h102z" />
    <glyph glyph-name="greater" unicode="&#x3e;" horiz-adv-x="725" 
d="M603.6 305.346l-541.6 -234.346v-70l624 270v70c-211 88 -423 176 -634 264v-70c183.549 -76.5512 367.855 -153.102 551.6 -229.654z" />
    <glyph glyph-name="greaterequal" unicode="&#x2265;" horiz-adv-x="770" 
d="M706 -1h-635v67h635v-67zM615.621 419.474c-181.12 70.9472 -362.871 141.369 -544.621 212.526v71c212 -83 424 -165 635 -248v-71v-1c-211 -82 -423 -165 -635 -247v71c181.75 70.2997 363.501 141.334 544.621 212.474z" />
    <glyph glyph-name="guillemotleft" unicode="&#xab;" horiz-adv-x="550" 
d="M67 246l200 -113v70l-137.346 77.6002l138.346 76.3998v70l-201 -111v-70zM283 246l201 -113v70l-137.573 78.0267l137.573 75.9733v70l-201 -110v-71z" />
    <glyph glyph-name="guillemotright" unicode="&#xbb;" horiz-adv-x="550" 
d="M468 246l-201 -113v70l138.033 77.6007l-139.033 76.3993v70l202 -111v-70zM251 246l-201 -113v70l137.729 78.1152l-136.729 75.8848v70l200 -110v-71z" />
    <glyph glyph-name="guilsinglleft" unicode="&#x2039;" horiz-adv-x="391" 
d="M146.127 281.621c51.3636 28.4954 91.299 57.3946 161.873 84.3788v73c-102 -40 -140 -80 -241 -120v-75c101 -40 139 -79 242 -118v72c-71.2796 26.9894 -111.43 55.4154 -162.873 83.6212z" />
    <glyph glyph-name="guilsinglright" unicode="&#x203a;" horiz-adv-x="391" 
d="M245.219 281.613c-51.7019 28.498 -91.6382 57.4001 -162.219 84.3869v73c102 -40 140 -80 242 -120v-75c-102 -40 -140 -79 -242 -118v72c70.5808 26.9868 110.517 55.41 162.219 83.6131z" />
    <glyph glyph-name="h" unicode="h" horiz-adv-x="732" 
d="M218 452.742v347.258h-41h-42h-123l-1 -64h124v-672h-123l-1 -64h124h42h41h106v64h-106v300.6c37.3724 63.4181 99.3312 108.4 172 108.4c88 0 127 -56 127 -148v-261h-107v-64h107h40h43h123v64h-123v268c0 131 -64 205 -194 205
c-73.8002 0 -141.299 -31.5085 -188 -84.2579z" />
    <glyph glyph-name="hungarumlaut" unicode="&#x2dd;" horiz-adv-x="536" 
d="M335 654l120 197h-104l-98 -197h82zM159 654l120 197h-104l-97 -197h81z" />
    <glyph glyph-name="hyphen" unicode="-" horiz-adv-x="451" 
d="M76 242h299v71h-299v-71z" />
    <glyph glyph-name="i" unicode="i" horiz-adv-x="368" 
d="M150 670h98c0 28 -22 42 -50 42c-29 0 -48 -16 -48 -42zM150 670h98c0 -28 -21 -41 -50 -41s-48 14 -48 41zM156 469v-405l-122 -2.84217e-14l-1 -64h123h43h44h112v64h-112v469h-44h-43h-122l-1 -64h123z" />
    <glyph glyph-name="iacute" unicode="&#xed;" horiz-adv-x="388" 
d="M181 639c47 43 123 124 169 166h-101c-47 -42 -122 -123 -169 -166h101zM156 469v-405l-122 -2.84217e-14l-1 -64h123h43h44h112v64h-112v469h-44h-43h-122l-1 -64h123z" />
    <glyph glyph-name="icircumflex" unicode="&#xee;" horiz-adv-x="497" 
d="M490 645c-47 42 -123 123 -170 166h-16h-85h-16c-47 -43 -122 -124 -169 -166h101c34.4698 30.8028 84 82.5826 126.5 124.965c42.5 -42.3823 92.0302 -94.1621 126.5 -124.965h102zM219 469v-405l-123 -2.84217e-14v-64h123h43h44h111v64h-111v469h-44h-43h-123v-64h123
z" />
    <glyph glyph-name="idieresis" unicode="&#xef;" horiz-adv-x="403" 
d="M248 669h100c0 28 -21 43 -51 43c-29 0 -49 -16 -49 -43zM248 669h100c0 -29 -21 -42 -51 -42s-49 14 -49 42zM80 669h101c0 28 -22 43 -52 43c-29 0 -49 -16 -49 -43zM80 669h101c0 -29 -22 -42 -52 -42c-29 0 -49 14 -49 42zM171 469v-405l-122 -2.84217e-14v-64h122
h43h44h112v64h-112v469h-44h-43h-122v-64h122z" />
    <glyph glyph-name="igrave" unicode="&#xec;" horiz-adv-x="386" 
d="M325 639c-47 42 -123 123 -170 166h-101c47 -43 122 -124 169 -166h102zM172 469v-405l-122 -2.84217e-14l-1 -64h123h43h44h112v64h-112v469h-44h-43h-122l-1 -64h123z" />
    <glyph glyph-name="imacron" unicode="&#x12b;" horiz-adv-x="368" 
d="M311 702h-231v-63h231v63zM156 469v-405l-122 -2.84217e-14l-1 -64h123h43h44h112v64h-112v469h-44h-43h-122l-1 -64h123z" />
    <glyph glyph-name="infinity" unicode="&#x221e;" horiz-adv-x="925" 
d="M411.898 403.938c-34.6058 -61.124 -72.1617 -119.938 -139.898 -119.938c-70 0 -124 50 -124 118s57 113 126 113c64.0979 0 104.42 -52.3078 137.898 -111.062zM455.589 473.321c-45.1313 61.0198 -104.028 105.679 -181.589 105.679c-111 0 -206 -70 -206 -177
c0 -108 91 -182 204 -182c79.2011 0 136.402 50.6678 181.4 116.076c47.0914 -65.602 108.651 -115.076 189.6 -115.076c116 0 215 70 215 180c0 108 -100 176 -215 176c-78.2257 0 -140.516 -42.4949 -187.411 -103.679zM496.7 407.581
c35.1599 57.6368 80.8211 106.419 146.3 106.419c71 0 134 -43 134 -112c0 -71 -62 -117 -134 -117c-69.7939 0 -109.964 59.2485 -146.3 122.581z" />
    <glyph glyph-name="integral" unicode="&#x222b;" horiz-adv-x="468" 
d="M454 821c-14.6786 2.87815 -28.7359 4.28594 -42.1153 4.28594c-79.5927 0 -135.195 -49.8206 -154.885 -136.286c-42 -202 -84 -404 -127 -607c-10.5953 -49.4445 -39.1208 -81.7383 -82.1351 -81.7383c-5.70295 0 -11.6606 0.567665 -17.8649 1.73829l-16 -64
c13.8042 -2.38919 27.0446 -3.56274 39.6815 -3.56274c82.5687 0 139.371 50.1015 159.318 138.563c43 204 87 408 130 613c9.63468 46.4216 38.4485 73.6641 78.3782 73.6641c5.65838 0 11.54 -0.547066 17.6218 -1.66415z" />
    <glyph glyph-name="iogonek" unicode="&#x12f;" horiz-adv-x="368" 
d="M150 670h98c0 28 -22 42 -50 42c-29 0 -48 -16 -48 -42zM150 670h98c0 -28 -21 -41 -50 -41s-48 14 -48 41zM156 469v-405l-122 -2.84217e-14l-1 -64h80.8388c-17.2795 -16.8771 -27.8388 -38.2148 -27.8388 -68c0 -69 46 -111 117 -111c38 0 64 13 96 32
c-36 47 -2 2 -38 49c-18 -10 -32 -18 -52 -18c-30 0 -49 19 -49 49c0 36.3474 28.661 51.5403 62.3068 67h20.6932h112v64h-112v469h-44h-43h-122l-1 -64h123z" />
    <glyph glyph-name="j" unicode="j" horiz-adv-x="331" 
d="M14 -302c9 -1 20 -2 33 -2c111 0 193 64 193 173v664h-42h-41h-125v-64h125.026c0.157537 -199.833 0.973865 -400.325 0.973865 -600c0 -65 -43 -111 -108 -111c-8 0 -18 1 -24 2c-12 -61 -1 -1 -12 -62zM151 670h98c0 -28 -21 -41 -50 -41s-48 14 -48 41zM151 670h98
c0 28 -21 42 -50 42c-28 0 -48 -16 -48 -42z" />
    <glyph glyph-name="k" unicode="k" horiz-adv-x="726" 
d="M254 273c75.4214 49.7782 184.973 130.842 277.172 196h1.82781h147v64h-147h-7h-188v-64h81.4067c-64.2778 -46.3932 -137.134 -101.22 -200.407 -146.624l-2.84217e-14 477.624h-40h-43h-123v-64h123v-672h-125v-64h125h41h42h91v64h-91v159.305
c99.8762 -72.2364 223.404 -168.371 307 -223.305h13h102h75v64h-167.499c-98.406 69.884 -214.774 156.097 -294.501 209z" />
    <glyph glyph-name="kcommaaccent" unicode="&#x137;" horiz-adv-x="726" 
d="M345 -291l121 197h-104l-98 -197h81zM254 273c75.4214 49.7782 184.973 130.842 277.172 196h1.82781h147v64h-147h-7h-191v-64h84.4067c-64.2778 -46.3932 -137.134 -101.22 -200.407 -146.624l-2.84217e-14 477.624h-40h-43h-123v-64h123v-672h-125v-64h125h41h42h95
v64h-95v159.305c99.8762 -72.2364 223.404 -168.371 307 -223.305h13h102h75v64h-167.499c-98.406 69.884 -214.774 156.097 -294.501 209z" />
    <glyph glyph-name="l" unicode="l" horiz-adv-x="355" 
d="M218 64v736h-38h-44h-122v-64h122v-672h-124v-64h124h42h40h126v64h-126z" />
    <glyph glyph-name="lacute" unicode="&#x13a;" horiz-adv-x="367" 
d="M150 870c47 43 122 124 169 166h-101c-47 -42 -123 -123 -169 -166h101zM220 64v736h-38h-44h-121l-1 -64h122v-672h-124v-64h124h42h40h126v64h-126z" />
    <glyph glyph-name="lcaron" unicode="&#x13e;" horiz-adv-x="498" 
d="M367 613l120 198h-104l-97 -198h81zM218 64v736h-38h-44h-122v-64h122v-672h-124v-64h124h42h40h126v64h-126z" />
    <glyph glyph-name="lcommaaccent" unicode="&#x13c;" horiz-adv-x="355" 
d="M149 -285l120 197h-104l-98 -197h82zM218 64v736h-38h-44h-122v-64h122v-672h-124v-64h124h42h40h126v64h-126z" />
    <glyph glyph-name="less" unicode="&#x3c;" horiz-adv-x="726" 
d="M121.4 300.654l541.6 234.346v70l-624 -270v-70c211 -88 423 -176 634 -264v70c-183.549 76.5512 -367.855 153.102 -551.6 229.654z" />
    <glyph glyph-name="lessequal" unicode="&#x2264;" horiz-adv-x="770" 
d="M64 -1h634v67h-634v-67zM154.376 419.474c181.103 70.9472 362.731 141.369 543.624 212.526v71c-211 -83 -423 -165 -634 -248v-71v-1c211 -82 423 -165 634 -247v71c-180.893 70.2997 -362.521 141.334 -543.624 212.474z" />
    <glyph glyph-name="litre" horiz-adv-x="383" 
d="M232 64v736h-38h-45h-121v-64h121v-672h-123v-64h123h42h41h125v64h-125z" />
    <glyph glyph-name="logicalnot" unicode="&#xac;" horiz-adv-x="694" 
d="M537 347h-442v-71h442v-130h80v130v71h-80z" />
    <glyph glyph-name="logo" horiz-adv-x="1977" 
d="M1465 55c72 -40 136 -60 218 -60c147 0 260 51 260 185c0 123 -99 167 -213 219c-87 39 -170 70 -170 152c-1 75 58 112 137 112c56.8072 0 102.448 -16.7494 148 -38.5879v-95.4121h65v133c-70 39 -128 62 -210 62c-128 0 -223 -57 -223 -176c0 -115 94 -157 202 -206
c93 -41 181 -75 181 -162c0 -79 -73 -118 -169 -118c-61.2304 0 -109.074 16.5369 -161 43.3216v87.6784h-66v-138h1zM917 722h-39h-44h-122v-64h122v-594h-122v-64h122h44h39h157c234 0 360 122 360 353c0 241 -129 369 -369 369h-148zM917 658h144
c194 0 291 -111 291 -307c0 -184 -90 -287 -271 -287h-164v594zM313 654v-590h-126v-64h126h40h43h123v64h-123v590h210v-85h66v85v35v33h-635c0 -22.7411 -0.105542 -30.4952 -0.248051 -33h-0.751949v-35v-85h66v85h211z" />
    <glyph glyph-name="lozenge" unicode="&#x25ca;" horiz-adv-x="536" 
d="M226 136h-1c-59 108 -119 216 -178 324h83c45.4079 -83.1195 91.408 -166.239 137.089 -249.358c45.9458 83.0352 93.6077 167.966 138.911 249.358h83c-59 105 -121 217 -180 323h-1h-82h-1c-59 -108 -119 -215 -178 -323h83
c45.3967 83.099 91.3854 165.606 137.055 248.432c45.9562 -83.0133 93.6304 -167.787 138.945 -248.432h83c-59 -106 -121 -218 -180 -324h-1h-82z" />
    <glyph glyph-name="lslash" unicode="&#x142;" horiz-adv-x="360" 
d="M221 64v343.665c36.0679 30.4132 72.0997 60.874 108 91.3349v72c-35.9003 -30.4609 -71.9321 -60.7902 -108 -91.0357v320.036h-38h-44h-121v-64h121v-324.658c-36.0679 -30.1459 -72.0997 -60.2441 -108 -90.3424v-73c35.9003 30.0982 71.9321 60.3279 108 90.6415
v-274.641h-123v-64h123h42h40h126v64h-126z" />
    <glyph glyph-name="m" unicode="m" horiz-adv-x="1055" 
d="M240 455.684v77.3159h-41h-42h-123l-1 -64h124v-405l-123 -2.84217e-14l-1 -64h124h42h41h94v64h-94v304.017c32.1187 61.0677 76.9462 103.983 146 103.983c88 0 112 -53 112 -147v-261h-94v-64h94h41h42h93v64h-93v268c0 12.2537 -0.356515 23.9895 -1.10552 35.199
c32.5746 60.9689 78.7081 104.801 147.106 104.801c88 0 111 -53 111 -147v-261h-92v-64h92h43h40h125v64h-125v268c0 133 -42 205 -172 205c-79.2662 0 -140.023 -37.0187 -181.886 -97.9804c-21.2246 64.1387 -68.9883 97.9804 -158.114 97.9804
c-73.0469 0 -128.014 -29.5456 -169 -81.3159z" />
    <glyph glyph-name="macron" unicode="&#xaf;" horiz-adv-x="347" 
d="M254 683h-230v-64h230v64z" />
    <glyph glyph-name="macronmod" horiz-adv-x="332" 
d="M281 683h-231v-64h231v64z" />
    <glyph glyph-name="minus" unicode="&#x2212;" horiz-adv-x="722" 
d="M77 276h568v71h-568v-71z" />
    <glyph glyph-name="multiply" unicode="&#xd7;" horiz-adv-x="590" 
d="M295.281 361.281l-175.281 175.719l-50 -50l175.5 -175.5l-175.5 -175.5c28 -29 21 -21 49 -50l176.219 175.781l175.781 -175.781c28 29 21 21 49 50l-175 175.438l176 175.562l-50 50z" />
    <glyph glyph-name="mumath" horiz-adv-x="762" 
d="M529 165.546c-36.28 -55.092 -92.3226 -104.546 -157 -104.546c-91 0 -135 51 -135 142v330h-41h-42h-124v-64h124v-270v-499h83v324.134c32.4963 -19.2674 74.3012 -29.1342 125 -29.1342c66.9975 0 124.569 35.0116 167 84.2844v-79.2844h41h41h114v64h-114v469h-41
h-41h-125v-64h125v-303.454z" />
    <glyph glyph-name="n" unicode="n" horiz-adv-x="754" 
d="M157 469v-405l-124 -2.84217e-14v-64h124h42h41h104v64h-104v301.777c36.9836 61.4545 96.7455 106.223 167 106.223c89 0 132 -55 132 -147v-261h-106v-64h106h40h43h123v64h-123v268c0 130 -63 205 -193 205c-75.8122 0 -141.649 -31.8249 -189 -87.2905v83.2905h-41
h-42h-124v-64h124z" />
    <glyph glyph-name="nacute" unicode="&#x144;" horiz-adv-x="754" 
d="M374 638c47 43 122 124 169 166h-101c-47 -42 -123 -123 -169 -166h101zM157 469v-405l-124 -2.84217e-14v-64h124h42h41h104v64h-104v301.777c36.9836 61.4545 96.7455 106.223 167 106.223c89 0 132 -55 132 -147v-261h-106v-64h106h40h43h123v64h-123v268
c0 130 -63 205 -193 205c-75.8122 0 -141.649 -31.8249 -189 -87.2905v83.2905h-41h-42h-124v-64h124z" />
    <glyph glyph-name="ncaron" unicode="&#x148;" horiz-adv-x="754" 
d="M168 805c47 -42 122 -123 169 -166h16h85h16c48 43 123 124 170 166h-102c-34.4698 -30.8028 -84 -82.5826 -126.5 -124.965c-42.5 42.3823 -92.0302 94.1621 -126.5 124.965h-101zM157 469v-405l-124 -2.84217e-14v-64h124h42h41h104v64h-104v301.777
c36.9836 61.4545 96.7455 106.223 167 106.223c89 0 132 -55 132 -147v-261h-106v-64h106h40h43h123v64h-123v268c0 130 -63 205 -193 205c-75.8122 0 -141.649 -31.8249 -189 -87.2905v83.2905h-41h-42h-124v-64h124z" />
    <glyph glyph-name="ncommaaccent" unicode="&#x146;" horiz-adv-x="754" 
d="M380 -284l120 197h-104l-97 -197h81zM157 469v-405l-124 -2.84217e-14v-64h124h42h41h104v64h-104v301.777c36.9836 61.4545 96.7455 106.223 167 106.223c89 0 132 -55 132 -147v-261h-106v-64h106h40h43h123v64h-123v268c0 130 -63 205 -193 205
c-75.8122 0 -141.649 -31.8249 -189 -87.2905v83.2905h-41h-42h-124v-64h124z" />
    <glyph glyph-name="nine" unicode="9" horiz-adv-x="617" 
d="M467.714 358.74c-44.9304 -164.772 -192.307 -254.267 -391.714 -304.74c9.82255 -28.6135 11.0729 -32.7872 11.0729 -33.396c0 -0.816734 0 -1.77294 10.9271 -33.604c271 64 463 209 463 488c0 161 -99 255 -263 255c-146 0 -237 -80 -237 -222
c0 -140 92 -215 235 -215c73.527 0 129.408 24.2198 171.714 65.7398zM481.878 460.818c-39.0729 -65.165 -93.3617 -100.818 -177.878 -100.818c-100 0 -162 53 -162 151c0 92 60 144 153 144c117 0 187 -68 187 -183c0 -3.75714 -0.0407759 -7.48438 -0.121982 -11.182z
" />
    <glyph glyph-name="notequal" unicode="&#x2260;" horiz-adv-x="781" 
d="M275.323 184l-102.323 -183h77l102.323 183h361.677v67h-324.215l86.6667 155h237.548v67h-200.086l100.086 179h-77l-100.086 -179h-367.914v-67h330.452l-86.6667 -155h-243.785v-67h206.323z" />
    <glyph glyph-name="ntilde" unicode="&#xf1;" horiz-adv-x="754" 
d="M569 790c-14 -45 -30 -84 -67 -84c-35 0 -56 15 -81 40c-33 31 -59 48 -104 48c-75 0 -111 -51 -129 -125c56 -25 0 -1 56 -25c15 48 32 86 76 86c32 0 48 -18 70 -40c34 -33 65 -51 112 -51c74 0 104 57 125 125c-58 25 0 0 -58 26zM157 469v-405l-124 -2.84217e-14v-64
h124h42h41h104v64h-104v301.777c36.9836 61.4545 96.7455 106.223 167 106.223c89 0 132 -55 132 -147v-261h-106v-64h106h40h43h123v64h-123v268c0 130 -63 205 -193 205c-75.8122 0 -141.649 -31.8249 -189 -87.2905v83.2905h-41h-42h-124v-64h124z" />
    <glyph glyph-name="nullsuperior" horiz-adv-x="536" 
d="M69 515c0 -131 70 -217 198 -217c129 0 200 87 200 220c0 129 -71 211 -198 211c-128 0 -200 -84 -200 -214zM144 515c0 89 38 152 122 152c0.665569 0.00783022 1.32826 0.0117365 1.98807 0.0117365c83.6047 0 121.012 -62.7165 121.012 -152.012
c0 -90 -35 -155 -118 -155c-87 0 -127 63 -127 155z" />
    <glyph glyph-name="numbersign" unicode="#" horiz-adv-x="703" 
d="M586.293 526l63.7072 196h-83l-63.7072 -196h-202.08l63.787 196h-83l-62.6272 -196h-78.3728l-20 -64h77.9231l-52.7219 -165h-77.2012l-22 -64h78.7515l-59.7515 -187h79l60.858 187l202.199 -2.84217e-14l-63.0571 -194h83l63.0571 194h65.9429l21 64h-66.1406
l53.631 165h64.5095l21 64h-64.7072zM482.49 462l-53.631 -165h-202.173l53.6982 165h202.106z" />
    <glyph glyph-name="o" unicode="o" horiz-adv-x="640" 
d="M58 267c0 -168 93 -272 260 -272c169 0 264 101 264 271c0 167 -94 272 -263 272c-168 0 -261 -105 -261 -271zM138 267c0 122 59 206 177 206c123 0 184 -84 184 -207c0 -125 -59 -206 -177 -206c-125 0 -184 82 -184 207z" />
    <glyph glyph-name="oacute" unicode="&#xf3;" horiz-adv-x="640" 
d="M296 638c47 43 122 123 169 166h-101c-47 -42 -122 -124 -169 -166h101zM58 267c0 -168 93 -272 260 -272c169 0 264 101 264 271c0 167 -94 272 -263 272c-168 0 -261 -105 -261 -271zM138 267c0 122 59 206 177 206c123 0 184 -84 184 -207c0 -125 -59 -206 -177 -206
c-125 0 -184 82 -184 207z" />
    <glyph glyph-name="ocircumflex" unicode="&#xf4;" horiz-adv-x="640" 
d="M546 646c-46 42 -122 123 -169 166h-16h-85h-16c-47 -43 -123 -124 -169 -166h101c34.4698 30.8028 84 82.5826 126.5 124.965c42.5 -42.3823 92.0302 -94.1621 126.5 -124.965h101zM58 267c0 -168 93 -272 260 -272c169 0 264 101 264 271c0 167 -94 272 -263 272
c-168 0 -261 -105 -261 -271zM138 267c0 122 59 206 177 206c123 0 184 -84 184 -207c0 -125 -59 -206 -177 -206c-125 0 -184 82 -184 207z" />
    <glyph glyph-name="odieresis" unicode="&#xf6;" horiz-adv-x="640" 
d="M352 669h101c0 28 -22 43 -51 43c-30 0 -50 -16 -50 -43zM352 669h101c0 -29 -22 -42 -52 -42c-29 0 -49 14 -49 42zM185 669h100c0 28 -22 43 -51 43c-30 0 -49 -16 -49 -43zM185 669h100c0 -29 -21 -42 -52 -42c-29 0 -48 14 -48 42zM58 267c0 -168 93 -272 260 -272
c169 0 264 101 264 271c0 167 -94 272 -263 272c-168 0 -261 -105 -261 -271zM138 267c0 122 59 206 177 206c123 0 184 -84 184 -207c0 -125 -59 -206 -177 -206c-125 0 -184 82 -184 207z" />
    <glyph glyph-name="oe" unicode="&#x153;" horiz-adv-x="1035" 
d="M896.924 311h-310.714c8.06443 99.2465 56.7429 162 155.789 162c100.733 0 152.686 -59.3007 154.924 -162zM585.948 251l390.052 2.84217e-14v47c0 153 -81 240 -229 240c-99.6457 0 -170.202 -36.459 -209.253 -103.58
c-43.3462 65.982 -117.619 103.58 -218.747 103.58c-168 0 -261 -105 -261 -271c0 -168 93 -272 260 -272c105.905 0 182.75 39.6625 225.368 111.113c43.3042 -71.9994 119.925 -111.113 226.632 -111.113c80 0 132 25 191 77l-49 48c-45 -39 -82 -60 -142 -60
c-117.647 0 -176.083 72.9408 -184.052 191zM138 267c0 122 59 206 177 206c123 0 184 -84 184 -207c0 -125 -59 -206 -177 -206c-125 0 -184 82 -184 207z" />
    <glyph glyph-name="ogonek" unicode="&#x2db;" horiz-adv-x="322" 
d="M153 51c-69 -28 -128 -51 -128 -122c0 -69 46 -111 116 -111c39 0 64 13 97 31c-36 48 -3 2 -39 50c-17 -10 -31 -18 -51 -18c-31 0 -50 18 -50 48c0 44 42 57 85 78c-29 42 -2 2 -30 44z" />
    <glyph glyph-name="ograve" unicode="&#xf2;" horiz-adv-x="640" 
d="M439 638c-47 42 -122 123 -169 166h-102c47 -43 123 -124 169 -166h102zM58 267c0 -168 93 -272 260 -272c169 0 264 101 264 271c0 167 -94 272 -263 272c-168 0 -261 -105 -261 -271zM138 267c0 122 59 206 177 206c123 0 184 -84 184 -207c0 -125 -59 -206 -177 -206
c-125 0 -184 82 -184 207z" />
    <glyph glyph-name="ohungarumlaut" unicode="&#x151;" horiz-adv-x="644" 
d="M422 606l121 198h-104l-98 -198h81zM247 606l120 198h-104l-97 -198h81zM58 267c0 -168 93 -272 260 -272c169 0 264 101 264 271c0 167 -94 272 -263 272c-168 0 -261 -105 -261 -271zM138 267c0 122 59 206 177 206c123 0 184 -84 184 -207c0 -125 -59 -206 -177 -206
c-125 0 -184 82 -184 207z" />
    <glyph glyph-name="omacron" unicode="&#x14d;" horiz-adv-x="640" 
d="M430 703h-231v-64h231v64zM58 267c0 -168 93 -272 260 -272c169 0 264 101 264 271c0 167 -94 272 -263 272c-168 0 -261 -105 -261 -271zM138 267c0 122 59 206 177 206c123 0 184 -84 184 -207c0 -125 -59 -206 -177 -206c-125 0 -184 82 -184 207z" />
    <glyph glyph-name="omegamath" horiz-adv-x="823" 
d="M655.395 64c70.9037 76.1577 103.605 167.796 103.605 285c0 225 -126 378 -345 378c-223 0 -351 -154 -351 -381c0 -116.813 34.5679 -204.516 104.648 -282l-136.648 -2.84217e-14v-64h205l45 64c-93 77 -135 161 -135 282c0 183 90 317 260 317
c173 0 270 -130 270 -314c0 -124 -45 -211 -143 -285l49 -64h208v64h-134.605z" />
    <glyph glyph-name="one" unicode="1" horiz-adv-x="481" 
d="M245 722l-202 -162l40 -55l162 126v-567h-122v-64h122h44h39h126v64h-126v658h-83z" />
    <glyph glyph-name="onehalf" unicode="&#xbd;" horiz-adv-x="1065" 
d="M741 238c24 40 54 64 102 64c51 0 85 -26 85 -73c0 -46 -32 -67 -67 -97c-65 -47 -130 -94 -195 -140v-59h5h354v130h-58v-71h-201.858c49.4921 31.4094 96.0956 62.0126 138.858 93c54 45 99 78 99 146c0 86 -64 130 -154 130c-75 0 -127 -25 -162 -93zM346 -65l437 798
h-78l-437 -798h78zM166 736l-126 -106l38 -43l88 76.7317v-290.732h-87v-56h87c32.0166 24.855 37.0579 28.2362 37.8517 28.2362c0 0 -0.102312 -0.126686 -0.102312 -0.206102c0 -0.0362567 0.0213246 -0.0626614 0.0834448 -0.0626614
c0.653457 0 5.82112 2.92179 38.1672 28.0326c-32.0166 -24.855 -37.0579 -28.2362 -37.8517 -28.2362c0 0 4.00805 4.96287 -38.1483 -27.7638h159v56h-83v357v6h-76z" />
    <glyph glyph-name="onequarter" unicode="&#xbc;" horiz-adv-x="1024" 
d="M336 -65l437 798h-78l-437 -798h78zM843 -69h154v54h-116v67h90v57h-90v262h-76l-215 -262l32 -57h183v-67h-116v-54h154zM805 274.626v-165.626h-136.146zM169 736l-127 -106l38 -43l89 77.6037v-291.604h-88v-56h87h1h159v56h-84v357v6h-75zM206.354 345.236
c0.202668 0 0.12477 -0.226323 0.154711 -0.365656l9.35643e-11 -3.82818e-09c-0.171142 -0.0762955 -0.284663 -0.106721 -0.359963 -0.106721c0 0 0.854391 1.05793 -2.37483 -1.02408c1.69788 1.17469 2.33842 1.49646 2.58008 1.49646zM203.774 343.74
l5.32818e-06 3.55942e-06z" />
    <glyph glyph-name="onesuperior" unicode="&#xb9;" horiz-adv-x="418" 
d="M197 724l-127 -105l39 -44l88 77.7423v-291.742h-87v-56h87c32.0166 24.855 37.0579 28.2362 37.8517 28.2362c0 0 -0.102312 -0.126686 -0.102312 -0.206102c0 -0.0362567 0.0213246 -0.0626614 0.0834448 -0.0626614c0.653457 0 5.82112 2.92179 38.1672 28.0326
c-32.0166 -24.855 -37.0579 -28.2362 -37.8517 -28.2362c0 0 4.00805 4.96287 -38.1483 -27.7638h159v56h-83v363h-76z" />
    <glyph glyph-name="ordfeminine" unicode="&#xaa;" horiz-adv-x="496" 
d="M302 638.579c-35.1139 -3.63464 -63.8441 -5.88025 -103 -10.579c-75 -9 -129 -35 -129 -104c0 -68 50 -101 127 -101c44.8154 0 76.8814 17.1319 105 42.5939v-38.5939h41h29h55v46h-55v201c0 73 -63 97 -145 97c-59 0 -106 -21 -141 -52v-71h47v39.2506
c22.9121 16.8174 51.2765 30.7494 88 30.7494c46 0 81 -14 81 -61v-18.421zM302 525.683c-25.785 -30.3217 -52.8291 -52.6831 -95 -52.6831c-42 0 -71 17 -71 53c0 34 28 50 64 55c39.728 4.584 67.7821 8.00061 102 12.0336v-67.3505z" />
    <glyph glyph-name="ordmasculine" unicode="&#xba;" horiz-adv-x="486" 
d="M69 601c0 -112 63 -180 175 -180c109 0 173 68 173 179c0 107 -63 173 -173 173c-111 0 -175 -66 -175 -172zM138 601c0 68 35 114 103 114s105 -46 105 -115c0 -73 -34 -121 -99 -121c-73 0 -109 48 -109 122z" />
    <glyph glyph-name="oslash" unicode="&#xf8;" horiz-adv-x="640" 
d="M58 267c0 -106.095 37.0895 -186.665 106.483 -231.638l-44.4832 -81.3623l52 -31l47.5559 86.4044c29.169 -9.46492 62.0492 -14.4044 98.4441 -14.4044c169 0 264 101 264 271c0 100.32 -33.9212 178.267 -97.6449 224.518l42.6449 77.4816l-56 28l-41.6797 -76.2347
c-32.0962 11.9464 -68.9624 18.2347 -110.32 18.2347c-168 0 -261 -105 -261 -271zM138 267c0 122 59 206 177 206c30.7085 0 57.5525 -5.23584 80.5474 -15.0072l-195.832 -358.189c-41.6077 35.9046 -61.7152 94.2231 -61.7152 167.196zM446.941 422.54
c34.7566 -36.5855 52.0593 -91.0316 52.0593 -156.54c0 -125 -59 -206 -177 -206c-25.7968 0 -48.7826 3.49241 -69.019 10.1344z" />
    <glyph glyph-name="otilde" unicode="&#xf5;" horiz-adv-x="640" 
d="M479 790c-14 -45 -29 -84 -67 -84c-35 0 -55 15 -81 40c-32 31 -59 48 -103 48c-75 0 -111 -51 -130 -125c56 -25 0 -1 56 -25c15 48 33 86 76 86c32 0 49 -18 71 -40c34 -33 64 -51 111 -51c75 0 104 57 125 125c-57 25 0 0 -58 26zM58 267c0 -168 93 -272 260 -272
c169 0 264 101 264 271c0 167 -94 272 -263 272c-168 0 -261 -105 -261 -271zM138 267c0 122 59 206 177 206c123 0 184 -84 184 -207c0 -125 -59 -206 -177 -206c-125 0 -184 82 -184 207z" />
    <glyph glyph-name="p" unicode="p" horiz-adv-x="706" 
d="M218 478.532v54.4677h-41h-42h-123v-64h123v-705h-124v-64h124h41h42h114v64h-114v291.412c53.1778 -40.0126 108.731 -60.4122 182 -60.4122c160 0 248 114 248 278c0 154 -88 266 -246 266c-71.827 0 -135.873 -26.26 -184 -60.4677zM218 129.623v277.18
c40.6343 35.5647 102.897 67.1967 175 67.1967c117 0 172 -88 172 -204c0.0715505 -2.95742 0.107265 -5.89436 0.107265 -8.8101c0 -118.649 -59.1384 -202.198 -169.188 -202.198c-0.638103 0 -1.27792 0.00280898 -1.91944 0.00843639
c-72.6255 0 -119.897 25.3539 -176 70.6233z" />
    <glyph glyph-name="paragraph" unicode="&#xb6;" horiz-adv-x="766" 
d="M693 0v722h-72h-11h-112h-43h-3h-37h-98c-160 0 -274 -83 -274 -235c0 -145 106 -220 256 -222c42.184 0 79.2758 9.25854 116 23.0511v-224.051h-126v-64h126h40h43h112h11h72zM415 658v-303.271c-39.976 -17.0534 -75.6134 -26.7293 -123 -26.7293
c-100 0 -166 57 -166 156c0 114 83 174 202 174h87zM498 64v594h112v-594h-112z" />
    <glyph glyph-name="parenleft" unicode="(" horiz-adv-x="385" 
d="M367 -221c-163 161 -233 317 -233 547s71 385 232 549l-50 42c-177 -175 -263 -340 -263 -591c0 -252 87 -416 264 -592z" />
    <glyph glyph-name="parenright" unicode=")" horiz-adv-x="396" 
d="M66 -280c181 183 279 348 279 608c0 254 -91 417 -275 590l-49 -45c165 -162 241 -316 241 -548c0 -237 -85 -392 -246 -564z" />
    <glyph glyph-name="partialdiff" unicode="&#x2202;" horiz-adv-x="592" 
d="M450.304 367.247c0.48629 16.0564 0.696468 32.3425 0.696468 48.7531c0 134 -37 248 -156 248c-44 0 -75 -18 -109 -39l-41 47c52 36 94 56 154 56c161 0 228 -138 228 -312c0 -227 -54 -421 -256 -421c-134 0 -218 85 -218 218c0 139 87 227 227 227
c73.5518 0 131.585 -26.0851 170.304 -72.7531zM442.904 269.561c-24.5709 68.0576 -79.1556 110.439 -158.904 110.439c-91 0 -151 -62 -151 -157s51 -164 141 -164c108.81 0.725401 152.897 90.3796 168.904 210.561z" />
    <glyph glyph-name="percent" unicode="%" horiz-adv-x="1108" 
d="M385 -65l437 798h-79l-436 -798h78zM670 146c0 -131 71 -217 198 -217c130 0 201 87 201 219c0 129 -71 212 -198 212c-129 0 -201 -84 -201 -214zM745 146c0 89 38 152 122 152c0.665528 0.00782974 1.32817 0.011736 1.98794 0.011736
c83.6048 0 121.012 -62.7242 121.012 -153.012c0 -89 -34 -155 -118 -155c-87 0 -127 64 -127 156zM39 523c0 -131 70 -216 198 -216c129 0 200 86 200 219c0 129 -71 211 -198 211c-128 0 -200 -83 -200 -214zM114 523c0 89 38 153 122 153
c0.655362 0.00771014 1.30793 0.0115563 1.95771 0.0115563c83.626 0 121.042 -63.7055 121.042 -153.012c0 -90 -35 -155 -118 -155c-87 0 -127 64 -127 155z" />
    <glyph glyph-name="period" unicode="." horiz-adv-x="248" 
d="M74 36h100c0 28 -21 42 -51 42c-29 0 -49 -15 -49 -42zM74 36h100c0 -29 -21 -43 -51 -43s-49 15 -49 43z" />
    <glyph glyph-name="periodcentered" unicode="&#xb7;" horiz-adv-x="251" 
d="M75 440h101c0 28 -22 43 -51 43c-30 0 -50 -16 -50 -43zM75 440h101c0 -29 -22 -42 -52 -42c-29 0 -49 14 -49 42z" />
    <glyph glyph-name="perthousand" unicode="&#x2030;" horiz-adv-x="1560" 
d="M387 -65l437 798h-78l-437 -798h78zM1125 146c0 -131 70 -217 198 -217c129 0 200 87 200 219c0 129 -71 212 -198 212c-128 0 -200 -84 -200 -214zM1200 146c0 89 38 152 122 152c0.665528 0.00782974 1.32817 0.011736 1.98794 0.011736
c83.6048 0 121.012 -62.7242 121.012 -153.012c0 -89 -35 -155 -119 -155c-87 0 -126 64 -126 156zM673 146c0 -131 70 -217 198 -217c129 0 200 87 200 219c0 129 -71 212 -198 212c-128 0 -200 -84 -200 -214zM748 146c0 89 38 152 122 152
c0.657698 0.00782974 1.31264 0.011736 1.96482 0.011736c82.6435 0 121.035 -62.7242 121.035 -153.012c0 -89 -35 -155 -119 -155c-87 0 -126 64 -126 156zM39 523c0 -131 70 -216 198 -216c129 0 200 86 200 219c0 129 -71 211 -198 211c-128 0 -200 -83 -200 -214z
M114 523c0 89 38 153 122 153c0.655362 0.00771014 1.30793 0.0115563 1.95771 0.0115563c83.626 0 121.042 -63.7055 121.042 -153.012c0 -90 -35 -155 -118 -155c-87 0 -127 64 -127 155z" />
    <glyph glyph-name="pi" unicode="&#x3c0;" horiz-adv-x="615" 
d="M202 518h210v-491h78v491h102v70h-572v-70h104v-491h78v491z" />
    <glyph glyph-name="plus" unicode="+" horiz-adv-x="670" 
d="M374 347v239h-79v-239h-244v-71h244v-249h79v249h245v71h-245z" />
    <glyph glyph-name="plusminus" unicode="&#xb1;" horiz-adv-x="697" 
d="M387 347v239h-78v-239h-244v-71h244v-179h-244v-70h244h78h245v70h-245v179h245v71h-245z" />
    <glyph glyph-name="product" unicode="&#x220f;" horiz-adv-x="906" 
d="M235 800h-25h-45h-121v-64h121v-672h-123v-64h123h43h40h125v64h-125v672h408v-672h-124v-64h124h41h41h125v64h-125v672h124v64h-124h-18h-26h-38h-408h-13z" />
    <glyph glyph-name="q" unicode="q" horiz-adv-x="701" 
d="M489 417.772v-283.634c-46.1373 -46.4515 -106.08 -75.1389 -173 -75.1389c-117 0 -177 87 -177 208c0 119 59 206 176 206c61.7906 0 122.108 -21.3589 174 -55.2275zM489 58.9247v-294.925h-121v-64h121h45h42h113v64h-113v705h113v64h-113h-42h-45v-52.9681
c-54.3383 34.4714 -115.21 57.9681 -181 57.9681c-164 0 -252 -113 -252 -274s94 -269 257 -269c66.4994 0 125.992 24.0227 176 63.9247z" />
    <glyph glyph-name="question" unicode="?" horiz-adv-x="442" 
d="M85 651c24 9 42 12 66 12c94 0 154 -52 154 -144c0 -101 -67 -163 -169 -163h-31v-135h83v70.9691c117.651 18.6197 196 101.702 196 227.031c0 130 -93 212 -225 212c-37 0 -66 -5 -100 -16zM98 24h98c0 28 -20 42 -49 42c-28 0 -49 -16 -49 -42zM98 24h98
c0 -28 -19 -40 -49 -40c-28 0 -49 14 -49 40z" />
    <glyph glyph-name="questiondown" unicode="&#xbf;" horiz-adv-x="442" 
d="M358 64c-24 -9 -42 -13 -67 -13c-93 0 -153 53 -153 145c0 100 66 162 169 162h30v135h-83v-71.0784c-117.312 -18.7253 -196 -100.932 -196 -225.922c0 -131 93 -212 226 -212c37 0 65 4 100 16zM344 690h-97c0 -28 19 -42 49 -42c27 0 48 16 48 42zM344 690h-97
c0 29 19 41 49 41c28 0 48 -14 48 -41z" />
    <glyph glyph-name="quotedbl" unicode="&#x22;" horiz-adv-x="445" 
d="M364 625v188h-79v-188h79zM163 625v188h-82v-188h82z" />
    <glyph glyph-name="quotedblbase" unicode="&#x201e;" horiz-adv-x="483" 
d="M286 -123l120 197h-104l-97 -197h81zM112 -123l121 197h-104l-98 -197h81z" />
    <glyph glyph-name="quotedblleft" unicode="&#x201c;" horiz-adv-x="441" 
d="M167 873l-121 -197h104l98 197h-81zM342 873l-120 -197h104l98 197h-82z" />
    <glyph glyph-name="quotedblright" unicode="&#x201d;" horiz-adv-x="402" 
d="M266 654l120 197h-104l-97 -197h81zM90 654l121 197h-104l-98 -197h81z" />
    <glyph glyph-name="quoteleft" unicode="&#x2018;" horiz-adv-x="328" 
d="M194 792l-120 -197h104l97 197h-81z" />
    <glyph glyph-name="quoteright" unicode="&#x2019;" horiz-adv-x="326" 
d="M155 525l120 197h-104l-97 -197h81z" />
    <glyph glyph-name="quotesinglbase" unicode="&#x201a;" horiz-adv-x="310" 
d="M112 -123l121 197h-104l-98 -197h81z" />
    <glyph glyph-name="quotesingle" unicode="'" horiz-adv-x="244" 
d="M163 625v188h-82v-188h82z" />
    <glyph glyph-name="r" unicode="r" horiz-adv-x="485" 
d="M241 394.633c53.883 63.6079 127.444 77.3672 214 77.3672v66c-85.9899 0 -158.325 -21.0517 -214 -72.5967v67.5967h-42h-41h-124l-1 -64h125v-405l-124 -2.84217e-14v-64h124h42h41h114v64h-114v330.633z" />
    <glyph glyph-name="racute" unicode="&#x155;" horiz-adv-x="501" 
d="M200 632c47 43 122 124 169 166h-101c-47 -42 -122 -123 -169 -166h101zM257 394.633c53.883 63.6079 127.444 77.3672 214 77.3672v66c-85.9899 0 -158.325 -21.0517 -214 -72.5967v67.5967h-42h-41h-125v-64h125v-405l-124 -2.84217e-14v-64h124h42h41h114v64h-114
v330.633z" />
    <glyph glyph-name="radical" unicode="&#x221a;" horiz-adv-x="707" 
d="M394 0c94 241 188 481 282 722h-76c-84.2062 -211.393 -166.874 -422.016 -250.027 -633.22c-46.6622 118.095 -21.1275 52.2637 -101.973 255.22h-39h-38h-127v-64h152.462c60.4938 -152.298 24.5692 -64.1835 110.538 -280h8h70h9z" />
    <glyph glyph-name="rcaron" unicode="&#x159;" horiz-adv-x="542" 
d="M35 792c47 -43 122 -124 169 -166h16h86h16c47 42 122 123 169 166h-101c-34.38 -31.454 -84.2772 -83.241 -126.99 -125.223c-42.6603 41.9819 -92.3612 93.7688 -126.01 125.223h-102zM274 395.75c53.9936 62.6518 127.953 76.2497 214 76.2497v66
c-86.6729 0 -158.577 -21.0171 -214 -72.4698v67.4698h-42h-41h-125v-64h125v-405l-124 -2.84217e-14v-64h124h42h41h114v64h-114v331.75z" />
    <glyph glyph-name="rcommaaccent" unicode="&#x157;" horiz-adv-x="485" 
d="M192 -287l120 197h-104l-97 -197h81zM241 394.633c53.883 63.6079 127.444 77.3672 214 77.3672v66c-85.9899 0 -158.325 -21.0517 -214 -72.5967v67.5967h-42h-41h-124l-1 -64h125v-405l-124 -2.84217e-14v-64h124h42h41h114v64h-114v330.633z" />
    <glyph glyph-name="registered" unicode="&#xae;" horiz-adv-x="809" 
d="M365 283h29c4.5763 0 9.0784 0.0831053 13.5008 0.253358c28.1664 -46.1562 56.3328 -91.8616 84.4992 -138.253h101v53h-51c-20.1369 33.2697 -40.2738 66.5394 -60.4108 100.48c34.5594 15.944 55.4108 45.3665 55.4108 93.5198c0 71 -53 107 -127 107h-45h-127v-53h58
v-248h-58v-53h58h116v53h-47v85zM365 446h32c43 0 75 -16 75 -57c0 -40 -28 -53 -69 -53h-38v110zM296 446h69v53zM365 198h-69zM58 321c0 -204 144 -321 355 -321c204 0 338 122 338 322c0 202 -137 323 -342 323c-209 0 -351 -120 -351 -324zM123 321
c0 171 112 275 286 275c170 0 279 -107 279 -277c0 -166 -106 -270 -272 -270c-175 0 -293 100 -293 272z" />
    <glyph glyph-name="ring" unicode="&#x2da;" horiz-adv-x="376" 
d="M87 670c0 45 25 73 70 73c47 0 75 -26 75 -73c0 -44 -26 -71 -73 -71c-46 0 -72 27 -72 71zM51.21 670.604c0 0.210777 -3.96109 0.395665 -36.21 0.395665c32.2489 0 36.21 -0.184888 36.21 -0.395665zM15 671c0 -84 58 -132 144 -132c88 0 146 46 146 132
c0 85 -59 131 -149 131c-85 0 -141 -48 -141 -131z" />
    <glyph glyph-name="ruble" horiz-adv-x="673" 
d="M357 321c164 3 273 46 273 200c0 152 -108 201 -274 201h-98h-37h-3h-42h-123v-64h123v-269h-88v-68h88v-84h-88v-68h88v-105h-123v-64h123h42h40h126v64h-126v105h240v68h-240v84h99zM258 658h87c123 0 203 -26 203 -138c0 -109 -80 -131 -199 -131h-91v269z" />
    <glyph glyph-name="rupee" horiz-adv-x="770" 
d="M0 0h770v20h-770v-20z" />
    <glyph glyph-name="s" unicode="s" horiz-adv-x="515" 
d="M122 95.6234v85.3766h-66v-133h1c69 -31 129 -53 202 -53c117 0 199 45 199 153c-1 105 -87 127 -192 158c-65 19 -117 41 -117 98c0 46 39 69 96 69c37.3525 0 78.1915 -10.4597 111 -24.2916v-84.7084h66v128c-43 25 -113 46 -174 46c-103 0 -175 -40 -175 -134
c0 -96 69 -132 166 -160c72 -22 140 -35 140 -99c0 -56 -47 -84 -110 -84c-53.6674 0 -98.3436 13.4869 -147 34.6234z" />
    <glyph glyph-name="sacute" unicode="&#x15b;" horiz-adv-x="515" 
d="M224 638c47 43 122 123 169 166h-101c-47 -42 -122 -124 -169 -166h101zM122 95.6234v85.3766h-66v-133h1c69 -31 129 -53 202 -53c117 0 199 45 199 153c-1 105 -87 127 -192 158c-65 19 -117 41 -117 98c0 46 39 69 96 69c37.3525 0 78.1915 -10.4597 111 -24.2916
v-84.7084h66v128c-43 25 -113 46 -174 46c-103 0 -175 -40 -175 -134c0 -96 69 -132 166 -160c72 -22 140 -35 140 -99c0 -56 -47 -84 -110 -84c-53.6674 0 -98.3436 13.4869 -147 34.6234z" />
    <glyph glyph-name="scaron" unicode="&#x161;" horiz-adv-x="560" 
d="M47 805c47 -42 122 -124 169 -166h16h85h16c47 42 123 124 170 166h-102c-34.4698 -31.5362 -84 -82.9736 -126.5 -125.121c-42.5 42.1476 -92.0302 93.5851 -126.5 125.121h-101zM150 95.7742v85.2258h-65v-133h1c69 -31 129 -53 201 -53c118 0 200 45 200 153
c-1 105 -87 127 -193 158c-64 19 -116 41 -116 98c0 46 39 69 95 69c38.0925 0 79.0872 -10.4475 111.929 -24.2675c-0.228219 -48.1265 -0.929113 19.0795 -0.929113 -84.7325h66v128c-42 25 -112 46 -173 46c-103 0 -175 -40 -175 -134c0 -96 69 -132 166 -160
c72 -22 140 -35 139 -99c0 -56 -46 -84 -109 -84c-53.7949 0 -98.5558 13.551 -148 34.7742z" />
    <glyph glyph-name="scedilla" unicode="&#x15f;" horiz-adv-x="515" 
d="M266.477 -37.4794c7.51907 12.0954 14.72 23.7135 20.6338 33.4012c101.813 6.9002 170.889 52.954 170.889 152.078c-1 105 -87 127 -192 158c-65 19 -117 41 -117 98c0 46 39 69 96 69c37.3525 0 78.1915 -10.4597 111 -24.2916v-84.7084h66v128
c-43 25 -113 46 -174 46c-103 0 -175 -40 -175 -134c0 -96 69 -132 166 -160c72 -22 140 -35 140 -99c0 -56 -47 -84 -110 -84c-53.6674 0 -98.3436 13.4869 -147 34.6234v85.3766h-66v-133h1c49.5294 -22.2523 94.4214 -39.8673 142.813 -48.0367
c-12.9281 -21.8925 -26.1272 -44.1536 -33.813 -56.9633l57 -51c10 7 19 10 31 10c22 0 36 -13 36 -34c0 -27 -22 -37 -50 -37c-24 0 -44 5 -68 18l-29 -50c31 -16 56 -25 91 -25c71 0 123 28 123 94c0 56.8083 -35.5589 90.1998 -90.5228 94.5206z" />
    <glyph glyph-name="scommaaccent" unicode="&#x219;" horiz-adv-x="516" 
d="M188 -294l120 197h-104l-97 -197h81zM122 95.7545l1.42109e-14 85.2455h-65v-133h1c68 -31 129 -53 201 -53c118 0 200 45 200 153c-1 105 -87 127 -193 158c-64 19 -117 41 -117 98c0 46 40 69 96 69c37.7342 0 78.3161 -10.2518 111 -23.8783v-85.1217h66v128
c-43 25 -112 46 -173 46c-103 0 -175 -40 -175 -134c0 -96 69 -132 166 -160c72 -22 140 -35 139 -99c0 -56 -46 -84 -109 -84c-54.6457 0 -98.7582 13.5426 -148 34.7545z" />
    <glyph glyph-name="section" unicode="&#xa7;" horiz-adv-x="535" 
d="M83 33c61 -43 112 -61 185 -61c104 0 181 45 181 144c-1.12876 49.1009 -22.3245 82.9127 -56.3964 107.727c53.761 26.865 85.3964 70.9687 85.3964 137.273c-1 104 -95 125 -200 156c-55 18 -102 40 -102 94c0 49 36 75 91 75c39.052 0 66.9637 -6.4497 99 -19.7981
v-82.2019h66v121c-56 30 -98 45 -161 45c-104 0 -175 -46 -175 -139c0 -49.9247 20.4881 -85.0133 54.536 -111.144c-54.9278 -26.5989 -89.536 -67.1968 -89.536 -132.856c0 -99 81 -130 181 -159c63 -21 126 -37 126 -94c0 -51 -41 -78 -97 -78
c-48.6743 0 -81.8545 10.5641 -122 31.6924v86.3076h-66v-121zM313.696 261.815c-6.4201 2.14738 -12.9914 4.20382 -19.6962 6.18479c-74 24 -151 35 -151 102c0 49.0491 30.0369 75.2129 75.5955 93.6113c5.98203 -2.2921 12.1216 -4.49183 18.4045 -6.61135
c76 -25 159 -31 159 -98c0 -51.4721 -32.3936 -81.5783 -82.3038 -97.1848z" />
    <glyph glyph-name="semicolon" unicode=";" horiz-adv-x="367" 
d="M152 -99c80 116 40 65 121 181h-106c-60 -115 -38 -65 -98 -181h83zM169 404h98c0 28 -21 41 -50 41s-48 -15 -48 -41zM169 404h98c0 -29 -21 -41 -50 -41s-48 14 -48 41z" />
    <glyph glyph-name="seven" unicode="7" horiz-adv-x="580" 
d="M514 722h-457v-58v-6v-110h66v110h351.465l-406.465 -658h90c401 658 402 658 402 658v64h-46z" />
    <glyph glyph-name="six" unicode="6" horiz-adv-x="617" 
d="M151.451 363.432c49.5383 159.203 205.648 249.132 395.549 302.568c-9.46706 29.3028 -10.3984 32.1855 -10.3984 32.4691c0 0.345467 0 1.32569 -9.60162 32.5309c-277 -73 -472 -205 -472 -484c0 -161 101 -255 264 -255c145 0 238 80 238 222c0 140 -93 215 -236 215
c-72.7448 0 -126.824 -24.9991 -169.549 -65.5678zM135.003 251.64c37.3012 68.3379 96.4859 109.36 178.997 109.36c100 0 159 -52 159 -150c0 -90 -58 -144 -151 -144c-117 0 -187 68 -187 183c0 0.547244 0.00301875 1.09386 0.00301875 1.63985z" />
    <glyph glyph-name="slash" unicode="/" horiz-adv-x="593" 
d="M120 -41c145 285 291 570 436 855h-83c-145 -285 -291 -570 -436 -855h83z" />
    <glyph glyph-name="softhyphen" horiz-adv-x="493" 
d="M76 278h341v70h-341v-70z" />
    <glyph glyph-name="space" unicode=" " horiz-adv-x="240" 
 />
    <glyph glyph-name="sterling" unicode="&#xa3;" horiz-adv-x="532" 
d="M480 669c-49 38 -90 53 -150 53c-131.198 0 -193.887 -99.3674 -193.887 -235.069c0 -25.1925 2.16058 -51.6373 6.44451 -78.9311h-66.5575v-64h79.0404c6.73575 -36.5771 10.3948 -71.9864 10.3948 -104.617c0 -101.001 -35.0557 -175.383 -122.435 -175.383v-64h415
v64h-266.813c36.3135 44.5671 53.0635 109.321 53.0635 184.281c0 30.4455 -2.76313 62.5746 -8.10088 95.7185h171.85v64h-184.102c-5.30834 30.4281 -8.07849 59.8872 -8.07849 87.2918c0 95.2694 33.4785 165.708 110.181 165.708c46 0 76 -14 113 -40z" />
    <glyph glyph-name="summation" unicode="&#x2211;" horiz-adv-x="553" 
d="M444 377l-296.89 281h269.89v-83h75v147h-443v-64l297 -282l-302 -312v-64h448c-69 58 -6 6 -75 64l75 -64v147h-75v-83h-277.541zM431.831 670.486c-4.57829 -3.89407 -9.46485 -8.0142 -14.8314 -12.4863c5.83436 4.90425 10.725 9.02202 14.8314 12.4863zM454.5 690
c1.24633 1.24633 2.49266 2.49266 22.6686 19.5137c-8.21843 -6.9902 -15.4435 -13.2519 -22.6686 -19.5137z" />
    <glyph glyph-name="t" unicode="t" horiz-adv-x="444" 
d="M386 84c-29 -15 -51 -22 -83 -22c-59 0 -82 35 -82 97v309h190v65h-190v120l-83 -41v-79h-116v-65h116v-312c0 -105 54 -161 155 -161c49 0 82 13 121 32z" />
    <glyph glyph-name="tcaron" unicode="&#x165;" horiz-adv-x="440" 
d="M292.082 -4.99845c0.305512 0 0.611456 -0.00154569 0.917832 -0.00154569c49 0 82 13 121 32l-28 57c-18.3694 -9.50143 -33.9302 -15.793 -51.003 -19.1289l40.003 65.1289h-104l-24.7036 -49.6594c-17.6886 16.2743 -25.2964 43.0014 -25.2964 78.6594v310h190v64
h-190v120l-83 -41v-79h-116v-64h116v-313c0 -72.0292 25.4117 -121 73.9752 -144.652l-38.9752 -78.3482h81z" />
    <glyph glyph-name="tcedilla" horiz-adv-x="443" 
d="M386 84c-29 -15 -51 -22 -84 -22c-58 0 -81 35 -81 97v310h190v64h-190v120l-83 -41v-79h-116v-64h116v-313c0 -78.1532 29.9164 -129.16 86.8626 -150.134c-14.8465 -24.8242 -31.011 -52.1131 -39.8626 -66.8659l57 -51c10 7 19 10 31 10c23 0 36 -13 36 -35
c0 -26 -21 -36 -49 -36c-25 0 -44 5 -69 18l-29 -50c31 -16 56 -25 91 -25c71 0 123 28 123 94c0 56.8083 -35.5589 90.1998 -90.5228 94.5206c8.45334 13.5983 16.5045 26.5934 22.7768 36.9201c40.9 2.4194 70.9325 14.5988 105.746 31.5593z" />
    <glyph glyph-name="tcommaaccent" unicode="&#x163;" horiz-adv-x="444" 
d="M235 -294l121 197h-104l-98 -197h81zM386 84c-29 -15 -51 -22 -83 -22c-59 0 -82 35 -82 97v291h190v64h-190v139l-83 -41v-98h-116v-64h116v-294c0 -105 54 -161 155 -161c49 0 82 13 121 32z" />
    <glyph glyph-name="thorn" unicode="&#xfe;" horiz-adv-x="673" 
d="M185 478.065v310.935h-40h-42h-123l-1 -65h124v-960h-125v-64h125h41h41h114v64h-114v291.736c53.4184 -40.2263 108.534 -60.7359 182 -60.7359c160 0 249 114 248 278c0 154 -87 266 -245 266c-72.154 0 -136.456 -26.4996 -185 -60.9353zM185 129.638v277.105
c40.8595 35.5895 103.855 67.2576 176 67.2576c116 0 172 -88 172 -204c0.0328089 -2.03415 0.0492024 -4.05862 0.0492024 -6.07317c0 -120.099 -58.2633 -204.935 -170.113 -204.935c-0.643604 0 -1.28898 0.00280898 -1.93613 0.00843639
c-71.7138 0 -119.759 25.3593 -176 70.6377z" />
    <glyph glyph-name="three" unicode="3" horiz-adv-x="573" 
d="M112 596c29 30 81 63 141 63c89 0 149 -35 149 -122s-75 -127 -161 -127v-54c101 0 194 -46 194 -153c0 -102 -83 -140 -178 -140c-56 0 -102 15 -157 46l-46 -51c62 -39 121 -63 200 -63c155 0 261 60 261 211c0 91.5967 -47.5146 150.661 -126.02 180.553
c56.5706 29.0133 92.02 79.2998 92.02 153.447c0 128 -89 187 -221 187c-85 0 -160 -41 -201 -94z" />
    <glyph glyph-name="threequarters" unicode="&#xbe;" horiz-adv-x="1032" 
d="M45 337c40 -23 80 -36 126 -36c4.39077 -0.123106 8.73944 -0.185591 13.0419 -0.185591c100.546 0 175.876 34.125 173.958 126.186c0 54.8839 -30.0969 81.9424 -75.7664 95.6998c36.6051 17.8461 59.7664 47.1465 59.7664 94.3002c0 83 -65 116 -155 116
c-54 0 -103 -21 -138 -56l39 -40c27 24 58 39 91 39c51 0 87 -18 87 -63c0 -53 -65 -63 -130 -67v-8v-41v-2c77 -4 146 -12 146 -69c0 -50.6455 -42.6862 -69.0392 -99.4186 -69.0392c-1.51728 0 -3.04461 0.0131565 -4.58144 0.0392045c-34 0 -65 8 -99 25zM348 -65
l437 798h-78l-437 -798h78zM851 -69h154v54h-116v67h90v57h-90v262h-76l-216 -262l32 -57h184v-67h-116v-54h154zM813 274.965v-165.965h-136.961z" />
    <glyph glyph-name="threesuperior" unicode="&#xb3;" horiz-adv-x="458" 
d="M74 334c40 -22 80 -36 126 -36c3.10725 -0.0580794 6.19342 -0.0874865 9.25706 -0.0874865c102.435 0 179.685 32.8753 177.743 126.087c0 54.659 -29.8507 82.0018 -75.2057 95.9265c36.3663 17.9824 59.2057 47.5124 59.2057 95.0735c0 83 -65 116 -155 116
c-53 0 -102 -22 -138 -57l39 -40c28 24 59 39 91 39c51 0 88 -17 88 -63c0 -53 -66 -63 -131 -66v-9v-41v-2c77 -4 146 -12 146 -69c0 -49.444 -40.6848 -68.1483 -95.4048 -68.1483c-2.82877 0 -5.69505 0.0499857 -8.59516 0.148294c-33 0 -65 7 -99 24z" />
    <glyph glyph-name="tilde" unicode="&#x2dc;" horiz-adv-x="555" 
d="M391 726c-14 -45 -30 -84 -68 -84c-34 0 -55 16 -81 40c-32 31 -59 49 -103 49c-75 0 -111 -52 -130 -126c56 -25 1 0 57 -25c14 49 32 86 75 86c32 0 49 -18 71 -40c34 -32 64 -51 111 -51c75 0 104 57 125 126c-25.4015 11.141 -28.1631 12.1537 -28.4634 12.1537
c0 0 1.90442 -1.03905 -28.5366 12.8463z" />
    <glyph glyph-name="trademark" unicode="&#x2122;" horiz-adv-x="1021" 
d="M559 265h60v53h-51.8822c9.84814 65.4803 19.1298 131.149 28.6438 196.741c21.1353 -77.6244 43.5672 -155.413 63.2385 -232.741h4h51h5c18.7587 79.2032 40.4135 158.889 60.9402 238.722c10.2731 -67.7154 20.456 -135.338 30.8388 -202.722h-49.779v-53h58z
M810.779 318h67.221c-16.6486 102.667 -35.0083 205.333 -51.9138 308h69.9138v52h-137c-23.7162 -97.8292 -70.722 -293.488 -70.722 -293.488c-24.0112 97.8292 -46.8207 195.658 -71.278 293.488h-134v-53h66.1063c-15.9717 -101.807 -33.3933 -204.403 -49.1063 -307z
M229 626h69h89v-55h62v107h-151v1l-1.30189 -1h-228.698v-107h63v55h98zM298 678h-1.30189l-67.6981 -52v-308h-64v-53h64h131v53h-62v308zM298 318h-69z" />
    <glyph glyph-name="turkishlira" horiz-adv-x="819" 
d="M694 353c0 -183 -91 -289 -271 -289h-164v253h258v68h-258v101h258v68h-258v104h126v64h-126h-39h-44h-122v-64h122v-104h-91v-68h91v-101h-91v-68h91v-253h-122v-64h122h44h39h157c234 0 361 122 361 353h-83z" />
    <glyph glyph-name="two" unicode="2" horiz-adv-x="603" 
d="M116 539c50 73 95 120 178 120c91 0 144 -50 144 -144c0 -116 -80 -189 -162 -255c-77 -66 -152 -130 -229 -196v-64h6h486v64v116h-66v-116h-322.297c66.4692 48.4953 121.407 98.6999 177.297 147c100 79 188 164 188 307c0 136 -82 209 -218 209
c-111 0 -187 -56 -239 -152c27.2134 -16.891 28.8899 -17.9317 28.8899 -17.9958c0 -0.0725299 0 -0.250479 28.1101 -18.0042z" />
    <glyph glyph-name="twosuperior" unicode="&#xb2;" horiz-adv-x="507" 
d="M146 609c24 41 54 65 102 65c51 0 85 -26 85 -74c0 -45 -32 -67 -67 -97c-65 -46 -130 -93 -195 -140v-58h5h354v130h-58v-72h-202.742c49.8213 31.6564 96.7251 62.8282 139.742 94c54 44 99 77 99 146c0 86 -64 129 -154 129c-75 0 -127 -24 -162 -92zM401.791 334.818
c-5.68434e-14 1.63831 -4.6375 6.8986 -29.7911 28.1825c25.1536 -21.2839 29.7911 -26.5441 29.7911 -28.1825z" />
    <glyph glyph-name="u" unicode="u" horiz-adv-x="718" 
d="M509 165.096c-35.7791 -55.1075 -92.4842 -105.096 -157 -105.096c-90 0 -134 52 -134 142v331h-42h-41h-124v-64h124v-270c0 -133 72 -204 208 -204c66.1532 0 123.376 34.8278 166 83.8962v-78.8962h42h41h114v64h-114v469h-41h-42h-124v-64h124v-303.904z" />
    <glyph glyph-name="uacute" unicode="&#xfa;" horiz-adv-x="718" 
d="M325 638c46 43 122 123 169 166h-102c-47 -42 -122 -124 -169 -166h102zM509 165.096c-35.7791 -55.1075 -92.4842 -105.096 -157 -105.096c-90 0 -134 52 -134 142v331h-42h-41h-124v-64h124v-270c0 -133 72 -204 208 -204c66.1532 0 123.376 34.8278 166 83.8962
v-78.8962h42h41h114v64h-114v469h-41h-42h-124v-64h124v-303.904z" />
    <glyph glyph-name="ucircumflex" unicode="&#xfb;" horiz-adv-x="718" 
d="M575 646c-47 42 -122 123 -169 166h-17h-85h-16c-47 -43 -122 -124 -169 -166h101c34.4328 30.7697 84.4305 82.4716 126.794 124.829c42.7041 -42.3569 92.506 -94.0588 126.206 -124.829h102zM509 165.096c-35.7791 -55.1075 -92.4842 -105.096 -157 -105.096
c-90 0 -134 52 -134 142v331h-42h-41h-124v-64h124v-270c0 -133 72 -204 208 -204c66.1532 0 123.376 34.8278 166 83.8962v-78.8962h42h41h114v64h-114v469h-41h-42h-124v-64h124v-303.904z" />
    <glyph glyph-name="udieresis" unicode="&#xfc;" horiz-adv-x="718" 
d="M381 669h100c0 28 -21 43 -51 43s-49 -16 -49 -43zM381 669h100c0 -29 -21 -42 -51 -42s-49 14 -49 42zM213 669h100c0 28 -21 43 -51 43c-29 0 -49 -16 -49 -43zM213 669h100c0 -29 -21 -42 -51 -42s-49 14 -49 42zM509 165.096
c-35.7791 -55.1075 -92.4842 -105.096 -157 -105.096c-90 0 -134 52 -134 142v331h-42h-41h-124v-64h124v-270c0 -133 72 -204 208 -204c66.1532 0 123.376 34.8278 166 83.8962v-78.8962h42h41h114v64h-114v469h-41h-42h-124v-64h124v-303.904z" />
    <glyph glyph-name="ugrave" unicode="&#xf9;" horiz-adv-x="718" 
d="M467 638c-47 42 -122 123 -169 166h-101c47 -43 122 -124 169 -166h101zM509 165.096c-35.7791 -55.1075 -92.4842 -105.096 -157 -105.096c-90 0 -134 52 -134 142v331h-42h-41h-124v-64h124v-270c0 -133 72 -204 208 -204c66.1532 0 123.376 34.8278 166 83.8962
v-78.8962h42h41h114v64h-114v469h-41h-42h-124v-64h124v-303.904z" />
    <glyph glyph-name="uhungarumlaut" unicode="&#x171;" horiz-adv-x="718" 
d="M451 606l120 198h-104l-97 -198h81zM275 606l121 198h-104l-98 -198h81zM509 165.096c-35.7791 -55.1075 -92.4842 -105.096 -157 -105.096c-90 0 -134 52 -134 142v331h-42h-41h-124v-64h124v-270c0 -133 72 -204 208 -204c66.1532 0 123.376 34.8278 166 83.8962
v-78.8962h42h41h114v64h-114v469h-41h-42h-124v-64h124v-303.904z" />
    <glyph glyph-name="umacron" unicode="&#x16b;" horiz-adv-x="718" 
d="M458 703h-230v-64h230v64zM509 165.096c-35.7791 -55.1075 -92.4842 -105.096 -157 -105.096c-90 0 -134 52 -134 142v331h-42h-41h-124v-64h124v-270c0 -133 72 -204 208 -204c66.1532 0 123.376 34.8278 166 83.8962v-78.8962h42h41h114v64h-114v469h-41h-42h-124v-64
h124v-303.904z" />
    <glyph glyph-name="underscore" unicode="_" horiz-adv-x="711" 
d="M6 -197h699v64h-699v-64z" />
    <glyph glyph-name="uogonek" unicode="&#x173;" horiz-adv-x="718" 
d="M509 165.096c-35.7791 -55.1075 -92.4842 -105.096 -157 -105.096c-90 0 -134 52 -134 142v331h-42h-41h-124v-64h124v-270c0 -133 72 -204 208 -204c66.1532 0 123.376 34.8278 166 83.8962v-43.8321c-46.2745 -22.1419 -80 -48.3841 -80 -102.064
c0 -69 46 -111 116 -111c39 0 64 13 97 31c-36 48 -3 3 -38 50c-18 -10 -32 -18 -52 -18c-31 0 -50 19 -50 49c0 35.5636 27.4382 50.8752 60.6653 66h29.3347h114v64h-114v469h-41h-42h-124v-64h124v-303.904z" />
    <glyph glyph-name="uring" unicode="&#x16f;" horiz-adv-x="718" 
d="M275 767c0 44 24 72 69 72c48 0 76 -25 76 -72c0 -45 -27 -71 -74 -71c-45 0 -71 26 -71 71zM203 767c0 -84 57 -131 144 -131s146 46 146 131s-60 131 -149 131c-86 0 -141 -47 -141 -131zM509 165.096c-35.7791 -55.1075 -92.4842 -105.096 -157 -105.096
c-90 0 -134 52 -134 142v331h-42h-41h-124v-64h124v-270c0 -133 72 -204 208 -204c66.1532 0 123.376 34.8278 166 83.8962v-78.8962h42h41h114v64h-114v469h-41h-42h-124v-64h124v-303.904z" />
    <glyph glyph-name="v" unicode="v" horiz-adv-x="754" 
d="M372.822 91.2183c-49.723 126.02 -98.3673 251.71 -147.716 377.782h106.894v64h-132h-28h-57h-108v-64h133.544c62.4854 -156.468 124.971 -312.347 187.456 -469h7h74h7c66.0057 156.653 131.237 312.532 197.057 469h134.943v64h-108h-58h-26h-134v-64h107.463z" />
    <glyph glyph-name="w" unicode="w" horiz-adv-x="1079" 
d="M774 0h1c57.2049 156.653 114.41 312.532 171.615 469h126.385v64h-103h-63h-17h-143v-64h119.974c-43.4571 -120.722 -86.9142 -241.093 -130.371 -361.74c-49.5344 141.955 -99.0688 283.528 -148.603 425.74h-5h-73h-7
c-54.6812 -143.136 -110.009 -285.625 -164.943 -428.508c-41.9523 121.574 -84.1895 242.863 -126.071 364.508h123.014v64h-145h-18h-62h-103v-64h125.624c55.2463 -156.468 109.811 -312.347 164.376 -469h1h76h1c56.9997 144.942 113.336 289.221 169.55 433.917
c50.5136 -144.696 101.15 -288.975 152.45 -433.917h1h76z" />
    <glyph glyph-name="x" unicode="x" horiz-adv-x="744" 
d="M327.814 278.514c-58.3815 -71.4684 -116.778 -142.929 -174.927 -214.514h-142.887v-64h91h70h4h19h137v64h-85.9104c42.3263 52.9886 84.6633 105.91 127.037 158.816c42.0761 -52.9065 84.115 -105.828 126.143 -158.816h-86.2702v-64h137h19h4h69h92v64h-143.487
c-57.5841 71.4876 -115.291 142.852 -172.991 214.224c50.9418 63.5557 101.951 127.117 153.072 190.776h149.406v64h-98h-61h-7h-18h-132v-64h80.1132c-36.8679 -45.3857 -73.8349 -90.7219 -110.834 -136.042c-36.6245 45.3199 -73.2328 90.6561 -109.792 136.042
h79.5127v64h-131h-20h-14h-52h-99v-64h150.046c50.6864 -63.5621 101.26 -127.027 151.768 -190.486z" />
    <glyph glyph-name="y" unicode="y" horiz-adv-x="750" 
d="M324.923 77.4158c-52.161 -104.136 -104.322 -208.285 -156.483 -312.553l-141.44 -0.862438v-64h109h55h32c127.407 256.661 255.667 512.47 383.992 769l135.008 -5.68434e-14v64h-103h-62h-24h-136v-64h103.992
c-51.7531 -103.453 -103.506 -206.789 -155.259 -310.111c-45.5629 103.011 -91.2922 206.695 -137.815 310.111h112.083v64h-141h-21h-65h-101v-64h131.132c60.8183 -129.89 120.595 -261.443 181.791 -391.584z" />
    <glyph glyph-name="yacute" unicode="&#xfd;" horiz-adv-x="750" 
d="M350 639c47 43 123 124 170 166h-102c-47 -42 -122 -123 -169 -166h101zM324.923 77.4158c-52.161 -104.136 -104.322 -208.285 -156.483 -312.553l-141.44 -0.862438v-64h109h55h32c127.407 256.661 255.667 512.47 383.992 769l135.008 -5.68434e-14v64h-103h-62h-24
h-136v-64h103.992c-51.7531 -103.453 -103.506 -206.789 -155.259 -310.111c-45.5629 103.011 -91.2922 206.695 -137.815 310.111h112.083v64h-141h-21h-65h-101v-64h131.132c60.8183 -129.89 120.595 -261.443 181.791 -391.584z" />
    <glyph glyph-name="ydieresis" unicode="&#xff;" horiz-adv-x="750" 
d="M407 670h100c0 29 -22 43 -51 43c-30 0 -49 -16 -49 -43zM407 670h100c0 -28 -21 -42 -52 -42c-29 0 -48 15 -48 42zM239 670h100c0 -28 -21 -42 -51 -42s-49 15 -49 42zM239 670h100c0 29 -21 43 -51 43s-49 -16 -49 -43zM324.923 77.4158
c-52.161 -104.136 -104.322 -208.285 -156.483 -312.553l-141.44 -0.862438v-64h109h55h32c127.407 256.661 255.667 512.47 383.992 769l135.008 -5.68434e-14v64h-103h-62h-24h-136v-64h103.992c-51.7531 -103.453 -103.506 -206.789 -155.259 -310.111
c-45.5629 103.011 -91.2922 206.695 -137.815 310.111h112.083v64h-141h-21h-65h-101v-64h131.132c60.8183 -129.89 120.595 -261.443 181.791 -391.584z" />
    <glyph glyph-name="yen" unicode="&#xa5;" horiz-adv-x="856" 
d="M424.309 399.246c-53.1004 86.2512 -105.529 172.502 -158.184 258.754h97.8747v64h-137h-26h-2h-63h-103v-64h143.332c55.6324 -88 111.888 -176 167.496 -264h-148.828v-70h186v-61h-186v-71h186v-128h-124v-64h124h41h42h124v64h-124v128h189v71h-189v61h189v70
h-148.775c62.4333 88.106 125.68 175.847 188.576 264h130.2v64h-163h-2h-161v-64h106.118c-60.2358 -85.9488 -119.233 -172.685 -178.809 -258.754z" />
    <glyph glyph-name="z" unicode="z" horiz-adv-x="562" 
d="M66 501v-32v-88h65v88h256.151c-86.699 -105.776 -2.57633 -2.68588 -338.151 -405v-64h466v32v32v88h-66v-88h-295.052c123.907 149.896 342.052 405 342.052 405v64h-430v-32z" />
    <glyph glyph-name="zacute" unicode="&#x17a;" horiz-adv-x="562" 
d="M256 638c47 43 122 123 169 166h-101c-47 -42 -122 -124 -169 -166h101zM66 501v-32v-88h65v88h256.151c-86.699 -105.776 -2.57633 -2.68588 -338.151 -405v-64h466v32v32v88h-66v-88h-295.052c123.907 149.896 342.052 405 342.052 405v64h-430v-32z" />
    <glyph glyph-name="zcaron" unicode="&#x17e;" horiz-adv-x="579" 
d="M59 805c47 -42 122 -124 169 -166h16h85h17c47 42 122 124 169 166h-102c-33.7002 -31.5023 -83.502 -82.8634 -126.206 -124.986c-42.3633 42.1223 -92.361 93.4833 -126.794 124.986h-101zM75 501v-32v-88h65v88h256.151
c-86.699 -105.776 -2.57633 -2.68588 -338.151 -405v-64h466v32v32v88h-66v-88h-295.189c123.142 149.896 342.189 405 342.189 405v64h-430v-32z" />
    <glyph glyph-name="zdotaccent" unicode="&#x17c;" horiz-adv-x="562" 
d="M229 669h100c0 -29 -21 -42 -51 -42s-49 15 -49 42zM229 669h100c0 29 -21 43 -51 43s-49 -16 -49 -43zM66 501v-32v-88h65v88h256.151c-86.699 -105.776 -2.57633 -2.68588 -338.151 -405v-64h466v32v32v88h-66v-88h-295.052c123.907 149.896 342.052 405 342.052 405
v64h-430v-32z" />
    <glyph glyph-name="zero" unicode="0" horiz-adv-x="752" 
d="M61 360c0 -220 104 -365 316 -365c211 0 313 147 313 368c0 219 -100 364 -309 364c-214 0 -320 -145 -320 -367zM141 360c0 176 68 300 233 300s236 -122 236 -297c0 -176 -67 -300 -229 -300c-165 0 -240 121 -240 297z" />
    </font>
</defs>
</svg>
