<?xml version="1.0" standalone="no"?>
<!DOCTYPE svg PUBLIC "-//W3C//DTD SVG 1.1//EN" "http://www.w3.org/Graphics/SVG/1.1/DTD/svg11.dtd" >
<svg xmlns="http://www.w3.org/2000/svg" xmlns:xlink="http://www.w3.org/1999/xlink" version="1.1">
<metadata>
Created by FontForge 20141219 at Thu Feb 19 10:34:24 2015
 By Simon Egli
Copyright 2015 Simon Egli
</metadata>
<defs>
<font id="Sean" horiz-adv-x="997" >
  <font-face 
    font-family="Slab"
    font-weight="72"
    font-stretch="ultra-condensed"
    units-per-em="1000"
    panose-1="2 0 5 3 0 0 0 0 0 0"
    ascent="800"
    descent="-200"
    x-height="533"
    cap-height="722"
    bbox="-46 -312 2182 1076"
    underline-thickness="0"
    underline-position="0"
    unicode-range="U+0020-FB02"
  />
    <missing-glyph />
    <glyph glyph-name="A" unicode="A" 
d="M491.879 676.763c57.2553 -130.405 113.979 -260.553 170.649 -390.763h-360.364c63.1039 130.209 126.025 260.358 189.715 390.763zM472 722h-2c-112.58 -227.997 -226.949 -455.099 -339.722 -683h-160.278v-39h141h40h12h181v39h-161.926
c33.5759 68.7238 66.934 137.375 100.214 206h398.081c29.8595 -68.625 59.7176 -137.276 89.6439 -206h-164.013v-39h181h11h39h143v39h-160.174c-100.477 227.901 -202.599 455.003 -303.826 683h-2h-42z" />
    <glyph glyph-name="AE" unicode="&#xc6;" horiz-adv-x="1180" 
d="M624 0h484v19v20v100h-39v-100h-445v315h370v39h-370v290h404v-100h40v100v20v19h-437h-7h-22h-15h-3h-8h-156v-39h138.666l-418.332 -644h-165.334v-39h140h42h12h179v39h-154.044l111.981 175l270.064 -2.84217e-14v-175h-156v-39h156h11h15h22zM576 636.048v-381.048
l-243.828 2.84217e-14z" />
    <glyph glyph-name="Aacute" unicode="&#xc1;" 
d="M440 833c63 53 132 114 195 166h-64c-63 -52 -132 -113 -195 -166h64zM491.879 676.763c57.2553 -130.405 113.979 -260.553 170.649 -390.763h-360.364c63.1039 130.209 126.025 260.358 189.715 390.763zM472 722h-2c-112.58 -227.997 -226.949 -455.099 -339.722 -683
h-161.278v-39h142h40h12h181v39h-161.926c33.5759 68.7238 66.934 137.375 100.214 206l398.081 -2.84217e-14c29.8595 -68.625 59.7176 -137.276 89.6439 -206h-164.013v-39h181h11h39h143v39h-160.319c-101.227 227.901 -202.454 455.003 -303.681 683h-2h-42z" />
    <glyph glyph-name="Abreve" unicode="&#x102;" 
d="M619 960c0 -65 -54 -90 -126 -90c-70 0 -121 27 -121 91h-46c0 -90 68 -129 165 -129c101 0 173 36 173 128h-45zM491.879 676.763c57.2553 -130.405 113.979 -260.553 170.649 -390.763h-360.364c63.1039 130.209 126.025 260.358 189.715 390.763zM472 722h-2
c-112.58 -227.997 -226.949 -455.099 -339.722 -683h-161.278v-39h142h40h12h181v39h-161.926c33.5759 68.7238 66.934 137.375 100.214 206l398.081 -2.84217e-14c29.8595 -68.625 59.7176 -137.276 89.6439 -206h-164.013v-39h181h11h39h143v39h-160.319
c-101.227 227.901 -202.454 455.003 -303.681 683h-2h-42z" />
    <glyph glyph-name="Acircumflex" unicode="&#xc2;" 
d="M724 835c-63 52 -131 113 -195 166h-10h-53h-10c-64 -53 -132 -114 -196 -166h64c54.2712 44.7953 112.995 96.2694 168.5 143.555c55.505 -47.2853 114.229 -98.7594 168.5 -143.555h63zM491.879 676.763c57.2553 -130.405 113.979 -260.553 170.649 -390.763h-360.364
c63.1039 130.209 126.025 260.358 189.715 390.763zM472 722h-2c-112.58 -227.997 -226.949 -455.099 -339.722 -683h-161.278v-39h142h40h12h181v39h-161.926c33.5759 68.7238 66.934 137.375 100.214 206l398.081 -2.84217e-14
c29.8595 -68.625 59.7176 -137.276 89.6439 -206h-164.013v-39h181h11h39h143v39h-160.319c-101.227 227.901 -202.454 455.003 -303.681 683h-2h-42z" />
    <glyph glyph-name="Adieresis" unicode="&#xc4;" 
d="M541 851h62c0 -18 -13 -27 -32 -27s-30 10 -30 27zM541 851h62c0 18 -13 28 -32 28c-18 0 -30 -11 -30 -28zM382 851h63c0 -18 -14 -27 -33 -27c-18 0 -30 10 -30 27zM382 851h63c0 18 -14 28 -33 28c-18 0 -30 -11 -30 -28zM491.879 676.763
c57.2553 -130.405 113.979 -260.553 170.649 -390.763h-360.364c63.1039 130.209 126.025 260.358 189.715 390.763zM472 722h-2c-112.58 -227.997 -226.949 -455.099 -339.722 -683h-161.278v-39h142h40h12h181v39h-161.926c33.5759 68.7238 66.934 137.375 100.214 206
l398.081 -2.84217e-14c29.8595 -68.625 59.7176 -137.276 89.6439 -206h-164.013v-39h181h11h39h143v39h-160.319c-101.227 227.901 -202.454 455.003 -303.681 683h-2h-42z" />
    <glyph glyph-name="Agrave" unicode="&#xc0;" 
d="M594 833c-63 52 -132 113 -195 166h-64c63 -53 132 -113 195 -166h64zM491.879 676.763c57.2553 -130.405 113.979 -260.553 170.649 -390.763h-360.364c63.1039 130.209 126.025 260.358 189.715 390.763zM472 722h-2c-112.58 -227.997 -226.949 -455.099 -339.722 -683
h-161.278v-39h142h40h12h181v39h-161.926c33.5759 68.7238 66.934 137.375 100.214 206l398.081 -2.84217e-14c29.8595 -68.625 59.7176 -137.276 89.6439 -206h-164.013v-39h181h11h39h143v39h-160.319c-101.227 227.901 -202.454 455.003 -303.681 683h-2h-42z" />
    <glyph glyph-name="Amacron" unicode="&#x100;" 
d="M619 871h-266v-38h266v38zM491.879 676.763c57.2553 -130.405 113.979 -260.553 170.649 -390.763h-360.364c63.1039 130.209 126.025 260.358 189.715 390.763zM472 722h-2c-112.58 -227.997 -226.949 -455.099 -339.722 -683h-161.278v-39h142h40h12h181v39h-161.926
c33.5759 68.7238 66.934 137.375 100.214 206l398.081 -2.84217e-14c29.8595 -68.625 59.7176 -137.276 89.6439 -206h-164.013v-39h181h11h39h143v39h-160.319c-101.227 227.901 -202.454 455.003 -303.681 683h-2h-42z" />
    <glyph glyph-name="Aogonek" unicode="&#x104;" 
d="M491.879 676.763c57.2553 -130.405 113.979 -260.553 170.649 -390.763h-360.364c63.1039 130.209 126.025 260.358 189.715 390.763zM472 722h-2c-112.58 -227.997 -226.949 -455.099 -339.722 -683h-160.278v-39h141h40h12h181v39h-161.926
c33.5759 68.7238 66.934 137.375 100.214 206h398.081c29.8595 -68.625 59.7176 -137.276 89.6439 -206h-164.013v-39h136.545c-37.3621 -18.6522 -63.5451 -43.2282 -63.5451 -89c0 -65 46 -101 113 -101c39 0 65 12 98 29c-20 28 -2 2 -22 29c-25 -13 -44 -21 -71 -21
c-44 0 -74 23 -74 64c0 54.4213 50.054 66.3441 102.437 89h11.5633h143v39h-160.174c-100.477 227.901 -202.599 455.003 -303.826 683h-2h-42z" />
    <glyph glyph-name="Aring" unicode="&#xc5;" 
d="M392 953c0 56 39 87 98 87c63 0 106 -28 106 -87c0 -57 -42 -85 -103 -85c-60 0 -101 29 -101 85zM349 953c0 -79 60 -122 144 -122c86 0 146 41 146 122c0 82 -61 123 -149 123c-84 0 -141 -42 -141 -123zM491.879 676.763
c57.2553 -130.405 113.979 -260.553 170.649 -390.763h-360.364c63.1039 130.209 126.025 260.358 189.715 390.763zM472 722h-2c-112.58 -227.997 -226.949 -455.099 -339.722 -683h-161.278v-39h142h40h12h181v39h-161.926c33.5759 68.7238 66.934 137.375 100.214 206
l398.081 -2.84217e-14c29.8595 -68.625 59.7176 -137.276 89.6439 -206h-164.013v-39h181h11h39h143v39h-160.319c-101.227 227.901 -202.454 455.003 -303.681 683h-2h-42z" />
    <glyph glyph-name="Atilde" unicode="&#xc3;" 
d="M685 968c-16 -53 -35 -97 -83 -97c-42 0 -69 17 -101 46c-36 33 -65 53 -113 53c-73 0 -111 -49 -129 -122l35 -14c16 57 41 98 95 98c38 0 60 -19 87 -45c39 -35 72 -55 124 -55c71 0 101 54 122 123zM491.879 676.763
c57.2553 -130.405 113.979 -260.553 170.649 -390.763h-360.364c63.1039 130.209 126.025 260.358 189.715 390.763zM472 722h-2c-112.58 -227.997 -226.949 -455.099 -339.722 -683h-161.278v-39h142h40h12h181v39h-161.926c33.5759 68.7238 66.934 137.375 100.214 206
l398.081 -2.84217e-14c29.8595 -68.625 59.7176 -137.276 89.6439 -206h-164.013v-39h181h11h39h143v39h-160.319c-101.227 227.901 -202.454 455.003 -303.681 683h-2h-42z" />
    <glyph glyph-name="B" unicode="B" horiz-adv-x="829" 
d="M264 39v350h152h23c140 0 250 -49 250 -181c0 -118 -87 -169 -214 -169h-211zM264 0h211c155 0 262 64 262 208c0 112.697 -71.3035 174.395 -170.753 201.968c67.1642 22.5621 115.753 65.6408 115.753 140.032c0 115 -84 172 -206 172h-212h-22h-13h-15h-155v-39h155
v-644h-156v-39h156h15h11h24zM264 428v255h212c92 0 158 -43 158 -133c0 -92 -94 -122 -195 -122h-22h-153z" />
    <glyph glyph-name="C" unicode="C" horiz-adv-x="849" 
d="M762 655c-83 41 -172 72 -272 72c-244 0 -391 -139 -391 -383c0 -224 138 -349 365 -349c131 0 215 32 316 100c-25 31 0 0 -26 31c-92 -64 -172 -89 -288 -89c-199 0 -320 112 -320 309c0 214 129 340 342 340c85.3045 0 163.579 -20.2111 234 -54.867v-103.133h40v127z
" />
    <glyph glyph-name="Cacute" unicode="&#x106;" horiz-adv-x="849" 
d="M436 833c63 53 132 114 195 166h-63c-64 -52 -133 -113 -196 -166h64zM762 655c-83 41 -172 72 -272 72c-244 0 -391 -139 -391 -383c0 -224 138 -349 365 -349c131 0 215 32 316 100c-25 31 0 0 -26 31c-92 -64 -172 -89 -288 -89c-199 0 -320 112 -320 309
c0 214 129 340 342 340c85.3045 0 163.579 -20.2111 234 -54.867v-103.133h40v127z" />
    <glyph glyph-name="Ccaron" unicode="&#x10c;" horiz-adv-x="849" 
d="M256 998c64 -53 132 -114 196 -166h10h53h10c64 52 132 113 195 166h-63c-54.2712 -45.6567 -112.995 -96.5081 -168.5 -143.604c-55.505 47.0962 -114.229 97.9476 -168.5 143.604h-64zM762 655c-83 41 -172 72 -272 72c-244 0 -391 -139 -391 -383
c0 -224 138 -349 365 -349c131 0 215 32 316 100c-25 31 0 0 -26 31c-92 -64 -172 -89 -288 -89c-199 0 -320 112 -320 309c0 214 129 340 342 340c85.3045 0 163.579 -20.2111 234 -54.867v-103.133h40v127z" />
    <glyph glyph-name="Ccedilla" unicode="&#xc7;" horiz-adv-x="849" 
d="M414 -95c16 9 30 12 48 12c34 0 56 -17 56 -48c0 -36 -31 -48 -71 -48c-30 0 -53 3 -82 17l-17 -30c33 -15 60 -22 96 -22c67 0 118 23 118 83c0 55 -40 85 -97 85c-6.56094 0 -12.7187 -0.31355 -18.6346 -0.91221c10.2454 14.728 20.5294 29.5041 28.9844 41.9941
c124.567 1.81643 206.597 33.9025 304.65 99.9182c-25 31 0 0 -26 31c-92 -64 -172 -89 -288 -89c-199 0 -320 112 -320 309c0 214 129 340 342 340c85.3045 0 163.579 -20.2111 234 -54.867v-103.133h40v127c-83 41 -172 72 -272 72c-244 0 -391 -139 -391 -383
c0 -209.727 120.974 -332.668 322.704 -347.484c-13.8343 -21.0715 -28.8188 -43.8684 -39.7036 -60.5158z" />
    <glyph glyph-name="D" unicode="D" horiz-adv-x="955" 
d="M265 722h-22h-26h-156v-39h156v-644h-156v-39h156h26h22h209c246 0 388 115 388 352c0 248 -146 370 -401 370h-196zM265 683h193c228 0 357 -111 357 -332c0 -209 -122 -312 -336 -312h-214v644z" />
    <glyph glyph-name="Dcaron" unicode="&#x10e;" horiz-adv-x="955" 
d="M207 997c63 -52 131 -113 195 -166h10h53h10c64 53 132 114 195 166h-63c-54.2712 -45.6567 -112.995 -96.5081 -168.5 -143.604c-55.505 47.0962 -114.229 97.9476 -168.5 143.604h-63zM265 722h-22h-26h-156v-39h156v-644h-156v-39h156h26h22h209
c246 0 388 115 388 352c0 248 -146 370 -401 370h-196zM265 683h193c228 0 357 -111 357 -332c0 -209 -122 -312 -336 -312h-214v644z" />
    <glyph glyph-name="Dcroat" unicode="&#x110;" horiz-adv-x="955" 
d="M265 722h-22h-26h-156v-39h156v-304h-79v-42h79v-298h-156v-39h156h26h22h209c246 0 388 115 388 352c0 248 -147 370 -401 370h-196zM265 683h193c228 0 357 -111 357 -332c0 -209 -122 -312 -337 -312h-213v298h231v42h-231v304z" />
    <glyph glyph-name="E" unicode="E" horiz-adv-x="820" 
d="M264 0h484v19v20v100h-40v-100h-444v315h369v39h-369v290h404v-100h40v100v20v19h-444h-22h-15h-11h-156v-39h156v-644h-156v-39h156h11h15h22z" />
    <glyph glyph-name="Eacute" unicode="&#xc9;" horiz-adv-x="820" 
d="M388 833c63 53 132 113 195 166h-63c-64 -53 -132 -113 -195 -166h63zM264 0h484v19v20v100h-40v-100h-444v315h369v39h-369v290h404v-100h40v100v20v19h-444h-22h-15h-11h-156v-39h156v-644h-156v-39h156h11h15h22z" />
    <glyph glyph-name="Ecaron" unicode="&#x11a;" horiz-adv-x="820" 
d="M209 997c63 -52 132 -113 195 -166h10h54h9c64 53 133 114 196 166h-64c-54.1594 -44.703 -112.753 -96.0574 -168.157 -143.262c-55.8487 47.2051 -113.824 98.5594 -168.843 143.262h-63zM264 0h484v19v20v100h-40v-100h-444v315h369v39h-369v290h404v-100h40v100v20
v19h-444h-22h-15h-11h-156v-39h156v-644h-156v-39h156h11h15h22z" />
    <glyph glyph-name="Ecircumflex" unicode="&#xca;" horiz-adv-x="820" 
d="M673 834c-63 53 -132 114 -195 166h-10h-54h-10c-63 -52 -132 -113 -195 -166h64c54.1083 45.5197 112.642 96.2028 168 143.18c55.3576 -46.9772 113.892 -97.6604 168 -143.18h64zM264 0h484v19v20v100h-40v-100h-444v315h369v39h-369v290h404v-100h40v100v20v19h-444
h-22h-15h-11h-156v-39h156v-644h-156v-39h156h11h15h22z" />
    <glyph glyph-name="Edieresis" unicode="&#xcb;" horiz-adv-x="820" 
d="M489 851h63c0 18 -14 27 -33 27c-18 0 -30 -10 -30 -27zM489 851h63c0 -18 -14 -28 -33 -28c-18 0 -30 10 -30 28zM331 851h62c0 18 -13 27 -32 27c-18 0 -30 -10 -30 -27zM331 851h62c0 -18 -13 -28 -32 -28c-18 0 -30 10 -30 28zM264 0h484v19v20v100h-40v-100h-444
v315h369v39h-369v290h404v-100h40v100v20v19h-444h-22h-15h-11h-156v-39h156v-644h-156v-39h156h11h15h22z" />
    <glyph glyph-name="Edotaccent" unicode="&#x116;" horiz-adv-x="820" 
d="M409 851h63c0 -18 -14 -27 -33 -27c-18 0 -30 10 -30 27zM409 851h63c0 18 -14 28 -33 28c-18 0 -30 -11 -30 -28zM264 0h484v19v20v100h-40v-100h-444v315h369v39h-369v290h404v-100h40v100v20v19h-444h-22h-15h-11h-156v-39h156v-644h-156v-39h156h11h15h22z" />
    <glyph glyph-name="Egrave" unicode="&#xc8;" horiz-adv-x="820" 
d="M543 832c-64 53 -132 114 -196 166h-63c63 -52 132 -113 195 -166h64zM264 0h484v19v20v100h-40v-100h-444v315h369v39h-369v290h404v-100h40v100v20v19h-444h-22h-15h-11h-156v-39h156v-644h-156v-39h156h11h15h22z" />
    <glyph glyph-name="Emacron" unicode="&#x112;" horiz-adv-x="820" 
d="M568 871h-266v-38h266v38zM264 0h484v19v20v100h-40v-100h-444v315h369v39h-369v290h404v-100h40v100v20v19h-444h-22h-15h-11h-156v-39h156v-644h-156v-39h156h11h15h22z" />
    <glyph glyph-name="Eogonek" unicode="&#x118;" horiz-adv-x="821" 
d="M637.284 3.55271e-15c-32.4485 -18.0774 -54.2842 -42.2005 -54.2842 -84c0 -65 46 -101 114 -101c38 0 64 12 98 29c-21 28 -2 2 -23 29c-25 -12 -43 -21 -71 -21c-44 0 -74 23 -74 64c0 50.2878 42.7391 64.2877 90.5619 84h30.4381v19v20v100h-40v-100h-444v315h369
v39h-369v290h404v-100h40v100v20v19h-444h-22h-15h-11h-156v-39h156v-644h-156v-39h156h11h15h22z" />
    <glyph glyph-name="Eth" unicode="&#xd0;" horiz-adv-x="955" 
d="M265 722h-22h-26h-156v-39h156v-304h-79v-42h79v-298h-156v-39h156h26h22h209c246 0 388 115 388 352c0 248 -146 370 -401 370h-196zM265 683h193c228 0 357 -111 357 -332c0 -209 -122 -312 -336 -312h-214v298h231v42h-231v304z" />
    <glyph glyph-name="Euro" unicode="&#x20ac;" horiz-adv-x="961" 
d="M847 655c-83 41 -171 72 -272 72c-204.928 0 -341.434 -98.0475 -379.897 -274h-115.103v-40h108.229c-2.80356 -21.96 -4.22921 -44.9709 -4.22921 -69c0 -20.8661 1.19747 -40.8731 3.5536 -60h-107.554v-41h114.67c36.4255 -160.234 164.282 -248 355.33 -248
c130 0 214 32 316 100c-26 31 -1 0 -26 31c-93 -64 -172 -89 -288 -89c-161.959 0 -271.457 73.446 -307.251 206h321.251v41h-329.681c-2.86149 19.6102 -4.319 40.2889 -4.319 62c0 23.4023 1.53073 45.7522 4.53596 67h328.464v40h-320.756
c36.7036 148.359 154.18 233 328.756 233c85.3045 0 163.579 -20.2111 234 -54.867v-103.133h40v127z" />
    <glyph glyph-name="F" unicode="F" horiz-adv-x="790" 
d="M266 683h408v-100h40v100v20v19h-448h-24h-13h-11h-158v-39h158v-644h-158v-39h158h24h24h157v39h-157v315h361v39h-361v290z" />
    <glyph glyph-name="G" unicode="G" horiz-adv-x="949" 
d="M802 98.2663c-97.5162 -43.6093 -180.308 -61.2663 -294 -61.2663c-225 0 -365 113 -365 331c0 208 137 318 351 318c110.282 0 197.065 -20.7885 293 -68.3806v-100.619h39v126c-110 59 -207 84 -332 84c-245 0 -399 -124 -399 -363c0 -245 161 -369 412 -369
c134 0 219 26 339 82v252h-15h-29h-231v-39h231v-191.734z" />
    <glyph glyph-name="Gbreve" unicode="&#x11e;" horiz-adv-x="949" 
d="M621 960c0 -66 -54 -91 -126 -91c-70 0 -121 27 -121 92h-46c0 -91 68 -130 165 -130c101 0 173 37 173 129h-45zM802 98.2663c-97.5162 -43.6093 -180.308 -61.2663 -294 -61.2663c-225 0 -365 113 -365 331c0 208 137 318 351 318
c110.282 0 197.065 -20.7885 293 -68.3806v-100.619h39v126c-110 59 -207 84 -332 84c-245 0 -399 -124 -399 -363c0 -245 161 -369 412 -369c134 0 219 26 339 82v252h-15h-29h-231v-39h231v-191.734z" />
    <glyph glyph-name="Gcommaaccent" unicode="&#x122;" horiz-adv-x="949" 
d="M436 -303l133 186h-62l-119 -186h48zM802 98.2663c-97.5162 -43.6093 -180.308 -61.2663 -294 -61.2663c-225 0 -365 113 -365 331c0 208 137 318 351 318c110.282 0 197.065 -20.7885 293 -68.3806v-100.619h39v126c-110 59 -207 84 -332 84c-245 0 -399 -124 -399 -363
c0 -245 161 -369 412 -369c134 0 219 26 339 82v252h-15h-29h-231v-39h231v-191.734z" />
    <glyph glyph-name="H" unicode="H" horiz-adv-x="1080" 
d="M815 343v-304h-157v-39h182h182v39h-159v644h159v39h-182h-182v-39h157v-301h-549v301h158v39h-158h-24h-24h-158v-39h158v-644h-158v-39h158h24h24h158v39h-158v304h549z" />
    <glyph glyph-name="I" unicode="I" horiz-adv-x="482" 
d="M216 0h26h22h160v39h-160v644h160v39h-160h-22h-26h-156v-39h156v-644h-156v-39h156z" />
    <glyph glyph-name="Iacute" unicode="&#xcd;" horiz-adv-x="488" 
d="M190 833c64 53 132 114 196 166h-64c-63 -52 -132 -113 -195 -166h63zM218 0h25h22h160v39h-160v644h160v39h-160h-22h-25h-157v-39h157v-644h-157v-39h157z" />
    <glyph glyph-name="Icircumflex" unicode="&#xce;" horiz-adv-x="576" 
d="M523 834c-63 53 -131 114 -195 166h-10h-53h-10c-64 -52 -132 -113 -195 -166h63c54.2712 45.6567 112.995 97.2502 168.5 143.913c55.505 -46.6626 114.229 -98.256 168.5 -143.913h63zM266 0h25h23h159v39h-159v644h159v39h-159h-23h-25h-157v-39h157v-644h-157v-39
h157z" />
    <glyph glyph-name="Idieresis" unicode="&#xcf;" horiz-adv-x="492" 
d="M295 851h62c0 -18 -13 -27 -32 -27c-18 0 -30 10 -30 27zM295 851h62c0 18 -13 28 -32 28c-18 0 -30 -11 -30 -28zM136 851h63c0 -18 -14 -27 -33 -27c-18 0 -30 10 -30 27zM136 851h63c0 18 -14 28 -32 28c-19 0 -31 -11 -31 -28zM221 0h25h23h159v39h-159v644h159v39
h-159h-23h-25h-156v-39h156v-644h-156v-39h156z" />
    <glyph glyph-name="Idotaccent" unicode="&#x130;" horiz-adv-x="482" 
d="M210 852h62c0 18 -13 27 -32 27c-18 0 -30 -10 -30 -27zM210 852h62c0 -18 -13 -28 -32 -28c-18 0 -30 10 -30 28zM216 0h26h22h160v39h-160v644h160v39h-160h-22h-26h-156v-39h156v-644h-156v-39h156z" />
    <glyph glyph-name="Igrave" unicode="&#xcc;" horiz-adv-x="487" 
d="M346 833c-63 52 -132 113 -195 166h-64c64 -53 132 -113 196 -166h63zM219 0h25h23h159v39h-159v644h159v39h-159h-23h-25h-156v-39h156v-644h-156v-39h156z" />
    <glyph glyph-name="Imacron" unicode="&#x12a;" horiz-adv-x="482" 
d="M369 871h-266v-38h266v38zM216 0h26h22h160v39h-160v644h160v39h-160h-22h-26h-156v-39h156v-644h-156v-39h156z" />
    <glyph glyph-name="Iogonek" unicode="&#x12e;" horiz-adv-x="482" 
d="M163.286 0c-28.4797 -17.64 -47.2865 -41.2078 -47.2865 -80c0 -65 46 -102 113 -102c39 0 64 13 98 30c-20 28 -2 1 -22 29c-25 -13 -44 -21 -72 -21c-43 0 -73 23 -73 64c0 46.0501 37.1545 61.9559 80.3549 80h1.64508h22h160v39h-160v644h160v39h-160h-22h-26h-156
v-39h156v-644h-156v-39h103.286z" />
    <glyph glyph-name="J" unicode="J" horiz-adv-x="617" 
d="M47 42c36 -21 85 -44 145 -44c145 0 228 79 228 225v460h159v39h-159h-23h-26h-156v-39h156v-460c0 -117 -63 -186 -179 -186c-49 0 -83 16 -123 36c-20 -28 -1 -2 -22 -31z" />
    <glyph glyph-name="K" unicode="K" horiz-adv-x="934" 
d="M266 351.468c138.026 -103.749 276.053 -208.644 414.079 -312.468h-135.079v-39h187h7h3h65h113v39h-165.551c-153.483 113.825 -306.966 227.01 -460.449 341c146.134 103.622 285.208 202.538 428.338 303h168.662v39h-113h-63h-10h-185v-39h130.605
l-384.605 -275.755v275.755h150v39h-150h-24h-24h-158v-39h158v-644h-158v-39h158h24h24h152v39h-152v312.468z" />
    <glyph glyph-name="Kcommaaccent" unicode="&#x136;" horiz-adv-x="934" 
d="M442 -301l132 187h-62l-119 -187h49zM266 351.468c138.026 -103.749 276.053 -208.644 414.079 -312.468h-135.079v-39h187h7h3h65h113v39h-165.551c-153.483 113.825 -306.966 227.01 -460.449 341c146.134 103.622 285.208 202.538 428.338 303h168.662v39h-113h-63
h-10h-185v-39h130.605l-384.605 -275.755v275.755h150v39h-150h-24h-24h-158v-39h158v-644h-158v-39h158h24h24h152v39h-152v312.468z" />
    <glyph glyph-name="L" unicode="L" horiz-adv-x="800" 
d="M266 0h474v19v20v100h-40v-100h-434v644h156v39h-156h-26h-23h-159v-39h159v-644h-159v-39h159h23h26z" />
    <glyph glyph-name="Lacute" unicode="&#x139;" horiz-adv-x="801" 
d="M190 832c63 53 132 114 195 166h-63c-64 -52 -132 -113 -195 -166h63zM268 0h474v19v20v100h-40v-100h-434v644h156v39h-156h-26h-23h-159v-39h159v-644h-159v-39h159h23h26z" />
    <glyph glyph-name="Lcaron" unicode="&#x13d;" horiz-adv-x="774" 
d="M572 536l132 186h-62l-119 -186h49zM266 0h474v19v20v100h-40v-100h-434v644h156v39h-156h-26h-23h-159v-39h159v-644h-159v-39h159h23h26z" />
    <glyph glyph-name="Lcommaaccent" unicode="&#x13b;" horiz-adv-x="800" 
d="M374 -301l132 186h-62l-119 -186h49zM266 0h474v19v20v100h-40v-100h-434v644h156v39h-156h-26h-23h-159v-39h159v-644h-159v-39h159h23h26z" />
    <glyph glyph-name="Lslash" unicode="&#x141;" horiz-adv-x="799" 
d="M266 0h474v19v20v100h-40v-100h-434v277.264c66.3333 55.6555 132.667 111.362 199 166.736v44c-66.3333 -55.9507 -132.667 -111.569 -199 -167.046v323.046h156v39h-156h-26h-23h-159v-39h159v-364.004c-32.3333 -27.0135 -64.6667 -54.0048 -97 -80.9961v-44
c32.3333 26.9913 64.6667 54.0617 97 81.1666v-236.167h-159v-39h159h23h26z" />
    <glyph glyph-name="M" unicode="M" horiz-adv-x="1254" 
d="M607 0h40h10c96.81 216.03 194.424 431.256 291.4 647.119c19.9055 -202.87 38.6857 -405.178 58.7321 -608.119h-155.132v-39h159h23h25h157v39h-161.046c-22.2997 214.903 -44.5565 429.097 -66.0604 644h156.107v39h-160h-3h-19h-22h-5
c-104.271 -226.39 -205.895 -451.898 -309.016 -678.182c-103.446 226.283 -207.774 451.791 -312.984 678.182h-4h-20h-22h-3h-157v-39h153.277c-20.5181 -214.903 -41.0363 -429.097 -61.5544 -644h-159.723v-39h156h26h21h160v39h-156.439
c18.4996 202.542 37.0374 404.454 56.2076 606.924c98.5893 -215.462 197.811 -430.293 296.231 -645.924h8z" />
    <glyph glyph-name="N" unicode="N" horiz-adv-x="1099" 
d="M859 0h47h2v683h156v39h-156h-23h-3h-23h-156v-39h156v-629.333c-195.328 222.978 -390.593 445.227 -585 668.333h-8h-23h-25h-4h-153v-39h157v-644h-157l-1 -39h158h24h24h158v39h-158v623.626c193.667 -221.064 387.333 -441.424 581 -662.626h12z" />
    <glyph glyph-name="Nacute" unicode="&#x143;" horiz-adv-x="1099" 
d="M504 833c63 53 132 114 195 166h-63c-64 -52 -132 -113 -195 -166h63zM859 0h47h2v683h156v39h-156h-23h-3h-23h-156v-39h156v-629.333c-195.328 222.978 -390.593 445.227 -585 668.333h-8h-23h-25h-4h-153v-39h157v-644h-157l-1 -39h158h24h24h158v39h-158v623.626
c193.667 -221.064 387.333 -441.424 581 -662.626h12z" />
    <glyph glyph-name="Ncaron" unicode="&#x147;" horiz-adv-x="1099" 
d="M325 998c63 -53 132 -114 195 -166h10h54h9c64 52 133 113 196 166h-64c-54.1594 -45.5627 -112.753 -96.2986 -168.157 -143.313c-55.8487 47.0146 -113.824 97.7505 -168.843 143.313h-63zM859 0h47h2v683h156v39h-156h-23h-3h-23h-156v-39h156v-629.333
c-195.328 222.978 -390.593 445.227 -585 668.333h-8h-23h-25h-4h-153v-39h157v-644h-157l-1 -39h158h24h24h158v39h-158v623.626c193.667 -221.064 387.333 -441.424 581 -662.626h12z" />
    <glyph glyph-name="Ncommaaccent" unicode="&#x145;" horiz-adv-x="1099" 
d="M498 -301l132 186h-62l-119 -186h49zM859 0h47h2v683h156v39h-156h-23h-3h-23h-156v-39h156v-629.333c-195.328 222.978 -390.593 445.227 -585 668.333h-8h-23h-25h-4h-153v-39h157v-644h-157l-1 -39h158h24h24h158v39h-158v623.626
c193.667 -221.064 387.333 -441.424 581 -662.626h12z" />
    <glyph glyph-name="Ntilde" unicode="&#xd1;" horiz-adv-x="1099" 
d="M750 968c-16 -53 -36 -97 -83 -97c-43 0 -70 17 -101 46c-36 33 -65 53 -114 53c-73 0 -110 -49 -128 -122l35 -14c16 57 41 98 94 98c38 0 60 -19 88 -45c38 -35 72 -55 124 -55c71 0 100 54 122 123zM859 0h47h2v683h156v39h-156h-23h-3h-23h-156v-39h156v-629.333
c-195.328 222.978 -390.593 445.227 -585 668.333h-8h-23h-25h-4h-153v-39h157v-644h-157l-1 -39h158h24h24h158v39h-158v623.626c193.667 -221.064 387.333 -441.424 581 -662.626h12z" />
    <glyph glyph-name="O" unicode="O" horiz-adv-x="929" 
d="M99 360c0 -225 140 -365 365 -365c227 0 366 142 366 368c0 224 -139 364 -364 364c-227 0 -367 -142 -367 -367zM147 360c0 198 117 327 315 327c199 0 320 -126 320 -324c0 -197 -118 -327 -315 -327c-200 0 -320 126 -320 324z" />
    <glyph glyph-name="OE" unicode="&#x152;" horiz-adv-x="1236" 
d="M680 0h484v19v20v100h-39v-100h-445v315h369v39h-369v290h404v-100h40v100v20v19h-444h-22h-15h-11h-87.9099c-17.4002 1.41286 -35.5846 2 -55.0901 2c-244 0 -392 -139 -392 -380c0 -221 140 -346 366 -346c21.7377 0 41.6441 0.588614 60.4552 2l108.545 -2.22045e-16
h11h15h22zM632 663.871v-600.794c-55.878 -20.7205 -103.193 -23.0766 -167 -23.0766c-193 0 -320 111 -320 306c0 213 131 336 341 336c55.738 0 99.3403 -0.758477 146 -18.1289z" />
    <glyph glyph-name="Oacute" unicode="&#xd3;" horiz-adv-x="929" 
d="M412 833c64 53 132 114 196 166h-64c-63 -52 -132 -113 -195 -166h63zM99 360c0 -225 140 -365 365 -365c227 0 366 142 366 368c0 224 -139 364 -364 364c-227 0 -367 -142 -367 -367zM147 360c0 198 117 327 315 327c199 0 320 -126 320 -324
c0 -197 -118 -327 -315 -327c-200 0 -320 126 -320 324z" />
    <glyph glyph-name="Ocircumflex" unicode="&#xd4;" horiz-adv-x="929" 
d="M697 834c-63 53 -132 114 -195 166h-10h-54h-9c-64 -52 -133 -113 -196 -166h64c54.1594 45.5627 112.753 97.0377 168.157 143.624c55.8487 -46.5867 113.824 -98.0616 168.843 -143.624h63zM99 360c0 -225 140 -365 365 -365c227 0 366 142 366 368
c0 224 -139 364 -364 364c-227 0 -367 -142 -367 -367zM147 360c0 198 117 327 315 327c199 0 320 -126 320 -324c0 -197 -118 -327 -315 -327c-200 0 -320 126 -320 324z" />
    <glyph glyph-name="Odieresis" unicode="&#xd6;" horiz-adv-x="929" 
d="M513 851h63c0 -18 -13 -27 -32 -27s-31 10 -31 27zM513 851h63c0 18 -13 28 -32 28s-31 -11 -31 -28zM355 851h62c0 -18 -13 -27 -32 -27c-18 0 -30 10 -30 27zM355 851h62c0 18 -13 28 -32 28c-18 0 -30 -11 -30 -28zM99 360c0 -225 140 -365 365 -365
c227 0 366 142 366 368c0 224 -139 364 -364 364c-227 0 -367 -142 -367 -367zM147 360c0 198 117 327 315 327c199 0 320 -126 320 -324c0 -197 -118 -327 -315 -327c-200 0 -320 126 -320 324z" />
    <glyph glyph-name="Ograve" unicode="&#xd2;" horiz-adv-x="929" 
d="M567 833c-63 52 -132 113 -196 166h-63c63 -53 132 -113 195 -166h64zM99 360c0 -225 140 -365 365 -365c227 0 366 142 366 368c0 224 -139 364 -364 364c-227 0 -367 -142 -367 -367zM147 360c0 198 117 327 315 327c199 0 320 -126 320 -324
c0 -197 -118 -327 -315 -327c-200 0 -320 126 -320 324z" />
    <glyph glyph-name="Ohungarumlaut" unicode="&#x150;" horiz-adv-x="929" 
d="M536 785l133 186h-62l-119 -186h48zM373 785l133 186h-62l-119 -186h48zM99 360c0 -225 140 -365 365 -365c227 0 366 142 366 368c0 224 -139 364 -364 364c-227 0 -367 -142 -367 -367zM147 360c0 198 117 327 315 327c199 0 320 -126 320 -324
c0 -197 -118 -327 -315 -327c-200 0 -320 126 -320 324z" />
    <glyph glyph-name="Omacron" unicode="&#x14c;" horiz-adv-x="929" 
d="M592 871h-266v-38h266v38zM99 360c0 -225 140 -365 365 -365c227 0 366 142 366 368c0 224 -139 364 -364 364c-227 0 -367 -142 -367 -367zM147 360c0 198 117 327 315 327c199 0 320 -126 320 -324c0 -197 -118 -327 -315 -327c-200 0 -320 126 -320 324z" />
    <glyph glyph-name="Oslash" unicode="&#xd8;" horiz-adv-x="929" 
d="M99 360c0 -144.377 57.6448 -253.756 158.403 -313.604l-60.403 -99.3958l32 -21l62.5793 102.738c49.4925 -22.05 107.408 -33.7384 172.421 -33.7384c227 0 366 142 366 368c0 139.059 -53.5692 245.745 -148.027 306.66l55.0273 90.3401l-35 18l-54.1911 -89.1739
c-51.4208 24.9046 -112.539 38.1739 -181.809 38.1739c-227 0 -367 -142 -367 -367zM147 360c0 198 117 327 315 327c62.4899 0 117.288 -12.4246 163.064 -35.6018l-344.468 -566.837c-85.7023 53.9992 -133.596 150.351 -133.596 275.439zM658.643 631.359
c79.0634 -55.1233 123.357 -148.563 123.357 -268.359c0 -197 -118 -327 -315 -327c-57.8597 0 -109.024 10.5454 -152.524 30.3287z" />
    <glyph glyph-name="Otilde" unicode="&#xd5;" horiz-adv-x="929" 
d="M658 968c-16 -53 -35 -97 -83 -97c-42 0 -70 17 -101 46c-36 33 -65 53 -113 53c-73 0 -111 -49 -129 -122l35 -14c16 57 41 98 95 98c38 0 60 -19 87 -45c39 -35 72 -55 124 -55c71 0 100 54 122 123zM99 360c0 -225 140 -365 365 -365c227 0 366 142 366 368
c0 224 -139 364 -364 364c-227 0 -367 -142 -367 -367zM147 360c0 198 117 327 315 327c199 0 320 -126 320 -324c0 -197 -118 -327 -315 -327c-200 0 -320 126 -320 324z" />
    <glyph glyph-name="P" unicode="P" horiz-adv-x="780" 
d="M266 348.536v334.464h127c144 0 254 -60 254 -194c0 -117 -93 -177 -217 -177c-63.0987 0 -108.977 13.7766 -164 36.536zM247 722h-4h-25h-157v-39h157v-644h-157v-39h157h25h23h159v39h-159v268.303c51.4842 -19.8074 101.691 -33.3028 159 -33.3028
c155 2 270 72 270 217c0 155 -128 231 -296 231h-133h-19z" />
    <glyph glyph-name="Q" unicode="Q" horiz-adv-x="949" 
d="M99 360c0 -224.017 140.761 -363.775 365.042 -364.992c126.664 -178.449 268.038 -229.008 480.958 -229.008v40c-185.961 0 -312.822 42.3403 -426.147 191.64c195.364 20.4377 314.147 158.188 314.147 366.36c0 224 -140 364 -365 364c-227 0 -369 -142 -369 -368z
M147 360c0 198 120 325 318 325c199 0 320 -125 320 -323c0 -197 -118 -326 -316 -326c-200 0 -322 126 -322 324z" />
    <glyph glyph-name="R" unicode="R" horiz-adv-x="979" 
d="M244 722h-4h-23h-159v-39h159v-644h-159v-39h159h23h26h156v39h-156v293h178c10.272 0 20.3497 0.236694 30.2147 0.719426l284.785 -332.719h15h43h138v39h-171.381l-256.035 299.13c112.477 18.0328 186.416 77.2438 186.416 195.87c0 138 -108 188 -260 188h-188h-22z
M266 683h180c128 0 220 -38 220 -153c0 -116 -90 -159 -216 -159h-184v312z" />
    <glyph glyph-name="Racute" unicode="&#x154;" horiz-adv-x="979" 
d="M367 833c63 53 132 113 195 166h-63c-64 -52 -133 -113 -196 -166h64zM244 722h-4h-23h-159v-39h159v-644h-159v-39h159h23h26h156v39h-156v293h178c10.272 0 20.3497 0.236694 30.2147 0.719426l284.785 -332.719h15h43h138v39h-171.381l-256.035 299.13
c112.477 18.0328 186.416 77.2438 186.416 195.87c0 138 -108 188 -260 188h-188h-22zM266 683h180c128 0 220 -38 220 -153c0 -116 -90 -159 -216 -159h-184v312z" />
    <glyph glyph-name="Rcaron" unicode="&#x158;" horiz-adv-x="979" 
d="M187 998c64 -53 132 -114 196 -166h10h53h10c64 52 132 113 195 166h-63c-54.2712 -45.6567 -112.995 -97.2502 -168.5 -143.913c-55.505 46.6626 -114.229 98.256 -168.5 143.913h-64zM244 722h-4h-23h-159v-39h159v-644h-159v-39h159h23h26h156v39h-156v293h178
c10.272 0 20.3497 0.236694 30.2147 0.719426l284.785 -332.719h15h43h138v39h-171.381l-256.035 299.13c112.477 18.0328 186.416 77.2438 186.416 195.87c0 138 -108 188 -260 188h-188h-22zM266 683h180c128 0 220 -38 220 -153c0 -116 -90 -159 -216 -159h-184v312z" />
    <glyph glyph-name="Rcommaaccent" unicode="&#x156;" horiz-adv-x="979" 
d="M433 -302l133 187h-62l-119 -187h48zM244 722h-4h-23h-159v-39h159v-644h-159v-39h159h23h26h156v39h-156v293h178c10.272 0 20.3497 0.236694 30.2147 0.719426l284.785 -332.719h15h43h138v39h-171.381l-256.035 299.13
c112.477 18.0328 186.416 77.2438 186.416 195.87c0 138 -108 188 -260 188h-188h-22zM266 683h180c128 0 220 -38 220 -153c0 -116 -90 -159 -216 -159h-184v312z" />
    <glyph glyph-name="S" unicode="S" horiz-adv-x="724" 
d="M104 57c80 -41 157 -62 247 -62c152 0 268 43 268 179c0 128 -114 164 -237 215c-104 41 -206 68 -206 170c0 90 81 130 183 130c74.0788 0 131.429 -19.2373 195 -48.5328v-103.467h40v126c-80 39 -144 63 -233 63c-130 0 -233 -52 -233 -169c0 -122 109 -155 225 -202
c111 -44 218 -75 218 -181c0 -104 -94 -138 -217 -138c-76.1811 0 -142.632 18.5756 -211 50.7353v97.2647h-40v-127h1z" />
    <glyph glyph-name="Sacute" unicode="&#x15a;" horiz-adv-x="724" 
d="M311 833c63 53 132 113 195 166h-63c-64 -52 -132 -113 -195 -166h63zM104 57c80 -41 157 -62 247 -62c152 0 268 43 268 179c0 128 -114 164 -237 215c-104 41 -206 68 -206 170c0 90 81 130 183 130c74.0788 0 131.429 -19.2373 195 -48.5328v-103.467h40v126
c-80 39 -144 63 -233 63c-130 0 -233 -52 -233 -169c0 -122 109 -155 225 -202c111 -44 218 -75 218 -181c0 -104 -94 -138 -217 -138c-76.1811 0 -142.632 18.5756 -211 50.7353v97.2647h-40v-127h1z" />
    <glyph glyph-name="Scaron" unicode="&#x160;" horiz-adv-x="727" 
d="M134 998c63 -53 132 -114 195 -166h10h54h9c64 52 133 113 196 166h-64c-54.1594 -45.5627 -112.753 -97.0377 -168.157 -143.624c-55.8487 46.5867 -113.824 98.0616 -168.843 143.624h-63zM106 57c80 -41 157 -62 247 -62c152 0 268 43 268 179
c0 128 -113 164 -237 215c-104 41 -206 68 -206 170c0 90 82 130 183 130c74.0788 0 131.429 -19.2373 195 -48.5328v-103.467h40v126c-79 39 -144 63 -233 63c-130 0 -233 -52 -233 -169c0 -122 109 -155 225 -202c111 -44 218 -75 218 -181c0 -104 -94 -138 -216 -138
c-77.1217 0 -143.629 18.5757 -212 50.7354v97.2646h-40v-127h1z" />
    <glyph glyph-name="Scedilla" unicode="&#x15e;" horiz-adv-x="724" 
d="M305 -95c16 9 29 12 48 12c33 0 56 -17 56 -48c0 -36 -32 -48 -71 -48c-31 0 -54 3 -83 17l-16 -30c33 -15 59 -22 96 -22c67 0 117 23 117 83c0 55 -40 85 -97 85c-6.41313 0 -12.4411 -0.299581 -18.2255 -0.872183c10.1469 14.7345 20.2349 29.5152 28.6278 42.0045
c144.865 2.69925 253.598 47.1965 253.598 178.868c0 128 -114 164 -237 215c-104 41 -206 68 -206 170c0 90 81 130 183 130c74.0788 0 131.429 -19.2373 195 -48.5328v-103.467h40v126c-80 39 -144 63 -233 63c-130 0 -233 -52 -233 -169c0 -122 109 -155 225 -202
c111 -44 218 -75 218 -181c0 -104 -94 -138 -217 -138c-76.1811 0 -142.632 18.5756 -211 50.7353v97.2647h-40v-127h1c68.2991 -35.0033 134.412 -55.4292 208.294 -60.6554c-14.0977 -21.0237 -29.4383 -43.7423 -40.2937 -60.3446l31 -29.0625z" />
    <glyph glyph-name="Scommaaccent" unicode="&#x218;" horiz-adv-x="724" 
d="M269 -304l132 186h-62l-119 -186h49zM104 57c80 -41 157 -62 247 -62c152 0 268 43 268 179c0 128 -114 164 -237 215c-104 41 -206 68 -206 170c0 90 81 130 183 130c74.0788 0 131.429 -19.2373 195 -48.5328v-103.467h40v126c-80 39 -144 63 -233 63
c-130 0 -233 -52 -233 -169c0 -122 109 -155 225 -202c111 -44 218 -75 218 -181c0 -104 -94 -138 -217 -138c-76.1811 0 -142.632 18.5756 -211 50.7353v97.2647h-40v-127h1z" />
    <glyph glyph-name="T" unicode="T" horiz-adv-x="876" 
d="M414 681v-643h-159v-38h159h23h25h157v38h-157v643h304v-99h39v99v21v20h-733v-20v-21v-99h39v99h303z" />
    <glyph glyph-name="Tcaron" unicode="&#x164;" horiz-adv-x="876" 
d="M203 997c63 -52 132 -113 195 -166h10h54h9c64 53 133 114 196 166h-64c-54.1083 -45.5197 -112.642 -96.2028 -168 -143.18c-55.3576 46.9772 -113.892 97.6604 -168 143.18h-64zM414 681v-643h-159v-38h159h23h25h157v38h-157v643h304v-99h39v99v21v20h-733v-20v-21
v-99h39v99h303z" />
    <glyph glyph-name="Tcedilla" horiz-adv-x="876" 
d="M438.133 -45.8454c11.1728 16.3556 22.4884 32.6448 31.7584 45.8454h149.109v38h-157v643h304v-99h39v99v21v20h-733v-20v-21v-99h39v99h303v-643h-159v-38h159h1.49425c-14.4022 -21.5286 -30.4598 -45.6168 -42.4943 -63
c0.355847 -0.334281 0.704136 -0.661352 1.04503 -0.981369c-0.0150076 -0.00620892 -0.0300171 -0.0124192 -0.0450285 -0.0186308l32 -30c16 9 30 12 48 12c33 0 56 -17 56 -49c0 -36 -31 -48 -71 -48c-31 0 -54 4 -83 18l-16 -30c33 -15 60 -22 96 -22
c67 0 117 23 117 83c0 55 -39 85 -97 85c-6.28084 0 -12.1922 -0.287349 -17.8672 -0.845414z" />
    <glyph glyph-name="Tcommaaccent" unicode="&#x162;" horiz-adv-x="876" 
d="M380 -305l132 187h-62l-119 -187h49zM414 681v-643h-159v-38h159h23h25h157v38h-157v643h304v-99h39v99v21v20h-733v-20v-21v-99h39v99h303z" />
    <glyph glyph-name="Thorn" unicode="&#xde;" horiz-adv-x="773" 
d="M266 683h159v39h-159h-23h-25h-157v-39h157v-644h-157v-39h157h25h23h159v39h-159v168.151c52.5135 -20.2887 103.827 -33.1514 163 -33.1514c151 2 264 70 264 213c0 151 -127 225 -294 225h-133v71zM266 248.35v324.65h127c143 0 251 -59 251 -188
c0 -115 -91 -173 -214 -173c-63.0987 0 -108.977 12.9156 -164 36.3498z" />
    <glyph glyph-name="U" unicode="U" horiz-adv-x="1033" 
d="M241 683h162v39h-181h-182v-39h156v-410c0 -196 115 -278 322 -278c203 0 318 80 318 273v415h159v39h-182h-182v-39h160v-420c0 -158 -99 -225 -270 -225c-180 0 -280 70 -280 242v403z" />
    <glyph glyph-name="Uacute" unicode="&#xda;" horiz-adv-x="1033" 
d="M464 833c63 53 132 114 195 166h-63c-64 -52 -133 -113 -196 -166h64zM241 683h162v39h-181h-182v-39h156v-410c0 -196 115 -278 322 -278c203 0 318 80 318 273v415h159v39h-182h-182v-39h160v-420c0 -158 -99 -225 -270 -225c-180 0 -280 70 -280 242v403z" />
    <glyph glyph-name="Ucircumflex" unicode="&#xdb;" horiz-adv-x="1033" 
d="M748 834c-63 53 -131 114 -195 166h-10h-53h-10c-64 -52 -132 -113 -195 -166h63c54.2712 45.6567 112.995 97.2502 168.5 143.913c55.505 -46.6626 114.229 -98.256 168.5 -143.913h63zM241 683h162v39h-181h-182v-39h156v-410c0 -196 115 -278 322 -278
c203 0 318 80 318 273v415h159v39h-182h-182v-39h160v-420c0 -158 -99 -225 -270 -225c-180 0 -280 70 -280 242v403z" />
    <glyph glyph-name="Udieresis" unicode="&#xdc;" horiz-adv-x="1033" 
d="M565 851h62c0 -18 -13 -27 -32 -27c-18 0 -30 10 -30 27zM565 851h62c0 18 -13 28 -32 28c-18 0 -30 -11 -30 -28zM406 851h63c0 -18 -14 -27 -33 -27c-18 0 -30 10 -30 27zM406 851h63c0 18 -14 28 -32 28c-19 0 -31 -11 -31 -28zM241 683h162v39h-181h-182v-39h156
v-410c0 -196 115 -278 322 -278c203 0 318 80 318 273v415h159v39h-182h-182v-39h160v-420c0 -158 -99 -225 -270 -225c-180 0 -280 70 -280 242v403z" />
    <glyph glyph-name="Ugrave" unicode="&#xd9;" horiz-adv-x="1033" 
d="M618 833c-63 52 -132 113 -195 166h-64c64 -53 132 -113 196 -166h63zM241 683h162v39h-181h-182v-39h156v-410c0 -196 115 -278 322 -278c203 0 318 80 318 273v415h159v39h-182h-182v-39h160v-420c0 -158 -99 -225 -270 -225c-180 0 -280 70 -280 242v403z" />
    <glyph glyph-name="Uhungarumlaut" unicode="&#x170;" horiz-adv-x="1033" 
d="M588 785l132 186h-62l-119 -186h49zM424 785l133 186h-62l-119 -186h48zM241 683h162v39h-181h-182v-39h156v-410c0 -196 115 -278 322 -278c203 0 318 80 318 273v415h159v39h-182h-182v-39h160v-420c0 -158 -99 -225 -270 -225c-180 0 -280 70 -280 242v403z" />
    <glyph glyph-name="Umacron" unicode="&#x16a;" horiz-adv-x="1033" 
d="M644 871h-267v-38h267v38zM241 683h162v39h-181h-182v-39h156v-410c0 -196 115 -278 322 -278c203 0 318 80 318 273v415h159v39h-182h-182v-39h160v-420c0 -158 -99 -225 -270 -225c-180 0 -280 70 -280 242v403z" />
    <glyph glyph-name="Uogonek" unicode="&#x172;" horiz-adv-x="1033" 
d="M518.75 -4.99964c202.533 0.197016 317.25 80.2375 317.25 273v415h159v39h-182h-182v-39h160v-420c0 -158 -99 -225 -270 -225c-180 0 -280 70 -280 242v403h162v39h-181h-182v-39h156v-410c0 -172.379 88.9522 -256.58 251.21 -274.371
c-32.8633 -18.1471 -55.2102 -42.3427 -55.2102 -84.6288c0 -65 46 -101 113 -101c39 0 65 12 98 29c-20 28 -2 1 -22 29c-25 -13 -44 -21 -72 -21c-43 0 -73 23 -73 64c0 46.899 38.5371 62.5322 82.7502 81.0004z" />
    <glyph glyph-name="Uring" unicode="&#x16e;" horiz-adv-x="1033" 
d="M416 953c0 56 39 87 98 87c63 0 106 -28 106 -87c0 -57 -42 -85 -103 -85c-60 0 -101 28 -101 85zM373 953c0 -79 60 -122 144 -122c86 0 146 41 146 122c0 82 -61 123 -149 123c-83 0 -141 -42 -141 -123zM241 683h162v39h-181h-182v-39h156v-410
c0 -196 115 -278 322 -278c203 0 318 80 318 273v415h159v39h-182h-182v-39h160v-420c0 -158 -99 -225 -270 -225c-180 0 -280 70 -280 242v403z" />
    <glyph glyph-name="V" unicode="V" horiz-adv-x="999" 
d="M501 0h7c104.065 227.997 207.235 455.099 311.204 683h158.796v39h-141h-41h-3h-7h-186v-39h168.357c-96.0502 -212.272 -192.142 -423.852 -288.96 -636.107c-97.8062 212.255 -195.562 423.835 -292.583 636.107h166.187v39h-184h-8h-3h-41h-142v-39h159.967
c105.014 -227.901 210.076 -455.003 316.033 -683h7h43z" />
    <glyph glyph-name="W" unicode="W" horiz-adv-x="1236" 
d="M831.76 60.1242c-63.4127 220.812 -127.666 440.924 -192.76 661.876h-8h-36h-9c-71.3379 -220.416 -142.676 -439.995 -214.014 -660.268c-60.3471 206.712 -121.307 414.65 -181.608 621.268h164.621v39h-176h-6h-41h-141v-39h152.501
c67.2686 -227.901 135.384 -455.003 203.499 -683h5h38h4c72.68 221.72 145.36 442.594 218.04 664.178c65.32 -221.585 130.64 -442.458 195.96 -664.178h6h35h7c70.0074 227.997 140.91 455.099 211.861 683h152.139v39h-140h-42h-6h-176v-39h164.031
c-63.756 -207.861 -126.727 -415.058 -188.272 -622.876z" />
    <glyph glyph-name="X" unicode="X" horiz-adv-x="927" 
d="M464.54 346.693c82.6862 -102.506 165.372 -205.018 248.059 -307.693h-153.599v-39h182v3.72672c0.333333 -0.414072 0.666667 -0.828146 1 -1.24222v-2.4845h2h59h120v39h-151.563c-92.7117 114.534 -185.423 228.866 -278.135 343.211
c81.1556 100.205 162.413 200.42 243.99 300.789h155.708v39h-124h-55h-3h-182v-39h153.105c-72.4329 -88.5274 -144.986 -176.934 -217.561 -265.32c-71.6604 88.3857 -143.321 176.793 -214.981 265.32h150.437v39h-181h-1h-56h-125v-39h156.401
c80.7518 -100.273 161.504 -200.391 242.255 -300.499c-93.9788 -114.442 -187.971 -228.87 -281.761 -343.501h-153.895v-39h122h59h1h2h180v39h-148.445c83.0701 102.675 165.988 205.188 248.986 307.693z" />
    <glyph glyph-name="Y" unicode="Y" horiz-adv-x="874" 
d="M672 722h-181v-39h162.438c-79.2672 -104.553 -159.065 -209.635 -238.307 -314.163c-75.0402 104.528 -150.08 209.611 -225.121 314.163h163.989v39h-182v-13.9169c-0.333333 0.464021 -0.666667 0.92803 -1 1.39203v12.5249h-9h-50h-122v-39h150.04
c82.5058 -114.714 165.731 -230.066 248.96 -344.624v-299.376h-156v-39h156h26h26h156v39h-156v299.306c87.7148 114.58 174.634 229.956 262.191 344.694h151.809v39h-122h-50h-10v-13.1948c-0.333322 -0.439775 -0.666656 -0.879562 -1 -1.31936v14.5141z" />
    <glyph glyph-name="Yacute" unicode="&#xdd;" horiz-adv-x="874" 
d="M362 833c63 53 132 114 195 166h-63c-64 -52 -132 -113 -195 -166h63zM672 722h-181v-39h162.438c-79.2672 -104.553 -159.065 -209.635 -238.307 -314.163c-75.0402 104.528 -150.08 209.611 -225.121 314.163h163.989v39h-182v-13.9169
c-0.333333 0.464021 -0.666667 0.92803 -1 1.39203v12.5249h-9h-50h-122v-39h150.04c82.5058 -114.714 165.731 -230.066 248.96 -344.624v-299.376h-156v-39h156h26h26h156v39h-156v299.306c87.7148 114.58 174.634 229.956 262.191 344.694h151.809v39h-122h-50h-10
v-13.1948c-0.333322 -0.439775 -0.666656 -0.879562 -1 -1.31936v14.5141z" />
    <glyph glyph-name="Ydieresis" unicode="&#x178;" horiz-adv-x="874" 
d="M672 722h-181v-39h162.438c-79.2672 -104.553 -159.065 -209.635 -238.307 -314.163c-75.0402 104.528 -150.08 209.611 -225.121 314.163h163.989v39h-182v-13.9169c-0.333333 0.464021 -0.666667 0.92803 -1 1.39203v12.5249h-9h-50h-122v-39h150.04
c82.5058 -114.714 165.731 -230.066 248.96 -344.624v-299.376h-156v-39h156h26h26h156v39h-156v299.306c87.7148 114.58 174.634 229.956 262.191 344.694h151.809v39h-122h-50h-10v-13.1948c-0.333322 -0.439775 -0.666656 -0.879562 -1 -1.31936v14.5141zM463 851h63
c0 -18 -14 -27 -33 -27c-18 0 -30 10 -30 27zM463 851h63c0 18 -14 28 -33 28c-18 0 -30 -11 -30 -28zM305 851h62c0 -18 -13 -27 -32 -27c-18 0 -30 10 -30 27zM305 851h62c0 18 -13 28 -32 28c-18 0 -30 -11 -30 -28z" />
    <glyph glyph-name="Z" unicode="Z" horiz-adv-x="824" 
d="M122.041 39c182.935 202.336 0.304166 0.271951 585.959 644v39h-601v-19v-20v-100h40v100h499.009c-181.02 -201.337 -0.3829 -0.320593 -585.009 -644v-39h689v19v20v100h-40v-100h-587.959z" />
    <glyph glyph-name="Zacute" unicode="&#x179;" horiz-adv-x="824" 
d="M356 833c64 53 132 113 196 166h-64c-63 -52 -132 -113 -195 -166h63zM122.041 39c182.935 202.336 0.304166 0.271951 585.959 644v39h-601v-19v-20v-100h40v100h499.009c-181.02 -201.337 -0.3829 -0.320593 -585.009 -644v-39h689v19v20v100h-40v-100h-587.959z" />
    <glyph glyph-name="Zcaron" unicode="&#x17d;" horiz-adv-x="824" 
d="M177 998c63 -53 132 -114 195 -166h10h54h9c64 52 133 113 196 166h-64c-54.1083 -45.5197 -112.642 -96.9405 -168 -143.492c-55.3576 46.5519 -113.892 97.9727 -168 143.492h-64zM122.041 39c182.935 202.336 0.304166 0.271951 585.959 644v39h-601v-19v-20v-100h40
v100h499.009c-181.02 -201.337 -0.3829 -0.320593 -585.009 -644v-39h689v19v20v100h-40v-100h-587.959z" />
    <glyph glyph-name="Zdotaccent" unicode="&#x17b;" horiz-adv-x="824" 
d="M377 851h63c0 -18 -14 -27 -33 -27c-18 0 -30 10 -30 27zM377 851h63c0 18 -14 28 -32 28c-19 0 -31 -10 -31 -28zM122.041 39c182.935 202.336 0.304166 0.271951 585.959 644v39h-601v-19v-20v-100h40v100h499.009c-181.02 -201.337 -0.3829 -0.320593 -585.009 -644
v-39h689v19v20v100h-40v-100h-587.959z" />
    <glyph glyph-name="a" unicode="a" horiz-adv-x="709" 
d="M536 0h21h149v38h-149v347c0 121 -83 153 -209 153c-100 0 -173 -32 -232 -74v-121h40v100.89c48.518 29.7985 108.055 55.1096 186 55.1096c102 0 167 -24 167 -125v-51.3253c-81.115 -8.5193 -134.573 -13.5609 -221 -23.6747c-112 -13 -194 -42 -194 -147
c0 -107 71 -157 184 -157c107.606 0 163.428 45.219 231 117.594v-112.594h27zM509 160.19c-69.6222 -74.3359 -120.78 -127.19 -223 -127.19c-89 0 -144 38 -144 121c0 79 62 101 145 111c87.3541 9.09938 140.761 14.8868 222 24.1431v-128.953z" />
    <glyph glyph-name="aacute" unicode="&#xe1;" horiz-adv-x="709" 
d="M301 651c63 53 132 113 195 166h-63c-64 -52 -132 -113 -196 -166h64zM536 0h21h149v38h-149v347c0 121 -83 153 -209 153c-100 0 -173 -32 -232 -74v-121h40v100.89c48.518 29.7985 108.055 55.1096 186 55.1096c102 0 167 -24 167 -125v-51.3253
c-81.115 -8.5193 -134.573 -13.5609 -221 -23.6747c-112 -13 -194 -42 -194 -147c0 -107 71 -157 184 -157c107.606 0 163.428 45.219 231 117.594v-112.594h27zM509 160.19c-69.6222 -74.3359 -120.78 -127.19 -223 -127.19c-89 0 -144 38 -144 121c0 79 62 101 145 111
c87.3541 9.09938 140.761 14.8868 222 24.1431v-128.953z" />
    <glyph glyph-name="abreve" unicode="&#x103;" horiz-adv-x="709" 
d="M480 778c0 -66 -53 -91 -126 -91c-70 0 -121 27 -121 92h-45c0 -90 67 -130 164 -130c101 0 174 37 174 129h-46zM536 0h21h149v38h-149v347c0 121 -83 153 -209 153c-100 0 -173 -32 -232 -74v-121h40v100.89c48.518 29.7985 108.055 55.1096 186 55.1096
c102 0 167 -24 167 -125v-51.3253c-81.115 -8.5193 -134.573 -13.5609 -221 -23.6747c-112 -13 -194 -42 -194 -147c0 -107 71 -157 184 -157c107.606 0 163.428 45.219 231 117.594v-112.594h27zM509 160.19c-69.6222 -74.3359 -120.78 -127.19 -223 -127.19
c-89 0 -144 38 -144 121c0 79 62 101 145 111c87.3541 9.09938 140.761 14.8868 222 24.1431v-128.953z" />
    <glyph glyph-name="acircumflex" unicode="&#xe2;" horiz-adv-x="710" 
d="M586 652c-63 53 -131 114 -195 166h-10h-53h-10c-64 -52 -132 -113 -195 -166h63c54.2712 45.6567 112.995 96.5081 168.5 143.604c55.505 -47.0962 114.229 -97.9476 168.5 -143.604h63zM537 0h21h149v38h-149v347c0 121 -83 153 -209 153c-100 0 -173 -32 -232 -74
v-121h39v100.275c48.6995 30.0648 108.519 55.7254 187 55.7254c101 0 167 -24 167 -125v-51.3253c-81.115 -8.5193 -134.573 -13.5609 -221 -23.6747c-112 -13 -194 -42 -194 -147c0 -107 71 -157 184 -157c107.939 0 163.774 45.4997 231 118.268v-113.268h27zM510 160.19
c-69.6222 -74.3359 -120.78 -127.19 -223 -127.19c-90 0 -145 38 -145 121c0 79 63 101 145 111c88.3447 9.1077 141.021 14.8974 223 24.1684v-128.979z" />
    <glyph glyph-name="acute" unicode="&#xb4;" horiz-adv-x="366" 
d="M74 591c63 53 132 113 195 166h-63c-64 -53 -132 -113 -195 -166h63z" />
    <glyph glyph-name="adieresis" unicode="&#xe4;" horiz-adv-x="709" 
d="M402 669h62c0 18 -13 27 -32 27c-18 0 -30 -10 -30 -27zM402 669h62c0 -18 -13 -28 -32 -28c-18 0 -30 10 -30 28zM244 669h62c0 18 -13 27 -32 27c-18 0 -30 -10 -30 -27zM244 669h62c0 -18 -13 -28 -32 -28s-30 10 -30 28zM536 0h21h149v38h-149v347
c0 121 -83 153 -209 153c-100 0 -173 -32 -232 -74v-121h40v100.89c48.518 29.7985 108.055 55.1096 186 55.1096c102 0 167 -24 167 -125v-51.3253c-81.115 -8.5193 -134.573 -13.5609 -221 -23.6747c-112 -13 -194 -42 -194 -147c0 -107 71 -157 184 -157
c107.606 0 163.428 45.219 231 117.594v-112.594h27zM509 160.19c-69.6222 -74.3359 -120.78 -127.19 -223 -127.19c-89 0 -144 38 -144 121c0 79 62 101 145 111c87.3541 9.09938 140.761 14.8868 222 24.1431v-128.953z" />
    <glyph glyph-name="ae" unicode="&#xe6;" horiz-adv-x="1104" 
d="M962 300h-406.476c6.77652 126.553 79.042 198 206.476 198c126 0 200 -67 200 -194v-4zM555.342 263h452.658v37c0 155 -90 237 -243 237c-100.257 0 -174.354 -34.0084 -216.808 -98.3697c-22.2083 77.2017 -97.1524 99.3697 -201.192 99.3697
c-101 0 -174 -32 -232 -74v-111h39v89.0828c48.4666 31.5169 104.533 56.9172 186 56.9172c102 0 167 -24 167 -125v-72.9832c-7.86487 0.00816978 -15.4741 0.016248 -22.8858 0.016248c-67.4696 0 -118.569 -0.669421 -197.114 -8.03306c-112 -14 -194 -38 -194 -143
c0 -106 70 -155 184 -155c115.178 0 187.904 44.9978 265.118 126.388c44.8673 -83.2906 131.283 -127.388 250.882 -127.388c86 0 141 24 207 78l-28 30c-59 -47 -105 -69 -179 -69c-147.39 0 -231.675 83.5205 -237.658 230zM507.267 264.039
c1.32171 -39.0481 7.54012 -74.1237 18.3596 -105.054c-72.2287 -76.3538 -138.045 -125.986 -240.626 -125.986c-86 0 -145 36 -145 119c0 70 65 96 147 105c67.1538 6.23077 113.219 7.18935 166.731 7.18935c16.8147 0 34.3647 -0.0946447 53.5354 -0.150107z" />
    <glyph glyph-name="agrave" unicode="&#xe0;" horiz-adv-x="709" 
d="M455 650c-63 53 -131 114 -195 166h-63c63 -52 132 -113 195 -166h63zM536 0h21h149v38h-149v347c0 121 -83 153 -209 153c-100 0 -173 -32 -232 -74v-121h40v100.89c48.518 29.7985 108.055 55.1096 186 55.1096c102 0 167 -24 167 -125v-51.3253
c-81.115 -8.5193 -134.573 -13.5609 -221 -23.6747c-112 -13 -194 -42 -194 -147c0 -107 71 -157 184 -157c107.606 0 163.428 45.219 231 117.594v-112.594h27zM509 160.19c-69.6222 -74.3359 -120.78 -127.19 -223 -127.19c-89 0 -144 38 -144 121c0 79 62 101 145 111
c87.3541 9.09938 140.761 14.8868 222 24.1431v-128.953z" />
    <glyph glyph-name="amacron" unicode="&#x101;" horiz-adv-x="709" 
d="M481 689h-266v-38h266v38zM536 0h21h149v38h-149v347c0 121 -83 153 -209 153c-100 0 -173 -32 -232 -74v-121h40v100.89c48.518 29.7985 108.055 55.1096 186 55.1096c102 0 167 -24 167 -125v-51.3253c-81.115 -8.5193 -134.573 -13.5609 -221 -23.6747
c-112 -13 -194 -42 -194 -147c0 -107 71 -157 184 -157c107.606 0 163.428 45.219 231 117.594v-112.594h27zM509 160.19c-69.6222 -74.3359 -120.78 -127.19 -223 -127.19c-89 0 -144 38 -144 121c0 79 62 101 145 111c87.3541 9.09938 140.761 14.8868 222 24.1431
v-128.953z" />
    <glyph glyph-name="ampersand" unicode="&#x26;" horiz-adv-x="840" 
d="M322.726 357.987c10.8176 -8.80883 21.6498 -17.7539 32.2741 -26.9868c75.4214 -64.1379 153.664 -131.097 231.168 -197.317c-61.7413 -63.3772 -140.826 -100.683 -242.168 -100.683c-113 0 -204 45 -204 149c0 100.039 89.6168 131.215 182.726 175.987z
M616.676 107.623c42.6766 -36.4429 84.9849 -72.5174 126.324 -107.623h61c-53.3503 44.3936 -107.307 90.3037 -161.457 136.667c40.566 49.7255 73.2884 110.788 99.4571 180.333l-40 9c-24.0442 -62.4431 -53.6261 -117.803 -90.04 -163.122
c-74.7955 64.1553 -149.811 128.793 -223.96 191.122c-8.62505 7.92572 -17.5082 15.5662 -26.4722 23.0416c94.9199 46.8747 177.568 92.08 178.472 196.958c0 101 -82 153 -189 153c-103 0 -177 -57 -177 -156c0 -83.8452 54.3616 -135.746 116.935 -187.168
c-103.766 -49.466 -197.935 -89.6693 -197.935 -201.832c0 -128 110 -187 249 -187c115.356 0 205.202 41.3334 274.676 112.623zM330.24 402.614c-57.1993 46.5606 -109.24 92.0848 -109.24 168.386c0 73 53 117 128 117c82 0 144 -38 144 -115
c0 -92.7837 -76.6185 -129.61 -162.76 -170.386z" />
    <glyph glyph-name="aogonek" unicode="&#x105;" horiz-adv-x="709" 
d="M547.233 7.10543e-15l9.76721 -7.10543e-15h149v38h-149v347c0 121 -83 153 -209 153c-100 0 -173 -32 -232 -74v-121h40v100.89c48.518 29.7985 108.055 55.1096 186 55.1096c102 0 167 -24 167 -125v-51.3253c-81.115 -8.5193 -134.573 -13.5609 -221 -23.6747
c-112 -13 -194 -42 -194 -147c0 -107 71 -157 184 -157c107.606 0 163.428 45.219 231 117.594v-94.0006c-57.9541 -21.9683 -105 -45.2384 -105 -106.593c0 -65 46 -101 113 -101c39 0 65 12 98 29c-20 28 -2 2 -22 29c-25 -12 -44 -21 -72 -21c-43 0 -73 23 -73 64
c0 53.6151 48.5819 65.9815 99.2328 88zM509 160.19c-69.6222 -74.3359 -120.78 -127.19 -223 -127.19c-89 0 -144 38 -144 121c0 79 62 101 145 111c87.3541 9.09938 140.761 14.8868 222 24.1431v-128.953z" />
    <glyph glyph-name="apostrophemod" horiz-adv-x="449" 
d="M180 536l133 186h-62l-119 -186h48z" />
    <glyph glyph-name="approxequal" unicode="&#x2248;" horiz-adv-x="868" 
d="M701 554c-21 -51 -52 -98 -115 -98c-55 0 -91 14 -135 45c-51 35 -89 56 -150 56c-91 0 -137 -43 -164 -124c23 -9 12 -6 36 -15c20 60 56 100 126 100c48 0 79 -13 117 -41c56 -38 98 -59 166 -59c87 0 127 48 157 121c-25 9 -13 6 -38 15zM699 351
c-21 -51 -52 -98 -115 -98c-55 0 -91 14 -135 45c-50 36 -89 56 -150 56c-91 0 -137 -43 -164 -124c23 -9 12 -5 36 -14c20 59 56 100 126 100c48 0 79 -14 118 -42c55 -38 97 -58 165 -59c87 0 127 48 157 121c-25 9 -13 6 -38 15z" />
    <glyph glyph-name="aring" unicode="&#xe5;" horiz-adv-x="709" 
d="M254 771c0 56 39 86 97 86c63 0 106 -27 106 -86c0 -57 -42 -86 -103 -86c-60 0 -100 29 -100 86zM211 771c0 -80 59 -122 143 -122c86 0 147 41 147 122c0 82 -62 123 -150 123c-83 0 -140 -43 -140 -123zM536 0h21h149v38h-149v347c0 121 -83 153 -209 153
c-100 0 -173 -32 -232 -74v-121h40v100.89c48.518 29.7985 108.055 55.1096 186 55.1096c102 0 167 -24 167 -125v-51.3253c-81.115 -8.5193 -134.573 -13.5609 -221 -23.6747c-112 -13 -194 -42 -194 -147c0 -107 71 -157 184 -157c107.606 0 163.428 45.219 231 117.594
v-112.594h27zM509 160.19c-69.6222 -74.3359 -120.78 -127.19 -223 -127.19c-89 0 -144 38 -144 121c0 79 62 101 145 111c87.3541 9.09938 140.761 14.8868 222 24.1431v-128.953z" />
    <glyph glyph-name="asciicircum" unicode="^" horiz-adv-x="679" 
d="M572 464c-67 108 -140 226 -208 335h-1h-47h-1c-69 -112 -138 -223 -206 -335h48c60.2266 99.1968 122.022 197.609 182.607 296.627c60.3083 -97.9437 124.303 -201.19 184.393 -296.627h48z" />
    <glyph glyph-name="asciitilde" unicode="~" horiz-adv-x="861" 
d="M694 351c-21 -51 -52 -98 -115 -98c-54 0 -91 14 -135 45c-50 36 -88 56 -150 56c-91 0 -137 -43 -164 -124c24 -9 13 -5 36 -14c20 59 56 100 126 100c48 0 79 -14 118 -42c56 -38 98 -58 165 -59c87 0 128 48 157 121c-24 9 -13 6 -38 15z" />
    <glyph glyph-name="asterisk" unicode="*" horiz-adv-x="603" 
d="M267.104 507.382c-38.6513 -32.9914 -57.7395 -51.6028 -104.104 -89.3815l34 -28c45.717 43.0277 64.9167 60.3418 105.86 98.7625c40.2232 -38.4207 59.4229 -55.7348 105.14 -98.7625c34 27 34 28 34 28c-46.5726 38.8105 -65.6235 56.7938 -103.984 89.8749
c51.122 14.2899 77.7422 24.0727 139.984 41.1251l-15 38c-61.6071 -20.8249 -88.5802 -30.3562 -141.024 -48.8462c1.81539 48.0145 1.28155 71.362 3.0235 128.846h-46c1.74004 -56.5513 1.96621 -80.5544 3.31271 -128.645
c-51.9952 18.1393 -79.1198 27.0498 -141.313 48.6446l-15 -38c62.0653 -17.0042 89.4335 -26.7798 141.104 -41.6185z" />
    <glyph glyph-name="at" unicode="@" horiz-adv-x="1001" 
d="M699 -66c-65 -30 -113 -36 -184 -36c-229 0 -381 100 -381 314c0 211 153 309 377 309c212 0 351 -103 351 -305c0 -78 -22 -139 -88 -139c-71 0 -95 61 -95 140c0 112 -70 177 -183 177c-122 0 -197 -61 -197 -177c0 -119 71 -188 191 -188
c78.095 0 128.508 36.91 157.636 99.5327c18.3925 -53.6018 57.596 -87.5327 122.364 -87.5327c98 0 138 73 138 177c0 228 -156 343 -394 343c-255 0 -426 -111 -426 -351c0 -238 170 -351 424 -351c81 0 137 10 206 41zM635.563 194.736
c-24.1741 -75.9797 -61.652 -126.736 -139.563 -126.736c-97 0 -151 55 -151 151c0 89 56 136 147 136c90 0 143 -50 143 -140c0 -6.88959 0.186125 -13.6489 0.563136 -20.2636z" />
    <glyph glyph-name="atilde" unicode="&#xe3;" horiz-adv-x="709" 
d="M547 786c-16 -53 -36 -97 -84 -97c-42 0 -69 16 -100 45c-36 33 -65 54 -114 54c-73 0 -110 -49 -129 -123c36 -13 1 0 36 -13c15 56 41 97 94 97c38 0 60 -19 88 -45c38 -35 72 -54 124 -54c71 0 100 54 122 123c-37 13 -1 0 -37 13zM536 0h21h149v38h-149v347
c0 121 -83 153 -209 153c-100 0 -173 -32 -232 -74v-121h40v100.89c48.518 29.7985 108.055 55.1096 186 55.1096c102 0 167 -24 167 -125v-51.3253c-81.115 -8.5193 -134.573 -13.5609 -221 -23.6747c-112 -13 -194 -42 -194 -147c0 -107 71 -157 184 -157
c107.606 0 163.428 45.219 231 117.594v-112.594h27zM509 160.19c-69.6222 -74.3359 -120.78 -127.19 -223 -127.19c-89 0 -144 38 -144 121c0 79 62 101 145 111c87.3541 9.09938 140.761 14.8868 222 24.1431v-128.953z" />
    <glyph glyph-name="b" unicode="b" horiz-adv-x="807" 
d="M194 0h22v67.282c67.9997 -50.8116 138.48 -72.282 229 -72.282c162 0 268 106 268 270s-104 273 -265 273c-92.4086 0 -174.117 -38.1191 -232 -83.1844v345.184h-22h-26h-155v-39h155v-722h-155v-39h155h26zM216 114.179v293.104
c51.2102 45.721 133.048 90.7169 227 90.7169c138 0 222 -94 222 -235c0.989659 -133.604 -83.2307 -228.031 -217.766 -228.031c-1.40573 0 -2.81695 0.0103092 -4.23363 0.0309906c-89.9824 0 -157.497 22.4678 -227 79.1786z" />
    <glyph glyph-name="backslash" unicode="\" horiz-adv-x="636" 
d="M575 -68c-154 304 -308 608 -463 912h-50c154 -304 309 -608 463 -912h50z" />
    <glyph glyph-name="bar" unicode="|" horiz-adv-x="287" 
d="M167 -300v1100h-47v-1100h47z" />
    <glyph glyph-name="braceleft" unicode="{" horiz-adv-x="401" 
d="M332 798c-99 0 -159 -57 -159 -155v-177c0 -69 -45 -107 -115 -107v-40c71 0 115 -40 115 -109v-175c0 -97 61 -155 159 -155v38c-73 0 -116 44 -116 115v173c0 61.9801 -25.9649 108.211 -70.9521 132.861c44.9872 24.3539 70.9521 70.1591 70.9521 132.139v172
c0 73 42 117 116 117v38z" />
    <glyph glyph-name="braceright" unicode="}" horiz-adv-x="401" 
d="M70 759c73 0 115 -44 115 -116v-171c0 -63.2675 26.3761 -109.093 71.3588 -133.314c-44.5161 -24.6932 -70.3588 -70.8522 -70.3588 -132.686v-173c0 -72 -43 -116 -116 -116v-38c98 0 159 59 159 156v175c0 69 44 109 114 109v40c-70 0 -115 38 -115 107v177
c0 97 -60 155 -158 155v-39z" />
    <glyph glyph-name="bracketleft" unicode="[" horiz-adv-x="374" 
d="M316 771h-197v-893h197v43h-149v807h149v43z" />
    <glyph glyph-name="bracketright" unicode="]" horiz-adv-x="374" 
d="M207 -79h-149v-43h197v893h-197v-43h149v-807z" />
    <glyph glyph-name="breve" unicode="&#x2d8;" horiz-adv-x="494" 
d="M307 733c0 -66 -53 -91 -126 -91c-70 0 -121 27 -121 92h-45c0 -90 67 -130 164 -130c101 0 173 37 173 129h-45z" />
    <glyph glyph-name="brokenbar" unicode="&#xa6;" horiz-adv-x="319" 
d="M183 428v372h-47v-372h47zM183 -300v372h-47v-372h47z" />
    <glyph glyph-name="bullet" unicode="&#x2022;" horiz-adv-x="440" 
d="M157 440h125c0 35 -26 55 -64 55c-37 0 -61 -21 -61 -55zM157 440h125c0 -36 -26 -55 -64 -55c-37 0 -61 20 -61 55z" />
    <glyph glyph-name="bulletoperator" unicode="&#x2219;" horiz-adv-x="379" 
d="M127 440h125c0 35 -26 55 -64 55c-37 0 -61 -21 -61 -55zM127 440h125c0 -36 -26 -55 -64 -55c-37 0 -61 20 -61 55z" />
    <glyph glyph-name="c" unicode="c" horiz-adv-x="671" 
d="M580 472c-57 38 -126 66 -197 66c-179 0 -289 -92 -289 -271s107 -272 286 -272c80 0 157 31 211 87l-30 28c-48 -47 -112 -75 -179 -75c-150 0 -240 80 -240 232s91 231 238 231c56.5891 0 112.318 -18.0728 160 -46.2345v-105.765h40v126z" />
    <glyph glyph-name="cacute" unicode="&#x107;" horiz-adv-x="671" 
d="M328 651c63 53 132 113 195 166h-63c-64 -52 -133 -113 -196 -166h64zM580 472c-57 38 -126 66 -197 66c-179 0 -289 -92 -289 -271s107 -272 286 -272c80 0 157 31 211 87l-30 28c-48 -47 -112 -75 -179 -75c-150 0 -240 80 -240 232s91 231 238 231
c56.5891 0 112.318 -18.0728 160 -46.2345v-105.765h40v126z" />
    <glyph glyph-name="caron" unicode="&#x2c7;" horiz-adv-x="629" 
d="M9 756c63 -52 132 -113 196 -166h10h53h10c64 53 132 114 195 166h-63c-54.2712 -45.6567 -112.995 -96.5081 -168.5 -143.604c-55.505 47.0962 -114.229 97.9476 -168.5 143.604h-64z" />
    <glyph glyph-name="ccaron" unicode="&#x10d;" horiz-adv-x="675" 
d="M149 816c63 -53 131 -114 195 -166h10h53h10c64 52 132 113 195 166h-63c-54.2712 -45.6567 -112.995 -96.5081 -168.5 -143.604c-55.505 47.0962 -114.229 97.9476 -168.5 143.604h-63zM580 472c-57 38 -126 66 -197 66c-179 0 -289 -92 -289 -271s107 -272 286 -272
c80 0 157 31 211 87l-30 28c-48 -47 -112 -75 -179 -75c-150 0 -240 80 -240 232s91 231 238 231c56.5891 0 112.318 -18.0728 160 -46.2345v-105.765h40v126z" />
    <glyph glyph-name="ccedilla" unicode="&#xe7;" horiz-adv-x="671" 
d="M337 -92c16 9 29 11 47 11c34 0 56 -16 56 -48c0 -36 -31 -48 -71 -48c-30 0 -53 3 -82 17l-17 -29c33 -16 60 -23 96 -23c67 0 118 23 118 83c0 55 -40 85 -97 85c-6.53187 0 -12.6642 -0.266381 -18.5559 -0.799142c9.77013 14.0447 19.571 28.1277 27.7831 40.2249
c74.11 3.89351 144.435 34.3717 194.773 86.5742l-30 28c-48 -47 -112 -75 -179 -75c-150 0 -240 80 -240 232s91 231 238 231c56.5891 0 112.318 -18.0728 160 -46.2345v-105.765h40v126c-57 38 -126 66 -197 66c-179 0 -289 -92 -289 -271
c0 -166.07 92.0997 -258.115 248.349 -270.547c-13.4511 -20.4863 -27.8188 -42.3476 -38.3494 -58.4532l32 -30c0.125268 0.187902 0.251117 0.37653 0.377539 0.565874z" />
    <glyph glyph-name="cedilla" unicode="&#xb8;" horiz-adv-x="451" 
d="M170 46c-17 -25 -44 -66 -61 -92l0.730858 -0.708019c-0.243096 -0.0969951 -0.486712 -0.194322 -0.730858 -0.291981l32 -30c16 9 30 12 48 12c34 0 56 -17 56 -49c0 -36 -31 -48 -71 -48c-30 0 -53 4 -82 18l-17 -30c33 -15 60 -22 96 -22c67 0 118 23 118 83
c0 55 -40 85 -97 85c-6.67433 0 -12.9315 -0.324481 -18.9411 -0.953483c12.059 17.6542 24.2901 35.2389 33.9411 48.9535z" />
    <glyph glyph-name="cent" unicode="&#xa2;" horiz-adv-x="787" 
d="M457 680.799v97.2014h-47v-97.7845c-193.41 -10.2704 -322 -121.087 -322 -315.215c0 -186.348 113.735 -304.642 298 -312.574v-105.426h47v105.563c100.774 4.31386 174.619 33.5699 262 92.4374l-27 32c-86 -59 -156 -85 -258 -85c-170 0 -274 106 -274 275
c0 176 120 274 299 274c93 0 158 -17 238 -65l24 33c-81.0463 49.0048 -148.771 69.5898 -240 71.7986z" />
    <glyph glyph-name="circumflex" unicode="&#x2c6;" horiz-adv-x="800" 
d="M473 591c-63 53 -132 113 -195 166h-10h-54h-9c-64 -53 -133 -113 -196 -166h64c54.1594 45.5627 112.753 96.2986 168.157 143.313c55.8487 -47.0146 113.824 -97.7505 168.843 -143.313h63z" />
    <glyph glyph-name="colon" unicode=":" horiz-adv-x="311" 
d="M127 21h57c0 -17 -12 -24 -30 -24c-16 0 -27 9 -27 24zM127 21h57c0 17 -12 25 -30 25c-16 0 -27 -9 -27 -25zM127 418h57c0 16 -13 25 -30 25c-16 0 -27 -10 -27 -25zM127 418h57c0 -17 -12 -25 -30 -25c-16 0 -27 9 -27 25z" />
    <glyph glyph-name="comma" unicode="," horiz-adv-x="357" 
d="M96 -138l132 187h-62l-119 -187h49z" />
    <glyph glyph-name="commaaccent" horiz-adv-x="449" 
d="M162 -130l132 187h-62l-119 -187h49z" />
    <glyph glyph-name="copyright" unicode="&#xa9;" horiz-adv-x="948" 
d="M624 465c-45 25 -85 34 -139 34c-120 0 -201 -64 -201 -179c0 -111 73 -176 186 -176c66 0 113 11 168 48c-24 26 0 1 -24 26c-48 -31 -87 -40 -142 -40c-91 0 -147 54 -147 143c0 93 63 144 158 144c43 0 71 -6 103 -20v-65h38v85zM96 320c0 -207 168 -322 388 -322
c211 0 368 120 368 322c0 205 -160 325 -374 325c-217 0 -382 -118 -382 -325zM137 320c0 186 146 292 341 292c191 0 333 -109 333 -293c0 -180 -139 -288 -325 -288c-196 0 -349 102 -349 289z" />
    <glyph glyph-name="currency" unicode="&#xa4;" horiz-adv-x="718" 
d="M162 311c0 -43.3301 11.3018 -79.2651 31.7164 -107.284l-97.7164 -79.716l32 -31c32.7514 26.7182 64.7599 52.6936 96.6658 79.2066c34.7522 -26.4648 82.2898 -40.2066 138.334 -40.2066c52.4705 0 96.6949 13.4751 129.517 38.6214
c31.0834 -25.6182 62.6311 -50.7722 93.4834 -76.6214l35 29c-32.2901 25.4922 -65.3024 52.4286 -97.8095 78.9683c21.1741 29.0163 32.8095 66.4262 32.8095 111.032c0 45.4505 -13.3164 82.7063 -36.9865 110.78c30.9741 25.4796 62.6363 50.5059 94.9865 76.2201l-33 31
l-95.4183 -77.8412c-32.0818 20.8806 -73.6496 31.8412 -121.582 31.8412c-52.6044 0 -97.9064 -11.5301 -132.199 -34.0848c-31.9335 26.2765 -63.8671 53.0338 -95.8006 79.0848l-32 -31c31.2046 -26.1444 63.1206 -51.5776 94.548 -77.4992
c-23.4265 -27.9366 -36.548 -64.8982 -36.548 -110.501zM208 311c0 87 62 136 152 136c91 0 149 -49 149 -136s-56 -141 -144 -141c-95 0 -157 50 -157 141z" />
    <glyph glyph-name="d" unicode="d" horiz-adv-x="812" 
d="M592 428.77v-296.759c-56.0744 -65.0604 -116.124 -98.0108 -202 -98.0108c-149 0 -252 86 -252 232s103 233 251 233c80.1719 0 147 -23.1303 203 -70.2299zM592 78.5594v-78.5594h26h24h157v38h-157v762h-26h-24h-157v-38h157v-286.583
c-57.2692 41.5356 -126.721 62.5831 -205 62.5831c-176 0 -297 -103 -297 -274s124 -269 301 -269c84.9686 0 147.242 28.0349 201 83.5594z" />
    <glyph glyph-name="dagger" unicode="&#x2020;" horiz-adv-x="696" 
d="M368 517v264h-46v-264h-271v-42h271v-773h46v773h277v42h-277z" />
    <glyph glyph-name="daggerdbl" unicode="&#x2021;" horiz-adv-x="797" 
d="M373 -31v-267h46v267h276v43h-276v463h276v42h-276v264h-46v-264h-272v-42h272v-463h-272v-43h272z" />
    <glyph glyph-name="dcaron" unicode="&#x10f;" horiz-adv-x="909" 
d="M756 622l133 186h-62l-120 -186h49zM592 428.77v-296.759c-56.0744 -65.0604 -116.124 -98.0108 -202 -98.0108c-149 0 -252 86 -252 232s103 233 251 233c80.1719 0 147 -23.1303 203 -70.2299zM592 78.5594v-78.5594h26h24h157v38h-157v762h-26h-24h-157v-38h157
v-286.583c-57.2692 41.5356 -126.721 62.5831 -205 62.5831c-176 0 -297 -103 -297 -274s124 -269 301 -269c84.9686 0 147.242 28.0349 201 83.5594z" />
    <glyph glyph-name="dcroat" unicode="&#x111;" horiz-adv-x="811" 
d="M592 641v-165.846c-57.6888 41.7096 -126.731 62.8458 -206 62.8458c-175 0 -296 -103 -296 -274s124 -269 300 -269c86.2762 0 148.247 28.3565 202 84.5148v-79.5148h26h24h157v38h-157v603h107v35h-107v124h-26h-24h-157v-38h157v-86h-210v-35h210zM592 428.77
v-296.759c-56.0774 -65.0605 -116.18 -98.011 -203 -98.011c-148 0 -252 86 -252 232s104 233 252 233c80.1719 0 147 -23.1303 203 -70.2299z" />
    <glyph glyph-name="degree" unicode="&#xb0;" horiz-adv-x="606" 
d="M105 464c0 -128 71 -210 197 -210s199 81 199 208c0 124 -74 202 -199 202c-124 0 -197 -78 -197 -200zM146 464c0 99 55 165 153 165c102 0 161 -66 161 -167c0 -104 -56 -173 -156 -173c-103 0 -158 71 -158 175z" />
    <glyph glyph-name="deltamath" horiz-adv-x="937" 
d="M48 0h839v43l-387 756h-4h-46h-4l-398 -756v-43zM472.678 754.699l364.322 -711.699h-739z" />
    <glyph glyph-name="dieresis" unicode="&#xa8;" horiz-adv-x="520" 
d="M237 664h62c0 17 -13 27 -32 27c-18 0 -30 -10 -30 -27zM237 664h62c0 -18 -13 -28 -32 -28c-18 0 -30 10 -30 28zM79 664h62c0 17 -13 27 -32 27s-30 -10 -30 -27zM79 664h62c0 -18 -13 -28 -32 -28s-30 10 -30 28z" />
    <glyph glyph-name="divide" unicode="&#xf7;" horiz-adv-x="851" 
d="M129 289h594v42h-594v-42zM394 107h56c0 -17 -12 -25 -29 -25c-16 0 -27 9 -27 25zM394 107h56c0 17 -12 25 -29 25c-16 0 -27 -10 -27 -25zM394 504h56c0 16 -12 25 -29 25c-16 0 -27 -10 -27 -25zM394 504h56c0 -18 -12 -25 -29 -25c-16 0 -27 9 -27 25z" />
    <glyph glyph-name="divisionslash" unicode="&#x2215;" horiz-adv-x="561" 
d="M53 -82l504 830h-48l-504 -830h48z" />
    <glyph glyph-name="dollar" unicode="$" horiz-adv-x="690" 
d="M316 683.212c-115.889 -6.06657 -203 -47.7297 -203 -145.212c0 -107 99 -139 215 -181c111 -38 228 -63 228 -156c0 -90 -106 -116 -228 -116c-76.1542 0 -142.821 19.8375 -200 41.8903v95.1097h-39v-124c60.5101 -25.6709 131.947 -47.1391 212 -50.5329v-89.4671h48
v89.3668c140.424 4.05275 255 42.4832 255 154.633c0 114 -124 146 -247 190c-104 37 -196 60 -196 146c0 79 83 108 184 108c75.2964 0 129.854 -12.9619 195 -40.4924v-97.5076h39v124c-74.1862 31.9282 -135.145 49.747 -216 51.8v89.2h-47v-89.7884z" />
    <glyph glyph-name="dotaccent" unicode="&#x2d9;" horiz-adv-x="743" 
d="M318 664h63c0 17 -14 27 -33 27c-18 0 -30 -10 -30 -27zM318 664h63c0 -18 -14 -28 -33 -28c-18 0 -30 10 -30 28z" />
    <glyph glyph-name="dotlessi" unicode="&#x131;" horiz-adv-x="419" 
d="M208 494v-455h-157v-39h157h25h26h144v39h-144v494h-26h-25h-157v-39h157z" />
    <glyph glyph-name="e" unicode="e" horiz-adv-x="696" 
d="M554 301h-406.421c7.10055 126.027 79.3209 198 206.421 198c126 0 200 -67 200 -194v-4zM147.306 264h451.694v37c0 155 -89 237 -242 237c-164 0 -258 -91 -258 -258c0 -184 105 -285 286 -285c85 0 141 24 207 78l-29 29c-58 -46 -105 -68 -178 -68
c-147.691 0 -232.019 83.8624 -237.694 230z" />
    <glyph glyph-name="eacute" unicode="&#xe9;" horiz-adv-x="696" 
d="M303 652c63 53 132 113 195 166h-63c-64 -53 -133 -114 -196 -166h64zM554 301h-406.421c7.10055 126.027 79.3209 198 206.421 198c126 0 200 -67 200 -194v-4zM147.306 264h451.694v37c0 155 -89 237 -242 237c-164 0 -258 -91 -258 -258c0 -184 105 -285 286 -285
c85 0 141 24 207 78l-29 29c-58 -46 -105 -68 -178 -68c-147.691 0 -232.019 83.8624 -237.694 230z" />
    <glyph glyph-name="ecaron" unicode="&#x11b;" horiz-adv-x="697" 
d="M124 816c63 -52 132 -113 195 -166h10h54h9c64 53 133 114 196 166h-64c-54.1083 -45.5197 -112.642 -96.2028 -168 -143.18c-55.3576 46.9772 -113.892 97.6604 -168 143.18h-64zM554 301h-406.421c7.10055 126.027 79.3209 198 206.421 198c127 0 200 -67 200 -194v-4z
M147.31 264h452.69v37c0 155 -90 237 -243 237c-164 0 -258 -91 -258 -258c0 -184 105 -285 287 -285c85 0 140 24 206 78l-28 29c-58 -46 -105 -68 -178 -68c-147.691 0 -232.951 83.8624 -238.69 230z" />
    <glyph glyph-name="ecircumflex" unicode="&#xea;" horiz-adv-x="697" 
d="M588 653c-63 52 -132 113 -195 166h-10h-54h-9c-64 -53 -133 -114 -196 -166h64c54.1083 45.5197 112.642 96.2028 168 143.18c55.3576 -46.9772 113.892 -97.6604 168 -143.18h64zM554 301h-406.421c7.10055 126.027 79.3209 198 206.421 198c127 0 200 -67 200 -194v-4
zM147.31 264h452.69v37c0 155 -90 237 -243 237c-164 0 -258 -91 -258 -258c0 -184 105 -285 287 -285c85 0 140 24 206 78l-28 29c-58 -46 -105 -68 -178 -68c-147.691 0 -232.951 83.8624 -238.69 230z" />
    <glyph glyph-name="edieresis" unicode="&#xeb;" horiz-adv-x="696" 
d="M404 670h62c0 17 -13 27 -32 27c-18 0 -30 -10 -30 -27zM404 670h62c0 -18 -13 -28 -32 -28c-18 0 -30 10 -30 28zM246 670h62c0 17 -13 27 -32 27s-30 -10 -30 -27zM246 670h62c0 -18 -13 -28 -32 -28s-30 10 -30 28zM554 301h-406.421
c7.10055 126.027 79.3209 198 206.421 198c126 0 200 -67 200 -194v-4zM147.306 264h451.694v37c0 155 -89 237 -242 237c-164 0 -258 -91 -258 -258c0 -184 105 -285 286 -285c85 0 141 24 207 78l-29 29c-58 -46 -105 -68 -178 -68
c-147.691 0 -232.019 83.8624 -237.694 230z" />
    <glyph glyph-name="edotaccent" unicode="&#x117;" horiz-adv-x="696" 
d="M324 670h62c0 -18 -13 -27 -32 -27c-18 0 -30 10 -30 27zM324 670h62c0 18 -13 28 -32 28c-18 0 -30 -11 -30 -28zM554 301h-406.421c7.10055 126.027 79.3209 198 206.421 198c126 0 200 -67 200 -194v-4zM147.306 264h451.694v37c0 155 -89 237 -242 237
c-164 0 -258 -91 -258 -258c0 -184 105 -285 286 -285c85 0 141 24 207 78l-29 29c-58 -46 -105 -68 -178 -68c-147.691 0 -232.019 83.8624 -237.694 230z" />
    <glyph glyph-name="egrave" unicode="&#xe8;" horiz-adv-x="696" 
d="M457 651c-63 53 -131 114 -195 166h-64c64 -53 132 -113 196 -166h63zM554 301h-406.421c7.10055 126.027 79.3209 198 206.421 198c126 0 200 -67 200 -194v-4zM147.306 264h451.694v37c0 155 -89 237 -242 237c-164 0 -258 -91 -258 -258c0 -184 105 -285 286 -285
c85 0 141 24 207 78l-29 29c-58 -46 -105 -68 -178 -68c-147.691 0 -232.019 83.8624 -237.694 230z" />
    <glyph glyph-name="eight" unicode="8" horiz-adv-x="697" 
d="M350.439 398.574c-97.6309 40.3503 -182.439 60.6421 -182.439 159.426c0 92 74 128 177 128c109 0 184 -32 184 -130c0 -96.5382 -82.4112 -119.623 -178.561 -157.426zM399.258 378.126c97.6252 40.6517 177.742 70.8232 177.742 177.874c0 125 -92 171 -230 171
c-133 0 -227 -48 -227 -169c0 -108.269 79.264 -140.477 179.046 -180.444c-112.275 -45.8265 -202.046 -81.0409 -202.046 -203.556c0 -131 102 -179 248 -179c147 0 255 45 255 179c0 121.043 -90.2821 158.43 -200.742 204.126zM349.425 357.098
c109.822 -44.5005 202.575 -73.8509 202.575 -183.098c0 -105 -87 -138 -205 -138s-202 34 -202 138c0 111.486 93.52 137.623 204.425 183.098z" />
    <glyph glyph-name="ellipsis" unicode="&#x2026;" horiz-adv-x="753" 
d="M342 21h63c0 -18 -14 -27 -33 -27c-18 0 -30 10 -30 27zM342 21h63c0 18 -14 28 -33 28c-18 0 -30 -11 -30 -28zM567 21h63c0 -18 -14 -27 -33 -27c-18 0 -30 10 -30 27zM567 21h63c0 18 -14 28 -33 28c-18 0 -30 -11 -30 -28zM123 21h63c0 -18 -14 -27 -33 -27
c-18 0 -30 10 -30 27zM123 21h63c0 18 -14 28 -33 28c-18 0 -30 -11 -30 -28z" />
    <glyph glyph-name="emacron" unicode="&#x113;" horiz-adv-x="696" 
d="M483 690h-266v-38h266v38zM554 301h-406.421c7.10055 126.027 79.3209 198 206.421 198c126 0 200 -67 200 -194v-4zM147.306 264h451.694v37c0 155 -89 237 -242 237c-164 0 -258 -91 -258 -258c0 -184 105 -285 286 -285c85 0 141 24 207 78l-29 29
c-58 -46 -105 -68 -178 -68c-147.691 0 -232.019 83.8624 -237.694 230z" />
    <glyph glyph-name="emdash" unicode="&#x2014;" horiz-adv-x="1044" 
d="M126 253h792v42h-792v-42z" />
    <glyph glyph-name="endash" unicode="&#x2013;" horiz-adv-x="704" 
d="M127 253h450v42h-450v-42z" />
    <glyph glyph-name="eogonek" unicode="&#x119;" horiz-adv-x="696" 
d="M554 301h-406.421c7.10055 126.027 79.3209 198 206.421 198c126 0 200 -67 200 -194v-4zM408.551 34.827c-7.56019 -0.552295 -15.3935 -0.827047 -23.5514 -0.827048c-147.691 0 -232.019 83.8624 -237.694 230h451.694v37c0 155 -89 237 -242 237
c-164 0 -258 -91 -258 -258c0 -162.872 82.2709 -260.711 226.699 -281.032c-29.8256 -17.8086 -49.6994 -41.5286 -49.6994 -81.9678c0 -64 46 -101 113 -101c39 0 64 12 98 29c-20 28 -2 2 -22 30c-25 -13 -44 -21 -72 -21c-43 0 -73 22 -73 64
c0 44.0164 33.9453 60.4923 74.6696 77.1066c79.6476 1.78158 133.866 25.9678 197.33 77.8934l-29 29c-51.3656 -40.7382 -94.1038 -62.653 -153.915 -67.1334c-0.0283694 0.04433 -0.0568373 0.0888125 -0.085404 0.133448
c-0.149559 -0.057687 -0.299086 -0.115337 -0.44858 -0.172952z" />
    <glyph glyph-name="equal" unicode="=" horiz-adv-x="1002" 
d="M129 419h744v41h-744v-41zM129 197h744v41h-744v-41z" />
    <glyph glyph-name="estimated" unicode="&#x212e;" horiz-adv-x="775" 
d="M606 615.508v-216.508h-435v213.439c51.1361 47.5373 123.449 73.5613 214 73.5613c93.7828 0 168.599 -24.9805 221 -70.4919zM171 362h563v37c0 202 -128 326 -346 326s-347 -131 -347 -347c0 -238 144 -383 390 -383c103 0 209 38 295 107c-18 18 -10 9 -28 27
c-79 -61 -177 -95 -267 -95c-112.177 0 -200.434 34.059 -260 95.6812v232.319z" />
    <glyph glyph-name="eth" unicode="&#xf0;" horiz-adv-x="720" 
d="M571.592 307.009c-20.475 147.552 -110.92 245.129 -242.666 308.563c-39.5594 -39.4295 -79.1305 -78.7762 -118.926 -118.572l-26 26c36.4532 36.4532 72.7181 72.5298 108.958 108.638c-61.2605 25.3747 -130.067 44.3753 -203.958 58.3617l11 41
c82.8477 -14.5395 159.524 -35.8521 227.181 -65.2386c35.8609 35.7903 71.7478 71.7378 107.819 108.239l26 -26c-32.903 -33.2947 -65.6525 -66.1291 -98.3688 -98.8037c158.667 -79.7054 259.369 -209.934 259.369 -410.196c0 -163 -111 -250 -281 -250
c-149 0 -249 73 -249 214s102 209 250 209c101.987 0 178.518 -35.1542 229.592 -104.991zM575.999 242.209c-50.6148 86.2479 -122.534 129.791 -229.999 129.791c-123 0 -206 -55 -206 -171c0 -111 82 -167 199 -167c143 0 237 71 237 207
c0 0.403447 -0.00137405 0.806571 -0.00137405 1.20937z" />
    <glyph glyph-name="exclam" unicode="!" horiz-adv-x="326" 
d="M188 229v493h-48v-493h48zM133 27h63c0 -18 -13 -27 -32 -27s-31 10 -31 27zM133 27h63c0 18 -13 28 -32 28c-18 0 -31 -11 -31 -28z" />
    <glyph glyph-name="exclamdown" unicode="&#xa1;" horiz-adv-x="326" 
d="M139 493v-493h47v493h-47zM193 695h-63c0 18 14 27 33 27c18 0 30 -10 30 -27zM193 695h-63c0 -18 14 -28 33 -28c18 0 30 11 30 28z" />
    <glyph glyph-name="f" unicode="f" horiz-adv-x="583" 
d="M300 515v118c0 84 54 134 139 134c30.8694 0 61.7388 -7.91901 91 -18.3962v-100.604h39v124c-41 17 -86 32 -130 32c-112 0 -187 -61 -186 -171v-118h-196v-39h196v-437h-158v-39h158h23h24h158v39h-158v437h252v39h-252z" />
    <glyph glyph-name="fi" unicode="&#xfb01;" horiz-adv-x="754" 
d="M262 0h23h99v39h-99v460h244v-460h-100v-39h100h29h2h17h151v39h-151v499h-292v56c0 105 62 177 175 177c25 0 46 -3 68 -9v-87h49v116c-43 12 -75 18 -119 18c-138 0 -222 -85 -221 -215v-56h-194v-39h194v-460h-157v-39h157h25z" />
    <glyph glyph-name="five" unicode="5" horiz-adv-x="655" 
d="M182 430.187v252.813h361v39h-407v-315v-8l46 -11c27 13 85 24 126 24c124 0 212 -68 212 -184c0 -119 -98 -190 -223 -190c-71 0 -126 14 -191 43l-23 -37c68 -32 133 -49 211 -49c154 0 274 86 274 233c0 140 -107 225 -256 225
c-41.5648 0 -90.3282 -8.15828 -130 -22.8126z" />
    <glyph glyph-name="fl" unicode="&#xfb02;" horiz-adv-x="848" 
d="M300 0h21h116v39h-116v460h273v-460h-112v-39h112h33h1h14h177v39h-177v752c-47 13 -84 18 -132 18c-140 0 -238 -80 -237 -215v-56h-224v-39h224v-460h-171v-39h171h27zM321 538v56c0 110 77 177 191 177c29 0 54 -1 82 -8v-225h-273z" />
    <glyph glyph-name="florin" unicode="&#x192;" horiz-adv-x="524" 
d="M516 825c-13.603 2.3597 -26.6858 3.52484 -39.1948 3.52484c-77.6101 0 -133.137 -44.8502 -153.805 -127.525c-11.6545 -49.9479 -23.309 -99.9524 -34.977 -150h-127.023v-38h118.163c-34.4588 -147.769 -69.0644 -295.885 -104.163 -444
c-13.9649 -61.9695 -54.5928 -97.2761 -113.24 -97.2761c-8.54636 0 -17.4754 0.74977 -26.7603 2.27606l-9 -38c12.7671 -1.91507 25.0941 -2.86844 36.9353 -2.86844c80.906 0 139.129 44.5079 160.065 130.868c34.6539 149.931 69.8079 299.362 105.108 449h140.892v38
h-131.925c11.6334 49.2959 23.2794 98.6208 34.9254 148c13.7065 59.9658 51.6301 90.5773 106.227 90.5773c9.13588 0 18.7386 -0.857133 28.7729 -2.57729z" />
    <glyph glyph-name="four" unicode="4" horiz-adv-x="765" 
d="M432 257v-218h-160v-39h182h182v39h-157v218h209v42h-209v418h-47c-383 -418 -384 -418 -384 -418l22 -42h362zM432 299h-323.905l323.905 357.105v-357.105z" />
    <glyph glyph-name="foursuperior" unicode="&#x2074;" horiz-adv-x="642" 
d="M367 291h174v36h-151v86h113v35h-113v281h-46l-266 -281l20 -35h246v-86h-151v-36h174zM344 673.371v-225.371h-212.932z" />
    <glyph glyph-name="fraction" unicode="&#x2044;" horiz-adv-x="649" 
d="M50 -82l504 830h-47l-504 -830h47z" />
    <glyph glyph-name="g" unicode="g" horiz-adv-x="711" 
d="M217.725 1.87941c138.474 -38.9512 378.275 7.10245 378.275 -140.879c0 -105 -121 -127 -252 -127c-123 0 -231 35 -231 138c0 66.4161 44.6987 104.689 104.725 129.879zM176.541 17.9843c-65.0837 -29.2469 -111.541 -73.009 -111.541 -147.984
c0 -132 128 -174 277 -174c158 0 300 30 298 169c0 134 -143 145 -292 155c-91 5 -178 15 -178 94c0 40.742 22.7492 65.7948 57.131 85.5804c34.0742 -13.106 74.0265 -19.5804 116.869 -19.5804c130 0 232 58 232 178c0 39.0265 -10.5402 71.8148 -29.2222 98.2592
c45.0136 19.3236 89.7026 38.0322 132.222 56.7408l-22 36c-45.9242 -19.9294 -91.8485 -41.3604 -138.423 -62.3413c-40.8759 34.077 -100.481 51.3413 -168.577 51.3413c-132 0 -233 -63 -233 -186c0 -61.9547 28.8107 -106.794 74.8533 -135.128
c-41.6152 -24.5026 -69.8533 -57.0783 -69.8533 -106.872c0 -45.7303 21.161 -73.964 54.5407 -92.0157zM166 354c0 95 80 146 184 146c102 0 178 -49 178 -144c0 -91 -78 -138 -180 -138c-101 0 -182 43 -182 136z" />
    <glyph glyph-name="gbreve" unicode="&#x11f;" horiz-adv-x="711" 
d="M477 778c0 -66 -54 -91 -126 -91c-71 0 -122 27 -122 92h-45c0 -91 67 -130 164 -130c101 0 174 37 174 129h-45zM217.725 1.87941c138.474 -38.9512 378.275 7.10245 378.275 -140.879c0 -105 -121 -127 -252 -127c-123 0 -231 35 -231 138
c0 66.4161 44.6987 104.689 104.725 129.879zM176.541 17.9843c-65.0837 -29.2469 -111.541 -73.009 -111.541 -147.984c0 -132 128 -174 277 -174c158 0 300 30 298 169c0 134 -143 145 -292 155c-91 5 -178 15 -178 94c0 40.742 22.7492 65.7948 57.131 85.5804
c34.0742 -13.106 74.0265 -19.5804 116.869 -19.5804c130 0 232 58 232 178c0 39.0265 -10.5402 71.8148 -29.2222 98.2592c45.0136 19.3236 89.7026 38.0322 132.222 56.7408l-22 36c-45.9242 -19.9294 -91.8485 -41.3604 -138.423 -62.3413
c-40.8759 34.077 -100.481 51.3413 -168.577 51.3413c-132 0 -233 -63 -233 -186c0 -61.9547 28.8107 -106.794 74.8533 -135.128c-41.6152 -24.5026 -69.8533 -57.0783 -69.8533 -106.872c0 -45.7303 21.161 -73.964 54.5407 -92.0157zM166 354c0 95 80 146 184 146
c102 0 178 -49 178 -144c0 -91 -78 -138 -180 -138c-101 0 -182 43 -182 136z" />
    <glyph glyph-name="gcommaaccent" unicode="&#x123;" horiz-adv-x="711" 
d="M405 798l-132 -187h62l119 187h-49zM217.725 1.87941c138.474 -38.9512 378.275 7.10245 378.275 -140.879c0 -105 -121 -127 -252 -127c-123 0 -231 35 -231 138c0 66.4161 44.6987 104.689 104.725 129.879zM176.541 17.9843
c-65.0837 -29.2469 -111.541 -73.009 -111.541 -147.984c0 -132 128 -174 277 -174c158 0 300 30 298 169c0 134 -143 145 -292 155c-91 5 -178 15 -178 94c0 40.742 22.7492 65.7948 57.131 85.5804c34.0742 -13.106 74.0265 -19.5804 116.869 -19.5804
c130 0 232 58 232 178c0 39.0265 -10.5402 71.8148 -29.2222 98.2592c45.0136 19.3236 89.7026 38.0322 132.222 56.7408l-22 36c-45.9242 -19.9294 -91.8485 -41.3604 -138.423 -62.3413c-40.8759 34.077 -100.481 51.3413 -168.577 51.3413c-132 0 -233 -63 -233 -186
c0 -61.9547 28.8107 -106.794 74.8533 -135.128c-41.6152 -24.5026 -69.8533 -57.0783 -69.8533 -106.872c0 -45.7303 21.161 -73.964 54.5407 -92.0157zM166 354c0 95 80 146 184 146c102 0 178 -49 178 -144c0 -91 -78 -138 -180 -138c-101 0 -182 43 -182 136z" />
    <glyph glyph-name="germandbls" unicode="&#xdf;" horiz-adv-x="745" 
d="M491 84c105 21 179 77 179 192c0 103.113 -62.9131 161.511 -162.495 186.067c73.9511 24.3015 122.495 74.6241 122.495 159.933c0 125 -98 180 -233 180c-133 0 -227 -64 -227 -189v-574h-157v-39h157h24h23h160v39h-160v574c0 99 72 151 176 151
c109 0 192 -42 192 -144c0 -100 -92 -144 -208 -144v-32c125 0 248 -43 248 -170c0 -90 -68 -132 -146 -151z" />
    <glyph glyph-name="grave" unicode="`" horiz-adv-x="620" 
d="M344 591c-63 53 -132 113 -196 166h-63c63 -53 132 -113 195 -166h64z" />
    <glyph glyph-name="greater" unicode="&#x3e;" horiz-adv-x="877" 
d="M758.908 305.591l-662.908 -248.591v-42l720 270v42l-732 264v-42z" />
    <glyph glyph-name="greaterequal" unicode="&#x2265;" horiz-adv-x="956" 
d="M851 0h-732v39h732v-39zM791.417 409c-224.145 78.9938 -448.359 157.919 -673.417 236v42c245 -86 489 -171 733 -257v-42v-1c-244 -86 -488 -171 -733 -257v42c225.058 78.9999 449.272 158 673.417 237z" />
    <glyph glyph-name="guillemotleft" unicode="&#xab;" horiz-adv-x="675" 
d="M110 258l226 -119v42l-186.145 97.1908l187.145 94.8092v42l-227 -116v-41zM338 257l226 -118v42l-185.436 96.8205l185.436 95.1795v42l-226 -116v-42z" />
    <glyph glyph-name="guillemotright" unicode="&#xbb;" horiz-adv-x="675" 
d="M536 258l-226 -119v42l186.145 97.1908l-187.145 94.8092v42l227 -116v-41zM308 257l-227 -118v42l186.346 96.8669l-185.346 95.1331v42l226 -116v-42z" />
    <glyph glyph-name="guilsinglleft" unicode="&#x2039;" horiz-adv-x="543" 
d="M172.409 278.371c105.601 38.2278 73.783 40.8886 231.591 92.629v42c-183 -60 -111 -53 -294 -113v-43c183 -60 111 -53 294 -113v42c-157.808 52.6028 -125.991 53.895 -231.591 92.371z" />
    <glyph glyph-name="guilsinglright" unicode="&#x203a;" horiz-adv-x="543" 
d="M370.591 278.371c-105.601 38.2278 -73.783 40.8886 -231.591 92.629v42c183 -60 111 -53 294 -113v-43c-183 -60 -111 -53 -294 -113v42c157.808 52.6028 125.991 53.895 231.591 92.371z" />
    <glyph glyph-name="h" unicode="h" horiz-adv-x="823" 
d="M218 425.812v374.188h-24h-24h-157v-39h157v-722h-157v-39h157h24h24h142v39h-142v324.92c45.3815 81.8277 130.396 135.08 224 135.08c109 0 168 -57 168 -164v-296h-142v-39h142h23h25h157v39h-157v300c0 132 -76 199 -209 199
c-92.7494 0 -179.215 -40.2189 -231 -112.188z" />
    <glyph glyph-name="hungarumlaut" unicode="&#x2dd;" horiz-adv-x="610" 
d="M342 660l133 186h-63l-119 -186h49zM179 660l132 186h-62l-119 -186h49z" />
    <glyph glyph-name="hyphen" unicode="-" horiz-adv-x="598" 
d="M127 253h344v42h-344v-42z" />
    <glyph glyph-name="i" unicode="i" horiz-adv-x="419" 
d="M204 670h57c0 -17 -12 -24 -29 -24s-28 8 -28 24zM204 670h57c0 17 -12 25 -29 25s-28 -10 -28 -25zM208 494v-455h-157v-39h157h25h26h144v39h-144v494h-26h-25h-157v-39h157z" />
    <glyph glyph-name="iacute" unicode="&#xed;" horiz-adv-x="428" 
d="M182 651c63 53 132 113 195 166h-63c-64 -52 -132 -113 -195 -166h63zM208 494v-455h-157v-39h157h25h26h144v39h-144v494h-26h-25h-157v-39h157z" />
    <glyph glyph-name="icircumflex" unicode="&#xee;" horiz-adv-x="522" 
d="M515 651c-63 52 -132 113 -196 166h-9h-54h-10c-63 -53 -132 -114 -195 -166h63c55.0191 45.5627 112.994 96.2986 168.843 143.313c55.4039 -47.0146 113.998 -97.7505 168.157 -143.313h64zM259 494v-455h-157v-39h157h25h26h144v39h-144v494h-26h-25h-157v-39h157z
" />
    <glyph glyph-name="idieresis" unicode="&#xef;" horiz-adv-x="431" 
d="M286 668h62c0 -18 -13 -27 -32 -27s-30 9 -30 27zM286 668h62c0 18 -13 27 -32 27s-30 -10 -30 -27zM127 668h63c0 -18 -14 -27 -33 -27c-18 0 -30 9 -30 27zM127 668h63c0 18 -14 27 -33 27c-18 0 -30 -10 -30 -27zM214 494v-455h-158v-39h158h24h26h144v39h-144v494
h-26h-24h-158v-39h158z" />
    <glyph glyph-name="igrave" unicode="&#xec;" horiz-adv-x="429" 
d="M337 650c-63 53 -132 114 -196 166h-63c63 -53 132 -113 195 -166h64zM218 494v-455h-157v-39h157h24h27h144v39h-144v494h-27h-24h-157v-39h157z" />
    <glyph glyph-name="imacron" unicode="&#x12b;" horiz-adv-x="419" 
d="M360 688h-266v-38h266v38zM208 494v-455h-157v-39h157h25h26h144v39h-144v494h-26h-25h-157v-39h157z" />
    <glyph glyph-name="infinity" unicode="&#x221e;" horiz-adv-x="1086" 
d="M508.231 407.344c-46.8604 -72.189 -100.498 -140.344 -184.231 -140.344c-89 0 -165 53 -165 137c0 83 79 131 167 131c79.6019 0 138.155 -57.8833 182.231 -127.656zM534.334 446.283c-51.9323 71.5784 -119.186 126.717 -208.334 126.717c-113 0 -214 -63 -214 -169
c0 -108 98 -175 212 -175c90.9021 0 157.503 62.3729 210.01 138.272c53.5125 -76.4053 125.201 -137.272 217.99 -137.272c118 0 224 63 224 173c0 107 -107 169 -224 169c-90.8349 0 -163.875 -52.5746 -217.666 -125.717zM560.207 407.533
c46.2845 70.3552 109.394 126.467 191.793 126.467c92 0 177 -46 177 -131c0 -86 -84 -135 -177 -135c-85.4839 0 -143.612 65.3007 -191.793 139.533z" />
    <glyph glyph-name="integral" unicode="&#x222b;" horiz-adv-x="526" 
d="M508 825c-13.603 2.3597 -26.6858 3.52484 -39.1948 3.52484c-77.6101 0 -133.137 -44.8502 -153.805 -127.525c-49 -210 -99 -421 -148 -631c-14.8407 -62.8548 -55.5928 -98.274 -113.607 -98.274c-8.44096 0 -17.2474 0.749805 -26.3926 2.274l-9 -38
c12.7671 -1.91507 25.0778 -2.86844 36.8905 -2.86844c80.7117 0 138.174 44.5079 159.109 130.868c51 212 100 423 150 635c13.8038 60.3915 53.6585 90.2662 108.006 90.2662c8.64682 0 17.6605 -0.756248 26.9945 -2.26616z" />
    <glyph glyph-name="iogonek" unicode="&#x12f;" horiz-adv-x="419" 
d="M235.415 -7.10543e-15l5.68434e-14 1.42109e-14zM235.415 -7.10543e-15l23.585 7.10543e-15h144v39h-144v494h-26h-25h-157v-39h157v-455h-157v-39h106.098c-28.9335 -17.7005 -48.098 -41.289 -48.098 -81c0 -64 46 -101 114 -101c38 0 64 12 97 30c-20 27 -2 1 -22 29
c-25 -13 -44 -21 -71 -21c-44 0 -74 23 -74 64c0 46.5656 37.991 62.3083 82.415 80zM204 670h57c0 -17 -12 -24 -29 -24s-28 8 -28 24zM204 670h57c0 17 -12 25 -29 25s-28 -10 -28 -25z" />
    <glyph glyph-name="j" unicode="j" horiz-adv-x="393" 
d="M14 -301c10 -1 23 -3 36 -3c112 0 199 57 199 166c0 224 -1 448 -1 671h-25h-23h-159v-38h159.009c0.101041 -210.441 0.990692 -421.72 0.990692 -633c0 -81 -65 -127 -149 -127c-10 0 -24 1 -30 2c-7 -37 -1 -1 -8 -38zM198 670h56c0 -17 -12 -24 -29 -24s-27 8 -27 24
zM198 670h56c0 17 -12 25 -29 25s-27 -10 -27 -25z" />
    <glyph glyph-name="k" unicode="k" horiz-adv-x="834" 
d="M253 275c113.673 69.5609 235.981 147.038 352.884 219h0.116296h1h166v39h-166h-1h-189v-39h116.495c-103.968 -64.7665 -211.89 -134.295 -314.495 -197.549l2.84217e-14 503.549h-22h-26h-157v-39h157v-722h-158v-39h158h23h25h134v39h-134v214.353
c132.766 -82.4971 272.604 -173.413 404 -253.353h5h71h117v39h-180.589c-126.043 77.5455 -259.34 160.79 -382.411 236z" />
    <glyph glyph-name="kcommaaccent" unicode="&#x137;" horiz-adv-x="834" 
d="M376 -303l133 187h-63l-119 -187h49zM253 275c113.673 69.5609 235.981 147.038 352.884 219h0.116296h1h166v39h-166h-1h-191v-39h118.495c-103.968 -64.7665 -211.89 -134.295 -314.495 -197.549l2.84217e-14 503.549h-22h-26h-157v-39h157v-722h-158v-39h158h23h25
h137v39h-137v214.353c132.766 -82.4971 272.604 -173.413 404 -253.353h5h71h117v39h-180.589c-126.043 77.5455 -259.34 160.79 -382.411 236z" />
    <glyph glyph-name="l" unicode="l" horiz-adv-x="391" 
d="M219 39v761h-21h-27h-154l-1 -39h155v-722h-157v-39h157h25h23h159v39h-159z" />
    <glyph glyph-name="lacute" unicode="&#x13a;" horiz-adv-x="396" 
d="M140 891c63 53 132 113 195 166h-63c-64 -52 -133 -113 -196 -166h64zM220 39v761h-20h-28h-154v-39h154v-722h-157v-39h157h25h23h159v39h-159z" />
    <glyph glyph-name="lcaron" unicode="&#x13e;" horiz-adv-x="507" 
d="M353 622l133 186h-62l-119 -186h48zM219 39v761h-21h-27h-154l-1 -39h155v-722h-157v-39h157h25h23h159v39h-159z" />
    <glyph glyph-name="lcommaaccent" unicode="&#x13c;" horiz-adv-x="391" 
d="M139 -300l132 186h-62l-119 -186h49zM219 39v761h-21h-27h-154l-1 -39h155v-722h-157v-39h157h25h23h159v39h-159z" />
    <glyph glyph-name="less" unicode="&#x3c;" horiz-adv-x="879" 
d="M118.092 300.409l662.908 248.591v42l-720 -270v-42l732 -264v42z" />
    <glyph glyph-name="lessequal" unicode="&#x2264;" horiz-adv-x="956" 
d="M106 0h732v39h-732v-39zM165.376 409c223.502 78.9938 448.485 157.919 672.624 236v42c-244 -86 -489 -171 -732 -257v-42v-1c243 -86 488 -171 732 -257v42c-224.139 78.9999 -449.122 158 -672.624 237z" />
    <glyph glyph-name="litre" horiz-adv-x="441" 
d="M243 39v761h-20h-28h-154v-39h154v-722h-157v-39h157h25h23h159v39h-159z" />
    <glyph glyph-name="logicalnot" unicode="&#xac;" horiz-adv-x="867" 
d="M691 331h-531v-42h531v-139h47v139v42h-47z" />
    <glyph glyph-name="logo" horiz-adv-x="2234" 
d="M1667 57c80 -41 157 -62 247 -62c153 0 268 43 268 178c0 129 -113 165 -237 216c-103 41 -206 68 -206 169c0 91 82 131 183 131c74.0788 0 131.429 -19.2373 195 -48.5328v-103.467h40v125c-79 40 -144 64 -233 64c-130 0 -233 -52 -233 -170c0 -121 109 -154 225 -201
c111 -44 218 -75 218 -182c0 -103 -94 -137 -216 -137c-77.1217 0 -143.629 18.5757 -212 50.7354v97.2646h-39v-127zM1039 722h-22h-26h-155v-39h155v-644h-155v-39h155h26h22h210c245 0 387 115 387 352c0 248 -146 370 -401 370h-196zM1039 683h193
c228 0 357 -111 357 -332c0 -209 -121 -312 -336 -312h-214v644zM400 681v-643h-159v-38h159h23h25h157v38h-157v643h303v-99h40v99v21v20h-734v-20v-21v-99h40v99h303z" />
    <glyph glyph-name="lozenge" unicode="&#x25ca;" horiz-adv-x="615" 
d="M283 128h-2c-68 112 -137 223 -205 336h48c60.2266 -100.082 122.022 -198.596 182.607 -297.625c60.3083 97.9557 124.303 201.304 184.393 297.625h48c-68 108 -140 226 -208 335h-1h-47h-2c-68 -112 -137 -223 -205 -335h48
c60.2266 99.1968 122.022 197.609 182.607 296.627c60.3083 -97.9437 124.303 -201.19 184.393 -296.627h48c-68 -109 -140 -227 -208 -336h-1h-47z" />
    <glyph glyph-name="lslash" unicode="&#x142;" horiz-adv-x="400" 
d="M225 39v368.832c48.9483 41.1344 97.9742 82.2421 147 123.168v44c-49.0258 -41.3522 -98.0517 -82.5227 -147 -123.589v348.589h-20h-28h-154v-39h154v-349.852c-49.8007 -41.7706 -99.4946 -83.4594 -149 -125.148v-44c49.5054 41.6887 99.1993 83.5661 149 125.468
v-328.468h-157v-39h157h25h23h159v39h-159z" />
    <glyph glyph-name="m" unicode="m" horiz-adv-x="1210" 
d="M257 427.562v105.438h-24h-24h-158v-39h158v-455h-158v-39h158h24h24h129v39h-129v325.825c42.3511 82.085 106.44 134.175 197 134.175c105 0 148 -55 148 -164v-296h-129v-39h129h24h24h129v39h-129v300c0 8.98967 -0.246705 17.6732 -0.747218 26.051
c42.6112 81.1872 108.265 133.949 197.747 133.949c106 0 148 -55 148 -164v-296h-128v-39h128h25h23h159v39h-159v300c0 133 -54 198 -185 198c-95.5964 0 -169.46 -43.4657 -215.994 -120.323c-19.3177 81.0407 -74.6642 121.323 -177.006 121.323
c-91.378 0 -161.037 -39.0938 -208 -110.438z" />
    <glyph glyph-name="macron" unicode="&#xaf;" horiz-adv-x="456" 
d="M300 681h-266v-38h266v38z" />
    <glyph glyph-name="macronmod" horiz-adv-x="430" 
d="M347 681h-266v-38h266v38z" />
    <glyph glyph-name="minus" unicode="&#x2212;" horiz-adv-x="852" 
d="M129 289h594v42h-594v-42z" />
    <glyph glyph-name="multiply" unicode="&#xd7;" horiz-adv-x="682" 
d="M341.036 340.036l-194.036 194.964l-31 -31l194.5 -194.5l-194.5 -194.5l30 -30l194.732 194.268l194.268 -194.268c18 18 13 12 30 30l-193.768 194.695l194.768 194.305c-18 18 -12 13 -30 31z" />
    <glyph glyph-name="mumath" horiz-adv-x="886" 
d="M635 159.665c-46.2089 -67.8299 -122.935 -125.665 -205 -125.665c-112 0 -179 51 -179 159v340h-24h-24h-157v-39h157v-303v-491h48v352.796c37.9717 -39.0832 97.1859 -57.7958 173 -57.7958c83.9087 0 159.515 45.9799 211 109.361v-104.361h24h24h146v39h-146v494
h-24h-24h-157v-39h157v-334.335z" />
    <glyph glyph-name="n" unicode="n" horiz-adv-x="862" 
d="M209 494v-455h-158v-39h158h24h24h140v39h-140v326.519c45.4859 80.0179 129.012 132.481 221 132.481c108 0 171 -56 171 -163v-296h-141v-39h141h23h25h157v39h-157v300c0 131 -75 198 -208 198c-93.7322 0 -179.121 -39.7922 -232 -113.207v109.207h-24h-24h-158v-39
h158z" />
    <glyph glyph-name="nacute" unicode="&#x144;" horiz-adv-x="862" 
d="M407 651c63 53 132 113 195 166h-63c-64 -52 -132 -113 -195 -166h63zM209 494v-455h-158v-39h158h24h24h140v39h-140v326.519c45.4859 80.0179 129.012 132.481 221 132.481c108 0 171 -56 171 -163v-296h-141v-39h141h23h25h157v39h-157v300c0 131 -75 198 -208 198
c-93.7322 0 -179.121 -39.7922 -232 -113.207v109.207h-24h-24h-158v-39h158z" />
    <glyph glyph-name="ncaron" unicode="&#x148;" horiz-adv-x="862" 
d="M228 816c63 -53 131 -114 195 -166h10h54h9c64 52 133 113 196 166h-64c-54.1594 -45.5627 -112.753 -96.2986 -168.157 -143.313c-55.8487 47.0146 -113.824 97.7505 -168.843 143.313h-63zM209 494v-455h-158v-39h158h24h24h140v39h-140v326.519
c45.4859 80.0179 129.012 132.481 221 132.481c108 0 171 -56 171 -163v-296h-141v-39h141h23h25h157v39h-157v300c0 131 -75 198 -208 198c-93.7322 0 -179.121 -39.7922 -232 -113.207v109.207h-24h-24h-158v-39h158z" />
    <glyph glyph-name="ncommaaccent" unicode="&#x146;" horiz-adv-x="862" 
d="M420 -300l132 186h-62l-119 -186h49zM209 494v-455h-158v-39h158h24h24h140v39h-140v326.519c45.4859 80.0179 129.012 132.481 221 132.481c108 0 171 -56 171 -163v-296h-141v-39h141h23h25h157v39h-157v300c0 131 -75 198 -208 198
c-93.7322 0 -179.121 -39.7922 -232 -113.207v109.207h-24h-24h-158v-39h158z" />
    <glyph glyph-name="nine" unicode="9" horiz-adv-x="724" 
d="M581.637 410.524c-31.1831 -225.32 -226.324 -335.007 -482.637 -383.524l11 -41c301 54 522 197 522 492c0 164 -111 250 -281 250c-149 0 -249 -72 -249 -214c0 -140 101 -209 250 -209c102.017 0 178.562 35.1746 229.637 105.524zM586 475.899
c-51.3626 -87.1596 -122.428 -129.899 -230 -129.899c-123 0 -207 55 -207 170c0 112 82 167 200 167c142 0 237 -71 237 -207z" />
    <glyph glyph-name="notequal" unicode="&#x2260;" horiz-adv-x="970" 
d="M385.451 197l-127.451 -206h48l127.451 206h424.549v41h-399.182l111.984 181h287.199v41h-261.832l126.832 205h-48l-126.832 -205h-434.168v-41h408.801l-111.984 -181l-296.818 -2.84217e-14v-41h271.451z" />
    <glyph glyph-name="ntilde" unicode="&#xf1;" horiz-adv-x="862" 
d="M670 785c-16 -52 -35 -96 -83 -96c-42 0 -69 16 -101 45c-36 33 -65 53 -113 53c-73 0 -111 -48 -129 -122l35 -14c16 57 41 98 95 98c38 0 60 -19 87 -45c39 -35 72 -55 124 -55c71 0 101 54 122 123zM209 494v-455h-158v-39h158h24h24h140v39h-140v326.519
c45.4859 80.0179 129.012 132.481 221 132.481c108 0 171 -56 171 -163v-296h-141v-39h141h23h25h157v39h-157v300c0 131 -75 198 -208 198c-93.7322 0 -179.121 -39.7922 -232 -113.207v109.207h-24h-24h-158v-39h158z" />
    <glyph glyph-name="nullsuperior" horiz-adv-x="640" 
d="M114 498c0 -130 76 -212 206 -212s206 83 206 214c0 129 -76 209 -205 209c-130 0 -207 -81 -207 -211zM159 498c0 105 57 172 160 172c0.758544 0.00736451 1.51459 0.011041 2.26814 0.011041c101.568 0 157.732 -66.7917 157.732 -172.011c0 -104 -54 -174 -157 -174
c-105 0 -163 68 -163 174z" />
    <glyph glyph-name="numbersign" unicode="#" horiz-adv-x="824" 
d="M663.239 518l76.7613 204h-48l-76.7613 -204h-284.588l76.3491 204h-48l-75.4438 -204h-112.556l-13 -38h111.503l-73.9645 -200h-109.538l-14 -39h109.115l-72.1154 -195h45l72.9808 195l284.028 -2.84217e-14l-76.0088 -202h48l76.0088 202h90.9912l13 39h-89.3163
l75.2562 200h87.06l12 38h-84.7613zM600.94 480l-75.2562 -200h-284.107l74.8521 200h284.511z" />
    <glyph glyph-name="o" unicode="o" horiz-adv-x="746" 
d="M94 268c0 -172 104 -273 278 -273c175 0 280 99 280 271c0 171 -106 272 -281 272c-173 0 -277 -102 -277 -270zM142 268c0 145 84 232 226 232c149 0 236 -88 236 -234s-86 -232 -230 -232c-148 0 -232 88 -232 234z" />
    <glyph glyph-name="oacute" unicode="&#xf3;" horiz-adv-x="746" 
d="M318 651c63 53 132 113 195 166h-63c-64 -53 -132 -114 -195 -166h63zM94 268c0 -172 104 -273 278 -273c175 0 280 99 280 271c0 171 -106 272 -281 272c-173 0 -277 -102 -277 -270zM142 268c0 145 84 232 226 232c149 0 236 -88 236 -234s-86 -232 -230 -232
c-148 0 -232 88 -232 234z" />
    <glyph glyph-name="ocircumflex" unicode="&#xf4;" horiz-adv-x="746" 
d="M603 652c-63 52 -132 113 -196 166h-9h-54h-10c-63 -53 -132 -114 -195 -166h63c55.0191 45.5627 112.994 96.2986 168.843 143.313c55.4039 -47.0146 113.998 -97.7505 168.157 -143.313h64zM94 268c0 -172 104 -273 278 -273c175 0 280 99 280 271
c0 171 -106 272 -281 272c-173 0 -277 -102 -277 -270zM142 268c0 145 84 232 226 232c149 0 236 -88 236 -234s-86 -232 -230 -232c-148 0 -232 88 -232 234z" />
    <glyph glyph-name="odieresis" unicode="&#xf6;" horiz-adv-x="746" 
d="M419 669h62c0 17 -13 27 -32 27c-18 0 -30 -10 -30 -27zM419 669h62c0 -18 -13 -28 -32 -28c-18 0 -30 10 -30 28zM261 669h62c0 17 -13 27 -32 27c-18 0 -30 -10 -30 -27zM261 669h62c0 -18 -13 -28 -32 -28s-30 10 -30 28zM94 268c0 -172 104 -273 278 -273
c175 0 280 99 280 271c0 171 -106 272 -281 272c-173 0 -277 -102 -277 -270zM142 268c0 145 84 232 226 232c149 0 236 -88 236 -234s-86 -232 -230 -232c-148 0 -232 88 -232 234z" />
    <glyph glyph-name="oe" unicode="&#x153;" horiz-adv-x="1203" 
d="M1061 301h-406.421c7.10055 126.027 79.3209 198 206.421 198c126 0 200 -67 200 -194v-4zM654.306 264h452.694v37c0 155 -90 237 -243 237c-120.155 0 -202.736 -48.8472 -238.303 -140.642c-41.6419 90.1041 -130.906 140.642 -254.697 140.642
c-173 0 -277 -102 -277 -270c0 -172 104 -273 278 -273c128.423 0 219.149 53.3147 258.346 149.669c40.8383 -97.5555 131.639 -149.669 261.654 -149.669c86 0 141 24 207 78l-28 29c-59 -46 -105 -68 -179 -68c-147.691 0 -232.019 83.8624 -237.694 230zM142 268
c0 145 84 232 226 232c149 0 236 -88 236 -234s-86 -232 -230 -232c-148 0 -232 88 -232 234z" />
    <glyph glyph-name="ogonek" unicode="&#x2db;" horiz-adv-x="389" 
d="M169 30c-70 -27 -133 -46 -133 -118c0 -64 46 -101 113 -101c39 0 64 12 98 29c-20 28 -2 2 -22 30c-25 -13 -44 -21 -72 -21c-43 0 -73 22 -73 64c0 55 53 67 106 90c-16 25 -1 2 -17 27z" />
    <glyph glyph-name="ograve" unicode="&#xf2;" horiz-adv-x="746" 
d="M472 650c-63 53 -131 114 -195 166h-63c63 -53 132 -113 195 -166h63zM94 268c0 -172 104 -273 278 -273c175 0 280 99 280 271c0 171 -106 272 -281 272c-173 0 -277 -102 -277 -270zM142 268c0 145 84 232 226 232c149 0 236 -88 236 -234s-86 -232 -230 -232
c-148 0 -232 88 -232 234z" />
    <glyph glyph-name="ohungarumlaut" unicode="&#x151;" horiz-adv-x="747" 
d="M442 602l133 187h-63l-119 -187h49zM279 602l132 187h-62l-119 -187h49zM94 268c0 -172 104 -273 278 -273c175 0 280 99 280 271c0 171 -106 272 -281 272c-173 0 -277 -102 -277 -270zM142 268c0 145 84 232 226 232c149 0 236 -88 236 -234s-86 -232 -230 -232
c-148 0 -232 88 -232 234z" />
    <glyph glyph-name="omacron" unicode="&#x14d;" horiz-adv-x="746" 
d="M498 689h-266v-38h266v38zM94 268c0 -172 104 -273 278 -273c175 0 280 99 280 271c0 171 -106 272 -281 272c-173 0 -277 -102 -277 -270zM142 268c0 145 84 232 226 232c149 0 236 -88 236 -234s-86 -232 -230 -232c-148 0 -232 88 -232 234z" />
    <glyph glyph-name="omegamath" horiz-adv-x="924" 
d="M698.502 38c94.497 77.9629 140.498 177.553 140.498 310c0 231 -146 378 -376 378c-233 0 -379 -149 -379 -381c0 -131.076 48.3364 -225.714 141.162 -307h-189.162v-38h237l26 38c-110 80 -167 172 -167 307c0 206 124 343 327 343c204 0 332 -133 332 -340
c0 -138 -59 -233 -174 -310l29 -38h238v38h-185.498z" />
    <glyph glyph-name="one" unicode="1" horiz-adv-x="552" 
d="M303 722l-235 -167l25 -34l210 148.185v-630.185h-155v-39h155h27h21h161v39h-161v683h-48z" />
    <glyph glyph-name="onehalf" unicode="&#xbd;" horiz-adv-x="1239" 
d="M853 227c33 47 74 71 135 71c67 0 117 -27 117 -88c0 -55 -41 -77 -86 -110c-77 -50 -154 -99 -230 -148v-38h386v125h-36v-87h-280.704c64.6018 39.9312 126.238 78.9656 186.704 118c56 42 105 73 105 142c0 84 -68 123 -158 123c-78 0 -133 -24 -173 -87zM387 -82
l504 830h-47l-504 -830h47zM214 751l-151 -109l23 -30l128 96.3678v-335.368h-117v-35h116h1h157v35h-111v370v8h-46zM236.33 355.408l2.24657e-06 1.17996e-06zM236.67 355.592l-2.24665e-06 -1.18e-06zM236.33 355.408
c0.140446 0.0837576 0.251433 0.143179 0.33914 0.183369c-0.140446 -0.0837576 -0.251433 -0.143179 -0.33914 -0.183369z" />
    <glyph glyph-name="onequarter" unicode="&#xbc;" horiz-adv-x="1204" 
d="M387 -82l504 830h-47l-504 -830h47zM992 -91h23h151v35h-151v86h114v36h-114v281h-46l-265 -281l19 -36h246v-86h-151v-35h151h23zM969 290.371v-224.371h-211.987zM218 751l-151 -109l23 -30l128 96.3678v-335.368h-116v-35h116
c19.2689 15.4989 22.3947 17.6622 22.9018 17.6622c0 0 -0.0680968 -0.0883151 -0.0680968 -0.144371c0 -0.0260603 0.0147181 -0.0451483 0.0578391 -0.0451483c0.00834013 0 0.0177428 0.00222962 0.028307 0.00222962
c-0.937799 -0.388197 -5.19027 -3.21417 -22.9199 -17.4749h157v35h-111v370v8h-46zM241.08 355.525c0.937799 0.388197 5.19027 3.21417 22.9199 17.4749c-19.2689 -15.4989 -22.3947 -17.6622 -22.9018 -17.6622c0 0 0.164622 0.213499 -0.0180493 0.187289z" />
    <glyph glyph-name="onesuperior" unicode="&#xb9;" horiz-adv-x="527" 
d="M269 705l-152 -109l23 -30l129 97.1207v-336.121h-117v-36h116h1h157v36h-112v370v8h-45zM291.41 309.392l0.000246461 0.00486826c-0.180125 -0.0992945 -0.281239 -0.134532 -0.337999 -0.134532l-0.0348268 -0.000155797
c0.236648 0.158168 0.352129 0.210885 0.408481 0.210885c-7.2232e-08 1.31108e-07 -0.0356552 -0.0438229 -0.0356552 -0.0761966z" />
    <glyph glyph-name="ordfeminine" unicode="&#xaa;" horiz-adv-x="606" 
d="M379 633.052c-47.7872 -4.3751 -85.0197 -5.88506 -137 -12.0522c-72 -8 -126 -35 -126 -103c0 -67 55 -97 130 -97c56.5546 0 98.5072 24.5314 133 60.649v-54.649h25h18h70v32h-70v219c0 71 -65 90 -145 90c-60 0 -111 -21 -146 -51v-71h32v51.8867
c28.2015 19.0793 66.0037 36.1133 110 36.1133c58 0 106 -13 106 -68v-32.9478zM379 522.617c-32.0562 -38.7908 -72.0716 -68.6167 -127 -68.6167c-54 0 -96 19 -96 66c0 45 37 65 85 70c51.4094 6.09942 89.9117 8.40263 138 13.5253v-80.9085z" />
    <glyph glyph-name="ordmasculine" unicode="&#xba;" horiz-adv-x="594" 
d="M114 601c0 -114 71 -182 186 -182c111 0 180 68 180 180c0 109 -70 172 -181 172c-113 0 -185 -63 -185 -170zM157 601c0 85 53 135 140 135c86 0 140 -52 140 -137c0 -88 -51 -144 -135 -144c-91 0 -145 56 -145 146z" />
    <glyph glyph-name="oslash" unicode="&#xf8;" horiz-adv-x="746" 
d="M94 268c0 -111.62 43.799 -193.34 122.105 -236.959l-54.1046 -89.0415l32 -21l57.108 93.9427c35.1704 -13.1195 75.6667 -19.9427 120.892 -19.9427c175 0 280 99 280 271c0 104.272 -39.4138 182.516 -109.852 227.703l51.8522 85.2969l-34 18l-51.7461 -85.1601
c-38.9509 17.1654 -85.0299 26.1601 -137.254 26.1601c-173 0 -277 -102 -277 -270zM142 268c0 145 84 232 226 232c45.5627 0 85.3279 -8.22864 118.581 -23.8281l-248.165 -408.413c-62.5721 38.2641 -96.4155 107.568 -96.4155 200.241zM519.653 456.699
c54.5619 -39.7036 84.3468 -105.273 84.3468 -190.699c0 -146 -86 -232 -230 -232c-38.0112 0 -71.8007 5.80473 -101.03 16.9059z" />
    <glyph glyph-name="otilde" unicode="&#xf5;" horiz-adv-x="746" 
d="M564 785c-16 -52 -36 -96 -83 -96c-43 0 -70 16 -101 45c-36 33 -65 54 -114 54c-73 0 -110 -49 -129 -123c36 -14 1 0 36 -14c16 57 41 98 94 98c38 0 60 -19 88 -45c38 -35 72 -55 124 -55c71 0 100 54 122 124c-15.5215 5.03399 -18.0204 5.66849 -18.4228 5.66849
c-0.556759 0 -0.556759 0 -18.5772 6.33151zM94 268c0 -172 104 -273 278 -273c175 0 280 99 280 271c0 171 -106 272 -281 272c-173 0 -277 -102 -277 -270zM142 268c0 145 84 232 226 232c149 0 236 -88 236 -234s-86 -232 -230 -232c-148 0 -232 88 -232 234z" />
    <glyph glyph-name="p" unicode="p" horiz-adv-x="808" 
d="M217 464.262v68.7381h-22h-25h-157v-39l157 0.862637v-755.863h-159v-38h159v-1h23h24h146v39l-146 -0.858824v339.202c68.5312 -54.2853 136.395 -82.3432 228 -82.3432c166 0 269 113 268 281c0 158 -104 262 -265 262c-91.4883 0 -174.302 -32.0285 -231 -73.7381z
M217 122.75v296.578c49.5076 43.376 134.092 80.6718 228 80.6718c137 0 221 -91 221 -226c0.0507353 -2.45221 0.0760159 -4.89069 0.0760159 -7.31519c0 -139.485 -83.6757 -232.715 -217.869 -232.715c-1.3968 0 -2.79908 0.0101009 -4.20679 0.0303558
c-91.2294 0 -154.793 31.3546 -227 88.7503z" />
    <glyph glyph-name="paragraph" unicode="&#xb6;" horiz-adv-x="860" 
d="M738 0v722h-36h-12h-144h-25h-4h-19h-134c-167 0 -296 -76 -296 -231c0 -145 116 -215 270 -217c58.2787 0 107.997 13.5542 160 33.4323v-268.432h-159v-39h159h23h25h144h12h36zM498 683v-334.464c-55.0234 -22.7594 -100.901 -36.536 -164 -36.536
c-125 0 -217 60 -217 177c0 134 109 194 254 194h127zM546 39v644h144v-644h-144z" />
    <glyph glyph-name="parenleft" unicode="(" horiz-adv-x="433" 
d="M409 -230c-183 156 -275 314 -275 556s93 398 274 557l-29 25c-193 -164 -293 -327 -293 -582s101 -418 295 -583z" />
    <glyph glyph-name="parenright" unicode=")" horiz-adv-x="445" 
d="M51 -272c197 173 310 335 310 599c0 258 -106 420 -306 582l-29 -27c188 -158 286 -312 286 -556c0 -250 -108 -404 -291 -573z" />
    <glyph glyph-name="partialdiff" unicode="&#x2202;" horiz-adv-x="687" 
d="M535.557 313.068c3.74091 33.6178 5.44265 68.8728 5.44265 104.932c0 152 -61 271 -198 271c-55 0 -93 -19 -139 -43l-23 29c55 33 100 53 164 53c164 0 241 -135 241 -310c0 -230 -66 -423 -272 -423c-137 1 -228 81 -228 215c0 138 96 220 239 220
c98.3 0 172.753 -41.593 210.557 -116.932zM524.342 244.041c-23.9845 95.1846 -95.3095 149.959 -197.342 149.959c-111 0 -195 -66 -195 -179c0 -111 76 -181 182 -181c120.201 0 183.261 87.4198 210.342 210.041z" />
    <glyph glyph-name="percent" unicode="%" horiz-adv-x="1272" 
d="M427 -82l504 830h-47l-505 -830h48zM799 123c0 -130 76 -212 206 -212c129 0 205 83 205 214c0 129 -76 209 -204 209c-130 0 -207 -81 -207 -211zM844 123c0 105 57 173 160 173c0.747635 0.00725859 1.49279 0.0108818 2.23547 0.0108818
c101.575 0 156.765 -67.773 156.765 -172.011c0 -105 -54 -175 -156 -175c-105 0 -163 68 -163 174zM61 541c0 -130 76 -212 206 -212s206 82 206 214c0 129 -76 208 -205 208c-130 0 -207 -80 -207 -210zM106 541c0 104 57 172 160 172
c0.747635 0.00725859 1.49285 0.0108818 2.23563 0.0108818c101.589 0 157.764 -67.773 157.764 -172.011c0 -105 -54 -175 -157 -175c-105 0 -163 68 -163 175z" />
    <glyph glyph-name="period" unicode="." horiz-adv-x="309" 
d="M123 21h63c0 -18 -14 -27 -33 -27c-18 0 -30 10 -30 27zM123 21h63c0 18 -14 28 -33 28c-18 0 -30 -11 -30 -28z" />
    <glyph glyph-name="periodcentered" unicode="&#xb7;" horiz-adv-x="314" 
d="M126 440h62c0 -18 -13 -27 -32 -27c-18 0 -30 10 -30 27zM126 440h62c0 18 -13 27 -32 27c-18 0 -30 -10 -30 -27z" />
    <glyph glyph-name="perthousand" unicode="&#x2030;" horiz-adv-x="1757" 
d="M428 -82l504 830h-47l-504 -830h47zM1287 123c0 -130 76 -212 206 -212c129 0 205 83 205 214c0 129 -76 209 -204 209c-130 0 -207 -81 -207 -211zM1332 123c0 105 57 173 160 173c0.747635 0.00725859 1.49285 0.0108818 2.23563 0.0108818
c101.589 0 157.764 -67.773 157.764 -172.011c0 -105 -55 -175 -157 -175c-105 0 -163 68 -163 174zM800 123c0 -130 76 -212 206 -212s206 83 206 214c0 129 -77 209 -205 209c-130 0 -207 -81 -207 -211zM845 123c0 105 57 173 160 173
c0.747635 0.00725859 1.49285 0.0108818 2.23563 0.0108818c101.589 0 157.764 -67.773 157.764 -172.011c0 -105 -55 -175 -157 -175c-105 0 -163 68 -163 174zM61 541c0 -130 76 -212 206 -212s206 82 206 214c0 129 -76 208 -205 208c-130 0 -207 -80 -207 -210zM106 541
c0 104 57 172 160 172c0.747635 0.00725859 1.49285 0.0108818 2.23563 0.0108818c101.589 0 157.764 -67.773 157.764 -172.011c0 -105 -54 -175 -157 -175c-105 0 -163 68 -163 175z" />
    <glyph glyph-name="pi" unicode="&#x3c0;" horiz-adv-x="657" 
d="M202 547h255v-527h46v527h122v42h-597v-42h128v-527h46v527z" />
    <glyph glyph-name="plus" unicode="+" horiz-adv-x="760" 
d="M400 331v257h-46v-257h-271v-42h271v-269h46v269h277v42h-277z" />
    <glyph glyph-name="plusminus" unicode="&#xb1;" horiz-adv-x="808" 
d="M424 331v257h-46v-257h-271v-42h271v-227h-271v-42h271h46h277v42h-277v227h277v42h-277z" />
    <glyph glyph-name="product" unicode="&#x220f;" horiz-adv-x="1064" 
d="M260 800h-9h-27h-155v-38h155v-724h-157v-38h157h25h23h159v38h-159v724h518v-724h-158v-38h158h24h23h159v38h-159v724h158v38h-158h-20h-6h-21h-518h-12z" />
    <glyph glyph-name="q" unicode="q" horiz-adv-x="802" 
d="M592 427.601v-297.349c-60.3851 -60.6635 -138.287 -96.2517 -224 -96.2517c-139 0 -228 91 -228 232s86 233 226 233c80.0798 0 159.312 -27.959 226 -71.3994zM592 81.6978v-343.549l-154 0.850829v-39h154h27h24h146v39l-146 -0.858824v755.859h146v39h-146h-24h-27
v-64.8022c-67.3854 42.9759 -147.34 69.8022 -228 69.8022c-169 0 -273 -107 -273 -274c1 -166 109 -269 277 -269c84.5849 0 162.293 32.3209 224 86.6978z" />
    <glyph glyph-name="question" unicode="?" horiz-adv-x="536" 
d="M110 664c31 10 55 14 86 14c114 0 198 -53 198 -159c0 -116 -93 -176 -218 -176h-12v-121h48v81.5157c131.866 11.3359 228 86.0034 228 215.484c0 129 -104 199 -239 199c-39 0 -69 -5 -107 -16zM160 14h57c0 -17 -11 -24 -29 -24c-16 0 -28 9 -28 24zM160 14h57
c0 17 -11 25 -29 25c-16 0 -28 -10 -28 -25z" />
    <glyph glyph-name="questiondown" unicode="&#xbf;" horiz-adv-x="536" 
d="M426 45c-31 -10 -55 -15 -87 -15c-113 0 -197 53 -197 159c0 116 93 177 217 177h13v121h-48v-82.4319c-131.487 -10.979 -228 -84.9123 -228 -215.568c0 -128 104 -199 239 -199c39 0 69 6 106 16zM376 694h-57c0 -16 11 -25 29 -25c16 0 28 10 28 25zM376 694h-57
c0 17 11 24 29 24c16 0 28 -8 28 -24z" />
    <glyph glyph-name="quotedbl" unicode="&#x22;" horiz-adv-x="539" 
d="M404 633v188h-45v-188h45zM183 633v188h-48v-188h48z" />
    <glyph glyph-name="quotedblbase" unicode="&#x201e;" horiz-adv-x="519" 
d="M257 -138l133 187h-62l-119 -187h48zM96 -138l132 187h-62l-119 -187h49z" />
    <glyph glyph-name="quotedblleft" unicode="&#x201c;" horiz-adv-x="441" 
d="M207 865l-133 -186h62l120 186h-49zM370 865l-132 -186h62l119 186h-49z" />
    <glyph glyph-name="quotedblright" unicode="&#x201d;" horiz-adv-x="392" 
d="M220 660l133 186h-62l-120 -186h49zM57 660l132 186h-62l-119 -186h49z" />
    <glyph glyph-name="quoteleft" unicode="&#x2018;" horiz-adv-x="390" 
d="M256 751l-133 -187h62l119 187h-48z" />
    <glyph glyph-name="quoteright" unicode="&#x2019;" horiz-adv-x="387" 
d="M172 536l132 186h-62l-119 -186h49z" />
    <glyph glyph-name="quotesinglbase" unicode="&#x201a;" horiz-adv-x="357" 
d="M96 -138l132 187h-62l-119 -187h49z" />
    <glyph glyph-name="quotesingle" unicode="'" horiz-adv-x="317" 
d="M182 633v188h-47v-188h47z" />
    <glyph glyph-name="r" unicode="r" horiz-adv-x="574" 
d="M258 396.554c69.5525 87.3017 160.994 101.446 271 101.446v40c-109.816 0 -203.68 -18.9902 -271 -92.721v87.721h-25h-23h-159v-39h159v-455h-158v-39h158h24h24h146v39h-146v357.554z" />
    <glyph glyph-name="racute" unicode="&#x155;" horiz-adv-x="577" 
d="M222 650c63 52 132 113 195 166h-63c-64 -53 -132 -114 -195 -166h63zM261 395.493c68.8145 88.2481 160.55 102.507 271 102.507v40c-109.816 0 -203.68 -18.9902 -271 -92.721v87.721h-25h-23h-158l-1 -39h159v-455h-158v-39h158h24h24h146v39h-146v356.493z" />
    <glyph glyph-name="radical" unicode="&#x221a;" horiz-adv-x="809" 
d="M436 0c109 241 217 481 326 722h-46c-104.41 -226.691 -207.05 -452.498 -309.585 -679.084c-81.6817 179.016 -25.9066 57.0613 -131.415 282.084h-23h-23h-159v-38h176.505c85.7704 -186.16 27.8616 -59.9484 131.495 -287h9h39h10z" />
    <glyph glyph-name="rcaron" unicode="&#x159;" horiz-adv-x="594" 
d="M55 813c63 -53 132 -114 195 -166h10h54h9c64 52 133 113 196 166h-64c-54.1594 -45.5627 -112.753 -97.0377 -168.157 -143.624c-55.8487 46.5867 -113.824 98.0616 -168.843 143.624h-63zM268 395.292c69.6723 88.4275 161.411 102.708 271 102.708v40
c-109.816 0 -203.68 -18.9902 -271 -92.721v87.721h-24h-24h-158v-39h158v-455h-157v-39h157h24h24h147v39h-147v356.292z" />
    <glyph glyph-name="rcommaaccent" unicode="&#x157;" horiz-adv-x="574" 
d="M220 -301l132 186h-62l-119 -186h49zM258 396.554c69.5525 87.3017 160.994 101.446 271 101.446v40c-109.816 0 -203.68 -18.9902 -271 -92.721v87.721h-25h-23h-159v-39h159v-455h-158v-39h158h24h24h146v39h-146v357.554z" />
    <glyph glyph-name="registered" unicode="&#xae;" horiz-adv-x="949" 
d="M368 147h117v34h-75v109h55c9.62638 0 18.9568 0.309384 27.9305 0.979636c32.2992 -47.8552 63.405 -96.3071 96.0695 -143.98h105v34h-75c-26.3229 39.0305 -53.4697 78.0611 -79.9447 117.839c42.7629 12.6437 69.9447 40.4252 69.9447 93.1606c0 71 -57 102 -132 102
h-67h-130v-34h88v-279h-88v-33h88l22.96 18.04zM410 460h59c56 0 99 -19 99 -71s-42 -65 -98 -65h-60v136zM410 460v34zM96 320c0 -209 167 -322 388 -322c214 0 369 118 369 322c0 207 -159 325 -374 325c-220 0 -383 -116 -383 -325zM136 320c0 188 145 293 343 293
c193 0 335 -108 335 -294c0 -182 -139 -290 -328 -290c-198 0 -350 102 -350 291z" />
    <glyph glyph-name="ring" unicode="&#x2da;" horiz-adv-x="426" 
d="M62 713c0 56 38 86 97 86c63 0 106 -27 106 -86c0 -57 -42 -86 -103 -86c-60 0 -100 29 -100 86zM19 713c0 -80 59 -122 143 -122c86 0 147 40 147 122s-62 122 -150 122c-83 0 -140 -42 -140 -122z" />
    <glyph glyph-name="ruble" horiz-adv-x="788" 
d="M424 323c180 2 296 35 296 198c0 164 -115 201 -296 201h-134h-19h-4h-25h-156v-39h156v-320h-112v-40h112v-103h-112v-41h112v-140h-156v-39h156h25h23h159v39h-159v140h317v41h-317v103h134zM290 683h127c156 0 254 -24 254 -163c0 -136 -98 -157 -252 -157h-129v320z
" />
    <glyph glyph-name="rupee" horiz-adv-x="948" 
d="M0 0h948v20h-948v-20z" />
    <glyph glyph-name="s" unicode="s" horiz-adv-x="610" 
d="M131 78.9203v96.0797h-40v-125h2c75 -32 142 -55 220 -55c119 0 204 39 204 147c0 109 -96 123 -206 153c-81 21 -150 43 -150 116c0 65 57 88 133 88c52.4593 0 111.034 -14.5243 153 -33.5475v-97.4525h39v123c-47 25 -124 47 -190 47c-103 0 -178 -34 -178 -127
c0 -98 77 -127 177 -154c91 -25 177 -33 176 -115c0 -78 -65 -108 -151 -108c-67.8048 0 -124.394 18.9801 -189 44.9203z" />
    <glyph glyph-name="sacute" unicode="&#x15b;" horiz-adv-x="610" 
d="M243 651c63 53 132 113 195 166h-63c-64 -52 -132 -113 -195 -166h63zM131 78.9203v96.0797h-40v-125h2c75 -32 142 -55 220 -55c119 0 204 39 204 147c0 109 -96 123 -206 153c-81 21 -150 43 -150 116c0 65 57 88 133 88c52.4593 0 111.034 -14.5243 153 -33.5475
v-97.4525h39v123c-47 25 -124 47 -190 47c-103 0 -178 -34 -178 -127c0 -98 77 -127 177 -154c91 -25 177 -33 176 -115c0 -78 -65 -108 -151 -108c-67.8048 0 -124.394 18.9801 -189 44.9203z" />
    <glyph glyph-name="scaron" unicode="&#x161;" horiz-adv-x="630" 
d="M74 816c63 -53 132 -114 195 -166h10h54h9c64 52 133 113 196 166h-64c-54.1083 -45.5197 -112.642 -96.2028 -168 -143.18c-55.3576 46.9772 -113.892 97.6604 -168 143.18h-64zM141 79.2515v95.7485h-39v-125h1c75 -32 143 -55 221 -55c118 0 204 39 204 147
c-1 109 -96 123 -207 153c-81 21 -150 43 -150 116c0 65 57 88 133 88c52.0637 0 110.904 -14.3061 153 -33.118v-97.882h40v123c-48 25 -125 47 -191 47c-103 0 -178 -34 -178 -127c0 -98 77 -127 178 -154c90 -25 176 -33 176 -115c0 -78 -65 -108 -151 -108
c-68.0931 0 -125.745 19.1418 -190 45.2515z" />
    <glyph glyph-name="scedilla" unicode="&#x15f;" horiz-adv-x="610" 
d="M258 -100c16 9 29 12 47 12c34 0 56 -17 56 -49c0 -36 -31 -48 -71 -48c-30 0 -53 4 -82 18l-16 -30c32 -15 59 -22 96 -22c66 0 117 23 117 83c0 55 -40 85 -97 85c-6.41204 0 -12.439 -0.299479 -18.2314 -0.880739c11.5221 16.7314 22.9686 33.5229 31.9439 46.9519
c114.415 1.88774 195.288 41.5834 195.288 146.929c0 109 -96 123 -206 153c-81 21 -150 43 -150 116c0 65 57 88 133 88c52.4593 0 111.034 -14.5243 153 -33.5475v-97.4525h39v123c-47 25 -124 47 -190 47c-103 0 -178 -34 -178 -127c0 -98 77 -127 177 -154
c91 -25 177 -33 176 -115c0 -78 -65 -108 -151 -108c-67.8048 0 -124.394 18.9801 -189 44.9203v96.0797h-40v-125h2c60.4972 -25.8121 115.789 -45.7684 175.848 -52.5212c-14.9151 -22.3748 -31.8655 -48.1529 -43.8478 -66.4788l0.747947 -0.701201
c-0.248767 -0.0992521 -0.49808 -0.198852 -0.747947 -0.298799c14.8721 -13.5201 16.3394 -14.6509 16.4842 -14.6509c0 0 -0.982509 1.08873 16.5158 -15.3491z" />
    <glyph glyph-name="scommaaccent" unicode="&#x219;" horiz-adv-x="610" 
d="M223 -310l132 186h-62l-119 -186h49zM131 79.2514v95.7486h-39v-125h1c75 -32 142 -55 221 -55c118 0 204 39 204 147c-1 109 -97 123 -207 153c-81 21 -150 43 -150 116c0 65 57 88 133 88c52.0637 0 110.904 -14.3061 153 -33.118v-97.882h39v123
c-47 25 -124 47 -190 47c-103 0 -178 -34 -178 -127c0 -98 77 -127 177 -154c91 -25 177 -33 177 -115c0 -78 -66 -108 -152 -108c-67.1603 0 -124.75 19.1418 -189 45.2514z" />
    <glyph glyph-name="section" unicode="&#xa7;" horiz-adv-x="627" 
d="M116 29c67 -40 122 -58 201 -58c104 0 183 39 183 135c-1.29266 58.1695 -33.0803 91.6924 -80.5132 114.608c68.8369 23.5242 114.513 65.2554 114.513 140.392c-1 109 -107 119 -219 149c-69 20 -128 45 -128 111c0 64 52 92 126 92
c54.6401 0 92.9701 -9.32012 141 -28.6448v-97.3552h40v121c-62 29 -109 43 -177 43c-103 0 -177 -41 -177 -130c0 -57.084 29.767 -92.0682 75.065 -116.766c-68.3954 -24.2601 -115.065 -63.5154 -115.065 -137.234c0 -103 94 -124 201 -152c77 -23 152 -39 152 -110
c0 -64 -58 -95 -134 -95c-65.1589 0 -109.262 12.6335 -164 40.9921v99.0079h-39v-121zM364.057 241.53c-10.9963 3.33547 -22.3848 6.45788 -34.0569 9.47003c-90 26 -182 36 -182 118c0 65.2078 47.7272 93.9694 114.081 114.577
c9.33093 -3.37015 18.9956 -6.54193 28.9193 -9.5774c95 -28 196 -29 196 -114c0 -67.2164 -50.8693 -103.063 -122.943 -118.47z" />
    <glyph glyph-name="semicolon" unicode=";" horiz-adv-x="452" 
d="M162 -99c62 82 72 99 134 181h-62c-52 -82 -67 -99 -120 -181h48zM230 418h57c0 16 -12 25 -29 25s-28 -10 -28 -25zM230 418h57c0 -17 -12 -25 -30 -25c-16 0 -27 9 -27 25z" />
    <glyph glyph-name="seven" unicode="7" horiz-adv-x="676" 
d="M621 722h-541v-34v-5v-114h40v114h473.613c-461.047 -656.545 16.9269 24.5206 -479.613 -683h55c477 683 0 0 478 683v39h-26z" />
    <glyph glyph-name="six" unicode="6" horiz-adv-x="722" 
d="M142.36 314.716c34.9476 217.674 236.698 316.801 484.64 381.284l-11 37c-301 -71 -526 -194 -526 -490c0 -162 114 -249 283 -249c149 0 250 73 250 213c0 141 -103 210 -251 210c-100.727 0 -174.849 -36.0644 -229.64 -102.284zM137.013 242.289
c49.629 89.1409 128.938 133.711 230.987 133.711c123 0 205 -55 205 -171c0 -109 -81 -166 -198 -166c-142.04 0 -236.722 70.0495 -237.987 203.289z" />
    <glyph glyph-name="slash" unicode="/" horiz-adv-x="667" 
d="M105 -57l504 888h-48l-504 -888h48z" />
    <glyph glyph-name="softhyphen" horiz-adv-x="607" 
d="M127 260h353v42h-353v-42z" />
    <glyph glyph-name="space" unicode=" " horiz-adv-x="240" 
 />
    <glyph glyph-name="sterling" unicode="&#xa3;" horiz-adv-x="646" 
d="M562 672c-55 35 -99 50 -163 50c-132.127 0 -201.658 -98.9031 -201.658 -234.802c0 -28.9224 3.14927 -59.5205 9.51465 -91.1976h-97.8567v-38h106.496c8.5861 -38.9805 12.9585 -76.627 12.9585 -111.553c0 -119.698 -51.3551 -207.447 -160.455 -207.447v-39h477v39
h-351.166c55.035 42.7095 81.4546 117.173 81.4546 206.632c0 35.4489 -4.14842 73.2525 -12.3086 112.368h226.02v38h-234.535c-6.22171 30.501 -9.28622 60.0881 -9.28622 87.9667c0 115.739 52.8178 202.033 151.821 202.033c56 0 94 -14 141 -43z" />
    <glyph glyph-name="summation" unicode="&#x2211;" horiz-adv-x="653" 
d="M497 383l-363.896 301h375.896v-89h43v127h-479v-38l362 -302l-365 -344v-38h482c-39 34 -5 4 -43 38l43 -38v128h-43v-90h-381.449z" />
    <glyph glyph-name="t" unicode="t" horiz-adv-x="523" 
d="M461 62c-39 -17 -68 -27 -110 -27c-75 0 -114 37 -114 115v344h250v39h-250v119l-47 -24v-95h-159v-39h159v-345c0 -103 56 -154 156 -154c52 0 86 13 131 32z" />
    <glyph glyph-name="tcaron" unicode="&#x165;" horiz-adv-x="515" 
d="M377.032 -3.30128c35.9371 4.10598 64.5444 15.3446 99.9681 30.3013l-16 35c-18.3878 -8.01522 -34.5527 -14.4744 -50.9053 -19.063l2.90526 4.06299h-62l-7.59369 -11.8691c-70.037 2.45676 -106.406 39.5457 -106.406 114.869v344h250v39h-250v119l-47 -24v-95h-159
v-39h159v-345c0 -93.1846 45.8355 -143.808 128.621 -152.61l-86.6207 -135.39h48z" />
    <glyph glyph-name="tcedilla" horiz-adv-x="523" 
d="M461 62c-39 -17 -68 -27 -110 -27c-75 0 -114 37 -114 115v344h250v39h-250v119l-48 -24v-95h-158v-39h158v-345c0 -87.4136 41.0543 -137.374 114.605 -150.493c-15.3257 -23.3549 -33.1497 -50.4572 -45.6053 -69.507l32 -30c16 9 30 11 48 11c34 0 56 -16 56 -48
c0 -36 -31 -48 -71 -48c-30 0 -53 4 -82 18l-17 -30c33 -16 60 -23 96 -23c67 0 118 23 118 83c0 56 -40 85 -97 85c-6.70974 0 -12.9979 -0.281086 -19.0367 -0.843259c11.85 17.3407 23.8732 34.873 33.4575 48.9899c46.8141 1.47939 79.354 14.0249 121.579 31.8534z" />
    <glyph glyph-name="tcommaaccent" unicode="&#x163;" horiz-adv-x="523" 
d="M266 -312l132 187h-62l-119 -187h49zM461 62c-39 -17 -68 -27 -110 -27c-75 0 -114 37 -114 115v316h250v38h-250v148l-47 -24v-124h-159v-38h159v-317c0 -103 56 -154 156 -154c52 0 86 13 131 32z" />
    <glyph glyph-name="thorn" unicode="&#xfe;" horiz-adv-x="751" 
d="M160 464.995l-5.68434e-14 333.005h-23h-25h-157v-39h157v-1020h-158v-38h158v-1h23h25h146v39l-146 -0.853801v339.15c68.3122 -54.2547 135.573 -82.2966 228 -82.2966c166 0 268 113 268 281c0 158 -104 262 -266 262c-90.9519 0 -173.331 -31.654 -230 -73.0055z
M160 122.747v297.252c50.3734 43.089 134.492 80.001 227 80.001c138 0 222 -91 222 -226c0.0507353 -2.45221 0.0760159 -4.89069 0.0760159 -7.31519c0 -139.485 -83.6757 -232.715 -217.869 -232.715c-1.3968 0 -2.79908 0.0101009 -4.20679 0.0303558
c-92.1878 0 -154.867 31.3533 -227 88.7467z" />
    <glyph glyph-name="three" unicode="3" horiz-adv-x="679" 
d="M127 614c38 38 106 70 180 70c111 0 192 -35 192 -139c0 -105 -100 -145 -208 -145v-32c125 0 247 -44 247 -170c0 -123 -110 -160 -229 -160c-72 0 -126 16 -194 49l-26 -30c71 -39 133 -62 218 -62c162 0 278 52 278 205c0 103.257 -63.6105 161.674 -163.724 186.169
c74.5248 24.5359 123.724 75.3316 123.724 160.831c0 128 -98 180 -234 180c-90 0 -169 -39 -215 -90z" />
    <glyph glyph-name="threequarters" unicode="&#xbe;" horiz-adv-x="1202" 
d="M73 358c44 -23 87 -34 136 -34c6.78054 -0.248827 13.4759 -0.377694 20.0701 -0.377694c99.4095 0 175.805 29.2873 173.93 118.378c0 63.434 -40.0665 88.5588 -98.1134 98.9191c47.5368 14.8159 79.1134 43.2659 79.1134 98.0809c0 82 -70 109 -161 109
c-55 0 -106 -20 -144 -54l24 -25c35 27 73 44 115 44c68 0 121 -17 121 -77c0 -71 -88 -75 -172 -80v-7v-24v-3c99 -5 190 -5 190 -81c0 -64.402 -56.5095 -82.1613 -130.451 -82.1613c-4.13092 0 -8.31624 0.0554297 -12.5492 0.161253c-42 0 -81 8 -121 27zM387 -82
l504 830h-47l-504 -830h47zM989 -91h24h151v35h-151v86h113v36h-113v281h-46l-266 -281l20 -36h246v-86h-152v-35h152h22zM967 290.371v-224.371h-211.987z" />
    <glyph glyph-name="threesuperior" unicode="&#xb3;" horiz-adv-x="572" 
d="M124 320c44 -22 88 -34 137 -34c5.45 -0.15 10.845 -0.2275 16.1766 -0.2275c101.301 0 179.723 27.9775 177.823 118.228c0 63.8228 -40.1608 88.8818 -98.194 99.1163c47.6567 14.6542 79.194 43.1029 79.194 97.8837c0 83 -70 110 -161 110c-55 0 -106 -20 -144 -54
l24 -25c34 27 73 43 115 43c67 0 120 -17 120 -76c0 -72 -87 -75 -172 -80v-8v-23v-4c100 -4 191 -5 191 -81c-0.947089 -64.402 -57.5067 -82.1613 -131.451 -82.1613c-4.13106 0 -8.31639 0.0554297 -12.5493 0.161253c-41 0 -80 9 -120 27z" />
    <glyph glyph-name="tilde" unicode="&#x2dc;" horiz-adv-x="653" 
d="M435 729c-16 -53 -36 -97 -83 -97c-43 0 -70 16 -101 45c-36 33 -65 54 -114 54c-73 0 -110 -49 -129 -123c36 -13 1 0 36 -13c15 56 41 97 94 97c38 0 60 -19 88 -45c38 -35 72 -54 124 -54c71 0 100 54 122 123z" />
    <glyph glyph-name="trademark" unicode="&#x2122;" horiz-adv-x="1221" 
d="M961.01 306h41.9903c-20.1105 113.959 -42.0551 227.919 -63.1992 341h100.199v33h-145c-31.9776 -114.947 -63.2083 -231.387 -94.9831 -346.739c-32.0056 115.896 -64.0112 231.692 -96.0169 346.739h-140v-34h95.1765
c-20.0588 -113.665 -40.1176 -227.289 -60.1765 -340h41.7324c16.0075 95.2793 31.5716 190.559 47.4795 285.838c29.3985 -103.966 59.8193 -208.039 88.7881 -312.838h8h30h9c28.6484 106.78 58.0504 212.807 86.2433 319.389
c17.019 -97.0371 33.6612 -194.92 50.7664 -292.389h-80.0097v-34h86zM640.732 306c-1.90407 -11.3333 -3.81442 -22.6667 -5.73237 -34h88v34h-82.2676zM301 647h41h137v-67h38v100h-175v1l-1.20588 -1h-227.794v-100h38v67h150zM342 680h-1.20588l-39.7941 -33v-341h-92
v-34h92h130v34h-89v341zM342 306h-41z" />
    <glyph glyph-name="turkishlira" horiz-adv-x="957" 
d="M842 352c0 -208 -123 -313 -336 -313h-214v302h323v40h-323v129h323v41h-323v132h158v39h-158h-22h-2h-24h-156v-39h156v-132h-115v-41h115v-129h-114v-40h114v-302h-156v-39h156h26h22h209c246 0 388 115 388 352h-47z" />
    <glyph glyph-name="two" unicode="2" horiz-adv-x="712" 
d="M130 553c59 84 120 132 219 132c112 0 188 -52 188 -163c0 -132 -94 -203 -195 -275c-89 -70 -179 -139 -268 -208v-39h9h522v39v119h-39v-119l-426.443 -1.42109e-14c82.6453 58.575 157.21 118.122 232.443 177c112 80 211 159 211 307c0 137 -92 204 -231 204
c-116 0 -198 -55 -256 -152c16.1362 -10.1428 17.3937 -10.9332 17.3937 -10.9948c0 -0.0720084 0 -0.259968 16.6063 -11.0052z" />
    <glyph glyph-name="twosuperior" unicode="&#xb2;" horiz-adv-x="632" 
d="M181 604c33 47 74 71 135 71c68 0 117 -27 117 -88c0 -55 -41 -77 -86 -110c-77 -50 -153 -99 -230 -148v-38h387v124h-37v-86h-280.704c64.6018 39.9312 126.238 78.9656 186.704 118c56 42 105 73 105 142c0 84 -67 123 -158 123c-78 0 -133 -24 -173 -87z" />
    <glyph glyph-name="u" unicode="u" horiz-adv-x="809" 
d="M601 159.665c-46.2119 -67.83 -122.992 -125.665 -206 -125.665c-112 0 -178 51 -178 159v340h-24h-24h-158v-39h158v-304c0 -133 83 -195 221 -195c84.1892 0 160.021 46.2878 211 109.997v-104.997h24h24h146v39h-146v494h-24h-24h-158v-39h158v-334.335z" />
    <glyph glyph-name="uacute" unicode="&#xfa;" horiz-adv-x="809" 
d="M341 651c63 53 132 113 195 166h-63c-64 -53 -132 -114 -196 -166h64zM601 159.665c-46.2119 -67.83 -122.992 -125.665 -206 -125.665c-112 0 -178 51 -178 159v340h-24h-24h-158v-39h158v-304c0 -133 83 -195 221 -195c84.1892 0 160.021 46.2878 211 109.997v-104.997
h24h24h146v39h-146v494h-24h-24h-158v-39h158v-334.335z" />
    <glyph glyph-name="ucircumflex" unicode="&#xfb;" horiz-adv-x="809" 
d="M626 652c-63 52 -132 113 -196 166h-9h-54h-10c-64 -53 -132 -114 -195 -166h63c55.0191 45.5627 112.994 96.2986 168.843 143.313c55.4039 -47.0146 113.998 -97.7505 168.157 -143.313h64zM601 159.665c-46.2119 -67.83 -122.992 -125.665 -206 -125.665
c-112 0 -178 51 -178 159v340h-24h-24h-158v-39h158v-304c0 -133 83 -195 221 -195c84.1892 0 160.021 46.2878 211 109.997v-104.997h24h24h146v39h-146v494h-24h-24h-158v-39h158v-334.335z" />
    <glyph glyph-name="udieresis" unicode="&#xfc;" horiz-adv-x="809" 
d="M442 668h62c0 -18 -13 -27 -32 -27c-18 0 -30 10 -30 27zM442 668h62c0 18 -13 28 -32 28c-18 0 -30 -10 -30 -28zM284 668h62c0 -18 -13 -27 -32 -27s-30 10 -30 27zM284 668h62c0 18 -13 28 -32 28c-18 0 -30 -10 -30 -28zM601 159.665
c-46.2119 -67.83 -122.992 -125.665 -206 -125.665c-112 0 -178 51 -178 159v340h-24h-24h-158v-39h158v-304c0 -133 83 -195 221 -195c84.1892 0 160.021 46.2878 211 109.997v-104.997h24h24h146v39h-146v494h-24h-24h-158v-39h158v-334.335z" />
    <glyph glyph-name="ugrave" unicode="&#xf9;" horiz-adv-x="809" 
d="M495 650c-63 53 -131 114 -195 166h-63c63 -53 132 -113 195 -166h63zM601 159.665c-46.2119 -67.83 -122.992 -125.665 -206 -125.665c-112 0 -178 51 -178 159v340h-24h-24h-158v-39h158v-304c0 -133 83 -195 221 -195c84.1892 0 160.021 46.2878 211 109.997v-104.997
h24h24h146v39h-146v494h-24h-24h-158v-39h158v-334.335z" />
    <glyph glyph-name="uhungarumlaut" unicode="&#x171;" horiz-adv-x="809" 
d="M465 602l132 187h-62l-119 -187h49zM302 602l132 187h-62l-119 -187h49zM601 159.665c-46.2119 -67.83 -122.992 -125.665 -206 -125.665c-112 0 -178 51 -178 159v340h-24h-24h-158v-39h158v-304c0 -133 83 -195 221 -195c84.1892 0 160.021 46.2878 211 109.997
v-104.997h24h24h146v39h-146v494h-24h-24h-158v-39h158v-334.335z" />
    <glyph glyph-name="umacron" unicode="&#x16b;" horiz-adv-x="809" 
d="M521 689h-266v-38h266v38zM601 159.665c-46.2119 -67.83 -122.992 -125.665 -206 -125.665c-112 0 -178 51 -178 159v340h-24h-24h-158v-39h158v-304c0 -133 83 -195 221 -195c84.1892 0 160.021 46.2878 211 109.997v-104.997h24h24h146v39h-146v494h-24h-24h-158v-39
h158v-334.335z" />
    <glyph glyph-name="underscore" unicode="_" horiz-adv-x="812" 
d="M2 -204h807v37h-807v-37z" />
    <glyph glyph-name="uogonek" unicode="&#x173;" horiz-adv-x="809" 
d="M622.415 0h2.585h24h146v39h-146v494h-24h-24h-158v-39h158v-334.335c-46.2119 -67.83 -122.992 -125.665 -206 -125.665c-112 0 -178 51 -178 159v340h-24h-24h-158v-39h158v-304c0 -133 83 -195 221 -195c84.1892 0 160.021 46.2878 211 109.997v-78.7587
c-57.9541 -22.6136 -105 -45.8837 -105 -107.239c0 -64 46 -101 113 -101c39 0 65 12 98 29c-20 28 -2 2 -22 30c-25 -13 -44 -22 -72 -22c-43 0 -73 23 -73 65c0 46.5656 37.991 62.3083 82.415 80z" />
    <glyph glyph-name="uring" unicode="&#x16f;" horiz-adv-x="809" 
d="M294 771c0 56 39 86 97 86c63 0 106 -28 106 -86c0 -57 -42 -86 -103 -86c-60 0 -100 29 -100 86zM251 771c0 -80 59 -122 143 -122c86 0 147 40 147 122c0 81 -62 122 -150 122c-83 0 -140 -42 -140 -122zM601 159.665c-46.2119 -67.83 -122.992 -125.665 -206 -125.665
c-112 0 -178 51 -178 159v340h-24h-24h-158v-39h158v-304c0 -133 83 -195 221 -195c84.1892 0 160.021 46.2878 211 109.997v-104.997h24h24h146v39h-146v494h-24h-24h-158v-39h158v-334.335z" />
    <glyph glyph-name="v" unicode="v" horiz-adv-x="850" 
d="M419.603 44.8031c-68.283 149.924 -136.566 299.257 -204.849 449.197h148.246v39h-166h-11h-40h-142v-39h159.988c76.1295 -164.869 152.93 -329.005 228.012 -494h6h42h6c79.7166 164.995 159.433 329.131 239.15 494h160.85v39h-142h-40h-9h-168v-39h149.195z" />
    <glyph glyph-name="w" unicode="w" horiz-adv-x="1232" 
d="M865 0h1c69.5203 164.995 138.181 329.131 208.373 494h153.627v39h-137h-45h-4h-174v-39h157.78c-60.9433 -146.482 -121.887 -292.384 -182.83 -438.825c-63.8263 159.432 -128.29 318.227 -191.95 477.825h-6h-42h-7
c-71.2287 -160.49 -143.27 -320.167 -213.926 -480.497c-58.6812 147.338 -116.811 294.124 -175.527 441.497h159.453v39h-175h-5h-44h-138v-39h153.781c66.7395 -164.869 133.479 -329.005 200.219 -494h1h44h1c73.5396 161.606 146.255 322.387 218.894 483.841
c65.3685 -161.454 130.737 -322.235 196.106 -483.841h1h45z" />
    <glyph glyph-name="x" unicode="x" horiz-adv-x="858" 
d="M401.491 278.333c-74.8872 -79.7263 -149.88 -159.444 -224.887 -239.333l-166.604 -2.84217e-14v-39h130h51h9h168v39h-131.849c64.5662 69.6552 129.013 139.179 193.52 208.693c63.9185 -69.5134 127.766 -139.038 191.602 -208.693h-133.272v-39h169h8h1h49h132v39
h-168.151c-73.871 79.6959 -147.571 159.22 -221.279 238.753c66.8654 72.0307 133.824 144.068 201.075 216.247h170.354v39h-134h-47h-1h-7h-167v-39h130.599c-57.9525 -62.042 -116.018 -123.98 -174.154 -185.899c-57.3845 61.9191 -114.788 123.857 -172.295 185.899
h129.849v39h-166h-9h-5h-40h-136v-39h171.931c66.3164 -71.9845 132.481 -143.829 198.56 -215.667z" />
    <glyph glyph-name="y" unicode="y" horiz-adv-x="853" 
d="M391.787 76.0804c-64.831 -112.3 -129.588 -224.616 -194.337 -337.08h-164.45v-39h142h37h14c152.517 264.998 305.034 529.087 457.55 794h160.45v39h-138h-43h-7h-171v-39h148.416c-72.5198 -125.251 -144.846 -250.319 -217.07 -375.385
c-65.1841 125.128 -131.046 250.257 -197.585 375.385h153.239v39h-174h-5h-46h-136v-39h157.094c74.9358 -138.935 148.508 -279.234 223.693 -417.92z" />
    <glyph glyph-name="yacute" unicode="&#xfd;" horiz-adv-x="853" 
d="M365 653c63 53 132 113 195 166h-63c-64 -53 -132 -114 -195 -166h63zM391.787 76.0804c-64.831 -112.3 -129.588 -224.616 -194.337 -337.08h-164.45v-39h142h37h14c152.517 264.998 305.034 529.087 457.55 794h160.45v39h-138h-43h-7h-171v-39h148.416
c-72.5198 -125.251 -144.846 -250.319 -217.07 -375.385c-65.1841 125.128 -131.046 250.257 -197.585 375.385h153.239v39h-174h-5h-46h-136v-39h157.094c74.9358 -138.935 148.508 -279.234 223.693 -417.92z" />
    <glyph glyph-name="ydieresis" unicode="&#xff;" horiz-adv-x="853" 
d="M466 670h62c0 -18 -13 -27 -32 -27c-18 0 -30 10 -30 27zM466 670h62c0 18 -13 28 -32 28c-18 0 -30 -10 -30 -28zM308 670h62c0 -18 -13 -27 -32 -27s-30 10 -30 27zM308 670h62c0 18 -13 28 -32 28c-18 0 -30 -10 -30 -28zM391.787 76.0804
c-64.831 -112.3 -129.588 -224.616 -194.337 -337.08h-164.45v-39h142h37h14c152.517 264.998 305.034 529.087 457.55 794h160.45v39h-138h-43h-7h-171v-39h148.416c-72.5198 -125.251 -144.846 -250.319 -217.07 -375.385
c-65.1841 125.128 -131.046 250.257 -197.585 375.385h153.239v39h-174h-5h-46h-136v-39h157.094c74.9358 -138.935 148.508 -279.234 223.693 -417.92z" />
    <glyph glyph-name="yen" unicode="&#xa5;" horiz-adv-x="1007" 
d="M496.112 367.092l-226.012 316.908h142.899v38h-170h-10h-41h-141v-38h168.422c73.1934 -101.333 146.883 -202.667 220.098 -304h-206.521v-42h236.837c0.721049 -1 1.44204 -2 2.16297 -3v-79h-239v-42h239v-175h-158v-38h158v-1h24h23h159v39l-159 -0.873626v175.874
h243v42h-243v79l-0.713178 1h0.713178c0.51854 0.666695 1.03711 1.33336 1.5557 2h241.444v42h-208.708c79.4427 101.735 159.463 202.892 239.533 304h163.175v38h-182h-179v-38h146.284c-81.7239 -105.431 -163.448 -211.465 -245.172 -316.908z" />
    <glyph glyph-name="z" unicode="z" horiz-adv-x="658" 
d="M96 514v-20v-100h39v100h358.026c-125.05 -139.339 -0.476993 -0.389854 -414.026 -455v-39h504v19v20v100h-40v-100h-402.954c143.768 158.809 416.954 455 416.954 455v39h-461v-19z" />
    <glyph glyph-name="zacute" unicode="&#x17a;" horiz-adv-x="658" 
d="M272 651c63 53 132 113 195 166h-63c-64 -52 -133 -113 -196 -166h64zM96 514v-20v-100h39v100h358.026c-125.05 -139.339 -0.476993 -0.389854 -414.026 -455v-39h504v19v20v100h-40v-100h-402.954c143.768 158.809 416.954 455 416.954 455v39h-461v-19z" />
    <glyph glyph-name="zcaron" unicode="&#x17e;" horiz-adv-x="663" 
d="M96 816c63 -53 132 -114 195 -166h10h54h9c64 52 133 113 196 166h-64c-54.1083 -45.5197 -112.642 -96.2028 -168 -143.18c-55.3576 46.9772 -113.892 97.6604 -168 143.18h-64zM99 514v-20v-100h40v100h357.962c-125.942 -139.339 -0.412923 -0.389854 -413.962 -455
v-39h503v19v20v100h-40v-100h-401.961c125.943 139.339 0.457589 0.389854 415.961 455v39h-461v-19z" />
    <glyph glyph-name="zdotaccent" unicode="&#x17c;" horiz-adv-x="658" 
d="M293 670h62c0 17 -13 27 -32 27c-18 0 -30 -10 -30 -27zM293 670h62c0 -18 -13 -28 -32 -28c-18 0 -30 10 -30 28zM96 514v-20v-100h39v100h358.026c-125.05 -139.339 -0.476993 -0.389854 -414.026 -455v-39h504v19v20v100h-40v-100h-402.954
c143.768 158.809 416.954 455 416.954 455v39h-461v-19z" />
    <glyph glyph-name="zero" unicode="0" horiz-adv-x="882" 
d="M100 360c0 -224 122 -365 343 -365c220 0 338 143 338 368c0 223 -118 364 -336 364c-223 0 -345 -141 -345 -367zM147 360c0 198 101 326 294 326c192 0 293 -127 293 -324s-99 -325 -289 -325c-193 0 -298 125 -298 323z" />
    </font>
</defs>
</svg>
