<?xml version="1.0" standalone="no"?>
<!DOCTYPE svg PUBLIC "-//W3C//DTD SVG 1.1//EN" "http://www.w3.org/Graphics/SVG/1.1/DTD/svg11.dtd" >
<svg xmlns="http://www.w3.org/2000/svg">
<metadata>
Created by FontPrep 20130207 at Thu Feb 19 11:20:02 2015
 By Simon Egli
</metadata>
<defs>
<font id="86974b03b9b66bd8b1cbc88179900b51" horiz-adv-x='1024' >
  <font-face 
    font-family="SeanSlab-NarrowBlack"
    font-weight="400"
    font-stretch="normal"
    units-per-em="2048"
    panose-1="0 0 0 0 0 0 0 0 0 0"
    ascent="1434"
    descent="-614"
    x-height="1092"
    cap-height="1479"
    bbox="0 -625.01 4112.04 2224"
    underline-thickness="0"
    underline-position="0"
    unicode-range="U+0020-FB02"
  />
<missing-glyph horiz-adv-x="1024" 
d="M205 -512h614v2048h-614v-2048zM102 -614v2252h820v-2252h-820z" />
    <glyph glyph-name=".notdef" horiz-adv-x="1024" 
d="M205 -512h614v2048h-614v-2048zM102 -614v2252h820v-2252h-820z" />
    <glyph glyph-name=".null" horiz-adv-x="0" 
 />
    <glyph glyph-name="nonmarkingreturn" horiz-adv-x="681" 
 />
    <glyph glyph-name="space" unicode=" " horiz-adv-x="491" 
 />
    <glyph glyph-name="exclam" unicode="!" horiz-adv-x="425" 
d="M211 -20q-82 0 -134 40t-52 110q0 71 53 112t136 41t135 -39t52 -113q0 -151 -190 -151zM367 469h-312v1010h312v-1010z" />
    <glyph glyph-name="quotedbl" unicode="&#x22;" horiz-adv-x="800" 
d="M774 1348h-297v385h297v-385zM338 1348h-311v385h311v-385z" />
    <glyph glyph-name="numbersign" unicode="#" horiz-adv-x="1378" 
d="M518 674l260 2l66 198h-260zM1100 440h-86l-117 -360h-311l116 360h-262l-112 -346h-297l110 346h-104l80 234h98l64 200h-95l76 234h92l117 371h311l-121 -371h261l120 371h312l-121 -371h90l-78 -234h-88l-63 -198h86z" />
    <glyph glyph-name="dollar" unicode="$" horiz-adv-x="1148" 
d="M674 -82h-312q0 111 -2 178q-158 18 -325 90v277h239v-94q145 -51 266 -51t197 26q76 27 76 101t-81 114q-63 33 -156 62t-159 53q-292 106 -360 246q-31 63 -30 143q0 139 97 223t263 111v186h311v-182q147 -18 326 -98v-277h-240v113q-111 39 -237 39q-209 0 -209 -115
q0 -47 26 -69q26 -24 44 -36t50 -24t54 -22t136 -45q113 -36 227 -96t153 -98q98 -95 96 -218q0 -160 -122 -248t-330 -111q2 -67 2 -178z" />
    <glyph glyph-name="percent" unicode="%" horiz-adv-x="2322" 
d="M1815 621q-93 0 -139 -63q-46 -64 -46 -172t51 -174t150 -67q174 0 174 240q0 109 -47 172t-139 64h-4zM1352 386q0 214 129 335t346 121t344 -119t127 -333t-130 -340t-348 -126t-343 124t-125 338zM303 994q0 -108 51 -174t152 -66q174 0 174 239q0 106 -47 171
t-139 65h-5q-92 0 -139 -63q-47 -64 -47 -172zM860 -68h-282l895 1512h282zM25 994q0 214 129 335t347 121t344 -118t126 -332t-129 -342q-129 -126 -348 -126t-344 124t-125 338z" />
    <glyph glyph-name="ampersand" unicode="&#x26;" horiz-adv-x="1593" 
d="M588 -10q-256 0 -410 110t-153 314q0 135 79 219q80 84 236 162q-84 77 -128 153t-44 174q0 174 120 270t314 97q194 0 319 -94q124 -94 123 -269q-2 -127 -74 -212t-204 -162q158 -145 264 -248q47 86 88 192l260 -53q-61 -178 -157 -319q190 -180 348 -324h-383
q-47 43 -146 137q-195 -147 -452 -147zM336 414q0 -191 274 -191q136 0 254 86q-242 233 -336 322q-151 -71 -179 -142q-13 -33 -13 -75zM469 1122q0 -111 109 -209q76 41 116 89t39 118q0 70 -39 104t-101 34t-93 -39q-31 -38 -31 -97z" />
    <glyph glyph-name="quotesingle" unicode="'" horiz-adv-x="364" 
d="M338 1348h-311v385h311v-385z" />
    <glyph glyph-name="parenleft" unicode="(" horiz-adv-x="806" 
d="M25 668q0 384 138 668t433 573l184 -150q-240 -243 -345 -497t-105 -593t106 -593t346 -492l-182 -164q-299 295 -437 580t-138 668z" />
    <glyph glyph-name="parenright" unicode=")" horiz-adv-x="835" 
d="M506 665q0 339 -112 591t-361 495l184 164q307 -287 449 -571t143 -670q1 -507 -271 -896q-124 -177 -329 -384l-184 149q249 267 365 525t116 597z" />
    <glyph glyph-name="asterisk" unicode="*" horiz-adv-x="763" 
d="M254 1188l-16 147h292q-10 -127 -10 -147q47 25 135 55l84 -227q-125 -31 -141 -33q33 -37 117 -106l-215 -168q-67 73 -88 105q-21 31 -25 36q-53 -72 -117 -137l-217 168q98 76 121 102q-121 31 -149 37l86 225q74 -29 143 -57z" />
    <glyph glyph-name="plus" unicode="+" horiz-adv-x="1247" 
d="M1221 516h-447v-438h-291v438h-456v256h456v422h291v-422h447v-256z" />
    <glyph glyph-name="comma" unicode="," horiz-adv-x="624" 
d="M598 258l-270 -461h-301l186 461h385z" />
    <glyph glyph-name="hyphen" unicode="-" horiz-adv-x="665" 
d="M639 455h-612v254h612v-254z" />
    <glyph glyph-name="period" unicode="." horiz-adv-x="419" 
d="M393 131q0 -149 -186 -149q-84 0 -132 38t-48 110q0 73 49 113t132 40t134 -39t51 -113z" />
    <glyph glyph-name="slash" unicode="/" horiz-adv-x="1255" 
d="M25 -23l895 1620h311q-762 -1378 -895 -1620h-311z" />
    <glyph glyph-name="zero" unicode="0" 
d="M322 738q0 -236 108 -370t317 -134q210 0 307 136t97 372q-1 236 -107 370q-106 133 -315 133t-308 -135t-99 -372zM25 738q0 351 192 551q193 200 532 200t520 -199t181 -549t-186 -551q-186 -200 -526 -200t-526 198q-187 198 -187 550z" />
    <glyph glyph-name="one" unicode="1" horiz-adv-x="954" 
d="M250 0v233h180v922l-262 -194l-143 202l405 316h311v-1246h189v-233h-680z" />
    <glyph glyph-name="two" unicode="2" horiz-adv-x="1181" 
d="M918 233v226h241v-459h-1130l2 233q71 55 223 173t264 207q112 88 174 156q62 69 84 129t23 130q0 217 -234 217q-98 0 -165 -46t-158 -155l-207 136q180 309 545 309q238 0 372 -114t133 -333q0 -219 -114 -363q-99 -126 -239 -233q-58 -44 -141 -111t-132 -102h459z
" />
    <glyph glyph-name="three" unicode="3" horiz-adv-x="1099" 
d="M469 -10q-236 0 -444 135l170 184q154 -76 288 -76q293 0 293 205q0 124 -94 184t-238 60v199q115 0 189 46t74 142q0 176 -240 176q-127 0 -242 -100l-98 69q0 2 -98 70q75 94 197 150t266 55q236 0 374 -101t138 -295t-134 -298q203 -109 203 -344q0 -461 -604 -461z
" />
    <glyph glyph-name="four" unicode="4" horiz-adv-x="1251" 
d="M662 717v330q-117 -136 -119 -136l-168 -194h287zM1149 0h-678v233h191v228h-510l-127 256q334 375 632 708h312v-708h258v-256h-258v-228h180v-233z" />
    <glyph glyph-name="five" unicode="5" horiz-adv-x="1083" 
d="M510 991q246 0 398 -133t151 -364q0 -232 -173 -368q-172 -136 -418 -136t-443 112l157 195q132 -66 270 -66t217 73t79 191q0 119 -70 185t-189 65q-72 0 -114 -26l-297 80v680h909v-232l-612 -2v-268q63 14 135 14z" />
    <glyph glyph-name="six" unicode="6" horiz-adv-x="1212" 
d="M322 532q0 -136 84 -208t216 -72q254 0 255 201q0 113 -69 171t-192 58q-195 0 -294 -147v-3zM616 -25q-268 1 -430 143t-161 404q0 419 289 647q142 113 316 188t412 134l78 -244q-479 -127 -669 -354q88 33 190 33q250 0 398 -118q149 -118 149 -348t-152 -358
q-152 -127 -420 -127z" />
    <glyph glyph-name="seven" unicode="7" horiz-adv-x="1163" 
d="M72 1479h1067v-232l-781 -1247h-333l796 1247h-510v-227h-239v459z" />
    <glyph glyph-name="eight" unicode="8" horiz-adv-x="1167" 
d="M336 401q0 -172 247 -172t248 172q0 70 -36 119q-37 49 -81 75t-128 60q-66 -27 -102 -44q-99 -47 -131 -116q-17 -40 -17 -94zM375 1096q0 -115 127 -168q29 -12 86 -35q104 37 153 78t50 121q0 158 -222 157q-194 1 -194 -153zM63 1096q1 201 141 297t382 96
q516 0 516 -397q0 -119 -60 -190t-182 -128q137 -68 209 -152t72 -221q0 -412 -570 -411q-547 0 -546 411q0 139 70 222q71 82 210 149q-121 59 -181 131t-61 193z" />
    <glyph glyph-name="nine" unicode="9" horiz-adv-x="1210" 
d="M600 797q193 0 289 112v37q0 137 -83 209q-82 72 -214 72q-263 0 -262 -201q0 -113 72 -171t198 -58zM571 553q-252 0 -399 118q-147 117 -147 349q-1 232 151 358t419 125q267 0 429 -142t162 -405q0 -751 -987 -976l-43 120q-2 6 -43 121q249 63 417 151t261 224
q-94 -43 -220 -43z" />
    <glyph glyph-name="colon" unicode=":" horiz-adv-x="417" 
d="M391 131q0 -151 -186 -151q-84 0 -131 38t-47 112q0 73 49 113t131 40t133 -39t51 -113zM391 770q0 -149 -186 -149q-84 1 -131 39t-47 110t48 112t132 40t134 -39t50 -113z" />
    <glyph glyph-name="semicolon" unicode=";" horiz-adv-x="630" 
d="M338 -203h-311l182 371h395l-133 -184v-2q-6 -9 -133 -185zM584 770q0 -149 -187 -149q-84 1 -131 39t-47 110t48 112t132 40q85 0 135 -39t50 -113z" />
    <glyph glyph-name="less" unicode="&#x3c;" horiz-adv-x="1349" 
d="M330 616q546 -224 995 -413v-258q-434 180 -1298 540v258l1278 553v-258z" />
    <glyph glyph-name="equal" unicode="=" horiz-adv-x="1374" 
d="M1348 324h-1321v243h1321v-243zM1348 778h-1321v244h1321v-244z" />
    <glyph glyph-name="greater" unicode="&#x3e;" horiz-adv-x="1349" 
d="M25 1296l1298 -540v-258l-1278 -553v258l975 422q-574 242 -995 413v258z" />
    <glyph glyph-name="question" unicode="?" horiz-adv-x="811" 
d="M236 -68q-82 0 -133 39q-50 39 -50 110t51 112q50 41 134 41t133 -40q49 -38 49 -112q0 -150 -184 -150zM391 453h-311v329h131q129 0 204 76t75 198t-67 183t-187 61q-57 0 -107 -18l-98 231q92 33 233 33q230 0 376 -131t146 -339t-106 -341t-289 -178v-104z" />
    <glyph glyph-name="at" unicode="@" horiz-adv-x="1728" 
d="M850 614q-148 0 -146 -170q0 -84 47 -138q46 -54 134 -54t131 94q-6 43 -6 90q0 178 -160 178zM889 -289q-397 1 -631 183t-233 537q0 355 233 539q234 184 622 183q388 0 606 -181t218 -521q0 -190 -93 -298t-270 -108q-139 0 -223 80q-104 -105 -292 -105t-297 109
t-109 311t117 304q117 104 323 104t319 -106t113 -290q0 -185 74 -186q39 0 49 43t10 129q0 227 -147 350t-402 123q-255 1 -411 -119t-156 -358t161 -364t433 -125q141 0 281 59l110 -199q-180 -94 -405 -94z" />
    <glyph glyph-name="A" unicode="A" horiz-adv-x="1880" 
d="M776 233v-233h-749v233h247q61 139 258 573t299 673h285q90 -236 264 -667t232 -579h241v-233h-747v233h182q-52 135 -67 189h-537q-39 -100 -76 -189h168zM1130 668q-53 152 -163 454q-123 -303 -183 -454h346z" />
    <glyph glyph-name="B" unicode="B" horiz-adv-x="1386" 
d="M780 233q269 0 269 232q0 119 -78 183t-211 63h-230v-478h250zM778 1247h-248v-303h230q84 0 137 34t53 108t-46 118q-46 43 -126 43zM27 0v233h180v1014h-178v232h749q221 -1 351 -101t131 -295q0 -152 -134 -247q234 -128 234 -366t-156 -354t-424 -116h-753z" />
    <glyph glyph-name="C" unicode="C" horiz-adv-x="1415" 
d="M782 -10q-354 0 -555 186t-201 545t217 563q216 204 595 205q258 0 538 -150v-297h-241v146q-143 59 -312 59q-235 0 -361 -140q-126 -139 -126 -379t119 -368t342 -129q127 0 225 34t209 112l80 -92l78 -95q-135 -106 -275 -153t-332 -47z" />
    <glyph glyph-name="D" unicode="D" horiz-adv-x="1601" 
d="M750 1247h-234v-1014h283q469 0 469 482q0 532 -518 532zM27 0v233h178v1014h-178v232h737q395 -1 604 -189t209 -559t-207 -551t-596 -180h-747z" />
    <glyph glyph-name="E" unicode="E" horiz-adv-x="1288" 
d="M27 0v233h180v1014h-180v232h1165v-361h-240v129h-434v-366h543v-234h-543v-414h504v129h242v-362h-1237z" />
    <glyph glyph-name="F" unicode="F" horiz-adv-x="1228" 
d="M27 0v231h182v1016h-182v232h1175v-363h-239v131h-443v-366h529v-234h-529v-416h185v-231h-678z" />
    <glyph glyph-name="G" unicode="G" horiz-adv-x="1554" 
d="M870 -10q-393 0 -618 190t-225 555t218 559q219 194 583 195q364 0 663 -166v-287h-240v129q-179 80 -413 80t-367 -125q-133 -126 -133 -370t138 -380t380 -136t389 51v243h-262v234h545v-600q-186 -92 -330 -132t-328 -40z" />
    <glyph glyph-name="H" unicode="H" horiz-adv-x="1792" 
d="M27 0v233h184v1014h-184v232h678v-232h-183v-387h750v387h-182v232h677v-232h-186v-1014h186v-233h-677v233h182v394h-750v-394h183v-233h-678z" />
    <glyph glyph-name="I" unicode="I" horiz-adv-x="731" 
d="M27 0v233h180v1014h-180v232h678v-232h-187v-1014h187v-233h-678z" />
    <glyph glyph-name="J" unicode="J" horiz-adv-x="1062" 
d="M332 -10q-141 0 -305 102l141 187q102 -53 164 -54q209 0 209 281v741h-183v232h678v-232h-186v-741q0 -256 -134 -386t-384 -130z" />
    <glyph glyph-name="K" unicode="K" horiz-adv-x="1554" 
d="M1530 233v-233h-789v233h99q-54 47 -160 143t-160 142v-285h148v-233h-641v233h184v1014h-184v232h616v-232h-123v-221q45 37 131 111t131 110h-65v232h753v-232h-296q-350 -295 -568 -469q519 -441 639 -545h285z" />
    <glyph glyph-name="L" unicode="L" horiz-adv-x="1275" 
d="M27 0v233h186v1014h-186v232h678v-232h-183v-1014h490v129h239v-362h-1224z" />
    <glyph glyph-name="M" unicode="M" horiz-adv-x="2154" 
d="M705 233v-233h-678v233h200l84 1014h-172v232h482q303 -758 454 -1135q150 377 449 1135h487v-232h-170q8 -84 101 -1014h186v-233h-678v233h184q-18 223 -51 670q-65 -173 -352 -903h-307q-315 793 -355 893q-35 -422 -53 -660h189z" />
    <glyph glyph-name="N" unicode="N" horiz-adv-x="1865" 
d="M705 233v-233h-678v233h184v1014h-182v232h520q270 -358 815 -1076v844h-182v232h659v-232h-166v-1247h-358q-733 965 -797 1049v-816h185z" />
    <glyph glyph-name="O" unicode="O" horiz-adv-x="1574" 
d="M336 737q0 -233 120 -368t338 -135t332 138t113 370q0 232 -123 368t-340 135q-217 0 -329 -137q-111 -138 -111 -371zM27 738q0 347 209 549t559 202t553 -201q202 -201 202 -547q0 -347 -208 -549t-558 -202t-554 200q-203 201 -203 548z" />
    <glyph glyph-name="P" unicode="P" horiz-adv-x="1306" 
d="M27 0v233h182v1014h-182v232h632q277 0 449 -129q172 -130 172 -364t-165 -355t-435 -125q-76 0 -162 20v-293h187v-233h-678zM720 733q108 -1 180 61t71 187q1 125 -97 196t-258 70h-98v-485q94 -29 202 -29z" />
    <glyph glyph-name="Q" unicode="Q" horiz-adv-x="1667" 
d="M1243 737q0 231 -119 365t-336 133q-216 1 -334 -135t-118 -366t121 -365t339 -137t332 136t115 369zM27 749q0 340 210 545t562 205t554 -202t201 -547q0 -276 -131 -464t-364 -259q113 -117 250 -165t331 -48v-244q-319 0 -533 92t-388 330q-319 20 -505 218t-187 539z
" />
    <glyph glyph-name="R" unicode="R" horiz-adv-x="1675" 
d="M522 606v-373h183v-233h-678v233h184v1014h-184v232h741q256 1 403 -101t148 -315q0 -307 -289 -410q133 -176 311 -420h308v-233h-488l-448 606h-191zM713 1247h-191v-407h230q256 0 256 198q0 209 -295 209z" />
    <glyph glyph-name="S" unicode="S" horiz-adv-x="1153" 
d="M523 -10q-261 0 -484 119h-2v325h239v-137q138 -63 258 -63t202 44q82 46 81 111q0 65 -52 113t-96 69q-44 20 -114 48t-146 60t-167 86q-92 54 -126 94q-87 101 -85 233q0 194 147 290q148 96 376 96t468 -124v-303h-240v159q-127 47 -224 47t-157 -37q-59 -38 -59 -112
v-4q0 -81 94 -138t226 -106q298 -124 383 -224t83 -237q0 -213 -172 -311t-433 -98z" />
    <glyph glyph-name="T" unicode="T" horiz-adv-x="1353" 
d="M334 0v231h186v1002h-256v-119h-237v365h1300v-365h-240v119h-256v-1002h183v-231h-680z" />
    <glyph glyph-name="U" unicode="U" horiz-adv-x="1779" 
d="M1556 596q0 -606 -667 -606t-668 579v678h-194v232h678v-232h-201v-633q0 -188 100 -277t301 -89q369 0 369 319v680h-197v232h676v-232h-197v-651z" />
    <glyph glyph-name="V" unicode="V" horiz-adv-x="1847" 
d="M27 1247v232h778v-232h-223q232 -591 348 -891q113 297 342 891h-230v232h781v-232h-238l-491 -1247h-330l-500 1247h-237z" />
    <glyph glyph-name="W" unicode="W" horiz-adv-x="2232" 
d="M27 1247v232h688v-232h-195q127 -528 193 -792q154 594 266 1024h301q115 -479 236 -1018l196 786h-186v232h682v-232h-209l-336 -1247h-291q-43 166 -248 995q-92 -332 -280 -995h-291q-104 416 -322 1247h-204z" />
    <glyph glyph-name="X" unicode="X" horiz-adv-x="1613" 
d="M1589 233v-233h-688v233h115q-135 197 -203 293q-166 -236 -205 -293h107v-233h-688v233h215l393 551q-289 416 -322 463h-213v232h668v-232h-106q106 -148 151 -215q102 143 156 215h-105v232h668v-232h-217q-50 -74 -326 -465q205 -291 389 -549h211z" />
    <glyph glyph-name="Y" unicode="Y" horiz-adv-x="1568" 
d="M942 231h168v-231h-676v231h168v469q-258 424 -336 547h-239v232h698v-232h-152q117 -203 201 -338l215 338h-145v232h698v-232h-244q-141 -220 -356 -547v-469z" />
    <glyph glyph-name="Z" unicode="Z" horiz-adv-x="1411" 
d="M1145 362h241v-362h-1359v231q797 879 921 1016h-610v-129h-240v361h1256v-232q-920 -1001 -934 -1016l725 2v129z" />
    <glyph glyph-name="bracketleft" unicode="[" horiz-adv-x="512" 
d="M487 -231h-460v1806h460v-254h-151v-1294h151v-258z" />
    <glyph glyph-name="backslash" unicode="\" horiz-adv-x="1198" 
d="M1174 -139h-326l-823 1868h325z" />
    <glyph glyph-name="bracketright" unicode="]" horiz-adv-x="514" 
d="M487 -231h-462l2 129v129h149v1294h-149v254h460v-1806z" />
    <glyph glyph-name="asciicircum" unicode="^" horiz-adv-x="1095" 
d="M760 928q-143 233 -213 352q-98 -160 -211 -352h-309q170 287 364 612h311q166 -283 369 -612h-311z" />
    <glyph glyph-name="underscore" unicode="_" horiz-adv-x="1488" 
d="M1460 -373h-1431v234h1431v-234z" />
    <glyph glyph-name="grave" unicode="`" horiz-adv-x="770" 
d="M399 1550q35 -27 172 -169t174 -171h-372q-39 29 -175 170t-171 170h372z" />
    <glyph glyph-name="a" unicode="a" horiz-adv-x="1265" 
d="M762 0v94q-141 -104 -328 -104q-188 0 -298 87t-110 258t116 242t343 97q127 13 277 28q-10 162 -230 162q-102 0 -196 -47v-125h-242v254q195 152 481 152q231 0 363 -79t133 -269v-517h168v-233h-477zM496 219q82 0 140 33t126 98v150q-145 -20 -289 -36t-143 -120
q0 -125 166 -125z" />
    <glyph glyph-name="b" unicode="b" horiz-adv-x="1425" 
d="M807 233h4q129 0 203 79t73 212v11q0 147 -73 236q-74 89 -216 89t-280 -92v-461q115 -74 289 -74zM27 233h180v1174h-180v231h491v-616q154 82 318 82q252 0 408 -152t155 -405v-4q0 -253 -158 -403t-414 -150q-172 0 -309 65v-55h-151v-2l-340 2v233z" />
    <glyph glyph-name="c" unicode="c" horiz-adv-x="1105" 
d="M642 -10q-290 0 -453 141t-163 417t167 414q166 140 460 140q215 0 414 -141q0 -145 2 -146v-145h-242v151q-90 39 -184 39q-151 0 -229 -80t-78 -234t83 -234q83 -81 220 -81t252 105l92 -84q4 -4 92 -84q-143 -178 -433 -178z" />
    <glyph glyph-name="d" unicode="d" horiz-adv-x="1439" 
d="M641 -6q-276 0 -445 143t-169 403t166 408q166 150 442 150q145 0 276 -51v360h-176v231h502v-1405h178v-233h-504v57q-109 -63 -270 -63zM659 227q150 0 252 95v477q-99 65 -247 65t-238 -83t-90 -233t86 -235q86 -86 237 -86z" />
    <glyph glyph-name="e" unicode="e" horiz-adv-x="1161" 
d="M588 864q-197 0 -240 -188h488q-27 188 -248 188zM647 -10q-293 0 -457 147t-164 421t152 409t414 135t402 -129t141 -375v-139h-787q47 -229 299 -230q127 0 248 90l178 -180q-101 -77 -199 -113t-227 -36z" />
    <glyph glyph-name="f" unicode="f" horiz-adv-x="1005" 
d="M74 233h184v646h-231v233h231v127q0 190 121 298t321 108q123 0 279 -74v-273h-240v121q-12 2 -39 2q-131 0 -131 -186v-123h340v-233h-340v-646h185v-233l-340 -2l-340 2v233z" />
    <glyph glyph-name="g" unicode="g" horiz-adv-x="1292" 
d="M336 -209q0 -182 303 -182q248 0 310 73q28 32 28 82q0 98 -107 132q-80 24 -227 32l-39 2q-111 6 -192 27q-76 -63 -76 -166zM119 676q0 202 146 314t354 112t339 -72q115 61 175 88l135 -223q-29 -14 -135 -59q25 -61 24 -142q1 -199 -149 -304t-385 -105
q-94 0 -174 18q-39 -97 60 -127q59 -16 172 -24q236 -16 392 -81q185 -76 187 -288v-10q0 -145 -92 -237t-226 -126q-135 -35 -317 -35q-266 1 -432 99t-166 307q0 180 157 287q-57 62 -57 170t92 184q-100 100 -100 254zM642 870q-96 0 -154 -48t-58 -133t60 -128t154 -43
t149 43q53 43 53 127t-54 133t-150 49z" />
    <glyph glyph-name="h" unicode="h" horiz-adv-x="1509" 
d="M840 233h151v396q0 236 -196 235q-160 0 -275 -137v-494h152v-233l-234 -2h-71l-340 2v233h182v1174h-182v231q121 0 182 -2v2h311v-649q150 109 354 109t316 -115q113 -115 113 -332v-418h180v-233l-338 -2l-305 2v233z" />
    <glyph glyph-name="i" unicode="i" horiz-adv-x="710" 
d="M27 0v233h178v627h-178v232h503v-859h154v-233h-657zM363 1524q83 0 135 -39t51 -114t-51 -111t-135 -37q-85 0 -133 38q-48 39 -48 111t49 112t132 40z" />
    <glyph glyph-name="j" unicode="j" horiz-adv-x="624" 
d="M72 860v232h186v2h311v-1338q0 -182 -131 -282t-338 -99q-37 0 -73 4l43 222q25 -4 43 -4q71 0 109 43t38 116l-2 1104h-186zM600 1371q0 -75 -50 -111t-135 -37q-85 0 -133 38q-48 39 -48 111t48 112q50 40 133 40t134 -39t51 -114z" />
    <glyph glyph-name="k" unicode="k" horiz-adv-x="1462" 
d="M1047 0h-50q-80 47 -475 350v-117h70v-233l-162 -2h-65l-338 2v233h184v1174h-182v231h493v-882q79 62 137 104h-67v232h782v-232h-313q-369 -266 -443 -307q74 -41 455 -320h363v-233l-389 -2v2z" />
    <glyph glyph-name="l" unicode="l" horiz-adv-x="731" 
d="M27 233h182v1174h-178v231h487v-1405h187v-233l-340 -2l-338 2v233z" />
    <glyph glyph-name="m" unicode="m" horiz-adv-x="2125" 
d="M27 0v233h182v627h-182v232h493v-97q125 102 303 103q250 0 336 -154q143 154 359 154t307 -110q90 -110 90 -337v-418h186v-233h-616v233h119v396q0 119 -36 175t-134 56q-131 0 -220 -121q4 -57 5 -88v-418h120v-233h-553v233h121v396q0 119 -37 175t-135 56
q-131 0 -215 -119v-508h123v-233h-616z" />
    <glyph glyph-name="n" unicode="n" horiz-adv-x="1509" 
d="M27 0v233h182v627h-182v232h493v-111q143 117 353 117t319 -115t108 -332v-418h183v-233h-647v233h155v396q0 231 -213 231q-154 0 -258 -131v-496h152v-233h-645z" />
    <glyph glyph-name="o" unicode="o" horiz-adv-x="1267" 
d="M624 864q-146 0 -221 -87t-75 -235t80 -230q80 -83 226 -84t222 83q76 83 76 231t-81 235t-227 87zM27 545q0 264 162 410q163 147 446 147t445 -148t161 -411q0 -265 -165 -409q-164 -144 -446 -144t-443 145q-160 146 -160 410z" />
    <glyph glyph-name="p" unicode="p" horiz-adv-x="1427" 
d="M27 -614v233h184v1241h-182v232h491v-74q152 88 324 88q262 0 410 -155t148 -407t-151 -404q-152 -151 -413 -150q-180 0 -318 67v-438h164v-233h-657zM811 223h4q133 0 205 80t72 221v13q0 147 -71 239t-219 92t-282 -98v-467q133 -80 291 -80z" />
    <glyph glyph-name="q" unicode="q" horiz-adv-x="1419" 
d="M638 223q154 0 271 78v502q-137 63 -281 63t-217 -85t-73 -231t73 -237q73 -90 227 -90zM735 -614v233h174v440q-139 -70 -297 -69q-272 0 -429 148t-156 403v4q-1 257 151 407t422 150q156 0 309 -84v74h484v-232h-158v-1241h158v-233h-658z" />
    <glyph glyph-name="r" unicode="r" horiz-adv-x="915" 
d="M29 0v233h182v627h-184v232h495v-93q152 102 369 103v-242q-129 0 -215 -16t-154 -70v-541h164v-233h-657z" />
    <glyph glyph-name="s" unicode="s" horiz-adv-x="978" 
d="M469 -10q-180 0 -440 106h-2v299h239v-121q117 -43 210 -43t136 25t43 66q0 57 -97 88q-28 8 -43 13t-49 13q-229 54 -330 131q-101 78 -101 226q0 309 428 309q94 0 203 -28t180 -64v-279h-240v107q-162 52 -252 7q-37 -19 -37 -58q1 -39 51 -64t212 -67t233 -83
q139 -80 139 -239q0 -344 -483 -344z" />
    <glyph glyph-name="t" unicode="t" horiz-adv-x="868" 
d="M195 350v508h-168v232h168v104l309 149v-253h289v-232h-289v-496q0 -131 106 -131q70 0 131 31l52 -100l49 -103q-137 -72 -269 -71q-182 0 -280 91t-98 271z" />
    <glyph glyph-name="u" unicode="u" 
d="M977 0v96q-129 -106 -283 -106q-238 0 -362 114t-123 336v420h-182v232h493v-639q0 -223 209 -224q137 0 248 142v489h-184v232h495v-859h162v-233h-473z" />
    <glyph glyph-name="v" unicode="v" horiz-adv-x="1546" 
d="M27 860v232h673v-232h-129q39 -104 195 -508l209 508h-129v232h676v-232h-238q-119 -287 -360 -860h-322l-344 860h-231z" />
    <glyph glyph-name="w" unicode="w" horiz-adv-x="2191" 
d="M27 860v232h678v-232h-181l81 -234q54 -157 81 -237q180 467 270 703h304q38 -115 120 -344t121 -345q29 76 83 229t81 228h-176v232h678v-232h-209q-106 -287 -316 -860h-288q-168 475 -252 715q-158 -412 -279 -715h-288l-302 860h-206z" />
    <glyph glyph-name="x" unicode="x" horiz-adv-x="1460" 
d="M47 860v232h647v-232h-39q49 -61 74 -90q55 66 76 90h-39v232h647v-232h-291q-57 -72 -231 -291q92 -111 272 -336h273v-233h-658v233h58q-70 90 -105 134q-37 -43 -106 -134h59v-233h-657v233h262l278 340q-97 122 -227 287h-293z" />
    <glyph glyph-name="y" unicode="y" horiz-adv-x="1519" 
d="M37 860v232h676v-232h-144q29 -66 85 -198t85 -197l99 198q66 132 98 197h-119v232h678v-232h-242l-737 -1474h-471v231h170l100 2q45 90 137 271q91 181 136 272l-330 698h-221z" />
    <glyph glyph-name="z" unicode="z" horiz-adv-x="1099" 
d="M305 731h-239v361h987v-234q-436 -440 -506 -509t-113 -116h400v129h241v-362h-1048v233q403 418 478 493q76 76 128 132l-328 2v-129z" />
    <glyph glyph-name="braceleft" unicode="{" horiz-adv-x="534" 
d="M510 -219q-178 0 -282 98q-103 98 -103 271v323q0 104 -100 105v243q100 0 100 97v335q0 173 103 269t282 96v-234q-102 0 -102 -131v-301q0 -156 -82 -254q82 -94 82 -249v-312q0 -125 102 -125v-231z" />
    <glyph glyph-name="bar" unicode="|" horiz-adv-x="362" 
d="M336 -614h-309v2252h309v-2252z" />
    <glyph glyph-name="braceright" unicode="}" horiz-adv-x="534" 
d="M25 -219v231q102 0 102 125v312q0 156 82 249q-82 98 -82 254v301q0 131 -102 131v234q178 0 281 -96t104 -269v-335q0 -96 100 -97v-243q-100 0 -100 -105v-323q0 -172 -104 -270t-281 -99z" />
    <glyph glyph-name="asciitilde" unicode="~" horiz-adv-x="1300" 
d="M399 567q-92 0 -141 -155q-145 55 -231 94q49 154 139 228t244 75q100 0 168 -28t159 -97q82 -53 168 -53q45 0 73 38t56 111l242 -94q-60 -152 -148 -224t-214 -70q-126 1 -197 29q-72 28 -168 97q-76 49 -150 49z" />
    <glyph glyph-name="exclamdown" unicode="&#xa1;" horiz-adv-x="425" 
d="M369 0h-312q0 674 2 1010h312q-2 -336 -2 -1010zM212 1196q-83 0 -135 39t-52 113q0 150 190 149q82 0 133 -38t51 -107v-4q0 -70 -52 -111t-135 -41z" />
    <glyph glyph-name="cent" unicode="&#xa2;" horiz-adv-x="1310" 
d="M862 -109h-311v211q-248 39 -387 207t-139 437t152 438q153 168 419 209v200h311v-194q184 -20 375 -139l-152 -205q-205 109 -389 109t-295 -110q-110 -108 -110 -300t101 -304q101 -114 284 -114q104 0 186 33t201 110l174 -192q-199 -152 -420 -185v-211z" />
    <glyph glyph-name="sterling" unicode="&#xa3;" horiz-adv-x="978" 
d="M879 233v-233h-854v233q92 0 139 79t47 210q0 53 -10 129h-113v234h72q-4 53 -4 78q0 227 122 369t338 143q104 0 182 -27t154 -94l-149 -172q-117 72 -198 72q-158 -1 -156 -255q0 -33 8 -114h315v-234h-272q6 -55 6 -106q0 -184 -70 -312h443z" />
    <glyph glyph-name="currency" unicode="&#xa4;" horiz-adv-x="1142" 
d="M106 653q0 102 44 183q-102 86 -109 90l211 186q78 -66 119 -98q91 33 207 33t194 -27q70 59 115 94l211 -186q-70 -57 -105 -88q41 -78 41 -182t-39 -189q82 -70 123 -102l-227 -174l-100 86q-91 -39 -219 -39t-224 39l-110 -93l-211 187l114 96q-35 82 -35 184z
M566 815q-76 0 -116 -45t-40 -125t43 -126t121 -46t116 48t37 127q0 79 -42 123t-119 44z" />
    <glyph glyph-name="yen" unicode="&#xa5;" horiz-adv-x="1640" 
d="M473 0v233h184v74h-311v256h311v45h-311v256h199q-31 45 -248 383h-272v232h688v-232h-84l196 -325q78 109 238 325h-115v232h668v-232h-217q-92 -120 -301 -383h186v-256h-317v-45h317v-256h-317v-74h184v-233h-678z" />
    <glyph glyph-name="brokenbar" unicode="&#xa6;" horiz-adv-x="362" 
d="M336 -614h-309v761h309v-761zM336 877h-309v761h309v-761z" />
    <glyph glyph-name="section" unicode="&#xa7;" horiz-adv-x="1046" 
d="M516 -53q-123 -1 -217 29t-195 102v252h240v-115q92 -35 182 -35q129 0 129 88q0 47 -50 71q-50 23 -107 36q-254 60 -364 144q-109 83 -109 241t145 248q-74 84 -74 206q0 158 119 238t304 80t370 -96v-252h-240v100q-66 16 -126 16t-93 -22t-33 -64q0 -68 105 -102
q45 -15 158 -44t199 -75t110 -85q53 -88 53 -169q0 -174 -133 -264q72 -80 74 -201q0 -166 -123 -246t-324 -81zM713 731q0 52 -66 78q-38 14 -125 35t-114 28q-72 -37 -72 -104t59 -89q59 -23 111 -36q53 -12 123 -29q84 37 84 117z" />
    <glyph glyph-name="dieresis" unicode="&#xa8;" horiz-adv-x="868" 
d="M658 1481q82 0 134 -39t52 -114q0 -76 -50 -112t-136 -36q-85 0 -133 39t-48 111t49 111q49 40 132 40zM391 1328q0 -76 -50 -112t-135 -36t-132 39t-47 111t49 111q49 40 132 40t133 -39t50 -114z" />
    <glyph glyph-name="copyright" unicode="&#xa9;" horiz-adv-x="1568" 
d="M1128 764h-227v84q-41 18 -117 18t-126 -51t-50 -144t44 -147t131 -55q87 0 210 61l133 -129q-80 -71 -160 -95t-194 -23q-188 0 -296 99q-108 98 -108 282t118 286t316 102t326 -96q-2 0 -11 -6l11 6v-192zM977 883l-4 -2q2 0 4 2zM989 889l-4 -2q2 0 4 2zM997 893
l-4 -2q4 0 4 2zM792 1135q-228 0 -372 -126t-146 -343q0 -217 152 -342t377 -125t362 126q137 127 137 339t-140 342q-142 130 -370 129zM792 1321q334 0 544 -175t210 -477q0 -303 -208 -479t-543 -176q-334 0 -551 174t-217 478t216 480q216 175 549 175z" />
    <glyph glyph-name="ordfeminine" unicode="&#xaa;" horiz-adv-x="888" 
d="M512 870v48q-84 -53 -184 -54q-301 0 -301 230q-1 110 79 156t194 60t210 21q-12 76 -112 76t-173 -41v-45h-159v162q137 111 337 110q362 0 363 -229v-340h98v-154h-352zM262 1096q0 -60 89 -60t161 72v63q-104 -12 -160 -18q-90 -12 -90 -57z" />
    <glyph glyph-name="guillemotleft" unicode="&#xab;" horiz-adv-x="892" 
d="M406 240l-379 221v256l381 213v-256l-158 -88l156 -90v-256zM868 242l-381 219v256l381 213v-256l-155 -86l155 -90v-256z" />
    <glyph glyph-name="logicalnot" unicode="&#xac;" horiz-adv-x="1105" 
d="M1079 285h-299v231h-753v256h1052v-487z" />
    <glyph glyph-name="registered" unicode="&#xae;" horiz-adv-x="1589" 
d="M1171 289h-235q-27 41 -84 127t-84 127v-70l35 2v-186h-340v186h57v381l-57 2v186h352q137 0 221 -61t84 -189t-96 -188l92 -133l55 2v-186zM768 856v-121h33q86 0 86 60q0 27 -21 44t-96 17h-2zM802 1153q-250 0 -398 -127q-148 -128 -148 -364t153 -361t403 -125
t389 126q138 126 138 358t-143 363q-143 130 -394 130zM1567 667q0 -315 -205 -485t-557 -170t-565 166t-213 486t211 487q211 168 564 168t559 -168t206 -484z" />
    <glyph glyph-name="macron" unicode="&#xaf;" horiz-adv-x="526" 
d="M500 1171h-473v234h473v-234z" />
    <glyph glyph-name="degree" unicode="&#xb0;" horiz-adv-x="882" 
d="M276 1229q0 -160 170 -160q74 0 114 42t40 117t-44 119t-121 44t-118 -44t-41 -118zM27 1228q0 175 110 272q111 97 305 97t304 -97t110 -273q0 -177 -113 -271t-305 -94t-302 95q-109 96 -109 271z" />
    <glyph glyph-name="plusminus" unicode="&#xb1;" horiz-adv-x="1247" 
d="M1221 78h-1194v254h456v184h-456v256h456v422h291v-422h447v-256h-447v-184h447v-254z" />
    <glyph glyph-name="twosuperior" unicode="&#xb2;" horiz-adv-x="872" 
d="M834 676l-9 6q9 -8 9 -6zM737 791q0 2 -2 2zM696 831q-2 2 -4 3zM682 842q-2 2 -4 2zM666 856q-8 8 -9 6zM848 664h-821v210q386 251 407 268q20 17 26 22q62 47 62 99q0 99 -121 99q-100 0 -157 -105l-197 109q57 117 149 162t246 45q152 0 254 -74t103 -219
q-1 -51 -13 -91t-52 -83t-59 -59q-100 -84 -249 -173h217v91h205v-301z" />
    <glyph glyph-name="threesuperior" unicode="&#xb3;" horiz-adv-x="784" 
d="M328 647h-21q-127 0 -282 80l120 162q104 -41 189 -41h8q135 0 135 87t-235 91v176q205 8 204 82q0 76 -120 76q-84 0 -164 -66l-135 146q137 127 327 127q373 0 373 -267q0 -113 -74 -174q106 -57 107 -188v-6q0 -285 -432 -285z" />
    <glyph glyph-name="acute" unicode="&#xb4;" horiz-adv-x="770" 
d="M745 1550q-37 -29 -174 -170t-174 -170h-370q33 27 170 169t176 171h372z" />
    <glyph glyph-name="paragraph" unicode="&#xb6;" horiz-adv-x="1603" 
d="M1268 233v1014h-170v-1014h170zM688 1247q-158 -1 -255 -71t-97 -195t72 -187t178 -61q108 0 200 29v485h-98zM600 0v233h186v293q-86 -20 -159 -20q-272 4 -438 125q-165 121 -165 355t174 364q173 129 449 129h930v-1479h-977z" />
    <glyph glyph-name="periodcentered" unicode="&#xb7;" horiz-adv-x="417" 
d="M391 901q0 -149 -186 -149q-84 0 -131 39t-47 111t49 111q49 40 132 40t133 -39t50 -113z" />
    <glyph glyph-name="cedilla" unicode="&#xb8;" horiz-adv-x="593" 
d="M266 -358q-124 0 -239 57l104 182q92 -41 142 -41t51 33q0 16 -20 16t-36 -14l-106 94q-2 0 -107 92q16 27 97 158q80 131 86 139l239 -161q-8 -12 -65 -103q154 -53 153 -219q1 -121 -87 -177t-212 -56z" />
    <glyph glyph-name="onesuperior" unicode="&#xb9;" horiz-adv-x="681" 
d="M283 680l8 8l-12 -10zM420 776q2 0 2 2zM465 809q2 0 6 4zM514 844l12 10l-4 -2zM141 666v200h121v426l-102 -94l-135 154l237 200h281v-686h114v-200h-516z" />
    <glyph glyph-name="ordmasculine" unicode="&#xba;" horiz-adv-x="882" 
d="M276 1229q0 -160 170 -160q74 0 114 42t40 117t-45 119t-121 44t-117 -44t-41 -118zM27 1228q0 175 110 272q111 97 305 97t304 -97t110 -273q0 -177 -113 -271t-305 -94t-302 95q-109 96 -109 271z" />
    <glyph glyph-name="guillemotright" unicode="&#xbb;" horiz-adv-x="892" 
d="M487 240v256l156 90l-158 88v256l383 -213v-256zM27 242v256l153 90l-153 86v256l379 -213v-256z" />
    <glyph glyph-name="onequarter" unicode="&#xbc;" horiz-adv-x="2045" 
d="M1552 393v117l-96 -117h96zM283 571l8 9l-12 -11zM420 668q2 0 2 2zM465 700q2 0 6 5zM514 735l12 10l-4 -2zM1366 -68v191h186v65h-264l-110 205l374 459h283v-459h133v-205h-133v-65h186v-191h-655zM707 -68h-283l895 1512h283zM141 557v201h121v426l-102 -94l-135 153
l237 201h281v-686h114v-201h-516z" />
    <glyph glyph-name="onehalf" unicode="&#xbd;" horiz-adv-x="2160" 
d="M2122 -57l-8 6q8 -8 8 -6zM2025 57q0 2 -2 2zM1985 98q-2 2 -5 2zM1970 109q-2 2 -4 2zM1954 123q-8 8 -8 6zM283 571l8 9l-12 -11zM420 668q2 0 2 2zM465 700q2 0 6 5zM514 735l12 10l-4 -2zM2136 -70h-821v211q386 251 407 268q20 17 26 22q62 47 62 99q0 99 -120 99
q-100 0 -158 -105l-197 109q57 117 149 162t246 45q152 0 254 -74t103 -219q0 -51 -15 -100q-20 -67 -164 -177q-36 -28 -50 -41t-144 -88h217v90h205v-301zM750 -68h-283l895 1512h283zM141 557v201h121v426l-102 -94l-135 153l237 201h281v-686h114v-201h-516z" />
    <glyph glyph-name="threequarters" unicode="&#xbe;" horiz-adv-x="2070" 
d="M1577 393v117l-96 -117h96zM328 522h-21q-127 0 -282 80l120 162q104 -41 189 -41h8q135 0 135 87t-235 91v176q205 8 204 82q0 76 -120 76q-84 0 -164 -66l-135 146q137 127 327 127q373 0 373 -266q0 -113 -74 -175q106 -57 107 -188v-6q0 -285 -432 -285zM1391 -68
v191h186v65h-264l-111 205l375 459h283v-459h133v-205h-133v-65h186v-191h-655zM750 -68h-283l895 1512h283z" />
    <glyph glyph-name="questiondown" unicode="&#xbf;" horiz-adv-x="811" 
d="M547 -68q-231 0 -377 132t-145 341q0 207 106 339t289 178v104h311v-330h-131q-129 0 -204 -76q-74 -76 -74 -196q0 -121 68 -183t185 -63q47 0 107 19l98 -232q-92 -33 -233 -33zM756 1398q0 -70 -50 -112q-50 -41 -134 -41q-83 0 -132 39t-49 113q0 150 184 149
q81 0 131 -39t50 -109z" />
    <glyph glyph-name="Agrave" unicode="&#xc0;" horiz-adv-x="1878" 
d="M776 233v-233h-749v233h245q61 139 258 573t299 673h287l494 -1246h243v-233h-749v233h184q-52 135 -67 189h-537q-12 -33 -38 -94t-38 -95h168zM1130 668l-81 228q-55 153 -84 228q-31 -76 -91 -228t-92 -228h348zM981 1968q35 -27 172 -169t174 -171h-373
q-37 29 -174 170t-174 170h375z" />
    <glyph glyph-name="Aacute" unicode="&#xc1;" horiz-adv-x="1878" 
d="M776 233v-233h-749v233h245q61 139 258 573t299 673h287l494 -1246h243v-233h-749v233h184q-52 135 -67 189h-537q-12 -33 -38 -94t-38 -95h168zM1130 668l-81 228q-55 153 -84 228q-31 -76 -91 -228t-92 -228h348zM1360 1968q-37 -29 -174 -170t-174 -170h-371
q33 27 170 169t176 171h373z" />
    <glyph glyph-name="Acircumflex" unicode="&#xc2;" horiz-adv-x="1878" 
d="M776 233v-233h-749v233h245q61 139 258 573t299 673h287l494 -1246h243v-233h-749v233h184q-52 135 -67 189h-537q-12 -33 -38 -94t-38 -95h168zM1130 668l-81 228q-55 153 -84 228q-31 -76 -91 -228t-92 -228h348zM1157 1665q-31 25 -188 186q-152 -156 -191 -186h-370
q33 27 170 169t176 171h430q39 -29 176 -171t170 -169h-373z" />
    <glyph glyph-name="Atilde" unicode="&#xc3;" horiz-adv-x="1878" 
d="M776 233v-233h-749v233h245q61 139 258 573t299 673h287l494 -1246h243v-233h-749v233h184q-52 135 -67 189h-537q-12 -33 -38 -94t-38 -95h168zM1130 668l-81 228q-55 153 -84 228q-31 -76 -91 -228t-92 -228h348zM1161 1634q-131 0 -241 92q-19 19 -29 25q-11 6 -21 14
q-10 9 -17 11t-19 8t-49 6t-66 -34t-60 -103q-100 49 -102 49l-102 49q84 272 327 272q126 0 218 -71q92 -72 158 -72t116 125l104 -51q2 0 30 -14t75 -37q-97 -269 -322 -269z" />
    <glyph glyph-name="Adieresis" unicode="&#xc4;" horiz-adv-x="1878" 
d="M776 233v-233h-749v233h245q61 139 258 573t299 673h287l494 -1246h243v-233h-749v233h184q-52 135 -67 189h-537q-12 -33 -38 -94t-38 -95h168zM1130 668l-81 228q-55 153 -84 228q-31 -76 -91 -228t-92 -228h348zM1194 1589q-84 0 -132 39t-48 111q0 71 49 111t132 40
t134 -39t51 -113t-51 -112q-51 -37 -135 -37zM561 1739q0 71 49 111t132 40q82 0 134 -39t52 -113t-50 -112q-50 -37 -136 -37q-85 0 -133 39t-48 111z" />
    <glyph glyph-name="Aring" unicode="&#xc5;" horiz-adv-x="1878" 
d="M776 233v-233h-749v233h245q61 139 258 573t299 673h287l494 -1246h243v-233h-749v233h184q-52 135 -67 189h-537q-12 -33 -38 -94t-38 -95h168zM1130 668l-81 228q-55 153 -84 228q-31 -76 -91 -228t-92 -228h348zM874 1923q0 -90 94 -90t95 90q-1 90 -95 90t-94 -90z
M604 1920q0 146 98 225t264 79t266 -79q101 -79 101 -227t-99 -224q-99 -78 -265 -78t-266 79q-99 79 -99 225z" />
    <glyph glyph-name="AE" unicode="&#xc6;" horiz-adv-x="2164" 
d="M27 0v233h301l678 1014h-103v232h1165v-361h-239v129h-434v-366h542v-234h-542v-414h503v129h242v-362h-1237v233h180v109h-356l-68 -109h117v-233h-749zM1083 588v321l-202 -321h202z" />
    <glyph glyph-name="Ccedilla" unicode="&#xc7;" horiz-adv-x="1415" 
d="M616 -516q-92 0 -213 57l54 90l51 93q96 -39 144 -39t48 30q0 17 -19 17t-36 -13l-213 187q8 12 74 119q-229 63 -354 237t-125 443q0 375 216 579t595 205q258 0 538 -150v-297h-241v146q-143 59 -312 59q-235 0 -361 -140q-126 -139 -126 -379t119 -368t342 -129
q127 0 225 34t209 112l80 -92l78 -95q-129 -100 -261 -148t-305 -52l-16 -24q-12 -17 -19 -29q156 -51 156 -218q0 -121 -89 -178t-239 -57z" />
    <glyph glyph-name="Egrave" unicode="&#xc8;" horiz-adv-x="1288" 
d="M27 0v233h180v1014h-180v232h1165v-361h-240v129h-434v-366h543v-234h-543v-414h504v129h242v-362h-1237zM659 1968q33 -27 170 -169t177 -171h-373q-37 29 -174 170t-174 170h374z" />
    <glyph glyph-name="Eacute" unicode="&#xc9;" horiz-adv-x="1288" 
d="M27 0v233h180v1014h-180v232h1165v-361h-240v129h-434v-366h543v-234h-543v-414h504v129h242v-362h-1237zM1038 1968q-37 -29 -173 -170t-173 -170h-373q39 29 177 171t170 169h372z" />
    <glyph glyph-name="Ecircumflex" unicode="&#xca;" horiz-adv-x="1288" 
d="M27 0v233h180v1014h-180v232h1165v-361h-240v129h-434v-366h543v-234h-543v-414h504v129h242v-362h-1237zM838 1665q-55 43 -191 186q-141 -150 -188 -186h-373q39 29 176 171t170 169h432q33 -27 170 -169t176 -171h-372z" />
    <glyph glyph-name="Edieresis" unicode="&#xcb;" horiz-adv-x="1288" 
d="M27 0v233h180v1014h-180v232h1165v-361h-240v129h-434v-366h543v-234h-543v-414h504v129h242v-362h-1237zM692 1738q0 72 49 112t132 40t135 -39t51 -113t-51 -112q-50 -37 -135 -37t-133 38t-48 111zM422 1589q-84 0 -132 38t-48 111q0 72 49 112t132 40t134 -39
t51 -113t-51 -112q-51 -37 -135 -37z" />
    <glyph glyph-name="Igrave" unicode="&#xcc;" horiz-adv-x="770" 
d="M47 0v233h182v1014h-182v232h680v-232h-186v-1014h186v-233h-680zM399 1968q33 -27 170 -169t176 -171h-372q-39 29 -176 171t-170 169h372z" />
    <glyph glyph-name="Iacute" unicode="&#xcd;" horiz-adv-x="792" 
d="M37 0v233h180v1014h-180v232h678v-232h-187v-1014h187v-233h-678zM768 1968q-37 -29 -174 -170t-174 -170h-371q35 27 172 169t174 171h373z" />
    <glyph glyph-name="Icircumflex" unicode="&#xce;" horiz-adv-x="1175" 
d="M248 0v233h180v1014h-180v232h678v-232h-187v-1014h187v-233h-678zM778 1665q-39 31 -190 186q-158 -162 -189 -186h-372q35 27 172 169t174 171h430q37 -29 174 -171t172 -169h-371z" />
    <glyph glyph-name="Idieresis" unicode="&#xcf;" horiz-adv-x="868" 
d="M92 0v233h180v1014h-180v232h678v-232h-186v-1014h186v-233h-678zM477 1738q0 72 49 112t132 40q82 0 134 -39t52 -113t-50 -112q-50 -37 -136 -37q-85 0 -133 38t-48 111zM206 1589q-85 0 -132 38t-47 111q0 72 49 112t131 40t133 -39t51 -113t-50 -112
q-50 -37 -135 -37z" />
    <glyph glyph-name="Eth" unicode="&#xd0;" horiz-adv-x="1601" 
d="M846 594h-330v-361h283q469 0 469 482q0 532 -518 532h-234v-399h330v-254zM27 0v233h178v361h-117v254h117v399h-178v232h737q395 -1 604 -189t209 -559t-207 -551t-596 -180h-747z" />
    <glyph glyph-name="Ntilde" unicode="&#xd1;" horiz-adv-x="1865" 
d="M705 233v-233h-678v233h184v1014h-182v232h520q270 -358 815 -1076v844h-182v232h659v-232h-166v-1247h-358q-733 965 -797 1049v-816h185zM1114 1632q-131 0 -242 92q-18 17 -22 20l-12 9t-12 8t-10 7q-7 4 -22 12t-54 8t-67 -33t-59 -102q-98 47 -204 98
q80 272 327 272q127 0 217 -72q90 -73 143 -73q52 0 79 33t53 94l207 -104q-97 -269 -322 -269z" />
    <glyph glyph-name="Ograve" unicode="&#xd2;" horiz-adv-x="1574" 
d="M336 737q0 -233 120 -368t338 -135t332 138t113 370q0 232 -123 368t-340 135q-217 0 -329 -137q-111 -138 -111 -371zM27 738q0 347 209 549t559 202t553 -201q202 -201 202 -547q0 -347 -208 -549t-558 -202t-554 200q-203 201 -203 548zM799 1968q37 -29 174 -171
t172 -169h-373q-37 29 -173 170t-173 170h373z" />
    <glyph glyph-name="Oacute" unicode="&#xd3;" horiz-adv-x="1574" 
d="M336 737q0 -233 120 -368t338 -135t332 138t113 370q0 232 -123 368t-340 135q-217 0 -329 -137q-111 -138 -111 -371zM27 738q0 347 209 549t559 202t553 -201q202 -201 202 -547q0 -347 -208 -549t-558 -202t-554 200q-203 201 -203 548zM1180 1968q-37 -29 -174 -170
t-175 -170h-370q35 27 172 169t174 171h373z" />
    <glyph glyph-name="Ocircumflex" unicode="&#xd4;" horiz-adv-x="1574" 
d="M336 737q0 -233 120 -368t338 -135t332 138t113 370q0 232 -123 368t-340 135q-217 0 -329 -137q-111 -138 -111 -371zM27 738q0 347 209 549t559 202t553 -201q202 -201 202 -547q0 -347 -208 -549t-558 -202t-554 200q-203 201 -203 548zM977 1665q-47 37 -189 186
q-135 -143 -190 -186h-371q35 27 172 169t174 171h431q37 -29 174 -171t172 -169h-373z" />
    <glyph glyph-name="Otilde" unicode="&#xd5;" horiz-adv-x="1574" 
d="M336 737q0 -233 120 -368t338 -135t332 138t113 370q0 232 -123 368t-340 135q-217 0 -329 -137q-111 -138 -111 -371zM27 738q0 347 209 549t559 202t553 -201q202 -201 202 -547q0 -347 -208 -549t-558 -202t-554 200q-203 201 -203 548zM602 2023q126 -1 218 -73
t158 -72t116 127q104 -53 209 -104q-96 -268 -322 -269q-131 0 -242 92q-132 112 -200 30q-29 -34 -60 -101l-205 98q84 272 328 272z" />
    <glyph glyph-name="Odieresis" unicode="&#xd6;" horiz-adv-x="1574" 
d="M336 737q0 -233 120 -368t338 -135t332 138t113 370q0 232 -123 368t-340 135q-217 0 -329 -137q-111 -138 -111 -371zM27 738q0 347 209 549t559 202t553 -201q202 -201 202 -547q0 -347 -208 -549t-558 -202t-554 200q-203 201 -203 548zM1014 1589q-84 0 -132 38
t-48 111q0 72 49 112t132 40t134 -39t51 -113t-51 -112q-51 -37 -135 -37zM562 1589q-85 0 -133 38t-48 111q0 72 49 112t132 40t134 -39q52 -39 52 -113t-50 -112q-50 -37 -136 -37z" />
    <glyph glyph-name="multiply" unicode="&#xd7;" horiz-adv-x="1077" 
d="M870 131l-331 332l-332 -332l-180 180l331 334l-331 332l180 180l332 -332l331 332l181 -180l-332 -332l332 -334z" />
    <glyph glyph-name="Oslash" unicode="&#xd8;" horiz-adv-x="1574" 
d="M27 737q0 348 209 550t565 202q147 0 276 -41l88 151l201 -100l-90 -149q274 -203 274 -607q0 -349 -208 -551t-560 -202q-156 0 -288 43l-97 -164l-184 117l86 145q-272 203 -272 606zM797 233q215 1 329 139t113 366q0 228 -113 360l-497 -840q74 -25 168 -25zM336 740
q0 -230 110 -359l496 840q-76 25 -170 24q-213 0 -325 -137q-111 -138 -111 -368z" />
    <glyph glyph-name="Ugrave" unicode="&#xd9;" horiz-adv-x="1779" 
d="M1556 596q0 -606 -667 -606t-668 579v678h-194v232h678v-232h-201v-633q0 -188 100 -277t301 -89q369 0 369 319v680h-197v232h676v-232h-197v-651zM901 1968q37 -29 174 -171t172 -169h-373q-37 29 -173 170t-173 170h373z" />
    <glyph glyph-name="Uacute" unicode="&#xda;" horiz-adv-x="1779" 
d="M1556 596q0 -606 -667 -606t-668 579v678h-194v232h678v-232h-201v-633q0 -188 100 -277t301 -89q369 0 369 319v680h-197v232h676v-232h-197v-651zM1282 1968q-37 -29 -174 -170t-174 -170h-371q35 27 172 169t174 171h373z" />
    <glyph glyph-name="Ucircumflex" unicode="&#xdb;" horiz-adv-x="1779" 
d="M1556 596q0 -606 -667 -606t-668 579v678h-194v232h678v-232h-201v-633q0 -188 100 -277t301 -89q369 0 369 319v680h-197v232h676v-232h-197v-651zM1079 1665q-47 37 -188 186q-135 -143 -191 -186h-370q35 27 172 169t174 171h430q37 -29 174 -171t172 -169h-373z" />
    <glyph glyph-name="Udieresis" unicode="&#xdc;" horiz-adv-x="1779" 
d="M1556 596q0 -606 -667 -606t-668 579v678h-194v232h678v-232h-201v-633q0 -188 100 -277t301 -89q369 0 369 319v680h-197v232h676v-232h-197v-651zM1116 1589q-84 0 -132 38t-48 111q0 72 49 112t132 40t134 -39t51 -113t-50 -112q-52 -37 -136 -37zM665 1589
q-85 0 -134 38q-48 38 -48 111q0 72 49 112q48 40 132 40t135 -39t51 -113t-50 -112q-50 -37 -135 -37z" />
    <glyph glyph-name="Yacute" unicode="&#xdd;" horiz-adv-x="1568" 
d="M942 231h168v-231h-676v231h168v469q-258 424 -336 547h-239v232h698v-232h-152q117 -203 201 -338l215 338h-145v232h698v-232h-244q-141 -220 -356 -547v-469zM1176 1968q-36 -29 -174 -170t-175 -170h-370q35 27 172 169t174 171h373z" />
    <glyph glyph-name="Thorn" unicode="&#xde;" horiz-adv-x="1286" 
d="M27 0v233h182v1014h-182v232h678v-232h-187v-55h141q269 0 435 -110t166 -318t-148 -319q-148 -112 -387 -115q-109 0 -207 24v-121h187v-233h-678zM714 557q104 0 170 53q66 52 66 150t-91 148t-243 50h-98v-372q92 -29 196 -29z" />
    <glyph glyph-name="germandbls" unicode="&#xdf;" horiz-adv-x="1341" 
d="M209 1200q0 207 144 318q145 110 379 110t374 -103t141 -297q0 -194 -133 -294q203 -111 203 -344q0 -358 -408 -438l-75 235q186 45 186 191q0 123 -95 183t-237 60v197q262 0 262 188t-243 189q-89 1 -139 -51t-50 -144v-967h187v-233h-678v233h182v967z" />
    <glyph glyph-name="agrave" unicode="&#xe0;" horiz-adv-x="1265" 
d="M762 0v94q-141 -104 -328 -104q-188 0 -298 87t-110 258t116 242t343 97q127 13 277 28q-10 162 -230 162q-102 0 -196 -47v-125h-242v254q195 152 481 152q231 0 363 -79t133 -269v-517h168v-233h-477zM496 219q82 0 140 33t126 98v150q-145 -20 -289 -36t-143 -120
q0 -125 166 -125zM596 1602q33 -27 170 -169t176 -171h-373q-37 29 -174 170t-174 170h375z" />
    <glyph glyph-name="aacute" unicode="&#xe1;" horiz-adv-x="1265" 
d="M762 0v94q-141 -104 -328 -104q-188 0 -298 87t-110 258t116 242t343 97q127 13 277 28q-10 162 -230 162q-102 0 -196 -47v-125h-242v254q195 152 481 152q231 0 363 -79t133 -269v-517h168v-233h-477zM496 219q82 0 140 33t126 98v150q-145 -20 -289 -36t-143 -120
q0 -125 166 -125zM975 1602q-37 -29 -173 -170t-173 -170h-373q39 29 176 171t170 169h373z" />
    <glyph glyph-name="acircumflex" unicode="&#xe2;" horiz-adv-x="1271" 
d="M768 0v94q-142 -104 -328 -104t-297 87t-111 258t116 242t300 91t320 34q-10 162 -229 162q-102 0 -197 -47v-125h-242v254q195 152 482 152q231 0 363 -79t132 -269v-517h168v-233h-477zM502 219q82 0 140 33t126 98v150q-145 -20 -289 -36t-143 -120q0 -125 166 -125z
M780 1298q-55 43 -190 187q-141 -150 -189 -187h-372q39 29 176 171t170 169h432q33 -27 170 -169t176 -171h-373z" />
    <glyph glyph-name="atilde" unicode="&#xe3;" horiz-adv-x="1265" 
d="M762 0v94q-141 -104 -328 -104q-188 0 -298 87t-110 258t116 242t343 97q127 13 277 28q-10 162 -230 162q-102 0 -196 -47v-125h-242v254q195 152 481 152q231 0 363 -79t133 -269v-517h168v-233h-477zM496 219q82 0 140 33t126 98v150q-145 -20 -289 -36t-143 -120
q0 -125 166 -125zM776 1266q-131 0 -241 92q-12 12 -19 17t-19 13t-19 14q-7 5 -12 7t-12 5q-16 7 -54 7q-37 -1 -65 -33t-59 -102q-98 47 -204 98q80 272 327 273q127 -1 217 -73t143 -72q52 0 79 32q27 33 53 94l207 -104q-97 -268 -322 -268z" />
    <glyph glyph-name="adieresis" unicode="&#xe4;" horiz-adv-x="1265" 
d="M762 0v94q-141 -104 -328 -104q-188 0 -298 87t-110 258t116 242t343 97q127 13 277 28q-10 162 -230 162q-102 0 -196 -47v-125h-242v254q195 152 481 152q231 0 363 -79t133 -269v-517h168v-233h-477zM496 219q82 0 140 33t126 98v150q-145 -20 -289 -36t-143 -120
q0 -125 166 -125zM995 1371q0 -75 -50 -111t-135 -37q-85 0 -133 38q-48 39 -48 111t49 112t132 40t134 -39t51 -114zM359 1524q83 0 135 -39t51 -114q1 -75 -51 -111t-136 -37q-84 0 -132 38q-48 39 -48 111t49 112t132 40z" />
    <glyph glyph-name="aring" unicode="&#xe5;" horiz-adv-x="1265" 
d="M762 0v94q-141 -104 -328 -104q-188 0 -298 87t-110 258t116 242t343 97q127 13 277 28q-10 162 -230 162q-102 0 -196 -47v-125h-242v254q195 152 481 152q231 0 363 -79t133 -269v-517h168v-233h-477zM496 219q82 0 140 33t126 98v150q-145 -20 -289 -36t-143 -120
q0 -125 166 -125zM489 1552q-1 -88 95 -88t96 88q0 94 -96 94t-95 -94zM585 1247q-165 0 -265 79t-99 225q0 145 97 225q96 80 262 80t268 -78t102 -226t-100 -226q-100 -79 -265 -79z" />
    <glyph glyph-name="ae" unicode="&#xe6;" horiz-adv-x="1894" 
d="M496 219q88 0 150 38t138 118q-12 39 -18 86q-152 1 -294 -15t-142 -102q0 -125 166 -125zM1321 864q-197 0 -240 -188h488q-27 188 -248 188zM1380 -10q-336 0 -495 188q-105 -94 -203 -141t-236 -47q-200 0 -310 87t-110 259t128 239q185 98 608 101v12q0 176 -230 176
q-102 0 -196 -47v-125h-242v254q199 152 471 152t396 -92q143 96 385 96t381 -129q140 -129 141 -375v-139h-787q47 -229 299 -230q127 0 248 90l178 -180q-102 -77 -199 -113t-227 -36z" />
    <glyph glyph-name="ccedilla" unicode="&#xe7;" horiz-adv-x="1105" 
d="M528 -471q-92 0 -213 57l54 90l51 93q96 -39 144 -39t48 30q0 16 -19 16t-36 -12l-213 187q4 6 45 72q-174 53 -268 185t-94 339q0 275 166 415t460 140q215 0 414 -141q0 -145 2 -146v-145h-242v151q-90 39 -184 39q-151 0 -229 -80t-78 -234t83 -234q83 -81 220 -81
t252 105l92 -84q4 -4 92 -84q-123 -152 -368 -176q-2 -2 -7 -10q156 -51 156 -218q0 -121 -89 -178t-239 -57z" />
    <glyph glyph-name="egrave" unicode="&#xe8;" horiz-adv-x="1161" 
d="M588 864q-197 0 -240 -188h488q-27 188 -248 188zM647 -10q-293 0 -457 147t-164 421t152 409t414 135t402 -129t141 -375v-139h-787q47 -229 299 -230q127 0 248 90l178 -180q-101 -77 -199 -113t-227 -36zM598 1602q35 -27 172 -169t174 -171h-373q-37 29 -174 170
t-174 170h375z" />
    <glyph glyph-name="eacute" unicode="&#xe9;" horiz-adv-x="1161" 
d="M588 864q-197 0 -240 -188h488q-27 188 -248 188zM647 -10q-293 0 -457 147t-164 421t152 409t414 135t402 -129t141 -375v-139h-787q47 -229 299 -230q127 0 248 90l178 -180q-101 -77 -199 -113t-227 -36zM977 1602q-37 -29 -173 -170t-173 -170h-373q37 29 174 171
t172 169h373z" />
    <glyph glyph-name="ecircumflex" unicode="&#xea;" horiz-adv-x="1181" 
d="M596 864q-197 0 -240 -188h488q-27 188 -248 188zM655 -10q-293 0 -457 147t-163 421q0 274 151 409q152 135 414 135t402 -129t141 -375v-139h-787q47 -229 299 -230q127 0 248 90l178 -180q-102 -77 -199 -113t-227 -36zM784 1298q-39 31 -190 187q-158 -162 -188 -187
h-373q37 29 174 171t172 169h432q35 -27 172 -169t174 -171h-373z" />
    <glyph glyph-name="edieresis" unicode="&#xeb;" horiz-adv-x="1161" 
d="M588 864q-197 0 -240 -188h488q-27 188 -248 188zM647 -10q-293 0 -457 147t-164 421t152 409t414 135t402 -129t141 -375v-139h-787q47 -229 299 -230q127 0 248 90l178 -180q-101 -77 -199 -113t-227 -36zM997 1371q0 -75 -50 -111t-135 -37q-85 0 -133 39
q-48 38 -48 110t49 112t132 40t134 -39t51 -114zM361 1524q83 0 135 -39t51 -114q1 -75 -51 -111t-136 -37q-84 0 -132 39q-48 38 -48 110t49 112t132 40z" />
    <glyph glyph-name="igrave" unicode="&#xec;" horiz-adv-x="792" 
d="M98 0v233h178v627h-178v232h504v-859h154v-233h-658zM399 1606q35 -27 172 -169t174 -171h-372q-37 29 -174 171t-172 169h372z" />
    <glyph glyph-name="iacute" unicode="&#xed;" horiz-adv-x="800" 
d="M27 0v233h178v627h-178v232h503v-859h154v-233h-657zM776 1608q-37 -29 -174 -170t-174 -170h-371q33 27 170 169t176 171h373z" />
    <glyph glyph-name="icircumflex" unicode="&#xee;" horiz-adv-x="1175" 
d="M250 0v233h178v627h-178v232h504v-859h153v-233h-657zM778 1294q-47 37 -190 189q-150 -158 -189 -189h-372q33 27 170 169t176 171h430q39 -29 176 -171t170 -169h-371z" />
    <glyph glyph-name="idieresis" unicode="&#xef;" horiz-adv-x="868" 
d="M94 0v233h178v627h-178v232h504v-859h154v-233h-658zM658 1524q82 0 134 -39t52 -114t-50 -111t-136 -37q-85 0 -133 39q-48 38 -48 110t49 112t132 40zM391 1371q0 -75 -50 -111t-135 -37q-85 0 -132 39q-47 38 -47 110t49 112t132 40t133 -39t50 -114z" />
    <glyph glyph-name="eth" unicode="&#xf0;" horiz-adv-x="1212" 
d="M592 266q130 0 215 71q84 71 84 210v35q-96 113 -291 112q-125 0 -198 -58t-72 -171q0 -199 262 -199zM595 -12q-267 0 -418 127t-151 357t148 349q147 119 397 119q119 0 222 -43q-96 141 -289 236l-158 -158l-72 74l5 -7q-12 12 -72 74l98 98q-94 31 -192 56l86 243
q176 -39 313 -94q25 27 75 77l75 75l73 -72l-6 4q12 -12 74 -71l-101 -101q485 -270 486 -796q0 -263 -163 -405t-430 -142z" />
    <glyph glyph-name="ntilde" unicode="&#xf1;" horiz-adv-x="1509" 
d="M27 0v233h182v627h-182v232h493v-111q143 117 353 117t319 -115t108 -332v-418h183v-233h-647v233h155v396q0 231 -213 231q-154 0 -258 -131v-496h152v-233h-645zM987 1266q-131 0 -242 92q-14 14 -20 18t-17 12q-12 9 -19 14t-12 7t-12 5q-16 7 -54 7q-37 -1 -65 -33
t-59 -102q-98 47 -204 98q80 272 327 273q128 -1 218 -73t142 -72t79 32q27 33 53 94l207 -104q-97 -268 -322 -268z" />
    <glyph glyph-name="ograve" unicode="&#xf2;" horiz-adv-x="1267" 
d="M624 864q-146 0 -221 -87t-75 -235t80 -230q80 -83 226 -84t222 83q76 83 76 231t-81 235t-227 87zM27 545q0 264 162 410q163 147 446 147t445 -148t161 -411q0 -265 -165 -409q-164 -144 -446 -144t-443 145q-160 146 -160 410zM639 1602q37 -29 174 -171t172 -169
h-373q-37 29 -173 170t-173 170h373z" />
    <glyph glyph-name="oacute" unicode="&#xf3;" horiz-adv-x="1267" 
d="M624 864q-146 0 -221 -87t-75 -235t80 -230q80 -83 226 -84t222 83q76 83 76 231t-81 235t-227 87zM27 545q0 264 162 410q163 147 446 147t445 -148t161 -411q0 -265 -165 -409q-164 -144 -446 -144t-443 145q-160 146 -160 410zM1020 1602q-37 -29 -174 -170t-174 -170
h-371q35 27 172 169t174 171h373z" />
    <glyph glyph-name="ocircumflex" unicode="&#xf4;" horiz-adv-x="1267" 
d="M624 864q-146 0 -221 -87t-75 -235t80 -230q80 -83 226 -84t222 83q76 83 76 231t-81 235t-227 87zM27 545q0 264 162 410q163 147 446 147t445 -148t161 -411q0 -265 -165 -409q-164 -144 -446 -144t-443 145q-160 146 -160 410zM817 1298q-47 37 -188 187
q-135 -143 -191 -187h-370q35 27 172 169t174 171h430q37 -29 174 -171t172 -169h-373z" />
    <glyph glyph-name="otilde" unicode="&#xf5;" horiz-adv-x="1267" 
d="M624 864q-146 0 -221 -87t-75 -235t80 -230q80 -83 226 -84t222 83q76 83 76 231t-81 235t-227 87zM27 545q0 264 162 410q163 147 446 147t445 -148t161 -411q0 -265 -165 -409q-164 -144 -446 -144t-443 145q-160 146 -160 410zM821 1266q-131 0 -241 92
q-74 63 -123 63q-49 1 -78 -33t-60 -102q-100 49 -102 49l-102 49q84 272 327 273q126 0 218 -73t158 -73t116 127q104 -53 209 -104q-96 -268 -322 -268z" />
    <glyph glyph-name="odieresis" unicode="&#xf6;" horiz-adv-x="1267" 
d="M624 864q-146 0 -221 -87t-75 -235t80 -230q80 -83 226 -84t222 83q76 83 76 231t-81 235t-227 87zM27 545q0 264 162 410q163 147 446 147t445 -148t161 -411q0 -265 -165 -409q-164 -144 -446 -144t-443 145q-160 146 -160 410zM1040 1371q0 -75 -51 -111t-135 -37
q-84 0 -132 38q-48 39 -48 111t49 112t132 40t134 -39t51 -114zM402 1524q82 0 134 -39t52 -114t-50 -111t-136 -37q-85 0 -133 38q-48 39 -48 111t49 112t132 40z" />
    <glyph glyph-name="divide" unicode="&#xf7;" horiz-adv-x="1247" 
d="M607 174q-85 0 -133 39t-48 111t49 112t132 39q83 0 134 -39q51 -40 51 -114t-50 -111t-135 -37zM1221 516h-1194v256h1194v-256zM607 815q-85 0 -133 38t-48 111q0 72 49 112t132 40t134 -39t51 -113t-50 -112q-50 -37 -135 -37z" />
    <glyph glyph-name="oslash" unicode="&#xf8;" horiz-adv-x="1267" 
d="M27 547q0 262 162 408q163 146 446 147q109 0 192 -21l84 142l201 -105l-76 -129q205 -147 205 -429t-165 -426t-449 -144q-90 0 -176 16l-97 -160l-186 113l78 131q-219 146 -219 457zM641 227q139 0 215 84q76 85 76 217t-49 207l-299 -504q37 -4 57 -4zM621 864
q-143 0 -218 -87t-75 -225t61 -218l307 524q-35 6 -75 6z" />
    <glyph glyph-name="ugrave" unicode="&#xf9;" 
d="M977 0v96q-129 -106 -283 -106q-238 0 -362 114t-123 336v420h-182v232h493v-639q0 -223 209 -224q137 0 248 142v489h-184v232h495v-859h162v-233h-473zM715 1602q37 -29 174 -171t172 -169h-373q-37 29 -173 170t-173 170h373z" />
    <glyph glyph-name="uacute" unicode="&#xfa;" 
d="M977 0v96q-129 -106 -283 -106q-238 0 -362 114t-123 336v420h-182v232h493v-639q0 -223 209 -224q137 0 248 142v489h-184v232h495v-859h162v-233h-473zM1096 1602q-37 -29 -174 -170t-174 -170h-371q35 27 172 169t174 171h373z" />
    <glyph glyph-name="ucircumflex" unicode="&#xfb;" 
d="M977 0v96q-129 -106 -283 -106q-238 0 -362 114t-123 336v420h-182v232h493v-639q0 -223 209 -224q137 0 248 142v489h-184v232h495v-859h162v-233h-473zM893 1298q-47 37 -188 187q-135 -143 -191 -187h-371q35 27 172 169t174 171h431q37 -29 174 -171t172 -169h-373z
" />
    <glyph glyph-name="udieresis" unicode="&#xfc;" 
d="M977 0v96q-129 -106 -283 -106q-238 0 -362 114t-123 336v420h-182v232h493v-639q0 -223 209 -224q137 0 248 142v489h-184v232h495v-859h162v-233h-473zM1116 1371q0 -75 -51 -111t-135 -37q-84 0 -132 38q-48 39 -48 111t49 112t132 40t134 -39t51 -114zM478 1223
q-85 0 -133 38q-48 39 -48 111t49 112t132 40t134 -39q52 -39 52 -114t-50 -111t-136 -37z" />
    <glyph glyph-name="yacute" unicode="&#xfd;" horiz-adv-x="1519" 
d="M37 860v232h676v-232h-144q29 -66 85 -198t85 -197l99 198q66 132 98 197h-119v232h678v-232h-242l-737 -1474h-471v231h170l100 2q45 90 137 271q91 181 136 272l-330 698h-221zM1153 1599q-37 -29 -173 -169t-173 -170h-373q37 29 174 171t172 168h373z" />
    <glyph glyph-name="thorn" unicode="&#xfe;" horiz-adv-x="1427" 
d="M27 -614v233h184v1737h-182v231h491v-569q152 88 324 88q262 0 410 -155t148 -407t-151 -404q-152 -151 -413 -150q-180 0 -318 67v-438h164v-233h-657zM811 223h4q133 0 205 80t72 221v13q0 147 -71 239t-219 92t-282 -98v-467q133 -80 291 -80z" />
    <glyph glyph-name="ydieresis" unicode="&#xff;" horiz-adv-x="1519" 
d="M37 860v232h676v-232h-144q29 -66 85 -198t85 -197l99 198q66 132 98 197h-119v232h678v-232h-242l-737 -1474h-471v231h170l100 2q45 90 137 271q91 181 136 272l-330 698h-221zM987 1221q-84 0 -132 39q-48 38 -48 110t49 112t132 40t134 -39t52 -113q0 -149 -187 -149
zM723 1370q0 -149 -188 -149q-82 0 -131 39q-48 38 -48 110t50 112t132 40q83 0 134 -39t51 -113z" />
    <glyph glyph-name="Amacron" unicode="&#x100;" horiz-adv-x="1878" 
d="M776 233v-233h-749v233h245q61 139 258 573t299 673h287l494 -1246h243v-233h-749v233h184q-52 135 -67 189h-537q-12 -33 -38 -94t-38 -95h168zM1130 668l-81 228q-55 153 -84 228q-31 -76 -91 -228t-92 -228h348zM1202 1630h-473v234h473v-234z" />
    <glyph glyph-name="amacron" unicode="&#x101;" horiz-adv-x="1265" 
d="M762 0v94q-141 -104 -328 -104q-188 0 -298 87t-110 258t116 242t343 97q127 13 277 28q-10 162 -230 162q-102 0 -196 -47v-125h-242v254q195 152 481 152q231 0 363 -79t133 -269v-517h168v-233h-477zM496 219q82 0 140 33t126 98v150q-145 -20 -289 -36t-143 -120
q0 -125 166 -125zM817 1262h-471v233h471v-233z" />
    <glyph glyph-name="Abreve" unicode="&#x102;" horiz-adv-x="1878" 
d="M776 233v-233h-749v233h245q61 139 258 573t299 673h287l494 -1246h243v-233h-749v233h184q-52 135 -67 189h-537q-12 -33 -38 -94t-38 -95h168zM1130 668l-81 228q-55 153 -84 228q-31 -76 -91 -228t-92 -228h348zM856 1929q0 -86 112 -86t111 84h297q0 -159 -112 -237
t-302 -78q-188 0 -296 79t-107 238h297z" />
    <glyph glyph-name="abreve" unicode="&#x103;" horiz-adv-x="1265" 
d="M762 0v94q-141 -104 -328 -104q-188 0 -298 87t-110 258t116 242t343 97q127 13 277 28q-10 162 -230 162q-102 0 -196 -47v-125h-242v254q195 152 481 152q231 0 363 -79t133 -269v-517h168v-233h-477zM496 219q82 0 140 33t126 98v150q-145 -20 -289 -36t-143 -120
q0 -125 166 -125zM471 1561q0 -84 113 -84t112 82h295q-1 -160 -113 -238t-300 -78t-296 80t-108 238h297z" />
    <glyph glyph-name="Aogonek" unicode="&#x104;" horiz-adv-x="1880" 
d="M1130 668q-53 152 -163 454q-123 -303 -183 -454h346zM776 233v-233h-749v233h247q61 139 258 573t299 673h285q90 -236 264 -667t232 -579h241v-233h-208l-35 -14q-70 -28 -82 -54q-6 -12 -6 -28q0 -41 49 -41q16 0 69 26l70 -92v-2q4 -6 70 -92q-131 -68 -250 -68
t-200 71t-81 196q0 57 23 98h-166v233h182q-52 135 -67 189h-537q-39 -100 -76 -189h168z" />
    <glyph glyph-name="aogonek" unicode="&#x105;" horiz-adv-x="1265" 
d="M496 219q82 0 140 33t126 98v150q-145 -20 -289 -36t-143 -120q0 -125 166 -125zM643 -90q0 86 57 143q-113 -63 -254 -63q-200 0 -310 87t-110 258t116 242t343 97q127 13 277 28q-10 162 -230 162q-102 0 -196 -47v-125h-242v254q195 152 481 152q231 0 363 -79
t133 -269v-517h168v-233h-225q-60 -24 -79 -44t-20 -42q0 -41 48 -41q10 0 69 25l70 -93h2q2 -4 70 -92q-125 -67 -247 -67t-203 70t-81 194z" />
    <glyph glyph-name="Cacute" unicode="&#x106;" horiz-adv-x="1415" 
d="M782 -10q-354 0 -555 186t-201 545t217 563q216 204 595 205q258 0 538 -150v-297h-241v146q-143 59 -312 59q-235 0 -361 -140q-126 -139 -126 -379t119 -368t342 -129q127 0 225 34t209 112l80 -92l78 -95q-135 -106 -275 -153t-332 -47zM1210 1968q-37 -29 -174 -170
t-174 -170h-373q39 29 177 171t170 169h374z" />
    <glyph glyph-name="cacute" unicode="&#x107;" horiz-adv-x="1105" 
d="M642 -10q-290 0 -453 141t-163 417t167 414q166 140 460 140q215 0 414 -141q0 -145 2 -146v-145h-242v151q-90 39 -184 39q-151 0 -229 -80t-78 -234t83 -234q83 -81 220 -81t252 105l92 -84q4 -4 92 -84q-143 -178 -433 -178zM1026 1602q-37 -29 -174 -170t-174 -170
h-371q35 27 172 169t174 171h373z" />
    <glyph glyph-name="Ccaron" unicode="&#x10c;" horiz-adv-x="1423" 
d="M782 -10q-354 0 -555 186t-201 545t217 563q216 204 595 205q258 0 538 -150v-297h-241v146q-143 59 -312 59q-235 0 -361 -140q-126 -139 -126 -379t119 -368t342 -129q127 0 225 34t209 112l80 -92l78 -95q-135 -106 -275 -153t-332 -47zM600 1636q-35 27 -172 169
t-174 171h373q39 -31 190 -186q141 150 189 186h372q-37 -29 -174 -171t-172 -169h-432z" />
    <glyph glyph-name="ccaron" unicode="&#x10d;" horiz-adv-x="1220" 
d="M642 -10q-290 0 -453 141t-163 417t167 414q166 140 460 140q215 0 414 -141q0 -145 2 -146v-145h-242v151q-90 39 -184 39q-151 0 -229 -80t-78 -234t83 -234q83 -81 220 -81t252 105l92 -84q4 -4 92 -84q-143 -178 -433 -178zM418 1270q-39 29 -176 171t-170 169h370
q39 -31 191 -187q158 162 188 187h373q-33 -27 -170 -169t-176 -171h-430z" />
    <glyph glyph-name="Dcaron" unicode="&#x10e;" horiz-adv-x="1601" 
d="M750 1247h-234v-1014h283q469 0 469 482q0 532 -518 532zM27 0v233h178v1014h-178v232h737q395 -1 604 -189t209 -559t-207 -551t-596 -180h-747zM516 1636q-39 29 -176 171t-170 169h371q39 -31 190 -186q158 162 189 186h372q-33 -27 -170 -169t-176 -171h-430z" />
    <glyph glyph-name="dcaron" unicode="&#x10f;" horiz-adv-x="1929" 
d="M641 -6q-276 0 -445 143t-169 403t166 408q166 150 442 150q145 0 276 -51v360h-176v231h502v-1405h178v-233h-504v57q-109 -63 -270 -63zM659 227q150 0 252 95v477q-99 65 -247 65t-238 -83t-90 -233t86 -235q86 -86 237 -86zM1905 1638l-271 -460h-301l185 460h387z
" />
    <glyph glyph-name="Dcroat" unicode="&#x110;" horiz-adv-x="1599" 
d="M844 594h-330v-361h285q467 0 467 482q0 532 -518 532h-234v-399h330v-254zM25 0v233h180v361h-119v254h119v399h-180v232h737q395 -1 604 -189t209 -559t-207 -551t-596 -180h-747z" />
    <glyph glyph-name="dcroat" unicode="&#x111;" horiz-adv-x="1437" 
d="M641 -6q-276 0 -446 143t-170 403q-1 260 165 408q166 150 445 150q147 0 276 -54v123h-303v183h303v57h-178v231h502v-288h115v-183h-115v-934h178v-233h-502v57q-109 -63 -270 -63zM336 548q0 -150 86 -235q86 -86 236 -86q151 0 253 95v477q-99 65 -247 65t-238 -83
t-90 -233z" />
    <glyph glyph-name="Emacron" unicode="&#x112;" horiz-adv-x="1288" 
d="M27 0v233h180v1014h-180v232h1165v-361h-240v129h-434v-366h543v-234h-543v-414h504v129h242v-362h-1237zM881 1628h-471v234h471v-234z" />
    <glyph glyph-name="emacron" unicode="&#x113;" horiz-adv-x="1161" 
d="M588 864q-197 0 -240 -188h488q-27 188 -248 188zM647 -10q-293 0 -457 147t-164 421t152 409t414 135t402 -129t141 -375v-139h-787q47 -229 299 -230q127 0 248 90l178 -180q-101 -77 -199 -113t-227 -36zM819 1264h-471v233h471v-233z" />
    <glyph glyph-name="Edotaccent" unicode="&#x116;" horiz-adv-x="1288" 
d="M27 0v233h180v1014h-180v232h1165v-361h-240v129h-434v-366h543v-234h-543v-414h504v129h242v-362h-1237zM651 1589q-84 0 -132 38t-48 111q0 72 49 112t132 40t134 -39q52 -39 52 -113t-52 -112q-52 -37 -135 -37z" />
    <glyph glyph-name="edotaccent" unicode="&#x117;" horiz-adv-x="1161" 
d="M588 864q-197 0 -240 -188h488q-27 188 -248 188zM647 -10q-293 0 -457 147t-164 421t152 409t414 135t402 -129t141 -375v-139h-787q47 -229 299 -230q127 0 248 90l178 -180q-101 -77 -199 -113t-227 -36zM776 1371q0 -75 -51 -111t-135 -37q-84 0 -132 39
q-48 38 -48 110t49 112t132 40t134 -39t51 -114z" />
    <glyph glyph-name="Eogonek" unicode="&#x118;" horiz-adv-x="1347" 
d="M27 0v233h180v1014h-180v232h1165v-361h-240v129h-434v-366h543v-234h-543v-414h504v129h242v-362h-119q-50 -22 -66 -41q-16 -18 -16 -39q0 -41 47 -41q10 0 70 25l69 -92h2q2 -5 70 -93q-125 -67 -247 -67t-203 70t-80 194q0 45 16 84h-780z" />
    <glyph glyph-name="eogonek" unicode="&#x119;" horiz-adv-x="1161" 
d="M588 864q-197 0 -240 -188h488q-27 188 -248 188zM721 -340q-119 0 -200 71t-81 195q0 45 17 82q-207 44 -319 186t-112 390t152 383t414 135t402 -129t141 -375v-139h-787q47 -229 299 -230q127 0 248 90l178 -180q-154 -115 -299 -139q-61 -29 -61 -71t47 -42
q16 0 69 27l142 -186q-131 -68 -250 -68z" />
    <glyph glyph-name="Ecaron" unicode="&#x11a;" horiz-adv-x="1288" 
d="M27 0v233h180v1014h-180v232h1165v-361h-240v129h-434v-366h543v-234h-543v-414h504v129h242v-362h-1237zM430 1636q-35 27 -172 169t-174 171h373q31 -25 188 -186q152 156 191 186h372q-37 -29 -174 -171t-172 -169h-432z" />
    <glyph glyph-name="ecaron" unicode="&#x11b;" horiz-adv-x="1181" 
d="M596 864q-197 0 -240 -188h488q-27 188 -248 188zM657 -10q-295 0 -459 147t-163 421q0 274 151 409q152 135 415 135t403 -129t141 -375v-139h-789q47 -229 301 -230q127 0 248 90l178 -180q-104 -77 -200 -113t-226 -36zM379 1270q-37 29 -174 171t-172 169h370
q39 -31 191 -187q158 162 188 187h373q-35 -27 -172 -169t-174 -171h-430z" />
    <glyph glyph-name="Gbreve" unicode="&#x11e;" horiz-adv-x="1554" 
d="M870 -10q-393 0 -618 190t-225 555t218 559q219 194 583 195q364 0 663 -166v-287h-240v129q-179 80 -413 80t-367 -125q-133 -126 -133 -370t138 -380t380 -136t389 51v243h-262v234h545v-600q-186 -92 -330 -132t-328 -40zM719 1927q0 -84 113 -84t112 82h295
q0 -159 -113 -237t-301 -78t-296 80t-107 237h297z" />
    <glyph glyph-name="gbreve" unicode="&#x11f;" horiz-adv-x="1292" 
d="M336 -209q0 -182 303 -182q248 0 310 73q28 32 28 82q0 98 -107 132q-80 24 -227 32l-39 2q-111 6 -192 27q-76 -63 -76 -166zM119 676q0 202 146 314t354 112t339 -72q115 61 175 88l135 -223q-29 -14 -135 -59q25 -61 24 -142q1 -199 -149 -304t-385 -105
q-94 0 -174 18q-39 -97 60 -127q59 -16 172 -24q236 -16 392 -81q185 -76 187 -288v-10q0 -145 -92 -237t-226 -126q-135 -35 -317 -35q-266 1 -432 99t-166 307q0 180 157 287q-57 62 -57 170t92 184q-100 100 -100 254zM642 870q-96 0 -154 -48t-58 -133t60 -128t154 -43
t149 43q53 43 53 127t-54 133t-150 49zM522 1561q0 -86 113 -86t113 84h294q0 -160 -112 -238t-301 -78q-188 0 -296 79t-108 239h297z" />
    <glyph glyph-name="Gcommaaccent" unicode="&#x122;" horiz-adv-x="1554" 
d="M1116 -162l-270 -461h-301l186 461h385zM870 -10q-393 0 -618 190t-225 555t218 559q219 194 583 195q364 0 663 -166v-287h-240v129q-179 80 -413 80t-367 -125q-133 -126 -133 -370t138 -380t380 -136t389 51v243h-262v234h545v-600q-186 -92 -330 -132t-328 -40z" />
    <glyph glyph-name="gcommaaccent" unicode="&#x123;" horiz-adv-x="1292" 
d="M336 -209q0 -182 303 -182q248 0 310 73q28 32 28 82q0 98 -107 132q-80 24 -227 32l-39 2q-111 6 -192 27q-76 -63 -76 -166zM119 676q0 202 146 314t354 112t339 -72q115 61 175 88l135 -223q-29 -14 -135 -59q25 -61 24 -142q1 -199 -149 -304t-385 -105
q-94 0 -174 18q-39 -97 60 -127q59 -16 172 -24q236 -16 392 -81q185 -76 187 -288v-10q0 -145 -92 -237t-226 -126q-135 -35 -317 -35q-266 1 -432 99t-166 307q0 180 157 287q-57 62 -57 170t92 184q-100 100 -100 254zM642 870q-96 0 -154 -48t-58 -133t60 -128t154 -43
t149 43q53 43 53 127t-54 133t-150 49zM391 1229l271 461h301l-187 -461h-385z" />
    <glyph glyph-name="Imacron" unicode="&#x12a;" horiz-adv-x="731" 
d="M27 0v233h180v1014h-180v232h678v-232h-187v-1014h187v-233h-678zM600 1628h-473v234h473v-234z" />
    <glyph glyph-name="imacron" unicode="&#x12b;" horiz-adv-x="710" 
d="M27 0v233h178v627h-178v232h503v-859h154v-233h-657zM600 1262h-471v233h471v-233z" />
    <glyph glyph-name="Iogonek" unicode="&#x12e;" horiz-adv-x="731" 
d="M394 -324q-122 0 -203 70t-80 195q0 35 8 59h-92v233h180v1014h-180v232h678v-232h-187v-1014h187v-233h-289q-33 -23 -33 -55q0 -41 49 -41q10 0 70 24q70 -90 72 -94t67 -90q-125 -68 -247 -68z" />
    <glyph glyph-name="iogonek" unicode="&#x12f;" horiz-adv-x="710" 
d="M121 -84q0 45 16 84h-110v233h178v627h-178v232h503v-859h154v-233h-207q-41 -16 -63 -34t-21 -46q0 -41 49 -41q10 0 70 25q70 -90 72 -94t67 -91q-125 -67 -247 -67t-202 70q-81 70 -81 194zM363 1524q83 0 135 -39t51 -114t-51 -111t-135 -37q-85 0 -133 38
q-48 39 -48 111t49 112t132 40z" />
    <glyph glyph-name="Idotaccent" unicode="&#x130;" horiz-adv-x="731" 
d="M27 0v233h180v1014h-180v232h678v-232h-187v-1014h187v-233h-678zM370 1589q-85 0 -133 38q-49 38 -49 111q0 72 50 112t132 40q83 0 134 -39t51 -113t-50 -112q-50 -37 -135 -37z" />
    <glyph glyph-name="dotlessi" unicode="&#x131;" horiz-adv-x="710" 
d="M27 0v233h178v627h-178v232h503v-859h154v-233h-657z" />
    <glyph glyph-name="Kcommaaccent" unicode="&#x136;" horiz-adv-x="1554" 
d="M1014 -135l-271 -461h-301l185 461h387zM1530 233v-233h-789v233h99q-54 47 -160 143t-160 142v-285h148v-233h-641v233h184v1014h-184v232h616v-232h-123v-221q45 37 131 111t131 110h-65v232h753v-232h-296q-350 -295 -568 -469q519 -441 639 -545h285z" />
    <glyph glyph-name="kcommaaccent" unicode="&#x137;" horiz-adv-x="1462" 
d="M1010 -160l-271 -461h-301l185 461h387zM1047 0h-50q-80 47 -475 350v-117h86v-233l-243 -2l-338 2v233h184v1174h-182v231h493v-882q79 62 137 104h-84v232h799v-232h-313q-369 -266 -443 -307q74 -41 455 -320h363v-233l-389 -2v2z" />
    <glyph glyph-name="Lacute" unicode="&#x139;" horiz-adv-x="1290" 
d="M41 0v233h186v1014h-186v232h678v-232h-182v-1014h489v129h240v-362h-1225zM762 1966q-37 -29 -174 -170t-174 -170h-371q35 27 172 169t174 171h373z" />
    <glyph glyph-name="lacute" unicode="&#x13a;" horiz-adv-x="782" 
d="M35 233h182v1174h-178l2 117v114h487v-1405h187v-233l-340 -2l-340 2v233zM756 2075q-37 -29 -173 -170t-173 -170h-373q37 29 174 171t172 169h373z" />
    <glyph glyph-name="Lcommaaccent" unicode="&#x13b;" horiz-adv-x="1275" 
d="M934 -137l-270 -461h-302l185 461h387zM27 0v233h186v1014h-186v232h678v-232h-183v-1014h490v129h239v-362h-1224z" />
    <glyph glyph-name="lcommaaccent" unicode="&#x13c;" horiz-adv-x="731" 
d="M641 -133l-270 -461h-301l186 461h385zM27 233h182v1174h-178v231h487v-1405h187v-233l-340 -2l-338 2v233z" />
    <glyph glyph-name="Lcaron" unicode="&#x13d;" horiz-adv-x="1388" 
d="M1364 1477l-270 -461h-301l184 461h387zM27 0v233h186v1014h-186v232h678v-232h-183v-1014h490v129h239v-362h-1224z" />
    <glyph glyph-name="lcaron" unicode="&#x13e;" horiz-adv-x="1226" 
d="M1200 1638l-270 -460h-301l186 460h385zM27 233h182v1174h-178v231h487v-1405h187v-233l-340 -2l-338 2v233z" />
    <glyph glyph-name="Lslash" unicode="&#x141;" horiz-adv-x="1273" 
d="M522 233h488v129h239v-362h-1224l2 117v116h184v209q-30 -24 -121 -102v256q74 63 121 100v551h-186l2 117v115h678v-232h-183v-289q111 92 180 152v-256l-180 -152v-469z" />
    <glyph glyph-name="lslash" unicode="&#x142;" horiz-adv-x="729" 
d="M25 233h182v332q-25 -20 -75 -62l-75 -63v256l150 125v586h-178l2 117v114h487v-557q143 121 152 127v-254q-107 -86 -152 -127v-594h187v-233l-340 -2l-340 2v233z" />
    <glyph glyph-name="Nacute" unicode="&#x143;" horiz-adv-x="1865" 
d="M705 233v-233h-678v233h184v1014h-182v232h520q270 -358 815 -1076v844h-182v232h659v-232h-166v-1247h-358q-733 965 -797 1049v-816h185zM1313 1968q-37 -29 -173 -170t-173 -170h-373q39 29 176 171t170 169h373z" />
    <glyph glyph-name="nacute" unicode="&#x144;" horiz-adv-x="1509" 
d="M27 0v233h182v627h-182v232h493v-111q143 117 353 117t319 -115t108 -332v-418h183v-233h-647v233h155v396q0 231 -213 231q-154 0 -258 -131v-496h152v-233h-645zM1165 1602q-37 -29 -173 -170t-173 -170h-373q38 29 176 171t171 169h372z" />
    <glyph glyph-name="Ncommaaccent" unicode="&#x145;" horiz-adv-x="1865" 
d="M1210 -145l-270 -461h-301l186 461h385zM705 233v-233h-678v233h184v1014h-182v232h520q270 -358 815 -1076v844h-182v232h659v-232h-166v-1247h-358q-733 965 -797 1049v-816h185z" />
    <glyph glyph-name="ncommaaccent" unicode="&#x146;" horiz-adv-x="1509" 
d="M1061 -129l-270 -461h-302l187 461h385zM27 0v233h182v627h-182v232h493v-111q143 117 353 117t319 -115t108 -332v-418h183v-233h-647v233h155v396q0 231 -213 231q-154 0 -258 -131v-496h152v-233h-645z" />
    <glyph glyph-name="Ncaron" unicode="&#x147;" horiz-adv-x="1865" 
d="M705 233v-233h-678v233h184v1014h-182v232h520q270 -358 815 -1076v844h-182v232h659v-232h-166v-1247h-358q-733 965 -797 1049v-816h185zM705 1636q-35 27 -173 169t-174 171h373q31 -25 189 -186q152 156 190 186h373q-37 -29 -174 -171t-172 -169h-432z" />
    <glyph glyph-name="ncaron" unicode="&#x148;" horiz-adv-x="1509" 
d="M27 0v233h182v627h-182v232h493v-111q143 117 353 117t319 -115t108 -332v-418h183v-233h-647v233h155v396q0 231 -213 231q-154 0 -258 -131v-496h152v-233h-645zM557 1270q-35 27 -172 169t-174 171h373q31 -25 188 -187q152 156 191 187h372q-37 -29 -174 -171
t-172 -169h-432z" />
    <glyph glyph-name="Omacron" unicode="&#x14c;" horiz-adv-x="1574" 
d="M336 737q0 -233 120 -368t338 -135t332 138t113 370q0 232 -123 368t-340 135q-217 0 -329 -137q-111 -138 -111 -371zM27 738q0 347 209 549t559 202t553 -201q202 -201 202 -547q0 -347 -208 -549t-558 -202t-554 200q-203 201 -203 548zM1022 1628h-473v234h473v-234z
" />
    <glyph glyph-name="omacron" unicode="&#x14d;" horiz-adv-x="1267" 
d="M624 864q-146 0 -221 -87t-75 -235t80 -230q80 -83 226 -84t222 83q76 83 76 231t-81 235t-227 87zM27 545q0 264 162 410q163 147 446 147t445 -148t161 -411q0 -265 -165 -409q-164 -144 -446 -144t-443 145q-160 146 -160 410zM862 1262h-473v233h473v-233z" />
    <glyph glyph-name="Ohungarumlaut" unicode="&#x150;" horiz-adv-x="1574" 
d="M336 737q0 -233 120 -368t338 -135t332 138t113 370q0 232 -123 368t-340 135q-217 0 -329 -137q-111 -138 -111 -371zM27 738q0 347 209 549t559 202t553 -201q202 -201 202 -547q0 -347 -208 -549t-558 -202t-554 200q-203 201 -203 548zM1409 2032l-270 -461h-301
l186 461h385zM940 2032l-270 -461h-301l186 461h385z" />
    <glyph glyph-name="ohungarumlaut" unicode="&#x151;" horiz-adv-x="1288" 
d="M624 864q-146 0 -221 -87t-75 -235t80 -230q80 -83 226 -84t222 83q76 83 76 231t-81 235t-227 87zM27 545q0 264 162 410q163 147 446 147t445 -148t161 -411q0 -265 -165 -409q-164 -144 -446 -144t-443 145q-160 146 -160 410zM1249 1665l-270 -461h-301l186 461h385z
M780 1665l-270 -461h-301l186 461h385z" />
    <glyph glyph-name="OE" unicode="&#x152;" horiz-adv-x="2144" 
d="M797 233q147 0 268 50v929q-121 33 -242 33q-235 0 -361 -139q-126 -138 -126 -378t119 -368t342 -127zM2120 0h-1172q-86 -10 -168 -10q-354 0 -555 186t-201 545t217 563q216 204 597 205q63 0 139 -10h1073v-361h-242v129h-432v-366h541v-234h-541v-414h504v129h240
v-362z" />
    <glyph glyph-name="oe" unicode="&#x153;" horiz-adv-x="2070" 
d="M1497 864q-197 0 -240 -188h488q-27 188 -248 188zM624 864q-146 0 -221 -87t-75 -235t80 -230q80 -83 226 -84t222 83q76 83 76 231t-81 235t-227 87zM27 545q0 264 162 410q163 147 445 147t443 -146q145 146 417 146t412 -129t140 -375v-139h-789q47 -229 302 -230
q127 0 247 90l179 -180q-105 -77 -201 -113t-225 -36q-305 0 -469 157q-162 -157 -452 -157t-451 145q-160 146 -160 410z" />
    <glyph glyph-name="Racute" unicode="&#x154;" horiz-adv-x="1675" 
d="M522 606v-373h183v-233h-678v233h184v1014h-184v232h741q256 1 403 -101t148 -315q0 -307 -289 -410q133 -176 311 -420h308v-233h-488l-448 606h-191zM713 1247h-191v-407h230q256 0 256 198q0 209 -295 209zM1053 1968q-37 -29 -173 -170t-173 -170h-373q37 29 174 171
t172 169h373z" />
    <glyph glyph-name="racute" unicode="&#x155;" horiz-adv-x="987" 
d="M100 233h183v627h-187l2 117v115h496v-91q152 100 367 101v-242q-127 0 -213 -16t-154 -70v-541h164v-233h-660l2 117v116zM791 1575q-37 -29 -173 -170t-174 -170h-372q37 29 174 171t172 169h373z" />
    <glyph glyph-name="Rcommaaccent" unicode="&#x156;" horiz-adv-x="1675" 
d="M1147 -145l-270 -461h-302l187 461h385zM522 606v-373h183v-233h-678v233h184v1014h-184v232h741q256 1 403 -101t148 -315q0 -307 -289 -410q133 -176 311 -420h308v-233h-488l-448 606h-191zM713 1247h-191v-407h230q256 0 256 198q0 209 -295 209z" />
    <glyph glyph-name="rcommaaccent" unicode="&#x157;" horiz-adv-x="915" 
d="M653 -139l-270 -461h-301l184 461h387zM29 0v233h182v627h-184v232h495v-93q152 102 369 103v-242q-129 0 -215 -16t-154 -70v-541h164v-233h-657z" />
    <glyph glyph-name="Rcaron" unicode="&#x158;" horiz-adv-x="1675" 
d="M522 606v-373h183v-233h-678v233h184v1014h-184v232h741q256 1 403 -101t148 -315q0 -307 -289 -410q133 -176 311 -420h308v-233h-488l-448 606h-191zM713 1247h-191v-407h230q256 0 256 198q0 209 -295 209zM444 1636q-33 27 -170 169t-176 171h373q31 -25 188 -186
q152 156 191 186h373q-39 -29 -176 -171t-170 -169h-433z" />
    <glyph glyph-name="rcaron" unicode="&#x159;" horiz-adv-x="1175" 
d="M182 233h183v627h-187l2 117v115h496v-91q152 100 366 101v-242q-127 0 -213 -16t-153 -70v-541h164v-233h-660l2 117v116zM373 1210q-39 29 -176 171t-170 169h372q39 -31 189 -188q143 152 190 188h371q-33 -27 -170 -169t-176 -171h-430z" />
    <glyph glyph-name="Sacute" unicode="&#x15a;" horiz-adv-x="1153" 
d="M523 -10q-261 0 -484 119h-2v325h239v-137q138 -63 258 -63t202 44q82 46 81 111q0 65 -52 113t-96 69q-44 20 -114 48t-146 60t-167 86q-92 54 -126 94q-87 101 -85 233q0 194 147 290q148 96 376 96t468 -124v-303h-240v159q-127 47 -224 47t-157 -37q-59 -38 -59 -112
v-4q0 -81 94 -138t226 -106q298 -124 383 -224t83 -237q0 -213 -172 -311t-433 -98zM952 1970q-37 -29 -173 -170t-173 -170h-373q37 29 175 171t172 169h372z" />
    <glyph glyph-name="sacute" unicode="&#x15b;" horiz-adv-x="978" 
d="M469 -10q-180 0 -440 106h-2v299h239v-121q117 -43 210 -43t136 25t43 66q0 57 -97 88q-28 8 -43 13t-49 13q-229 54 -330 131q-101 78 -101 226q0 309 428 309q94 0 203 -28t180 -64v-279h-240v107q-162 52 -252 7q-37 -19 -37 -58q1 -39 51 -64t212 -67t233 -83
q139 -80 139 -239q0 -344 -483 -344zM848 1599q-37 -29 -173 -169t-173 -170h-373q37 29 174 171t172 168h373z" />
    <glyph glyph-name="Scedilla" unicode="&#x15e;" horiz-adv-x="1153" 
d="M481 -508q-92 0 -211 57l105 183q92 -39 141 -39t49 31q0 16 -17 16t-38 -12q-104 92 -107 92l-106 94q8 12 55 86q-152 23 -313 109h-2v325h239v-137q138 -63 258 -63t202 44q82 46 81 111q0 65 -52 113t-96 69q-44 20 -114 48t-146 60t-167 86q-92 54 -126 94
q-87 101 -85 233q0 194 147 290q148 96 376 96t468 -124v-303h-240v159q-127 47 -224 47t-157 -37q-59 -38 -59 -112v-4q0 -81 94 -138t226 -106q298 -124 383 -224t83 -237q0 -336 -438 -397q-27 -43 -37 -57q156 -53 156 -217q0 -120 -89 -178t-239 -58z" />
    <glyph glyph-name="scedilla" unicode="&#x15f;" horiz-adv-x="978" 
d="M401 -498q-92 0 -211 58l54 90l51 92q92 -39 141 -39t49 31q0 16 -17 16t-38 -12q-104 92 -106 92l-107 94q4 6 19 31t36 57q-76 16 -243 84h-2v299h239v-121q117 -43 210 -43t136 25t43 66q0 57 -97 88q-28 8 -43 13t-49 13q-229 54 -330 131q-101 78 -101 226
q0 309 428 309q94 0 203 -28t180 -64v-279h-240v107q-162 52 -252 7q-37 -19 -37 -58q1 -39 51 -64t212 -67t233 -83q139 -80 139 -239q0 -291 -350 -336q-8 -14 -29 -43q156 -53 156 -217q0 -120 -89 -178t-239 -58z" />
    <glyph glyph-name="Scaron" unicode="&#x160;" horiz-adv-x="1185" 
d="M551 -10q-260 0 -483 119h-5v325h240v-137q137 -63 258 -63t202 44q81 46 81 125t-85 130q-85 52 -164 83q-79 30 -130 52q-243 102 -324 196q-82 93 -82 228q1 194 147 290t374 96t469 -124v-303h-240v159q-123 47 -222 47q-216 0 -216 -147v-6q0 -82 92 -137
q70 -43 231 -109q288 -118 375 -219q86 -101 86 -240q0 -213 -172 -311t-432 -98zM373 1638q-37 29 -174 171t-172 169h370q39 -31 191 -186q158 162 188 186h373q-35 -27 -172 -169t-174 -171h-430z" />
    <glyph glyph-name="scaron" unicode="&#x161;" horiz-adv-x="1175" 
d="M600 -10q-180 0 -438 106h-4v299h241v-123q119 -41 211 -41t135 25t43 66q0 55 -98 88q-60 18 -93 26q-229 55 -330 132t-101 225q0 309 428 309q96 0 205 -28t180 -64v-279h-242v109q-161 48 -250 6q-37 -18 -37 -58t50 -66t212 -68t232 -81q141 -78 141 -239
q0 -344 -485 -344zM373 1268q-37 29 -174 171t-172 169h370q39 -31 191 -187q158 162 188 187h373q-35 -27 -172 -169t-174 -171h-430z" />
    <glyph glyph-name="Tcommaaccent" unicode="&#x162;" horiz-adv-x="1353" 
d="M950 -141l-270 -461h-301l186 461h385zM334 0v231h186v1002h-256v-119h-237v365h1300v-365h-240v119h-256v-1002h183v-231h-680z" />
    <glyph glyph-name="tcommaaccent" unicode="&#x163;" horiz-adv-x="868" 
d="M768 -150l-270 -460h-301l184 460h387zM195 350v508h-168v234h168v102l309 149v-251h289v-234h-289v-496q0 -131 106 -131q70 0 131 31l52 -100l49 -103q-137 -72 -269 -71q-182 0 -280 91t-98 271z" />
    <glyph glyph-name="Tcaron" unicode="&#x164;" horiz-adv-x="1353" 
d="M334 0v231h186v1002h-256v-119h-237v365h1300v-365h-240v119h-256v-1002h183v-231h-680zM451 1632q-33 27 -170 169t-177 171h373q31 -25 189 -186q152 156 190 186h373q-39 -29 -176 -171t-170 -169h-432z" />
    <glyph glyph-name="tcaron" unicode="&#x165;" horiz-adv-x="868" 
d="M768 -150l-270 -460h-301l184 460h387zM195 350v508h-168v234h168v102l309 149v-251h289v-234h-289v-496q0 -131 106 -131q70 0 131 31l52 -100l49 -103q-137 -72 -269 -71q-182 0 -280 91t-98 271z" />
    <glyph glyph-name="Umacron" unicode="&#x16a;" horiz-adv-x="1779" 
d="M1556 596q0 -606 -667 -606t-668 579v678h-194v232h678v-232h-201v-633q0 -188 100 -277t301 -89q369 0 369 319v680h-197v232h676v-232h-197v-651zM1124 1628h-473v234h473v-234z" />
    <glyph glyph-name="umacron" unicode="&#x16b;" 
d="M977 0v96q-129 -106 -283 -106q-238 0 -362 114t-123 336v420h-182v232h493v-639q0 -223 209 -224q137 0 248 142v489h-184v232h495v-859h162v-233h-473zM938 1262h-473v233h473v-233z" />
    <glyph glyph-name="Uring" unicode="&#x16e;" horiz-adv-x="1779" 
d="M1556 596q0 -606 -667 -606t-668 579v678h-194v232h678v-232h-201v-633q0 -188 100 -277t301 -89q369 0 369 319v680h-197v232h676v-232h-197v-651zM797 1919q0 -88 94 -88t94 88q0 94 -100 94q-88 0 -88 -94zM890 1614q-164 0 -264 79t-100 225t98 225t264 79
q165 0 266 -78t101 -225t-100 -226t-265 -79z" />
    <glyph glyph-name="uring" unicode="&#x16f;" 
d="M977 0v96q-129 -106 -283 -106q-238 0 -362 114t-123 336v420h-182v232h493v-639q0 -223 209 -224q137 0 248 142v489h-184v232h495v-859h162v-233h-473zM610 1552q0 -88 94 -88t95 88q-1 94 -95 94t-94 -94zM340 1551q0 145 98 225t263 80t267 -78q101 -78 101 -226
t-100 -226q-99 -79 -265 -79t-265 79t-99 225z" />
    <glyph glyph-name="Uhungarumlaut" unicode="&#x170;" horiz-adv-x="1779" 
d="M1556 596q0 -606 -667 -606t-668 579v678h-194v232h678v-232h-201v-633q0 -188 100 -277t301 -89q369 0 369 319v680h-197v232h676v-232h-197v-651zM1511 2032l-270 -461h-301l186 461h385zM1042 2032l-270 -461h-301l186 461h385z" />
    <glyph glyph-name="uhungarumlaut" unicode="&#x171;" 
d="M977 0v96q-129 -106 -283 -106q-238 0 -362 114t-123 336v420h-182v232h493v-639q0 -223 209 -224q137 0 248 142v489h-184v232h495v-859h162v-233h-473zM1325 1665l-270 -461h-301l186 461h385zM856 1665l-270 -461h-301l186 461h385z" />
    <glyph glyph-name="Uogonek" unicode="&#x172;" horiz-adv-x="1779" 
d="M908 -344q-122 0 -202 70q-81 70 -81 194q0 53 20 92q-424 92 -424 557v678h-194v232h678v-232h-201v-633q0 -188 100 -277t301 -89q369 0 369 319v680h-197v232h676v-232h-197v-651q0 -575 -604 -604q-55 -29 -55 -69t47 -40q10 0 70 25l69 -92h2q2 -4 70 -92
q-125 -68 -247 -68z" />
    <glyph glyph-name="uogonek" unicode="&#x173;" 
d="M1124 -344q-118 0 -199 71t-81 195q0 61 28 107q-88 -39 -178 -39q-238 0 -362 114t-123 336v420h-182v232h493v-639q0 -223 209 -224q137 0 248 142v489h-184v232h495v-859h162v-233h-260q-74 -29 -74 -76q0 -41 47 -41q16 0 70 27l141 -186q-132 -68 -250 -68z" />
    <glyph glyph-name="Ydieresis" unicode="&#x178;" horiz-adv-x="1568" 
d="M942 231h168v-231h-676v231h168v469q-258 424 -336 547h-239v232h698v-232h-152q117 -203 201 -338l215 338h-145v232h698v-232h-244q-141 -220 -356 -547v-469zM1010 1589q-84 0 -132 38t-48 111q0 72 48 112q50 40 133 40t134 -39t51 -113t-51 -112q-51 -37 -135 -37z
M558 1589q-85 0 -133 38t-48 111q0 72 49 112t132 40t134 -39t51 -113t-50 -112q-50 -37 -135 -37z" />
    <glyph glyph-name="Zacute" unicode="&#x179;" horiz-adv-x="1411" 
d="M1145 362h241v-362h-1359v231q797 879 921 1016h-610v-129h-240v361h1256v-232q-920 -1001 -934 -1016l725 2v129zM1094 1964q-39 -29 -175 -170t-171 -170h-373q33 27 170 169t176 171h373z" />
    <glyph glyph-name="zacute" unicode="&#x17a;" horiz-adv-x="1099" 
d="M305 731h-239v361h987v-234q-436 -440 -506 -509t-113 -116h400v129h241v-362h-1048v233q403 418 478 493q76 76 128 132l-328 2v-129zM940 1602q-33 -27 -170 -169t-176 -171h-373q39 29 176 171t170 169h373z" />
    <glyph glyph-name="Zdotaccent" unicode="&#x17b;" horiz-adv-x="1411" 
d="M1145 362h241v-362h-1359v231q797 879 921 1016h-610v-129h-240v361h1256v-232q-920 -1001 -934 -1016l725 2v129zM706 1585q-85 0 -133 39q-47 39 -47 111q0 71 49 111t133 40t133 -39q50 -39 50 -113t-50 -112q-50 -37 -135 -37z" />
    <glyph glyph-name="zdotaccent" unicode="&#x17c;" horiz-adv-x="1099" 
d="M305 731h-239v361h987v-234q-436 -440 -506 -509t-113 -116h400v129h241v-362h-1048v233q403 418 478 493q76 76 128 132l-328 2v-129zM739 1371q0 -75 -50 -111t-135 -37q-85 0 -133 38q-48 39 -48 111t49 112t132 40t134 -39t51 -114z" />
    <glyph glyph-name="Zcaron" unicode="&#x17d;" horiz-adv-x="1411" 
d="M1145 362h241v-362h-1359v231q797 879 921 1016h-610v-129h-240v361h1256v-232q-920 -1001 -934 -1016l725 2v129zM485 1632q-37 29 -174 171t-172 169h373q31 -25 188 -186q158 162 189 186h373q-35 -27 -172 -169t-175 -171h-430z" />
    <glyph glyph-name="zcaron" unicode="&#x17e;" horiz-adv-x="1175" 
d="M344 731h-240v361h990v-234q-465 -470 -530 -533t-91 -92h401v129h240v-362h-1048v233q190 197 318 328t168 172t68 70t54 55l-330 2v-129zM373 1270q-39 29 -176 171t-170 169h370q39 -31 191 -187q158 162 188 187h373q-33 -27 -170 -169t-176 -171h-430z" />
    <glyph glyph-name="florin" unicode="&#x192;" horiz-adv-x="1001" 
d="M135 -127q-47 0 -108 10l55 232q8 -2 36 -2q28 -1 58 29q29 30 39 77q78 332 160 715h-94v233h147q6 33 23 99q16 66 22 98q37 152 139 232t252 81q45 0 111 -10l-57 -233q-8 2 -23 2q-78 0 -98 -84l-43 -185h114v-233h-168l-174 -750q-35 -152 -137 -232t-254 -79z" />
    <glyph glyph-name="Scommaaccent" unicode="&#x218;" horiz-adv-x="1153" 
d="M707 -147l-271 -461h-301l187 461h385zM523 -10q-261 0 -484 119h-2v325h239v-137q138 -63 258 -63t202 44q82 46 81 111q0 65 -52 113t-96 69q-44 20 -114 48t-146 60t-167 86q-92 54 -126 94q-87 101 -85 233q0 194 147 290q148 96 376 96t468 -124v-303h-240v159
q-127 47 -224 47t-157 -37q-59 -38 -59 -112v-4q0 -81 94 -138t226 -106q298 -124 383 -224t83 -237q0 -213 -172 -311t-433 -98z" />
    <glyph glyph-name="scommaaccent" unicode="&#x219;" horiz-adv-x="983" 
d="M623 -147l-271 -461h-301l185 461h387zM471 -10q-180 0 -438 106h-4v299h241v-123q119 -41 211 -41t135 25t43 66q0 55 -98 88q-60 18 -93 26q-229 55 -330 132t-101 225q0 309 428 309q96 0 205 -28t180 -64v-279h-242v109q-161 48 -250 6q-36 -18 -36 -58t49 -66
t211 -68t233 -81q141 -78 141 -239q0 -344 -485 -344z" />
    <glyph glyph-name="circumflex" unicode="&#x2c6;" horiz-adv-x="1175" 
d="M776 1210q-31 25 -188 187q-152 -156 -191 -187h-370q33 27 170 169t176 171h430q39 -29 176 -171t170 -169h-373z" />
    <glyph glyph-name="caron" unicode="&#x2c7;" horiz-adv-x="1175" 
d="M373 1190q-37 29 -174 171t-172 169h370q39 -31 191 -187q158 162 188 187h373q-35 -27 -172 -169t-174 -171h-430z" />
    <glyph glyph-name="breve" unicode="&#x2d8;" horiz-adv-x="868" 
d="M435 1333q112 0 112 84h297q0 -159 -113 -237t-301 -78t-296 79t-107 238h297q-1 -86 111 -86z" />
    <glyph glyph-name="dotaccent" unicode="&#x2d9;" horiz-adv-x="417" 
d="M391 1328q0 -76 -50 -112t-135 -36t-132 39t-47 111t49 111q49 40 132 40t133 -39t50 -114z" />
    <glyph glyph-name="ring" unicode="&#x2da;" horiz-adv-x="780" 
d="M295 1282q0 -90 94 -90t94 90t-94 90t-94 -90zM27 1279q0 146 97 225t262 79t267 -79q103 -78 103 -226t-100 -226t-267 -77q-166 0 -264 79t-98 225z" />
    <glyph glyph-name="ogonek" unicode="&#x2db;" horiz-adv-x="583" 
d="M311 -342q-122 0 -203 70t-81 194q0 61 16 87q15 25 25 41t34 32t35 26q12 10 45 24t45 20q11 6 51 22t52 21l55 -82h2q2 -4 55 -80q-10 -5 -59 -25t-67 -36t-17 -46q0 -41 47 -41q10 0 70 25l69 -92h2q2 -4 70 -92q-124 -68 -246 -68z" />
    <glyph glyph-name="tilde" unicode="&#x2dc;" horiz-adv-x="1079" 
d="M731 1106q-131 0 -242 92q-4 4 -18 15t-19 15t-27 18q-22 13 -64 15q-41 1 -70 -33t-60 -104l-204 99q80 272 327 272q128 1 218 -71t154 -72t120 125l102 -52h2q6 -4 103 -51q-97 -268 -322 -268z" />
    <glyph glyph-name="hungarumlaut" unicode="&#x2dd;" horiz-adv-x="1091" 
d="M1067 1733l-270 -461h-301l184 461h387zM598 1733l-270 -461h-301l184 461h387z" />
    <glyph glyph-name="pi" unicode="&#x3c0;" horiz-adv-x="1265" 
d="M786 78v868h-315v-868h-289v868h-157v254h1216v-254h-166v-868h-289z" />
    <glyph glyph-name="endash" unicode="&#x2013;" horiz-adv-x="901" 
d="M874 455h-847v254h847v-254z" />
    <glyph glyph-name="emdash" unicode="&#x2014;" horiz-adv-x="1503" 
d="M1477 455h-1450v256h1450v-256z" />
    <glyph glyph-name="quoteleft" unicode="&#x2018;" horiz-adv-x="622" 
d="M27 1331l270 461h301l-186 -461h-385z" />
    <glyph glyph-name="quoteright" unicode="&#x2019;" horiz-adv-x="622" 
d="M598 1479l-270 -461h-301l184 461h387z" />
    <glyph glyph-name="quotesinglbase" unicode="&#x201a;" horiz-adv-x="624" 
d="M598 258l-270 -461h-301l186 461h385z" />
    <glyph glyph-name="quotedblleft" unicode="&#x201c;" horiz-adv-x="1093" 
d="M27 1389l270 460h301l-184 -460h-387zM496 1389l270 460h301l-184 -460h-387z" />
    <glyph glyph-name="quotedblright" unicode="&#x201d;" horiz-adv-x="1091" 
d="M1067 1733l-270 -461h-301l184 461h387zM598 1733l-270 -461h-301l184 461h387z" />
    <glyph glyph-name="quotedblbase" unicode="&#x201e;" horiz-adv-x="1087" 
d="M1061 258l-270 -461h-302l187 461h385zM598 258l-270 -461h-301l186 461h385z" />
    <glyph glyph-name="dagger" unicode="&#x2020;" horiz-adv-x="1245" 
d="M1221 836h-449v-1450h-289v1450h-458v256h458v493h289v-493h449v-256z" />
    <glyph glyph-name="daggerdbl" unicode="&#x2021;" horiz-adv-x="1245" 
d="M1221 -137h-449v-477h-289v477h-458v256h458v717h-458v256h458v493h289v-493h449v-256h-449v-717h449v-256z" />
    <glyph glyph-name="bullet" unicode="&#x2022;" horiz-adv-x="784" 
d="M388 600q-169 0 -265 77t-96 221t98 224t263 80t267 -78q103 -78 103 -228t-100 -222q-100 -74 -270 -74z" />
    <glyph glyph-name="ellipsis" unicode="&#x2026;" horiz-adv-x="1306" 
d="M844 131q0 -151 -187 -151q-82 0 -130 38t-48 112q0 73 49 113t132 40q84 0 134 -39t50 -113zM1280 131q0 -151 -186 -151q-84 0 -132 38t-48 112q0 73 48 113q50 40 133 40t134 -39t51 -113zM393 131q0 -149 -186 -149q-84 0 -132 38t-48 110q0 73 49 113t132 40
t134 -39t51 -113z" />
    <glyph glyph-name="perthousand" unicode="&#x2030;" horiz-adv-x="3334" 
d="M2642 386q0 -108 51 -174t150 -67q174 0 174 240q0 109 -47 172t-140 64h-4q-92 0 -138 -63q-46 -64 -46 -172zM1819 621q-93 0 -139 -63q-46 -64 -46 -172t52 -174t149 -67q174 0 174 240q0 109 -47 172t-139 64h-4zM2363 386q0 214 129 335q128 121 346 121t345 -119
t127 -333t-130 -340t-348 -126t-344 124q-125 124 -125 338zM1356 386q0 214 129 335t346 121t344 -119t127 -333t-130 -340t-348 -126t-343 124t-125 338zM303 994q0 -108 51 -174t152 -66q174 0 174 239q0 106 -47 171t-139 65h-5q-92 0 -139 -63q-47 -64 -47 -172z
M864 -68h-282l895 1512h282zM25 994q0 214 129 335t347 121t344 -118t126 -332t-129 -342q-129 -126 -348 -126t-344 124t-125 338z" />
    <glyph glyph-name="guilsinglleft" unicode="&#x2039;" horiz-adv-x="491" 
d="M467 188q-207 121 -440 263v276q234 139 440 268v-266q-23 -12 -219 -139q123 -78 219 -135v-267z" />
    <glyph glyph-name="guilsinglright" unicode="&#x203a;" horiz-adv-x="491" 
d="M27 995q108 -68 440 -268v-276q-37 -20 -205 -121t-235 -142v267q96 57 219 135q-197 127 -219 139v266z" />
    <glyph glyph-name="fraction" unicode="&#x2044;" horiz-adv-x="1226" 
d="M307 -68h-282l895 1512h282z" />
    <glyph glyph-name="foursuperior" unicode="&#x2074;" horiz-adv-x="894" 
d="M401 1122v119l-98 -119h98zM213 664v190h188v66h-264l-112 202l376 459h281v-459h135v-202h-135v-66h188v-190h-657z" />
    <glyph glyph-name="Euro" unicode="&#x20ac;" horiz-adv-x="1527" 
d="M897 -10q-266 0 -448 108t-259 310h-165v245h118q-2 17 -2 57t2 60h-118v246h163q78 229 276 351t472 122t555 -150v-297h-240v144q-141 61 -313 61q-305 0 -424 -231h420v-246h-481q-2 -16 -2 -56t2 -61h481v-245h-402q119 -176 379 -177q127 0 225 34t210 112l157 -187
q-133 -104 -273 -152t-333 -48z" />
    <glyph glyph-name="trademark" unicode="&#x2122;" horiz-adv-x="1939" 
d="M1223 702v-188h-373v188h96q14 78 45 244t45 252h-82v184h318q33 -121 108 -421q76 301 109 421h317v-184h-88l97 -496h98v-188h-371v188h27q-4 23 -10 68t-11 68q-53 -164 -73 -246h-191q-37 131 -74 235q-6 -64 -18 -125h31zM600 702h78v-188h-408v188h82v496h-100v-61
h-225v245h882v-245h-225v61h-84v-496z" />
    <glyph glyph-name="estimated" unicode="&#x212e;" horiz-adv-x="1501" 
d="M761 1255q-120 0 -202 -47v-344h406v344q-84 47 -204 47zM809 -10q-373 0 -579 209t-206 552t196 541t543 199t530 -191t184 -514v-135h-918v-358q103 -66 239 -66t230 32t197 114l172 -168q-135 -115 -271 -165t-317 -50z" />
    <glyph glyph-name="partialdiff" unicode="&#x2202;" horiz-adv-x="1161" 
d="M573 721q-113 1 -181 -63t-66 -177q0 -113 57 -185t168 -73h4q242 2 285 377q-84 121 -267 121zM531 -10q-219 0 -363 123q-143 123 -143 345t146 353t388 131q174 0 293 -74q-8 389 -262 389q-80 0 -193 -65l-73 88l-76 86q102 66 181 96t175 29q254 0 392 -179
q138 -180 138 -448t-56 -453t-192 -303t-355 -118z" />
    <glyph glyph-name="product" unicode="&#x220f;" horiz-adv-x="1730" 
d="M25 0v233h182v1174h-178v231h1677v-231h-184v-1174h184v-233h-678v233h182v1174h-692v-1174h187v-233h-680z" />
    <glyph glyph-name="summation" unicode="&#x2211;" horiz-adv-x="1073" 
d="M1049 1479v-379h-283v147h-352l534 -495l-549 -519h367v144h283v-375l-283 231l283 -233h-1024v233l563 512l-543 502v232h1004zM1049 1479l-142 -115q87 69 142 115z" />
    <glyph glyph-name="minus" unicode="&#x2212;" horiz-adv-x="1249" 
d="M1223 516h-1196v256h1196v-256z" />
    <glyph glyph-name="divisionslash" unicode="&#x2215;" horiz-adv-x="1226" 
d="M307 -68h-282l895 1512h282z" />
    <glyph glyph-name="bulletoperator" unicode="&#x2219;" horiz-adv-x="784" 
d="M388 600q-169 0 -265 77t-96 221t98 224t263 80t267 -78q103 -78 103 -228t-100 -222q-100 -74 -270 -74z" />
    <glyph glyph-name="radical" unicode="&#x221a;" horiz-adv-x="1437" 
d="M1413 1479q-21 -54 -577 -1479h-308q-43 111 -215 553h-288v231h481q53 -133 87 -218t54 -138t33 -84l448 1135h285z" />
    <glyph glyph-name="infinity" unicode="&#x221e;" horiz-adv-x="1812" 
d="M516 418q-203 0 -346 110t-143 289t144 285t352 106t372 -164q166 162 379 162q212 0 362 -106t150 -286t-150 -287t-366 -107t-385 174q-166 -176 -369 -176zM1282 651q80 0 141 45t61 120t-60 116q-62 41 -148 41q-127 0 -225 -144q51 -86 101 -132t130 -46zM511 649
q75 0 122 43t96 123q-45 76 -93 118t-122 42t-129 -42t-55 -115t53 -121t128 -48z" />
    <glyph glyph-name="integral" unicode="&#x222b;" horiz-adv-x="997" 
d="M133 -127q-47 0 -108 10l57 234q8 -2 22 -2q86 0 111 106q43 189 128 571t128 572q39 152 141 232t252 81q43 0 109 -10l-55 -231q-8 2 -21 2q-80 0 -100 -84q-62 -284 -271 -1170q-37 -152 -139 -232t-254 -79z" />
    <glyph glyph-name="approxequal" unicode="&#x2248;" horiz-adv-x="1298" 
d="M905 631q45 0 72 36t57 113q188 -74 240 -94q-62 -152 -148 -224t-212 -70q-126 1 -199 29q-72 28 -168 97q-72 49 -150 49q-92 0 -141 -155q-127 49 -231 94q51 156 140 230t243 73q100 0 169 -29t158 -96q86 -53 170 -53zM408 1260q100 0 169 -28t158 -95
q82 -54 170 -54q45 0 72 36t57 112q121 -45 240 -92q-62 -154 -148 -225q-86 -72 -212 -70t-199 30q-72 28 -168 97q-71 49 -137 49t-98 -41t-56 -117q-55 22 -231 94q51 156 140 230t243 74z" />
    <glyph glyph-name="notequal" unicode="&#x2260;" horiz-adv-x="1372" 
d="M1346 324h-723l-193 -322h-283l193 322h-313v243h456l127 211h-583v244h729l180 303h283l-181 -303h308v-244h-453l-127 -211h580v-243z" />
    <glyph glyph-name="lessequal" unicode="&#x2264;" horiz-adv-x="1349" 
d="M1325 -4h-1300v244h1300v-244zM1325 307q-868 311 -1300 467v258q432 156 1300 467v-256q-631 -225 -946 -340q315 -115 946 -340v-256z" />
    <glyph glyph-name="greaterequal" unicode="&#x2265;" horiz-adv-x="1349" 
d="M27 -4v244h1298v-244h-1298zM27 1499q131 -47 1298 -467v-258q-215 -78 -649 -234t-649 -233v256q805 289 944 340q-139 51 -944 340v256z" />
    <glyph glyph-name="lozenge" unicode="&#x25ca;" horiz-adv-x="1093" 
d="M336 928q96 -166 211 -355q96 164 213 355q-143 233 -213 352q-98 -159 -211 -352zM25 928q49 82 366 612h309q6 -10 369 -612q-147 -246 -369 -613h-309q-200 330 -366 613z" />
    <glyph glyph-name="commaaccent" unicode="&#xf6c3;" horiz-adv-x="624" 
d="M598 258l-270 -461h-301l186 461h385z" />
    <glyph glyph-name="fi" unicode="&#xfb01;" horiz-adv-x="1165" 
d="M594 240v-240h-526v240h145v665h-203v240h203v82q0 231 136 371t382 141q147 0 330 -58v-370h-328v188q-188 -8 -188 -272v-82h514l2 2v-907h94v-240h-463v240h39v665h-186v-665h49z" />
    <glyph glyph-name="fl" unicode="&#xfb02;" horiz-adv-x="1546" 
d="M1323 240h193v-240h-615v240h94v665h-307v-665h109v-240h-652v240h213v665h-327v240h327v80q0 239 161 375t421 137q170 -1 383 -58v-1439zM688 1221v-76h307v356h-8l-33 -2q-122 0 -194 -77t-72 -201z" />
    <glyph glyph-name="tcedilla" horiz-adv-x="866" 
d="M193 350v508h-168v234h168v102l311 149v-251h289v-234h-289v-496q0 -66 24 -98t86 -33q64 0 127 31l99 -203q-111 -57 -209 -69q-18 -25 -35 -53q154 -53 154 -220q0 -121 -89 -177t-214 -56t-236 57l104 183q87 -41 139 -41t52 32q0 17 -18 17t-37 -15l-105 95
q-4 4 -106 92q17 34 90 145q-137 92 -137 301z" />
    <glyph glyph-name="Tcedilla" horiz-adv-x="1351" 
d="M625 -504q-92 0 -213 58l104 182q96 -39 144 -39t49 31q1 16 -19 16t-37 -12l-213 186q8 10 52 82h-158v231h186v1002h-256v-119h-239v365h1302v-365h-242v119h-254v-1002h181v-231h-183q-6 -8 -16 -26t-16 -25q156 -51 155 -217q0 -120 -88 -178t-239 -58z" />
    <glyph glyph-name="softhyphen" horiz-adv-x="851" 
d="M825 612h-798v256h798v-256z" />
    <glyph glyph-name="litre" horiz-adv-x="729" 
d="M25 233h182v1174h-178l2 117v114h487v-1405h187v-233l-340 -2l-340 2v233z" />
    <glyph glyph-name="ruble" horiz-adv-x="1304" 
d="M616 1247h-98v-391h111q158 0 223 26t91 64q26 39 26 101q1 119 -91 159t-262 41zM25 0v233h182v66h-139v246h139v65h-139v246h139v391h-182v232h632q185 0 319 -39t219 -137t85 -252q0 -236 -166 -336t-457 -105h-139v-65h389v-246h-389v-66h187v-233h-680z" />
    <glyph glyph-name="nullsuperior" horiz-adv-x="995" 
d="M489 1341q-92 -1 -139 -63t-47 -170t51 -174q50 -66 146 -66q180 0 180 238q0 106 -47 171t-139 64h-5zM25 1109q0 214 128 334t347 120t345 -118t126 -333t-129 -340t-348 -125t-344 124t-125 338z" />
    <glyph glyph-name="omegamath" horiz-adv-x="1710" 
d="M70 711q0 358 215 568t573 210t567 -209t209 -563q0 -285 -141 -484h193v-233h-441l-182 233q262 180 262 484q0 244 -133 392t-352 148q-219 1 -339 -151t-120 -395q0 -156 59 -270t185 -208l-170 -233h-430v233h190q-145 202 -145 478z" />
    <glyph glyph-name="apostrophemod" horiz-adv-x="622" 
d="M598 1479l-270 -461h-301l184 461h387z" />
    <glyph glyph-name="mumath" 
d="M694 -10q-96 0 -174 18v-622h-309v1001q-2 18 -2 55v418h-182v234h493v-641q0 -223 209 -224q137 0 248 144v487h-184v234h495v-861h162v-231h-473v94q-129 -106 -283 -106z" />
    <glyph glyph-name="macronmod" horiz-adv-x="526" 
d="M500 1171h-473v234h473v-234z" />
    <glyph glyph-name="turkishlira" horiz-adv-x="1599" 
d="M25 0v233h180v281h-142v246h142v117h-142v245h142v125h-180v232h682v-232h-193v-125h457v-245h-457v-117h457v-246h-457v-281h285q231 0 349 127t118 365h309q0 -365 -207 -545t-596 -180h-747z" />
    <glyph glyph-name="rupee" horiz-adv-x="1372" 
d="M0 0v41h1372v-41h-1372z" />
    <glyph glyph-name="deltamath" horiz-adv-x="1431" 
d="M326 256h780l-385 938zM1407 0h-1382v256l544 1284h310l528 -1284v-256z" />
    <glyph glyph-name="logo" horiz-adv-x="4136" 
d="M3508 -10q-260 0 -483 119h-4v325h239v-137q136 -63 258 -63t202 44q80 46 81 126q0 80 -87 131q-87 52 -155 79q-69 27 -74 30t-90 36q-85 34 -171 87q-88 52 -122 92q-87 101 -85 233q0 194 146 290q147 96 375 96t468 -124v-303h-240v159q-123 47 -222 47
q-216 0 -216 -147v-6q0 -81 83 -132t207 -101q122 -51 174 -75q169 -80 231 -154q91 -106 89 -243q0 -213 -172 -311t-432 -98zM334 0v231h186v1002h-256v-119h-239v365h1302v-365h-242v119h-254v-1002h181v-231h-678zM2130 1247h-234v-1014h283q469 0 469 482
q0 532 -518 532zM1407 0v233h178v1014h-178v232h737q395 -1 604 -189t209 -559t-207 -551t-596 -180h-747z" />
    </font>
</defs>
</svg>
