<?xml version="1.0" standalone="no"?>
<!DOCTYPE svg PUBLIC "-//W3C//DTD SVG 1.1//EN" "http://www.w3.org/Graphics/SVG/1.1/DTD/svg11.dtd" >
<svg xmlns="http://www.w3.org/2000/svg">
<metadata>
Created by FontPrep 20130207 at Thu Feb 19 11:05:04 2015
 By Simon Egli
</metadata>
<defs>
<font id="5b614197d42457318b33823d53c2738c" horiz-adv-x='1024' >
  <font-face 
    font-family="SeanSlab-CompressedThin"
    font-weight="400"
    font-stretch="normal"
    units-per-em="2048"
    panose-1="0 0 0 0 0 0 0 0 0 0"
    ascent="1434"
    descent="-614"
    x-height="1092"
    cap-height="1479"
    bbox="-70 -623 2714 2177.01"
    underline-thickness="0"
    underline-position="0"
    unicode-range="U+0020-FB02"
  />
<missing-glyph horiz-adv-x="1024" 
d="M205 -512h614v2048h-614v-2048zM102 -614v2252h820v-2252h-820z" />
    <glyph glyph-name=".notdef" horiz-adv-x="1024" 
d="M205 -512h614v2048h-614v-2048zM102 -614v2252h820v-2252h-820z" />
    <glyph glyph-name=".null" horiz-adv-x="0" 
 />
    <glyph glyph-name="nonmarkingreturn" horiz-adv-x="681" 
 />
    <glyph glyph-name="space" unicode=" " horiz-adv-x="491" 
 />
    <glyph glyph-name="exclam" unicode="!" horiz-adv-x="428" 
d="M246 39q0 -29 -30 -29t-30 29t30 29t30 -29zM240 469h-52v1010h52v-1010z" />
    <glyph glyph-name="quotedbl" unicode="&#x22;" horiz-adv-x="692" 
d="M504 1094h-47v385h47v-385zM238 1094h-50v385h50v-385z" />
    <glyph glyph-name="numbersign" unicode="#" horiz-adv-x="1032" 
d="M649 551l103 457h-359l-100 -457h356zM817 506h-129l-94 -426h-49l94 426h-356l-90 -412h-48l91 412h-138l6 22l5 23h137l100 457h-143l6 22l4 21h141l95 428h49l-95 -428h357l96 428h49l-96 -428h123l-4 -21l-6 -22h-121l-103 -457h129l-4 -23z" />
    <glyph glyph-name="dollar" unicode="$" horiz-adv-x="860" 
d="M432 -88h-49v186q-123 8 -260 105v246h45v-220q135 -88 252 -88q118 0 194 74t76 184q0 109 -73 191t-203 159t-195 161q-66 84 -65 202q0 117 65 196q66 79 180 89v186h50v-184q135 -6 264 -107v-245h-45v223q-118 86 -230 86t-172 -70t-61 -174q0 -104 59 -177
t189 -153q131 -80 209 -170t78 -212t-85 -207q-84 -86 -223 -95v-186z" />
    <glyph glyph-name="percent" unicode="%" horiz-adv-x="1406" 
d="M860 223q0 -285 103 -354q43 -29 107 -29q131 0 170 117q34 102 34 275q0 172 -42 272t-161 100h-4q-127 0 -167 -109t-40 -272zM813 223q0 426 255 426t255 -422q0 -201 -56 -315t-198 -115q-256 0 -256 426zM131 1141q0 -285 102 -355q43 -28 107 -28q132 1 169 109
q36 109 36 283t-42 272q-42 99 -161 100h-4q-129 0 -168 -109t-39 -272zM432 -190h-55l610 1740h57zM84 1141q0 426 255 426t255 -422q0 -201 -56 -316t-198 -114q-256 0 -256 426z" />
    <glyph glyph-name="ampersand" unicode="&#x26;" horiz-adv-x="1026" 
d="M428 -10q-141 0 -220 104t-79 252t62 244q62 98 184 203q-150 217 -150 389q1 135 55 221t162 86t166 -84t58 -212t-58 -222t-168 -191q68 -98 324 -477q47 109 102 359l23 -5l20 -6q-57 -266 -112 -393q57 -86 176 -258h-60q-79 120 -141 207q-119 -217 -344 -217z
M430 37q201 0 309 215q-96 145 -293 436l-43 62q-111 -92 -167 -180t-56 -220q0 -131 66 -222t184 -91zM614 1187q0 111 -44 183t-128 72t-125 -74t-41 -176q0 -104 35 -185t101 -184q100 84 151 168t51 196z" />
    <glyph glyph-name="quotesingle" unicode="'" horiz-adv-x="425" 
d="M238 1094h-50v385h50v-385z" />
    <glyph glyph-name="parenleft" unicode="(" horiz-adv-x="538" 
d="M119 669q0 364 78 633t276 547l33 -26q-190 -273 -263 -537t-73 -620t73 -618t265 -533l-16 -15l-19 -14q-199 281 -276 550q-78 269 -78 633z" />
    <glyph glyph-name="parenright" unicode=")" horiz-adv-x="557" 
d="M387 668q0 354 -77 617t-275 538l18 14l17 12q206 -276 288 -546t82 -634t-86 -640t-291 -576l-36 31q197 293 278 562q82 268 82 622z" />
    <glyph glyph-name="asterisk" unicode="*" horiz-adv-x="786" 
d="M418 1370q0 -92 -4 -276l174 100l12 -20l12 -23q-33 -16 -190 -96q63 -91 139 -205l-20 -12l-21 -15q-41 63 -127 199q-86 -135 -127 -201l-18 15l-21 14q45 70 140 205q-158 80 -191 96l23 43q76 -41 174 -100q0 92 -4 276h49z" />
    <glyph glyph-name="plus" unicode="+" horiz-adv-x="1216" 
d="M1102 608h-469v-571h-49v571h-469v49h469v547h49v-547h469v-49z" />
    <glyph glyph-name="comma" unicode="," horiz-adv-x="442" 
d="M113 -281h-50l136 340h63z" />
    <glyph glyph-name="hyphen" unicode="-" horiz-adv-x="772" 
d="M594 532h-416v50h416v-50z" />
    <glyph glyph-name="period" unicode="." horiz-adv-x="403" 
d="M202 -4q-30 0 -30 29t30 29t29 -29q1 -29 -29 -29z" />
    <glyph glyph-name="slash" unicode="/" horiz-adv-x="817" 
d="M78 -137l612 1863h49q-137 -417 -610 -1863h-51z" />
    <glyph glyph-name="zero" unicode="0" horiz-adv-x="1097" 
d="M190 722q0 -500 180 -631q75 -54 166 -54q91 -1 148 25q99 44 160 186t61 495q0 162 -12 272q-31 283 -157 374q-75 53 -178 53q-188 0 -272 -136q-75 -118 -90 -348q-6 -94 -6 -236zM139 720q0 152 8 254q19 242 111 379q92 136 295 136q102 0 176 -40t117 -103
q83 -121 102 -367q8 -101 8 -237q0 -444 -109 -608q-97 -144 -296 -144q-255 0 -339 223q-73 193 -73 507z" />
    <glyph glyph-name="one" unicode="1" horiz-adv-x="735" 
d="M139 0v45h244v1364l-254 -301l-16 16l-19 15l289 340h49v-1434h250v-45h-543z" />
    <glyph glyph-name="two" unicode="2" horiz-adv-x="866" 
d="M674 45v246h43v-291h-615v45q109 145 326 440q238 338 238 592q0 365 -232 365q-110 0 -169 -90q-43 -65 -95 -199l-45 21q51 150 122 232t189 83q281 0 281 -410q0 -274 -258 -628l-301 -406h516z" />
    <glyph glyph-name="three" unicode="3" horiz-adv-x="851" 
d="M485 791q236 -75 236 -415q0 -170 -84 -278t-252 -108q-76 0 -133 30t-129 95l27 32q68 -57 118 -84t119 -26q129 0 206 98t77 262q0 163 -84 267t-219 104v39q117 0 187 90t69 232q-1 141 -59 227t-179 86q-72 0 -127 -47t-90 -109l-16 12l-19 11q37 74 105 127t151 53
q141 0 213 -97t72 -242q0 -284 -189 -359z" />
    <glyph glyph-name="four" unicode="4" horiz-adv-x="937" 
d="M530 588v796l-413 -796h413zM283 0v45h247v498h-436l-28 45l464 891h50v-891h251v-45h-251v-498h245v-45h-542z" />
    <glyph glyph-name="five" unicode="5" horiz-adv-x="819" 
d="M371 -10q-133 0 -256 100l28 37q70 -49 118 -69t112 -21q137 0 206 121t68 301q0 180 -61 294t-199 113q-84 0 -154 -55l-22 10l-25 10v648h476v-45h-429v-564q74 43 158 43q156 0 232 -128q75 -129 75 -329t-82 -333t-245 -133z" />
    <glyph glyph-name="six" unicode="6" horiz-adv-x="903" 
d="M469 37q125 -1 186 109t62 268q0 377 -256 377q-109 0 -181 -82t-104 -199v-14q0 -459 293 -459zM768 414q0 -192 -74 -308t-239 -116q-166 0 -248 137t-82 367q0 370 163 628t474 381l10 -20l8 -21q-262 -106 -412 -313t-184 -494q94 182 281 183q155 0 229 -116
t74 -308z" />
    <glyph glyph-name="seven" unicode="7" horiz-adv-x="827" 
d="M147 1434v-201h-43v246h684v-45l-579 -1434h-55l589 1434h-596z" />
    <glyph glyph-name="eight" unicode="8" horiz-adv-x="872" 
d="M434 37q125 0 189 83q63 83 63 217t-61 224t-187 182q-129 -92 -190 -180q-62 -88 -62 -224t62 -219t186 -83zM213 1164q0 -122 55 -198t170 -161q113 80 167 158t54 190q0 289 -227 289q-111 0 -165 -78t-54 -200zM164 1170q0 140 67 229q68 90 205 90t205 -89
q68 -90 68 -230q-1 -140 -57 -224t-173 -172q131 -98 195 -193t63 -249q0 -154 -78 -248t-226 -94t-223 95t-75 249q-1 154 63 246q64 94 199 194q-121 88 -177 172t-56 224z" />
    <glyph glyph-name="nine" unicode="9" horiz-adv-x="899" 
d="M436 688q190 0 285 281v14q0 459 -293 459q-127 0 -186 -104t-60 -273q0 -377 254 -377zM432 641q-156 0 -228 115q-72 116 -73 308q0 192 73 308t226 117q342 0 342 -504q0 -373 -150 -624t-475 -392l-20 47q539 240 590 838q-92 -213 -285 -213z" />
    <glyph glyph-name="colon" unicode=":" horiz-adv-x="415" 
d="M178 25q0 29 30 29t30 -30q0 -28 -30 -28t-30 29zM178 877q0 29 30 29t30 -30q0 -28 -30 -28t-30 29z" />
    <glyph glyph-name="semicolon" unicode=";" horiz-adv-x="602" 
d="M369 168l-160 -371h-49l145 371h64zM385 876q0 -28 -30 -28t-29 29q0 29 30 29q30 -2 29 -30z" />
    <glyph glyph-name="less" unicode="&#x3c;" horiz-adv-x="1089" 
d="M971 49q-297 180 -887 541v49l872 553v-49l-833 -529l848 -516v-49z" />
    <glyph glyph-name="equal" unicode="=" horiz-adv-x="1261" 
d="M1081 422h-901v47h901v-47zM1081 877h-901v47h901v-47z" />
    <glyph glyph-name="greater" unicode="&#x3e;" horiz-adv-x="1087" 
d="M117 1192l887 -541v-49l-873 -553v49l834 529l-848 516v49z" />
    <glyph glyph-name="question" unicode="?" horiz-adv-x="679" 
d="M243 -4q-30 0 -30 28t30 28t29 -29q1 -27 -29 -27zM266 453h-49v231h10q133 0 201 106t68 267q0 160 -60 255t-182 95q-53 0 -107 -31l-16 45q70 33 127 33q139 0 214 -111t75 -283t-72 -288q-72 -117 -209 -133v-186z" />
    <glyph glyph-name="at" unicode="@" 
d="M616 68q78 0 114 68t58 200v59q0 147 -37 230q-39 82 -141 82t-142 -80t-40 -233q0 -154 38 -240t150 -86zM635 -334q-266 0 -389 195t-123 524q0 215 49 371t168 251t299 95q475 0 475 -703v-39q0 -246 -72 -290q-35 -23 -90 -23q-127 0 -153 148q-45 -172 -181 -172
t-187 99q-50 99 -50 277q0 352 235 353q217 0 218 -355v-73q0 -111 14 -156q25 -80 105 -80t97 97q13 75 13 212q0 657 -428 658q-241 1 -351 -181t-110 -487q0 -676 465 -676q129 0 223 76l12 -20l11 -21q-105 -80 -250 -80z" />
    <glyph glyph-name="A" unicode="A" 
d="M504 45v-45h-551v45h237q365 1237 422 1434h50l374 -1434h242v-45h-553v45h260q-83 333 -121 475h-481q-23 -80 -69 -238t-68 -237h258zM852 567q-143 557 -217 836l-240 -836h457z" />
    <glyph glyph-name="B" unicode="B" horiz-adv-x="1075" 
d="M590 817h-211v-772h199q156 0 238 100q82 101 83 279q-1 178 -77 286t-232 107zM575 1434h-196v-572h211q117 0 179 74t62 206t-65 212q-66 80 -191 80zM80 0v45h246v1389h-244v45h493q147 -1 227 -93t79 -249q0 -225 -170 -295q238 -80 237 -424q0 -194 -96 -306
t-274 -112h-498z" />
    <glyph glyph-name="C" unicode="C" horiz-adv-x="1056" 
d="M573 -10q-251 0 -348 210q-86 185 -88 505q0 575 238 725q93 59 243 59t316 -148v-245h-45v227q-139 117 -273 117t-220 -56q-207 -137 -210 -677q0 -488 197 -614q80 -50 193 -50q114 0 192 47t160 141q16 -16 18 -16l17 -18q-93 -103 -179 -155t-211 -52z" />
    <glyph glyph-name="D" unicode="D" horiz-adv-x="1228" 
d="M575 1434h-198v-1389h223q451 0 451 682q-1 707 -476 707zM84 0v45h244v1389h-244v45h494q272 0 397 -203t125 -543q0 -341 -120 -537t-384 -196h-512z" />
    <glyph glyph-name="E" unicode="E" horiz-adv-x="1067" 
d="M82 0v45h246v1389h-246v45h836v-269h-46v224h-495v-646h450v-45h-450v-698h545v223h45v-268h-885z" />
    <glyph glyph-name="F" unicode="F" horiz-adv-x="1028" 
d="M82 0v45h246v1389h-246v45h842v-269h-45v224h-502v-646h442v-45h-442v-698h246v-45h-541z" />
    <glyph glyph-name="G" unicode="G" horiz-adv-x="1179" 
d="M627 -10q-496 0 -496 750t479 749q215 0 402 -174v-246h-45v227q-170 143 -357 144q-428 0 -428 -688q0 -523 229 -660q89 -53 216 -53q203 0 364 147v422h-286v45h331v-495q-108 -88 -198 -128t-211 -40z" />
    <glyph glyph-name="H" unicode="H" horiz-adv-x="1427" 
d="M82 0v45h246v1389h-246v45h541v-45h-246v-668h674v668h-244v45h541v-45h-248v-1389h248v-45h-541v45h244v676h-674v-676h246v-45h-541z" />
    <glyph glyph-name="I" unicode="I" horiz-adv-x="704" 
d="M82 0v45h246v1389h-246v45h543v-45h-248v-1389h248v-45h-543z" />
    <glyph glyph-name="J" unicode="J" horiz-adv-x="811" 
d="M240 35q169 0 202 167q21 98 21 236v996h-244v45h541v-45h-248v-996q0 -224 -55 -336t-207 -112q-94 0 -187 88q16 16 27 35q86 -78 150 -78z" />
    <glyph glyph-name="K" unicode="K" horiz-adv-x="1220" 
d="M1221 45v-45h-521v45h222q-365 463 -545 694v-694h205v-45h-500v45h246v1389h-246v45h500v-45h-205v-619l510 619h-219v45h520v-45h-232q-201 -243 -550 -656l587 -733h228z" />
    <glyph glyph-name="L" unicode="L" horiz-adv-x="1038" 
d="M80 0v45h248v1389h-248v45h541v-45h-244v-1389h534v223h45v-268h-876z" />
    <glyph glyph-name="M" unicode="M" horiz-adv-x="1634" 
d="M422 1348l-72 -1303h244v-45h-541v45h246l82 1389h-244v45h295q92 -342 385 -1411l381 1411h297v-45h-248l86 -1389h250v-45h-543v45h244q-29 459 -76 1301l-358 -1346h-64q-176 655 -364 1348z" />
    <glyph glyph-name="N" unicode="N" horiz-adv-x="1445" 
d="M623 45v-45h-541v45h246v1389h-244v45h299q334 -637 719 -1385v1340h-244v45h541v-45h-248v-1434h-57q-357 687 -717 1380v-1335h246z" />
    <glyph glyph-name="O" unicode="O" horiz-adv-x="1153" 
d="M188 754q0 -418 113 -580q43 -61 114 -99t165 -38q181 0 270 133t107 357q9 95 10 216q0 396 -115 562q-96 137 -290 137q-106 0 -184 -56q-190 -133 -190 -632zM137 720q0 441 132 622q105 147 321 147q115 0 204 -57q219 -140 220 -690q2 -550 -220 -694
q-89 -58 -216 -58t-217 58q-155 102 -203 400q-20 126 -21 272z" />
    <glyph glyph-name="P" unicode="P" horiz-adv-x="1013" 
d="M84 0v45h244v1389h-244v45h459q172 0 263 -131t91 -334t-81 -321t-241 -120q-98 0 -198 72v-600h248v-45h-541zM578 621q134 1 202 109t68 288t-79 298t-232 118h-160v-736q105 -77 201 -77z" />
    <glyph glyph-name="Q" unicode="Q" horiz-adv-x="1155" 
d="M384 93q81 -54 198 -54q234 0 316 214q69 178 71 490q0 510 -197 645q-80 54 -197 54t-197 -56q-192 -134 -192 -646q0 -513 198 -647zM137 740q0 748 443 749q201 0 302 -140t125 -370q11 -104 11 -248q0 -298 -77 -494q-87 -223 -314 -245q90 -219 212 -328t320 -108
v-48q-219 0 -353 119t-231 363q-438 2 -438 750z" />
    <glyph glyph-name="R" unicode="R" horiz-adv-x="1226" 
d="M1268 45v-45h-283q-174 348 -352 698q-12 -2 -35 -2h-221v-651h246v-45h-543v45h248v1389h-248v45h512q162 -1 246 -101t84 -269q0 -348 -238 -402l334 -662h250zM584 1434h-207v-693h227q135 -1 201 95q65 96 65 257t-72 251t-214 90z" />
    <glyph glyph-name="S" unicode="S" horiz-adv-x="907" 
d="M426 -10q-84 0 -145 30t-138 99v246h45v-222q68 -57 119 -83t123 -25q129 0 205 87t76 221t-66 222t-204 182q-139 93 -203 181t-64 232t72 236q72 91 207 91q82 0 140 -30t140 -99v-246h-45v227q-126 103 -238 103t-168 -79t-56 -206t60 -207t197 -175t207 -190t70 -250
t-88 -250t-246 -95z" />
    <glyph glyph-name="T" unicode="T" horiz-adv-x="1085" 
d="M270 0v45h248v1385h-375v-222h-45v271h889v-271h-45v222h-375v-1385h246v-45h-543z" />
    <glyph glyph-name="U" unicode="U" horiz-adv-x="1361" 
d="M1065 539q0 -265 -87 -407t-299 -142t-298 145t-86 420v879h-242v45h541v-45h-252v-871q0 -254 76 -389t261 -135t262 128t77 363v904h-248v45h541v-45h-246v-895z" />
    <glyph glyph-name="V" unicode="V" horiz-adv-x="1243" 
d="M-39 1434v45h553v-45h-258q55 -205 367 -1348q188 692 364 1348h-260v45h553v-45h-240q-86 -312 -385 -1434h-63q-305 1110 -393 1434h-238z" />
    <glyph glyph-name="W" unicode="W" horiz-adv-x="1554" 
d="M-16 1434v45h542v-45h-256q125 -747 224 -1321l4 -21l112 588q100 524 152 799h57q39 -231 119 -693t119 -692q78 446 237 1340h-254v45h541v-45h-235l-267 -1434h-45q-42 232 -122 696t-121 695l-271 -1391h-45l-256 1434h-235z" />
    <glyph glyph-name="X" unicode="X" 
d="M1251 45v-45h-540v45h239q-217 451 -323 676q-55 -113 -161 -338t-163 -338h234v-45h-541v45h244l356 737q-205 434 -309 652h-248v45h541v-45h-234q123 -260 281 -588q33 66 90 184t105 217q48 98 89 187h-237v45h540v-45h-245q-187 -400 -312 -652l353 -737h241z" />
    <glyph glyph-name="Y" unicode="Y" horiz-adv-x="1146" 
d="M598 45h244v-45h-541v45h244v645l-320 744h-243v45h540v-45h-241q49 -115 146 -342t144 -342q133 291 308 684h-240v45h541v-45h-246q-241 -540 -336 -744v-645z" />
    <glyph glyph-name="Z" unicode="Z" horiz-adv-x="1013" 
d="M928 0h-844v45q420 809 539 1037t182 352h-612v-224h-43v269h712v-45q-420 -810 -538 -1038t-183 -351h744v223h43v-268z" />
    <glyph glyph-name="bracketleft" unicode="[" horiz-adv-x="479" 
d="M399 -254h-233v1833h233v-49h-184v-1735h184v-49z" />
    <glyph glyph-name="backslash" unicode="\" horiz-adv-x="782" 
d="M698 -139h-51q-94 311 -281 934t-282 934h53q395 -1307 561 -1868z" />
    <glyph glyph-name="bracketright" unicode="]" horiz-adv-x="481" 
d="M315 -254h-235v49h186v1735h-186v49h235v-1833z" />
    <glyph glyph-name="asciicircum" unicode="^" horiz-adv-x="854" 
d="M152 954q151 440 249 705h50q41 -113 127 -353t127 -352h-50q-182 506 -229 635q-33 -94 -225 -635h-49z" />
    <glyph glyph-name="underscore" unicode="_" horiz-adv-x="976" 
d="M977 -430h-979v45h979v-45z" />
    <glyph glyph-name="grave" unicode="`" horiz-adv-x="819" 
d="M422 1210h-60q-41 55 -118 169q-78 114 -119 171h59q41 -57 119 -171t119 -169z" />
    <glyph glyph-name="a" unicode="a" horiz-adv-x="919" 
d="M635 0v227q-35 -65 -54 -97q-60 -100 -130 -125q-43 -15 -101 -15q-219 0 -219 299q0 262 244 313q152 29 260 51v131q0 135 -47 204t-166 69t-219 -129v-223h-43v245q119 152 278 152q246 0 246 -303v-754h236v-45h-285zM180 286q0 -116 40 -184t139 -67q99 0 156 73
q47 58 120 205v299q-113 -23 -262 -51q-93 -20 -143 -90q-50 -69 -50 -185z" />
    <glyph glyph-name="b" unicode="b" horiz-adv-x="1038" 
d="M586 35h2q270 0 270 504q0 379 -134 477q-56 41 -138 41q-156 0 -281 -205v-635q123 -182 281 -182zM588 -10q-168 0 -283 153v-143h-291v45h242v1548h-242v45h291v-714q125 178 285 178q317 0 317 -556t-319 -556z" />
    <glyph glyph-name="c" unicode="c" horiz-adv-x="839" 
d="M463 -10q-90 0 -159 41q-173 103 -173 514t176 516q69 41 181 41t225 -133v-246h-45v233q-100 100 -203 100t-171 -70t-90 -178q-24 -108 -24 -242t12 -220q30 -204 136 -272q59 -39 136 -39t134 50t94 118l19 -10l18 -13q-95 -190 -266 -190z" />
    <glyph glyph-name="d" unicode="d" horiz-adv-x="1044" 
d="M733 0v156q-94 -166 -248 -166q-184 0 -272 154t-88 397q0 336 147 481q82 80 217 80t244 -129v620h-246v45h297v-1593h246v-45h-297zM478 1057q-156 -1 -230 -145t-74 -367t74 -367t232 -143q157 0 253 215v651q-100 156 -255 156z" />
    <glyph glyph-name="e" unicode="e" horiz-adv-x="870" 
d="M442 1057q-145 0 -198 -118t-56 -335h500v21q0 320 -120 399q-50 33 -126 33zM470 -10q-267 0 -318 354q-14 98 -14 224q-2 397 154 495q62 39 164 39t168 -67q68 -67 90 -167t21 -247v-62h-547q0 -392 144 -485q59 -39 139 -39t127 37t100 112l37 -28q-59 -84 -117 -125
t-148 -41z" />
    <glyph glyph-name="f" unicode="f" horiz-adv-x="716" 
d="M78 0v45h246v952h-242v45h242v277q0 145 54 237t167 93q78 0 155 -58v-245h-43v227q-55 33 -112 33q-172 0 -172 -295v-269h272v-45h-272v-952h245v-45h-540z" />
    <glyph glyph-name="g" unicode="g" horiz-adv-x="872" 
d="M428 -580q133 0 219 79t86 202t-87 189t-228 83q-74 8 -135 41q-143 -92 -144 -288q0 -134 78 -220t211 -86zM154 719q0 174 70 278q71 105 204 105t207 -107q31 25 166 129l14 -18l14 -21l-172 -129q43 -92 43 -232t-72 -238q-72 -99 -204 -99q-80 0 -139 39
q-76 -68 -76 -178t60 -166q61 -54 189 -70t224 -93t96 -210v-4q0 -150 -100 -239t-254 -89q-154 1 -244 97t-90 250q0 207 158 313q-88 67 -88 193t92 223q-98 92 -98 266zM430 1059q-113 1 -170 -93t-57 -229t58 -221t168 -86t166 88t56 225t-54 227t-167 89z" />
    <glyph glyph-name="h" unicode="h" horiz-adv-x="1095" 
d="M14 0v45h246v1548h-246v45h295v-770q43 104 116 169t167 65q139 0 195 -106t57 -291v-660h243v-45h-485v45h193v653q0 170 -44 264q-43 94 -153 95q-110 0 -179 -84t-110 -209v-719h191v-45h-486z" />
    <glyph glyph-name="i" unicode="i" horiz-adv-x="614" 
d="M70 0v45h243v1002h-243v45h297v-1047h229v-45h-526zM339 1346q-30 0 -30 28t30 27q30 1 30 -27t-30 -28z" />
    <glyph glyph-name="j" unicode="j" horiz-adv-x="512" 
d="M78 -569q86 0 135 84t49 194v1338h-248v45h297v-1383q0 -139 -61 -235t-174 -97q-8 0 -45 7q4 20 4 22l2 6q0 2 1 7t3 16q16 -4 37 -4zM289 1346q-29 0 -29 28t29 27q29 0 28 -29q1 -26 -28 -26z" />
    <glyph glyph-name="k" unicode="k" horiz-adv-x="1073" 
d="M1104 45v-45h-285q-96 102 -275 288t-235 244v-487h228v-45h-523v45h246v1548h-244v45h293v-1044q72 76 215 226t215 227h-200v45h510v-45h-242l-461 -484l498 -518h260z" />
    <glyph glyph-name="l" unicode="l" horiz-adv-x="571" 
d="M16 0v45h244v1548h-242v45h291v-1593h248v-45h-541z" />
    <glyph glyph-name="m" unicode="m" horiz-adv-x="1572" 
d="M541 45v-45h-471v45h245v1002h-245v45h295v-211q80 223 256 223q106 0 154 -60t61 -178q80 236 253 236t208 -158q20 -85 20 -239v-660h248v-45h-471v45h174v653q0 212 -24 260q-32 73 -82 90q-32 11 -75 11q-158 0 -245 -293v-721h174v-45h-400v45h177v653
q-1 167 -21 240t-59 98t-103 25q-94 0 -149 -80t-96 -219v-717h176z" />
    <glyph glyph-name="n" unicode="n" horiz-adv-x="1148" 
d="M848 698q0 359 -196 359q-104 0 -178 -86q-73 -86 -109 -207v-719h176v-45h-471v45h245v1002h-245v45h295v-222q43 102 115 167q73 65 167 65q139 0 195 -106t55 -291v-660h244v-45h-471v45h178v653z" />
    <glyph glyph-name="o" unicode="o" horiz-adv-x="929" 
d="M180 549q0 -385 139 -475q59 -39 145 -39q168 0 231 151q53 131 54 366t-61 371t-224 136q-160 0 -222 -135t-62 -375zM725 138q-74 -148 -266 -148t-263 165q-65 146 -65 399t74 400q74 148 265 148t262 -164q65 -144 66 -399q1 -253 -73 -401z" />
    <glyph glyph-name="p" unicode="p" horiz-adv-x="1040" 
d="M12 -614v45h246v1616h-244v45h293v-140q115 150 283 150q319 0 319 -533q0 -419 -161 -533q-66 -46 -162 -46q-158 0 -279 174v-733h232v-45h-527zM586 35q274 0 274 502v28q0 494 -272 494q-90 0 -163 -51t-118 -121v-649q70 -102 129 -153q60 -50 150 -50z" />
    <glyph glyph-name="q" unicode="q" horiz-adv-x="1034" 
d="M459 33q160 0 276 221v641q-131 162 -278 162q-279 0 -279 -512t281 -512zM494 -614v45h241v745q-117 -188 -276 -188q-328 0 -330 557t326 557q152 0 280 -144v134h285v-45h-234v-1616h234v-45h-526z" />
    <glyph glyph-name="r" unicode="r" horiz-adv-x="759" 
d="M70 0v45h245v1002h-245v45h295v-172q113 182 333 182v-45q-112 1 -198 -59t-135 -162v-791h231v-45h-526z" />
    <glyph glyph-name="s" unicode="s" horiz-adv-x="782" 
d="M401 -10q-128 0 -274 110v246h45v-221q130 -90 232 -90q102 -1 151 65t49 168v4q0 102 -53 162t-162 111q-213 96 -213 317q0 104 56 172t168 68t216 -94v-246h-45v227q-86 68 -175 68q-89 -1 -132 -55t-43 -140q0 -195 182 -274q125 -57 187 -129t62 -195
q1 -122 -61 -198t-190 -76z" />
    <glyph glyph-name="t" unicode="t" horiz-adv-x="643" 
d="M412 -10q-94 0 -134 78t-40 225v754h-197v45h197v213l49 28v-241h315v-45h-315v-750q-1 -127 29 -193t102 -66t145 56l25 -45q-82 -59 -176 -59z" />
    <glyph glyph-name="u" unicode="u" horiz-adv-x="1079" 
d="M782 0v211q-100 -221 -260 -221q-264 0 -264 389v668h-246v45h295v-709q0 -348 221 -348q80 0 148 84t106 192v736h-245v45h294v-1047h232v-45h-281z" />
    <glyph glyph-name="v" unicode="v" horiz-adv-x="1126" 
d="M2 1047v45h502v-45h-205q150 -559 260 -969l277 969h-205v45h499v-45h-241l-301 -1047h-58q-43 158 -286 1047h-242z" />
    <glyph glyph-name="w" unicode="w" horiz-adv-x="1591" 
d="M2 1047v45h520v-45h-231q39 -161 113 -479t112 -478l260 1002h62l117 -498q79 -332 118 -500l234 953h-211v45h499v-45h-235l-262 -1047h-49q-41 168 -121 502t-121 502l-268 -1004h-50q-102 438 -251 1047h-236z" />
    <glyph glyph-name="x" unicode="x" horiz-adv-x="1155" 
d="M1143 45v-45h-500v45h193q-84 158 -256 473q-118 -219 -261 -473h191v-45h-500v45h248q43 78 293 526q-41 72 -260 476h-252v45h479v-45h-172l234 -424q156 283 235 424h-176v45h481v-45h-250l-262 -478q193 -348 289 -524h246z" />
    <glyph glyph-name="y" unicode="y" horiz-adv-x="1118" 
d="M43 -614v45h240q164 483 247 725l-282 891h-238v45h520v-45h-225l252 -811l277 811h-203v45h499v-45h-241q-500 -1469 -565 -1661h-281z" />
    <glyph glyph-name="z" unicode="z" horiz-adv-x="837" 
d="M731 0h-622v45q252 489 514 1002h-443v-224h-43v269h545v-45q-174 -336 -273 -530q-99 -193 -117 -227t-43 -85q-26 -51 -83 -160h520v223h45v-268z" />
    <glyph glyph-name="braceleft" unicode="{" horiz-adv-x="507" 
d="M412 -254q-188 0 -189 309v365q0 250 -143 250v47q143 0 143 246v368q0 307 189 307v-45q-84 -1 -114 -69t-30 -193v-362q0 -217 -98 -277q98 -59 98 -276v-363q0 -125 30 -193t114 -69v-45z" />
    <glyph glyph-name="bar" unicode="|" horiz-adv-x="385" 
d="M217 -614h-49v2252h49v-2252z" />
    <glyph glyph-name="braceright" unicode="}" horiz-adv-x="507" 
d="M96 -254v45q86 0 116 69t30 193v363q0 215 96 276q-96 61 -96 277v362q0 125 -30 194t-116 68v45q190 0 191 -307v-368q0 -246 141 -246v-47q-141 0 -141 -250v-365q-1 -309 -191 -309z" />
    <glyph glyph-name="asciitilde" unicode="~" horiz-adv-x="1089" 
d="M379 662q-84 0 -115 -69q-20 -45 -41 -144l-20 6l-21 4q23 123 63 185t136 63q55 0 95 -28t84 -82q85 -104 148 -104q63 1 82 22q46 50 67 151q7 33 9 39l43 -9q-36 -160 -76 -203q-40 -42 -108 -42q-67 -1 -111 29t-89 84q-44 54 -73 76q-30 22 -73 22z" />
    <glyph glyph-name="exclamdown" unicode="&#xa1;" horiz-adv-x="428" 
d="M240 0h-52v1010h52v-1010zM182 1440q0 28 30 28t30 -28t-30 -29q-30 0 -30 29z" />
    <glyph glyph-name="cent" unicode="&#xa2;" horiz-adv-x="978" 
d="M532 -109h-51v220q-199 10 -279 181t-79 458q0 182 36 316t125 225t228 100v202h49v-202q164 -6 293 -156l-16 -12l-17 -15q-123 135 -282 135q-193 1 -280 -161t-87 -430q0 -433 170 -550q68 -46 166 -46t168 45t143 135l19 -14l16 -17q-152 -182 -322 -194v-220z" />
    <glyph glyph-name="sterling" unicode="&#xa3;" horiz-adv-x="808" 
d="M672 45v-45h-578v45q123 0 173 79t50 213t-43 413h-129v45h123q-28 205 -28 354t57 243t199 95q100 0 196 -101l-30 -30q-80 84 -170 84q-203 0 -203 -310q0 -113 30 -335h285v-45h-278q37 -283 36 -396q0 -229 -106 -309h416z" />
    <glyph glyph-name="currency" unicode="&#xa4;" horiz-adv-x="899" 
d="M453 938q-189 0 -189 -309t193 -310q102 0 140 84t38 232q0 303 -182 303zM215 638q0 150 49 234q-82 115 -121 172l35 35q18 -29 58 -84t57 -82q59 70 159 70t154 -63q14 20 54 75t61 86l18 -16l17 -18l-119 -168q49 -90 49 -242t-43 -240q82 -115 121 -172l-16 -16
l-19 -16q-74 106 -113 159q-60 -76 -166 -76t-165 80q-21 -27 -59 -81t-58 -82l-16 18l-19 16q40 62 125 174q-43 87 -43 237z" />
    <glyph glyph-name="yen" unicode="&#xa5;" horiz-adv-x="1337" 
d="M70 1434v45h520v-45h-221q204 -479 290 -691q57 127 310 691h-221v45h520v-45h-244q-52 -113 -154 -337t-153 -337h266v-49h-289q-2 -8 -10 -25v-170h299v-49h-299v-422h246v-45h-541v45h246v422h-293v49h293v170l-10 25h-283v49h262l-289 674h-245z" />
    <glyph glyph-name="brokenbar" unicode="&#xa6;" horiz-adv-x="430" 
d="M240 -614h-50v761h50v-761zM240 877h-50v761h50v-761z" />
    <glyph glyph-name="section" unicode="&#xa7;" horiz-adv-x="786" 
d="M152 303h45v-225q98 -94 192 -94q178 0 178 221q0 86 -47 143t-139 103q-119 53 -180 123t-62 178q0 203 160 286q-111 88 -111 246q0 116 54 186t155 70q102 0 213 -88v-246h-45v228q-86 61 -169 61t-121 -58t-37 -153q0 -174 155 -250q131 -58 197 -122t67 -173
q0 -225 -163 -295q122 -88 122 -224q2 -281 -230 -281q-116 0 -234 118v246zM412 492q23 -10 39 -21q158 57 157 268q0 101 -74 157q-52 40 -115 71q-62 32 -83 45q-147 -72 -148 -260q0 -92 56 -148t168 -112z" />
    <glyph glyph-name="dieresis" unicode="&#xa8;" horiz-adv-x="651" 
d="M340 1370q0 -29 -30 -29t-29 29q-1 29 29 29t30 -29zM168 1370q0 -29 -30 -29t-29 29q-1 29 29 29t30 -29z" />
    <glyph glyph-name="copyright" unicode="&#xa9;" horiz-adv-x="1183" 
d="M774 780h-45v146q-57 45 -125 45q-190 0 -190 -316q0 -145 38 -228t137 -83t169 80l33 -29q-82 -96 -203 -96q-225 0 -226 354q0 164 58 263q58 100 174 100t180 -66v-170zM598 1280q-210 0 -312 -176t-102 -449q0 -272 106 -446t313 -174q206 0 302 173t96 443
q1 175 -37 313t-132 227t-234 89zM133 655q0 289 118 479t347 189q154 0 258 -94q195 -176 195 -576q0 -278 -104 -464q-52 -93 -140 -146t-203 -53q-231 0 -351 188t-120 477z" />
    <glyph glyph-name="ordfeminine" unicode="&#xaa;" horiz-adv-x="763" 
d="M483 881v92q-63 -94 -148 -94t-129 51t-44 135q0 162 174 199q20 4 70 12t77 14v92q0 63 -33 103q-34 39 -96 39t-123 -74v-92h-43v112q82 98 167 98t131 -46q46 -47 46 -125v-471h72v-45h-121zM211 1069q0 -65 34 -105t90 -40t86 28t62 88v211q-66 -14 -149 -28
q-123 -27 -123 -154z" />
    <glyph glyph-name="guillemotleft" unicode="&#xab;" horiz-adv-x="1050" 
d="M530 313l-376 228v49l374 229v-49l-333 -205l335 -205v-47zM897 313l-377 228v49l375 229v-49l-334 -205l336 -205v-47z" />
    <glyph glyph-name="logicalnot" unicode="&#xac;" horiz-adv-x="1290" 
d="M1110 313h-49v295h-836v49h885v-344z" />
    <glyph glyph-name="registered" unicode="&#xae;" horiz-adv-x="1183" 
d="M582 604h-66v-256h94v-43h-254v43h109v613h-109v45h240q78 0 119 -56t41 -147q0 -147 -99 -187l113 -268h92v-43h-129q-94 240 -121 301q-10 -2 -30 -2zM588 961h-72v-312h74q117 0 117 150q0 74 -30 118t-89 44zM600 1280q-211 0 -312 -176q-102 -176 -102 -448
t106 -447q106 -174 313 -174q206 0 302 173t97 443q0 379 -170 540q-95 89 -234 89zM606 -10q-231 0 -351 188t-120 477t118 479t347 189q154 0 258 -94q195 -176 195 -576q0 -278 -104 -464q-52 -93 -140 -146t-203 -53z" />
    <glyph glyph-name="macron" unicode="&#xaf;" horiz-adv-x="585" 
d="M367 1350h-322v43h322v-43z" />
    <glyph glyph-name="degree" unicode="&#xb0;" horiz-adv-x="778" 
d="M195 884q0 -175 23 -255q22 -80 64 -111t106 -31q129 0 165 121q31 105 31 249q0 143 -12 219t-60 131q-46 57 -118 57t-112 -29q-87 -63 -87 -351zM147 887q1 195 53 307t189 113q137 0 189 -114t53 -310q0 -323 -120 -405q-50 -34 -124 -34t-123 34q-87 60 -107 237
q-10 72 -10 172z" />
    <glyph glyph-name="plusminus" unicode="&#xb1;" horiz-adv-x="1286" 
d="M1137 35h-987v49h468v524h-468v49h468v547h50v-547h469v-49h-469v-524h469v-49z" />
    <glyph glyph-name="twosuperior" unicode="&#xb2;" horiz-adv-x="806" 
d="M582 616v183h45v-228h-463v45q90 106 278 314q39 49 59 79q52 82 52 170q0 87 -36 142t-103 55q-66 0 -100 -39t-64 -114l-21 10l-20 8q59 180 201 180q92 1 141 -67t49 -162t-30 -154t-95 -143q-183 -203 -248 -279h355z" />
    <glyph glyph-name="threesuperior" unicode="&#xb3;" horiz-adv-x="733" 
d="M356 563h-18q-90 0 -164 68l25 33q72 -57 145 -58h8q78 0 122 50t45 132t-63 130q-65 47 -169 55v47q92 8 151 56q60 48 60 127t-39 127t-110 48t-132 -90l-35 25q68 109 166 109t148 -59q50 -58 51 -157q0 -164 -170 -211q193 -43 192 -202v-5q1 -102 -57 -164t-156 -61
z" />
    <glyph glyph-name="acute" unicode="&#xb4;" horiz-adv-x="456" 
d="M315 1550l-237 -340h-60q153 216 238 340h59z" />
    <glyph glyph-name="paragraph" unicode="&#xb6;" horiz-adv-x="1091" 
d="M872 45v1389h-208v-1389h208zM414 621q96 0 200 77v736h-159q-154 0 -233 -118t-79 -298t68 -288t203 -109zM367 0v45h247v600q-100 -72 -198 -72q-160 2 -241 120t-81 321t91 334t264 131h473v-1479h-555z" />
    <glyph glyph-name="periodcentered" unicode="&#xb7;" horiz-adv-x="411" 
d="M236 901q0 -29 -30 -29t-30 29t30 29t30 -29z" />
    <glyph glyph-name="cedilla" unicode="&#xb8;" horiz-adv-x="585" 
d="M220 -414q-64 0 -116 45l11 17l10 18q37 -35 96 -35q86 0 86 115t-67 115q-33 0 -60 -27l-16 19l-19 18q55 143 64 164l37 -31q-12 -33 -41 -102q25 4 39 4q57 0 86 -45q28 -45 28 -117t-36 -115q-38 -43 -102 -43z" />
    <glyph glyph-name="onesuperior" unicode="&#xb9;" horiz-adv-x="704" 
d="M408 616h155v-45h-364v45h159v715l-157 -190l-37 30l194 232h50v-787z" />
    <glyph glyph-name="ordmasculine" unicode="&#xba;" horiz-adv-x="731" 
d="M209 1230q0 -144 35 -229q35 -86 133 -86q145 0 145 322q0 135 -33 211t-121 76t-124 -75q-35 -75 -35 -219zM160 1241q0 326 213 326q111 0 155 -87t43 -243q0 -367 -196 -367q-121 0 -168 98t-47 273z" />
    <glyph glyph-name="guillemotright" unicode="&#xbb;" horiz-adv-x="1050" 
d="M479 313v47l336 205l-334 205v49l375 -229v-49zM113 313v47l336 205l-334 205v49l374 -229v-49z" />
    <glyph glyph-name="onequarter" unicode="&#xbc;" horiz-adv-x="1382" 
d="M1085 92v504l-292 -504h292zM911 -190v43h174v198h-317l-29 41l346 604h48v-604h180v-41h-180v-198h178v-43h-400zM406 -190h-56l611 1740h57zM336 776h156v-45h-365v45h160v715l-158 -191l-37 31l195 232h49v-787z" />
    <glyph glyph-name="onehalf" unicode="&#xbd;" horiz-adv-x="1419" 
d="M1286 -143v182h45v-227h-463v45q45 51 139 155q93 104 150 172t78 126q22 56 22 126t-35 125q-36 55 -104 55t-100 -38q-33 -38 -64 -115l-20 10l-21 8q59 180 201 181q92 0 141 -68t49 -162t-29 -153q-30 -59 -95 -144q-95 -105 -157 -176t-91 -102h354zM424 -190h-55
l610 1740h57zM330 776h155v-45h-364v45h160v715l-158 -191l-37 31l195 232h49v-787z" />
    <glyph glyph-name="threequarters" unicode="&#xbe;" horiz-adv-x="1419" 
d="M1122 92v504l-293 -504h293zM948 -190v43h174v198h-317l-29 41l346 604h47v-604h181v-41h-181v-198h179v-43h-400zM283 698h-19q-90 0 -164 68l25 33q72 -57 145 -58h9q77 1 121 51t45 132t-63 129q-65 47 -169 55v47q92 8 152 56q59 48 59 127t-39 127t-110 48t-132 -90
l-16 13l-18 12q68 108 166 108t148 -58t50 -157q0 -164 -170 -211q193 -43 193 -202v-4q0 -102 -58 -164t-155 -62zM442 -190h-55l610 1740h58z" />
    <glyph glyph-name="questiondown" unicode="&#xbf;" horiz-adv-x="679" 
d="M422 -4q-139 0 -214 110t-75 283q0 172 72 289t209 133v186h49v-231h-10q-133 0 -201 -106t-68 -267q0 -160 60 -255t182 -95q53 0 106 31l17 -45q-70 -33 -127 -33zM438 1454q30 0 29 -28q0 -28 -30 -27q-30 0 -29 28q0 27 30 27z" />
    <glyph glyph-name="Agrave" unicode="&#xc0;" 
d="M504 45v-45h-551v45h237q365 1237 422 1434h50l374 -1434h242v-45h-553v45h260q-83 333 -121 475h-481q-23 -80 -69 -238t-68 -237h258zM852 567q-143 557 -217 836l-240 -836h457zM768 1688h-59q-41 55 -119 170t-119 170h59q41 -55 120 -170t118 -170z" />
    <glyph glyph-name="Aacute" unicode="&#xc1;" 
d="M504 45v-45h-551v45h237q365 1237 422 1434h50l374 -1434h242v-45h-553v45h260q-83 333 -121 475h-481q-23 -80 -69 -238t-68 -237h258zM852 567q-143 557 -217 836l-240 -836h457zM791 2028l-238 -340h-59l237 340h60z" />
    <glyph glyph-name="Acircumflex" unicode="&#xc2;" 
d="M504 45v-45h-551v45h237q365 1237 422 1434h50l374 -1434h242v-45h-553v45h260q-83 333 -121 475h-481q-23 -80 -69 -238t-68 -237h258zM852 567q-143 557 -217 836l-240 -836h457zM375 1686l237 339h64q39 -55 119 -170t118 -169h-59q-139 201 -211 301l-209 -301h-59z
" />
    <glyph glyph-name="Atilde" unicode="&#xc3;" 
d="M504 45v-45h-551v45h237q365 1237 422 1434h50l374 -1434h242v-45h-553v45h260q-83 333 -121 475h-481q-23 -80 -69 -238t-68 -237h258zM852 567q-143 557 -217 836l-240 -836h457zM771 1696q-46 0 -79 28t-52 58q-18 32 -30 52q-31 53 -51 63q-19 10 -48 10t-53 -31
q-24 -32 -30 -60t-12 -66t-7 -43t-1 -11l-41 12q8 51 17 106t29 82q42 54 105 56q33 0 61 -18t41 -36t36 -56q24 -38 36 -55q35 -48 88 -48t73 81q8 28 15 74q8 46 11 56l43 -8q-2 -12 -8 -46t-9 -46q-2 -13 -8 -41t-12 -39q-5 -11 -17 -28q-12 -18 -31 -32q-20 -14 -66 -14
z" />
    <glyph glyph-name="Adieresis" unicode="&#xc4;" 
d="M504 45v-45h-551v45h237q365 1237 422 1434h50l374 -1434h242v-45h-553v45h260q-83 333 -121 475h-481q-23 -80 -69 -238t-68 -237h258zM852 567q-143 557 -217 836l-240 -836h457zM726 1690q-30 0 -30 28t30 29q30 -1 30 -29t-30 -28zM554 1690q-30 0 -30 28t30 29
q30 -1 30 -29t-30 -28z" />
    <glyph glyph-name="Aring" unicode="&#xc5;" 
d="M504 45v-45h-551v45h237q365 1237 422 1434h50l374 -1434h242v-45h-553v45h260q-83 333 -121 475h-481q-23 -80 -69 -238t-68 -237h258zM852 567q-143 557 -217 836l-240 -836h457zM520 1937q0 -195 123 -194q125 1 125 195t-129 194q-119 0 -119 -195zM817 1936
q0 -108 -43 -172t-130 -64t-129 66t-42 172q0 108 41 174t128 65q87 0 131 -66q44 -67 44 -175z" />
    <glyph glyph-name="AE" unicode="&#xc6;" horiz-adv-x="1568" 
d="M-39 0v45h246l598 1389h-221v45h835v-269h-45v224h-495v-646h450v-45h-450v-698h544v223h45v-268h-884v45h245v475h-366l-203 -475h236v-45h-535zM829 567v815l-346 -815h346z" />
    <glyph glyph-name="Ccedilla" unicode="&#xc7;" horiz-adv-x="1056" 
d="M572 -412q-64 0 -115 45l20 35q37 -35 96 -35q86 0 86 115t-67 115q-33 0 -60 -27l-16 19l-18 18q29 78 45 117q-236 16 -325 221q-79 179 -81 494q0 575 238 725q93 59 243 59t316 -148v-245h-45v227q-139 117 -273 117t-220 -56q-207 -137 -210 -677q0 -488 197 -614
q80 -50 193 -50q114 0 192 47t160 141q16 -16 18 -16l17 -18q-88 -99 -172 -151t-199 -56q-10 -29 -35 -86q25 4 39 4q57 0 86 -45t29 -117t-37 -115q-38 -43 -102 -43z" />
    <glyph glyph-name="Egrave" unicode="&#xc8;" horiz-adv-x="1067" 
d="M82 0v45h246v1389h-246v45h836v-269h-46v224h-495v-646h450v-45h-450v-698h545v223h45v-268h-885zM733 1683h-59q-153 216 -238 340h60q42 -57 120 -171t117 -169z" />
    <glyph glyph-name="Eacute" unicode="&#xc9;" horiz-adv-x="1067" 
d="M82 0v45h246v1389h-246v45h836v-269h-46v224h-495v-646h450v-45h-450v-698h545v223h45v-268h-885zM756 2023l-238 -340h-59q98 131 237 340h60z" />
    <glyph glyph-name="Ecircumflex" unicode="&#xca;" horiz-adv-x="1067" 
d="M82 0v45h246v1389h-246v45h836v-269h-46v224h-495v-646h450v-45h-450v-698h545v223h45v-268h-885zM340 1681l238 340h63q41 -57 120 -171t118 -169h-60q-139 201 -211 301l-209 -301h-59z" />
    <glyph glyph-name="Edieresis" unicode="&#xcb;" horiz-adv-x="1067" 
d="M82 0v45h246v1389h-246v45h836v-269h-46v224h-495v-646h450v-45h-450v-698h545v223h45v-268h-885zM692 1743q30 -1 29 -29q0 -28 -30 -28t-29 28q0 29 30 29zM519 1686q-30 0 -30 28t30 29q30 -1 30 -29t-30 -28z" />
    <glyph glyph-name="Igrave" unicode="&#xcc;" horiz-adv-x="704" 
d="M82 0v45h246v1389h-246v45h543v-45h-248v-1389h248v-45h-543zM481 1688h-59q-41 55 -119 170t-119 170h60q38 -55 118 -170t119 -170z" />
    <glyph glyph-name="Iacute" unicode="&#xcd;" horiz-adv-x="704" 
d="M82 0v45h246v1389h-246v45h543v-45h-248v-1389h248v-45h-543zM504 2028l-238 -340h-59l237 340h60z" />
    <glyph glyph-name="Icircumflex" unicode="&#xce;" horiz-adv-x="704" 
d="M82 0v45h246v1389h-246v45h543v-45h-248v-1389h248v-45h-543zM88 1686q177 258 238 339h63q172 -243 238 -339h-60q-139 201 -211 301l-209 -301h-59z" />
    <glyph glyph-name="Idieresis" unicode="&#xcf;" horiz-adv-x="704" 
d="M82 0v45h246v1389h-246v45h543v-45h-248v-1389h248v-45h-543zM440 1747q30 -1 29 -29q0 -28 -30 -28t-29 28q0 29 30 29zM268 1747q30 -1 29 -29q0 -28 -30 -28t-29 28q0 29 30 29z" />
    <glyph glyph-name="Eth" unicode="&#xd0;" horiz-adv-x="1228" 
d="M594 745h-217v-700h223q451 0 451 682q0 707 -476 707h-198v-639h217v-50zM84 0v45h244v700h-156v50h156v639h-244v45h494q272 0 397 -203t125 -543q0 -341 -120 -537t-384 -196h-512z" />
    <glyph glyph-name="Ntilde" unicode="&#xd1;" horiz-adv-x="1445" 
d="M623 45v-45h-541v45h246v1389h-244v45h299q334 -637 719 -1385v1340h-244v45h541v-45h-248v-1434h-57q-357 687 -717 1380v-1335h246zM894 1696q-46 0 -83 31t-64 78q-45 81 -64 92q-19 10 -49 10t-54 -31q-24 -32 -29 -60q-6 -28 -12 -66q-5 -38 -7 -43t-2 -11l-41 12
q25 160 57 201t94 42t102 -54q12 -17 36 -55t36 -55q35 -48 89 -48q53 0 73 81q8 28 15 74q8 46 10 56l23 -4l20 -4q-2 -12 -8 -46t-8 -46q-2 -13 -8 -41t-12 -39t-18 -28q-12 -18 -30 -32q-20 -14 -66 -14z" />
    <glyph glyph-name="Ograve" unicode="&#xd2;" horiz-adv-x="1153" 
d="M188 754q0 -418 113 -580q43 -61 114 -99t165 -38q181 0 270 133t107 357q9 95 10 216q0 396 -115 562q-96 137 -290 137q-106 0 -184 -56q-190 -133 -190 -632zM137 720q0 441 132 622q105 147 321 147q115 0 204 -57q219 -140 220 -690q2 -550 -220 -694
q-89 -58 -216 -58t-217 58q-155 102 -203 400q-20 126 -21 272zM700 1688h-59q-39 55 -118 170t-120 170h60q41 -55 119 -170t118 -170z" />
    <glyph glyph-name="Oacute" unicode="&#xd3;" horiz-adv-x="1153" 
d="M188 754q0 -418 113 -580q43 -61 114 -99t165 -38q181 0 270 133t107 357q9 95 10 216q0 396 -115 562q-96 137 -290 137q-106 0 -184 -56q-190 -133 -190 -632zM137 720q0 441 132 622q105 147 321 147q115 0 204 -57q219 -140 220 -690q2 -550 -220 -694
q-89 -58 -216 -58t-217 58q-155 102 -203 400q-20 126 -21 272zM723 2028l-238 -340h-59l238 340h59z" />
    <glyph glyph-name="Ocircumflex" unicode="&#xd4;" horiz-adv-x="1153" 
d="M188 754q0 -418 113 -580q43 -61 114 -99t165 -38q181 0 270 133t107 357q9 95 10 216q0 396 -115 562q-96 137 -290 137q-106 0 -184 -56q-190 -133 -190 -632zM137 720q0 441 132 622q105 147 321 147q115 0 204 -57q219 -140 220 -690q2 -550 -220 -694
q-89 -58 -216 -58t-217 58q-155 102 -203 400q-20 126 -21 272zM307 1686q123 180 238 339h63q74 -99 238 -339h-60q-139 201 -211 301l-208 -301h-60z" />
    <glyph glyph-name="Otilde" unicode="&#xd5;" horiz-adv-x="1153" 
d="M188 754q0 -418 113 -580q43 -61 114 -99t165 -38q181 0 270 133t107 357q9 95 10 216q0 396 -115 562q-96 137 -290 137q-106 0 -184 -56q-190 -133 -190 -632zM137 720q0 441 132 622q105 147 321 147q115 0 204 -57q219 -140 220 -690q2 -550 -220 -694
q-89 -58 -216 -58t-217 58q-155 102 -203 400q-20 126 -21 272zM704 1696q-46 0 -83 31t-64 78q-25 49 -29 53t-20 26t-55 23q-39 0 -63 -31q-24 -32 -30 -60t-12 -66t-7 -43t-1 -11l-41 12q8 51 16 105t30 82q42 55 106 57q33 0 61 -18t40 -36t36 -56t36 -55q35 -48 88 -48
q52 0 73 81q10 38 17 79t9 51l23 -4l20 -4q-2 -12 -8 -46t-8 -46q-2 -13 -8 -41t-13 -39q-6 -11 -17 -28q-11 -18 -31 -32q-19 -14 -65 -14z" />
    <glyph glyph-name="Odieresis" unicode="&#xd6;" horiz-adv-x="1153" 
d="M188 754q0 -418 113 -580q43 -61 114 -99t165 -38q181 0 270 133t107 357q9 95 10 216q0 396 -115 562q-96 137 -290 137q-106 0 -184 -56q-190 -133 -190 -632zM137 720q0 441 132 622q105 147 321 147q115 0 204 -57q219 -140 220 -690q2 -550 -220 -694
q-89 -58 -216 -58t-217 58q-155 102 -203 400q-20 126 -21 272zM658 1747q30 -1 30 -29t-30 -28t-29 28q-1 29 29 29zM486 1747q30 -1 30 -29t-30 -28t-29 28q-1 29 29 29z" />
    <glyph glyph-name="multiply" unicode="&#xd7;" horiz-adv-x="1056" 
d="M860 266l-332 332l-331 -332l-17 19l-18 16l332 332l-332 332l35 34l331 -331l332 331l19 -16l16 -18l-332 -332l332 -332z" />
    <glyph glyph-name="Oslash" unicode="&#xd8;" horiz-adv-x="1153" 
d="M137 737q0 424 132 605q105 147 322 147q116 0 206 -62l61 172l47 -16l-67 -188q178 -168 178 -652q0 -550 -222 -695q-89 -58 -215 -58t-217 57l-65 -186l-47 18l72 201q-185 165 -185 657zM568 37q194 0 282 133q89 133 107 357q9 95 10 216q0 442 -146 598l-442 -1247
q83 -57 189 -57zM188 737q0 -453 150 -608l442 1249q-82 64 -203 64t-199 -56q-190 -134 -190 -649z" />
    <glyph glyph-name="Ugrave" unicode="&#xd9;" horiz-adv-x="1361" 
d="M1065 539q0 -265 -87 -407t-299 -142t-298 145t-86 420v879h-242v45h541v-45h-252v-871q0 -254 76 -389t261 -135t262 128t77 363v904h-248v45h541v-45h-246v-895zM815 1688h-59q-41 55 -120 170t-118 170h60q42 -55 120 -170t117 -170z" />
    <glyph glyph-name="Uacute" unicode="&#xda;" horiz-adv-x="1361" 
d="M1065 539q0 -265 -87 -407t-299 -142t-298 145t-86 420v879h-242v45h541v-45h-252v-871q0 -254 76 -389t261 -135t262 128t77 363v904h-248v45h541v-45h-246v-895zM838 2028l-238 -340h-59l237 340h60z" />
    <glyph glyph-name="Ucircumflex" unicode="&#xdb;" horiz-adv-x="1361" 
d="M1065 539q0 -265 -87 -407t-299 -142t-298 145t-86 420v879h-242v45h541v-45h-252v-871q0 -254 76 -389t261 -135t262 128t77 363v904h-248v45h541v-45h-246v-895zM422 1686q171 250 237 339h64q39 -55 119 -170t119 -169h-60q-139 201 -211 301l-209 -301h-59z" />
    <glyph glyph-name="Udieresis" unicode="&#xdc;" horiz-adv-x="1361" 
d="M1065 539q0 -265 -87 -407t-299 -142t-298 145t-86 420v879h-242v45h541v-45h-252v-871q0 -254 76 -389t261 -135t262 128t77 363v904h-248v45h541v-45h-246v-895zM773 1690q-30 0 -30 28t30 29q30 -1 30 -29t-30 -28zM601 1690q-30 0 -30 28t30 29q30 -1 30 -29t-30 -28
z" />
    <glyph glyph-name="Yacute" unicode="&#xdd;" horiz-adv-x="1146" 
d="M598 45h244v-45h-541v45h244v645l-320 744h-243v45h540v-45h-241q49 -115 146 -342t144 -342q133 291 308 684h-240v45h541v-45h-246q-241 -540 -336 -744v-645zM719 2028l-238 -340h-59l237 340h60z" />
    <glyph glyph-name="Thorn" unicode="&#xde;" horiz-adv-x="1007" 
d="M84 0v45h244v1389h-244v45h541v-45h-248v-170h166q172 0 263 -131t91 -334t-81 -321t-241 -120q-98 0 -198 72v-385h248v-45h-541zM578 406q134 0 202 108t68 289q0 180 -79 298t-232 118h-160v-736q105 -77 201 -77z" />
    <glyph glyph-name="germandbls" unicode="&#xdf;" horiz-adv-x="960" 
d="M258 1268q0 172 67 276t205 104t208 -98q71 -100 71 -244q0 -285 -186 -358q115 -35 174 -138t59 -251q0 -309 -211 -381l-6 23l-8 20q178 74 178 336q0 162 -84 266t-219 105v37q120 0 188 89t68 231q0 143 -62 231t-175 88q-114 0 -166 -94t-52 -242v-1223h248v-45
h-541v45h244v1223z" />
    <glyph glyph-name="agrave" unicode="&#xe0;" horiz-adv-x="919" 
d="M635 0v227q-35 -65 -54 -97q-60 -100 -130 -125q-43 -15 -101 -15q-219 0 -219 299q0 262 244 313q152 29 260 51v131q0 135 -47 204t-166 69t-219 -129v-223h-43v245q119 152 278 152q246 0 246 -303v-754h236v-45h-285zM180 286q0 -116 40 -184t139 -67q99 0 156 73
q47 58 120 205v299q-113 -23 -262 -51q-93 -20 -143 -90q-50 -69 -50 -185zM563 1337h-59q-39 55 -118 170t-120 170h60q40 -55 118 -170t119 -170z" />
    <glyph glyph-name="aacute" unicode="&#xe1;" horiz-adv-x="919" 
d="M635 0v227q-35 -65 -54 -97q-60 -100 -130 -125q-43 -15 -101 -15q-219 0 -219 299q0 262 244 313q152 29 260 51v131q0 135 -47 204t-166 69t-219 -129v-223h-43v245q119 152 278 152q246 0 246 -303v-754h236v-45h-285zM180 286q0 -116 40 -184t139 -67q99 0 156 73
q47 58 120 205v299q-113 -23 -262 -51q-93 -20 -143 -90q-50 -69 -50 -185zM586 1677l-238 -340h-59q82 115 237 340h60z" />
    <glyph glyph-name="acircumflex" unicode="&#xe2;" horiz-adv-x="919" 
d="M635 0v227q-35 -65 -54 -97q-60 -100 -130 -125q-43 -15 -101 -15q-219 0 -219 299q0 262 244 313q152 29 260 51v131q0 135 -47 204t-166 69t-219 -129v-223h-43v245q119 152 278 152q246 0 246 -303v-754h236v-45h-285zM180 286q0 -116 40 -184t139 -67q99 0 156 73
q47 58 120 205v299q-113 -23 -262 -51q-93 -20 -143 -90q-50 -69 -50 -185zM170 1335q153 216 238 340h63q41 -57 119 -171t119 -169h-60q-139 201 -211 301l-209 -301h-59z" />
    <glyph glyph-name="atilde" unicode="&#xe3;" horiz-adv-x="919" 
d="M635 0v227q-35 -65 -54 -97q-60 -100 -130 -125q-43 -15 -101 -15q-219 0 -219 299q0 262 244 313q152 29 260 51v131q0 135 -47 204t-166 69t-219 -129v-223h-43v245q119 152 278 152q246 0 246 -303v-754h236v-45h-285zM180 286q0 -116 40 -184t139 -67q99 0 156 73
q47 58 120 205v299q-113 -23 -262 -51q-93 -20 -143 -90q-50 -69 -50 -185zM566 1346q-46 0 -79 28t-52 58q-19 32 -31 52t-14 23q-3 5 -13 19t-25 22q-16 8 -46 8t-54 -30t-29 -60q-6 -28 -12 -66t-7 -43t-1 -11l-41 12q8 51 17 107t29 81q44 54 91 55q76 1 116 -54
q13 -17 37 -55t35 -55q34 -48 90 -48t78 111q5 18 7 30l6 36t6 33l43 -8q-25 -149 -34 -165q-9 -17 -20 -34q-11 -18 -31 -32t-66 -14z" />
    <glyph glyph-name="adieresis" unicode="&#xe4;" horiz-adv-x="919" 
d="M635 0v227q-35 -65 -54 -97q-60 -100 -130 -125q-43 -15 -101 -15q-219 0 -219 299q0 262 244 313q152 29 260 51v131q0 135 -47 204t-166 69t-219 -129v-223h-43v245q119 152 278 152q246 0 246 -303v-754h236v-45h-285zM180 286q0 -116 40 -184t139 -67q99 0 156 73
q47 58 120 205v299q-113 -23 -262 -51q-93 -20 -143 -90q-50 -69 -50 -185zM551 1368q0 -29 -30 -29t-29 29q0 29 30 29t29 -29zM379 1368q0 -29 -30 -29t-30 29t30 29t30 -29z" />
    <glyph glyph-name="aring" unicode="&#xe5;" horiz-adv-x="919" 
d="M635 0v227q-35 -65 -54 -97q-60 -100 -130 -125q-43 -15 -101 -15q-219 0 -219 299q0 262 244 313q152 29 260 51v131q0 135 -47 204t-166 69t-219 -129v-223h-43v245q119 152 278 152q246 0 246 -303v-754h236v-45h-285zM180 286q0 -116 40 -184t139 -67q99 0 156 73
q47 58 120 205v299q-113 -23 -262 -51q-93 -20 -143 -90q-50 -69 -50 -185zM315 1587q0 -195 123 -194q125 1 125 195t-129 194q-119 0 -119 -195zM612 1586q0 -108 -43 -172t-130 -64t-129 66t-42 172q0 108 41 174t128 65q87 0 131 -66q44 -67 44 -175z" />
    <glyph glyph-name="ae" unicode="&#xe6;" horiz-adv-x="1363" 
d="M631 559h-72q-96 0 -182 -16q-199 -43 -199 -250q0 -123 40 -191t145 -67q105 0 169 83q37 46 58 81q20 35 61 112q-20 109 -20 248zM936 1057q-144 0 -198 -118t-56 -335h500v21q0 320 -120 399q-50 33 -126 33zM633 784q0 135 -47 204t-156 69q-137 0 -229 -123v-189
h-43v205q119 152 278 152q201 0 236 -199q66 199 268 199q112 0 178 -67t88 -167t23 -247v-62h-547q0 -393 143 -485q59 -39 139 -39t128 37q47 37 100 112l37 -28q-59 -84 -117 -125t-137 -41q-233 0 -309 252q-66 -128 -135 -190t-183 -62q-219 0 -219 299q0 246 242 297
q94 18 207 18h53l2 64v116z" />
    <glyph glyph-name="ccedilla" unicode="&#xe7;" horiz-adv-x="839" 
d="M468 -416q-64 0 -116 45l21 35q37 -35 96 -35q86 0 86 115t-68 115q-33 0 -59 -27l-16 18l-19 19q7 23 25 67t22 56q-120 8 -190 86t-94 190t-25 260q0 429 176 533q69 41 181 41t225 -133v-246h-45v233q-100 100 -203 100t-171 -70t-90 -178q-24 -108 -24 -242t12 -220
q30 -204 136 -272q59 -39 136 -39t134 50t94 118l19 -10l18 -13q-92 -178 -240 -190q-12 -29 -36 -90q25 4 39 4q57 0 86 -45q28 -45 28 -117t-36 -115q-38 -43 -102 -43z" />
    <glyph glyph-name="egrave" unicode="&#xe8;" horiz-adv-x="870" 
d="M442 1057q-145 0 -198 -118t-56 -335h500v21q0 320 -120 399q-50 33 -126 33zM470 -10q-267 0 -318 354q-14 98 -14 224q-2 397 154 495q62 39 164 39t168 -67q68 -67 90 -167t21 -247v-62h-547q0 -392 144 -485q59 -39 139 -39t127 37t100 112l37 -28q-59 -84 -117 -125
t-148 -41zM569 1343h-59q-41 57 -119 170t-119 170h60q147 -215 237 -340z" />
    <glyph glyph-name="eacute" unicode="&#xe9;" horiz-adv-x="870" 
d="M442 1057q-145 0 -198 -118t-56 -335h500v21q0 320 -120 399q-50 33 -126 33zM470 -10q-267 0 -318 354q-14 98 -14 224q-2 397 154 495q62 39 164 39t168 -67q68 -67 90 -167t21 -247v-62h-547q0 -392 144 -485q59 -39 139 -39t127 37t100 112l37 -28q-59 -84 -117 -125
t-148 -41zM592 1683q-128 -187 -238 -340h-59q62 91 237 340h60z" />
    <glyph glyph-name="ecircumflex" unicode="&#xea;" horiz-adv-x="870" 
d="M442 1057q-145 0 -198 -118t-56 -335h500v21q0 320 -120 399q-50 33 -126 33zM470 -10q-267 0 -318 354q-14 98 -14 224q-2 397 154 495q62 39 164 39t168 -67q68 -67 90 -167t21 -247v-62h-547q0 -392 144 -485q59 -39 139 -39t127 37t100 112l37 -28q-59 -84 -117 -125
t-148 -41zM176 1341l238 340h63q128 -187 238 -340h-60q-139 201 -211 301l-208 -301h-60z" />
    <glyph glyph-name="edieresis" unicode="&#xeb;" horiz-adv-x="870" 
d="M442 1057q-145 0 -198 -118t-56 -335h500v21q0 320 -120 399q-50 33 -126 33zM470 -10q-267 0 -318 354q-14 98 -14 224q-2 397 154 495q62 39 164 39t168 -67q68 -67 90 -167t21 -247v-62h-547q0 -392 144 -485q59 -39 139 -39t127 37t100 112l37 -28q-59 -84 -117 -125
t-148 -41zM528 1403q30 -1 29 -29q0 -28 -30 -28t-29 28q0 29 30 29zM356 1403q30 -1 29 -29q0 -28 -30 -28t-29 28q0 29 30 29z" />
    <glyph glyph-name="igrave" unicode="&#xec;" horiz-adv-x="614" 
d="M70 0v45h243v1002h-243v45h297v-1047h229v-45h-526zM469 1339h-59q-39 55 -118 170t-120 170h59q39 -55 118 -170t120 -170z" />
    <glyph glyph-name="iacute" unicode="&#xed;" horiz-adv-x="614" 
d="M70 0v45h243v1002h-243v45h297v-1047h229v-45h-526zM492 1679l-238 -340h-59l237 340h60z" />
    <glyph glyph-name="icircumflex" unicode="&#xee;" horiz-adv-x="614" 
d="M70 0v45h243v1002h-243v45h297v-1047h229v-45h-526zM76 1337q29 38 237 340h64q41 -55 120 -170t117 -170h-59q-139 201 -211 301l-209 -301h-59z" />
    <glyph glyph-name="idieresis" unicode="&#xef;" horiz-adv-x="614" 
d="M70 0v45h243v1002h-243v45h297v-1047h229v-45h-526zM457 1370q0 -29 -30 -29t-30 29t30 29t30 -29zM285 1370q0 -29 -30 -29t-30 29t30 29t30 -29z" />
    <glyph glyph-name="eth" unicode="&#xf0;" horiz-adv-x="892" 
d="M414 23q293 0 293 458v15q-94 281 -285 280q-254 0 -254 -377q0 -168 60 -272t186 -104zM758 479q0 -504 -342 -504q-154 0 -227 117q-73 118 -73 310t73 307t229 114q193 0 284 -213q-35 426 -309 662q-61 -59 -184 -182l-33 32l180 183q-109 84 -243 143l10 25l10 22
q147 -63 260 -154l158 158l18 -16l17 -19l-154 -153q326 -285 326 -832z" />
    <glyph glyph-name="ntilde" unicode="&#xf1;" horiz-adv-x="1148" 
d="M848 698q0 359 -196 359q-104 0 -178 -86q-73 -86 -109 -207v-719h176v-45h-471v45h245v1002h-245v45h295v-222q43 102 115 167q73 65 167 65q139 0 195 -106t55 -291v-660h244v-45h-471v45h178v653zM743 1348q-46 0 -83 31t-64 78q-26 48 -30 52q-3 4 -18 26t-55 23
q-41 1 -65 -30t-29 -60q-6 -28 -12 -66t-7 -43t-1 -11l-41 12q8 51 12 77q25 164 124 166q76 1 117 -54q13 -17 37 -55t36 -55q35 -48 90 -48t77 111q5 18 7 30l6 36t6 34l22 -5l21 -4q-2 -12 -8 -45t-8 -46q-3 -13 -9 -41t-12 -39t-17 -28q-11 -18 -31 -32q-19 -14 -65 -14
z" />
    <glyph glyph-name="ograve" unicode="&#xf2;" horiz-adv-x="929" 
d="M180 549q0 -385 139 -475q59 -39 145 -39q168 0 231 151q53 131 54 366t-61 371t-224 136q-160 0 -222 -135t-62 -375zM725 138q-74 -148 -266 -148t-263 165q-65 146 -65 399t74 400q74 148 265 148t262 -164q65 -144 66 -399q1 -253 -73 -401zM596 1339h-59
q-39 55 -119 170t-119 170h59q41 -55 119 -170t119 -170z" />
    <glyph glyph-name="oacute" unicode="&#xf3;" horiz-adv-x="929" 
d="M180 549q0 -385 139 -475q59 -39 145 -39q168 0 231 151q53 131 54 366t-61 371t-224 136q-160 0 -222 -135t-62 -375zM725 138q-74 -148 -266 -148t-263 165q-65 146 -65 399t74 400q74 148 265 148t262 -164q65 -144 66 -399q1 -253 -73 -401zM618 1679l-237 -340h-59
l237 340h59z" />
    <glyph glyph-name="ocircumflex" unicode="&#xf4;" horiz-adv-x="929" 
d="M180 549q0 -385 139 -475q59 -39 145 -39q168 0 231 151q53 131 54 366t-61 371t-224 136q-160 0 -222 -135t-62 -375zM725 138q-74 -148 -266 -148t-263 165q-65 146 -65 399t74 400q74 148 265 148t262 -164q65 -144 66 -399q1 -253 -73 -401zM203 1337q82 115 237 340
h64q41 -55 120 -170t117 -170h-59q-139 201 -211 301l-209 -301h-59z" />
    <glyph glyph-name="otilde" unicode="&#xf5;" horiz-adv-x="929" 
d="M180 549q0 -385 139 -475q59 -39 145 -39q168 0 231 151q53 131 54 366t-61 371t-224 136q-160 0 -222 -135t-62 -375zM725 138q-74 -148 -266 -148t-263 165q-65 146 -65 399t74 400q74 148 265 148t262 -164q65 -144 66 -399q1 -253 -73 -401zM599 1348q-46 0 -79 28
t-52 58q-18 32 -30 52t-15 23q-3 5 -13 19t-24 22t-46 8q-30 1 -54 -30t-30 -60q-6 -28 -12 -66t-7 -43t-1 -11l-41 12q8 51 17 107t29 81q44 54 91 55q78 1 115 -54q13 -17 37 -55t36 -55q35 -48 88 -48q62 0 86 142q2 11 6 35t7 34l22 -5l21 -4q-2 -12 -8 -45t-9 -46
q-2 -13 -8 -41t-12 -39q-5 -11 -17 -28q-12 -18 -31 -32q-20 -14 -66 -14z" />
    <glyph glyph-name="odieresis" unicode="&#xf6;" horiz-adv-x="929" 
d="M180 549q0 -385 139 -475q59 -39 145 -39q168 0 231 151q53 131 54 366t-61 371t-224 136q-160 0 -222 -135t-62 -375zM725 138q-74 -148 -266 -148t-263 165q-65 146 -65 399t74 400q74 148 265 148t262 -164q65 -144 66 -399q1 -253 -73 -401zM584 1370q0 -29 -30 -29
t-30 29t30 29t30 -29zM412 1370q0 -29 -30 -29t-30 29t30 29t30 -29z" />
    <glyph glyph-name="divide" unicode="&#xf7;" horiz-adv-x="1347" 
d="M671 168q-30 0 -30 29t30 29t29 -29q1 -29 -29 -29zM1167 608h-987v49h987v-49zM671 1020q-30 0 -30 29t30 29t29 -29q1 -29 -29 -29z" />
    <glyph glyph-name="oslash" unicode="&#xf8;" horiz-adv-x="929" 
d="M131 549q0 258 74 405t258 148q100 0 168 -45l57 160l43 -17l-61 -174q129 -123 129 -481q0 -259 -74 -407t-260 -148q-86 0 -150 35l-65 -187l-43 19l69 194q-145 117 -145 498zM469 35q164 0 226 151q53 131 55 359q0 315 -99 432l-319 -909q55 -33 137 -33zM180 549
q0 -348 113 -453l323 916q-63 47 -155 47q-157 0 -219 -135t-62 -375z" />
    <glyph glyph-name="ugrave" unicode="&#xf9;" horiz-adv-x="1079" 
d="M782 0v211q-100 -221 -260 -221q-264 0 -264 389v668h-246v45h295v-709q0 -348 221 -348q80 0 148 84t106 192v736h-245v45h294v-1047h232v-45h-281zM651 1339h-59q-39 55 -118 170t-120 170h60q40 -55 118 -170t119 -170z" />
    <glyph glyph-name="uacute" unicode="&#xfa;" horiz-adv-x="1079" 
d="M782 0v211q-100 -221 -260 -221q-264 0 -264 389v668h-246v45h295v-709q0 -348 221 -348q80 0 148 84t106 192v736h-245v45h294v-1047h232v-45h-281zM674 1679l-238 -340h-59q82 115 237 340h60z" />
    <glyph glyph-name="ucircumflex" unicode="&#xfb;" horiz-adv-x="1079" 
d="M782 0v211q-100 -221 -260 -221q-264 0 -264 389v668h-246v45h295v-709q0 -348 221 -348q80 0 148 84t106 192v736h-245v45h294v-1047h232v-45h-281zM258 1337l238 340h63q41 -55 119 -170t119 -170h-60q-139 201 -211 301l-209 -301h-59z" />
    <glyph glyph-name="udieresis" unicode="&#xfc;" horiz-adv-x="1079" 
d="M782 0v211q-100 -221 -260 -221q-264 0 -264 389v668h-246v45h295v-709q0 -348 221 -348q80 0 148 84t106 192v736h-245v45h294v-1047h232v-45h-281zM639 1370q0 -29 -30 -29t-29 29q0 29 30 29t29 -29zM467 1370q0 -29 -30 -29t-29 29q0 29 30 29t29 -29z" />
    <glyph glyph-name="yacute" unicode="&#xfd;" horiz-adv-x="1118" 
d="M43 -614v45h240q164 483 247 725l-282 891h-238v45h520v-45h-225l252 -811l277 811h-203v45h499v-45h-241q-500 -1469 -565 -1661h-281zM717 1688l-238 -340h-59l237 340h60z" />
    <glyph glyph-name="thorn" unicode="&#xfe;" horiz-adv-x="958" 
d="M-70 -614v45h246v2162h-244v45h293v-686q115 150 283 150q319 0 319 -533q0 -419 -161 -533q-66 -46 -162 -46q-158 0 -279 174v-733h232v-45h-527zM504 35q274 0 274 502v28q0 494 -272 494q-90 0 -163 -51t-118 -121v-649q70 -102 129 -153q60 -50 150 -50z" />
    <glyph glyph-name="ydieresis" unicode="&#xff;" horiz-adv-x="1118" 
d="M43 -614v45h240q164 483 247 725l-282 891h-238v45h520v-45h-225l252 -811l277 811h-203v45h499v-45h-241q-500 -1469 -565 -1661h-281zM652 1407q30 -1 30 -29t-30 -28t-29 28q-1 29 29 29zM480 1407q30 -1 30 -29t-30 -28t-29 28q-1 29 29 29z" />
    <glyph glyph-name="Amacron" unicode="&#x100;" 
d="M504 45v-45h-551v45h237q365 1237 422 1434h50l374 -1434h242v-45h-553v45h260q-83 333 -121 475h-481q-23 -80 -69 -238t-68 -237h258zM852 567q-143 557 -217 836l-240 -836h457zM795 1698h-322v43h322v-43z" />
    <glyph glyph-name="amacron" unicode="&#x101;" horiz-adv-x="919" 
d="M635 0v227q-35 -65 -54 -97q-60 -100 -130 -125q-43 -15 -101 -15q-219 0 -219 299q0 262 244 313q152 29 260 51v131q0 135 -47 204t-166 69t-219 -129v-223h-43v245q119 152 278 152q246 0 246 -303v-754h236v-45h-285zM180 286q0 -116 40 -184t139 -67q99 0 156 73
q47 58 120 205v299q-113 -23 -262 -51q-93 -20 -143 -90q-50 -69 -50 -185zM590 1348h-322v43h322v-43z" />
    <glyph glyph-name="Abreve" unicode="&#x102;" 
d="M504 45v-45h-551v45h237q365 1237 422 1434h50l374 -1434h242v-45h-553v45h260q-83 333 -121 475h-481q-23 -80 -69 -238t-68 -237h258zM852 567q-143 557 -217 836l-240 -836h457zM641 1700q-100 0 -148 68t-49 186h50q0 -94 36 -153q37 -58 115 -58t117 57t39 152h47
q0 -117 -53 -185q-54 -67 -154 -67z" />
    <glyph glyph-name="abreve" unicode="&#x103;" horiz-adv-x="919" 
d="M635 0v227q-35 -65 -54 -97q-60 -100 -130 -125q-43 -15 -101 -15q-219 0 -219 299q0 262 244 313q152 29 260 51v131q0 135 -47 204t-166 69t-219 -129v-223h-43v245q119 152 278 152q246 0 246 -303v-754h236v-45h-285zM180 286q0 -116 40 -184t139 -67q99 0 156 73
q47 58 120 205v299q-113 -23 -262 -51q-93 -20 -143 -90q-50 -69 -50 -185zM436 1350q-100 0 -148 68t-48 186h49q0 -94 37 -152q36 -58 114 -59q78 0 117 57t39 152h47q0 -117 -53 -185q-54 -67 -154 -67z" />
    <glyph glyph-name="Aogonek" unicode="&#x104;" 
d="M852 567q-143 557 -217 836l-240 -836h457zM1278 45v-45h-234l5 -6q-133 -76 -134 -203q0 -65 25 -107t70 -42t96 47q20 -13 29 -27q-69 -66 -131 -66t-99 56q-37 55 -37 139q0 131 121 209h-264v45h260q-83 333 -121 475h-481q-23 -80 -69 -238t-68 -237h258v-45h-551
v45h237q365 1237 422 1434h50l374 -1434h242z" />
    <glyph glyph-name="aogonek" unicode="&#x105;" horiz-adv-x="919" 
d="M180 286q0 -116 40 -184t139 -67q99 0 156 73q47 58 120 205v299q-113 -23 -262 -51q-93 -20 -143 -90q-50 -69 -50 -185zM504 -207q0 135 131 215v219q-35 -65 -54 -97q-60 -100 -130 -125q-43 -15 -101 -15q-219 0 -219 299q0 262 244 313q152 29 260 51v131
q0 135 -47 204t-166 69t-219 -129v-223h-43v245q119 152 278 152q246 0 246 -303v-754h236v-45h-238l2 -4q-133 -76 -133 -214t100 -138q39 0 90 47q9 -14 29 -27q-70 -66 -132 -66t-98 56q-36 55 -36 139z" />
    <glyph glyph-name="Cacute" unicode="&#x106;" horiz-adv-x="1056" 
d="M573 -10q-251 0 -348 210q-86 185 -88 505q0 575 238 725q93 59 243 59t316 -148v-245h-45v227q-139 117 -273 117t-220 -56q-207 -137 -210 -677q0 -488 197 -614q80 -50 193 -50q114 0 192 47t160 141q16 -16 18 -16l17 -18q-93 -103 -179 -155t-211 -52zM752 2028
l-238 -340h-59l237 340h60z" />
    <glyph glyph-name="cacute" unicode="&#x107;" horiz-adv-x="839" 
d="M463 -10q-90 0 -159 41q-173 103 -173 514t176 516q69 41 181 41t225 -133v-246h-45v233q-100 100 -203 100t-171 -70t-90 -178q-24 -108 -24 -242t12 -220q30 -204 136 -272q59 -39 136 -39t134 50t94 118l19 -10l18 -13q-95 -190 -266 -190zM625 1679l-238 -340h-59
l237 340h60z" />
    <glyph glyph-name="Ccaron" unicode="&#x10c;" horiz-adv-x="1056" 
d="M573 -10q-251 0 -348 210q-86 185 -88 505q0 575 238 725q93 59 243 59t316 -148v-245h-45v227q-139 117 -273 117t-220 -56q-207 -137 -210 -677q0 -488 197 -614q80 -50 193 -50q114 0 192 47t160 141q16 -16 18 -16l17 -18q-93 -103 -179 -155t-211 -52zM874 2025
q-144 -203 -237 -339h-64q-41 57 -118 171q-78 114 -119 168h59q139 -201 211 -301l209 301h59z" />
    <glyph glyph-name="ccaron" unicode="&#x10d;" horiz-adv-x="839" 
d="M463 -10q-90 0 -159 41q-173 103 -173 514t176 516q69 41 181 41t225 -133v-246h-45v233q-100 100 -203 100t-171 -70t-90 -178q-24 -108 -24 -242t12 -220q30 -204 136 -272q59 -39 136 -39t134 50t94 118l19 -10l18 -13q-95 -190 -266 -190zM748 1677l-238 -340h-64
q-39 55 -117 170q-79 115 -120 170h59q139 -201 211 -301l209 301h60z" />
    <glyph glyph-name="Dcaron" unicode="&#x10e;" horiz-adv-x="1228" 
d="M575 1434h-198v-1389h223q451 0 451 682q-1 707 -476 707zM84 0v45h244v1389h-244v45h494q272 0 397 -203t125 -543q0 -341 -120 -537t-384 -196h-512zM815 2023l-237 -340h-64q-153 216 -238 340h60q139 -201 211 -301l209 301h59z" />
    <glyph glyph-name="dcaron" unicode="&#x10f;" horiz-adv-x="1044" 
d="M733 0v156q-94 -166 -248 -166q-184 0 -272 154t-88 397q0 336 147 481q82 80 217 80t244 -129v620h-246v45h297v-1593h246v-45h-297zM478 1057q-156 -1 -230 -145t-74 -367t74 -367t232 -143q157 0 253 215v651q-100 156 -255 156zM932 1376h-49l135 340h63z" />
    <glyph glyph-name="Dcroat" unicode="&#x110;" horiz-adv-x="1228" 
d="M594 745h-217v-700h223q451 0 451 682q0 707 -476 707h-198v-639h217v-50zM84 0v45h244v700h-156v50h156v639h-244v45h494q272 0 397 -203t125 -543q0 -341 -120 -537t-384 -196h-512z" />
    <glyph glyph-name="dcroat" unicode="&#x111;" horiz-adv-x="1044" 
d="M733 0v156q-94 -166 -248 -166q-184 0 -272 154t-88 397q0 336 147 481q82 80 217 80t244 -129v373h-276v49h276v198h-246v45h297v-243h131v-49h-131v-1301h246v-45h-297zM478 1057q-156 -1 -230 -145t-74 -367t74 -367t232 -143q157 0 253 215v651q-100 156 -255 156z
" />
    <glyph glyph-name="Emacron" unicode="&#x112;" horiz-adv-x="1067" 
d="M82 0v45h246v1389h-246v45h836v-269h-46v224h-495v-646h450v-45h-450v-698h545v223h45v-268h-885zM760 1694h-322v43h322v-43z" />
    <glyph glyph-name="emacron" unicode="&#x113;" horiz-adv-x="870" 
d="M442 1057q-145 0 -198 -118t-56 -335h500v21q0 320 -120 399q-50 33 -126 33zM470 -10q-267 0 -318 354q-14 98 -14 224q-2 397 154 495q62 39 164 39t168 -67q68 -67 90 -167t21 -247v-62h-547q0 -392 144 -485q59 -39 139 -39t127 37t100 112l37 -28q-59 -84 -117 -125
t-148 -41zM596 1354h-322v43h322v-43z" />
    <glyph glyph-name="Edotaccent" unicode="&#x116;" horiz-adv-x="1067" 
d="M82 0v45h246v1389h-246v45h836v-269h-46v224h-495v-646h450v-45h-450v-698h545v223h45v-268h-885zM605 1686q-30 0 -30 28t30 29q30 -1 30 -29t-30 -28z" />
    <glyph glyph-name="edotaccent" unicode="&#x117;" horiz-adv-x="870" 
d="M442 1057q-145 0 -198 -118t-56 -335h500v21q0 320 -120 399q-50 33 -126 33zM470 -10q-267 0 -318 354q-14 98 -14 224q-2 397 154 495q62 39 164 39t168 -67q68 -67 90 -167t21 -247v-62h-547q0 -392 144 -485q59 -39 139 -39t127 37t100 112l37 -28q-59 -84 -117 -125
t-148 -41zM442 1403q30 -1 29 -29q0 -28 -30 -28t-29 28q0 29 30 29z" />
    <glyph glyph-name="Eogonek" unicode="&#x118;" horiz-adv-x="1067" 
d="M900 -379q-62 0 -98 55t-36 152t88 172h-772v45h246v1389h-246v45h836v-269h-46v224h-495v-646h450v-45h-450v-698h545v223h45v-268h-49q-104 -72 -105 -184q0 -66 25 -108q26 -42 70 -42t96 47l28 -26q-70 -66 -132 -66z" />
    <glyph glyph-name="eogonek" unicode="&#x119;" horiz-adv-x="870" 
d="M442 1057q-145 0 -198 -118t-56 -335h500v21q0 320 -120 399q-50 33 -126 33zM352 -180q0 98 90 172q-181 16 -246 185q-57 148 -59 398q0 390 155 488q62 39 164 39t168 -67q68 -67 90 -167t21 -247v-62h-547q0 -392 144 -485q59 -39 149 -39q25 0 33 4v-2q55 10 96 46
t88 101l37 -28q-55 -78 -107 -118t-124 -48q-104 -72 -105 -185q0 -65 25 -107t70 -42t96 47q10 -15 28 -27q-70 -66 -131 -66t-98 56t-37 154z" />
    <glyph glyph-name="Ecaron" unicode="&#x11a;" horiz-adv-x="1067" 
d="M82 0v45h246v1389h-246v45h836v-269h-46v224h-495v-646h450v-45h-450v-698h545v223h45v-268h-885zM879 2021q-85 -124 -238 -340h-63q-153 216 -238 340h59q139 -201 211 -301l209 301h60z" />
    <glyph glyph-name="ecaron" unicode="&#x11b;" horiz-adv-x="870" 
d="M442 1057q-145 0 -198 -118t-56 -335h500v21q0 320 -120 399q-50 33 -126 33zM470 -10q-267 0 -318 354q-14 98 -14 224q-2 397 154 495q62 39 164 39t168 -67q68 -67 90 -167t21 -247v-62h-547q0 -392 144 -485q59 -39 139 -39t127 37t100 112l37 -28q-59 -84 -117 -125
t-148 -41zM715 1681l-238 -340h-63q-41 57 -119 170t-119 170h60q139 -201 210 -301l209 301h60z" />
    <glyph glyph-name="Gbreve" unicode="&#x11e;" horiz-adv-x="1179" 
d="M627 -10q-496 0 -496 750t479 749q215 0 402 -174v-246h-45v227q-170 143 -357 144q-428 0 -428 -688q0 -523 229 -660q89 -53 216 -53q203 0 364 147v422h-286v45h331v-495q-108 -88 -198 -128t-211 -40zM596 1696q-100 0 -149 68q-48 69 -48 186h50q0 -94 36 -153
q37 -58 115 -58t117 57t39 152h47q0 -117 -53 -185q-54 -67 -154 -67z" />
    <glyph glyph-name="gbreve" unicode="&#x11f;" horiz-adv-x="872" 
d="M428 -580q133 0 219 79t86 202t-87 189t-228 83q-74 8 -135 41q-143 -92 -144 -288q0 -134 78 -220t211 -86zM154 719q0 174 70 278q71 105 204 105t207 -107q31 25 166 129l14 -18l14 -21l-172 -129q43 -92 43 -232t-72 -238q-72 -99 -204 -99q-80 0 -139 39
q-76 -68 -76 -178t60 -166q61 -54 189 -70t224 -93t96 -210v-4q0 -150 -100 -239t-254 -89q-154 1 -244 97t-90 250q0 207 158 313q-88 67 -88 193t92 223q-98 92 -98 266zM430 1059q-113 1 -170 -93t-57 -229t58 -221t168 -86t166 88t56 225t-54 227t-167 89zM627 1604
q1 -116 -53 -184t-154 -68t-149 68q-48 69 -48 186h49q0 -94 37 -152t115 -59q78 0 117 57t39 152h47z" />
    <glyph glyph-name="Gcommaaccent" unicode="&#x122;" horiz-adv-x="1179" 
d="M563 -502h-49l135 340h64zM627 -10q-496 0 -496 750t479 749q215 0 402 -174v-246h-45v227q-170 143 -357 144q-428 0 -428 -688q0 -523 229 -660q89 -53 216 -53q203 0 364 147v422h-286v45h331v-495q-108 -88 -198 -128t-211 -40z" />
    <glyph glyph-name="gcommaaccent" unicode="&#x123;" horiz-adv-x="872" 
d="M428 -580q133 0 219 79t86 202t-87 189t-228 83q-74 8 -135 41q-143 -92 -144 -288q0 -134 78 -220t211 -86zM154 719q0 174 70 278q71 105 204 105t207 -107q31 25 166 129l14 -18l14 -21l-172 -129q43 -92 43 -232t-72 -238q-72 -99 -204 -99q-80 0 -139 39
q-76 -68 -76 -178t60 -166q61 -54 189 -70t224 -93t96 -210v-4q0 -150 -100 -239t-254 -89q-154 1 -244 97t-90 250q0 207 158 313q-88 67 -88 193t92 223q-98 92 -98 266zM430 1059q-113 1 -170 -93t-57 -229t58 -221t168 -86t166 88t56 225t-54 227t-167 89zM438 1139h-63
l149 340h49z" />
    <glyph glyph-name="Imacron" unicode="&#x12a;" horiz-adv-x="704" 
d="M82 0v45h246v1389h-246v45h543v-45h-248v-1389h248v-45h-543zM508 1698h-322v43h322v-43z" />
    <glyph glyph-name="imacron" unicode="&#x12b;" horiz-adv-x="614" 
d="M70 0v45h243v1002h-243v45h297v-1047h229v-45h-526zM496 1350h-322v43h322v-43z" />
    <glyph glyph-name="Iogonek" unicode="&#x12e;" horiz-adv-x="704" 
d="M82 0v45h246v1389h-246v45h543v-45h-248v-1389h248v-45h-265q-117 -74 -116 -193q0 -149 100 -149q39 0 90 47l29 -27q-69 -66 -131 -66t-99 56q-37 55 -36 139q0 117 98 193h-213z" />
    <glyph glyph-name="iogonek" unicode="&#x12f;" horiz-adv-x="614" 
d="M190 -193q0 117 99 193h-219v45h243v1002h-243v45h297v-1047h229v-45h-242q-117 -74 -116 -193q0 -149 100 -149q39 0 90 47l29 -27q-69 -66 -131 -66t-99 56q-37 55 -37 139zM339 1346q-30 0 -30 28t30 27q30 1 30 -27t-30 -28z" />
    <glyph glyph-name="Idotaccent" unicode="&#x130;" horiz-adv-x="704" 
d="M82 0v45h246v1389h-246v45h543v-45h-248v-1389h248v-45h-543zM354 1747q30 -1 29 -29q0 -28 -30 -28t-29 28q0 29 30 29z" />
    <glyph glyph-name="dotlessi" unicode="&#x131;" horiz-adv-x="614" 
d="M70 0v45h243v1002h-243v45h297v-1047h229v-45h-526z" />
    <glyph glyph-name="Kcommaaccent" unicode="&#x136;" horiz-adv-x="1220" 
d="M612 -502h-49l135 340h64zM1221 45v-45h-521v45h222q-365 463 -545 694v-694h205v-45h-500v45h246v1389h-246v45h500v-45h-205v-619l510 619h-219v45h520v-45h-232q-201 -243 -550 -656l587 -733h228z" />
    <glyph glyph-name="kcommaaccent" unicode="&#x137;" horiz-adv-x="1073" 
d="M516 -502h-49l135 340h64zM1104 45v-45h-285q-96 102 -275 288t-235 244v-487h228v-45h-523v45h246v1548h-244v45h293v-1044q72 76 215 226t215 227h-200v45h510v-45h-242l-461 -484l498 -518h260z" />
    <glyph glyph-name="Lacute" unicode="&#x139;" horiz-adv-x="1038" 
d="M80 0v45h248v1389h-248v45h541v-45h-244v-1389h534v223h45v-268h-876zM498 2025l-238 -339h-59l237 339h60z" />
    <glyph glyph-name="lacute" unicode="&#x13a;" horiz-adv-x="571" 
d="M16 0v45h244v1548h-242v45h291v-1593h248v-45h-541zM389 2128l-237 -340h-60l238 340h59z" />
    <glyph glyph-name="Lcommaaccent" unicode="&#x13b;" horiz-adv-x="1038" 
d="M520 -502h-49l135 340h64zM80 0v45h248v1389h-248v45h541v-45h-244v-1389h534v223h45v-268h-876z" />
    <glyph glyph-name="lcommaaccent" unicode="&#x13c;" horiz-adv-x="571" 
d="M223 -502h-49l135 340h64zM16 0v45h244v1548h-242v45h291v-1593h248v-45h-541z" />
    <glyph glyph-name="Lcaron" unicode="&#x13d;" horiz-adv-x="1042" 
d="M862 1139h-49l135 340h64zM80 0v45h248v1389h-248v45h541v-45h-244v-1389h534v223h45v-268h-876z" />
    <glyph glyph-name="lcaron" unicode="&#x13e;" horiz-adv-x="571" 
d="M16 0v45h244v1548h-242v45h291v-1593h248v-45h-541zM459 1376h-49l135 340h63z" />
    <glyph glyph-name="Lslash" unicode="&#x141;" horiz-adv-x="1038" 
d="M328 1434h-248v45h541v-45h-244v-615q119 98 229 193v-64q-61 -53 -229 -194v-709h534v223h45v-268h-876v45h248v668q-81 -70 -138 -115v66l138 112v658z" />
    <glyph glyph-name="lslash" unicode="&#x142;" horiz-adv-x="583" 
d="M317 45h248v-45h-540v45h243v780q-31 -25 -90 -75t-90 -76v65l180 150v704h-241v45h290v-708q31 27 93 79t94 78v-63q-8 -7 -187 -158v-821z" />
    <glyph glyph-name="Nacute" unicode="&#x143;" horiz-adv-x="1445" 
d="M623 45v-45h-541v45h246v1389h-244v45h299q334 -637 719 -1385v1340h-244v45h541v-45h-248v-1434h-57q-357 687 -717 1380v-1335h246zM913 2028l-237 -340h-60l238 340h59z" />
    <glyph glyph-name="nacute" unicode="&#x144;" horiz-adv-x="1148" 
d="M848 698q0 359 -196 359q-104 0 -178 -86q-73 -86 -109 -207v-719h176v-45h-471v45h245v1002h-245v45h295v-222q43 102 115 167q73 65 167 65q139 0 195 -106t55 -291v-660h244v-45h-471v45h178v653zM762 1679l-238 -340h-59q82 115 237 340h60z" />
    <glyph glyph-name="Ncommaaccent" unicode="&#x145;" horiz-adv-x="1445" 
d="M659 -502h-49l135 340h64zM623 45v-45h-541v45h246v1389h-244v45h299q334 -637 719 -1385v1340h-244v45h541v-45h-248v-1434h-57q-357 687 -717 1380v-1335h246z" />
    <glyph glyph-name="ncommaaccent" unicode="&#x146;" horiz-adv-x="1148" 
d="M578 -502h-50l136 340h63zM848 698q0 359 -196 359q-104 0 -178 -86q-73 -86 -109 -207v-719h176v-45h-471v45h245v1002h-245v45h295v-222q43 102 115 167q73 65 167 65q139 0 195 -106t55 -291v-660h244v-45h-471v45h178v653z" />
    <glyph glyph-name="Ncaron" unicode="&#x147;" horiz-adv-x="1445" 
d="M623 45v-45h-541v45h246v1389h-244v45h299q334 -637 719 -1385v1340h-244v45h541v-45h-248v-1434h-57q-357 687 -717 1380v-1335h246zM1036 2025l-237 -339h-64q-171 250 -237 339h59q139 -201 211 -301l209 301h59z" />
    <glyph glyph-name="ncaron" unicode="&#x148;" horiz-adv-x="1148" 
d="M848 698q0 359 -196 359q-104 0 -178 -86q-73 -86 -109 -207v-719h176v-45h-471v45h245v1002h-245v45h295v-222q43 102 115 167q73 65 167 65q139 0 195 -106t55 -291v-660h244v-45h-471v45h178v653zM885 1677l-238 -340h-63q-39 55 -118 170t-120 170h60
q139 -201 210 -301l209 301h60z" />
    <glyph glyph-name="Omacron" unicode="&#x14c;" horiz-adv-x="1153" 
d="M188 754q0 -418 113 -580q43 -61 114 -99t165 -38q181 0 270 133t107 357q9 95 10 216q0 396 -115 562q-96 137 -290 137q-106 0 -184 -56q-190 -133 -190 -632zM137 720q0 441 132 622q105 147 321 147q115 0 204 -57q219 -140 220 -690q2 -550 -220 -694
q-89 -58 -216 -58t-217 58q-155 102 -203 400q-20 126 -21 272zM727 1698h-321v43h321v-43z" />
    <glyph glyph-name="omacron" unicode="&#x14d;" horiz-adv-x="929" 
d="M180 549q0 -385 139 -475q59 -39 145 -39q168 0 231 151q53 131 54 366t-61 371t-224 136q-160 0 -222 -135t-62 -375zM725 138q-74 -148 -266 -148t-263 165q-65 146 -65 399t74 400q74 148 265 148t262 -164q65 -144 66 -399q1 -253 -73 -401zM623 1350h-322v43h322
v-43z" />
    <glyph glyph-name="Ohungarumlaut" unicode="&#x150;" horiz-adv-x="1153" 
d="M188 754q0 -418 113 -580q43 -61 114 -99t165 -38q181 0 270 133t107 357q9 95 10 216q0 396 -115 562q-96 137 -290 137q-106 0 -184 -56q-190 -133 -190 -632zM137 720q0 441 132 622q105 147 321 147q115 0 204 -57q219 -140 220 -690q2 -550 -220 -694
q-89 -58 -216 -58t-217 58q-155 102 -203 400q-20 126 -21 272zM668 1681h-50l136 340h63zM471 1681h-49l135 340h64z" />
    <glyph glyph-name="ohungarumlaut" unicode="&#x151;" horiz-adv-x="929" 
d="M180 549q0 -385 139 -475q59 -39 145 -39q168 0 231 151q53 131 54 366t-61 371t-224 136q-160 0 -222 -135t-62 -375zM725 138q-74 -148 -266 -148t-263 165q-65 146 -65 399t74 400q74 148 265 148t262 -164q65 -144 66 -399q1 -253 -73 -401zM563 1333h-49l135 340h64
zM367 1333h-50l136 340h63z" />
    <glyph glyph-name="OE" unicode="&#x152;" horiz-adv-x="1523" 
d="M575 47q139 0 209 51v1288q-57 47 -182 48q-418 0 -418 -727q0 -660 391 -660zM1423 0h-755q-43 -6 -95 -6q-438 0 -438 711q0 571 239 718q95 59 230 60q27 0 72 -4h698v-269h-45v224h-495v-646h450v-45h-450v-698h544v223h45v-268z" />
    <glyph glyph-name="oe" unicode="&#x153;" horiz-adv-x="1484" 
d="M1057 1057q-145 0 -199 -118t-55 -335h500v21q0 318 -120 399q-50 33 -126 33zM180 549q0 -385 139 -475q59 -39 145 -39q168 0 231 151q53 131 54 366t-61 371t-224 136q-160 0 -222 -135t-62 -375zM1350 621v-62h-547q0 -393 143 -485q60 -39 140 -39t126 37t101 112
l37 -28q-58 -84 -116 -125t-138 -41q-254 0 -320 295q-61 -295 -311 -295q-198 0 -269 165q-65 146 -65 399t74 400t258 148q244 0 309 -277q55 276 289 277q111 0 177 -67t90 -167q22 -100 22 -247z" />
    <glyph glyph-name="Racute" unicode="&#x154;" horiz-adv-x="1226" 
d="M1268 45v-45h-283q-174 348 -352 698q-12 -2 -35 -2h-221v-651h246v-45h-543v45h248v1389h-248v45h512q162 -1 246 -101t84 -269q0 -348 -238 -402l334 -662h250zM584 1434h-207v-693h227q135 -1 201 95q65 96 65 257t-72 251t-214 90zM674 2023l-238 -340h-59
q98 131 237 340h60z" />
    <glyph glyph-name="racute" unicode="&#x155;" horiz-adv-x="759" 
d="M70 0v45h245v1002h-245v45h295v-172q113 182 333 182v-45q-112 1 -198 -59t-135 -162v-791h231v-45h-526zM487 1679l-237 -340h-60l238 340h59z" />
    <glyph glyph-name="Rcommaaccent" unicode="&#x156;" horiz-adv-x="1226" 
d="M600 -502h-49l135 340h64zM1268 45v-45h-283q-174 348 -352 698q-12 -2 -35 -2h-221v-651h246v-45h-543v45h248v1389h-248v45h512q162 -1 246 -101t84 -269q0 -348 -238 -402l334 -662h250zM584 1434h-207v-693h227q135 -1 201 95q65 96 65 257t-72 251t-214 90z" />
    <glyph glyph-name="rcommaaccent" unicode="&#x157;" horiz-adv-x="759" 
d="M285 -502h-49l135 340h63zM70 0v45h245v1002h-245v45h295v-172q113 182 333 182v-45q-112 1 -198 -59t-135 -162v-791h231v-45h-526z" />
    <glyph glyph-name="Rcaron" unicode="&#x158;" horiz-adv-x="1226" 
d="M1268 45v-45h-283q-174 348 -352 698q-12 -2 -35 -2h-221v-651h246v-45h-543v45h248v1389h-248v45h512q162 -1 246 -101t84 -269q0 -348 -238 -402l334 -662h250zM584 1434h-207v-693h227q135 -1 201 95q65 96 65 257t-72 251t-214 90zM797 2021l-238 -340h-63
q-39 55 -118 169t-120 171h59q139 -201 211 -301l209 301h60z" />
    <glyph glyph-name="rcaron" unicode="&#x159;" horiz-adv-x="759" 
d="M70 0v45h245v1002h-245v45h295v-172q113 182 333 182v-45q-112 1 -198 -59t-135 -162v-791h231v-45h-526zM610 1677l-237 -340h-64q-41 55 -119 170t-118 170h59q139 -201 211 -301l209 301h59z" />
    <glyph glyph-name="Sacute" unicode="&#x15a;" horiz-adv-x="907" 
d="M426 -10q-84 0 -145 30t-138 99v246h45v-222q68 -57 119 -83t123 -25q129 0 205 87t76 221t-66 222t-204 182q-139 93 -203 181t-64 232t72 236q72 91 207 91q82 0 140 -30t140 -99v-246h-45v227q-126 103 -238 103t-168 -79t-56 -206t60 -207t197 -175t207 -190t70 -250
t-88 -250t-246 -95zM319 1683l238 340h59l-117 -171q-79 -114 -120 -169h-60z" />
    <glyph glyph-name="sacute" unicode="&#x15b;" horiz-adv-x="782" 
d="M401 -10q-128 0 -274 110v246h45v-221q130 -90 232 -90q102 -1 151 65t49 168v4q0 102 -53 162t-162 111q-213 96 -213 317q0 104 56 172t168 68t216 -94v-246h-45v227q-86 68 -175 68q-89 -1 -132 -55t-43 -140q0 -195 182 -274q125 -57 187 -129t62 -195
q1 -122 -61 -198t-190 -76zM524 1679l-237 -340h-60l238 340h59z" />
    <glyph glyph-name="Scedilla" unicode="&#x15e;" horiz-adv-x="907" 
d="M490 -410q-64 0 -115 45l20 35q37 -35 97 -35q86 0 86 115t-68 115q-33 0 -59 -27l-17 19l-18 18q4 10 19 51t26 66q-12 -2 -35 -2q-84 0 -145 30t-138 99v246h45v-222q68 -57 119 -83t123 -25q140 0 210 95t70 221t-65 214q-66 88 -204 182q-139 93 -203 181t-64 232
t72 236q72 91 207 91q82 0 140 -30t140 -99v-246h-45v227q-126 103 -238 103t-168 -79t-56 -206t60 -207t197 -175t207 -190t70 -237t-65 -234q-65 -91 -183 -116q-8 -28 -21 -55q-12 -27 -16 -37q25 4 39 4q57 0 86 -45t29 -117t-37 -115q-38 -43 -102 -43z" />
    <glyph glyph-name="scedilla" unicode="&#x15f;" horiz-adv-x="782" 
d="M382 -428q-64 0 -116 45l21 35q37 -35 96 -35q86 0 86 115t-68 114q-33 0 -59 -26l-16 18l-19 19q6 16 53 137q-113 14 -233 106v246h45v-221q130 -90 232 -90q102 -1 151 65t49 168v4q0 102 -53 162t-162 111q-213 96 -213 317q0 104 56 172t168 68t216 -94v-246h-45
v227q-86 68 -175 68q-89 -1 -132 -55t-43 -140q0 -195 182 -274q125 -57 187 -129t62 -195q1 -122 -61 -198t-181 -76h-2q-12 -33 -41 -103q25 4 39 4q57 0 86 -45q28 -44 28 -116t-36 -115q-38 -43 -102 -43z" />
    <glyph glyph-name="Scaron" unicode="&#x160;" horiz-adv-x="907" 
d="M426 -10q-84 0 -145 30t-138 99v246h45v-222q68 -57 119 -83t123 -25q129 0 205 87t76 221t-66 222t-204 182q-139 93 -203 181t-64 232t72 236q72 91 207 91q82 0 140 -30t140 -99v-246h-45v227q-126 103 -238 103t-168 -79t-56 -206t60 -207t197 -175t207 -190t70 -250
t-88 -250t-246 -95zM739 2021l-237 -340h-64q-39 55 -117 169q-79 114 -120 171h59q139 -201 211 -301l209 301h59z" />
    <glyph glyph-name="scaron" unicode="&#x161;" horiz-adv-x="782" 
d="M401 -10q-128 0 -274 110v246h45v-221q130 -90 232 -90q102 -1 151 65t49 168v4q0 102 -53 162t-162 111q-213 96 -213 317q0 104 56 172t168 68t216 -94v-246h-45v227q-86 68 -175 68q-89 -1 -132 -55t-43 -140q0 -195 182 -274q125 -57 187 -129t62 -195
q1 -122 -61 -198t-190 -76zM647 1677l-237 -340h-64q-41 55 -119 170t-118 170h59q139 -201 211 -301l209 301h59z" />
    <glyph glyph-name="Tcommaaccent" unicode="&#x162;" horiz-adv-x="1085" 
d="M489 -502h-49l135 340h64zM270 0v45h248v1385h-375v-222h-45v271h889v-271h-45v222h-375v-1385h246v-45h-543z" />
    <glyph glyph-name="tcommaaccent" unicode="&#x163;" horiz-adv-x="643" 
d="M322 -518h-50l136 340h63zM412 -10q-94 0 -134 78t-40 225v682h-197v45h197v285l49 28v-313h315v-45h-315v-678q-1 -127 29 -193t102 -66t145 56l25 -45q-82 -59 -176 -59z" />
    <glyph glyph-name="Tcaron" unicode="&#x164;" horiz-adv-x="1085" 
d="M270 0v45h248v1385h-375v-222h-45v271h889v-271h-45v222h-375v-1385h246v-45h-543zM811 2025q-172 -243 -238 -339h-63q-41 57 -119 171t-119 168h60q139 -201 211 -301l209 301h59z" />
    <glyph glyph-name="tcaron" unicode="&#x165;" horiz-adv-x="643" 
d="M412 -10q-94 0 -134 78t-40 225v754h-197v45h197v213l49 28v-241h315v-45h-315v-750q-1 -127 29 -193t102 -66t145 56l25 -45q-82 -59 -176 -59zM467 1206h-49l135 340h63z" />
    <glyph glyph-name="Umacron" unicode="&#x16a;" horiz-adv-x="1361" 
d="M1065 539q0 -265 -87 -407t-299 -142t-298 145t-86 420v879h-242v45h541v-45h-252v-871q0 -254 76 -389t261 -135t262 128t77 363v904h-248v45h541v-45h-246v-895zM842 1698h-322v43h322v-43z" />
    <glyph glyph-name="umacron" unicode="&#x16b;" horiz-adv-x="1079" 
d="M782 0v211q-100 -221 -260 -221q-264 0 -264 389v668h-246v45h295v-709q0 -348 221 -348q80 0 148 84t106 192v736h-245v45h294v-1047h232v-45h-281zM678 1350h-322v43h322v-43z" />
    <glyph glyph-name="Uring" unicode="&#x16e;" horiz-adv-x="1361" 
d="M1065 539q0 -265 -87 -407t-299 -142t-298 145t-86 420v879h-242v45h541v-45h-252v-871q0 -254 76 -389t261 -135t262 128t77 363v904h-248v45h541v-45h-246v-895zM567 1937q0 -195 123 -194q125 1 125 195t-129 194q-119 0 -119 -195zM864 1936q0 -108 -43 -172
t-130 -64t-129 66t-42 172q0 108 41 174t128 65q87 0 131 -66q44 -67 44 -175z" />
    <glyph glyph-name="uring" unicode="&#x16f;" horiz-adv-x="1079" 
d="M782 0v211q-100 -221 -260 -221q-264 0 -264 389v668h-246v45h295v-709q0 -348 221 -348q80 0 148 84t106 192v736h-245v45h294v-1047h232v-45h-281zM403 1589q0 -195 123 -194q125 1 125 195t-129 194q-119 0 -119 -195zM700 1588q0 -108 -43 -172t-130 -64t-129 66
t-42 172q0 108 41 174t128 65q87 0 131 -66q44 -67 44 -175z" />
    <glyph glyph-name="Uhungarumlaut" unicode="&#x170;" horiz-adv-x="1361" 
d="M1065 539q0 -265 -87 -407t-299 -142t-298 145t-86 420v879h-242v45h541v-45h-252v-871q0 -254 76 -389t261 -135t262 128t77 363v904h-248v45h541v-45h-246v-895zM782 1681h-49l135 340h64zM586 1681h-49l135 340h63z" />
    <glyph glyph-name="uhungarumlaut" unicode="&#x171;" horiz-adv-x="1079" 
d="M782 0v211q-100 -221 -260 -221q-264 0 -264 389v668h-246v45h295v-709q0 -348 221 -348q80 0 148 84t106 192v736h-245v45h294v-1047h232v-45h-281zM618 1333h-49l136 340h63zM422 1333h-49l135 340h63z" />
    <glyph glyph-name="Uogonek" unicode="&#x172;" horiz-adv-x="1361" 
d="M555 -182q0 98 88 174q-131 8 -210 84t-109 192t-29 287v879h-242v45h541v-45h-252v-871q0 -254 76 -389t261 -135t262 128t77 363v904h-248v45h541v-45h-246v-895q0 -257 -82 -399t-276 -150q-104 -72 -105 -185q0 -65 25 -107t69 -42t97 47q10 -15 28 -27
q-69 -66 -131 -66t-98 56q-36 54 -37 152z" />
    <glyph glyph-name="uogonek" unicode="&#x173;" horiz-adv-x="1079" 
d="M800 -385q-62 0 -98 55q-37 55 -36 140q0 127 116 206v195q-100 -221 -260 -221q-264 0 -264 389v668h-246v45h295v-709q0 -348 221 -348q80 0 148 84t106 192v736h-245v45h294v-1047h232v-45h-238q-113 -74 -112 -190q0 -150 100 -150q39 0 90 47l29 -26
q-70 -66 -132 -66z" />
    <glyph glyph-name="Ydieresis" unicode="&#x178;" horiz-adv-x="1146" 
d="M598 45h244v-45h-541v45h244v645l-320 744h-243v45h540v-45h-241q49 -115 146 -342t144 -342q133 291 308 684h-240v45h541v-45h-246q-241 -540 -336 -744v-645zM654 1747q30 -1 30 -29t-30 -28t-29 28q-1 29 29 29zM482 1747q30 -1 30 -29t-30 -28t-29 28q-1 29 29 29z
" />
    <glyph glyph-name="Zacute" unicode="&#x179;" horiz-adv-x="1013" 
d="M928 0h-844v45q420 809 539 1037t182 352h-612v-224h-43v269h712v-45q-420 -810 -538 -1038t-183 -351h744v223h43v-268zM639 2028l-238 -340h-59l238 340h59z" />
    <glyph glyph-name="zacute" unicode="&#x17a;" horiz-adv-x="837" 
d="M731 0h-622v45q252 489 514 1002h-443v-224h-43v269h545v-45q-174 -336 -273 -530q-99 -193 -117 -227t-43 -85q-26 -51 -83 -160h520v223h45v-268zM553 1677l-238 -340h-59l238 340h59z" />
    <glyph glyph-name="Zdotaccent" unicode="&#x17b;" horiz-adv-x="1013" 
d="M928 0h-844v45q420 809 539 1037t182 352h-612v-224h-43v269h712v-45q-420 -810 -538 -1038t-183 -351h744v223h43v-268zM488 1747q30 -1 30 -29t-30 -28t-29 28q-1 29 29 29z" />
    <glyph glyph-name="zdotaccent" unicode="&#x17c;" horiz-adv-x="837" 
d="M731 0h-622v45q252 489 514 1002h-443v-224h-43v269h545v-45q-174 -336 -273 -530q-99 -193 -117 -227t-43 -85q-26 -51 -83 -160h520v223h45v-268zM432 1368q0 -29 -30 -29t-29 29q-1 29 29 29t30 -29z" />
    <glyph glyph-name="Zcaron" unicode="&#x17d;" horiz-adv-x="1013" 
d="M928 0h-844v45q420 809 539 1037t182 352h-612v-224h-43v269h712v-45q-420 -810 -538 -1038t-183 -351h744v223h43v-268zM762 2025l-238 -339h-63q-41 57 -120 171t-118 168h60q139 -201 211 -301l208 301h60z" />
    <glyph glyph-name="zcaron" unicode="&#x17e;" horiz-adv-x="837" 
d="M731 0h-622v45q252 489 514 1002h-443v-224h-43v269h545v-45q-174 -336 -273 -530q-99 -193 -117 -227t-43 -85q-26 -51 -83 -160h520v223h45v-268zM676 1675q-85 -124 -238 -340h-63q-39 55 -118 169t-120 171h60q139 -201 211 -301l208 301h60z" />
    <glyph glyph-name="florin" unicode="&#x192;" horiz-adv-x="612" 
d="M80 -141q-20 0 -45 6l8 45q18 -6 35 -6q109 0 139 221l127 950h-147v43h153l45 334q17 114 63 182t120 68q23 0 47 -6l-4 -23l-7 -22q-12 4 -34 4q-104 0 -131 -205q-7 -55 -23 -166t-23 -166h164v-43h-170q-86 -639 -131 -956q-36 -260 -186 -260z" />
    <glyph glyph-name="Scommaaccent" unicode="&#x218;" horiz-adv-x="907" 
d="M403 -504h-49l135 340h64zM426 -10q-84 0 -145 30t-138 99v246h45v-222q68 -57 119 -83t123 -25q129 0 205 87t76 221t-66 222t-204 182q-139 93 -203 181t-64 232t72 236q72 91 207 91q82 0 140 -30t140 -99v-246h-45v227q-126 103 -238 103t-168 -79t-56 -206t60 -207
t197 -175t207 -190t70 -250t-88 -250t-246 -95z" />
    <glyph glyph-name="scommaaccent" unicode="&#x219;" horiz-adv-x="782" 
d="M295 -522h-49l135 340h63zM401 -10q-128 0 -274 110v246h45v-221q130 -90 232 -90q102 -1 151 65t49 168v4q0 102 -53 162t-162 111q-213 96 -213 317q0 104 56 172t168 68t216 -94v-246h-45v227q-86 68 -175 68q-89 -1 -132 -55t-43 -140q0 -195 182 -274
q125 -57 187 -129t62 -195q1 -122 -61 -198t-190 -76z" />
    <glyph glyph-name="circumflex" unicode="&#x2c6;" horiz-adv-x="1024" 
d="M16 1210l238 340h63q85 -124 238 -340h-59q-139 201 -211 301l-209 -301h-60z" />
    <glyph glyph-name="caron" unicode="&#x2c7;" horiz-adv-x="780" 
d="M555 1550q-173 -252 -238 -340h-63q-41 55 -119 169t-119 171h60q139 -201 211 -301l209 301h59z" />
    <glyph glyph-name="breve" unicode="&#x2d8;" horiz-adv-x="618" 
d="M213 1268q-100 0 -148 68t-49 186h50q0 -94 36 -153q37 -58 115 -58t117 57t39 152h47q0 -117 -53 -185q-54 -67 -154 -67z" />
    <glyph glyph-name="dotaccent" unicode="&#x2d9;" horiz-adv-x="1024" 
d="M510 1370q0 -29 -30 -29t-29 29q-1 29 29 29t30 -29z" />
    <glyph glyph-name="ring" unicode="&#x2da;" horiz-adv-x="530" 
d="M70 1360q0 -195 124 -195t123 195q0 195 -129 194q-118 1 -118 -194zM23 1362q1 108 41 172q40 66 127 66t132 -66q44 -66 44 -174t-43 -174q-43 -64 -130 -64t-129 66t-42 174z" />
    <glyph glyph-name="ogonek" unicode="&#x2db;" horiz-adv-x="512" 
d="M47 -209q0 150 162 234l18 -31q-133 -76 -133 -203q0 -65 25 -107t70 -42t96 47q6 -5 14 -13l14 -14q-69 -66 -131 -66t-98 56q-36 55 -37 139z" />
    <glyph glyph-name="tilde" unicode="&#x2dc;" horiz-adv-x="817" 
d="M412 1241q-45 0 -78 28q-38 32 -75 96q-37 63 -54 75q-18 12 -50 12t-56 -31q-23 -31 -29 -59q-20 -106 -21 -121l-41 12q8 51 16 106t30 82q44 56 106 56q32 0 60 -18q28 -17 41 -35t37 -56t36 -56q35 -48 82 -48t69 54q15 36 24 92q9 55 11 65l23 -4l20 -4
q-2 -12 -8 -45t-8 -46q-16 -102 -69 -140q-21 -14 -66 -15z" />
    <glyph glyph-name="hungarumlaut" unicode="&#x2dd;" horiz-adv-x="768" 
d="M428 1444h-49l135 340h64zM231 1444h-49l135 340h64z" />
    <glyph glyph-name="pi" unicode="&#x3c0;" horiz-adv-x="1067" 
d="M772 37v1122h-465v-1122h-49v1122h-221v49h987v-49h-203v-1122h-49z" />
    <glyph glyph-name="endash" unicode="&#x2013;" horiz-adv-x="927" 
d="M750 532h-572v50h572v-50z" />
    <glyph glyph-name="emdash" unicode="&#x2014;" horiz-adv-x="1310" 
d="M1135 532h-959v50h959v-50z" />
    <glyph glyph-name="quoteleft" unicode="&#x2018;" horiz-adv-x="489" 
d="M236 1139h-64l150 340h49z" />
    <glyph glyph-name="quoteright" unicode="&#x2019;" horiz-adv-x="485" 
d="M221 1139h-49l135 340h64z" />
    <glyph glyph-name="quotesinglbase" unicode="&#x201a;" horiz-adv-x="442" 
d="M113 -281h-50l136 340h63z" />
    <glyph glyph-name="quotedblleft" unicode="&#x201c;" horiz-adv-x="526" 
d="M166 1374h-64l150 340h49zM362 1374h-63l150 340h49z" />
    <glyph glyph-name="quotedblright" unicode="&#x201d;" horiz-adv-x="329" 
d="M254 1444h-49l135 340h63zM57 1444h-49l135 340h64z" />
    <glyph glyph-name="quotedblbase" unicode="&#x201e;" horiz-adv-x="638" 
d="M309 -281h-49l135 340h64zM113 -281h-50l136 340h63z" />
    <glyph glyph-name="dagger" unicode="&#x2020;" horiz-adv-x="1126" 
d="M1057 883h-469v-1495h-49v1495h-469v49h469v547h49v-547h469v-49z" />
    <glyph glyph-name="daggerdbl" unicode="&#x2021;" horiz-adv-x="1269" 
d="M1128 -49h-469v-563h-49v563h-469v49h469v883h-469v49h469v547h49v-547h469v-49h-469v-883h469v-49z" />
    <glyph glyph-name="bullet" unicode="&#x2022;" horiz-adv-x="561" 
d="M340 901q0 -57 -59 -57t-60 57t59 57t60 -57z" />
    <glyph glyph-name="ellipsis" unicode="&#x2026;" horiz-adv-x="946" 
d="M512 24q0 -28 -30 -28t-29 29q-1 29 29 29q30 -2 30 -30zM774 24q0 -28 -30 -28t-29 29q-1 29 29 29q30 -2 30 -30zM202 -4q-30 0 -30 29t30 29t29 -29q1 -29 -29 -29z" />
    <glyph glyph-name="perthousand" unicode="&#x2030;" horiz-adv-x="2025" 
d="M1483 223q0 -284 102 -354q43 -29 107 -29q129 0 171 117q33 99 33 273t-42 274t-160 100h-4q-129 0 -168 -109t-39 -272zM1284 232q0 172 -42 272t-161 100h-4q-127 0 -167 -109t-40 -272t41 -273t171 -110q129 0 168 117q34 102 34 275zM1436 223q0 426 255 426
t255 -422q0 -201 -56 -315t-198 -115q-256 0 -256 426zM823 223q0 426 255 426t255 -422q0 -201 -56 -315t-198 -115q-256 0 -256 426zM131 1141q0 -285 102 -355q43 -28 107 -28q132 1 169 109q36 109 36 283t-42 272q-42 99 -161 100h-4q-129 0 -168 -109t-39 -272z
M442 -190h-55l610 1740h58zM84 1141q0 426 255 426t255 -422q0 -201 -56 -316t-198 -114q-256 0 -256 426z" />
    <glyph glyph-name="guilsinglleft" unicode="&#x2039;" horiz-adv-x="724" 
d="M530 313l-376 228v49l374 229v-49l-333 -205l335 -205v-47z" />
    <glyph glyph-name="guilsinglright" unicode="&#x203a;" horiz-adv-x="724" 
d="M195 313v47l335 205l-333 205v49l374 -229v-49z" />
    <glyph glyph-name="fraction" unicode="&#x2044;" horiz-adv-x="708" 
d="M76 -190h-56l611 1740h57z" />
    <glyph glyph-name="foursuperior" unicode="&#x2074;" horiz-adv-x="841" 
d="M455 854v504l-293 -504h293zM281 571v43h174v199h-318l-28 41l346 604h47v-604h180v-41h-180v-199h178v-43h-399z" />
    <glyph glyph-name="Euro" unicode="&#x20ac;" horiz-adv-x="1181" 
d="M662 -10q-209 0 -310 143q-100 143 -123 399h-116v48h114q-4 82 -4 129t4 137h-116v47h118q23 283 129 439t334 157q162 0 328 -148v-245h-45v227q-139 117 -285 117q-201 0 -295 -144t-116 -403h442v-47h-445q-4 -90 -4 -137t4 -129h447v-48h-444q20 -231 108 -360
t277 -129q112 0 190 47t160 141q16 -16 18 -16l17 -18q-93 -103 -179 -155t-208 -52z" />
    <glyph glyph-name="trademark" unicode="&#x2122;" horiz-adv-x="1517" 
d="M897 610v-45h-268v45h112q16 147 43 426t31 316h-115v43h168q39 -238 117 -709q78 471 115 709h176v-43h-123q35 -318 78 -742h115v-45h-267v45h105q-32 332 -66 633l-100 -676h-64q-74 458 -104 668q-39 -404 -62 -625h109zM434 610h109v-45h-269v45h111v742h-182v-154
h-45v197h489v-197h-45v154h-168v-742z" />
    <glyph glyph-name="estimated" unicode="&#x212e;" horiz-adv-x="1298" 
d="M733 -10q-328 0 -500 248q180 -203 500 -203q121 0 251 54t202 140q22 -18 37 -18q-103 -101 -237 -161t-253 -60zM1245 784q0 -4 -2 -9t-2 -7v16h-33v-22h-1018v-455q-98 184 -100 455h-16v45h16q6 252 100 418v-418h916v434q102 -170 102 -418v-16h33v20
q0 262 -135 420v58l123 -240l22 -281h-6zM1090 1268l16 -21v-6q-10 12 -16 27zM190 307q16 -33 43 -69q-23 23 -43 53v-70l-47 148q29 -53 47 -78v16zM190 1235q16 20 25 29q-16 -25 -25 -39v10zM190 1235q-33 -45 -47 -72l47 133v-61zM55 773q0 232 88 390l-8 -22l-67 -359
l36 -293l39 -120q-88 172 -88 404zM650 1438q-280 0 -435 -174q145 219 434 219t441 -215q-160 170 -440 170z" />
    <glyph glyph-name="partialdiff" unicode="&#x2202;" horiz-adv-x="901" 
d="M672 500q-50 325 -268 325q-116 0 -177 -110q-59 -111 -59 -285q0 -395 223 -395q156 0 215 120t66 345zM391 -10q-272 0 -272 434q1 200 69 322t218 122q193 0 268 -200l-2 192q0 303 -37 417t-108 148q-42 20 -99 21q-94 0 -162 -90l-16 16l-17 14q84 104 197 105
q140 0 201 -93q61 -95 75 -224q13 -129 13 -314l2 -268q-1 -230 -25 -334t-59 -154q-81 -114 -246 -114z" />
    <glyph glyph-name="product" unicode="&#x220f;" horiz-adv-x="1413" 
d="M92 0v45h244v1548h-240v45h1221v-45h-246v-1548h248v-45h-541v45h244v1548h-635v-1548h246v-45h-541z" />
    <glyph glyph-name="summation" unicode="&#x2211;" horiz-adv-x="817" 
d="M629 43v195h47v-238h-580v43l463 748l-461 643v45h576v-236h-45v191h-477l464 -643l-469 -748h482z" />
    <glyph glyph-name="minus" unicode="&#x2212;" horiz-adv-x="1347" 
d="M1167 608h-987v49h987v-49z" />
    <glyph glyph-name="divisionslash" unicode="&#x2215;" horiz-adv-x="673" 
d="M59 -190h-55l610 1740h58z" />
    <glyph glyph-name="bulletoperator" unicode="&#x2219;" horiz-adv-x="475" 
d="M297 901q0 -57 -59 -57t-60 57q0 57 60 57t59 -57z" />
    <glyph glyph-name="radical" unicode="&#x221a;" horiz-adv-x="1030" 
d="M96 573v45h295q86 -319 150 -550q104 388 381 1411h45q-345 -1296 -394 -1479h-63l-154 573h-260z" />
    <glyph glyph-name="infinity" unicode="&#x221e;" horiz-adv-x="1349" 
d="M400 1165q104 -1 160 -71t104 -195q47 121 108 193t168 72q108 0 182 -100t74 -240t-74 -241t-183 -101t-168 75q-58 76 -107 213q-49 -134 -86 -190q-66 -101 -175 -101q-110 1 -179 103q-68 102 -68 243t70 241q70 99 174 99zM934 1120q-90 0 -146 -78t-102 -206
q66 -180 107 -236q57 -72 145 -73t147 88t59 210t-60 208t-150 87zM410 524q49 0 72 18t37 30q13 11 27 36q13 25 21 38t21 46q12 33 17 45t18 50q12 38 16 49q-43 130 -94 208t-139 78t-144 -87t-55 -209q-1 -122 53 -212t150 -90z" />
    <glyph glyph-name="integral" unicode="&#x222b;" horiz-adv-x="634" 
d="M68 -141q-20 0 -45 6l8 45q20 -4 28 -4q117 0 146 219l178 1327q40 250 182 250q23 0 47 -6l-4 -23l-6 -22q-10 4 -31 4q-53 1 -88 -57t-47 -148q-29 -207 -89 -652q-61 -445 -95 -692t-184 -247z" />
    <glyph glyph-name="approxequal" unicode="&#x2248;" horiz-adv-x="1101" 
d="M391 662q-82 0 -115 -69q-22 -49 -40 -144l-21 6l-20 4q23 123 62 185q40 62 136 63q55 0 95 -28t84 -82q85 -104 148 -104q63 1 82 22q46 50 67 151q7 33 10 39l22 -5l21 -4q-37 -162 -77 -203q-40 -42 -108 -42q-67 -1 -111 29t-88 84t-74 76t-73 22zM385 973
q-43 -1 -71 -17q-44 -26 -67 -115q-7 -28 -18 -81l-20 6l-21 4q23 123 63 185t136 63q55 0 95 -28t84 -82q85 -104 148 -104q63 1 82 23q19 21 33 39t28 81q13 63 15 69l23 -4l20 -4q-37 -164 -77 -205t-107 -41t-111 30t-88 84t-74 76t-73 21z" />
    <glyph glyph-name="notequal" unicode="&#x2260;" horiz-adv-x="1216" 
d="M1061 422h-504l-129 -365h-51l129 365h-346v47h362l144 408h-506v47h522l129 368h53l-131 -368h328v-47h-344l-144 -408h488v-47z" />
    <glyph glyph-name="lessequal" unicode="&#x2264;" horiz-adv-x="1200" 
d="M1034 0h-887v47h887v-47zM188 821l846 -516v-53q-475 287 -887 539v61q147 90 443 269t444 270v-56q-625 -379 -846 -514z" />
    <glyph glyph-name="greaterequal" unicode="&#x2265;" horiz-adv-x="1200" 
d="M166 0v47h887v-47h-887zM166 1391l887 -539v-61q-412 -252 -887 -539v53l846 516q-221 135 -846 514v56z" />
    <glyph glyph-name="lozenge" unicode="&#x25ca;" horiz-adv-x="761" 
d="M154 954q193 -541 225 -635q47 129 229 635q-182 506 -229 635q-32 -94 -225 -635zM354 250l-250 704q98 270 250 705h49l254 -705q-139 -389 -254 -704h-49z" />
    <glyph glyph-name="commaaccent" unicode="&#xf6c3;" horiz-adv-x="573" 
d="M207 -201h-49l135 340h63z" />
    <glyph glyph-name="fi" unicode="&#xfb01;" horiz-adv-x="1013" 
d="M502 45v-45h-443v45h252v1004h-241v43h241v135q0 414 334 413q72 0 139 -32v-207h-49v176q-41 18 -109 18q-68 1 -126 -29q-137 -68 -140 -349v-125h422l2 2v-1049h197v-45h-391v45h145v1004h-375v-1004h142z" />
    <glyph glyph-name="fl" unicode="&#xfb02;" horiz-adv-x="1777" 
d="M1313 45h399v-45h-706v45h260v1004h-615v-1004h264v-45h-692v45h381v1004h-489v43h489v129q0 195 128 307t335 110q125 1 246 -30v-1563zM1069 1595q-188 0 -303 -101t-115 -277v-125h615v483q-76 20 -197 20z" />
    <glyph glyph-name="tcedilla" horiz-adv-x="643" 
d="M547 -266q-1 -72 -37 -115t-100 -43t-117 45l20 35q37 -35 97 -35q86 0 86 115t-68 114q-33 0 -59 -26l-35 37q45 117 51 133q-84 14 -116 90t-31 209v754h-197v45h197v213l49 28v-241h315v-45h-315v-750q-1 -127 29 -193t102 -66t145 56l25 -45q-82 -59 -156 -59
q-25 -66 -39 -99q25 4 39 5q57 0 86 -46q29 -44 29 -116z" />
    <glyph glyph-name="Tcedilla" horiz-adv-x="1085" 
d="M576 -408q-64 0 -115 46l10 16l10 18q37 -35 97 -34q86 0 86 114t-68 115q-33 0 -59 -27l-17 19l-18 18q8 19 23 61t24 62h-279v45h248v1385h-375v-222h-45v271h889v-271h-45v222h-375v-1385h246v-45h-215l-37 -92q25 4 39 4q57 0 86 -45t29 -117t-37 -115
q-38 -43 -102 -43z" />
    <glyph glyph-name="softhyphen" horiz-adv-x="772" 
d="M594 532h-416v50h416v-50z" />
    <glyph glyph-name="litre" horiz-adv-x="643" 
d="M51 0v45h244v1548h-242v45h291v-1593h248v-45h-541z" />
    <glyph glyph-name="ruble" horiz-adv-x="1026" 
d="M571 1434h-159v-633h159q160 1 236 73t76 236t-75 244t-237 80zM119 0v45h243v356h-147v48h147v305h-147v47h147v633h-243v45h459q184 0 269 -91q85 -90 85 -276t-85 -270t-269 -88h-166v-305h360v-48h-360v-356h247v-45h-540z" />
    <glyph glyph-name="nullsuperior" horiz-adv-x="829" 
d="M207 991q0 -284 102 -354q43 -29 107 -29q129 0 171 117q32 96 33 272q1 175 -41 275t-161 100h-4q-129 0 -168 -109t-39 -272zM160 991q0 426 255 426t255 -422q0 -201 -56 -315t-198 -115q-256 0 -256 426z" />
    <glyph glyph-name="omegamath" horiz-adv-x="1212" 
d="M154 688q0 188 20 320q20 130 68 244q100 235 366 237q453 0 453 -776q0 -215 -42 -373t-153 -295h221v-45h-260l-14 23l-16 22q125 139 169 294t44 374q0 731 -406 731q-401 0 -401 -737q0 -211 43 -365t160 -297l-27 -45h-260v45h225q-106 145 -148 300t-42 343z" />
    <glyph glyph-name="apostrophemod" horiz-adv-x="573" 
d="M233 1139h-49l135 340h64z" />
    <glyph glyph-name="mumath" horiz-adv-x="1189" 
d="M576 -10q-155 0 -220 125v-729h-49v1661h-246v45h295v-709q0 -348 222 -348q80 0 148 84t105 192v736h-245v45h295v-1047h231v-45h-281v211q-100 -221 -255 -221z" />
    <glyph glyph-name="macronmod" horiz-adv-x="548" 
d="M434 1350h-321v43h321v-43z" />
    <glyph glyph-name="turkishlira" horiz-adv-x="1232" 
d="M123 0v45h244v766h-177v47h177v266h-179v47h179v263h-244v45h543v-45h-250v-263h383v-47h-383v-266h385v-47h-385v-766h223q235 0 343 186t108 498h49q0 -337 -120 -533t-384 -196h-512z" />
    <glyph glyph-name="rupee" horiz-adv-x="1198" 
d="M0 0v41h1198v-41h-1198z" />
    <glyph glyph-name="deltamath" horiz-adv-x="1239" 
d="M119 49h999l-481 1534zM1171 0h-1105v49l542 1610h58l505 -1610v-49z" />
    <glyph glyph-name="logo" horiz-adv-x="2785" 
d="M2380 -12q-84 0 -146 30t-137 99v245h45v-221q68 -57 119 -83t123 -25q129 0 205 87q75 87 75 221t-65 222q-66 88 -204 182q-138 93 -203 181q-64 88 -64 232t72 236q72 91 206 91q82 0 140 -30t141 -99v-246h-45v227q-127 103 -239 103t-168 -79t-56 -206t60 -207
q59 -80 197 -175t208 -190t70 -250t-88 -250t-246 -95zM250 0v45h248v1385h-375v-222h-45v271h889v-271h-45v222h-375v-1385h246v-45h-543zM1524 1434h-199v-1389h223q451 0 451 682q0 707 -475 707zM1032 0v45h244v1389h-244v45h494q272 0 397 -203t125 -543
q0 -341 -120 -537t-384 -196h-512z" />
    </font>
</defs>
</svg>
