<?xml version="1.0" standalone="no"?>
<!DOCTYPE svg PUBLIC "-//W3C//DTD SVG 1.1//EN" "http://www.w3.org/Graphics/SVG/1.1/DTD/svg11.dtd" >
<svg xmlns="http://www.w3.org/2000/svg" xmlns:xlink="http://www.w3.org/1999/xlink" version="1.1">
<metadata>
Created by FontForge 20141219 at Thu Feb 19 09:37:35 2015
 By Simon Egli
Copyright 2015 Simon Egli
</metadata>
<defs>
<font id="Sean" horiz-adv-x="1118" >
  <font-face 
    font-family="Slab"
    font-weight="12"
    font-stretch="ultra-condensed"
    units-per-em="1000"
    panose-1="2 0 3 3 0 0 0 0 0 0"
    ascent="800"
    descent="-200"
    x-height="533"
    cap-height="722"
    bbox="-66 -330 2451 1077"
    underline-thickness="0"
    underline-position="0"
    unicode-range="U+0020-FB02"
  />
    <missing-glyph />
    <glyph glyph-name="A" unicode="A" 
d="M543.345 699.401c70.433 -140.32 140.537 -280.322 210.511 -420.401h-444.817c77.8506 140.079 155.755 280.081 234.306 420.401zM532 722h-2c-130.331 -232.665 -262.527 -464.399 -392.987 -697h-181.013v-25h167h31h1h205v25h-192.101
c42.2882 76.0718 84.4871 152.051 126.691 228h472.251c37.9273 -75.9492 75.8197 -151.928 113.709 -228h-193.55v-25h205h1h30h168v25h-180.654c-117.716 232.601 -234.565 464.335 -352.346 697h-2h-24z" />
    <glyph glyph-name="AE" unicode="&#xc6;" horiz-adv-x="1321" 
d="M661 0h564v12v13v107h-24v-107h-540v337h434v24h-434v311h494v-107h25v107v13v12h-514h-5h-12h-15h-1h-1h-182v-25h166.479l-470.958 -672h-181.521v-25h164h34h205v25h-187.548l131.235 188l322.313 -2.84217e-14v-188h-1h-182v-25h182h1h16h12zM633 674.726v-435.726
l-304.163 2.84217e-14z" />
    <glyph glyph-name="Aacute" unicode="&#xc1;" 
d="M470 846c74 55 148 110 222 166h-41c-75 -55 -149 -111 -223 -166h42zM543.345 699.401c70.433 -140.32 140.537 -280.322 210.511 -420.401h-444.817c77.8506 140.079 155.755 280.081 234.306 420.401zM532 722h-2c-130.331 -232.665 -262.527 -464.399 -392.987 -697
h-181.013v-25h167h31h1h204v25h-191.101c42.2882 76.0718 84.4871 152.051 126.691 228h472.251c37.9273 -75.9492 75.8197 -151.928 113.709 -228h-193.55v-25h205h1h30h168v25h-180.654c-117.716 232.601 -234.565 464.335 -352.346 697h-2h-24z" />
    <glyph glyph-name="Abreve" unicode="&#x102;" 
d="M701 967c0 -76 -70 -100 -157 -100c-85 0 -151 27 -151 101h-26c0 -90 74 -124 174 -124c106 0 186 31 186 123h-26zM543.345 699.401c70.433 -140.32 140.537 -280.322 210.511 -420.401h-444.817c77.8506 140.079 155.755 280.081 234.306 420.401zM532 722h-2
c-130.331 -232.665 -262.527 -464.399 -392.987 -697h-181.013v-25h167h31h1h204v25h-191.101c42.2882 76.0718 84.4871 152.051 126.691 228h472.251c37.9273 -75.9492 75.8197 -151.928 113.709 -228h-193.55v-25h205h1h30h168v25h-180.654
c-117.716 232.601 -234.565 464.335 -352.346 697h-2h-24z" />
    <glyph glyph-name="Acircumflex" unicode="&#xc2;" 
d="M791 845c-74 55 -148 111 -223 166h-9h-32h-9c-75 -55 -149 -111 -223 -166h41c68.6691 51.0379 138.199 102.076 206.993 153.913c68.6691 -51.837 137.338 -102.875 206.007 -153.913h42zM543.345 699.401c70.433 -140.32 140.537 -280.322 210.511 -420.401h-444.817
c77.8506 140.079 155.755 280.081 234.306 420.401zM532 722h-2c-130.331 -232.665 -262.527 -464.399 -392.987 -697h-181.013v-25h167h31h1h204v25h-191.101c42.2882 76.0718 84.4871 152.051 126.691 228h472.251c37.9273 -75.9492 75.8197 -151.928 113.709 -228
h-193.55v-25h205h1h30h168v25h-180.654c-117.716 232.601 -234.565 464.335 -352.346 697h-2h-24z" />
    <glyph glyph-name="Adieresis" unicode="&#xc4;" 
d="M604 855h43c0 -12 -9 -20 -23 -20c-12 0 -20 8 -20 20zM604 855h43c0 12 -9 20 -23 20c-12 0 -20 -8 -20 -20zM440 855h42c0 -12 -9 -20 -22 -20c-12 0 -20 8 -20 20zM440 855h42c0 12 -9 20 -22 20c-12 0 -20 -8 -20 -20zM543.345 699.401
c70.433 -140.32 140.537 -280.322 210.511 -420.401h-444.817c77.8506 140.079 155.755 280.081 234.306 420.401zM532 722h-2c-130.331 -232.665 -262.527 -464.399 -392.987 -697h-181.013v-25h167h31h1h204v25h-191.101c42.2882 76.0718 84.4871 152.051 126.691 228
h472.251c37.9273 -75.9492 75.8197 -151.928 113.709 -228h-193.55v-25h205h1h30h168v25h-180.654c-117.716 232.601 -234.565 464.335 -352.346 697h-2h-24z" />
    <glyph glyph-name="Agrave" unicode="&#xc0;" 
d="M635 845c-74 55 -148 111 -223 166h-41c74 -56 148 -111 222 -166h42zM543.345 699.401c70.433 -140.32 140.537 -280.322 210.511 -420.401h-444.817c77.8506 140.079 155.755 280.081 234.306 420.401zM532 722h-2c-130.331 -232.665 -262.527 -464.399 -392.987 -697
h-181.013v-25h167h31h1h204v25h-191.101c42.2882 76.0718 84.4871 152.051 126.691 228h472.251c37.9273 -75.9492 75.8197 -151.928 113.709 -228h-193.55v-25h205h1h30h168v25h-180.654c-117.716 232.601 -234.565 464.335 -352.346 697h-2h-24z" />
    <glyph glyph-name="Amacron" unicode="&#x100;" 
d="M687 868h-304v-24h304v24zM543.345 699.401c70.433 -140.32 140.537 -280.322 210.511 -420.401h-444.817c77.8506 140.079 155.755 280.081 234.306 420.401zM532 722h-2c-130.331 -232.665 -262.527 -464.399 -392.987 -697h-181.013v-25h167h31h1h204v25h-191.101
c42.2882 76.0718 84.4871 152.051 126.691 228h472.251c37.9273 -75.9492 75.8197 -151.928 113.709 -228h-193.55v-25h205h1h30h168v25h-180.654c-117.716 232.601 -234.565 464.335 -352.346 697h-2h-24z" />
    <glyph glyph-name="Aogonek" unicode="&#x104;" 
d="M543.345 699.401c70.433 -140.32 140.537 -280.322 210.511 -420.401h-444.817c77.8506 140.079 155.755 280.081 234.306 420.401zM532 722h-2c-130.331 -232.665 -262.527 -464.399 -392.987 -697h-181.013v-25h167h31h1h205v25h-192.101
c42.2882 76.0718 84.4871 152.051 126.691 228h472.251c37.9273 -75.9492 75.8197 -151.928 113.709 -228h-193.55v-25h163.558c-50.0688 -18.2465 -88.5579 -40.1279 -88.5579 -95c0 -64 49 -96 117 -96c41 0 67 11 104 27l-13 19c-31 -15 -54 -23 -88 -23
c-54 0 -94 24 -94 73c0 61.4731 59.9686 71.281 120.533 95h14.4674h168v25h-180.654c-117.716 232.601 -234.565 464.335 -352.346 697h-2h-24z" />
    <glyph glyph-name="Aring" unicode="&#xc5;" 
d="M418 959c0 64 52 95 122 95c75 0 131 -28 131 -95c0 -65 -55 -93 -128 -93c-71 0 -125 28 -125 93zM392 959c0 -78 65 -117 151 -117c88 0 155 37 155 117c0 82 -68 118 -158 118c-85 0 -148 -38 -148 -118zM543.345 699.401
c70.433 -140.32 140.537 -280.322 210.511 -420.401h-444.817c77.8506 140.079 155.755 280.081 234.306 420.401zM532 722h-2c-130.331 -232.665 -262.527 -464.399 -392.987 -697h-181.013v-25h167h31h1h204v25h-191.101c42.2882 76.0718 84.4871 152.051 126.691 228
h472.251c37.9273 -75.9492 75.8197 -151.928 113.709 -228h-193.55v-25h205h1h30h168v25h-180.654c-117.716 232.601 -234.565 464.335 -352.346 697h-2h-24z" />
    <glyph glyph-name="Atilde" unicode="&#xc3;" 
d="M769 968c-19 -57 -44 -102 -101 -102c-50 0 -83 16 -121 48c-40 34 -72 55 -124 55c-74 0 -116 -46 -136 -120l22 -7c18 63 52 103 114 103c44 0 72 -18 105 -47c44 -36 81 -56 138 -56c70 0 103 52 126 121zM543.345 699.401
c70.433 -140.32 140.537 -280.322 210.511 -420.401h-444.817c77.8506 140.079 155.755 280.081 234.306 420.401zM532 722h-2c-130.331 -232.665 -262.527 -464.399 -392.987 -697h-181.013v-25h167h31h1h204v25h-191.101c42.2882 76.0718 84.4871 152.051 126.691 228
h472.251c37.9273 -75.9492 75.8197 -151.928 113.709 -228h-193.55v-25h205h1h30h168v25h-180.654c-117.716 232.601 -234.565 464.335 -352.346 697h-2h-24z" />
    <glyph glyph-name="B" unicode="B" horiz-adv-x="949" 
d="M286 25v372h196h14c163 0 304 -43 304 -192c0 -130 -105 -180 -249 -180h-265zM286 0h265c162 0 277 59 277 205c0 124.09 -87.3409 182.945 -206.601 205.461c82.171 18.889 143.601 60.6652 143.601 143.539c0 115 -88 168 -212 168h-267h-9h-15h-5h-180v-25h180v-672
h-181v-25h181h5h13h11zM286 422v275h267c103 0 184 -43 184 -143c0 -106 -122 -132 -241 -132h-14h-196z" />
    <glyph glyph-name="C" unicode="C" horiz-adv-x="980" 
d="M866 655c-93 42 -193 72 -303 72c-259 0 -433 -133 -433 -383c0 -231 163 -349 405 -349c142 0 236 30 355 101l-17 19c-110 -69 -204 -93 -337 -93c-224 0 -377 110 -377 323c0 231 163 356 403 356c100.076 0 193.67 -22.223 279 -60.4318v-107.568h25v122z" />
    <glyph glyph-name="Cacute" unicode="&#x106;" horiz-adv-x="980" 
d="M491 846c74 55 149 110 223 166h-41c-75 -55 -149 -111 -223 -166h41zM866 655c-93 42 -193 72 -303 72c-259 0 -433 -133 -433 -383c0 -231 163 -349 405 -349c142 0 236 30 355 101l-17 19c-110 -69 -204 -93 -337 -93c-224 0 -377 110 -377 323c0 231 163 356 403 356
c100.076 0 193.67 -22.223 279 -60.4318v-107.568h25v122z" />
    <glyph glyph-name="Ccaron" unicode="&#x10c;" horiz-adv-x="980" 
d="M316 1010c74 -55 148 -111 223 -166h9h32h9c75 55 149 111 223 166h-42c-68.6667 -51.964 -137.333 -103.067 -206 -154.108c-68.6667 51.0409 -137.333 102.144 -206 154.108h-42zM866 655c-93 42 -193 72 -303 72c-259 0 -433 -133 -433 -383c0 -231 163 -349 405 -349
c142 0 236 30 355 101l-17 19c-110 -69 -204 -93 -337 -93c-224 0 -377 110 -377 323c0 231 163 356 403 356c100.076 0 193.67 -22.223 279 -60.4318v-107.568h25v122z" />
    <glyph glyph-name="Ccedilla" unicode="&#xc7;" horiz-adv-x="980" 
d="M483 -88c21 11 39 12 63 12c42 0 73 -17 73 -55c0 -44 -41 -54 -91 -54c-36 0 -62 2 -95 17l-11 -19c37 -15 65 -21 105 -21c66 0 119 18 119 77c0 53 -41 79 -98 79c-15.7787 0 -29.2257 -1.81349 -42.5828 -4.91301c13.1172 17.4097 26.3015 35.0181 38.4626 51.9528
c137.078 1.23783 229.618 31.4507 346.12 100.96l-17 19c-110 -69 -204 -93 -337 -93c-224 0 -377 110 -377 323c0 231 163 356 403 356c100.076 0 193.67 -22.223 279 -60.4318v-107.568h25v122c-93 42 -193 72 -303 72c-259 0 -433 -133 -433 -383
c0 -223.368 152.407 -341.079 381.275 -348.614c-15.7396 -21.4247 -31.8064 -43.5037 -47.275 -64.3863l18 -19c0.147203 0.19627 0.294504 0.392639 0.441901 0.589104z" />
    <glyph glyph-name="D" unicode="D" horiz-adv-x="1094" 
d="M291 722h-12h-17h-182v-25h182v-672h-182v-25h182h17h12h257c261 0 423 106 423 350c0 258 -167 372 -439 372h-241zM291 697h238c257 0 415 -106 415 -347c0 -227 -150 -325 -392 -325h-261v672z" />
    <glyph glyph-name="Dcaron" unicode="&#x10e;" horiz-adv-x="1094" 
d="M257 1009c74 -55 148 -111 223 -166h9h32h9c75 55 149 111 223 166h-42c-68.6667 -51.964 -137.333 -103.067 -206 -154.108c-68.6715 51.0409 -137.405 102.144 -207 154.108h-41zM291 722h-12h-17h-182v-25h182v-672h-182v-25h182h17h12h257c261 0 423 106 423 350
c0 258 -167 372 -439 372h-241zM291 697h238c257 0 415 -106 415 -347c0 -227 -150 -325 -392 -325h-261v672z" />
    <glyph glyph-name="Dcroat" unicode="&#x110;" horiz-adv-x="1094" 
d="M291 722h-12h-17h-182v-25h182v-330h-83v-27h83v-315h-182v-25h182h17h12h257c261 0 423 106 423 350c0 258 -167 372 -439 372h-241zM291 697h238c257 0 415 -106 415 -347c0 -227 -150 -325 -392 -325h-261v315h283v27h-283v330z" />
    <glyph glyph-name="E" unicode="E" horiz-adv-x="949" 
d="M289 0h564v12v13v107h-24v-107h-540v337h434v24h-434v311h494v-107h25v107v13v12h-519h-12h-16h-1h-182v-25h182h1v-672h-1h-182v-25h182h1h16h12z" />
    <glyph glyph-name="Eacute" unicode="&#xc9;" horiz-adv-x="949" 
d="M438 846c74 55 148 110 223 166h-42c-75 -55 -149 -111 -222 -166h41zM289 0h564v12v13v107h-24v-107h-540v337h434v24h-434v311h494v-107h25v107v13v12h-519h-12h-16h-1h-182v-25h182h1v-672h-1h-182v-25h182h1h16h12z" />
    <glyph glyph-name="Ecaron" unicode="&#x11a;" horiz-adv-x="949" 
d="M263 1010c74 -55 148 -111 223 -166h9h32h9c75 55 149 111 223 166h-42c-68.6667 -51.964 -137.333 -103.067 -206 -154.108c-68.6715 51.0409 -137.405 102.144 -207 154.108h-41zM289 0h564v12v13v107h-24v-107h-540v337h434v24h-434v311h494v-107h25v107v13v12h-519
h-12h-16h-1h-182v-25h182h1v-672h-1h-182v-25h182h1h16h12z" />
    <glyph glyph-name="Ecircumflex" unicode="&#xca;" horiz-adv-x="949" 
d="M759 845c-74 55 -148 111 -223 166h-9h-32h-9c-75 -55 -149 -111 -223 -166h41c69.5947 51.0361 138.328 102.072 207 153.907c68.6667 -51.8351 137.333 -102.871 206 -153.907h42zM289 0h564v12v13v107h-24v-107h-540v337h434v24h-434v311h494v-107h25v107v13v12h-519
h-12h-16h-1h-182v-25h182h1v-672h-1h-182v-25h182h1h16h12z" />
    <glyph glyph-name="Edieresis" unicode="&#xcb;" horiz-adv-x="949" 
d="M572 855h43c0 -12 -9 -20 -23 -20c-12 0 -20 8 -20 20zM572 855h43c0 12 -9 20 -22 20s-21 -8 -21 -20zM408 855h42c0 -12 -9 -20 -22 -20c-12 0 -20 8 -20 20zM408 855h42c0 12 -9 20 -22 20c-12 0 -20 -8 -20 -20zM289 0h564v12v13v107h-24v-107h-540v337h434v24h-434
v311h494v-107h25v107v13v12h-519h-12h-16h-1h-182v-25h182h1v-672h-1h-182v-25h182h1h16h12z" />
    <glyph glyph-name="Edotaccent" unicode="&#x116;" horiz-adv-x="949" 
d="M488 856h43c0 -12 -9 -20 -23 -20c-12 0 -20 8 -20 20zM488 856h43c0 12 -9 20 -23 20c-12 0 -20 -8 -20 -20zM289 0h564v12v13v107h-24v-107h-540v337h434v24h-434v311h494v-107h25v107v13v12h-519h-12h-16h-1h-182v-25h182h1v-672h-1h-182v-25h182h1h16h12z" />
    <glyph glyph-name="Egrave" unicode="&#xc8;" horiz-adv-x="949" 
d="M603 845c-74 55 -148 111 -223 166h-41c74 -56 148 -111 222 -166h42zM289 0h564v12v13v107h-24v-107h-540v337h434v24h-434v311h494v-107h25v107v13v12h-519h-12h-16h-1h-182v-25h182h1v-672h-1h-182v-25h182h1h16h12z" />
    <glyph glyph-name="Emacron" unicode="&#x112;" horiz-adv-x="949" 
d="M655 868h-303v-24h303v24zM289 0h564v12v13v107h-24v-107h-540v337h434v24h-434v311h494v-107h25v107v13v12h-519h-12h-16h-1h-182v-25h182h1v-672h-1h-182v-25h182h1h16h12z" />
    <glyph glyph-name="Eogonek" unicode="&#x118;" horiz-adv-x="944" 
d="M771.082 -1.77636e-15c-46.3735 -18.0391 -81.0821 -40.8924 -81.0821 -93c0 -63 49 -96 117 -96c40 0 67 11 103 27l-12 19c-31 -14 -54 -22 -89 -22c-53 0 -93 23 -93 72c0 60.6389 56.5704 70.7996 115.312 93l21.6875 -7.10543e-15v12v13v107h-24v-107h-540v337h434
v24h-434v311h494v-107h25v107v13v12h-519h-12h-16h-1h-182v-25h182h1v-672h-1h-182v-25h182h1h16h12z" />
    <glyph glyph-name="Eth" unicode="&#xd0;" horiz-adv-x="1094" 
d="M291 722h-12h-17h-182v-25h182v-330h-83v-27h83v-315h-182v-25h182h17h12h257c261 0 423 106 423 350c0 258 -167 372 -439 372h-241zM291 697h238c257 0 415 -106 415 -347c0 -227 -150 -325 -392 -325h-261v315h283v27h-283v330z" />
    <glyph glyph-name="Euro" unicode="&#x20ac;" horiz-adv-x="1123" 
d="M972 655c-93 42 -192 72 -302 72c-220.371 0 -379.206 -96.2852 -421.683 -279h-143.317v-26h138.159c-4.06712 -24.5791 -6.15935 -50.5861 -6.15935 -78c0 -24.2469 1.79588 -47.2489 5.28934 -69h-137.289v-26h142.407c39.4776 -168.302 188.211 -254 393.593 -254
c143 0 237 30 356 101l-17 19c-111 -69 -204 -93 -337 -93c-188.29 0 -326.158 77.0341 -366.133 227h376.133v26h-381.942c-3.99646 21.9382 -6.05804 45.2752 -6.05804 70c0 27.1401 2.25003 52.8171 6.61061 77h381.389v26h-375.748
c42.0802 164.921 189.285 253 390.748 253c101.036 0 193.739 -22.2222 279 -60.4299v-107.57h25v122z" />
    <glyph glyph-name="F" unicode="F" horiz-adv-x="915" 
d="M291 697h499v-107h25v107v13v12h-524h-14h-14h-1h-184v-25h184h1v-672h-185v-25h185h14h14h185v25h-185v337h425v24h-425v311z" />
    <glyph glyph-name="G" unicode="G" horiz-adv-x="1098" 
d="M936 90.0433c-123.102 -50.1506 -218.343 -67.0433 -353 -67.0433c-252 0 -430 108 -430 344c0 226 173 334 415 334c128.321 0 231.126 -21.7357 347 -74.3941v-105.606h24v121c-125 61 -234 85 -372 85c-261 0 -442 -116 -442 -362c0 -254 188 -370 457 -370
c148 0 244 24 380 82v244h-10h-16h-281v-25h281v-205.957z" />
    <glyph glyph-name="Gbreve" unicode="&#x11e;" horiz-adv-x="1098" 
d="M729 967c0 -76 -70 -100 -157 -100c-84 0 -150 27 -150 101h-26c0 -90 74 -124 174 -124c105 0 185 31 185 123h-26zM936 90.0433c-123.102 -50.1506 -218.343 -67.0433 -353 -67.0433c-252 0 -430 108 -430 344c0 226 173 334 415 334
c128.321 0 231.126 -21.7357 347 -74.3941v-105.606h24v121c-125 61 -234 85 -372 85c-261 0 -442 -116 -442 -362c0 -254 188 -370 457 -370c148 0 244 24 380 82v244h-10h-16h-281v-25h281v-205.957z" />
    <glyph glyph-name="Gcommaaccent" unicode="&#x122;" horiz-adv-x="1098" 
d="M486 -318l148 182h-38l-140 -182h30zM936 90.0433c-123.102 -50.1506 -218.343 -67.0433 -353 -67.0433c-252 0 -430 108 -430 344c0 226 173 334 415 334c128.321 0 231.126 -21.7357 347 -74.3941v-105.606h24v121c-125 61 -234 85 -372 85c-261 0 -442 -116 -442 -362
c0 -254 188 -370 457 -370c148 0 244 24 380 82v244h-10h-16h-281v-25h281v-205.957z" />
    <glyph glyph-name="H" unicode="H" horiz-adv-x="1234" 
d="M944 351v-326h-184v-25h199h199v25h-186v672h186v25h-199h-199v-25h184v-322h-653v322h185v25h-185h-14h-14h-185v-25h185v-672h-185v-25h185h14h14h185v25h-185v326h653z" />
    <glyph glyph-name="I" unicode="I" horiz-adv-x="552" 
d="M261 0h16h12h187v25h-187v672h187v25h-187h-12h-16h-183v-25h183v-672h-183v-25h183z" />
    <glyph glyph-name="Iacute" unicode="&#xcd;" horiz-adv-x="553" 
d="M204 846c74 55 148 110 222 166h-41c-75 -55 -149 -111 -223 -166h42zM261 0h16h12h187v25h-187v672h187v25h-187h-12h-16h-183v-25h183v-672h-183v-25h183z" />
    <glyph glyph-name="Icircumflex" unicode="&#xce;" horiz-adv-x="639" 
d="M572 845c-74 55 -148 111 -222 166h-9h-33h-9c-75 -55 -149 -111 -223 -166h42c68.5368 50.9395 137.074 101.879 206.405 153.613c68.6635 -51.734 138.058 -102.674 206.595 -153.613h41zM309 0h16h12h187v25h-187v672h187v25h-187h-12h-16h-183v-25h183v-672h-183v-25
h183z" />
    <glyph glyph-name="Idieresis" unicode="&#xcf;" horiz-adv-x="553" 
d="M338 855h43c0 -12 -9 -20 -22 -20s-21 8 -21 20zM338 855h43c0 12 -9 20 -22 20s-21 -8 -21 -20zM174 855h43c0 -12 -9 -20 -23 -20c-12 0 -20 8 -20 20zM174 855h43c0 12 -9 20 -23 20c-12 0 -20 -8 -20 -20zM261 0h17h12h186v25h-186v672h186v25h-186h-12h-17h-182v-25
h182v-672h-182v-25h182z" />
    <glyph glyph-name="Idotaccent" unicode="&#x130;" horiz-adv-x="552" 
d="M254 856h42c0 -12 -9 -20 -22 -20c-12 0 -20 8 -20 20zM254 856h42c0 12 -9 20 -22 20c-12 0 -20 -8 -20 -20zM261 0h16h12h187v25h-187v672h187v25h-187h-12h-16h-183v-25h183v-672h-183v-25h183z" />
    <glyph glyph-name="Igrave" unicode="&#xcc;" horiz-adv-x="553" 
d="M369 845c-74 55 -148 111 -223 166h-41c74 -56 148 -111 223 -166h41zM261 0h16h13h186v25h-186v672h186v25h-186h-13h-16h-182v-25h182v-672h-182v-25h182z" />
    <glyph glyph-name="Imacron" unicode="&#x12a;" horiz-adv-x="552" 
d="M421 868h-304v-24h304v24zM261 0h16h12h187v25h-187v672h187v25h-187h-12h-16h-183v-25h183v-672h-183v-25h183z" />
    <glyph glyph-name="Iogonek" unicode="&#x12e;" horiz-adv-x="552" 
d="M268.593 -7.10543e-15l8.40719 7.10543e-15h12h187v25h-187v672h187v25h-187h-12h-16h-183v-25h183v-672h-183v-25h133.597c-43.8416 -17.7501 -75.5973 -40.7983 -75.5973 -91c0 -63 48 -95 116 -95c41 0 68 11 104 27l-13 19c-31 -15 -54 -23 -88 -23
c-54 0 -93 23 -93 72c0 57.8749 51.5309 70.5612 106.593 91z" />
    <glyph glyph-name="J" unicode="J" horiz-adv-x="701" 
d="M61 43c38 -20 92 -43 157 -43c151 0 248 75 248 220v477h186v25h-186h-13h-16h-183v-25h183v-477c0 -128 -86 -195 -219 -195c-57 0 -96 16 -145 37z" />
    <glyph glyph-name="K" unicode="K" horiz-adv-x="1068" 
d="M292 368.704c172.953 -114.844 348.216 -228.919 521.346 -343.704h-165.346v-25h199l0.201998 2.52498c0.599363 -0.398406 1.1987 -0.796821 1.798 -1.19525v-1.32973h2h52h145v25h-183.652c-182.116 117.906 -364.232 237.325 -546.348 355
c171.469 106.589 340.36 211.459 511.451 317h187.549v25h-147h-49h-2h-202v-25h164.073c-163.116 -102.099 -326.859 -204.198 -489.073 -306.296v306.296h184v25h-184h-15h-14h-185v-25h185v-672h-185v-25h185h14h15h185v25h-185v343.704z" />
    <glyph glyph-name="Kcommaaccent" unicode="&#x136;" horiz-adv-x="1068" 
d="M501 -318l149 182h-38l-141 -182h30zM292 368.704c172.953 -114.844 348.216 -228.919 521.346 -343.704h-165.346v-25h199l0.201998 2.52498c0.599363 -0.398406 1.1987 -0.796821 1.798 -1.19525v-1.32973h2h52h145v25h-183.652
c-182.116 117.906 -364.232 237.325 -546.348 355c171.469 106.589 340.36 211.459 511.451 317h187.549v25h-147h-49h-2h-202v-25h164.073c-163.116 -102.099 -326.859 -204.198 -489.073 -306.296v306.296h184v25h-184h-15h-14h-185v-25h185v-672h-185v-25h185h14h15h185
v25h-185v343.704z" />
    <glyph glyph-name="L" unicode="L" horiz-adv-x="922" 
d="M291 0h553v12v13v107h-25v-107h-528v672h183v25h-183h-16h-13h-186v-25h186v-672h-186v-25h186h13h16z" />
    <glyph glyph-name="Lacute" unicode="&#x139;" horiz-adv-x="923" 
d="M205 845c74 55 148 110 222 166h-41c-75 -55 -149 -111 -223 -166h42zM291 0h554v12v13v107h-25v-107h-529v672h183v25h-183h-16h-13h-185v-25h185v-672h-185v-25h185h13h16z" />
    <glyph glyph-name="Lcaron" unicode="&#x13d;" horiz-adv-x="874" 
d="M623 540l149 182h-39l-140 -182h30zM291 0h553v12v13v107h-25v-107h-528v672h183v25h-183h-16h-13h-186v-25h186v-672h-186v-25h186h13h16z" />
    <glyph glyph-name="Lcommaaccent" unicode="&#x13b;" horiz-adv-x="922" 
d="M419 -318l148 182h-38l-140 -182h30zM291 0h553v12v13v107h-25v-107h-528v672h183v25h-183h-16h-13h-186v-25h186v-672h-186v-25h186h13h16z" />
    <glyph glyph-name="Lslash" unicode="&#x141;" horiz-adv-x="922" 
d="M291 0h553v12v13v107h-25v-107h-528v265.487c83.2725 70.1709 166.433 140.342 250 210.513v27c-83.5672 -70.1709 -166.727 -140.342 -250 -210.513v379.513h183v25h-183h-16h-13h-186v-25h186v-403.946c-37.6156 -31.6848 -75.2663 -63.3696 -113 -95.0544v-27
c37.7337 31.6848 75.3844 63.3696 113 95.0544v-241.054h-186v-25h186h13h16z" />
    <glyph glyph-name="M" unicode="M" horiz-adv-x="1426" 
d="M703 0h21h10c117.702 228.76 235.404 456.619 353.106 685.287c24.6068 -220.337 48.462 -439.923 73.0958 -660.287h-181.202v-25h184h15h13h186v25h-188.905c-26.0622 224.269 -52.0945 447.731 -77.2903 672h184.195v25h-187h-2h-10h-13h-5
c-123.444 -234.251 -243.108 -467.558 -364.503 -701.756c-121.556 234.198 -244.109 467.505 -369.497 701.756h-5h-10h-13h-3h-182v-25h179.299c-24.2638 -224.269 -49.3342 -447.731 -73.598 -672h-185.701v-25h183h16h12h187v25h-184.306
c23.7279 220.445 46.6766 440.11 70.3779 660.529c119.643 -228.749 239.285 -456.688 358.928 -685.529h9z" />
    <glyph glyph-name="N" unicode="N" horiz-adv-x="1251" 
d="M992 0h28h1v697h185v25h-185h-13h-1h-15h-183v-25h183v-669.004c-231.665 231.595 -463.295 462.338 -694 694.004h-6h-13h-16h-3h-180v-25h183v-672h-184l-1 -25h185h15h14h185v25h-185v664.878c229.418 -230.21 459.709 -459.587 690 -689.878h10z" />
    <glyph glyph-name="Nacute" unicode="&#x143;" horiz-adv-x="1251" 
d="M559 846c74 55 149 110 223 166h-42c-74 -55 -148 -111 -222 -166h41zM992 0h28h1v697h185v25h-185h-13h-1h-15h-183v-25h183v-669.004c-231.665 231.595 -463.295 462.338 -694 694.004h-6h-13h-16h-3h-180v-25h183v-672h-184l-1 -25h185h15h14h185v25h-185v664.878
c229.418 -230.21 459.709 -459.587 690 -689.878h10z" />
    <glyph glyph-name="Ncaron" unicode="&#x147;" horiz-adv-x="1251" 
d="M384 1010c74 -55 148 -111 223 -166h9h32h9c75 55 149 111 223 166h-42c-68.6667 -51.964 -137.333 -103.067 -206 -154.108c-68.6667 51.0409 -137.333 102.144 -206 154.108h-42zM992 0h28h1v697h185v25h-185h-13h-1h-15h-183v-25h183v-669.004
c-231.665 231.595 -463.295 462.338 -694 694.004h-6h-13h-16h-3h-180v-25h183v-672h-184l-1 -25h185h15h14h185v25h-185v664.878c229.418 -230.21 459.709 -459.587 690 -689.878h10z" />
    <glyph glyph-name="Ncommaaccent" unicode="&#x145;" horiz-adv-x="1251" 
d="M555 -318l149 182h-38l-141 -182h30zM992 0h28h1v697h185v25h-185h-13h-1h-15h-183v-25h183v-669.004c-231.665 231.595 -463.295 462.338 -694 694.004h-6h-13h-16h-3h-180v-25h183v-672h-184l-1 -25h185h15h14h185v25h-185v664.878
c229.418 -230.21 459.709 -459.587 690 -689.878h10z" />
    <glyph glyph-name="Ntilde" unicode="&#xd1;" horiz-adv-x="1251" 
d="M858 968c-19 -57 -43 -102 -101 -102c-49 0 -83 16 -121 48c-40 34 -72 55 -124 55c-74 0 -116 -46 -136 -120l22 -7c18 63 52 103 114 103c44 0 72 -18 106 -47c43 -36 81 -56 137 -56c70 0 103 52 126 121zM992 0h28h1v697h185v25h-185h-13h-1h-15h-183v-25h183
v-669.004c-231.665 231.595 -463.295 462.338 -694 694.004h-6h-13h-16h-3h-180v-25h183v-672h-184l-1 -25h185h15h14h185v25h-185v664.878c229.418 -230.21 459.709 -459.587 690 -689.878h10z" />
    <glyph glyph-name="O" unicode="O" horiz-adv-x="1069" 
d="M130 360c0 -231 166 -365 404 -365c240 0 404 136 404 368c0 230 -165 364 -404 364s-404 -136 -404 -367zM159 360c0 214 152 342 374 342s377 -125 377 -339s-153 -342 -374 -342c-223 0 -377 125 -377 339z" />
    <glyph glyph-name="OE" unicode="&#x152;" horiz-adv-x="1415" 
d="M756 0h564v12v13v107h-24v-107h-540v337h434v24h-434v311h494v-107h25v107v13v12h-519h-12h-17h-107.149c-18.3272 0.830764 -37.6161 1 -58.8512 1c-258 0 -433 -131 -433 -379c0 -228 165 -345 405 -345c19.5312 0 37.5674 0.276869 54.7469 1l139.253 -1.11022e-16h17
h12zM727 678.04v-631.789c-68.4445 -20.2502 -120.158 -20.2502 -193 -20.2502c-217 0 -377 108 -377 319c0 230 166 351 403 351c9.71429 0 19.0204 0.0408163 28.0175 0.0408163c50.2093 0 90.7942 -1.27116 138.983 -18.0012z" />
    <glyph glyph-name="Oacute" unicode="&#xd3;" horiz-adv-x="1069" 
d="M463 846c74 55 148 110 222 166h-41c-75 -55 -149 -111 -223 -166h42zM130 360c0 -231 166 -365 404 -365c240 0 404 136 404 368c0 230 -165 364 -404 364s-404 -136 -404 -367zM159 360c0 214 152 342 374 342s377 -125 377 -339s-153 -342 -374 -342
c-223 0 -377 125 -377 339z" />
    <glyph glyph-name="Ocircumflex" unicode="&#xd4;" horiz-adv-x="1069" 
d="M783 845c-74 55 -148 111 -222 166h-10h-32h-9c-75 -55 -149 -111 -223 -166h42c68.6691 51.0379 137.338 102.076 206.007 153.913c68.7932 -51.837 138.323 -102.875 206.993 -153.913h41zM130 360c0 -231 166 -365 404 -365c240 0 404 136 404 368
c0 230 -165 364 -404 364s-404 -136 -404 -367zM159 360c0 214 152 342 374 342s377 -125 377 -339s-153 -342 -374 -342c-223 0 -377 125 -377 339z" />
    <glyph glyph-name="Odieresis" unicode="&#xd6;" horiz-adv-x="1069" 
d="M597 855h42c0 -12 -9 -20 -22 -20c-12 0 -20 8 -20 20zM597 855h42c0 12 -9 20 -22 20c-12 0 -20 -8 -20 -20zM432 855h43c0 -12 -9 -20 -22 -20s-21 8 -21 20zM432 855h43c0 12 -9 20 -22 20s-21 -8 -21 -20zM130 360c0 -231 166 -365 404 -365c240 0 404 136 404 368
c0 230 -165 364 -404 364s-404 -136 -404 -367zM159 360c0 214 152 342 374 342s377 -125 377 -339s-153 -342 -374 -342c-223 0 -377 125 -377 339z" />
    <glyph glyph-name="Ograve" unicode="&#xd2;" horiz-adv-x="1069" 
d="M628 845c-74 55 -148 111 -223 166h-42c75 -56 149 -111 223 -166h42zM130 360c0 -231 166 -365 404 -365c240 0 404 136 404 368c0 230 -165 364 -404 364s-404 -136 -404 -367zM159 360c0 214 152 342 374 342s377 -125 377 -339s-153 -342 -374 -342
c-223 0 -377 125 -377 339z" />
    <glyph glyph-name="Ohungarumlaut" unicode="&#x150;" horiz-adv-x="1069" 
d="M588 780l148 183h-38l-140 -183h30zM422 780l148 183h-38l-140 -183h30zM130 360c0 -231 166 -365 404 -365c240 0 404 136 404 368c0 230 -165 364 -404 364s-404 -136 -404 -367zM159 360c0 214 152 342 374 342s377 -125 377 -339s-153 -342 -374 -342
c-223 0 -377 125 -377 339z" />
    <glyph glyph-name="Omacron" unicode="&#x14c;" horiz-adv-x="1069" 
d="M680 868h-304v-24h304v24zM130 360c0 -231 166 -365 404 -365c240 0 404 136 404 368c0 230 -165 364 -404 364s-404 -136 -404 -367zM159 360c0 214 152 342 374 342s377 -125 377 -339s-153 -342 -374 -342c-223 0 -377 125 -377 339z" />
    <glyph glyph-name="Oslash" unicode="&#xd8;" horiz-adv-x="1069" 
d="M130 360c0 -150.08 70.0697 -259.216 184.43 -317.26l-72.4305 -106.74l21 -15l74.9878 110.771c56.7503 -24.1581 122.993 -36.7715 196.012 -36.7715c240 0 404 136 404 368c0 142.164 -63.039 247.651 -167.627 307.487l62.6273 92.5126l-21 13l-63.6935 -93.864
c-60.5278 29.4134 -133.151 44.864 -214.307 44.864c-239 0 -404 -136 -404 -367zM159 360c0 214 152 342 374 342c75.6755 0 143.566 -14.525 200.185 -42.1489l-403.113 -594.061c-106.324 54.1077 -171.072 155.449 -171.072 294.21zM755.222 648.107
c96.4063 -55.9725 154.778 -153.781 154.778 -285.107c0 -214 -153 -342 -374 -342c-68.016 0 -129.613 11.6285 -182.38 33.864z" />
    <glyph glyph-name="Otilde" unicode="&#xd5;" horiz-adv-x="1069" 
d="M762 968c-19 -57 -44 -102 -102 -102c-49 0 -82 16 -120 48c-41 34 -72 55 -125 55c-73 0 -116 -46 -135 -120l22 -7c17 63 51 103 114 103c44 0 72 -18 105 -47c43 -36 81 -56 137 -56c71 0 103 52 127 121zM130 360c0 -231 166 -365 404 -365c240 0 404 136 404 368
c0 230 -165 364 -404 364s-404 -136 -404 -367zM159 360c0 214 152 342 374 342s377 -125 377 -339s-153 -342 -374 -342c-223 0 -377 125 -377 339z" />
    <glyph glyph-name="P" unicode="P" horiz-adv-x="892" 
d="M292 344.731v352.269h159c166 0 301 -57 301 -205c0 -131 -117 -188 -261 -188c-75.7899 0 -130.809 15.1061 -199 40.7315zM283 722h-4h-16h-183v-25h183v-672h-183v-25h183h16h13h186v25h-186v294.015c64.751 -23.7807 124.749 -40.015 195 -40.015
c164 3 294 67 294 215c0 160 -146 228 -326 228h-163h-9z" />
    <glyph glyph-name="Q" unicode="Q" horiz-adv-x="1086" 
d="M130 360c0 -231 168 -365 408 -365c1.50236 0 3.00179 0.00541341 4.49827 0.0162298c145.986 -191.487 306.498 -234.016 539.502 -234.016v26c-215.617 0 -368.228 36.1355 -505.996 209.189c218.311 13.8632 365.996 148.322 365.996 367.811c0 230 -166 363 -405 363
c-240 0 -407 -136 -407 -367zM159 360c0 214 155 340 377 340c223 0 377 -124 377 -337c0 -214 -153 -341 -374 -341c-224 0 -380 124 -380 338z" />
    <glyph glyph-name="R" unicode="R" horiz-adv-x="1121" 
d="M279 722h-4h-13h-186v-25h186v-672h-186v-25h186h13h16h183v25h-183v314h217c14.179 0 28.0517 0.349036 41.5689 1.07717l331.431 -340.077h2h35h163v25h-187.562c-103.998 105.915 -207.246 211.83 -310.47 317.745c128.895 13.8946 218.031 68.2767 218.031 193.255
c0 143 -121 186 -282 186h-228h-12zM291 697h223c147 0 259 -35 259 -163c0 -130 -114 -171 -261 -171h-221v334z" />
    <glyph glyph-name="Racute" unicode="&#x154;" horiz-adv-x="1121" 
d="M415 846c74 55 148 110 223 166h-42c-75 -55 -149 -111 -222 -166h41zM279 722h-4h-13h-186v-25h186v-672h-186v-25h186h13h16h183v25h-183v314h217c14.179 0 28.0517 0.349036 41.5689 1.07717l331.431 -340.077h2h35h163v25h-187.562
c-103.998 105.915 -207.246 211.83 -310.47 317.745c128.895 13.8946 218.031 68.2767 218.031 193.255c0 143 -121 186 -282 186h-228h-12zM291 697h223c147 0 259 -35 259 -163c0 -130 -114 -171 -261 -171h-221v334z" />
    <glyph glyph-name="Rcaron" unicode="&#x158;" horiz-adv-x="1121" 
d="M240 1010c74 -55 148 -111 223 -166h9h32h9c75 55 149 111 223 166h-42c-68.6667 -51.964 -137.333 -103.067 -206 -154.108c-68.6715 51.0409 -137.405 102.144 -207 154.108h-41zM279 722h-4h-13h-186v-25h186v-672h-186v-25h186h13h16h183v25h-183v314h217
c14.179 0 28.0517 0.349036 41.5689 1.07717l331.431 -340.077h2h35h163v25h-187.562c-103.998 105.915 -207.246 211.83 -310.47 317.745c128.895 13.8946 218.031 68.2767 218.031 193.255c0 143 -121 186 -282 186h-228h-12zM291 697h223c147 0 259 -35 259 -163
c0 -130 -114 -171 -261 -171h-221v334z" />
    <glyph glyph-name="Rcommaaccent" unicode="&#x156;" horiz-adv-x="1121" 
d="M473 -318l148 182h-38l-140 -182h30zM279 722h-4h-13h-186v-25h186v-672h-186v-25h186h13h16h183v25h-183v314h217c14.179 0 28.0517 0.349036 41.5689 1.07717l331.431 -340.077h2h35h163v25h-187.562c-103.998 105.915 -207.246 211.83 -310.47 317.745
c128.895 13.8946 218.031 68.2767 218.031 193.255c0 143 -121 186 -282 186h-228h-12zM291 697h223c147 0 259 -35 259 -163c0 -130 -114 -171 -261 -171h-221v334z" />
    <glyph glyph-name="S" unicode="S" horiz-adv-x="843" 
d="M136 58c91 -42 183 -63 281 -63c162 0 286 35 286 175c0 135 -130 165 -265 213c-118 42 -240 65 -240 179c0 102 103 141 222 141c89.5886 0 156.469 -19.9835 237 -53.8906v-107.109h25v121c-89 40 -163 64 -261 64c-136 0 -251 -48 -251 -166
c0 -128 126 -155 252 -200c126 -44 253 -72 253 -191c0 -121 -112 -148 -256 -148c-90.6865 0 -175.789 19.5456 -258 55.0451v101.955h-25v-121z" />
    <glyph glyph-name="Sacute" unicode="&#x15a;" horiz-adv-x="843" 
d="M351 846c74 55 148 110 222 166h-41c-75 -55 -149 -111 -223 -166h42zM136 58c91 -42 183 -63 281 -63c162 0 286 35 286 175c0 135 -130 165 -265 213c-118 42 -240 65 -240 179c0 102 103 141 222 141c89.5886 0 156.469 -19.9835 237 -53.8906v-107.109h25v121
c-89 40 -163 64 -261 64c-136 0 -251 -48 -251 -166c0 -128 126 -155 252 -200c126 -44 253 -72 253 -191c0 -121 -112 -148 -256 -148c-90.6865 0 -175.789 19.5456 -258 55.0451v101.955h-25v-121z" />
    <glyph glyph-name="Scaron" unicode="&#x160;" horiz-adv-x="843" 
d="M176 1010c74 -55 148 -111 223 -166h9h32h9c75 55 149 111 223 166h-42c-68.6667 -51.964 -137.333 -103.067 -206 -154.108c-68.6667 51.0409 -137.333 102.144 -206 154.108h-42zM137 58c90 -42 182 -63 281 -63c162 0 285 35 285 175c0 135 -130 165 -264 213
c-119 42 -240 65 -240 179c0 102 103 141 221 141c89.5407 0 157.304 -19.9622 237 -53.8362v-107.164h25v121c-89 40 -162 64 -260 64c-136 0 -251 -48 -251 -166c0 -128 125 -155 251 -200c126 -44 253 -72 253 -191c0 -121 -111 -148 -256 -148
c-89.3596 0 -175.026 19.3881 -257 54.616v102.384h-25v-121z" />
    <glyph glyph-name="Scedilla" unicode="&#x15e;" horiz-adv-x="843" 
d="M342 -89c21 11 39 12 63 12c42 0 73 -17 73 -55c0 -44 -41 -54 -91 -54c-36 0 -62 2 -95 17l-11 -19c36 -15 65 -21 105 -21c66 0 119 18 119 77c0 53 -42 79 -98 79c-15.6571 0 -29.2734 -1.78564 -42.7815 -4.84158c13.1786 17.761 26.4599 35.7273 39.381 52.9732
c4.45464 -0.0877412 8.92133 -0.131612 13.4006 -0.131612c162 0 286 35 286 175c0 135 -130 165 -265 213c-118 42 -240 65 -240 179c0 102 103 141 222 141c89.5886 0 156.469 -19.9835 237 -53.8906v-107.109h25v121c-89 40 -163 64 -261 64c-136 0 -251 -48 -251 -166
c0 -128 126 -155 252 -200c126 -44 253 -72 253 -191c0 -121 -112 -148 -256 -148c-90.6865 0 -175.789 19.5456 -258 55.0451v101.955h-25v-121c76.8643 -35.4758 154.442 -55.9691 235.746 -61.4798c-16.4635 -22.0897 -33.5629 -44.9436 -48.7465 -66.5202l18 -19
c0.142798 0.190397 0.285642 0.380887 0.428532 0.571468z" />
    <glyph glyph-name="Scommaaccent" unicode="&#x218;" horiz-adv-x="843" 
d="M301 -323l149 183h-38l-141 -183h30zM136 58c91 -42 183 -63 281 -63c162 0 286 35 286 175c0 135 -130 165 -265 213c-118 42 -240 65 -240 179c0 102 103 141 222 141c89.5886 0 156.469 -19.9835 237 -53.8906v-107.109h25v121c-89 40 -163 64 -261 64
c-136 0 -251 -48 -251 -166c0 -128 126 -155 252 -200c126 -44 253 -72 253 -191c0 -121 -112 -148 -256 -148c-90.6865 0 -175.789 19.5456 -258 55.0451v101.955h-25v-121z" />
    <glyph glyph-name="T" unicode="T" horiz-adv-x="1023" 
d="M498 695v-671h-186v-24h186h13h15h184v24h-184v671h379v-106h25v106v14v13h-836v-13v-14v-106h25v106h379z" />
    <glyph glyph-name="Tcaron" unicode="&#x164;" horiz-adv-x="1023" 
d="M261 1009c74 -55 148 -111 223 -166h9h32h9c75 55 149 111 223 166h-42c-68.6667 -51.964 -137.333 -103.067 -206 -154.108c-68.6715 51.0409 -137.405 102.144 -207 154.108h-41zM498 695v-671h-186v-24h186h13h15h184v24h-184v671h379v-106h25v106v14v13h-836v-13v-14
v-106h25v106h379z" />
    <glyph glyph-name="Tcedilla" horiz-adv-x="1023" 
d="M467 -90c22 11 39 13 63 13c42 0 74 -17 74 -56c0 -43 -42 -54 -92 -54c-36 0 -62 2 -95 17l-10 -19c36 -15 65 -21 104 -21c67 0 120 19 120 77c0 53 -42 79 -99 79c-15.613 0 -28.943 -1.52195 -42.162 -4.43808c13.5733 18.0997 27.4716 36.6715 40.162 54.4381
l-5.25 4h1.25h184v24h-184v671h379v-106h25v106v14v13h-836v-13v-14v-106h25v106h379v-671h-186v-24h186h2.22263c-16.8081 -22.9513 -35.2367 -47.9183 -52.2226 -70l1 -1z" />
    <glyph glyph-name="Tcommaaccent" unicode="&#x162;" horiz-adv-x="1023" 
d="M429 -324l148 183h-38l-140 -183h30zM498 695v-671h-186v-24h186h13h15h184v24h-184v671h379v-106h25v106v14v13h-836v-13v-14v-106h25v106h379z" />
    <glyph glyph-name="Thorn" unicode="&#xde;" horiz-adv-x="886" 
d="M292 697h186v25h-186h-13h-16h-183v-25h183v-672h-183v-25h183h16h13h186v25h-186v191.021c64.8863 -23.784 125.743 -40.021 196 -40.021c163 3 293 67 293 214c0 160 -147 228 -326 228h-163v79zM292 242.649v350.351h159c166 0 301 -57 301 -204
c0 -131 -117 -188 -261 -188c-75.7899 0 -130.809 15.1061 -199 41.6489z" />
    <glyph glyph-name="U" unicode="U" horiz-adv-x="1172" 
d="M260 697h189v25h-199h-199v-25h182v-426c0 -203 135 -276 355 -276c217 0 350 70 350 269v433h185v25h-199h-199v-25h186v-437c0 -174 -123 -238 -320 -238c-206 0 -331 65 -331 254v421z" />
    <glyph glyph-name="Uacute" unicode="&#xda;" horiz-adv-x="1172" 
d="M511 846c74 55 149 110 223 166h-42c-74 -55 -148 -111 -222 -166h41zM260 697h189v25h-199h-199v-25h182v-426c0 -203 135 -276 355 -276c217 0 350 70 350 269v433h185v25h-199h-199v-25h186v-437c0 -174 -123 -238 -320 -238c-206 0 -331 65 -331 254v421z" />
    <glyph glyph-name="Ucircumflex" unicode="&#xdb;" horiz-adv-x="1172" 
d="M832 845c-74 55 -148 111 -223 166h-9h-32h-9c-75 -55 -149 -111 -223 -166h42c68.6667 51.036 137.333 102.072 206 153.907c68.6667 -51.835 137.333 -102.871 206 -153.907h42zM260 697h189v25h-199h-199v-25h182v-426c0 -203 135 -276 355 -276c217 0 350 70 350 269
v433h185v25h-199h-199v-25h186v-437c0 -174 -123 -238 -320 -238c-206 0 -331 65 -331 254v421z" />
    <glyph glyph-name="Udieresis" unicode="&#xdc;" horiz-adv-x="1172" 
d="M645 855h43c0 -12 -9 -20 -22 -20s-21 8 -21 20zM645 855h43c0 12 -9 20 -22 20s-21 -8 -21 -20zM481 855h43c0 -12 -9 -20 -23 -20c-12 0 -20 8 -20 20zM481 855h43c0 12 -9 20 -23 20c-12 0 -20 -8 -20 -20zM260 697h189v25h-199h-199v-25h182v-426
c0 -203 135 -276 355 -276c217 0 350 70 350 269v433h185v25h-199h-199v-25h186v-437c0 -174 -123 -238 -320 -238c-206 0 -331 65 -331 254v421z" />
    <glyph glyph-name="Ugrave" unicode="&#xd9;" horiz-adv-x="1172" 
d="M676 845c-74 55 -148 111 -223 166h-41c74 -56 148 -111 223 -166h41zM260 697h189v25h-199h-199v-25h182v-426c0 -203 135 -276 355 -276c217 0 350 70 350 269v433h185v25h-199h-199v-25h186v-437c0 -174 -123 -238 -320 -238c-206 0 -331 65 -331 254v421z" />
    <glyph glyph-name="Uhungarumlaut" unicode="&#x170;" horiz-adv-x="1172" 
d="M637 780l148 183h-38l-140 -183h30zM470 780l149 183h-39l-140 -183h30zM260 697h189v25h-199h-199v-25h182v-426c0 -203 135 -276 355 -276c217 0 350 70 350 269v433h185v25h-199h-199v-25h186v-437c0 -174 -123 -238 -320 -238c-206 0 -331 65 -331 254v421z" />
    <glyph glyph-name="Umacron" unicode="&#x16a;" horiz-adv-x="1172" 
d="M728 868h-303v-24h303v24zM260 697h189v25h-199h-199v-25h182v-426c0 -203 135 -276 355 -276c217 0 350 70 350 269v433h185v25h-199h-199v-25h186v-437c0 -174 -123 -238 -320 -238c-206 0 -331 65 -331 254v421z" />
    <glyph glyph-name="Uogonek" unicode="&#x172;" horiz-adv-x="1172" 
d="M525.539 -2.82271c-46.602 -18.0669 -81.5386 -40.8988 -81.5386 -93.1773c0 -63 49 -96 117 -96c40 0 67 11 103 27c-12 19 0 1 -12 19c-31 -14 -55 -22 -89 -22c-53 0 -93 23 -93 72c0 58.8193 53.2263 70.1444 110.032 91.0323
c2.64351 -0.021584 5.29962 -0.0323251 7.96824 -0.0323259c217 0 350 70 350 269v433h185v25h-199h-199v-25h186v-437c0 -174 -123 -238 -320 -238c-206 0 -331 65 -331 254v421h189v25h-199h-199v-25h182v-426c0 -183.013 109.726 -260.365 292.539 -273.823z" />
    <glyph glyph-name="Uring" unicode="&#x16e;" horiz-adv-x="1172" 
d="M459 959c0 64 53 95 123 95c74 0 131 -28 131 -95c0 -65 -56 -93 -129 -93c-70 0 -125 28 -125 93zM434 959c0 -78 65 -117 150 -117c88 0 155 37 155 117c0 82 -68 118 -158 118c-84 0 -147 -38 -147 -118zM260 697h189v25h-199h-199v-25h182v-426
c0 -203 135 -276 355 -276c217 0 350 70 350 269v433h185v25h-199h-199v-25h186v-437c0 -174 -123 -238 -320 -238c-206 0 -331 65 -331 254v421z" />
    <glyph glyph-name="V" unicode="V" horiz-adv-x="1127" 
d="M892 722h-204v-25h193.035c-116.646 -224.951 -232.481 -449.091 -349.132 -674.048c-118.575 224.956 -237.122 449.096 -354.827 674.048h191.924v25h-205h-1h-32h-167v-25h180.176c122.608 -232.601 245.216 -464.335 367.824 -697h8h24h7
c120.677 232.665 240.422 464.399 361.035 697h179.965v25h-167h-31h-1v-1.92802c-0.33334 -0.642693 -0.666674 -1.28538 -1 -1.92806v3.85608z" />
    <glyph glyph-name="W" unicode="W" horiz-adv-x="1400" 
d="M937.708 33.9708c-76.4133 229.589 -154.515 458.355 -231.708 688.029h-9h-18h-9c-85.6006 -229.219 -172.106 -457.534 -257.795 -686.665c-73.5549 220.066 -149.381 441.647 -222.864 661.665h193.658v25h-199h-3h-29h-167v-25h175.407
c78.2644 -232.601 157.429 -464.335 236.593 -697h2h25h2c86.8427 232.546 174.617 464.16 261.525 696.64c78.1585 -232.48 156.317 -464.095 234.475 -696.64h4h23h3c82.0604 232.665 164.121 464.399 246.181 697h175.819v25h-167h-29h-3h-198v-25h192.185
c-78.0024 -221.278 -155.161 -441.772 -231.477 -663.029z" />
    <glyph glyph-name="X" unicode="X" horiz-adv-x="1047" 
d="M524.133 363.57c103.879 -112.789 207.756 -225.577 311.838 -338.57h-188.971v-25h199h13h35h151v25h-174.032c-109.849 119.218 -219.698 238.207 -329.547 357.211c97.2577 104.863 194.706 209.737 292.343 314.789h175.236v25h-152h-34h-12h-199v-25h187.757
c-91.8223 -98.7342 -183.801 -197.312 -275.798 -295.871c-90.9754 98.5592 -181.951 197.137 -272.926 295.871h184.968v25h-199h-9h-34h-156v-25h179.029c96.6567 -104.932 193.137 -209.687 289.606 -314.43c-111.197 -119.124 -222.408 -238.232 -333.391 -357.57
h-176.243v-25h153h38h7h199v25h-182.964c104.146 112.993 208.512 225.781 313.097 338.57z" />
    <glyph glyph-name="Y" unicode="Y" horiz-adv-x="989" 
d="M477 338.143c104.373 119.295 207.883 239.454 312.148 358.857h168.852v25h-147h-30h-22h-199v-25h199h0.135909c-99.5458 -113.879 -199.04 -228.445 -297.781 -342.294c-94.0602 113.849 -186.686 228.415 -280.686 342.294h1.33124h199v25h-199h-22h-30h-147v-25
h167.498c98.1713 -119.784 196.4 -240.329 295.502 -360v-312h-184v-25h184h15h16h183v25h-183v313.143z" />
    <glyph glyph-name="Yacute" unicode="&#xdd;" horiz-adv-x="989" 
d="M387 846c75 55 149 110 223 166h-41c-75 -55 -149 -111 -223 -166h41zM477 338.143c104.373 119.295 207.883 239.454 312.148 358.857h168.852v25h-147h-30h-22h-199v-25h199h0.135909c-99.5458 -113.879 -199.04 -228.445 -297.781 -342.294
c-94.0602 113.849 -186.686 228.415 -280.686 342.294h1.33124h199v25h-199h-22h-30h-147v-25h167.498c98.1713 -119.784 196.4 -240.329 295.502 -360v-312h-184v-25h184h15h16h183v25h-183v313.143z" />
    <glyph glyph-name="Ydieresis" unicode="&#x178;" horiz-adv-x="989" 
d="M522 855h42c0 -12 -9 -20 -22 -20s-20 8 -20 20zM522 855h42c0 12 -9 20 -22 20s-20 -8 -20 -20zM357 855h43c0 -12 -9 -20 -23 -20c-12 0 -20 8 -20 20zM357 855h43c0 12 -9 20 -23 20c-12 0 -20 -8 -20 -20zM477 338.143
c104.373 119.295 207.883 239.454 312.148 358.857h168.852v25h-147h-30h-22h-199v-25h199h0.135909c-99.5458 -113.879 -199.04 -228.445 -297.781 -342.294c-94.0602 113.849 -186.686 228.415 -280.686 342.294h1.33124h199v25h-199h-22h-30h-147v-25h167.498
c98.1713 -119.784 196.4 -240.329 295.502 -360v-312h-184v-25h184h15h16h183v25h-183v313.143z" />
    <glyph glyph-name="Z" unicode="Z" horiz-adv-x="948" 
d="M759.987 697c-221.978 -221 -0.0359542 -0.0135132 -679.987 -672v-25h768v12v13v107h-26v-107h-704.987c221.978 221 0.0359542 0.0135132 679.987 672v25h-665v-12v-13v-107h25v107h602.987z" />
    <glyph glyph-name="Zacute" unicode="&#x179;" horiz-adv-x="948" 
d="M400 846c74 55 148 110 223 166h-42c-75 -55 -149 -111 -222 -166h41zM759.987 697c-221.978 -221 -0.0359542 -0.0135132 -679.987 -672v-25h768v12v13v107h-26v-107h-704.987c221.978 221 0.0359542 0.0135132 679.987 672v25h-665v-12v-13v-107h25v107h602.987z" />
    <glyph glyph-name="Zcaron" unicode="&#x17d;" horiz-adv-x="948" 
d="M225 1009c74 -55 148 -111 223 -166h9h32h9c75 55 149 111 223 166h-42c-68.6667 -51.0361 -137.333 -102.072 -206 -153.907c-68.6715 51.8351 -137.405 102.871 -207 153.907h-41zM759.987 697c-221.978 -221 -0.0359542 -0.0135132 -679.987 -672v-25h768v12v13v107
h-26v-107h-704.987c221.978 221 0.0359542 0.0135132 679.987 672v25h-665v-12v-13v-107h25v107h602.987z" />
    <glyph glyph-name="Zdotaccent" unicode="&#x17b;" horiz-adv-x="948" 
d="M450 856h43c0 -12 -9 -20 -23 -20c-12 0 -20 8 -20 20zM450 856h43c0 12 -9 20 -23 20c-12 0 -20 -8 -20 -20zM759.987 697c-221.978 -221 -0.0359542 -0.0135132 -679.987 -672v-25h768v12v13v107h-26v-107h-704.987c221.978 221 0.0359542 0.0135132 679.987 672v25
h-665v-12v-13v-107h25v107h602.987z" />
    <glyph glyph-name="a" unicode="a" horiz-adv-x="802" 
d="M615 0h11h174v24h-174v365c0 124 -91 149 -224 149c-109 0 -190 -30 -257 -74v-120h25v107.398c60.2367 34.9597 132.586 61.602 229 61.602c119 0 199 -19 199 -131v-63.3114c-100.371 -10.0264 -164.403 -14.1371 -268 -24.6886c-117 -12 -205 -36 -205 -141
c0 -111 80 -158 199 -158c124.305 0 190.094 51.6318 274 137.334v-132.334h17zM598 160.2c-86.7619 -83.8553 -147.775 -141.2 -269 -141.2c-105 0 -176 39 -176 136c0 89 77 107 176 117c104.252 10.5209 168.254 16.4678 269 26.5902v-138.39z" />
    <glyph glyph-name="aacute" unicode="&#xe1;" horiz-adv-x="802" 
d="M338 660c74 55 148 110 222 166h-41c-75 -55 -149 -111 -223 -166h42zM615 0h11h174v24h-174v365c0 124 -91 149 -224 149c-109 0 -190 -30 -257 -74v-120h25v107.398c60.2367 34.9597 132.586 61.602 229 61.602c119 0 199 -19 199 -131v-63.3114
c-100.371 -10.0264 -164.403 -14.1371 -268 -24.6886c-117 -12 -205 -36 -205 -141c0 -111 80 -158 199 -158c124.305 0 190.094 51.6318 274 137.334v-132.334h17zM598 160.2c-86.7619 -83.8553 -147.775 -141.2 -269 -141.2c-105 0 -176 39 -176 136c0 89 77 107 176 117
c104.252 10.5209 168.254 16.4678 269 26.5902v-138.39z" />
    <glyph glyph-name="abreve" unicode="&#x103;" horiz-adv-x="802" 
d="M569 781c0 -76 -70 -100 -158 -100c-84 0 -150 27 -150 101h-26c0 -90 74 -124 174 -124c106 0 186 31 186 123h-26zM615 0h11h174v24h-174v365c0 124 -91 149 -224 149c-109 0 -190 -30 -257 -74v-120h25v107.398c60.2367 34.9597 132.586 61.602 229 61.602
c119 0 199 -19 199 -131v-63.3114c-100.371 -10.0264 -164.403 -14.1371 -268 -24.6886c-117 -12 -205 -36 -205 -141c0 -111 80 -158 199 -158c124.305 0 190.094 51.6318 274 137.334v-132.334h17zM598 160.2c-86.7619 -83.8553 -147.775 -141.2 -269 -141.2
c-105 0 -176 39 -176 136c0 89 77 107 176 117c104.252 10.5209 168.254 16.4678 269 26.5902v-138.39z" />
    <glyph glyph-name="acircumflex" unicode="&#xe2;" horiz-adv-x="802" 
d="M659 659c-74 55 -148 111 -223 166h-9h-32h-9c-75 -55 -149 -111 -223 -166h41c69.5947 51.0361 138.328 102.072 207 153.907c68.6667 -51.8351 137.333 -102.871 206 -153.907h42zM615 0h11h174v24h-174v365c0 124 -90 149 -223 149c-110 0 -191 -30 -257 -74v-120h24
v107.389c60.36 34.9639 133.506 61.6106 229 61.6106c119 0 199 -19 199 -131v-63.3114c-100.371 -10.0264 -164.403 -14.1371 -268 -24.6886c-116 -12 -205 -36 -205 -141c0 -111 80 -158 199 -158c124.305 0 190.094 51.6318 274 137.334v-132.334h17zM598 160.137
c-85.837 -83.8212 -147.805 -141.137 -269 -141.137c-105 0 -176 39 -176 136c0 89 77 107 176 117c104.252 10.5209 168.254 16.4678 269 26.5902v-138.453z" />
    <glyph glyph-name="acute" unicode="&#xb4;" horiz-adv-x="401" 
d="M52 591c74 55 148 111 223 166h-42c-75 -55 -149 -111 -222 -166h41z" />
    <glyph glyph-name="adieresis" unicode="&#xe4;" horiz-adv-x="802" 
d="M472 669h43c0 -12 -9 -20 -23 -20c-12 0 -20 8 -20 20zM472 669h43c0 12 -9 20 -23 20c-12 0 -20 -8 -20 -20zM308 669h42c0 -12 -9 -20 -22 -20c-12 0 -20 8 -20 20zM308 669h42c0 12 -9 20 -22 20c-12 0 -20 -8 -20 -20zM615 0h11h174v24h-174v365
c0 124 -91 149 -224 149c-109 0 -190 -30 -257 -74v-120h25v107.398c60.2367 34.9597 132.586 61.602 229 61.602c119 0 199 -19 199 -131v-63.3114c-100.371 -10.0264 -164.403 -14.1371 -268 -24.6886c-117 -12 -205 -36 -205 -141c0 -111 80 -158 199 -158
c124.305 0 190.094 51.6318 274 137.334v-132.334h17zM598 160.2c-86.7619 -83.8553 -147.775 -141.2 -269 -141.2c-105 0 -176 39 -176 136c0 89 77 107 176 117c104.252 10.5209 168.254 16.4678 269 26.5902v-138.39z" />
    <glyph glyph-name="ae" unicode="&#xe6;" horiz-adv-x="1267" 
d="M1113 295h-489.688c6.08783 144.064 100.77 217 249.688 217c144 0 240 -66 240 -208v-9zM623.102 271h516.898v31c0 159 -104 235 -265 235c-121.198 0 -210.618 -42.7001 -252.868 -127.751c-9.52966 106.519 -96.7115 128.751 -222.132 128.751
c-109 0 -190 -30 -257 -74v-111h25v96.2144c61.9936 36.8565 128.782 63.7856 229 63.7856c118 0 198 -19 198 -131v-86.9949c-13.8609 0.0092812 -27.0302 0.027941 -39.7295 0.027941c-76.0639 0 -135.27 -0.669421 -225.27 -8.03306c-117 -12 -207 -32 -207 -138
c0 -109 79 -154 198 -154c128.159 0 216.984 45.7357 307.595 135.457c48.6777 -90.7527 147.616 -136.457 279.405 -136.457c92 0 153 22 229 79l-18 18c-70 -52 -126 -72 -211 -72c-170.956 0 -281.098 84.9484 -284.898 252zM595.092 271.015
c0.904316 -43.7732 8.44648 -82.3947 21.9468 -115.839c-87.3542 -84.8783 -169.242 -135.176 -290.039 -135.176c-99 0 -176 35 -176 131c0 78 80 104 178 114c66.6 5.4 115.92 6.48 167.4 6.48c30.7464 0 62.2633 -0.385243 98.6922 -0.465471z" />
    <glyph glyph-name="agrave" unicode="&#xe0;" horiz-adv-x="802" 
d="M503 659c-74 55 -148 111 -223 166h-41c74 -56 148 -111 222 -166h42zM615 0h11h174v24h-174v365c0 124 -91 149 -224 149c-109 0 -190 -30 -257 -74v-120h25v107.398c60.2367 34.9597 132.586 61.602 229 61.602c119 0 199 -19 199 -131v-63.3114
c-100.371 -10.0264 -164.403 -14.1371 -268 -24.6886c-117 -12 -205 -36 -205 -141c0 -111 80 -158 199 -158c124.305 0 190.094 51.6318 274 137.334v-132.334h17zM598 160.2c-86.7619 -83.8553 -147.775 -141.2 -269 -141.2c-105 0 -176 39 -176 136c0 89 77 107 176 117
c104.252 10.5209 168.254 16.4678 269 26.5902v-138.39z" />
    <glyph glyph-name="amacron" unicode="&#x101;" horiz-adv-x="802" 
d="M555 682h-304v-24h304v24zM615 0h11h174v24h-174v365c0 124 -91 149 -224 149c-109 0 -190 -30 -257 -74v-120h25v107.398c60.2367 34.9597 132.586 61.602 229 61.602c119 0 199 -19 199 -131v-63.3114c-100.371 -10.0264 -164.403 -14.1371 -268 -24.6886
c-117 -12 -205 -36 -205 -141c0 -111 80 -158 199 -158c124.305 0 190.094 51.6318 274 137.334v-132.334h17zM598 160.2c-86.7619 -83.8553 -147.775 -141.2 -269 -141.2c-105 0 -176 39 -176 136c0 89 77 107 176 117c104.252 10.5209 168.254 16.4678 269 26.5902
v-138.39z" />
    <glyph glyph-name="ampersand" unicode="&#x26;" horiz-adv-x="945" 
d="M372.513 367.928c14.9417 -10.6829 29.9395 -21.543 44.4872 -32.9281c89.8034 -67.3526 180.711 -135.441 271.383 -203.373c-75.4985 -72.3176 -172.199 -112.627 -292.383 -112.627c-133 0 -246 42 -246 159c0 115.134 112.304 142.592 222.513 189.928z
M707.843 117.047c52.2481 -39.1463 104.386 -78.2191 156.157 -117.047h36c-58.6876 43.8252 -117.666 88.2313 -176.713 132.776c46.8849 50.0232 85.2977 112.445 115.713 185.224l-24 6c-29.3089 -69.6086 -66.1341 -129.151 -111.017 -176.659
c-89.4812 67.5267 -179.066 135.26 -267.983 201.659c-12.4129 10.3684 -25.3163 20.161 -38.3022 29.6737c107.612 45.5313 206.433 85.3077 208.302 199.326c0 102 -92 148 -204 148c-105 0 -187 -52 -187 -150c0 -90.6629 64.9364 -141.774 136.752 -193.246
c-115.846 -49.1059 -228.752 -84.0068 -228.752 -204.754c0 -131 124 -183 271 -183c129.366 0 233.264 43.7617 313.843 122.047zM377.235 393.468c-68.9828 49.5027 -134.235 95.475 -134.235 182.532c0 82 68 127 158 127c97 0 177 -38 177 -125
c0 -107.419 -97.506 -142.168 -200.765 -184.532z" />
    <glyph glyph-name="aogonek" unicode="&#x105;" horiz-adv-x="802" 
d="M615.635 -7.10543e-15l10.3649 7.10543e-15h174v24h-174v365c0 124 -91 149 -224 149c-109 0 -190 -30 -257 -74v-120h25v107.398c60.2367 34.9597 132.586 61.602 229 61.602c119 0 199 -19 199 -131v-63.3114c-100.371 -10.0264 -164.403 -14.1371 -268 -24.6886
c-117 -12 -205 -36 -205 -141c0 -111 80 -158 199 -158c124.305 0 190.094 51.6318 274 137.334v-117.505c-68.0611 -23.1405 -128 -40.8586 -128 -109.829c0 -63 48 -96 116 -96c41 0 68 11 104 27l-13 19c-31 -14 -54 -22 -88 -22c-54 0 -93 23 -93 72
c0 62.4297 59.961 71.3557 119.635 95zM598 160.2c-86.7619 -83.8553 -147.775 -141.2 -269 -141.2c-105 0 -176 39 -176 136c0 89 77 107 176 117c104.252 10.5209 168.254 16.4678 269 26.5902v-138.39z" />
    <glyph glyph-name="apostrophemod" horiz-adv-x="534" 
d="M205 540l149 182h-39l-140 -182h30z" />
    <glyph glyph-name="approxequal" unicode="&#x2248;" horiz-adv-x="1020" 
d="M826 560c-25 -55 -68 -103 -141 -103c-64 0 -109 14 -162 48c-55 36 -98 56 -163 56c-95 0 -148 -39 -177 -119c19 -8 2 -1 21 -9c25 66 73 104 155 104c56 0 94 -13 141 -44c62 -39 110 -58 182 -59c89 0 135 46 167 117c-21 8 -2 1 -23 9zM822 345
c-25 -55 -68 -102 -141 -102c-64 0 -108 14 -162 48c-55 36 -98 55 -163 55c-95 0 -148 -38 -177 -119c19 -7 2 -1 22 -8c24 65 73 104 154 104c56 0 94 -13 141 -45c62 -38 110 -58 182 -59c89 0 135 47 167 118c-21 7 -2 1 -23 8z" />
    <glyph glyph-name="aring" unicode="&#xe5;" horiz-adv-x="802" 
d="M286 773c0 64 52 95 122 95c75 0 131 -28 131 -95c0 -65 -55 -93 -128 -93c-71 0 -125 28 -125 93zM260 773c0 -78 65 -117 151 -117c88 0 155 37 155 117c0 82 -68 118 -158 118c-85 0 -148 -38 -148 -118zM615 0h11h174v24h-174v365c0 124 -91 149 -224 149
c-109 0 -190 -30 -257 -74v-120h25v107.398c60.2367 34.9597 132.586 61.602 229 61.602c119 0 199 -19 199 -131v-63.3114c-100.371 -10.0264 -164.403 -14.1371 -268 -24.6886c-117 -12 -205 -36 -205 -141c0 -111 80 -158 199 -158
c124.305 0 190.094 51.6318 274 137.334v-132.334h17zM598 160.2c-86.7619 -83.8553 -147.775 -141.2 -269 -141.2c-105 0 -176 39 -176 136c0 89 77 107 176 117c104.252 10.5209 168.254 16.4678 269 26.5902v-138.39z" />
    <glyph glyph-name="asciicircum" unicode="^" horiz-adv-x="789" 
d="M646 466c-76 110 -159 232 -236 342h-2h-27h-2c-78 -114 -157 -228 -235 -342h29c73.5214 107.454 147.931 214.909 221.555 322.363c72.2416 -104.751 149.999 -218.868 222.445 -322.363h29z" />
    <glyph glyph-name="asciitilde" unicode="~" horiz-adv-x="1010" 
d="M816 345c-25 -55 -68 -102 -141 -102c-64 0 -108 14 -162 48c-55 36 -98 55 -163 55c-95 0 -147 -38 -177 -119c20 -7 2 -1 22 -8c24 65 73 104 154 104c56 0 94 -13 141 -45c62 -38 110 -58 183 -59c88 0 134 47 166 118c-20 7 -2 1 -23 8z" />
    <glyph glyph-name="asterisk" unicode="*" horiz-adv-x="725" 
d="M339.78 512.378c-43.3428 -33.2461 -80.9428 -63.3017 -125.78 -97.3781l20 -17c45.9729 36.5907 84.9038 67.8998 130.007 104.664c45.0972 -36.6541 84.025 -67.1386 129.993 -104.664l20 18c-45.1484 34.3128 -83.774 63.7334 -126.92 97.0968
c59.4231 15.3011 111.716 30.6021 172.92 45.9032l-10 25c-62.1899 -18.5642 -114.903 -34.5436 -175.732 -52.7366c0.910561 47.6872 1.82112 88.5663 2.73168 137.737h-28c1.82766 -49.3468 1.98515 -90.3427 2.76184 -138.25
c-60.4202 18.7292 -112.903 33.7849 -174.762 52.2503l-10 -24c61.1561 -16.1884 113.415 -30.7591 172.78 -46.6219z" />
    <glyph glyph-name="at" unicode="@" horiz-adv-x="1146" 
d="M804 -72c-77 -32 -132 -36 -216 -36c-258 0 -444 93 -444 327c0 230 188 323 442 323c240 0 411 -99 411 -318c0 -87 -34 -149 -114 -149c-81 0 -119 62 -119 149c0 113 -80 174 -198 174c-126 0 -210 -56 -210 -173c0 -121 81 -185 206 -185
c93.0788 0 152.406 45.0023 182.108 124.394c15.5445 -68.4667 60.8436 -112.394 136.892 -112.394c97 0 143 70 143 173c0 236 -181 343 -436 343c-273 0 -471 -101 -471 -350s197 -351 469 -351c89 0 149 7 231 39zM738.258 210.223
c-29.3262 -90.7469 -78.2198 -145.223 -171.258 -145.223c-112 0 -185 55 -185 161c0 100 76 147 182 147c104 0 174 -51 174 -150c0 -4.31667 0.0858524 -8.57671 0.257713 -12.7771z" />
    <glyph glyph-name="atilde" unicode="&#xe3;" horiz-adv-x="802" 
d="M637 782c-19 -57 -44 -102 -101 -102c-50 0 -83 16 -121 48c-40 34 -72 55 -124 55c-74 0 -116 -46 -136 -120l22 -7c18 63 51 103 114 103c44 0 72 -18 105 -47c44 -36 81 -56 137 -56c71 0 104 52 127 121zM615 0h11h174v24h-174v365c0 124 -91 149 -224 149
c-109 0 -190 -30 -257 -74v-120h25v107.398c60.2367 34.9597 132.586 61.602 229 61.602c119 0 199 -19 199 -131v-63.3114c-100.371 -10.0264 -164.403 -14.1371 -268 -24.6886c-117 -12 -205 -36 -205 -141c0 -111 80 -158 199 -158
c124.305 0 190.094 51.6318 274 137.334v-132.334h17zM598 160.2c-86.7619 -83.8553 -147.775 -141.2 -269 -141.2c-105 0 -176 39 -176 136c0 89 77 107 176 117c104.252 10.5209 168.254 16.4678 269 26.5902v-138.39z" />
    <glyph glyph-name="b" unicode="b" horiz-adv-x="916" 
d="M213 0h12v79.5427c83.2564 -62.5749 165.454 -84.5427 273 -84.5427c170 0 293 102 293 269c0 169 -122 274 -290 274c-111.327 0 -210.564 -44.3327 -276 -96.0907v358.091h-12h-16h-183v-25h183v-750h-183v-25h183h16zM225 108.901v303.332
c60.8199 52.6309 160.393 100.767 272 100.767c156 0 266 -95 266 -250c0 -147.476 -108.741 -243.031 -261.258 -243.031c-1.57608 0 -3.15683 0.010204 -4.74219 0.0306602c-106.343 0 -186.508 23.2693 -272 88.9013z" />
    <glyph glyph-name="backslash" unicode="\" horiz-adv-x="718" 
d="M638 -68c-176 304 -351 608 -528 912h-29c175 -304 352 -608 528 -912h29z" />
    <glyph glyph-name="bar" unicode="|" horiz-adv-x="346" 
d="M187 -300v1100h-28v-1100h28z" />
    <glyph glyph-name="braceleft" unicode="{" horiz-adv-x="479" 
d="M388 800c-101 0 -170 -54 -170 -151v-180c0 -79 -59 -118 -142 -118v-24c83 0 143 -42 143 -121v-178c0 -97 68 -150 169 -150v23c-86 0 -144 45 -144 126v177c0 67.8272 -35.9254 114.307 -93.1242 134.932c56.4619 20.214 92.1242 65.7701 92.1242 134.068v176
c0 82 58 127 145 127v24z" />
    <glyph glyph-name="braceright" unicode="}" horiz-adv-x="479" 
d="M92 775c85 0 143 -45 143 -126v-176c0 -68.7301 35.3672 -114.395 91.7899 -134.792c-55.6888 -20.9762 -90.7899 -67.1636 -90.7899 -134.208v-177c0 -82 -58 -127 -144 -127v-23c100 0 169 54 169 151v178c0 79 60 120 142 120v25c-83 0 -143 39 -143 118v180
c0 97 -68 150 -168 150v-24z" />
    <glyph glyph-name="bracketleft" unicode="[" horiz-adv-x="445" 
d="M369 771h-211v-895h211v28h-182v840h182v27z" />
    <glyph glyph-name="bracketright" unicode="]" horiz-adv-x="445" 
d="M259 -96h-183v-28h211v895h-211v-27h183v-840z" />
    <glyph glyph-name="breve" unicode="&#x2d8;" horiz-adv-x="565" 
d="M350 741c0 -77 -70 -100 -157 -100c-84 0 -150 26 -150 101h-26c0 -91 74 -125 174 -125c105 0 185 31 185 124h-26z" />
    <glyph glyph-name="brokenbar" unicode="&#xa6;" horiz-adv-x="389" 
d="M208 428v372h-27v-372h27zM208 -300v372h-27v-372h27z" />
    <glyph glyph-name="bullet" unicode="&#x2022;" horiz-adv-x="505" 
d="M210 440h85c0 24 -18 39 -45 39c-24 0 -40 -15 -40 -39zM210 440h85c0 -25 -18 -39 -45 -39c-24 0 -40 15 -40 39z" />
    <glyph glyph-name="bulletoperator" unicode="&#x2219;" horiz-adv-x="424" 
d="M169 440h85c0 24 -18 39 -44 39c-25 0 -41 -15 -41 -39zM169 440h85c0 -25 -18 -39 -44 -39c-25 0 -41 15 -41 39z" />
    <glyph glyph-name="c" unicode="c" horiz-adv-x="776" 
d="M657 473c-64 38 -140 65 -217 65c-189 0 -316 -88 -316 -271s124 -272 314 -272c85 0 170 30 233 87l-19 18c-59 -54 -136 -80 -214 -80c-170 0 -286 79 -286 247s116 246 286 246c67.8694 0 135.739 -20.1027 194 -52.4468v-108.553h25v121z" />
    <glyph glyph-name="cacute" unicode="&#x107;" horiz-adv-x="776" 
d="M366 660c74 55 149 110 223 166h-42c-74 -55 -148 -111 -222 -166h41zM657 473c-64 38 -140 65 -217 65c-189 0 -316 -88 -316 -271s124 -272 314 -272c85 0 170 30 233 87l-19 18c-59 -54 -136 -80 -214 -80c-170 0 -286 79 -286 247s116 246 286 246
c67.8694 0 135.739 -20.1027 194 -52.4468v-108.553h25v121z" />
    <glyph glyph-name="caron" unicode="&#x2c7;" horiz-adv-x="711" 
d="M9 757c74 -55 148 -111 223 -166h9h32h9c75 55 149 111 223 166h-42c-68.6667 -51.0361 -137.333 -102.933 -206 -154.093c-68.6715 51.1602 -137.405 103.057 -207 154.093h-41z" />
    <glyph glyph-name="ccaron" unicode="&#x10d;" horiz-adv-x="767" 
d="M191 824c74 -55 148 -111 223 -166h9h32h9c75 55 149 111 223 166h-42c-68.6667 -51.964 -137.333 -103.067 -206 -154.108c-68.6667 51.0409 -137.333 102.144 -206 154.108h-42zM657 473c-64 38 -140 65 -217 65c-189 0 -316 -88 -316 -271s124 -272 314 -272
c85 0 170 30 233 87l-19 18c-59 -54 -136 -80 -214 -80c-170 0 -286 79 -286 247s116 246 286 246c67.8694 0 135.739 -20.1027 194 -52.4468v-108.553h25v121z" />
    <glyph glyph-name="ccedilla" unicode="&#xe7;" horiz-adv-x="776" 
d="M389 -88c21 11 39 12 62 12c42 0 74 -17 74 -55c0 -44 -42 -54 -91 -54c-36 0 -63 2 -96 17l-10 -19c36 -15 65 -21 104 -21c67 0 120 18 120 77c0 53 -42 79 -98 79c-15.6149 0 -29.2001 -1.52233 -42.6725 -4.43919c12.9046 17.15 25.9065 34.7238 38.5709 51.6349
c80.9874 2.66324 161.042 32.4644 221.102 86.8043l-19 18c-59 -54 -136 -80 -214 -80c-170 0 -286 79 -286 247s116 246 286 246c67.8694 0 135.739 -20.1027 194 -52.4468v-108.553h25v121c-64 38 -140 65 -217 65c-189 0 -316 -88 -316 -271
c0 -176.215 114.976 -265.271 293.142 -271.633c-15.9666 -21.4188 -32.4509 -43.4909 -47.1417 -64.3673l18 -18z" />
    <glyph glyph-name="cedilla" unicode="&#xb8;" horiz-adv-x="540" 
d="M160 -80c21 11 38 13 62 13c42 0 74 -18 74 -56c0 -44 -42 -54 -91 -54c-36 0 -63 2 -96 17l-10 -19c36 -15 65 -21 104 -21c67 0 120 18 120 77c0 53 -42 79 -98 79c-15.6149 0 -29.2001 -1.52233 -42.6725 -4.43919c13.6195 18.1 27.3473 36.6723 40.6725 54.4392
l-21 16c-20 -26 -42 -56 -62 -83c19 -18 0 1 19 -18z" />
    <glyph glyph-name="cent" unicode="&#xa2;" horiz-adv-x="909" 
d="M511 678.968v99.0318h-27v-99.2557c-213.198 -5.7843 -367 -109.727 -367 -312.744c0 -195.472 137.01 -307.966 339 -311.894v-107.106h28v107.172c116.126 2.38711 200.916 29.7684 303 90.8281l-17 21c-99 -63 -183 -88 -301 -88c-192 0 -325 105 -325 289
c0 192 151 288 357 288c106 0 181 -16 275 -67l14 21c-95.6288 50.7418 -172.214 69.109 -279 69.9682z" />
    <glyph glyph-name="circumflex" unicode="&#x2c6;" horiz-adv-x="942" 
d="M504 591c-74 55 -147 111 -222 166h-9h-33h-9c-75 -55 -148 -111 -222 -166h41c68.5368 50.9395 137.074 102.737 206.405 153.803c68.6635 -51.0662 138.058 -102.864 206.595 -153.803h41z" />
    <glyph glyph-name="colon" unicode=":" horiz-adv-x="371" 
d="M169 14h33c0 10 -7 15 -17 15s-16 -6 -16 -15zM169 14h33c0 -12 -7 -16 -17 -16s-16 6 -16 16zM169 425h33c0 -11 -7 -15 -17 -15s-16 6 -16 15zM169 425h33c0 11 -7 16 -17 16s-16 -6 -16 -16z" />
    <glyph glyph-name="comma" unicode="," horiz-adv-x="410" 
d="M91 -148l148 183h-38l-140 -183h30z" />
    <glyph glyph-name="commaaccent" horiz-adv-x="534" 
d="M180 -148l148 183h-38l-140 -183h30z" />
    <glyph glyph-name="copyright" unicode="&#xa9;" horiz-adv-x="1094" 
d="M710 464c-52 24 -93 32 -150 32c-126 0 -219 -59 -219 -177c0 -113 84 -174 203 -174c71 0 122 11 184 48l-17 18c-55 -34 -102 -43 -166 -43c-104 0 -178 54 -178 152c0 103 81 153 191 153c53 0 87 -6 128 -21l11 5.5l-12 -6.5v-70h24v82.5zM127 319
c0 -216 195 -323 432 -323c226 0 409 113 409 323c0 213 -187 326 -416 326c-234 0 -425 -110 -425 -326zM153 319c0 202 179 303 399 303c214 0 389 -104 389 -304c0 -195 -171 -299 -381 -299c-221 0 -407 97 -407 300z" />
    <glyph glyph-name="currency" unicode="&#xa4;" horiz-adv-x="834" 
d="M206 310c0 -45.9506 14.1905 -82.955 38.9975 -110.953c-39.3325 -28.4987 -78.665 -57.6914 -117.997 -86.0474l18 -19c40.0649 28.884 80.1299 57.7681 119.386 86.6521c38.8025 -31.0561 94.3467 -46.6521 158.614 -46.6521
c59.9216 0 111.116 15.7089 147.358 45.6325c38.0579 -28.7093 76.85 -56.764 115.642 -85.6325l20 18c-38.7569 27.941 -78.3263 56.6945 -117.244 85.5281c25.0217 28.7434 39.2435 66.8411 39.2435 113.472c0 48.5249 -16.331 86.7256 -44.52 114.439
c38.185 27.5318 76.4584 55.1521 115.52 83.5605l-19 20c-38.9195 -28.9633 -78.6581 -57.9266 -117.733 -86.1485c-36.0223 24.6976 -84.6496 37.1485 -140.267 37.1485c-60.0276 0 -112.556 -12.8891 -150.779 -39.2344l-117.221 87.2344l-18 -20
c37.7803 -28.785 76.3697 -55.9516 114.313 -84.4114c-28.0562 -27.5084 -44.3126 -65.2475 -44.3126 -113.589zM233 310c0 98 81 146 186 146c106 0 182 -49 182 -146c0 -98 -75 -152 -177 -152c-111 0 -191 50 -191 152z" />
    <glyph glyph-name="d" unicode="d" horiz-adv-x="920" 
d="M692 434.93v-305.571c-70.0775 -76.276 -141.887 -109.359 -243 -109.359c-172 0 -302 84 -302 245c0 162 129 248 300 248c95.1771 0 177.149 -23.5805 245 -78.0698zM692 94.7738v-94.7738h15h14h185v24h-185v776h-15h-14h-185v-24h185v-311.153
c-71.3649 50.9984 -150.887 73.1529 -246 73.1529c-187 0 -328 -96 -328 -274c0 -177 144 -269 332 -269c100.085 0 174.154 30.0813 242 99.7738z" />
    <glyph glyph-name="dagger" unicode="&#x2020;" horiz-adv-x="758" 
d="M388 533v267h-28v-267h-294v-27h294v-804h28v804h304v27h-304z" />
    <glyph glyph-name="daggerdbl" unicode="&#x2021;" horiz-adv-x="894" 
d="M428 -25v-273h28v273h304v28h-304v503h304v27h-304v267h-28v-267h-294v-27h294v-503h-294v-28z" />
    <glyph glyph-name="dcaron" unicode="&#x10f;" horiz-adv-x="1011" 
d="M827 618l148 182h-38l-140 -182h30zM692 434.93v-305.571c-70.0775 -76.276 -141.887 -109.359 -243 -109.359c-172 0 -302 84 -302 245c0 162 129 248 300 248c95.1771 0 177.149 -23.5805 245 -78.0698zM692 94.7738v-94.7738h15h14h185v24h-185v776h-15h-14h-185v-24
h185v-311.153c-71.3649 50.9984 -150.887 73.1529 -246 73.1529c-187 0 -328 -96 -328 -274c0 -177 144 -269 332 -269c100.085 0 174.154 30.0813 242 99.7738z" />
    <glyph glyph-name="dcroat" unicode="&#x111;" horiz-adv-x="919" 
d="M692 654v-189.153c-71.3649 50.9984 -150.887 73.1529 -246 73.1529c-187 0 -328 -96 -328 -274c0 -177 144 -269 332 -269c100.085 0 174.154 30.0813 242 99.7738v-94.7738h15h14h185v24h-185v630h132v25h-132v121h-15h-14h-185v-24h185v-97h-245v-25h245zM692 434.93
v-305.571c-70.0775 -76.276 -141.887 -109.359 -243 -109.359c-172 0 -302 84 -302 245c0 162 129 248 300 248c95.1771 0 177.149 -23.5805 245 -78.0698z" />
    <glyph glyph-name="degree" unicode="&#xb0;" horiz-adv-x="714" 
d="M139 438c0 -132 84 -215 216 -215c133 0 219 82 219 213c0 129 -88 206 -219 206c-130 0 -216 -76 -216 -204zM165 438c0 112 74 181 188 181c117 0 196 -68 196 -183c0 -117 -76 -189 -192 -189c-118 0 -192 74 -192 191z" />
    <glyph glyph-name="deltamath" horiz-adv-x="1092" 
d="M63 0h964v27l-460 781h-5h-27h-5l-467 -781v-27zM548.384 785.277l446.616 -758.277h-901z" />
    <glyph glyph-name="dieresis" unicode="&#xa8;" horiz-adv-x="606" 
d="M268 668h42c0 -12 -9 -20 -22 -20c-12 0 -20 8 -20 20zM268 668h42c0 12 -9 20 -22 20c-12 0 -20 -8 -20 -20zM103 668h43c0 -12 -9 -20 -23 -20c-12 0 -20 8 -20 20zM103 668h43c0 12 -9 20 -22 20s-21 -8 -21 -20z" />
    <glyph glyph-name="divide" unicode="&#xf7;" horiz-adv-x="968" 
d="M171 296h626v27h-626v-27zM465 98h33c0 10 -7 16 -18 16c-9 0 -15 -7 -15 -16zM465 98h33c0 -11 -7 -16 -18 -16c-9 0 -15 7 -15 16zM465 510h33c0 10 -7 16 -18 16c-9 0 -15 -7 -15 -16zM465 510h33c0 -12 -7 -16 -18 -16c-9 0 -15 6 -15 16z" />
    <glyph glyph-name="divisionslash" unicode="&#x2215;" horiz-adv-x="612" 
d="M34 -91l575 846h-30l-575 -846h30z" />
    <glyph glyph-name="dollar" unicode="$" horiz-adv-x="797" 
d="M381 682.694c-128.357 -3.50127 -230 -37.7708 -230 -140.694c0 -114 113 -138 239 -178c128 -39 265 -61 265 -166c0 -103 -129 -126 -274 -126c-90.5747 0 -170.241 20.9072 -239 44.5215v103.478h-25v-121c70.9668 -26.8523 154.81 -49.1061 248 -50.8853v-91.1147h28
v91.0847c155.362 1.67829 290 29.0799 290 150.915c0 122 -141 144 -276 187c-119 38 -228 58 -228 156c0 91 103 117 223 117c90.2405 0 155.597 -13.8241 235 -44.1267v-104.873h25v121c-87.4793 34.402 -157.568 51.4138 -253 51.9851v90.0149h-28v-90.3062z" />
    <glyph glyph-name="dotaccent" unicode="&#x2d9;" horiz-adv-x="957" 
d="M427 668h43c0 -12 -9 -20 -23 -20c-12 0 -20 8 -20 20zM427 668h43c0 12 -9 20 -22 20s-21 -8 -21 -20z" />
    <glyph glyph-name="dotlessi" unicode="&#x131;" horiz-adv-x="469" 
d="M251 508v-483h-185v-25h185h14h16h170v25h-170v508h-16h-14h-185v-25h185z" />
    <glyph glyph-name="e" unicode="e" horiz-adv-x="803" 
d="M649 296h-489.688c6.08783 144.064 100.77 217 249.688 217c144 0 240 -66 240 -208v-9zM159.126 271h515.874v32c0 159 -103 235 -264 235c-172 0 -280 -86 -280 -257c0 -190 122 -286 313 -286c92 0 153 22 228 79l-17 18c-70 -52 -126 -72 -211 -72
c-170.615 0 -280.657 84.6094 -284.874 251z" />
    <glyph glyph-name="eacute" unicode="&#xe9;" horiz-adv-x="803" 
d="M338 660c75 55 149 110 223 166h-41c-75 -55 -149 -111 -223 -166h41zM649 296h-489.688c6.08783 144.064 100.77 217 249.688 217c144 0 240 -66 240 -208v-9zM159.126 271h515.874v32c0 159 -103 235 -264 235c-172 0 -280 -86 -280 -257c0 -190 122 -286 313 -286
c92 0 153 22 228 79l-17 18c-70 -52 -126 -72 -211 -72c-170.615 0 -280.657 84.6094 -284.874 251z" />
    <glyph glyph-name="ecaron" unicode="&#x11b;" horiz-adv-x="803" 
d="M163 824c74 -55 148 -111 223 -166h9h32h9c75 55 149 111 223 166h-42c-68.6667 -51.964 -137.333 -103.067 -206 -154.108c-68.6667 51.0409 -137.333 102.144 -206 154.108h-42zM649 296h-489.688c6.08783 144.064 100.77 217 249.688 217c144 0 240 -66 240 -208v-9z
M159.126 271h515.874v32c0 159 -103 235 -264 235c-172 0 -280 -86 -280 -257c0 -190 122 -286 313 -286c92 0 153 22 228 79l-17 18c-70 -52 -126 -72 -211 -72c-170.615 0 -280.657 84.6094 -284.874 251z" />
    <glyph glyph-name="ecircumflex" unicode="&#xea;" horiz-adv-x="803" 
d="M659 659c-74 55 -148 111 -223 166h-9h-32h-9c-75 -55 -149 -111 -223 -166h42c68.6667 51.036 137.333 102.072 206 153.907c68.6667 -51.835 137.333 -102.871 206 -153.907h42zM649 296h-489.688c6.08783 144.064 100.77 217 249.688 217c144 0 240 -66 240 -208v-9z
M159.126 271h515.874v32c0 159 -103 235 -264 235c-172 0 -280 -86 -280 -257c0 -190 122 -286 313 -286c92 0 153 22 228 79l-17 18c-70 -52 -126 -72 -211 -72c-170.615 0 -280.657 84.6094 -284.874 251z" />
    <glyph glyph-name="edieresis" unicode="&#xeb;" horiz-adv-x="803" 
d="M473 669h42c0 -12 -9 -20 -22 -20c-12 0 -20 8 -20 20zM473 669h42c0 12 -9 20 -22 20c-12 0 -20 -8 -20 -20zM308 669h43c0 -12 -9 -20 -23 -20c-12 0 -20 8 -20 20zM308 669h43c0 12 -9 20 -23 20c-12 0 -20 -8 -20 -20zM649 296h-489.688
c6.08783 144.064 100.77 217 249.688 217c144 0 240 -66 240 -208v-9zM159.126 271h515.874v32c0 159 -103 235 -264 235c-172 0 -280 -86 -280 -257c0 -190 122 -286 313 -286c92 0 153 22 228 79l-17 18c-70 -52 -126 -72 -211 -72
c-170.615 0 -280.657 84.6094 -284.874 251z" />
    <glyph glyph-name="edotaccent" unicode="&#x117;" horiz-adv-x="803" 
d="M389 670h42c0 -12 -9 -20 -22 -20s-20 8 -20 20zM389 670h42c0 12 -9 20 -22 20s-20 -8 -20 -20zM649 296h-489.688c6.08783 144.064 100.77 217 249.688 217c144 0 240 -66 240 -208v-9zM159.126 271h515.874v32c0 159 -103 235 -264 235c-172 0 -280 -86 -280 -257
c0 -190 122 -286 313 -286c92 0 153 22 228 79l-17 18c-70 -52 -126 -72 -211 -72c-170.615 0 -280.657 84.6094 -284.874 251z" />
    <glyph glyph-name="egrave" unicode="&#xe8;" horiz-adv-x="803" 
d="M503 659c-74 55 -148 111 -222 166h-42c74 -56 149 -111 223 -166h41zM649 296h-489.688c6.08783 144.064 100.77 217 249.688 217c144 0 240 -66 240 -208v-9zM159.126 271h515.874v32c0 159 -103 235 -264 235c-172 0 -280 -86 -280 -257c0 -190 122 -286 313 -286
c92 0 153 22 228 79l-17 18c-70 -52 -126 -72 -211 -72c-170.615 0 -280.657 84.6094 -284.874 251z" />
    <glyph glyph-name="eight" unicode="8" horiz-adv-x="803" 
d="M403.738 391.445c-115.434 42.2494 -220.738 56.5706 -220.738 169.555c0 107 94 139 215 139c129 0 223 -28 223 -141c0 -109.859 -103.97 -128.036 -217.262 -167.555zM439.847 378.111c112.112 40.967 209.153 64.1251 209.153 180.889c0 129 -104 168 -250 168
c-140 0 -245 -42 -245 -166c0 -118.541 97.7731 -143.596 212.303 -183.189c-128.496 -46.1414 -238.303 -73.3154 -238.303 -206.811c0 -135 115 -176 270 -176c157 0 277 37 277 176c0 130.85 -108.322 161.241 -235.153 207.111zM403.42 364.54
c128.28 -46.6479 243.58 -70.5436 243.58 -193.54c0 -122 -108 -149 -248 -149c-138 0 -242 29 -242 149c0 126.895 116.242 147.076 246.42 193.54z" />
    <glyph glyph-name="ellipsis" unicode="&#x2026;" horiz-adv-x="867" 
d="M405 14h42c0 12 -9 19 -22 19c-12 0 -20 -7 -20 -19zM405 14h42c0 -13 -9 -20 -22 -20c-12 0 -20 7 -20 20zM661 14h43c0 12 -9 19 -22 19s-21 -7 -21 -19zM661 14h43c0 -13 -9 -20 -22 -20s-21 7 -21 20zM163 14h43c0 12 -9 19 -22 19s-21 -7 -21 -19zM163 14h43
c0 -13 -9 -20 -22 -20s-21 7 -21 20z" />
    <glyph glyph-name="emacron" unicode="&#x113;" horiz-adv-x="803" 
d="M555 682h-303v-24h303v24zM649 296h-489.688c6.08783 144.064 100.77 217 249.688 217c144 0 240 -66 240 -208v-9zM159.126 271h515.874v32c0 159 -103 235 -264 235c-172 0 -280 -86 -280 -257c0 -190 122 -286 313 -286c92 0 153 22 228 79l-17 18
c-70 -52 -126 -72 -211 -72c-170.615 0 -280.657 84.6094 -284.874 251z" />
    <glyph glyph-name="emdash" unicode="&#x2014;" horiz-adv-x="1234" 
d="M167 259h900v27h-900v-27z" />
    <glyph glyph-name="endash" unicode="&#x2013;" horiz-adv-x="842" 
d="M168 259h506v27h-506v-27z" />
    <glyph glyph-name="eogonek" unicode="&#x119;" horiz-adv-x="803" 
d="M649 296h-489.688c6.08783 144.064 100.77 217 249.688 217c144 0 240 -66 240 -208v-9zM450.548 20.0405c-2.16363 -0.0270483 -4.34598 -0.0404682 -6.54778 -0.0404675c-170.615 0 -280.657 84.6094 -284.874 251h515.874v32c0 159 -103 235 -264 235
c-172 0 -280 -86 -280 -257c0 -171.028 98.8525 -265.891 257.901 -283.131c-41.1813 -17.4836 -70.9014 -40.6517 -70.9014 -88.8695c0 -63 49 -96 117 -96c40 0 67 11 103 27c-12 19 0 1 -12 19c-31 -14 -55 -22 -89 -22c-53 0 -93 23 -93 72
c0 53.9548 44.7865 67.9463 96.0395 86.0138c1.31685 -0.00921824 2.63703 -0.0138277 3.96053 -0.0138279c92 0 153 22 228 79l-17 18c-64.327 -47.7858 -116.831 -68.5481 -190.883 -71.5995l-2.11737 3.59954c-3.83118 -1.34609 -7.65164 -2.6627 -11.4522 -3.95953z" />
    <glyph glyph-name="equal" unicode="=" horiz-adv-x="1191" 
d="M171 427h848v25h-848v-25zM171 205h848v25h-848v-25z" />
    <glyph glyph-name="estimated" unicode="&#x212e;" horiz-adv-x="820" 
d="M655 621.74v-226.74h-489v221.88c56.6687 53.2317 138.517 82.1201 241 82.1201c105.395 0 189.782 -27.187 248 -77.2604zM166 370h607v31c0 203 -135 323 -364 323c-227 0 -362 -128 -362 -344c0 -241 153 -385 411 -385c106 0 221 40 311 108c-16 17 -1 1 -17 18
c-89 -64 -198 -101 -294 -101c-126.9 0 -226.401 37.4632 -292 106.181v243.819z" />
    <glyph glyph-name="eth" unicode="&#xf0;" horiz-adv-x="830" 
d="M672.602 273.972c-13.3546 177.821 -121.361 290.178 -278.759 357.621c-46.7009 -46.6946 -93.2721 -93.5158 -139.843 -140.593c-7.64873 8.05129 -8.97718 9.62025 -9.13924 9.86076c-0.240506 0.162058 -1.80947 1.49051 -9.86076 9.13924
c44.5224 44.0437 88.5864 88.0873 132.631 132.241c-77.2444 29.7288 -165.071 49.5816 -258.631 61.7593c4 26 -1 0 4 26c100.757 -11.8359 194.514 -33.2504 276.239 -66.0885c40.7595 40.8912 81.5638 81.8917 122.761 123.088
c8.05129 -7.64873 9.62025 -8.97718 9.86076 -9.13924c0.162059 -0.240507 1.49052 -1.80947 9.13924 -9.86076c-38.7538 -38.3371 -77.3339 -76.6741 -115.813 -115.084c172.987 -77.2557 285.813 -210.124 285.813 -417.916c0 -167 -129 -247 -308 -247
c-156 0 -270 66 -270 210s116 206 273 206c121.398 0 219.151 -38.9014 276.602 -130.028zM673.969 231.836c-61.7572 105.433 -149.445 146.164 -275.969 146.164c-141 0 -247 -53 -247 -182c0 -125 104 -179 240 -179c162.465 0 280.768 68.6955 282.969 214.836z
M521.861 777.861c0.116422 -0.0784478 -0.0784486 0.116423 0 0z" />
    <glyph glyph-name="exclam" unicode="!" horiz-adv-x="393" 
d="M211 229v493h-27v-493h27zM177 20h43c0 -12 -9 -19 -23 -19c-12 0 -20 7 -20 19zM177 20h43c0 13 -9 20 -23 20c-12 0 -20 -7 -20 -20z" />
    <glyph glyph-name="exclamdown" unicode="&#xa1;" horiz-adv-x="393" 
d="M181 493v-493h28v493h-28zM216 702h-43c0 12 9 19 22 19s21 -7 21 -19zM216 702h-43c0 -13 9 -20 22 -20s21 7 21 20z" />
    <glyph glyph-name="f" unicode="f" horiz-adv-x="668" 
d="M338 510v129c0 94 71 141 171 141c40.0377 0 80.0753 -10.291 118 -23.1254v-105.875h25v121c-46 17 -95 33 -143 33c-115 0 -199 -55 -199 -166v-129h-236v-25h236v-460h-185v-25h185h14h14h185v25h-185v460h305v25h-305z" />
    <glyph glyph-name="fi" unicode="&#xfb01;" horiz-adv-x="864" 
d="M304 0h15h123v25h-123v485h295v-485h-128v-25h128h18h1h8h189v25h-189v509h-322v60c0 115 82 184 201 184c34 0 60 -2 92 -11v-85h28v103c-44 11 -76 16 -121 16c-135 0 -229 -77 -228 -207v-60h-236v-24h236v-485h-186v-25h186h13z" />
    <glyph glyph-name="five" unicode="5" horiz-adv-x="756" 
d="M201 421.721v275.279h417v25h-444v-311v-11l27 -5c35 14 107 25 159 25c141 0 253 -66 253 -195c0 -131 -123 -201 -268 -201c-82 0 -147 17 -223 46l-13 -26c75 -32 149 -49 235 -49c162 0 297 80 297 230c0 144 -123 222 -280 222
c-51.641 0 -114.704 -10.0786 -160 -25.2789z" />
    <glyph glyph-name="fl" unicode="&#xfb02;" horiz-adv-x="865" 
d="M307 0h12h126v25h-126v485h295v-485h-125v-25h125h21h1h5h192v25h-192v761c-44 11 -77 15 -122 15c-135 0 -229 -77 -228 -207v-60h-236v-24h236v-485h-183v-25h183h16zM319 534v60c0 115 82 184 201 184c34 0 62 -1 94 -10v-234h-295z" />
    <glyph glyph-name="florin" unicode="&#x192;" horiz-adv-x="595" 
d="M584 827c-13.9919 2.078 -27.504 3.11966 -40.4698 3.11966c-80.6277 0 -140.132 -40.2803 -162.53 -122.12c-13.9648 -53.6148 -27.9296 -107.292 -41.9099 -161h-156.09v-24h149.842c-40.0139 -153.691 -80.1736 -307.6 -120.842 -461
c-18.1482 -70.0001 -69.9042 -105.646 -139.778 -105.646c-10.98 0 -22.4074 0.880201 -34.2221 2.64561l-5 -24c12.8415 -1.63666 25.3184 -2.46497 37.371 -2.46497c83.6807 0 146.902 39.9288 169.629 126.465c40.0988 154.667 80.7103 309.333 121.1 464h171.9v24
h-165.634c13.919 53.3333 27.8071 106.667 41.6343 160c17.9798 68.4945 67.4806 99.6036 134.695 99.6036c11.2904 0 23.0807 -0.877788 35.3053 -2.60362z" />
    <glyph glyph-name="four" unicode="4" horiz-adv-x="888" 
d="M507 263v-238h-187v-25h199h199v25h-183v238h251v27h-251v431h-28l-444 -431l14 -27h430zM507 290h-402.448l402.448 394.381v-394.381z" />
    <glyph glyph-name="foursuperior" unicode="&#x2074;" horiz-adv-x="760" 
d="M430 296h14h185v23h-185v96h133v23h-133v284v8h-27l-314 -292l13 -23h301v-96h-185v-23h185h13zM417 696.729v-258.729h-276.427z" />
    <glyph glyph-name="fraction" unicode="&#x2044;" horiz-adv-x="745" 
d="M28 -91l574 846h-30l-574 -846h30z" />
    <glyph glyph-name="g" unicode="g" horiz-adv-x="809" 
d="M244.263 4.13334c40.9045 -11.148 91.2781 -14.7311 142.737 -18.1333c150 -10 302 -2 302 -129c0 -121 -146 -137 -300 -137c-143 0 -275 31 -275 147c0 74.969 57.9599 112.176 130.263 137.133zM215.093 14.2008
c-73.6363 -26.8167 -129.093 -69.544 -129.093 -148.201c0 -138 142 -170 302 -170c170 0 330 17 327 163c0 144 -161 141 -323 151c-108 5 -213 8 -213 102c0 48.4402 32.9754 75.1862 77.1001 96.4051c38.9474 -14.5889 85.4241 -21.4051 134.9 -21.4051
c137 0 250 52 250 174c0 42.5045 -13.3519 76.8765 -36.4611 103.623c54.9709 20.7922 109.125 41.5844 162.461 62.3766l-13 23c-56.3106 -22.155 -111.769 -44.31 -167.949 -67.2516c-44.976 37.5639 -113.494 55.2516 -190.051 55.2516c-139 0 -251 -57 -251 -182
c0 -65.7612 34.203 -110.451 87.4205 -137.276c-47.8333 -22.7597 -81.4205 -55.5552 -81.4205 -109.724c0 -49.4823 25.0602 -77.8268 64.0926 -94.7992zM174 357c0 107 101 157 222 157c120 0 217 -47 217 -154c0 -103 -99 -149 -219 -149c-118 0 -220 41 -220 146z" />
    <glyph glyph-name="gbreve" unicode="&#x11f;" horiz-adv-x="809" 
d="M557 780c0 -76 -70 -100 -158 -100c-84 0 -150 27 -150 101h-26c0 -90 74 -124 174 -124c106 0 186 31 186 123h-26zM244.263 4.13334c40.9045 -11.148 91.2781 -14.7311 142.737 -18.1333c150 -10 302 -2 302 -129c0 -121 -146 -137 -300 -137c-143 0 -275 31 -275 147
c0 74.969 57.9599 112.176 130.263 137.133zM215.093 14.2008c-73.6363 -26.8167 -129.093 -69.544 -129.093 -148.201c0 -138 142 -170 302 -170c170 0 330 17 327 163c0 144 -161 141 -323 151c-108 5 -213 8 -213 102c0 48.4402 32.9754 75.1862 77.1001 96.4051
c38.9474 -14.5889 85.4241 -21.4051 134.9 -21.4051c137 0 250 52 250 174c0 42.5045 -13.3519 76.8765 -36.4611 103.623c54.9709 20.7922 109.125 41.5844 162.461 62.3766l-13 23c-56.3106 -22.155 -111.769 -44.31 -167.949 -67.2516
c-44.976 37.5639 -113.494 55.2516 -190.051 55.2516c-139 0 -251 -57 -251 -182c0 -65.7612 34.203 -110.451 87.4205 -137.276c-47.8333 -22.7597 -81.4205 -55.5552 -81.4205 -109.724c0 -49.4823 25.0602 -77.8268 64.0926 -94.7992zM174 357c0 107 101 157 222 157
c120 0 217 -47 217 -154c0 -103 -99 -149 -219 -149c-118 0 -220 41 -220 146z" />
    <glyph glyph-name="gcommaaccent" unicode="&#x123;" horiz-adv-x="809" 
d="M467 814l-149 -182h38l141 182h-30zM244.263 4.13334c40.9045 -11.148 91.2781 -14.7311 142.737 -18.1333c150 -10 302 -2 302 -129c0 -121 -146 -137 -300 -137c-143 0 -275 31 -275 147c0 74.969 57.9599 112.176 130.263 137.133zM215.093 14.2008
c-73.6363 -26.8167 -129.093 -69.544 -129.093 -148.201c0 -138 142 -170 302 -170c170 0 330 17 327 163c0 144 -161 141 -323 151c-108 5 -213 8 -213 102c0 48.4402 32.9754 75.1862 77.1001 96.4051c38.9474 -14.5889 85.4241 -21.4051 134.9 -21.4051
c137 0 250 52 250 174c0 42.5045 -13.3519 76.8765 -36.4611 103.623c54.9709 20.7922 109.125 41.5844 162.461 62.3766l-13 23c-56.3106 -22.155 -111.769 -44.31 -167.949 -67.2516c-44.976 37.5639 -113.494 55.2516 -190.051 55.2516c-139 0 -251 -57 -251 -182
c0 -65.7612 34.203 -110.451 87.4205 -137.276c-47.8333 -22.7597 -81.4205 -55.5552 -81.4205 -109.724c0 -49.4823 25.0602 -77.8268 64.0926 -94.7992zM174 357c0 107 101 157 222 157c120 0 217 -47 217 -154c0 -103 -99 -149 -219 -149c-118 0 -220 41 -220 146z" />
    <glyph glyph-name="germandbls" unicode="&#xdf;" horiz-adv-x="842" 
d="M549 87c108 18 193 69 193 186c0 114.712 -80.1234 170.356 -200.117 190.188c91.7104 19.7252 155.117 67.9914 155.117 163.812c0 128 -111 177 -254 177c-139 0 -244 -59 -244 -186v-593h-185v-25h185h14h13h187v25h-187v593c0 111 93 162 214 162
c128 0 231 -40 231 -154c0 -110 -113 -154 -250 -154v-20c145 0 295 -36 295 -180c0 -101 -85 -143 -174 -161z" />
    <glyph glyph-name="grave" unicode="`" horiz-adv-x="745" 
d="M375 591c-74 55 -148 111 -223 166h-41c74 -55 148 -111 223 -166h41z" />
    <glyph glyph-name="greater" unicode="&#x3e;" horiz-adv-x="1025" 
d="M905.623 305.738l-781.623 -256.738v-26l822 270v26c-279 88 -557 176 -835 264v-26c264.587 -83.7542 529.174 -167.508 794.623 -251.262z" />
    <glyph glyph-name="greaterequal" unicode="&#x2265;" horiz-adv-x="1132" 
d="M992 0h-834v25h834v-25zM950.831 402.933c-263.466 82.7809 -528.648 166.376 -793.831 249.067v26c279 -88 558 -174 835 -262v-26c-277 -88 -556 -176 -835 -263v26c265.183 83.6419 530.366 166.38 793.831 249.933z" />
    <glyph glyph-name="guillemotleft" unicode="&#xab;" horiz-adv-x="775" 
d="M146 264l244 -123v26l-217.732 109.759l218.732 106.241v26l-245 -119v-26zM385 264l244 -124v26l-217.893 110.733l217.893 106.267v26l-244 -119v-26z" />
    <glyph glyph-name="guillemotright" unicode="&#xbb;" horiz-adv-x="775" 
d="M590 264l-244 -123v26l217.732 109.759l-218.732 106.241v26l245 -119v-26zM352 264l-245 -124v26l218.786 110.733l-218.786 106.267v26l245 -119v-26z" />
    <glyph glyph-name="guilsinglleft" unicode="&#x2039;" horiz-adv-x="674" 
d="M187.087 277.004c210.058 66.5653 45.0679 15.7142 302.913 95.9957v27c-273 -87 -72 -24 -344 -110v-26c272 -87 71 -23 344 -110v26c-257.845 82.1705 -92.8551 30.5322 -302.913 97.0043z" />
    <glyph glyph-name="guilsinglright" unicode="&#x203a;" horiz-adv-x="674" 
d="M487.913 277.004c-210.058 66.5653 -45.0679 15.7142 -302.913 95.9957v27c273 -87 72 -24 344 -110v-26c-272 -87 -71 -23 -344 -110v26c257.845 82.1705 92.8551 30.5322 302.913 97.0043z" />
    <glyph glyph-name="h" unicode="h" horiz-adv-x="920" 
d="M227 404.732v395.268h-14h-14h-185v-25h185v-750h-185v-25h185h14h14h172v25h-172v338.427c53.2775 95.8529 159.286 149.573 269 149.573c125 0 204 -54 204 -173v-315h-173v-25h173h13h15h184v25h-184v318c0 134 -88 195 -228 195
c-110.666 0 -217.476 -43.9709 -273 -133.268z" />
    <glyph glyph-name="hungarumlaut" unicode="&#x2dd;" horiz-adv-x="699" 
d="M370 657l148 183h-38l-140 -183h30zM203 657l149 183h-39l-140 -183h30z" />
    <glyph glyph-name="hyphen" unicode="-" horiz-adv-x="730" 
d="M169 259h392v27h-392v-27z" />
    <glyph glyph-name="i" unicode="i" horiz-adv-x="469" 
d="M248 670h34c0 -10 -8 -15 -18 -15s-16 6 -16 15zM248 670h34c0 10 -8 16 -18 16s-16 -7 -16 -16zM251 508v-483h-185v-25h185h14h16h170v25h-170v508h-16h-14h-185v-25h185z" />
    <glyph glyph-name="iacute" unicode="&#xed;" horiz-adv-x="471" 
d="M192 658c74 55 148 111 222 166h-41c-75 -55 -149 -111 -223 -166h42zM251 508v-483h-185v-25h185h14h16h170v25h-170v508h-16h-14h-185v-25h185z" />
    <glyph glyph-name="icircumflex" unicode="&#xee;" horiz-adv-x="568" 
d="M561 657c-74 55 -148 111 -223 166h-9h-32h-9c-75 -55 -149 -111 -223 -166h41c69.5947 51.0361 138.328 102.072 207 153.907c68.6667 -51.8351 137.333 -102.871 206 -153.907h42zM300 508v-483h-185v-25h185h14h16h170v25h-170v508h-16h-14h-185v-25h185z" />
    <glyph glyph-name="idieresis" unicode="&#xef;" horiz-adv-x="471" 
d="M326 667h42c0 -12 -9 -20 -22 -20c-12 0 -20 8 -20 20zM326 667h42c0 12 -9 20 -22 20c-12 0 -20 -8 -20 -20zM161 667h43c0 -12 -9 -20 -22 -20s-21 8 -21 20zM161 667h43c0 12 -9 20 -22 20s-21 -8 -21 -20zM252 508v-483h-185v-25h185h14h16h170v25h-170v508h-16h-14
h-185v-25h185z" />
    <glyph glyph-name="igrave" unicode="&#xec;" horiz-adv-x="471" 
d="M357 657c-74 55 -148 111 -223 166h-42c75 -55 149 -111 223 -166h42zM253 508v-483h-185v-25h185h14h16h170v25h-170v508h-16h-14h-185v-25h185z" />
    <glyph glyph-name="imacron" unicode="&#x12b;" horiz-adv-x="469" 
d="M408 680h-304v-24h304v24zM251 508v-483h-185v-25h185h14h16h170v25h-170v508h-16h-14h-185v-25h185z" />
    <glyph glyph-name="infinity" unicode="&#x221e;" horiz-adv-x="1253" 
d="M600.225 408.727c-56.9344 -80.6518 -126.519 -151.727 -223.225 -151.727c-105 0 -201 53 -201 148c0 93 99 141 204 141c93.5308 0 167.537 -59.5039 220.225 -137.273zM616.083 430.764c-59.0072 79.2796 -137.702 139.236 -236.083 139.236
c-119 0 -232 -57 -232 -165c0 -110 109 -171 229 -171c101.498 0 179.602 68.3855 239.431 151.383c61.948 -84.1765 144.522 -150.383 248.569 -150.383c124 0 241 57 241 169c0 109 -118 164 -241 164c-101.334 0 -187.421 -56.5045 -248.917 -137.236zM632.267 408.152
c55.7742 79.3124 135.438 136.848 232.733 136.848c108 0 214 -45 214 -141c0 -97 -105 -145 -214 -145c-99.447 0 -173.725 67.1183 -232.733 149.152z" />
    <glyph glyph-name="integral" unicode="&#x222b;" horiz-adv-x="595" 
d="M573 828c-13.8357 2.07536 -27.2311 3.11701 -40.1095 3.11701c-80.2021 0 -140.349 -40.3993 -161.891 -123.117c-56 -215 -113 -430 -169 -646c-18.8981 -69.5795 -69.5256 -105.954 -139.205 -105.954c-11.437 0 -23.3872 0.979951 -35.7947 2.95387l-5 -24
c13.4871 -1.8332 26.5456 -2.75766 39.1149 -2.75766c83.4207 0 145.29 40.721 167.885 126.758c57 216 113 431 170 648c18.105 68.9713 68.1714 99.2917 135.46 99.2917c10.7596 0 21.9596 -0.77525 33.5397 -2.29169z" />
    <glyph glyph-name="iogonek" unicode="&#x12f;" horiz-adv-x="469" 
d="M248 670h34c0 -10 -8 -15 -18 -15s-16 6 -16 15zM248 670h34c0 10 -8 16 -18 16s-16 -7 -16 -16zM251 508v-483h-185v-25h124.002c-38.6185 -17.0447 -66.002 -40.091 -66.002 -87c0 -63 49 -95 117 -95c40 0 67 11 104 27c-13 19 -1 0 -13 19c-31 -15 -54 -23 -88 -23
c-54 0 -94 24 -94 73c0 53.181 44.8814 67.6949 96.2023 86h4.79769h14h16h170v25h-170v508h-16h-14h-185v-25h185z" />
    <glyph glyph-name="j" unicode="j" horiz-adv-x="455" 
d="M14 -301c11 0 25 -3 40 -3c116 0 212 51 212 163v674h-16h-13h-186v-24h186.004c0.0661443 -216.999 0.996297 -433.964 0.996297 -650c0 -95 -83 -138 -184 -138c-12 0 -27 2 -35 3c-4 -25 0 0 -5 -25zM237 670h33c0 -11 -7 -15 -18 -15c-10 0 -15 6 -15 15zM237 670h33
c0 11 -7 16 -18 16c-10 0 -15 -7 -15 -16z" />
    <glyph glyph-name="k" unicode="k" horiz-adv-x="947" 
d="M261 275c141.787 77.6667 284.389 155.333 427.071 233h176.929v25h-131h-49h-1h-190v-25h145.334c-136.94 -74.9284 -274.493 -149.857 -411.334 -224.785v516.785h-12h-16h-184v-25h184v-750h-186v-25h186h13h15h166v25h-166v241.7
c162.944 -90.1179 325.031 -178.409 489 -266.7h53h147v25h-193.238c-154.58 83.509 -309.084 166.341 -462.762 250z" />
    <glyph glyph-name="kcommaaccent" unicode="&#x137;" horiz-adv-x="947" 
d="M413 -318l149 182h-38l-141 -182h30zM261 275c141.787 77.6667 284.389 155.333 427.071 233h176.929v25h-131h-49h-1h-190v-25h145.334c-136.94 -74.9284 -274.493 -149.857 -411.334 -224.785v516.785h-12h-16h-184v-25h184v-750h-186v-25h186h13h15h167v25h-167v241.7
c162.944 -90.1179 325.031 -178.409 489 -266.7h53h147v25h-193.238c-154.58 83.509 -309.084 166.341 -462.762 250z" />
    <glyph glyph-name="l" unicode="l" horiz-adv-x="429" 
d="M228 25v775h-10h-18h-181v-25h181v-750h-184v-25h184h15h13h187v25h-187z" />
    <glyph glyph-name="lacute" unicode="&#x13a;" horiz-adv-x="430" 
d="M143 907c74 55 148 110 222 166h-41c-75 -55 -149 -111 -223 -166h42zM228 25v775h-10h-18h-181v-25h181v-750h-184v-25h184h15h13h187v25h-187z" />
    <glyph glyph-name="lcaron" unicode="&#x13e;" horiz-adv-x="550" 
d="M366 619l148 182h-38l-140 -182h30zM228 25v775h-10h-18h-181v-25h181v-750h-184v-25h184h15h13h187v25h-187z" />
    <glyph glyph-name="lcommaaccent" unicode="&#x13c;" horiz-adv-x="429" 
d="M135 -318l149 182h-39l-140 -182h30zM228 25v775h-10h-18h-181v-25h181v-750h-184v-25h184h15h13h187v25h-187z" />
    <glyph glyph-name="less" unicode="&#x3c;" horiz-adv-x="1027" 
d="M119.312 300.241c260.56 85.5862 521.076 171.172 780.688 256.759v26c-273 -90 -547 -180 -821 -270v-26c278 -88 557 -176 835 -264v26c-264.565 83.7471 -530.035 167.494 -794.688 251.241z" />
    <glyph glyph-name="lessequal" unicode="&#x2264;" horiz-adv-x="1132" 
d="M140 0h835v25h-835v-25zM181.303 402.933c264.235 82.7809 528.514 166.376 793.697 249.067v26c-279 -88 -557 -174 -835 -262v-26c278 -88 556 -176 835 -263v26c-265.183 83.6419 -529.462 166.38 -793.697 249.933z" />
    <glyph glyph-name="litre" horiz-adv-x="497" 
d="M261 25v775h-10h-18h-181v-25h181v-750h-184v-25h184h15h13h187v25h-187z" />
    <glyph glyph-name="logicalnot" unicode="&#xac;" horiz-adv-x="1011" 
d="M812 323h-598v-27h598v-143h28v143v27h-28z" />
    <glyph glyph-name="logo" horiz-adv-x="2519" 
d="M1884 58c91 -42 183 -63 281 -63c162 0 286 35 286 175c0 135 -130 165 -265 213c-118 42 -239 65 -239 179c0 102 102 141 221 141c89.5886 0 156.469 -19.9835 237 -53.8906v-107.109h25v121c-89 40 -162 64 -261 64c-136 0 -251 -48 -251 -166
c0 -128 126 -155 252 -200c126 -44 253 -72 253 -191c0 -121 -112 -148 -256 -148c-90.6865 0 -175.789 19.5456 -258 55.0451v101.955h-25v-121zM1171 722h-12h-17h-182v-25h182v-672h-182v-25h182h17h12h258c261 0 423 106 423 350c0 258 -167 372 -440 372h-241z
M1171 697h239c256 0 415 -106 415 -347c0 -227 -151 -325 -393 -325h-261v672zM478 695v-671h-186v-24h186h13h16h183v24h-183v671h379v-106h25v106v14v13h-836v-13v-14v-106h24v106h379z" />
    <glyph glyph-name="lozenge" unicode="&#x25ca;" horiz-adv-x="701" 
d="M336 123h-2c-78 115 -157 228 -235 343h29c73.5226 -108.399 147.934 -215.02 221.558 -323.215c72.3481 105.485 150.993 218.776 223.442 323.215h29c-77 110 -160 232 -237 342h-2h-27h-2c-78 -114 -157 -228 -235 -342h29
c73.523 107.457 147.935 214.914 221.56 322.37c72.3477 -104.753 150.992 -218.873 223.44 -322.37h29c-77 -111 -160 -232 -237 -343h-2h-27z" />
    <glyph glyph-name="lslash" unicode="&#x142;" horiz-adv-x="441" 
d="M237 25v376.989c59.8122 50.337 119.511 100.674 179 151.011v27c-59.4892 -50.337 -119.188 -100.674 -179 -151.011v371.011h-10h-19h-180v-25h180v-370.41c-61.2648 -51.53 -122.632 -103.06 -184 -154.59v-27c61.3676 51.53 122.735 103.06 184 154.59v-352.59h-183
v-25h183h16h13h186v25h-186z" />
    <glyph glyph-name="m" unicode="m" horiz-adv-x="1369" 
d="M279 405.455v127.545h-14h-14h-185v-25h185v-483h-185v-25h185h14h14h158v25h-158v338.741c51.3998 96.541 132.289 149.259 240 149.259c119 0 180 -52 180 -173v-315h-158v-25h158h14h14h158v25h-158v318c0 6.81418 -0.168153 13.4373 -0.504972 19.8712
c50.6143 96.2008 133.472 150.129 240.505 150.129c121 0 179 -52 179 -173v-315h-156v-25h156h16h13h186v25h-186v318c0 135 -66 195 -202 195c-110.483 0 -199.988 -46.7958 -250.398 -139.663c-16.7959 96.192 -81.8409 139.663 -197.602 139.663
c-107.74 0 -193.996 -43.7336 -246 -132.545z" />
    <glyph glyph-name="macron" unicode="&#xaf;" horiz-adv-x="554" 
d="M346 680h-303v-23h303v23z" />
    <glyph glyph-name="macronmod" horiz-adv-x="519" 
d="M410 680h-303v-23h303v23z" />
    <glyph glyph-name="minus" unicode="&#x2212;" horiz-adv-x="968" 
d="M171 296h626v27h-626v-27z" />
    <glyph glyph-name="multiply" unicode="&#xd7;" horiz-adv-x="769" 
d="M384.522 328l-210.522 211c-17 -16 -3 -2 -19 -19l210.5 -210.978l-211.5 -211.022c16 -16 2 -3 19 -19l211.478 211l210.522 -211c17 16 3 3 19 19l-210.5 210.978l211.5 211.022c-16 17 -2 3 -19 19z" />
    <glyph glyph-name="mumath" horiz-adv-x="1009" 
d="M736 157.794c-56.6037 -79.3569 -149.974 -137.794 -249 -137.794c-129 0 -215 46 -215 168v345h-1h-13h-15h-184v-25h184v-322v-486h28v378.508c38.5219 -59.022 114.442 -83.5085 213 -83.5085c97.8346 0 192.562 52.0491 252 126.02v-121.02h14h14h171v25h-171v508
h-14h-14h-185v-25h185v-350.206z" />
    <glyph glyph-name="n" unicode="n" horiz-adv-x="973" 
d="M251 508v-483h-185v-25h185h14h14h172v25h-172v338.441c53.1421 95.8436 157.33 149.559 268 149.559c124 0 206 -54 206 -173v-315h-172v-25h172h13h16h183v25h-183v318c0 134 -90 195 -230 195c-110.178 0 -216.472 -44.2839 -273 -134.221v129.221h-14h-14h-185v-25
h185z" />
    <glyph glyph-name="nacute" unicode="&#x144;" horiz-adv-x="973" 
d="M448 660c75 55 149 110 223 166h-41c-75 -55 -149 -111 -223 -166h41zM251 508v-483h-185v-25h185h14h14h172v25h-172v338.441c53.1421 95.8436 157.33 149.559 268 149.559c124 0 206 -54 206 -173v-315h-172v-25h172h13h16h183v25h-183v318c0 134 -90 195 -230 195
c-110.178 0 -216.472 -44.2839 -273 -134.221v129.221h-14h-14h-185v-25h185z" />
    <glyph glyph-name="ncaron" unicode="&#x148;" horiz-adv-x="973" 
d="M273 824c74 -55 148 -111 223 -166h9h32h9c75 55 149 111 223 166h-42c-68.6667 -51.964 -137.333 -103.067 -206 -154.108c-68.6667 51.0409 -137.333 102.144 -206 154.108h-42zM251 508v-483h-185v-25h185h14h14h172v25h-172v338.441
c53.1421 95.8436 157.33 149.559 268 149.559c124 0 206 -54 206 -173v-315h-172v-25h172h13h16h183v25h-183v318c0 134 -90 195 -230 195c-110.178 0 -216.472 -44.2839 -273 -134.221v129.221h-14h-14h-185v-25h185z" />
    <glyph glyph-name="ncommaaccent" unicode="&#x146;" horiz-adv-x="973" 
d="M466 -318l149 183h-38l-141 -183h30zM251 508v-483h-185v-25h185h14h14h172v25h-172v338.441c53.1421 95.8436 157.33 149.559 268 149.559c124 0 206 -54 206 -173v-315h-172v-25h172h13h16h183v25h-183v318c0 134 -90 195 -230 195
c-110.178 0 -216.472 -44.2839 -273 -134.221v129.221h-14h-14h-185v-25h185z" />
    <glyph glyph-name="nine" unicode="9" horiz-adv-x="835" 
d="M686.713 442.61c-19.6844 -273.018 -262.803 -391.355 -564.713 -431.61l5 -26c332 40 588 182 588 495c0 168 -129 247 -308 247c-157 0 -271 -65 -271 -209s116 -206 273 -206c122.832 0 221.032 39.2591 277.713 130.61zM687.966 483.367
c-62.6835 -104.603 -150.365 -145.367 -275.966 -145.367c-142 0 -247 53 -247 181c0 125 103 180 240 180c161.41 0 280.655 -68.6409 282.966 -215.633z" />
    <glyph glyph-name="notequal" unicode="&#x2260;" horiz-adv-x="1148" 
d="M482.351 205l-155.351 -228h30l155.676 228h487.324v25h-470.255l134.509 197h335.745v25h-318.676l155.676 228h-31l-155.351 -228h-498.649v-25h481.615l-134.229 -197h-347.385v-25h330.351z" />
    <glyph glyph-name="ntilde" unicode="&#xf1;" horiz-adv-x="973" 
d="M774 781c-19 -57 -44 -102 -102 -102c-49 0 -82 16 -120 48c-41 34 -73 55 -125 55c-73 0 -116 -46 -135 -120l22 -6c17 62 51 102 113 102c44 0 73 -18 106 -47c43 -36 81 -56 137 -56c71 0 103 52 127 121zM251 508v-483h-185v-25h185h14h14h172v25h-172v338.441
c53.1421 95.8436 157.33 149.559 268 149.559c124 0 206 -54 206 -173v-315h-172v-25h172h13h16h183v25h-183v318c0 134 -90 195 -230 195c-110.178 0 -216.472 -44.2839 -273 -134.221v129.221h-14h-14h-185v-25h185z" />
    <glyph glyph-name="nullsuperior" horiz-adv-x="746" 
d="M152 499c0 -131 87 -209 222 -209c134 0 221 79 221 211c0 131 -87 207 -221 207c-135 0 -222 -77 -222 -209zM179 499c0 116 77 184 194 184c0.856017 0.00725439 1.70982 0.0108776 2.56141 0.0108776c116.537 0 191.439 -67.8524 191.439 -183.011
c0 -115 -74 -186 -192 -186c-119 0 -196 69 -196 185z" />
    <glyph glyph-name="numbersign" unicode="#" horiz-adv-x="950" 
d="M751.075 514l88.9253 208h-28l-89.2299 -208h-353.078l88.3077 208h-28l-88 -208h-141l-9 -24h139.846l-92.6538 -219h-136.192l-9 -25l134.615 -2.84217e-14l-84.6154 -200h27l84.9112 200h351.89l-88.8009 -207h29l88.4978 207h111.502l7 25h-107.814l93.6281 219
h105.186l8 24h-102.925zM712.474 490l-93.9488 -219h-352l92.9778 219h352.971z" />
    <glyph glyph-name="o" unicode="o" horiz-adv-x="859" 
d="M125 268c0 -176 121 -273 303 -273c184 0 306 95 306 271s-124 272 -309 272c-180 0 -300 -97 -300 -270zM153 268c0 160 109 246 271 246c169 0 281 -87 281 -248c0 -160 -110 -246 -276 -246c-167 0 -276 88 -276 248z" />
    <glyph glyph-name="oacute" unicode="&#xf3;" horiz-adv-x="859" 
d="M352 659c74 55 149 110 223 166h-42c-74 -55 -148 -111 -222 -166h41zM125 268c0 -176 121 -273 303 -273c184 0 306 95 306 271s-124 272 -309 272c-180 0 -300 -97 -300 -270zM153 268c0 160 109 246 271 246c169 0 281 -87 281 -248c0 -160 -110 -246 -276 -246
c-167 0 -276 88 -276 248z" />
    <glyph glyph-name="ocircumflex" unicode="&#xf4;" horiz-adv-x="859" 
d="M673 658c-74 55 -148 111 -223 166h-9h-32h-9c-75 -55 -149 -111 -223 -166h42c68.6667 51.036 137.333 102.072 206 153.907c68.6667 -51.835 137.333 -102.871 206 -153.907h42zM125 268c0 -176 121 -273 303 -273c184 0 306 95 306 271s-124 272 -309 272
c-180 0 -300 -97 -300 -270zM153 268c0 160 109 246 271 246c169 0 281 -87 281 -248c0 -160 -110 -246 -276 -246c-167 0 -276 88 -276 248z" />
    <glyph glyph-name="odieresis" unicode="&#xf6;" horiz-adv-x="859" 
d="M486 668h43c0 -12 -9 -20 -22 -20s-21 8 -21 20zM486 668h43c0 12 -9 20 -22 20s-21 -8 -21 -20zM322 668h43c0 -12 -9 -20 -23 -20c-12 0 -20 8 -20 20zM322 668h43c0 12 -9 20 -23 20c-12 0 -20 -8 -20 -20zM125 268c0 -176 121 -273 303 -273c184 0 306 95 306 271
s-124 272 -309 272c-180 0 -300 -97 -300 -270zM153 268c0 160 109 246 271 246c169 0 281 -87 281 -248c0 -160 -110 -246 -276 -246c-167 0 -276 88 -276 248z" />
    <glyph glyph-name="oe" unicode="&#x153;" horiz-adv-x="1380" 
d="M1226 296h-489.684c6.1247 143.161 100.799 217 249.684 217c144 0 240 -67 240 -208v-9zM736.127 271h515.873v32c0 158 -103 235 -264 235c-140.75 0 -238.643 -58.2584 -269.569 -172.583c-38.7316 112.409 -146.964 172.583 -293.431 172.583
c-180 0 -300 -97 -300 -270c0 -176 121 -273 303 -273c150.552 0 259.596 63.6006 294.266 183.133c37.3909 -121.748 146.002 -183.133 298.734 -183.133c92 0 152 22 228 79l-17 18c-70 -51 -126 -72 -211 -72c-170.596 0 -280.633 85.5516 -284.873 251zM153 268
c0 160 109 246 271 246c169 0 281 -87 281 -248c0 -160 -110 -246 -276 -246c-167 0 -276 88 -276 248z" />
    <glyph glyph-name="ogonek" unicode="&#x2db;" horiz-adv-x="454" 
d="M189 19c-74 -26 -144 -41 -144 -115c0 -63 49 -96 117 -96c40 0 67 11 103 27c-12 19 0 1 -12 19c-31 -14 -54 -22 -89 -22c-53 0 -93 23 -93 72c0 65 65 72 128 98z" />
    <glyph glyph-name="ograve" unicode="&#xf2;" horiz-adv-x="859" 
d="M517 658c-74 55 -148 111 -223 166h-41c74 -56 148 -111 223 -166h41zM125 268c0 -176 121 -273 303 -273c184 0 306 95 306 271s-124 272 -309 272c-180 0 -300 -97 -300 -270zM153 268c0 160 109 246 271 246c169 0 281 -87 281 -248c0 -160 -110 -246 -276 -246
c-167 0 -276 88 -276 248z" />
    <glyph glyph-name="ohungarumlaut" unicode="&#x151;" horiz-adv-x="859" 
d="M478 593l148 183h-38l-140 -183h30zM311 593l149 183h-39l-140 -183h30zM125 268c0 -176 121 -273 303 -273c184 0 306 95 306 271s-124 272 -309 272c-180 0 -300 -97 -300 -270zM153 268c0 160 109 246 271 246c169 0 281 -87 281 -248c0 -160 -110 -246 -276 -246
c-167 0 -276 88 -276 248z" />
    <glyph glyph-name="omacron" unicode="&#x14d;" horiz-adv-x="859" 
d="M569 681h-303v-24h303v24zM125 268c0 -176 121 -273 303 -273c184 0 306 95 306 271s-124 272 -309 272c-180 0 -300 -97 -300 -270zM153 268c0 160 109 246 271 246c169 0 281 -87 281 -248c0 -160 -110 -246 -276 -246c-167 0 -276 88 -276 248z" />
    <glyph glyph-name="omegamath" horiz-adv-x="1033" 
d="M757.445 24c114.416 76.1573 174.555 179.762 174.555 324c0 237 -171 378 -416 378c-246 0 -417 -143 -417 -381c0 -141.629 62.6428 -240.398 173.71 -321l-237.71 2.84217e-14v-24h273l15 24c-124 79 -196 175 -196 321c0 222 158 357 387 357s391 -132 391 -354
c0 -149 -74 -249 -204 -324l17 -24h275v24h-235.555z" />
    <glyph glyph-name="one" unicode="1" horiz-adv-x="627" 
d="M360 722l-270 -171l15 -22l255 159.604v-663.604h-182v-25h182h17h11h188v25h-188v697h-28z" />
    <glyph glyph-name="onehalf" unicode="&#xbd;" horiz-adv-x="1447" 
d="M999 221c41 52 93 74 165 74c81 0 145 -25 145 -96c0 -62 -51 -84 -105 -118c-89 -51 -176 -103 -264 -153v-24h423c-10.2857 9.85714 -11.5714 11.2653 -11.5714 11.5452c0 0.373178 0 1.02624 -11.4286 12.4548c10.2857 -10.2857 11.5714 -11.9388 11.5714 -12.2799
c0 -0.45481 0 -0.767736 11.4286 -11.7201v122h-23v-98h-349.909c77.3832 44.5473 154.146 89.5011 230.909 133c60 41 114 69 114 139c0 85 -75 119 -169 119c-82 0 -144 -22 -188 -84zM450 -91l575 846h-30l-575 -846h30zM258 758l-176 -109l14 -22l162 104.571v-358.571
h-143v-24h142h1h163v24h-136v376v9h-27z" />
    <glyph glyph-name="onequarter" unicode="&#xbc;" horiz-adv-x="1409" 
d="M456 -91l575 846h-30l-575 -846h30zM1165 -105h15h184v24h-184v96h132v23h-132v283v9h-28l-314 -292l14 -23h300v-96h-185v-24h185h13zM1152 294.878v-256.878h-275.346zM264 758l-176 -109l13 -22l163 104.663v-358.663h-143v-24h142h1h163v24h-136v376v9h-27z" />
    <glyph glyph-name="onesuperior" unicode="&#xb9;" horiz-adv-x="629" 
d="M332 705l-176 -109l13 -22l163 103.805v-358.805h-143v-23h142h1h162v23h-135v376v10h-27z" />
    <glyph glyph-name="ordfeminine" unicode="&#xaa;" horiz-adv-x="717" 
d="M452 629.798c-60.7852 -5.82429 -106.071 -6.22376 -169 -12.7984c-73 -7 -129 -36 -129 -103c0 -69 60 -96 137 -96c67.8494 0 121.313 32.3686 161 77.5842v-69.5842h16h12h86v24h-86v230c0 72 -72 86 -155 86c-62 0 -121 -22 -158 -52v-74h24v61.2182
c32.8993 21.6046 79.8652 40.7818 131 40.7818c69 0 130 -10 130 -70v-42.2016zM452 524.898c-36.6916 -45.8922 -88.416 -82.8982 -156 -82.8982c-63 0 -115 18 -115 74c0 52 44 73 101 79c62.5922 6.53948 109.475 7.84245 170 13.6929v-83.7947z" />
    <glyph glyph-name="ordmasculine" unicode="&#xba;" horiz-adv-x="702" 
d="M152 599c0 -116 82 -183 203 -183c117 0 196 68 196 181c0 112 -82 173 -199 173s-200 -60 -200 -171zM179 599c0 96 71 147 172 147s172 -53 172 -149c0 -98 -67 -157 -167 -157c-105 0 -177 58 -177 159z" />
    <glyph glyph-name="oslash" unicode="&#xf8;" horiz-adv-x="859" 
d="M125 268c0 -115.185 51.8265 -196.533 138.661 -238.998l-63.6605 -94.0021l20 -14l66.3751 98.0877c41.0878 -15.9116 88.7855 -24.0877 141.625 -24.0877c184 0 306 95 306 271c0 107.811 -46.5288 185.603 -125.106 229.699l61.1057 90.3006l-21 12l-61.8478 -91.3254
c-45.7414 20.6869 -100.567 31.3254 -162.152 31.3254c-180 0 -300 -97 -300 -270zM153 268c0 160 109 246 271 246c56.6222 0 106.846 -9.76607 148.603 -28.8093l-294.064 -434.22c-78.9405 38.5812 -125.538 112.415 -125.538 217.029zM594.244 474.05
c69.7801 -40.3591 110.756 -110.668 110.756 -208.05c0 -160 -110 -246 -276 -246c-47.6895 0 -90.6492 7.1762 -127.691 21.156z" />
    <glyph glyph-name="otilde" unicode="&#xf5;" horiz-adv-x="859" 
d="M651 781c-19 -57 -43 -102 -101 -102c-49 0 -83 16 -121 48c-40 34 -72 55 -124 55c-74 0 -116 -46 -136 -120l22 -6c18 62 52 102 114 102c44 0 72 -18 106 -47c43 -36 81 -56 137 -56c70 0 103 52 126 121zM125 268c0 -176 121 -273 303 -273c184 0 306 95 306 271
s-124 272 -309 272c-180 0 -300 -97 -300 -270zM153 268c0 160 109 246 271 246c169 0 281 -87 281 -248c0 -160 -110 -246 -276 -246c-167 0 -276 88 -276 248z" />
    <glyph glyph-name="p" unicode="p" horiz-adv-x="916" 
d="M226 455.392v77.6082h-13h-15h-184v-25l184 0.924623v-783.925h-186v-24h186v-1h13h15h171v25l-171 -0.919355v368.186c82.6311 -64.589 163.071 -97.267 272 -97.267c173 0 293 110 292 282c0 163 -122 261 -290 261c-108.704 0 -209.47 -34.1384 -274 -82.6082z
M226 118.47v309.474c58.7351 48.5748 162.219 85.0562 273 85.0562c154 0 264 -89 264 -237c0.07053 -2.78593 0.105617 -5.55384 0.105617 -8.30346c0 -151.659 -106.742 -247.726 -260.433 -247.726c-1.55261 0 -3.11002 0.00980388 -4.67215 0.0294534
c-108.472 0 -186.384 34.3786 -272 98.4698z" />
    <glyph glyph-name="paragraph" unicode="&#xb6;" horiz-adv-x="969" 
d="M807 0v722h-16h-13h-170h-16h-4h-9h-163c-180 0 -326 -68 -326 -228c0 -148 130 -212 294 -215c70.2511 0 130.249 16.2343 195 40.015v-294.015h-186v-25h186h13h16h170h13h16zM579 697v-352.608c-68.6789 -25.419 -123.546 -40.3916 -199 -40.3916
c-144 0 -261 57 -261 188c0 148 135 205 301 205h159zM608 25v672h170v-672h-170z" />
    <glyph glyph-name="parenleft" unicode="(" horiz-adv-x="489" 
d="M460 -234c-204 149 -318 308 -318 560c0 251 114 408 316 561l-16 17c-212 -154 -329 -318 -329 -578s118 -423 330 -578z" />
    <glyph glyph-name="parenright" unicode=")" horiz-adv-x="502" 
d="M43 -268c216 163 348 325 348 595c0 264 -125 425 -343 577l-16 -18c208 -151 329 -305 329 -560c0 -260 -131 -414 -335 -577z" />
    <glyph glyph-name="partialdiff" unicode="&#x2202;" horiz-adv-x="784" 
d="M616.117 270.62c9.99981 46.2197 14.8827 96.6511 14.8827 149.38c0 163 -84 284 -238 284c-63 0 -108 -21 -166 -47l-13 19c63 32 111 51 180 51c169 0 263 -130 263 -307c0 -234.384 -86.5446 -424.004 -296.344 -424.004
c-0.551208 0 -1.10327 0.0013089 -1.65618 0.00392932c-142 0 -246 76 -246 212c0 140 111 216 260 216c117.442 0 208.785 -52.2 243.117 -153.38zM605.783 230.389c-24.5672 112.681 -112.763 171.611 -231.783 171.611c-128 -1 -234 -66 -234 -191
c0 -122 99 -191 219 -192c128.796 0.688746 209.205 86.2899 246.783 211.389z" />
    <glyph glyph-name="percent" unicode="%" horiz-adv-x="1478" 
d="M496 -91l575 846h-30l-575 -846h30zM955 111c0 -132 88 -209 223 -209c133 0 220 78 220 211c0 130 -87 206 -220 206c-135 0 -223 -77 -223 -208zM982 111c0 115 77 183 195 183c0.848763 0.00725439 1.69537 0.0108776 2.5398 0.0108776
c115.559 0 190.46 -67.8524 190.46 -183.011c0 -115 -74 -185 -191 -185c-120 0 -197 68 -197 185zM80 550c0 -132 88 -209 222 -209s221 78 221 211c0 130 -87 206 -221 206s-222 -77 -222 -208zM107 550c0 115 77 184 194 184
c0.843892 0.00715162 1.68564 0.010723 2.52522 0.010723c116.558 0 191.475 -68.8332 191.475 -183.011c0 -116 -74 -186 -192 -186c-119 0 -196 68 -196 185z" />
    <glyph glyph-name="period" unicode="." horiz-adv-x="369" 
d="M163 14h43c0 12 -9 19 -22 19s-21 -7 -21 -19zM163 14h43c0 -13 -9 -20 -22 -20s-21 7 -21 20z" />
    <glyph glyph-name="periodcentered" unicode="&#xb7;" horiz-adv-x="377" 
d="M167 440h43c0 -12 -9 -20 -22 -20s-21 8 -21 20zM167 440h43c0 12 -9 20 -22 20s-21 -8 -21 -20z" />
    <glyph glyph-name="perthousand" unicode="&#x2030;" horiz-adv-x="2012" 
d="M496 -91l575 846h-30l-575 -846h30zM1493 111c0 -132 88 -209 222 -209s221 78 221 211c0 130 -87 206 -220 206c-135 0 -223 -77 -223 -208zM1520 111c0 115 77 183 194 183c0.856017 0.00725439 1.70982 0.0108776 2.56141 0.0108776
c116.537 0 191.439 -67.8524 191.439 -183.011c0 -115 -74 -185 -191 -185c-120 0 -197 68 -197 185zM955 111c0 -132 88 -209 223 -209c133 0 220 78 220 211c0 130 -87 206 -220 206c-135 0 -223 -77 -223 -208zM982 111c0 115 77 183 195 183
c0.848763 0.00725439 1.69537 0.0108776 2.5398 0.0108776c115.559 0 190.46 -67.8524 190.46 -183.011c0 -115 -74 -185 -191 -185c-120 0 -197 68 -197 185zM80 550c0 -132 88 -209 222 -209s221 78 221 211c0 130 -87 206 -221 206s-222 -77 -222 -208zM107 550
c0 115 77 184 194 184c0.843892 0.00715162 1.68564 0.010723 2.52522 0.010723c116.558 0 191.475 -68.8332 191.475 -183.011c0 -116 -74 -186 -192 -186c-119 0 -196 68 -196 185z" />
    <glyph glyph-name="pi" unicode="&#x3c0;" horiz-adv-x="703" 
d="M209 562h286v-544h28v544h139v27h-627v-27h146v-544h28v544z" />
    <glyph glyph-name="plus" unicode="+" horiz-adv-x="844" 
d="M431 323v265h-28v-265h-294v-27h294v-278h28v278h304v27h-304z" />
    <glyph glyph-name="plusminus" unicode="&#xb1;" horiz-adv-x="910" 
d="M464 323v265h-28v-265h-294v-27h294v-251h-294v-27h294h28h304v27h-304v251h304v27h-304z" />
    <glyph glyph-name="product" unicode="&#x220f;" horiz-adv-x="1219" 
d="M300 800h-10h-2h-16h-181v-24h181v-752h-184v-24h184h15h13h185v24h-185v752h617v-752h-185v-24h185h14h13h186v24h-186v752h185v24h-185h-17h-4h-6h-617z" />
    <glyph glyph-name="q" unicode="q" horiz-adv-x="908" 
d="M692 432.671v-302.093c-72.8023 -73.1368 -167.705 -110.578 -269 -110.578c-158 0 -273 89 -273 245s111 248 270 248c95.1777 0 192.167 -30.7999 272 -80.3289zM692 98.3065v-374.221l-182 0.914573v-25h182h17h13h172v25l-172 -0.92973v783.93h172v25h-172h-13h-17
v-72.8914c-78.6201 49.2072 -177.039 77.8914 -273 77.8914c-176 0 -298 -102 -298 -274s126 -269 302 -269c101.317 0 196.906 37.6434 269 103.306z" />
    <glyph glyph-name="question" unicode="?" horiz-adv-x="628" 
d="M134 671c38 10 65 15 104 15c131 0 237 -50 237 -167c0 -128 -118 -183 -261 -183h-2v-114h29v88.6494c145.542 7.0994 261 72.6437 261 208.351c0 131 -119 192 -262 192c-42 0 -74 -5 -115 -16zM211 11h33c0 -10 -6 -15 -17 -15c-10 0 -16 6 -16 15zM211 11h33
c0 10 -6 16 -17 16c-10 0 -16 -7 -16 -16z" />
    <glyph glyph-name="questiondown" unicode="&#xbf;" horiz-adv-x="628" 
d="M494 37c-37 -11 -65 -16 -104 -16c-130 0 -237 51 -237 168c0 128 118 183 261 183h2v114h-29v-88.6499c-145.436 -7.10181 -260 -72.6462 -260 -208.35c0 -131 118 -193 261 -193c42 0 74 6 116 16zM418 697h-33c0 10 6 14 16 14s17 -5 17 -14zM418 697h-33
c0 -11 6 -16 16 -16s17 6 17 16z" />
    <glyph glyph-name="quotedbl" unicode="&#x22;" horiz-adv-x="637" 
d="M458 658v188h-27v-188h27zM207 658v188h-28v-188h28z" />
    <glyph glyph-name="quotedblbase" unicode="&#x201e;" horiz-adv-x="575" 
d="M255 -148l149 183h-39l-140 -183h30zM91 -148l148 183h-38l-140 -183h30z" />
    <glyph glyph-name="quotedblleft" unicode="&#x201c;" horiz-adv-x="470" 
d="M246 860l-149 -182h39l140 182h-30zM412 860l-148 -182h38l140 182h-30z" />
    <glyph glyph-name="quotedblright" unicode="&#x201d;" horiz-adv-x="423" 
d="M205 657l148 183h-38l-140 -183h30zM38 657l149 183h-38l-141 -183h30z" />
    <glyph glyph-name="quoteleft" unicode="&#x2018;" horiz-adv-x="455" 
d="M312 727l-149 -183h39l140 183h-30z" />
    <glyph glyph-name="quoteright" unicode="&#x2019;" horiz-adv-x="451" 
d="M193 540l149 182h-38l-141 -182h30z" />
    <glyph glyph-name="quotesinglbase" unicode="&#x201a;" horiz-adv-x="410" 
d="M91 -148l148 183h-38l-140 -183h30z" />
    <glyph glyph-name="quotesingle" unicode="'" horiz-adv-x="386" 
d="M207 658v188h-28v-188h28z" />
    <glyph glyph-name="r" unicode="r" horiz-adv-x="661" 
d="M280 397.889c85.8748 105.637 193.515 115.111 322 115.111v25c-130.283 0 -244.752 -13.1775 -322 -107.052v102.052h-15h-13h-186v-25h186v-483h-185v-25h185h14h14h172v25h-172v372.889z" />
    <glyph glyph-name="racute" unicode="&#x155;" horiz-adv-x="661" 
d="M250 659c74 55 148 110 222 166h-41c-75 -55 -149 -111 -223 -166h42zM280 397.889c85.8748 105.637 193.515 115.111 322 115.111v25c-130.283 0 -244.752 -13.1775 -322 -107.052v102.052h-15h-13h-186v-25h186v-483h-185v-25h185h14h14h172v25h-172v372.889z" />
    <glyph glyph-name="radical" unicode="&#x221a;" horiz-adv-x="917" 
d="M485 0c124 241 248 481 372 722h-28c-123.443 -234.25 -243.107 -467.556 -364.502 -701.753c-109.739 211.569 -34.2939 65.844 -159.498 299.753h-15h-13h-185v-24h197.55c107.793 -206.088 33.8876 -63.4882 155.45 -296h9h21h10z" />
    <glyph glyph-name="rcaron" unicode="&#x159;" horiz-adv-x="659" 
d="M72 823c74 -55 148 -111 223 -166h9h32h9c75 55 149 111 223 166h-42c-68.6667 -51.964 -137.333 -103.067 -206 -154.108c-68.6715 51.0409 -137.405 102.144 -207 154.108h-41zM277 397.889c85.8748 105.637 193.515 115.111 322 115.111v25
c-130.283 0 -244.752 -13.1775 -322 -107.052v102.052h-15h-13h-185v-25h185v-483h-184v-25h184h14h14h172v25h-172v372.889z" />
    <glyph glyph-name="rcommaaccent" unicode="&#x157;" horiz-adv-x="661" 
d="M252 -318l148 182h-38l-140 -182h30zM280 397.889c85.8748 105.637 193.515 115.111 322 115.111v25c-130.283 0 -244.752 -13.1775 -322 -107.052v102.052h-15h-13h-186v-25h186v-483h-185v-25h185h14h14h172v25h-172v372.889z" />
    <glyph glyph-name="registered" unicode="&#xae;" horiz-adv-x="1094" 
d="M436 148h125v23h-99zM463 294h74c13.9249 0 27.3255 0.498129 40.0064 1.66843c36.3701 -48.71 71.3423 -98.1892 107.994 -147.668h114v23h-95c-32.6704 43.8717 -66.2121 86.0007 -98.1852 128.827c49.9866 10.2949 83.1852 36.1437 83.1852 92.1729
c0 72 -62 99 -141 99h-85h-139v-23h113v-296h-113v-23h113l26 23v122zM463 468h80c66 0 120 -19 120 -78c0 -62 -54 -73 -122 -73h-78v151zM463 468v23zM127 319c0 -216 194 -323 432 -323c227 0 409 113 409 323c0 213 -187 326 -416 326c-234 0 -425 -110 -425 -326z
M152 319c0 203 180 304 400 304c214 0 390 -105 390 -305c0 -195 -172 -299 -382 -299c-221 0 -408 97 -408 300z" />
    <glyph glyph-name="ring" unicode="&#x2da;" horiz-adv-x="484" 
d="M48 751c0 64 52 94 122 94c75 0 131 -27 131 -94c0 -65 -55 -93 -128 -93c-71 0 -125 28 -125 93zM22 751c0 -79 65 -117 151 -117c88 0 155 36 155 117c0 82 -68 118 -158 118c-85 0 -148 -38 -148 -118z" />
    <glyph glyph-name="ruble" horiz-adv-x="904" 
d="M490 314c198 3 324 28 324 204s-126 204 -326 204h-163h-9h-4h-16h-183v-25h183v-357h-135v-26h135v-106h-135v-26h135v-157h-183v-25h183h16h13h186v25h-186v157h384v26h-384v106h165zM325 697h159c184 0 301 -20 301 -180c0 -159 -117 -177 -299 -177h-161v357z" />
    <glyph glyph-name="rupee" horiz-adv-x="1117" 
d="M0 0h1117v20h-1117v-20z" />
    <glyph glyph-name="s" unicode="s" horiz-adv-x="707" 
d="M145 70.7152v101.285h-24v-121h2c83 -32 158 -56 243 -56c124 0 218 33 218 146c-1 113 -108 119 -227 147c-94 22 -178 42 -178 125c0 80 71 100 163 100c63.5521 0 138.981 -17.8148 188 -38.5988v-104.401h25v120c-51 25 -139 48 -211 48c-109 0 -191 -27 -191 -125
c0 -101 88 -123 195 -148c106 -27 209 -28 209 -124c0 -95 -82 -121 -186 -121c-79.9474 0 -147.833 22.2671 -226 50.7152z" />
    <glyph glyph-name="sacute" unicode="&#x15b;" horiz-adv-x="707" 
d="M272 660c75 55 149 110 223 166h-41c-75 -55 -149 -111 -223 -166h41zM145 70.7152v101.285h-24v-121h2c83 -32 158 -56 243 -56c124 0 218 33 218 146c-1 113 -108 119 -227 147c-94 22 -178 42 -178 125c0 80 71 100 163 100c63.5521 0 138.981 -17.8148 188 -38.5988
v-104.401h25v120c-51 25 -139 48 -211 48c-109 0 -191 -27 -191 -125c0 -101 88 -123 195 -148c106 -27 209 -28 209 -124c0 -95 -82 -121 -186 -121c-79.9474 0 -147.833 22.2671 -226 50.7152z" />
    <glyph glyph-name="scaron" unicode="&#x161;" horiz-adv-x="713" 
d="M96 824c74 -55 148 -111 223 -166h9h32h9c75 55 149 111 223 166h-42c-68.6667 -51.964 -137.333 -103.067 -206 -154.108c-68.6667 51.0409 -137.333 102.144 -206 154.108h-42zM144 70.7152v101.285h-24v-121h2c83 -32 158 -56 243 -56c124 0 218 33 218 146
c-1 113 -108 119 -227 147c-94 22 -178 42 -178 125c0 80 71 100 163 100c63.5521 0 138.981 -17.8148 188 -38.5988v-104.401h25v120c-51 25 -139 48 -211 48c-109 0 -191 -27 -191 -125c0 -101 88 -123 195 -148c106 -27 209 -28 209 -124c0 -95 -82 -121 -186 -121
c-79.9474 0 -147.833 22.2671 -226 50.7152z" />
    <glyph glyph-name="scedilla" unicode="&#x15f;" horiz-adv-x="707" 
d="M298 -95c21 11 39 12 63 12c42 0 73 -17 73 -55c0 -44 -41 -54 -91 -54c-36 0 -62 2 -95 17l-11 -19c36 -15 65 -21 105 -21c66 0 119 18 119 77c0 53 -41 79 -98 79c-15.5828 0 -28.8914 -1.51606 -42.2122 -4.42117c13.761 18.2665 27.5846 36.7425 40.2122 54.4212
l-5.40746 4.11997c3.45316 -0.0796104 6.9219 -0.119967 10.4075 -0.119967c124 0 218 33 218 146c-1 113 -108 119 -227 147c-94 22 -178 42 -178 125c0 80 71 100 163 100c63.5521 0 138.981 -17.8148 188 -38.5988v-104.401h25v120c-51 25 -139 48 -211 48
c-109 0 -191 -27 -191 -125c0 -101 88 -123 195 -148c106 -27 209 -28 209 -124c0 -95 -82 -121 -186 -121c-79.9474 0 -147.833 22.2671 -226 50.7152v101.285h-24v-121h2c71.7947 -27.6799 137.604 -49.374 209.077 -54.7271
c-17.5728 -23.852 -35.7021 -48.8171 -53.0767 -72.2729l18 -19c0.142778 0.190371 0.285649 0.380835 0.428611 0.571389z" />
    <glyph glyph-name="scommaaccent" unicode="&#x219;" horiz-adv-x="707" 
d="M258 -329l149 183h-39l-140 -183h30zM145 70.7152v101.285h-24v-121h2c83 -32 158 -56 243 -56c124 0 218 33 218 146c-1 113 -108 119 -227 147c-94 22 -178 42 -178 125c0 80 71 100 163 100c63.5521 0 138.981 -17.8148 188 -38.5988v-104.401h25v120
c-51 25 -139 48 -211 48c-109 0 -191 -27 -191 -125c0 -101 88 -123 195 -148c106 -27 209 -28 209 -124c0 -95 -82 -121 -186 -121c-79.9474 0 -147.833 22.2671 -226 50.7152z" />
    <glyph glyph-name="section" unicode="&#xa7;" horiz-adv-x="724" 
d="M145 28c76 -41 136 -57 222 -57c108 0 195 33 195 130c-1.38917 64.5964 -43.7865 96.3863 -103.065 117.151c82.4644 21.3019 142.065 60.6803 142.065 142.849c-1 116 -122 117 -243 145c-81 20 -153 45 -153 120s68 102 158 102
c67.2592 0 113.575 -10.4717 174 -34.676v-104.324h25v120c-69 29 -121 43 -197 43c-106 0 -187 -36 -187 -126c0 -63.2674 39.2833 -97.0723 94.8099 -119.995c-79.6896 -21.816 -140.81 -58.2944 -140.81 -139.005c0 -109 109 -121 225 -148c89 -24 178 -37 178 -118
c0 -74 -75 -106 -167 -106c-77.2098 0 -130.796 14.5377 -198 47.0773v105.923h-25v-120zM414.585 231.266c-13.4625 3.42889 -27.3927 6.61156 -41.5847 9.7338c-105 27 -213 33 -213 126c0 78.4023 64.6453 107.15 145.873 127.05
c12.2873 -3.93279 25.0595 -7.56498 38.1268 -11.0496c110 -29 230 -23 230 -122c0 -77.5482 -69.5336 -115.631 -159.415 -129.734z" />
    <glyph glyph-name="semicolon" unicode=";" horiz-adv-x="534" 
d="M180 -99c53 64 96 117 148 181h-36c-49 -64 -91 -117 -140 -181h28zM282 425h32c0 -11 -7 -15 -17 -15s-15 6 -15 15zM282 425h32c0 11 -7 16 -17 16c-9 0 -15 -6 -15 -16z" />
    <glyph glyph-name="seven" unicode="7" horiz-adv-x="776" 
d="M723 722h-623v-25v-120h25v120h578.263c-536.972 -680.158 12.0001 15.4785 -551.263 -697h35c551 696 0 0 552 697v25h-16z" />
    <glyph glyph-name="six" unicode="6" horiz-adv-x="831" 
d="M149.849 285.735c23.5714 265.171 269.462 359.821 564.151 428.265l-5 20c-331 -69 -590 -179 -590 -493c0 -166 131 -246 310 -246c157 0 271 66 271 209c0 144 -117 206 -273 206c-120.994 0 -215.099 -38.8395 -277.151 -124.265zM148.033 238.67
c63.1759 105.453 160.089 144.33 275.967 144.33c142 0 246 -52 246 -180c0 -125 -103 -179 -240 -179c-161.423 0 -279.694 67.6717 -281.967 214.67z" />
    <glyph glyph-name="slash" unicode="/" horiz-adv-x="752" 
d="M103 -65c192 302 383 604 575 906h-29c-191 -302 -383 -604 -574 -906h28z" />
    <glyph glyph-name="softhyphen" horiz-adv-x="731" 
d="M169 259h393v27h-393v-27z" />
    <glyph glyph-name="space" unicode=" " horiz-adv-x="240" 
 />
    <glyph glyph-name="sterling" unicode="&#xa3;" horiz-adv-x="757" 
d="M646 674c-62 33 -110 48 -180 48c-134.614 0 -215.297 -100.158 -215.297 -238.74c0 -29.8434 3.74164 -61.4688 11.4921 -94.2595h-125.195v-24h131.343c9.501 -37.8918 14.1125 -74.5612 14.1125 -108.92c0 -133.469 -69.5843 -232.08 -192.455 -232.08v-23h543v23
h-439.345c76.6672 38.8441 117.011 123.554 117.011 228.355c0 35.5697 -4.64737 73.4538 -14.0993 112.645h273.433v24h-279.516c-7.30942 30.6013 -10.8005 60.2542 -10.8005 88.3044c0 127.372 71.9847 221.696 185.317 221.696c65 0 110 -12 168 -45z" />
    <glyph glyph-name="summation" unicode="&#x2211;" horiz-adv-x="755" 
d="M556 386l-423.429 312h463.429v-92h25v116h-521h-7v-24l423 -314l-424 -360v-24h7h522v118h-25v-94h-468.585z" />
    <glyph glyph-name="t" unicode="t" horiz-adv-x="606" 
d="M535 50c-48 -19 -82 -30 -133 -30c-89 0 -141 36 -141 126v362h304v25h-304v118l-28 -16v-102h-194v-25h194v-364c0 -102 64 -149 167 -149c55 0 92 14 145 33z" />
    <glyph glyph-name="tcaron" unicode="&#x165;" horiz-adv-x="592" 
d="M300 -330l149 182h-39l-140 -182h30zM535 50c-48 -19 -82 -30 -133 -30c-89 0 -141 36 -141 126v362h304v25h-304v118l-28 -16v-102h-194v-25h194v-364c0 -102 64 -149 167 -149c55 0 92 14 145 33z" />
    <glyph glyph-name="tcedilla" horiz-adv-x="606" 
d="M535 50c-48 -19 -82 -30 -133 -30c-89 0 -141 36 -141 126v362h304v25h-304v118l-28 -16v-102h-194v-25h194v-364c0 -92.9949 53.1983 -140.273 140.649 -147.896c-17.951 -24.1028 -37.0723 -49.376 -54.649 -73.1045l19 -19c22 11 39 12 63 12c42 0 74 -17 74 -55
c0 -44 -42 -54 -92 -54c-35 0 -62 2 -95 17l-10 -19c36 -15 65 -21 104 -21c67 0 120 18 120 77c0 53 -42 79 -98 79c-16.1964 0 -29.831 -1.79322 -43.2378 -4.86102c13.6967 18.4097 27.8723 37.0404 41.2378 54.861l-6.60409 5.03169
c1.52588 -0.0211354 3.06061 -0.0316897 4.60409 -0.0316897c55 0 92 14 145 33z" />
    <glyph glyph-name="tcommaaccent" unicode="&#x163;" horiz-adv-x="606" 
d="M300 -330l149 182h-39l-140 -182h30zM535 50c-48 -19 -82 -30 -133 -30c-89 0 -141 36 -141 126v328h304v25h-304v152l-28 -16v-136h-194v-25h194v-330c0 -102 64 -149 167 -149c55 0 92 14 145 33z" />
    <glyph glyph-name="thorn" unicode="&#xfe;" horiz-adv-x="838" 
d="M148 455.368v344.632h-13h-15h-184v-25h184v-1050h-186v-24h186v-1h13h15h171v25l-171 -0.919355v368.366c83.4746 -64.7084 163.886 -97.4471 272 -97.4471c174 0 294 110 293 282c0 163 -123 261 -291 261c-107.831 0 -209.309 -34.1496 -274 -82.632zM148 119.22
l-2.84217e-14 308.724c58.7351 48.5748 162.219 85.0562 273 85.0562c155 0 265 -89 265 -237c0.0699213 -2.76189 0.104703 -5.50606 0.104703 -8.23227c0 -151.7 -107.697 -247.797 -261.432 -247.797c-1.5528 0 -3.1103 0.00980388 -4.67244 0.0294534
c-107.913 0 -185.991 34.6467 -272 99.2195z" />
    <glyph glyph-name="three" unicode="3" horiz-adv-x="787" 
d="M145 623c46 44 128 75 215 75c129 0 231 -32 231 -149c0 -119 -124 -154 -251 -154v-21c145 0 295 -38 295 -179c0 -138 -136 -171 -274 -171c-86 0 -150 16 -229 51l-15 -19c83 -39 149 -61 242 -61c172 0 303 44 303 201c0 113.648 -79.7024 169.701 -199.615 189.902
c91.3984 20.4579 155.615 69.5245 155.615 164.098c0 132 -111 177 -256 177c-96 0 -184 -37 -235 -88z" />
    <glyph glyph-name="threequarters" unicode="&#xbe;" horiz-adv-x="1399" 
d="M95 370c50 -23 98 -33 151 -33c7.19481 -0.189337 14.3179 -0.291044 21.349 -0.291044c104.374 0 188.462 22.4129 185.651 113.291c0 71.4413 -48.6266 93.8701 -116.87 101.091c56.8334 12.0934 95.8703 39.051 95.8703 99.9091c0 84 -78 105 -172 105
c-59 0 -113 -18 -156 -52l16 -16c41 29 86 46 136 46c81 0 149 -14 149 -85c0 -87 -107 -81 -209 -87v-7v-14v-3c119 -5 230 4 230 -89c0 -74.6242 -69.6097 -89.2101 -157.695 -89.2101c-6.34551 0 -12.7869 0.0756934 -19.305 0.210088c-49 0 -95 8 -140 28zM446 -91
l575 846h-30l-575 -846h30zM1155 -105h14h185v24h-185v96h133v23h-133v283v9h-27l-314 -292l13 -23h301v-96h-185v-24h185h13zM1142 295.811v-257.811h-276.346z" />
    <glyph glyph-name="threesuperior" unicode="&#xb3;" horiz-adv-x="680" 
d="M165 324c50 -23 98 -34 151 -34c6.93897 -0.182604 13.8112 -0.279995 20.5986 -0.279995c104.721 0 189.219 23.1842 186.401 114.28c0 71.5418 -49.6228 93.4609 -118.963 100.359c57.9656 11.6886 97.9628 38.4469 97.9628 100.641c0 84 -78 105 -173 105
c-58 0 -112 -18 -155 -53l16 -16c41 29 86 46 136 46c81 0 149 -14 149 -84c0 -88 -107 -82 -209 -88v-7v-13v-4c119 -5 230 5 230 -88c0 -75.5679 -69.6297 -90.2098 -158.545 -90.2098c-6.39159 0 -12.8828 0.0756593 -19.455 0.209786c-48 0 -94 8 -139 28z" />
    <glyph glyph-name="tilde" unicode="&#x2dc;" horiz-adv-x="755" 
d="M490 730c-19 -57 -43 -102 -101 -102c-49 0 -83 16 -121 48c-40 34 -72 55 -124 55c-74 0 -116 -46 -136 -120l22 -7c18 62 52 103 114 103c44 0 72 -18 106 -47c43 -36 81 -56 137 -56c70 0 103 52 126 120z" />
    <glyph glyph-name="trademark" unicode="&#x2122;" horiz-adv-x="1421" 
d="M726.216 299c20.6307 112.499 41.3047 224.345 62.6569 336.809c36.8197 -118.821 74.4735 -239.258 112.127 -358.809h10h16h11c36.2348 121.101 72.4696 243.11 108.704 364.295c23.1558 -113.404 44.307 -228.162 66.7521 -342.295zM1141 299
c-24.3225 120.64 -49.5915 240.333 -73.9653 360h124.965v22h-158c-38.3568 -125.361 -115.07 -378.06 -115.07 -378.06c-39.3099 126.349 -78.6198 252.643 -117.93 378.06h-152v-23h120.049c-23.2851 -119.337 -46.5702 -238.699 -69.8552 -359h-1.19355zM721 276h1z
M1117 276h1h-1zM364 659h27h175v-74h24v96h-199v1l-1.17391 -1h-239.826v-96h24v74h190zM391 681h-1.17391l-25.8261 -22v-360h-114v-23h114h138v23h-111v360zM391 299h-27z" />
    <glyph glyph-name="turkishlira" horiz-adv-x="1098" 
d="M981 350c0 -227 -150 -325 -393 -325h-260v322h385v26h-385v146h385v26h-385v152h183v25h-183h-12h-4h-13h-182v-25h182v-152h-133v-26h133v-146h-133v-26h133v-322h-182v-25h182h17h12h257c261 0 423 106 423 350h-27z" />
    <glyph glyph-name="two" unicode="2" horiz-adv-x="825" 
d="M148 561c67 92 144 138 257 138c130 0 226 -50 226 -174c0 -144 -102 -205 -226 -286c-103 -72 -206 -144 -308 -214v-25h11h575v25v120h-25v-120l-513.555 -7.10543e-15c94.0518 64.8456 185.411 130.208 277.555 194c132 85 237 153 237 307c0 139 -105 201 -252 201
c-123 0 -215 -52 -280 -151z" />
    <glyph glyph-name="twosuperior" unicode="&#xb2;" horiz-adv-x="750" 
d="M214 613c42 51 93 74 166 74c80 0 145 -26 145 -96c0 -62 -52 -84 -105 -119c-89 -50 -177 -102 -264 -153v-23h423v121h-24v-98h-351.191c78.5753 44.6667 155.883 89.3333 233.191 134c59 40 114 69 114 139c0 85 -75 119 -170 119c-82 0 -143 -22 -187 -84z" />
    <glyph glyph-name="u" unicode="u" horiz-adv-x="904" 
d="M689 157.794c-56.6029 -79.3569 -149.945 -137.794 -248 -137.794c-130 0 -216 46 -216 168v345h-14h-14h-185v-25h185v-322c0 -138 96 -191 240 -191c98.3206 0 192.017 51.6331 252 125.132v-120.132h14h14h171v25h-171v508h-14h-14h-184v-25h184v-350.206z" />
    <glyph glyph-name="uacute" unicode="&#xfa;" horiz-adv-x="904" 
d="M368 659c75 55 149 110 223 166h-41c-75 -55 -149 -111 -223 -166h41zM689 157.794c-56.6029 -79.3569 -149.945 -137.794 -248 -137.794c-130 0 -216 46 -216 168v345h-14h-14h-185v-25h185v-322c0 -138 96 -191 240 -191c98.3206 0 192.017 51.6331 252 125.132
v-120.132h14h14h171v25h-171v508h-14h-14h-184v-25h184v-350.206z" />
    <glyph glyph-name="ucircumflex" unicode="&#xfb;" horiz-adv-x="904" 
d="M689 658c-74 55 -148 111 -223 166h-9h-32h-9c-75 -55 -149 -111 -223 -166h42c68.6667 51.036 137.333 102.072 206 153.907c68.6667 -51.835 137.333 -102.871 206 -153.907h42zM689 157.794c-56.6029 -79.3569 -149.945 -137.794 -248 -137.794
c-130 0 -216 46 -216 168v345h-14h-14h-185v-25h185v-322c0 -138 96 -191 240 -191c98.3206 0 192.017 51.6331 252 125.132v-120.132h14h14h171v25h-171v508h-14h-14h-184v-25h184v-350.206z" />
    <glyph glyph-name="udieresis" unicode="&#xfc;" horiz-adv-x="904" 
d="M503 668h42c0 -12 -9 -20 -22 -20s-20 8 -20 20zM503 668h42c0 12 -9 20 -22 20s-20 -8 -20 -20zM338 668h43c0 -12 -9 -20 -23 -20c-12 0 -20 8 -20 20zM338 668h43c0 12 -9 20 -23 20c-12 0 -20 -8 -20 -20zM689 157.794
c-56.6029 -79.3569 -149.945 -137.794 -248 -137.794c-130 0 -216 46 -216 168v345h-14h-14h-185v-25h185v-322c0 -138 96 -191 240 -191c98.3206 0 192.017 51.6331 252 125.132v-120.132h14h14h171v25h-171v508h-14h-14h-184v-25h184v-350.206z" />
    <glyph glyph-name="ugrave" unicode="&#xf9;" horiz-adv-x="904" 
d="M533 658c-74 55 -148 111 -222 166h-42c74 -56 149 -111 223 -166h41zM689 157.794c-56.6029 -79.3569 -149.945 -137.794 -248 -137.794c-130 0 -216 46 -216 168v345h-14h-14h-185v-25h185v-322c0 -138 96 -191 240 -191c98.3206 0 192.017 51.6331 252 125.132
v-120.132h14h14h171v25h-171v508h-14h-14h-184v-25h184v-350.206z" />
    <glyph glyph-name="uhungarumlaut" unicode="&#x171;" horiz-adv-x="904" 
d="M494 593l148 183h-38l-140 -183h30zM327 593l149 183h-38l-141 -183h30zM689 157.794c-56.6029 -79.3569 -149.945 -137.794 -248 -137.794c-130 0 -216 46 -216 168v345h-14h-14h-185v-25h185v-322c0 -138 96 -191 240 -191c98.3206 0 192.017 51.6331 252 125.132
v-120.132h14h14h171v25h-171v508h-14h-14h-184v-25h184v-350.206z" />
    <glyph glyph-name="umacron" unicode="&#x16b;" horiz-adv-x="904" 
d="M585 681h-303v-24h303v24zM689 157.794c-56.6029 -79.3569 -149.945 -137.794 -248 -137.794c-130 0 -216 46 -216 168v345h-14h-14h-185v-25h185v-322c0 -138 96 -191 240 -191c98.3206 0 192.017 51.6331 252 125.132v-120.132h14h14h171v25h-171v508h-14h-14h-184v-25
h184v-350.206z" />
    <glyph glyph-name="underscore" unicode="_" horiz-adv-x="920" 
d="M0 -209h919v24h-919v-24z" />
    <glyph glyph-name="uogonek" unicode="&#x173;" horiz-adv-x="904" 
d="M689 157.794c-56.6029 -79.3569 -149.945 -137.794 -248 -137.794c-130 0 -216 46 -216 168v345h-14h-14h-185v-25h185v-322c0 -138 96 -191 240 -191c98.3206 0 192.017 51.6331 252 125.132v-98.2991c-68.1846 -23.1427 -129 -40.8586 -129 -109.833
c0 -63 49 -96 117 -96c40 0 67 11 104 27l-13 19c-31 -14 -54 -22 -88 -22c-54 0 -94 23 -94 72c0 56.3847 48.9113 69.1255 103 88.4837v-0.483719h14h14h171v25h-171v508h-14h-14h-184v-25h184v-350.206z" />
    <glyph glyph-name="uring" unicode="&#x16f;" horiz-adv-x="904" 
d="M316 772c0 64 53 95 123 95c74 0 131 -27 131 -95c0 -65 -55 -93 -128 -93c-71 0 -126 28 -126 93zM291 772c0 -78 65 -117 151 -117c88 0 154 37 154 117c0 82 -67 118 -157 118c-85 0 -148 -38 -148 -118zM689 157.794
c-56.6029 -79.3569 -149.945 -137.794 -248 -137.794c-130 0 -216 46 -216 168v345h-14h-14h-185v-25h185v-322c0 -138 96 -191 240 -191c98.3206 0 192.017 51.6331 252 125.132v-120.132h14h14h171v25h-171v508h-14h-14h-184v-25h184v-350.206z" />
    <glyph glyph-name="v" unicode="v" horiz-adv-x="955" 
d="M469.815 21.4204c-84.773 162.453 -168.012 324.138 -252.763 486.58h182.948v25h-196h-3h-28h-171v-25h183.937c87.8641 -169.579 177.418 -338.335 266.063 -508h6h23h6c93.4108 169.665 186.822 338.421 280.232 508h182.768v25h-169h-29h-1h-198v-25h185.21z" />
    <glyph glyph-name="w" unicode="w" horiz-adv-x="1394" 
d="M967 0h2c80.0664 169.665 161.041 338.421 242.925 508h177.075v25h-165h-30h-4h-198v-25h190.065c-76.474 -160.238 -152.175 -319.74 -227.833 -479.968c-76.8411 168.559 -154.486 336.315 -231.232 504.968h-7h-22h-8
c-85.4399 -168.981 -171.781 -337.061 -257.312 -505.951c-73.1028 160.559 -146.206 320.386 -219.308 480.951h190.621v25h-199h-3h-30h-166v-25h177.52c78.1601 -169.579 156.32 -338.335 234.48 -508h1h26h1c88.1002 170.455 175.283 339.992 262.428 510.369
c78.5224 -170.377 157.006 -339.915 234.572 -510.369h2h26z" />
    <glyph glyph-name="x" unicode="x" horiz-adv-x="973" 
d="M469.662 277.527c-89.9087 -84.1141 -179.934 -168.219 -269.97 -252.527l-189.692 2.84217e-14v-25h163h36h2h197v25h-170.589c83.2114 78.7448 166.432 157.312 249.748 235.875c82.537 -78.5631 164.874 -157.13 246.838 -235.875l-170.997 2.84217e-14v-25h197h2h36
h163v25h-189.271c-88.7694 84.4537 -177.549 168.703 -266.447 252.962c81.2668 76.6176 162.631 153.243 244.172 230.038h189.545v25h-163h-34h-2h-199v-25h174.442c-75.7431 -71.2645 -151.639 -142.384 -227.624 -213.486
c-75.0277 71.1022 -150.144 142.221 -225.413 213.486h171.595v25h-198h-1h-1h-33h-164v-25h190.271c80.8688 -76.9399 161.72 -153.71 242.392 -230.473z" />
    <glyph glyph-name="y" unicode="y" horiz-adv-x="965" 
d="M454.606 75.8573c-76.994 -116.885 -154.068 -233.788 -231.148 -350.857l-183.459 5.68434e-14v-25h167h28h3c177.514 269.666 355.028 538.391 532.541 808l181.459 5.68434e-14v25h-165h-32h-1h-199v-25h183.629
c-89.4034 -136.488 -179.041 -272.75 -268.794 -409.022c-81.7115 136.341 -164.227 272.681 -247.548 409.022h185.713v25h-199h-2h-31h-166v-25h181.478c88.6451 -143.58 174.16 -288.725 263.128 -432.143z" />
    <glyph glyph-name="yacute" unicode="&#xfd;" horiz-adv-x="965" 
d="M394 661c74 55 148 110 223 166h-42c-75 -55 -149 -111 -223 -166h42zM454.606 75.8573c-76.994 -116.885 -154.068 -233.788 -231.148 -350.857l-183.459 5.68434e-14v-25h167h28h3c177.514 269.666 355.028 538.391 532.541 808l181.459 5.68434e-14v25h-165h-32h-1
h-199v-25h183.629c-89.4034 -136.488 -179.041 -272.75 -268.794 -409.022c-81.7115 136.341 -164.227 272.681 -247.548 409.022h185.713v25h-199h-2h-31h-166v-25h181.478c88.6451 -143.58 174.16 -288.725 263.128 -432.143z" />
    <glyph glyph-name="ydieresis" unicode="&#xff;" horiz-adv-x="965" 
d="M528 670h43c0 -12 -9 -20 -23 -20c-12 0 -20 8 -20 20zM528 670h43c0 12 -9 20 -23 20c-12 0 -20 -8 -20 -20zM364 670h42c0 -12 -9 -20 -22 -20c-12 0 -20 8 -20 20zM364 670h42c0 12 -9 20 -22 20c-12 0 -20 -8 -20 -20zM454.606 75.8573
c-76.994 -116.885 -154.068 -233.788 -231.148 -350.857l-183.459 5.68434e-14v-25h167h28h3c177.514 269.666 355.028 538.391 532.541 808l181.459 5.68434e-14v25h-165h-32h-1h-199v-25h183.629c-89.4034 -136.488 -179.041 -272.75 -268.794 -409.022
c-81.7115 136.341 -164.227 272.681 -247.548 409.022h185.713v25h-199h-2h-31h-166v-25h181.478c88.6451 -143.58 174.16 -288.725 263.128 -432.143z" />
    <glyph glyph-name="yen" unicode="&#xa5;" horiz-adv-x="1150" 
d="M565.874 351.12c-4.62316 -5.36998 -9.24783 -10.7432 -13.8742 -16.1198v-82h-286v-27h286v-201h-185v-24h185v-1h14h13h186v25l-186 -0.934673v201.935h291v27h-291v82c3.18416 3.66747 6.36832 7.33413 9.55247 11h281.448v27h-257.983
c94.5779 108.776 189.156 216.908 283.734 325h187.25v24h-198h-199v-24h179.902c-100.763 -116.09 -200.04 -230.74 -300.028 -346.88zM579 335c-4.37359 5.37327 -13.1258 16.1198 -13.1258 16.1198c-94.1848 115.627 -189.073 231.253 -282.503 346.88h180.629v24h-199
h-1h-30h-168v-24h187.721l267.054 -325h-254.775v-27h276.961l9.03876 -11z" />
    <glyph glyph-name="z" unicode="z" horiz-adv-x="755" 
d="M120 521v-13v-107h25v107h445c-158 -158 -0.0375015 -0.0188672 -486 -483v-25h553v12v13v107h-26v-107h-490.018c157.031 158 0.0621171 0.0188672 487.018 483v25h-508v-12z" />
    <glyph glyph-name="zacute" unicode="&#x17a;" horiz-adv-x="755" 
d="M301 660c74 55 148 110 223 166h-42c-75 -55 -149 -111 -223 -166h42zM120 521v-13v-107h25v107h445c-158 -158 -0.0375015 -0.0188672 -486 -483v-25h553v12v13v107h-26v-107h-490.018c157.031 158 0.0621171 0.0188672 487.018 483v25h-508v-12z" />
    <glyph glyph-name="zcaron" unicode="&#x17e;" horiz-adv-x="755" 
d="M126 824c74 -55 148 -111 223 -166h9h32h9c75 55 149 111 223 166h-41c-69.5947 -51.964 -138.328 -103.067 -207 -154.108c-68.6667 51.0409 -137.333 102.144 -206 154.108h-42zM146 508h444.998c-160.171 -160.121 -0.952281 0.0577557 -485.998 -483v-25h552v12v13
v107h-25v-107h-490.018c157.031 158 0.0559057 0.0188672 486.018 483v25h-507v-12v-13v-107h25v107z" />
    <glyph glyph-name="zdotaccent" unicode="&#x17c;" horiz-adv-x="755" 
d="M351 670h43c0 -12 -9 -20 -23 -20c-12 0 -20 8 -20 20zM351 670h43c0 12 -9 20 -23 20c-12 0 -20 -8 -20 -20zM120 521v-13v-107h25v107h445c-158 -158 -0.0375015 -0.0188672 -486 -483v-25h553v12v13v107h-26v-107h-490.018
c157.031 158 0.0621171 0.0188672 487.018 483v25h-508v-12z" />
    <glyph glyph-name="zero" unicode="0" horiz-adv-x="1018" 
d="M132 360c0 -230 146 -365 380 -365c231 0 371 138 371 368c0 229 -141 364 -372 364c-234 0 -379 -136 -379 -367zM161 360c0 214 132 340 349 340c214 0 346 -127 346 -338c0 -212 -131 -339 -343 -339c-217 0 -352 124 -352 337z" />
    </font>
</defs>
</svg>
