<?xml version="1.0" standalone="no"?>
<!DOCTYPE svg PUBLIC "-//W3C//DTD SVG 1.1//EN" "http://www.w3.org/Graphics/SVG/1.1/DTD/svg11.dtd" >
<svg xmlns="http://www.w3.org/2000/svg" xmlns:xlink="http://www.w3.org/1999/xlink" version="1.1">
<metadata>
Created by FontForge 20141219 at Thu Feb 19 09:37:16 2015
 By Simon Egli
Copyright 2015 Simon Egli
</metadata>
<defs>
<font id="Sean" horiz-adv-x="1118" >
  <font-face 
    font-family="Slab"
    font-weight="400"
    font-stretch="normal"
    units-per-em="1000"
    panose-1="2 0 2 3 0 0 0 0 0 0"
    ascent="800"
    descent="-200"
    x-height="533"
    cap-height="722"
    bbox="-68 -330 2450 1077"
    underline-thickness="0"
    underline-position="0"
    unicode-range="U+0020-FB02"
  />
    <missing-glyph />
    <glyph glyph-name="A" unicode="A" 
d="M542.453 703.17c71.4048 -142.25 142.47 -284.169 213.402 -426.17h-451.599c79.1968 142.001 158.527 283.92 238.197 426.17zM533 722h-2c-131.861 -233.666 -263.722 -466.391 -394.672 -700h-182.328v-22h170h26h3h204v22h-194.766
c43.0511 77.4082 86.1053 154.719 129.196 232l475.912 -2.84217e-14c38.5927 -77.2806 77.149 -154.592 115.702 -232h-196.044v-22h204h3h26h170v22h-181.136c-118.23 233.609 -235.577 466.334 -353.864 700h-2h-20z" />
    <glyph glyph-name="AE" unicode="&#xc6;" horiz-adv-x="1322" 
d="M657 0h567v11v11v109h-21v-109h-546v341h437v22h-437v315h500v-109h22v109v11v11h-518h-4h-10h-14h-3h-182v-22h169.643l-473.285 -678h-182.357v-22h167h29h3h204v22h-191.673l133.762 192l325.911 -2.84217e-14v-192h-3h-182v-22h182h3h14h10zM633 681.809v-444.809
h-309.888z" />
    <glyph glyph-name="Aacute" unicode="&#xc1;" 
d="M466 847c75 55 149 111 223 166h-36c-75 -55 -149 -111 -223 -166h36zM542.453 703.17c71.4048 -142.25 142.47 -284.169 213.402 -426.17h-451.599c79.1968 142.001 158.527 283.92 238.197 426.17zM533 722h-2c-131.861 -233.666 -263.722 -466.391 -394.672 -700
h-182.328v-22h170h26h3h204v22h-194.766c43.0511 77.4082 86.1053 154.719 129.196 232l475.912 -2.84217e-14c38.5927 -77.2806 77.149 -154.592 115.702 -232h-196.044v-22h204h3h26h170v22h-181.136c-118.23 233.609 -235.577 466.334 -353.864 700h-2h-20z" />
    <glyph glyph-name="Abreve" unicode="&#x102;" 
d="M702 968c0 -77 -71 -102 -160 -102c-85 0 -152 28 -152 103h-22c0 -89 73 -124 172 -124c105 0 184 31 184 123h-22zM542.453 703.17c71.4048 -142.25 142.47 -284.169 213.402 -426.17h-451.599c79.1968 142.001 158.527 283.92 238.197 426.17zM533 722h-2
c-131.861 -233.666 -263.722 -466.391 -394.672 -700h-182.328v-22h170h26h3h204v22h-194.766c43.0511 77.4082 86.1053 154.719 129.196 232l475.912 -2.84217e-14c38.5927 -77.2806 77.149 -154.592 115.702 -232h-196.044v-22h204h3h26h170v22h-181.136
c-118.23 233.609 -235.577 466.334 -353.864 700h-2h-20z" />
    <glyph glyph-name="Acircumflex" unicode="&#xc2;" 
d="M787 846c-74 55 -148 111 -223 166h-9h-27h-9c-75 -55 -149 -111 -223 -166h36c70.4393 51.6555 139.996 104.193 209.5 155.956c69.5035 -51.7627 139.061 -104.3 209.5 -155.956h36zM542.453 703.17c71.4048 -142.25 142.47 -284.169 213.402 -426.17h-451.599
c79.1968 142.001 158.527 283.92 238.197 426.17zM533 722h-2c-131.861 -233.666 -263.722 -466.391 -394.672 -700h-182.328v-22h170h26h3h204v22h-194.766c43.0511 77.4082 86.1053 154.719 129.196 232l475.912 -2.84217e-14
c38.5927 -77.2806 77.149 -154.592 115.702 -232h-196.044v-22h204h3h26h170v22h-181.136c-118.23 233.609 -235.577 466.334 -353.864 700h-2h-20z" />
    <glyph glyph-name="Adieresis" unicode="&#xc4;" 
d="M604 855h38c0 -11 -8 -18 -20 -18c-11 0 -18 7 -18 18zM604 855h38c0 11 -8 18 -20 18c-11 0 -18 -7 -18 -18zM442 855h38c0 -11 -8 -18 -20 -18c-11 0 -18 7 -18 18zM442 855h38c0 11 -8 18 -20 18c-11 0 -18 -7 -18 -18zM542.453 703.17
c71.4048 -142.25 142.47 -284.169 213.402 -426.17h-451.599c79.1968 142.001 158.527 283.92 238.197 426.17zM533 722h-2c-131.861 -233.666 -263.722 -466.391 -394.672 -700h-182.328v-22h170h26h3h204v22h-194.766c43.0511 77.4082 86.1053 154.719 129.196 232
l475.912 -2.84217e-14c38.5927 -77.2806 77.149 -154.592 115.702 -232h-196.044v-22h204h3h26h170v22h-181.136c-118.23 233.609 -235.577 466.334 -353.864 700h-2h-20z" />
    <glyph glyph-name="Agrave" unicode="&#xc0;" 
d="M630 846c-74 55 -148 111 -223 166h-36c74 -55 148 -111 223 -166h36zM542.453 703.17c71.4048 -142.25 142.47 -284.169 213.402 -426.17h-451.599c79.1968 142.001 158.527 283.92 238.197 426.17zM533 722h-2c-131.861 -233.666 -263.722 -466.391 -394.672 -700
h-182.328v-22h170h26h3h204v22h-194.766c43.0511 77.4082 86.1053 154.719 129.196 232l475.912 -2.84217e-14c38.5927 -77.2806 77.149 -154.592 115.702 -232h-196.044v-22h204h3h26h170v22h-181.136c-118.23 233.609 -235.577 466.334 -353.864 700h-2h-20z" />
    <glyph glyph-name="Amacron" unicode="&#x100;" 
d="M686 866h-304v-21h304v21zM542.453 703.17c71.4048 -142.25 142.47 -284.169 213.402 -426.17h-451.599c79.1968 142.001 158.527 283.92 238.197 426.17zM533 722h-2c-131.861 -233.666 -263.722 -466.391 -394.672 -700h-182.328v-22h170h26h3h204v22h-194.766
c43.0511 77.4082 86.1053 154.719 129.196 232l475.912 -2.84217e-14c38.5927 -77.2806 77.149 -154.592 115.702 -232h-196.044v-22h204h3h26h170v22h-181.136c-118.23 233.609 -235.577 466.334 -353.864 700h-2h-20z" />
    <glyph glyph-name="Aogonek" unicode="&#x104;" 
d="M542.453 703.17c71.4048 -142.25 142.47 -284.169 213.402 -426.17h-451.599c79.1968 142.001 158.527 283.92 238.197 426.17zM533 722h-2c-131.861 -233.666 -263.722 -466.391 -394.672 -700h-182.328v-22h170h26h3h204v22h-194.766
c43.0511 77.4082 86.1053 154.719 129.196 232l475.912 -2.84217e-14c38.5927 -77.2806 77.149 -154.592 115.702 -232h-196.044v-22h168.809c-52.028 -18.6815 -92.8094 -40.1097 -92.8094 -97c0 -62 48 -95 115 -95c40 0 66 11 102 28l-10 16c-32 -15 -56 -23 -90 -23
c-55 0 -95 24 -95 74c0 63.3943 59.9688 73.2779 121.419 97l13.5809 1.42109e-14h170v22h-181.136c-118.23 233.609 -235.577 466.334 -353.864 700h-2h-20z" />
    <glyph glyph-name="Aring" unicode="&#xc5;" 
d="M415 960c0 65 53 96 124 96c76 0 133 -28 133 -96c0 -66 -56 -95 -130 -95c-72 0 -127 29 -127 95zM393 960c0 -78 64 -116 149 -116c87 0 153 36 153 116c0 81 -67 117 -156 117c-84 0 -146 -38 -146 -117zM542.453 703.17
c71.4048 -142.25 142.47 -284.169 213.402 -426.17h-451.599c79.1968 142.001 158.527 283.92 238.197 426.17zM533 722h-2c-131.861 -233.666 -263.722 -466.391 -394.672 -700h-182.328v-22h170h26h3h204v22h-194.766c43.0511 77.4082 86.1053 154.719 129.196 232
l475.912 -2.84217e-14c38.5927 -77.2806 77.149 -154.592 115.702 -232h-196.044v-22h204h3h26h170v22h-181.136c-118.23 233.609 -235.577 466.334 -353.864 700h-2h-20z" />
    <glyph glyph-name="Atilde" unicode="&#xc3;" 
d="M769 967c-19 -57 -44 -103 -102 -103c-50 0 -84 16 -122 49c-40 34 -72 55 -124 55c-73 0 -115 -46 -134 -119l19 -6c18 63 52 104 115 104c45 0 73 -18 107 -48c43 -36 81 -56 137 -56c69 0 101 52 124 120zM542.453 703.17
c71.4048 -142.25 142.47 -284.169 213.402 -426.17h-451.599c79.1968 142.001 158.527 283.92 238.197 426.17zM533 722h-2c-131.861 -233.666 -263.722 -466.391 -394.672 -700h-182.328v-22h170h26h3h204v22h-194.766c43.0511 77.4082 86.1053 154.719 129.196 232
l475.912 -2.84217e-14c38.5927 -77.2806 77.149 -154.592 115.702 -232h-196.044v-22h204h3h26h170v22h-181.136c-118.23 233.609 -235.577 466.334 -353.864 700h-2h-20z" />
    <glyph glyph-name="B" unicode="B" horiz-adv-x="953" 
d="M286 22v377h199h12c165 0 308 -44 308 -195c0 -131 -106 -182 -252 -182h-267zM286 0h267c161 0 276 59 276 204c0 126.125 -89.6152 185.18 -212.569 206.783c85.302 17.9845 149.569 59.5253 149.569 144.217c0 114 -88 167 -211 167h-269h-7h-15h-3h-182v-22h182v-678
h-183v-22h183h3h13h9zM286 421v279h269c105 0 187 -44 187 -145c0 -108 -124 -134 -245 -134h-12h-199z" />
    <glyph glyph-name="C" unicode="C" horiz-adv-x="984" 
d="M867 655c-93 42 -192 72 -302 72c-258 0 -431 -133 -431 -383c0 -231 162 -349 403 -349c142 0 236 30 355 101l-15 17c-111 -70 -205 -94 -339 -94c-226 0 -380 111 -380 326c0 233 164 359 406 359c101.433 0 195.4 -22.397 281 -61.782v-107.218h22v120z" />
    <glyph glyph-name="Cacute" unicode="&#x106;" horiz-adv-x="984" 
d="M491 847c75 55 149 111 223 166h-36c-75 -55 -149 -111 -223 -166h36zM867 655c-93 42 -192 72 -302 72c-258 0 -431 -133 -431 -383c0 -231 162 -349 403 -349c142 0 236 30 355 101l-15 17c-111 -70 -205 -94 -339 -94c-226 0 -380 111 -380 326c0 233 164 359 406 359
c101.433 0 195.4 -22.397 281 -61.782v-107.218h22v120z" />
    <glyph glyph-name="Ccaron" unicode="&#x10c;" horiz-adv-x="984" 
d="M321 1011c74 -55 148 -111 223 -166h9h27h9c75 55 149 111 223 166h-36c-70.4393 -51.6555 -139.996 -104.193 -209.5 -155.956c-69.5035 51.7627 -139.061 104.3 -209.5 155.956h-36zM867 655c-93 42 -192 72 -302 72c-258 0 -431 -133 -431 -383
c0 -231 162 -349 403 -349c142 0 236 30 355 101l-15 17c-111 -70 -205 -94 -339 -94c-226 0 -380 111 -380 326c0 233 164 359 406 359c101.433 0 195.4 -22.397 281 -61.782v-107.218h22v120z" />
    <glyph glyph-name="Ccedilla" unicode="&#xc7;" horiz-adv-x="984" 
d="M486 -87c22 11 40 13 65 13c43 0 75 -17 75 -57c0 -44 -42 -55 -93 -55c-36 0 -63 2 -96 17l-9 -17c36 -15 65 -21 104 -21c65 0 117 18 117 76c0 52 -41 78 -96 78c-17.5914 0 -32.2847 -1.9321 -47.0036 -5.61358c13.2373 17.8459 26.6179 35.5485 39.5988 53.6508
c137.234 1.19857 229.822 31.4051 346.405 100.963l-15 17c-111 -70 -205 -94 -339 -94c-226 0 -380 111 -380 326c0 233 164 359 406 359c101.433 0 195.4 -22.397 281 -61.782v-107.218h22v120c-93 42 -192 72 -302 72c-258 0 -431 -133 -431 -383
c0 -224.958 153.637 -342.75 384.253 -348.758c-16.0845 -21.4608 -32.1689 -42.528 -48.2534 -64.2421l1.88235 -2z" />
    <glyph glyph-name="D" unicode="D" horiz-adv-x="1098" 
d="M291 722h-10h-15h-184v-22h184v-678h-184v-22h184h15h10h260c260 0 421 106 421 350c0 258 -166 372 -438 372h-243zM291 700h241c258 0 417 -107 417 -350c0 -229 -151 -328 -395 -328h-263v678z" />
    <glyph glyph-name="Dcaron" unicode="&#x10e;" horiz-adv-x="1098" 
d="M261 1010c74 -55 148 -111 223 -166h9h27h9c75 55 149 111 223 166h-36c-70.4393 -51.6555 -139.996 -104.193 -209.5 -155.956c-69.5035 51.7627 -139.061 104.3 -209.5 155.956h-36zM291 722h-10h-15h-184v-22h184v-678h-184v-22h184h15h10h260c260 0 421 106 421 350
c0 258 -166 372 -438 372h-243zM291 700h241c258 0 417 -107 417 -350c0 -229 -151 -328 -395 -328h-263v678z" />
    <glyph glyph-name="Dcroat" unicode="&#x110;" horiz-adv-x="1098" 
d="M291 722h-10h-15h-184v-22h184v-335h-83v-24h83v-319h-184v-22h184h15h10h260c260 0 421 106 421 350c0 258 -166 372 -438 372h-243zM291 700h241c258 0 417 -107 417 -350c0 -229 -151 -328 -395 -328h-263v319h285v24h-285v335z" />
    <glyph glyph-name="E" unicode="E" horiz-adv-x="954" 
d="M289 0h567v11v11v109h-21v-109h-546v341h437v22h-437v315h500v-109h22v109v11v11h-522h-10h-14h-3h-182v-22h182h3v-678h-3h-182v-22h182h3h14h10z" />
    <glyph glyph-name="Eacute" unicode="&#xc9;" horiz-adv-x="954" 
d="M439 847c75 55 149 111 223 166h-36c-75 -55 -149 -111 -223 -166h36zM289 0h567v11v11v109h-21v-109h-546v341h437v22h-437v315h500v-109h22v109v11v11h-522h-10h-14h-3h-182v-22h182h3v-678h-3h-182v-22h182h3h14h10z" />
    <glyph glyph-name="Ecaron" unicode="&#x11a;" horiz-adv-x="954" 
d="M269 1011c74 -55 148 -111 223 -166h9h27h9c75 55 149 111 223 166h-36c-70.4393 -51.6555 -139.996 -104.193 -209.5 -155.956c-69.5035 51.7627 -139.061 104.3 -209.5 155.956h-36zM289 0h567v11v11v109h-21v-109h-546v341h437v22h-437v315h500v-109h22v109v11v11
h-522h-10h-14h-3h-182v-22h182h3v-678h-3h-182v-22h182h3h14h10z" />
    <glyph glyph-name="Ecircumflex" unicode="&#xca;" horiz-adv-x="954" 
d="M760 846c-74 55 -148 111 -223 166h-9h-27h-9c-75 -55 -149 -111 -223 -166h36c70.4393 51.6555 139.996 104.193 209.5 155.956c69.5035 -51.7627 139.061 -104.3 209.5 -155.956h36zM289 0h567v11v11v109h-21v-109h-546v341h437v22h-437v315h500v-109h22v109v11v11
h-522h-10h-14h-3h-182v-22h182h3v-678h-3h-182v-22h182h3h14h10z" />
    <glyph glyph-name="Edieresis" unicode="&#xcb;" horiz-adv-x="954" 
d="M577 855h38c0 -11 -8 -18 -20 -18c-11 0 -18 7 -18 18zM577 855h38c0 11 -8 18 -20 18c-11 0 -18 -7 -18 -18zM415 855h38c0 -11 -8 -18 -20 -18c-11 0 -18 7 -18 18zM415 855h38c0 11 -8 18 -20 18c-11 0 -18 -7 -18 -18zM289 0h567v11v11v109h-21v-109h-546v341h437v22
h-437v315h500v-109h22v109v11v11h-522h-10h-14h-3h-182v-22h182h3v-678h-3h-182v-22h182h3h14h10z" />
    <glyph glyph-name="Edotaccent" unicode="&#x116;" horiz-adv-x="954" 
d="M494 856h38c0 -11 -8 -18 -20 -18c-11 0 -18 7 -18 18zM494 856h38c0 11 -8 18 -20 18c-11 0 -18 -7 -18 -18zM289 0h567v11v11v109h-21v-109h-546v341h437v22h-437v315h500v-109h22v109v11v11h-522h-10h-14h-3h-182v-22h182h3v-678h-3h-182v-22h182h3h14h10z" />
    <glyph glyph-name="Egrave" unicode="&#xc8;" horiz-adv-x="954" 
d="M603 846c-74 55 -148 111 -223 166h-36c74 -55 148 -111 223 -166h36zM289 0h567v11v11v109h-21v-109h-546v341h437v22h-437v315h500v-109h22v109v11v11h-522h-10h-14h-3h-182v-22h182h3v-678h-3h-182v-22h182h3h14h10z" />
    <glyph glyph-name="Emacron" unicode="&#x112;" horiz-adv-x="954" 
d="M659 866h-304v-21h304v21zM289 0h567v11v11v109h-21v-109h-546v341h437v22h-437v315h500v-109h22v109v11v11h-522h-10h-14h-3h-182v-22h182h3v-678h-3h-182v-22h182h3h14h10z" />
    <glyph glyph-name="Eogonek" unicode="&#x118;" horiz-adv-x="948" 
d="M784.316 0c-49.3769 -18.2465 -87.3161 -40.1279 -87.3161 -95c0 -62 48 -95 115 -95c40 0 66 11 102 28l-10 16c-32 -15 -56 -23 -90 -23c-55 0 -95 24 -95 74c0 61.5839 56.5927 72.6698 116.16 95h20.8404v11v11v109h-21v-109h-546v341h437v22h-437v315h500v-109h22
v109v11v11h-522h-10h-14h-3h-182v-22h182h3v-678h-3h-182v-22h182h3h14h10h495.316z" />
    <glyph glyph-name="Eth" unicode="&#xd0;" horiz-adv-x="1098" 
d="M291 722h-10h-15h-184v-22h184v-335h-83v-24h83v-319h-184v-22h184h15h10h260c260 0 421 106 421 350c0 258 -166 372 -438 372h-243zM291 700h241c258 0 417 -107 417 -350c0 -229 -151 -328 -395 -328h-263v319h285v24h-285v335z" />
    <glyph glyph-name="Euro" unicode="&#x20ac;" horiz-adv-x="1130" 
d="M975 655c-93 42 -192 72 -302 72c-220.319 0 -378.654 -96.9879 -420.204 -281h-144.796v-23h140.29c-4.1533 -24.8734 -6.29036 -51.214 -6.29036 -79c0 -24.6188 1.84003 -47.9542 5.41963 -70h-139.42v-23h143.887c38.5542 -169.623 186.919 -256 393.113 -256
c142 0 236 30 355 101l-15 17c-111 -70 -205 -94 -339 -94c-190.331 0 -329.595 78.7271 -368.814 232h378.814v23h-383.84c-4.06294 22.2434 -6.15954 45.9137 -6.15954 71c0 27.501 2.28471 53.5115 6.71271 78h383.287v23h-378.393
c41.3644 168.189 190.08 258 394.393 258c101.433 0 195.4 -22.397 281 -61.782v-107.218h22v120z" />
    <glyph glyph-name="F" unicode="F" horiz-adv-x="920" 
d="M291 700h505v-109h22v109v11v11h-527h-12h-12h-3h-184v-22h184h3v-678h-187v-22h187h12h12h187v22h-187v341h428v22h-428v315z" />
    <glyph glyph-name="G" unicode="G" horiz-adv-x="1103" 
d="M941 88.784c-124.074 -51.708 -219.641 -68.784 -356 -68.784c-254 0 -432 109 -432 347c0 228 173 337 417 337c129.665 0 232.716 -21.8609 349 -75.7758v-106.224h21v120c-124 61 -233 85 -371 85c-260 0 -440 -116 -440 -362c0 -253 187 -370 455 -370
c148 0 244 24 379 82v242h-9h-13h-284v-22h284v-208.216z" />
    <glyph glyph-name="Gbreve" unicode="&#x11e;" horiz-adv-x="1103" 
d="M734 968c0 -77 -71 -102 -160 -102c-85 0 -152 28 -152 103h-22c0 -89 73 -124 172 -124c104 0 184 31 184 123h-22zM941 88.784c-124.074 -51.708 -219.641 -68.784 -356 -68.784c-254 0 -432 109 -432 347c0 228 173 337 417 337
c129.665 0 232.716 -21.8609 349 -75.7758v-106.224h21v120c-124 61 -233 85 -371 85c-260 0 -440 -116 -440 -362c0 -253 187 -370 455 -370c148 0 244 24 379 82v242h-9h-13h-284v-22h284v-208.216z" />
    <glyph glyph-name="Gcommaaccent" unicode="&#x122;" horiz-adv-x="1103" 
d="M486 -318l148 181h-33l-141 -181h26zM941 88.784c-124.074 -51.708 -219.641 -68.784 -356 -68.784c-254 0 -432 109 -432 347c0 228 173 337 417 337c129.665 0 232.716 -21.8609 349 -75.7758v-106.224h21v120c-124 61 -233 85 -371 85c-260 0 -440 -116 -440 -362
c0 -253 187 -370 455 -370c148 0 244 24 379 82v242h-9h-13h-284v-22h284v-208.216z" />
    <glyph glyph-name="H" unicode="H" horiz-adv-x="1239" 
d="M949 352v-330h-186v-22h199h199v22h-188v678h188v22h-199h-199v-22h186v-326h-658v326h187v22h-187h-12h-12h-187v-22h187v-678h-187v-22h187h12h12h187v22h-187v330h658z" />
    <glyph glyph-name="I" unicode="I" horiz-adv-x="556" 
d="M265 0h14h10h189v22h-189v678h189v22h-189h-10h-14h-185v-22h185v-678h-185v-22h185z" />
    <glyph glyph-name="Iacute" unicode="&#xcd;" horiz-adv-x="556" 
d="M203 847c75 55 149 111 223 166h-36c-75 -55 -149 -111 -223 -166h36zM265 0h14h10h189v22h-189v678h189v22h-189h-10h-14h-185v-22h185v-678h-185v-22h185z" />
    <glyph glyph-name="Icircumflex" unicode="&#xce;" horiz-adv-x="638" 
d="M569 846c-74 55 -148 111 -223 166h-8h-28h-9c-75 -55 -149 -111 -223 -166h37c69.3646 51.5548 138.729 103.988 208.917 155.653c69.4747 -51.6649 139.718 -104.098 209.083 -155.653h36zM310 0h14h10h189v22h-189v678h189v22h-189h-10h-14h-185v-22h185v-678h-185
v-22h185z" />
    <glyph glyph-name="Idieresis" unicode="&#xcf;" horiz-adv-x="556" 
d="M341 855h38c0 -11 -8 -18 -20 -18c-11 0 -18 7 -18 18zM341 855h38c0 11 -8 18 -20 18c-11 0 -18 -7 -18 -18zM179 855h38c0 -11 -8 -18 -20 -18c-11 0 -18 7 -18 18zM179 855h38c0 11 -8 18 -20 18c-11 0 -18 -7 -18 -18zM265 0h14h10h189v22h-189v678h189v22h-189h-10
h-14h-185v-22h185v-678h-185v-22h185z" />
    <glyph glyph-name="Idotaccent" unicode="&#x130;" horiz-adv-x="556" 
d="M258 856h38c0 -11 -8 -18 -20 -18c-11 0 -18 7 -18 18zM258 856h38c0 11 -8 18 -20 18c-11 0 -18 -7 -18 -18zM265 0h14h10h189v22h-189v678h189v22h-189h-10h-14h-185v-22h185v-678h-185v-22h185z" />
    <glyph glyph-name="Igrave" unicode="&#xcc;" horiz-adv-x="556" 
d="M367 846c-74 55 -148 111 -223 166h-36c74 -55 148 -111 223 -166h36zM265 0h14h10h189v22h-189v678h189v22h-189h-10h-14h-185v-22h185v-678h-185v-22h185z" />
    <glyph glyph-name="Imacron" unicode="&#x12a;" horiz-adv-x="556" 
d="M423 866h-304v-21h304v21zM265 0h14h10h189v22h-189v678h189v22h-189h-10h-14h-185v-22h185v-678h-185v-22h185z" />
    <glyph glyph-name="Iogonek" unicode="&#x12e;" horiz-adv-x="556" 
d="M219.993 0c-46.7543 -17.8762 -81.9928 -40.117 -81.9928 -93c0 -62 48 -95 115 -95c40 0 66 11 102 28l-10 16c-32 -15 -56 -23 -90 -23c-55 0 -95 24 -95 74c0 59.7185 53.2161 71.9518 110.756 93h8.24381h10h189v22h-189v678h189v22h-189h-10h-14h-185v-22h185v-678
h-185v-22h139.993z" />
    <glyph glyph-name="J" unicode="J" horiz-adv-x="703" 
d="M62 43c38 -20 92 -43 157 -43c150 0 246 75 246 219v481h188v22h-188h-11h-14h-185v-22h185v-481c0 -129 -87 -197 -221 -197c-58 0 -97 17 -146 38z" />
    <glyph glyph-name="K" unicode="K" horiz-adv-x="1072" 
d="M292 371.405c176.657 -116.757 354.93 -232.707 531.706 -349.405h-169.706v-22h197l0.340273 3.74301c0.553259 -0.365827 1.1065 -0.731663 1.65973 -1.09751v-2.6455h4h45h150v22h-184.017c-183.661 118.88 -367.322 239.327 -550.983 358
c172.164 106.667 344.327 213.333 517.31 320h186.69v22h-151h-44h-4h-199v-22h167.865c-166.069 -103.953 -332.863 -207.905 -498.865 -311.858l5.68434e-14 311.858h187v22h-187h-13h-12h-187v-22h187v-678h-187v-22h187h12h13h187v22h-187v349.405z" />
    <glyph glyph-name="Kcommaaccent" unicode="&#x136;" horiz-adv-x="1072" 
d="M504 -318l148 181h-33l-141 -181h26zM292 371.405c176.657 -116.757 354.93 -232.707 531.706 -349.405h-169.706v-22h197l0.340273 3.74301c0.553259 -0.365827 1.1065 -0.731663 1.65973 -1.09751v-2.6455h4h45h150v22h-184.017
c-183.661 118.88 -367.322 239.327 -550.983 358c172.164 106.667 344.327 213.333 517.31 320h186.69v22h-151h-44h-4h-199v-22h167.865c-166.069 -103.953 -332.863 -207.905 -498.865 -311.858l5.68434e-14 311.858h187v22h-187h-13h-12h-187v-22h187v-678h-187v-22h187
h12h13h187v22h-187v349.405z" />
    <glyph glyph-name="L" unicode="L" horiz-adv-x="927" 
d="M291 0h556v11v11v109h-22v-109h-534v678h185v22h-185h-14h-11h-188v-22h188v-678h-188v-22h188h11h14z" />
    <glyph glyph-name="Lacute" unicode="&#x139;" horiz-adv-x="927" 
d="M204 846c75 55 149 111 223 166h-36c-75 -55 -149 -111 -223 -166h36zM291 0h556v11v11v109h-22v-109h-534v678h185v22h-185h-14h-11h-188v-22h188v-678h-188v-22h188h11h14z" />
    <glyph glyph-name="Lcaron" unicode="&#x13d;" horiz-adv-x="877" 
d="M624 541l148 181h-33l-141 -181h26zM291 0h556v11v11v109h-22v-109h-534v678h185v22h-185h-14h-11h-188v-22h188v-678h-188v-22h188h11h14z" />
    <glyph glyph-name="Lcommaaccent" unicode="&#x13b;" horiz-adv-x="927" 
d="M420 -318l148 181h-33l-141 -181h26zM291 0h556v11v11v109h-22v-109h-534v678h185v22h-185h-14h-11h-188v-22h188v-678h-188v-22h188h11h14z" />
    <glyph glyph-name="Lslash" unicode="&#x141;" horiz-adv-x="927" 
d="M291 0h556v11v11v109h-22v-109h-534v266.718l254 213.282v24l-254 -213.282v387.282h185v22h-185h-14h-11h-188v-22h188v-408.275l-114 -95.7252v-24l114 95.7252v-245.725h-188v-22h188h11h14z" />
    <glyph glyph-name="M" unicode="M" horiz-adv-x="1430" 
d="M707 0h17h10c118.799 230.892 237.598 460.866 356.397 691.681c25.0459 -223.483 50.0917 -446.178 75.1376 -669.681h-183.535v-22h186h13h11h188v22h-190.556c-26.2949 226.276 -52.563 451.724 -77.9759 678h186.532v22h-189h-3h-7h-12h-5
c-124.121 -235.537 -244.421 -470.119 -366.502 -705.612c-122.212 235.494 -245.422 470.075 -371.498 705.612h-5h-8h-11h-3h-185v-22h182.624c-24.4729 -226.276 -49.7742 -451.724 -74.2471 -678h-188.376v-22h186h13h11h188v22h-185.629
c24.0704 223.567 47.3322 446.325 71.3832 669.872c120.749 -230.879 241.497 -460.916 362.246 -691.872h9z" />
    <glyph glyph-name="N" unicode="N" horiz-adv-x="1255" 
d="M996 0h24h1v700h188v22h-188h-11h-14h-185v-22h185v-676.003c-232.999 232.938 -465.967 465.003 -698 698.003h-6h-11h-14h-3h-182v-22h185v-678h-186l-1 -22h187h13h12h187v22h-187v672.004c231.667 -231.595 463.333 -462.338 695 -694.004h9z" />
    <glyph glyph-name="Nacute" unicode="&#x143;" horiz-adv-x="1255" 
d="M559 847c75 55 149 111 223 166h-36c-75 -55 -149 -111 -223 -166h36zM996 0h24h1v700h188v22h-188h-11h-14h-185v-22h185v-676.003c-232.999 232.938 -465.967 465.003 -698 698.003h-6h-11h-14h-3h-182v-22h185v-678h-186l-1 -22h187h13h12h187v22h-187v672.004
c231.667 -231.595 463.333 -462.338 695 -694.004h9z" />
    <glyph glyph-name="Ncaron" unicode="&#x147;" horiz-adv-x="1255" 
d="M389 1011c74 -55 148 -111 223 -166h9h27h9c75 55 149 111 223 166h-36c-70.4393 -51.6555 -139.996 -104.193 -209.5 -155.956c-69.5035 51.7627 -139.061 104.3 -209.5 155.956h-36zM996 0h24h1v700h188v22h-188h-11h-14h-185v-22h185v-676.003
c-232.999 232.938 -465.967 465.003 -698 698.003h-6h-11h-14h-3h-182v-22h185v-678h-186l-1 -22h187h13h12h187v22h-187v672.004c231.667 -231.595 463.333 -462.338 695 -694.004h9z" />
    <glyph glyph-name="Ncommaaccent" unicode="&#x145;" horiz-adv-x="1255" 
d="M556 -318l148 181h-33l-141 -181h26zM996 0h24h1v700h188v22h-188h-11h-14h-185v-22h185v-676.003c-232.999 232.938 -465.967 465.003 -698 698.003h-6h-11h-14h-3h-182v-22h185v-678h-186l-1 -22h187h13h12h187v22h-187v672.004
c231.667 -231.595 463.333 -462.338 695 -694.004h9z" />
    <glyph glyph-name="Ntilde" unicode="&#xd1;" horiz-adv-x="1255" 
d="M862 967c-19 -57 -44 -103 -102 -103c-50 0 -84 16 -122 49c-40 34 -72 55 -124 55c-73 0 -115 -46 -134 -119l19 -6c18 63 52 104 115 104c45 0 73 -18 107 -48c43 -36 81 -56 137 -56c69 0 101 52 124 120zM996 0h24h1v700h188v22h-188h-11h-14h-185v-22h185v-676.003
c-232.999 232.938 -465.967 465.003 -698 698.003h-6h-11h-14h-3h-182v-22h185v-678h-186l-1 -22h187h13h12h187v22h-187v672.004c231.667 -231.595 463.333 -462.338 695 -694.004h9z" />
    <glyph glyph-name="O" unicode="O" horiz-adv-x="1073" 
d="M134 360c0 -231 164 -365 402 -365c239 0 403 136 403 368c0 230 -165 364 -403 364c-239 0 -402 -136 -402 -367zM158 360c0 216 154 345 377 345c224 0 379 -127 379 -342c0 -216 -153 -345 -376 -345c-225 0 -380 126 -380 342z" />
    <glyph glyph-name="OE" unicode="&#x152;" horiz-adv-x="1419" 
d="M754 0h567v11v11v109h-21v-109h-546v341h437v22h-437v315h500v-109h22v109v11v11h-522h-10h-14h-3h-101.918c-19.3132 0.89968 -39.5942 1 -62.0822 1c-257 0 -431 -132 -431 -379c0 -227 164 -345 403 -345c20.5407 0 39.4095 0.257231 57.389 1l134.611 1.66533e-16h3
h14h10zM730 679.984v-636.486c-69.4353 -20.498 -120.747 -20.498 -194 -20.498c-218 0 -380 109 -380 322c0 232 168 354 406 354c9.57143 0 18.7347 0.0408163 27.5918 0.0408163c50.4488 0 90.9663 -1.32419 140.408 -19.0572z" />
    <glyph glyph-name="Oacute" unicode="&#xd3;" horiz-adv-x="1073" 
d="M462 847c74 55 149 111 223 166h-36c-75 -55 -149 -111 -223 -166h36zM134 360c0 -231 164 -365 402 -365c239 0 403 136 403 368c0 230 -165 364 -403 364c-239 0 -402 -136 -402 -367zM158 360c0 216 154 345 377 345c224 0 379 -127 379 -342
c0 -216 -153 -345 -376 -345c-225 0 -380 126 -380 342z" />
    <glyph glyph-name="Ocircumflex" unicode="&#xd4;" horiz-adv-x="1073" 
d="M783 846c-74 55 -148 111 -223 166h-9h-27h-9c-75 -55 -149 -111 -223 -166h36c69.5018 51.6567 139.886 104.196 209.495 155.96c69.5018 -51.764 139.004 -104.303 208.505 -155.96h37zM134 360c0 -231 164 -365 402 -365c239 0 403 136 403 368
c0 230 -165 364 -403 364c-239 0 -402 -136 -402 -367zM158 360c0 216 154 345 377 345c224 0 379 -127 379 -342c0 -216 -153 -345 -376 -345c-225 0 -380 126 -380 342z" />
    <glyph glyph-name="Odieresis" unicode="&#xd6;" horiz-adv-x="1073" 
d="M600 855h38c0 -11 -8 -18 -20 -18c-11 0 -18 7 -18 18zM600 855h38c0 11 -8 18 -20 18c-11 0 -18 -7 -18 -18zM438 855h38c0 -11 -8 -18 -20 -18c-11 0 -18 7 -18 18zM438 855h38c0 11 -8 18 -20 18c-11 0 -18 -7 -18 -18zM134 360c0 -231 164 -365 402 -365
c239 0 403 136 403 368c0 230 -165 364 -403 364c-239 0 -402 -136 -402 -367zM158 360c0 216 154 345 377 345c224 0 379 -127 379 -342c0 -216 -153 -345 -376 -345c-225 0 -380 126 -380 342z" />
    <glyph glyph-name="Ograve" unicode="&#xd2;" horiz-adv-x="1073" 
d="M626 846c-74 55 -148 111 -223 166h-36c74 -55 148 -111 222 -166h37zM134 360c0 -231 164 -365 402 -365c239 0 403 136 403 368c0 230 -165 364 -403 364c-239 0 -402 -136 -402 -367zM158 360c0 216 154 345 377 345c224 0 379 -127 379 -342
c0 -216 -153 -345 -376 -345c-225 0 -380 126 -380 342z" />
    <glyph glyph-name="Ohungarumlaut" unicode="&#x150;" horiz-adv-x="1073" 
d="M586 781l148 181h-33l-141 -181h26zM422 781l148 181h-33l-141 -181h26zM134 360c0 -231 164 -365 402 -365c239 0 403 136 403 368c0 230 -165 364 -403 364c-239 0 -402 -136 -402 -367zM158 360c0 216 154 345 377 345c224 0 379 -127 379 -342
c0 -216 -153 -345 -376 -345c-225 0 -380 126 -380 342z" />
    <glyph glyph-name="Omacron" unicode="&#x14c;" horiz-adv-x="1073" 
d="M681 866h-303v-21h303v21zM134 360c0 -231 164 -365 402 -365c239 0 403 136 403 368c0 230 -165 364 -403 364c-239 0 -402 -136 -402 -367zM158 360c0 216 154 345 377 345c224 0 379 -127 379 -342c0 -216 -153 -345 -376 -345c-225 0 -380 126 -380 342z" />
    <glyph glyph-name="Oslash" unicode="&#xd8;" horiz-adv-x="1073" 
d="M134 360c0 -150.922 70.0042 -260.439 184.913 -318.232l-72.9131 -107.768l19 -13l74.9177 110.994c56.6037 -24.3032 122.839 -36.994 196.082 -36.994c239 0 403 136 403 368c0 142.402 -63.2502 248.004 -167.916 307.788l62.9156 93.2124l-19 11l-63.4715 -93.8129
c-60.7654 30.0299 -133.848 45.8129 -215.528 45.8129c-239 0 -402 -136 -402 -367zM158 360c0 216 154 345 377 345c77.0688 0 145.97 -15.0337 203.2 -43.5126l-405.59 -599.476c-108.517 54.2707 -174.61 156.941 -174.61 297.988zM757.721 650.989
c97.4898 -56.5461 156.279 -155.579 156.279 -287.989c0 -216 -153 -345 -376 -345c-68.8108 0 -131.075 11.7847 -184.36 34.3244z" />
    <glyph glyph-name="Otilde" unicode="&#xd5;" horiz-adv-x="1073" 
d="M765 967c-19 -57 -44 -103 -102 -103c-50 0 -84 16 -122 49c-40 34 -72 55 -124 55c-73 0 -115 -46 -134 -119l19 -6c18 63 52 104 115 104c45 0 73 -18 107 -48c43 -36 81 -56 136 -56c70 0 102 52 125 120zM134 360c0 -231 164 -365 402 -365c239 0 403 136 403 368
c0 230 -165 364 -403 364c-239 0 -402 -136 -402 -367zM158 360c0 216 154 345 377 345c224 0 379 -127 379 -342c0 -216 -153 -345 -376 -345c-225 0 -380 126 -380 342z" />
    <glyph glyph-name="P" unicode="P" horiz-adv-x="896" 
d="M292 344.065v355.935h162c167 0 303 -58 303 -207c0 -133 -118 -191 -264 -191c-76.1852 0 -131.382 15.2641 -201 42.0652zM285 722h-4h-14h-185v-22h185v-678h-185v-22h185h14h11h188v22h-188v299.121c65.9023 -24.3819 126.665 -41.1209 198 -41.1209
c163 3 292 67 292 214c0 160 -146 228 -325 228h-165h-7z" />
    <glyph glyph-name="Q" unicode="Q" horiz-adv-x="1088" 
d="M134 360c0 -231 167 -365 406 -365c1.89966 0 3.7946 0.00872807 5.68479 0.0261628c145.236 -192.348 305.902 -235.026 539.315 -235.026v23c-218.337 0 -371.341 37.3336 -510.408 212.991c219.154 12.725 367.408 147.428 367.408 368.009c0 230 -165 363 -403 363
c-239 0 -405 -136 -405 -367zM159 360c0 216 155 343 379 343s379 -125 379 -340c0 -216 -153 -344 -376 -344c-226 0 -382 125 -382 341z" />
    <glyph glyph-name="R" unicode="R" horiz-adv-x="1125" 
d="M281 722h-4h-11h-188v-22h188v-678h-188v-22h188h11h14h185v22h-185v318h220c14.5192 0 28.7133 0.370379 42.5292 1.14399l332.471 -341.144h32h166v22h-187.616c-105.211 107.136 -209.649 214.273 -314.062 321.409c129.787 13.3366 219.678 67.58 219.678 193.591
c0 142 -121 185 -281 185h-230h-10zM291 700h226c148 0 261 -36 261 -165c0 -132 -115 -173 -264 -173h-223v338z" />
    <glyph glyph-name="Racute" unicode="&#x154;" horiz-adv-x="1125" 
d="M415 847c75 55 149 111 223 166h-36c-75 -55 -149 -111 -223 -166h36zM281 722h-4h-11h-188v-22h188v-678h-188v-22h188h11h14h185v22h-185v318h220c14.5192 0 28.7133 0.370379 42.5292 1.14399l332.471 -341.144h32h166v22h-187.616
c-105.211 107.136 -209.649 214.273 -314.062 321.409c129.787 13.3366 219.678 67.58 219.678 193.591c0 142 -121 185 -281 185h-230h-10zM291 700h226c148 0 261 -36 261 -165c0 -132 -115 -173 -264 -173h-223v338z" />
    <glyph glyph-name="Rcaron" unicode="&#x158;" horiz-adv-x="1125" 
d="M245 1011c74 -55 148 -111 223 -166h9h27h9c75 55 149 111 223 166h-36c-70.4393 -51.6555 -139.996 -104.193 -209.5 -155.956c-69.5035 51.7627 -139.061 104.3 -209.5 155.956h-36zM281 722h-4h-11h-188v-22h188v-678h-188v-22h188h11h14h185v22h-185v318h220
c14.5192 0 28.7133 0.370379 42.5292 1.14399l332.471 -341.144h32h166v22h-187.616c-105.211 107.136 -209.649 214.273 -314.062 321.409c129.787 13.3366 219.678 67.58 219.678 193.591c0 142 -121 185 -281 185h-230h-10zM291 700h226c148 0 261 -36 261 -165
c0 -132 -115 -173 -264 -173h-223v338z" />
    <glyph glyph-name="Rcommaaccent" unicode="&#x156;" horiz-adv-x="1125" 
d="M472 -318l148 181h-33l-141 -181h26zM281 722h-4h-11h-188v-22h188v-678h-188v-22h188h11h14h185v22h-185v318h220c14.5192 0 28.7133 0.370379 42.5292 1.14399l332.471 -341.144h32h166v22h-187.616c-105.211 107.136 -209.649 214.273 -314.062 321.409
c129.787 13.3366 219.678 67.58 219.678 193.591c0 142 -121 185 -281 185h-230h-10zM291 700h226c148 0 261 -36 261 -165c0 -132 -115 -173 -264 -173h-223v338z" />
    <glyph glyph-name="S" unicode="S" horiz-adv-x="848" 
d="M140 58c90 -42 183 -63 281 -63c161 0 283 35 283 174c0 135 -130 165 -264 213c-119 42 -241 65 -241 181c0 103 104 143 224 143c89.9611 0 157.94 -20.1501 239 -55.1909v-107.809h22v120c-89 40 -162 64 -260 64c-135 0 -249 -48 -249 -165c0 -128 125 -155 251 -200
c127 -44 254 -72 254 -193c0 -123 -112 -150 -258 -150c-90.7249 0 -176.792 19.5622 -260 55.0902v103.91h-22v-120z" />
    <glyph glyph-name="Sacute" unicode="&#x15a;" horiz-adv-x="848" 
d="M351 847c75 55 149 111 223 166h-36c-75 -55 -149 -111 -223 -166h36zM140 58c90 -42 183 -63 281 -63c161 0 283 35 283 174c0 135 -130 165 -264 213c-119 42 -241 65 -241 181c0 103 104 143 224 143c89.9611 0 157.94 -20.1501 239 -55.1909v-107.809h22v120
c-89 40 -162 64 -260 64c-135 0 -249 -48 -249 -165c0 -128 125 -155 251 -200c127 -44 254 -72 254 -193c0 -123 -112 -150 -258 -150c-90.7249 0 -176.792 19.5622 -260 55.0902v103.91h-22v-120z" />
    <glyph glyph-name="Scaron" unicode="&#x160;" horiz-adv-x="848" 
d="M181 1011c74 -55 148 -111 223 -166h9h27h9c75 55 149 111 223 166h-36c-70.4393 -51.6555 -139.996 -104.193 -209.5 -155.956c-69.5035 51.7627 -139.061 104.3 -209.5 155.956h-36zM140 58c90 -42 183 -63 281 -63c161 0 283 35 283 174c0 135 -130 165 -264 213
c-119 42 -241 65 -241 181c0 103 104 143 224 143c89.9611 0 157.94 -20.1501 239 -55.1909v-107.809h22v120c-89 40 -162 64 -260 64c-135 0 -249 -48 -249 -165c0 -128 125 -155 251 -200c127 -44 254 -72 254 -193c0 -123 -112 -150 -258 -150
c-90.7249 0 -176.792 19.5622 -260 55.0902v103.91h-22v-120z" />
    <glyph glyph-name="Scedilla" unicode="&#x15e;" horiz-adv-x="848" 
d="M343 -88c22 11 40 13 65 13c43 0 75 -17 75 -57c0 -44 -42 -55 -93 -55c-36 0 -63 2 -96 17l-9 -17c36 -15 65 -21 104 -21c65 0 117 18 117 76c0 52 -41 78 -96 78c-17.5914 0 -32.2847 -1.9321 -47.0036 -5.61358c13.5269 18.2364 27.2035 36.323 40.4503 54.8395
c5.83346 -0.15063 11.6844 -0.225944 17.5533 -0.225944c161 0 283 35 283 174c0 135 -130 165 -264 213c-119 42 -241 65 -241 181c0 103 104 143 224 143c89.9611 0 157.94 -20.1501 239 -55.1909v-107.809h22v120c-89 40 -162 64 -260 64c-135 0 -249 -48 -249 -165
c0 -128 125 -155 251 -200c127 -44 254 -72 254 -193c0 -123 -112 -150 -258 -150c-90.7249 0 -176.792 19.5622 -260 55.0902v103.91h-22v-120c76.3969 -35.6519 154.956 -56.1722 236.899 -61.5608c-16.633 -22.2217 -33.266 -43.9846 -49.8991 -66.4392l1.88235 -2z" />
    <glyph glyph-name="Scommaaccent" unicode="&#x218;" horiz-adv-x="848" 
d="M303 -323l148 181h-33l-141 -181h26zM140 58c90 -42 183 -63 281 -63c161 0 283 35 283 174c0 135 -130 165 -264 213c-119 42 -241 65 -241 181c0 103 104 143 224 143c89.9611 0 157.94 -20.1501 239 -55.1909v-107.809h22v120c-89 40 -162 64 -260 64
c-135 0 -249 -48 -249 -165c0 -128 125 -155 251 -200c127 -44 254 -72 254 -193c0 -123 -112 -150 -258 -150c-90.7249 0 -176.792 19.5622 -260 55.0902v103.91h-22v-120z" />
    <glyph glyph-name="T" unicode="T" horiz-adv-x="1029" 
d="M503 698v-676h-188v-22h188h11h13h186v22h-186v676h385v-108h21v108v12v12h-837v-12v-12v-108h22v108h385z" />
    <glyph glyph-name="Tcaron" unicode="&#x164;" horiz-adv-x="1029" 
d="M266 1010c74 -55 148 -111 223 -166h9h27h9c75 55 149 111 223 166h-36c-69.5018 -51.6567 -139.886 -104.196 -209.495 -155.96c-69.5018 51.764 -139.004 104.303 -208.505 155.96h-37zM503 698v-676h-188v-22h188h11h13h186v22h-186v676h385v-108h21v108v12v12h-837
v-12v-12v-108h22v108h385z" />
    <glyph glyph-name="Tcedilla" horiz-adv-x="1029" 
d="M470 -89c22 11 40 13 64 13c43 0 75 -17 75 -57c0 -44 -42 -55 -93 -55c-36 0 -63 2 -95 17l-10 -17c36 -15 65 -21 104 -21c65 0 118 18 118 76c0 52 -41 78 -97 78c-17.5608 0 -31.9126 -1.92537 -46.5092 -5.59433c13.7889 18.4839 27.4241 36.8142 41.5092 55.5943
l-6.42857 5h2.42857h186v22h-186v676h385v-108h21v108v12v12h-837v-12v-12v-108h22v108h385v-676h-188v-22h188h3.30774c-17.7692 -23.8124 -35.5385 -47.0115 -53.3077 -71l16 -17c0.0086958 0.0115944 0.0173914 0.0231886 0.0260869 0.0347827z" />
    <glyph glyph-name="Tcommaaccent" unicode="&#x162;" horiz-adv-x="1029" 
d="M429 -324l148 181h-33l-141 -181h26zM503 698v-676h-188v-22h188h11h13h186v22h-186v676h385v-108h21v108v12v12h-837v-12v-12v-108h22v108h385z" />
    <glyph glyph-name="Thorn" unicode="&#xde;" horiz-adv-x="890" 
d="M292 700h188v22h-188h-11h-14h-185v-22h185v-678h-185v-22h185h14h11h188v22h-188v196.121c65.9023 -24.3819 126.665 -41.1209 198 -41.1209c163 3 292 67 292 214c0 160 -146 228 -325 228h-165v81zM292 241.065v355.935h162c167 0 303 -58 303 -207
c0 -133 -118 -191 -264 -191c-76.1852 0 -131.382 15.2641 -201 42.0652z" />
    <glyph glyph-name="U" unicode="U" horiz-adv-x="1175" 
d="M259 700h191v22h-199h-199v-22h184v-429c0 -203 134 -276 354 -276c216 0 348 70 348 268v437h187v22h-199h-199v-22h188v-441c0 -175 -124 -240 -323 -240c-207 0 -333 66 -333 256v425z" />
    <glyph glyph-name="Uacute" unicode="&#xda;" horiz-adv-x="1175" 
d="M510 847c75 55 149 111 223 166h-36c-75 -55 -149 -111 -223 -166h36zM259 700h191v22h-199h-199v-22h184v-429c0 -203 134 -276 354 -276c216 0 348 70 348 268v437h187v22h-199h-199v-22h188v-441c0 -175 -124 -240 -323 -240c-207 0 -333 66 -333 256v425z" />
    <glyph glyph-name="Ucircumflex" unicode="&#xdb;" horiz-adv-x="1175" 
d="M831 846c-74 55 -148 111 -223 166h-9h-27h-9c-75 -55 -149 -111 -223 -166h36c70.4393 51.6555 139.996 104.193 209.5 155.956c69.5035 -51.7627 139.061 -104.3 209.5 -155.956h36zM259 700h191v22h-199h-199v-22h184v-429c0 -203 134 -276 354 -276
c216 0 348 70 348 268v437h187v22h-199h-199v-22h188v-441c0 -175 -124 -240 -323 -240c-207 0 -333 66 -333 256v425z" />
    <glyph glyph-name="Udieresis" unicode="&#xdc;" horiz-adv-x="1175" 
d="M648 855h38c0 -11 -8 -18 -20 -18c-11 0 -18 7 -18 18zM648 855h38c0 11 -8 18 -20 18c-11 0 -18 -7 -18 -18zM486 855h38c0 -11 -8 -18 -20 -18c-11 0 -18 7 -18 18zM486 855h38c0 11 -8 18 -20 18c-11 0 -18 -7 -18 -18zM259 700h191v22h-199h-199v-22h184v-429
c0 -203 134 -276 354 -276c216 0 348 70 348 268v437h187v22h-199h-199v-22h188v-441c0 -175 -124 -240 -323 -240c-207 0 -333 66 -333 256v425z" />
    <glyph glyph-name="Ugrave" unicode="&#xd9;" horiz-adv-x="1175" 
d="M674 846c-74 55 -148 111 -223 166h-36c74 -55 148 -111 223 -166h36zM259 700h191v22h-199h-199v-22h184v-429c0 -203 134 -276 354 -276c216 0 348 70 348 268v437h187v22h-199h-199v-22h188v-441c0 -175 -124 -240 -323 -240c-207 0 -333 66 -333 256v425z" />
    <glyph glyph-name="Uhungarumlaut" unicode="&#x170;" horiz-adv-x="1175" 
d="M634 781l148 181h-33l-141 -181h26zM470 781l148 181h-33l-141 -181h26zM259 700h191v22h-199h-199v-22h184v-429c0 -203 134 -276 354 -276c216 0 348 70 348 268v437h187v22h-199h-199v-22h188v-441c0 -175 -124 -240 -323 -240c-207 0 -333 66 -333 256v425z" />
    <glyph glyph-name="Umacron" unicode="&#x16a;" horiz-adv-x="1175" 
d="M730 866h-304v-21h304v21zM259 700h191v22h-199h-199v-22h184v-429c0 -203 134 -276 354 -276c216 0 348 70 348 268v437h187v22h-199h-199v-22h188v-441c0 -175 -124 -240 -323 -240c-207 0 -333 66 -333 256v425z" />
    <glyph glyph-name="Uogonek" unicode="&#x172;" horiz-adv-x="1175" 
d="M532.803 -3.18978c-49.1265 -18.2087 -86.8033 -40.1282 -86.8033 -94.8102c0 -62 48 -95 115 -95c40 0 66 11 102 28l-10 16c-32 -15 -56 -23 -90 -23c-55 0 -95 24 -95 74c0 59.7778 53.3218 71.9761 110.928 93.0627
c3.66611 -0.0419152 7.35697 -0.0627355 11.0724 -0.0627353c216 0 348 70 348 268v437h187v22h-199h-199v-22h188v-441c0 -175 -124 -240 -323 -240c-207 0 -333 66 -333 256v425h191v22h-199h-199v-22h184v-429c0 -184.756 110.997 -261.829 296.803 -274.19z" />
    <glyph glyph-name="Uring" unicode="&#x16e;" horiz-adv-x="1175" 
d="M459 960c0 65 53 96 124 96c76 0 133 -28 133 -96c0 -66 -56 -95 -130 -95c-72 0 -127 29 -127 95zM437 960c0 -78 64 -116 149 -116c87 0 153 36 153 116c0 81 -67 117 -156 117c-84 0 -146 -38 -146 -117zM259 700h191v22h-199h-199v-22h184v-429
c0 -203 134 -276 354 -276c216 0 348 70 348 268v437h187v22h-199h-199v-22h188v-441c0 -175 -124 -240 -323 -240c-207 0 -333 66 -333 256v425z" />
    <glyph glyph-name="V" unicode="V" horiz-adv-x="1128" 
d="M541 0h7c121.196 233.666 242.392 466.391 363.588 700h180.412v22h-169h-27h-3h-204v-22h195.588c-117.889 -227.234 -235.778 -453.634 -353.667 -680.875c-119.775 227.242 -239.526 453.641 -358.414 680.875h193.494v22h-204h-1h-29h-170v-22h181.595
c123.135 -233.609 246.27 -466.334 369.405 -700h8h20z" />
    <glyph glyph-name="W" unicode="W" horiz-adv-x="1402" 
d="M938.184 29.5365c-76.8848 231.078 -155.534 461.311 -234.184 692.464h-9h-14h-9c-86.304 -231.103 -173.528 -461.286 -259.907 -692.314c-74.4789 222.923 -151.33 447.427 -225.753 670.314h195.66v22h-199h-4h-25h-170v-22h177.398
c78.5931 -233.609 158.098 -466.334 237.602 -700h2h21h2c87.5446 234.425 176.035 467.904 263.632 702.277c78.8418 -234.373 158.578 -467.852 237.368 -702.277h3h20h3c82.4132 233.666 164.826 466.391 247.24 700h177.76v22h-170h-25h-4h-199v-22h195.24
c-78.9385 -223.764 -157.824 -446.718 -235.056 -670.464z" />
    <glyph glyph-name="X" unicode="X" horiz-adv-x="1050" 
d="M525.582 366.34c105.649 -114.711 211.294 -229.419 317.153 -344.34h-192.735v-22h199h14h30h155v22h-175.268c-110.788 120.24 -221.576 240.247 -332.363 360.268c98.2636 105.843 196.63 211.697 295.184 317.732h177.448v22h-157h-29h-13h-199v-22h191.547
c-93.5855 -100.637 -187.335 -201.11 -281.102 -301.565c-92.7255 100.455 -185.451 200.928 -278.176 301.565h187.732v22h-199h-9h-29h-161v-22h181.265c97.5813 -105.935 194.981 -211.689 292.369 -317.43c-112.129 -120.122 -224.272 -240.228 -336.181 -360.57
h-178.453v-22h158h32h9h199v22h-187.641c106.364 114.921 212.736 229.629 319.223 344.34z" />
    <glyph glyph-name="Y" unicode="Y" horiz-adv-x="992" 
d="M462.304 352.341c-95.627 115.627 -190.504 232.004 -286.103 347.659h4.79855h199v22h-199h-23h-26h-150v-22h168.049c99.0918 -120.772 199.022 -242.33 298.951 -363v-315h-186v-22h186h13h13h186v22h-186v315c105.586 120.67 210.283 242.228 315.768 363h169.232v22
h-150h-26h-23h-199v-22h199h3.75847c-101.11 -115.655 -202.173 -232.032 -302.454 -347.659z" />
    <glyph glyph-name="Yacute" unicode="&#xdd;" horiz-adv-x="992" 
d="M385 847c75 55 149 111 223 166h-36c-75 -55 -149 -111 -223 -166h36zM462.304 352.341c-95.627 115.627 -190.504 232.004 -286.103 347.659h4.79855h199v22h-199h-23h-26h-150v-22h168.049c99.0918 -120.772 199.022 -242.33 298.951 -363v-315h-186v-22h186h13h13h186
v22h-186v315c105.586 120.67 210.283 242.228 315.768 363h169.232v22h-150h-26h-23h-199v-22h199h3.75847c-101.11 -115.655 -202.173 -232.032 -302.454 -347.659z" />
    <glyph glyph-name="Ydieresis" unicode="&#x178;" horiz-adv-x="992" 
d="M523 855h38c0 -11 -8 -18 -20 -18c-11 0 -18 7 -18 18zM523 855h38c0 11 -8 18 -20 18c-11 0 -18 -7 -18 -18zM361 855h38c0 -11 -8 -18 -20 -18c-11 0 -18 7 -18 18zM361 855h38c0 11 -8 18 -20 18c-11 0 -18 -7 -18 -18zM462.304 352.341
c-95.627 115.627 -190.504 232.004 -286.103 347.659h4.79855h199v22h-199h-23h-26h-150v-22h168.049c99.0918 -120.772 199.022 -242.33 298.951 -363v-315h-186v-22h186h13h13h186v22h-186v315c105.586 120.67 210.283 242.228 315.768 363h169.232v22h-150h-26h-23h-199
v-22h199h3.75847c-101.11 -115.655 -202.173 -232.032 -302.454 -347.659z" />
    <glyph glyph-name="Z" unicode="Z" horiz-adv-x="952" 
d="M764.001 700c-226.19 -226.224 -0.0539896 -1.03811 -682.001 -678v-22h766v11v11v109h-22v-109l-713 1.42109e-14c225.333 225.333 0.00736813 4.34444e-06 683 678v22h-662v-11v-11v-109h22v109h608.001z" />
    <glyph glyph-name="Zacute" unicode="&#x179;" horiz-adv-x="952" 
d="M400 847c74 55 148 111 222 166h-36c-75 -55 -149 -111 -223 -166h37zM764.001 700c-226.19 -226.224 -0.0539896 -1.03811 -682.001 -678v-22h766v11v11v109h-22v-109l-713 1.42109e-14c225.333 225.333 0.00736813 4.34444e-06 683 678v22h-662v-11v-11v-109h22v109
h608.001z" />
    <glyph glyph-name="Zcaron" unicode="&#x17d;" horiz-adv-x="952" 
d="M229 1011c74 -55 148 -111 223 -166h9h27h9c75 55 149 111 223 166h-36c-69.5018 -51.6567 -139.886 -104.196 -209.495 -155.96c-69.5018 51.764 -139.004 104.303 -208.505 155.96h-37zM764.001 700c-226.19 -226.224 -0.0539896 -1.03811 -682.001 -678v-22h766v11v11
v109h-22v-109l-713 1.42109e-14c225.333 225.333 0.00736813 4.34444e-06 683 678v22h-662v-11v-11v-109h22v109h608.001z" />
    <glyph glyph-name="Zdotaccent" unicode="&#x17b;" horiz-adv-x="952" 
d="M454 856h38c0 -11 -8 -18 -20 -18c-11 0 -18 7 -18 18zM454 856h38c0 11 -8 18 -20 18c-11 0 -18 -7 -18 -18zM764.001 700c-226.19 -226.224 -0.0539896 -1.03811 -682.001 -678v-22h766v11v11v109h-22v-109l-713 1.42109e-14
c225.333 225.333 0.00736813 4.34444e-06 683 678v22h-662v-11v-11v-109h22v109h608.001z" />
    <glyph glyph-name="a" unicode="a" horiz-adv-x="803" 
d="M617 0h9h176v22h-176v368c0 123 -90 148 -222 148c-109 0 -189 -30 -256 -74v-120h22v109.809c60.5562 35.2492 134.045 62.1915 231 62.1915c120 0 201 -20 201 -133v-64.1147c-101.524 -10.2365 -165.716 -15.2638 -270 -25.8853c-116 -12 -204 -36 -204 -141
c0 -109 79 -157 198 -157c125.697 0 191.559 52.7945 276 140.225v-135.225h15zM602 160.059c-87.3313 -86.2359 -149.328 -143.059 -272 -143.059c-106 0 -178 39 -178 137c0 91 78 109 179 119c104.94 10.5903 169.097 16.5461 271 26.7913v-139.733z" />
    <glyph glyph-name="aacute" unicode="&#xe1;" horiz-adv-x="803" 
d="M338 661c74 55 148 111 223 166h-37c-75 -55 -149 -111 -223 -166h37zM617 0h9h176v22h-176v368c0 123 -90 148 -222 148c-109 0 -189 -30 -256 -74v-120h22v109.809c60.5562 35.2492 134.045 62.1915 231 62.1915c120 0 201 -20 201 -133v-64.1147
c-101.524 -10.2365 -165.716 -15.2638 -270 -25.8853c-116 -12 -204 -36 -204 -141c0 -109 79 -157 198 -157c125.697 0 191.559 52.7945 276 140.225v-135.225h15zM602 160.059c-87.3313 -86.2359 -149.328 -143.059 -272 -143.059c-106 0 -178 39 -178 137
c0 91 78 109 179 119c104.94 10.5903 169.097 16.5461 271 26.7913v-139.733z" />
    <glyph glyph-name="abreve" unicode="&#x103;" horiz-adv-x="803" 
d="M573 782c0 -77 -71 -102 -159 -102c-86 0 -153 28 -153 103h-22c0 -89 74 -124 173 -124c104 0 183 31 183 123h-22zM617 0h9h176v22h-176v368c0 123 -90 148 -222 148c-109 0 -189 -30 -256 -74v-120h22v109.809c60.5562 35.2492 134.045 62.1915 231 62.1915
c120 0 201 -20 201 -133v-64.1147c-101.524 -10.2365 -165.716 -15.2638 -270 -25.8853c-116 -12 -204 -36 -204 -141c0 -109 79 -157 198 -157c125.697 0 191.559 52.7945 276 140.225v-135.225h15zM602 160.059c-87.3313 -86.2359 -149.328 -143.059 -272 -143.059
c-106 0 -178 39 -178 137c0 91 78 109 179 119c104.94 10.5903 169.097 16.5461 271 26.7913v-139.733z" />
    <glyph glyph-name="acircumflex" unicode="&#xe2;" horiz-adv-x="803" 
d="M658 660c-74 55 -148 111 -223 166h-8h-28h-9c-75 -55 -149 -111 -223 -166h37c69.3918 51.575 138.784 104.029 209 155.714c70.2164 -51.6845 139.608 -104.139 209 -155.714h36zM617 0h9h176v22h-176v368c0 123 -90 148 -222 148c-109 0 -189 -30 -256 -74v-120h22
v109.809c60.5562 35.2492 134.045 62.1915 231 62.1915c120 0 201 -20 201 -133v-64.1147c-101.524 -10.2365 -165.716 -15.2638 -270 -25.8853c-116 -12 -204 -36 -204 -141c0 -109 79 -157 198 -157c125.697 0 191.559 52.7945 276 140.225v-135.225h15zM602 160.059
c-87.3313 -86.2359 -149.328 -143.059 -272 -143.059c-106 0 -178 39 -178 137c0 91 78 109 179 119c104.94 10.5903 169.097 16.5461 271 26.7913v-139.733z" />
    <glyph glyph-name="acute" unicode="&#xb4;" horiz-adv-x="400" 
d="M47 591c74 55 148 111 223 166h-37c-75 -55 -149 -111 -223 -166h37z" />
    <glyph glyph-name="adieresis" unicode="&#xe4;" horiz-adv-x="803" 
d="M475 669h38c0 -11 -8 -18 -20 -18c-11 0 -18 7 -18 18zM475 669h38c0 11 -8 18 -20 18c-11 0 -18 -7 -18 -18zM313 669h38c0 -11 -8 -18 -20 -18c-11 0 -18 7 -18 18zM313 669h38c0 11 -8 18 -20 18c-11 0 -18 -7 -18 -18zM617 0h9h176v22h-176v368
c0 123 -90 148 -222 148c-109 0 -189 -30 -256 -74v-120h22v109.809c60.5562 35.2492 134.045 62.1915 231 62.1915c120 0 201 -20 201 -133v-64.1147c-101.524 -10.2365 -165.716 -15.2638 -270 -25.8853c-116 -12 -204 -36 -204 -141c0 -109 79 -157 198 -157
c125.697 0 191.559 52.7945 276 140.225v-135.225h15zM602 160.059c-87.3313 -86.2359 -149.328 -143.059 -272 -143.059c-106 0 -178 39 -178 137c0 91 78 109 179 119c104.94 10.5903 169.097 16.5461 271 26.7913v-139.733z" />
    <glyph glyph-name="ae" unicode="&#xe6;" horiz-adv-x="1271" 
d="M1117 294h-493.729c5.7121 145.815 101.466 221 251.729 221c146 0 242 -68 242 -211v-10zM1140 294v8c0 158 -103 235 -263 235c-123.648 0 -213.833 -45.4884 -254.299 -134.953c-5.71931 112.602 -93.1283 135.953 -220.701 135.953c-109 0 -190 -30 -256 -74v-110h22
v97.6171c62.3354 37.1626 130.242 64.3829 231 64.3829c120 0 200 -20 200 -133v-88.9962c-14.5961 0.0087157 -28.4208 0.0292091 -41.7295 0.0292091c-76.0639 0 -135.27 -0.669421 -225.27 -8.03306c-116 -12 -206 -32 -206 -137c0 -109 79 -154 197 -154
c129.045 0 218.212 46.3708 308.583 137.326c48.0436 -91.6614 146.633 -138.326 278.417 -138.326c92 0 152 22 228 79l-15 16c-71 -52 -127 -73 -213 -73c-172.298 0 -283.526 87.2421 -286.92 256h516.92v22zM599.073 272.01
c0.821588 -44.7337 8.57044 -84.164 22.5277 -118.222c-88.5681 -85.2949 -171.536 -136.789 -293.601 -136.789c-100 0 -178 36 -178 134c0 78 81 105 181 115c66.6 5.4 115.92 6.48 167.4 6.48c31.3023 0 63.4032 -0.3993 100.673 -0.469519z" />
    <glyph glyph-name="agrave" unicode="&#xe0;" horiz-adv-x="803" 
d="M501 660c-74 55 -148 111 -223 166h-36c75 -55 149 -111 223 -166h36zM617 0h9h176v22h-176v368c0 123 -90 148 -222 148c-109 0 -189 -30 -256 -74v-120h22v109.809c60.5562 35.2492 134.045 62.1915 231 62.1915c120 0 201 -20 201 -133v-64.1147
c-101.524 -10.2365 -165.716 -15.2638 -270 -25.8853c-116 -12 -204 -36 -204 -141c0 -109 79 -157 198 -157c125.697 0 191.559 52.7945 276 140.225v-135.225h15zM602 160.059c-87.3313 -86.2359 -149.328 -143.059 -272 -143.059c-106 0 -178 39 -178 137
c0 91 78 109 179 119c104.94 10.5903 169.097 16.5461 271 26.7913v-139.733z" />
    <glyph glyph-name="amacron" unicode="&#x101;" horiz-adv-x="803" 
d="M557 680h-304v-21h304v21zM617 0h9h176v22h-176v368c0 123 -90 148 -222 148c-109 0 -189 -30 -256 -74v-120h22v109.809c60.5562 35.2492 134.045 62.1915 231 62.1915c120 0 201 -20 201 -133v-64.1147c-101.524 -10.2365 -165.716 -15.2638 -270 -25.8853
c-116 -12 -204 -36 -204 -141c0 -109 79 -157 198 -157c125.697 0 191.559 52.7945 276 140.225v-135.225h15zM602 160.059c-87.3313 -86.2359 -149.328 -143.059 -272 -143.059c-106 0 -178 39 -178 137c0 91 78 109 179 119c104.94 10.5903 169.097 16.5461 271 26.7913
v-139.733z" />
    <glyph glyph-name="ampersand" unicode="&#x26;" horiz-adv-x="944" 
d="M374.429 369.753c15.2792 -10.9489 30.6488 -22.0748 45.5712 -33.7532c90.9239 -68.3454 182.22 -136.691 273.434 -205.036c-76.2036 -73.748 -174.238 -114.964 -296.434 -114.964c-134 0 -248 43 -248 161c0 116.799 114.606 144.904 225.429 192.753z
M710.129 118.454c52.6896 -39.4846 105.342 -78.9692 157.871 -118.454h30c-58.3198 43.5505 -116.64 87.5313 -174.959 131.671c47.1609 50.2078 85.6847 113.013 115.959 186.329l-20 5c-29.5372 -70.5201 -66.8447 -130.816 -112.476 -178.825
c-90.1747 68.2914 -180.349 136.901 -270.524 204.825c-12.7705 10.5169 -26.0827 20.4694 -39.4856 30.173c108.066 45.7415 207.548 85.3906 208.486 199.827c0 101 -90 147 -201 147c-105 0 -185 -52 -185 -149c0 -91.2233 65.144 -142.404 137.216 -194.201
c-116.652 -49.6613 -230.216 -84.1972 -230.216 -205.799c0 -130 124 -182 270 -182c129.536 0 233.663 44.286 314.129 123.454zM378.465 392.109c-69.7458 49.6986 -136.465 96.4834 -136.465 184.891c0 83 70 128 161 128c98 0 179 -38 179 -126
c0 -108.688 -98.9889 -144.29 -203.535 -186.891z" />
    <glyph glyph-name="aogonek" unicode="&#x105;" horiz-adv-x="803" 
d="M617 0h9h176v22h-176v368c0 123 -90 148 -222 148c-109 0 -189 -30 -256 -74v-120h22v109.809c60.5562 35.2492 134.045 62.1915 231 62.1915c120 0 201 -20 201 -133v-64.1147c-101.524 -10.2365 -165.716 -15.2638 -270 -25.8853c-116 -12 -204 -36 -204 -141
c0 -109 79 -157 198 -157c125.697 0 191.559 52.7945 276 140.225v-122.705c-68.8825 -23.3753 -130 -39.8746 -130 -109.52c0 -62 48 -95 115 -95c40 0 67 11 103 28l-11 16c-31 -15 -55 -23 -90 -23c-54 0 -95 24 -95 74c0 63.3943 60.8914 73.2779 121.528 97z
M602 160.059c-87.3313 -86.2359 -149.328 -143.059 -272 -143.059c-106 0 -178 39 -178 137c0 91 78 109 179 119c104.94 10.5903 169.097 16.5461 271 26.7913v-139.733z" />
    <glyph glyph-name="apostrophemod" horiz-adv-x="540" 
d="M206 541l148 181h-33l-141 -181h26z" />
    <glyph glyph-name="approxequal" unicode="&#x2248;" horiz-adv-x="1028" 
d="M832 558c-25 -55 -69 -103 -143 -103c-64 0 -109 14 -163 49c-55 35 -98 55 -162 55c-95 0 -147 -38 -176 -118l19 -8c25 66 74 105 156 105c56 0 95 -13 142 -45c62 -38 110 -58 182 -59c88 0 134 47 165 117zM828 344c-25 -55 -69 -103 -143 -103
c-64 0 -109 14 -163 49c-55 35 -98 55 -162 55c-95 0 -147 -38 -176 -118l19 -8c25 66 74 105 156 105c56 0 95 -13 142 -45c62 -38 110 -58 182 -59c88 0 134 47 165 117z" />
    <glyph glyph-name="aring" unicode="&#xe5;" horiz-adv-x="803" 
d="M286 774c0 65 53 96 124 96c76 0 133 -28 133 -96c0 -66 -56 -95 -130 -95c-72 0 -127 29 -127 95zM264 774c0 -78 64 -116 149 -116c87 0 153 36 153 116c0 81 -67 117 -156 117c-84 0 -146 -38 -146 -117zM617 0h9h176v22h-176v368c0 123 -90 148 -222 148
c-109 0 -189 -30 -256 -74v-120h22v109.809c60.5562 35.2492 134.045 62.1915 231 62.1915c120 0 201 -20 201 -133v-64.1147c-101.524 -10.2365 -165.716 -15.2638 -270 -25.8853c-116 -12 -204 -36 -204 -141c0 -109 79 -157 198 -157
c125.697 0 191.559 52.7945 276 140.225v-135.225h15zM602 160.059c-87.3313 -86.2359 -149.328 -143.059 -272 -143.059c-106 0 -178 39 -178 137c0 91 78 109 179 119c104.94 10.5903 169.097 16.5461 271 26.7913v-139.733z" />
    <glyph glyph-name="asciicircum" unicode="^" horiz-adv-x="793" 
d="M647 466c-77 111 -160 233 -237 344h-2h-23h-2c-78 -115 -157 -229 -235 -344h25c74.1857 109.376 149.276 217.848 223.55 327.136c72.8992 -106.405 152.331 -221.73 225.45 -327.136h25z" />
    <glyph glyph-name="asciitilde" unicode="~" horiz-adv-x="1018" 
d="M822 344c-25 -55 -69 -103 -143 -103c-64 0 -109 14 -163 49c-55 35 -98 55 -162 55c-95 0 -147 -38 -176 -118l19 -8c25 66 74 105 156 105c56 0 95 -13 142 -45c62 -38 110 -58 182 -59c88 0 134 47 165 117z" />
    <glyph glyph-name="asterisk" unicode="*" horiz-adv-x="734" 
d="M347.697 513.554c-42.5658 -33.3464 -85.1316 -65.95 -127.697 -98.5536l17 -16c43.7242 36.12 87.4485 71.3366 132.032 106.508c44.2183 -35.7285 87.6488 -70.6184 131.968 -105.508l16 15c-42.9129 33.7825 -85.8258 66.7313 -128.739 99.6077
c58.2538 15.6206 116.582 31.9206 175.739 47.3923l-9 21c-58.931 -17.7728 -118.737 -34.6707 -177.781 -53.149c0.787245 46.1894 0.859911 93.0934 1.78102 139.149h-23c0.920727 -46.0364 1.84145 -92.9205 1.98165 -139.091
c-58.7889 17.5778 -118.385 34.4674 -177.982 53.0912l-8 -22c58.3136 -15.4896 116.627 -31.8093 175.697 -47.4464z" />
    <glyph glyph-name="at" unicode="@" horiz-adv-x="1150" 
d="M807 -74c-78 -33 -133 -37 -217 -37c-260 0 -447 95 -447 330c0 232 189 326 445 326c241 0 413 -100 413 -321c0 -88 -35 -151 -116 -151c-82 0 -121 63 -121 151c0 113 -79 173 -196 173c-125 0 -209 -56 -209 -172c0 -120 81 -184 205 -184
c94.1777 0 153.904 46.9127 182.944 128.814c14.1821 -70.761 59.0005 -116.814 136.056 -116.814c96 0 141 70 141 172c0 236 -180 343 -434 343c-273 0 -470 -101 -470 -350c0 -248 196 -351 468 -351c89 0 148 7 230 39zM742.157 212.979
c-29.264 -93.4149 -79.181 -149.979 -174.157 -149.979c-113 0 -186 56 -186 163c0 102 76 149 184 149c105 0 176 -51 176 -152c0 -3.37507 0.0523991 -6.71597 0.157312 -10.0212z" />
    <glyph glyph-name="atilde" unicode="&#xe3;" horiz-adv-x="803" 
d="M641 781c-19 -57 -44 -103 -103 -103c-50 0 -83 16 -122 49c-40 34 -71 55 -123 55c-73 0 -115 -46 -134 -119l18 -6c18 63 52 104 116 104c44 0 73 -18 106 -48c43 -36 81 -56 137 -56c70 0 102 52 125 120zM617 0h9h176v22h-176v368c0 123 -90 148 -222 148
c-109 0 -189 -30 -256 -74v-120h22v109.809c60.5562 35.2492 134.045 62.1915 231 62.1915c120 0 201 -20 201 -133v-64.1147c-101.524 -10.2365 -165.716 -15.2638 -270 -25.8853c-116 -12 -204 -36 -204 -141c0 -109 79 -157 198 -157
c125.697 0 191.559 52.7945 276 140.225v-135.225h15zM602 160.059c-87.3313 -86.2359 -149.328 -143.059 -272 -143.059c-106 0 -178 39 -178 137c0 91 78 109 179 119c104.94 10.5903 169.097 16.5461 271 26.7913v-139.733z" />
    <glyph glyph-name="b" unicode="b" horiz-adv-x="918" 
d="M213 0h10v81.8145c84.2811 -64.3159 167.093 -86.8145 275 -86.8145c170 0 292 102 292 269c0 168 -121 274 -289 274c-112.13 0 -212.626 -45.7088 -278 -98.4873v360.487h-10h-14h-185v-22h185v-756h-185v-22h185h14zM223 107.671v305.694
c60.7866 53.0308 161.81 102.635 275 102.635c157 0 268 -96 268 -253c0 -149.471 -109.744 -246.03 -264.245 -246.03c-1.58022 0 -3.16512 0.010101 -4.75464 0.0303496c-106.758 0 -188.11 24.4282 -274 90.6707z" />
    <glyph glyph-name="backslash" unicode="\" horiz-adv-x="719" 
d="M637 -68c-176 304 -352 608 -529 912h-25c176 -304 353 -608 529 -912h25z" />
    <glyph glyph-name="bar" unicode="|" horiz-adv-x="351" 
d="M187 -300v1100h-23v-1100h23z" />
    <glyph glyph-name="braceleft" unicode="{" horiz-adv-x="484" 
d="M390 800c-100 0 -168 -53 -168 -150v-180c0 -80 -60 -120 -144 -120v-22c84 0 145 -42 145 -123v-178c0 -96 67 -150 167 -150v21c-87 0 -146 45 -146 128v177c0 68.941 -36.5771 115.828 -94.7401 135.928c57.4185 19.6407 93.7401 65.3725 93.7401 134.072v177
c0 83 59 129 147 129v21z" />
    <glyph glyph-name="braceright" unicode="}" horiz-adv-x="484" 
d="M94 778c87 0 146 -45 146 -128v-177c0 -69.6776 36.5804 -115.686 94.7481 -135.262c-57.4231 -20.1613 -93.7481 -66.7658 -93.7481 -134.738v-177c0 -83 -59 -129 -147 -129v-21c100 0 168 54 168 151v178c0 80 60 122 144 122v22c-85 0 -145 40 -145 121v180
c0 96 -67 149 -167 149v-21z" />
    <glyph glyph-name="bracketleft" unicode="[" horiz-adv-x="450" 
d="M372 771h-210v-895h210v24h-185v847h185v24z" />
    <glyph glyph-name="bracketright" unicode="]" horiz-adv-x="449" 
d="M263 -100h-185v-24h209v895h-209v-24h185v-847z" />
    <glyph glyph-name="breve" unicode="&#x2d8;" horiz-adv-x="566" 
d="M351 742c0 -77 -71 -102 -160 -102c-85 0 -152 28 -152 103h-22c0 -89 73 -124 172 -124c104 0 184 31 184 123h-22z" />
    <glyph glyph-name="brokenbar" unicode="&#xa6;" horiz-adv-x="395" 
d="M209 428v372h-23v-372h23zM209 -300v372h-23v-372h23z" />
    <glyph glyph-name="bullet" unicode="&#x2022;" horiz-adv-x="508" 
d="M216 440h76c0 -22 -16 -36 -40 -36c-22 0 -36 14 -36 36zM216 440h76c0 22 -16 36 -40 36c-22 0 -36 -14 -36 -36z" />
    <glyph glyph-name="bulletoperator" unicode="&#x2219;" horiz-adv-x="424" 
d="M174 440h76c0 -22 -16 -36 -40 -36c-22 0 -36 14 -36 36zM174 440h76c0 22 -16 36 -40 36c-22 0 -36 -14 -36 -36z" />
    <glyph glyph-name="c" unicode="c" horiz-adv-x="780" 
d="M657 473c-63 38 -139 65 -216 65c-188 0 -314 -88 -314 -271s123 -272 312 -272c85 0 170 30 233 87l-17 16c-60 -55 -137 -81 -216 -81c-171 0 -288 80 -288 250s117 249 288 249c68.8744 0 136.834 -20.1314 196 -53.3914v-109.609h22v120z" />
    <glyph glyph-name="cacute" unicode="&#x107;" horiz-adv-x="780" 
d="M366 661c74 55 148 111 223 166h-37c-75 -55 -149 -111 -223 -166h37zM657 473c-63 38 -139 65 -216 65c-188 0 -314 -88 -314 -271s123 -272 312 -272c85 0 170 30 233 87l-17 16c-60 -55 -137 -81 -216 -81c-171 0 -288 80 -288 250s117 249 288 249
c68.8744 0 136.834 -20.1314 196 -53.3914v-109.609h22v120z" />
    <glyph glyph-name="caron" unicode="&#x2c7;" horiz-adv-x="712" 
d="M9 757c74 -55 148 -111 223 -166h9h27h9c75 55 149 111 223 166h-37c-69.5018 -51.6567 -139.004 -104.196 -208.505 -155.96c-69.609 51.764 -139.993 104.303 -209.495 155.96h-36z" />
    <glyph glyph-name="ccaron" unicode="&#x10d;" horiz-adv-x="769" 
d="M195 825c74 -55 148 -111 223 -166h9h28h8c75 55 149 111 223 166h-36c-69.3918 -51.575 -138.784 -104.029 -209 -155.714c-70.2164 51.6845 -139.608 104.139 -209 155.714h-37zM657 473c-63 38 -139 65 -216 65c-188 0 -314 -88 -314 -271s123 -272 312 -272
c85 0 170 30 233 87l-17 16c-60 -55 -137 -81 -216 -81c-171 0 -288 80 -288 250s117 249 288 249c68.8744 0 136.834 -20.1314 196 -53.3914v-109.609h22v120z" />
    <glyph glyph-name="ccedilla" unicode="&#xe7;" horiz-adv-x="780" 
d="M391 -87c22 11 40 13 64 13c43 0 76 -17 76 -57c0 -44 -43 -55 -94 -55c-36 0 -63 2 -95 17l-10 -17c36 -15 65 -21 104 -21c66 0 118 18 118 76c0 52 -41 78 -97 78c-17.1448 0 -31.6767 -1.95962 -46.5822 -5.69221c13.3697 17.9219 26.5941 35.6984 40.2231 53.8795
c81.0752 2.60846 161.236 32.4152 221.359 86.8127l-17 16c-60 -55 -137 -81 -216 -81c-171 0 -288 80 -288 250s117 249 288 249c68.8744 0 136.834 -20.1314 196 -53.3914v-109.609h22v120c-63 38 -139 65 -216 65c-188 0 -314 -88 -314 -271
c0 -177.537 115.765 -266.602 295.25 -271.762c-16.0835 -21.4594 -32.167 -42.5254 -48.2504 -64.2381l16 -17c0.0086958 0.0115944 0.0173914 0.0231886 0.0260869 0.0347827z" />
    <glyph glyph-name="cedilla" unicode="&#xb8;" horiz-adv-x="546" 
d="M160 -81c22 11 40 13 64 13c43 0 76 -17 76 -57c0 -44 -43 -55 -94 -55c-36 0 -62 2 -95 17l-10 -17c36 -15 65 -21 104 -21c66 0 118 18 118 76c0 52 -41 78 -97 78c-17.1448 0 -31.6767 -1.95962 -46.5822 -5.69221c13.8137 18.5171 27.4723 36.8789 41.5822 55.6922
l-18 14c-20 -27 -40 -53 -59 -80l0.666896 -0.755816c-0.221862 -0.0811188 -0.444159 -0.162514 -0.666896 -0.244184l14.1176 -15l0.882353 -1c0.0086958 0.0115944 0.0173914 0.0231886 0.0260869 0.0347827z" />
    <glyph glyph-name="cent" unicode="&#xa2;" horiz-adv-x="913" 
d="M510 678.981v99.0188h-23v-99.2081c-213.222 -5.25835 -367 -110.139 -367 -312.792c0 -195.117 137.895 -308.663 340 -311.928v-107.072h23v107.122c116.724 2.06068 202.071 30.3129 305 91.878l-15 17c-100 -63 -184 -87 -302 -87c-194 0 -328 105 -328 291
c0 194 152 290 359 290c107 0 183 -16 276 -67l13 19c-96.2248 50.0762 -173.168 69.3011 -281 69.9812z" />
    <glyph glyph-name="circumflex" unicode="&#x2c6;" horiz-adv-x="950" 
d="M499 591c-74 55 -148 111 -223 166h-8h-28h-9c-75 -55 -149 -111 -223 -166h37c69.3646 51.5548 138.729 103.988 208.917 155.653c69.4747 -51.6649 139.718 -104.098 209.083 -155.653h36z" />
    <glyph glyph-name="colon" unicode=":" horiz-adv-x="376" 
d="M174 12h28c0 9 -6 14 -15 14c-8 0 -13 -6 -13 -14zM174 12h28c0 -10 -6 -14 -15 -14c-8 0 -13 6 -13 14zM174 427h28c0 9 -6 14 -15 14c-8 0 -13 -6 -13 -14zM174 427h28c0 -10 -6 -14 -15 -14c-8 0 -13 6 -13 14z" />
    <glyph glyph-name="comma" unicode="," horiz-adv-x="412" 
d="M88 -149l148 181h-33l-141 -181h26z" />
    <glyph glyph-name="commaaccent" horiz-adv-x="540" 
d="M180 -149l148 181h-33l-141 -181h26z" />
    <glyph glyph-name="copyright" unicode="&#xa9;" horiz-adv-x="1099" 
d="M711 464c-51 24 -92 32 -149 32c-125 0 -217 -60 -217 -177c0 -112 83 -173 201 -173c71 0 122 10 183 47l-14 16c-56 -34 -103 -43 -168 -43c-105 0 -179 54 -179 154c0 103 82 155 193 155c53 0 87 -7 129 -22l9 4.71429l-10 -5.71429v-71h21v82.4762zM130 319
c0 -215 194 -323 431 -323c226 0 408 113 408 323c0 213 -186 326 -415 326c-233 0 -424 -110 -424 -326zM153 319c0 203 180 306 401 306c215 0 392 -106 392 -307c0 -196 -173 -301 -384 -301c-222 0 -409 98 -409 302z" />
    <glyph glyph-name="currency" unicode="&#xa4;" horiz-adv-x="839" 
d="M210 310c0 -46.5752 14.6701 -83.9614 40.2562 -112.029c-39.8864 -28.7913 -80.4988 -58.3085 -120.256 -86.9709l16 -17c40.5008 29.1982 81.0016 58.3965 120.667 88.4303c38.4714 -31.5269 93.9548 -47.4303 158.333 -47.4303
c59.8715 0 111.136 15.9473 147.3 46.1862c38.7169 -29.2515 78.2085 -57.7971 117.7 -87.1862l17 16c-39.2392 28.2888 -79.3112 57.4102 -118.696 86.6046c25.8955 28.7959 40.6961 67.2425 40.6961 114.395c0 48.8141 -16.8254 87.1849 -45.7134 114.857
c38.581 28.5386 77.2449 56.4384 116.713 85.1427l-16 17c-39.359 -29.2904 -79.5558 -58.5808 -119.057 -87.1043c-36.0389 25.2964 -85.0082 38.1043 -140.943 38.1043c-60.2195 0 -112.769 -13.1834 -150.724 -40.0196l-118.276 88.0196l-16 -17
c38.9533 -28.9885 77.9065 -57.1563 116.116 -85.9903c-28.55 -27.4695 -45.1164 -65.3692 -45.1164 -114.01zM233 310c0 99 82 148 189 148s184 -50 184 -148c0 -99 -76 -154 -180 -154c-112 0 -193 51 -193 154z" />
    <glyph glyph-name="d" unicode="d" horiz-adv-x="921" 
d="M695 436.946v-309.502c-71.0236 -76.3897 -142.876 -110.444 -245 -110.444c-173 0 -304 85 -304 248c0 164 130 251 302 251c96.1874 0 178.215 -23.5997 247 -79.0536zM695 96.8416v-96.8416h14h12h187v22h-187v778h-14h-12h-187v-22h187v-314.745
c-72.5583 52.1301 -151.903 74.7455 -248 74.7455c-186 0 -325 -97 -325 -274c0 -176 142 -269 329 -269c101.07 0 175.609 30.6759 244 101.842z" />
    <glyph glyph-name="dagger" unicode="&#x2020;" horiz-adv-x="761" 
d="M387 533v267h-24v-267h-295v-24h295v-807h24v807h306v24h-306z" />
    <glyph glyph-name="daggerdbl" unicode="&#x2021;" horiz-adv-x="901" 
d="M433 -24v-274h24v274h306v25h-306v508h306v24h-306v267h-24v-267h-295v-24h295v-508h-295v-25h295z" />
    <glyph glyph-name="dcaron" unicode="&#x10f;" horiz-adv-x="1007" 
d="M823 619l148 181h-33l-141 -181h26zM695 436.946v-309.502c-71.0236 -76.3897 -142.876 -110.444 -245 -110.444c-173 0 -304 85 -304 248c0 164 130 251 302 251c96.1874 0 178.215 -23.5997 247 -79.0536zM695 96.8416v-96.8416h14h12h187v22h-187v778h-14h-12h-187
v-22h187v-314.745c-72.5583 52.1301 -151.903 74.7455 -248 74.7455c-186 0 -325 -97 -325 -274c0 -176 142 -269 329 -269c101.07 0 175.609 30.6759 244 101.842z" />
    <glyph glyph-name="dcroat" unicode="&#x111;" horiz-adv-x="921" 
d="M695 656v-192.745c-72.5583 52.1301 -151.903 74.7455 -248 74.7455c-186 0 -325 -97 -325 -274c0 -176 142 -269 329 -269c101.07 0 175.609 30.6759 244 101.842v-96.8416h14h12h187v22h-187v634h134v24h-134v120h-14h-12h-187v-22h187v-98h-246v-24h246zM695 436.946
v-309.502c-71.0236 -76.3897 -142.876 -110.444 -245 -110.444c-173 0 -304 85 -304 248c0 164 130 251 302 251c96.1874 0 178.215 -23.5997 247 -79.0536z" />
    <glyph glyph-name="degree" unicode="&#xb0;" horiz-adv-x="720" 
d="M143 433c0 -132 84 -216 215 -216c133 0 218 82 218 214c0 129 -87 206 -218 206c-130 0 -215 -77 -215 -204zM165 433c0 114 75 184 191 184c118 0 198 -70 198 -186c0 -119 -76 -193 -195 -193s-194 76 -194 195z" />
    <glyph glyph-name="deltamath" horiz-adv-x="1100" 
d="M64 0h970v24l-465 786h-5h-23h-5l-472 -786v-24zM552.414 790.707l453.586 -766.707h-914z" />
    <glyph glyph-name="dieresis" unicode="&#xa8;" horiz-adv-x="610" 
d="M268 669h38c0 -11 -8 -18 -20 -18c-11 0 -18 7 -18 18zM268 669h38c0 11 -8 18 -20 18c-11 0 -18 -7 -18 -18zM106 669h38c0 -11 -8 -18 -20 -18c-11 0 -18 7 -18 18zM106 669h38c0 11 -8 18 -20 18c-11 0 -18 -7 -18 -18z" />
    <glyph glyph-name="divide" unicode="&#xf7;" horiz-adv-x="977" 
d="M176 297h625v24h-625v-24zM472 96h28c0 9 -6 14 -15 14c-8 0 -13 -6 -13 -14zM472 96h28c0 -10 -6 -14 -15 -14c-8 0 -13 6 -13 14zM472 511h28c0 9 -6 14 -15 14c-8 0 -13 -6 -13 -14zM472 511h28c0 -10 -6 -14 -15 -14c-8 0 -13 6 -13 14z" />
    <glyph glyph-name="divisionslash" unicode="&#x2215;" horiz-adv-x="609" 
d="M30 -93l576 850h-27l-575 -850h26z" />
    <glyph glyph-name="dollar" unicode="$" horiz-adv-x="801" 
d="M386 682.767c-128.752 -3.06827 -231 -37.0332 -231 -139.767c0 -114 113 -138 239 -178c128 -39 266 -61 266 -168c0 -104 -130 -128 -277 -128c-91.0164 0 -171.936 22.0295 -241 45.8621v104.138h-22v-120c71.2206 -26.9483 155.409 -49.2652 249 -50.9036v-91.0964
h25v91.0653c155.198 1.47363 290 28.5705 290 149.935c0 122 -141 144 -276 187c-120 38 -229 58 -229 158c0 92 104 119 225 119c91.6224 0 157.2 -13.9524 238 -45.4454v-105.555h22v120c-87.7846 34.522 -158.057 51.5323 -254 51.9905v90.0095h-24v-90.2334z" />
    <glyph glyph-name="dotaccent" unicode="&#x2d9;" horiz-adv-x="980" 
d="M440 669h38c0 -11 -8 -18 -20 -18c-11 0 -18 7 -18 18zM440 669h38c0 11 -8 18 -20 18c-11 0 -18 -7 -18 -18z" />
    <glyph glyph-name="dotlessi" unicode="&#x131;" horiz-adv-x="471" 
d="M255 511v-489l-187 -2.84217e-14v-22h187h12h14h172v22h-172v511h-14h-12h-187v-22h187z" />
    <glyph glyph-name="e" unicode="e" horiz-adv-x="807" 
d="M653 295h-493.729c5.7121 145.815 101.466 221 251.729 221c146 0 242 -68 242 -211v-10zM676 295v8c0 158 -103 235 -263 235c-171 0 -278 -87 -278 -257c0 -189 121 -286 311 -286c92 0 152 22 228 79l-15 16c-71 -52 -127 -73 -213 -73
c-172.298 0 -283.526 87.2421 -286.92 256h516.92v22z" />
    <glyph glyph-name="eacute" unicode="&#xe9;" horiz-adv-x="807" 
d="M338 661c74 55 148 111 223 166h-36c-75 -55 -149 -111 -223 -166h36zM653 295h-493.729c5.7121 145.815 101.466 221 251.729 221c146 0 242 -68 242 -211v-10zM676 295v8c0 158 -103 235 -263 235c-171 0 -278 -87 -278 -257c0 -189 121 -286 311 -286
c92 0 152 22 228 79l-15 16c-71 -52 -127 -73 -213 -73c-172.298 0 -283.526 87.2421 -286.92 256h516.92v22z" />
    <glyph glyph-name="ecaron" unicode="&#x11b;" horiz-adv-x="807" 
d="M168 825c74 -55 148 -111 223 -166h9h27h9c75 55 149 111 223 166h-37c-69.5018 -51.6567 -139.004 -104.196 -208.505 -155.96c-69.609 51.764 -139.993 104.303 -209.495 155.96h-36zM653 295h-493.729c5.7121 145.815 101.466 221 251.729 221c146 0 242 -68 242 -211
v-10zM676 295v8c0 158 -103 235 -263 235c-171 0 -278 -87 -278 -257c0 -189 121 -286 311 -286c92 0 152 22 228 79l-15 16c-71 -52 -127 -73 -213 -73c-172.298 0 -283.526 87.2421 -286.92 256h516.92v22z" />
    <glyph glyph-name="ecircumflex" unicode="&#xea;" horiz-adv-x="807" 
d="M659 660c-74 55 -148 111 -223 166h-9h-28h-8c-75 -55 -149 -111 -223 -166h36c69.3918 51.575 138.784 104.029 209 155.714c70.2164 -51.6845 139.608 -104.139 209 -155.714h37zM653 295h-493.729c5.7121 145.815 101.466 221 251.729 221c146 0 242 -68 242 -211v-10
zM676 295v8c0 158 -103 235 -263 235c-171 0 -278 -87 -278 -257c0 -189 121 -286 311 -286c92 0 152 22 228 79l-15 16c-71 -52 -127 -73 -213 -73c-172.298 0 -283.526 87.2421 -286.92 256h516.92v22z" />
    <glyph glyph-name="edieresis" unicode="&#xeb;" horiz-adv-x="807" 
d="M476 669h38c0 -11 -8 -18 -20 -18c-11 0 -18 7 -18 18zM476 669h38c0 11 -8 18 -20 18c-11 0 -18 -7 -18 -18zM314 669h38c0 -11 -8 -18 -20 -18c-11 0 -18 7 -18 18zM314 669h38c0 11 -8 18 -20 18c-11 0 -18 -7 -18 -18zM653 295h-493.729
c5.7121 145.815 101.466 221 251.729 221c146 0 242 -68 242 -211v-10zM676 295v8c0 158 -103 235 -263 235c-171 0 -278 -87 -278 -257c0 -189 121 -286 311 -286c92 0 152 22 228 79l-15 16c-71 -52 -127 -73 -213 -73c-172.298 0 -283.526 87.2421 -286.92 256h516.92v22
z" />
    <glyph glyph-name="edotaccent" unicode="&#x117;" horiz-adv-x="807" 
d="M393 670h38c0 -11 -8 -18 -20 -18c-11 0 -18 7 -18 18zM393 670h38c0 11 -8 18 -20 18c-11 0 -18 -7 -18 -18zM653 295h-493.729c5.7121 145.815 101.466 221 251.729 221c146 0 242 -68 242 -211v-10zM676 295v8c0 158 -103 235 -263 235c-171 0 -278 -87 -278 -257
c0 -189 121 -286 311 -286c92 0 152 22 228 79l-15 16c-71 -52 -127 -73 -213 -73c-172.298 0 -283.526 87.2421 -286.92 256h516.92v22z" />
    <glyph glyph-name="egrave" unicode="&#xe8;" horiz-adv-x="807" 
d="M502 660c-74 55 -148 111 -223 166h-37c75 -55 149 -111 223 -166h37zM653 295h-493.729c5.7121 145.815 101.466 221 251.729 221c146 0 242 -68 242 -211v-10zM676 295v8c0 158 -103 235 -263 235c-171 0 -278 -87 -278 -257c0 -189 121 -286 311 -286
c92 0 152 22 228 79l-15 16c-71 -52 -127 -73 -213 -73c-172.298 0 -283.526 87.2421 -286.92 256h516.92v22z" />
    <glyph glyph-name="eight" unicode="8" horiz-adv-x="807" 
d="M405.713 390.063c-116.819 42.5914 -223.713 57.6343 -223.713 171.937c0 108 95 141 218 141c130 0 225 -29 225 -143c0 -111.189 -104.642 -130.103 -219.287 -169.937zM437.926 378.109c112.449 41.5991 211.074 64.1786 211.074 181.891c0 128 -103 167 -248 167
c-139 0 -243 -42 -243 -165c0 -119.516 98.5172 -144.003 214.147 -184.17c-129.605 -46.7676 -240.147 -73.3547 -240.147 -207.83c0 -134 114 -175 268 -175c156 0 275 37 275 175c0 131.797 -109.894 161.675 -237.074 208.109zM405.513 365.891
c129.605 -46.9225 245.487 -71.6068 245.487 -195.891c0 -123 -109 -151 -250 -151c-140 0 -245 30 -245 151c0 128.249 117.889 148.194 249.513 195.891z" />
    <glyph glyph-name="ellipsis" unicode="&#x2026;" horiz-adv-x="872" 
d="M409 12h38c0 -11 -8 -18 -20 -18c-11 0 -18 7 -18 18zM409 12h38c0 11 -8 18 -20 18c-11 0 -18 -7 -18 -18zM666 12h38c0 -11 -8 -18 -20 -18c-11 0 -18 7 -18 18zM666 12h38c0 11 -8 18 -20 18c-11 0 -18 -7 -18 -18zM168 12h38c0 -11 -8 -18 -20 -18
c-11 0 -18 7 -18 18zM168 12h38c0 11 -8 18 -20 18c-11 0 -18 -7 -18 -18z" />
    <glyph glyph-name="emacron" unicode="&#x113;" horiz-adv-x="807" 
d="M557 680h-304v-21h304v21zM653 295h-493.729c5.7121 145.815 101.466 221 251.729 221c146 0 242 -68 242 -211v-10zM676 295v8c0 158 -103 235 -263 235c-171 0 -278 -87 -278 -257c0 -189 121 -286 311 -286c92 0 152 22 228 79l-15 16c-71 -52 -127 -73 -213 -73
c-172.298 0 -283.526 87.2421 -286.92 256h516.92v22z" />
    <glyph glyph-name="emdash" unicode="&#x2014;" horiz-adv-x="1244" 
d="M172 260h900v24h-900v-24z" />
    <glyph glyph-name="endash" unicode="&#x2013;" horiz-adv-x="852" 
d="M173 260h505v24h-505v-24z" />
    <glyph glyph-name="eogonek" unicode="&#x119;" horiz-adv-x="807" 
d="M653 295h-493.729c5.7121 145.815 101.466 221 251.729 221c146 0 242 -68 242 -211v-10zM450.47 17.0192c-1.48112 -0.012815 -2.97111 -0.019196 -4.47023 -0.0191962c-172.298 0 -283.526 87.2421 -286.92 256h516.92v22v8c0 158 -103 235 -263 235
c-171 0 -278 -87 -278 -257c0 -171.462 99.5854 -267.205 259.93 -283.498c-43.8606 -17.4899 -75.9305 -40.0524 -75.9305 -90.5018c0 -62 48 -95 115 -95c40 0 67 11 103 28l-11 16c-31 -15 -55 -23 -90 -23c-54 0 -95 24 -95 74
c0 54.9059 45.6766 69.6717 97.3038 88.0536c2.5526 -0.035707 5.11802 -0.0535668 7.69616 -0.0535669c92 0 152 22 228 79l-15 16c-65.8963 -48.2621 -118.872 -69.8207 -194.902 -72.6708l-2.09757 3.67075c-3.85989 -1.35618 -7.70618 -2.67971 -11.5298 -3.9808z" />
    <glyph glyph-name="equal" unicode="=" horiz-adv-x="1201" 
d="M176 428h849v23h-849v-23zM176 206h849v23h-849v-23z" />
    <glyph glyph-name="estimated" unicode="&#x212e;" horiz-adv-x="820" 
d="M772 394v8c0 202 -135 322 -363 322c-226 0 -361 -128 -361 -344c0 -241 153 -385 410 -385c105 0 221 40 311 108l-15 16c-89 -64 -199 -102 -296 -102c-128.681 0 -229.653 38.1711 -296 108.199v246.801h610v22zM659 622.47v-228.47h-497v223.943
c57.4609 54.4886 140.758 84.0568 245 84.0568c107.456 0 193.229 -27.9871 252 -79.5302z" />
    <glyph glyph-name="eth" unicode="&#xf0;" horiz-adv-x="833" 
d="M676.981 267.672c-11.543 181.98 -120.252 297.115 -279.684 365.992c-47.2705 -47.1383 -94.4136 -94.2716 -141.297 -141.665l-17 17c45.075 44.5903 89.915 89.4155 134.748 134.362c-78.5277 30.8092 -168.136 51.272 -263.748 63.6382l4 23
c101.93 -11.9737 196.603 -33.8449 278.865 -67.4655c41.2975 41.4292 82.6164 82.9473 124.135 124.466l17 -17c-39.2871 -39.2871 -78.5742 -78.3958 -117.786 -117.477c172.526 -77.571 284.786 -210.847 284.786 -418.523c0 -166 -128 -246 -307 -246
c-155 0 -268 66 -268 208c0 144 115 206 272 206c123.597 0 222.684 -40.3233 278.981 -134.328zM677.98 231.634c-63.6146 106.563 -151.345 147.366 -277.98 147.366c-143 0 -250 -54 -250 -184c0 -126 105 -182 243 -182c163.769 0 283.207 69.9446 284.98 218.634z" />
    <glyph glyph-name="exclam" unicode="!" horiz-adv-x="398" 
d="M212 229v493h-23v-493h23zM182 19h38c0 -11 -8 -18 -20 -18c-11 0 -18 7 -18 18zM182 19h38c0 11 -8 18 -20 18c-11 0 -18 -7 -18 -18z" />
    <glyph glyph-name="exclamdown" unicode="&#xa1;" horiz-adv-x="398" 
d="M186 493v-493h23v493h-23zM216 703h-38c0 11 8 18 20 18c11 0 18 -7 18 -18zM216 703h-38c0 -11 8 -18 20 -18c11 0 18 7 18 18z" />
    <glyph glyph-name="f" unicode="f" horiz-adv-x="670" 
d="M338 509v131c0 95 72 143 173 143c41.6478 0 82.476 -10.6565 121 -23.8055v-107.195h22v120c-46 17 -95 33 -143 33c-114 0 -197 -55 -197 -165v-131h-238v-22h238v-465h-187v-22h187h12h12h187v22h-187v465h307v22h-307z" />
    <glyph glyph-name="fi" unicode="&#xfb01;" horiz-adv-x="867" 
d="M305 0h13h126v22h-126v490h300v-490h-130v-22h130h16h7h192v22h-192v511h-323v61c0 116 83 185 204 185c34 0 61 -2 94 -11v-85h24v101c-43 11 -75 16 -119 16c-134 0 -227 -77 -226 -206v-61h-239v-21h239v-490h-189v-22h189h10z" />
    <glyph glyph-name="five" unicode="5" horiz-adv-x="760" 
d="M201 420.684v279.316h418v22h-441v-310v-12l23 -4c35 14 109 26 161 26c143 0 255 -67 255 -198c0 -132 -123 -202 -270 -202c-82 0 -148 16 -224 46l-11 -24c75 -32 148 -49 234 -49c162 0 296 80 296 229c0 144 -122 222 -279 222
c-52.1792 0 -117.108 -10.6244 -162 -25.316z" />
    <glyph glyph-name="fl" unicode="&#xfb02;" horiz-adv-x="868" 
d="M308 0h10h129v22h-129v490h300v-490h-127v-22h127h19h4h195v22h-195v763c-43 11 -76 15 -120 15c-134 0 -227 -77 -226 -206v-61h-239v-21h239v-490h-186v-22h186h13zM318 533v61c0 116 83 185 204 185c34 0 63 -1 96 -10v-236h-300z" />
    <glyph glyph-name="florin" unicode="&#x192;" horiz-adv-x="595" 
d="M584 828c-13.7148 2.078 -26.9882 3.11966 -39.7458 3.11966c-79.3325 0 -138.718 -40.2803 -160.254 -122.12c-14.338 -54.3333 -28.6127 -108.667 -42.84 -163h-157.16v-20h151.925c-40.5547 -155 -80.7399 -310 -120.925 -465
c-18.907 -71.3308 -70.3114 -107.948 -141.519 -107.948c-11.649 0 -23.828 0.979982 -36.4813 2.94828l-4 -21c13.2414 -1.83544 26.0874 -2.75991 38.4728 -2.75991c82.0855 0 143.936 40.608 166.527 125.76c41.0478 156.27 81.577 312.021 122.334 468h172.666v20
h-167.439c14.1047 53.9586 28.2406 107.948 42.4385 162c17.1333 70.2465 68.0249 101.598 136.329 101.598c11.4284 0 23.3443 -0.877678 35.6711 -2.5977z" />
    <glyph glyph-name="four" unicode="4" horiz-adv-x="892" 
d="M510 264v-242h-189v-22h199h199v22h-185v242h254v24h-254v434h-24l-446 -434l13 -24h433zM510 288h-408.565l408.565 401.285v-401.285z" />
    <glyph glyph-name="foursuperior" unicode="&#x2074;" horiz-adv-x="767" 
d="M434 297h12h187v21h-187v98h134v20h-134v286v9h-23l-317 -295l12 -20h305v-98h-188v-21h188h11zM423 700.543v-264.543h-283.562z" />
    <glyph glyph-name="fraction" unicode="&#x2044;" horiz-adv-x="746" 
d="M24 -93l575 850h-27l-575 -850h27z" />
    <glyph glyph-name="g" unicode="g" horiz-adv-x="810" 
d="M246.019 5.07128c40.7739 -11.0827 90.9251 -14.6675 141.981 -18.0713c151 -10 304 -3 304 -131c0 -122 -147 -139 -302 -139c-145 0 -278 32 -278 149c0 75.9216 60.3428 114.016 134.019 139.071zM220.323 13.6491
c-74.8701 -26.5612 -132.323 -68.5892 -132.323 -148.649c0 -137 142 -169 301 -169c169 0 328 17 325 162c0 143 -160 140 -322 150c-109 5 -215 8 -215 104c0 49.0476 34.6971 76.7431 80.595 98.1914c38.8526 -14.4823 85.1912 -21.1914 134.405 -21.1914
c136 0 248 51 248 173c0 42.75 -13.6059 77.2615 -37.1132 104.02c55.5452 21.1455 110.329 42.9797 165.113 63.9802l-12 20c-56.8292 -22.359 -112.791 -44.7181 -169.501 -67.8857c-44.5726 37.9405 -112.957 55.8857 -189.499 55.8857c-138 0 -250 -57 -250 -181
c0 -66.7547 35.2443 -111.482 89.669 -137.888c-48.6917 -22.8007 -83.669 -55.7245 -83.669 -110.112c0 -50.3998 26.4958 -78.6814 67.3225 -95.3509zM172 358c0 108 102 159 225 159c121 0 219 -48 219 -156c0 -104 -100 -151 -222 -151c-119 0 -222 42 -222 148z" />
    <glyph glyph-name="gbreve" unicode="&#x11f;" horiz-adv-x="810" 
d="M560 781c0 -77 -71 -102 -160 -102c-85 0 -152 28 -152 103h-22c0 -89 73 -124 172 -124c104 0 184 31 184 123h-22zM246.019 5.07128c40.7739 -11.0827 90.9251 -14.6675 141.981 -18.0713c151 -10 304 -3 304 -131c0 -122 -147 -139 -302 -139c-145 0 -278 32 -278 149
c0 75.9216 60.3428 114.016 134.019 139.071zM220.323 13.6491c-74.8701 -26.5612 -132.323 -68.5892 -132.323 -148.649c0 -137 142 -169 301 -169c169 0 328 17 325 162c0 143 -160 140 -322 150c-109 5 -215 8 -215 104c0 49.0476 34.6971 76.7431 80.595 98.1914
c38.8526 -14.4823 85.1912 -21.1914 134.405 -21.1914c136 0 248 51 248 173c0 42.75 -13.6059 77.2615 -37.1132 104.02c55.5452 21.1455 110.329 42.9797 165.113 63.9802l-12 20c-56.8292 -22.359 -112.791 -44.7181 -169.501 -67.8857
c-44.5726 37.9405 -112.957 55.8857 -189.499 55.8857c-138 0 -250 -57 -250 -181c0 -66.7547 35.2443 -111.482 89.669 -137.888c-48.6917 -22.8007 -83.669 -55.7245 -83.669 -110.112c0 -50.3998 26.4958 -78.6814 67.3225 -95.3509zM172 358c0 108 102 159 225 159
c121 0 219 -48 219 -156c0 -104 -100 -151 -222 -151c-119 0 -222 42 -222 148z" />
    <glyph glyph-name="gcommaaccent" unicode="&#x123;" horiz-adv-x="810" 
d="M469 814l-148 -181h33l141 181h-26zM246.019 5.07128c40.7739 -11.0827 90.9251 -14.6675 141.981 -18.0713c151 -10 304 -3 304 -131c0 -122 -147 -139 -302 -139c-145 0 -278 32 -278 149c0 75.9216 60.3428 114.016 134.019 139.071zM220.323 13.6491
c-74.8701 -26.5612 -132.323 -68.5892 -132.323 -148.649c0 -137 142 -169 301 -169c169 0 328 17 325 162c0 143 -160 140 -322 150c-109 5 -215 8 -215 104c0 49.0476 34.6971 76.7431 80.595 98.1914c38.8526 -14.4823 85.1912 -21.1914 134.405 -21.1914
c136 0 248 51 248 173c0 42.75 -13.6059 77.2615 -37.1132 104.02c55.5452 21.1455 110.329 42.9797 165.113 63.9802l-12 20c-56.8292 -22.359 -112.791 -44.7181 -169.501 -67.8857c-44.5726 37.9405 -112.957 55.8857 -189.499 55.8857c-138 0 -250 -57 -250 -181
c0 -66.7547 35.2443 -111.482 89.669 -137.888c-48.6917 -22.8007 -83.669 -55.7245 -83.669 -110.112c0 -50.3998 26.4958 -78.6814 67.3225 -95.3509zM172 358c0 108 102 159 225 159c121 0 219 -48 219 -156c0 -104 -100 -151 -222 -151c-119 0 -222 42 -222 148z" />
    <glyph glyph-name="germandbls" unicode="&#xdf;" horiz-adv-x="843" 
d="M550 87c106 18 191 69 191 186c0 116.615 -83.3059 171.976 -207.73 190.532c95.6102 18.5643 162.73 66.6169 162.73 164.468c0 127 -111 176 -253 176c-138 0 -242 -59 -242 -185v-597h-187v-22h187h12h11h189v22h-189v597c0 112 94 164 217 164
c129 0 233 -41 233 -156c0 -111 -114 -156 -253 -156v-17c147 0 298 -37 298 -182c0 -102 -86 -145 -176 -164z" />
    <glyph glyph-name="grave" unicode="`" horiz-adv-x="754" 
d="M373 591c-74 55 -148 111 -223 166h-36c74 -55 149 -111 223 -166h36z" />
    <glyph glyph-name="greater" unicode="&#x3e;" horiz-adv-x="1031" 
d="M911.789 305.777l-784.789 -257.777v-24l822 270v24c-278 88 -557 176 -835 264v-24c265.598 -84.0742 532.109 -168.148 797.789 -252.223z" />
    <glyph glyph-name="greaterequal" unicode="&#x2265;" horiz-adv-x="1141" 
d="M998 0h-836v22h836v-22zM961.665 401.5c-265.972 84.1648 -532.818 168.29 -799.665 251.5v23c279 -88 558 -175 836 -263v-23c-278 -88 -557 -176 -836 -264v23c266.847 84.1667 533.693 168.333 799.665 252.5z" />
    <glyph glyph-name="guillemotleft" unicode="&#xab;" horiz-adv-x="782" 
d="M150 265l244 -124v23l-220.908 112.265l222.908 108.735v23l-246 -120v-23zM387 265l245 -124v23l-221.906 112.311l221.906 108.689v23l-245 -120v-23z" />
    <glyph glyph-name="guillemotright" unicode="&#xbb;" horiz-adv-x="782" 
d="M592 265l-244 -124v23l220.954 112.288l-221.954 108.712v23l245 -120v-23zM355 265l-245 -124v23l221.906 112.311l-221.906 108.689v23l245 -120v-23z" />
    <glyph glyph-name="guilsinglleft" unicode="&#x2039;" horiz-adv-x="686" 
d="M186.324 276.503c222.783 70.5864 43.8944 14.6186 309.676 97.4968v23c-279 -88 -68 -21 -346 -109v-23c278 -88 67 -21 346 -109v23c-265.782 83.8308 -86.8933 27.0006 -309.676 97.5032z" />
    <glyph glyph-name="guilsinglright" unicode="&#x203a;" horiz-adv-x="686" 
d="M499.676 276.503c-222.783 70.5864 -43.8944 14.6186 -309.676 97.4968v23c279 -88 68 -21 346 -109v-23c-278 -88 -67 -21 -346 -109v23c265.782 83.8308 86.8933 27.0006 309.676 97.5032z" />
    <glyph glyph-name="h" unicode="h" horiz-adv-x="921" 
d="M225 399.78v400.22h-12h-12h-187v-22h187v-756h-187v-22h187h12h12h174v22h-174v341.697c53.0019 97.9015 160.625 152.303 272 152.303c126 0 206 -55 206 -175v-319h-175v-22h175h11h13h186v22h-186v322c0 133 -88 194 -227 194
c-111.799 0 -220.398 -45.5963 -275 -138.22z" />
    <glyph glyph-name="hungarumlaut" unicode="&#x2dd;" horiz-adv-x="702" 
d="M368 659l148 181h-33l-141 -181h26zM204 659l148 181h-33l-141 -181h26z" />
    <glyph glyph-name="hyphen" unicode="-" horiz-adv-x="739" 
d="M173 260h393v24h-393v-24z" />
    <glyph glyph-name="i" unicode="i" horiz-adv-x="471" 
d="M252 670h29c0 -9 -7 -13 -15 -13c-9 0 -14 5 -14 13zM252 670h29c0 9 -7 14 -15 14c-9 0 -14 -6 -14 -14zM255 511v-489l-187 -2.84217e-14v-22h187h12h14h172v22h-172v511h-14h-12h-187v-22h187z" />
    <glyph glyph-name="iacute" unicode="&#xed;" horiz-adv-x="471" 
d="M190 659c75 55 149 111 223 166h-36c-75 -55 -149 -111 -223 -166h36zM255 511v-489l-187 -2.84217e-14v-22h187h12h14h172v22h-172v511h-14h-12h-187v-22h187z" />
    <glyph glyph-name="icircumflex" unicode="&#xee;" horiz-adv-x="565" 
d="M557 658c-74 55 -148 111 -223 166h-8h-28h-9c-75 -55 -149 -111 -223 -166h37c69.3646 51.5548 138.729 103.988 208.917 155.653c69.4747 -51.6649 139.718 -104.098 209.083 -155.653h36zM301 511v-489l-187 -2.84217e-14v-22h187h12h14h172v22h-172v511h-14h-12h-187
v-22h187z" />
    <glyph glyph-name="idieresis" unicode="&#xef;" horiz-adv-x="471" 
d="M328 667h38c0 -11 -8 -18 -20 -18c-11 0 -18 7 -18 18zM328 667h38c0 11 -8 18 -20 18c-11 0 -18 -7 -18 -18zM166 667h38c0 -11 -8 -18 -20 -18c-11 0 -18 7 -18 18zM166 667h38c0 11 -8 18 -20 18c-11 0 -18 -7 -18 -18zM255 511v-489l-187 -2.84217e-14v-22h187h12h14
h172v22h-172v511h-14h-12h-187v-22h187z" />
    <glyph glyph-name="igrave" unicode="&#xec;" horiz-adv-x="471" 
d="M354 658c-74 55 -148 111 -223 166h-36c74 -55 148 -111 223 -166h36zM255 511v-489l-187 -2.84217e-14v-22h187h12h14h172v22h-172v511h-14h-12h-187v-22h187z" />
    <glyph glyph-name="imacron" unicode="&#x12b;" horiz-adv-x="471" 
d="M410 678h-304v-21h304v21zM255 511v-489l-187 -2.84217e-14v-22h187h12h14h172v22h-172v511h-14h-12h-187v-22h187z" />
    <glyph glyph-name="infinity" unicode="&#x221e;" horiz-adv-x="1258" 
d="M604.946 408.75c-57.1235 -81.1283 -127.859 -153.75 -225.946 -153.75c-106 0 -203 54 -203 150c0 95 100 144 206 144c94.9283 0 170.152 -60.9891 222.946 -140.25zM618.565 427.772c-59.0846 80.2649 -137.361 141.228 -236.565 141.228c-118 0 -229 -57 -229 -164
c0 -109 108 -171 226 -171c102.34 0 179.98 70.4387 239.921 154.445c62.1119 -85.1545 145.138 -152.445 249.079 -152.445c123 0 239 57 239 168c0 109 -117 164 -239 164c-102.168 0 -187.924 -58.3497 -249.435 -140.228zM632.572 408.121
c56.7185 80.7992 136.706 138.879 235.428 138.879c110 0 216 -45 216 -143s-105 -147 -216 -147c-100.809 0 -176.249 68.5885 -235.428 151.121z" />
    <glyph glyph-name="integral" unicode="&#x222b;" horiz-adv-x="595" 
d="M573 828c-13.7148 2.078 -26.9882 3.11966 -39.7458 3.11966c-79.3325 0 -138.718 -40.2803 -160.254 -122.12c-56 -216 -113 -432 -169 -648c-18.907 -71.3308 -70.3114 -107.948 -140.884 -107.948c-11.5452 0 -23.6033 0.979982 -36.1161 2.94828l-5 -21
c13.3725 -1.83544 26.3152 -2.75991 38.7697 -2.75991c82.5435 0 143.639 40.608 166.23 125.76c57 217 113 433 170 650c17.99 70.2465 68.2704 101.598 136.382 101.598c11.3962 0 23.2915 -0.877678 35.6183 -2.5977z" />
    <glyph glyph-name="iogonek" unicode="&#x12f;" horiz-adv-x="471" 
d="M252 670h29c0 -9 -7 -13 -15 -13c-9 0 -14 5 -14 13zM252 670h29c0 9 -7 14 -15 14c-9 0 -14 -6 -14 -14zM255 511v-489l-187 -2.84217e-14v-22h127.553c-40.4262 -17.1703 -69.5527 -39.9215 -69.5527 -88c0 -62 48 -95 115 -95c40 0 66 11 102 28l-10 16
c-32 -15 -56 -23 -90 -23c-55 0 -95 24 -95 74c0 54.8525 44.8971 69.643 96.8034 88h10.1966h12h14h172v22h-172v511h-14h-12h-187v-22h187z" />
    <glyph glyph-name="j" unicode="j" horiz-adv-x="458" 
d="M14 -301c11 0 25 -3 40 -3c115 0 210 51 210 162v675h-14h-10h-189v-22h189v-653c0 -96 -84 -140 -186 -140c-12 0 -28 2 -36 3c-3 -22 0 0 -4 -22zM239 670h29c0 -9 -7 -13 -16 -13c-8 0 -13 5 -13 13zM239 670h29c0 9 -7 14 -16 14c-8 0 -13 -6 -13 -14z" />
    <glyph glyph-name="k" unicode="k" horiz-adv-x="949" 
d="M258 275c143.612 78.6667 288.062 157.333 432.582 236h175.418v22h-135h-42h-4h-186v-22h149.581l-422.581 -230.013v519.013h-10h-14h-186v-22h186v-756h-188v-22h188h11h13h170v22h-170v246.948c165.249 -90.8977 328.668 -179.923 494 -268.948h47h152v22h-192.685
c-156.432 84.5255 -312.797 168.339 -468.315 253z" />
    <glyph glyph-name="kcommaaccent" unicode="&#x137;" horiz-adv-x="949" 
d="M413 -318l148 181h-33l-141 -181h26zM258 275c143.612 78.6667 288.062 157.333 432.582 236h175.418v22h-135h-42h-4h-186v-22h149.581l-422.581 -230.013v519.013h-10h-14h-186v-22h186v-756h-188v-22h188h11h13h170v22h-170v246.948
c165.249 -90.8977 328.668 -179.923 494 -268.948h47h152v22h-192.685c-156.432 84.5255 -312.797 168.339 -468.315 253z" />
    <glyph glyph-name="l" unicode="l" horiz-adv-x="429" 
d="M226 22v778h-8h-16h-183v-22h183v-756h-186v-22h186h13h11h189v22h-189z" />
    <glyph glyph-name="lacute" unicode="&#x13a;" horiz-adv-x="429" 
d="M140 908c75 55 149 111 223 166h-36c-75 -55 -149 -111 -223 -166h36zM226 22v778h-8h-16h-183v-22h183v-756h-186v-22h186h13h11h189v22h-189z" />
    <glyph glyph-name="lcaron" unicode="&#x13e;" horiz-adv-x="546" 
d="M362 620l148 181h-33l-141 -181h26zM226 22v778h-8h-16h-183v-22h183v-756h-186v-22h186h13h11h189v22h-189z" />
    <glyph glyph-name="lcommaaccent" unicode="&#x13c;" horiz-adv-x="429" 
d="M133 -318l148 181h-33l-141 -181h26zM226 22v778h-8h-16h-183v-22h183v-756h-186v-22h186h13h11h189v22h-189z" />
    <glyph glyph-name="less" unicode="&#x3c;" horiz-adv-x="1033" 
d="M118.271 300.242l784.729 257.758v24l-822 -270v-24c279 -88 557 -176 836 -264v24c-266.574 84.0808 -532.236 168.162 -798.729 252.242z" />
    <glyph glyph-name="lessequal" unicode="&#x2264;" horiz-adv-x="1141" 
d="M144 0h835v22h-835v-22zM180.335 401.5c265.972 84.1648 532.818 168.29 799.665 251.5v23c-279 -88 -558 -175 -836 -263v-23c278 -88 557 -176 836 -264v23c-266.847 84.1667 -533.693 168.333 -799.665 252.5z" />
    <glyph glyph-name="litre" horiz-adv-x="499" 
d="M260 22v778h-8h-16h-183v-22h183v-756h-186v-22h186h13h11h189v22h-189z" />
    <glyph glyph-name="logicalnot" unicode="&#xac;" horiz-adv-x="1021" 
d="M821 321h-601v-24h601v-144h24v144v24h-24z" />
    <glyph glyph-name="logo" horiz-adv-x="2520" 
d="M1886 58c90 -42 183 -63 281 -63c161 0 283 35 283 174c0 135 -130 165 -264 213c-119 42 -241 65 -241 181c0 103 104 143 224 143c89.9611 0 157.94 -20.1501 239 -55.1909v-107.809h22v120c-89 40 -162 64 -260 64c-135 0 -249 -48 -249 -165
c0 -128 125 -155 251 -200c127 -44 254 -72 254 -193c0 -123 -112 -150 -258 -150c-90.7249 0 -176.792 19.5622 -260 55.0902v103.91h-22v-120zM1172 722h-10h-15h-184v-22h184v-678h-184v-22h184h15h10h260c260 0 421 106 421 350c0 258 -166 372 -438 372h-243zM1172 700
h241c258 0 417 -107 417 -350c0 -229 -151 -328 -395 -328h-263v678zM483 698v-676h-188v-22h188h11h13h186v22h-186v676h385v-108h21v108v12v12h-837v-12v-12v-108h22v108h385z" />
    <glyph glyph-name="lozenge" unicode="&#x25ca;" horiz-adv-x="703" 
d="M339 122h-2c-78 115 -157 229 -235 344h25c74.1857 109.376 149.276 217.848 223.55 327.136c72.8992 -106.405 152.331 -221.73 225.45 -327.136h25c-77 -111 -160 -233 -237 -344h-2h-23zM350.55 138.864c72.8992 106.405 152.331 221.73 225.45 327.136h25
c-77 111 -160 233 -237 344h-2h-23h-2c-78 -115 -157 -229 -235 -344h25c74.1857 -109.376 149.276 -217.848 223.55 -327.136z" />
    <glyph glyph-name="lslash" unicode="&#x142;" horiz-adv-x="442" 
d="M235 22v379.176l182 152.824v24l-182 -152.824v374.824h-8h-16h-183v-22h183v-372.977l-187 -157.023v-24l187 157.023v-359.023h-186v-22h186h13h11h189v22h-189z" />
    <glyph glyph-name="m" unicode="m" horiz-adv-x="1372" 
d="M279 401.206v131.794h-12h-12h-187v-22h187v-489l-187 -2.84217e-14v-22h187h12h12h160v22h-160v341.938c51.4076 98.654 133.586 152.062 242 152.062c121 0 182 -52 182 -175v-319h-160v-22h160h12h12h160v22h-160v322c0 6.54714 -0.15517 12.9176 -0.466092 19.1131
c50.5796 98.2694 134.781 152.887 243.466 152.887c122 0 181 -52 181 -175v-319h-158v-22h158h14h11h188v22h-188v322c0 134 -66 194 -201 194c-111.046 0 -202.209 -48.0527 -251.619 -143.404c-15.354 98.6126 -79.7395 143.404 -196.381 143.404
c-109.444 0 -197.512 -45.1285 -248 -136.794z" />
    <glyph glyph-name="macron" unicode="&#xaf;" horiz-adv-x="561" 
d="M347 680h-304v-21h304v21z" />
    <glyph glyph-name="macronmod" horiz-adv-x="525" 
d="M413 680h-304v-21h304v21z" />
    <glyph glyph-name="minus" unicode="&#x2212;" horiz-adv-x="977" 
d="M176 297h625v24h-625v-24z" />
    <glyph glyph-name="multiply" unicode="&#xd7;" horiz-adv-x="775" 
d="M387.519 326l-211.519 212l-17 -17l211.5 -211.981l-212.5 -212.019l17 -17l212.481 212l211.519 -212l17 17l-211.5 211.981l212.5 212.019l-17 17z" />
    <glyph glyph-name="mumath" horiz-adv-x="1013" 
d="M740 157.204c-56.5445 -80.1194 -151.388 -140.204 -251 -140.204c-131 0 -218 47 -218 170v346h-1h-11h-12h-187v-22h187v-326v-485h23v385.976c36.4386 -64.3333 113.903 -90.9757 216 -90.9757c99.0822 0 194.18 53.3851 254 128.149v-123.149h12h12h173v22h-173v511
h-12h-12h-187v-22h187v-353.796z" />
    <glyph glyph-name="n" unicode="n" horiz-adv-x="975" 
d="M255 511v-489l-187 -2.84217e-14v-22h187h12h12h174v22h-174v341.708c52.8856 97.8947 158.629 152.292 270 152.292c126 0 208 -55 208 -175v-319h-174v-22h174h11h14h185v22h-185v322c0 133 -89 194 -228 194c-111.799 0 -220.398 -45.5963 -275 -138.22v133.22h-12
h-12h-187v-22h187z" />
    <glyph glyph-name="nacute" unicode="&#x144;" horiz-adv-x="975" 
d="M447 661c75 55 149 111 223 166h-36c-75 -55 -149 -111 -223 -166h36zM255 511v-489l-187 -2.84217e-14v-22h187h12h12h174v22h-174v341.708c52.8856 97.8947 158.629 152.292 270 152.292c126 0 208 -55 208 -175v-319h-174v-22h174h11h14h185v22h-185v322
c0 133 -89 194 -228 194c-111.799 0 -220.398 -45.5963 -275 -138.22v133.22h-12h-12h-187v-22h187z" />
    <glyph glyph-name="ncaron" unicode="&#x148;" horiz-adv-x="975" 
d="M277 825c74 -55 148 -111 223 -166h9h27h9c75 55 149 111 223 166h-36c-70.4393 -51.6555 -139.996 -104.193 -209.5 -155.956c-69.5035 51.7627 -139.061 104.3 -209.5 155.956h-36zM255 511v-489l-187 -2.84217e-14v-22h187h12h12h174v22h-174v341.708
c52.8856 97.8947 158.629 152.292 270 152.292c126 0 208 -55 208 -175v-319h-174v-22h174h11h14h185v22h-185v322c0 133 -89 194 -228 194c-111.799 0 -220.398 -45.5963 -275 -138.22v133.22h-12h-12h-187v-22h187z" />
    <glyph glyph-name="ncommaaccent" unicode="&#x146;" horiz-adv-x="975" 
d="M467 -318l148 181h-33l-141 -181h26zM255 511v-489l-187 -2.84217e-14v-22h187h12h12h174v22h-174v341.708c52.8856 97.8947 158.629 152.292 270 152.292c126 0 208 -55 208 -175v-319h-174v-22h174h11h14h185v22h-185v322c0 133 -89 194 -228 194
c-111.799 0 -220.398 -45.5963 -275 -138.22v133.22h-12h-12h-187v-22h187z" />
    <glyph glyph-name="nine" unicode="9" horiz-adv-x="839" 
d="M690.981 447.328c-17.6218 -277.814 -261.695 -399.843 -566.981 -439.328l4 -23c332 39 587 183 587 496c0 166 -128 246 -307 246c-155 0 -268 -66 -268 -208c0 -144 115 -206 272 -206c123.597 0 222.684 40.3233 278.981 134.328zM691.98 483.366
c-63.6146 -106.563 -151.345 -147.366 -277.98 -147.366c-143 0 -250 54 -250 184c0 126 105 182 243 182c163.769 0 283.207 -69.9446 284.98 -218.634z" />
    <glyph glyph-name="notequal" unicode="&#x2260;" horiz-adv-x="1157" 
d="M490.27 206l-156.27 -230h27l156.27 230h487.73v23h-472.104l135.207 199h336.896v23h-321.27l156.27 230h-27l-156.27 -230h-500.73v-23h485.104l-135.207 -199h-349.896v-23h334.27z" />
    <glyph glyph-name="ntilde" unicode="&#xf1;" horiz-adv-x="975" 
d="M777 780c-19 -57 -44 -103 -102 -103c-50 0 -84 16 -122 49c-40 34 -72 55 -124 55c-73 0 -115 -46 -134 -119l19 -6c18 63 52 104 115 104c45 0 73 -18 107 -48c43 -36 81 -56 137 -56c69 0 101 52 124 120zM255 511v-489l-187 -2.84217e-14v-22h187h12h12h174v22h-174
v341.708c52.8856 97.8947 158.629 152.292 270 152.292c126 0 208 -55 208 -175v-319h-174v-22h174h11h14h185v22h-185v322c0 133 -89 194 -228 194c-111.799 0 -220.398 -45.5963 -275 -138.22v133.22h-12h-12h-187v-22h187z" />
    <glyph glyph-name="nullsuperior" horiz-adv-x="752" 
d="M156 500c0 -131 87 -208 221 -208c133 0 219 78 219 210c0 130 -86 206 -219 206c-134 0 -221 -77 -221 -208zM179 500c0 117 78 186 197 186c0.850956 0.00715089 1.69976 0.0107223 2.54641 0.0107223c117.551 0 193.454 -68.8474 193.454 -185.011
c0 -117 -75 -188 -194 -188c-121 0 -199 69 -199 187z" />
    <glyph glyph-name="numbersign" unicode="#" horiz-adv-x="954" 
d="M752.341 513l89.6589 209h-25l-89.6589 -209h-358.073l88.7322 209h-24l-88.4231 -209h-143.577l-7 -21h141.692l-94.3462 -223h-138.346l-8 -22h137.038l-85.0385 -201h23l85.3358 201h356.894l-89.2299 -208h25l89.2299 208h112.77l6 22h-109.332l95.6647 223h105.668
l7 21h-103.659zM718.332 492l-95.6647 -223h-356.992l94.676 223h357.98z" />
    <glyph glyph-name="o" unicode="o" horiz-adv-x="862" 
d="M128 268c0 -176 120 -273 302 -273c183 0 304 95 304 271s-123 272 -307 272c-180 0 -299 -97 -299 -270zM152 268c0 162 110 249 274 249c170 0 283 -88 283 -251c0 -162 -111 -249 -278 -249c-169 0 -279 89 -279 251z" />
    <glyph glyph-name="oacute" unicode="&#xf3;" horiz-adv-x="862" 
d="M351 660c75 55 149 111 223 166h-36c-75 -55 -149 -111 -223 -166h36zM128 268c0 -176 120 -273 302 -273c183 0 304 95 304 271s-123 272 -307 272c-180 0 -299 -97 -299 -270zM152 268c0 162 110 249 274 249c170 0 283 -88 283 -251c0 -162 -111 -249 -278 -249
c-169 0 -279 89 -279 251z" />
    <glyph glyph-name="ocircumflex" unicode="&#xf4;" horiz-adv-x="862" 
d="M672 659c-74 55 -148 111 -223 166h-9h-27h-9c-75 -55 -149 -111 -223 -166h36c70.4393 51.6555 139.996 104.193 209.5 155.956c69.5035 -51.7627 139.061 -104.3 209.5 -155.956h36zM128 268c0 -176 120 -273 302 -273c183 0 304 95 304 271s-123 272 -307 272
c-180 0 -299 -97 -299 -270zM152 268c0 162 110 249 274 249c170 0 283 -88 283 -251c0 -162 -111 -249 -278 -249c-169 0 -279 89 -279 251z" />
    <glyph glyph-name="odieresis" unicode="&#xf6;" horiz-adv-x="862" 
d="M489 668h38c0 -11 -8 -18 -20 -18c-11 0 -18 7 -18 18zM489 668h38c0 11 -8 18 -20 18c-11 0 -18 -7 -18 -18zM327 668h38c0 -11 -8 -18 -20 -18c-11 0 -18 7 -18 18zM327 668h38c0 11 -8 18 -20 18c-11 0 -18 -7 -18 -18zM128 268c0 -176 120 -273 302 -273
c183 0 304 95 304 271s-123 272 -307 272c-180 0 -299 -97 -299 -270zM152 268c0 162 110 249 274 249c170 0 283 -88 283 -251c0 -162 -111 -249 -278 -249c-169 0 -279 89 -279 251z" />
    <glyph glyph-name="oe" unicode="&#x153;" horiz-adv-x="1384" 
d="M1230 295h-493.729c5.7121 145.815 101.466 221 251.729 221c146 0 242 -68 242 -211v-10zM1253 295v8c0 158 -103 235 -263 235c-142.561 0 -240.639 -60.4682 -269.319 -179.087c-36.4708 116.59 -145.22 179.087 -293.681 179.087c-180 0 -299 -97 -299 -270
c0 -176 120 -273 302 -273c152.59 0 262.074 66.0505 294.247 190.035c35.2002 -125.792 144.127 -190.035 298.753 -190.035c92 0 152 22 228 79l-15 16c-71 -52 -127 -73 -213 -73c-172.298 0 -283.526 87.2421 -286.92 256h516.92v22zM152 268c0 162 110 249 274 249
c170 0 283 -88 283 -251c0 -162 -111 -249 -278 -249c-169 0 -279 89 -279 251z" />
    <glyph glyph-name="ogonek" unicode="&#x2db;" horiz-adv-x="458" 
d="M189 16c-74 -26 -143 -40 -143 -114c0 -62 48 -95 115 -95c40 0 67 11 103 28l-11 16c-31 -15 -55 -23 -90 -23c-54 0 -95 24 -95 74c0 66 66 74 129 100z" />
    <glyph glyph-name="ograve" unicode="&#xf2;" horiz-adv-x="862" 
d="M515 659c-74 55 -148 111 -223 166h-36c74 -55 148 -111 223 -166h36zM128 268c0 -176 120 -273 302 -273c183 0 304 95 304 271s-123 272 -307 272c-180 0 -299 -97 -299 -270zM152 268c0 162 110 249 274 249c170 0 283 -88 283 -251c0 -162 -111 -249 -278 -249
c-169 0 -279 89 -279 251z" />
    <glyph glyph-name="ohungarumlaut" unicode="&#x151;" horiz-adv-x="862" 
d="M475 594l148 181h-33l-141 -181h26zM311 594l148 181h-33l-141 -181h26zM128 268c0 -176 120 -273 302 -273c183 0 304 95 304 271s-123 272 -307 272c-180 0 -299 -97 -299 -270zM152 268c0 162 110 249 274 249c170 0 283 -88 283 -251c0 -162 -111 -249 -278 -249
c-169 0 -279 89 -279 251z" />
    <glyph glyph-name="omacron" unicode="&#x14d;" horiz-adv-x="862" 
d="M571 679h-304v-21h304v21zM128 268c0 -176 120 -273 302 -273c183 0 304 95 304 271s-123 272 -307 272c-180 0 -299 -97 -299 -270zM152 268c0 162 110 249 274 249c170 0 283 -88 283 -251c0 -162 -111 -249 -278 -249c-169 0 -279 89 -279 251z" />
    <glyph glyph-name="omegamath" horiz-adv-x="1033" 
d="M751.888 21c117.376 76.4306 179.112 180.859 179.112 327c0 237 -171 378 -415 378c-245 0 -415 -143 -415 -381c0 -143.391 63.3663 -242.849 176.897 -324h-241.897v-21h273l13 21c-125 80 -197 177 -197 324c0 224 159 360 389 360c231 0 394 -133 394 -357
c0 -150 -75 -251 -205 -327l14 -21h276v21h-241.112z" />
    <glyph glyph-name="one" unicode="1" horiz-adv-x="630" 
d="M363 722l-271 -172l14 -19l257 161.437v-670.437h-184v-22h184h15h9h190v22h-190v700h-24z" />
    <glyph glyph-name="onehalf" unicode="&#xbd;" horiz-adv-x="1455" 
d="M1005 220c42 52 94 75 167 75c82 0 147 -26 147 -98c0 -63 -52 -85 -106 -120c-89 -51 -177 -103 -265 -154v-21h421v121h-21v-100h-355.462c78.4874 45.5429 156.975 91.6517 235.462 137c59 40 113 68 113 138c0 84 -74 118 -168 118c-81 0 -142 -22 -186 -84zM453 -93
l575 850h-27l-575 -850h27zM261 760l-177 -109l12 -20l165 104.441v-362.441h-145v-21h144h1h161v21h-138v377v10h-23z" />
    <glyph glyph-name="onequarter" unicode="&#xbc;" horiz-adv-x="1417" 
d="M459 -93l575 850h-27l-575 -850h27zM1172 -107h12h187v21h-187v98l134 7.10543e-15v20h-134v286v9h-23l-317 -295l12 -20h305v-98h-188v-21h188h11zM1161 296.543v-264.543h-283.562zM267 760l-177 -109l12 -20l165 104.441v-362.441h-145v-21h144h1h161v21h-138v377v10
h-23z" />
    <glyph glyph-name="onesuperior" unicode="&#xb9;" horiz-adv-x="636" 
d="M337 705l-177 -109l12 -20l165 104.441v-362.441h-145v-21h144h1h161v21h-138v377v10h-23z" />
    <glyph glyph-name="ordfeminine" unicode="&#xaa;" horiz-adv-x="724" 
d="M456 628.895c-61.2897 -5.91627 -106.726 -6.28393 -170 -12.8946c-72 -7 -128 -36 -128 -103c0 -68 60 -95 136 -95c68.786 0 122.786 33.2684 162 79.4639v-71.4639h15h10h87v22h-87v232c0 71 -71 85 -153 85c-62 0 -121 -22 -157 -52v-73h22v61.5579
c32.9439 21.8726 80.3448 41.4421 132 41.4421c70 0 131 -10 131 -70v-44.1054zM456 524.819c-35.9916 -47.2342 -88.8893 -84.8192 -157 -84.8192c-64 0 -117 18 -117 75c0 53 45 75 103 81c62.9365 6.57545 109.99 7.85663 171 13.7899v-84.9707z" />
    <glyph glyph-name="ordmasculine" unicode="&#xba;" horiz-adv-x="708" 
d="M156 599c0 -116 82 -183 202 -183c116 0 194 68 194 181c0 111 -81 172 -197 172s-199 -60 -199 -170zM180 599c0 97 72 149 174 149s173 -54 173 -151c0 -99 -67 -159 -168 -159c-106 0 -179 59 -179 161z" />
    <glyph glyph-name="oslash" unicode="&#xf8;" horiz-adv-x="862" 
d="M128 268c0 -115.62 51.7867 -197.146 138.917 -239.477l-63.917 -94.5232l18 -13l66.4307 98.5364c41.2259 -16.2066 89.2355 -24.5364 142.569 -24.5364c183 0 304 95 304 271c0 108.258 -46.5375 186.249 -125.183 230.247l61.1835 90.7532l-18 11l-62.2413 -92.045
c-45.758 21.1597 -100.8 32.045 -162.759 32.045c-180 0 -299 -97 -299 -270zM152 268c0 162 110 249 274 249c57.6292 0 108.708 -10.1128 151.055 -29.8318l-297.113 -439.383c-80.476 38.8811 -127.942 113.798 -127.942 220.215zM596.065 477.333
c71.0821 -40.7127 112.935 -112.134 112.935 -211.333c0 -162 -111 -249 -278 -249c-48.8399 0 -92.7522 7.43303 -130.506 21.9129z" />
    <glyph glyph-name="otilde" unicode="&#xf5;" horiz-adv-x="862" 
d="M654 780c-19 -57 -44 -103 -102 -103c-50 0 -84 16 -122 49c-40 34 -72 55 -124 55c-73 0 -115 -46 -134 -119l19 -6c18 63 52 104 115 104c45 0 73 -18 107 -48c43 -36 81 -56 137 -56c69 0 101 52 124 120zM128 268c0 -176 120 -273 302 -273c183 0 304 95 304 271
s-123 272 -307 272c-180 0 -299 -97 -299 -270zM152 268c0 162 110 249 274 249c170 0 283 -88 283 -251c0 -162 -111 -249 -278 -249c-169 0 -279 89 -279 251z" />
    <glyph glyph-name="p" unicode="p" horiz-adv-x="918" 
d="M224 453.109v79.8913h-11h-13h-186v-22l186 0.934673v-789.935h-188v-21h188v-1h11h13h173v22l-173 -0.930108v373.744c83.6838 -65.4827 164.68 -99.8143 274 -99.8143c173 0 292 111 291 282c0 163 -122 261 -289 261c-109.499 0 -211.627 -35.2139 -276 -84.8913z
M224 118.163v311.059c58.6277 49.8775 163.585 86.7779 275 86.7779c156 0 267 -90 267 -240c0.0699105 -2.77894 0.104692 -5.54048 0.104692 -8.28434c0 -152.736 -107.773 -250.745 -263.464 -250.745c-1.54211 0 -3.08892 0.00961534 -4.64038 0.0288881
c-108.894 0 -187.953 35.6095 -274 101.163z" />
    <glyph glyph-name="paragraph" unicode="&#xb6;" horiz-adv-x="970" 
d="M804 0v722h-12h-13h-172h-14h-4h-7h-165c-179 0 -325 -68 -325 -228c0 -147 129 -211 292 -214c71.3348 0 132.098 16.739 198 41.1209v-299.121h-188v-22h188h11h14h172h13h12zM582 700v-355.935c-69.6177 -26.801 -124.815 -42.0652 -201 -42.0652
c-146 0 -264 58 -264 191c0 149 136 207 303 207h162zM607 22v678h172v-678h-172z" />
    <glyph glyph-name="parenleft" unicode="(" horiz-adv-x="490" 
d="M460 -235c-205 149 -319 308 -319 561c0 252 115 409 317 562l-14 15c-211 -154 -328 -317 -328 -577s118 -422 330 -577z" />
    <glyph glyph-name="parenright" unicode=")" horiz-adv-x="502" 
d="M41 -267c216 163 347 324 347 594c0 264 -124 424 -342 576l-14 -16c209 -151 330 -305 330 -561c0 -261 -131 -415 -336 -578z" />
    <glyph glyph-name="partialdiff" unicode="&#x2202;" horiz-adv-x="787" 
d="M617.998 261.702c11.4054 48.7018 17.002 102.246 17.002 158.298c0 164 -86 286 -241 286c-63 0 -109 -20 -167 -46l-10 16c61 32 109 51 178 51c169 0 262 -130 262 -307c0 -234.384 -85.5499 -424.004 -294.352 -424.004
c-0.548587 0 -1.09802 0.0013089 -1.64831 0.00392932c-142 0 -245 76 -245 211c0 140 110 216 258 216c120.468 0 212.69 -54.9244 243.998 -161.298zM608.562 226.801c-23.4323 115.98 -112.284 176.199 -233.562 176.199c-129 0 -236 -67 -236 -193
c0 -123 100 -193 222 -193c127.947 0 209.08 85.2014 247.562 209.801z" />
    <glyph glyph-name="percent" unicode="%" horiz-adv-x="1484" 
d="M498 -93l575 850h-27l-575 -850h27zM962 108c0 -131 87 -208 221 -208c133 0 219 78 219 210c0 130 -86 206 -219 206c-134 0 -221 -77 -221 -208zM985 108c0 117 78 186 197 186c0.850956 0.00715089 1.69976 0.0107223 2.54641 0.0107223
c117.551 0 193.454 -68.8474 193.454 -185.011c0 -117 -75 -188 -194 -188c-121 0 -199 69 -199 187zM82 552c0 -131 87 -208 221 -208c133 0 219 78 219 210c0 130 -86 206 -219 206c-134 0 -221 -77 -221 -208zM105 552c0 117 78 186 197 186
c0.850956 0.00715089 1.69976 0.0107223 2.54641 0.0107223c117.551 0 193.454 -68.8474 193.454 -185.011c0 -117 -75 -188 -194 -188c-121 0 -199 69 -199 187z" />
    <glyph glyph-name="period" unicode="." horiz-adv-x="374" 
d="M168 12h38c0 -11 -8 -18 -20 -18c-11 0 -18 7 -18 18zM168 12h38c0 11 -8 18 -20 18c-11 0 -18 -7 -18 -18z" />
    <glyph glyph-name="periodcentered" unicode="&#xb7;" horiz-adv-x="382" 
d="M172 440h38c0 -11 -8 -18 -20 -18c-11 0 -18 7 -18 18zM172 440h38c0 11 -8 18 -20 18c-11 0 -18 -7 -18 -18z" />
    <glyph glyph-name="perthousand" unicode="&#x2030;" horiz-adv-x="2017" 
d="M498 -93l575 850h-27l-575 -850h27zM1499 108c0 -131 87 -208 221 -208c133 0 219 78 219 210c0 130 -86 206 -219 206c-134 0 -221 -77 -221 -208zM1522 108c0 117 78 186 197 186c0.850956 0.00715089 1.69976 0.0107223 2.54641 0.0107223
c117.551 0 193.454 -68.8474 193.454 -185.011c0 -117 -75 -188 -194 -188c-121 0 -199 69 -199 187zM962 108c0 -131 87 -208 221 -208c133 0 219 78 219 210c0 130 -86 206 -219 206c-134 0 -221 -77 -221 -208zM985 108c0 117 78 186 197 186
c0.850956 0.00715089 1.69976 0.0107223 2.54641 0.0107223c117.551 0 193.454 -68.8474 193.454 -185.011c0 -117 -75 -188 -194 -188c-121 0 -199 69 -199 187zM82 552c0 -131 87 -208 221 -208c133 0 219 78 219 210c0 130 -86 206 -219 206c-134 0 -221 -77 -221 -208z
M105 552c0 117 78 186 197 186c0.850956 0.00715089 1.69976 0.0107223 2.54641 0.0107223c117.551 0 193.454 -68.8474 193.454 -185.011c0 -117 -75 -188 -194 -188c-121 0 -199 69 -199 187z" />
    <glyph glyph-name="pi" unicode="&#x3c0;" horiz-adv-x="703" 
d="M208 565h289v-547h24v547h140v24h-625v-24h148v-547h24v547z" />
    <glyph glyph-name="plus" unicode="+" horiz-adv-x="849" 
d="M432 321v267h-25v-267h-295v-24h295v-279h25v279h305v24h-305z" />
    <glyph glyph-name="plusminus" unicode="&#xb1;" horiz-adv-x="917" 
d="M465 321v267h-24v-267h-295v-24h295v-255h-295v-24h295h24h306v24h-306v255h306v24h-306z" />
    <glyph glyph-name="product" unicode="&#x220f;" horiz-adv-x="1225" 
d="M300 800h-8h-3h-12h-184v-21h184v-758h-187v-21h187h12h11h188v21h-188v758h622v-758h-187v-21h187h12h11h188v21h-188v758h187v21h-187h-15h-6h-2h-622z" />
    <glyph glyph-name="q" unicode="q" horiz-adv-x="910" 
d="M696 434.051v-303.47c-73.0065 -73.9515 -169.238 -113.582 -271 -113.582c-160 0 -276 90 -276 248s112 251 273 251c95.5777 0 193.896 -31.9728 274 -81.9487zM696 101.851v-380.776l-184 0.924623v-22h184h15h11h174v22l-174 -0.940541v789.941h174v22h-174h-11h-15
v-74.7847c-79.1015 50.364 -178.732 79.7847 -275 79.7847c-176 0 -297 -102 -297 -274s125 -269 301 -269c101.713 0 199.227 39.4642 271 106.851z" />
    <glyph glyph-name="question" unicode="?" horiz-adv-x="633" 
d="M136 672c38 11 66 16 105 16c132 0 239 -51 239 -169c0 -129 -119 -185 -263 -185v-23v-89h25v89.5627c145.464 6.63273 261 72.1056 261 207.437c0 130 -118 191 -260 191c-42 0 -74 -6 -115 -16zM216 11h28c0 -9 -5 -13 -14 -13s-14 5 -14 13zM216 11h28
c0 9 -5 14 -14 14s-14 -6 -14 -14z" />
    <glyph glyph-name="questiondown" unicode="&#xbf;" horiz-adv-x="633" 
d="M497 36c-38 -11 -66 -16 -105 -16c-132 0 -239 51 -239 169c0 129 119 185 263 185v23v89h-25v-89.5627c-145.464 -6.63273 -261 -72.1056 -261 -207.437c0 -130 118 -191 260 -191c42 0 74 6 115 16zM417 697h-28c0 9 5 13 14 13s14 -5 14 -13zM417 697h-28
c0 -9 5 -14 14 -14s14 6 14 14z" />
    <glyph glyph-name="quotedbl" unicode="&#x22;" horiz-adv-x="643" 
d="M459 658v188h-23v-188h23zM208 658v188h-24v-188h24z" />
    <glyph glyph-name="quotedblbase" unicode="&#x201e;" horiz-adv-x="574" 
d="M250 -149l148 181h-33l-141 -181h26zM88 -149l148 181h-33l-141 -181h26z" />
    <glyph glyph-name="quotedblleft" unicode="&#x201c;" horiz-adv-x="466" 
d="M248 858l-148 -181h33l141 181h-26zM412 858l-148 -181h33l141 181h-26z" />
    <glyph glyph-name="quotedblright" unicode="&#x201d;" horiz-adv-x="418" 
d="M198 659l148 181h-33l-141 -181h26zM34 659l148 181h-33l-141 -181h26z" />
    <glyph glyph-name="quoteleft" unicode="&#x2018;" horiz-adv-x="458" 
d="M316 722l-148 -181h33l141 181h-26z" />
    <glyph glyph-name="quoteright" unicode="&#x2019;" horiz-adv-x="454" 
d="M194 541l148 181h-33l-141 -181h26z" />
    <glyph glyph-name="quotesinglbase" unicode="&#x201a;" horiz-adv-x="412" 
d="M88 -149l148 181h-33l-141 -181h26z" />
    <glyph glyph-name="quotesingle" unicode="'" horiz-adv-x="392" 
d="M208 658v188h-24v-188h24z" />
    <glyph glyph-name="r" unicode="r" horiz-adv-x="664" 
d="M280 399.653c86.0391 106.799 194.039 116.347 324 116.347v22c-131.412 0 -246.735 -12.5131 -324 -109.365v104.365h-13h-11h-188v-22h188v-489l-187 -2.84217e-14v-22h187h12h12h174v22h-174v377.653z" />
    <glyph glyph-name="racute" unicode="&#x155;" horiz-adv-x="664" 
d="M249 660c75 55 149 111 223 166h-36c-75 -55 -149 -111 -223 -166h36zM280 399.653c86.0391 106.799 194.039 116.347 324 116.347v22c-131.412 0 -246.735 -12.5131 -324 -109.365v104.365h-13h-11h-188v-22h188v-489l-187 -2.84217e-14v-22h187h12h12h174v22h-174
v377.653z" />
    <glyph glyph-name="radical" unicode="&#x221a;" horiz-adv-x="919" 
d="M485 0c124 241 248 481 372 722h-24c-124.121 -235.536 -244.42 -470.117 -366.501 -705.609c-112.608 217.144 -34.5422 67.294 -160.499 302.609h-13h-11h-188v-22h199v0.961478c109.989 -210.352 33.8607 -64.3459 156 -297.961h9h17h10z" />
    <glyph glyph-name="rcaron" unicode="&#x159;" horiz-adv-x="659" 
d="M74 824c74 -55 148 -111 223 -166h9h27h9c75 55 149 111 223 166h-37c-69.5018 -51.6567 -139.004 -104.196 -208.505 -155.96c-69.609 51.764 -139.993 104.303 -209.495 155.96h-36zM275 399.653c86.0391 106.799 194.039 116.347 324 116.347v22
c-131.412 0 -246.735 -12.5131 -324 -109.365v104.365h-13h-11h-188v-22h188v-489l-187 -2.84217e-14v-22h187h12h12h174v22h-174v377.653z" />
    <glyph glyph-name="rcommaaccent" unicode="&#x157;" horiz-adv-x="664" 
d="M253 -318l148 181h-33l-141 -181h26zM280 399.653c86.0391 106.799 194.039 116.347 324 116.347v22c-131.412 0 -246.735 -12.5131 -324 -109.365v104.365h-13h-11h-188v-22h188v-489l-187 -2.84217e-14v-22h187h12h12h174v22h-174v377.653z" />
    <glyph glyph-name="registered" unicode="&#xae;" horiz-adv-x="1099" 
d="M464 295h76c14.0157 0 27.4876 0.51659 40.214 1.7291c36.6492 -49.0466 71.7917 -98.8138 107.786 -147.729h115v20h-98c-32.839 44.098 -66.5582 87.3157 -99.5059 131.305c50.7148 9.88853 84.5059 35.4558 84.5059 91.695c0 71 -62 99 -140 99h-86h-138v-21h115v-300
h-115v-21h113h2h123v20h-101l-1.09091 -0.909091l2.09091 1.90909v125zM464 470h81c67 0 122 -20 122 -80c0 -63 -55 -74 -124 -74h-79v154zM464 470v21zM130 319c0 -215 194 -323 431 -323c226 0 408 113 408 323c0 213 -186 326 -415 326c-233 0 -424 -110 -424 -326z
M153 319c0 203 180 306 401 306c215 0 392 -106 392 -307c0 -196 -173 -301 -384 -301c-222 0 -409 98 -409 302z" />
    <glyph glyph-name="ring" unicode="&#x2da;" horiz-adv-x="485" 
d="M44 755c0 65 53 96 124 96c76 0 133 -28 133 -96c0 -66 -56 -95 -130 -95c-72 0 -127 29 -127 95zM22 755c0 -78 64 -116 149 -116c87 0 153 36 153 116c0 81 -67 117 -156 117c-84 0 -146 -38 -146 -117z" />
    <glyph glyph-name="ruble" horiz-adv-x="908" 
d="M493 315c198 3 323 28 323 203c0 176 -125 204 -325 204h-165h-7h-4h-14h-185v-22h185v-362h-136v-23h136v-109h-136v-23h136v-161h-185v-22h185h14h11h188v22h-188v161h387v23h-387v109h167zM326 700h162c186 0 303 -21 303 -183c0 -160 -117 -179 -301 -179h-164v362z
" />
    <glyph glyph-name="rupee" horiz-adv-x="1125" 
d="M0 0h1125v20h-1125v-20z" />
    <glyph glyph-name="s" unicode="s" horiz-adv-x="711" 
d="M145 68.9856v102.014h-21v-120h2c83 -32 158 -56 243 -56c123 0 216 33 216 145c-1 113 -108 119 -226 147c-96 22 -180 42 -180 127c0 82 72 102 166 102c63.9924 0 140.887 -18.0625 190 -39.829v-106.171h22v120c-51 25 -139 48 -211 48c-108 0 -189 -27 -189 -124
c0 -101 87 -123 194 -148c107 -27 211 -28 211 -126c0 -97 -83 -123 -189 -123c-80.2892 0 -149.349 22.4579 -228 51.9856z" />
    <glyph glyph-name="sacute" unicode="&#x15b;" horiz-adv-x="711" 
d="M272 661c75 55 149 111 223 166h-36c-75 -55 -149 -111 -223 -166h36zM145 68.9856v102.014h-21v-120h2c83 -32 158 -56 243 -56c123 0 216 33 216 145c-1 113 -108 119 -226 147c-96 22 -180 42 -180 127c0 82 72 102 166 102c63.9924 0 140.887 -18.0625 190 -39.829
v-106.171h22v120c-51 25 -139 48 -211 48c-108 0 -189 -27 -189 -124c0 -101 87 -123 194 -148c107 -27 211 -28 211 -126c0 -97 -83 -123 -189 -123c-80.2892 0 -149.349 22.4579 -228 51.9856z" />
    <glyph glyph-name="scaron" unicode="&#x161;" horiz-adv-x="714" 
d="M99 825c74 -55 148 -111 223 -166h9h27h9c75 55 149 111 223 166h-37c-69.5018 -51.6567 -139.004 -104.196 -208.505 -155.96c-69.609 51.764 -139.993 104.303 -209.495 155.96h-36zM142 68.9856v102.014h-21v-120h2c83 -32 158 -56 243 -56c123 0 216 33 216 145
c-1 113 -108 119 -226 147c-96 22 -180 42 -180 127c0 82 72 102 166 102c64.0727 0 140.217 -18.1078 190 -39.9109v-106.089h22v120c-52 25 -139 48 -211 48c-108 0 -189 -27 -189 -124c0 -101 87 -123 194 -148c107 -27 211 -28 211 -126c0 -97 -83 -123 -189 -123
c-80.2892 0 -149.349 22.4579 -228 51.9856z" />
    <glyph glyph-name="scedilla" unicode="&#x15f;" horiz-adv-x="711" 
d="M300 -94c22 11 40 13 65 13c43 0 75 -17 75 -57c0 -44 -42 -55 -93 -55c-36 0 -63 2 -96 17l-9 -17c36 -15 65 -21 104 -21c65 0 117 18 117 76c0 52 -41 78 -96 78c-17.5914 0 -32.2847 -1.9321 -47.0036 -5.61358c13.7153 18.4904 27.5845 36.8269 41.0036 55.6136
l-6.3483 5.22801c4.75287 -0.151041 9.53455 -0.228014 14.3483 -0.228014c123 0 216 33 216 145c-1 113 -108 119 -226 147c-96 22 -180 42 -180 127c0 82 72 102 166 102c63.9924 0 140.887 -18.0625 190 -39.829v-106.171h22v120c-51 25 -139 48 -211 48
c-108 0 -189 -27 -189 -124c0 -101 87 -123 194 -148c107 -27 211 -28 211 -126c0 -97 -83 -123 -189 -123c-80.2892 0 -149.349 22.4579 -228 51.9856v102.014h-21v-120h2c72.8046 -28.0692 139.454 -49.9831 212.096 -54.9433
c-18.032 -24.1832 -36.064 -47.7135 -54.096 -72.0567l1.88235 -2z" />
    <glyph glyph-name="scommaaccent" unicode="&#x219;" horiz-adv-x="711" 
d="M260 -329l148 181h-33l-141 -181h26zM145 68.9856v102.014h-21v-120h2c83 -32 158 -56 243 -56c123 0 216 33 216 145c-1 113 -108 119 -226 147c-96 22 -180 42 -180 127c0 82 72 102 166 102c63.9924 0 140.887 -18.0625 190 -39.829v-106.171h22v120
c-51 25 -139 48 -211 48c-108 0 -189 -27 -189 -124c0 -101 87 -123 194 -148c107 -27 211 -28 211 -126c0 -97 -83 -123 -189 -123c-80.2892 0 -149.349 22.4579 -228 51.9856z" />
    <glyph glyph-name="section" unicode="&#xa7;" horiz-adv-x="727" 
d="M148 28c75 -41 135 -57 221 -57c107 0 193 33 193 129c-1.42403 66.2173 -45.9399 97.4541 -107.197 117.895c84.2547 20.8358 146.197 59.3375 146.197 143.105c-1 116 -122 116 -242 144c-82 20 -154 46 -154 122s69 104 160 104
c67.6336 0 114.972 -10.5887 176 -35.0815v-106.918h22v120c-69 29 -121 43 -196 43c-105 0 -185 -36 -185 -125c0 -63.6167 40.1019 -97.2906 96.8467 -120.18c-81.0052 -21.7217 -142.847 -58.0957 -142.847 -139.82c0 -109 109 -120 224 -147c90 -24 179 -38 179 -120
c0 -75 -76 -108 -169 -108c-78.5503 0 -132.325 14.6821 -200 47.5624v108.438h-22v-120zM416.271 229.052c-13.6852 3.49635 -27.8506 6.74322 -42.2706 9.94765c-106 27 -214 34 -214 128c0 79.8083 65.3608 108.465 148.141 129.3
c12.4924 -4.02728 25.5105 -7.74073 38.8585 -11.3002c111 -29 231 -23 231 -124c0 -78.9216 -70.2511 -117.971 -161.729 -131.948z" />
    <glyph glyph-name="semicolon" unicode=";" horiz-adv-x="540" 
d="M180 -99c50 60 99 121 148 181h-31c-47 -60 -94 -121 -141 -181h24zM286 427h28c0 9 -6 14 -15 14c-8 0 -13 -6 -13 -14zM286 427h28c0 -10 -6 -14 -15 -14c-8 0 -13 6 -13 14z" />
    <glyph glyph-name="seven" unicode="7" horiz-adv-x="778" 
d="M727 722h-625v-22v-120h22v120h585.631c-540.973 -685.201 9.46803 13.5229 -553.631 -700h31c552 699 0 0 553 700v22h-13z" />
    <glyph glyph-name="six" unicode="6" horiz-adv-x="835" 
d="M148.373 279.263c20.5391 272.341 268.826 368.793 566.627 437.737l-4 17c-330 -69 -589 -180 -589 -493c0 -166 131 -246 309 -246c156 0 269 66 269 208c0 144 -116 206 -272 206c-122.666 0 -218.853 -40.4967 -279.627 -129.737zM147.043 237.068
c63.192 107.688 161.493 147.932 278.957 147.932c143 0 248 -53 248 -183c0 -126 -104 -181 -242 -181c-163.193 0 -282.366 68.4753 -284.957 216.068z" />
    <glyph glyph-name="slash" unicode="/" horiz-adv-x="753" 
d="M101 -67c192 303 383 607 575 910h-24c-192 -303 -384 -607 -575 -910h24z" />
    <glyph glyph-name="softhyphen" horiz-adv-x="741" 
d="M174 260h393v24h-393v-24z" />
    <glyph glyph-name="space" unicode=" " horiz-adv-x="240" 
 />
    <glyph glyph-name="sterling" unicode="&#xa3;" horiz-adv-x="762" 
d="M648 674c-62 33 -110 48 -179 48c-134.4 0 -214.4 -99.84 -214.4 -237.568c0 -30.5093 3.92563 -62.8778 12.0552 -96.432h-127.655v-21h133.111c9.91505 -38.8238 14.7237 -76.3612 14.7237 -111.481c0 -134.491 -70.5206 -233.519 -194.834 -233.519v-21h544v21
l-445.022 7.10543e-15c78.5418 37.7796 119.819 123.258 119.819 229.5c0 36.4216 -4.85099 75.2833 -14.7146 115.5h276.918v21h-282.251c-7.41793 31.0677 -10.959 61.1575 -10.959 89.6089c0 129.049 72.85 224.391 187.21 224.391c66 0 112 -12 170 -46z" />
    <glyph glyph-name="summation" unicode="&#x2211;" horiz-adv-x="759" 
d="M555 386l-426.562 315h471.562v-93h21v114h-521h-5v-21l425 -316l-426 -364v-21h5h522v116h-21v-95l-476.192 3.55271e-15z" />
    <glyph glyph-name="t" unicode="t" horiz-adv-x="608" 
d="M537 48c-48 -19 -83 -31 -134 -31c-90 0 -143 37 -143 128v366h308v22h-308v118l-24 -14v-104h-196v-22h196v-368c0 -101 63 -148 165 -148c55 0 92 14 145 33z" />
    <glyph glyph-name="tcaron" unicode="&#x165;" horiz-adv-x="594" 
d="M300 -330l148 181h-33l-141 -181h26zM537 48c-48 -19 -83 -31 -134 -31c-90 0 -143 37 -143 128v366h308v22h-308v118l-24 -14v-104h-196v-22h196v-368c0 -101 63 -148 165 -148c55 0 92 14 145 33z" />
    <glyph glyph-name="tcedilla" horiz-adv-x="608" 
d="M341 -95c21 11 39 13 64 13c43 0 75 -17 75 -57c0 -44 -42 -55 -93 -55c-36 0 -63 2 -96 17l-9 -17c36 -15 65 -21 104 -21c65 0 117 18 117 76c0 52 -41 78 -96 78c-17.3567 0 -31.892 -1.88088 -46.4143 -5.46713c13.7565 18.4408 27.3615 36.7301 41.4143 55.4671
l-7.80562 6.07104c2.24873 -0.0473874 4.51737 -0.0710416 6.80562 -0.0710416c55 0 92 14 145 33l-9 20c-48 -19 -83 -31 -134 -31c-90 0 -143 37 -143 128v366h308v22h-308v118l-24 -14v-104h-196v-22h196v-368c0 -93.4014 53.8771 -140.622 142.651 -147.199
c-18.2169 -24.4449 -36.4339 -48.2082 -54.6508 -72.8011l16 -17c0.0086958 0.0115944 0.0173914 0.0231886 0.0260869 0.0347827z" />
    <glyph glyph-name="tcommaaccent" unicode="&#x163;" horiz-adv-x="608" 
d="M300 -330l148 181h-33l-141 -181h26zM537 48c-48 -19 -83 -31 -134 -31c-90 0 -143 37 -143 128v331h308v22h-308v153l-24 -14v-139h-196v-22h196v-333c0 -101 63 -148 165 -148c55 0 92 14 145 33z" />
    <glyph glyph-name="thorn" unicode="&#xfe;" horiz-adv-x="838" 
d="M144 453.109v346.891h-11h-13h-186v-22h186v-1056h-188v-21h188v-1h11h13h173v22l-173 -0.930108v373.744c83.6838 -65.4827 164.68 -99.8143 274 -99.8143c173 0 292 111 291 282c0 163 -122 261 -289 261c-109.499 0 -211.627 -35.2139 -276 -84.8913zM144 118.163
v311.059c58.6277 49.8775 163.585 86.7779 275 86.7779c156 0 267 -90 267 -240c0.0699105 -2.77894 0.104692 -5.54048 0.104692 -8.28434c0 -152.736 -107.773 -250.745 -263.464 -250.745c-1.54211 0 -3.08892 0.00961534 -4.64038 0.0288881
c-108.894 0 -187.953 35.6095 -274 101.163z" />
    <glyph glyph-name="three" unicode="3" horiz-adv-x="791" 
d="M145 625c47 45 130 75 217 75c131 0 233 -32 233 -150c0 -120 -124 -156 -252 -156v-19c146 0 297 -38 297 -181c0 -139 -138 -172 -277 -172c-87 0 -151 15 -230 50l-13 -16c83 -40 149 -61 242 -61c171 0 301 44 301 200c0 115.288 -82.0192 171.306 -203.904 190.754
c93.2467 19.7368 158.904 68.8549 158.904 165.246c0 131 -110 176 -254 176c-95 0 -183 -37 -234 -88z" />
    <glyph glyph-name="threequarters" unicode="&#xbe;" horiz-adv-x="1407" 
d="M98 373c49 -23 97 -33 150 -33c7.14053 -0.189572 14.2092 -0.291296 21.1858 -0.291296c103.429 0 186.625 22.3576 183.814 112.291c0 73.9178 -52.553 94.862 -124.947 100.997c61.1362 10.8617 103.947 36.9894 103.947 101.003c0 83 -77 104 -171 104
c-58 0 -112 -18 -154 -52l14 -14c41 29 86 46 137 46c82 0 151 -14 151 -86c0 -89 -108 -83 -211 -89v-7v-11v-4c120 -5 232 5 232 -90c0 -76.5117 -70.5202 -91.2095 -160.383 -91.2095c-6.44592 0 -12.9914 0.0756249 -19.6174 0.209485c-49 0 -95 8 -140 28zM449 -93
l575 850h-27l-575 -850h27zM1162 -107h12h187v21h-187v98l134 7.10543e-15v20h-134v286v9h-23l-317 -295l12 -20h305v-98h-188v-21h188h11zM1151 296.543v-264.543h-283.562z" />
    <glyph glyph-name="threesuperior" unicode="&#xb3;" horiz-adv-x="686" 
d="M170 325c49 -23 97 -33 150 -33c7.14053 -0.189572 14.2092 -0.291296 21.1858 -0.291296c103.429 0 186.625 22.3576 183.814 112.291c0 73.9178 -52.553 94.862 -124.947 100.997c61.1362 10.8617 103.947 36.9894 103.947 101.003c0 83 -77 104 -171 104
c-58 0 -112 -18 -154 -52l14 -14c41 29 86 46 137 46c82 0 151 -14 151 -86c0 -89 -108 -83 -211 -89v-7v-11v-4c120 -5 232 5 232 -90c0 -76.5117 -70.5202 -91.2095 -160.383 -91.2095c-6.44592 0 -12.9914 0.0756249 -19.6174 0.209485c-49 0 -95 8 -140 28z" />
    <glyph glyph-name="tilde" unicode="&#x2dc;" horiz-adv-x="759" 
d="M490 730c-19 -57 -44 -103 -102 -103c-50 0 -84 16 -122 49c-40 34 -72 55 -124 55c-73 0 -114 -46 -134 -119l19 -6c18 63 52 104 115 104c45 0 73 -18 107 -48c43 -36 81 -56 137 -56c69 0 101 52 124 120z" />
    <glyph glyph-name="trademark" unicode="&#x2122;" horiz-adv-x="1429" 
d="M726.849 298c21.1526 115.355 42.3468 230.017 64.2668 345.354c37.3783 -121.535 75.6313 -243.944 113.884 -366.354h11h12h12l110.288 371.497c23.0861 -116.083 45.4649 -233.624 68.5537 -350.497zM1143 298c-24.3952 121 -49.7425 242 -74.1838 363h126.184v20
h-157c-39.0151 -127.513 -116.052 -384.525 -116.052 -384.525c-39.8932 128.506 -78.9674 256.969 -118.948 384.525h-151v-21h121.258l-70.0645 -362h-1.19355zM722 277h1zM1122 277h1h-1zM369 661h23h179v-75h21v95h-200v1l-1.09524 -1h-236.905v-95h21v75h194zM392 681
h-1.09524l-21.9048 -20v-363h-116v-21h116h136v21h-113v363zM392 298h-23z" />
    <glyph glyph-name="turkishlira" horiz-adv-x="1102" 
d="M987 350c0 -229 -151 -328 -395 -328h-263v328h389v23h-389v149h389v23h-389v155h185v22h-185h-10h-4h-11h-184v-22h184v-155h-134v-23h134v-149h-134v-23h134v-328h-184v-22h184h15h10h260c260 0 421 106 421 350h-23z" />
    <glyph glyph-name="two" unicode="2" horiz-adv-x="829" 
d="M149 563c67 93 144 139 258 139c131 0 228 -51 228 -176c0 -146 -102 -207 -227 -289c-103 -72 -206 -144 -308 -215v-22h11h572v22v120h-22v-120l-518.698 3.55271e-15c93.5659 65.8385 187.132 132.324 280.698 198c131 85 236 153 236 307c0 138 -104 200 -250 200
c-123 0 -214 -52 -279 -151z" />
    <glyph glyph-name="twosuperior" unicode="&#xb2;" horiz-adv-x="757" 
d="M217 615c42 52 94 75 167 75c82 0 147 -26 147 -98c0 -63 -52 -85 -106 -120c-89 -51 -177 -103 -265 -154v-21h421v121h-21v-100h-355.462c78.4874 45.5429 156.975 91.6517 235.462 137c59 40 113 68 113 138c0 84 -74 118 -168 118c-81 0 -142 -22 -186 -84z" />
    <glyph glyph-name="u" unicode="u" horiz-adv-x="905" 
d="M692 157.204c-56.5445 -80.1194 -151.388 -140.204 -251 -140.204c-131 0 -218 47 -218 170v346h-12h-12h-187v-22h187v-326c0 -137 95 -190 239 -190c99.0822 0 194.18 53.3851 254 128.149v-123.149h12h12h173v22h-173v511h-12h-12h-187v-22h187v-353.796z" />
    <glyph glyph-name="uacute" unicode="&#xfa;" horiz-adv-x="905" 
d="M366 660c75 55 149 111 223 166h-36c-75 -55 -149 -111 -223 -166h36zM692 157.204c-56.5445 -80.1194 -151.388 -140.204 -251 -140.204c-131 0 -218 47 -218 170v346h-12h-12h-187v-22h187v-326c0 -137 95 -190 239 -190c99.0822 0 194.18 53.3851 254 128.149
v-123.149h12h12h173v22h-173v511h-12h-12h-187v-22h187v-353.796z" />
    <glyph glyph-name="ucircumflex" unicode="&#xfb;" horiz-adv-x="905" 
d="M687 659c-74 55 -148 111 -223 166h-9h-27h-9c-75 -55 -149 -111 -223 -166h36c70.4393 51.6555 139.996 104.193 209.5 155.956c69.5035 -51.7627 139.061 -104.3 209.5 -155.956h36zM692 157.204c-56.5445 -80.1194 -151.388 -140.204 -251 -140.204
c-131 0 -218 47 -218 170v346h-12h-12h-187v-22h187v-326c0 -137 95 -190 239 -190c99.0822 0 194.18 53.3851 254 128.149v-123.149h12h12h173v22h-173v511h-12h-12h-187v-22h187v-353.796z" />
    <glyph glyph-name="udieresis" unicode="&#xfc;" horiz-adv-x="905" 
d="M504 668h38c0 -11 -8 -18 -20 -18c-11 0 -18 7 -18 18zM504 668h38c0 11 -8 18 -20 18c-11 0 -18 -7 -18 -18zM342 668h38c0 -11 -8 -18 -20 -18c-11 0 -18 7 -18 18zM342 668h38c0 11 -8 18 -20 18c-11 0 -18 -7 -18 -18zM692 157.204
c-56.5445 -80.1194 -151.388 -140.204 -251 -140.204c-131 0 -218 47 -218 170v346h-12h-12h-187v-22h187v-326c0 -137 95 -190 239 -190c99.0822 0 194.18 53.3851 254 128.149v-123.149h12h12h173v22h-173v511h-12h-12h-187v-22h187v-353.796z" />
    <glyph glyph-name="ugrave" unicode="&#xf9;" horiz-adv-x="905" 
d="M530 659c-74 55 -148 111 -223 166h-36c74 -55 148 -111 223 -166h36zM692 157.204c-56.5445 -80.1194 -151.388 -140.204 -251 -140.204c-131 0 -218 47 -218 170v346h-12h-12h-187v-22h187v-326c0 -137 95 -190 239 -190c99.0822 0 194.18 53.3851 254 128.149
v-123.149h12h12h173v22h-173v511h-12h-12h-187v-22h187v-353.796z" />
    <glyph glyph-name="uhungarumlaut" unicode="&#x171;" horiz-adv-x="905" 
d="M490 594l148 181h-33l-141 -181h26zM326 594l148 181h-33l-141 -181h26zM692 157.204c-56.5445 -80.1194 -151.388 -140.204 -251 -140.204c-131 0 -218 47 -218 170v346h-12h-12h-187v-22h187v-326c0 -137 95 -190 239 -190c99.0822 0 194.18 53.3851 254 128.149
v-123.149h12h12h173v22h-173v511h-12h-12h-187v-22h187v-353.796z" />
    <glyph glyph-name="umacron" unicode="&#x16b;" horiz-adv-x="905" 
d="M586 679h-304v-21h304v21zM692 157.204c-56.5445 -80.1194 -151.388 -140.204 -251 -140.204c-131 0 -218 47 -218 170v346h-12h-12h-187v-22h187v-326c0 -137 95 -190 239 -190c99.0822 0 194.18 53.3851 254 128.149v-123.149h12h12h173v22h-173v511h-12h-12h-187v-22
h187v-353.796z" />
    <glyph glyph-name="underscore" unicode="_" horiz-adv-x="920" 
d="M-1 -210h921v21h-921v-21z" />
    <glyph glyph-name="uogonek" unicode="&#x173;" horiz-adv-x="905" 
d="M692 157.204c-56.5445 -80.1194 -151.388 -140.204 -251 -140.204c-131 0 -218 47 -218 170v346h-12h-12h-187v-22h187v-326c0 -137 95 -190 239 -190c99.0822 0 194.18 53.3851 254 128.149v-103.343c-68.3825 -23.528 -130 -39.8769 -130 -109.806
c0 -62 48 -95 115 -95c40 0 66 11 102 28l-10 16c-32 -15 -56 -23 -90 -23c-55 0 -95 24 -95 74c0 58.7637 51.5281 71.5485 108 91.997v-1.99703h12h12h173v22h-173v511h-12h-12h-187v-22h187v-353.796z" />
    <glyph glyph-name="uring" unicode="&#x16f;" horiz-adv-x="905" 
d="M315 773c0 65 53 96 124 96c76 0 133 -28 133 -96c0 -66 -56 -95 -130 -95c-72 0 -127 29 -127 95zM293 773c0 -78 64 -116 149 -116c87 0 153 36 153 116c0 81 -67 117 -156 117c-84 0 -146 -38 -146 -117zM692 157.204
c-56.5445 -80.1194 -151.388 -140.204 -251 -140.204c-131 0 -218 47 -218 170v346h-12h-12h-187v-22h187v-326c0 -137 95 -190 239 -190c99.0822 0 194.18 53.3851 254 128.149v-123.149h12h12h173v22h-173v511h-12h-12h-187v-22h187v-353.796z" />
    <glyph glyph-name="v" unicode="v" horiz-adv-x="956" 
d="M470.758 17.6912c-86.0268 164.708 -171.253 328.615 -257.266 493.309h186.508v22h-198h-1h-26h-173v-22h184.502c89.2434 -170.589 179.33 -340.335 268.498 -511h6h19h6c93.9616 170.665 187.923 340.411 281.885 511h184.115v22h-172h-25h-2h-199v-22h188.865z" />
    <glyph glyph-name="w" unicode="w" horiz-adv-x="1396" 
d="M966 0h2c81.4973 170.665 162.995 340.411 245.373 511h178.627v22h-168h-26h-5h-199v-22h193.497c-77.8182 -163.043 -154.831 -325.315 -231.809 -488.356c-77.6423 170.373 -156.124 339.906 -233.688 510.356h-7h-18h-8
c-86.1413 -170.368 -173.199 -339.821 -259.419 -510.11c-74.1893 162.958 -148.379 325.149 -222.568 488.11h192.987v22h-199h-4h-26h-169v-22h179.137c78.621 -170.589 157.242 -340.335 235.863 -511h1h22h1c88.8093 171.827 176.687 342.721 264.532 514.483
c79.1561 -171.762 158.312 -342.657 237.468 -514.483h2h21z" />
    <glyph glyph-name="x" unicode="x" horiz-adv-x="976" 
d="M473.718 277.579c-90.9935 -85.129 -182.107 -170.249 -273.23 -255.579l-190.488 2.84217e-14v-22h167h32h1h198v22h-174.754c85.0795 80.4837 170.355 160.78 255.734 241.073c84.4746 -80.2933 168.846 -160.589 253.02 -241.073l-176.001 2.84217e-14v-22h199h33h166
v22h-189.236c-90.1914 85.392 -180.171 170.573 -270.161 255.763c82.6138 77.6817 165.319 155.371 248.033 233.237h189.365v22h-166h-30h-3h-199v-22h178.63c-77.622 -73.0407 -155.406 -145.927 -233.282 -218.797c-76.975 72.8698 -153.966 145.756 -231.112 218.797
h176.764v22h-199h-1h-30h-168v-22h191.117c81.9027 -77.927 163.798 -155.678 245.6 -233.421z" />
    <glyph glyph-name="y" unicode="y" horiz-adv-x="967" 
d="M457.651 75.7855c-77.7224 -117.86 -155.445 -235.737 -233.167 -353.785h-183.483v-22h169h26h1c178.172 270.666 356.344 540.384 534.517 811l183.483 5.68434e-14v22h-169h-27h-3h-199v-22h187.517c-91.0883 -138.349 -182.177 -276.463 -273.265 -414.59
c-83.647 138.197 -167.329 276.393 -251.798 414.59h188.546v22h-199h-3h-27h-169v-22h182.625c89.3216 -144.582 175.421 -290.774 265.025 -435.215z" />
    <glyph glyph-name="yacute" unicode="&#xfd;" horiz-adv-x="967" 
d="M392 662c75 55 149 111 223 166h-36c-75 -55 -149 -111 -223 -166h36zM457.651 75.7855c-77.7224 -117.86 -155.445 -235.737 -233.167 -353.785h-183.483v-22h169h26h1c178.172 270.666 356.344 540.384 534.517 811l183.483 5.68434e-14v22h-169h-27h-3h-199v-22
h187.517c-91.0883 -138.349 -182.177 -276.463 -273.265 -414.59c-83.647 138.197 -167.329 276.393 -251.798 414.59h188.546v22h-199h-3h-27h-169v-22h182.625c89.3216 -144.582 175.421 -290.774 265.025 -435.215z" />
    <glyph glyph-name="ydieresis" unicode="&#xff;" horiz-adv-x="967" 
d="M530 670h38c0 -11 -8 -18 -20 -18c-11 0 -18 7 -18 18zM530 670h38c0 11 -8 18 -20 18c-11 0 -18 -7 -18 -18zM368 670h38c0 -11 -8 -18 -20 -18c-11 0 -18 7 -18 18zM368 670h38c0 11 -8 18 -20 18c-11 0 -18 -7 -18 -18zM457.651 75.7855
c-77.7224 -117.86 -155.445 -235.737 -233.167 -353.785h-183.483v-22h169h26h1c178.172 270.666 356.344 540.384 534.517 811l183.483 5.68434e-14v22h-169h-27h-3h-199v-22h187.517c-91.0883 -138.349 -182.177 -276.463 -273.265 -414.59
c-83.647 138.197 -167.329 276.393 -251.798 414.59h188.546v22h-199h-3h-27h-169v-22h182.625c89.3216 -144.582 175.421 -290.774 265.025 -435.215z" />
    <glyph glyph-name="yen" unicode="&#xa5;" horiz-adv-x="1154" 
d="M567.819 348.732c-3.93973 -4.57613 -7.87942 -9.15343 -11.8191 -13.732v-83h-288v-23h288v-207h-187v-21h187v-1h12h11h188v22l-188 -0.944724v207.945h293v23h-293v83c3.76228 4.33335 7.52457 8.66669 11.2869 13h281.713v23h-261.743
c95.7502 110.276 191.5 220.485 287.25 330h188.493v21h-199h-199v-21h184.637c-102.143 -117.663 -203.495 -234.578 -304.818 -352.268zM579 335c-3.72573 4.57733 -11.1809 13.732 -11.1809 13.732c-95.6389 117.423 -192.048 234.845 -287.718 352.268h185.898v21h-199
h-4h-25h-170v-21h187.256l271.163 -330h-258.419v-23h277.318l10.6822 -13z" />
    <glyph glyph-name="z" unicode="z" horiz-adv-x="758" 
d="M635 22h-497.006c161.344 162.333 0.00814671 8.347e-06 490.006 489v22h-505v-11v-11v-109h22v109h451.006c-161.344 -162.333 -0.00610588 -8.347e-06 -489.006 -489v-22h550v11v11v109h-22v-109z" />
    <glyph glyph-name="zacute" unicode="&#x17a;" horiz-adv-x="758" 
d="M300 661c74 55 149 111 223 166h-36c-75 -55 -149 -111 -223 -166h36zM635 22h-497.006c161.344 162.333 0.00814671 8.347e-06 490.006 489v22h-505v-11v-11v-109h22v109h451.006c-161.344 -162.333 -0.00610588 -8.347e-06 -489.006 -489v-22h550v11v11v109h-22v-109z
" />
    <glyph glyph-name="zcaron" unicode="&#x17e;" horiz-adv-x="758" 
d="M130 825c74 -55 148 -111 223 -166h9h27h9c75 55 149 111 223 166h-37c-69.5018 -51.6567 -139.004 -104.196 -208.505 -155.96c-69.609 51.764 -139.993 104.303 -209.495 155.96h-36zM635 22h-497.006c161.344 162.333 0.00814671 8.347e-06 490.006 489v22h-505v-11
v-11v-109h22v109h451.006c-161.344 -162.333 -0.00610588 -8.347e-06 -489.006 -489v-22h550v11v11v109h-22v-109z" />
    <glyph glyph-name="zdotaccent" unicode="&#x17c;" horiz-adv-x="758" 
d="M355 670h38c0 -11 -8 -18 -20 -18c-11 0 -18 7 -18 18zM355 670h38c0 11 -8 18 -20 18c-11 0 -18 -7 -18 -18zM635 22h-497.006c161.344 162.333 0.00814671 8.347e-06 490.006 489v22h-505v-11v-11v-109h22v109h451.006
c-161.344 -162.333 -0.00610588 -8.347e-06 -489.006 -489v-22h550v11v11v109h-22v-109z" />
    <glyph glyph-name="zero" unicode="0" horiz-adv-x="1022" 
d="M136 360c0 -230 145 -365 378 -365c230 0 370 138 370 368c0 229 -141 364 -371 364c-233 0 -377 -136 -377 -367zM161 360c0 216 133 343 351 343c216 0 348 -128 348 -341c0 -214 -131 -342 -345 -342c-219 0 -354 125 -354 340z" />
    </font>
</defs>
</svg>
