<?xml version="1.0" standalone="no"?>
<!DOCTYPE svg PUBLIC "-//W3C//DTD SVG 1.1//EN" "http://www.w3.org/Graphics/SVG/1.1/DTD/svg11.dtd" >
<svg xmlns="http://www.w3.org/2000/svg" xmlns:xlink="http://www.w3.org/1999/xlink" version="1.1">
<metadata>
Created by FontForge 20141219 at Thu Feb 19 09:37:31 2015
 By Simon Egli
Copyright 2015 Simon Egli
</metadata>
<defs>
<font id="Sean" horiz-adv-x="1119" >
  <font-face 
    font-family="Slab"
    font-weight="36"
    font-stretch="ultra-condensed"
    units-per-em="1000"
    panose-1="2 0 3 3 0 0 0 0 0 0"
    ascent="800"
    descent="-200"
    x-height="533"
    cap-height="722"
    bbox="-61 -330 2452 1078"
    underline-thickness="0"
    underline-position="0"
    unicode-range="U+0020-FB02"
  />
    <missing-glyph />
    <glyph glyph-name="A" unicode="A" 
d="M545.707 692.693c68.7524 -137.072 136.884 -273.847 204.762 -410.693h-432.596c75.7569 136.846 151.64 273.621 227.834 410.693zM531 722h-2c-129.211 -230.665 -260.253 -460.414 -389.621 -691h-179.379v-31h162h36h4h203v31h-185.889
c40.3367 73.0655 80.6774 146.047 121.05 219l466.176 2.84217e-14c36.163 -72.9531 72.2622 -145.935 108.354 -219h-187.69v-31h203h4h35h163v31h-178.69c-116.69 230.586 -232.542 460.335 -349.31 691h-2h-31z" />
    <glyph glyph-name="AE" unicode="&#xc6;" horiz-adv-x="1318" 
d="M669 0h559v15v16v104h-30v-104h-529v328h429v30h-429v302h483v-104h31v104v16v15h-507h-7h-16h-16h-1h-3h-179v-31h161.102l-466.205 -660h-181.898v-31h160h38h4h203v31h-181.231l125.697 179h316.535v-179h-179v-31h179h3h17h16zM633 660.765v-418.765h-294.064z" />
    <glyph glyph-name="Aacute" unicode="&#xc1;" 
d="M477 843c74 55 148 111 222 166h-51c-75 -55 -149 -111 -223 -166h52zM545.707 692.693c68.7524 -137.072 136.884 -273.847 204.762 -410.693h-432.596c75.7569 136.846 151.64 273.621 227.834 410.693zM531 722h-2c-129.211 -230.665 -260.253 -460.414 -389.621 -691
h-180.379v-31h163h36h4h202v31h-184.889c40.3367 73.0655 80.6774 146.047 121.05 219l466.176 2.84217e-14c36.163 -72.9531 72.2622 -145.935 108.354 -219h-187.69v-31h203h4h35h163v31h-178.69c-116.69 230.586 -232.542 460.335 -349.31 691h-2h-31z" />
    <glyph glyph-name="Abreve" unicode="&#x102;" 
d="M699 966c0 -74 -69 -96 -153 -96c-82 0 -146 25 -146 97h-34c0 -92 76 -127 178 -127c107 0 188 31 188 126h-33zM545.707 692.693c68.7524 -137.072 136.884 -273.847 204.762 -410.693h-432.596c75.7569 136.846 151.64 273.621 227.834 410.693zM531 722h-2
c-129.211 -230.665 -260.253 -460.414 -389.621 -691h-180.379v-31h163h36h4h202v31h-184.889c40.3367 73.0655 80.6774 146.047 121.05 219l466.176 2.84217e-14c36.163 -72.9531 72.2622 -145.935 108.354 -219h-187.69v-31h203h4h35h163v31h-178.69
c-116.69 230.586 -232.542 460.335 -349.31 691h-2h-31z" />
    <glyph glyph-name="Acircumflex" unicode="&#xc2;" 
d="M798 842c-74 55 -148 111 -222 166h-10h-42h-9c-75 -55 -149 -111 -223 -166h52c67 50.7027 134 100.586 201 150.391c67 -49.8054 134 -99.6883 201 -150.391h52zM545.707 692.693c68.7524 -137.072 136.884 -273.847 204.762 -410.693h-432.596
c75.7569 136.846 151.64 273.621 227.834 410.693zM531 722h-2c-129.211 -230.665 -260.253 -460.414 -389.621 -691h-180.379v-31h163h36h4h202v31h-184.889c40.3367 73.0655 80.6774 146.047 121.05 219l466.176 2.84217e-14
c36.163 -72.9531 72.2622 -145.935 108.354 -219h-187.69v-31h203h4h35h163v31h-178.69c-116.69 230.586 -232.542 460.335 -349.31 691h-2h-31z" />
    <glyph glyph-name="Adieresis" unicode="&#xc4;" 
d="M605 855h51c0 -15 -11 -23 -27 -23c-15 0 -24 8 -24 23zM605 855h51c0 15 -11 23 -27 23c-15 0 -24 -9 -24 -23zM435 855h52c0 -15 -11 -23 -27 -23c-15 0 -25 8 -25 23zM435 855h52c0 15 -11 23 -27 23c-15 0 -25 -9 -25 -23zM545.707 692.693
c68.7524 -137.072 136.884 -273.847 204.762 -410.693h-432.596c75.7569 136.846 151.64 273.621 227.834 410.693zM531 722h-2c-129.211 -230.665 -260.253 -460.414 -389.621 -691h-180.379v-31h163h36h4h202v31h-184.889c40.3367 73.0655 80.6774 146.047 121.05 219
l466.176 2.84217e-14c36.163 -72.9531 72.2622 -145.935 108.354 -219h-187.69v-31h203h4h35h163v31h-178.69c-116.69 230.586 -232.542 460.335 -349.31 691h-2h-31z" />
    <glyph glyph-name="Agrave" unicode="&#xc0;" 
d="M645 842c-74 55 -148 111 -223 166h-51c74 -55 148 -111 222 -166h52zM545.707 692.693c68.7524 -137.072 136.884 -273.847 204.762 -410.693h-432.596c75.7569 136.846 151.64 273.621 227.834 410.693zM531 722h-2c-129.211 -230.665 -260.253 -460.414 -389.621 -691
h-180.379v-31h163h36h4h202v31h-184.889c40.3367 73.0655 80.6774 146.047 121.05 219l466.176 2.84217e-14c36.163 -72.9531 72.2622 -145.935 108.354 -219h-187.69v-31h203h4h35h163v31h-178.69c-116.69 230.586 -232.542 460.335 -349.31 691h-2h-31z" />
    <glyph glyph-name="Amacron" unicode="&#x100;" 
d="M689 871h-302v-30h302v30zM545.707 692.693c68.7524 -137.072 136.884 -273.847 204.762 -410.693h-432.596c75.7569 136.846 151.64 273.621 227.834 410.693zM531 722h-2c-129.211 -230.665 -260.253 -460.414 -389.621 -691h-180.379v-31h163h36h4h202v31h-184.889
c40.3367 73.0655 80.6774 146.047 121.05 219l466.176 2.84217e-14c36.163 -72.9531 72.2622 -145.935 108.354 -219h-187.69v-31h203h4h35h163v31h-178.69c-116.69 230.586 -232.542 460.335 -349.31 691h-2h-31z" />
    <glyph glyph-name="Aogonek" unicode="&#x104;" 
d="M545.707 692.693c68.7524 -137.072 136.884 -273.847 204.762 -410.693h-432.596c75.7569 136.846 151.64 273.621 227.834 410.693zM531 722h-2c-129.211 -230.665 -260.253 -460.414 -389.621 -691h-179.379v-31h162h36h4h203v31h-185.889
c40.3367 73.0655 80.6774 146.047 121.05 219l466.176 2.84217e-14c36.163 -72.9531 72.2622 -145.935 108.354 -219h-187.69v-31h154.206c-45.4984 -17.703 -79.2061 -40.634 -79.2061 -93c0 -64 50 -97 120 -97c41 0 69 11 106 27l-17 24c-30 -14 -52 -22 -86 -22
c-51 0 -89 22 -89 69c0 60.4075 58.8411 69.3291 117.459 92h15.5411h163v31h-178.69c-116.69 230.586 -232.542 460.335 -349.31 691h-2h-31z" />
    <glyph glyph-name="Aring" unicode="&#xc5;" 
d="M424 958c0 62 51 91 119 91c72 0 127 -26 127 -91c0 -63 -54 -90 -124 -90c-69 0 -122 27 -122 90zM391 958c0 -80 67 -119 155 -119c90 0 158 37 158 119c0 84 -69 120 -161 120c-87 0 -152 -38 -152 -120zM545.707 692.693
c68.7524 -137.072 136.884 -273.847 204.762 -410.693h-432.596c75.7569 136.846 151.64 273.621 227.834 410.693zM531 722h-2c-129.211 -230.665 -260.253 -460.414 -389.621 -691h-180.379v-31h163h36h4h202v31h-184.889c40.3367 73.0655 80.6774 146.047 121.05 219
l466.176 2.84217e-14c36.163 -72.9531 72.2622 -145.935 108.354 -219h-187.69v-31h203h4h35h163v31h-178.69c-116.69 230.586 -232.542 460.335 -349.31 691h-2h-31z" />
    <glyph glyph-name="Atilde" unicode="&#xc3;" 
d="M768 970c-18 -56 -43 -100 -98 -100c-48 0 -81 15 -118 47c-41 34 -74 54 -126 54c-75 0 -119 -46 -139 -121l28 -9c18 61 51 101 111 101c43 0 71 -19 103 -47c44 -36 82 -55 139 -55c72 0 106 51 130 121zM545.707 692.693
c68.7524 -137.072 136.884 -273.847 204.762 -410.693h-432.596c75.7569 136.846 151.64 273.621 227.834 410.693zM531 722h-2c-129.211 -230.665 -260.253 -460.414 -389.621 -691h-180.379v-31h163h36h4h202v31h-184.889c40.3367 73.0655 80.6774 146.047 121.05 219
l466.176 2.84217e-14c36.163 -72.9531 72.2622 -145.935 108.354 -219h-187.69v-31h203h4h35h163v31h-178.69c-116.69 230.586 -232.542 460.335 -349.31 691h-2h-31z" />
    <glyph glyph-name="B" unicode="B" horiz-adv-x="941" 
d="M287 31v363h188h18c160 0 298 -42 298 -188c0 -127 -103 -175 -245 -175h-259zM287 0h259c164 0 281 59 281 206c0 120.633 -83.6083 180.053 -197.46 204.591c77.2097 20.2409 134.46 62.1771 134.46 142.409c0 116 -90 169 -216 169h-261h-14h-15h-9h-176v-31h176v-660
h-177v-31h177h9h13h16zM287 425v266h261c101 0 180 -41 180 -138c0 -104 -119 -128 -235 -128h-18h-188z" />
    <glyph glyph-name="C" unicode="C" horiz-adv-x="971" 
d="M863 655c-93 42 -193 72 -304 72c-260 0 -436 -132 -436 -383c0 -232 165 -349 408 -349c143 0 237 30 355 100l-20 25c-109 -69 -202 -92 -334 -92c-221 0 -372 107 -372 317c0 228 161 350 398 350c98.2866 0 190.199 -20.9432 274 -58.4849v-106.515h31v125z" />
    <glyph glyph-name="Cacute" unicode="&#x106;" horiz-adv-x="971" 
d="M491 843c74 55 148 111 222 166h-51c-75 -55 -149 -111 -223 -166h52zM863 655c-93 42 -193 72 -304 72c-260 0 -436 -132 -436 -383c0 -232 165 -349 408 -349c143 0 237 30 355 100l-20 25c-109 -69 -202 -92 -334 -92c-221 0 -372 107 -372 317c0 228 161 350 398 350
c98.2866 0 190.199 -20.9432 274 -58.4849v-106.515h31v125z" />
    <glyph glyph-name="Ccaron" unicode="&#x10c;" horiz-adv-x="971" 
d="M306 1007c74 -55 148 -111 223 -166h9h42h10c74 55 148 111 222 166h-52c-67 -50.7027 -134 -100.586 -201 -150.391c-67 49.8054 -134 99.6883 -201 150.391h-52zM863 655c-93 42 -193 72 -304 72c-260 0 -436 -132 -436 -383c0 -232 165 -349 408 -349
c143 0 237 30 355 100l-20 25c-109 -69 -202 -92 -334 -92c-221 0 -372 107 -372 317c0 228 161 350 398 350c98.2866 0 190.199 -20.9432 274 -58.4849v-106.515h31v125z" />
    <glyph glyph-name="Ccedilla" unicode="&#xc7;" horiz-adv-x="971" 
d="M476 -92c21 11 37 13 60 13c40 0 70 -17 70 -53c0 -42 -40 -52 -87 -52c-36 0 -62 3 -95 18l-13 -24c37 -15 66 -21 106 -21c69 0 124 19 124 79c0 55 -44 82 -102 82c-12.6621 0 -23.8519 -1.03058 -34.5863 -2.92226c12.4005 16.496 25.202 33.3561 36.5203 47.9714
c137.467 1.37307 229.82 31.5847 345.066 99.9508l-20 25c-109 -69 -202 -92 -334 -92c-221 0 -372 107 -372 317c0 228 161 350 398 350c98.2866 0 190.199 -20.9432 274 -58.4849v-106.515h31v125c-93 42 -193 72 -304 72c-260 0 -436 -132 -436 -383
c0 -221.58 150.511 -338.258 375.738 -348.292c-15.7838 -21.064 -33.3198 -43.9647 -47.7376 -62.7079c0.353313 -0.339181 0.69684 -0.668775 1.03085 -0.989052c-0.0102837 -0.00364879 -0.0205682 -0.00729801 -0.0308536 -0.0109476z" />
    <glyph glyph-name="D" unicode="D" horiz-adv-x="1085" 
d="M291 722h-16h-22h-177v-31h177v-660h-177v-31h177h22h16h252c263 0 426 105 426 350c0 259 -168 372 -442 372h-236zM291 691h233c253 0 410 -103 410 -341c0 -224 -148 -319 -387 -319h-256v660z" />
    <glyph glyph-name="Dcaron" unicode="&#x10e;" horiz-adv-x="1085" 
d="M248 1006c74 -55 148 -111 223 -166h9h42h10c74 55 148 111 222 166h-52c-67 -50.7027 -134 -100.586 -201 -150.391c-67 49.8054 -134 99.6883 -201 150.391h-52zM291 722h-16h-22h-177v-31h177v-660h-177v-31h177h22h16h252c263 0 426 105 426 350
c0 259 -168 372 -442 372h-236zM291 691h233c253 0 410 -103 410 -341c0 -224 -148 -319 -387 -319h-256v660z" />
    <glyph glyph-name="Dcroat" unicode="&#x110;" horiz-adv-x="1085" 
d="M290 722h-16h-21h-177v-31h177v-321h-82v-34h82v-305h-177v-31h177h21h16h253c263 0 426 105 426 350c0 259 -168 372 -442 372h-237zM290 691h234c253 0 410 -103 410 -341c0 -224 -149 -319 -387 -319h-257v305h279v34h-279v321z" />
    <glyph glyph-name="E" unicode="E" horiz-adv-x="938" 
d="M289 0h559v15v16v104h-30v-104h-529v328h429v30h-429v302h483v-104h31v104v16v15h-514h-16h-17h-3h-179v-31h179v-660h-179v-31h179h3h17h16z" />
    <glyph glyph-name="Eacute" unicode="&#xc9;" horiz-adv-x="938" 
d="M436 843c74 55 148 111 222 166h-52c-75 -55 -149 -111 -222 -166h52zM289 0h559v15v16v104h-30v-104h-529v328h429v30h-429v302h483v-104h31v104v16v15h-514h-16h-17h-3h-179v-31h179v-660h-179v-31h179h3h17h16z" />
    <glyph glyph-name="Ecaron" unicode="&#x11a;" horiz-adv-x="938" 
d="M251 1007c73 -55 147 -111 222 -166h9h42h10c74 55 148 111 222 166h-52c-67 -50.7027 -134 -100.586 -201 -150.391c-67 49.8054 -134 99.6883 -201 150.391h-51zM289 0h559v15v16v104h-30v-104h-529v328h429v30h-429v302h483v-104h31v104v16v15h-514h-16h-17h-3h-179
v-31h179v-660h-179v-31h179h3h17h16z" />
    <glyph glyph-name="Ecircumflex" unicode="&#xca;" horiz-adv-x="938" 
d="M756 842c-74 55 -148 111 -222 166h-9h-43h-9c-75 -55 -149 -111 -222 -166h52c66.8333 50.5766 133.667 100.337 200.5 150.019c66.8333 -49.6819 133.667 -99.4428 200.5 -150.019h52zM289 0h559v15v16v104h-30v-104h-529v328h429v30h-429v302h483v-104h31v104v16v15
h-514h-16h-17h-3h-179v-31h179v-660h-179v-31h179h3h17h16z" />
    <glyph glyph-name="Edieresis" unicode="&#xcb;" horiz-adv-x="938" 
d="M563 855h51c0 -15 -11 -23 -27 -23c-15 0 -24 8 -24 23zM563 855h51c0 15 -11 23 -26 23s-25 -9 -25 -23zM394 855h51c0 -15 -11 -23 -27 -23c-15 0 -24 8 -24 23zM394 855h51c0 15 -11 23 -27 23c-15 0 -24 -9 -24 -23zM289 0h559v15v16v104h-30v-104h-529v328h429v30
h-429v302h483v-104h31v104v16v15h-514h-16h-17h-3h-179v-31h179v-660h-179v-31h179h3h17h16z" />
    <glyph glyph-name="Edotaccent" unicode="&#x116;" horiz-adv-x="938" 
d="M477 856h51c0 -15 -11 -23 -27 -23c-15 0 -24 8 -24 23zM477 856h51c0 15 -11 23 -27 23c-15 0 -24 -9 -24 -23zM289 0h559v15v16v104h-30v-104h-529v328h429v30h-429v302h483v-104h31v104v16v15h-514h-16h-17h-3h-179v-31h179v-660h-179v-31h179h3h17h16z" />
    <glyph glyph-name="Egrave" unicode="&#xc8;" horiz-adv-x="938" 
d="M603 842c-74 55 -148 111 -222 166h-52c74 -55 148 -111 222 -166h52zM289 0h559v15v16v104h-30v-104h-529v328h429v30h-429v302h483v-104h31v104v16v15h-514h-16h-17h-3h-179v-31h179v-660h-179v-31h179h3h17h16z" />
    <glyph glyph-name="Emacron" unicode="&#x112;" horiz-adv-x="938" 
d="M648 871h-303v-30h303v30zM289 0h559v15v16v104h-30v-104h-529v328h429v30h-429v302h483v-104h31v104v16v15h-514h-16h-17h-3h-179v-31h179v-660h-179v-31h179h3h17h16z" />
    <glyph glyph-name="Eogonek" unicode="&#x118;" horiz-adv-x="935" 
d="M749.31 -1.77636e-15c-41.9672 -17.5822 -72.3101 -40.9702 -72.3101 -90c0 -65 51 -98 120 -98c41 0 69 11 106 28l-16 23c-31 -14 -53 -22 -86 -22c-52 0 -90 22 -90 69c0 58.5999 55.3723 68.749 112.198 90l24.8023 -7.10543e-15v15v16v104h-30v-104h-529v328h429v30
h-429v302h483v-104h31v104v16v15h-514h-16h-17h-3h-179v-31h179v-660h-179v-31h179h3h17h16z" />
    <glyph glyph-name="Eth" unicode="&#xd0;" horiz-adv-x="1085" 
d="M291 722h-16h-22h-177v-31h177v-321h-82v-34h82v-305h-177v-31h177h22h16h252c263 0 426 105 426 350c0 259 -168 372 -442 372h-236zM291 691h233c253 0 410 -103 410 -341c0 -224 -148 -319 -387 -319h-256v305h278v34h-278v321z" />
    <glyph glyph-name="Euro" unicode="&#x20ac;" horiz-adv-x="1109" 
d="M967 655c-94 42 -193 72 -304 72c-220.141 0 -380.063 -94.6303 -423.923 -276h-139.077v-32h132.697c-3.76238 -23.6822 -5.69657 -48.6872 -5.69657 -75c0 -23.1452 1.63227 -45.1459 4.8124 -66h-131.812v-32h138.114c40.6781 -166.927 189.899 -251 395.886 -251
c143 0 237 30 356 100l-20 25c-110 -69 -202 -92 -334 -92c-183.072 0 -318.795 73.4246 -359.989 218h369.989v32h-377.34c-3.73415 21.0242 -5.66044 43.3595 -5.66044 67c0 26.0594 2.10321 50.734 6.18273 74h376.817v32h-369.733
c43.0583 159.598 187.607 244 384.733 244c99.6337 0 191.007 -21.1093 275 -58.9316v-106.068h31v125z" />
    <glyph glyph-name="F" unicode="F" horiz-adv-x="904" 
d="M291 691h488v-104h31v104v16v15h-519h-18h-15h-3h-181v-31h181v-660h-181v-31h181h18h18h180v31h-180v328h420v30h-420v302z" />
    <glyph glyph-name="G" unicode="G" horiz-adv-x="1088" 
d="M926 93.7822c-120.638 -49.0967 -214.443 -64.7822 -347 -64.7822c-249 0 -424 105 -424 338c0 223 170 328 409 328c127.543 0 228.012 -20.5396 342 -72.4438v-103.556h30v123c-125 61 -234 85 -373 85c-262 0 -444 -115 -444 -363c0 -254 189 -369 459 -369
c149 0 245 24 381 82v247h-12h-21h-275v-31h275v-199.218z" />
    <glyph glyph-name="Gbreve" unicode="&#x11e;" horiz-adv-x="1088" 
d="M720 966c0 -74 -68 -96 -152 -96c-82 0 -146 25 -146 97h-34c0 -92 76 -127 178 -127c107 0 188 31 188 126h-34zM926 93.7822c-120.638 -49.0967 -214.443 -64.7822 -347 -64.7822c-249 0 -424 105 -424 338c0 223 170 328 409 328
c127.543 0 228.012 -20.5396 342 -72.4438v-103.556h30v123c-125 61 -234 85 -373 85c-262 0 -444 -115 -444 -363c0 -254 189 -369 459 -369c149 0 245 24 381 82v247h-12h-21h-275v-31h275v-199.218z" />
    <glyph glyph-name="Gcommaaccent" unicode="&#x122;" horiz-adv-x="1088" 
d="M486 -319l149 185h-48l-139 -185h38zM926 93.7822c-120.638 -49.0967 -214.443 -64.7822 -347 -64.7822c-249 0 -424 105 -424 338c0 223 170 328 409 328c127.543 0 228.012 -20.5396 342 -72.4438v-103.556h30v123c-125 61 -234 85 -373 85c-262 0 -444 -115 -444 -363
c0 -254 189 -369 459 -369c149 0 245 24 381 82v247h-12h-21h-275v-31h275v-199.218z" />
    <glyph glyph-name="H" unicode="H" horiz-adv-x="1224" 
d="M934 348v-317h-179v-31h198h199v31h-181v660h181v31h-199h-198v-31h179v-313h-643v313h180v31h-180h-18h-18h-181v-31h181v-660h-181v-31h181h18h18h180v31h-180v317h643z" />
    <glyph glyph-name="I" unicode="I" horiz-adv-x="544" 
d="M253 0h20h16h182v31h-182v660h182v31h-182h-16h-20h-179v-31h179v-660h-179v-31h179z" />
    <glyph glyph-name="Iacute" unicode="&#xcd;" horiz-adv-x="547" 
d="M205 843c74 55 148 111 222 166h-51c-75 -55 -149 -111 -223 -166h52zM253 0h21h16h182v31h-182v660h182v31h-182h-16h-21h-178v-31h178v-660h-178v-31h178z" />
    <glyph glyph-name="Icircumflex" unicode="&#xce;" horiz-adv-x="642" 
d="M578 842c-74 55 -147 111 -222 166h-9h-43h-9c-75 -55 -149 -111 -222 -166h52c66.8333 50.5766 133.667 100.337 200.5 150.019c66.8333 -49.6819 133.667 -99.4428 200.5 -150.019h52zM306 0h20h16h183v31h-183v660h183v31h-183h-16h-20h-179v-31h179v-660h-179v-31
h179z" />
    <glyph glyph-name="Idieresis" unicode="&#xcf;" horiz-adv-x="547" 
d="M333 855h52c0 -15 -11 -23 -27 -23c-15 0 -25 8 -25 23zM333 855h52c0 15 -11 23 -27 23c-15 0 -25 -9 -25 -23zM164 855h52c0 -15 -11 -23 -27 -23c-15 0 -25 8 -25 23zM164 855h52c0 15 -11 23 -27 23c-15 0 -25 -9 -25 -23zM254 0h21h16h182v31h-182v660h182v31h-182
h-16h-21h-178v-31h178v-660h-178v-31h178z" />
    <glyph glyph-name="Idotaccent" unicode="&#x130;" horiz-adv-x="544" 
d="M245 856h52c0 -15 -11 -23 -27 -23c-15 0 -25 8 -25 23zM245 856h52c0 15 -11 23 -27 23c-15 0 -25 -9 -25 -23zM253 0h20h16h182v31h-182v660h182v31h-182h-16h-20h-179v-31h179v-660h-179v-31h179z" />
    <glyph glyph-name="Igrave" unicode="&#xcc;" horiz-adv-x="547" 
d="M373 842c-73 55 -147 111 -222 166h-52c74 -55 148 -111 223 -166h51zM254 0h20h17h182v31h-182v660h182v31h-182h-17h-20h-178v-31h178v-660h-178v-31h178z" />
    <glyph glyph-name="Imacron" unicode="&#x12a;" horiz-adv-x="544" 
d="M416 871h-302v-30h302v30zM253 0h20h16h182v31h-182v660h182v31h-182h-16h-20h-179v-31h179v-660h-179v-31h179z" />
    <glyph glyph-name="Iogonek" unicode="&#x12e;" horiz-adv-x="544" 
d="M194.772 -1.77636e-15c-37.114 -17.178 -62.7724 -40.5925 -62.7724 -86c0 -65 50 -98 120 -98c41 0 68 11 105 28l-16 23c-30 -14 -53 -22 -86 -22c-51 0 -89 22 -89 69c0 54.81 47.6847 67.2336 100.91 86l6.09015 7.10543e-15h16h182v31h-182v660h182v31h-182h-16h-20
h-179v-31h179v-660h-179v-31z" />
    <glyph glyph-name="J" unicode="J" horiz-adv-x="697" 
d="M58 43c38 -20 93 -43 159 -43c153 0 251 75 251 222v469h182v31h-182h-17h-20h-178v-31h178v-469c0 -126 -84 -192 -214 -192c-57 0 -95 16 -143 37z" />
    <glyph glyph-name="K" unicode="K" horiz-adv-x="1060" 
d="M292 362.722c166.861 -110.823 334.415 -220.954 501.331 -331.722l-158.331 -2.84217e-14v-31h205h2h62h136v31h-183.898c-178.889 115.956 -357.074 233.321 -536.102 349c169.116 105.47 333.272 207.634 500.735 311h188.265v31h-138h-58h-3h-204v-31h154.533
c-156.639 -98.2081 -312.604 -196.416 -468.533 -294.624v294.624h178v31h-178h-19h-18h-181v-31h181v-660h-181v-31h181h18h19h180v31h-180v331.722z" />
    <glyph glyph-name="Kcommaaccent" unicode="&#x136;" horiz-adv-x="1060" 
d="M496 -318l150 185h-49l-139 -185h38zM292 362.722c166.861 -110.823 334.415 -220.954 501.331 -331.722l-158.331 -2.84217e-14v-31h205h2h62h136v31h-183.898c-178.889 115.956 -357.074 233.321 -536.102 349c169.116 105.47 333.272 207.634 500.735 311h188.265v31
h-138h-58h-3h-204v-31h154.533c-156.639 -98.2081 -312.604 -196.416 -468.533 -294.624v294.624h178v31h-178h-19h-18h-181v-31h181v-660h-181v-31h181h18h19h180v31h-180v331.722z" />
    <glyph glyph-name="L" unicode="L" horiz-adv-x="913" 
d="M291 0h548v15v16v104h-31v-104h-517v660h178v31h-178h-20h-17h-182v-31h182v-660h-182v-31h182h17h20z" />
    <glyph glyph-name="Lacute" unicode="&#x139;" horiz-adv-x="914" 
d="M206 842c74 55 148 111 222 166h-52c-74 -55 -148 -111 -222 -166h52zM292 0h548v15v16v104h-31v-104h-517v660h179v31h-179h-20h-17h-181v-31h181v-660h-181v-31h181h17h20z" />
    <glyph glyph-name="Lcaron" unicode="&#x13d;" horiz-adv-x="868" 
d="M621 537l150 185h-49l-139 -185h38zM291 0h548v15v16v104h-31v-104h-517v660h178v31h-178h-20h-17h-182v-31h182v-660h-182v-31h182h17h20z" />
    <glyph glyph-name="Lcommaaccent" unicode="&#x13b;" horiz-adv-x="913" 
d="M416 -319l150 186h-49l-139 -186h38zM291 0h548v15v16v104h-31v-104h-517v660h178v31h-178h-20h-17h-182v-31h182v-660h-182v-31h182h17h20z" />
    <glyph glyph-name="Lslash" unicode="&#x141;" horiz-adv-x="913" 
d="M291 0h548v15v16v104h-31v-104h-517v263.624c80.9334 67.9663 161.774 136.171 243 204.376v33c-81.2255 -68.2046 -162.067 -136.025 -243 -203.937v362.937h178v31h-178h-20h-17h-182v-31h182v-393.986c-37.2829 -31.2875 -74.6007 -62.6101 -112 -94.0141v-33
c37.3993 31.1185 74.7171 62.3186 112 93.5768v-232.577h-182v-31h182h17h20z" />
    <glyph glyph-name="M" unicode="M" horiz-adv-x="1418" 
d="M695 0h29h10c114.579 224.5 230.026 448.133 345.532 672.515c23.8803 -214.052 47.079 -427.422 70.9996 -641.515h-176.532v-31h180h18h18h181v31h-184.602c-25.5968 220.255 -51.1578 439.745 -75.9187 660h179.521v31h-183h-2h-14h-17h-5
c-122.07 -231.644 -240.444 -462.364 -359.563 -693.936c-120.223 231.572 -241.407 462.292 -364.437 693.936h-5h-14h-17h-3h-178v-31h174.65c-23.8451 -220.255 -48.4543 -439.745 -72.2993 -660h-181.35v-31h178h20h16h183v31h-179.66
c23.0328 214.1 45.3436 427.478 68.3361 641.537c116.569 -224.389 233.947 -448.029 351.324 -672.537h9z" />
    <glyph glyph-name="N" unicode="N" horiz-adv-x="1243" 
d="M983 0h36h1v691h180v31h-180h-17h-2h-18h-179v-31h179v-654.864c-228.09 228.862 -456.948 456.912 -684 685.864h-7h-17h-20h-4h-175v-31h179v-660h-180l-1 -31h181h19h18h180v31h-180v649.839c226.333 -227.175 452.667 -453.562 679 -680.839h12z" />
    <glyph glyph-name="Nacute" unicode="&#x143;" horiz-adv-x="1243" 
d="M559 843c74 55 148 111 222 166h-52c-74 -55 -148 -111 -222 -166h52zM983 0h36h1v691h180v31h-180h-17h-2h-18h-179v-31h179v-654.864c-228.09 228.862 -456.948 456.912 -684 685.864h-7h-17h-20h-4h-175v-31h179v-660h-180l-1 -31h181h19h18h180v31h-180v649.839
c226.333 -227.175 452.667 -453.562 679 -680.839h12z" />
    <glyph glyph-name="Ncaron" unicode="&#x147;" horiz-adv-x="1243" 
d="M374 1007c74 -55 148 -111 222 -166h10h42h9c75 55 149 111 222 166h-51c-67 -50.7027 -134 -100.586 -201 -150.391c-67 49.8054 -134 99.6883 -201 150.391h-52zM983 0h36h1v691h180v31h-180h-17h-2h-18h-179v-31h179v-654.864
c-228.09 228.862 -456.948 456.912 -684 685.864h-7h-17h-20h-4h-175v-31h179v-660h-180l-1 -31h181h19h18h180v31h-180v649.839c226.333 -227.175 452.667 -453.562 679 -680.839h12z" />
    <glyph glyph-name="Ncommaaccent" unicode="&#x145;" horiz-adv-x="1243" 
d="M554 -318l150 185h-49l-139 -185h38zM983 0h36h1v691h180v31h-180h-17h-2h-18h-179v-31h179v-654.864c-228.09 228.862 -456.948 456.912 -684 685.864h-7h-17h-20h-4h-175v-31h179v-660h-180l-1 -31h181h19h18h180v31h-180v649.839
c226.333 -227.175 452.667 -453.562 679 -680.839h12z" />
    <glyph glyph-name="Ntilde" unicode="&#xd1;" horiz-adv-x="1243" 
d="M850 970c-18 -56 -43 -100 -98 -100c-49 0 -81 15 -119 47c-40 34 -73 54 -126 54c-75 0 -118 -46 -138 -121l28 -9c17 61 51 101 111 101c43 0 70 -19 103 -47c44 -36 82 -55 138 -55c72 0 107 51 131 121c-30 9 -1 0 -30 9zM983 0h36h1v691h180v31h-180h-17h-2h-18
h-179v-31h179v-654.864c-228.09 228.862 -456.948 456.912 -684 685.864h-7h-17h-20h-4h-175v-31h179v-660h-180l-1 -31h181h19h18h180v31h-180v649.839c226.333 -227.175 452.667 -453.562 679 -680.839h12z" />
    <glyph glyph-name="O" unicode="O" horiz-adv-x="1061" 
d="M123 360c0 -232 167 -365 407 -365c241 0 407 135 407 368c0 231 -166 364 -406 364c-241 0 -408 -135 -408 -367zM160 360c0 210 150 336 368 336c220 0 373 -123 373 -333c0 -211 -151 -336 -369 -336c-220 0 -372 122 -372 333z" />
    <glyph glyph-name="OE" unicode="&#x152;" horiz-adv-x="1408" 
d="M759 0h559v15v16v104h-31v-104h-528v328h429v30h-429v302h483v-104h31v104v16v15h-514h-16h-17h-4h-108.621c-17.7102 0.790072 -36.275 1 -56.3793 1c-259 0 -436 -130 -436 -379c0 -229 167 -345 408 -345c19.1798 0 36.9344 0.285018 53.8024 1h139.198h4h17h16z
M722 672.658v-619.484c-66.542 -20.3073 -118.365 -21.1745 -191 -21.1745c-215 0 -373 105 -373 313c0 227 164 345 398 345c5.30769 0 10.503 0.00591716 15.6004 0.00591716c55.4649 0 99.3434 -0.700569 150.4 -17.3475z" />
    <glyph glyph-name="Oacute" unicode="&#xd3;" horiz-adv-x="1061" 
d="M464 843c74 55 148 111 222 166h-52c-75 -55 -149 -111 -222 -166h52zM123 360c0 -232 167 -365 407 -365c241 0 407 135 407 368c0 231 -166 364 -406 364c-241 0 -408 -135 -408 -367zM160 360c0 210 150 336 368 336c220 0 373 -123 373 -333
c0 -211 -151 -336 -369 -336c-220 0 -372 122 -372 333z" />
    <glyph glyph-name="Ocircumflex" unicode="&#xd4;" horiz-adv-x="1061" 
d="M784 842c-74 55 -147 111 -222 166h-9h-43h-9c-75 -55 -149 -111 -222 -166h52c66.8333 50.5766 133.667 100.337 200.5 150.019c66.8333 -49.6819 133.667 -99.4428 200.5 -150.019h52zM123 360c0 -232 167 -365 407 -365c241 0 407 135 407 368
c0 231 -166 364 -406 364c-241 0 -408 -135 -408 -367zM160 360c0 210 150 336 368 336c220 0 373 -123 373 -333c0 -211 -151 -336 -369 -336c-220 0 -372 122 -372 333z" />
    <glyph glyph-name="Odieresis" unicode="&#xd6;" horiz-adv-x="1061" 
d="M591 855h51c0 -15 -11 -23 -26 -23s-25 8 -25 23zM591 855h51c0 15 -11 23 -26 23s-25 -9 -25 -23zM422 855h51c0 -15 -11 -23 -27 -23c-15 0 -24 8 -24 23zM422 855h51c0 15 -11 23 -27 23c-14 0 -24 -9 -24 -23zM123 360c0 -232 167 -365 407 -365
c241 0 407 135 407 368c0 231 -166 364 -406 364c-241 0 -408 -135 -408 -367zM160 360c0 210 150 336 368 336c220 0 373 -123 373 -333c0 -211 -151 -336 -369 -336c-220 0 -372 122 -372 333z" />
    <glyph glyph-name="Ograve" unicode="&#xd2;" horiz-adv-x="1061" 
d="M631 842c-74 55 -148 111 -222 166h-52c74 -55 148 -111 222 -166h52zM123 360c0 -232 167 -365 407 -365c241 0 407 135 407 368c0 231 -166 364 -406 364c-241 0 -408 -135 -408 -367zM160 360c0 210 150 336 368 336c220 0 373 -123 373 -333
c0 -211 -151 -336 -369 -336c-220 0 -372 122 -372 333z" />
    <glyph glyph-name="Ohungarumlaut" unicode="&#x150;" horiz-adv-x="1061" 
d="M592 778l150 186h-49l-139 -186h38zM421 778l149 186h-48l-139 -186h38zM123 360c0 -232 167 -365 407 -365c241 0 407 135 407 368c0 231 -166 364 -406 364c-241 0 -408 -135 -408 -367zM160 360c0 210 150 336 368 336c220 0 373 -123 373 -333
c0 -211 -151 -336 -369 -336c-220 0 -372 122 -372 333z" />
    <glyph glyph-name="Omacron" unicode="&#x14c;" horiz-adv-x="1061" 
d="M676 871h-303v-30h303v30zM123 360c0 -232 167 -365 407 -365c241 0 407 135 407 368c0 231 -166 364 -406 364c-241 0 -408 -135 -408 -367zM160 360c0 210 150 336 368 336c220 0 373 -123 373 -333c0 -211 -151 -336 -369 -336c-220 0 -372 122 -372 333z" />
    <glyph glyph-name="Oslash" unicode="&#xd8;" horiz-adv-x="1061" 
d="M123 360c0 -149.504 69.35 -257.896 182.895 -316.079l-70.895 -103.921l25 -18l74.2002 108.836c56.7817 -23.5731 122.925 -35.8356 195.8 -35.8356c241 0 407 135 407 368c0 142.125 -62.8382 247.152 -167.088 306.931l62.0876 91.069l-26 16l-63.3738 -92.8964
c-60.0868 28.1676 -131.759 42.8964 -211.626 42.8964c-241 0 -408 -135 -408 -367zM160 360c0 210 150 336 368 336c73.7352 0 139.944 -13.8169 195.389 -40.0952l-397.965 -583.357c-102.895 53.4005 -165.424 152.12 -165.424 287.453zM750.548 641.528
c93.8508 -55.2578 150.452 -150.801 150.452 -278.528c0 -211 -151 -336 -369 -336c-66.3986 0 -126.603 11.113 -178.304 32.4318z" />
    <glyph glyph-name="Otilde" unicode="&#xd5;" horiz-adv-x="1061" 
d="M755 970c-19 -56 -43 -100 -99 -100c-48 0 -81 15 -118 47c-41 34 -73 54 -126 54c-75 0 -119 -46 -139 -121l28 -9c18 61 51 101 111 101c44 0 71 -19 104 -47c43 -36 81 -55 138 -55c72 0 106 51 130 121zM123 360c0 -232 167 -365 407 -365c241 0 407 135 407 368
c0 231 -166 364 -406 364c-241 0 -408 -135 -408 -367zM160 360c0 210 150 336 368 336c220 0 373 -123 373 -333c0 -211 -151 -336 -369 -336c-220 0 -372 122 -372 333z" />
    <glyph glyph-name="P" unicode="P" horiz-adv-x="885" 
d="M292 346.606v344.394h154c163 0 297 -55 297 -200c0 -129 -115 -184 -257 -184c-73.716 0 -127.269 14.6643 -194 39.6058zM279 722h-4h-21h-178v-31h178v-660h-178v-31h178h21h17h181v31h-181v283.46c62.8521 -22.0524 121.56 -37.4602 190 -37.4602
c166 3 298 66 298 216c0 161 -148 229 -329 229h-159h-13z" />
    <glyph glyph-name="Q" unicode="Q" horiz-adv-x="1082" 
d="M123 360c0 -232 170 -365 411 -365c0.758374 0 1.51602 0.00407261 2.27293 0.00407261c145.816 -190.589 307.153 -232.004 540.727 -232.004v32c-212.039 0 -362.043 34.6664 -498.808 201.589c216.063 15.8185 362.808 148.997 362.808 367.411
c0 231 -167 363 -407 363c-242 0 -411 -135 -411 -367zM160 360c0 211 153 334 372 334c220 0 372 -121 372 -331c0 -211 -151 -335 -369 -335c-221 0 -375 121 -375 332z" />
    <glyph glyph-name="R" unicode="R" horiz-adv-x="1114" 
d="M275 722h-4h-17h-182v-31h182v-660h-182v-31h182h17h20h178v31h-178v305h212c13.7763 0 27.2703 0.321785 40.4372 0.993028c108.61 -112.331 218.04 -224.662 326.563 -336.993h8h39h158v31h-188.212l-301.593 309.461c127.147 15.0133 214.805 69.9204 214.805 194.539
c0 144 -123 187 -285 187h-224h-16zM291 691h218c144 0 255 -33 255 -159c0 -127 -112 -166 -256 -166h-217v325z" />
    <glyph glyph-name="Racute" unicode="&#x154;" horiz-adv-x="1114" 
d="M415 843c74 55 148 111 222 166h-52c-75 -55 -149 -111 -222 -166h52zM275 722h-4h-17h-182v-31h182v-660h-182v-31h182h17h20h178v31h-178v305h212c13.7763 0 27.2703 0.321785 40.4372 0.993028c108.61 -112.331 218.04 -224.662 326.563 -336.993h8h39h158v31
h-188.212l-301.593 309.461c127.147 15.0133 214.805 69.9204 214.805 194.539c0 144 -123 187 -285 187h-224h-16zM291 691h218c144 0 255 -33 255 -159c0 -127 -112 -166 -256 -166h-217v325z" />
    <glyph glyph-name="Rcaron" unicode="&#x158;" horiz-adv-x="1114" 
d="M230 1007c73 -55 147 -111 222 -166h9h43h9c74 55 148 111 222 166h-52c-66.8333 -50.5766 -133.667 -100.337 -200.5 -150.019c-66.8333 49.6819 -133.667 99.4428 -200.5 150.019h-52zM275 722h-4h-17h-182v-31h182v-660h-182v-31h182h17h20h178v31h-178v305h212
c13.7763 0 27.2703 0.321785 40.4372 0.993028c108.61 -112.331 218.04 -224.662 326.563 -336.993h8h39h158v31h-188.212l-301.593 309.461c127.147 15.0133 214.805 69.9204 214.805 194.539c0 144 -123 187 -285 187h-224h-16zM291 691h218c144 0 255 -33 255 -159
c0 -127 -112 -166 -256 -166h-217v325z" />
    <glyph glyph-name="Rcommaaccent" unicode="&#x156;" horiz-adv-x="1114" 
d="M474 -318l149 185h-48l-139 -185h38zM275 722h-4h-17h-182v-31h182v-660h-182v-31h182h17h20h178v31h-178v305h212c13.7763 0 27.2703 0.321785 40.4372 0.993028c108.61 -112.331 218.04 -224.662 326.563 -336.993h8h39h158v31h-188.212l-301.593 309.461
c127.147 15.0133 214.805 69.9204 214.805 194.539c0 144 -123 187 -285 187h-224h-16zM291 691h218c144 0 255 -33 255 -159c0 -127 -112 -166 -256 -166h-217v325z" />
    <glyph glyph-name="S" unicode="S" horiz-adv-x="833" 
d="M129 57c91 -41 182 -62 281 -62c164 0 291 35 291 176c0 136 -131 167 -266 215c-117 40 -238 63 -238 175c0 99 101 137 217 137c87.4706 0 153.71 -19.4617 232 -52.5609v-105.439h31v123c-89 40 -163 64 -261 64c-138 0 -255 -48 -255 -168c0 -129 126 -156 253 -201
c125 -43 250 -70 250 -187s-110 -143 -252 -143c-88.0335 0 -170.573 18.3126 -252 53.1856v99.8144h-31v-124z" />
    <glyph glyph-name="Sacute" unicode="&#x15a;" horiz-adv-x="833" 
d="M350 843c74 55 148 111 222 166h-52c-74 -55 -148 -111 -222 -166h52zM129 57c91 -41 182 -62 281 -62c164 0 291 35 291 176c0 136 -131 167 -266 215c-117 40 -238 63 -238 175c0 99 101 137 217 137c87.4706 0 153.71 -19.4617 232 -52.5609v-105.439h31v123
c-89 40 -163 64 -261 64c-138 0 -255 -48 -255 -168c0 -129 126 -156 253 -201c125 -43 250 -70 250 -187s-110 -143 -252 -143c-88.0335 0 -170.573 18.3126 -252 53.1856v99.8144h-31v-124z" />
    <glyph glyph-name="Scaron" unicode="&#x160;" horiz-adv-x="834" 
d="M166 1007c74 -55 148 -111 222 -166h10h42h9c75 55 149 111 222 166h-51c-67 -50.7027 -134 -100.586 -201 -150.391c-67 49.8054 -134 99.6883 -201 150.391h-52zM130 57c91 -41 182 -62 281 -62c164 0 291 35 291 176c0 136 -131 167 -266 215
c-117 40 -238 63 -238 175c0 99 101 137 217 137c87.4706 0 153.71 -19.4617 232 -52.5609v-105.439h31v123c-89 40 -163 64 -261 64c-138 0 -255 -48 -255 -168c0 -129 126 -156 253 -201c124 -43 250 -70 250 -187s-110 -143 -252 -143
c-87.9904 0 -171.407 18.2947 -252 53.1344v99.8656h-31v-124z" />
    <glyph glyph-name="Scedilla" unicode="&#x15e;" horiz-adv-x="833" 
d="M339 -92c20 10 37 12 59 12c40 0 70 -16 70 -53c0 -42 -40 -52 -87 -52c-35 0 -62 3 -95 18l-12 -23c36 -16 66 -22 105 -22c69 0 124 19 124 79c0 55 -43 82 -102 82c-12.436 0 -23.5128 -1.05721 -34.2281 -2.99555c12.8783 16.9387 25.91 34.0771 37.0221 49.0231
c2.06519 -0.0183906 4.13382 -0.0275905 6.20594 -0.0275905c164 0 291 35 291 176c0 136 -131 167 -266 215c-117 40 -238 63 -238 175c0 99 101 137 217 137c87.4706 0 153.71 -19.4617 232 -52.5609v-105.439h31v123c-89 40 -163 64 -261 64c-138 0 -255 -48 -255 -168
c0 -129 126 -156 253 -201c125 -43 250 -70 250 -187s-110 -143 -252 -143c-88.0335 0 -170.573 18.3126 -252 53.1856v99.8144h-31v-124c76.2521 -34.3553 152.504 -54.668 233.463 -60.3496c-16.1961 -21.8856 -33.693 -45.4495 -48.4629 -64.6504l1 -1l23 -23
c0.139151 0.185534 0.278565 0.371376 0.418239 0.557521z" />
    <glyph glyph-name="Scommaaccent" unicode="&#x218;" horiz-adv-x="833" 
d="M298 -323l150 186h-49l-139 -186h38zM129 57c91 -41 182 -62 281 -62c164 0 291 35 291 176c0 136 -131 167 -266 215c-117 40 -238 63 -238 175c0 99 101 137 217 137c87.4706 0 153.71 -19.4617 232 -52.5609v-105.439h31v123c-89 40 -163 64 -261 64
c-138 0 -255 -48 -255 -168c0 -129 126 -156 253 -201c125 -43 250 -70 250 -187s-110 -143 -252 -143c-88.0335 0 -170.573 18.3126 -252 53.1856v99.8144h-31v-124z" />
    <glyph glyph-name="T" unicode="T" horiz-adv-x="1012" 
d="M488 689v-659h-182v-30h182h17h19h179v30h-179v659h368v-103h31v103v17v16h-834v-16v-17v-103h31v103h368z" />
    <glyph glyph-name="Tcaron" unicode="&#x164;" horiz-adv-x="1012" 
d="M250 1006c73 -55 147 -111 222 -166h9h43h9c75 55 148 111 222 166h-52c-66.8333 -50.5766 -133.667 -100.337 -200.5 -150.019c-66.8333 49.6819 -133.667 99.4428 -200.5 150.019h-52zM488 689v-659h-182v-30h182h17h19h179v30h-179v659h368v-103h31v103v17v16h-834
v-16v-17v-103h31v103h368z" />
    <glyph glyph-name="Tcedilla" horiz-adv-x="1011" 
d="M490.425 -54.0477c13.5738 18.09 27.4132 36.4105 39.5754 52.0477l-2.57143 2h175.571v30h-179v659h368v-103h31v103v17v16h-834v-16v-17v-103h31v103h368v-659h-182v-30h182h0.824771c-17.1054 -22.8093 -36.0745 -47.8154 -50.8248 -68l0.744311 -0.744311
c-0.247566 -0.0849871 -0.495667 -0.170217 -0.744311 -0.255689l24 -23c21 10 37 12 60 12c40 0 70 -16 70 -53c0 -42 -40 -51 -87 -51c-36 0 -62 2 -95 17l-13 -23c37 -16 66 -22 106 -22c69 0 124 19 124 79c0 55 -44 82 -102 82
c-12.5471 0 -23.7106 -1.07618 -34.5754 -3.04771z" />
    <glyph glyph-name="Tcommaaccent" unicode="&#x162;" horiz-adv-x="1012" 
d="M428 -324l149 186h-48l-139 -186h38zM488 689v-659h-182v-30h182h17h19h179v30h-179v659h368v-103h31v103v17v16h-834v-16v-17v-103h31v103h368z" />
    <glyph glyph-name="Thorn" unicode="&#xde;" horiz-adv-x="878" 
d="M292 691h181v31h-181h-17h-21h-178v-31h178v-660h-178v-31h178h21h17h181v31h-181v182.201c63.033 -22.7884 122.649 -38.2009 192 -38.2009c164 3 294 66 294 214c0 160 -147 226 -327 226h-159v76zM292 245.489v339.511h154c162 0 295 -55 295 -197
c0 -127 -114 -182 -255 -182c-73.716 0 -127.269 13.7478 -194 39.4885z" />
    <glyph glyph-name="U" unicode="U" horiz-adv-x="1165" 
d="M261 691h185v31h-199h-198v-31h178v-419c0 -204 136 -277 358 -277c218 0 352 71 352 271v425h182v31h-199h-198v-31h181v-430c0 -170 -121 -233 -315 -233c-203 0 -327 64 -327 250v413z" />
    <glyph glyph-name="Uacute" unicode="&#xda;" horiz-adv-x="1165" 
d="M513 843c74 55 148 111 222 166h-52c-74 -55 -148 -111 -222 -166h52zM261 691h185v31h-199h-198v-31h178v-419c0 -204 136 -277 358 -277c218 0 352 71 352 271v425h182v31h-199h-198v-31h181v-430c0 -170 -121 -233 -315 -233c-203 0 -327 64 -327 250v413z" />
    <glyph glyph-name="Ucircumflex" unicode="&#xdb;" horiz-adv-x="1165" 
d="M834 842c-74 55 -148 111 -223 166h-9h-42h-10c-74 -55 -148 -111 -222 -166h52c67 50.7027 134 100.586 201 150.391c67 -49.8054 134 -99.6883 201 -150.391h52zM261 691h185v31h-199h-198v-31h178v-419c0 -204 136 -277 358 -277c218 0 352 71 352 271v425h182v31
h-199h-198v-31h181v-430c0 -170 -121 -233 -315 -233c-203 0 -327 64 -327 250v413z" />
    <glyph glyph-name="Udieresis" unicode="&#xdc;" horiz-adv-x="1165" 
d="M640 855h52c0 -15 -11 -23 -27 -23c-15 0 -25 8 -25 23zM640 855h52c0 15 -11 23 -27 23c-15 0 -25 -9 -25 -23zM471 855h52c0 -15 -11 -23 -27 -23c-15 0 -25 8 -25 23zM471 855h52c0 15 -11 23 -27 23c-15 0 -25 -9 -25 -23zM261 691h185v31h-199h-198v-31h178v-419
c0 -204 136 -277 358 -277c218 0 352 71 352 271v425h182v31h-199h-198v-31h181v-430c0 -170 -121 -233 -315 -233c-203 0 -327 64 -327 250v413z" />
    <glyph glyph-name="Ugrave" unicode="&#xd9;" horiz-adv-x="1165" 
d="M680 842c-73 55 -147 111 -222 166h-51c74 -55 148 -111 222 -166h51zM261 691h185v31h-199h-198v-31h178v-419c0 -204 136 -277 358 -277c218 0 352 71 352 271v425h182v31h-199h-198v-31h181v-430c0 -170 -121 -233 -315 -233c-203 0 -327 64 -327 250v413z" />
    <glyph glyph-name="Uhungarumlaut" unicode="&#x170;" horiz-adv-x="1165" 
d="M642 778l149 186h-48l-139 -186h38zM471 778l149 186h-49l-139 -186h39zM261 691h185v31h-199h-198v-31h178v-419c0 -204 136 -277 358 -277c218 0 352 71 352 271v425h182v31h-199h-198v-31h181v-430c0 -170 -121 -233 -315 -233c-203 0 -327 64 -327 250v413z" />
    <glyph glyph-name="Umacron" unicode="&#x16a;" horiz-adv-x="1165" 
d="M725 871h-303v-30h303v30zM261 691h185v31h-199h-198v-31h178v-419c0 -204 136 -277 358 -277c218 0 352 71 352 271v425h182v31h-199h-198v-31h181v-430c0 -170 -121 -233 -315 -233c-203 0 -327 64 -327 250v413z" />
    <glyph glyph-name="Uogonek" unicode="&#x172;" horiz-adv-x="1165" 
d="M513.091 -2.11838c-42.371 -17.6079 -73.0907 -40.5483 -73.0907 -89.8816c0 -65 51 -98 120 -98c41 0 69 11 106 27l-16 24c-31 -14 -53 -22 -86 -22c-52 0 -90 22 -90 69c0 55.8005 50.2083 67.6688 104.07 87.024
c2.30067 -0.0160042 4.61078 -0.0239732 6.93028 -0.0239734c218 0 352 71 352 271v425h182v31h-199h-198v-31h181v-430c0 -170 -121 -233 -315 -233c-203 0 -327 64 -327 250v413h185v31h-199h-198v-31h178v-419c0 -180.942 106.993 -258.824 286.091 -274.118z" />
    <glyph glyph-name="Uring" unicode="&#x16e;" horiz-adv-x="1165" 
d="M460 958c0 62 51 91 119 91c72 0 127 -26 127 -91c0 -63 -54 -90 -125 -90c-68 0 -121 27 -121 90zM427 958c0 -80 67 -119 154 -119c90 0 159 37 159 119c0 84 -70 120 -162 120c-86 0 -151 -38 -151 -120zM261 691h185v31h-199h-198v-31h178v-419
c0 -204 136 -277 358 -277c218 0 352 71 352 271v425h182v31h-199h-198v-31h181v-430c0 -170 -121 -233 -315 -233c-203 0 -327 64 -327 250v413z" />
    <glyph glyph-name="V" unicode="V" horiz-adv-x="1126" 
d="M549 0h7c119.639 230.665 238.363 460.414 357.924 691h178.076v31h-162h-37h-2h-206v-31h189.924c-114.252 -220.348 -227.74 -439.931 -341.993 -660.28c-115.316 220.349 -231.398 439.932 -346.715 660.28h187.784v31h-204h-2h-2h-37h-162v-31h178.334
c121.475 -230.586 242.113 -460.335 363.666 -691h8h32z" />
    <glyph glyph-name="W" unicode="W" horiz-adv-x="1396" 
d="M936.261 41.8443c-74.6386 226.946 -150.95 453.107 -227.261 680.156h-9h-25h-10c-83.6026 -226.384 -168.088 -451.887 -252.626 -678.164c-71.89 215.27 -145.142 431.951 -216.157 647.164h187.783v31h-198h-1h-37h-161v-31h171.426
c77.6067 -230.586 156.09 -460.335 234.574 -691h3h31h3c85.5895 229.19 171.179 457.475 256.768 686.576c76.1705 -229.101 153.201 -457.386 230.232 -686.576h5h28h5c81.3548 230.665 162.71 460.414 243.188 691h172.812v31h-162h-37h-198v-31h187.193
c-75.5317 -216.64 -150.994 -432.54 -224.933 -649.156z" />
    <glyph glyph-name="X" unicode="X" horiz-adv-x="1041" 
d="M521.301 357.945c99.8603 -108.918 199.726 -217.837 300.154 -326.945h-181.455v-31h199h11h45h143v31h-171.438c-107.516 117.162 -215.248 234.109 -322.966 351.069c95.1169 102.914 190.331 205.839 285.72 308.931h172.684v31h-144h-44h-10h-199v-31h180.3
c-87.9021 -94.8951 -176.088 -189.648 -264.313 -284.382c-87.2434 94.7336 -174.467 189.487 -261.549 284.382h177.562v31h-199h-7h-44h-148v-31h176.545c94.7153 -102.901 188.93 -205.635 283.112 -308.358c-109.111 -117.151 -218.251 -234.288 -326.957 -351.642
h-173.7v-31h145h48h5h199v31h-175.439c100.54 109.107 201.09 218.027 301.74 326.945z" />
    <glyph glyph-name="Y" unicode="Y" horiz-adv-x="983" 
d="M480 338.143c102.619 117.297 203.57 235.429 305.928 352.857h167.072v31h-140h-38h-21h-199v-31h192.892c-96.3847 -110.294 -192.65 -221.21 -287.52 -331.472c-91.0418 110.262 -180.776 221.177 -271.752 331.472h193.38v31h-198h-21h-38h-140v-31h165.415
c96.2043 -117.406 192.476 -235.516 289.585 -352.792v-307.208h-179v-31h179h20h20h178v31h-178v307.143z" />
    <glyph glyph-name="Yacute" unicode="&#xdd;" horiz-adv-x="983" 
d="M391 843c74 55 148 111 222 166h-51c-75 -55 -149 -111 -223 -166h52zM480 338.143c102.619 117.297 203.57 235.429 305.928 352.857h167.072v31h-140h-38h-21h-199v-31h192.892c-96.3847 -110.294 -192.65 -221.21 -287.52 -331.472
c-91.0418 110.262 -180.776 221.177 -271.752 331.472h193.38v31h-198h-21h-38h-140v-31h165.415c96.2043 -117.406 192.476 -235.516 289.585 -352.792v-307.208h-179v-31h179h20h20h178v31h-178v307.143z" />
    <glyph glyph-name="Ydieresis" unicode="&#x178;" horiz-adv-x="983" 
d="M519 855h51c0 -15 -11 -23 -27 -23c-15 0 -24 8 -24 23zM519 855h51c0 15 -11 23 -27 23c-15 0 -24 -9 -24 -23zM349 855h52c0 -15 -11 -23 -27 -23c-15 0 -25 8 -25 23zM349 855h52c0 15 -11 23 -27 23c-15 0 -25 -9 -25 -23zM480 338.143
c102.619 117.297 203.57 235.429 305.928 352.857h167.072v31h-140h-38h-21h-199v-31h192.892c-96.3847 -110.294 -192.65 -221.21 -287.52 -331.472c-91.0418 110.262 -180.776 221.177 -271.752 331.472h193.38v31h-198h-21h-38h-140v-31h165.415
c96.2043 -117.406 192.476 -235.516 289.585 -352.792v-307.208h-179v-31h179h20h20h178v31h-178v307.143z" />
    <glyph glyph-name="Z" unicode="Z" horiz-adv-x="942" 
d="M124.054 31c214.911 213 0.157266 0.0832088 673.946 660v31h-670v-15v-16v-104h31v104h589.919c-214.866 -212.001 -0.149322 -0.11112 -672.919 -660v-31h770v15v16v104h-31v-104h-690.946z" />
    <glyph glyph-name="Zacute" unicode="&#x179;" horiz-adv-x="942" 
d="M401 843c74 55 148 110 222 166h-52c-74 -55 -148 -111 -222 -166h52zM124.054 31c214.911 213 0.157266 0.0832088 673.946 660v31h-670v-15v-16v-104h31v104h589.919c-214.866 -212.001 -0.149322 -0.11112 -672.919 -660v-31h770v15v16v104h-31v-104h-690.946z" />
    <glyph glyph-name="Zcaron" unicode="&#x17d;" horiz-adv-x="942" 
d="M216 1006c74 -55 148 -111 222 -166h10h42h9c75 55 149 111 223 166h-52c-67 -49.7973 -134 -99.5946 -201 -150.134c-67 50.5395 -134 100.337 -201 150.134h-52zM124.054 31c214.911 213 0.157266 0.0832088 673.946 660v31h-670v-15v-16v-104h31v104h589.919
c-214.866 -212.001 -0.149322 -0.11112 -672.919 -660v-31h770v15v16v104h-31v-104h-690.946z" />
    <glyph glyph-name="Zdotaccent" unicode="&#x17b;" horiz-adv-x="942" 
d="M442 856h52c0 14 -11 23 -27 23c-15 0 -25 -9 -25 -23zM442 856h52c0 -15 -11 -23 -27 -23c-15 0 -25 8 -25 23zM124.054 31c214.911 213 0.157266 0.0832088 673.946 660v31h-670v-15v-16v-104h31v104h589.919c-214.866 -212.001 -0.149322 -0.11112 -672.919 -660v-31
h770v15v16v104h-31v-104h-690.946z" />
    <glyph glyph-name="a" unicode="a" horiz-adv-x="798" 
d="M611 0h15h170v30h-170v357c0 126 -93 151 -227 151c-110 0 -192 -30 -259 -74v-121h31v105.035c58.6732 33.2749 129.234 58.9655 223 58.9655c116 0 196 -18 196 -128v-58.7106c-97.9869 -9.73834 -160.789 -13.879 -263 -24.2894c-119 -12 -209 -35 -209 -143
c0 -111 81 -158 202 -158c122.361 0 188.037 48.4698 270 131.262v-126.262h21zM590 161.275c-84.7452 -81.7304 -145.689 -136.275 -264 -136.275c-102 0 -172 37 -172 130c0 87 76 104 172 114c102.863 10.3806 165.65 16.3085 264 26.1877v-133.912z" />
    <glyph glyph-name="aacute" unicode="&#xe1;" horiz-adv-x="798" 
d="M338 657c74 55 148 110 222 166h-52c-74 -55 -148 -111 -222 -166h52zM611 0h15h170v30h-170v357c0 126 -93 151 -227 151c-110 0 -192 -30 -259 -74v-121h31v105.035c58.6732 33.2749 129.234 58.9655 223 58.9655c116 0 196 -18 196 -128v-58.7106
c-97.9869 -9.73834 -160.789 -13.879 -263 -24.2894c-119 -12 -209 -35 -209 -143c0 -111 81 -158 202 -158c122.361 0 188.037 48.4698 270 131.262v-126.262h21zM590 161.275c-84.7452 -81.7304 -145.689 -136.275 -264 -136.275c-102 0 -172 37 -172 130
c0 87 76 104 172 114c102.863 10.3806 165.65 16.3085 264 26.1877v-133.912z" />
    <glyph glyph-name="abreve" unicode="&#x103;" horiz-adv-x="798" 
d="M559 780c0 -74 -68 -97 -152 -97c-82 0 -147 26 -147 98h-33c0 -92 76 -127 178 -127c107 0 188 31 188 126h-34zM611 0h15h170v30h-170v357c0 126 -93 151 -227 151c-110 0 -192 -30 -259 -74v-121h31v105.035c58.6732 33.2749 129.234 58.9655 223 58.9655
c116 0 196 -18 196 -128v-58.7106c-97.9869 -9.73834 -160.789 -13.879 -263 -24.2894c-119 -12 -209 -35 -209 -143c0 -111 81 -158 202 -158c122.361 0 188.037 48.4698 270 131.262v-126.262h21zM590 161.275c-84.7452 -81.7304 -145.689 -136.275 -264 -136.275
c-102 0 -172 37 -172 130c0 87 76 104 172 114c102.863 10.3806 165.65 16.3085 264 26.1877v-133.912z" />
    <glyph glyph-name="acircumflex" unicode="&#xe2;" horiz-adv-x="799" 
d="M659 656c-74 55 -147 111 -222 166h-9h-43h-9c-75 -55 -149 -111 -222 -166h52c66.8333 49.6734 133.667 100.163 200.5 149.994c66.8333 -49.8314 133.667 -100.321 200.5 -149.994h52zM611 0h16h170v30h-170v357c0 126 -93 151 -228 151c-110 0 -192 -30 -259 -74v-121
h31v104.897c59.4716 33.3414 130.017 59.1027 223 59.1027c117 0 197 -18 197 -128v-58.6248c-97.7156 -9.79989 -161.438 -13.9343 -263 -24.3752c-119 -12 -210 -35 -210 -143c0 -111 82 -158 202 -158c122.487 0 188.172 48.5696 271 131.518v-126.518h20zM591 161.275
c-84.7461 -81.7304 -145.72 -136.275 -265 -136.275c-102 0 -171 37 -171 130c0 87 75 104 171 114c102.866 10.381 166.545 16.3088 265 26.1886v-133.913z" />
    <glyph glyph-name="acute" unicode="&#xb4;" horiz-adv-x="404" 
d="M63 591c74 55 148 111 222 166h-52c-75 -55 -148 -111 -222 -166h52z" />
    <glyph glyph-name="adieresis" unicode="&#xe4;" horiz-adv-x="798" 
d="M465 669h52c0 -15 -11 -23 -27 -23c-15 0 -25 8 -25 23zM465 669h52c0 15 -11 23 -27 23c-15 0 -25 -9 -25 -23zM296 669h52c0 -15 -11 -23 -27 -23c-15 0 -25 8 -25 23zM296 669h52c0 15 -11 23 -27 23c-15 0 -25 -9 -25 -23zM611 0h15h170v30h-170v357
c0 126 -93 151 -227 151c-110 0 -192 -30 -259 -74v-121h31v105.035c58.6732 33.2749 129.234 58.9655 223 58.9655c116 0 196 -18 196 -128v-58.7106c-97.9869 -9.73834 -160.789 -13.879 -263 -24.2894c-119 -12 -209 -35 -209 -143c0 -111 81 -158 202 -158
c122.361 0 188.037 48.4698 270 131.262v-126.262h21zM590 161.275c-84.7452 -81.7304 -145.689 -136.275 -264 -136.275c-102 0 -172 37 -172 130c0 87 76 104 172 114c102.863 10.3806 165.65 16.3085 264 26.1877v-133.912z" />
    <glyph glyph-name="ae" unicode="&#xe6;" horiz-adv-x="1259" 
d="M1104 297h-479.584c6.90683 138.741 99.3604 209 243.584 209c142 0 236 -63 236 -202v-7zM624.187 268h514.813v33c0 160 -106 236 -268 236c-116.605 0 -204.468 -38.1726 -249.745 -115.12c-16.296 95.8746 -103.77 116.12 -225.255 116.12c-110 0 -191 -30 -258 -74
v-112h31v93.9309c60.163 35.0457 125.429 61.0691 223 61.0691c116 0 195 -18 195 -128v-81.9912c-12.0573 0.00979252 -23.6124 0.0242196 -34.8107 0.0242196c-76.2802 0 -136.008 -0.669421 -225.189 -8.03306c-119 -12 -211 -31 -211 -139c0 -110 81 -155 202 -155
c126.927 0 214.377 43.9639 304.842 131.892c49.9895 -88.7002 149.525 -132.892 281.158 -132.892c93 0 154 22 230 78l-22 23c-70 -50 -124 -70 -208 -70c-166.904 0 -274.743 81.9299 -279.813 243zM587.165 268.026c1.16797 -41.882 8.5013 -78.9466 21.3816 -111.205
c-85.7914 -82.1314 -166.418 -131.821 -284.547 -131.821c-97 0 -172 34 -172 127c0 76 78 100 174 110c66.6 5.4 115.2 6.48 166.536 6.48c29.356 0 59.6066 -0.353161 94.6294 -0.453628z" />
    <glyph glyph-name="agrave" unicode="&#xe0;" horiz-adv-x="798" 
d="M505 656c-73 55 -147 111 -222 166h-51c74 -55 148 -111 222 -166h51zM611 0h15h170v30h-170v357c0 126 -93 151 -227 151c-110 0 -192 -30 -259 -74v-121h31v105.035c58.6732 33.2749 129.234 58.9655 223 58.9655c116 0 196 -18 196 -128v-58.7106
c-97.9869 -9.73834 -160.789 -13.879 -263 -24.2894c-119 -12 -209 -35 -209 -143c0 -111 81 -158 202 -158c122.361 0 188.037 48.4698 270 131.262v-126.262h21zM590 161.275c-84.7452 -81.7304 -145.689 -136.275 -264 -136.275c-102 0 -172 37 -172 130
c0 87 76 104 172 114c102.863 10.3806 165.65 16.3085 264 26.1877v-133.912z" />
    <glyph glyph-name="amacron" unicode="&#x101;" horiz-adv-x="798" 
d="M550 685h-303v-30h303v30zM611 0h15h170v30h-170v357c0 126 -93 151 -227 151c-110 0 -192 -30 -259 -74v-121h31v105.035c58.6732 33.2749 129.234 58.9655 223 58.9655c116 0 196 -18 196 -128v-58.7106c-97.9869 -9.73834 -160.789 -13.879 -263 -24.2894
c-119 -12 -209 -35 -209 -143c0 -111 81 -158 202 -158c122.361 0 188.037 48.4698 270 131.262v-126.262h21zM590 161.275c-84.7452 -81.7304 -145.689 -136.275 -264 -136.275c-102 0 -172 37 -172 130c0 87 76 104 172 114c102.863 10.3806 165.65 16.3085 264 26.1877
v-133.912z" />
    <glyph glyph-name="ampersand" unicode="&#x26;" horiz-adv-x="945" 
d="M369.184 364.364c14.0368 -9.87265 28.1109 -19.9012 41.8158 -30.3641c88.3372 -66.7036 178.48 -134.129 268.041 -201.192c-74.3086 -69.8033 -169.055 -108.808 -286.041 -108.808c-131 0 -242 41 -242 156c0 112.67 110.379 138.405 218.184 184.364z
M703.856 114.224c51.1255 -38.2936 101.989 -76.4359 152.144 -114.224h46c-59.0513 44.0968 -118.544 89.0757 -178.252 134.26c46.2865 49.4863 84.2795 111.02 114.252 182.74l-31 8c-28.5254 -67.5221 -64.352 -125.527 -107.904 -172.083
c-87.8721 66.5012 -176.143 133.246 -264.096 198.083c-11.1835 9.31961 -22.7747 18.1606 -34.4668 26.7449c107.591 45.5557 204.545 85.7871 205.467 198.255c0 104 -93 150 -207 150c-107 0 -191 -52 -191 -152c0 -89.5672 63.3762 -140.532 134.589 -190.943
c-115.374 -48.1438 -226.589 -82.7554 -226.589 -203.057c0 -133 126 -185 275 -185c128.158 0 232.025 42.5959 312.856 119.224zM374.663 396.379c-67.4158 48.0825 -130.663 93.0501 -130.663 177.621c0 80 67 123 154 123c95 0 173 -36 173 -121
c-0.951102 -104.621 -95.0756 -138.684 -196.337 -179.621z" />
    <glyph glyph-name="aogonek" unicode="&#x105;" horiz-adv-x="798" 
d="M615.459 0h10.5411h170v30h-170v357c0 126 -93 151 -227 151c-110 0 -192 -30 -259 -74v-121h31v105.035c58.6732 33.2749 129.234 58.9655 223 58.9655c116 0 196 -18 196 -128v-58.7106c-97.9869 -9.73834 -160.789 -13.879 -263 -24.2894c-119 -12 -209 -35 -209 -143
c0 -111 81 -158 202 -158c122.361 0 188.037 48.4698 270 131.262v-109.032c-67.1442 -22.3971 -126 -40.945 -126 -109.23c0 -65 51 -98 120 -98c42 0 69 11 106 28l-16 23c-30 -14 -53 -22 -86 -22c-52 0 -90 22 -90 69c0 60.4075 58.8411 69.3291 117.459 92z
M590 161.275c-84.7452 -81.7304 -145.689 -136.275 -264 -136.275c-102 0 -172 37 -172 130c0 87 76 104 172 114c102.863 10.3806 165.65 16.3085 264 26.1877v-133.912z" />
    <glyph glyph-name="apostrophemod" horiz-adv-x="523" 
d="M203 537l150 185h-49l-139 -185h38z" />
    <glyph glyph-name="approxequal" unicode="&#x2248;" horiz-adv-x="1004" 
d="M814 563c-25 -55 -66 -101 -138 -101c-63 0 -107 13 -159 47c-57 36 -99 55 -165 55c-96 0 -150 -38 -180 -120c21 -9 6 -3 28 -12c24 65 71 103 150 103c55 0 93 -13 139 -43c63 -39 110 -58 184 -60c90 0 137 46 170 119c-23 9 -7 3 -29 12zM810 348
c-25 -55 -66 -101 -138 -101c-62 0 -106 13 -159 47c-56 36 -99 55 -165 55c-96 0 -149 -38 -179 -120c21 -9 6 -3 27 -12c24 65 71 103 150 103c56 0 93 -13 139 -43c63 -39 111 -58 184 -59c90 0 137 45 170 118c-22 9 -6 3 -29 12z" />
    <glyph glyph-name="aring" unicode="&#xe5;" horiz-adv-x="798" 
d="M285 772c0 62 51 91 118 91c73 0 128 -26 128 -91c0 -63 -54 -90 -125 -90c-68 0 -121 27 -121 90zM252 772c0 -80 67 -119 154 -119c90 0 159 37 159 119c0 84 -70 120 -162 120c-87 0 -151 -38 -151 -120zM611 0h15h170v30h-170v357c0 126 -93 151 -227 151
c-110 0 -192 -30 -259 -74v-121h31v105.035c58.6732 33.2749 129.234 58.9655 223 58.9655c116 0 196 -18 196 -128v-58.7106c-97.9869 -9.73834 -160.789 -13.879 -263 -24.2894c-119 -12 -209 -35 -209 -143c0 -111 81 -158 202 -158
c122.361 0 188.037 48.4698 270 131.262v-126.262h21zM590 161.275c-84.7452 -81.7304 -145.689 -136.275 -264 -136.275c-102 0 -172 37 -172 130c0 87 76 104 172 114c102.863 10.3806 165.65 16.3085 264 26.1877v-133.912z" />
    <glyph glyph-name="asciicircum" unicode="^" horiz-adv-x="780" 
d="M645 465c-76 110 -159 230 -236 340h-2h-35h-2c-78 -114 -156 -227 -234 -340h37c72.1617 104.542 145.179 209.084 216.677 314.418c71.0711 -102.841 147.253 -212.889 218.323 -314.418h37z" />
    <glyph glyph-name="asciitilde" unicode="~" horiz-adv-x="995" 
d="M805 348c-25 -55 -66 -101 -138 -101c-63 0 -107 13 -160 47c-56 36 -98 55 -164 55c-96 0 -150 -38 -180 -120c21 -9 6 -3 28 -12c24 65 71 103 150 103c55 0 93 -13 139 -43c63 -39 110 -58 184 -59c90 0 137 45 170 118c-23 9 -7 3 -29 12z" />
    <glyph glyph-name="asterisk" unicode="*" horiz-adv-x="707" 
d="M325.685 510.208c-44.8937 -33.9486 -73.9917 -57.024 -122.685 -94.2081l25 -22c50.156 41.7967 80.47 64.614 127 103.709c46.5251 -39.0946 76.773 -61.9119 126 -103.709l26 22c-48.5159 37.9306 -78.3571 60.299 -122.47 94.5603
c59.9538 15.6248 100.412 27.705 166.47 44.4397l-12 30c-67.1449 -20.8694 -107.944 -31.859 -169.461 -50.8979c1.28317 48.9536 0.67139 80.2211 2.46062 133.898h-36c1.80137 -54.041 1.98027 -85.3676 3.45937 -134.897
c-61.516 19.0465 -102.315 30.1202 -169.459 51.8968l-12 -31c66.5035 -16.8476 107.06 -28.1913 167.685 -43.7919z" />
    <glyph glyph-name="at" unicode="@" horiz-adv-x="1139" 
d="M799 -67c-77 -32 -131 -36 -214 -36c-255 0 -440 91 -440 322c0 227 186 317 438 317c236 0 406 -96 406 -313c0 -84 -33 -145 -110 -145c-78 0 -115 61 -115 146c0 114 -81 175 -201 175c-128 0 -214 -56 -214 -175c0 -122 83 -186 209 -186
c90.3957 0 150.175 41.6908 181.44 116.134c17.6492 -63.9041 63.0239 -104.134 136.56 -104.134c99 0 147 70 147 175c0 237 -182 343 -438 343c-275 0 -475 -100 -475 -351c0 -249 199 -351 473 -351c89 0 151 9 231 40zM731.223 210.102
c-28.3721 -87.7244 -76.2595 -141.102 -167.223 -141.102c-110 0 -181 53 -181 157c0 97 74 142 177 142c102 0 171 -49 171 -146c0 -4.01648 0.0744273 -7.98334 0.223343 -11.8983z" />
    <glyph glyph-name="atilde" unicode="&#xe3;" horiz-adv-x="798" 
d="M629 784c-18 -56 -43 -100 -98 -100c-49 0 -81 15 -119 47c-40 34 -73 54 -126 54c-75 0 -118 -46 -138 -121l28 -10c17 61 51 101 111 101c43 0 70 -18 103 -46c44 -36 82 -56 138 -56c72 0 107 52 131 122c-30 9 -1 0 -30 9zM611 0h15h170v30h-170v357
c0 126 -93 151 -227 151c-110 0 -192 -30 -259 -74v-121h31v105.035c58.6732 33.2749 129.234 58.9655 223 58.9655c116 0 196 -18 196 -128v-58.7106c-97.9869 -9.73834 -160.789 -13.879 -263 -24.2894c-119 -12 -209 -35 -209 -143c0 -111 81 -158 202 -158
c122.361 0 188.037 48.4698 270 131.262v-126.262h21zM590 161.275c-84.7452 -81.7304 -145.689 -136.275 -264 -136.275c-102 0 -172 37 -172 130c0 87 76 104 172 114c102.863 10.3806 165.65 16.3085 264 26.1877v-133.912z" />
    <glyph glyph-name="b" unicode="b" horiz-adv-x="912" 
d="M213 0h16v74.8571c81.8754 -58.2495 163.334 -79.8571 268 -79.8571c172 0 297 101 297 269c0 169 -124 274 -294 274c-108.162 0 -204.911 -41.0864 -271 -90.739v352.739h-16h-21h-178v-31h178v-738.894l-178 0.894472v-31h178h21zM229 111.164v298.759
c60.1356 50.9601 158.594 97.0774 267 97.0774c153 0 262 -92 262 -244c0 -144.46 -107.691 -237.032 -257.203 -237.032c-1.59431 0 -3.19337 0.0105263 -4.79711 0.0316281c-103.92 0 -183.811 22.1061 -267 85.1638z" />
    <glyph glyph-name="backslash" unicode="\" horiz-adv-x="717" 
d="M642 -68c-176 304 -351 608 -528 912h-38l528 -912h38z" />
    <glyph glyph-name="bar" unicode="|" horiz-adv-x="336" 
d="M186 -300v1100h-36v-1100h36z" />
    <glyph glyph-name="braceleft" unicode="{" horiz-adv-x="470" 
d="M383 799c-103 0 -173 -53 -173 -152v-179c0 -76 -57 -113 -138 -113v-31c81 0 139 -40 139 -116v-177c0 -98 70 -153 172 -153v30c-83 0 -139 43 -139 122v175c0 65.6715 -33.2254 111.689 -86.551 134.21c52.891 21.7388 85.551 66.5334 85.551 132.79v175
c0 79 56 122 140 122v30z" />
    <glyph glyph-name="braceright" unicode="}" horiz-adv-x="470" 
d="M87 769c83 0 139 -43 139 -122v-175c0 -66.4588 33.3288 -111.794 86.8001 -133.753c-53.0375 -22.4509 -85.8001 -68.254 -85.8001 -133.247v-175c0 -80 -57 -123 -140 -123v-29c103 0 172 54 172 153v177c0 76 59 115 139 115v31c-81 0 -139 37 -139 114v179
c0 98 -70 151 -172 151v-29z" />
    <glyph glyph-name="bracketleft" unicode="[" horiz-adv-x="436" 
d="M364 771h-215v-894h215v34h-178v826h178v34z" />
    <glyph glyph-name="bracketright" unicode="]" horiz-adv-x="436" 
d="M250 -89h-178v-34h215v894h-215v-34h178v-826z" />
    <glyph glyph-name="breve" unicode="&#x2d8;" horiz-adv-x="561" 
d="M349 737c0 -74 -68 -96 -152 -96c-82 0 -146 25 -146 97h-34c0 -92 76 -126 178 -126c107 0 188 31 188 125h-34z" />
    <glyph glyph-name="brokenbar" unicode="&#xa6;" horiz-adv-x="376" 
d="M206 428v372h-36v-372h36zM206 -300v372h-36v-372h36z" />
    <glyph glyph-name="bullet" unicode="&#x2022;" horiz-adv-x="499" 
d="M198 440h103c0 29 -22 46 -54 46c-30 0 -49 -17 -49 -46zM198 440h103c0 -30 -22 -46 -54 -46c-30 0 -49 17 -49 46z" />
    <glyph glyph-name="bulletoperator" unicode="&#x2219;" horiz-adv-x="423" 
d="M160 440h103c0 29 -22 46 -54 46c-30 0 -49 -17 -49 -46zM160 440h103c0 -30 -22 -46 -54 -46c-30 0 -49 17 -49 46z" />
    <glyph glyph-name="c" unicode="c" horiz-adv-x="769" 
d="M655 473c-63 38 -141 65 -219 65c-190 0 -319 -87 -319 -271s126 -272 317 -272c86 0 172 29 235 86l-23 23c-59 -53 -134 -78 -211 -78c-167 0 -281 76 -281 241s114 240 280 240c67.0874 0 132.389 -18.7493 190 -50.3425v-107.657h31v124z" />
    <glyph glyph-name="cacute" unicode="&#x107;" horiz-adv-x="769" 
d="M367 657c74 55 148 111 222 166h-52c-74 -55 -148 -111 -222 -166h52zM655 473c-63 38 -141 65 -219 65c-190 0 -319 -87 -319 -271s126 -272 317 -272c86 0 172 29 235 86l-23 23c-59 -53 -134 -78 -211 -78c-167 0 -281 76 -281 241s114 240 280 240
c67.0874 0 132.389 -18.7493 190 -50.3425v-107.657h31v124z" />
    <glyph glyph-name="caron" unicode="&#x2c7;" horiz-adv-x="709" 
d="M9 757c74 -55 148 -111 222 -166h10h42h9c75 55 149 111 223 166h-52c-67 -49.7973 -134 -100.414 -201 -150.367c-67 49.9524 -134 100.569 -201 150.367h-52z" />
    <glyph glyph-name="ccaron" unicode="&#x10d;" horiz-adv-x="764" 
d="M182 821c74 -55 148 -111 222 -166h10h42h9c75 55 149 111 223 166h-52c-67 -50.7027 -134 -100.586 -201 -150.391c-67 49.8054 -134 99.6883 -201 150.391h-52zM655 473c-63 38 -141 65 -219 65c-190 0 -319 -87 -319 -271s126 -272 317 -272c86 0 172 29 235 86
l-23 23c-59 -53 -134 -78 -211 -78c-167 0 -281 76 -281 241s114 240 280 240c67.0874 0 132.389 -18.7493 190 -50.3425v-107.657h31v124z" />
    <glyph glyph-name="ccedilla" unicode="&#xe7;" horiz-adv-x="769" 
d="M385 -91c20 10 36 12 59 12c40 0 70 -16 70 -53c0 -41 -40 -51 -87 -51c-35 0 -62 3 -95 17l-13 -23c37 -15 66 -21 106 -21c69 0 124 18 124 79c0 54 -43 81 -102 81c-12.5233 0 -23.6682 -0.918946 -34.5136 -2.6969c12.2524 16.2468 24.7188 32.951 35.9706 47.97
c81.1115 3.06574 161.074 31.9217 220.543 85.7269l-23 23c-59 -53 -134 -78 -211 -78c-167 0 -281 76 -281 241s114 240 280 240c67.0874 0 132.389 -18.7493 190 -50.3425v-107.657h31v124c-63 38 -141 65 -219 65c-190 0 -319 -87 -319 -271
c0 -174.963 113.927 -263.124 289.335 -271.362c-15.875 -20.8341 -32.8643 -43.4952 -46.3349 -62.6378z" />
    <glyph glyph-name="cedilla" unicode="&#xb8;" horiz-adv-x="528" 
d="M159 -79c20 11 37 12 59 12c40 0 70 -16 70 -52c0 -42 -39 -52 -87 -52c-35 0 -61 3 -95 17l-12 -23c36 -15 66 -21 106 -21c68 0 123 18 123 79c0 55 -43 81 -102 81c-12.4133 0 -23.4724 -0.902876 -34.1694 -2.65026c13.7217 17.9581 27.6139 36.4726 39.1694 52.6503
l-27 20c-20 -26 -45 -60 -65 -87l24 -23z" />
    <glyph glyph-name="cent" unicode="&#xa2;" horiz-adv-x="901" 
d="M512 679.925v98.0749h-36v-98.4058c-211.756 -7.23223 -366 -111.167 -366 -313.594c0 -195.482 138.522 -307.85 339 -312.827v-106.173h36v106.292c115.413 3.12381 199.347 31.4696 301 91.7082l-21 25c-100 -62 -182 -86 -298 -86c-190 0 -321 102 -321 283
c0 189 149 282 351 282c105 0 180 -16 274 -66l18 27c-95.4259 49.1588 -171.341 68.5864 -277 69.9251z" />
    <glyph glyph-name="circumflex" unicode="&#x2c6;" horiz-adv-x="926" 
d="M514 591c-73 55 -147 111 -222 166h-9h-43h-9c-74 -55 -148 -111 -222 -166h52c66.8333 49.6734 133.667 100.163 200.5 149.994c66.8333 -49.8314 133.667 -100.321 200.5 -149.994h52z" />
    <glyph glyph-name="colon" unicode=":" horiz-adv-x="362" 
d="M160 17h42c0 13 -9 19 -22 19c-12 0 -20 -8 -20 -19zM160 17h42c0 -14 -9 -20 -22 -20c-12 0 -20 8 -20 20zM160 422h42c0 13 -9 20 -22 20c-12 0 -20 -8 -20 -20zM160 422h42c0 -14 -9 -19 -22 -19c-12 0 -20 8 -20 19z" />
    <glyph glyph-name="comma" unicode="," horiz-adv-x="407" 
d="M96 -145l149 186h-48l-139 -186h38z" />
    <glyph glyph-name="commaaccent" horiz-adv-x="523" 
d="M180 -145l149 186h-48l-139 -186h38z" />
    <glyph glyph-name="copyright" unicode="&#xa9;" horiz-adv-x="1085" 
d="M707 465c-51 24 -94 32 -152 32c-127 0 -222 -59 -222 -178c0 -113 86 -174 205 -174c72 0 124 10 186 47l-19 22c-56 -34 -102 -42 -165 -42c-102 0 -174 52 -174 149c0 100 79 149 187 149c50.7841 0 84.7119 -5.94931 123.505 -20.81
c-0.450672 -0.189998 -0.50501 -0.189999 -0.505011 -0.189999v-68h30v83c-5.4808 -2.83489 -9.96148 -5.13401 -13.6243 -6.99862c0.12436 0.249564 0.151012 0.51243 14.6243 7.99862zM120 320c0 -217 196 -323 434 -323c227 0 411 112 411 323c0 213 -188 325 -418 325
c-235 0 -427 -109 -427 -325zM152 320c0 199 178 298 395 298c212 0 386 -102 386 -300c0 -192 -170 -294 -378 -294c-218 0 -403 95 -403 296z" />
    <glyph glyph-name="currency" unicode="&#xa4;" horiz-adv-x="825" 
d="M197 311c0 -45.5054 13.7455 -82.2371 37.8255 -110.251c-38.2752 -27.7571 -76.5503 -56.0453 -114.826 -82.7489l24 -24c39.0696 27.2579 78.1393 55.3413 115.709 83.5002c39.3857 -29.7087 94.7018 -44.5002 158.291 -44.5002
c59.3165 0 110.359 14.8927 147.152 43.5287c37.1616 -27.964 75.0048 -55.2463 112.848 -82.5287l26 22c-37.9304 27.3452 -76.639 55.4685 -114.753 83.6835c24.0898 28.7005 37.7529 66.3467 37.7529 112.316c0 47.381 -15.6474 84.9165 -42.6665 112.533
c37.0204 26.839 73.5948 53.7788 111.666 81.4673l-24 24c-37.956 -28.2463 -76.6911 -56.4926 -114.83 -83.3634c-36.311 23.5441 -84.5266 35.3634 -139.17 35.3634c-60.0097 0 -112.651 -12.28 -151.49 -37.4729l-113.51 84.4729l-24 -24
c36.6697 -27.9388 74.1017 -54.3531 110.965 -81.905c-27.2539 -27.4429 -42.9649 -64.6712 -42.9649 -112.095zM233 311c0 95 79 141 181 141c104 0 178 -47 178 -142s-73 -147 -173 -147c-108 0 -186 48 -186 148z" />
    <glyph glyph-name="d" unicode="d" horiz-adv-x="916" 
d="M684 432.416v-302.007c-69.3748 -72.8799 -139.814 -104.409 -239 -104.409c-168 0 -297 81 -297 239c0 159 128 242 296 242c93.2782 0 172.685 -22.1936 240 -74.5841zM684 89.6485v-89.6485h19h19h180v30h-180v770h-20h-18h-180v-30h180v-302.423
c-69.4639 48.7632 -148.77 70.4233 -242 70.4233c-188 0 -330 -96 -330 -274s146 -269 335 -269c98.874 0 170.952 29.0932 237 94.6485z" />
    <glyph glyph-name="dagger" unicode="&#x2020;" horiz-adv-x="753" 
d="M390 533v267h-36v-267h-291v-33h291v-798h36v798h300v33h-300z" />
    <glyph glyph-name="daggerdbl" unicode="&#x2021;" horiz-adv-x="881" 
d="M418 -28v-270h35v270h301v35h-301v493h301v33h-301v267h-35v-267h-291v-33h291v-493h-291v-35h291z" />
    <glyph glyph-name="dcaron" unicode="&#x10f;" horiz-adv-x="1017" 
d="M834 615l149 185h-48l-139 -185h38zM684 432.416v-302.007c-69.3748 -72.8799 -139.814 -104.409 -239 -104.409c-168 0 -297 81 -297 239c0 159 128 242 296 242c93.2782 0 172.685 -22.1936 240 -74.5841zM684 89.6485v-89.6485h19h19h180v30h-180v770h-20h-18h-180
v-30h180v-302.423c-69.4639 48.7632 -148.77 70.4233 -242 70.4233c-188 0 -330 -96 -330 -274s146 -269 335 -269c98.874 0 170.952 29.0932 237 94.6485z" />
    <glyph glyph-name="dcroat" unicode="&#x111;" horiz-adv-x="916" 
d="M684 648v-180.423c-69.4639 48.7632 -148.77 70.4233 -242 70.4233c-188 0 -330 -96 -330 -274s146 -269 335 -269c98.874 0 170.952 29.0932 237 94.6485v-89.6485h19h19h180v30h-180v618h128v30h-128v122h-20h-18h-181v-30h181v-92h-242v-30h242zM684 432.416v-302.007
c-69.3748 -72.8799 -139.814 -104.409 -239 -104.409c-168 0 -297 81 -297 239c0 159 128 242 296 242c93.2782 0 172.685 -22.1936 240 -74.5841z" />
    <glyph glyph-name="degree" unicode="&#xb0;" horiz-adv-x="702" 
d="M132 449c0 -133 85 -213 217 -213c134 0 221 79 221 211c0 128 -89 204 -221 204c-131 0 -217 -75 -217 -202zM163 449c0 108 73 175 184 175c114 0 191 -66 191 -177c0 -114 -74 -184 -187 -184c-115 0 -188 72 -188 186z" />
    <glyph glyph-name="deltamath" horiz-adv-x="1075" 
d="M60 0h953v33l-450 772h-5h-35h-5l-458 -772v-33zM540.346 775.308l433.654 -742.308h-875z" />
    <glyph glyph-name="dieresis" unicode="&#xa8;" horiz-adv-x="597" 
d="M267 665h52c0 -14 -11 -23 -27 -23c-15 0 -25 9 -25 23zM267 665h52c0 15 -11 24 -27 24c-15 0 -25 -9 -25 -24zM98 665h51c0 -14 -11 -23 -27 -23c-14 0 -24 9 -24 23zM98 665h51c0 15 -11 24 -26 24s-25 -9 -25 -24z" />
    <glyph glyph-name="divide" unicode="&#xf7;" horiz-adv-x="950" 
d="M162 293h626v33h-626v-33zM451 101h42c0 -13 -9 -19 -22 -19s-20 8 -20 19zM451 101h42c0 13 -9 20 -22 20c-12 0 -20 -8 -20 -20zM451 507h42c0 13 -9 20 -22 20c-12 0 -20 -8 -20 -20zM451 507h42c0 -14 -9 -19 -22 -19s-20 7 -20 19z" />
    <glyph glyph-name="divisionslash" unicode="&#x2215;" horiz-adv-x="619" 
d="M42 -87l574 839h-38l-573 -839h37z" />
    <glyph glyph-name="dollar" unicode="$" horiz-adv-x="790" 
d="M372 682.586c-128.39 -4.0504 -229 -38.6986 -229 -141.586c0 -115 113 -140 240 -180c126 -38 263 -59 263 -162c0 -101 -127 -122 -270 -122c-88.1749 0 -167.36 20.6753 -235 44.1279v99.8721h-31v-123c70.8976 -26.4684 154.305 -48.4689 246 -50.7965v-90.2035h37
v90.1495c155.26 2.2675 289 31.2995 289 152.85c0 123 -141 146 -277 189c-118 37 -226 56 -226 152c0 88 101 113 218 113c88.5272 0 152.589 -13.5919 231 -43.3632v-101.637h31v122v1h-2.57897c-85.7357 33.1459 -154.502 49.8346 -247.421 50.941v90.059h-37v-90.4138z
" />
    <glyph glyph-name="dotaccent" unicode="&#x2d9;" horiz-adv-x="912" 
d="M402 665h51c0 -14 -11 -23 -27 -23c-15 0 -24 9 -24 23zM402 665h51c0 15 -11 24 -26 24s-25 -9 -25 -24z" />
    <glyph glyph-name="dotlessi" unicode="&#x131;" horiz-adv-x="465" 
d="M243 502v-471h-180v-31h180h19h20h165v31h-165v502h-20h-19h-180v-31h180z" />
    <glyph glyph-name="e" unicode="e" horiz-adv-x="796" 
d="M640 298h-479.58c6.97803 138.741 100.356 209 244.58 209c142 0 235 -64 235 -202v-7zM160.222 268h514.778v34c0 160 -105 236 -268 236c-173 0 -283 -85 -283 -257c0 -191 124 -286 316 -286c93 0 154 21 230 78l-22 23c-69 -50 -124 -70 -208 -70
c-165.585 0 -274.246 81.5908 -279.778 242z" />
    <glyph glyph-name="eacute" unicode="&#xe9;" horiz-adv-x="796" 
d="M339 657c74 55 148 111 222 166h-51c-75 -55 -149 -111 -222 -166h51zM640 298h-479.58c6.97803 138.741 100.356 209 244.58 209c142 0 235 -64 235 -202v-7zM160.222 268h514.778v34c0 160 -105 236 -268 236c-173 0 -283 -85 -283 -257c0 -191 124 -286 316 -286
c93 0 154 21 230 78l-22 23c-69 -50 -124 -70 -208 -70c-165.585 0 -274.246 81.5908 -279.778 242z" />
    <glyph glyph-name="ecaron" unicode="&#x11b;" horiz-adv-x="796" 
d="M154 821c74 -55 148 -111 223 -166h9h42h10c74 55 148 111 222 166h-52c-67 -50.7027 -134 -100.586 -201 -150.391c-67 49.8054 -134 99.6883 -201 150.391h-52zM640 298h-479.58c6.97803 138.741 100.356 209 244.58 209c142 0 235 -64 235 -202v-7zM160.222 268
h514.778v34c0 160 -105 236 -268 236c-173 0 -283 -85 -283 -257c0 -191 124 -286 316 -286c93 0 154 21 230 78l-22 23c-69 -50 -124 -70 -208 -70c-165.585 0 -274.246 81.5908 -279.778 242z" />
    <glyph glyph-name="ecircumflex" unicode="&#xea;" horiz-adv-x="796" 
d="M660 656c-74 55 -148 111 -222 166h-10h-42h-9c-75 -55 -149 -111 -223 -166h52c67 50.7027 134 100.586 201 150.391c67 -49.8054 134 -99.6883 201 -150.391h52zM640 298h-479.58c6.97803 138.741 100.356 209 244.58 209c142 0 235 -64 235 -202v-7zM160.222 268
h514.778v34c0 160 -105 236 -268 236c-173 0 -283 -85 -283 -257c0 -191 124 -286 316 -286c93 0 154 21 230 78l-22 23c-69 -50 -124 -70 -208 -70c-165.585 0 -274.246 81.5908 -279.778 242z" />
    <glyph glyph-name="edieresis" unicode="&#xeb;" horiz-adv-x="796" 
d="M467 669h51c0 -15 -11 -23 -27 -23c-15 0 -24 8 -24 23zM467 669h51c0 15 -11 23 -27 23c-15 0 -24 -9 -24 -23zM298 669h51c0 -15 -11 -23 -27 -23c-15 0 -24 8 -24 23zM298 669h51c0 15 -11 23 -27 23c-15 0 -24 -9 -24 -23zM640 298h-479.58
c6.97803 138.741 100.356 209 244.58 209c142 0 235 -64 235 -202v-7zM160.222 268h514.778v34c0 160 -105 236 -268 236c-173 0 -283 -85 -283 -257c0 -191 124 -286 316 -286c93 0 154 21 230 78l-22 23c-69 -50 -124 -70 -208 -70
c-165.585 0 -274.246 81.5908 -279.778 242z" />
    <glyph glyph-name="edotaccent" unicode="&#x117;" horiz-adv-x="796" 
d="M380 670h52c0 -15 -11 -23 -27 -23c-15 0 -25 8 -25 23zM380 670h52c0 15 -11 23 -27 23c-15 0 -25 -9 -25 -23zM640 298h-479.58c6.97803 138.741 100.356 209 244.58 209c142 0 235 -64 235 -202v-7zM160.222 268h514.778v34c0 160 -105 236 -268 236
c-173 0 -283 -85 -283 -257c0 -191 124 -286 316 -286c93 0 154 21 230 78l-22 23c-69 -50 -124 -70 -208 -70c-165.585 0 -274.246 81.5908 -279.778 242z" />
    <glyph glyph-name="egrave" unicode="&#xe8;" horiz-adv-x="796" 
d="M507 656c-74 55 -148 111 -222 166h-52c74 -55 148 -111 222 -166h52zM640 298h-479.58c6.97803 138.741 100.356 209 244.58 209c142 0 235 -64 235 -202v-7zM160.222 268h514.778v34c0 160 -105 236 -268 236c-173 0 -283 -85 -283 -257c0 -191 124 -286 316 -286
c93 0 154 21 230 78l-22 23c-69 -50 -124 -70 -208 -70c-165.585 0 -274.246 81.5908 -279.778 242z" />
    <glyph glyph-name="eight" unicode="8" horiz-adv-x="796" 
d="M400.306 394.268c-113.472 40.5747 -216.306 54.5406 -216.306 165.732c0 103 92 134 210 134c126 0 219 -27 219 -136c0 -108.029 -101.409 -125.815 -212.694 -163.732zM444.387 378.119c109.907 39.7542 204.613 64.126 204.613 179.881c0 130 -105 169 -253 169
c-142 0 -249 -42 -249 -167c0 -117.486 94.5579 -143.732 207.376 -182.231c-126.802 -44.9358 -233.376 -73.3342 -233.376 -205.769c0 -136 117 -177 273 -177c159 0 281 37 281 177c0 129.868 -106.042 161.33 -230.613 206.119zM399.938 361.685
c126.262 -45.0609 239.062 -68.4927 239.062 -189.685c0 -118 -106 -145 -243 -145c-136 0 -238 29 -238 145c0 125.06 114.662 144.857 241.938 189.685z" />
    <glyph glyph-name="ellipsis" unicode="&#x2026;" horiz-adv-x="858" 
d="M397 17h51c0 14 -11 23 -27 23c-15 0 -24 -9 -24 -23zM397 17h51c0 -15 -11 -23 -27 -23c-15 0 -24 8 -24 23zM652 17h52c0 14 -11 23 -27 23c-15 0 -25 -9 -25 -23zM652 17h52c0 -15 -11 -23 -27 -23c-15 0 -25 8 -25 23zM154 17h52c0 14 -11 23 -27 23
c-15 0 -25 -9 -25 -23zM154 17h52c0 -15 -11 -23 -27 -23c-15 0 -25 8 -25 23z" />
    <glyph glyph-name="emacron" unicode="&#x113;" horiz-adv-x="796" 
d="M551 685h-302v-30h302v30zM640 298h-479.58c6.97803 138.741 100.356 209 244.58 209c142 0 235 -64 235 -202v-7zM160.222 268h514.778v34c0 160 -105 236 -268 236c-173 0 -283 -85 -283 -257c0 -191 124 -286 316 -286c93 0 154 21 230 78l-22 23
c-69 -50 -124 -70 -208 -70c-165.585 0 -274.246 81.5908 -279.778 242z" />
    <glyph glyph-name="emdash" unicode="&#x2014;" horiz-adv-x="1214" 
d="M158 256h898v34h-898v-34z" />
    <glyph glyph-name="endash" unicode="&#x2013;" horiz-adv-x="823" 
d="M159 257h505v33h-505v-33z" />
    <glyph glyph-name="eogonek" unicode="&#x119;" horiz-adv-x="796" 
d="M640 298h-479.58c6.97803 138.741 100.356 209 244.58 209c142 0 235 -64 235 -202v-7zM453.023 26.1675c-4.26476 -0.112157 -8.60353 -0.167508 -13.0225 -0.167509c-165.585 0 -274.246 81.5908 -279.778 242h514.778v34c0 160 -105 236 -268 236
c-173 0 -283 -85 -283 -257c0 -169.638 97.8135 -263.548 254.207 -282.433c-37.1818 -17.1107 -63.2073 -40.1587 -63.2073 -85.5666c0 -65 50 -98 120 -98c41 0 69 11 106 27l-16 24c-31 -14 -53 -22 -87 -22c-51 0 -89 22 -89 69
c0 50.8377 41.6746 65.2102 89.8181 82.0012c0.393681 0 0.787649 -0.00120168 1.1819 -0.00120168c93 0 154 21 230 78l-22 23c-62.6359 -45.3884 -113.735 -66.0555 -185.464 -69.4817l-1.53632 2.48174c-2.6652 -0.959473 -5.32536 -1.90253 -7.97745 -2.83249z" />
    <glyph glyph-name="equal" unicode="=" horiz-adv-x="1170" 
d="M162 424h846v31h-846v-31zM162 202h846v31h-846v-31z" />
    <glyph glyph-name="estimated" unicode="&#x212e;" horiz-adv-x="821" 
d="M647 620.621v-223.621h-472l2.84217e-14 219.008c55.3825 50.4345 134.349 77.992 233 77.992c101.284 0 182.413 -25.8451 239 -73.3787zM175 367h601v33c0 203 -135 324 -366 324c-229 0 -365 -129 -365 -345c0 -239 153 -384 412 -384c108 0 221 39 312 108
c-18 18 -4 4 -21 22c-89 -64 -195 -100 -291 -100c-122.059 0 -217.904 35.577 -282 100.505v241.495z" />
    <glyph glyph-name="eth" unicode="&#xf0;" horiz-adv-x="823" 
d="M663.68 286.059c-16.8245 169.691 -123.84 276.287 -277.808 340.94c-45.4541 -45.3346 -90.6629 -90.7966 -135.872 -136.999l-22 22c43.0672 42.6041 85.2765 84.7792 127.423 127.022c-75.2025 27.9043 -160.177 46.8295 -250.423 58.9779l6 32
c98.5745 -11.8764 190.625 -32.5685 271.337 -63.987c39.9017 40.0333 79.8982 80.2219 120.663 120.987l22 -22c-37.7819 -37.3757 -75.2338 -74.4213 -112.49 -111.472c174.257 -76.5825 288.49 -208.256 288.49 -416.528c0 -169 -130 -249 -311 -249
c-158 0 -274 66 -274 212c0 145 118 207 276 207c118.971 0 213.736 -36.309 271.68 -120.941zM665.992 235.958c-61.5747 101.028 -147.703 139.042 -269.992 139.042c-140 0 -244 -51 -244 -177c0 -122 102 -174 236 -174c160.253 0 276.913 66.3793 277.992 211.958z" />
    <glyph glyph-name="exclam" unicode="!" horiz-adv-x="382" 
d="M210 229v493h-35v-493h35zM167 23h52c0 -15 -11 -23 -27 -23c-15 0 -25 9 -25 23zM167 23h52c0 15 -11 23 -27 23c-15 0 -25 -8 -25 -23z" />
    <glyph glyph-name="exclamdown" unicode="&#xa1;" horiz-adv-x="382" 
d="M172 493v-493h36v493h-36zM215 699h-52c0 15 11 23 27 23c15 0 25 -9 25 -23zM215 699h-52c0 -15 11 -23 27 -23c15 0 25 8 25 23z" />
    <glyph glyph-name="f" unicode="f" horiz-adv-x="665" 
d="M338 512v125c0 91 69 137 166 137c39.1995 0 77.6402 -9.10577 114 -21.3683v-103.632h31v122c-47 18 -96 34 -145 34c-117 0 -203 -56 -203 -168v-125h-230v-30h230v-451.905l-180 0.904523v-31h180h19h18h180v31l-180 -0.909091v451.909h300v30h-300z" />
    <glyph glyph-name="fi" unicode="&#xfb01;" horiz-adv-x="857" 
d="M301 0h19h119v31h-119v475h286v-475h-123v-31h123h23h1h11h184v31h-184v504h-321v59c0 113 80 181 197 181c32 0 57 -2 87 -10v-86h37v108c-46 12 -79 17 -126 17c-137 0 -232 -78 -231 -210v-59h-232v-29h232v-475h-181v-31h181h17z" />
    <glyph glyph-name="five" unicode="5" horiz-adv-x="749" 
d="M201 424.479v266.521h415v31h-449v-312v-11l34 -7c34 14 104 25 154 25c139 0 249 -65 249 -191c0 -129 -120 -196 -263 -196c-81 0 -146 16 -221 45l-17 -31c76 -32 150 -49 237 -49c164 0 301 80 301 231c0 145 -125 223 -283 223
c-50.6895 0 -111.718 -9.12223 -157 -24.5212z" />
    <glyph glyph-name="fl" unicode="&#xfb02;" horiz-adv-x="858" 
d="M304 0h16h122v31h-122v475h286v-475h-120v-31h120h26h1h8h186v31h-186v757c-45 12 -79 16 -126 16c-137 0 -232 -78 -231 -210v-59h-232v-29h232v-475h-178v-31h178h20zM320 535v59c0 113 80 181 197 181c32 0 58 -1 89 -9v-231h-286z" />
    <glyph glyph-name="florin" unicode="&#x192;" horiz-adv-x="594" 
d="M583 826c-14.9034 2.31509 -29.2834 3.4787 -43.0582 3.4787c-81.4253 0 -141.704 -40.6586 -163.942 -124.479c-13.6583 -51.9502 -27.3165 -103.96 -40.9748 -156h-152.025v-30h144.152c-39.7174 -151.361 -79.4349 -302.932 -119.152 -454
c-18.0871 -68.0421 -68.0728 -102.702 -135.9 -102.702c-10.9233 0 -22.3094 0.898928 -34.0995 2.70212l-6 -29c13.6016 -1.83098 26.7927 -2.75542 39.5084 -2.75542c84.5106 0 148.023 40.8339 171.492 127.755c40.6314 152.546 80.7547 305.092 121.094 458h166.906v30
h-158.99c13.6239 51.6181 27.2778 103.28 40.9896 155c16.1965 65.6386 63.6399 95.6704 128.083 95.6704c11.1544 0 22.8182 -0.89976 34.9173 -2.67037z" />
    <glyph glyph-name="four" unicode="4" horiz-adv-x="879" 
d="M500 260v-229h-182v-31h198h199v31h-179v229h247v34h-247v426h-36c-440 -426 0 -1 -440 -426l17 -34h423zM500 294h-388.146l388.146 378.637v-378.637z" />
    <glyph glyph-name="foursuperior" unicode="&#x2074;" horiz-adv-x="745" 
d="M423 293h18h181v28h-181v93h129v28h-129v279v8h-35l-308 -287l15 -28h293v-93h-181v-28h181h17zM406 688.241v-246.241h-263.085z" />
    <glyph glyph-name="fraction" unicode="&#x2044;" horiz-adv-x="744" 
d="M36 -87l573 839h-37l-573 -839h37z" />
    <glyph glyph-name="g" unicode="g" horiz-adv-x="806" 
d="M242.442 2.73814c41.1378 -10.8542 91.4086 -14.3841 142.558 -17.7381c148 -10 299 -2 299 -126c0 -118 -144 -133 -295 -133c-141 0 -272 29 -272 143c0 72.6465 55.811 108.931 125.442 133.738zM206.811 15.2741
c-71.4503 -26.9441 -125.811 -69.6094 -125.811 -147.274c0 -140 145 -172 306 -172c172 0 333 18 330 165c0 146 -162 143 -325 153c-106 5 -210 8 -210 99c0 45.2796 31.1637 71.697 72.6962 91.8776c39.2316 -14.2558 85.8109 -20.8776 135.304 -20.8776
c139 0 254 52 254 176c0 41.1796 -12.5537 74.7374 -34.3964 101.161c53.5504 20.2668 106.14 40.4416 156.396 59.839l-16 29c-55.0179 -21.6464 -109.222 -43.2928 -164.081 -65.6729c-45.7623 36.5356 -114.446 53.6729 -190.919 53.6729c-140 0 -255 -57 -255 -183
c0 -65.3544 33.257 -109.996 85.2748 -137.234c-46.1185 -22.6958 -79.2748 -55.2795 -79.2748 -108.766c0 -48.1239 23.6668 -76.4243 60.811 -93.7259zM177 356c0 104 99 152 218 152c117 0 212 -45 212 -149c0 -101 -96 -145 -214 -145c-115 0 -216 39 -216 142z" />
    <glyph glyph-name="gbreve" unicode="&#x11f;" horiz-adv-x="806" 
d="M551 779c0 -74 -68 -96 -153 -96c-82 0 -146 25 -146 97h-34c0 -92 76 -127 178 -127c107 0 189 32 189 126h-34zM242.442 2.73814c41.1378 -10.8542 91.4086 -14.3841 142.558 -17.7381c148 -10 299 -2 299 -126c0 -118 -144 -133 -295 -133c-141 0 -272 29 -272 143
c0 72.6465 55.811 108.931 125.442 133.738zM206.811 15.2741c-71.4503 -26.9441 -125.811 -69.6094 -125.811 -147.274c0 -140 145 -172 306 -172c172 0 333 18 330 165c0 146 -162 143 -325 153c-106 5 -210 8 -210 99c0 45.2796 31.1637 71.697 72.6962 91.8776
c39.2316 -14.2558 85.8109 -20.8776 135.304 -20.8776c139 0 254 52 254 176c0 41.1796 -12.5537 74.7374 -34.3964 101.161c53.5504 20.2668 106.14 40.4416 156.396 59.839l-16 29c-55.0179 -21.6464 -109.222 -43.2928 -164.081 -65.6729
c-45.7623 36.5356 -114.446 53.6729 -190.919 53.6729c-140 0 -255 -57 -255 -183c0 -65.3544 33.257 -109.996 85.2748 -137.234c-46.1185 -22.6958 -79.2748 -55.2795 -79.2748 -108.766c0 -48.1239 23.6668 -76.4243 60.811 -93.7259zM177 356c0 104 99 152 218 152
c117 0 212 -45 212 -149c0 -101 -96 -145 -214 -145c-115 0 -216 39 -216 142z" />
    <glyph glyph-name="gcommaaccent" unicode="&#x123;" horiz-adv-x="806" 
d="M462 815l-149 -185h48l139 185h-38zM242.442 2.73814c41.1378 -10.8542 91.4086 -14.3841 142.558 -17.7381c148 -10 299 -2 299 -126c0 -118 -144 -133 -295 -133c-141 0 -272 29 -272 143c0 72.6465 55.811 108.931 125.442 133.738zM206.811 15.2741
c-71.4503 -26.9441 -125.811 -69.6094 -125.811 -147.274c0 -140 145 -172 306 -172c172 0 333 18 330 165c0 146 -162 143 -325 153c-106 5 -210 8 -210 99c0 45.2796 31.1637 71.697 72.6962 91.8776c39.2316 -14.2558 85.8109 -20.8776 135.304 -20.8776
c139 0 254 52 254 176c0 41.1796 -12.5537 74.7374 -34.3964 101.161c53.5504 20.2668 106.14 40.4416 156.396 59.839l-16 29c-55.0179 -21.6464 -109.222 -43.2928 -164.081 -65.6729c-45.7623 36.5356 -114.446 53.6729 -190.919 53.6729c-140 0 -255 -57 -255 -183
c0 -65.3544 33.257 -109.996 85.2748 -137.234c-46.1185 -22.6958 -79.2748 -55.2795 -79.2748 -108.766c0 -48.1239 23.6668 -76.4243 60.811 -93.7259zM177 356c0 104 99 152 218 152c117 0 212 -45 212 -149c0 -101 -96 -145 -214 -145c-115 0 -216 39 -216 142z" />
    <glyph glyph-name="germandbls" unicode="&#xdf;" horiz-adv-x="839" 
d="M548 86c110 18 197 70 197 188c0 112.129 -76.6478 167.462 -192.272 188.52c87.511 21.1179 147.272 69.5075 147.272 162.48c0 129 -113 178 -258 178c-141 0 -248 -59 -248 -187v-585h-180v-31h180h19h17h182v31h-182v585c0 108 91 157 209 157
c126 0 227 -38 227 -149c0 -109 -111 -151 -246 -151v-24c143 0 291 -35 291 -176c0 -99 -84 -139 -172 -157z" />
    <glyph glyph-name="grave" unicode="`" horiz-adv-x="727" 
d="M379 591c-74 55 -148 111 -222 166h-52c74 -55 148 -111 222 -166h52z" />
    <glyph glyph-name="greater" unicode="&#x3e;" horiz-adv-x="1013" 
d="M885.38 305.657c-255.577 -84.2189 -511.916 -168.438 -767.38 -252.657v-34c273 90 547 180 820 270v34c-278 88 -556 176 -833 264v-34c259.523 -82.4478 519.924 -164.896 780.38 -247.343z" />
    <glyph glyph-name="greaterequal" unicode="&#x2265;" horiz-adv-x="1114" 
d="M982 0h-833v31h833v-31zM929.442 405.5c-259.714 81.4962 -521.017 162.937 -781.442 243.5v32c278 -86 557 -172 834 -259v-33c-277 -87 -556 -174 -834 -260v32c260.425 81.5 521.728 163 781.442 244.5z" />
    <glyph glyph-name="guillemotleft" unicode="&#xab;" horiz-adv-x="761" 
d="M138 261l243 -122v33l-209.591 105.227l211.591 102.773v32l-245 -118v-33zM379 261l244 -122v32l-210.727 106.227l210.727 102.773v32l-244 -118v-33z" />
    <glyph glyph-name="guillemotright" unicode="&#xbb;" horiz-adv-x="761" 
d="M587 261l-244 -122v33l210.522 105.261l-211.522 102.739v32l245 -118v-33zM346 261l-245 -122v32l211.591 106.227l-211.591 102.773v32l245 -118v-33z" />
    <glyph glyph-name="guilsinglleft" unicode="&#x2039;" horiz-adv-x="651" 
d="M189.329 277.508c183.101 59.1437 47.2109 18.6548 287.671 94.4922v33c-260 -83 -80 -28 -339 -111v-33c259 -83 79 -27 339 -110v32c-240.46 76.7622 -104.57 35.4875 -287.671 94.5078z" />
    <glyph glyph-name="guilsinglright" unicode="&#x203a;" horiz-adv-x="651" 
d="M462.478 277.508c-183.768 59.1437 -47.0928 18.6548 -288.478 94.4922v33c261 -83 80 -28 340 -111v-33c-260 -83 -79 -27 -340 -110v32c241.385 76.7622 104.709 35.4875 288.478 94.5078z" />
    <glyph glyph-name="h" unicode="h" horiz-adv-x="919" 
d="M231 414.092v385.908h-18h-19h-180v-31h180v-738.905l-180 0.904523v-31h180h19h18h167v31l-167 -0.902703v333.969c52.994 92.4348 156.693 142.934 264 142.934c122 0 200 -52 200 -169v-307.909l-169 0.908602v-31h169h17h19h179v31l-179 -0.90404v311.904
c0 135 -90 196 -231 196c-107.315 0 -211.06 -40.6994 -269 -123.908z" />
    <glyph glyph-name="hungarumlaut" unicode="&#x2dd;" horiz-adv-x="693" 
d="M373 654l149 185h-48l-139 -185h38zM201 654l150 185h-49l-139 -185h38z" />
    <glyph glyph-name="hyphen" unicode="-" horiz-adv-x="710" 
d="M159 257h392v33h-392v-33z" />
    <glyph glyph-name="i" unicode="i" horiz-adv-x="465" 
d="M240 670h43c0 -13 -10 -19 -22 -19c-13 0 -21 7 -21 19zM240 670h43c0 13 -10 20 -22 20c-13 0 -21 -8 -21 -20zM243 502v-471h-180v-31h180h19h20h165v31h-165v502h-20h-19h-180v-31h180z" />
    <glyph glyph-name="iacute" unicode="&#xed;" horiz-adv-x="470" 
d="M194 656c74 55 148 110 222 166h-52c-74 -55 -148 -111 -222 -166h52zM243 502v-471h-180v-31h180h19h20h165v31h-165v502h-20h-19h-180v-31h180z" />
    <glyph glyph-name="icircumflex" unicode="&#xee;" horiz-adv-x="575" 
d="M567 654c-74 55 -147 111 -222 166h-9h-43h-9c-75 -55 -148 -111 -222 -166h52c66.8333 49.6734 133.667 100.163 200.5 149.994c66.8333 -49.8314 133.667 -100.321 200.5 -149.994h52zM298 502v-471h-180v-31h180h18h21h165v31h-165v502h-21h-18h-180v-31h180z" />
    <glyph glyph-name="idieresis" unicode="&#xef;" horiz-adv-x="470" 
d="M322 667h51c0 -15 -11 -23 -27 -23c-15 0 -24 9 -24 23zM322 667h51c0 15 -11 23 -27 23c-15 0 -24 -8 -24 -23zM152 667h52c0 -15 -11 -23 -27 -23c-15 0 -25 9 -25 23zM152 667h52c0 15 -11 23 -27 23c-15 0 -25 -8 -25 -23zM245 502v-471h-180v-31h180h19h20h165v31
h-165v502h-20h-19h-180v-31h180z" />
    <glyph glyph-name="igrave" unicode="&#xec;" horiz-adv-x="471" 
d="M362 655c-74 55 -148 111 -223 166h-51c74 -56 148 -111 222 -166h52zM250 502v-471h-181v-31h181h18h20h166v31h-166v502h-20h-18h-181v-31h181z" />
    <glyph glyph-name="imacron" unicode="&#x12b;" horiz-adv-x="465" 
d="M404 683h-302v-30h302v30zM243 502v-471h-180v-31h180h19h20h165v31h-165v502h-20h-19h-180v-31h180z" />
    <glyph glyph-name="infinity" unicode="&#x221e;" horiz-adv-x="1243" 
d="M590.421 408.247c-55.6192 -77.7699 -123.764 -147.247 -218.421 -147.247c-102 0 -196 51 -196 143s97 138 199 138c90.5576 0 162.942 -58.1544 215.421 -133.753zM611.11 436.435c-59.6236 77.3259 -138.327 134.565 -236.11 134.565c-121 0 -235 -57 -235 -167
s111 -172 232 -172c100.705 0 178.803 65.2099 239.16 146.986c62.5891 -82.4309 145.202 -145.986 247.84 -145.986c126 0 245 57 245 170c0 112 -120 166 -245 166c-100.718 0 -185.781 -53.9208 -247.89 -132.565zM631.811 408.084
c55.5254 76.3529 132.704 131.916 227.189 131.916c106 0 210 -42 210 -137s-103 -140 -210 -140c-96.5955 0 -169.409 65.8572 -227.189 145.084z" />
    <glyph glyph-name="integral" unicode="&#x222b;" horiz-adv-x="594" 
d="M573 827c-14.2147 2.07011 -27.9533 3.11173 -41.1448 3.11173c-82.3939 0 -143.443 -40.6364 -165.855 -125.112c-56 -213 -113 -426 -168 -640c-18.0871 -68.0421 -68.0728 -102.702 -135.9 -102.702c-10.9233 0 -22.3094 0.898928 -34.0995 2.70212l-7 -29
c13.9389 -1.85852 27.4372 -2.80065 40.4295 -2.80065c84.8767 0 148.155 40.2085 171.571 127.801c57 215 113 428 170 643c17.1686 66.0989 65.2868 95.353 129.806 95.353c10.6405 0 21.727 -0.795672 33.1944 -2.35297z" />
    <glyph glyph-name="iogonek" unicode="&#x12f;" horiz-adv-x="465" 
d="M240 670h43c0 -13 -10 -19 -22 -19c-13 0 -21 7 -21 19zM240 670h43c0 13 -10 20 -22 20c-13 0 -21 -8 -21 -20zM243 502v-471h-180v-31h117.564c-34.8309 -17.0019 -58.5635 -40.3298 -58.5635 -84c0 -64 50 -97 120 -97c41 0 68 11 105 27l-16 24
c-30 -14 -53 -22 -86 -22c-51 0 -89 22 -89 69c0 51.0951 42.7874 65.5153 92.5408 83h13.4592h20h165v31h-165v502h-20h-19h-180v-31h180z" />
    <glyph glyph-name="j" unicode="j" horiz-adv-x="449" 
d="M14 -301c11 0 25 -3 40 -3c119 0 216 51 216 164v673h-20h-17h-181v-30h181.006c0.0814774 -214.083 0.994201 -428.998 0.994201 -643c0 -92 -81 -134 -179 -134c-12 0 -27 2 -35 3c-5 -30 0 0 -6 -30zM232 670h43c0 -13 -10 -19 -23 -19s-20 7 -20 19zM232 670h43
c0 13 -10 20 -23 20s-20 -8 -20 -20z" />
    <glyph glyph-name="k" unicode="k" horiz-adv-x="942" 
d="M267 275c138.136 75.6667 276.271 151.333 415.088 227h180.912v31h-124h-57h-4h-194v-31h137.728c-129.767 -71.4415 -260.059 -142.883 -389.728 -214.324v512.324h-16h-21h-179v-31h179v-738.91l-181 0.909548v-31h181h18h19h159v31
c-84.318 -0.468434 -89.4219 -0.498007 -89.4219 -0.499874c0 0 -43.5512 -0.246785 -69.5781 -0.393247v232.094c159.25 -88.5582 317.715 -175.379 478 -262.201h1h64h139v31l-194.539 -0.958318c-151.292 81.8021 -301.877 162.983 -452.461 244.958z" />
    <glyph glyph-name="kcommaaccent" unicode="&#x137;" horiz-adv-x="942" 
d="M414 -319l149 186h-48l-139 -186h38zM267 275c138.136 75.6667 276.271 151.333 415.088 227h180.912v31h-124h-57h-4h-195v-31h138.728c-129.767 -71.4415 -260.059 -142.883 -389.728 -214.324v512.324h-16h-21h-179v-31h179v-738.91l-181 0.909548v-31h181h18h19h160
v31l-160 -0.893855v232.095c159.25 -88.5582 317.715 -175.379 478 -262.201h1h64h139v31l-194.539 -0.958318c-151.292 81.8021 -301.877 162.983 -452.461 244.958z" />
    <glyph glyph-name="l" unicode="l" horiz-adv-x="428" 
d="M232 30.09v769.91h-15h-22h-176v-31h176v-738.904l-179 0.90404v-31h179h19h18h182v31z" />
    <glyph glyph-name="lacute" unicode="&#x13a;" horiz-adv-x="431" 
d="M148 904c74 55 148 111 222 166h-52c-74 -55 -148 -111 -222 -166h52zM232 30.085v769.915h-14h-22h-176v-31h176v-738.904l-179 0.90404v-31h179h19h17h183v31z" />
    <glyph glyph-name="lcaron" unicode="&#x13e;" horiz-adv-x="557" 
d="M373 616l150 185h-49l-139 -185h38zM232 30.09v769.91h-15h-22h-176v-31h176v-738.904l-179 0.90404v-31h179h19h18h182v31z" />
    <glyph glyph-name="lcommaaccent" unicode="&#x13c;" horiz-adv-x="428" 
d="M139 -318l150 185h-49l-139 -185h38zM232 30.09v769.91h-15h-22h-176v-31h176v-738.904l-179 0.90404v-31h179h19h18h182v31z" />
    <glyph glyph-name="less" unicode="&#x3c;" horiz-adv-x="1015" 
d="M127.614 300.341c255.578 84.2195 511.92 168.439 767.386 252.659v34c-273 -90 -547 -180 -820 -270v-34c278 -88 555 -176 833 -264v34c-260.458 82.4472 -520.038 164.894 -780.386 247.341z" />
    <glyph glyph-name="lessequal" unicode="&#x2264;" horiz-adv-x="1114" 
d="M132 0h833v31h-833v-31zM184.547 405.5c259.603 81.4962 520.028 162.937 780.453 243.5v32c-278 -86 -556 -172 -833 -259v-33c277 -87 555 -174 833 -260v32c-260.425 81.5 -520.85 163 -780.453 244.5z" />
    <glyph glyph-name="litre" horiz-adv-x="492" 
d="M262 30.085v769.915h-14h-22h-176v-31h176v-738.904l-179 0.90404v-31h179h19h17h183v31z" />
    <glyph glyph-name="logicalnot" unicode="&#xac;" horiz-adv-x="990" 
d="M793 326h-591v-33h591v-141h36v141v33h-36z" />
    <glyph glyph-name="logo" horiz-adv-x="2517" 
d="M1881 57c90 -41 182 -62 281 -62c164 0 290 35 290 176c0 136 -130 167 -265 215c-117 40 -238 63 -238 175c0 99 101 137 217 137c86.843 0 154.083 -19.6027 232 -52.9206v-105.079h31v123c-90 40 -163 64 -262 64c-138 0 -254 -48 -254 -168c0 -129 125 -156 252 -201
c125 -43 251 -70 251 -187s-110 -143 -252 -143c-88.9904 0 -171.571 18.3126 -253 53.1856v99.8144h-31v-124h1zM1169 722h-16h-21h-177v-31h177v-660h-177v-31h177h21h16h253c262 0 426 105 426 350c0 259 -168 372 -442 372h-237zM1169 691h234c253 0 410 -103 410 -341
c0 -224 -149 -319 -387 -319h-257v660zM470 689v-659h-182v-30h182h17h19h179v30h-179v659h368v-103h31v103v17v16h-834v-16v-17v-103h31v103h368z" />
    <glyph glyph-name="lozenge" unicode="&#x25ca;" horiz-adv-x="698" 
d="M330 125h-2c-78 114 -156 226 -234 340h37c72.1599 -105.464 145.176 -209.217 216.672 -314.425c71.0726 102.843 147.256 212.894 218.328 314.425h38c-77 -110 -160 -230 -237 -340h-2h-35zM566 465h38c-77 110 -160 230 -237 340h-2h-35h-2
c-78 -114 -156 -227 -234 -340h37c72.1617 104.542 145.179 209.084 216.677 314.418c71.0711 -102.841 147.253 -212.889 218.323 -314.418z" />
    <glyph glyph-name="lslash" unicode="&#x142;" horiz-adv-x="440" 
d="M240 30.0854v372.691c58.4738 48.9936 116.837 98.0083 175 147.223v33c-58.163 -48.7674 -116.526 -97.7351 -175 -146.724v363.724h-14h-23h-176v-31h176v-363.711c-59.9358 -50.1779 -119.968 -100.338 -180 -150.289v-34
c60.0321 50.4086 120.064 100.607 180 150.788v-341.688l-179 0.899497v-31h179h20h17h182v31z" />
    <glyph glyph-name="m" unicode="m" horiz-adv-x="1364" 
d="M280 414.033v118.967h-18h-18h-181v-31h181v-471h-181v-31h181h18h18h153v31h-153v333.43c50.5421 92.2036 129.679 142.57 234 142.57c117 0 176 -51 176 -169v-307h-153v-31h153h18h18h154v31h-154v311c0 6.77843 -0.163955 13.3681 -0.492608 19.7709
c49.7552 93.0208 131.175 145.229 235.493 145.229c118 0 176 -51 176 -169v-307h-152v-31h152h20h17h181v31h-181v311c0 136 -68 196 -205 196c-108.317 0 -196.795 -45.0197 -248.77 -133.06c-18.7934 91.7529 -83.7275 133.06 -198.23 133.06
c-104.804 0 -188.892 -40.7184 -242 -123.967z" />
    <glyph glyph-name="macron" unicode="&#xaf;" horiz-adv-x="539" 
d="M344 681h-303v-30h303v30z" />
    <glyph glyph-name="macronmod" horiz-adv-x="507" 
d="M404 681h-303v-30h303v30z" />
    <glyph glyph-name="minus" unicode="&#x2212;" horiz-adv-x="950" 
d="M162 293h626v33h-626v-33z" />
    <glyph glyph-name="multiply" unicode="&#xd7;" horiz-adv-x="757" 
d="M378.527 333l-208.527 209c-16 -15 -8 -8 -24 -23l209.001 -209.473l-210.001 -209.527c16 -15 8 -8 24 -24l209.737 209.737l209.263 -209.737c15 16 8 9 23 24l-208.763 209.237l209.763 209.763c-15 15 -8 8 -24 23z" />
    <glyph glyph-name="mumath" horiz-adv-x="1001" 
d="M728 159.461c-55.7434 -76.7101 -147.546 -133.461 -244 -133.461c-127 0 -211 45 -211 164v343h-1h-17h-19h-180v-31h180v-314v-488h36v368.87c40.8949 -51.9238 114.287 -73.8699 208 -73.8699c95.9937 0 188.315 49.9527 248 120.896v-115.896h18h18h166v31h-166v502
h-18h-18h-181v-31h181v-342.539z" />
    <glyph glyph-name="n" unicode="n" horiz-adv-x="968" 
d="M244 502v-471h-181v-31h181h18h18h167v31h-167v332.955c52.8165 91.6534 154.703 143.045 262 143.045c122 0 202 -53 202 -169v-307h-168v-31h168h17h20h179v31h-179v311c0 135 -91 196 -232 196c-107.481 0 -210.597 -41.4762 -269 -126.291v121.291h-18h-18h-181v-31
h181z" />
    <glyph glyph-name="nacute" unicode="&#x144;" horiz-adv-x="968" 
d="M451 657c74 55 148 111 222 166h-52c-75 -55 -149 -111 -222 -166h52zM244 502v-471h-181v-31h181h18h18h167v31h-167v332.955c52.8165 91.6534 154.703 143.045 262 143.045c122 0 202 -53 202 -169v-307h-168v-31h168h17h20h179v31h-179v311c0 135 -91 196 -232 196
c-107.481 0 -210.597 -41.4762 -269 -126.291v121.291h-18h-18h-181v-31h181z" />
    <glyph glyph-name="ncaron" unicode="&#x148;" horiz-adv-x="968" 
d="M266 821c73 -55 147 -111 222 -166h9h42h10c74 55 148 111 222 166h-52c-67 -50.7027 -134 -100.586 -201 -150.391c-67 49.8054 -134 99.6883 -201 150.391h-51zM244 502v-471h-181v-31h181h18h18h167v31h-167v332.955c52.8165 91.6534 154.703 143.045 262 143.045
c122 0 202 -53 202 -169v-307h-168v-31h168h17h20h179v31h-179v311c0 135 -91 196 -232 196c-107.481 0 -210.597 -41.4762 -269 -126.291v121.291h-18h-18h-181v-31h181z" />
    <glyph glyph-name="ncommaaccent" unicode="&#x146;" horiz-adv-x="968" 
d="M465 -318l149 186h-48l-139 -186h38zM244 502v-471h-181v-31h181h18h18h167v31h-167v332.955c52.8165 91.6534 154.703 143.045 262 143.045c122 0 202 -53 202 -169v-307h-168v-31h168h17h20h179v31h-179v311c0 135 -91 196 -232 196
c-107.481 0 -210.597 -41.4762 -269 -126.291v121.291h-18h-18h-181v-31h181z" />
    <glyph glyph-name="nine" unicode="9" horiz-adv-x="828" 
d="M676.914 432.368c-24.5841 -262.225 -263.511 -374.602 -558.914 -414.368l6 -32c332 40 590 180 590 494c0 168 -131 248 -311 248c-159 0 -274 -66 -274 -212c0 -145 117 -207 276 -207c118.967 0 214.105 36.8273 271.914 123.368zM678.961 482.631
c-61.5799 -102.281 -147.063 -141.631 -270.961 -141.631c-139 0 -243 51 -243 177c0 122 102 174 236 174c158.31 0 275.503 -65.5921 277.961 -209.369z" />
    <glyph glyph-name="notequal" unicode="&#x2260;" horiz-adv-x="1129" 
d="M466.6 202l-153.6 -224h37l153.92 224h486.08v31h-464.779l131.244 191h333.534v31h-312.233l153.233 223h-38l-152.914 -223h-497.086v-31h475.829l-130.971 -191h-344.857v-31z" />
    <glyph glyph-name="ntilde" unicode="&#xf1;" horiz-adv-x="968" 
d="M766 783c-18 -56 -43 -100 -98 -100c-49 0 -81 15 -119 47c-40 34 -73 55 -125 55c-76 0 -119 -47 -139 -122l28 -9c17 61 51 101 111 101c43 0 70 -19 103 -47c44 -36 82 -55 138 -55c73 0 107 51 131 122c-30 8 -1 -1 -30 8zM244 502v-471h-181v-31h181h18h18h167v31
h-167v332.955c52.8165 91.6534 154.703 143.045 262 143.045c122 0 202 -53 202 -169v-307h-168v-31h168h17h20h179v31h-179v311c0 135 -91 196 -232 196c-107.481 0 -210.597 -41.4762 -269 -126.291v121.291h-18h-18h-181v-31h181z" />
    <glyph glyph-name="nullsuperior" horiz-adv-x="735" 
d="M143 497c0 -132 89 -210 225 -210s224 79 224 213c0 131 -88 207 -223 207c-137 0 -226 -77 -226 -210zM178 497c0 113 75 180 189 180c0.846596 0.00736171 1.69097 0.0110382 2.53311 0.0110382c113.552 0 186.467 -66.8429 186.467 -179.011
c0 -112 -72 -181 -186 -181c-117 0 -192 67 -192 180z" />
    <glyph glyph-name="numbersign" unicode="#" horiz-adv-x="941" 
d="M749.93 516l88.0703 206h-37l-88.0703 -206h-342.388l87.4586 206h-37l-86.8491 -206h-136.151l-11 -30h134.503l-88.9571 -211h-132.546l-11 -31l130.476 2.84217e-14l-83.4763 -198h35l84.0621 198h341.581l-87.6428 -205h37l87.6428 205h107.357l11 31h-105.104
l90.2079 211h101.896l10 30h-99.0703zM700.104 486l-90.2079 -211h-341.673l89.5814 211h342.299z" />
    <glyph glyph-name="o" unicode="o" horiz-adv-x="852" 
d="M118 268c0 -177 123 -273 307 -273c185 0 309 94 309 271s-125 272 -312 272c-182 0 -304 -96 -304 -270zM154 268c0 156 107 240 267 240c166 0 276 -84 276 -242c0 -157 -108 -240 -271 -240c-164 0 -272 85 -272 242z" />
    <glyph glyph-name="oacute" unicode="&#xf3;" horiz-adv-x="852" 
d="M354 656c74 55 148 111 222 166h-52c-74 -55 -148 -111 -222 -166h52zM118 268c0 -177 123 -273 307 -273c185 0 309 94 309 271s-125 272 -312 272c-182 0 -304 -96 -304 -270zM154 268c0 156 107 240 267 240c166 0 276 -84 276 -242c0 -157 -108 -240 -271 -240
c-164 0 -272 85 -272 242z" />
    <glyph glyph-name="ocircumflex" unicode="&#xf4;" horiz-adv-x="852" 
d="M675 655c-74 55 -148 111 -223 166h-9h-42h-10c-74 -55 -148 -111 -222 -166h52c67 50.7027 134 100.586 201 150.391c67 -49.8054 134 -99.6883 201 -150.391h52zM118 268c0 -177 123 -273 307 -273c185 0 309 94 309 271s-125 272 -312 272c-182 0 -304 -96 -304 -270z
M154 268c0 156 107 240 267 240c166 0 276 -84 276 -242c0 -157 -108 -240 -271 -240c-164 0 -272 85 -272 242z" />
    <glyph glyph-name="odieresis" unicode="&#xf6;" horiz-adv-x="852" 
d="M481 668h52c0 -15 -11 -23 -27 -23c-15 0 -25 9 -25 23zM481 668h52c0 15 -11 23 -27 23c-15 0 -25 -8 -25 -23zM312 668h52c0 -15 -11 -23 -27 -23c-15 0 -25 9 -25 23zM312 668h52c0 15 -11 23 -27 23c-15 0 -25 -8 -25 -23zM118 268c0 -177 123 -273 307 -273
c185 0 309 94 309 271s-125 272 -312 272c-182 0 -304 -96 -304 -270zM154 268c0 156 107 240 267 240c166 0 276 -84 276 -242c0 -157 -108 -240 -271 -240c-164 0 -272 85 -272 242z" />
    <glyph glyph-name="oe" unicode="&#x153;" horiz-adv-x="1372" 
d="M1217 298h-480.58c6.97803 138.741 100.356 209 244.58 209c142 0 236 -64 236 -202v-7zM736.222 268h514.778v34c0 160 -105 236 -268 236c-136.78 0 -234.179 -53.7591 -268.966 -160.783c-42.3331 105.252 -149.063 160.783 -292.034 160.783
c-182 0 -304 -96 -304 -270c0 -177 123 -273 307 -273c146.397 0 254.595 58.864 293.375 171.141c41.1833 -114.248 149.042 -171.141 297.625 -171.141c93 0 154 22 230 78l-22 23c-69 -50 -124 -70 -208 -70c-165.585 0 -274.246 81.5908 -279.778 242zM154 268
c0 156 107 240 267 240c166 0 276 -84 276 -242c0 -157 -108 -240 -271 -240c-164 0 -272 85 -272 242z" />
    <glyph glyph-name="ogonek" unicode="&#x2db;" horiz-adv-x="447" 
d="M189 24c-75 -27 -146 -41 -146 -116c0 -65 51 -98 120 -98c41 0 69 11 106 27l-16 24c-31 -14 -53 -22 -86 -22c-52 0 -90 22 -90 69c0 63 64 70 125 95z" />
    <glyph glyph-name="ograve" unicode="&#xf2;" horiz-adv-x="852" 
d="M521 655c-73 55 -147 111 -222 166h-52c74 -55 148 -111 222 -166h52zM118 268c0 -177 123 -273 307 -273c185 0 309 94 309 271s-125 272 -312 272c-182 0 -304 -96 -304 -270zM154 268c0 156 107 240 267 240c166 0 276 -84 276 -242c0 -157 -108 -240 -271 -240
c-164 0 -272 85 -272 242z" />
    <glyph glyph-name="ohungarumlaut" unicode="&#x151;" horiz-adv-x="852" 
d="M483 591l149 186h-48l-139 -186h38zM311 591l150 186h-49l-139 -186h38zM118 268c0 -177 123 -273 307 -273c185 0 309 94 309 271s-125 272 -312 272c-182 0 -304 -96 -304 -270zM154 268c0 156 107 240 267 240c166 0 276 -84 276 -242c0 -157 -108 -240 -271 -240
c-164 0 -272 85 -272 242z" />
    <glyph glyph-name="omacron" unicode="&#x14d;" horiz-adv-x="852" 
d="M566 684h-303v-29h303v29zM118 268c0 -177 123 -273 307 -273c185 0 309 94 309 271s-125 272 -312 272c-182 0 -304 -96 -304 -270zM154 268c0 156 107 240 267 240c166 0 276 -84 276 -242c0 -157 -108 -240 -271 -240c-164 0 -272 85 -272 242z" />
    <glyph glyph-name="omegamath" horiz-adv-x="1032" 
d="M768.306 30c108.873 75.5756 166.694 177.514 166.694 318c0 238 -173 378 -419 378c-247 0 -420 -142 -420 -381c0 -138.135 59.5895 -235.498 166.272 -315h-228.272v-30h272l20 30c-123 77 -194 172 -194 315c0 219 156 351 381 351c227 0 387 -129 387 -348
c0 -146 -74 -244 -202 -318l22 -30h274v30h-225.694z" />
    <glyph glyph-name="one" unicode="1" horiz-adv-x="622" 
d="M353 722l-268 -170l19 -27l249 155.849v-649.849h-177v-31h177h21h15h184v31h-184v691h-36z" />
    <glyph glyph-name="onehalf" unicode="&#xbd;" horiz-adv-x="1432" 
d="M986 223c41 51 92 73 162 73c78 0 141 -25 141 -93c0 -60 -50 -81 -102 -115c-88 -50 -175 -101 -263 -151v-30h428v124h-29v-94l-338.317 7.10543e-15c76.2271 43.0008 149.606 85.3341 222.317 127c61 41 117 69 117 140c0 87 -77 121 -173 121
c-84 0 -146 -21 -191 -85zM445 -87l574 839h-38l-573 -839h37zM1337.56 -77.458c0 0.497411 -1.48457 2.2505 -14.564 14.458c13.0794 -12.2075 14.564 -13.9606 14.564 -14.458zM251 755l-173 -109l17 -26l156 102.375v-350.375h-138v-28h138h167v28h-131v374v9h-36z" />
    <glyph glyph-name="onequarter" unicode="&#xbc;" horiz-adv-x="1394" 
d="M451 -87l573 839h-37l-574 -839h38zM1152 -101h19h180v29h-180v92h129v29h-129v279v8h-36l-308 -287l16 -29h292v-92h-181v-29h181h17zM1135 294.195v-245.195h-261.117zM257 755l-174 -109l17 -26l157 103.031v-351.031h-138v-28h137h1h167v28h-132v374v9h-35z" />
    <glyph glyph-name="onesuperior" unicode="&#xb9;" horiz-adv-x="614" 
d="M321 704l-174 -109l17 -26l157 103.031v-351.031h-139v-28h138h1h166v28h-131v374v9h-35z" />
    <glyph glyph-name="ordfeminine" unicode="&#xaa;" horiz-adv-x="704" 
d="M443 631.421c-58.7915 -5.46731 -103.459 -5.99117 -165 -12.4208c-75 -7 -133 -35 -133 -104s61 -97 140 -97c66.6224 0 118.362 30.4427 158 73.5225v-65.5225h20h14h84v27h-84v226c0 74 -73 88 -157 88c-64 0 -123 -22 -161 -52v-74h28v58.6262
c32.6886 20.5916 78.3944 39.3738 129 39.3738c68 0 127 -10 127 -70v-37.5792zM443 525.441c-36.5569 -44.6075 -87.5569 -79.4407 -153 -79.4407c-62 0 -112 17 -112 71c0 50 43 70 99 76c61.2811 6.4025 106.667 7.78557 166 13.3312v-80.8904z" />
    <glyph glyph-name="ordmasculine" unicode="&#xba;" horiz-adv-x="691" 
d="M143 600c0 -118 84 -184 206 -184c119 0 199 67 199 182c0 112 -83 173 -201 173c-119 0 -204 -60 -204 -171zM177 600c0 93 69 143 168 143c100 0 169 -52 169 -145c0 -96 -66 -153 -163 -153c-103 0 -174 56 -174 155z" />
    <glyph glyph-name="oslash" unicode="&#xf8;" horiz-adv-x="852" 
d="M118 268c0 -114.919 51.8491 -195.693 138.579 -238.218l-62.5788 -91.7823l24 -18l66.6688 97.7907c40.9367 -15.08 88.1842 -22.7907 140.331 -22.7907c185 0 309 94 309 271c0 107.463 -46.0764 184.699 -124.13 228.8l60.1301 88.1997l-26 15l-61.2102 -89.775
c-45.5711 19.7004 -99.8929 29.775 -160.79 29.775c-182 0 -304 -96 -304 -270zM154 268c0 156 107 240 267 240c54.4576 0 102.888 -9.04023 143.386 -26.7676l-289.042 -423.929c-76.2135 37.8044 -121.343 109.207 -121.343 210.696zM591.258 467.501
c66.6863 -39.4831 105.742 -107.355 105.742 -201.501c0 -157 -108 -240 -271 -240c-45.5287 0 -86.7416 6.55092 -122.526 19.3746z" />
    <glyph glyph-name="otilde" unicode="&#xf5;" horiz-adv-x="852" 
d="M645 783c-18 -56 -43 -100 -98 -100c-49 0 -81 15 -119 47c-40 34 -73 55 -126 55c-75 0 -118 -47 -138 -122l28 -9c17 61 51 101 111 101c43 0 70 -19 103 -47c44 -36 82 -55 138 -55c72 0 107 51 130 122zM118 268c0 -177 123 -273 307 -273c185 0 309 94 309 271
s-125 272 -312 272c-182 0 -304 -96 -304 -270zM154 268c0 156 107 240 267 240c166 0 276 -84 276 -242c0 -157 -108 -240 -271 -240c-164 0 -272 85 -272 242z" />
    <glyph glyph-name="p" unicode="p" horiz-adv-x="912" 
d="M230 458.797v74.2028h-17h-19h-180v-31l180 0.904523v-771.905h-182v-30h182v-1h17h19h166v31l-166 -0.897297v356.242c81.8178 -61.1326 160.893 -91.3444 267 -91.3444c175 0 297 109 296 281c0 164 -124 262 -294 262c-105.419 0 -204.118 -32.8527 -269 -79.2028z
M230 120.801l-2.84217e-14 303.764c58.1483 46.9483 159.515 83.4348 268 83.4348c152 0 260 -88 260 -233c0.0711662 -2.75769 0.106563 -5.49671 0.106563 -8.21683c0 -148.605 -105.648 -240.814 -256.336 -240.814c-1.58518 0 -3.17535 0.010204 -4.77043 0.0306538
c-106.101 0 -181.881 32.2152 -267 94.8011z" />
    <glyph glyph-name="paragraph" unicode="&#xb6;" horiz-adv-x="966" 
d="M814 0v722h-25h-13h-165h-21h-4h-13h-159c-181 0 -329 -68 -329 -229c0 -150 132 -213 298 -216c68.4396 0 127.148 15.4078 190 37.4602v-283.46h-181v-31h181h17h21h165h13h25zM573 691v-344.718c-67.1956 -24.7448 -120.603 -39.2824 -194 -39.2824
c-142 0 -257 55 -257 184c0 145 134 200 297 200h154zM611 31v660h165v-660h-165z" />
    <glyph glyph-name="parenleft" unicode="(" horiz-adv-x="488" 
d="M460 -232c-203 148 -316 307 -316 558c0 250 113 407 314 559l-21 21c-212 -155 -330 -319 -330 -580s119 -424 331 -580z" />
    <glyph glyph-name="parenright" unicode=")" horiz-adv-x="501" 
d="M47 -270c217 164 349 326 349 597c0 265 -125 426 -344 579l-21 -22c207 -150 327 -304 327 -558c0 -259 -130 -413 -333 -575z" />
    <glyph glyph-name="partialdiff" unicode="&#x2202;" horiz-adv-x="777" 
d="M611.89 284.248c8.13629 42.0933 12.1102 87.489 12.1102 134.752c0 160 -83 279 -234 279c-62 0 -107 -20 -163 -45l-17 23c63 32 112 51 182 51c170 0 266 -130 266 -308c0 -234.381 -88.5317 -423.004 -299.327 -423.004
c-0.556746 0 -1.11434 0.00131579 -1.6728 0.00395c-144 0 -250 76 -250 213c0 141 112 217 263 217c114.659 0 204.466 -47.633 241.89 -141.752zM599.466 233.214c-24.2688 109.293 -111.099 164.786 -227.466 164.786c-125 0 -230 -63 -230 -185c0 -119 97 -188 215 -188
c126.881 0.689568 205.735 85.0678 242.466 208.214z" />
    <glyph glyph-name="percent" unicode="%" horiz-adv-x="1466" 
d="M493 -87l573 839h-37l-574 -839h38zM942 116c0 -133 89 -211 225 -211c135 0 224 79 224 213c0 131 -89 207 -224 207c-136 0 -225 -77 -225 -209zM976 116c0 112 75 179 190 179c0.839235 0.00736171 1.6763 0.0110382 2.51119 0.0110382
c112.574 0 185.489 -66.8429 185.489 -179.011c0 -112 -71 -181 -186 -181c-116 0 -192 67 -192 181zM76 546c0 -133 89 -211 225 -211c135 0 224 79 224 213c0 131 -89 207 -224 207c-136 0 -225 -77 -225 -209zM111 546c0 112 74 179 189 179
c0.839235 0.00736171 1.6763 0.0110382 2.51119 0.0110382c112.574 0 185.489 -66.8429 185.489 -179.011c0 -112 -71 -181 -186 -181c-116 0 -191 67 -191 181z" />
    <glyph glyph-name="period" unicode="." horiz-adv-x="360" 
d="M154 17h52c0 14 -11 23 -27 23c-15 0 -25 -9 -25 -23zM154 17h52c0 -15 -11 -23 -27 -23c-15 0 -25 8 -25 23z" />
    <glyph glyph-name="periodcentered" unicode="&#xb7;" horiz-adv-x="367" 
d="M158 440h51c0 -15 -11 -23 -26 -23s-25 8 -25 23zM158 440h51c0 15 -11 23 -26 23s-25 -9 -25 -23z" />
    <glyph glyph-name="perthousand" unicode="&#x2030;" horiz-adv-x="2003" 
d="M493 -87l573 839h-37l-574 -839h38zM1481 116c0 -133 89 -211 225 -211s224 79 224 213c0 131 -88 207 -223 207c-136 0 -226 -77 -226 -209zM1516 116c0 112 75 179 189 179c0.846596 0.00736171 1.69097 0.0110382 2.53311 0.0110382
c113.552 0 186.467 -66.8429 186.467 -179.011c0 -112 -72 -181 -186 -181c-117 0 -192 67 -192 181zM942 116c0 -133 89 -211 225 -211c135 0 224 79 224 213c0 131 -89 207 -224 207c-136 0 -225 -77 -225 -209zM976 116c0 112 75 179 190 179
c0.839235 0.00736171 1.6763 0.0110382 2.51119 0.0110382c112.574 0 185.489 -66.8429 185.489 -179.011c0 -112 -71 -181 -186 -181c-116 0 -192 67 -192 181zM76 546c0 -133 89 -211 225 -211c135 0 224 79 224 213c0 131 -89 207 -224 207c-136 0 -225 -77 -225 -209z
M111 546c0 112 74 179 189 179c0.839235 0.00736171 1.6763 0.0110382 2.51119 0.0110382c112.574 0 185.489 -66.8429 185.489 -179.011c0 -112 -71 -181 -186 -181c-116 0 -191 67 -191 181z" />
    <glyph glyph-name="pi" unicode="&#x3c0;" horiz-adv-x="702" 
d="M212 556h280v-538h35v538h136v33h-629v-33h142v-538h36v538z" />
    <glyph glyph-name="plus" unicode="+" horiz-adv-x="834" 
d="M430 326v262h-35v-262h-291v-33h291v-275h35v275h301v33h-301z" />
    <glyph glyph-name="plusminus" unicode="&#xb1;" horiz-adv-x="895" 
d="M461 326v262h-36v-262h-291v-33h291v-242h-291v-33h291h36h300v33h-300v242h300v33h-300z" />
    <glyph glyph-name="product" unicode="&#x220f;" horiz-adv-x="1208" 
d="M287 800h-2h-22h-177v-30h177v-740h-180v-30h180h19h17h181v30h-181v740h607v-740h-180v-30h180h19h17h181v30h-181v740h180v30h-180h-21h-15h-607h-12z" />
    <glyph glyph-name="q" unicode="q" horiz-adv-x="904" 
d="M684 429.84v-298.974c-71.6976 -69.6245 -165.138 -104.866 -264 -104.866c-156 0 -269 87 -269 239c0 153 110 242 266 242c93.3736 0 188.526 -29.3557 267 -77.1598zM684 91.1595v-361.053l-177 0.893939v-31h177h21h18h167v31l-167 -0.902703v771.903h167v31h-167
h-18h-21v-70.3494c-78.3389 47.2437 -174.341 75.3494 -268 75.3494c-178 0 -302 -101 -302 -274c0 -172 128 -269 306 -269c98.2401 0 191.864 33.8528 264 96.1595z" />
    <glyph glyph-name="question" unicode="?" horiz-adv-x="619" 
d="M130 668c37 10 64 15 102 15c128 0 233 -49 233 -164c0 -126 -116 -180 -257 -180h-5c0 -37 -1 -80 -1 -117h38v85.908c145.103 8.37495 259 74.9556 259 211.092c0 133 -120 195 -264 195c-43 0 -76 -5 -117 -16zM200 12h43c0 12 -8 19 -21 19s-22 -8 -22 -19zM200 12
h43c0 -14 -8 -19 -21 -19c-14 0 -22 7 -22 19z" />
    <glyph glyph-name="questiondown" unicode="&#xbf;" horiz-adv-x="619" 
d="M489 39c-37 -10 -64 -15 -102 -15c-128 0 -233 49 -233 164c0 126 116 181 257 181h5v116h-37v-84.9211c-145.103 -8.49243 -259 -75.9426 -259 -212.079c0 -132 119 -195 264 -195c43 0 75 6 117 16zM419 696h-43c0 13 8 18 21 18s22 -7 22 -18zM419 696h-43
c0 -13 8 -20 21 -20s22 8 22 20z" />
    <glyph glyph-name="quotedbl" unicode="&#x22;" horiz-adv-x="624" 
d="M455 658v188h-34v-188h34zM205 658v188h-36v-188h36z" />
    <glyph glyph-name="quotedblbase" unicode="&#x201e;" horiz-adv-x="576" 
d="M265 -145l150 186h-49l-139 -186h38zM96 -145l149 186h-48l-139 -186h38z" />
    <glyph glyph-name="quotedblleft" unicode="&#x201c;" horiz-adv-x="478" 
d="M242 865l-150 -185h49l139 185h-38zM413 865l-149 -185h48l139 185h-38z" />
    <glyph glyph-name="quotedblright" unicode="&#x201d;" horiz-adv-x="434" 
d="M218 654l149 185h-48l-139 -185h38zM47 654l149 185h-48l-139 -185h38z" />
    <glyph glyph-name="quoteleft" unicode="&#x2018;" horiz-adv-x="449" 
d="M304 737l-150 -186h49l139 186h-38z" />
    <glyph glyph-name="quoteright" unicode="&#x2019;" horiz-adv-x="445" 
d="M192 537l150 185h-49l-139 -185h38z" />
    <glyph glyph-name="quotesinglbase" unicode="&#x201a;" horiz-adv-x="407" 
d="M96 -145l149 186h-48l-139 -186h38z" />
    <glyph glyph-name="quotesingle" unicode="'" horiz-adv-x="374" 
d="M205 658v188h-36v-188h36z" />
    <glyph glyph-name="r" unicode="r" horiz-adv-x="654" 
d="M281 395.568c83.7115 103.05 190.577 111.432 317 111.432v31c-127.614 0 -239.214 -13.4862 -317 -102.366v97.3662h-19h-17h-182v-31h182v-471h-181v-31h181h18h18h167v31h-167v364.568z" />
    <glyph glyph-name="racute" unicode="&#x155;" horiz-adv-x="654" 
d="M251 656c74 55 148 111 222 166h-52c-74 -55 -148 -111 -222 -166h52zM281 395.568c83.7115 103.05 190.577 111.432 317 111.432v31c-127.614 0 -239.214 -13.4862 -317 -102.366v97.3662h-19h-17h-182v-31h182v-471h-181v-31h181h18h18h167v31h-167v364.568z" />
    <glyph glyph-name="radical" unicode="&#x221a;" horiz-adv-x="913" 
d="M485 0c123 241 247 481 371 722h-36c-122.068 -231.641 -240.441 -462.358 -359.558 -693.928c-103.9 200.384 -32.8114 63.9588 -156.442 294.928h-19h-17h-181v-30h196.685c103.31 -197.581 32.9485 -62.7759 153.315 -293h9h29h10z" />
    <glyph glyph-name="rcaron" unicode="&#x159;" horiz-adv-x="661" 
d="M68 820c74 -55 148 -111 223 -166h9h42h10c74 55 148 111 222 166h-52c-67 -50.7027 -134 -100.586 -201 -150.391c-67 49.8054 -134 99.6883 -201 150.391h-52zM283 395.449c84.5613 103.163 190.528 111.551 317 111.551v31
c-127.614 0 -239.214 -13.4862 -317 -102.366v97.3662h-19h-17h-181l-1 -31h182v-471h-180v-31h180h18h18h168v31h-168v364.449z" />
    <glyph glyph-name="rcommaaccent" unicode="&#x157;" horiz-adv-x="654" 
d="M249 -318l149 185h-48l-139 -185h38zM281 395.568c83.7115 103.05 190.577 111.432 317 111.432v31c-127.614 0 -239.214 -13.4862 -317 -102.366v97.3662h-19h-17h-182v-31h182v-471h-181v-31h181h18h18h167v31h-167v364.568z" />
    <glyph glyph-name="registered" unicode="&#xae;" horiz-adv-x="1085" 
d="M428 148h127v27h-94zM462 293h70c13.0111 0 25.5849 0.393489 37.5664 1.32591c35.9869 -48.933 71.3941 -98.4456 108.434 -146.326h115v27h-92c-31.3296 41.4656 -63.5082 82.9312 -94.9711 124.397c49.3251 10.6015 81.9711 36.4796 81.9711 92.6032
c0 73 -64 100 -145 100h-81h-141v-27h108v-289h-108v-27h108l33 27v117zM462 465h76c64 0 117 -18 117 -75c0 -60 -53 -70 -119 -70h-74v145zM462 465v27zM120 320c0 -218 195 -323 434 -323c228 0 411 111 411 323c0 214 -187 325 -418 325c-236 0 -427 -108 -427 -325z
M151 320c0 200 178 299 396 299c213 0 387 -102 387 -301c0 -193 -170 -295 -379 -295c-219 0 -404 95 -404 297z" />
    <glyph glyph-name="ring" unicode="&#x2da;" horiz-adv-x="482" 
d="M55 743c0 62 50 91 118 91c73 0 128 -26 128 -91c0 -63 -54 -90 -125 -90c-69 0 -121 27 -121 90zM22 743c0 -80 66 -119 154 -119c90 0 158 37 158 119c0 84 -69 120 -161 120c-87 0 -151 -38 -151 -120z" />
    <glyph glyph-name="ruble" horiz-adv-x="896" 
d="M483 313c199 3 328 28 328 204s-129 205 -329 205h-160h-13h-4h-20h-178v-31h178v-346h-131v-32h131v-102h-131v-32h131v-148h-178v-31h178h20h17h182v31h-182v148h378v32h-378v102h161zM322 691h155c180 0 297 -18 297 -175c0 -155 -117 -171 -295 -171h-157v346z" />
    <glyph glyph-name="rupee" horiz-adv-x="1100" 
d="M0 0h1100v20h-1100v-20z" />
    <glyph glyph-name="s" unicode="s" horiz-adv-x="699" 
d="M144 75.3112v97.6888h-30v-122h2c84 -32 159 -56 245 -56c126 0 222 33 222 147c-1 115 -110 121 -229 149c-93 21 -176 40 -176 121c0 76 70 95 159 95c61.6786 0 135.698 -17.2771 184 -36.9065v-101.093h31v121c-52 25 -141 48 -213 48c-111 0 -194 -27 -194 -127
c0 -102 88 -124 197 -149c104 -27 206 -28 206 -120c0 -91 -80 -116 -182 -116c-78.6053 0 -145.265 21.1351 -222 49.3112z" />
    <glyph glyph-name="sacute" unicode="&#x15b;" horiz-adv-x="699" 
d="M273 657c74 55 148 110 222 166h-52c-75 -55 -149 -111 -222 -166h52zM144 75.3112v97.6888h-30v-122h2c84 -32 159 -56 245 -56c126 0 222 33 222 147c-1 115 -110 121 -229 149c-93 21 -176 40 -176 121c0 76 70 95 159 95c61.6786 0 135.698 -17.2771 184 -36.9065
v-101.093h31v121c-52 25 -141 48 -213 48c-111 0 -194 -27 -194 -127c0 -102 88 -124 197 -149c104 -27 206 -28 206 -120c0 -91 -80 -116 -182 -116c-78.6053 0 -145.265 21.1351 -222 49.3112z" />
    <glyph glyph-name="scaron" unicode="&#x161;" horiz-adv-x="711" 
d="M91 821c74 -55 148 -111 222 -166h10h42h9c75 55 149 111 222 166h-51c-67 -50.7027 -134 -100.586 -201 -150.391c-67 49.8054 -134 99.6883 -201 150.391h-52zM148 74.9464v98.0536h-30v-122h2c84 -32 159 -56 244 -56c126 0 222 33 222 147c-1 115 -109 121 -229 149
c-93 21 -176 40 -176 121c0 76 70 95 160 95c61.3554 0 134.109 -17.0965 183 -36.5982v-101.402h31v121c-51 25 -140 48 -213 48c-110 0 -194 -27 -194 -127c0 -102 89 -124 197 -149c104 -27 206 -28 206 -120c0 -91 -80 -116 -181 -116
c-78.2657 0 -145.599 20.9529 -222 48.9464z" />
    <glyph glyph-name="scedilla" unicode="&#x15f;" horiz-adv-x="699" 
d="M293 -98c20 10 37 12 60 12c40 0 70 -16 70 -53c0 -41 -40 -51 -88 -51c-35 0 -61 2 -95 17l-12 -23c37 -15 66 -22 106 -22c69 0 123 19 123 80c0 54 -43 81 -101 81c-12.8705 0 -24.2199 -0.912672 -35.116 -2.67869c13.8316 17.967 27.9764 36.4925 40.116 52.6787
l-2.81198 2.00856c0.936033 -0.00569703 1.87335 -0.00855594 2.81198 -0.00855594c126 0 222 33 222 147c-1 115 -110 121 -229 149c-93 21 -176 40 -176 121c0 76 70 95 159 95c61.6786 0 135.698 -17.2771 184 -36.9065v-101.093h31v121c-52 25 -141 48 -213 48
c-111 0 -194 -27 -194 -127c0 -102 88 -124 197 -149c104 -27 206 -28 206 -120c0 -91 -80 -116 -182 -116c-78.6053 0 -145.265 21.1351 -222 49.3112v97.6888h-30v-122h2c70.732 -26.9455 135.083 -48.2187 204.993 -54.2667
c-17.0527 -22.9215 -36.9525 -49.0787 -52.9929 -70.7333l24 -23z" />
    <glyph glyph-name="scommaaccent" unicode="&#x219;" horiz-adv-x="699" 
d="M255 -328l149 185h-49l-139 -185h39zM144 75.3112v97.6888h-30v-122h2c84 -32 159 -56 245 -56c126 0 222 33 222 147c-1 115 -110 121 -229 149c-93 21 -176 40 -176 121c0 76 70 95 159 95c61.6786 0 135.698 -17.2771 184 -36.9065v-101.093h31v121
c-52 25 -141 48 -213 48c-111 0 -194 -27 -194 -127c0 -102 88 -124 197 -149c104 -27 206 -28 206 -120c0 -91 -80 -116 -182 -116c-78.6053 0 -145.265 21.1351 -222 49.3112z" />
    <glyph glyph-name="section" unicode="&#xa7;" horiz-adv-x="717" 
d="M140 28c76 -41 136 -57 223 -57c110 0 199 34 199 132c-1.33238 62.6217 -40.3883 95.0645 -96.1761 116.251c78.6035 21.7834 135.176 61.3573 135.176 141.749c-1 117 -123 118 -245 146c-79 20 -150 44 -150 117c0 72 66 98 153 98
c64.8538 0 110.517 -9.17796 169 -32.1067v-101.893h31v120c-69 29 -121 44 -197 44c-108 0 -191 -37 -191 -128c0 -61.4317 36.2091 -95.7065 88.5671 -118.938c-76.9494 -22.0483 -134.567 -58.8273 -134.567 -138.062c0 -110 109 -123 225 -150c88 -23 177 -36 177 -114
c0 -72 -73 -102 -162 -102c-76.0533 0 -128.304 13.2238 -194 44.638v103.362h-31v-121zM414.028 235.189c-13.5903 3.4737 -27.6677 6.68257 -42.0281 9.81059c-104 26 -211 32 -211 123c0 74.9558 61.216 102.199 139.232 121.875
c12.1682 -3.88122 24.816 -7.45912 37.7678 -10.875c109 -28 227 -22 227 -119c0 -73.9909 -65.6886 -110.188 -150.972 -124.811z" />
    <glyph glyph-name="semicolon" unicode=";" horiz-adv-x="523" 
d="M180 -99c60 71 90 110 149 181h-47c-53 -71 -85 -110 -139 -181h37zM273 422h42c0 13 -9 20 -22 20c-12 0 -20 -8 -20 -20zM273 422h42c0 -14 -9 -19 -22 -19s-20 8 -20 19z" />
    <glyph glyph-name="seven" unicode="7" horiz-adv-x="772" 
d="M716 722h-619v-31v-120h31v120h563.44c-530.853 -670.055 15.1272 19.3709 -548.44 -691h45c547 691 548 691 548 691v31h-20z" />
    <glyph glyph-name="six" unicode="6" horiz-adv-x="824" 
d="M151.916 296.244c29.0899 252.07 272.097 344.167 559.084 410.756l-7 26c-331 -68 -592 -177 -592 -491c0 -168 133 -248 314 -248c159 0 274 67 274 211c0 146 -118 208 -276 208c-118.229 0 -208.334 -36.5604 -272.084 -116.756zM149.038 239.405
c62.1702 103.106 156.725 140.595 270.962 140.595c139 0 242 -50 242 -176c0 -122 -101 -174 -235 -174c-159.313 0 -275.543 65.6031 -277.962 209.405z" />
    <glyph glyph-name="slash" unicode="/" horiz-adv-x="752" 
d="M108 -62c191 300 382 599 573 899h-37c-191 -300 -382 -599 -573 -899h37z" />
    <glyph glyph-name="softhyphen" horiz-adv-x="711" 
d="M160 256h392v34h-392v-34z" />
    <glyph glyph-name="space" unicode=" " horiz-adv-x="240" 
 />
    <glyph glyph-name="sterling" unicode="&#xa3;" horiz-adv-x="747" 
d="M642 673c-62 34 -111 49 -181 49c-136.903 0 -219.979 -101.819 -219.979 -241.219c0 -28.2303 3.40707 -58.0018 10.4641 -88.7811h-119.485v-30h127.136c9.15228 -36.8509 13.5974 -72.4759 13.5974 -105.843c0 -130.291 -67.7764 -226.157 -187.733 -226.157v-29h542
v29h-425.852c71.007 41.3183 108.658 123.378 108.658 223.904c0 34.1879 -4.35474 70.5118 -13.2332 108.096h267.426v30h-275.041c-7.10738 29.8787 -10.5026 58.8048 -10.5026 86.1498c0 124.247 70.0936 215.85 180.544 215.85c64 0 109 -13 166 -45z" />
    <glyph glyph-name="summation" unicode="&#x2211;" horiz-adv-x="748" 
d="M557 385l-417.557 307h449.557v-90h32v120h-532v-30l418 -309l-420 -353v-30h534v122h-32v-92h-456.336z" />
    <glyph glyph-name="t" unicode="t" horiz-adv-x="600" 
d="M531 55c-47 -18 -81 -29 -131 -29c-86 0 -137 35 -137 122v354h296v31h-296v119l-36 -20v-99h-189v-31h189v-356c0 -103 66 -151 170 -151c56 0 94 14 145 33z" />
    <glyph glyph-name="tcaron" unicode="&#x165;" horiz-adv-x="587" 
d="M300 -330l150 185h-49l-139 -185h38zM531 55c-47 -18 -81 -29 -131 -29c-86 0 -137 35 -137 122v355h296v30h-296v119l-36 -20v-99h-189v-30h189v-357c0 -103 66 -151 170 -151c56 0 94 14 145 33z" />
    <glyph glyph-name="tcedilla" horiz-adv-x="600" 
d="M334 -99c20 10 37 12 60 12c40 0 70 -16 70 -53c0 -41 -40 -51 -88 -51c-35 0 -61 2 -95 17l-12 -23c37 -16 66 -22 106 -22c69 0 123 19 123 80c0 54 -43 81 -101 81c-12.8948 0 -24.2627 -1.0688 -35.1776 -3.02742c13.8512 18.0834 28.0199 36.3961 40.1776 52.0274
l-5.33355 4.00016c0.111141 0 0.222325 -0.00016472 0.333553 -0.00016472c56 0 94 14 145 33l-11 27c-48 -18 -81 -29 -131 -29c-86 0 -137 35 -137 122v355h296v30h-296v119l-36 -20v-99h-189v-30h189v-357c0 -91.3314 51.8931 -139.419 136.158 -149.142
c-17.3058 -23.8158 -37.7509 -50.529 -54.1581 -71.8583c0.35337 -0.339235 0.69675 -0.66888 1.03042 -0.989206c-0.0101393 -0.00359756 -0.0202794 -0.00719554 -0.0304204 -0.0107938l10.4991 -10.0616c0.7559 -0.738902 0.897626 -0.895984 0.897626 -0.929377
c0 -0.108189 0 -0.40571 11.6033 -12.009c0.139151 0.185534 0.278565 0.371376 0.418239 0.557521z" />
    <glyph glyph-name="tcommaaccent" unicode="&#x163;" horiz-adv-x="600" 
d="M300 -330l150 185h-49l-139 -185h38zM531 55c-47 -18 -81 -29 -131 -29c-86 0 -137 35 -137 122v323h296v30h-296v151l-36 -20v-131h-189v-30h189v-325c0 -103 66 -151 170 -151c56 0 94 14 145 33z" />
    <glyph glyph-name="thorn" unicode="&#xfe;" horiz-adv-x="839" 
d="M157 458.797l-2.84217e-14 341.203h-17h-19h-180v-31h180v-1038h-182v-30h182v-1h17h19h167v31l-167 -0.897849v356.242c81.8178 -61.1326 160.893 -91.3444 267 -91.3444c175 0 297 109 296 281c0 164 -124 262 -294 262c-105.419 0 -204.118 -32.8527 -269 -79.2028z
M157 120.856v303.709c58.1483 46.9483 159.515 83.4348 268 83.4348c152 0 260 -88 260 -233c0.0711662 -2.75769 0.106563 -5.49671 0.106563 -8.21683c0 -148.605 -105.648 -240.814 -256.336 -240.814c-1.58518 0 -3.17535 0.010204 -4.77043 0.0306538
c-106.132 0 -180.977 32.2341 -267 94.8561z" />
    <glyph glyph-name="three" unicode="3" horiz-adv-x="779" 
d="M143 619c46 42 127 73 212 73c127 0 227 -30 227 -145c0 -116 -122 -150 -246 -150v-26c142 0 290 -36 290 -175c0 -135 -134 -166 -270 -166c-83 0 -147 15 -225 50c-20 -23 0 0 -20 -24c81 -39 150 -61 244 -61c173 0 306 44 306 203
c0 110.534 -75.4786 166.224 -189.623 187.877c85.5451 22.1553 144.623 71.4082 144.623 163.123c0 133 -112 178 -258 178c-97 0 -186 -37 -238 -89z" />
    <glyph glyph-name="threequarters" unicode="&#xbe;" horiz-adv-x="1384" 
d="M90 365c50 -23 99 -34 152 -34c7.11334 -0.182393 14.1565 -0.27977 21.1109 -0.27977c107.432 0 193.707 23.238 190.889 115.28c0 68.5492 -43.9383 92.4736 -107.077 100.935c51.5351 13.454 86.0774 41.2216 86.0774 99.0648c0 85 -80 107 -176 107
c-60 0 -115 -18 -158 -53l18 -21c41 30 86 46 136 46c78 0 144 -13 144 -81c0 -84 -105 -79 -204 -85v-7v-18v-3c116 -5 225 4 225 -85c0 -72.7374 -67.8299 -87.2107 -153.211 -87.2107c-6.17736 0 -12.4466 0.0757611 -18.7887 0.210699c-48 0 -93 8 -139 28zM442 -87
l574 839h-38l-573 -839h37zM1142 -101h18h181v29h-181v92h129v29h-129v279v8h-35l-308 -287l15 -29h293v-92h-181v-29h181h17zM1125 295.134v-246.134h-262.117z" />
    <glyph glyph-name="threesuperior" unicode="&#xb3;" horiz-adv-x="667" 
d="M156 321c50 -23 98 -34 152 -34c7.04443 -0.182183 14.0225 -0.279546 20.9155 -0.279546c106.615 0 192.902 23.2916 190.084 116.28c0 67.7587 -43.6741 91.8433 -106.308 100.555c51.1532 13.2035 85.3083 40.6771 85.3083 98.4447c0 86 -79 107 -176 107
c-59 0 -114 -18 -158 -53l19 -20c41 29 86 45 135 45c79 0 145 -13 145 -81c0 -84 -105 -79 -204 -84v-7v-18v-4c116 -4 225 5 225 -85c0 -72.7374 -67.8299 -87.2107 -154.022 -87.2107c-6.23604 0 -12.5682 0.0757611 -18.9777 0.210699c-48 0 -93 8 -139 28z" />
    <glyph glyph-name="tilde" unicode="&#x2dc;" horiz-adv-x="747" 
d="M490 729c-18 -56 -43 -100 -98 -100c-49 0 -81 15 -119 47c-40 34 -73 55 -125 55c-75 0 -119 -47 -139 -121l28 -10c17 61 51 101 111 101c43 0 70 -18 103 -47c44 -36 82 -55 139 -55c72 0 106 52 130 122z" />
    <glyph glyph-name="trademark" unicode="&#x2122;" horiz-adv-x="1405" 
d="M723.985 302c19.6952 106.661 39.4369 213.322 59.7776 319.983c35.8923 -113.96 72.4851 -229.392 108.237 -343.983h10h22h11c34.3524 116.055 70.4288 232.973 105.028 349.152c21.9707 -107.615 42.2169 -216.954 63.6045 -325.152zM1138 302
c-24.1736 117.967 -49.2821 234.999 -73.5175 352h120.517v26h-159c-38.2893 -121.249 -113.132 -366.462 -113.132 -366.462c-38.2893 122.301 -76.5785 245.212 -114.868 366.462h-154v-27h115.713c-22.3001 -116.67 -46.3367 -233.372 -68.524 -351h-1.18857zM718 275h1z
M1108 275h1h-1zM355 654h33h169v-71h30v97h-199v1l-1.22222 -1h-245.778v-97h30v71h184zM388 680h-1.22222l-31.7778 -26v-352h-110v-27h110h141v27h-108v352zM388 302h-33z" />
    <glyph glyph-name="turkishlira" horiz-adv-x="1089" 
d="M969 350c0 -223 -149 -319 -388 -319h-256v309h379v32h-379v141h379v32h-379v146h179v31h-179h-16h-4h-17h-178v-31h178v-146h-130v-32h130v-141h-130v-32h130v-309h-178v-31h178h21h16h253c262 0 426 105 426 350h-35z" />
    <glyph glyph-name="two" unicode="2" horiz-adv-x="818" 
d="M147 558c67 90 143 135 254 135c127 0 221 -48 221 -169c0 -142 -101 -202 -224 -282c-102 -71 -204 -142 -306 -211v-31h10h582v31v120h-31v-120l-503.473 7.10543e-15c93.9528 62.1238 182.346 125.296 271.473 187c132 85 237 153 237 307c0 140 -106 202 -255 202
c-124 0 -217 -51 -283 -151z" />
    <glyph glyph-name="twosuperior" unicode="&#xb2;" horiz-adv-x="736" 
d="M209 608c41 51 91 73 162 73c78 0 141 -25 141 -93c0 -60 -50 -81 -102 -115c-88 -50 -176 -101 -263 -151v-29h428v123h-29v-94h-339.306c76.5817 42.6667 150.281 85.3333 223.306 128c61 40 116 69 116 140c0 86 -76 120 -173 120c-83 0 -145 -21 -190 -84z" />
    <glyph glyph-name="u" unicode="u" horiz-adv-x="903" 
d="M684 159.461c-55.7434 -76.7101 -147.546 -133.461 -244 -133.461c-127 0 -211 45 -211 164v343h-18h-18h-181v-31h181v-314c0 -139 97 -193 243 -193c96.8223 0 188.506 49.9233 248 120.833v-115.833h18h18h167v31h-167v502h-18h-18h-180v-31h180v-342.539z" />
    <glyph glyph-name="uacute" unicode="&#xfa;" horiz-adv-x="903" 
d="M372 656c74 55 148 111 222 166h-51c-75 -55 -149 -111 -222 -166h51zM684 159.461c-55.7434 -76.7101 -147.546 -133.461 -244 -133.461c-127 0 -211 45 -211 164v343h-18h-18h-181v-31h181v-314c0 -139 97 -193 243 -193c96.8223 0 188.506 49.9233 248 120.833
v-115.833h18h18h167v31h-167v502h-18h-18h-180v-31h180v-342.539z" />
    <glyph glyph-name="ucircumflex" unicode="&#xfb;" horiz-adv-x="903" 
d="M693 655c-74 55 -148 111 -222 166h-10h-42h-9c-75 -55 -149 -111 -222 -166h51c67 50.7027 134 100.586 201 150.391c67 -49.8054 134 -99.6883 201 -150.391h52zM684 159.461c-55.7434 -76.7101 -147.546 -133.461 -244 -133.461c-127 0 -211 45 -211 164v343h-18h-18
h-181v-31h181v-314c0 -139 97 -193 243 -193c96.8223 0 188.506 49.9233 248 120.833v-115.833h18h18h167v31h-167v502h-18h-18h-180v-31h180v-342.539z" />
    <glyph glyph-name="udieresis" unicode="&#xfc;" horiz-adv-x="903" 
d="M500 668h51c0 -15 -11 -23 -27 -23c-15 0 -24 9 -24 23zM500 668h51c0 15 -11 23 -27 23c-15 0 -24 -8 -24 -23zM331 668h51c0 -15 -11 -23 -27 -23c-15 0 -24 9 -24 23zM331 668h51c0 15 -11 23 -27 23c-15 0 -24 -8 -24 -23zM684 159.461
c-55.7434 -76.7101 -147.546 -133.461 -244 -133.461c-127 0 -211 45 -211 164v343h-18h-18h-181v-31h181v-314c0 -139 97 -193 243 -193c96.8223 0 188.506 49.9233 248 120.833v-115.833h18h18h167v31h-167v502h-18h-18h-180v-31h180v-342.539z" />
    <glyph glyph-name="ugrave" unicode="&#xf9;" horiz-adv-x="903" 
d="M540 655c-74 55 -148 111 -222 166h-52c74 -55 148 -111 222 -166h52zM684 159.461c-55.7434 -76.7101 -147.546 -133.461 -244 -133.461c-127 0 -211 45 -211 164v343h-18h-18h-181v-31h181v-314c0 -139 97 -193 243 -193c96.8223 0 188.506 49.9233 248 120.833
v-115.833h18h18h167v31h-167v502h-18h-18h-180v-31h180v-342.539z" />
    <glyph glyph-name="uhungarumlaut" unicode="&#x171;" horiz-adv-x="903" 
d="M501 591l150 186h-49l-139 -186h38zM330 591l149 186h-48l-139 -186h38zM684 159.461c-55.7434 -76.7101 -147.546 -133.461 -244 -133.461c-127 0 -211 45 -211 164v343h-18h-18h-181v-31h181v-314c0 -139 97 -193 243 -193c96.8223 0 188.506 49.9233 248 120.833
v-115.833h18h18h167v31h-167v502h-18h-18h-180v-31h180v-342.539z" />
    <glyph glyph-name="umacron" unicode="&#x16b;" horiz-adv-x="903" 
d="M584 684h-302v-30h302v30zM684 159.461c-55.7434 -76.7101 -147.546 -133.461 -244 -133.461c-127 0 -211 45 -211 164v343h-18h-18h-181v-31h181v-314c0 -139 97 -193 243 -193c96.8223 0 188.506 49.9233 248 120.833v-115.833h18h18h167v31h-167v502h-18h-18h-180v-31
h180v-342.539z" />
    <glyph glyph-name="underscore" unicode="_" horiz-adv-x="920" 
d="M1 -207h917v29h-917v-29z" />
    <glyph glyph-name="uogonek" unicode="&#x173;" horiz-adv-x="903" 
d="M690.063 0h11.9372h18h167v31h-167v502h-18h-18h-180v-31h180v-342.539c-55.7434 -76.7101 -147.546 -133.461 -244 -133.461c-127 0 -211 45 -211 164v343h-18h-18h-181v-31h181v-314c0 -139 97 -193 243 -193c96.8223 0 188.506 49.9233 248 120.833v-91.6029
c-67.1442 -22.3971 -126 -40.945 -126 -109.23c0 -65 50 -98 120 -98c41 0 68 11 105 28l-16 23c-30 -14 -53 -22 -86 -22c-51 0 -89 22 -89 69c0 53.8308 45.9961 66.7762 98.0628 85z" />
    <glyph glyph-name="uring" unicode="&#x16f;" horiz-adv-x="903" 
d="M319 771c0 62 51 92 119 92c72 0 127 -26 127 -92c0 -63 -53 -90 -124 -90c-69 0 -122 27 -122 90zM286 771c0 -80 67 -119 155 -119c90 0 158 37 158 119c0 84 -69 120 -161 120c-87 0 -152 -38 -152 -120zM684 159.461
c-55.7434 -76.7101 -147.546 -133.461 -244 -133.461c-127 0 -211 45 -211 164v343h-18h-18h-181v-31h181v-314c0 -139 97 -193 243 -193c96.8223 0 188.506 49.9233 248 120.833v-115.833h18h18h167v31h-167v502h-18h-18h-180v-31h180v-342.539z" />
    <glyph glyph-name="v" unicode="v" horiz-adv-x="952" 
d="M468.9 28.9245c-82.3786 157.928 -163.352 315.154 -245.718 473.076h176.818v31h-193h-5h-34h-165v-31h181.047c86.8668 -167.56 175.353 -334.337 262.953 -502h6h31h6c92.3091 167.663 183.731 334.44 275.937 502h181.063v31h-164h-35h-2h-196v-31h178.959z" />
    <glyph glyph-name="w" unicode="w" horiz-adv-x="1389" 
d="M968 0h2c79.1221 167.663 159.131 334.44 240.028 502h173.972v31h-159h-39h-1h-198v-31h184.366c-73.3547 -155.346 -146.709 -310.019 -220.064 -465.349c-75.5577 165.659 -151.864 330.571 -227.302 496.349h-6h-31h-8
c-84.0023 -166.138 -168.005 -331.405 -252.007 -497.426c-70.1358 155.692 -140.987 310.721 -211.882 466.426h184.889v31h-198h-1h-38h-160v-31h174.276c77.1352 -167.56 153.486 -334.337 230.724 -502h1h34h1c86.5048 167.368 172.126 333.852 257.693 501.114
c77.0988 -167.262 154.145 -333.746 230.307 -501.114h2h34z" />
    <glyph glyph-name="x" unicode="x" horiz-adv-x="966" 
d="M461.056 277.793c-87.764 -82.2072 -175.537 -164.405 -263.121 -246.793h-187.936v-31h155h44h4h195v31h-162.412c79.1419 75.2413 158.452 150.324 237.856 225.401c78.5573 -75.0763 157.022 -150.159 235.318 -225.401l-161.761 -2.84217e-14v-31h194h4h44h155v31
h-187.578c-86.673 82.4494 -173.358 164.709 -260.156 246.978c78.9343 74.617 157.953 149.242 236.982 224.022h189.752v31h-157h-42h-1h-197v-31h164.064c-71.9663 -67.697 -144.061 -135.266 -216.173 -202.817c-71.2835 67.5512 -142.648 135.12 -214.15 202.817
h163.258v31h-196h-3h-3h-37h-158v-31h190.403c78.2528 -74.8425 156.495 -149.528 234.653 -224.207z" />
    <glyph glyph-name="y" unicode="y" horiz-adv-x="960" 
d="M447.706 75.7585c-75.5323 -114.855 -151.048 -229.728 -226.405 -344.759h-182.302v-31h162h33h6c176.197 267.665 351.467 534.404 527.595 802h179.405v31h-159h-39h-1h-198v-31h177.698c-86.7302 -132.392 -173.67 -264.574 -260.605 -396.761
c-79.1816 132.254 -158.41 264.508 -238.344 396.761h179.25v31h-198h-40h-159v-31h178.188c87.3441 -141.547 171.674 -283.891 258.519 -426.241z" />
    <glyph glyph-name="yacute" unicode="&#xfd;" horiz-adv-x="960" 
d="M397 658c74 55 148 110 222 166h-51c-75 -55 -149 -111 -223 -166h52zM447.706 75.7585c-75.5323 -114.855 -151.048 -229.728 -226.405 -344.759h-182.302v-31h162h33h6c176.197 267.665 351.467 534.404 527.595 802h179.405v31h-159h-39h-1h-198v-31h177.698
c-86.7302 -132.392 -173.67 -264.574 -260.605 -396.761c-79.1816 132.254 -158.41 264.508 -238.344 396.761h179.25v31h-198h-40h-159v-31h178.188c87.3441 -141.547 171.674 -283.891 258.519 -426.241z" />
    <glyph glyph-name="ydieresis" unicode="&#xff;" horiz-adv-x="960" 
d="M525 670h51c0 -15 -11 -23 -27 -23c-15 0 -24 8 -24 23zM525 670h51c0 15 -11 23 -27 23c-15 0 -24 -9 -24 -23zM355 670h52c0 -15 -11 -23 -27 -23c-15 0 -25 8 -25 23zM355 670h52c0 15 -11 23 -27 23c-15 0 -25 -9 -25 -23zM447.706 75.7585
c-75.5323 -114.855 -151.048 -229.728 -226.405 -344.759h-182.302v-31h162h33h6c176.197 267.665 351.467 534.404 527.595 802h179.405v31h-159h-39h-1h-198v-31h177.698c-86.7302 -132.392 -173.67 -264.574 -260.605 -396.761
c-79.1816 132.254 -158.41 264.508 -238.344 396.761h179.25v31h-198h-40h-159v-31h178.188c87.3441 -141.547 171.674 -283.891 258.519 -426.241z" />
    <glyph glyph-name="yen" unicode="&#xa5;" horiz-adv-x="1141" 
d="M561.982 355.907c-5.99436 -6.96365 -11.9884 -13.9326 -17.9824 -20.9075v-81h-281v-33h281v-190h-181v-30h181v-1h18h17h181v31l-181 -0.914141v190.914h286v33h-286v81c2.33371 2.6671 4.66742 5.33376 7.00112 8h278.999v33h-250.097
c92.6736 105.756 185.274 210.9 277.235 316h185.863v30h-198h-199v-30h173.129c-98.3762 -112.469 -195.303 -223.59 -292.146 -336.093zM579 335c-5.67257 6.96916 -17.0176 20.9075 -17.0176 20.9075c-91.1854 112.031 -182.33 224.062 -272.779 336.093h170.796v30h-195
h-3h-36h-163v-30h187.651l259.659 -316h-247.31v-33h274.426l6.57364 -8z" />
    <glyph glyph-name="z" unicode="z" horiz-adv-x="749" 
d="M115 518v-16v-104h32v104h430.962c-150.939 -150.001 -0.18249 -0.117402 -478.962 -471v-31h557v15v16v104h-31v-104h-477.962c150.939 150.001 0.208135 0.117402 480.962 471v31h-513v-15z" />
    <glyph glyph-name="zacute" unicode="&#x17a;" horiz-adv-x="749" 
d="M303 657c74 55 148 111 222 166h-52c-75 -55 -148 -111 -222 -166h52zM115 518v-16v-104h32v104h430.962c-150.939 -150.001 -0.18249 -0.117402 -478.962 -471v-31h557v15v16v104h-31v-104h-477.962c150.939 150.001 0.208135 0.117402 480.962 471v31h-513v-15z" />
    <glyph glyph-name="zcaron" unicode="&#x17e;" horiz-adv-x="751" 
d="M119 821c74 -55 148 -111 223 -166h9h42h10c74 55 148 111 222 166h-52c-67 -50.7027 -134 -100.586 -201 -150.391c-67 49.8054 -134 99.6883 -201 150.391h-52zM117 518v-16v-104h31v104h431.962c-150.939 -150.001 -0.195312 -0.117402 -479.962 -471v-31h558v15v16
v104h-31v-104h-478.925c151.877 150.001 0.170641 0.117402 480.925 471v31h-512v-15z" />
    <glyph glyph-name="zdotaccent" unicode="&#x17c;" horiz-adv-x="749" 
d="M344 670h51c0 -15 -11 -23 -27 -23c-14 0 -24 8 -24 23zM344 670h51c0 15 -11 23 -26 23s-25 -9 -25 -23zM115 518v-16v-104h32v104h430.962c-150.939 -150.001 -0.18249 -0.117402 -478.962 -471v-31h557v15v16v104h-31v-104h-477.962
c150.939 150.001 0.208135 0.117402 480.962 471v31h-513v-15z" />
    <glyph glyph-name="zero" unicode="0" horiz-adv-x="1009" 
d="M125 360c0 -231 148 -365 382 -365c233 0 375 137 375 368c0 230 -143 364 -375 364c-235 0 -382 -135 -382 -367zM162 360c0 211 130 334 343 334c212 0 342 -124 342 -332c0 -209 -129 -333 -338 -333c-214 0 -347 121 -347 331z" />
    </font>
</defs>
</svg>
