<?xml version="1.0" standalone="no"?>
<!DOCTYPE svg PUBLIC "-//W3C//DTD SVG 1.1//EN" "http://www.w3.org/Graphics/SVG/1.1/DTD/svg11.dtd" >
<svg xmlns="http://www.w3.org/2000/svg" xmlns:xlink="http://www.w3.org/1999/xlink" version="1.1">
<metadata>
Created by FontForge 20141219 at Thu Feb 19 10:34:17 2015
 By Simon Egli
Copyright 2015 Simon Egli
</metadata>
<defs>
<font id="Sean" horiz-adv-x="715" >
  <font-face 
    font-family="Slab"
    font-weight="0"
    font-stretch="ultra-condensed"
    units-per-em="1000"
    panose-1="2 0 2 3 0 0 0 0 0 0"
    ascent="800"
    descent="-200"
    x-height="533"
    cap-height="722"
    bbox="-60 -311 2169 1073"
    underline-thickness="0"
    underline-position="0"
    unicode-range="U+0020-FB02"
  />
    <missing-glyph />
    <glyph glyph-name="A" unicode="A" horiz-adv-x="991" 
d="M484.464 700.485c62.1852 -141.351 124.36 -282.378 186.323 -423.485h-394c69.2256 141.107 138.451 282.134 207.677 423.485zM475 722h-2c-115.379 -233.666 -231.697 -466.391 -347.133 -700l-165.867 -5.68434e-14v-22h155h26h1h187v22h-177.227
c37.9104 77.4082 75.8207 154.719 113.731 232h415.381c33.9201 -77.2806 67.7732 -154.592 101.526 -232l-178.411 -5.68434e-14v-22h187h1h26h156v22h-165.769c-103.744 233.609 -207.487 466.334 -311.231 700h-2h-20z" />
    <glyph glyph-name="AE" unicode="&#xc6;" horiz-adv-x="1183" 
d="M600 0h497v11v11v109h-21v-109h-476v341h383v22h-383v315h436v-109h22v109v11v11h-456h-2h-10h-14h-1h-168v-22h155.105l-428.211 -678h-166.895v-22h153h28h1h185v22h-172.166l127.019 202h287.147v-202h-1h-168v-22h168h1h14h10zM576 680.652v-433.652
l-272.684 2.84217e-14z" />
    <glyph glyph-name="Aacute" unicode="&#xc1;" horiz-adv-x="991" 
d="M417 841c66 56 131 111 196 166h-34c-66 -55 -131 -111 -196 -166h34zM484.464 700.485c62.1852 -141.351 124.36 -282.378 186.323 -423.485h-394c69.2256 141.107 138.451 282.134 207.677 423.485zM475 722h-2c-115.379 -233.666 -231.697 -466.391 -347.133 -700
l-165.867 -5.68434e-14v-22h155h26h1h187v22h-177.227c37.9104 77.4082 75.8207 154.719 113.731 232h415.381c33.9201 -77.2806 67.7732 -154.592 101.526 -232l-178.411 -5.68434e-14v-22h187h1h26h156v22h-165.769c-103.744 233.609 -207.487 466.334 -311.231 700h-2
h-20z" />
    <glyph glyph-name="Abreve" unicode="&#x102;" horiz-adv-x="991" 
d="M624 964c0 -72 -59 -102 -139 -102c-77 0 -132 32 -132 103h-23c0 -85 62 -124 153 -124c96 0 163 36 163 123h-22zM484.464 700.485c62.1852 -141.351 124.36 -282.378 186.323 -423.485h-394c69.2256 141.107 138.451 282.134 207.677 423.485zM475 722h-2
c-115.379 -233.666 -231.697 -466.391 -347.133 -700l-165.867 -5.68434e-14v-22h155h26h1h187v22h-177.227c37.9104 77.4082 75.8207 154.719 113.731 232h415.381c33.9201 -77.2806 67.7732 -154.592 101.526 -232l-178.411 -5.68434e-14v-22h187h1h26h156v22h-165.769
c-103.744 233.609 -207.487 466.334 -311.231 700h-2h-20z" />
    <glyph glyph-name="Acircumflex" unicode="&#xc2;" horiz-adv-x="991" 
d="M702 840c-65 55 -130 111 -196 166h-8h-27h-7c-66 -55 -131 -111 -196 -166h34c61.4331 52.1251 122 103.384 182.507 154.583c60.6222 -51.1987 121.991 -102.457 182.493 -154.583h35zM484.464 700.485c62.1852 -141.351 124.36 -282.378 186.323 -423.485h-394
c69.2256 141.107 138.451 282.134 207.677 423.485zM475 722h-2c-115.379 -233.666 -231.697 -466.391 -347.133 -700l-165.867 -5.68434e-14v-22h155h26h1h187v22h-177.227c37.9104 77.4082 75.8207 154.719 113.731 232h415.381
c33.9201 -77.2806 67.7732 -154.592 101.526 -232l-178.411 -5.68434e-14v-22h187h1h26h156v22h-165.769c-103.744 233.609 -207.487 466.334 -311.231 700h-2h-20z" />
    <glyph glyph-name="Adieresis" unicode="&#xc4;" horiz-adv-x="991" 
d="M538 851h36c0 -10 -8 -17 -19 -17c-10 0 -17 7 -17 17zM538 851h36c0 11 -8 17 -19 17c-10 0 -17 -7 -17 -17zM396 851h35c0 -10 -7 -17 -18 -17s-17 7 -17 17zM396 851h35c0 11 -7 17 -18 17s-17 -7 -17 -17zM484.464 700.485
c62.1852 -141.351 124.36 -282.378 186.323 -423.485h-394c69.2256 141.107 138.451 282.134 207.677 423.485zM475 722h-2c-115.379 -233.666 -231.697 -466.391 -347.133 -700l-165.867 -5.68434e-14v-22h155h26h1h187v22h-177.227
c37.9104 77.4082 75.8207 154.719 113.731 232h415.381c33.9201 -77.2806 67.7732 -154.592 101.526 -232l-178.411 -5.68434e-14v-22h187h1h26h156v22h-165.769c-103.744 233.609 -207.487 466.334 -311.231 700h-2h-20z" />
    <glyph glyph-name="Agrave" unicode="&#xc0;" horiz-adv-x="991" 
d="M566 841c-65 55 -130 111 -196 166h-34c65 -56 130 -111 196 -166h34zM484.464 700.485c62.1852 -141.351 124.36 -282.378 186.323 -423.485h-394c69.2256 141.107 138.451 282.134 207.677 423.485zM475 722h-2c-115.379 -233.666 -231.697 -466.391 -347.133 -700
l-165.867 -5.68434e-14v-22h155h26h1h187v22h-177.227c37.9104 77.4082 75.8207 154.719 113.731 232h415.381c33.9201 -77.2806 67.7732 -154.592 101.526 -232l-178.411 -5.68434e-14v-22h187h1h26h156v22h-165.769c-103.744 233.609 -207.487 466.334 -311.231 700h-2
h-20z" />
    <glyph glyph-name="Amacron" unicode="&#x100;" horiz-adv-x="991" 
d="M611 862h-267v-21h267v21zM484.464 700.485c62.1852 -141.351 124.36 -282.378 186.323 -423.485h-394c69.2256 141.107 138.451 282.134 207.677 423.485zM475 722h-2c-115.379 -233.666 -231.697 -466.391 -347.133 -700l-165.867 -5.68434e-14v-22h155h26h1h187v22
h-177.227c37.9104 77.4082 75.8207 154.719 113.731 232h415.381c33.9201 -77.2806 67.7732 -154.592 101.526 -232l-178.411 -5.68434e-14v-22h187h1h26h156v22h-165.769c-103.744 233.609 -207.487 466.334 -311.231 700h-2h-20z" />
    <glyph glyph-name="Aogonek" unicode="&#x104;" horiz-adv-x="991" 
d="M484.464 700.485c62.1852 -141.351 124.36 -282.378 186.323 -423.485h-394c69.2256 141.107 138.451 282.134 207.677 423.485zM475 722h-2c-115.379 -233.666 -231.697 -466.391 -347.133 -700l-165.867 -5.68434e-14v-22h155h26h1h187v22h-177.227
c37.9104 77.4082 75.8207 154.719 113.731 232h415.381c33.9201 -77.2806 67.7732 -154.592 101.526 -232l-178.411 -5.68434e-14v-22l160.413 8.88178e-16c-48.8615 -20.4499 -86.413 -44.2043 -86.413 -98c0 -60 42 -95 104 -95c36 0 60 12 92 28c-10 14 -3 2 -12 16
c-27 -14 -48 -23 -78 -23c-50 0 -84 27 -84 74c0 59.1954 54.5081 73.6162 110.707 98h7.29255h156v22h-165.769c-103.744 233.609 -207.487 466.334 -311.231 700h-2h-20z" />
    <glyph glyph-name="Aring" unicode="&#xc5;" horiz-adv-x="991" 
d="M375 957c0 61 43 95 107 95c69 0 116 -31 116 -95c0 -63 -46 -95 -113 -95c-66 0 -110 32 -110 95zM353 957c0 -75 54 -117 132 -117c80 0 136 40 136 117s-57 116 -139 116c-77 0 -129 -41 -129 -116zM484.464 700.485
c62.1852 -141.351 124.36 -282.378 186.323 -423.485h-394c69.2256 141.107 138.451 282.134 207.677 423.485zM475 722h-2c-115.379 -233.666 -231.697 -466.391 -347.133 -700l-165.867 -5.68434e-14v-22h155h26h1h187v22h-177.227
c37.9104 77.4082 75.8207 154.719 113.731 232h415.381c33.9201 -77.2806 67.7732 -154.592 101.526 -232l-178.411 -5.68434e-14v-22h187h1h26h156v22h-165.769c-103.744 233.609 -207.487 466.334 -311.231 700h-2h-20z" />
    <glyph glyph-name="Atilde" unicode="&#xc3;" horiz-adv-x="991" 
d="M684 964c-16 -56 -36 -104 -89 -104c-44 0 -73 18 -106 49c-35 33 -62 55 -110 55c-69 0 -102 -49 -119 -119l19 -5c15 60 42 103 100 103c40 0 64 -19 93 -48c37 -34 70 -56 121 -56c67 0 91 54 111 120zM484.464 700.485
c62.1852 -141.351 124.36 -282.378 186.323 -423.485h-394c69.2256 141.107 138.451 282.134 207.677 423.485zM475 722h-2c-115.379 -233.666 -231.697 -466.391 -347.133 -700l-165.867 -5.68434e-14v-22h155h26h1h187v22h-177.227
c37.9104 77.4082 75.8207 154.719 113.731 232h415.381c33.9201 -77.2806 67.7732 -154.592 101.526 -232l-178.411 -5.68434e-14v-22h187h1h26h156v22h-165.769c-103.744 233.609 -207.487 466.334 -311.231 700h-2h-20z" />
    <glyph glyph-name="B" unicode="B" horiz-adv-x="846" 
d="M261 22v377h173h11c150 0 269 -53 269 -195c0 -125 -93 -182 -229 -182h-224zM261 0h224c151 0 253 65 253 204c0 121.609 -78.3872 184.136 -191.315 206.818c78.3623 18.8373 135.315 62.2034 135.315 144.182c0 111 -79 167 -195 167h-226h-9h-13h-3h-167v-22h167
v-678h-168v-22h168h3h12h10zM261 421v279h226c99 0 171 -47 171 -145c0 -101 -103 -134 -213 -134h-11h-173z" />
    <glyph glyph-name="C" unicode="C" horiz-adv-x="867" 
d="M764 655c-80 41 -168 72 -266 72c-240 0 -381 -142 -381 -383c0 -222 133 -349 356 -349c128 0 211 32 314 101c-16 17 -1 0 -16 17c-95 -66 -177 -93 -297 -93c-208 0 -333 119 -333 325c0 224 133 359 356 359c89.3459 0 171.308 -23.074 245 -61.2418v-107.758h22v120
z" />
    <glyph glyph-name="Cacute" unicode="&#x106;" horiz-adv-x="867" 
d="M431 841c66 56 131 111 196 166h-34c-66 -55 -131 -111 -196 -166h34zM764 655c-80 41 -168 72 -266 72c-240 0 -381 -142 -381 -383c0 -222 133 -349 356 -349c128 0 211 32 314 101c-16 17 -1 0 -16 17c-95 -66 -177 -93 -297 -93c-208 0 -333 119 -333 325
c0 224 133 359 356 359c89.3459 0 171.308 -23.074 245 -61.2418v-107.758h22v120z" />
    <glyph glyph-name="Ccaron" unicode="&#x10c;" horiz-adv-x="867" 
d="M282 1006c65 -55 130 -111 196 -166h7h27h8c66 55 131 111 196 166h-35c-60.5321 -52.1507 -121.064 -103.434 -182.404 -154.658c-60.5365 51.2239 -121.133 102.507 -182.596 154.658h-34zM764 655c-80 41 -168 72 -266 72c-240 0 -381 -142 -381 -383
c0 -222 133 -349 356 -349c128 0 211 32 314 101c-16 17 -1 0 -16 17c-95 -66 -177 -93 -297 -93c-208 0 -333 119 -333 325c0 224 133 359 356 359c89.3459 0 171.308 -23.074 245 -61.2418v-107.758h22v120z" />
    <glyph glyph-name="Ccedilla" unicode="&#xc7;" horiz-adv-x="867" 
d="M430 -85c18 10 34 13 55 13c39 0 65 -20 65 -57c0 -41 -35 -55 -80 -55c-32 0 -56 2 -84 17l-9 -17c31 -15 57 -21 92 -21c60 0 105 21 105 76c0 50 -35 78 -87 78c-14.4107 0 -26.8274 -1.70921 -39.2265 -4.97558c11.4587 17.0482 23.0388 34.2178 34.2613 51.0297
c122.915 1.48504 204.409 33.5828 304.965 100.946c-16 17 -1 0 -16 17c-95 -66 -177 -93 -297 -93c-208 0 -333 119 -333 325c0 224 133 359 356 359c89.3459 0 171.308 -23.074 245 -61.2418v-107.758h22v120c-80 41 -168 72 -266 72c-240 0 -381 -142 -381 -383
c0 -215.731 125.594 -341.752 337.324 -348.697c-13.8005 -21.101 -27.2571 -42.2021 -41.3244 -63.3031l16 -16c0.00812992 0.0121949 0.01626 0.02439 0.0243904 0.0365852z" />
    <glyph glyph-name="D" unicode="D" horiz-adv-x="974" 
d="M264 722h-10h-14h-168v-22h168v-678h-168v-22h168h14h10h222c241 0 377 118 377 352c0 245 -141 370 -392 370h-207zM264 700h205c237 0 371 -117 371 -349c0 -218 -126 -329 -351 -329h-225v678z" />
    <glyph glyph-name="Dcaron" unicode="&#x10e;" horiz-adv-x="974" 
d="M230 1005c65 -55 130 -111 196 -166h7h27h7c66 55 131 111 197 166h-35c-60.5046 -52.127 -121.876 -103.388 -182.5 -154.588c-60.6244 51.2006 -121.995 102.461 -182.5 154.588h-34zM264 722h-10h-14h-168v-22h168v-678h-168v-22h168h14h10h222c241 0 377 118 377 352
c0 245 -141 370 -392 370h-207zM264 700h205c237 0 371 -117 371 -349c0 -218 -126 -329 -351 -329h-225v678z" />
    <glyph glyph-name="Dcroat" unicode="&#x110;" horiz-adv-x="974" 
d="M264 722h-10h-14h-168v-22h168v-329h-82v-24h82v-325h-168v-22h168h14h10h222c241 0 377 118 377 352c0 245 -141 370 -392 370h-207zM264 700h205c237 0 371 -117 371 -349c0 -218 -126 -329 -351 -329h-225v325h240v24h-240v329z" />
    <glyph glyph-name="E" unicode="E" horiz-adv-x="846" 
d="M263 0h497v11v11v109h-21v-109h-476v341h383v22h-383v315h435v-109h22v109v11v11h-457h-11h-13h-1h-168v-22h168h1v-678h-1h-168v-22h168h1h13h11z" />
    <glyph glyph-name="Eacute" unicode="&#xc9;" horiz-adv-x="846" 
d="M393 841c65 55 130 110 196 166h-34c-66 -55 -131 -111 -197 -166h35zM263 0h497v11v11v109h-21v-109h-476v341h383v22h-383v315h435v-109h22v109v11v11h-457h-11h-13h-1h-168v-22h168h1v-678h-1h-168v-22h168h1h13h11z" />
    <glyph glyph-name="Ecaron" unicode="&#x11a;" horiz-adv-x="846" 
d="M243 1005c66 -55 131 -111 197 -166h7h27h7c66 55 131 111 196 166h-34c-61.4331 -51.1943 -122 -103.255 -182.507 -154.569c-60.6222 51.3142 -121.991 103.375 -182.493 154.569h-35zM263 0h497v11v11v109h-21v-109h-476v341h383v22h-383v315h435v-109h22v109v11v11
h-457h-11h-13h-1h-168v-22h168h1v-678h-1h-168v-22h168h1h13h11z" />
    <glyph glyph-name="Ecircumflex" unicode="&#xca;" horiz-adv-x="846" 
d="M677 840c-65 55 -130 111 -196 166h-7h-27h-7c-66 -55 -131 -111 -197 -166h35c60.5321 51.2195 121.064 102.439 182.404 154.466c60.5365 -52.0271 121.133 -103.247 182.596 -154.466h34zM263 0h497v11v11v109h-21v-109h-476v341h383v22h-383v315h435v-109h22v109v11
v11h-457h-11h-13h-1h-168v-22h168h1v-678h-1h-168v-22h168h1h13h11z" />
    <glyph glyph-name="Edieresis" unicode="&#xcb;" horiz-adv-x="846" 
d="M514 851h35c0 10 -7 17 -18 17s-17 -7 -17 -17zM514 851h35c0 -11 -7 -17 -18 -17s-17 6 -17 17zM371 851h36c0 10 -8 17 -19 17c-10 0 -17 -7 -17 -17zM371 851h36c0 -11 -8 -17 -19 -17c-10 0 -17 6 -17 17zM263 0h497v11v11v109h-21v-109h-476v341h383v22h-383v315
h435v-109h22v109v11v11h-457h-11h-13h-1h-168v-22h168h1v-678h-1h-168v-22h168h1h13h11z" />
    <glyph glyph-name="Edotaccent" unicode="&#x116;" horiz-adv-x="846" 
d="M441 851h36c0 -10 -8 -17 -19 -17s-17 7 -17 17zM441 851h36c0 11 -8 17 -19 17s-17 -6 -17 -17zM263 0h497v11v11v109h-21v-109h-476v341h383v22h-383v315h435v-109h22v109v11v11h-457h-11h-13h-1h-168v-22h168h1v-678h-1h-168v-22h168h1h13h11z" />
    <glyph glyph-name="Egrave" unicode="&#xc8;" horiz-adv-x="846" 
d="M542 840c-65 55 -130 111 -196 166h-35c65 -55 131 -111 196 -166h35zM263 0h497v11v11v109h-21v-109h-476v341h383v22h-383v315h435v-109h22v109v11v11h-457h-11h-13h-1h-168v-22h168h1v-678h-1h-168v-22h168h1h13h11z" />
    <glyph glyph-name="Emacron" unicode="&#x112;" horiz-adv-x="846" 
d="M587 862h-267v-21h267v21zM263 0h497v11v11v109h-21v-109h-476v341h383v22h-383v315h435v-109h22v109v11v11h-457h-11h-13h-1h-168v-22h168h1v-678h-1h-168v-22h168h1h13h11z" />
    <glyph glyph-name="Eogonek" unicode="&#x118;" horiz-adv-x="841" 
d="M691.801 -1.77636e-15c-43.5825 -19.1871 -75.8014 -43.4375 -75.8014 -94c0 -59 42 -94 104 -94c36 0 60 11 92 28c-10 14 -3 2 -12 16c-27 -15 -48 -23 -78 -23c-50 0 -84 26 -84 73c0 56.1381 47.429 71.6228 99.4176 94l22.5824 -7.10543e-15v11v11v109h-21v-109
h-476v341h383v22h-383v315h435v-109h22v109v11v11h-457h-11h-13h-1h-168v-22h168h1v-678h-1h-168v-22h168h1h13h11z" />
    <glyph glyph-name="Eth" unicode="&#xd0;" horiz-adv-x="974" 
d="M264 722h-10h-14h-168v-22h168v-329h-82v-24h82v-325h-168v-22h168h14h10h222c241 0 377 118 377 352c0 245 -141 370 -392 370h-207zM264 700h205c237 0 371 -117 371 -349c0 -218 -126 -329 -351 -329h-225v325h240v24h-240v329z" />
    <glyph glyph-name="Euro" unicode="&#x20ac;" horiz-adv-x="992" 
d="M856 655c-81 41 -168 72 -267 72c-203.764 0 -336.294 -103.216 -370.943 -283h-123.057v-23h119.219c-3.45916 -24.3913 -5.21871 -50.0779 -5.21871 -77c0 -23.7688 1.51315 -46.4485 4.49035 -68h-118.49v-23h122.305c32.1696 -165.354 156.376 -258 347.695 -258
c127 0 210 32 313 101l-15 17c-96 -66 -178 -93 -297 -93c-175.586 0 -291.179 83.9917 -323.651 233h337.651v23h-341.921c-3.3648 21.7627 -5.07889 44.78 -5.07889 69c0 26.6156 1.8777 51.9746 5.5593 76h341.441v23h-337.282c34.3661 164.162 158.233 260 345.282 260
c90.3067 0 172.307 -23.0741 246 -61.2419v-107.758h22v120z" />
    <glyph glyph-name="F" unicode="F" horiz-adv-x="816" 
d="M264 700h440v-109h22v109v11v11h-462h-12h-12h-1h-169v-22h169h1v-678h-170v-22h170h12h12h171v22h-171v341h375v22h-375v315z" />
    <glyph glyph-name="G" unicode="G" horiz-adv-x="971" 
d="M827 89.7158c-103.995 -48.9267 -191.461 -69.7158 -312 -69.7158c-233 0 -378 120 -378 347c0 218 141 337 365 337c114.554 0 205.546 -23.561 305 -75.2576v-106.742h21v120c-107 59 -204 85 -327 85c-240 0 -388 -126 -388 -362c0 -242 154 -370 401 -370
c132 0 217 25 335 82v242h-9h-13h-248v-22h248v-207.284z" />
    <glyph glyph-name="Gbreve" unicode="&#x11e;" horiz-adv-x="971" 
d="M642 964c0 -73 -59 -102 -138 -102c-77 0 -133 32 -133 103h-22c0 -85 62 -124 153 -124c95 0 163 36 163 123h-23zM827 89.7158c-103.995 -48.9267 -191.461 -69.7158 -312 -69.7158c-233 0 -378 120 -378 347c0 218 141 337 365 337
c114.554 0 205.546 -23.561 305 -75.2576v-106.742h21v120c-107 59 -204 85 -327 85c-240 0 -388 -126 -388 -362c0 -242 154 -370 401 -370c132 0 217 25 335 82v242h-9h-13h-248v-22h248v-207.284z" />
    <glyph glyph-name="Gcommaaccent" unicode="&#x122;" horiz-adv-x="971" 
d="M433 -300l129 177h-32l-122 -177h25zM827 89.7158c-103.995 -48.9267 -191.461 -69.7158 -312 -69.7158c-233 0 -378 120 -378 347c0 218 141 337 365 337c114.554 0 205.546 -23.561 305 -75.2576v-106.742h21v120c-107 59 -204 85 -327 85c-240 0 -388 -126 -388 -362
c0 -242 154 -370 401 -370c132 0 217 25 335 82v242h-9h-13h-248v-22h248v-207.284z" />
    <glyph glyph-name="H" unicode="H" horiz-adv-x="1104" 
d="M840 352v-330h-169v-22h182h182v22h-171v678h171v22h-182h-182v-22h169v-326h-576v326h171v22h-171h-12h-12h-170v-22h170v-678h-170v-22h170h12h12h171v22h-171v330h576z" />
    <glyph glyph-name="I" unicode="I" horiz-adv-x="503" 
d="M239 0h13h11h172v22h-172v678h172v22h-172h-11h-13h-169v-22h169v-678h-169v-22h169z" />
    <glyph glyph-name="Iacute" unicode="&#xcd;" horiz-adv-x="503" 
d="M185 841c65 56 131 111 196 166h-34c-66 -55 -131 -111 -196 -166h34zM239 0h13h11h172v22h-172v678h172v22h-172h-11h-13h-169v-22h169v-678h-169v-22h169z" />
    <glyph glyph-name="Icircumflex" unicode="&#xce;" horiz-adv-x="565" 
d="M504 840c-66 55 -131 111 -197 166h-7h-27h-7c-66 -55 -131 -111 -196 -166h34c60.5046 52.127 121.876 103.388 182.5 154.588c60.6244 -51.2006 121.995 -102.461 182.5 -154.588h35zM273 0h13h11h172v22h-172v678h172v22h-172h-11h-13h-169v-22h169v-678h-169v-22h169
z" />
    <glyph glyph-name="Idieresis" unicode="&#xcf;" horiz-adv-x="503" 
d="M306 851h36c0 -10 -8 -17 -19 -17s-17 7 -17 17zM306 851h36c0 11 -8 17 -19 17s-17 -7 -17 -17zM163 851h36c0 -10 -7 -17 -19 -17c-10 0 -17 7 -17 17zM163 851h36c0 11 -7 17 -19 17c-10 0 -17 -7 -17 -17zM239 0h13h11h172v22h-172v678h172v22h-172h-11h-13h-169v-22
h169v-678h-169v-22h169z" />
    <glyph glyph-name="Idotaccent" unicode="&#x130;" horiz-adv-x="503" 
d="M233 852h36c0 10 -8 17 -19 17c-10 0 -17 -7 -17 -17zM233 852h36c0 -11 -8 -17 -19 -17c-10 0 -17 6 -17 17zM239 0h13h11h172v22h-172v678h172v22h-172h-11h-13h-169v-22h169v-678h-169v-22h169z" />
    <glyph glyph-name="Igrave" unicode="&#xcc;" horiz-adv-x="503" 
d="M334 841c-65 55 -130 111 -196 166h-35c66 -56 131 -111 196 -166h35zM239 0h13h11h172v22h-172v678h172v22h-172h-11h-13h-169v-22h169v-678h-169v-22h169z" />
    <glyph glyph-name="Imacron" unicode="&#x12a;" horiz-adv-x="503" 
d="M379 862h-267v-21h267v21zM239 0h13h11h172v22h-172v678h172v22h-172h-11h-13h-169v-22h169v-678h-169v-22h169z" />
    <glyph glyph-name="Iogonek" unicode="&#x12e;" horiz-adv-x="503" 
d="M201.884 0c-43.1164 -19.4552 -74.8839 -43.5206 -74.8839 -93c0 -60 42 -95 104 -95c36 0 61 12 92 28c-9 14 -2 2 -12 16c-27 -14 -47 -23 -78 -23c-50 0 -83 27 -83 74c0 55.0457 46.2921 71.3743 98.7231 93l3.27691 -1.42109e-14h11h172v22h-172v678h172v22h-172
h-11h-13h-169v-22h169v-678h-169v-22h131.884z" />
    <glyph glyph-name="J" unicode="J" horiz-adv-x="626" 
d="M54 42c35 -21 82 -43 141 -43c139 0 216 78 216 219v482h172v22h-172h-11h-13h-169v-22h169v-482c0 -124 -68 -197 -192 -197c-52 0 -87 17 -129 38c-10 -14 -2 -3 -12 -17z" />
    <glyph glyph-name="K" unicode="K" horiz-adv-x="953" 
d="M265 370.179c154.102 -116.343 310.616 -231.89 465.693 -348.179h-154.693v-22h181l0.191823 2.11006c0.269397 -0.202403 0.538789 -0.404808 0.808177 -0.607215v-1.50284h2h42h136v22h-165.841c-161.163 118.88 -323.161 239.327 -485.159 358
c151.579 106.667 303.158 213.333 455.556 320h168.444v22h-137h-42h-1h-182v-22h152.123l-436.123 -310.737v310.737h165v22h-165h-13h-12h-170v-22h170v-678h-170v-22h170h12h13h165v22h-165v348.179z" />
    <glyph glyph-name="Kcommaaccent" unicode="&#x136;" horiz-adv-x="953" 
d="M453 -300l129 177h-32l-123 -177h26zM265 370.179c154.102 -116.343 310.616 -231.89 465.693 -348.179h-154.693v-22h181l0.191823 2.11006c0.269397 -0.202403 0.538789 -0.404808 0.808177 -0.607215v-1.50284h2h42h136v22h-165.841
c-161.163 118.88 -323.161 239.327 -485.159 358c151.579 106.667 303.158 213.333 455.556 320h168.444v22h-137h-42h-1h-182v-22h152.123l-436.123 -310.737v310.737h165v22h-165h-13h-12h-170v-22h170v-678h-170v-22h170h12h13h165v22h-165v348.179z" />
    <glyph glyph-name="L" unicode="L" horiz-adv-x="822" 
d="M264 0h488v11v11v109h-22v-109h-466v678h169v22h-169h-13h-11h-172v-22h172v-678h-172v-22h172h11h13z" />
    <glyph glyph-name="Lacute" unicode="&#x139;" horiz-adv-x="822" 
d="M185 840c65 56 131 111 196 166h-34c-66 -55 -131 -111 -196 -166h34zM264 0h488v11v11v109h-22v-109h-466v678h169v22h-169h-13h-11h-172v-22h172v-678h-172v-22h172h11h13z" />
    <glyph glyph-name="Lcaron" unicode="&#x13d;" horiz-adv-x="785" 
d="M573 545l130 177h-33l-122 -177h25zM264 0h488v11v11v109h-22v-109h-466v678h169v22h-169h-13h-11h-172v-22h172v-678h-172v-22h172h11h13z" />
    <glyph glyph-name="Lcommaaccent" unicode="&#x13b;" horiz-adv-x="822" 
d="M379 -300l129 177h-33l-122 -177h26zM264 0h488v11v11v109h-22v-109h-466v678h169v22h-169h-13h-11h-172v-22h172v-678h-172v-22h172h11h13z" />
    <glyph glyph-name="Lslash" unicode="&#x141;" horiz-adv-x="822" 
d="M264 0h488v11v11v109h-22v-109h-466v286.444c73.1699 61.4173 146.085 122.688 219 183.556v26c-72.915 -61.5022 -145.83 -122.602 -219 -183.81v365.81h169v22h-169h-13h-11h-172v-22h172v-385.884c-34.2627 -28.6523 -68.5874 -57.3404 -103 -86.1165v-26
c34.4126 28.7761 68.7373 57.5522 103 86.3021v-266.302h-172v-22h172h11h13z" />
    <glyph glyph-name="M" unicode="M" horiz-adv-x="1272" 
d="M628 0h17h9c103.808 229.52 207.615 458.133 311.423 687.566c22.0427 -222.102 43.3165 -443.435 65.3884 -665.566l-166.812 -5.68434e-14v-22h169h13h11h171v22h-173.28c-23.4221 226.276 -45.989 451.724 -68.5291 678h169.809v22h-172h-3h-7h-12h-4
c-109.115 -234.792 -214.433 -468.634 -321.503 -703.377c-107.217 234.743 -215.408 468.585 -325.497 703.377h-4h-9h-11h-2h-169v-22h166.897c-21.6555 -226.276 -44.1393 -451.724 -65.7949 -678l-171.103 -5.68434e-14v-22h169h13h11h171v22h-168.903
c21.1011 221.617 41.4076 442.44 62.476 664.024c105.476 -228.916 210.951 -457.018 316.427 -686.024h8z" />
    <glyph glyph-name="N" unicode="N" horiz-adv-x="1118" 
d="M882 0h24v700h172v22h-172h-11h-13h-169v-22h169v-672.721c-204 231.836 -408 462.815 -612 694.721h-5h-11h-14h-2h-166v-22h168v-678h-169l-1 -22h170h13h12h170v22h-170v669.312c203 -230.691 406 -460.543 609 -691.312h8z" />
    <glyph glyph-name="Nacute" unicode="&#x143;" horiz-adv-x="1118" 
d="M502 841c65 56 131 111 196 166h-34c-66 -55 -131 -111 -196 -166h34zM882 0h24v700h172v22h-172h-11h-13h-169v-22h169v-672.721c-204 231.836 -408 462.815 -612 694.721h-5h-11h-14h-2h-166v-22h168v-678h-169l-1 -22h170h13h12h170v22h-170v669.312
c203 -230.691 406 -460.543 609 -691.312h8z" />
    <glyph glyph-name="Ncaron" unicode="&#x147;" horiz-adv-x="1118" 
d="M353 1006c65 -55 130 -111 196 -166h7h27h7c66 55 131 111 197 166h-35c-60.5046 -52.127 -121.876 -103.388 -182.5 -154.588c-60.6244 51.2006 -121.995 102.461 -182.5 154.588h-34zM882 0h24v700h172v22h-172h-11h-13h-169v-22h169v-672.721
c-204 231.836 -408 462.815 -612 694.721h-5h-11h-14h-2h-166v-22h168v-678h-169l-1 -22h170h13h12h170v22h-170v669.312c203 -230.691 406 -460.543 609 -691.312h8z" />
    <glyph glyph-name="Ncommaaccent" unicode="&#x145;" horiz-adv-x="1118" 
d="M498 -300l129 177h-33l-122 -177h26zM882 0h24v700h172v22h-172h-11h-13h-169v-22h169v-672.721c-204 231.836 -408 462.815 -612 694.721h-5h-11h-14h-2h-166v-22h168v-678h-169l-1 -22h170h13h12h170v22h-170v669.312c203 -230.691 406 -460.543 609 -691.312h8z" />
    <glyph glyph-name="Ntilde" unicode="&#xd1;" horiz-adv-x="1118" 
d="M769 964c-16 -56 -36 -104 -89 -104c-45 0 -74 18 -106 49c-35 33 -62 55 -110 55c-69 0 -103 -49 -119 -119l19 -5c15 60 42 103 100 103c40 0 64 -19 93 -48c37 -34 70 -56 121 -56c67 0 91 54 111 120zM882 0h24v700h172v22h-172h-11h-13h-169v-22h169v-672.721
c-204 231.836 -408 462.815 -612 694.721h-5h-11h-14h-2h-166v-22h168v-678h-169l-1 -22h170h13h12h170v22h-170v669.312c203 -230.691 406 -460.543 609 -691.312h8z" />
    <glyph glyph-name="O" unicode="O" horiz-adv-x="945" 
d="M117 360c0 -223 134 -365 356 -365s355 144 355 368c0 222 -134 364 -355 364c-223 0 -356 -144 -356 -367zM142 360c0 207 122 345 329 345c208 0 333 -135 333 -342s-123 -345 -330 -345c-208 0 -332 134 -332 342z" />
    <glyph glyph-name="OE" unicode="&#x152;" horiz-adv-x="1250" 
d="M667 0h498v11v11v109h-22v-109h-476v341h383v22h-383v315h436v-109h22v109v11v11h-458h-10h-14h-1h-94.6677c-15.9428 0.837113 -32.7824 1 -51.3323 1c-238 0 -380 -141 -380 -379c0 -218 134 -346 355 -346c23.5361 0 44.6444 0.505796 64.6439 2l106.356 -2.22045e-16
h1h14h10zM643 678.611v-633.43c-59.5578 -21.2345 -105.813 -22.1811 -171 -22.1811c-200 0 -332 118 -332 322c0 223 136 354 355 354c4.44444 0 8.79561 0.00548697 13.0645 0.00548697c50.4344 0 89.3806 -0.765883 134.936 -20.3947z" />
    <glyph glyph-name="Oacute" unicode="&#xd3;" horiz-adv-x="945" 
d="M406 841c65 56 131 111 196 166h-34c-66 -55 -131 -111 -197 -166h35zM117 360c0 -223 134 -365 356 -365s355 144 355 368c0 222 -134 364 -355 364c-223 0 -356 -144 -356 -367zM142 360c0 207 122 345 329 345c208 0 333 -135 333 -342s-123 -345 -330 -345
c-208 0 -332 134 -332 342z" />
    <glyph glyph-name="Ocircumflex" unicode="&#xd4;" horiz-adv-x="945" 
d="M690 840c-65 55 -130 111 -196 166h-7h-27h-7c-66 -55 -131 -111 -197 -166h35c60.5023 52.1251 121.871 103.384 182.493 154.583c60.5068 -51.1987 121.074 -102.457 182.507 -154.583h34zM117 360c0 -223 134 -365 356 -365s355 144 355 368c0 222 -134 364 -355 364
c-223 0 -356 -144 -356 -367zM142 360c0 207 122 345 329 345c208 0 333 -135 333 -342s-123 -345 -330 -345c-208 0 -332 134 -332 342z" />
    <glyph glyph-name="Odieresis" unicode="&#xd6;" horiz-adv-x="945" 
d="M527 851h35c0 -10 -7 -17 -18 -17s-17 7 -17 17zM527 851h35c0 11 -7 17 -18 17s-17 -7 -17 -17zM384 851h36c0 -10 -8 -17 -19 -17c-10 0 -17 7 -17 17zM384 851h36c0 11 -8 17 -19 17c-10 0 -17 -7 -17 -17zM117 360c0 -223 134 -365 356 -365s355 144 355 368
c0 222 -134 364 -355 364c-223 0 -356 -144 -356 -367zM142 360c0 207 122 345 329 345c208 0 333 -135 333 -342s-123 -345 -330 -345c-208 0 -332 134 -332 342z" />
    <glyph glyph-name="Ograve" unicode="&#xd2;" horiz-adv-x="945" 
d="M555 841c-65 55 -130 111 -196 166h-35c66 -56 131 -111 196 -166h35zM117 360c0 -223 134 -365 356 -365s355 144 355 368c0 222 -134 364 -355 364c-223 0 -356 -144 -356 -367zM142 360c0 207 122 345 329 345c208 0 333 -135 333 -342s-123 -345 -330 -345
c-208 0 -332 134 -332 342z" />
    <glyph glyph-name="Ohungarumlaut" unicode="&#x150;" horiz-adv-x="945" 
d="M521 791l129 177h-32l-123 -177h26zM374 791l129 177h-32l-123 -177h26zM117 360c0 -223 134 -365 356 -365s355 144 355 368c0 222 -134 364 -355 364c-223 0 -356 -144 -356 -367zM142 360c0 207 122 345 329 345c208 0 333 -135 333 -342s-123 -345 -330 -345
c-208 0 -332 134 -332 342z" />
    <glyph glyph-name="Omacron" unicode="&#x14c;" horiz-adv-x="945" 
d="M600 862h-267v-21h267v21zM117 360c0 -223 134 -365 356 -365s355 144 355 368c0 222 -134 364 -355 364c-223 0 -356 -144 -356 -367zM142 360c0 207 122 345 329 345c208 0 333 -135 333 -342s-123 -345 -330 -345c-208 0 -332 134 -332 342z" />
    <glyph glyph-name="Oslash" unicode="&#xd8;" horiz-adv-x="945" 
d="M117 360c0 -146.886 58.1376 -258.629 161.267 -317.797l-63.2669 -106.203l20 -12l63.8834 107.365c49.3746 -23.7018 107.822 -36.3649 174.117 -36.3649c222 0 355 144 355 368c0 139.944 -53.2486 248.098 -147.972 308.931l55.9723 94.0692l-20 11l-55.66 -93.4332
c-52.0355 28.2316 -115.031 43.4332 -187.34 43.4332c-223 0 -356 -144 -356 -367zM142 360c0 207 122 345 329 345c68.6009 0 128.173 -14.6847 177.211 -41.7941l-357.462 -600.051c-95.4034 55.8267 -148.748 160.419 -148.748 296.845zM667.787 651.358
c87.3916 -57.746 136.213 -158.991 136.213 -288.358c0 -207 -123 -345 -330 -345c-62.0738 0 -116.666 11.9342 -162.715 34.208z" />
    <glyph glyph-name="Otilde" unicode="&#xd5;" horiz-adv-x="945" 
d="M673 964c-17 -56 -37 -104 -89 -104c-45 0 -74 18 -106 49c-35 33 -63 55 -110 55c-69 0 -103 -49 -119 -119l19 -5c15 60 42 103 100 103c40 0 64 -19 93 -48c37 -34 70 -56 121 -56c66 0 91 54 111 120zM117 360c0 -223 134 -365 356 -365s355 144 355 368
c0 222 -134 364 -355 364c-223 0 -356 -144 -356 -367zM142 360c0 207 122 345 329 345c208 0 333 -135 333 -342s-123 -345 -330 -345c-208 0 -332 134 -332 342z" />
    <glyph glyph-name="P" unicode="P" horiz-adv-x="796" 
d="M265 343.833v356.167h141c152 0 265 -66 265 -207c0 -126 -98 -191 -231 -191c-67.1348 0 -115.336 16.0934 -175 41.8325zM258 722h-4h-14h-168v-22h168v-678h-168v-22h168h14h11h171v22h-171v298.347c56.189 -23.9617 109.851 -40.3474 173 -40.3474
c149 3 258 73 258 214c0 152 -123 228 -287 228h-144h-7z" />
    <glyph glyph-name="Q" unicode="Q" horiz-adv-x="957" 
d="M117 360c0 -223 137 -365 359 -365c1.34376 0 2.68431 0.00536081 4.02163 0.0160676c123.485 -181.765 262.44 -235.016 474.978 -235.016v23c-197.658 0 -329.311 47.4124 -446.947 213.05c201.837 13.4425 322.947 154.996 322.947 367.95c0 222 -135 363 -356 363
c-222 0 -358 -144 -358 -367zM142 360c0 208 124 343 332 343c207 0 332 -133 332 -340c0 -208 -122 -344 -329 -344c-209 0 -335 133 -335 341z" />
    <glyph glyph-name="R" unicode="R" horiz-adv-x="994" 
d="M254 722h-3h-11h-172v-22h172v-678h-172v-22h172h11h13h169v22h-169v318h192c12.3637 0 24.414 0.372211 36.1207 1.13035c98.223 -113.71 195.551 -227.42 292.879 -341.13h1h30h152v22h-171.006c-92.5984 107.246 -184.473 214.492 -277.127 321.739
c117.598 14.7083 194.132 73.7355 194.132 193.261c0 135 -104 185 -251 185h-199h-10zM264 700h195c135 0 231 -43 231 -165c0 -124 -96 -173 -231 -173h-195v338z" />
    <glyph glyph-name="Racute" unicode="&#x154;" horiz-adv-x="994" 
d="M365 841c65 55 130 110 196 166h-34c-66 -55 -131 -111 -197 -166h35zM254 722h-3h-11h-172v-22h172v-678h-172v-22h172h11h13h169v22h-169v318h192c12.3637 0 24.414 0.372211 36.1207 1.13035c98.223 -113.71 195.551 -227.42 292.879 -341.13h1h30h152v22h-171.006
c-92.5984 107.246 -184.473 214.492 -277.127 321.739c117.598 14.7083 194.132 73.7355 194.132 193.261c0 135 -104 185 -251 185h-199h-10zM264 700h195c135 0 231 -43 231 -165c0 -124 -96 -173 -231 -173h-195v338z" />
    <glyph glyph-name="Rcaron" unicode="&#x158;" horiz-adv-x="994" 
d="M215 1005c66 -55 131 -111 197 -166h7h27h7c66 55 131 111 196 166h-34c-61.4331 -51.1943 -122 -103.255 -182.507 -154.569c-60.6222 51.3142 -121.991 103.375 -182.493 154.569h-35zM254 722h-3h-11h-172v-22h172v-678h-172v-22h172h11h13h169v22h-169v318h192
c12.3637 0 24.414 0.372211 36.1207 1.13035c98.223 -113.71 195.551 -227.42 292.879 -341.13h1h30h152v22h-171.006c-92.5984 107.246 -184.473 214.492 -277.127 321.739c117.598 14.7083 194.132 73.7355 194.132 193.261c0 135 -104 185 -251 185h-199h-10zM264 700
h195c135 0 231 -43 231 -165c0 -124 -96 -173 -231 -173h-195v338z" />
    <glyph glyph-name="Rcommaaccent" unicode="&#x156;" horiz-adv-x="994" 
d="M427 -300l130 177h-33l-122 -177h25zM254 722h-3h-11h-172v-22h172v-678h-172v-22h172h11h13h169v22h-169v318h192c12.3637 0 24.414 0.372211 36.1207 1.13035c98.223 -113.71 195.551 -227.42 292.879 -341.13h1h30h152v22h-171.006
c-92.5984 107.246 -184.473 214.492 -277.127 321.739c117.598 14.7083 194.132 73.7355 194.132 193.261c0 135 -104 185 -251 185h-199h-10zM264 700h195c135 0 231 -43 231 -165c0 -124 -96 -173 -231 -173h-195v338z" />
    <glyph glyph-name="S" unicode="S" horiz-adv-x="747" 
d="M123 58c78 -41 157 -63 245 -63c147 0 253 43 253 174c0 127 -111 162 -233 213c-107 44 -211 72 -211 181c0 98 86 143 195 143c80.0895 0 141.089 -22.7265 209 -55.1784v-107.822h22v120c-78 40 -141 64 -230 64c-124 0 -220 -53 -220 -165c0 -120 106 -152 221 -199
c114 -47 223 -80 223 -194s-97 -150 -228 -150c-80.6385 0 -152.061 20.2744 -224 54.6305v104.37h-22v-120z" />
    <glyph glyph-name="Sacute" unicode="&#x15a;" horiz-adv-x="747" 
d="M310 841c65 55 130 110 196 166h-34c-66 -55 -131 -111 -197 -166h35zM123 58c78 -41 157 -63 245 -63c147 0 253 43 253 174c0 127 -111 162 -233 213c-107 44 -211 72 -211 181c0 98 86 143 195 143c80.0895 0 141.089 -22.7265 209 -55.1784v-107.822h22v120
c-78 40 -141 64 -230 64c-124 0 -220 -53 -220 -165c0 -120 106 -152 221 -199c114 -47 223 -80 223 -194s-97 -150 -228 -150c-80.6385 0 -152.061 20.2744 -224 54.6305v104.37h-22v-120z" />
    <glyph glyph-name="Scaron" unicode="&#x160;" horiz-adv-x="747" 
d="M160 1005c66 -55 131 -111 197 -166h7h27h7c66 55 131 111 196 166h-34c-61.4331 -51.1943 -122 -103.255 -182.507 -154.569c-60.6222 51.3142 -121.991 103.375 -182.493 154.569h-35zM123 58c78 -41 157 -63 245 -63c147 0 253 43 253 174c0 127 -111 162 -233 213
c-107 44 -211 72 -211 181c0 98 86 143 195 143c80.0895 0 141.089 -22.7265 209 -55.1784v-107.822h22v120c-78 40 -141 64 -230 64c-124 0 -220 -53 -220 -165c0 -120 106 -152 221 -199c114 -47 223 -80 223 -194s-97 -150 -228 -150
c-80.6385 0 -152.061 20.2744 -224 54.6305v104.37h-22v-120z" />
    <glyph glyph-name="Scedilla" unicode="&#x15e;" horiz-adv-x="747" 
d="M313 -85c18 10 34 12 55 12c39 0 65 -19 65 -57c0 -41 -35 -55 -81 -55c-31 0 -55 3 -83 17l-10 -17c32 -15 57 -21 92 -21c60 0 105 22 105 76c0 50 -34 78 -86 78c-15.0628 0 -27.521 -1.73638 -39.8656 -5.05347c11.3147 17.3202 22.6293 34.5106 33.944 52.0681
c1.30522 -0.00972839 2.6124 -0.0145975 3.92157 -0.0145975c147 0 253 43 253 174c0 127 -111 162 -233 213c-107 44 -211 72 -211 181c0 98 86 143 195 143c80.0895 0 141.089 -22.7265 209 -55.1784v-107.822h22v120c-78 40 -141 64 -230 64c-124 0 -220 -53 -220 -165
c0 -120 106 -152 221 -199c114 -47 223 -80 223 -194s-97 -150 -228 -150c-80.6385 0 -152.061 20.2744 -224 54.6305v104.37h-22v-120c68.7717 -36.1492 138.321 -57.5284 214.131 -62.0811c-13.6777 -21.3063 -27.7155 -42.6126 -41.1306 -63.9189l16 -17
c0.130455 0.20293 0.26091 0.405808 0.391366 0.608634z" />
    <glyph glyph-name="Scommaaccent" unicode="&#x218;" horiz-adv-x="747" 
d="M277 -304l129 177h-33l-122 -177h26zM123 58c78 -41 157 -63 245 -63c147 0 253 43 253 174c0 127 -111 162 -233 213c-107 44 -211 72 -211 181c0 98 86 143 195 143c80.0895 0 141.089 -22.7265 209 -55.1784v-107.822h22v120c-78 40 -141 64 -230 64
c-124 0 -220 -53 -220 -165c0 -120 106 -152 221 -199c114 -47 223 -80 223 -194s-97 -150 -228 -150c-80.6385 0 -152.061 20.2744 -224 54.6305v104.37h-22v-120z" />
    <glyph glyph-name="T" unicode="T" horiz-adv-x="904" 
d="M440 698v-676h-171v-22h171h11h14h169v22h-169v676h334v-108h22v108v12v12h-737v-12v-12v-108h22v108h334z" />
    <glyph glyph-name="Tcaron" unicode="&#x164;" horiz-adv-x="904" 
d="M233 1005c65 -55 130 -111 196 -166h7h28h7c66 55 131 111 196 166h-35c-60.3992 -52.0363 -120.798 -103.209 -182 -154.321c-61.2016 51.1117 -121.601 102.284 -182 154.321h-35zM440 698v-676h-171v-22h171h11h14h169v22h-169v676h334v-108h22v108v12v12h-737v-12
v-12v-108h22v108h334z" />
    <glyph glyph-name="Tcedilla" horiz-adv-x="904" 
d="M418 -86c18 10 34 13 55 13c39 0 65 -20 65 -57c0 -41 -35 -55 -80 -55c-32 0 -56 2 -84 17l-9 -17c31 -15 57 -21 91 -21c61 0 106 21 106 76c0 50 -35 78 -87 78c-14.5194 0 -27.0145 -1.73508 -39.5069 -5.04973c11.9258 18.0696 23.9997 36.2763 36.5069 54.0497
l-3.6 3h165.6v22h-169v676h334v-108h22v108v12v12h-737v-12v-12v-108h22v108h334v-676h-171v-22h171h6.05934c-15.1183 -23 -29.726 -46 -45.0593 -69l16 -16c0.00813 0.012195 0.01626 0.0243902 0.02439 0.0365856z" />
    <glyph glyph-name="Tcommaaccent" unicode="&#x162;" horiz-adv-x="904" 
d="M382 -304l129 177h-33l-122 -177h26zM440 698v-676h-171v-22h171h11h14h169v22h-169v676h334v-108h22v108v12v12h-737v-12v-12v-108h22v108h334z" />
    <glyph glyph-name="Thorn" unicode="&#xde;" horiz-adv-x="791" 
d="M265 700h171v22h-171h-11h-14h-168v-22h168v-678h-168v-22h168h14h11h171v22h-171v194.547c56.189 -23.1608 109.851 -39.5465 173 -39.5465c149 2 258 72 258 214c0 151 -123 228 -287 228h-144v81zM265 240.756v356.244h141c152 0 265 -67 265 -207
c0 -126 -98 -191 -231 -191c-67.1348 0 -115.336 15.1467 -175 41.7557z" />
    <glyph glyph-name="U" unicode="U" horiz-adv-x="1048" 
d="M236 700h174v22h-182h-182v-22h167v-429c0 -193 111 -276 313 -276c198 0 308 80 308 268v437h170v22h-182h-183v-22h172v-441c0 -167 -103 -240 -283 -240c-189 0 -292 76 -292 256v425z" />
    <glyph glyph-name="Uacute" unicode="&#xda;" horiz-adv-x="1048" 
d="M456 841c65 56 131 111 196 166h-34c-66 -55 -131 -111 -196 -166h34zM236 700h174v22h-182h-182v-22h167v-429c0 -193 111 -276 313 -276c198 0 308 80 308 268v437h170v22h-182h-183v-22h172v-441c0 -167 -103 -240 -283 -240c-189 0 -292 76 -292 256v425z" />
    <glyph glyph-name="Ucircumflex" unicode="&#xdb;" horiz-adv-x="1048" 
d="M741 840c-66 55 -131 111 -197 166h-7h-27h-7c-66 -55 -131 -111 -196 -166h34c60.5046 52.127 121.876 103.388 182.5 154.588c60.6244 -51.2006 121.995 -102.461 182.5 -154.588h35zM236 700h174v22h-182h-182v-22h167v-429c0 -193 111 -276 313 -276
c198 0 308 80 308 268v437h170v22h-182h-183v-22h172v-441c0 -167 -103 -240 -283 -240c-189 0 -292 76 -292 256v425z" />
    <glyph glyph-name="Udieresis" unicode="&#xdc;" horiz-adv-x="1048" 
d="M577 851h36c0 -10 -8 -17 -19 -17s-17 7 -17 17zM577 851h36c0 11 -8 17 -19 17s-17 -7 -17 -17zM434 851h36c0 -10 -7 -17 -19 -17c-10 0 -17 7 -17 17zM434 851h36c0 11 -7 17 -19 17c-10 0 -17 -7 -17 -17zM236 700h174v22h-182h-182v-22h167v-429
c0 -193 111 -276 313 -276c198 0 308 80 308 268v437h170v22h-182h-183v-22h172v-441c0 -167 -103 -240 -283 -240c-189 0 -292 76 -292 256v425z" />
    <glyph glyph-name="Ugrave" unicode="&#xd9;" horiz-adv-x="1048" 
d="M605 841c-65 55 -130 111 -196 166h-35c66 -56 131 -111 196 -166h35zM236 700h174v22h-182h-182v-22h167v-429c0 -193 111 -276 313 -276c198 0 308 80 308 268v437h170v22h-182h-183v-22h172v-441c0 -167 -103 -240 -283 -240c-189 0 -292 76 -292 256v425z" />
    <glyph glyph-name="Uhungarumlaut" unicode="&#x170;" horiz-adv-x="1048" 
d="M571 791l129 177h-32l-122 -177h25zM424 791l129 177h-32l-122 -177h25zM236 700h174v22h-182h-182v-22h167v-429c0 -193 111 -276 313 -276c198 0 308 80 308 268v437h170v22h-182h-183v-22h172v-441c0 -167 -103 -240 -283 -240c-189 0 -292 76 -292 256v425z" />
    <glyph glyph-name="Umacron" unicode="&#x16a;" horiz-adv-x="1048" 
d="M650 862h-267v-21h267v21zM236 700h174v22h-182h-182v-22h167v-429c0 -193 111 -276 313 -276c198 0 308 80 308 268v437h170v22h-182h-183v-22h172v-441c0 -167 -103 -240 -283 -240c-189 0 -292 76 -292 256v425z" />
    <glyph glyph-name="Uogonek" unicode="&#x172;" horiz-adv-x="1048" 
d="M478.383 -3.3276c-43.877 -19.575 -76.3825 -43.6215 -76.3825 -93.6724c0 -60 42 -95 104 -95c36 0 60 12 92 28c-10 14 -3 2 -12 16c-27 -14 -48 -23 -78 -23c-50 0 -84 27 -84 74c0 54.2113 45.7157 70.8704 96.5795 92.0201
c1.79948 -0.013409 3.60631 -0.0201037 5.42048 -0.0201034c198 0 308 80 308 268v437h170v22h-182h-183v-22h172v-441c0 -167 -103 -240 -283 -240c-189 0 -292 76 -292 256v425h174v22h-182h-182v-22h167v-429c0 -177.252 93.6252 -261.723 265.383 -274.328z" />
    <glyph glyph-name="Uring" unicode="&#x16e;" horiz-adv-x="1048" 
d="M414 957c0 61 42 95 107 95c69 0 116 -31 116 -95c0 -63 -46 -95 -113 -95c-66 0 -110 32 -110 95zM391 957c0 -75 54 -117 133 -117c80 0 136 40 136 117s-57 116 -139 116c-78 0 -130 -41 -130 -116zM236 700h174v22h-182h-182v-22h167v-429c0 -193 111 -276 313 -276
c198 0 308 80 308 268v437h170v22h-182h-183v-22h172v-441c0 -167 -103 -240 -283 -240c-189 0 -292 76 -292 256v425z" />
    <glyph glyph-name="V" unicode="V" horiz-adv-x="998" 
d="M485 0h6c106.652 233.666 213.305 466.391 319.957 700h164.043v22h-154h-27h-1h-187v-22h177.957c-103.184 -226.011 -206.368 -451.196 -309.552 -677.206c-105.058 226.009 -210.061 451.194 -313.357 677.206h175.952v22h-186h-1h-28h-155v-22h165.223
c108.534 -233.609 216.186 -466.334 324.777 -700h7h21z" />
    <glyph glyph-name="W" unicode="W" horiz-adv-x="1241" 
d="M832.696 31.9859c-67.068 230.255 -135.882 459.678 -204.696 690.014h-8h-15h-8c-75.629 -230.716 -152.174 -460.516 -227.004 -691.154c-65.0174 222.542 -131.642 446.654 -197.486 669.154h178.491v22h-183h-2h-25h-155v-22h161.573
c69.8089 -233.609 139.618 -466.334 209.427 -700h3h19h3c76.3847 233.022 153.704 465.108 230.151 698.068c69.6153 -232.96 139.2 -465.046 207.849 -698.068h3h19h3c72.7176 233.666 145.435 466.391 218.153 700h161.847v22h-155h-25h-2h-182v-22h177.155
c-69.3426 -222.947 -137.829 -445.09 -205.459 -668.014z" />
    <glyph glyph-name="X" unicode="X" horiz-adv-x="940" 
d="M470.821 364.304c92.4586 -114.032 184.917 -228.063 277.376 -342.304h-174.197v-22h183h9h30h143v22h-160.806c-97.3814 120.288 -194.997 240.341 -292.598 360.409c86.3426 105.795 172.788 211.602 259.421 317.591h162.983v22h-145h-29h-8h-182v-22h172.012
c-81.6682 -99.8545 -163.498 -199.548 -245.346 -299.222c-81.0196 99.6742 -162.02 199.367 -242.86 299.222h169.194v22h-182h-5h-29h-148v-22h165.803c85.6867 -105.874 171.373 -211.567 257.06 -317.248c-98.693 -120.183 -197.401 -240.35 -295.875 -360.752h-163.988
v-22h146h32h5h182v22h-169.106c92.9332 114.241 185.873 228.272 278.927 342.304z" />
    <glyph glyph-name="Y" unicode="Y" horiz-adv-x="884" 
d="M416.346 354.43c-83.3765 114.94 -166.021 230.611 -249.378 345.57h0.0319633h182v22h-182h-16h-27h-140v-22h155.977c87.6742 -120.772 175.348 -242.33 263.023 -363v-315h-169v-22h169h13h13h170v22h-170v315c93.3306 120.67 185.772 242.228 278.163 363h156.837v22
h-140h-26h-16h-182v-22h181.154c-88.038 -114.959 -176.789 -230.63 -264.808 -345.57z" />
    <glyph glyph-name="Yacute" unicode="&#xdd;" horiz-adv-x="884" 
d="M348 841c65 56 130 111 196 166h-34c-66 -55 -131 -111 -197 -166h35zM416.346 354.43c-83.3765 114.94 -166.021 230.611 -249.378 345.57h0.0319633h182v22h-182h-16h-27h-140v-22h155.977c87.6742 -120.772 175.348 -242.33 263.023 -363v-315h-169v-22h169h13h13h170
v22h-170v315c93.3306 120.67 185.772 242.228 278.163 363h156.837v22h-140h-26h-16h-182v-22h181.154c-88.038 -114.959 -176.789 -230.63 -264.808 -345.57z" />
    <glyph glyph-name="Ydieresis" unicode="&#x178;" horiz-adv-x="884" 
d="M469 851h35c0 -10 -7 -17 -18 -17s-17 7 -17 17zM469 851h35c0 11 -7 17 -18 17s-17 -7 -17 -17zM326 851h36c0 -10 -8 -17 -19 -17c-10 0 -17 7 -17 17zM326 851h36c0 11 -8 17 -19 17c-10 0 -17 -7 -17 -17zM416.346 354.43
c-83.3765 114.94 -166.021 230.611 -249.378 345.57h0.0319633h182v22h-182h-16h-27h-140v-22h155.977c87.6742 -120.772 175.348 -242.33 263.023 -363v-315h-169v-22h169h13h13h170v22h-170v315c93.3306 120.67 185.772 242.228 278.163 363h156.837v22h-140h-26h-16h-182
v-22h181.154c-88.038 -114.959 -176.789 -230.63 -264.808 -345.57z" />
    <glyph glyph-name="Z" unicode="Z" horiz-adv-x="837" 
d="M672.119 700c-198.532 -225.333 -0.00407175 -4.34444e-06 -600.119 -678v-22h677v11v11v109h-21v-109h-626.119c198.532 225.333 0.00407175 4.34444e-06 600.119 678v22h-583v-11v-11v-109h22v109h531.119z" />
    <glyph glyph-name="Zacute" unicode="&#x179;" horiz-adv-x="837" 
d="M349 841c65 56 130 111 196 166h-35c-66 -55 -131 -111 -196 -166h35zM672.119 700c-198.532 -225.333 -0.00407175 -4.34444e-06 -600.119 -678v-22h677v11v11v109h-21v-109h-626.119c198.532 225.333 0.00407175 4.34444e-06 600.119 678v22h-583v-11v-11v-109h22v109
h531.119z" />
    <glyph glyph-name="Zcaron" unicode="&#x17d;" horiz-adv-x="837" 
d="M199 1006c65 -55 130 -111 196 -166h8h27h7c66 55 131 111 196 166h-34c-61.4634 -52.1507 -122.06 -103.434 -182.596 -154.658c-61.3398 51.2239 -121.872 102.507 -182.404 154.658h-35zM672.119 700c-198.532 -225.333 -0.00407175 -4.34444e-06 -600.119 -678v-22
h677v11v11v109h-21v-109h-626.119c198.532 225.333 0.00407175 4.34444e-06 600.119 678v22h-583v-11v-11v-109h22v109h531.119z" />
    <glyph glyph-name="Zdotaccent" unicode="&#x17b;" horiz-adv-x="837" 
d="M397 852h35c0 10 -7 17 -18 17s-17 -7 -17 -17zM397 852h35c0 -11 -7 -17 -18 -17s-17 6 -17 17zM672.119 700c-198.532 -225.333 -0.00407175 -4.34444e-06 -600.119 -678v-22h677v11v11v109h-21v-109h-626.119c198.532 225.333 0.00407175 4.34444e-06 600.119 678v22
h-583v-11v-11v-109h22v109h531.119z" />
    <glyph glyph-name="a" unicode="a" 
d="M543 0h10h161v22h-161v368c0 116 -76 148 -196 148c-98 0 -169 -32 -226 -74v-120h21v109.291c51.3397 33.1666 116.243 62.7086 202 62.7086c108 0 175 -27 175 -133v-64.1648c-88.0102 -10.2029 -142.419 -15.2311 -234 -25.8352c-106 -13 -183 -44 -183 -144
c0 -103 66 -154 175 -154c114.71 0 169.516 53.0579 242 136.216v-131.216h14zM529 159.42c-75.2661 -84.0172 -127.432 -142.42 -238 -142.42c-97 0 -155 43 -155 135c0 86 67 110 157 121c92.8859 10.5335 147.259 16.4821 236 26.6266v-140.206z" />
    <glyph glyph-name="aacute" unicode="&#xe1;" 
d="M296 659c65 55 131 111 196 166h-34c-66 -55 -131 -111 -197 -166h35zM543 0h10h161v22h-161v368c0 116 -76 148 -196 148c-98 0 -169 -32 -226 -74v-120h21v109.291c51.3397 33.1666 116.243 62.7086 202 62.7086c108 0 175 -27 175 -133v-64.1648
c-88.0102 -10.2029 -142.419 -15.2311 -234 -25.8352c-106 -13 -183 -44 -183 -144c0 -103 66 -154 175 -154c114.71 0 169.516 53.0579 242 136.216v-131.216h14zM529 159.42c-75.2661 -84.0172 -127.432 -142.42 -238 -142.42c-97 0 -155 43 -155 135c0 86 67 110 157 121
c92.8859 10.5335 147.259 16.4821 236 26.6266v-140.206z" />
    <glyph glyph-name="abreve" unicode="&#x103;" 
d="M503 782c0 -73 -59 -102 -139 -102c-77 0 -133 32 -133 103h-22c0 -85 62 -124 153 -124c95 0 163 36 163 123h-22zM543 0h10h161v22h-161v368c0 116 -76 148 -196 148c-98 0 -169 -32 -226 -74v-120h21v109.291c51.3397 33.1666 116.243 62.7086 202 62.7086
c108 0 175 -27 175 -133v-64.1648c-88.0102 -10.2029 -142.419 -15.2311 -234 -25.8352c-106 -13 -183 -44 -183 -144c0 -103 66 -154 175 -154c114.71 0 169.516 53.0579 242 136.216v-131.216h14zM529 159.42c-75.2661 -84.0172 -127.432 -142.42 -238 -142.42
c-97 0 -155 43 -155 135c0 86 67 110 157 121c92.8859 10.5335 147.259 16.4821 236 26.6266v-140.206z" />
    <glyph glyph-name="acircumflex" unicode="&#xe2;" 
d="M580 658c-65 55 -130 111 -196 166h-7h-27h-7c-66 -55 -131 -111 -197 -166h35c60.5023 51.1943 121.871 103.255 182.493 154.569c60.5068 -51.3142 121.074 -103.375 182.507 -154.569h34zM543 0h10h161v22h-161v368c0 116 -76 148 -196 148c-98 0 -169 -32 -226 -74
v-120h21v109.291c51.3397 33.1666 116.243 62.7086 202 62.7086c108 0 175 -27 175 -133v-64.1648c-88.0102 -10.2029 -142.419 -15.2311 -234 -25.8352c-106 -13 -183 -44 -183 -144c0 -103 66 -154 175 -154c114.71 0 169.516 53.0579 242 136.216v-131.216h14z
M529 159.42c-75.2661 -84.0172 -127.432 -142.42 -238 -142.42c-97 0 -155 43 -155 135c0 86 67 110 157 121c92.8859 10.5335 147.259 16.4821 236 26.6266v-140.206z" />
    <glyph glyph-name="acute" unicode="&#xb4;" horiz-adv-x="355" 
d="M45 591c65 55 130 111 196 166h-35c-66 -55 -131 -111 -196 -166h35z" />
    <glyph glyph-name="adieresis" unicode="&#xe4;" 
d="M417 669h35c0 10 -7 17 -18 17s-17 -7 -17 -17zM417 669h35c0 -11 -7 -17 -18 -17s-17 6 -17 17zM274 669h36c0 10 -8 17 -19 17c-10 0 -17 -7 -17 -17zM274 669h36c0 -11 -8 -17 -19 -17c-10 0 -17 6 -17 17zM543 0h10h161v22h-161v368c0 116 -76 148 -196 148
c-98 0 -169 -32 -226 -74v-120h21v109.291c51.3397 33.1666 116.243 62.7086 202 62.7086c108 0 175 -27 175 -133v-64.1648c-88.0102 -10.2029 -142.419 -15.2311 -234 -25.8352c-106 -13 -183 -44 -183 -144c0 -103 66 -154 175 -154
c114.71 0 169.516 53.0579 242 136.216v-131.216h14zM529 159.42c-75.2661 -84.0172 -127.432 -142.42 -238 -142.42c-97 0 -155 43 -155 135c0 86 67 110 157 121c92.8859 10.5335 147.259 16.4821 236 26.6266v-140.206z" />
    <glyph glyph-name="ae" unicode="&#xe6;" horiz-adv-x="1120" 
d="M982 294h-431.765c4.78272 140.374 82.3045 221 220.765 221c134 0 211 -74 211 -211v-10zM550.07 272h454.93v30c0 152 -84 235 -232 235c-111.775 0 -187.923 -45.3867 -223.672 -128.66c-7.69181 101.074 -80.9107 129.66 -194.328 129.66c-98 0 -169 -32 -226 -74
v-107h22v94.8566c52.3 35.7496 111.995 64.1434 201 64.1434c108 0 175 -27 175 -133v-73.3193c-0.355971 -5.14372 -0.617224 -10.367 -0.783248 -15.6691c-21.4239 0.0373401 -40.89 0.151616 -59.4908 0.151616c-55.5831 0 -103.44 -1.02041 -172.726 -8.16327
c-106 -13 -184 -39 -184 -139c0 -103 66 -152 175 -152c118.133 0 192.701 49.011 270.395 135.792c41.5063 -88.4482 125.926 -136.792 246.605 -136.792c83 0 136 24 202 80l-16 15c-61 -49 -109 -73 -186 -73c-159.396 0 -249.088 93.9062 -251.93 256zM526.064 272.019
c0.714259 -44.134 7.38146 -83.5401 19.6905 -117.833c-75.9645 -83.6726 -146.27 -137.185 -255.755 -137.185c-93 0 -156 40 -156 132c0 76 70 106 160 117c58.8 5.4 101.76 6.48 146.808 6.48c26.4829 0 53.6875 -0.373254 85.2562 -0.461474z" />
    <glyph glyph-name="agrave" unicode="&#xe0;" 
d="M445 658c-65 55 -130 111 -196 166h-35c66 -55 131 -110 196 -166h35zM543 0h10h161v22h-161v368c0 116 -76 148 -196 148c-98 0 -169 -32 -226 -74v-120h21v109.291c51.3397 33.1666 116.243 62.7086 202 62.7086c108 0 175 -27 175 -133v-64.1648
c-88.0102 -10.2029 -142.419 -15.2311 -234 -25.8352c-106 -13 -183 -44 -183 -144c0 -103 66 -154 175 -154c114.71 0 169.516 53.0579 242 136.216v-131.216h14zM529 159.42c-75.2661 -84.0172 -127.432 -142.42 -238 -142.42c-97 0 -155 43 -155 135c0 86 67 110 157 121
c92.8859 10.5335 147.259 16.4821 236 26.6266v-140.206z" />
    <glyph glyph-name="amacron" unicode="&#x101;" 
d="M490 680h-267v-21h267v21zM543 0h10h161v22h-161v368c0 116 -76 148 -196 148c-98 0 -169 -32 -226 -74v-120h21v109.291c51.3397 33.1666 116.243 62.7086 202 62.7086c108 0 175 -27 175 -133v-64.1648c-88.0102 -10.2029 -142.419 -15.2311 -234 -25.8352
c-106 -13 -183 -44 -183 -144c0 -103 66 -154 175 -154c114.71 0 169.516 53.0579 242 136.216v-131.216h14zM529 159.42c-75.2661 -84.0172 -127.432 -142.42 -238 -142.42c-97 0 -155 43 -155 135c0 86 67 110 157 121c92.8859 10.5335 147.259 16.4821 236 26.6266
v-140.206z" />
    <glyph glyph-name="ampersand" unicode="&#x26;" horiz-adv-x="833" 
d="M330.577 369.29c13.1614 -10.8669 26.4388 -21.8703 39.4225 -33.2897c79.2966 -68.317 159.337 -136.634 239.441 -204.951c-64.8918 -72.1406 -149.294 -115.049 -259.441 -115.049c-120 0 -216 50 -216 161c0 108.483 97.0727 142.676 196.577 192.29zM626.032 116.9
c45.6928 -38.9666 91.3908 -77.9332 136.968 -116.9h29c-51.1109 43.5389 -102.222 87.5078 -153.387 131.635c41.6689 51.0112 74.8744 114.296 101.387 186.365l-20 5c-25.8822 -68.269 -57.9553 -128.518 -97.8555 -177.158
c-78.5081 67.7408 -157.158 135.787 -236.144 203.158c-11.3277 10.5825 -23.0776 20.6985 -34.8721 30.6062c97.3619 48.7924 182.933 92.356 183.872 199.394c0 97 -76 147 -178 147c-97 0 -165 -56 -165 -149c0 -86.9085 57.2021 -140.098 121.612 -193.676
c-105.261 -52.1454 -203.612 -91.995 -203.612 -206.324c0 -123 106 -182 239 -182c118.539 0 208.559 45.2142 277.032 121.9zM334.42 393.537c-61.5438 51.1553 -119.42 99.9461 -119.42 183.463c0 80 59 128 141 128c89 0 156 -43 156 -126
c0 -101.147 -84.6794 -140.378 -177.58 -185.463z" />
    <glyph glyph-name="aogonek" unicode="&#x105;" 
d="M546.489 0h6.51083h161v22h-161v368c0 116 -76 148 -196 148c-98 0 -169 -32 -226 -74v-120h21v109.291c51.3397 33.1666 116.243 62.7086 202 62.7086c108 0 175 -27 175 -133v-64.1648c-88.0102 -10.2029 -142.419 -15.2311 -234 -25.8352c-106 -13 -183 -44 -183 -144
c0 -103 66 -154 175 -154c114.71 0 169.516 53.0579 242 136.216v-120.061c-61.4489 -22.9736 -113 -44.6573 -113 -109.155c0 -60 41 -95 103 -95c37 0 61 12 92 29c-9 13 -2 2 -11 15c-27 -14 -48 -23 -79 -23c-49 0 -83 27 -83 74c0 59.4162 52.181 73.2926 108.489 98z
M529 159.42c-75.2661 -84.0172 -127.432 -142.42 -238 -142.42c-97 0 -155 43 -155 135c0 86 67 110 157 121c92.8859 10.5335 147.259 16.4821 236 26.6266v-140.206z" />
    <glyph glyph-name="apostrophemod" horiz-adv-x="475" 
d="M183 545l129 177h-32l-122 -177h25z" />
    <glyph glyph-name="approxequal" unicode="&#x2248;" horiz-adv-x="906" 
d="M731 543c-22 -53 -57 -103 -125 -103c-1.67647 -0.0294118 -3.33737 -0.0441176 -4.98334 -0.0441176c-54.3168 0 -92.3696 16.0147 -137.017 48.0441c-48 35 -85 55 -144 55c-88 0 -131 -42 -156 -119l19 -6c21 62 61 104 136 104c50 0 84 -14 124 -44
c53 -38 96 -58 161 -59c83 0 120 49 147 117zM728 344c-22 -53 -56 -103 -124 -103c-57 0 -96 16 -142 49c-48 34 -86 55 -144 55c-88 0 -131 -42 -156 -119l19 -7c21 63 60 105 136 105c50 0 83 -15 124 -45c53 -37 95 -58 161 -59c82 0 120 49 147 118z" />
    <glyph glyph-name="aring" unicode="&#xe5;" 
d="M253 774c0 62 43 96 108 96c69 0 115 -31 115 -96c0 -62 -45 -95 -112 -95c-66 0 -111 33 -111 95zM231 774c0 -74 54 -116 133 -116c80 0 135 40 135 116c0 78 -56 117 -138 117c-78 0 -130 -41 -130 -117zM543 0h10h161v22h-161v368c0 116 -76 148 -196 148
c-98 0 -169 -32 -226 -74v-120h21v109.291c51.3397 33.1666 116.243 62.7086 202 62.7086c108 0 175 -27 175 -133v-64.1648c-88.0102 -10.2029 -142.419 -15.2311 -234 -25.8352c-106 -13 -183 -44 -183 -144c0 -103 66 -154 175 -154
c114.71 0 169.516 53.0579 242 136.216v-131.216h14zM529 159.42c-75.2661 -84.0172 -127.432 -142.42 -238 -142.42c-97 0 -155 43 -155 135c0 86 67 110 157 121c92.8859 10.5335 147.259 16.4821 236 26.6266v-140.206z" />
    <glyph glyph-name="asciicircum" unicode="^" horiz-adv-x="699" 
d="M571 466c-67 111 -141 233 -208 344h-2h-23h-2c-68 -115 -138 -229 -206 -344h24c65.1531 108.588 131.198 216.285 195.608 324.774c63.8701 -105.749 133.296 -220.148 197.392 -324.774h24z" />
    <glyph glyph-name="asciitilde" unicode="~" horiz-adv-x="897" 
d="M722 344c-22 -53 -56 -103 -124 -103c-57 0 -96 16 -142 49c-48 34 -86 55 -144 55c-88 0 -131 -42 -156 -119l19 -7c21 63 60 105 136 105c50 0 83 -15 124 -45c53 -37 95 -58 161 -59c82 0 120 49 147 118z" />
    <glyph glyph-name="asterisk" unicode="*" horiz-adv-x="646" 
d="M305.118 513.768c-37.8759 -32.7528 -75.0868 -66.1706 -113.118 -98.7685c18 -15 1 0 18 -15c37.7083 34.8802 76.3054 69.7604 114.953 104.641c38.3449 -35.4257 76.6332 -70.0332 114.047 -104.641l17 15c-37.25 33.6159 -75.3255 66.4063 -112.727 99.1213
c51.4195 16.1284 102.255 31.5943 154.727 47.8787l-10 21c-50.992 -17.6154 -102.844 -35.2308 -154.758 -52.8463c0.913084 46.0916 1.75783 92.8913 1.75783 138.846h-23c0.917345 -45.8672 1.83469 -92.576 1.98007 -138.582
c-51.6543 17.5275 -103.243 35.0549 -153.98 52.5824l-9 -22c51.6978 -15.4186 102.573 -31.6599 154.118 -47.2315z" />
    <glyph glyph-name="at" unicode="@" horiz-adv-x="1015" 
d="M711 -82c-68 -31 -116 -37 -190 -37c-238 0 -392 107 -392 331c0 220 156 326 390 326c220 0 362 -111 362 -321c0 -86 -27 -151 -100 -151c-78 0 -106 65 -106 151c0 108 -65 173 -174 173c-115 0 -185 -61 -185 -172c0 -116 66 -184 182 -184
c85.6878 0 135.387 46.3701 160.037 122.989c12.5516 -66.5601 49.4796 -110.989 120.963 -110.989c92 0 125 72 125 172c0 225 -150 343 -383 343c-251 0 -416 -113 -416 -350s164 -352 414 -352c79 0 131 8 203 39zM653.168 204.407
c-25.1222 -88.4038 -65.3104 -148.407 -152.168 -148.407c-104 0 -162 60 -162 163c0 97 61 149 160 149c97 0 154 -56 154 -152c0 -3.90647 0.0556141 -7.77163 0.168172 -11.5926z" />
    <glyph glyph-name="atilde" unicode="&#xe3;" 
d="M563 781c-17 -56 -37 -103 -89 -103c-45 0 -74 18 -106 49c-35 33 -63 55 -110 55c-69 0 -103 -49 -119 -119l19 -6c15 60 42 104 100 104c40 0 64 -20 93 -48c37 -35 70 -56 121 -56c66 0 91 54 111 120zM543 0h10h161v22h-161v368c0 116 -76 148 -196 148
c-98 0 -169 -32 -226 -74v-120h21v109.291c51.3397 33.1666 116.243 62.7086 202 62.7086c108 0 175 -27 175 -133v-64.1648c-88.0102 -10.2029 -142.419 -15.2311 -234 -25.8352c-106 -13 -183 -44 -183 -144c0 -103 66 -154 175 -154
c114.71 0 169.516 53.0579 242 136.216v-131.216h14zM529 159.42c-75.2661 -84.0172 -127.432 -142.42 -238 -142.42c-97 0 -155 43 -155 135c0 86 67 110 157 121c92.8859 10.5335 147.259 16.4821 236 26.6266v-140.206z" />
    <glyph glyph-name="b" unicode="b" horiz-adv-x="815" 
d="M195 0h10v80.0761c71.6855 -60.5954 144.447 -85.0761 240 -85.0761c158 0 258 108 258 269c0 162 -98 274 -255 274c-99.7092 0 -186.508 -45.9938 -243 -96.666l-2.84217e-14 358.666h-10h-14h-169v-22h169v-756h-169v-22h169h14zM205 107.384v306.576
c51.8822 50.2275 139.002 102.04 240 102.04c146 0 234 -102 234 -253c0 -142.637 -87.3238 -246.028 -230.871 -246.028c-1.37119 0 -2.74752 0.00943388 -4.12895 0.0283575c-95.6885 0 -166.075 27.248 -239 90.3838z" />
    <glyph glyph-name="backslash" unicode="\" horiz-adv-x="634" 
d="M563 -68c-155 304 -310 608 -466 912h-25c155 -304 311 -608 466 -912h25z" />
    <glyph glyph-name="bar" unicode="|" horiz-adv-x="310" 
d="M167 -300v1100h-24v-1100h24z" />
    <glyph glyph-name="braceleft" unicode="{" horiz-adv-x="425" 
d="M343 800c-93 0 -149 -57 -149 -150v-180c0 -77 -48 -120 -126 -120v-22c78 0 127 -46 127 -123v-178c0 -93 55 -150 148 -150v21c-81 0 -127 49 -127 128v177c0 66.5205 -31.1388 115.013 -84.1294 135.788c52.6022 20.0061 83.1294 67.0242 83.1294 134.212v177
c0 80 47 129 128 129v21z" />
    <glyph glyph-name="braceright" unicode="}" horiz-adv-x="425" 
d="M82 778c81 0 127 -49 127 -128v-177c0 -67.2606 31.1396 -114.854 84.1316 -135.108c-52.6036 -20.5257 -83.1316 -68.4413 -83.1316 -134.892v-177c0 -80 -47 -129 -128 -129v-21c93 0 149 58 149 151v178c0 77 49 122 126 122v22c-78 0 -127 44 -127 121v180
c0 93 -55 149 -148 149v-21z" />
    <glyph glyph-name="bracketleft" unicode="[" horiz-adv-x="396" 
d="M328 771h-186v-895h186v24h-161v847h161v24z" />
    <glyph glyph-name="bracketright" unicode="]" horiz-adv-x="396" 
d="M230 -100h-162v-24h186v895h-186v-24h162v-847z" />
    <glyph glyph-name="breve" unicode="&#x2d8;" horiz-adv-x="500" 
d="M308 742c0 -73 -59 -102 -138 -102c-77 0 -133 32 -133 103h-22c0 -85 62 -124 153 -124c95 0 163 36 163 123h-23z" />
    <glyph glyph-name="brokenbar" unicode="&#xa6;" horiz-adv-x="349" 
d="M186 428v372h-23v-372h23zM186 -300v372h-23v-372h23z" />
    <glyph glyph-name="bullet" unicode="&#x2022;" horiz-adv-x="450" 
d="M189 440h72c0 -21 -15 -34 -38 -34c-21 0 -34 13 -34 34zM189 440h72c0 21 -15 34 -38 34c-21 0 -34 -13 -34 -34z" />
    <glyph glyph-name="bulletoperator" unicode="&#x2219;" horiz-adv-x="376" 
d="M152 440h72c0 -21 -15 -34 -38 -34c-21 0 -34 13 -34 34zM152 440h72c0 21 -15 34 -38 34c-21 0 -34 -13 -34 -34z" />
    <glyph glyph-name="c" unicode="c" horiz-adv-x="688" 
d="M580 473c-55 37 -121 65 -191 65c-174 0 -278 -95 -278 -271s101 -272 276 -272c78 0 152 33 206 89l-17 14c-50 -50 -117 -81 -188 -81c-158 0 -252 88 -252 250s95 249 252 249c60.7493 0 119.697 -21.6239 170 -52.8984v-110.102h22v120z" />
    <glyph glyph-name="cacute" unicode="&#x107;" horiz-adv-x="688" 
d="M322 659c65 56 130 111 196 166h-35c-66 -55 -131 -111 -196 -166h35zM580 473c-55 37 -121 65 -191 65c-174 0 -278 -95 -278 -271s101 -272 276 -272c78 0 152 33 206 89l-17 14c-50 -50 -117 -81 -188 -81c-158 0 -252 88 -252 250s95 249 252 249
c60.7493 0 119.697 -21.6239 170 -52.8984v-110.102h22v120z" />
    <glyph glyph-name="caron" unicode="&#x2c7;" horiz-adv-x="629" 
d="M8 757c66 -55 131 -111 197 -166h7h27h7c66 55 131 111 196 166h-34c-60.5046 -51.1962 -121.876 -103.259 -182.5 -154.575c-60.6244 51.316 -121.995 103.379 -182.5 154.575h-35z" />
    <glyph glyph-name="ccaron" unicode="&#x10d;" horiz-adv-x="679" 
d="M172 824c65 -55 130 -111 196 -166h8h27h7c66 55 131 111 196 166h-35c-60.5321 -52.1507 -121.064 -103.434 -181.596 -154.658c-61.3397 51.2238 -121.872 102.507 -182.404 154.658h-35zM580 473c-55 37 -121 65 -191 65c-174 0 -278 -95 -278 -271s101 -272 276 -272
c78 0 152 33 206 89l-17 14c-50 -50 -117 -81 -188 -81c-158 0 -252 88 -252 250s95 249 252 249c60.7493 0 119.697 -21.6239 170 -52.8984v-110.102h22v120z" />
    <glyph glyph-name="ccedilla" unicode="&#xe7;" horiz-adv-x="688" 
d="M363.249 -56.8785c11.3138 17.3179 22.6275 34.5078 33.9413 52.0663c74.2321 2.73696 144.167 35.2566 195.81 88.8122l-17 14c-50 -50 -117 -81 -188 -81c-158 0 -252 88 -252 250s95 249 252 249c60.7493 0 119.697 -21.6239 170 -52.8984v-110.102h22v120
c-55 37 -121 65 -191 65c-174 0 -278 -95 -278 -271c0 -170.133 94.3781 -265.51 258.746 -271.681c-13.556 -21.1065 -27.4564 -42.213 -40.7457 -63.3195l0.673514 -0.715609c-0.224062 -0.0944223 -0.448563 -0.18922 -0.673514 -0.284391l16 -16c19 10 34 12 56 12
c39 0 65 -19 65 -57c0 -41 -36 -55 -81 -55c-32 0 -55 3 -83 17l-10 -17c31 -15 57 -21 92 -21c60 0 105 22 105 76c0 50 -35 78 -86 78c-14.7957 0 -27.3575 -1.67534 -39.7513 -4.87848z" />
    <glyph glyph-name="cedilla" unicode="&#xb8;" horiz-adv-x="481" 
d="M142 -81c19 11 34 13 55 13c39 0 65 -19 65 -57c0 -41 -35 -55 -80 -55c-32 0 -56 3 -84 17l-9 -17c31 -15 57 -21 92 -21c60 0 105 21 105 76c0 50 -35 78 -87 78c-14.2148 0 -26.4893 -1.66304 -38.7207 -4.8432c12.0953 18.0926 23.908 36.4679 35.7207 54.8432
l-18 14c-18 -27 -35 -53 -53 -80l16 -17c0.00838853 0.0119205 0.0167769 0.0238413 0.025165 0.0357622z" />
    <glyph glyph-name="cent" unicode="&#xa2;" horiz-adv-x="804" 
d="M451 678.975v99.0249h-23v-99.2635c-195.431 -6.11205 -323 -118.319 -323 -312.736c0 -187.997 112.381 -308.178 299 -311.91v-107.09h23v107.16c104.608 2.43007 179.882 32.4979 268 92.8395l-15 17c-86 -61 -159 -88 -265 -88c-179 0 -287 112 -287 291
c0 185 125 290 315 290c94 0 161 -18 241 -67l13 18c-82.2926 49.9634 -150.189 70.1742 -246 70.9751z" />
    <glyph glyph-name="circumflex" unicode="&#x2c6;" horiz-adv-x="838" 
d="M442 591c-65 55 -130 111 -196 166h-7h-27h-7c-66 -55 -131 -111 -197 -166h35c60.5321 51.2195 121.064 103.306 182.404 154.645c60.5365 -51.3387 121.133 -103.425 182.596 -154.645h34z" />
    <glyph glyph-name="colon" unicode=":" horiz-adv-x="333" 
d="M152 12h29c0 9 -6 14 -15 14s-14 -6 -14 -14zM152 12h29c0 -10 -6 -14 -15 -14s-14 6 -14 14zM152 427h29c0 -9 -6 -14 -15 -14s-14 6 -14 14zM152 427h29c0 9 -6 14 -15 14s-14 -6 -14 -14z" />
    <glyph glyph-name="comma" unicode="," horiz-adv-x="363" 
d="M80 -146l129 177h-32l-123 -177h26z" />
    <glyph glyph-name="commaaccent" horiz-adv-x="475" 
d="M160 -136l130 177h-33l-122 -177h25z" />
    <glyph glyph-name="copyright" unicode="&#xa9;" horiz-adv-x="969" 
d="M628 464c-45 24 -81 32 -132 32c-116 0 -193 -65 -193 -177c0 -108 69 -173 178 -173c64 0 109 11 162 47l-15 16c-47 -33 -88 -42 -146 -42c-96 0 -155 58 -155 153c0 99 66 155 168 155c46 0 76 -7 111 -22l14 7l-14 -8v-71h21v82.5zM114 319c0 -205 164 -323 381 -323
c208 0 360 122 360 323c0 203 -156 327 -366 327c-215 0 -375 -121 -375 -327zM137 319c0 193 149 306 352 306c197 0 342 -115 342 -307c0 -187 -142 -301 -335 -301c-203 0 -359 108 -359 302z" />
    <glyph glyph-name="currency" unicode="&#xa4;" horiz-adv-x="739" 
d="M184 310c0 -45.5496 12.7978 -83.1847 35.7677 -111.731c-35.2559 -28.8857 -70.5118 -58.5079 -105.768 -87.2693l16 -17c35.4399 28.9115 70.8798 57.823 105.508 87.5457c33.2836 -30.3062 81.0664 -46.5457 138.492 -46.5457
c54.2181 0 98.8928 15.9852 130.411 45.0421c33.6997 -28.8521 68.1441 -57.0363 102.589 -86.0421l17 16c-34.5104 28.1532 -69.8456 57.1312 -104.508 86.185c23.5309 29.2931 36.5075 68.2159 36.5075 114.815c0 48.136 -14.7739 86.9625 -40.9531 115.114
c33.9844 28.4494 67.9687 56.268 101.953 84.8864l-16 17c-34.3939 -28.9632 -68.7877 -57.9265 -103.182 -86.1483c-31.2894 24.2811 -73.7571 37.1483 -123.818 37.1483c-54.0129 0 -99.4954 -13.469 -132.406 -39.2372l-103.594 87.2372l-16 -17
c34.4552 -29.0149 68.0883 -57.2077 102.39 -86.0693c-25.8689 -28.002 -40.3902 -66.2852 -40.3902 -113.931zM207 310c0 94 67 148 165 148s160 -54 160 -148c0 -95 -61 -154 -157 -154c-102 0 -168 56 -168 154z" />
    <glyph glyph-name="d" unicode="d" horiz-adv-x="819" 
d="M611 437.465v-310.903c-59.2836 -72.1366 -123.075 -109.562 -214 -109.562c-158 0 -266 93 -266 248c0 156 107 251 264 251c85.0891 0 157.089 -26.1783 216 -78.5348zM611 94.0357v-94.0357h13h12h171v22h-171v778h-13h-12h-170v-22h170v-313.177
c-61.9371 48.7846 -131.338 73.1769 -217 73.1769c-172 0 -288 -105 -288 -274c0 -168 119 -269 292 -269c90.3009 0 155.822 32.7737 213 99.0357z" />
    <glyph glyph-name="dagger" unicode="&#x2020;" horiz-adv-x="708" 
d="M362 514v267h-24v-267h-278v-24h278v-788h24v788h287v24h-287z" />
    <glyph glyph-name="daggerdbl" unicode="&#x2021;" horiz-adv-x="831" 
d="M399 -24v-274h24v274h287v25h-287v489h287v24h-287v267h-24v-267h-278v-24h278v-489h-278v-25h278z" />
    <glyph glyph-name="dcaron" unicode="&#x10f;" horiz-adv-x="883" 
d="M731 632l129 178h-32l-122 -178h25zM611 437.465v-310.903c-59.2836 -72.1366 -123.075 -109.562 -214 -109.562c-158 0 -266 93 -266 248c0 156 107 251 264 251c85.0891 0 157.089 -26.1783 216 -78.5348zM611 94.0357v-94.0357h13h12h171v22h-171v778h-13h-12h-170
v-22h170v-313.177c-61.9371 48.7846 -131.338 73.1769 -217 73.1769c-172 0 -288 -105 -288 -274c0 -168 119 -269 292 -269c90.3009 0 155.822 32.7737 213 99.0357z" />
    <glyph glyph-name="dcroat" unicode="&#x111;" horiz-adv-x="819" 
d="M611 657v-192.177c-61.9371 48.7846 -131.338 73.1769 -217 73.1769c-172 0 -288 -105 -288 -274c0 -168 119 -269 292 -269c90.3009 0 155.822 32.7737 213 99.0357v-94.0357h13h12h171v22h-171v635h117v23h-117v120h-13h-12h-170v-22h170v-98h-218v-23h218z
M611 437.465v-310.903c-59.2836 -72.1366 -123.075 -109.562 -214 -109.562c-158 0 -266 93 -266 248c0 156 107 251 264 251c85.0891 0 157.089 -26.1783 216 -78.5348z" />
    <glyph glyph-name="degree" unicode="&#xb0;" horiz-adv-x="635" 
d="M125 433c0 -129 67 -216 191 -216s193 86 193 214c0 125 -71 207 -193 207c-121 0 -191 -82 -191 -205zM148 433c0 110 58 184 166 184c110 0 173 -74 173 -186c0 -115 -59 -193 -170 -193s-169 80 -169 195z" />
    <glyph glyph-name="deltamath" horiz-adv-x="976" 
d="M56 0h863v24l-411 786h-4h-23h-5l-420 -786v-24zM492.361 788.219l398.639 -764.219h-807z" />
    <glyph glyph-name="dieresis" unicode="&#xa8;" horiz-adv-x="537" 
d="M235 669h36c0 -10 -7 -17 -19 -17c-10 0 -17 7 -17 17zM235 669h36c0 11 -7 17 -19 17c-10 0 -17 -7 -17 -17zM93 669h36c0 -10 -8 -17 -19 -17s-17 7 -17 17zM93 669h36c0 11 -8 17 -19 17s-17 -7 -17 -17z" />
    <glyph glyph-name="divide" unicode="&#xf7;" horiz-adv-x="897" 
d="M154 297h589v24h-589v-24zM432 96h29c0 9 -6 14 -15 14s-14 -6 -14 -14zM432 96h29c0 -10 -6 -14 -15 -14s-14 6 -14 14zM432 511h29c0 -9 -6 -14 -15 -14s-14 6 -14 14zM432 511h29c0 9 -6 14 -15 14s-14 -6 -14 -14z" />
    <glyph glyph-name="divisionslash" unicode="&#x2215;" horiz-adv-x="539" 
d="M30 -93l506 850h-27l-506 -850h27z" />
    <glyph glyph-name="dollar" unicode="$" horiz-adv-x="706" 
d="M338 682.685c-114.864 -3.87964 -203 -43.9024 -203 -139.685c0 -106 97 -136 211 -178c114 -40 233 -69 233 -168c0 -96 -111 -128 -242 -128c-79.9698 0 -149.97 21.7523 -210 45.411l-1.42109e-14 104.589h-22v-120c62.2774 -25.8691 135.571 -48.9842 219 -50.8752
v-91.1248h24v91.0959c139.276 2.07821 255 38.3573 255 149.904c0 112 -122 142 -243 187c-108 39 -201 65 -201 158c0 85 88 119 197 119c80.5214 0 138.07 -14.7023 207 -44.9876v-106.012h22v120c-75.5338 33.3526 -137.596 51.3087 -223 51.9804v90.0196h-24v-90.3154z
" />
    <glyph glyph-name="dotaccent" unicode="&#x2d9;" horiz-adv-x="860" 
d="M385 669h36c0 -10 -8 -17 -19 -17c-10 0 -17 7 -17 17zM385 669h36c0 11 -8 17 -19 17c-10 0 -17 -7 -17 -17z" />
    <glyph glyph-name="dotlessi" unicode="&#x131;" horiz-adv-x="428" 
d="M230 511v-489l-170 -2.84217e-14v-22h170h12h14h157v22h-157v511h-14h-12h-170v-22h170z" />
    <glyph glyph-name="e" unicode="e" horiz-adv-x="711" 
d="M574 295h-431.768c4.72319 140.374 81.3074 221 219.768 221c135 0 212 -74 212 -211v-10zM142.069 273h454.931v30c0 152 -85 235 -233 235c-159 0 -246 -93 -246 -257c0 -182 98 -286 275 -286c83 0 136 24 202 80l-16 15c-60 -50 -109 -73 -186 -73
c-159.396 0 -248.119 93.9062 -250.931 256z" />
    <glyph glyph-name="eacute" unicode="&#xe9;" horiz-adv-x="711" 
d="M297 660c65 55 130 110 196 166h-35c-66 -55 -131 -111 -196 -166h35zM574 295h-431.768c4.72319 140.374 81.3074 221 219.768 221c135 0 212 -74 212 -211v-10zM142.069 273h454.931v30c0 152 -85 235 -233 235c-159 0 -246 -93 -246 -257c0 -182 98 -286 275 -286
c83 0 136 24 202 80l-16 15c-60 -50 -109 -73 -186 -73c-159.396 0 -248.119 93.9062 -250.931 256z" />
    <glyph glyph-name="ecaron" unicode="&#x11b;" horiz-adv-x="711" 
d="M147 824c65 -55 130 -111 196 -166h8h27h7c66 55 131 111 196 166h-34c-61.4634 -51.2195 -122.06 -103.306 -182.596 -154.645c-61.3398 51.3387 -121.872 103.425 -182.404 154.645h-35zM574 295h-431.768c4.72319 140.374 81.3074 221 219.768 221
c135 0 212 -74 212 -211v-10zM142.069 273h454.931v30c0 152 -85 235 -233 235c-159 0 -246 -93 -246 -257c0 -182 98 -286 275 -286c83 0 136 24 202 80l-16 15c-60 -50 -109 -73 -186 -73c-159.396 0 -248.119 93.9062 -250.931 256z" />
    <glyph glyph-name="ecircumflex" unicode="&#xea;" horiz-adv-x="711" 
d="M581 659c-65 55 -130 111 -196 166h-7h-27h-8c-66 -55 -131 -111 -196 -166h35c60.5321 51.2195 121.064 102.439 182.404 154.466c60.5365 -52.0271 121.133 -103.247 182.596 -154.466h34zM574 295h-431.768c4.72319 140.374 81.3074 221 219.768 221
c135 0 212 -74 212 -211v-10zM142.069 273h454.931v30c0 152 -85 235 -233 235c-159 0 -246 -93 -246 -257c0 -182 98 -286 275 -286c83 0 136 24 202 80l-16 15c-60 -50 -109 -73 -186 -73c-159.396 0 -248.119 93.9062 -250.931 256z" />
    <glyph glyph-name="edieresis" unicode="&#xeb;" horiz-adv-x="711" 
d="M417 670h36c0 10 -7 17 -19 17c-10 0 -17 -7 -17 -17zM417 670h36c0 -11 -7 -17 -19 -17c-10 0 -17 6 -17 17zM275 670h36c0 10 -8 17 -19 17s-17 -7 -17 -17zM275 670h36c0 -11 -8 -17 -19 -17s-17 6 -17 17zM574 295h-431.768c4.72319 140.374 81.3074 221 219.768 221
c135 0 212 -74 212 -211v-10zM142.069 273h454.931v30c0 152 -85 235 -233 235c-159 0 -246 -93 -246 -257c0 -182 98 -286 275 -286c83 0 136 24 202 80l-16 15c-60 -50 -109 -73 -186 -73c-159.396 0 -248.119 93.9062 -250.931 256z" />
    <glyph glyph-name="edotaccent" unicode="&#x117;" horiz-adv-x="711" 
d="M345 670h35c0 -10 -7 -17 -18 -17s-17 7 -17 17zM345 670h35c0 11 -7 17 -18 17s-17 -6 -17 -17zM574 295h-431.768c4.72319 140.374 81.3074 221 219.768 221c135 0 212 -74 212 -211v-10zM142.069 273h454.931v30c0 152 -85 235 -233 235c-159 0 -246 -93 -246 -257
c0 -182 98 -286 275 -286c83 0 136 24 202 80l-16 15c-60 -50 -109 -73 -186 -73c-159.396 0 -248.119 93.9062 -250.931 256z" />
    <glyph glyph-name="egrave" unicode="&#xe8;" horiz-adv-x="711" 
d="M446 659c-66 55 -131 111 -197 166h-34c65 -55 131 -111 196 -166h35zM574 295h-431.768c4.72319 140.374 81.3074 221 219.768 221c135 0 212 -74 212 -211v-10zM142.069 273h454.931v30c0 152 -85 235 -233 235c-159 0 -246 -93 -246 -257c0 -182 98 -286 275 -286
c83 0 136 24 202 80l-16 15c-60 -50 -109 -73 -186 -73c-159.396 0 -248.119 93.9062 -250.931 256z" />
    <glyph glyph-name="eight" unicode="8" horiz-adv-x="712" 
d="M357.691 390.576c-104.516 44.5118 -194.691 66.2283 -194.691 172.424c0 101 79 140 190 140c117 0 196 -36 196 -142c0 -103.094 -88.9159 -128.622 -191.309 -170.424zM386.565 378.149c101.244 44.2391 186.435 72.2672 186.435 182.851c0 120 -87 166 -219 166
c-127 0 -215 -48 -215 -164c0 -112.41 85.1176 -142.335 188.771 -185.127c-116.558 -49.4955 -211.771 -82.4129 -211.771 -207.873c0 -127 97 -175 237 -175c142 0 243 45 243 175c0 123.694 -94.5056 159.122 -209.435 208.149zM357.538 365.393
c116.306 -48.8706 214.462 -80.2012 214.462 -195.393c0 -115 -91 -151 -218 -151c-126 0 -214 38 -214 151c0 118.17 100.146 145.732 217.538 195.393z" />
    <glyph glyph-name="ellipsis" unicode="&#x2026;" horiz-adv-x="770" 
d="M362 12h36c0 -10 -8 -17 -19 -17c-10 0 -17 7 -17 17zM362 12h36c0 11 -8 17 -19 17c-10 0 -17 -7 -17 -17zM587 12h36c0 -10 -8 -17 -19 -17s-17 7 -17 17zM587 12h36c0 11 -8 17 -19 17s-17 -7 -17 -17zM147 12h36c0 -10 -8 -17 -19 -17c-10 0 -17 7 -17 17zM147 12h36
c0 11 -8 17 -19 17c-10 0 -17 -7 -17 -17z" />
    <glyph glyph-name="emacron" unicode="&#x113;" horiz-adv-x="711" 
d="M491 681h-267v-21h267v21zM574 295h-431.768c4.72319 140.374 81.3074 221 219.768 221c135 0 212 -74 212 -211v-10zM142.069 273h454.931v30c0 152 -85 235 -233 235c-159 0 -246 -93 -246 -257c0 -182 98 -286 275 -286c83 0 136 24 202 80l-16 15
c-60 -50 -109 -73 -186 -73c-159.396 0 -248.119 93.9062 -250.931 256z" />
    <glyph glyph-name="emdash" unicode="&#x2014;" horiz-adv-x="1093" 
d="M151 260h792v24h-792v-24z" />
    <glyph glyph-name="endash" unicode="&#x2013;" horiz-adv-x="752" 
d="M151 260h449v24h-449v-24z" />
    <glyph glyph-name="eogonek" unicode="&#x119;" horiz-adv-x="711" 
d="M574 295h-431.768c4.72319 140.374 81.3074 221 219.768 221c135 0 212 -74 212 -211v-10zM398.764 17.0438c-1.90414 -0.0292344 -3.82541 -0.0438197 -5.76444 -0.0438195c-159.396 0 -248.119 93.9062 -250.931 256h454.931v30c0 152 -85 235 -233 235
c-159 0 -246 -93 -246 -257c0 -166.931 82.4439 -268.244 232.671 -283.876c-39.9208 -18.9821 -68.6711 -43.0529 -68.6711 -90.124c0 -60 42 -95 104 -95c36 0 61 12 92 28c-9 14 -2 2 -11 16c-27 -15 -48 -23 -79 -23c-49 0 -83 26 -83 74
c0 50.7407 39.3345 68.5835 86.5536 88.0023c0.481562 0 0.963711 -0.0023203 1.44645 -0.0023203c83 0 136 24 202 80l-16 15c-55.1673 -45.9727 -101.035 -69.1198 -167.919 -72.5503c-0.542295 0.918298 -1.22125 2.07575 -2.08139 3.55027
c-3.4326 -1.33206 -6.84683 -2.64836 -10.2356 -3.95618z" />
    <glyph glyph-name="equal" unicode="=" horiz-adv-x="1055" 
d="M154 428h747v23h-747v-23zM154 206h747v23h-747v-23z" />
    <glyph glyph-name="estimated" unicode="&#x212e;" horiz-adv-x="774" 
d="M727 389c1.25 1.75 2.5 3.5 4 5h-4v8c0 202 -128 322 -342 322c-207.675 0 -333.977 -123.998 -337.906 -333.855l-2.09443 -8.14501l2.07434 -11.4089c3.73607 -235.334 148.079 -375.591 385.926 -375.591c98 0 209 40 293 108c-12 13 -2 0 -16 14
c-78 -62 -185 -100 -277 -100c-125.41 0 -223.938 39.448 -288 111.71v243.29h582v17zM629 619.787v-225.787h-484v220.991c55.5466 56.372 136.933 87.009 239 87.009c104.709 0 188.286 -28.9589 245 -82.2127z" />
    <glyph glyph-name="eth" unicode="&#xf0;" horiz-adv-x="734" 
d="M593.757 271.773c-11.7646 170.806 -106.239 284.727 -249.642 356.719c-42.204 -42.0805 -84.2835 -84.162 -126.115 -126.491l-17 17c40.3687 39.8938 80.5119 80.0132 120.644 120.251c-66.6971 30.4512 -142.935 52.581 -225.644 67.7491l6 23
c88.0147 -15.4463 168.555 -38.9616 238.502 -71.8331c38.085 38.2167 76.1901 76.5249 114.498 114.833l17 -17c-36.4113 -36.4113 -72.8227 -72.6392 -109.155 -108.841c157.071 -81.1011 255.155 -213.442 255.155 -413.159c0 -159 -106 -246 -271 -246
c-144 0 -238 72 -238 208c0 137 97 206 240 206c111.826 0 195.413 -42.7422 244.757 -130.227zM594.995 233.273c-52.7579 95.0286 -127.722 145.727 -243.995 145.727c-130 0 -218 -61 -218 -184c0 -120 87 -182 212 -182c150.395 0 249.206 77.3765 249.995 220.273z" />
    <glyph glyph-name="exclam" unicode="!" horiz-adv-x="351" 
d="M188 229v493h-23v-493h23zM159 19h36c0 -10 -7 -17 -19 -17c-10 0 -17 7 -17 17zM159 19h36c0 11 -7 17 -19 17c-10 0 -17 -7 -17 -17z" />
    <glyph glyph-name="exclamdown" unicode="&#xa1;" horiz-adv-x="351" 
d="M163 493v-493h23v493h-23zM192 703h-36c0 -10 7 -17 19 -17c10 0 17 7 17 17zM192 703h-36c0 11 7 17 19 17c10 0 17 -6 17 -17z" />
    <glyph glyph-name="f" unicode="f" horiz-adv-x="590" 
d="M299 509v131c0 91 59 143 151 143c36.4854 0 71.3869 -9.50279 104 -22.1661v-107.834h22v120c-40 17 -83 32 -126 32c-105 0 -175 -60 -175 -165v-131h-208v-22h208v-465h-170v-22h170h12h12h170v22h-170v465h264v22h-264z" />
    <glyph glyph-name="fi" unicode="&#xfb01;" horiz-adv-x="774" 
d="M269 0h13h112v22h-112v490h271v-490h-115v-22h115h15h8h168v22h-168v511h-294v61c0 112 68 185 188 185c30 0 55 -3 82 -10v-86h24v101c-38 11 -67 16 -107 16c-132 0 -211 -81 -210 -206v-61h-209v-21h209v-490h-172v-22h172h10z" />
    <glyph glyph-name="five" unicode="5" horiz-adv-x="670" 
d="M179 421.121v278.879h366v22h-389v-311v-9l23 -6c30 14 94 26 140 26c131 0 223 -73 223 -198c0 -126 -102 -203 -236 -203c-73 0 -129 16 -196 46l-12 -23c66 -32 130 -49 207 -49c149 0 261 86 261 229c0 137 -102 222 -246 222
c-46.0609 0 -101.593 -10.148 -141 -24.8794z" />
    <glyph glyph-name="fl" unicode="&#xfb02;" horiz-adv-x="868" 
d="M308 0h10h129v22h-129v490h300v-490h-127v-22h127h19h4h195v22h-195v763c-43 11 -76 15 -120 15c-134 0 -227 -77 -226 -206v-61h-239v-21h239v-490h-186v-22h186h13zM318 533v61c0 116 83 185 204 185c34 0 63 -1 96 -10v-236h-300z" />
    <glyph glyph-name="florin" unicode="&#x192;" horiz-adv-x="521" 
d="M514 828c-11.9014 1.96177 -23.3581 2.93147 -34.3321 2.93147c-72.9345 0 -124.545 -42.8329 -143.668 -121.931c-12.3256 -54.3333 -24.7145 -108.667 -37.1348 -163h-136.865v-21h132.063c-35.3776 -154.667 -70.9767 -309.333 -106.063 -464
c-16.491 -68.5679 -60.1021 -107.756 -124.295 -107.756c-9.76639 0 -20.0092 0.907091 -30.7054 2.75581l-4 -21c11.9389 -1.92563 23.4494 -2.87893 34.4911 -2.87893c74.9696 0 128.333 43.9462 147.509 125.879c35.943 155.274 71.886 311.064 107.829 467h150.171v21
h-145.331c12.4436 53.9897 24.8872 107.995 37.3307 162c14.6385 67.1647 56.7113 101.705 117.918 101.705c9.87417 0 20.2463 -0.898918 31.0816 -2.7048z" />
    <glyph glyph-name="four" unicode="4" horiz-adv-x="784" 
d="M447 264v-242h-172v-22h183h182v22h-169v242h222v24h-222v434h-24l-391 -434l13 -24h378zM447 288h-356.643l356.643 400.773v-400.773z" />
    <glyph glyph-name="foursuperior" unicode="&#x2074;" horiz-adv-x="678" 
d="M384 293h12h162v21h-162v97h122v20h-122v286v9h-23l-280 -295l12 -20h268v-97h-162v-21h162h11zM373 692.814v-261.814h-248.98z" />
    <glyph glyph-name="fraction" unicode="&#x2044;" horiz-adv-x="646" 
d="M27 -93l506 850h-27l-506 -850h27z" />
    <glyph glyph-name="g" unicode="g" horiz-adv-x="714" 
d="M219.867 6.46309c35.187 -11.2532 77.9916 -16.1934 122.133 -19.4631c135 -10 266 -15 266 -131c0 -113 -126 -139 -264 -139c-130 0 -243 40 -243 149c0 72.7548 51.3197 113.435 118.867 140.463zM197.374 15.0575
c-70.3537 -29.1777 -120.374 -73.3612 -120.374 -150.058c0 -128 122 -169 266 -169c152 0 290 28 287 162c0 130 -138 140 -284 150c-97 5 -188 17 -188 104c0 46.3499 28.6322 75.6994 70.6621 98.2049c33.5968 -14.1822 73.7436 -21.2049 117.338 -21.2049
c124 0 219 57 219 173c0 41.8424 -12.1794 76.5361 -33.6 103.744c49.2348 21.2314 96.9969 43.1643 145.6 64.2562l-12 20c-49.2851 -22.3178 -98.5702 -44.6355 -148.659 -67.7574c-38.7313 36.7663 -97.7104 55.7574 -166.341 55.7574c-126 0 -221 -63 -221 -181
c0 -64.5454 30.9954 -110.167 80.3134 -137.425c-45.0242 -24.4492 -75.3134 -58.098 -75.3134 -110.575c0 -47.9474 24.9453 -76.4376 63.3736 -93.9425zM154 358c0 102 85 159 196 159c110 0 191 -54 191 -156c0 -98 -83 -151 -193 -151c-108 0 -194 48 -194 148z" />
    <glyph glyph-name="gbreve" unicode="&#x11f;" horiz-adv-x="714" 
d="M490 782c0 -73 -59 -102 -138 -102c-77 0 -133 32 -133 103h-22c0 -86 62 -124 153 -124c95 0 163 35 163 123h-23zM219.867 6.46309c35.187 -11.2532 77.9916 -16.1934 122.133 -19.4631c135 -10 266 -15 266 -131c0 -113 -126 -139 -264 -139c-130 0 -243 40 -243 149
c0 72.7548 51.3197 113.435 118.867 140.463zM197.374 15.0575c-70.3537 -29.1777 -120.374 -73.3612 -120.374 -150.058c0 -128 122 -169 266 -169c152 0 290 28 287 162c0 130 -138 140 -284 150c-97 5 -188 17 -188 104c0 46.3499 28.6322 75.6994 70.6621 98.2049
c33.5968 -14.1822 73.7436 -21.2049 117.338 -21.2049c124 0 219 57 219 173c0 41.8424 -12.1794 76.5361 -33.6 103.744c49.2348 21.2314 96.9969 43.1643 145.6 64.2562l-12 20c-49.2851 -22.3178 -98.5702 -44.6355 -148.659 -67.7574
c-38.7313 36.7663 -97.7104 55.7574 -166.341 55.7574c-126 0 -221 -63 -221 -181c0 -64.5454 30.9954 -110.167 80.3134 -137.425c-45.0242 -24.4492 -75.3134 -58.098 -75.3134 -110.575c0 -47.9474 24.9453 -76.4376 63.3736 -93.9425zM154 358c0 102 85 159 196 159
c110 0 191 -54 191 -156c0 -98 -83 -151 -193 -151c-108 0 -194 48 -194 148z" />
    <glyph glyph-name="gcommaaccent" unicode="&#x123;" horiz-adv-x="714" 
d="M416 791l-130 -177h33l122 177h-25zM219.867 6.46309c35.187 -11.2532 77.9916 -16.1934 122.133 -19.4631c135 -10 266 -15 266 -131c0 -113 -126 -139 -264 -139c-130 0 -243 40 -243 149c0 72.7548 51.3197 113.435 118.867 140.463zM197.374 15.0575
c-70.3537 -29.1777 -120.374 -73.3612 -120.374 -150.058c0 -128 122 -169 266 -169c152 0 290 28 287 162c0 130 -138 140 -284 150c-97 5 -188 17 -188 104c0 46.3499 28.6322 75.6994 70.6621 98.2049c33.5968 -14.1822 73.7436 -21.2049 117.338 -21.2049
c124 0 219 57 219 173c0 41.8424 -12.1794 76.5361 -33.6 103.744c49.2348 21.2314 96.9969 43.1643 145.6 64.2562l-12 20c-49.2851 -22.3178 -98.5702 -44.6355 -148.659 -67.7574c-38.7313 36.7663 -97.7104 55.7574 -166.341 55.7574c-126 0 -221 -63 -221 -181
c0 -64.5454 30.9954 -110.167 80.3134 -137.425c-45.0242 -24.4492 -75.3134 -58.098 -75.3134 -110.575c0 -47.9474 24.9453 -76.4376 63.3736 -93.9425zM154 358c0 102 85 159 196 159c110 0 191 -54 191 -156c0 -98 -83 -151 -193 -151c-108 0 -194 48 -194 148z" />
    <glyph glyph-name="germandbls" unicode="&#xdf;" horiz-adv-x="750" 
d="M491 87c99 20 169 75 169 186c0 111.376 -72.7827 170.856 -186.628 190.521c87.8243 19.576 147.628 70.5883 147.628 164.479c0 121 -94 176 -224 176c-127 0 -215 -64 -215 -185v-597h-170v-22h170h13h11h172v22h-172v597c0 107 77 164 189 164
c116 0 204 -47 204 -156c0 -105 -97 -156 -221 -156v-17c132 0 260 -47 260 -182c0 -96 -71 -143 -154 -164z" />
    <glyph glyph-name="grave" unicode="`" horiz-adv-x="665" 
d="M331 591c-65 55 -130 111 -196 166h-34c65 -55 130 -111 196 -166h34z" />
    <glyph glyph-name="greater" unicode="&#x3e;" horiz-adv-x="906" 
d="M802.241 305.766c-230.082 -85.9221 -460.206 -171.844 -691.241 -257.766v-24c242 90 483 180 724 270v24l-735 264v-24z" />
    <glyph glyph-name="greaterequal" unicode="&#x2265;" horiz-adv-x="1003" 
d="M877 0h-735v22h735v-22zM141 677c246 -88 491 -175 736 -263v-1v-23v-1c-245 -88 -490 -176 -736 -264v24c235.284 84.1667 469.653 168.333 703.983 252.5c-234.329 84.1648 -468.699 168.29 -703.983 251.5v24z" />
    <glyph glyph-name="guillemotleft" unicode="&#xab;" 
d="M131 265l230 -121v23l-207.866 109.356l207.866 106.644v23l-230 -118v-23zM354 265l230 -121v23l-207.866 109.356l207.866 106.644v23l-230 -118v-23z" />
    <glyph glyph-name="guillemotright" unicode="&#xbb;" 
d="M549 265l-229 -121v23l206.915 109.331l-207.915 106.669v23l230 -118v-23zM326 265l-230 -121v23l207.914 109.381l-206.914 106.619v23l229 -118v-23z" />
    <glyph glyph-name="guilsinglleft" unicode="&#x2039;" horiz-adv-x="603" 
d="M166.925 276.502c160.083 52.0692 73.3443 36.6687 270.075 98.4982v23c-210 -66 -97 -44 -306 -110v-23c209 -66 97 -44 306 -110v23c-195.798 61.8309 -109.869 46.4282 -270.075 98.5018z" />
    <glyph glyph-name="guilsinglright" unicode="&#x203a;" horiz-adv-x="603" 
d="M436.08 276.5c-160.087 52.0713 -73.2847 36.6698 -269.08 98.5v23c209 -66 96 -44 305 -110v-23c-209 -66 -96 -44 -306 -110v23c196.733 61.8302 109.989 46.4286 270.08 98.5z" />
    <glyph glyph-name="h" unicode="h" horiz-adv-x="825" 
d="M207 403.225v396.775h-12h-12h-171v-22h171v-756h-171v-22h171h12h12h153v22h-153v344.43c46.1693 90.0826 136.551 149.57 237 149.57c116 0 180 -60 180 -175v-319h-154v-22h154h11h13h170v22h-170v322c0 128 -72 194 -201 194
c-99.9461 0 -192.974 -49.1929 -240 -134.775z" />
    <glyph glyph-name="hungarumlaut" unicode="&#x2dd;" horiz-adv-x="620" 
d="M328 671l130 177h-33l-122 -177h25zM181 671l130 177h-33l-122 -177h25z" />
    <glyph glyph-name="hyphen" unicode="-" horiz-adv-x="649" 
d="M152 260h345v24h-345v-24z" />
    <glyph glyph-name="i" unicode="i" horiz-adv-x="428" 
d="M227 670h29c0 -9 -7 -13 -15 -13c-9 0 -14 5 -14 13zM227 670h29c0 9 -7 14 -15 14c-9 0 -14 -6 -14 -14zM230 511v-489l-170 -2.84217e-14v-22h170h12h14h157v22h-157v511h-14h-12h-170v-22h170z" />
    <glyph glyph-name="iacute" unicode="&#xed;" horiz-adv-x="428" 
d="M174 658c65 55 130 110 196 166h-34c-66 -55 -131 -111 -197 -166h35zM230 511v-489l-170 -2.84217e-14v-22h170h12h14h157v22h-157v511h-14h-12h-170v-22h170z" />
    <glyph glyph-name="icircumflex" unicode="&#xee;" horiz-adv-x="499" 
d="M493 657c-65 55 -130 111 -196 166h-7h-28h-7c-66 -55 -131 -111 -196 -166h35c60.3992 51.107 120.798 102.214 182 154.123c61.2016 -51.9094 121.601 -103.016 182 -154.123h35zM264 511v-489l-170 -2.84217e-14v-22h170h13h13h157v22h-157v511h-13h-13h-170v-22h170z
" />
    <glyph glyph-name="idieresis" unicode="&#xef;" horiz-adv-x="428" 
d="M295 668h35c0 10 -7 17 -18 17s-17 -7 -17 -17zM295 668h35c0 -11 -7 -17 -18 -17s-17 6 -17 17zM152 668h36c0 10 -8 17 -19 17c-10 0 -17 -7 -17 -17zM152 668h36c0 -11 -8 -17 -19 -17c-10 0 -17 6 -17 17zM230 511v-489l-170 -2.84217e-14v-22h170h12h14h157v22h-157
v511h-14h-12h-170v-22h170z" />
    <glyph glyph-name="igrave" unicode="&#xec;" horiz-adv-x="428" 
d="M323 657c-65 55 -130 111 -196 166h-35c65 -55 131 -111 196 -166h35zM230 511v-489l-170 -2.84217e-14v-22h170h12h14h157v22h-157v511h-14h-12h-170v-22h170z" />
    <glyph glyph-name="imacron" unicode="&#x12b;" horiz-adv-x="428" 
d="M368 679h-267v-21h267v21zM230 511v-489l-170 -2.84217e-14v-22h170h12h14h157v22h-157v511h-14h-12h-170v-22h170z" />
    <glyph glyph-name="infinity" unicode="&#x221e;" horiz-adv-x="1108" 
d="M531.477 408.719c-49.0461 -78.4442 -107.266 -153.719 -197.477 -153.719c-96 0 -177 59 -177 150c0 89 85 143 180 143c85.1542 0 148.772 -62.7366 194.477 -139.281zM544.663 429.207c-50.0252 77.0857 -115.855 139.793 -207.663 139.793c-108 0 -203 -62 -203 -164
c0 -104 91 -171 200 -171c94.9293 0 160.12 72.0926 210.972 152.974c53.7179 -81.9961 122.488 -150.974 219.028 -150.974c113 0 212 63 212 168c0 103 -100 164 -212 164c-93.8121 0 -166.074 -60.162 -219.337 -138.793zM558.002 408.099
c48.719 77.2549 117.084 138.901 205.998 138.901c98 0 189 -51 189 -143c0 -93 -89 -147 -189 -147c-91.9765 0 -154.895 71.2394 -205.998 151.099z" />
    <glyph glyph-name="integral" unicode="&#x222b;" horiz-adv-x="524" 
d="M505 828c-12.3138 2.16507 -24.1699 3.2315 -35.5187 3.2315c-72.5192 0 -124.323 -43.5453 -142.481 -122.232c-50 -216 -100 -432 -149 -648c-16.491 -68.5679 -60.8554 -107.756 -123.939 -107.756c-9.5977 0 -19.6287 0.907091 -30.0608 2.75581l-5 -21
c11.9389 -1.92563 23.4494 -2.87893 34.4911 -2.87893c74.9696 0 128.333 43.9462 147.509 125.879c51 217 100 433 150 650c15.6 67.6 59.7422 101.4 120.058 101.4c9.27941 0 18.9416 -0.8 28.9416 -2.4z" />
    <glyph glyph-name="iogonek" unicode="&#x12f;" horiz-adv-x="428" 
d="M227 670h29c0 -9 -7 -13 -15 -13c-9 0 -14 5 -14 13zM227 670h29c0 9 -7 14 -15 14c-9 0 -14 -6 -14 -14zM230 511v-489l-170 -2.84217e-14v-22l123.333 -7.10543e-15c-38.7004 -18.8121 -66.3329 -42.853 -66.3329 -89c0 -60 42 -95 104 -95c36 0 61 12 92 28
c-9 14 -2 2 -11 16c-27 -15 -48 -23 -79 -23c-49 0 -83 26 -83 74c0 51.6083 40.6912 69.1841 88.9825 89h1.0175h12h14h157v22h-157v511h-14h-12h-170v-22h170z" />
    <glyph glyph-name="j" unicode="j" horiz-adv-x="406" 
d="M14 -301c10 0 23 -3 36 -3c105 0 186 57 186 162v675h-13h-11h-172v-22h172v-653c0 -88 -70 -139 -162 -139c-10 0 -24 2 -31 3c-4 -22 -1 -1 -5 -23zM211 670h29c0 -9 -7 -13 -16 -13c-8 0 -13 5 -13 13zM211 670h29c0 9 -7 14 -16 14c-8 0 -13 -6 -13 -14z" />
    <glyph glyph-name="k" unicode="k" horiz-adv-x="843" 
d="M236 275c126.233 78.6667 253.302 157.333 380.442 236h161.558v22h-126h-40h-1h-171v-22h136.442c-123.448 -76.3821 -246.829 -152.764 -369.442 -229.146l-2.84217e-14 518.146h-10h-14h-169v-22h169v-756h-171v-22h171h12h12h156v22h-156v246.091
c144.333 -90.6005 288.667 -179.346 433 -268.091h2h42h140v22h-175.88c-137.893 84.5255 -275.006 168.339 -412.12 253z" />
    <glyph glyph-name="kcommaaccent" unicode="&#x137;" horiz-adv-x="843" 
d="M373 -300l129 177h-32l-123 -177h26zM236 275c126.233 78.6667 253.302 157.333 380.442 236h161.558v22h-126h-40h-1h-171v-22h136.442c-123.448 -76.3821 -246.829 -152.764 -369.442 -229.146l-2.84217e-14 518.146h-10h-14h-169v-22h169v-756h-171v-22h171h12h12h156
v22h-156v246.091c144.333 -90.6005 288.667 -179.346 433 -268.091h2h42h140v22h-175.88c-137.893 84.5255 -275.006 168.339 -412.12 253z" />
    <glyph glyph-name="l" unicode="l" horiz-adv-x="392" 
d="M207 22v778h-8h-16h-166v-22h166v-756h-169v-22h169h13h11h172v22h-172z" />
    <glyph glyph-name="lacute" unicode="&#x13a;" horiz-adv-x="392" 
d="M124 899c65 56 130 111 196 166h-34c-66 -55 -131 -111 -197 -166h35zM207 22v778h-8h-16h-166v-22h166v-756h-169v-22h169h13h11h172v22h-172z" />
    <glyph glyph-name="lcaron" unicode="&#x13e;" horiz-adv-x="479" 
d="M328 633l129 177h-33l-122 -177h26zM207 22v778h-8h-16h-166v-22h166v-756h-169v-22h169h13h11h172v22h-172z" />
    <glyph glyph-name="lcommaaccent" unicode="&#x13c;" horiz-adv-x="392" 
d="M127 -300l129 177h-32l-122 -177h25zM207 22v778h-8h-16h-166v-22h166v-756h-169v-22h169h13h11h172v22h-172z" />
    <glyph glyph-name="less" unicode="&#x3c;" horiz-adv-x="908" 
d="M103.759 300.234l690.241 257.766v24l-723 -270v-24l735 -264v24z" />
    <glyph glyph-name="lessequal" unicode="&#x2264;" horiz-adv-x="1003" 
d="M126 0h735v22h-735v-22zM861 677c-245 -88 -491 -175 -735 -263v-1v-23v-1c244 -88 490 -176 735 -264v24c-234.328 84.1667 -469.57 168.333 -703.102 252.5c233.532 84.1648 468.775 168.29 703.102 251.5v24z" />
    <glyph glyph-name="litre" horiz-adv-x="453" 
d="M237 22v778h-8h-16h-167v-22h167v-756h-169v-22h169h13h11h172v22h-172z" />
    <glyph glyph-name="logicalnot" unicode="&#xac;" horiz-adv-x="923" 
d="M745 321h-552v-24h552v-144h24v144v24h-24z" />
    <glyph glyph-name="logo" horiz-adv-x="2230" 
d="M1671 58c78 -41 157 -63 245 -63c147 0 253 43 253 174c0 126 -111 162 -233 213c-107 44 -211 72 -211 181c0 98 86 142 195 142c80.0895 0 141.089 -21.8175 209 -54.1847v-107.815h22v120c-78 39 -141 64 -230 64c-124 0 -220 -53 -220 -165c0 -120 106 -152 221 -200
c114 -46 223 -79 223 -193s-97 -151 -228 -151c-80.6385 0 -152.061 20.2744 -224 55.5152v104.485h-22v-120zM1041 722h-10h-15h-168v-22h168v-678h-168v-22h168h15h10h222c240 0 377 118 377 352c0 245 -142 370 -392 370h-207zM1041 700h205c237 0 371 -117 371 -349
c0 -218 -127 -329 -352 -329h-224v678zM423 698v-676h-172v-22h172h11h13h169v22h-169v676h334v-108h22v108v12v12h-736v-12v-12v-108h22v108h334z" />
    <glyph glyph-name="lozenge" unicode="&#x25ca;" horiz-adv-x="620" 
d="M298 122h-2c-69 115 -138 229 -207 344h25c65.1778 -108.63 130.356 -216.367 195.533 -324.898c63.8876 105.783 133.289 220.231 196.467 324.898h25c-68 -111 -141 -233 -209 -344h-1h-23zM506 466h25c-68 111 -141 233 -209 344h-1h-23h-2
c-69 -115 -138 -229 -207 -344h25c65.1778 108.63 130.356 216.367 195.533 324.898c63.8876 -105.783 133.289 -220.231 196.467 -324.898z" />
    <glyph glyph-name="lslash" unicode="&#x142;" horiz-adv-x="403" 
d="M215 22v384.887l159 134.113v25c-53 -44.2435 -106 -88.6994 -159 -133.27v367.27h-8h-16h-167v-22h167v-365.46c-54 -45.4443 -108 -90.9921 -162 -136.54v-26l162 136.643v-364.643h-169v-22h169h13h11h172v22h-172z" />
    <glyph glyph-name="m" unicode="m" horiz-adv-x="1221" 
d="M254 404.854v128.146h-12h-12h-170v-22h170v-489l-170 -2.84217e-14v-22h170h12h12h141v22h-141v342.862c44.233 92.7939 112.781 152.138 211 152.138c113 0 159 -59 159 -176v-319h-141v-22h141h12h12h141v22h-141v322c0 6.8589 -0.144178 13.5369 -0.436142 20.0338
c43.5134 92.3118 114.925 151.966 212.436 151.966c114 0 158 -58 158 -175v-319h-140v-22h140h14h11h171v22h-171v322c0 129 -52 194 -178 194c-101.122 0 -178.219 -51.2524 -220.543 -140.141c-13.4949 93.2229 -66.408 140.141 -173.457 140.141
c-99.4245 0 -173.748 -47.9201 -217 -133.146z" />
    <glyph glyph-name="macron" unicode="&#xaf;" horiz-adv-x="492" 
d="M305 680h-267v-21h267v21z" />
    <glyph glyph-name="macronmod" horiz-adv-x="461" 
d="M363 680h-267v-21h267v21z" />
    <glyph glyph-name="minus" unicode="&#x2212;" horiz-adv-x="897" 
d="M154 297h589v24h-589v-24z" />
    <glyph glyph-name="multiply" unicode="&#xd7;" horiz-adv-x="710" 
d="M355.02 326.5l-199.02 199.5l-17 -17l199 -199.48l-200 -199.52l17 -17l199.98 199.5l199.02 -199.5l17 17l-199 199.48l200 199.52l-17 17z" />
    <glyph glyph-name="mumath" horiz-adv-x="905" 
d="M657 158.115c-47.5203 -75.9324 -129.926 -141.115 -220 -141.115c-119 0 -190 54 -190 170v346h-1h-11h-12h-170v-22h170v-326v-485h23v382.132c32.4285 -59.1494 97.8554 -87.1316 188 -87.1316c90.6899 0 172.077 55.8182 223 126.499v-121.499h12h12h158v22h-158v511
h-12h-12h-171v-22h171v-352.885z" />
    <glyph glyph-name="n" unicode="n" horiz-adv-x="872" 
d="M230 511v-489l-170 -2.84217e-14v-22h170h12h12h152v22h-152v342.57c44.9961 90.2411 135.863 151.43 236 151.43c115 0 181 -60 181 -175v-319h-152v-22h152h11h14h169v22h-169v322c0 127 -73 194 -201 194c-100.824 0 -193.962 -49.1942 -241 -134.778v129.778h-12h-12
h-170v-22h170z" />
    <glyph glyph-name="nacute" unicode="&#x144;" horiz-adv-x="872" 
d="M400 659c65 56 130 111 196 166h-35c-66 -55 -131 -111 -196 -166h35zM230 511v-489l-170 -2.84217e-14v-22h170h12h12h152v22h-152v342.57c44.9961 90.2411 135.863 151.43 236 151.43c115 0 181 -60 181 -175v-319h-152v-22h152h11h14h169v22h-169v322
c0 127 -73 194 -201 194c-100.824 0 -193.962 -49.1942 -241 -134.778v129.778h-12h-12h-170v-22h170z" />
    <glyph glyph-name="ncaron" unicode="&#x148;" horiz-adv-x="872" 
d="M250 824c65 -55 130 -111 196 -166h8h27h7c66 55 131 111 196 166h-35c-60.5321 -52.1507 -121.064 -103.434 -181.596 -154.658c-61.3397 51.2238 -121.872 102.507 -182.404 154.658h-35zM230 511v-489l-170 -2.84217e-14v-22h170h12h12h152v22h-152v342.57
c44.9961 90.2411 135.863 151.43 236 151.43c115 0 181 -60 181 -175v-319h-152v-22h152h11h14h169v22h-169v322c0 127 -73 194 -201 194c-100.824 0 -193.962 -49.1942 -241 -134.778v129.778h-12h-12h-170v-22h170z" />
    <glyph glyph-name="ncommaaccent" unicode="&#x146;" horiz-adv-x="872" 
d="M421 -300l129 177h-32l-123 -177h26zM230 511v-489l-170 -2.84217e-14v-22h170h12h12h152v22h-152v342.57c44.9961 90.2411 135.863 151.43 236 151.43c115 0 181 -60 181 -175v-319h-152v-22h152h11h14h169v22h-169v322c0 127 -73 194 -201 194
c-100.824 0 -193.962 -49.1942 -241 -134.778v129.778h-12h-12h-170v-22h170z" />
    <glyph glyph-name="nine" unicode="9" horiz-adv-x="739" 
d="M605.671 441.918c-18.1804 -255.417 -221.041 -382.416 -496.671 -433.918l5 -23c302 53 517 201 517 496c0 159 -107 246 -272 246c-143 0 -238 -72 -238 -208c0 -137 97 -206 240 -206c111.267 0 194.576 42.3158 244.671 128.918zM606.995 481.727
c-52.7569 -95.0285 -127.691 -145.727 -242.995 -145.727c-131 0 -219 61 -219 184c0 120 87 183 213 183c149.399 0 248.206 -78.3686 248.995 -221.273z" />
    <glyph glyph-name="notequal" unicode="&#x2260;" horiz-adv-x="1016" 
d="M427.796 206l-131.796 -217h27l131.476 217h428.524v23h-414.588l120.571 199h294.018v23h-280.082l132.082 218h-26l-132.403 -218h-439.597v-23h425.628l-120.863 -199h-304.765v-23h290.796z" />
    <glyph glyph-name="ntilde" unicode="&#xf1;" horiz-adv-x="872" 
d="M687 781c-17 -56 -37 -103 -89 -103c-45 0 -74 17 -107 48c-34 33 -62 55 -109 55c-69 0 -103 -48 -119 -119l19 -5c15 60 42 103 100 104c40 0 64 -20 92 -48c38 -35 71 -56 122 -56c66 0 91 53 111 120zM230 511v-489l-170 -2.84217e-14v-22h170h12h12h152v22h-152
v342.57c44.9961 90.2411 135.863 151.43 236 151.43c115 0 181 -60 181 -175v-319h-152v-22h152h11h14h169v22h-169v322c0 127 -73 194 -201 194c-100.824 0 -193.962 -49.1942 -241 -134.778v129.778h-12h-12h-170v-22h170z" />
    <glyph glyph-name="nullsuperior" horiz-adv-x="665" 
d="M137 496c0 -127 71 -208 197 -208c124 0 195 82 195 210c0 126 -71 206 -195 206c-126 0 -197 -81 -197 -208zM160 496c0 113 62 186 173 186c0.751168 0.00676728 1.50005 0.0101456 2.24663 0.0101456c109.576 0 169.753 -72.7748 169.753 -185.01
c0 -113 -59 -188 -170 -188c-113 0 -175 73 -175 187z" />
    <glyph glyph-name="numbersign" unicode="#" horiz-adv-x="841" 
d="M663.051 513l78.9488 209h-24l-78.9488 -209h-312.962l77.9112 209h-24l-77.6021 -209h-124.398l-7 -21h123.601l-82.8003 -223h-120.8l-7 -22h119.632l-74.6317 -201h23l74.929 201h311.642l-78.571 -208h24l78.571 208h100.429l6 22h-98.1186l84.2372 223h93.8814l7 21
h-92.9488zM631.119 492l-84.2372 -223h-311.751l83.1302 223h312.858z" />
    <glyph glyph-name="o" unicode="o" horiz-adv-x="760" 
d="M112 268c0 -170 98 -273 267 -273c170 0 269 101 269 271s-100 272 -271 272c-168 0 -265 -103 -265 -270zM136 268c0 156 89 249 240 249c156 0 247 -94 247 -251c0 -156 -89 -249 -243 -249c-156 0 -244 96 -244 251z" />
    <glyph glyph-name="oacute" unicode="&#xf3;" horiz-adv-x="760" 
d="M310 659c65 55 131 110 196 166h-34c-66 -55 -131 -111 -196 -166h34zM112 268c0 -170 98 -273 267 -273c170 0 269 101 269 271s-100 272 -271 272c-168 0 -265 -103 -265 -270zM136 268c0 156 89 249 240 249c156 0 247 -94 247 -251c0 -156 -89 -249 -243 -249
c-156 0 -244 96 -244 251z" />
    <glyph glyph-name="ocircumflex" unicode="&#xf4;" horiz-adv-x="760" 
d="M595 658c-66 55 -131 111 -197 166h-7h-27h-7c-66 -55 -131 -111 -196 -166h34c60.5046 51.1962 121.876 102.392 182.5 154.395c60.6244 -52.0027 121.995 -103.199 182.5 -154.395h35zM112 268c0 -170 98 -273 267 -273c170 0 269 101 269 271s-100 272 -271 272
c-168 0 -265 -103 -265 -270zM136 268c0 156 89 249 240 249c156 0 247 -94 247 -251c0 -156 -89 -249 -243 -249c-156 0 -244 96 -244 251z" />
    <glyph glyph-name="odieresis" unicode="&#xf6;" horiz-adv-x="760" 
d="M431 668h36c0 -10 -8 -17 -19 -17s-17 7 -17 17zM431 668h36c0 11 -8 17 -19 17s-17 -6 -17 -17zM288 668h36c0 -10 -7 -17 -19 -17c-10 0 -17 7 -17 17zM288 668h36c0 11 -7 17 -19 17c-10 0 -17 -6 -17 -17zM112 268c0 -170 98 -273 267 -273c170 0 269 101 269 271
s-100 272 -271 272c-168 0 -265 -103 -265 -270zM136 268c0 156 89 249 240 249c156 0 247 -94 247 -251c0 -156 -89 -249 -243 -249c-156 0 -244 96 -244 251z" />
    <glyph glyph-name="oe" unicode="&#x153;" horiz-adv-x="1219" 
d="M1082 295h-431.764c4.75284 139.471 81.334 221 219.764 221c135 0 212 -75 212 -211v-10zM650.069 273h454.931v30c0 151 -85 235 -233 235c-129.53 0 -211.276 -62.3842 -237.129 -173.636c-32.3168 110.199 -123.015 173.636 -257.871 173.636
c-168 0 -265 -103 -265 -270c0 -170 98 -273 267 -273c138.727 0 230.174 67.2583 259.124 184.386c31.2447 -118.56 122.059 -184.386 262.876 -184.386c83 0 136 25 202 80l-16 15c-60 -49 -109 -73 -186 -73c-159.396 0 -248.119 93.9062 -250.931 256zM136 268
c0 156 89 249 240 249c156 0 247 -94 247 -251c0 -156 -89 -249 -243 -249c-156 0 -244 95 -244 251z" />
    <glyph glyph-name="ogonek" unicode="&#x2db;" horiz-adv-x="406" 
d="M167 15c-67 -25 -127 -45 -127 -114c0 -60 42 -95 104 -95c36 0 61 12 92 29c-9 13 -2 2 -11 15c-28 -14 -48 -23 -79 -23c-50 0 -83 27 -83 74c0 61 55 74 113 100c-7 12 -2 2 -9 14z" />
    <glyph glyph-name="ograve" unicode="&#xf2;" horiz-adv-x="760" 
d="M459 658c-65 55 -130 111 -196 166h-35c66 -56 131 -111 196 -166h35zM112 268c0 -170 98 -273 267 -273c170 0 269 101 269 271s-100 272 -271 272c-168 0 -265 -103 -265 -270zM136 268c0 156 89 249 240 249c156 0 247 -94 247 -251c0 -156 -89 -249 -243 -249
c-156 0 -244 96 -244 251z" />
    <glyph glyph-name="ohungarumlaut" unicode="&#x151;" horiz-adv-x="760" 
d="M425 608l129 178h-32l-122 -178h25zM278 608l129 178h-32l-122 -178h25zM112 268c0 -170 98 -273 267 -273c170 0 269 101 269 271s-100 272 -271 272c-168 0 -265 -103 -265 -270zM136 268c0 156 89 249 240 249c156 0 247 -94 247 -251c0 -156 -89 -249 -243 -249
c-156 0 -244 96 -244 251z" />
    <glyph glyph-name="omacron" unicode="&#x14d;" horiz-adv-x="760" 
d="M504 679h-267v-21h267v21zM112 268c0 -170 98 -273 267 -273c170 0 269 101 269 271s-100 272 -271 272c-168 0 -265 -103 -265 -270zM136 268c0 156 89 249 240 249c156 0 247 -94 247 -251c0 -156 -89 -249 -243 -249c-156 0 -244 96 -244 251z" />
    <glyph glyph-name="omegamath" horiz-adv-x="923" 
d="M668.901 21c107.617 81.032 159.099 184.605 159.099 327c0 229 -140 378 -367 378c-228 0 -366 -151 -366 -381c0 -139.402 52.8419 -238.747 156.165 -324h-209.165v-21h236l13 21c-114 85 -172 182 -172 324c0 216 128 360 340 360c213 0 345 -141 345 -357
c0 -145 -60 -246 -179 -327l14 -21h239v21h-209.099z" />
    <glyph glyph-name="one" unicode="1" horiz-adv-x="562" 
d="M319 722l-238 -170l14 -18l224 158.171v-670.171h-168v-22h168h15h9h173v22h-173v700h-24z" />
    <glyph glyph-name="onehalf" unicode="&#xbd;" horiz-adv-x="1265" 
d="M870 222c36 49 79 75 145 75c74 0 128 -31 128 -98c0 -60 -45 -84 -93 -120c-78 -52 -156 -103 -233 -154v-22h372v119h-21v-97h-308.823c69.0404 45.2341 137.432 91.1171 205.823 137c53 41 100 71 100 138c0 80 -63 118 -149 118c-74 0 -127 -25 -164 -85zM391 -93
l506 850h-26l-507 -850h27zM230 761l-156 -110l13 -19l143 102.512v-359.512h-128v-22h127h1h146v22h-123v376v10h-23z" />
    <glyph glyph-name="onequarter" unicode="&#xbc;" horiz-adv-x="1232" 
d="M393 -93l507 850h-27l-506 -850h26zM1014 -104h174v21h-162v98h123v20h-123v286v9h-23l-280 -295l13 -20h267v-98h-162v-21h173zM1003 296.731v-261.731h-248.046zM235 761l-156 -110l13 -19l143 102.512v-359.512h-128v-22h128h146v22h-122v386h-24z" />
    <glyph glyph-name="onesuperior" unicode="&#xb9;" horiz-adv-x="563" 
d="M297 700l-157 -110l14 -19l143 103.133v-360.133h-129v-21h128h1h145v21h-122v386h-23z" />
    <glyph glyph-name="ordfeminine" unicode="&#xaa;" horiz-adv-x="636" 
d="M401 629.718c-52.2309 -5.87189 -90.7382 -7.16923 -145 -13.7181c-67 -8 -118 -37 -118 -101s53 -94 123 -94c60.5094 0 106.187 29.664 140 71.7785v-65.7785h15h10h74v22h-74v232c0 66 -61 84 -136 84c-56 0 -106 -21 -139 -51v-68h22v56.5053
c27.9211 21.0257 67.9979 40.4947 114 40.4947c63 0 114 -14 114 -69v-44.2819zM401 521.327c-31.5584 -43.9378 -74.9024 -78.3267 -135 -78.3267c-58 0 -104 21 -104 74c0 50 40 73 93 79c53.9247 6.50815 94.0189 8.69426 146 14.595v-89.2683z" />
    <glyph glyph-name="ordmasculine" unicode="&#xba;" horiz-adv-x="620" 
d="M137 601c0 -112 66 -183 177 -183c107 0 170 71 170 181c0 105 -66 169 -172 169c-108 0 -175 -63 -175 -167zM161 601c0 92 57 146 150 146c91 0 148 -56 148 -148c0 -96 -54 -159 -144 -159c-97 0 -154 63 -154 161z" />
    <glyph glyph-name="oslash" unicode="&#xf8;" horiz-adv-x="760" 
d="M112 268c0 -113.278 43.5131 -196.807 122.551 -239.937l-56.5511 -95.063l18 -12l58.0158 97.572c35.6633 -15.4489 77.5241 -23.572 124.984 -23.572c170 0 269 101 269 271c0 106.086 -38.942 185.691 -109.779 230.554l53.7787 90.4461l-19 10l-53.4292 -89.8152
c-39.4546 20.1609 -87.3046 30.8152 -142.571 30.8152c-168 0 -265 -103 -265 -270zM136 268c0 156 89 249 240 249c51.313 0 95.5933 -10.1703 131.916 -29.4076l-261.423 -439.455c-71.7116 40.0699 -110.493 116.966 -110.493 219.862zM526.354 476.595
c62.4327 -41.748 96.646 -114.329 96.646 -210.595c0 -156 -89 -249 -243 -249c-43.4562 0 -81.6357 7.44948 -114.106 21.5486z" />
    <glyph glyph-name="otilde" unicode="&#xf5;" horiz-adv-x="760" 
d="M577 781c-16 -56 -36 -103 -89 -103c-45 0 -74 17 -106 48c-35 33 -62 55 -110 55c-69 0 -103 -48 -119 -119l19 -5c15 60 42 103 100 104c40 0 64 -20 93 -48c37 -35 70 -56 121 -56c67 0 91 53 111 120zM112 268c0 -170 98 -273 267 -273c170 0 269 101 269 271
s-100 272 -271 272c-168 0 -265 -103 -265 -270zM136 268c0 156 89 249 240 249c156 0 247 -94 247 -251c0 -156 -89 -249 -243 -249c-156 0 -244 96 -244 251z" />
    <glyph glyph-name="p" unicode="p" horiz-adv-x="816" 
d="M206 454.708v78.2918h-11h-13h-170v-22l170 0.928962v-789.929h-171v-21h171v-1h11h13h158v22l-158 -0.923977v371.815c70.9333 -61.9494 141.175 -97.8912 239 -97.8912c162 0 259 117 258 282c0 157 -100 261 -256 261c-97.0555 0 -185.39 -36.4708 -241 -83.2918z
M206 117.697v312.232c49.858 46.9788 140.838 86.0713 240 86.0713c144 0 234 -95 234 -240c0.0485349 -2.47528 0.0727282 -4.93851 0.0727282 -7.38945c0 -148.342 -88.626 -251.618 -233.018 -251.618c-0.683602 0 -1.36845 0.00231481 -2.05455 0.00695061
c-97.774 0 -165.913 38.239 -239 100.697z" />
    <glyph glyph-name="paragraph" unicode="&#xb6;" horiz-adv-x="861" 
d="M716 0v722h-11h-14h-155h-13h-4h-7h-144c-164 0 -287 -76 -287 -228c0 -141 109 -211 258 -214c63.1487 0 116.811 16.3857 173 40.3474v-298.347h-172v-22h172h11h13h155h14h11zM512 700v-356.135c-60.5711 -25.7582 -107.863 -41.8652 -176 -41.8652
c-132 0 -231 65 -231 191c0 141 114 207 266 207h141zM536 22v678h155v-678h-155z" />
    <glyph glyph-name="parenleft" unicode="(" horiz-adv-x="433" 
d="M407 -236c-186 158 -280 317 -280 562s95 402 278 563l-14 14c-192 -162 -289 -325 -289 -577s98 -414 290 -577z" />
    <glyph glyph-name="parenright" unicode=")" horiz-adv-x="445" 
d="M39 -267c195 171 306 332 306 594c0 256 -104 416 -302 576l-15 -15c190 -160 291 -314 291 -562c0 -253 -110 -408 -296 -578z" />
    <glyph glyph-name="partialdiff" unicode="&#x2202;" horiz-adv-x="700" 
d="M546.836 271.874c7.71818 46.2599 11.1643 96.3603 11.1643 148.126c0 160 -65 286 -210 286c-57 0 -97 -20 -145 -46l-12 16c53 32 96 51 158 51c160 0 231 -134 231 -307c0 -229.413 -57.7041 -424.004 -260.44 -424.004
c-0.519052 0 -1.03905 0.00127551 -1.56001 0.00382921c-131 0 -216 81 -216 211c0 134 91 216 228 216c109.849 0 187.067 -55.1094 216.836 -151.126zM538.772 231.583c-22.1794 107.771 -97.9437 171.417 -207.772 171.417c-117 0 -206 -72 -206 -193
c0 -118 82 -193 193 -193c124.001 0 191.053 88.7462 220.772 214.583z" />
    <glyph glyph-name="percent" unicode="%" horiz-adv-x="1285" 
d="M426 -93l506 850h-27l-506 -850h27zM821 108c0 -127 71 -208 197 -208c125 0 195 82 195 210c0 126 -71 206 -195 206c-126 0 -197 -81 -197 -208zM844 108c0 113 62 186 173 186c0.751168 0.00676728 1.50005 0.0101456 2.24663 0.0101456
c109.576 0 169.753 -72.7748 169.753 -185.01c0 -113 -59 -188 -170 -188c-113 0 -175 73 -175 187zM72 553c0 -126 71 -208 197 -208c125 0 195 83 195 210c0 126 -71 206 -195 206c-126 0 -197 -81 -197 -208zM95 553c0 113 62 186 173 186
c0.751168 0.00676728 1.50005 0.0101456 2.24663 0.0101456c109.576 0 169.753 -72.7748 169.753 -185.01c0 -113 -59 -188 -170 -188c-113 0 -175 73 -175 187z" />
    <glyph glyph-name="period" unicode="." horiz-adv-x="330" 
d="M147 12h36c0 -10 -8 -17 -19 -17c-10 0 -17 7 -17 17zM147 12h36c0 11 -8 17 -19 17c-10 0 -17 -7 -17 -17z" />
    <glyph glyph-name="periodcentered" unicode="&#xb7;" horiz-adv-x="337" 
d="M151 440h35c0 -10 -7 -17 -18 -17s-17 7 -17 17zM151 440h35c0 11 -7 17 -18 17s-17 -7 -17 -17z" />
    <glyph glyph-name="perthousand" unicode="&#x2030;" horiz-adv-x="1760" 
d="M427 -93l506 850h-26l-507 -850h27zM1300 108c0 -127 71 -208 197 -208c124 0 195 82 195 210c0 126 -71 206 -195 206c-126 0 -197 -81 -197 -208zM1323 108c0 113 62 186 173 186c0.751168 0.00676728 1.50005 0.0101456 2.24663 0.0101456
c109.576 0 169.753 -72.7748 169.753 -185.01c0 -113 -59 -188 -170 -188c-113 0 -175 73 -175 187zM822 108c0 -127 72 -208 197 -208s195 82 195 210c0 126 -70 206 -195 206s-197 -81 -197 -208zM845 108c0 113 62 186 173 186
c0.751168 0.00676728 1.50005 0.0101456 2.24663 0.0101456c109.576 0 169.753 -72.7748 169.753 -185.01c0 -113 -59 -188 -170 -188c-113 0 -175 73 -175 187zM72 553c0 -126 71 -208 197 -208c125 0 195 83 195 210c0 126 -71 206 -195 206c-126 0 -197 -81 -197 -208z
M95 553c0 113 62 186 173 186c0.751168 0.00676728 1.50005 0.0101456 2.24663 0.0101456c109.576 0 169.753 -72.7748 169.753 -185.01c0 -113 -59 -188 -170 -188c-113 0 -175 73 -175 187z" />
    <glyph glyph-name="pi" unicode="&#x3c0;" horiz-adv-x="658" 
d="M194 565h273v-547h24v547h130v24h-589v-24h138v-547h24v547z" />
    <glyph glyph-name="plus" unicode="+" horiz-adv-x="786" 
d="M401 321v267h-24v-267h-279v-24h279v-279h24v279h287v24h-287z" />
    <glyph glyph-name="plusminus" unicode="&#xb1;" horiz-adv-x="845" 
d="M430 321v267h-24v-267h-278v-24h278v-255h-278v-24h278h24h287v24h-287v255h287v24h-287z" />
    <glyph glyph-name="product" unicode="&#x220f;" horiz-adv-x="1091" 
d="M272 800h-8h-2h-13h-167v-21h167v-758h-170v-21h170h12h11h171v21h-171v758h544v-758h-170v-21h170h13h11h171v21h-171v758h170v21h-170h-15h-6h-3h-544z" />
    <glyph glyph-name="q" unicode="q" horiz-adv-x="809" 
d="M612 434.23v-304.465c-62.1895 -69.6032 -145.003 -112.765 -237 -112.765c-147 0 -241 97 -241 248s90 251 238 251c85.7702 0 171.54 -33.6039 240 -81.77zM612 100.014v-378.932l-168 0.918033v-22h168h15h11h159v22l-159 -0.935294v789.935h159v22h-159h-11h-15
v-73.76c-67.6906 48.2671 -154.757 78.76 -241 78.76c-163 0 -262 -109 -262 -274s103 -269 266 -269c91.2686 0 175.188 41.6457 237 105.014z" />
    <glyph glyph-name="question" unicode="?" horiz-adv-x="558" 
d="M120 672c33 11 58 16 92 16c120 0 209 -57 209 -169c0 -122 -99 -185 -230 -185h-2v-112h25v89.628c132.449 7.33094 230 78.7127 230 207.372c0 124 -100 191 -230 191c-38 0 -66 -6 -102 -16zM188 11h28c0 -9 -5 -13 -14 -13s-14 5 -14 13zM188 11h28c0 9 -5 14 -14 14
s-14 -6 -14 -14z" />
    <glyph glyph-name="questiondown" unicode="&#xbf;" horiz-adv-x="558" 
d="M438 36c-33 -11 -58 -16 -92 -16c-120 0 -209 57 -209 169c0 122 99 185 230 185h2v112h-25v-89.628c-132.449 -7.33094 -230 -78.7127 -230 -207.372c0 -124 100 -191 230 -191c38 0 66 6 102 16zM370 697h-28c0 9 5 13 14 13s14 -5 14 -13zM370 697h-28
c0 -9 5 -14 14 -14s14 6 14 14z" />
    <glyph glyph-name="quotedbl" unicode="&#x22;" horiz-adv-x="567" 
d="M406 627v188h-23v-188h23zM185 627v188h-24v-188h24z" />
    <glyph glyph-name="quotedblbase" unicode="&#x201e;" horiz-adv-x="509" 
d="M225 -146l130 177h-33l-122 -177h25zM80 -146l129 177h-32l-123 -177h26z" />
    <glyph glyph-name="quotedblleft" unicode="&#x201c;" horiz-adv-x="414" 
d="M217 853l-129 -177h32l122 177h-25zM364 853l-129 -177h32l122 177h-25z" />
    <glyph glyph-name="quotedblright" unicode="&#x201d;" horiz-adv-x="354" 
d="M180 671l129 177h-33l-122 -177h26zM33 671l129 177h-33l-122 -177h26z" />
    <glyph glyph-name="quoteleft" unicode="&#x2018;" horiz-adv-x="403" 
d="M276 722l-129 -177h33l122 177h-26z" />
    <glyph glyph-name="quoteright" unicode="&#x2019;" horiz-adv-x="400" 
d="M173 545l129 177h-33l-122 -177h26z" />
    <glyph glyph-name="quotesinglbase" unicode="&#x201a;" horiz-adv-x="363" 
d="M80 -146l129 177h-32l-123 -177h26z" />
    <glyph glyph-name="quotesingle" unicode="'" horiz-adv-x="346" 
d="M185 627v188h-24v-188h24z" />
    <glyph glyph-name="r" unicode="r" horiz-adv-x="591" 
d="M255 401.312c71.4069 95.7731 167.273 114.688 283 114.688v22c-115.933 0 -216.383 -18.9243 -283 -104.641v99.6408h-13h-11h-171v-22h171v-489l-171 -2.84217e-14v-22h171h12h12h158v22h-158v379.312z" />
    <glyph glyph-name="racute" unicode="&#x155;" horiz-adv-x="591" 
d="M218 659c65 55 130 110 196 166h-35c-66 -55 -131 -111 -196 -166h35zM255 401.312c71.4069 95.7731 167.273 114.688 283 114.688v22c-115.933 0 -216.383 -18.9243 -283 -104.641v99.6408h-13h-11h-171v-22h171v-489l-171 -2.84217e-14v-22h171h12h12h158v22h-158
v379.312z" />
    <glyph glyph-name="radical" unicode="&#x221a;" horiz-adv-x="815" 
d="M434 0c109 241 218 481 327 722h-24c-107.986 -234.457 -214.08 -467.967 -321.042 -702.372c-97.7796 212.186 -29.1777 61.2398 -138.958 295.372h-12h-11h-172v-22h182.133c96.1121 -208.687 27.435 -59.7458 134.867 -293h8h18h9z" />
    <glyph glyph-name="rcaron" unicode="&#x159;" horiz-adv-x="587" 
d="M64 823c65 -55 130 -111 196 -166h7h28h7c66 55 131 111 196 166h-35c-60.3992 -52.0363 -120.798 -103.209 -182 -154.321c-61.2016 51.1117 -121.601 102.284 -182 154.321h-35zM250 401.206c72.3359 95.8654 168.23 114.794 284 114.794v22
c-117.439 0 -217.504 -19.1121 -284 -105.919v100.919h-12h-12h-171v-22h171v-489l-170 -2.84217e-14v-22h170h12h12h159v22h-159v379.206z" />
    <glyph glyph-name="rcommaaccent" unicode="&#x157;" horiz-adv-x="591" 
d="M225 -300l129 177h-33l-122 -177h26zM255 401.312c71.4069 95.7731 167.273 114.688 283 114.688v22c-115.933 0 -216.383 -18.9243 -283 -104.641v99.6408h-13h-11h-171v-22h171v-489l-171 -2.84217e-14v-22h171h12h12h158v22h-158v379.312z" />
    <glyph glyph-name="registered" unicode="&#xae;" horiz-adv-x="969" 
d="M410 295h66c11.5402 0 22.6311 0.516619 33.1482 1.64412c32.2839 -49.0191 64.5678 -98.757 96.8518 -147.644h101v21h-84c-29.2043 43.3354 -59.2961 86.6708 -88.6032 130.842c45.7205 10.7345 75.6032 37.5775 75.6032 91.1577c0 68 -53 99 -125 99h-75h-122v-21h99
v-300h-99v-21h98h1h110v21h-87v125zM410 470h70c61 0 106 -24 106 -80c0 -59 -45 -74 -107 -74h-69v154zM410 470v21zM114 319c0 -205 163 -323 380 -323c209 0 361 122 361 323c0 203 -156 327 -366 327c-215 0 -375 -121 -375 -327zM137 319c0 193 149 306 352 306
c197 0 342 -115 342 -307c0 -187 -142 -301 -335 -301c-203 0 -359 108 -359 302z" />
    <glyph glyph-name="ring" unicode="&#x2da;" horiz-adv-x="429" 
d="M42 732c0 62 43 96 107 96c69 0 116 -31 116 -96c0 -62 -46 -95 -113 -95c-65 0 -110 33 -110 95zM20 732c0 -74 54 -116 132 -116c80 0 136 40 136 116c0 78 -57 117 -139 117c-77 0 -129 -41 -129 -117z" />
    <glyph glyph-name="ruble" horiz-adv-x="806" 
d="M440 328c179 3 286 35 286 196c0 162 -107 198 -287 198h-144h-8h-3h-14h-168v-22h168v-349h-120v-23h120v-119h-120v-23h120v-164h-168v-22h168h14h11h171v22h-171v164h334v23h-334v119h145zM295 700h141c166 0 265 -29 265 -177c0 -146 -100 -172 -264 -172h-142v349z
" />
    <glyph glyph-name="rupee" horiz-adv-x="990" 
d="M0 0h990v20h-990v-20z" />
    <glyph glyph-name="s" unicode="s" horiz-adv-x="629" 
d="M130 67.1506v103.849h-21v-120h1c73 -32 141 -56 217 -56c112 0 192 39 192 143c-1 105 -94 119 -200 149c-87 23 -158 48 -158 129c0 75 61 100 145 100c57.058 0 120.892 -16.9387 165 -38.3453v-106.655h22v120c-47 25 -121 47 -186 47c-97 0 -168 -33 -168 -122
c0 -95 75 -123 172 -150c96 -28 185 -36 184 -128c0 -89 -70 -121 -164 -121c-70.9027 0 -132.625 21.115 -201 50.1506z" />
    <glyph glyph-name="sacute" unicode="&#x15b;" horiz-adv-x="629" 
d="M239 659c66 56 131 111 196 166h-34c-66 -55 -131 -111 -196 -166h34zM130 67.1506v103.849h-21v-120h1c73 -32 141 -56 217 -56c112 0 192 39 192 143c-1 105 -94 119 -200 149c-87 23 -158 48 -158 129c0 75 61 100 145 100c57.058 0 120.892 -16.9387 165 -38.3453
v-106.655h22v120c-47 25 -121 47 -186 47c-97 0 -168 -33 -168 -122c0 -95 75 -123 172 -150c96 -28 185 -36 184 -128c0 -89 -70 -121 -164 -121c-70.9027 0 -132.625 21.115 -201 50.1506z" />
    <glyph glyph-name="scaron" unicode="&#x161;" horiz-adv-x="631" 
d="M87 824c65 -55 130 -111 196 -166h8h27h7c66 55 131 111 196 166h-34c-61.4634 -52.1507 -122.06 -103.434 -182.596 -154.658c-61.3398 51.2239 -121.872 102.507 -182.404 154.658h-35zM127 67.5293v103.471h-21v-120h1c73 -32 141 -56 217 -56c112 0 192 39 192 143
c-1 105 -93 119 -200 149c-86 23 -157 48 -157 129c0 75 61 100 144 100c56.9695 0 121.538 -16.8862 165 -38.2456v-106.754h22v120c-46 25 -121 47 -186 47c-97 0 -167 -33 -167 -122c0 -95 74 -123 171 -150c96 -28 185 -36 185 -128c0 -89 -71 -121 -165 -121
c-71.2106 0 -133.161 21.2987 -201 50.5293z" />
    <glyph glyph-name="scedilla" unicode="&#x15f;" horiz-adv-x="629" 
d="M267 -92c19 10 34 13 55 13c39 0 65 -20 65 -57c0 -42 -35 -55 -80 -55c-32 0 -55 2 -84 16l-9 -16c31 -16 57 -21 92 -21c60 0 105 21 105 76c0 50 -35 78 -86 78c-14.8151 0 -27.3905 -1.95971 -39.8001 -5.2866c12.123 18.3384 23.9616 36.5288 35.8001 54.2866
l-5.00097 4.16747c3.64917 -0.111041 7.31566 -0.167474 11.001 -0.167474c112 0 192 39 192 143c-1 105 -94 119 -200 149c-87 23 -158 48 -158 129c0 75 61 100 145 100c57.058 0 120.892 -16.9387 165 -38.3453v-106.655h22v120c-47 25 -121 47 -186 47
c-97 0 -168 -33 -168 -122c0 -95 75 -123 172 -150c96 -28 185 -36 184 -128c0 -89 -70 -121 -164 -121c-70.9027 0 -132.625 21.115 -201 50.1506v103.849h-21v-120h1c63.1236 -27.6706 122.509 -49.3595 186.56 -54.7217
c-15.6411 -23.7594 -30.6007 -47.5189 -45.5603 -71.2783l15 -17c0.139668 0.205827 0.279282 0.411653 0.418843 0.61748z" />
    <glyph glyph-name="scommaaccent" unicode="&#x219;" horiz-adv-x="629" 
d="M231 -311l129 178h-32l-122 -178h25zM130 67.1506v103.849h-21v-120h1c73 -32 141 -56 217 -56c112 0 192 39 192 143c-1 105 -94 119 -200 149c-87 23 -158 48 -158 129c0 75 61 100 145 100c57.058 0 120.892 -16.9387 165 -38.3453v-106.655h22v120
c-47 25 -121 47 -186 47c-97 0 -168 -33 -168 -122c0 -95 75 -123 172 -150c96 -28 185 -36 184 -128c0 -89 -70 -121 -164 -121c-70.9027 0 -132.625 21.115 -201 50.1506z" />
    <glyph glyph-name="section" unicode="&#xa7;" horiz-adv-x="641" 
d="M130 28c65 -40 118 -57 195 -57c98 0 172 38 172 129c-1.44988 63.0698 -40.7385 95.6584 -96.5308 117.577c77.7528 22.0031 130.531 63.2259 130.531 143.423c-1 106 -106 115 -214 144c-74 21 -134 51 -134 122s57 104 139 104
c59.8196 0 101.293 -11.3572 153 -34.0716v-107.928h22v120c-60 29 -106 43 -173 43c-96 0 -164 -40 -164 -125c0 -61.2345 35.1322 -95.7016 87.0734 -120.059c-75.1025 -23.5768 -128.073 -62 -128.073 -139.941c0 -100 94 -119 198 -147c81 -25 157 -43 157 -120
c0 -72 -64 -108 -148 -108c-69.4301 0 -116.246 15.378 -174 46.9943v109.006h-22v-120zM366.714 229.145c-11.5142 3.48333 -23.4658 6.72448 -35.7137 9.85451c-95 28 -188 41 -188 128c0 74.911 53.9491 107.231 129.619 129.187
c10.3657 -3.94536 21.1964 -7.6404 32.3806 -11.1866c99 -29 203 -31 203 -124c0 -75.0037 -57.878 -116.799 -141.286 -131.855z" />
    <glyph glyph-name="semicolon" unicode=";" horiz-adv-x="479" 
d="M161 -99c44 60 87 121 130 181h-31c-41 -60 -82 -121 -123 -181h24zM254 427h29c0 -9 -6 -14 -15 -14s-14 6 -14 14zM254 427h29c0 9 -6 14 -15 14s-14 -6 -14 -14z" />
    <glyph glyph-name="seven" unicode="7" horiz-adv-x="685" 
d="M638 722h-549v-16v-6v-114h22v114h511.734c-475.471 -685.201 9.07044 13.5229 -486.734 -700h30c485 699 0 0 485 700v22h-13z" />
    <glyph glyph-name="six" unicode="6" horiz-adv-x="737" 
d="M133.736 284.412c21.0384 250.805 230.883 361.424 498.264 431.588l-6 18c-298 -72 -519 -198 -519 -493c0 -159 109 -246 273 -246c144 0 239 72 239 208c0 137 -98 206 -241 206c-109.811 0 -193.127 -43.4236 -244.264 -124.588zM132.025 238.028
c50.5717 97.6736 135.897 146.972 243.975 146.972c130 0 217 -59 217 -183c0 -117 -86 -182 -212 -182c-148.615 0 -247.167 76.5662 -248.975 218.028z" />
    <glyph glyph-name="slash" unicode="/" horiz-adv-x="664" 
d="M91 -67c169 303 338 607 506 910h-24c-169 -303 -337 -607 -506 -910h24z" />
    <glyph glyph-name="softhyphen" horiz-adv-x="650" 
d="M152 260h346v24h-346v-24z" />
    <glyph glyph-name="space" unicode=" " horiz-adv-x="240" 
 />
    <glyph glyph-name="sterling" unicode="&#xa3;" horiz-adv-x="670" 
d="M571 675c-54 32 -96 48 -159 48c-126.704 0 -191.013 -96.6512 -191.013 -229.671c0 -33.161 3.99664 -68.5821 12.0196 -105.329h-111.007v-21h115.854c9.658 -42.8596 14.5873 -84.3218 14.5873 -122.746c0 -127.973 -54.6771 -222.254 -171.441 -222.254v-21h478v21
h-384.433c69.637 36.4898 101.804 117.432 101.804 218.195c0 39.6943 -4.9919 82.4645 -14.6515 126.805h241.281v21h-246.039c-7.45018 34.2515 -11.1133 67.4402 -11.1133 98.6055c0 123.614 57.6292 215.394 165.153 215.394c58 0 98 -13 147 -44z" />
    <glyph glyph-name="summation" unicode="&#x2211;" horiz-adv-x="669" 
d="M492 386l-378 315h413v-93h21v114h-465v-21l375 -316l-376 -364v-21h7h459v116h-21v-95h-416.075z" />
    <glyph glyph-name="t" unicode="t" horiz-adv-x="535" 
d="M472 48c-42 -19 -72 -30 -117 -30c-82 0 -125 40 -125 127v366h270v22h-270v118l-24 -14v-104h-171v-22h171v-368c0 -97 52 -148 146 -148c50 0 83 13 129 32z" />
    <glyph glyph-name="tcaron" unicode="&#x165;" horiz-adv-x="524" 
d="M351.238 -4.99888c0.253658 0 0.507623 -0.00111943 0.761896 -0.00111943c50 0 83 13 129 32l-9 21c-37.7445 -17.0749 -65.7975 -27.6888 -103.755 -29.6643l42.7554 58.6643h-32l-40.2781 -58.4363c-71.4032 5.12835 -108.722 45.3873 -108.722 126.436v366h270v22
h-270v118l-24 -14v-104h-171v-22h171v-368c0 -86.7619 41.6023 -136.722 117.651 -146.301l-66.651 -96.6986h25z" />
    <glyph glyph-name="tcedilla" horiz-adv-x="535" 
d="M472 48c-42 -19 -72 -30 -117 -30c-82 0 -125 40 -125 127v366h270v22h-270v118l-24 -14v-104h-171v-22h171v-368c0 -89.0284 43.8043 -139.307 123.681 -146.969c-15.0969 -23.6769 -30.7736 -47.3537 -45.6812 -71.0306l0.68057 -0.723106
c-0.226296 -0.0919429 -0.453149 -0.184241 -0.68057 -0.276894l16 -16c19 10 34 12 56 12c39 0 65 -19 65 -57c0 -41 -35 -55 -81 -55c-32 0 -55 3 -83 17l-10 -17c32 -15 57 -21 92 -21c60 0 105 22 105 76c0 50 -35 78 -86 78
c-14.9872 0 -27.3959 -1.719 -39.833 -5.00364c11.9443 18.2838 23.8887 36.4236 35.833 55.0036l-4.8185 4.01542c0.93526 -0.0102762 1.87476 -0.0154168 2.8185 -0.0154168c50 0 83 13 129 32z" />
    <glyph glyph-name="tcommaaccent" unicode="&#x163;" horiz-adv-x="535" 
d="M264 -311l130 177h-33l-122 -177h25zM472 48c-42 -19 -72 -30 -117 -30c-82 0 -125 40 -125 127v331h269v22h-269v153l-24 -14v-139h-171v-22h171v-333c0 -97 52 -148 146 -148c50 0 83 13 129 32z" />
    <glyph glyph-name="thorn" unicode="&#xfe;" horiz-adv-x="746" 
d="M136 454.708v345.292h-11h-13h-170v-22h170v-1056h-172v-21h172v-1h11h13h158v22l-158 -0.923977v371.815c70.9333 -61.9494 141.175 -97.8912 239 -97.8912c162 0 259 117 258 282c0 157 -100 261 -256 261c-97.0555 0 -185.39 -36.4708 -241 -83.2918zM136 117.697
v312.232c49.858 46.9788 140.838 86.0713 240 86.0713c144 0 234 -95 234 -240c0.0485349 -2.47528 0.0727282 -4.93851 0.0727282 -7.38945c0 -148.342 -88.626 -251.618 -233.018 -251.618c-0.683602 0 -1.36845 0.00231481 -2.05455 0.00695061
c-97.774 0 -165.913 38.239 -239 100.697z" />
    <glyph glyph-name="three" unicode="3" horiz-adv-x="697" 
d="M129 626c40 42 111 75 189 75c119 0 204 -40 204 -151c0 -112 -105 -156 -220 -156v-19c131 0 260 -47 260 -181c0 -131 -117 -173 -243 -173c-77 0 -132 17 -201 51l-13 -16c72 -39 130 -61 213 -61c156 0 267 52 267 200c0 110.12 -71.7689 170.126 -183.674 190.724
c86.0371 20.7597 144.674 72.7416 144.674 165.276c0 124 -94 176 -225 176c-87 0 -163 -39 -207 -88z" />
    <glyph glyph-name="threequarters" unicode="&#xbe;" horiz-adv-x="1229" 
d="M86 373c42 -22 85 -33 132 -33c5.17516 -0.150733 10.2973 -0.228255 15.3583 -0.228255c95.6672 0 169.491 27.7 166.642 112.228c0 73.1911 -53.9854 93.8826 -126.403 100.416c63.1773 10.8149 108.403 37.0476 108.403 101.584c0 78 -66 105 -152 105
c-52 0 -100 -20 -136 -53l14 -13c35 27 74 45 119 45c74 0 132 -19 132 -86c0 -79 -93 -83 -184 -89v-7v-11v-4c106 -5 202 -5 202 -90c0 -71.2455 -62.2647 -90.1526 -143.076 -90.1526c-4.25858 0 -8.56866 0.0525059 -12.9239 0.152625c-44 0 -84 8 -123 28zM390 -93
l507 850h-27l-506 -850h26zM1011 -104h174v21h-162v98h123v20h-123v286v9h-23l-280 -295l13 -20h267v-98h-162v-21h173zM1000 296.731v-261.731h-248.046z" />
    <glyph glyph-name="threesuperior" unicode="&#xb3;" horiz-adv-x="604" 
d="M149 321c42 -23 85 -33 132 -33c5.33526 -0.155396 10.6142 -0.235665 15.8279 -0.235665c95.4391 0 169.017 26.8975 166.172 112.236c0 72.1636 -53.5042 93.2772 -125.434 100.139c62.67 10.9046 107.434 37.6549 107.434 101.861c0 78 -66 104 -152 104
c-52 0 -100 -19 -136 -52l14 -14c35 28 74 46 119 46c74 0 132 -19 132 -86c0 -80 -93 -83 -184 -89v-7v-11v-4c106 -5 202 -5 202 -90c0 -71.409 -62.5508 -91.1457 -143.633 -91.1457c-4.07739 0 -8.20164 0.0499101 -12.3672 0.145669c-44 0 -84 9 -123 28z" />
    <glyph glyph-name="tilde" unicode="&#x2dc;" horiz-adv-x="669" 
d="M431 730c-16 -56 -36 -103 -89 -103c-44 0 -73 18 -106 49c-35 33 -62 55 -110 55c-69 0 -102 -49 -119 -119l19 -6c16 60 42 104 100 104c41 0 64 -20 93 -48c37 -35 70 -56 121 -56c67 0 91 54 111 120z" />
    <glyph glyph-name="trademark" unicode="&#x2122;" horiz-adv-x="1257" 
d="M641.376 298c18.2937 113.483 37.2586 226.294 55.5915 339.737c32.121 -119.689 65.0767 -240.213 98.0325 -360.737h10h14h10c32.4516 122.171 63.9922 244.341 95.4913 366.512c19.4433 -114.462 39.5541 -230.311 58.9751 -345.512zM1008 298
c-21.4677 121 -43.8877 242 -65.4015 363h109.401v20h-139c-33.691 -125.406 -101.073 -378.193 -101.073 -378.193c-34.6423 126.394 -69.2846 252.732 -103.927 378.193h-133v-21h104.476l-61.3065 -362h-1.16935zM637 277h1zM324 661h23h155v-75h21v95h-176v1
l-1.09524 -1h-210.905v-95h21v75h168zM347 681h-1.09524l-21.9048 -20v-363h-101v-21h101h121v21h-98v363zM347 298h-23z" />
    <glyph glyph-name="turkishlira" horiz-adv-x="977" 
d="M873 352c0 -219 -127 -330 -351 -330h-224v340h338v23h-338v144h338v23h-338v148h169v22h-169h-11h-2h-12h-168v-22h168v-148h-122v-23h122v-144h-122v-23h122v-340h-168v-22h168h14h11h221c241 0 378 118 378 352h-24z" />
    <glyph glyph-name="two" unicode="2" horiz-adv-x="728" 
d="M132 563c58 88 122 140 226 140c120 0 200 -58 200 -177c0 -139 -96 -214 -200 -289c-90 -72 -181 -144 -270 -215v-22h11h501v22v120h-22v-120h-451.582c82.0326 65.8385 164.712 132.324 246.582 198c109 79 209 160 209 307c0 132 -87 200 -222 200
c-113 0 -191 -56 -247 -152c20 -12 0 0 19 -12z" />
    <glyph glyph-name="twosuperior" unicode="&#xb2;" horiz-adv-x="666" 
d="M193 611c36 49 79 75 145 75c74 0 128 -31 128 -98c0 -60 -45 -84 -93 -120c-78 -52 -156 -103 -233 -154v-21h10h362v118h-21v-97h-309.28c69.1953 45.7847 137.738 91.016 206.28 137c53 41 100 71 100 138c0 80 -63 118 -149 118c-74 0 -127 -25 -164 -85z" />
    <glyph glyph-name="u" unicode="u" horiz-adv-x="811" 
d="M615 158.115c-47.5203 -75.9324 -129.926 -141.115 -220 -141.115c-119 0 -190 54 -190 170v346h-12h-12h-170v-22h170v-326c0 -130 79 -190 211 -190c90.6899 0 172.077 55.8182 223 126.499v-121.499h12h12h158v22h-158v511h-12h-12h-171v-22h171v-352.885z" />
    <glyph glyph-name="uacute" unicode="&#xfa;" horiz-adv-x="811" 
d="M328 659c65 55 131 110 196 166h-34c-66 -55 -131 -111 -196 -166h34zM615 158.115c-47.5203 -75.9324 -129.926 -141.115 -220 -141.115c-119 0 -190 54 -190 170v346h-12h-12h-170v-22h170v-326c0 -130 79 -190 211 -190c90.6899 0 172.077 55.8182 223 126.499
v-121.499h12h12h158v22h-158v511h-12h-12h-171v-22h171v-352.885z" />
    <glyph glyph-name="ucircumflex" unicode="&#xfb;" horiz-adv-x="811" 
d="M613 658c-66 55 -131 111 -197 166h-7h-27h-7c-66 -55 -131 -111 -196 -166h34c60.5046 51.1962 121.876 102.392 182.5 154.395c60.6244 -52.0027 121.995 -103.199 182.5 -154.395h35zM615 158.115c-47.5203 -75.9324 -129.926 -141.115 -220 -141.115
c-119 0 -190 54 -190 170v346h-12h-12h-170v-22h170v-326c0 -130 79 -190 211 -190c90.6899 0 172.077 55.8182 223 126.499v-121.499h12h12h158v22h-158v511h-12h-12h-171v-22h171v-352.885z" />
    <glyph glyph-name="udieresis" unicode="&#xfc;" horiz-adv-x="811" 
d="M449 668h36c0 -10 -8 -17 -19 -17s-17 7 -17 17zM449 668h36c0 11 -8 17 -19 17s-17 -6 -17 -17zM306 668h36c0 -10 -7 -17 -19 -17c-10 0 -17 7 -17 17zM306 668h36c0 11 -7 17 -19 17c-10 0 -17 -6 -17 -17zM615 158.115
c-47.5203 -75.9324 -129.926 -141.115 -220 -141.115c-119 0 -190 54 -190 170v346h-12h-12h-170v-22h170v-326c0 -130 79 -190 211 -190c90.6899 0 172.077 55.8182 223 126.499v-121.499h12h12h158v22h-158v511h-12h-12h-171v-22h171v-352.885z" />
    <glyph glyph-name="ugrave" unicode="&#xf9;" horiz-adv-x="811" 
d="M477 658c-65 55 -130 111 -196 166h-35c66 -56 131 -111 196 -166h35zM615 158.115c-47.5203 -75.9324 -129.926 -141.115 -220 -141.115c-119 0 -190 54 -190 170v346h-12h-12h-170v-22h170v-326c0 -130 79 -190 211 -190c90.6899 0 172.077 55.8182 223 126.499
v-121.499h12h12h158v22h-158v511h-12h-12h-171v-22h171v-352.885z" />
    <glyph glyph-name="uhungarumlaut" unicode="&#x171;" horiz-adv-x="811" 
d="M443 608l129 178h-32l-122 -178h25zM296 608l129 178h-32l-122 -178h25zM615 158.115c-47.5203 -75.9324 -129.926 -141.115 -220 -141.115c-119 0 -190 54 -190 170v346h-12h-12h-170v-22h170v-326c0 -130 79 -190 211 -190c90.6899 0 172.077 55.8182 223 126.499
v-121.499h12h12h158v22h-158v511h-12h-12h-171v-22h171v-352.885z" />
    <glyph glyph-name="umacron" unicode="&#x16b;" horiz-adv-x="811" 
d="M522 679h-267v-21h267v21zM615 158.115c-47.5203 -75.9324 -129.926 -141.115 -220 -141.115c-119 0 -190 54 -190 170v346h-12h-12h-170v-22h170v-326c0 -130 79 -190 211 -190c90.6899 0 172.077 55.8182 223 126.499v-121.499h12h12h158v22h-158v511h-12h-12h-171v-22
h171v-352.885z" />
    <glyph glyph-name="underscore" unicode="_" horiz-adv-x="809" 
d="M-1 -210h810v21h-810v-21z" />
    <glyph glyph-name="uogonek" unicode="&#x173;" horiz-adv-x="811" 
d="M617.111 0h9.88945h12h158v22h-158v511h-12h-12h-171v-22h171v-352.885c-47.5203 -75.9324 -129.926 -141.115 -220 -141.115c-119 0 -190 54 -190 170v346h-12h-12h-170v-22h170v-326c0 -130 79 -190 211 -190c90.6899 0 172.077 55.8182 223 126.499v-103.713
c-61.1349 -22.8381 -113 -44.6338 -113 -108.786c0 -59 42 -94 104 -94c36 0 61 11 92 28c-9 14 -2 2 -11 16c-27 -15 -48 -23 -79 -23c-49 0 -83 26 -83 73c0 53.5976 42.4614 70.1381 92.1106 91z" />
    <glyph glyph-name="uring" unicode="&#x16f;" horiz-adv-x="811" 
d="M286 774c0 61 42 96 107 96c69 0 116 -32 116 -96c0 -63 -46 -95 -113 -95c-66 0 -110 32 -110 95zM263 774c0 -75 54 -116 133 -116c80 0 136 39 136 116s-57 117 -139 117c-78 0 -130 -42 -130 -117zM615 158.115c-47.5203 -75.9324 -129.926 -141.115 -220 -141.115
c-119 0 -190 54 -190 170v346h-12h-12h-170v-22h170v-326c0 -130 79 -190 211 -190c90.6899 0 172.077 55.8182 223 126.499v-121.499h12h12h158v22h-158v511h-12h-12h-171v-22h171v-352.885z" />
    <glyph glyph-name="v" unicode="v" horiz-adv-x="855" 
d="M421.268 21.1309c-75.3041 163.55 -149.797 326.322 -224.255 489.869h164.986v22h-175h-3h-24h-158v-22h168.137c78.621 -170.589 157.242 -340.335 235.863 -511h5h20h5c83.4149 170.665 165.911 340.411 248.368 511h167.632v22h-157h-25h-177v-22h166.31z" />
    <glyph glyph-name="w" unicode="w" horiz-adv-x="1241" 
d="M858 0h2c71.9094 170.665 143.819 340.411 216.61 511h162.39v22h-153h-27h-2h-178v-22h170.852c-67.3794 -162.003 -134.759 -323.245 -202.138 -485.236c-67.6609 169.322 -136.14 337.826 -203.714 507.236h-6h-19h-7
c-75.1633 -169.355 -151.232 -337.805 -226.483 -507.073c-65.4501 161.936 -130.112 323.124 -194.74 485.073h173.223v22h-180h-2h-26h-154v-22h162.906c69.1088 -170.589 139.061 -340.335 208.094 -511h1h22h1c77.625 170.583 154.332 340.248 231 510.755
c69 -170.507 138 -340.172 207 -510.755h2h21z" />
    <glyph glyph-name="x" unicode="x" horiz-adv-x="873" 
d="M422.469 277.744c-80.2539 -85.1842 -160.638 -170.359 -240.819 -255.744h-172.65v-22h152h30h3h174v22h-153.597c74.1953 79.9663 148.584 159.747 223.076 239.524c73.8178 -79.7772 147.536 -159.558 221.247 -239.524h-155.726v-22h176h1h31h152v22h-172.398
c-79.255 85.4614 -158.51 170.711 -237.765 255.971c72.4836 77.6125 145.059 155.233 217.642 233.029h172.521v22h-152h-29h-1h-175v-22h155.469c-67.6261 -72.4128 -135.563 -144.674 -203.608 -216.917c-67.1541 72.2437 -134.308 144.505 -201.462 216.917h153.602v22
h-174h-1h-29h-153v-22h173.393c72.1812 -77.8718 144.179 -155.568 216.077 -233.256z" />
    <glyph glyph-name="y" unicode="y" horiz-adv-x="862" 
d="M407.634 75.3638c-68.2972 -117.719 -136.594 -235.456 -204.892 -353.364h-166.742v-22h154h25h2c156.753 270.666 313.505 540.384 470.258 811h166.742v22h-154h-27h-1h-177v-22h165.258c-79.6252 -137.464 -159.25 -274.697 -238.876 -411.939
c-72.3575 137.313 -145.531 274.626 -219.521 411.939h169.139v22h-180h-1h-27h-154v-22h165.91c78.0645 -144.477 154.522 -291.364 232.723 -435.636z" />
    <glyph glyph-name="yacute" unicode="&#xfd;" horiz-adv-x="862" 
d="M353 661c65 55 130 111 196 166h-34c-66 -55 -131 -111 -197 -166h35zM407.634 75.3638c-68.2972 -117.719 -136.594 -235.456 -204.892 -353.364h-166.742v-22h154h25h2c156.753 270.666 313.505 540.384 470.258 811h166.742v22h-154h-27h-1h-177v-22h165.258
c-79.6252 -137.464 -159.25 -274.697 -238.876 -411.939c-72.3575 137.313 -145.531 274.626 -219.521 411.939h169.139v22h-180h-1h-27h-154v-22h165.91c78.0645 -144.477 154.522 -291.364 232.723 -435.636z" />
    <glyph glyph-name="ydieresis" unicode="&#xff;" horiz-adv-x="862" 
d="M474 671h35c0 10 -7 17 -18 17s-17 -7 -17 -17zM474 671h35c0 -11 -7 -17 -18 -17s-17 6 -17 17zM331 671h36c0 10 -8 17 -19 17c-10 0 -17 -7 -17 -17zM331 671h36c0 -11 -8 -17 -19 -17c-10 0 -17 6 -17 17zM407.634 75.3638
c-68.2972 -117.719 -136.594 -235.456 -204.892 -353.364h-166.742v-22h154h25h2c156.753 270.666 313.505 540.384 470.258 811h166.742v22h-154h-27h-1h-177v-22h165.258c-79.6252 -137.464 -159.25 -274.697 -238.876 -411.939
c-72.3575 137.313 -145.531 274.626 -219.521 411.939h169.139v22h-180h-1h-27h-154v-22h165.91c78.0645 -144.477 154.522 -291.364 232.723 -435.636z" />
    <glyph glyph-name="yen" unicode="&#xa5;" horiz-adv-x="1029" 
d="M506.803 350.686c-3.93608 -5.22714 -7.87058 -10.4558 -11.8034 -15.6861v-83h-252v-23h252v-207h-171v-21h171v-1h12h11h171v22l-171 -0.93956v207.94h256v23h-256v83c3.292 4.33335 6.58513 8.66669 9.87935 13h246.121v23h-228.625
c83.933 110.276 168.529 220.485 253.163 330h170.462v21h-182h-180v-21h165.8c-88.9576 -117.011 -177.873 -233.284 -265.997 -350.314zM518 335c-3.72899 5.22869 -11.1966 15.6861 -11.1966 15.6861c-83.4196 116.771 -168.345 233.543 -251.81 350.314h167.006v21h-180
h-2h-25h-155v-21h170.14c79.3048 -110 158.649 -220 238.653 -330h-225.793v-23h242.53c3.1554 -4.33333 6.3119 -8.66667 9.46952 -13z" />
    <glyph glyph-name="z" unicode="z" horiz-adv-x="671" 
d="M560 22h-436.128c141.547 162.333 0.00764793 8.347e-06 430.128 489v22h-445v-11v-11v-109h22v109h392.122c-142.537 -162.333 -0.00155039 -8.347e-06 -430.122 -489v-22h489v11v11v109h-22v-109z" />
    <glyph glyph-name="zacute" unicode="&#x17a;" horiz-adv-x="671" 
d="M264 659c65 55 130 111 196 166h-35c-66 -55 -131 -111 -196 -166h35zM560 22h-436.128c141.547 162.333 0.00764793 8.347e-06 430.128 489v22h-445v-11v-11v-109h22v109h392.122c-142.537 -162.333 -0.00155039 -8.347e-06 -430.122 -489v-22h489v11v11v109h-22v-109z
" />
    <glyph glyph-name="zcaron" unicode="&#x17e;" horiz-adv-x="671" 
d="M114 823c65 -55 130 -111 196 -166h8h27h7c66 55 131 111 196 166h-34c-61.4634 -51.2195 -122.06 -102.439 -182.596 -154.466c-61.3398 52.0271 -121.872 103.247 -182.404 154.466h-35zM560 22h-436.128c141.547 162.333 0.00764793 8.347e-06 430.128 489v22h-445
v-11v-11v-109h22v109h392.122c-142.537 -162.333 -0.00155039 -8.347e-06 -430.122 -489v-22h489v11v11v109h-22v-109z" />
    <glyph glyph-name="zdotaccent" unicode="&#x17c;" horiz-adv-x="671" 
d="M312 670h35c0 10 -7 17 -18 17s-17 -7 -17 -17zM312 670h35c0 -11 -7 -17 -18 -17s-17 6 -17 17zM560 22h-436.128c141.547 162.333 0.00764793 8.347e-06 430.128 489v22h-445v-11v-11v-109h22v109h392.122c-142.537 -162.333 -0.00155039 -8.347e-06 -430.122 -489v-22
h489v11v11v109h-22v-109z" />
    <glyph glyph-name="zero" unicode="0" horiz-adv-x="901" 
d="M119 360c0 -222 116 -365 334 -365c216 0 327 145 327 368c0 222 -112 364 -328 364c-218 0 -333 -143 -333 -367zM144 360c0 209 105 343 307 343c201 0 305 -135 305 -341s-104 -342 -302 -342c-201 0 -310 133 -310 340z" />
    </font>
</defs>
</svg>
