<?xml version="1.0" standalone="no"?>
<!DOCTYPE svg PUBLIC "-//W3C//DTD SVG 1.1//EN" "http://www.w3.org/Graphics/SVG/1.1/DTD/svg11.dtd" >
<svg xmlns="http://www.w3.org/2000/svg" xmlns:xlink="http://www.w3.org/1999/xlink" version="1.1">
<metadata>
Created by FontForge 20141219 at Thu Feb 19 09:37:20 2015
 By Simon Egli
Copyright 2015 Simon Egli
</metadata>
<defs>
<font id="Sean" horiz-adv-x="1012" >
  <font-face 
    font-family="Slab"
    font-weight="184"
    font-stretch="extra-condensed"
    units-per-em="1000"
    panose-1="2 0 7 3 0 0 0 0 0 0"
    ascent="800"
    descent="-200"
    x-height="533"
    cap-height="722"
    bbox="-30 -332 2460 1083"
    underline-thickness="0"
    underline-position="0"
    unicode-range="U+0020-FB02"
  />
    <missing-glyph />
    <glyph glyph-name="A" unicode="A" horiz-adv-x="1124" 
d="M560.498 648.032c56.8762 -115.791 112.806 -231.951 168.797 -348.032h-356.381c62.2528 116.081 124.445 232.241 187.584 348.032zM524 722h-2c-121.763 -218.992 -246.829 -437.159 -369.196 -656h-169.804v-66h133h63h32h185v66h-149.095
c29.7912 54.9306 59.4165 109.947 88.9833 165l426.709 5.68434e-14c26.5956 -55.0535 53.2496 -110.069 80.0695 -165h-153.667v-66h186h30h61h136v66h-168.945c-109.494 218.841 -221.013 437.008 -330.055 656h-2h-77z" />
    <glyph glyph-name="AE" unicode="&#xc6;" horiz-adv-x="1303" 
d="M718 0h525v33v33v87h-68v-87h-457v274h397v66h-397v250h412v-87h69v87v33v33h-463h-18h-42h-17h-6h-22h-152v-66h125.186l-436.371 -590h-180.814v-66h132h65h31h185v66h-137.374l93.8089 130h274.565v-130h-152v-66h152h28h17h42zM631 576.491v-311.491h-224.774z" />
    <glyph glyph-name="Aacute" unicode="&#xc1;" horiz-adv-x="1123" 
d="M522 826c73 55 146 111 219 166h-116c-73 -55 -146 -111 -218 -166h115zM560.366 647.792c56.5321 -115.711 112.488 -231.791 168.426 -347.792h-356.078c62.3742 116.001 124.553 232.081 187.652 347.792zM524 722h-2
c-121.763 -218.992 -247.655 -437.159 -369.422 -656h-170.578v-66h134h63h31h185v66h-148.844c29.9798 54.9306 59.7462 109.947 89.4187 165h426.5c26.566 -55.0535 53.1529 -110.069 79.8203 -165h-153.895v-66h186h30h62h135v66h-167.945
c-109.494 218.841 -221.013 437.008 -330.055 656h-2h-77z" />
    <glyph glyph-name="Abreve" unicode="&#x102;" horiz-adv-x="1123" 
d="M685 957c0 -60 -56 -73 -124 -73c-67 0 -122 15 -122 74h-83c0 -104 88 -139 203 -139c118 0 209 33 209 138h-83zM560.366 647.792c56.5321 -115.711 112.488 -231.791 168.426 -347.792h-356.078c62.3742 116.001 124.553 232.081 187.652 347.792zM524 722h-2
c-121.763 -218.992 -247.655 -437.159 -369.422 -656h-170.578v-66h134h63h31h185v66h-148.844c29.9798 54.9306 59.7462 109.947 89.4187 165h426.5c26.566 -55.0535 53.1529 -110.069 79.8203 -165h-153.895v-66h186h30h62h135v66h-167.945
c-109.494 218.841 -221.013 437.008 -330.055 656h-2h-77z" />
    <glyph glyph-name="Acircumflex" unicode="&#xc2;" horiz-adv-x="1123" 
d="M842 827c-72 55 -145 111 -219 166h-11h-104h-12c-73 -55 -146 -111 -218 -166h115c55.6667 41.9406 111.333 83.8813 167 126.265c55.6667 -42.3841 111.333 -84.3247 167 -126.265h115zM560.366 647.792c56.5321 -115.711 112.488 -231.791 168.426 -347.792h-356.078
c62.3742 116.001 124.553 232.081 187.652 347.792zM524 722h-2c-121.763 -218.992 -247.655 -437.159 -369.422 -656h-170.578v-66h134h63h31h185v66h-148.844c29.9798 54.9306 59.7462 109.947 89.4187 165h426.5c26.566 -55.0535 53.1529 -110.069 79.8203 -165h-153.895
v-66h186h30h62h135v66h-167.945c-109.494 218.841 -221.013 437.008 -330.055 656h-2h-77z" />
    <glyph glyph-name="Adieresis" unicode="&#xc4;" horiz-adv-x="1123" 
d="M607 855h107c0 -30 -23 -44 -55 -44c-31 0 -52 15 -52 44zM607 855h107c0 30 -23 45 -55 45c-31 0 -52 -17 -52 -45zM408 855h108c0 -30 -23 -44 -56 -44c-31 0 -52 15 -52 44zM408 855h108c0 30 -23 45 -55 45c-31 0 -53 -17 -53 -45zM560.366 647.792
c56.5321 -115.711 112.488 -231.791 168.426 -347.792h-356.078c62.3742 116.001 124.553 232.081 187.652 347.792zM524 722h-2c-121.763 -218.992 -247.655 -437.159 -369.422 -656h-170.578v-66h134h63h31h185v66h-148.844c29.9798 54.9306 59.7462 109.947 89.4187 165
h426.5c26.566 -55.0535 53.1529 -110.069 79.8203 -165h-153.895v-66h186h30h62h135v66h-167.945c-109.494 218.841 -221.013 437.008 -330.055 656h-2h-77z" />
    <glyph glyph-name="Agrave" unicode="&#xc0;" horiz-adv-x="1123" 
d="M705 825c-73 55 -146 111 -219 166h-116c73 -55 146 -110 219 -166h116zM560.366 647.792c56.5321 -115.711 112.488 -231.791 168.426 -347.792h-356.078c62.3742 116.001 124.553 232.081 187.652 347.792zM524 722h-2
c-121.763 -218.992 -247.655 -437.159 -369.422 -656h-170.578v-66h134h63h31h185v66h-148.844c29.9798 54.9306 59.7462 109.947 89.4187 165h426.5c26.566 -55.0535 53.1529 -110.069 79.8203 -165h-153.895v-66h186h30h62h135v66h-167.945
c-109.494 218.841 -221.013 437.008 -330.055 656h-2h-77z" />
    <glyph glyph-name="Amacron" unicode="&#x100;" horiz-adv-x="1123" 
d="M705 890h-299v-65h299v65zM560.366 647.792c56.5321 -115.711 112.488 -231.791 168.426 -347.792h-356.078c62.3742 116.001 124.553 232.081 187.652 347.792zM524 722h-2c-121.763 -218.992 -247.655 -437.159 -369.422 -656h-170.578v-66h134h63h31h185v66h-148.844
c29.9798 54.9306 59.7462 109.947 89.4187 165h426.5c26.566 -55.0535 53.1529 -110.069 79.8203 -165h-153.895v-66h186h30h62h135v66h-167.945c-109.494 218.841 -221.013 437.008 -330.055 656h-2h-77z" />
    <glyph glyph-name="Aogonek" unicode="&#x104;" horiz-adv-x="1124" 
d="M943.118 -7.10543e-15c-50.5226 -18.5109 -101.118 -24.5234 -101.118 -73c0 -34 29 -50 66 -50c28 0 46 8 71 19l39 -52c-41 -17 -72 -30 -118 -30c-81 0 -140 37 -140 112c1.13687e-13 34.7732 14.1909 57.3828 36.8762 74h-107.876v66h153.667
c-26.8199 54.9306 -53.4739 109.947 -80.0695 165l-426.709 -5.68434e-14c-29.5669 -55.0535 -59.1922 -110.069 -88.9833 -165h149.095v-66h-185h-32h-63h-133v66h169.804c122.366 218.841 247.433 437.008 369.196 656h2h77h2
c109.042 -218.992 220.561 -437.159 330.055 -656h168.945v-66h-136l-22.8818 -7.10543e-15v1.42109e-14zM560.498 648.032c56.8762 -115.791 112.806 -231.951 168.797 -348.032h-356.381c62.2528 116.081 124.445 232.241 187.584 348.032z" />
    <glyph glyph-name="Aring" unicode="&#xc5;" horiz-adv-x="1123" 
d="M462 951c0 50 41 71 96 71c58 0 104 -17 104 -71c0 -52 -44 -71 -102 -71c-55 0 -98 20 -98 71zM384 951c0 -91 77 -132 176 -132c103 0 181 39 181 132s-79 132 -183 132c-99 0 -174 -41 -174 -132zM560.366 647.792
c56.5321 -115.711 112.488 -231.791 168.426 -347.792h-356.078c62.3742 116.001 124.553 232.081 187.652 347.792zM524 722h-2c-121.763 -218.992 -247.655 -437.159 -369.422 -656h-170.578v-66h134h63h31h185v66h-148.844c29.9798 54.9306 59.7462 109.947 89.4187 165
h426.5c26.566 -55.0535 53.1529 -110.069 79.8203 -165h-153.895v-66h186h30h62h135v66h-167.945c-109.494 218.841 -221.013 437.008 -330.055 656h-2h-77z" />
    <glyph glyph-name="Atilde" unicode="&#xc3;" horiz-adv-x="1123" 
d="M765 981c-17 -50 -39 -88 -82 -88s-71 12 -104 40c-44 35 -79 53 -135 53c-84 0 -135 -47 -158 -129c65 -28 1 0 66 -28c17 54 46 89 94 89c38 0 60 -17 90 -40c46 -37 85 -55 144 -55c82 0 125 52 153 131zM560.366 647.792
c56.5321 -115.711 112.488 -231.791 168.426 -347.792h-356.078c62.3742 116.001 124.553 232.081 187.652 347.792zM524 722h-2c-121.763 -218.992 -247.655 -437.159 -369.422 -656h-170.578v-66h134h63h31h185v66h-148.844c29.9798 54.9306 59.7462 109.947 89.4187 165
h426.5c26.566 -55.0535 53.1529 -110.069 79.8203 -165h-153.895v-66h186h30h62h135v66h-167.945c-109.494 218.841 -221.013 437.008 -330.055 656h-2h-77z" />
    <glyph glyph-name="B" unicode="B" horiz-adv-x="894" 
d="M290 66v308h144h44c136 0 255 -35 255 -160c0 -110 -92 -148 -216 -148h-227zM290 0h227c175 0 303 58 303 214c0 105.938 -68.6186 164.805 -161.005 195.686c57.9549 25.0526 99.0046 66.4246 99.0046 133.314c0 126 -102 179 -239 179h-229h-43h-14h-34h-149v-66h149
v-590h-150v-66h150h34h13h44zM290 440v216h229c84 0 152 -33 152 -113c0 -85 -99 -103 -193 -103h-44h-144z" />
    <glyph glyph-name="C" unicode="C" horiz-adv-x="919" 
d="M849 655c-97 41 -200 72 -313 72c-270 0 -457 -126 -457 -383c0 -237 175 -349 426 -349c148 0 242 29 357 97l-41 55c-103 -62 -189 -83 -312 -83c-202 0 -343 93 -343 283c0 206 150 312 366 312c88.7871 0 171.709 -15.9188 248 -46.9895v-100.011h69v143z" />
    <glyph glyph-name="Cacute" unicode="&#x106;" horiz-adv-x="919" 
d="M491 826c73 55 146 111 219 166h-116c-73 -55 -146 -111 -219 -166h116zM849 655c-97 41 -200 72 -313 72c-270 0 -457 -126 -457 -383c0 -237 175 -349 426 -349c148 0 242 29 357 97l-41 55c-103 -62 -189 -83 -312 -83c-202 0 -343 93 -343 283c0 206 150 312 366 312
c88.7871 0 171.709 -15.9188 248 -46.9895v-100.011h69v143z" />
    <glyph glyph-name="Ccaron" unicode="&#x10c;" horiz-adv-x="919" 
d="M246 988c73 -55 146 -111 219 -166h11h105h11c73 55 146 111 219 166h-116c-55.5 -41.8151 -111 -83.6301 -166.5 -125.885c-55.5 42.2545 -111 84.0696 -166.5 125.885h-116zM849 655c-97 41 -200 72 -313 72c-270 0 -457 -126 -457 -383c0 -237 175 -349 426 -349
c148 0 242 29 357 97l-41 55c-103 -62 -189 -83 -312 -83c-202 0 -343 93 -343 283c0 206 150 312 366 312c88.7871 0 171.709 -15.9188 248 -46.9895v-100.011h69v143z" />
    <glyph glyph-name="Ccedilla" unicode="&#xc7;" horiz-adv-x="919" 
d="M435 -112c13 8 25 10 40 10c27 0 48 -11 48 -35c0 -30 -29 -37 -63 -37c-32 0 -57 5 -92 20l-25 -51c39 -16 71 -24 113 -24c83 0 149 21 149 94c0 61.7038 -47.761 92.7685 -113.342 95.7605c9.94657 12.4816 19.4438 24.4505 27.2237 34.3269
c140.085 1.7859 231.755 31.0631 343.118 96.9127l-41 55c-103 -62 -189 -83 -312 -83c-202 0 -343 93 -343 283c0 206 150 312 366 312c88.7871 0 171.709 -15.9188 248 -46.9895v-100.011h69v143c-97 41 -200 72 -313 72c-270 0 -457 -126 -457 -383
c0 -209.536 136.791 -321.364 341.957 -344.468c-17.6402 -22.829 -35.6113 -46.0717 -44.9567 -58.5322l0.807522 -0.723985c-0.268675 -0.0917525 -0.537847 -0.183758 -0.807522 -0.276015c27.3245 -24.0826 29.3396 -25.6441 29.4882 -25.6441
c0 0 -1.25409 1.2813 29.5118 -26.3559z" />
    <glyph glyph-name="D" unicode="D" horiz-adv-x="1034" 
d="M289 722h-41h-46h-151v-66h151v-590h-151v-66h151h46h41h222c272 0 448 100 448 352c0 263 -179 370 -461 370h-209zM289 656h204c233 0 380 -90 380 -306c0 -202 -138 -284 -355 -284h-229v590z" />
    <glyph glyph-name="Dcaron" unicode="&#x10e;" horiz-adv-x="1034" 
d="M197 988c72 -55 145 -111 218 -166h12h104h11c74 55 147 111 219 166h-115c-55.6667 -41.9406 -111.333 -84.4628 -167 -126.68c-55.6667 42.2168 -111.333 84.7389 -167 126.68h-115zM289 722h-41h-46h-151v-66h151v-590h-151v-66h151h46h41h222c272 0 448 100 448 352
c0 263 -179 370 -461 370h-209zM289 656h204c233 0 380 -90 380 -306c0 -202 -138 -284 -355 -284h-229v590z" />
    <glyph glyph-name="Dcroat" unicode="&#x110;" horiz-adv-x="1033" 
d="M288 722h-41h-46h-150v-66h150v-268h-80v-72h80v-250h-150v-66h150h46h41h222c273 0 448 100 448 352c0 263 -179 370 -461 370h-209zM288 656h204c233 0 381 -90 381 -306c0 -202 -139 -284 -356 -284h-229v250h255v72h-255v268z" />
    <glyph glyph-name="E" unicode="E" horiz-adv-x="874" 
d="M289 0h525v33v33v87h-68v-87h-457v274h397v66h-397v250h412v-87h69v87v33v33h-481h-42h-17h-28h-152v-66h152v-590h-152v-66h152h28h17h42z" />
    <glyph glyph-name="Eacute" unicode="&#xc9;" horiz-adv-x="874" 
d="M420 826c73 55 146 111 219 166h-116c-73 -55 -146 -111 -219 -166h116zM289 0h525v33v33v87h-68v-87h-457v274h397v66h-397v250h412v-87h69v87v33v33h-481h-42h-17h-28h-152v-66h152v-590h-152v-66h152h28h17h42z" />
    <glyph glyph-name="Ecaron" unicode="&#x11a;" horiz-adv-x="874" 
d="M175 988c72 -55 145 -111 219 -166h11h104h11c74 55 147 111 219 166h-115c-55.6667 -41.9406 -111.333 -83.8813 -167 -126.265c-55.6667 42.3841 -111.333 84.3247 -167 126.265h-115zM289 0h525v33v33v87h-68v-87h-457v274h397v66h-397v250h412v-87h69v87v33v33h-481
h-42h-17h-28h-152v-66h152v-590h-152v-66h152h28h17h42z" />
    <glyph glyph-name="Ecircumflex" unicode="&#xca;" horiz-adv-x="874" 
d="M740 827c-73 55 -146 111 -219 166h-11h-105h-11c-73 -55 -146 -111 -219 -166h116c55.5 41.8151 111 83.6301 166.5 125.885c55.5 -42.2545 111 -84.0696 166.5 -125.885h116zM289 0h525v33v33v87h-68v-87h-457v274h397v66h-397v250h412v-87h69v87v33v33h-481h-42h-17
h-28h-152v-66h152v-590h-152v-66h152h28h17h42z" />
    <glyph glyph-name="Edieresis" unicode="&#xcb;" horiz-adv-x="874" 
d="M504 855h108c0 -30 -23 -44 -56 -44c-31 0 -52 15 -52 44zM504 855h108c0 30 -23 45 -55 45c-31 0 -53 -17 -53 -45zM306 855h107c0 -30 -23 -44 -55 -44c-31 0 -52 15 -52 44zM306 855h107c0 30 -23 45 -55 45c-31 0 -52 -17 -52 -45zM289 0h525v33v33v87h-68v-87h-457
v274h397v66h-397v250h412v-87h69v87v33v33h-481h-42h-17h-28h-152v-66h152v-590h-152v-66h152h28h17h42z" />
    <glyph glyph-name="Edotaccent" unicode="&#x116;" horiz-adv-x="874" 
d="M405 856h108c0 29 -23 44 -55 44s-53 -16 -53 -44zM405 856h108c0 -31 -23 -45 -56 -45c-31 0 -52 16 -52 45zM289 0h525v33v33v87h-68v-87h-457v274h397v66h-397v250h412v-87h69v87v33v33h-481h-42h-17h-28h-152v-66h152v-590h-152v-66h152h28h17h42z" />
    <glyph glyph-name="Egrave" unicode="&#xc8;" horiz-adv-x="874" 
d="M603 825c-73 55 -146 111 -219 166h-116c73 -55 146 -110 219 -166h116zM289 0h525v33v33v87h-68v-87h-457v274h397v66h-397v250h412v-87h69v87v33v33h-481h-42h-17h-28h-152v-66h152v-590h-152v-66h152h28h17h42z" />
    <glyph glyph-name="Emacron" unicode="&#x112;" horiz-adv-x="874" 
d="M602 890h-298v-65h298v65zM289 0h525v33v33v87h-68v-87h-457v274h397v66h-397v250h412v-87h69v87v33v33h-481h-42h-17h-28h-152v-66h152v-590h-152v-66h152h28h17h42z" />
    <glyph glyph-name="Eogonek" unicode="&#x118;" horiz-adv-x="881" 
d="M628.932 3.55271e-15c-19.1927 -15.9601 -30.9321 -37.3726 -30.9321 -69c0 -75 59 -112 140 -112c46 0 77 12 118 30l-39 52c-25 -11 -43 -19 -71 -19c-37 0 -66 16 -66 50c0 43.0438 41.502 52.7378 86.864 68h47.136v33v33v87h-68v-87h-457v274h397v66h-397v250h412
v-87h69v87v33v33h-481h-42h-17h-28h-152v-66h152v-590h-152v-66h152h28h17h42z" />
    <glyph glyph-name="Eth" unicode="&#xd0;" horiz-adv-x="1034" 
d="M289 722h-41h-46h-151v-66h151v-268h-80v-72h80v-250h-151v-66h151h46h41h222c272 0 448 100 448 352c0 263 -179 370 -461 370h-209zM289 656h204c233 0 380 -90 380 -306c0 -202 -138 -284 -355 -284h-229v250h254v72h-254v268z" />
    <glyph glyph-name="Euro" unicode="&#x20ac;" horiz-adv-x="1024" 
d="M934 655c-97 41 -199 72 -313 72c-221.004 0 -386.398 -84.4193 -439.147 -256h-116.853v-69h102.394c-2.24604 -18.5307 -3.39408 -37.8632 -3.39408 -58c0 -16.9728 0.897533 -33.3046 2.65624 -49h-101.656v-69h116.091c49.7444 -156.358 204.002 -231 408.909 -231
c148 0 242 29 357 97l-41 55c-103 -62 -189 -83 -312 -83c-153.095 0 -271.151 53.4196 -319.341 162h329.341v69h-349.179c-2.52393 16.4432 -3.82119 33.7754 -3.82119 52c0 19.204 1.30359 37.539 3.84271 55h349.157v69h-331.094
c49.0765 124.404 176.787 188 344.094 188c88.7871 0 171.709 -15.9188 248 -46.9895v-100.011h69v143z" />
    <glyph glyph-name="F" unicode="F" horiz-adv-x="839" 
d="M290 656h418v-87h68v87v33v33h-486h-43h-15h-29h-153v-66h153v-590h-153v-66h153h44h43h153v66h-153v274h389v66h-389v250z" />
    <glyph glyph-name="G" unicode="G" horiz-adv-x="1027" 
d="M865 113.298c-104.515 -38.5465 -190.912 -48.2975 -309 -48.2975c-229 0 -393 91 -393 304c0 202 159 289 378 289c116.146 0 208.981 -15.5403 313 -59.4559v-93.5441h67v139c-128 59 -239 83 -380 83c-272 0 -465 -111 -465 -365c0 -258 201 -367 479 -367
c152 0 249 26 389 83v266h-25h-54h-238v-65h238v-165.702z" />
    <glyph glyph-name="Gbreve" unicode="&#x11e;" horiz-adv-x="1027" 
d="M667 957c0 -60 -56 -73 -124 -73s-122 15 -122 74h-83c0 -104 87 -139 202 -139c118 0 209 33 209 138h-82zM865 113.298c-104.515 -38.5465 -190.912 -48.2975 -309 -48.2975c-229 0 -393 91 -393 304c0 202 159 289 378 289c116.146 0 208.981 -15.5403 313 -59.4559
v-93.5441h67v139c-128 59 -239 83 -380 83c-272 0 -465 -111 -465 -365c0 -258 201 -367 479 -367c152 0 249 26 389 83v266h-25h-54h-238v-65h238v-165.702z" />
    <glyph glyph-name="Gcommaaccent" unicode="&#x122;" horiz-adv-x="1027" 
d="M487 -324l155 204h-112l-131 -204h88zM865 113.298c-104.515 -38.5465 -190.912 -48.2975 -309 -48.2975c-229 0 -393 91 -393 304c0 202 159 289 378 289c116.146 0 208.981 -15.5403 313 -59.4559v-93.5441h67v139c-128 59 -239 83 -380 83c-272 0 -465 -111 -465 -365
c0 -258 201 -367 479 -367c152 0 249 26 389 83v266h-25h-54h-238v-65h238v-165.702z" />
    <glyph glyph-name="H" unicode="H" horiz-adv-x="1164" 
d="M874 330v-264h-152v-66h196h197v66h-154v590h154v66h-197h-196v-66h152v-260h-583v260h153v66h-153h-44h-43h-154v-66h154v-590h-154v-66h154h43h44h153v66h-153v264h583z" />
    <glyph glyph-name="I" unicode="I" horiz-adv-x="493" 
d="M202 0h45h42h155v66h-155v590h155v66h-155h-42h-45h-152v-66h152v-590h-152v-66h152z" />
    <glyph glyph-name="Iacute" unicode="&#xcd;" horiz-adv-x="509" 
d="M213 826c73 55 146 111 219 166h-116c-73 -55 -146 -111 -219 -166h116zM206 0h45h42h155v66h-155v590h155v66h-155h-42h-45h-151v-66h151v-590h-151v-66h151z" />
    <glyph glyph-name="Icircumflex" unicode="&#xce;" horiz-adv-x="658" 
d="M614 827c-73 55 -146 111 -219 166h-11h-105h-11c-73 -55 -146 -111 -219 -166h116c55.5023 41.8168 111.005 84.2117 166.507 126.306c55.546 -42.0939 111.231 -84.4888 167.493 -126.306h115zM287 0h45h42h155v66h-155v590h155v66h-155h-42h-45h-151v-66h151v-590
h-151v-66h151z" />
    <glyph glyph-name="Idieresis" unicode="&#xcf;" horiz-adv-x="512" 
d="M302 855h107c0 -30 -23 -44 -55 -44c-31 0 -52 15 -52 44zM302 855h107c0 30 -23 45 -55 45c-31 0 -52 -17 -52 -45zM104 855h107c0 -30 -23 -44 -55 -44s-52 15 -52 44zM104 855h107c0 30 -23 45 -55 45c-31 0 -52 -17 -52 -45zM211 0h45h42h155v66h-155v590h155v66
h-155h-42h-45h-152v-66h152v-590h-152v-66h152z" />
    <glyph glyph-name="Idotaccent" unicode="&#x130;" horiz-adv-x="493" 
d="M194 856h107c0 29 -23 44 -55 44c-31 0 -52 -16 -52 -44zM194 856h107c0 -31 -23 -45 -55 -45s-52 16 -52 45zM202 0h45h42h155v66h-155v590h155v66h-155h-42h-45h-152v-66h152v-590h-152v-66h152z" />
    <glyph glyph-name="Igrave" unicode="&#xcc;" horiz-adv-x="509" 
d="M400 825c-73 55 -146 111 -219 166h-116c73 -55 146 -110 219 -166h116zM210 0h46h41h155v66h-155v590h155v66h-155h-41h-46h-151v-66h151v-590h-151v-66h151z" />
    <glyph glyph-name="Imacron" unicode="&#x12a;" horiz-adv-x="493" 
d="M390 890h-298v-65h298v65zM202 0h45h42h155v66h-155v590h155v66h-155h-42h-45h-152v-66h152v-590h-152v-66h152z" />
    <glyph glyph-name="Iogonek" unicode="&#x12e;" horiz-adv-x="493" 
d="M126.037 -7.10543e-15c-12.0165 -14.4275 -19.0375 -32.6983 -19.0375 -57c0 -75 60 -112 141 -112c46 0 76 13 118 30c-39 52 0 0 -40 52c-25 -11 -43 -19 -70 -19c-38 0 -66 16 -66 50c0 31.7058 21.6434 45.2467 50.5139 56h6.48613h42h155v66h-155v590h155v66h-155
h-42h-45h-152v-66h152v-590h-152v-66z" />
    <glyph glyph-name="J" unicode="J" horiz-adv-x="670" 
d="M40 44c41 -21 99 -46 169 -46c165 0 273 76 273 234v424h155v66h-155h-42h-45h-152v-66h152v-424c0 -110 -73 -169 -186 -169c-51 0 -86 14 -129 33z" />
    <glyph glyph-name="K" unicode="K" horiz-adv-x="1011" 
d="M291 326.161c128.018 -86.4773 254.966 -173.624 382.442 -260.161l-117.442 2.84217e-14v-66h215h22h3h114h83v66h-183.181c-158.816 104.736 -316.292 209.027 -475.819 314c155.505 99.1039 290.884 185.873 433.862 276h8.13845h182v66h-85h-97h-34h-208v-66h104.794
c-116.157 -74.7457 -231.524 -150.282 -347.794 -224.915v224.915h144v66h-144h-44h-43h-154v-66h154v-590h-154v-66h154h43h44h153v66h-153v260.161z" />
    <glyph glyph-name="Kcommaaccent" unicode="&#x136;" horiz-adv-x="1011" 
d="M464 -319l155 204h-112l-131 -204h88zM291 326.161c128.018 -86.4773 254.966 -173.624 382.442 -260.161l-117.442 2.84217e-14v-66h215h22h3h114h83v66h-183.181c-158.816 104.736 -316.292 209.027 -475.819 314c155.505 99.1039 290.884 185.873 433.862 276h8.13845
h182v66h-85h-97h-34h-208v-66h104.794c-116.157 -74.7457 -231.524 -150.282 -347.794 -224.915v224.915h144v66h-144h-44h-43h-154v-66h154v-590h-154v-66h154h43h44h153v66h-153v260.161z" />
    <glyph glyph-name="L" unicode="L" horiz-adv-x="856" 
d="M291 0h515v33v33v87h-68v-87h-447v590h151v66h-151h-45h-43h-154v-66h154v-590h-154v-66h154h43h45z" />
    <glyph glyph-name="Lacute" unicode="&#x139;" horiz-adv-x="862" 
d="M213 825c73 55 146 111 219 166h-116c-73 -55 -146 -111 -218 -166h115zM297 0h515v33v33v87h-68v-87h-447v590h152v66h-152h-45h-42h-155v-66h155v-590h-155v-66h155h42h45z" />
    <glyph glyph-name="Lcaron" unicode="&#x13d;" horiz-adv-x="830" 
d="M611 518l155 204h-112l-131 -204h88zM291 0h515v33v33v87h-68v-87h-447v590h151v66h-151h-45h-43h-154v-66h154v-590h-154v-66h154h43h45z" />
    <glyph glyph-name="Lcommaaccent" unicode="&#x13b;" horiz-adv-x="856" 
d="M402 -321l155 203h-113l-130 -203h88zM291 0h515v33v33v87h-68v-87h-447v590h151v66h-151h-45h-43h-154v-66h154v-590h-154v-66h154h43h45z" />
    <glyph glyph-name="Lslash" unicode="&#x141;" horiz-adv-x="855" 
d="M290 0h515v33v33v87h-68v-87h-447v252.395l199 166.605v72l-199 -166.605v265.605h152v66h-152h-45h-42h-154v-66h154v-338.442l-101 -84.5581v-72l101 84.5581v-179.558h-154v-66h154h42h45z" />
    <glyph glyph-name="M" unicode="M" horiz-adv-x="1367" 
d="M644 0h79h11c99.4249 198.028 199.525 395.381 299.745 593.168c18.5849 -175.806 36.5785 -351.269 55.9289 -527.168h-149.674v-66h157h39h48h149v66h-156.717c-23.1506 196.849 -47.3324 393.151 -69.8149 590h150.532v66h-158h-39h-40h-7
c-110.775 -215.297 -219.955 -429.796 -329.676 -644.923c-110.796 215.127 -221.762 429.626 -334.324 644.923h-4h-39h-43h-3h-151v-66h143.877c-21.2514 -196.849 -42.5028 -393.151 -63.7543 -590h-154.123v-66h147h50h37h159v66h-151.924
c18.6368 174.862 36.4118 349.293 54.8561 524.059c101.356 -196.746 202.712 -393.069 304.068 -590.059h9z" />
    <glyph glyph-name="N" unicode="N" horiz-adv-x="1193" 
d="M929 0h85h2v656h146v66h-146h-42h-9h-36h-152v-66h152v-569.603c-208.654 212.003 -417.214 423.415 -625 635.603h-13h-43h-44h-9h-143v-66h152v-590h-153l-1 -66h154h43h44h153v66h-153v558.07c204.236 -208.137 409.118 -415.73 614 -624.07h24z" />
    <glyph glyph-name="Nacute" unicode="&#x143;" horiz-adv-x="1193" 
d="M558 826c73 55 146 111 219 166h-116c-73 -55 -146 -111 -219 -166h116zM929 0h85h2v656h146v66h-146h-42h-9h-36h-152v-66h152v-569.603c-208.654 212.003 -417.214 423.415 -625 635.603h-13h-43h-44h-9h-143v-66h152v-590h-153l-1 -66h154h43h44h153v66h-153v558.07
c204.236 -208.137 409.118 -415.73 614 -624.07h24z" />
    <glyph glyph-name="Ncaron" unicode="&#x147;" horiz-adv-x="1193" 
d="M313 988c72 -55 145 -111 219 -166h11h104h11c74 55 147 111 219 166h-115c-55.6667 -41.9406 -111.333 -83.8813 -167 -126.265c-55.6667 42.3841 -111.333 84.3247 -167 126.265h-115zM929 0h85h2v656h146v66h-146h-42h-9h-36h-152v-66h152v-569.603
c-208.654 212.003 -417.214 423.415 -625 635.603h-13h-43h-44h-9h-143v-66h152v-590h-153l-1 -66h154h43h44h153v66h-153v558.07c204.236 -208.137 409.118 -415.73 614 -624.07h24z" />
    <glyph glyph-name="Ncommaaccent" unicode="&#x145;" horiz-adv-x="1193" 
d="M547 -319l155 203h-112l-131 -203h88zM929 0h85h2v656h146v66h-146h-42h-9h-36h-152v-66h152v-569.603c-208.654 212.003 -417.214 423.415 -625 635.603h-13h-43h-44h-9h-143v-66h152v-590h-153l-1 -66h154h43h44h153v66h-153v558.07
c204.236 -208.137 409.118 -415.73 614 -624.07h24z" />
    <glyph glyph-name="Ntilde" unicode="&#xd1;" horiz-adv-x="1193" 
d="M800 981c-16 -50 -38 -88 -82 -88c-42 0 -70 12 -103 40c-44 35 -79 53 -135 53c-84 0 -135 -47 -158 -129c65 -28 1 0 65 -28c18 54 47 89 95 89c38 0 60 -17 89 -40c47 -37 86 -55 145 -55c82 0 125 52 153 131c-68 27 -1 0 -69 27zM929 0h85h2v656h146v66h-146h-42h-9
h-36h-152v-66h152v-569.603c-208.654 212.003 -417.214 423.415 -625 635.603h-13h-43h-44h-9h-143v-66h152v-590h-153l-1 -66h154h43h44h153v66h-153v558.07c204.236 -208.137 409.118 -415.73 614 -624.07h24z" />
    <glyph glyph-name="O" unicode="O" 
d="M79 360c0 -237 178 -365 426 -365c250 0 428 130 428 368c0 235 -177 364 -424 364c-251 0 -430 -130 -430 -367zM166 360c0 190 138 299 336 299c201 0 344 -105 344 -296c0 -190 -139 -300 -337 -300c-201 0 -343 106 -343 297z" />
    <glyph glyph-name="OE" unicode="&#x152;" horiz-adv-x="1363" 
d="M778 0h526v33v33v87h-68v-87h-458v274h398v66h-398v250h413v-87h68v87v33v33h-481h-41h-17h-29h-99.0016c-18.6609 1.34677 -37.9097 2 -57.9984 2c-268 0 -456 -125 -456 -380c0 -235 175 -346 426 -346c24.2568 0 46.645 0.622873 67.737 2h119.263h29h17h41z
M691 639.378v-549.525c-58.7677 -18.6493 -112.475 -22.8537 -183 -22.8537c-198 0 -343 91 -343 280c0 206 151 308 365 308c59.0428 0 109.854 -2.35187 161 -15.6217z" />
    <glyph glyph-name="Oacute" unicode="&#xd3;" 
d="M469 826c73 55 146 111 219 166h-116c-73 -55 -146 -111 -218 -166h115zM79 360c0 -237 178 -365 426 -365c250 0 428 130 428 368c0 235 -177 364 -424 364c-251 0 -430 -130 -430 -367zM166 360c0 190 138 299 336 299c201 0 344 -105 344 -296
c0 -190 -139 -300 -337 -300c-201 0 -343 106 -343 297z" />
    <glyph glyph-name="Ocircumflex" unicode="&#xd4;" 
d="M789 827c-72 55 -145 111 -219 166h-11h-104h-11c-74 -55 -147 -111 -219 -166h115c55.6667 41.9406 111.333 83.8813 167 126.265c55.6667 -42.3841 111.333 -84.3247 167 -126.265h115zM79 360c0 -237 178 -365 426 -365c250 0 428 130 428 368
c0 235 -177 364 -424 364c-251 0 -430 -130 -430 -367zM166 360c0 190 138 299 336 299c201 0 344 -105 344 -296c0 -190 -139 -300 -337 -300c-201 0 -343 106 -343 297z" />
    <glyph glyph-name="Odieresis" unicode="&#xd6;" 
d="M554 855h107c0 -30 -23 -44 -55 -44c-31 0 -52 15 -52 44zM554 855h107c0 30 -23 45 -55 45c-31 0 -52 -17 -52 -45zM355 855h108c0 -30 -23 -44 -55 -44s-53 15 -53 44zM355 855h108c0 30 -23 45 -55 45c-31 0 -53 -17 -53 -45zM79 360c0 -237 178 -365 426 -365
c250 0 428 130 428 368c0 235 -177 364 -424 364c-251 0 -430 -130 -430 -367zM166 360c0 190 138 299 336 299c201 0 344 -105 344 -296c0 -190 -139 -300 -337 -300c-201 0 -343 106 -343 297z" />
    <glyph glyph-name="Ograve" unicode="&#xd2;" 
d="M652 825c-73 55 -146 111 -219 166h-116c73 -55 146 -110 219 -166h116zM79 360c0 -237 178 -365 426 -365c250 0 428 130 428 368c0 235 -177 364 -424 364c-251 0 -430 -130 -430 -367zM166 360c0 190 138 299 336 299c201 0 344 -105 344 -296
c0 -190 -139 -300 -337 -300c-201 0 -343 106 -343 297z" />
    <glyph glyph-name="Ohungarumlaut" unicode="&#x150;" 
d="M619 767l155 203h-112l-131 -203h88zM418 767l155 203h-113l-130 -203h88zM79 360c0 -237 178 -365 426 -365c250 0 428 130 428 368c0 235 -177 364 -424 364c-251 0 -430 -130 -430 -367zM166 360c0 190 138 299 336 299c201 0 344 -105 344 -296
c0 -190 -139 -300 -337 -300c-201 0 -343 106 -343 297z" />
    <glyph glyph-name="Omacron" unicode="&#x14c;" 
d="M652 890h-299v-65h299v65zM79 360c0 -237 178 -365 426 -365c250 0 428 130 428 368c0 235 -177 364 -424 364c-251 0 -430 -130 -430 -367zM166 360c0 190 138 299 336 299c201 0 344 -105 344 -296c0 -190 -139 -300 -337 -300c-201 0 -343 106 -343 297z" />
    <glyph glyph-name="Oslash" unicode="&#xd8;" 
d="M79 360c0 -143.76 65.4938 -247.414 172.377 -306.722l-62.377 -88.2775l52 -39l71.1665 99.8764c56.8916 -20.4368 122.008 -30.8764 192.833 -30.8764c250 0 428 130 428 368c0 139.807 -62.6465 242.097 -165.409 302.027l58.4092 81.9726l-59 36l-62.4219 -88.341
c-57.4707 21.3705 -123.548 32.341 -195.578 32.341c-251 0 -430 -130 -430 -367zM166 360c0 190 138 299 336 299c58.564 0 112.204 -8.9137 158.818 -26.2712l-365.148 -516.767c-80.8733 49.3167 -129.67 132.073 -129.67 244.038zM722.711 602.042
c76.9697 -49.4888 123.289 -130.337 123.289 -239.042c0 -190 -139 -300 -337 -300c-56.2151 0 -107.815 8.29126 -152.985 24.4144z" />
    <glyph glyph-name="Otilde" unicode="&#xd5;" 
d="M712 981c-17 -50 -39 -88 -82 -88c-42 0 -70 12 -104 40c-44 35 -79 53 -135 53c-84 0 -134 -47 -158 -129c65 -28 1 0 66 -28c17 54 46 89 94 89c38 0 61 -17 90 -40c46 -37 85 -55 144 -55c82 0 125 52 153 131zM79 360c0 -237 178 -365 426 -365
c250 0 428 130 428 368c0 235 -177 364 -424 364c-251 0 -430 -130 -430 -367zM166 360c0 190 138 299 336 299c201 0 344 -105 344 -296c0 -190 -139 -300 -337 -300c-201 0 -343 106 -343 297z" />
    <glyph glyph-name="P" unicode="P" horiz-adv-x="840" 
d="M290 357.774v298.226h124c147 0 271 -43 271 -173c0 -111 -103 -155 -226 -155c-63.466 0 -112.571 10.5819 -169 29.7744zM252 722h-4h-45h-152v-66h152v-590h-152v-66h152h45h42h155v66h-155v223.865c52.5324 -16.2363 103.41 -26.8647 161 -26.8647
c177 3 321 65 321 224c0 168 -157 235 -346 235h-136h-38z" />
    <glyph glyph-name="Q" unicode="Q" horiz-adv-x="1054" 
d="M79 360c0 -233.762 175.116 -361.482 418.834 -364.928c150.53 -183.743 313.385 -221.072 547.166 -221.072v69c-187.665 0 -324.046 25.2349 -448.069 157.963c202.23 28.1738 339.069 155.361 339.069 364.037c0 236 -176 364 -424 364c-252 0 -433 -131 -433 -369z
M167 360c0 189 142 296 340 296c201 0 342 -104 342 -294s-139 -298 -337 -298c-202 0 -345 105 -345 296z" />
    <glyph glyph-name="R" unicode="R" horiz-adv-x="1069" 
d="M250 722h-4h-43h-154v-66h154v-590h-154v-66h154h43h45h151v66h-151v253h180c9.8406 0 19.5496 0.137293 29.113 0.421822l305.887 -319.422h38h70h126v66h-189.295c-84.1334 87.6209 -168.613 175.242 -252.619 262.863c116.91 20.9219 194.913 78.0935 194.913 199.137
c0 151 -131 194 -302 194h-200h-41zM291 656h185c129 0 230 -23 230 -134c0 -110 -98 -137 -223 -137h-192v271z" />
    <glyph glyph-name="Racute" unicode="&#x154;" horiz-adv-x="1069" 
d="M411 826c73 55 146 111 219 166h-115c-74 -55 -147 -111 -219 -166h115zM250 722h-4h-43h-154v-66h154v-590h-154v-66h154h43h45h151v66h-151v253h180c9.8406 0 19.5496 0.137293 29.113 0.421822l305.887 -319.422h38h70h126v66h-189.295
c-84.1334 87.6209 -168.613 175.242 -252.619 262.863c116.91 20.9219 194.913 78.0935 194.913 199.137c0 151 -131 194 -302 194h-200h-41zM291 656h185c129 0 230 -23 230 -134c0 -110 -98 -137 -223 -137h-192v271z" />
    <glyph glyph-name="Rcaron" unicode="&#x158;" horiz-adv-x="1069" 
d="M166 988c73 -55 146 -111 219 -166h11h105h11c73 55 146 111 219 166h-116c-55.5 -41.8151 -111 -83.6301 -166.5 -125.885c-55.5 42.2545 -111 84.0696 -166.5 125.885h-116zM250 722h-4h-43h-154v-66h154v-590h-154v-66h154h43h45h151v66h-151v253h180
c9.8406 0 19.5496 0.137293 29.113 0.421822l305.887 -319.422h38h70h126v66h-189.295c-84.1334 87.6209 -168.613 175.242 -252.619 262.863c116.91 20.9219 194.913 78.0935 194.913 199.137c0 151 -131 194 -302 194h-200h-41zM291 656h185c129 0 230 -23 230 -134
c0 -110 -98 -137 -223 -137h-192v271z" />
    <glyph glyph-name="Rcommaaccent" unicode="&#x156;" horiz-adv-x="1069" 
d="M482 -320l155 203h-112l-131 -203h88zM250 722h-4h-43h-154v-66h154v-590h-154v-66h154h43h45h151v66h-151v253h180c9.8406 0 19.5496 0.137293 29.113 0.421822l305.887 -319.422h38h70h126v66h-189.295c-84.1334 87.6209 -168.613 175.242 -252.619 262.863
c116.91 20.9219 194.913 78.0935 194.913 199.137c0 151 -131 194 -302 194h-200h-41zM291 656h185c129 0 230 -23 230 -134c0 -110 -98 -137 -223 -137h-192v271z" />
    <glyph glyph-name="S" unicode="S" horiz-adv-x="772" 
d="M84 55c94 -41 180 -60 281 -60c176 0 322 34 322 186c0 139 -133 171 -272 219c-108 36 -224 55 -224 152c0 85 87 112 187 112c76.6414 0 136.21 -15.5209 204 -42.461v-94.539h68v135c-92 40 -167 65 -268 65c-151 0 -278 -47 -278 -179s128 -160 259 -205
c116 -38 237 -61 237 -162c0 -95 -104 -117 -227 -117c-79.7155 0 -149.356 15.9515 -222 44.7774v86.2226h-68v-140h1z" />
    <glyph glyph-name="Sacute" unicode="&#x15a;" horiz-adv-x="772" 
d="M345 826c73 55 146 111 219 166h-116c-73 -55 -146 -111 -219 -166h116zM84 55c94 -41 180 -60 281 -60c176 0 322 34 322 186c0 139 -133 171 -272 219c-108 36 -224 55 -224 152c0 85 87 112 187 112c76.6414 0 136.21 -15.5209 204 -42.461v-94.539h68v135
c-92 40 -167 65 -268 65c-151 0 -278 -47 -278 -179s128 -160 259 -205c116 -38 237 -61 237 -162c0 -95 -104 -117 -227 -117c-79.7155 0 -149.356 15.9515 -222 44.7774v86.2226h-68v-140h1z" />
    <glyph glyph-name="Scaron" unicode="&#x160;" horiz-adv-x="776" 
d="M105 988c72 -55 145 -111 219 -166h11h104h11c74 55 147 111 219 166h-115c-55.6667 -41.9406 -111.333 -83.8813 -167 -126.265c-55.6667 42.3841 -111.333 84.3247 -167 126.265h-115zM88 55c94 -41 180 -60 282 -60c176 0 322 34 322 186c0 139 -134 171 -273 219
c-108 36 -224 55 -224 152c0 85 88 112 188 112c76.6414 0 136.21 -15.5209 204 -42.461v-94.539h68v135c-93 40 -167 65 -269 65c-150 0 -278 -47 -278 -179s129 -160 260 -205c116 -38 237 -61 237 -162c0 -95 -104 -117 -228 -117
c-80.0746 0 -149.137 16.0955 -222 45.1678v85.8322h-68v-140h1z" />
    <glyph glyph-name="Scedilla" unicode="&#x15e;" horiz-adv-x="772" 
d="M375.849 -40.1978c10.4696 13.1885 20.4269 25.7635 28.2967 35.8103c157.986 5.16808 282.855 44.8173 282.855 185.388c0 139 -133 171 -272 219c-108 36 -224 55 -224 152c0 85 87 112 187 112c76.6414 0 136.21 -15.5209 204 -42.461v-94.539h68v135
c-92 40 -167 65 -268 65c-151 0 -278 -47 -278 -179s128 -160 259 -205c116 -38 237 -61 237 -162c0 -95 -104 -117 -227 -117c-79.7155 0 -149.356 15.9515 -222 44.7774v86.2226h-68v-140h1c74.6486 -32.5595 144.252 -51.2447 220.329 -57.5581
c-17.2744 -22.224 -34.6747 -44.7386 -44.3292 -57.4419l59 -52c14 7 25 9 41 9c27 0 48 -10 48 -35c0 -29 -29 -37 -63 -37c-32 0 -57 6 -93 20l-25 -50c40 -16 71 -24 114 -24c83 0 149 21 149 93c0 62.9106 -48.1543 93.1125 -114.151 95.8022z" />
    <glyph glyph-name="Scommaaccent" unicode="&#x218;" horiz-adv-x="772" 
d="M280 -321l154 203h-112l-131 -203h89zM84 55c94 -41 180 -60 281 -60c176 0 322 34 322 186c0 139 -133 171 -272 219c-108 36 -224 55 -224 152c0 85 87 112 187 112c76.6414 0 136.21 -15.5209 204 -42.461v-94.539h68v135c-92 40 -167 65 -268 65
c-151 0 -278 -47 -278 -179s128 -160 259 -205c116 -38 237 -61 237 -162c0 -95 -104 -117 -227 -117c-79.7155 0 -149.356 15.9515 -222 44.7774v86.2226h-68v-140h1z" />
    <glyph glyph-name="T" unicode="T" horiz-adv-x="940" 
d="M427 652v-587h-155v-65h155h42h45h152v65h-152v587h300v-84h68v84v36v34h-823v-34v-36v-84h68v84h300z" />
    <glyph glyph-name="Tcaron" unicode="&#x164;" horiz-adv-x="940" 
d="M182 987c72 -55 145 -111 218 -166h12h104h11c74 55 147 111 219 166h-115c-55.6667 -41.9406 -111.333 -83.8813 -167 -126.265c-55.6667 42.3841 -111.333 84.3247 -167 126.265h-115zM427 652v-587h-155v-65h155h42h45h152v65h-152v587h300v-84h68v84v36v34h-823v-34
v-36v-84h68v84h300z" />
    <glyph glyph-name="Tcedilla" horiz-adv-x="939" 
d="M432 -108c14 8 25 10 41 10c27 0 48 -11 48 -35c0 -30 -29 -37 -63 -37c-32 0 -57 5 -93 20l-25 -51c40 -16 71 -24 114 -24c83 0 149 21 149 94c0 61.856 -47.9969 92.9216 -113.828 95.7821c10.2397 12.8608 19.9728 25.1763 27.721 35.2179l148.107 7.10543e-15v65
h-152v587h300v-84h68v84v36v34h-822c0 -23.522 -0.106729 -31.4615 -0.250452 -34h-0.749548v-36v-84h69v84h299v-587h-154v-65l143.727 -3.55271e-15c-16.7407 -21.6644 -33.3712 -43.1818 -42.7273 -55l1.09698 -0.966827
c-0.0323184 -0.011054 -0.064644 -0.0221116 -0.0969769 -0.0331729c26.8614 -24.0826 28.8423 -25.6441 28.9884 -25.6441c0.169342 0 0.169342 0 29.0116 -26.3559z" />
    <glyph glyph-name="Tcommaaccent" unicode="&#x162;" horiz-adv-x="940" 
d="M421 -322l155 203h-112l-131 -203h88zM427 652v-587h-155v-65h155h42h45h152v65h-152v587h300v-84h68v84v36v34h-823v-34v-36v-84h68v84h300z" />
    <glyph glyph-name="Thorn" unicode="&#xde;" horiz-adv-x="828" 
d="M290 656h155v66h-155h-42h-45h-152v-66h152v-590h-152v-66h152h45h42h155v66h-155v129.15c55.3275 -16.4238 109.731 -26.1504 171 -26.1504c167 3 302 62 302 212c0 158 -153 220 -337 220h-136v55zM290 262.821v272.179h124c142 0 262 -40 262 -157
c0 -103 -99 -144 -217 -144c-63.466 0 -112.571 9.82608 -169 28.8211z" />
    <glyph glyph-name="U" unicode="U" horiz-adv-x="1126" 
d="M269 656h159v66h-196h-197v-66h154v-379c0 -210 143 -282 373 -282s373 74 373 283v378h157v66h-197h-196v-66h157v-386c0 -151 -113 -203 -286 -203c-185 0 -301 54 -301 221v368z" />
    <glyph glyph-name="Uacute" unicode="&#xda;" horiz-adv-x="1126" 
d="M524 826c73 55 146 111 219 166h-115c-74 -55 -147 -111 -219 -166h115zM269 656h159v66h-196h-197v-66h154v-379c0 -210 143 -282 373 -282s373 74 373 283v378h157v66h-197h-196v-66h157v-386c0 -151 -113 -203 -286 -203c-185 0 -301 54 -301 221v368z" />
    <glyph glyph-name="Ucircumflex" unicode="&#xdb;" horiz-adv-x="1126" 
d="M844 827c-72 55 -145 111 -219 166h-11h-104h-11c-74 -55 -147 -111 -219 -166h115c55.6667 41.9406 111.333 83.8813 167 126.265c55.6667 -42.3841 111.333 -84.3247 167 -126.265h115zM269 656h159v66h-196h-197v-66h154v-379c0 -210 143 -282 373 -282
s373 74 373 283v378h157v66h-197h-196v-66h157v-386c0 -151 -113 -203 -286 -203c-185 0 -301 54 -301 221v368z" />
    <glyph glyph-name="Udieresis" unicode="&#xdc;" horiz-adv-x="1126" 
d="M609 855h107c0 -30 -23 -44 -55 -44c-31 0 -52 15 -52 44zM609 855h107c0 30 -23 45 -55 45c-31 0 -52 -17 -52 -45zM411 855h107c0 -30 -23 -44 -55 -44s-52 15 -52 44zM411 855h107c0 30 -23 45 -55 45c-31 0 -52 -17 -52 -45zM269 656h159v66h-196h-197v-66h154v-379
c0 -210 143 -282 373 -282s373 74 373 283v378h157v66h-197h-196v-66h157v-386c0 -151 -113 -203 -286 -203c-185 0 -301 54 -301 221v368z" />
    <glyph glyph-name="Ugrave" unicode="&#xd9;" horiz-adv-x="1126" 
d="M707 825c-72 55 -146 111 -219 166h-115c72 -55 145 -110 218 -166h116zM269 656h159v66h-196h-197v-66h154v-379c0 -210 143 -282 373 -282s373 74 373 283v378h157v66h-197h-196v-66h157v-386c0 -151 -113 -203 -286 -203c-185 0 -301 54 -301 221v368z" />
    <glyph glyph-name="Uhungarumlaut" unicode="&#x170;" horiz-adv-x="1126" 
d="M674 767l155 203h-112l-131 -203h88zM473 767l155 203h-112l-131 -203h88zM269 656h159v66h-196h-197v-66h154v-379c0 -210 143 -282 373 -282s373 74 373 283v378h157v66h-197h-196v-66h157v-386c0 -151 -113 -203 -286 -203c-185 0 -301 54 -301 221v368z" />
    <glyph glyph-name="Umacron" unicode="&#x16a;" horiz-adv-x="1126" 
d="M707 890h-299v-65h299v65zM269 656h159v66h-196h-197v-66h154v-379c0 -210 143 -282 373 -282s373 74 373 283v378h157v66h-197h-196v-66h157v-386c0 -151 -113 -203 -286 -203c-185 0 -301 54 -301 221v368z" />
    <glyph glyph-name="Uogonek" unicode="&#x172;" horiz-adv-x="1126" 
d="M571.902 -4.95359c224.195 2.11738 363.098 76.9695 363.098 282.954v378h157v66h-197h-196v-66h157v-386c0 -151 -113 -203 -286 -203c-185 0 -301 54 -301 221v368h159v66h-196h-197v-66h154v-379c0 -173.665 97.7966 -252.954 261.718 -275.192
c-20.248 -16.303 -32.7182 -38.2112 -32.7182 -70.8082c0 -75 60 -112 141 -112c45 0 76 13 118 30c-40 52 -1 0 -40 52c-25 -11 -43 -19 -70 -19c-38 0 -67 16 -67 50c0 38.8768 33.1219 50.4425 71.9024 63.0464z" />
    <glyph glyph-name="Uring" unicode="&#x16e;" horiz-adv-x="1126" 
d="M464 951c0 50 42 71 96 71c59 0 104 -17 104 -71c0 -52 -44 -71 -101 -71c-56 0 -99 20 -99 71zM386 951c0 -91 77 -132 177 -132c102 0 180 39 180 132s-79 132 -183 132c-99 0 -174 -41 -174 -132zM269 656h159v66h-196h-197v-66h154v-379c0 -210 143 -282 373 -282
s373 74 373 283v378h157v66h-197h-196v-66h157v-386c0 -151 -113 -203 -286 -203c-185 0 -301 54 -301 221v368z" />
    <glyph glyph-name="V" unicode="V" horiz-adv-x="1117" 
d="M583 0h7c111.768 218.992 223.536 437.159 335.303 656h164.697v66h-131h-66h-9h-15h-201v-66h167.304c-98.1554 -192.201 -196.253 -383.882 -293.784 -576.059c-99.7485 192.177 -199.426 383.858 -298.526 576.059h166.005v66h-200h-16h-9h-66h-132v-66h166.245
c113.585 -218.841 227.17 -437.008 340.755 -656h8h82z" />
    <glyph glyph-name="W" unicode="W" horiz-adv-x="1371" 
d="M928.49 100.986c-64.8096 207.113 -130.67 413.694 -199.49 621.014h-11h-70h-14c-73.3593 -207.995 -147.464 -415.246 -221.027 -623.037c-59.7799 185.428 -118.697 371.718 -178.586 557.037h157.613v66h-179h-18h-70h-127v-66h148.94
c72.8453 -218.841 146.365 -437.008 219.06 -656h12h67h9c76.6471 207.55 151.069 414.358 227.099 621.703c68.0562 -207.344 133.866 -414.153 201.901 -621.703h12h65h12c76.3292 218.992 151.833 437.159 228.011 656h149.989v66h-127h-70h-18h-178v-66h155.857
c-62.0218 -185.185 -123.023 -369.886 -184.368 -555.014z" />
    <glyph glyph-name="X" unicode="X" horiz-adv-x="1003" 
d="M503.42 322.686c76.9471 -85.6485 153.908 -171.27 230.971 -256.686h-133.391v-66h193h4h107h90v66h-150.02c-95.9282 105.412 -192.013 210.668 -288.087 315.935c82.5309 91.4447 165.087 182.873 247.996 274.065h154.111v66h-94h-103h-196v-66h135.386
c-65.9724 -71.7343 -132.154 -143.396 -198.36 -215.038c-65.3725 71.6421 -130.725 143.304 -196.006 215.038h135.98v66h-196h-1h-102h-95v-66h154.609c81.9929 -90.8788 163.869 -181.991 245.736 -273.121c-97.5795 -105.582 -195.104 -211.152 -291.98 -316.879
h-152.365v-66h92h104h10h187v66h-126.889c77.6561 85.4154 155.003 171.037 232.309 256.686z" />
    <glyph glyph-name="Y" unicode="Y" horiz-adv-x="946" 
d="M499 340.491c90.1013 104.877 179.544 210.413 269.427 315.509h153.573v66h-97h-89h-11h-197v-66h151.354c-75.7846 -88.4053 -151.488 -177.123 -226.782 -265.497c-71.6701 88.3745 -143.34 177.092 -215.01 265.497h153.439v66h-197h-10h-89h-98v-66h151.561
c85.1462 -105.028 170.292 -210.496 255.439 -315.307v-274.693h-149v-66h149h47h48h149v66h-149v274.491z" />
    <glyph glyph-name="Yacute" unicode="&#xdd;" horiz-adv-x="946" 
d="M416 826c73 55 146 111 219 166h-116c-73 -55 -146 -111 -219 -166h116zM499 340.491c90.1013 104.877 179.544 210.413 269.427 315.509h153.573v66h-97h-89h-11h-197v-66h151.354c-75.7846 -88.4053 -151.488 -177.123 -226.782 -265.497
c-71.6701 88.3745 -143.34 177.092 -215.01 265.497h153.439v66h-197h-10h-89h-98v-66h151.561c85.1462 -105.028 170.292 -210.496 255.439 -315.307v-274.693h-149v-66h149h47h48h149v66h-149v274.491z" />
    <glyph glyph-name="Ydieresis" unicode="&#x178;" horiz-adv-x="946" 
d="M500 855h108c0 -30 -23 -44 -55 -44s-53 15 -53 44zM500 855h108c0 30 -23 45 -55 45c-31 0 -53 -17 -53 -45zM302 855h108c0 -30 -24 -44 -56 -44c-31 0 -52 15 -52 44zM302 855h108c0 30 -24 45 -55 45c-32 0 -53 -17 -53 -45zM499 340.491
c90.1013 104.877 179.544 210.413 269.427 315.509h153.573v66h-97h-89h-11h-197v-66h151.354c-75.7846 -88.4053 -151.488 -177.123 -226.782 -265.497c-71.6701 88.3745 -143.34 177.092 -215.01 265.497h153.439v66h-197h-10h-89h-98v-66h151.561
c85.1462 -105.028 170.292 -210.496 255.439 -315.307v-274.693h-149v-66h149h47h48h149v66h-149v274.491z" />
    <glyph glyph-name="Z" unicode="Z" horiz-adv-x="900" 
d="M166.657 66c226.878 212.032 636.343 590 636.343 590v66h-703v-33v-33v-87h68v87h517.336c-173.32 -162.08 -2.828 -2.50586 -634.336 -590v-66h787v33v33v87h-69v-87h-602.343z" />
    <glyph glyph-name="Zacute" unicode="&#x179;" horiz-adv-x="900" 
d="M408 825c73 55 146 111 219 166h-116c-73 -55 -146 -111 -219 -166h116zM166.657 66c226.878 212.032 636.343 590 636.343 590v66h-703v-33v-33v-87h68v87h517.336c-173.32 -162.08 -2.828 -2.50586 -634.336 -590v-66h787v33v33v87h-69v-87h-602.343z" />
    <glyph glyph-name="Zcaron" unicode="&#x17d;" horiz-adv-x="900" 
d="M163 988c72 -55 145 -111 218 -166h12h104h11c74 55 147 111 219 166h-115c-55.6667 -42.7032 -111.333 -84.8249 -167 -126.809c-55.6667 41.9836 -111.333 84.1053 -167 126.809h-115zM166.657 66c226.878 212.032 636.343 590 636.343 590v66h-703v-33v-33v-87h68v87
h517.336c-173.32 -162.08 -2.828 -2.50586 -634.336 -590v-66h787v33v33v87h-69v-87h-602.343z" />
    <glyph glyph-name="Zdotaccent" unicode="&#x17b;" horiz-adv-x="900" 
d="M393 855h108c0 29 -24 44 -55 44c-32 0 -53 -16 -53 -44zM393 855h108c0 -31 -24 -45 -56 -45c-31 0 -52 16 -52 45zM166.657 66c226.878 212.032 636.343 590 636.343 590v66h-703v-33v-33v-87h68v87h517.336c-173.32 -162.08 -2.828 -2.50586 -634.336 -590v-66h787v33
v33v87h-69v-87h-602.343z" />
    <glyph glyph-name="a" unicode="a" horiz-adv-x="778" 
d="M587 0h41h143v65h-143v311c0 135 -109 162 -254 162c-114 0 -199 -30 -269 -75v-123h68v82.5489c51.4522 27.4605 110.418 49.4511 190 49.4511c101 0 178 -13 178 -111v-31.8025c-82.0474 -7.40594 -141.383 -11.5673 -232 -20.1975c-131 -13 -233 -33 -233 -151
s90 -163 220 -163c108.325 0 172.902 35.1215 245 99.0769v-94.0769h46zM541 166.937c-72.8631 -65.343 -132.387 -107.937 -232 -107.937c-86 0 -147 26 -147 100c0 71 65 84 143 91c93.1183 8.54296 152.665 14.8965 236 23.4249v-106.488z" />
    <glyph glyph-name="aacute" unicode="&#xe1;" horiz-adv-x="778" 
d="M339 639c73 56 146 111 219 166h-116c-73 -55 -146 -111 -218 -166h115zM587 0h41h143v65h-143v311c0 135 -109 162 -254 162c-114 0 -199 -30 -269 -75v-123h68v82.5489c51.4522 27.4605 110.418 49.4511 190 49.4511c101 0 178 -13 178 -111v-31.8025
c-82.0474 -7.40594 -141.383 -11.5673 -232 -20.1975c-131 -13 -233 -33 -233 -151s90 -163 220 -163c108.325 0 172.902 35.1215 245 99.0769v-94.0769h46zM541 166.937c-72.8631 -65.343 -132.387 -107.937 -232 -107.937c-86 0 -147 26 -147 100c0 71 65 84 143 91
c93.1183 8.54296 152.665 14.8965 236 23.4249v-106.488z" />
    <glyph glyph-name="abreve" unicode="&#x103;" horiz-adv-x="778" 
d="M502 770c0 -59 -56 -73 -124 -73c-67 0 -122 15 -122 74h-83c0 -103 88 -138 203 -138c118 0 209 33 209 137h-83zM587 0h41h143v65h-143v311c0 135 -109 162 -254 162c-114 0 -199 -30 -269 -75v-123h68v82.5489c51.4522 27.4605 110.418 49.4511 190 49.4511
c101 0 178 -13 178 -111v-31.8025c-82.0474 -7.40594 -141.383 -11.5673 -232 -20.1975c-131 -13 -233 -33 -233 -151s90 -163 220 -163c108.325 0 172.902 35.1215 245 99.0769v-94.0769h46zM541 166.937c-72.8631 -65.343 -132.387 -107.937 -232 -107.937
c-86 0 -147 26 -147 100c0 71 65 84 143 91c93.1183 8.54296 152.665 14.8965 236 23.4249v-106.488z" />
    <glyph glyph-name="acircumflex" unicode="&#xe2;" horiz-adv-x="781" 
d="M662 640c-73 55 -146 111 -219 166h-11h-105h-11c-73 -55 -146 -111 -219 -166h116c55.5 42.5753 111 84.5727 166.5 126.431c55.5 -41.8588 111 -83.8561 166.5 -126.431h116zM590 0h41h143v65h-143v311c0 135 -109 162 -254 162c-114 0 -199 -30 -269 -75v-123h68
v83.0814c51.2164 27.2117 109.933 48.9186 189 48.9186c102 0 179 -13 179 -111v-31.8025c-82.0474 -7.40594 -141.383 -11.5673 -232 -20.1975c-131 -13 -233 -33 -233 -151s90 -163 220 -163c108.325 0 172.902 35.1215 245 99.0769v-94.0769h46zM544 166.937
c-72.8631 -65.343 -132.387 -107.937 -232 -107.937c-86 0 -147 26 -147 100c0 71 65 84 143 91c92.284 8.54482 152.442 14.8992 236 23.4304v-106.494z" />
    <glyph glyph-name="acute" unicode="&#xb4;" horiz-adv-x="424" 
d="M128 591c73 55 146 111 219 166h-116c-73 -55 -146 -111 -218 -166h115z" />
    <glyph glyph-name="adieresis" unicode="&#xe4;" horiz-adv-x="778" 
d="M424 669h107c0 29 -23 44 -55 44c-31 0 -52 -16 -52 -44zM424 669h107c0 -31 -23 -45 -55 -45c-31 0 -52 16 -52 45zM225 669h108c0 29 -23 44 -55 44c-31 0 -53 -16 -53 -44zM225 669h108c0 -31 -23 -45 -56 -45c-31 0 -52 16 -52 45zM587 0h41h143v65h-143v311
c0 135 -109 162 -254 162c-114 0 -199 -30 -269 -75v-123h68v82.5489c51.4522 27.4605 110.418 49.4511 190 49.4511c101 0 178 -13 178 -111v-31.8025c-82.0474 -7.40594 -141.383 -11.5673 -232 -20.1975c-131 -13 -233 -33 -233 -151s90 -163 220 -163
c108.325 0 172.902 35.1215 245 99.0769v-94.0769h46zM541 166.937c-72.8631 -65.343 -132.387 -107.937 -232 -107.937c-86 0 -147 26 -147 100c0 71 65 84 143 91c93.1183 8.54296 152.665 14.8965 236 23.4249v-106.488z" />
    <glyph glyph-name="ae" unicode="&#xe6;" horiz-adv-x="1211" 
d="M1050.92 310h-422.182c12.6382 108.103 93.1362 161 212.258 161c121.877 0 207.044 -47.3366 209.925 -161zM628.458 249h505.542v48c0 166 -116 240 -288 240c-102.563 0 -185.862 -24.8561 -239.506 -77.6857c-37.3807 63.5973 -125.099 78.6857 -233.494 78.6857
c-114 0 -199 -30 -269 -75v-118h68v76.469c51.4503 28.1759 108.326 50.531 189 50.531c101 0 179 -13 179 -112v-49.9108c-15.3984 0.0490819 -30.0383 0.100123 -44.2581 0.100123c-61.6236 0 -115.357 -0.95858 -188.742 -7.18935c-131 -12 -232 -29 -232 -147
c0 -117 90 -161 220 -161c123.723 0 204.845 34.5629 293.81 113.778c56.4655 -78.1054 158.524 -114.778 288.19 -114.778c98 0 162 21 238 74l-49 54c-64 -44 -113 -62 -189 -62c-139.482 0 -235.73 61.3919 -248.542 189zM541.098 249.127
c2.21373 -29.3708 7.74558 -56.0643 16.3228 -80.1526c-76.7615 -67.8319 -147.288 -109.974 -249.421 -109.974c-83 0 -147 24 -147 98c0 65 66 79 145 86c65.4 5.4 111.72 6.48 162.72 6.48c22.5298 0 45.9729 -0.210765 72.3778 -0.352972z" />
    <glyph glyph-name="agrave" unicode="&#xe0;" horiz-adv-x="778" 
d="M522 639c-73 55 -146 111 -219 166h-116c73 -55 146 -111 219 -166h116zM587 0h41h143v65h-143v311c0 135 -109 162 -254 162c-114 0 -199 -30 -269 -75v-123h68v82.5489c51.4522 27.4605 110.418 49.4511 190 49.4511c101 0 178 -13 178 -111v-31.8025
c-82.0474 -7.40594 -141.383 -11.5673 -232 -20.1975c-131 -13 -233 -33 -233 -151s90 -163 220 -163c108.325 0 172.902 35.1215 245 99.0769v-94.0769h46zM541 166.937c-72.8631 -65.343 -132.387 -107.937 -232 -107.937c-86 0 -147 26 -147 100c0 71 65 84 143 91
c93.1183 8.54296 152.665 14.8965 236 23.4249v-106.488z" />
    <glyph glyph-name="amacron" unicode="&#x101;" horiz-adv-x="778" 
d="M522 703h-299v-65h299v65zM587 0h41h143v65h-143v311c0 135 -109 162 -254 162c-114 0 -199 -30 -269 -75v-123h68v82.5489c51.4522 27.4605 110.418 49.4511 190 49.4511c101 0 178 -13 178 -111v-31.8025c-82.0474 -7.40594 -141.383 -11.5673 -232 -20.1975
c-131 -13 -233 -33 -233 -151s90 -163 220 -163c108.325 0 172.902 35.1215 245 99.0769v-94.0769h46zM541 166.937c-72.8631 -65.343 -132.387 -107.937 -232 -107.937c-86 0 -147 26 -147 100c0 71 65 84 143 91c93.1183 8.54296 152.665 14.8965 236 23.4249v-106.488z
" />
    <glyph glyph-name="ampersand" unicode="&#x26;" horiz-adv-x="950" 
d="M345.648 343.65c9.20452 -6.40487 18.3589 -12.9288 27.3519 -19.65c77.853 -58.1076 162.39 -121.626 245.709 -184.091c-66.1408 -51.6982 -147.465 -79.9093 -244.709 -79.9093c-114 0 -213 29 -213 129c0 96.6465 91.5653 118.456 184.648 154.65zM675.938 97.0343
c44.6674 -33.4364 88.4419 -66.1251 130.062 -97.0343h113c-62.6434 45.3763 -127.867 93.9776 -193.792 143.473c43.3223 47.0227 79.5629 104.529 108.792 171.527l-74 16c-24.7915 -56.194 -55.2648 -104.849 -91.6005 -144.808
c-79.6538 59.964 -159.545 120.255 -236.4 176.808c-4.38406 3.48476 -8.84394 6.88739 -13.3573 10.2242c101.857 41.5752 189.507 83.7643 190.357 191.776c0 114 -103 162 -228 162c-121 0 -216 -54 -216 -164c0 -82.6853 54.5559 -131.575 119.722 -177.532
c-110.842 -43.0611 -210.722 -80.749 -210.722 -196.468c0 -141 137 -194 296 -194c122.427 0 224.293 35.5981 305.938 102.034zM358.389 414.488c-56.6045 38.2044 -106.389 77.2511 -106.389 148.512c0 65 54 99 125 99c79 0 146 -27 146 -97
c0 -88.9672 -78.336 -117.365 -164.611 -150.512z" />
    <glyph glyph-name="aogonek" unicode="&#x105;" horiz-adv-x="778" 
d="M607.726 0h20.274h143v65h-143v311c0 135 -109 162 -254 162c-114 0 -199 -30 -269 -75v-123h68v82.5489c51.4522 27.4605 110.418 49.4511 190 49.4511c101 0 178 -13 178 -111v-31.8025c-82.0474 -7.40594 -141.383 -11.5673 -232 -20.1975
c-131 -13 -233 -33 -233 -151s90 -163 220 -163c108.325 0 172.902 35.1215 245 99.0769v-59.4432c-60.2971 -20.0126 -108 -42.8791 -108 -106.634c0 -75 59 -111 140 -111c46 0 77 12 118 30l-39 52c-25 -12 -43 -19 -71 -19c-37 0 -66 15 -66 50
c0 44.8921 45.1428 53.5088 92.726 70zM541 166.937c-72.8631 -65.343 -132.387 -107.937 -232 -107.937c-86 0 -147 26 -147 100c0 71 65 84 143 91c93.1183 8.54296 152.665 14.8965 236 23.4249v-106.488z" />
    <glyph glyph-name="apostrophemod" horiz-adv-x="454" 
d="M192 518l155 204h-112l-131 -204h88z" />
    <glyph glyph-name="approxequal" unicode="&#x2248;" horiz-adv-x="907" 
d="M738 580c-23 -50 -54 -90 -115 -90c-2.21451 -0.0381812 -4.39986 -0.0574109 -6.55784 -0.0574109c-54.3614 0 -91.3512 12.2028 -139.442 41.0574c-61 37 -104 56 -175 56c-102 0 -159 -40 -194 -131c29 -14 31 -15 61 -28c23 59 60 94 129 94c50 0 82 -10 124 -37
c68 -40 115 -59 193 -60c98 0 151 43 190 126c-32 14 -34 15 -67 29zM736 361c-23 -50 -54 -90 -115 -90c-58 0 -97 11 -146 41c-61 37 -104 56 -175 56c-102 0 -160 -40 -194 -130c29 -14 31 -15 61 -28c23 58 60 93 128 93c51 0 83 -10 125 -37c68 -39 114 -59 193 -60
c97 0 150 43 190 126c-32 14 -34 16 -67 29z" />
    <glyph glyph-name="aring" unicode="&#xe5;" horiz-adv-x="778" 
d="M279 764c0 50 41 72 96 72c58 0 104 -18 104 -72c0 -51 -44 -71 -102 -71c-55 0 -98 20 -98 71zM201 764c0 -90 77 -131 176 -131c103 0 181 39 181 131c0 94 -80 132 -183 132c-100 0 -174 -40 -174 -132zM587 0h41h143v65h-143v311c0 135 -109 162 -254 162
c-114 0 -199 -30 -269 -75v-123h68v82.5489c51.4522 27.4605 110.418 49.4511 190 49.4511c101 0 178 -13 178 -111v-31.8025c-82.0474 -7.40594 -141.383 -11.5673 -232 -20.1975c-131 -13 -233 -33 -233 -151s90 -163 220 -163c108.325 0 172.902 35.1215 245 99.0769
v-94.0769h46zM541 166.937c-72.8631 -65.343 -132.387 -107.937 -232 -107.937c-86 0 -147 26 -147 100c0 71 65 84 143 91c93.1183 8.54296 152.665 14.8965 236 23.4249v-106.488z" />
    <glyph glyph-name="asciicircum" unicode="^" horiz-adv-x="725" 
d="M639 460c-76 105 -156 216 -233 322h-1h-86h-1c-77 -108 -155 -215 -231 -322h87c62.6418 87.0476 125.284 174.095 187.925 261.681c62.428 -87.2581 127.569 -176.447 190.075 -261.681h87z" />
    <glyph glyph-name="asciitilde" unicode="~" horiz-adv-x="902" 
d="M733 361c-23 -50 -54 -90 -115 -90c-58 0 -96 11 -146 41c-61 37 -104 56 -175 56c-102 0 -159 -40 -194 -130c30 -14 31 -15 61 -28c23 58 60 93 129 93c50 0 82 -10 124 -37c68 -39 115 -59 193 -60c98 0 151 43 190 126c-32 14 -34 16 -67 29z" />
    <glyph glyph-name="asterisk" unicode="*" horiz-adv-x="596" 
d="M299.332 507.619l0.168352 0.380623l0.168352 -0.380623l-0.168352 -0.119377zM230.133 495.518c-36.0549 -27.2126 -28.2336 -21.6828 -98.1329 -73.5183l63 -49c70.711 64.6747 56.6503 47.5521 104.02 89.7046c46.8674 -43.0203 33.8256 -25.1436 102.98 -91.7046
l63 49c-68.5136 54.3383 -60.7455 47.2793 -96.8413 75.0369c47.7256 11.4799 38.4902 11.6629 129.841 31.9631l-26 66c-93.5602 -30.9155 -80.5559 -25.4271 -134.382 -42.7688c2.27794 45.8098 -1.32876 30.3737 4.38179 112.769h-86
c5.71634 -81.662 2.76339 -65.9612 5.30019 -112.459c-53.7671 17.3844 -40.9704 10.7448 -135.3 42.4591l-27 -65c92.7274 -21.039 83.4474 -20.8264 131.133 -32.4817z" />
    <glyph glyph-name="at" unicode="@" horiz-adv-x="1095" 
d="M767 -37c-74 -27 -126 -34 -202 -34c-236 0 -411 77 -411 288c0 207 175 281 406 281c218 0 377 -81 377 -278c1 -68 -20 -119 -81 -119c-65 0 -93 51 -93 121c0 122 -89 183 -218 183c-141 0 -239 -56 -239 -184c0 -130 92 -194 228 -194
c80.1148 0 138.927 28.5543 176.437 82.9167c26.8461 -44.8276 73.702 -70.9167 138.563 -70.9167c111 0 171 70 171 184c0 242 -191 343 -455 343c-284 0 -494 -96 -494 -352c0 -254 208 -350 489 -350c93 0 163 13 237 43zM685.197 192.631
c-26.0544 -63.4517 -67.9086 -100.631 -139.197 -100.631c-94 0 -157 44 -157 132c0 80 62 116 148 116c87 0 147 -39 147 -121c0 -9.05835 0.400565 -17.8543 1.19653 -26.3688z" />
    <glyph glyph-name="atilde" unicode="&#xe3;" horiz-adv-x="778" 
d="M582 795c-17 -50 -39 -89 -82 -89s-71 13 -104 40c-44 35 -79 53 -135 53c-84 0 -135 -46 -158 -128c65 -29 1 -1 66 -29c17 55 46 90 94 90c38 0 60 -17 90 -41c46 -37 85 -54 144 -54c82 0 125 52 153 131c-30.4521 12.0913 -33.6298 13.1524 -33.9614 13.1524
c-0.408868 0 -0.408868 0 -34.0386 13.8476zM587 0h41h143v65h-143v311c0 135 -109 162 -254 162c-114 0 -199 -30 -269 -75v-123h68v82.5489c51.4522 27.4605 110.418 49.4511 190 49.4511c101 0 178 -13 178 -111v-31.8025
c-82.0474 -7.40594 -141.383 -11.5673 -232 -20.1975c-131 -13 -233 -33 -233 -151s90 -163 220 -163c108.325 0 172.902 35.1215 245 99.0769v-94.0769h46zM541 166.937c-72.8631 -65.343 -132.387 -107.937 -232 -107.937c-86 0 -147 26 -147 100c0 71 65 84 143 91
c93.1183 8.54296 152.665 14.8965 236 23.4249v-106.488z" />
    <glyph glyph-name="b" unicode="b" horiz-adv-x="886" 
d="M211 0h41v51.3741c73.5498 -40.7965 148.332 -56.3741 241 -56.3741c181 0 317 97 317 270c0 174 -135 273 -313 273c-92.9399 0 -178.918 -27.8484 -245 -65.5169v327.517h-41h-46h-151v-66h151v-668.766l-151 0.766497v-66h151h46zM252 127.815v266.356
c56.6327 41.5283 143.328 75.8288 238 75.8288c135 0 233 -76 233 -208c0.986816 -125.326 -95.4069 -199.04 -227.679 -199.04c-1.7672 0 -3.54081 0.0131578 -5.32068 0.0395262c-90.7247 0 -163.587 14.2899 -238 64.8147z" />
    <glyph glyph-name="backslash" unicode="\" horiz-adv-x="713" 
d="M662 -68c-173 304 -346 608 -520 912h-91c173 -304 347 -608 520 -912h91z" />
    <glyph glyph-name="bar" unicode="|" horiz-adv-x="277" 
d="M182 -300v1100h-87v-1100h87z" />
    <glyph glyph-name="braceleft" unicode="{" horiz-adv-x="412" 
d="M355 795c-114 0 -193 -55 -193 -163v-173c0 -59 -49 -85 -113 -85v-68c64 0 113 -28 113 -89v-168c0 -108 80 -165 193 -165v65c-67 0 -114 33 -114 97v165c0 58.2121 -24.1271 101.646 -64.4313 128.978c39.775 27.1894 63.4313 70.4699 63.4313 129.022v163
c0 64 47 98 115 98v65z" />
    <glyph glyph-name="braceright" unicode="}" horiz-adv-x="412" 
d="M57 730c68 0 115 -34 115 -98v-163c0 -58.8771 23.9195 -102.313 64.2613 -129.473c-40.2021 -27.498 -64.2613 -70.945 -64.2613 -128.527v-165c0 -64 -47 -97 -115 -97v-65c114 0 194 57 194 165v168c0 60 48 89 113 89v68c-65 0 -114 25 -114 86v172
c0 108 -79 163 -193 163v-65z" />
    <glyph glyph-name="bracketleft" unicode="[" horiz-adv-x="381" 
d="M332 770h-238v-888h238v72h-151v744h151v72z" />
    <glyph glyph-name="bracketright" unicode="]" horiz-adv-x="380" 
d="M199 -46h-150v-72h237v888h-237v-72h150v-744z" />
    <glyph glyph-name="breve" unicode="&#x2d8;" horiz-adv-x="539" 
d="M345 718c0 -59 -56 -73 -124 -73s-122 15 -122 74h-83c0 -103 87 -138 202 -138c118 0 209 33 209 137h-82z" />
    <glyph glyph-name="brokenbar" unicode="&#xa6;" horiz-adv-x="301" 
d="M194 428v372h-87v-372h87zM194 -300v372h-87v-372h87z" />
    <glyph glyph-name="bullet" unicode="&#x2022;" horiz-adv-x="462" 
d="M124 440h214c0 59 -46 89 -109 89s-105 -32 -105 -89zM124 440h214c0 -61 -46 -89 -110 -89c-63 0 -104 31 -104 89z" />
    <glyph glyph-name="bulletoperator" unicode="&#x2219;" horiz-adv-x="417" 
d="M101 440h215c0 59 -47 89 -110 89s-105 -32 -105 -89zM101 440h215c0 -61 -47 -89 -111 -89c-63 0 -104 31 -104 89z" />
    <glyph glyph-name="c" unicode="c" horiz-adv-x="720" 
d="M647 471c-67 40 -149 67 -231 67c-200 0 -340 -80 -340 -271c0 -190 137 -272 336 -272c91 0 180 27 241 81l-48 54c-53 -46 -120 -67 -189 -67c-148 0 -253 61 -253 204c0 142 103 203 250 203c58.2462 0 114.836 -14.0807 166 -39.2269v-99.7731h68v140z" />
    <glyph glyph-name="cacute" unicode="&#x107;" horiz-adv-x="720" 
d="M373 640c73 55 146 111 219 166h-116c-73 -55 -146 -111 -219 -166h116zM647 471c-67 40 -149 67 -231 67c-200 0 -340 -80 -340 -271c0 -190 137 -272 336 -272c91 0 180 27 241 81l-48 54c-53 -46 -120 -67 -189 -67c-148 0 -253 61 -253 204c0 142 103 203 250 203
c58.2462 0 114.836 -14.0807 166 -39.2269v-99.7731h68v140z" />
    <glyph glyph-name="caron" unicode="&#x2c7;" horiz-adv-x="698" 
d="M12 757c72 -55 145 -111 218 -166h12h104h11c73 55 147 111 219 166h-116c-55.5735 -41.8705 -111.147 -84.3205 -166.279 -126.468c-55.5735 42.1472 -111.147 84.5972 -166.721 126.468h-115z" />
    <glyph glyph-name="ccaron" unicode="&#x10d;" horiz-adv-x="744" 
d="M128 802c72 -55 145 -111 219 -166h11h104h11c74 55 147 111 219 166h-115c-55.6667 -41.9406 -111.333 -83.8813 -167 -126.265c-55.6667 42.3841 -111.333 84.3247 -167 126.265h-115zM647 471c-67 40 -149 67 -231 67c-200 0 -340 -80 -340 -271
c0 -190 137 -272 336 -272c91 0 180 27 241 81l-48 54c-53 -46 -120 -67 -189 -67c-148 0 -253 61 -253 204c0 142 103 203 250 203c58.2462 0 114.836 -14.0807 166 -39.2269v-99.7731h68v140z" />
    <glyph glyph-name="ccedilla" unicode="&#xe7;" horiz-adv-x="720" 
d="M359 -108c13 7 25 9 40 9c27 0 48 -11 48 -35c0 -30 -29 -37 -63 -37c-32 0 -57 5 -92 20l-25 -51c40 -16 71 -24 113 -24c83 0 149 22 149 94c0 61.7038 -47.761 92.7685 -113.342 95.7605c9.23365 11.587 18.0801 22.7321 25.5249 32.1715
c80.5886 5.17108 157.361 31.8604 211.817 80.068l-48 54c-53 -46 -120 -67 -189 -67c-148 0 -253 61 -253 204c0 142 103 203 250 203c58.2462 0 114.836 -14.0807 166 -39.2269v-99.7731h68v140c-67 40 -149 67 -231 67c-200 0 -340 -80 -340 -271
c0 -166.798 105.583 -250.363 266.008 -268.284c-16.6662 -21.5682 -33.1827 -42.9492 -42.0076 -54.7157c27.6971 -24.411 29.3898 -25.9029 29.3898 -25.9941c0 -0.10305 0 -0.355422 28.6102 -26.0059c0.138126 0.169518 0.277434 0.340534 0.41791 0.513029z" />
    <glyph glyph-name="cedilla" unicode="&#xb8;" horiz-adv-x="452" 
d="M210.431 0.813948c14.9011 18.8444 28.8852 36.4349 37.5688 47.1861l-67 46c-18 -25 -67 -88 -86 -113l59 -52c14 7 25 9 41 9c27 0 47 -10 47 -35c0 -29 -29 -37 -62 -37c-32 0 -57 6 -93 20l-25 -50c40 -16 71 -24 114 -24c82 0 149 21 149 93
c0 63.0037 -49.2083 93.2019 -114.569 95.8139z" />
    <glyph glyph-name="cent" unicode="&#xa2;" horiz-adv-x="853" 
d="M518 682.39v95.6102h-86v-96.707c-209.528 -14.0778 -361 -115.551 -361 -316.293c0 -193.813 136.318 -302.649 334 -314.848v-103.152h86v103.293c106.02 5.96466 189.396 32.9878 288 89.7072l-46 58c-100 -58 -176 -80 -282 -80c-172 0 -293 87 -293 250
c0 168 136 247 318 247c98 0 169 -15 265 -61l38 60c-90.6608 44.8816 -164.401 64.7852 -261 68.3898z" />
    <glyph glyph-name="circumflex" unicode="&#x2c6;" horiz-adv-x="826" 
d="M576 591c-73 55 -146 111 -219 166h-11h-105h-11c-73 -55 -146 -111 -219 -166h116c55.5 41.8151 111 84.2082 166.5 126.3c55.5 -42.0922 111 -84.4853 166.5 -126.3h116z" />
    <glyph glyph-name="colon" unicode=":" horiz-adv-x="304" 
d="M101 36h102c0 -29 -22 -42 -53 -42c-29 0 -49 15 -49 42zM101 36h102c0 29 -22 43 -52 43s-50 -16 -50 -43zM101 403h102c0 29 -22 43 -52 43s-50 -16 -50 -43zM101 403h102c0 -30 -22 -42 -53 -42c-29 0 -49 15 -49 42z" />
    <glyph glyph-name="comma" unicode="," horiz-adv-x="386" 
d="M129 -126l155 204h-112l-131 -204h88z" />
    <glyph glyph-name="commaaccent" horiz-adv-x="455" 
d="M179 -126l155 204h-113l-130 -204h88z" />
    <glyph glyph-name="copyright" unicode="&#xa9;" horiz-adv-x="1027" 
d="M625 433v-53h67v87c-53 27 -103 37 -167 37c-136 0 -239 -58 -239 -183c0 -120 94 -179 221 -179c76 0 130 10 196 48l-35 43c-60 -30 -101 -37 -158 -37c-89 0 -152 44 -152 128c0 86 70 126 164 126c43 0 73 -6 104 -16
c25.102 11.5855 30.9651 14.6702 32.4489 15.8198c-0.34291 -0.986918 -2.39976 -2.70651 -33.4489 -16.8198zM77 322c0 -220 204 -321 447 -321c234 0 426 107 426 322c0 216 -196 322 -432 322c-240 0 -441 -104 -441 -323zM148 322c0 183 169 269 370 269
c197 0 361 -89 361 -271c0 -177 -160 -265 -352 -265c-203 0 -379 81 -379 267z" />
    <glyph glyph-name="currency" unicode="&#xa4;" horiz-adv-x="767" 
d="M145 313c0 -40.26 10.4514 -73.7869 29.1241 -100.804c-32.3747 -22.3944 -64.7494 -45.3622 -97.1241 -67.1963l59 -52c32.5657 21.7104 65.1313 44.0221 97.2309 66.935c41.226 -22.8096 94.3454 -33.935 153.769 -33.935c56.5824 0 106.841 11.2428 146.136 33.5075
c30.956 -22.115 62.1897 -43.8113 92.8637 -65.5075l63 49c-32.6916 22.0478 -65.3831 45.2516 -98.0747 68.2931c19.2953 27.8553 30.0747 62.4601 30.0747 103.707c0 42.4748 -11.9999 77.0709 -33.1723 104.126c30.7416 21.3706 61.7198 43.1224 92.1723 64.8742l-59 52
c-31.8928 -22.7806 -64.3622 -45.5612 -96.5326 -67.9039c-37.1638 17.4223 -82.9348 25.9039 -133.467 25.9039c-56.4588 0 -107.638 -8.90896 -148.512 -28.0001c-32.4959 22.7167 -64.9918 45.5728 -97.4877 69.0001l-59 -52
c31.0925 -22.2089 62.185 -43.8698 92.8717 -65.3883c-21.6115 -26.9974 -33.8717 -61.6223 -33.8717 -104.612zM232 313c0 79 66 116 151 116c88 0 152 -38 152 -117c0 -78 -61 -120 -144 -120c-92 0 -159 38 -159 121z" />
    <glyph glyph-name="d" unicode="d" horiz-adv-x="892" 
d="M635 414.916v-273.122c-61.063 -57.8253 -124.957 -80.7942 -211 -80.7942c-149 0 -265 66 -265 205c0 140 118 206 266 206c80.5593 0 148.829 -15.567 210 -57.0836zM635 61.5304v-61.5304h46h45h152v65h-152v735h-46h-45h-152v-65h152v-247.926
c-60.4295 33.8265 -135.697 50.9263 -212 50.9263c-197 0 -350 -91 -350 -275c0 -183 158 -268 357 -268c86.0161 0 149.566 21.4215 205 66.5304z" />
    <glyph glyph-name="dagger" unicode="&#x2020;" horiz-adv-x="721" 
d="M401 533v266h-82v-266h-276v-72h276v-759h82v759l277 5.68434e-14v72h-277z" />
    <glyph glyph-name="daggerdbl" unicode="&#x2021;" horiz-adv-x="797" 
d="M357 -42v-256h82v256h277v72h-277v431l277 5.68434e-14v72h-277v266h-82v-266h-276v-72h276v-431h-276v-72h276z" />
    <glyph glyph-name="dcaron" unicode="&#x10f;" horiz-adv-x="1059" 
d="M877 597l155 203h-112l-131 -203h88zM635 414.916v-273.122c-61.063 -57.8253 -124.957 -80.7942 -211 -80.7942c-149 0 -265 66 -265 205c0 140 118 206 266 206c80.5593 0 148.829 -15.567 210 -57.0836zM635 61.5304v-61.5304h46h45h152v65h-152v735h-46h-45h-152v-65
h152v-247.926c-60.4295 33.8265 -135.697 50.9263 -212 50.9263c-197 0 -350 -91 -350 -275c0 -183 158 -268 357 -268c86.0161 0 149.566 21.4215 205 66.5304z" />
    <glyph glyph-name="dcroat" unicode="&#x111;" horiz-adv-x="891" 
d="M635 616v-129.149c-60.1773 33.9741 -135.808 51.1489 -213 51.1489c-197 0 -350 -91 -350 -275c0 -183 158 -268 357 -268c86.9761 0 150.312 21.5388 206 66.9009v-61.9009h46h44h153v65h-153v551h107v54h-107v130h-45h-45h-152v-65h152v-65h-224v-54h224zM635 414.405
v-271.875c-60.695 -58.3668 -125.593 -81.5306 -212 -81.5306c-148 0 -264 66 -264 205c0 140 117 206 266 206c80.889 0 149.388 -15.6947 210 -57.5947z" />
    <glyph glyph-name="degree" unicode="&#xb0;" horiz-adv-x="629" 
d="M84 513c0 -131 93 -202 229 -202c137 0 232 69 232 200c0 127 -94 198 -231 198s-230 -71 -230 -196zM156 513c0 87 61 139 154 139c97 0 163 -51 163 -141c0 -92 -63 -144 -157 -144c-96 0 -160 54 -160 146z" />
    <glyph glyph-name="deltamath" horiz-adv-x="971" 
d="M41 0h888v72l-392 710h-3h-86h-3l-404 -710v-72zM490.352 705.291l349.648 -633.291h-710z" />
    <glyph glyph-name="dieresis" unicode="&#xa8;" horiz-adv-x="541" 
d="M262 650h108c0 -30 -23 -44 -55 -44s-53 15 -53 44zM262 650h108c0 30 -23 45 -55 45c-31 0 -53 -16 -53 -45zM64 650h108c0 -30 -24 -44 -56 -44c-31 0 -52 15 -52 44zM64 650h108c0 30 -24 45 -55 45c-32 0 -53 -16 -53 -45z" />
    <glyph glyph-name="divide" unicode="&#xf7;" horiz-adv-x="839" 
d="M102 275h635v72h-635v-72zM363 124h102c0 29 -23 43 -53 43c-29 0 -49 -16 -49 -43zM363 124h102c0 -30 -23 -42 -53 -42s-49 15 -49 42zM363 491h102c0 29 -23 42 -53 42c-29 0 -49 -15 -49 -42zM363 491h102c0 -30 -23 -42 -53 -42s-49 14 -49 42z" />
    <glyph glyph-name="divisionslash" unicode="&#x2215;" horiz-adv-x="664" 
d="M90 -65l566 797h-82l-566 -796z" />
    <glyph glyph-name="dollar" unicode="$" horiz-adv-x="744" 
d="M318 683.526c-128.25 -7.55707 -227 -45.8288 -227 -152.526c0 -118 116 -147 248 -186c117 -34 248 -50 249 -139c-1 -86 -114 -96 -238 -96c-78.8391 0 -149.652 16.8553 -211 36.9034v82.0966h-68v-134c67.0459 -23.5096 144.706 -43.9865 231 -48.8879v-87.1121h87
v86.7432c156.266 5.12513 285 38.8041 285 163.257c0 126 -143 152 -284 195c-107 32 -212 48 -212 127c0 74 89 89 188 89c78.5517 0 136.387 -9.56153 204.089 -32.9521c0.244752 -42.4077 0.911239 10.9185 0.911239 -87.0479h67c0 120 1 13 1 133
c-82.3418 30.9888 -149.005 47.867 -234 51.3287v88.6713h-87v-89.4741z" />
    <glyph glyph-name="dotaccent" unicode="&#x2d9;" horiz-adv-x="630" 
d="M245 650h107c0 -30 -23 -44 -55 -44s-52 15 -52 44zM245 650h107c0 30 -23 45 -55 45c-31 0 -52 -16 -52 -45z" />
    <glyph glyph-name="dotlessi" unicode="&#x131;" horiz-adv-x="441" 
d="M196 467v-401h-152v-66h152h44h47h137v66h-137v467h-47h-44h-152v-66h152z" />
    <glyph glyph-name="e" unicode="e" horiz-adv-x="751" 
d="M590.899 311h-422.156c12.6382 108.103 93.1362 161 212.258 161c121.54 0 206.573 -47.0751 209.899 -161zM168.458 250h504.542v47c0 167 -115 241 -287 241c-184 0 -306 -80 -306 -258c0 -196 135 -285 337 -285c98 0 162 21 238 74l-49 53c-64 -44 -113 -61 -189 -61
c-139.482 0 -235.73 61.3919 -248.542 189z" />
    <glyph glyph-name="eacute" unicode="&#xe9;" horiz-adv-x="751" 
d="M345 640c73 55 146 111 219 166h-116c-73 -55 -146 -111 -218 -166h115zM590.899 311h-422.156c12.6382 108.103 93.1362 161 212.258 161c121.54 0 206.573 -47.0751 209.899 -161zM168.458 250h504.542v47c0 167 -115 241 -287 241c-184 0 -306 -80 -306 -258
c0 -196 135 -285 337 -285c98 0 162 21 238 74l-49 53c-64 -44 -113 -61 -189 -61c-139.482 0 -235.73 61.3919 -248.542 189z" />
    <glyph glyph-name="ecaron" unicode="&#x11b;" horiz-adv-x="752" 
d="M100 802c73 -55 146 -111 219 -166h11h105h11c73 55 146 111 219 166h-116c-55.5 -41.8151 -111 -83.6301 -166.5 -125.885c-55.5 42.2545 -111 84.0696 -166.5 125.885h-116zM590.899 311h-422.156c12.6382 108.103 93.1362 161 212.258 161
c121.54 0 206.573 -47.0751 209.899 -161zM168.458 250h504.542v47c0 167 -115 241 -287 241c-184 0 -306 -80 -306 -258c0 -196 135 -285 337 -285c98 0 162 21 238 74l-49 53c-64 -44 -113 -61 -189 -61c-139.482 0 -235.73 61.3919 -248.542 189z" />
    <glyph glyph-name="ecircumflex" unicode="&#xea;" horiz-adv-x="752" 
d="M665 641c-72 55 -145 111 -219 166h-11h-104h-12c-73 -55 -146 -111 -218 -166h115c55.6667 41.9406 111.333 83.8813 167 126.265c55.6667 -42.3841 111.333 -84.3247 167 -126.265h115zM590.899 311h-422.156c12.6382 108.103 93.1362 161 212.258 161
c121.54 0 206.573 -47.0751 209.899 -161zM168.458 250h504.542v47c0 167 -115 241 -287 241c-184 0 -306 -80 -306 -258c0 -196 135 -285 337 -285c98 0 162 21 238 74l-49 53c-64 -44 -113 -61 -189 -61c-139.482 0 -235.73 61.3919 -248.542 189z" />
    <glyph glyph-name="edieresis" unicode="&#xeb;" horiz-adv-x="751" 
d="M430 669h107c0 -30 -23 -44 -55 -44c-31 0 -52 15 -52 44zM430 669h107c0 30 -23 45 -55 45c-31 0 -52 -17 -52 -45zM231 669h108c0 -30 -23 -44 -56 -44c-31 0 -52 15 -52 44zM231 669h108c0 30 -23 45 -55 45c-31 0 -53 -17 -53 -45zM590.899 311h-422.156
c12.6382 108.103 93.1362 161 212.258 161c121.54 0 206.573 -47.0751 209.899 -161zM168.458 250h504.542v47c0 167 -115 241 -287 241c-184 0 -306 -80 -306 -258c0 -196 135 -285 337 -285c98 0 162 21 238 74l-49 53c-64 -44 -113 -61 -189 -61
c-139.482 0 -235.73 61.3919 -248.542 189z" />
    <glyph glyph-name="edotaccent" unicode="&#x117;" horiz-adv-x="751" 
d="M331 670h107c0 29 -23 44 -55 44c-31 0 -52 -16 -52 -44zM331 670h107c0 -31 -23 -45 -55 -45s-52 16 -52 45zM590.899 311h-422.156c12.6382 108.103 93.1362 161 212.258 161c121.54 0 206.573 -47.0751 209.899 -161zM168.458 250h504.542v47c0 167 -115 241 -287 241
c-184 0 -306 -80 -306 -258c0 -196 135 -285 337 -285c98 0 162 21 238 74l-49 53c-64 -44 -113 -61 -189 -61c-139.482 0 -235.73 61.3919 -248.542 189z" />
    <glyph glyph-name="egrave" unicode="&#xe8;" horiz-adv-x="751" 
d="M528 639c-73 55 -146 111 -219 166h-116c73 -55 146 -110 219 -166h116zM590.899 311h-422.156c12.6382 108.103 93.1362 161 212.258 161c121.54 0 206.573 -47.0751 209.899 -161zM168.458 250h504.542v47c0 167 -115 241 -287 241c-184 0 -306 -80 -306 -258
c0 -196 135 -285 337 -285c98 0 162 21 238 74l-49 53c-64 -44 -113 -61 -189 -61c-139.482 0 -235.73 61.3919 -248.542 189z" />
    <glyph glyph-name="eight" unicode="8" horiz-adv-x="752" 
d="M378.805 410.295c-99.6384 32.2054 -188.805 44.2367 -188.805 138.705c0 86 80 110 181 110c109 0 191 -20 191 -112c0 -92.8792 -86.2322 -106.989 -183.195 -136.705zM470.589 378.465c98.694 33.2458 178.411 62.054 178.411 168.535c0 140 -115 180 -274 180
c-154 0 -272 -42 -272 -178c0 -107.077 78.8378 -138.657 178.626 -171.196c-113.805 -38.2127 -203.626 -73.5016 -203.626 -195.804c0 -146 125 -187 293 -187c171 0 303 36 303 187c0 120.673 -90.4386 157.317 -203.411 196.465zM377.077 346.211
c112.442 -36.7211 209.994 -56.4682 210.923 -164.211c-1 -99 -94 -120 -213 -120s-210 22 -210 120c0 109.69 99.4087 127.618 212.077 164.211z" />
    <glyph glyph-name="ellipsis" unicode="&#x2026;" horiz-adv-x="800" 
d="M346 36h107c0 -30 -23 -44 -55 -44s-52 15 -52 44zM346 36h107c0 30 -23 45 -55 45c-31 0 -52 -16 -52 -45zM594 36h108c0 -30 -23 -44 -56 -44c-31 0 -52 15 -52 44zM594 36h108c0 30 -23 45 -55 45c-31 0 -53 -16 -53 -45zM98 36h108c0 -30 -24 -44 -56 -44
c-31 0 -52 15 -52 44zM98 36h108c0 30 -24 45 -55 45c-32 0 -53 -16 -53 -45z" />
    <glyph glyph-name="emacron" unicode="&#x113;" horiz-adv-x="751" 
d="M528 704h-299v-65h299v65zM590.899 311h-422.156c12.6382 108.103 93.1362 161 212.258 161c121.54 0 206.573 -47.0751 209.899 -161zM168.458 250h504.542v47c0 167 -115 241 -287 241c-184 0 -306 -80 -306 -258c0 -196 135 -285 337 -285c98 0 162 21 238 74l-49 53
c-64 -44 -113 -61 -189 -61c-139.482 0 -235.73 61.3919 -248.542 189z" />
    <glyph glyph-name="emdash" unicode="&#x2014;" horiz-adv-x="1092" 
d="M100 242h892v72h-892v-72z" />
    <glyph glyph-name="endash" unicode="&#x2013;" horiz-adv-x="706" 
d="M101 242h504v72h-504v-72z" />
    <glyph glyph-name="eogonek" unicode="&#x119;" horiz-adv-x="751" 
d="M590.899 311h-422.156c12.6382 108.103 93.1362 161 212.258 161c121.54 0 206.573 -47.0751 209.899 -161zM438.022 -4.65711c86.4255 2.90797 146.549 24.5424 216.978 73.6571l-49 53c-64 -44 -113 -61 -189 -61c-139.482 0 -235.73 61.3919 -248.542 189h504.542v47
c0 167 -115 241 -287 241c-184 0 -306 -80 -306 -258c0 -164.592 95.2007 -253.729 245.333 -278.07c-17.0203 -15.7503 -27.3334 -36.477 -27.3334 -65.9301c0 -75 60 -112 141 -112c46 0 76 13 118 30l-40 52c-25 -11 -43 -19 -70 -19c-38 0 -66 16 -66 50
c0 34.0472 24.9581 47.1475 57.0223 58.3429z" />
    <glyph glyph-name="equal" unicode="=" horiz-adv-x="1040" 
d="M102 405h835v69h-835v-69zM102 183h835v69h-835v-69z" />
    <glyph glyph-name="estimated" unicode="&#x212e;" horiz-adv-x="823" 
d="M600 609.356v-202.356h-371v200.651c45.5907 34.3475 106.729 53.3485 183 53.3485c78.0651 0 141.19 -18.3602 188 -51.6441zM229 347h561v47c0 203 -135 332 -374 332c-244 0 -384 -136 -384 -351c0 -233 153 -380 420 -380c119 0 223 36 317 107l-47 47
c-88 -61 -177 -89 -270 -89c-94.8922 0 -169.559 25.0794 -223 70.0537v216.946z" />
    <glyph glyph-name="eth" unicode="&#xf0;" horiz-adv-x="780" 
d="M606.797 348.612c-33.4342 125.55 -132.982 202.486 -266.441 251.656c-38.3721 -38.2841 -76.8744 -76.7864 -117.356 -117.268l-41 41c33.3326 32.9663 65.4577 64.7251 97.2599 96.2593c-60.0569 17.4338 -125.276 30.4966 -193.26 40.7407
c6.42857 30.4286 7.16327 34.7755 7.16327 35.3965c0 0.827988 0 0.827988 7.83673 35.6035c84.7213 -11.262 165.446 -27.8962 238.67 -51.6966c34.7696 34.6561 69.8255 69.7913 106.33 106.697l41 -41c-30.2687 -29.9397 -59.3468 -58.797 -87.982 -87.2841
c180.774 -73.4147 302.982 -199.792 302.982 -411.716c0 -176 -140 -256 -330 -256c-171 0 -297 67 -297 223c0 153 127 215 296 215c98.7555 0 177.565 -24.5845 235.797 -80.388zM618.975 246.619c-56.8161 83.2924 -133.421 113.381 -240.975 113.381
c-122 0 -216 -40 -216 -149c0 -104 90 -142 206 -142c141.744 0 249.1 51.0906 250.975 177.619z" />
    <glyph glyph-name="exclam" unicode="!" horiz-adv-x="317" 
d="M202 229v493h-87v-493h87zM105 40h109c0 30 -24 45 -55 45s-54 -16 -54 -45zM105 40h109c0 -31 -23 -44 -55 -44s-54 15 -54 44z" />
    <glyph glyph-name="exclamdown" unicode="&#xa1;" horiz-adv-x="317" 
d="M115 493v-493h87v493h-87zM212 682h-109c0 -30 24 -45 55 -45s54 16 54 45zM212 682h-109c0 31 23 44 55 44s54 -15 54 -44z" />
    <glyph glyph-name="f" unicode="f" horiz-adv-x="644" 
d="M337 525v98c0 76 57 116 138 116c29.4284 0 58.3416 -4.63668 86 -12.4309v-89.5691h68v131c-50 19 -102 35 -154 35c-130 0 -226 -59 -225 -180v-98h-202v-66h202v-393.781l-153 0.780612v-66h153h43h44h153v66l-153 -0.77665v393.777h270v66h-270z" />
    <glyph glyph-name="fi" unicode="&#xfb01;" horiz-adv-x="815" 
d="M287 0h39h93v66h-93v414h231v-414h-92v-66h92h53h3h30h147v66h-147v479h-317v49c0 100 68 163 170 163c22 0 39 -1 60 -6v-88h87v138c-54 14 -95 21 -151 21c-149 0 -254 -85 -252 -228v-49h-203v-65h203v-414h-150v-66h150h47z" />
    <glyph glyph-name="five" unicode="5" horiz-adv-x="706" 
d="M203 445.344v210.656h401v66h-483v-320v-7l82 -18c28 10 83 18 123 18c123 0 223 -52 223 -162c0 -112 -107 -168 -233 -168c-75 0 -136 12 -206 40l-43 -61c81 -33 156 -49 245 -49c175 0 324 78 324 238c0 152 -134 231 -302 231
c-41.6614 0 -88.8598 -5.53696 -131 -18.6556z" />
    <glyph glyph-name="fl" unicode="&#xfb02;" horiz-adv-x="816" 
d="M288 0h38h94v66h-94v414h231v-414h-89v-66h89h54h4h28h149v66h-149v735c-54 14 -95 21 -151 21c-149 0 -254 -85 -252 -228v-49h-203v-65h203v-414h-148v-66h148h48zM326 545v49c0 100 68 163 170 163c5.5 0 10.75 0.0625 15.8594 0.0625
c15.3281 0 29.3906 -0.5625 45.1406 -5.0625v-207h-231z" />
    <glyph glyph-name="florin" unicode="&#x192;" horiz-adv-x="591" 
d="M578 821c-16.3253 2.25176 -32.1158 3.39437 -47.2851 3.39437c-92.617 0 -162.078 -42.5937 -188.715 -135.394c-11.9802 -44 -23.9129 -88 -35.8189 -132h-127.181v-65h109.61c-36.8243 -136.333 -73.4893 -272.667 -110.61 -409
c-14.6434 -54.2668 -55.2559 -81.0807 -109.694 -81.0807c-8.76077 0 -17.8796 0.694442 -27.3059 2.08066l-16 -65c15.7735 -2.03968 31.1032 -3.08089 45.8962 -3.08089c93.996 0 166.319 42.0385 193.104 137.081l115.02 419h142.98v65h-125.137l35.1373 128
c13.5243 51.5615 51.3411 73.1148 101.372 73.1148c9.15822 0 18.7257 -0.722211 28.6284 -2.11477z" />
    <glyph glyph-name="four" unicode="4" horiz-adv-x="826" 
d="M459 245v-179h-155v-66h197h196v66h-151v179h218v72h-218v393h-87c-418 -393 0 -1 -418 -393l35 -72h383zM459 317h-306.967c54.3044 51.4122 147.393 139.535 306.967 290.581v-290.581z" />
    <glyph glyph-name="foursuperior" unicode="&#x2074;" horiz-adv-x="654" 
d="M379 274h43h153v61h-153v69h109v62h-109v252v5h-86l-272 -257l30 -62h242v-69h-154v-61h154h43zM336 635.671v-169.671h-177.236z" />
    <glyph glyph-name="fraction" unicode="&#x2044;" horiz-adv-x="738" 
d="M86 -65l566 797h-82l-565 -796z" />
    <glyph glyph-name="g" unicode="g" horiz-adv-x="790" 
d="M233.424 -6.3633c41.92 -9.59283 91.3811 -13.1882 141.576 -16.6367c134 -8 276 3 276 -108c0 -100 -132 -108 -267 -108c-125 0 -243 20 -243 121c0 58.3172 40.0182 90.3929 92.4237 111.637zM161.805 22.448c-62.4917 -28.0288 -107.805 -70.4452 -107.805 -143.448
c0 -150 155 -183 326 -183c182 0 353 21 350 179c0 155 -168 155 -339 165c-92 4 -186 5 -186 78c0 30.4254 17.0712 50.3877 41.8147 65.6081c40.068 -12.1368 86.3984 -17.6081 135.185 -17.6081c151 0 278 51 278 185c0 34.6898 -8.49495 64.0616 -23.688 88.5148
c44.108 15.7479 87.5563 30.3294 124.688 45.4852l-34 63c-48.3186 -17.4264 -95.3824 -37.3625 -143.179 -56.3294c-49.4066 31.8743 -118.46 46.3294 -193.821 46.3294c-152 0 -278 -58 -278 -193c0 -60.6236 26.9662 -103.632 70.5543 -132.271
c-38.5591 -22.568 -64.5543 -53.65 -64.5543 -101.729c0 -41.6353 16.5157 -69.5075 43.8051 -88.552zM200 348c0 89 87 125 190 125c100 0 183 -36 183 -124c0 -85 -84 -118 -184 -118s-189 28 -189 117z" />
    <glyph glyph-name="gbreve" unicode="&#x11f;" horiz-adv-x="790" 
d="M515 770c0 -59 -56 -73 -124 -73s-122 15 -122 74h-83c0 -103 87 -139 202 -139c118 0 209 34 209 138h-82zM233.424 -6.3633c41.92 -9.59283 91.3811 -13.1882 141.576 -16.6367c134 -8 276 3 276 -108c0 -100 -132 -108 -267 -108c-125 0 -243 20 -243 121
c0 58.3172 40.0182 90.3929 92.4237 111.637zM161.805 22.448c-62.4917 -28.0288 -107.805 -70.4452 -107.805 -143.448c0 -150 155 -183 326 -183c182 0 353 21 350 179c0 155 -168 155 -339 165c-92 4 -186 5 -186 78c0 30.4254 17.0712 50.3877 41.8147 65.6081
c40.068 -12.1368 86.3984 -17.6081 135.185 -17.6081c151 0 278 51 278 185c0 34.6898 -8.49495 64.0616 -23.688 88.5148c44.108 15.7479 87.5563 30.3294 124.688 45.4852l-34 63c-48.3186 -17.4264 -95.3824 -37.3625 -143.179 -56.3294
c-49.4066 31.8743 -118.46 46.3294 -193.821 46.3294c-152 0 -278 -58 -278 -193c0 -60.6236 26.9662 -103.632 70.5543 -132.271c-38.5591 -22.568 -64.5543 -53.65 -64.5543 -101.729c0 -41.6353 16.5157 -69.5075 43.8051 -88.552zM200 348c0 89 87 125 190 125
c100 0 183 -36 183 -124c0 -85 -84 -118 -184 -118s-189 28 -189 117z" />
    <glyph glyph-name="gcommaaccent" unicode="&#x123;" horiz-adv-x="790" 
d="M435 821l-155 -203h112l131 203h-88zM233.424 -6.3633c41.92 -9.59283 91.3811 -13.1882 141.576 -16.6367c134 -8 276 3 276 -108c0 -100 -132 -108 -267 -108c-125 0 -243 20 -243 121c0 58.3172 40.0182 90.3929 92.4237 111.637zM161.805 22.448
c-62.4917 -28.0288 -107.805 -70.4452 -107.805 -143.448c0 -150 155 -183 326 -183c182 0 353 21 350 179c0 155 -168 155 -339 165c-92 4 -186 5 -186 78c0 30.4254 17.0712 50.3877 41.8147 65.6081c40.068 -12.1368 86.3984 -17.6081 135.185 -17.6081
c151 0 278 51 278 185c0 34.6898 -8.49495 64.0616 -23.688 88.5148c44.108 15.7479 87.5563 30.3294 124.688 45.4852l-34 63c-48.3186 -17.4264 -95.3824 -37.3625 -143.179 -56.3294c-49.4066 31.8743 -118.46 46.3294 -193.821 46.3294c-152 0 -278 -58 -278 -193
c0 -60.6236 26.9662 -103.632 70.5543 -132.271c-38.5591 -22.568 -64.5543 -53.65 -64.5543 -101.729c0 -41.6353 16.5157 -69.5075 43.8051 -88.552zM200 348c0 89 87 125 190 125c100 0 183 -36 183 -124c0 -85 -84 -118 -184 -118s-189 28 -189 117z" />
    <glyph glyph-name="germandbls" unicode="&#xdf;" horiz-adv-x="822" 
d="M542 80c125 20 218 74 218 200c0 98.1747 -57.1409 152.722 -147.673 179.954c63.3589 27.0732 103.673 74.6456 103.673 153.046c0 137 -122 186 -276 186s-273 -58 -273 -196v-537h-153v-66h153h44h42h155v66h-155v537c0 91 78 131 179 131c110 0 202 -27 202 -124
c0 -98 -100 -127 -219 -127v-54c129 0 263 -27 263 -152c0 -86 -77 -115 -153 -130z" />
    <glyph glyph-name="grave" unicode="`" horiz-adv-x="615" 
d="M403 591c-73 55 -146 111 -219 166h-116c73 -55 146 -111 219 -166h116z" />
    <glyph glyph-name="greater" unicode="&#x3e;" horiz-adv-x="940" 
d="M779.371 305.322c-232.474 -77.774 -465.049 -155.548 -698.371 -233.322v-72c270 90 539 180 808 270v72c-273 88 -547 176 -821 264v-72c237.34 -76.226 474.68 -152.452 711.371 -228.678z" />
    <glyph glyph-name="greaterequal" unicode="&#x2265;" horiz-adv-x="1000" 
d="M916 -1h-822v68h822v-68zM796.755 421.839c-233.734 70.2852 -468.61 141.088 -702.755 211.161v71c274 -82 549 -164 822 -246v-72c-273 -83 -548 -165 -822 -247v71c234.145 70.9273 469.021 141.124 702.755 211.839z" />
    <glyph glyph-name="guillemotleft" unicode="&#xab;" horiz-adv-x="673" 
d="M88 246l240 -116v71l-165.111 79.8034l166.111 77.1966v72l-241 -113v-71zM345 246l240 -116v71l-165.263 79.8772l165.263 77.1228v72l-240 -113v-71z" />
    <glyph glyph-name="guillemotright" unicode="&#xbb;" horiz-adv-x="673" 
d="M563 246l-240 -116v71l165.111 79.8034l-166.111 77.1966v72l241 -113v-71zM307 246l-241 -116v71l165.952 79.8772l-165.952 77.1228v72l241 -113v-71z" />
    <glyph glyph-name="guilsinglleft" unicode="&#x2039;" horiz-adv-x="509" 
d="M186.666 281.65c71.9258 28.1024 73.4779 35.7238 213.334 83.3504v71c-185 -63 -128 -55 -312 -119v-71c184 -63 127 -54 312 -118v72c-139.856 47.6267 -141.408 54.105 -213.334 81.6496z" />
    <glyph glyph-name="guilsinglright" unicode="&#x203a;" horiz-adv-x="509" 
d="M322.349 281.65c-71.8808 28.1024 -73.2484 35.7238 -212.349 83.3504v71c184 -63 127 -55 311 -119v-71c-184 -63 -127 -54 -311 -118v72c139.1 47.6267 140.468 54.105 212.349 81.6496z" />
    <glyph glyph-name="h" unicode="h" horiz-adv-x="911" 
d="M254 452.725v347.275h-43h-44h-153v-66h153v-668.777l-153 0.77665v-66h153h44h43h141v66l-141 -0.766304v294.463c52.0952 73.5016 141.384 112.303 233 112.303c107 0 174 -46 174 -148v-258.77l-141 0.770492v-66h141h42h45h152v66l-152 -0.771574v266.772
c0 144 -98 206 -250 206c-91.3972 0 -181.334 -27.7458 -244 -85.2752z" />
    <glyph glyph-name="hungarumlaut" unicode="&#x2dd;" horiz-adv-x="655" 
d="M392 632l155 203h-112l-131 -203h88zM191 632l155 203h-112l-131 -203h88z" />
    <glyph glyph-name="hyphen" unicode="-" horiz-adv-x="588" 
d="M101 242h386v72h-386v-72z" />
    <glyph glyph-name="i" unicode="i" horiz-adv-x="441" 
d="M189 670h102c0 -29 -22 -42 -52 -42c-31 0 -50 14 -50 42zM189 670h102c0 29 -22 43 -52 43s-50 -16 -50 -43zM196 467v-401h-152v-66h152h44h47h137v66h-137v467h-47h-44h-152v-66h152z" />
    <glyph glyph-name="iacute" unicode="&#xed;" horiz-adv-x="466" 
d="M209 642c73 55 146 111 219 166h-116c-73 -55 -146 -111 -219 -166h116zM196 467v-401h-152v-66h152h44h47h137v66h-137v467h-47h-44h-152v-66h152z" />
    <glyph glyph-name="icircumflex" unicode="&#xee;" horiz-adv-x="618" 
d="M607 638c-72 55 -145 111 -219 166h-10h-105h-11c-74 -55 -147 -111 -219 -166h116c54.8293 41.8835 110.238 84.3469 166.228 126.507c55.5908 -42.1601 111.182 -84.6235 166.772 -126.507h115zM283 467v-401h-152v-66h152h45h47h137v66h-137v467h-47h-45h-152v-66h152
z" />
    <glyph glyph-name="idieresis" unicode="&#xef;" horiz-adv-x="466" 
d="M295 668h107c0 -30 -23 -44 -55 -44c-31 0 -52 15 -52 44zM295 668h107c0 30 -23 45 -55 45c-31 0 -52 -16 -52 -45zM97 668h107c0 -30 -23 -44 -55 -44s-52 15 -52 44zM97 668h107c0 30 -23 45 -55 45c-31 0 -52 -16 -52 -45zM206 467v-401h-152v-66h152h45h47h137v66
h-137v467h-47h-45h-152v-66h152z" />
    <glyph glyph-name="igrave" unicode="&#xec;" horiz-adv-x="472" 
d="M393 641c-73 55 -146 111 -219 166h-116c73 -56 146 -111 219 -166h116zM227 467v-401h-152v-66h152h45h47h137v66h-137v467h-47h-45h-152v-66h152z" />
    <glyph glyph-name="imacron" unicode="&#x12b;" horiz-adv-x="441" 
d="M383 702h-298v-65h298v65zM196 467v-401h-152v-66h152h44h47h137v66h-137v467h-47h-44h-152v-66h152z" />
    <glyph glyph-name="infinity" unicode="&#x221e;" horiz-adv-x="1180" 
d="M530.234 405.836c-48.972 -64.5639 -106.111 -120.836 -186.234 -120.836c-87 0 -168 40 -168 117s84 112 171 112c76.0117 0 136.399 -46.8722 183.234 -108.164zM579.378 467.405c-61.3285 67.41 -139.61 111.595 -232.378 111.595c-132 0 -258 -59 -258 -177
c0 -119 123 -182 255 -182c94.5251 0 173.821 50.7629 235.418 122.029c63.9959 -71.595 147.383 -121.029 244.582 -121.029c137 0 267 58 267 180c0 120 -131 176 -267 176c-95.5686 0 -180.216 -41.502 -244.622 -109.595zM628.464 405.467
c50.1014 61.7308 115.745 106.533 195.536 106.533c91 0 181 -31 181 -111c0 -81 -89 -115 -181 -115c-81.9537 0 -144.069 53.9597 -195.536 119.467z" />
    <glyph glyph-name="integral" unicode="&#x222b;" horiz-adv-x="589" 
d="M571 821c-16.1648 2.24902 -31.816 3.39158 -46.8645 3.39158c-92.0099 0 -161.493 -42.713 -188.136 -136.392c-55 -201 -110 -403 -165 -605c-14.6434 -54.2668 -54.5139 -81.0807 -109.386 -81.0807c-8.83052 0 -18.0495 0.694442 -27.6145 2.08066l-16 -65
c16.1367 -2.06881 31.7788 -3.12944 46.8371 -3.12944c94.1231 0 165.438 41.4386 192.163 137.129c56 205 113 408 169 612c13.5243 51.5615 50.6266 73.1148 101.04 73.1148c9.2283 0 18.9026 -0.722211 28.96 -2.11477z" />
    <glyph glyph-name="iogonek" unicode="&#x12f;" horiz-adv-x="441" 
d="M189 670h102c0 -29 -22 -42 -52 -42c-31 0 -50 14 -50 42zM189 670h102c0 29 -22 43 -52 43s-50 -16 -50 -43zM196 467v-401h-152v-66h89.156c-16.945 -15.7589 -27.156 -36.5033 -27.156 -66c0 -74 59 -111 140 -111c46 0 76 12 118 30l-39 52c-26 -11 -44 -19 -71 -19
c-38 0 -66 16 -66 50c0 39.1835 34.3918 50.7308 74.2984 64h24.7016h137v66h-137v467h-47h-44h-152v-66h152z" />
    <glyph glyph-name="j" unicode="j" horiz-adv-x="415" 
d="M14 -301c12 -1 26 -3 42 -3c131 0 240 51 240 173v664h-45h-42h-155v-65h155v-599c0 -76 -68 -110 -149 -110c-12 0 -26 1 -33 2c-12 -62 -13 -62 -13 -62zM203 670h102c0 29 -22 43 -53 43c-29 0 -49 -16 -49 -43zM203 670h102c0 -30 -22 -42 -53 -42
c-30 0 -49 14 -49 42z" />
    <glyph glyph-name="k" unicode="k" horiz-adv-x="915" 
d="M306 275l346.047 192h17.9535h179v66h-78h-101h-35h-212v-66h94.8621c-87.7185 -50.1808 -174.946 -101.344 -262.862 -151.129v484.129h-41h-46h-152v-66h152v-668.782l-154 0.781726v-66h154h43h44h113v66c-57.1154 -0.346154 -73.7308 -0.469049 -77.8846 -0.501821
c0 -0.00733607 -4.99555 -0.0442316 -35.1154 -0.229792v168.606c137.72 -78.1981 273.414 -158.205 412 -233.875h6h134h85v66l-203.785 -0.930524c-127.713 69.9875 -254.672 139.667 -382.215 209.931z" />
    <glyph glyph-name="kcommaaccent" unicode="&#x137;" horiz-adv-x="915" 
d="M417 -323l155 204h-113l-130 -204h88zM306 275l346.047 192h17.9535h179v66h-78h-101h-35h-220v-66h102.862c-87.7185 -50.1808 -174.946 -101.344 -262.862 -151.129v484.129h-41h-46h-152v-66h152v-668.782l-154 0.781726v-66h154h43h44h121v66l-121 -0.733333v168.608
c137.72 -78.1981 273.414 -158.205 412 -233.875h6h134h85v66l-203.785 -0.930524c-127.713 69.9875 -254.672 139.667 -382.215 209.931z" />
    <glyph glyph-name="l" unicode="l" horiz-adv-x="424" 
d="M255 65.2183v734.782h-40h-47h-149v-66h149v-668.776l-152 0.77551v-66h152h44h43h154v66z" />
    <glyph glyph-name="lacute" unicode="&#x13a;" horiz-adv-x="440" 
d="M179 887c73 55 146 111 219 166h-116c-73 -55 -146 -111 -219 -166h116zM259 65.2172v734.783h-40h-47h-149v-66h149v-668.776l-152 0.77551v-66h152h44h43h155v66z" />
    <glyph glyph-name="lcaron" unicode="&#x13e;" horiz-adv-x="600" 
d="M419 597l155 204h-112l-131 -204h88zM255 65.2183v734.782h-40h-47h-149v-66h149v-668.776l-152 0.77551v-66h152h44h43h154v66z" />
    <glyph glyph-name="lcommaaccent" unicode="&#x13c;" horiz-adv-x="424" 
d="M165 -318l155 204h-112l-131 -204h88zM255 65.2183v734.782h-40h-47h-149v-66h149v-668.776l-152 0.77551v-66h152h44h43h154v66z" />
    <glyph glyph-name="less" unicode="&#x3c;" horiz-adv-x="941" 
d="M160.801 300.72c232.619 77.7601 465.782 155.52 698.199 233.28v72c-269 -90 -539 -180 -808 -270v-72c274 -88 547 -176 821 -264v72c-237.383 76.2399 -474.016 152.48 -711.199 228.72z" />
    <glyph glyph-name="lessequal" unicode="&#x2264;" horiz-adv-x="1000" 
d="M84 -1h822v68h-822v-68zM203.564 421.839c234.145 70.2852 468.291 141.088 702.436 211.161v71l-822 -246v-72c274 -83 548 -165 822 -247v71c-234.145 70.9273 -468.291 141.124 -702.436 211.839z" />
    <glyph glyph-name="litre" horiz-adv-x="461" 
d="M272 65.2132v734.787h-39h-47h-150v-66h150v-668.777l-153 0.77665v-66h153h44h42h155v66z" />
    <glyph glyph-name="logicalnot" unicode="&#xac;" horiz-adv-x="863" 
d="M679 347h-553v-72h553v-128h82v128v72h-82z" />
    <glyph glyph-name="logo" horiz-adv-x="2505" 
d="M1857 55c94 -41 180 -60 282 -60c175 0 321 34 321 186c0 139 -133 171 -272 219c-108 36 -224 55 -224 152c0 85 88 112 187 112c76.2801 0 136.416 -15.375 204 -42.0807v-94.9193h68v135c-92 40 -167 65 -268 65c-151 0 -278 -47 -278 -179s129 -160 260 -205
c115 -38 236 -61 236 -162c0 -95 -103 -117 -227 -117c-79.7155 0 -149.356 15.9515 -222 44.7774v86.2226h-68v-140h1zM1157 722h-41h-46h-150v-66h150v-590h-150v-66h150h46h41h222c273 0 448 100 448 352c0 263 -179 370 -461 370h-209zM1157 656h204
c233 0 380 -90 380 -306c0 -202 -138 -284 -355 -284h-229v590zM416 652v-587h-155v-65h155h42h45h151v65h-151v587h299v-84h68v84c0 31.7865 0.194904 35.117 0.41262 35.117c0.275435 0 0.58738 0 0.58738 34.883h-823v-34v-36v-84h68v84h300z" />
    <glyph glyph-name="lozenge" unicode="&#x25ca;" horiz-adv-x="675" 
d="M293 137h-1c-77 108 -154 215 -230 323h87c61.8427 -87.8818 125.01 -175.101 187.346 -262.736c62.9767 87.3065 128.134 176.67 190.654 262.736h87c-76 105 -157 216 -233 322h-2h-86h-1c-77 -108 -154 -215 -230 -322h87
c61.8427 87.0681 125.01 174.136 187.346 261.743c62.9767 -87.2778 128.134 -176.488 190.654 -261.743h87c-76 -106 -157 -217 -233 -323h-2h-86z" />
    <glyph glyph-name="lslash" unicode="&#x142;" horiz-adv-x="430" 
d="M259 65.2132v344.138c49.4771 41.6216 98.8858 83.2089 148 124.649v72c-49.1142 -41.8238 -98.5229 -83.3532 -148 -124.758v318.758h-39h-48h-149v-66h149v-325.447c-50.4798 -42.1511 -100.893 -84.2755 -151 -126.553v-73
c50.1068 42.2776 100.52 84.7085 151 127.173v-270.944l-152 0.771574v-66h152h45h42h155v66z" />
    <glyph glyph-name="m" unicode="m" horiz-adv-x="1331" 
d="M284 450.834v82.1658h-44h-43h-153v-66h153v-401h-153v-66h153h43h44h126v66h-126v296.639c46.49 69.8405 114.24 107.361 200 107.361c102 0 153 -44 153 -146v-258h-127v-66h127h44h43h127v66h-127v266c0 9.62233 -0.33053 18.8734 -0.9922 27.7595
c46.0469 71.021 115.176 110.24 201.992 110.24c103 0 153 -44 153 -146v-258h-125v-66h125h45h42h154v66h-154v266c0 143 -74 204 -222 204c-98.4996 0 -178.925 -34.3987 -236.38 -102.306c-29.6339 70.8018 -97.2597 102.306 -203.62 102.306
c-91.2352 0 -162.276 -27.582 -219 -85.1658z" />
    <glyph glyph-name="macron" unicode="&#xaf;" horiz-adv-x="452" 
d="M329 683h-298v-65h298v65z" />
    <glyph glyph-name="macronmod" horiz-adv-x="432" 
d="M365 683h-299v-65h299v65z" />
    <glyph glyph-name="minus" unicode="&#x2212;" horiz-adv-x="839" 
d="M102 275h635v72h-635v-72z" />
    <glyph glyph-name="multiply" unicode="&#xd7;" horiz-adv-x="684" 
d="M342.279 362.279l-198.279 198.721c-9 -10 -42 -42 -51 -51l198.279 -198.721l-199.279 -199.279l51 -51l199.222 199.222l198.778 -199.222c9 9 41 42 51 51l-198.778 199.222l198.778 198.778c-9 9 -42 41 -51 51z" />
    <glyph glyph-name="mumath" horiz-adv-x="951" 
d="M677 169.187c-50.7043 -62.5512 -131.108 -108.187 -214 -108.187c-110 0 -184 40 -184 142v330h-43h-43h-1h-153v-66h153v-268c0 -8.28307 0.336554 -16.2804 1 -23.9979v-475.002h86v332.757c45.1413 -26.1782 105.789 -37.7567 177 -37.7567
c84.3901 0 163.665 35.8028 221 92.0453v-87.0453h43h44h139v66h-139v467h-44h-43h-153v-66h153v-297.813z" />
    <glyph glyph-name="n" unicode="n" horiz-adv-x="941" 
d="M197 467v-401h-153v-66h153h43h44h140v66h-140v295.079c51.0335 70.8419 137.113 108.921 227 108.921c108 0 179 -44 179 -146v-258h-141v-66h141h43h44h152v66h-152v266c0 142 -97 204 -248 204c-94.5252 0 -180.199 -27.0742 -245 -88.3608v85.3608h-44h-43h-153v-66
h153z" />
    <glyph glyph-name="nacute" unicode="&#x144;" horiz-adv-x="941" 
d="M464 640c73 55 146 111 219 166h-116c-73 -55 -146 -111 -219 -166h116zM197 467v-401h-153v-66h153h43h44h140v66h-140v295.079c51.0335 70.8419 137.113 108.921 227 108.921c108 0 179 -44 179 -146v-258h-141v-66h141h43h44h152v66h-152v266c0 142 -97 204 -248 204
c-94.5252 0 -180.199 -27.0742 -245 -88.3608v85.3608h-44h-43h-153v-66h153z" />
    <glyph glyph-name="ncaron" unicode="&#x148;" horiz-adv-x="941" 
d="M219 802c72 -55 145 -111 218 -166h12h104h11c73 55 147 111 219 166h-115c-55.6667 -41.9406 -111.333 -83.8813 -167 -126.265c-55.6667 42.3841 -111.333 84.3247 -167 126.265h-115zM197 467v-401h-153v-66h153h43h44h140v66h-140v295.079
c51.0335 70.8419 137.113 108.921 227 108.921c108 0 179 -44 179 -146v-258h-141v-66h141h43h44h152v66h-152v266c0 142 -97 204 -248 204c-94.5252 0 -180.199 -27.0742 -245 -88.3608v85.3608h-44h-43h-153v-66h153z" />
    <glyph glyph-name="ncommaaccent" unicode="&#x146;" horiz-adv-x="941" 
d="M457 -316l155 204h-112l-131 -204h88zM197 467v-401h-153v-66h153h43h44h140v66h-140v295.079c51.0335 70.8419 137.113 108.921 227 108.921c108 0 179 -44 179 -146v-258h-141v-66h141h43h44h152v66h-152v266c0 142 -97 204 -248 204
c-94.5252 0 -180.199 -27.0742 -245 -88.3608v85.3608h-44h-43h-153v-66h153z" />
    <glyph glyph-name="nine" unicode="9" horiz-adv-x="782" 
d="M614.064 373.445c-51.9589 -197.416 -267.244 -274.198 -521.064 -312.445c6.42857 -30.4286 7.16327 -34.7755 7.16327 -35.4752c0 -0.932945 0 -1.25948 7.83673 -36.5248c331 44 601 170 601 485c0 177 -140 256 -330 256c-171 0 -297 -67 -297 -222
c0 -154 127 -215 296 -215c99.4706 0 178.053 24.6014 236.064 80.4453zM625.975 474.38c-56.8112 -83.292 -133.349 -113.38 -239.975 -113.38c-123 0 -217 40 -217 150c0 104 90 142 206 142c141.744 0 249.101 -52.0734 250.975 -178.62z" />
    <glyph glyph-name="notequal" unicode="&#x2260;" horiz-adv-x="1015" 
d="M366 183l-140 -196h82l140 196h478v69h-428.714l109.286 153h319.429v69h-270.143l137.143 192h-82l-137.143 -192h-482.857v-69h433.571l-109.286 -153l-324.286 2.84217e-14v-69h275z" />
    <glyph glyph-name="ntilde" unicode="&#xf1;" horiz-adv-x="941" 
d="M721 795c-17 -50 -39 -89 -82 -89s-71 13 -104 40c-44 35 -79 53 -135 53c-84 0 -135 -46 -158 -128c65 -29 1 -1 66 -29c17 54 46 90 94 90c38 0 61 -17 90 -41c46 -37 85 -54 144 -54c82 0 125 52 153 131c-32.7407 12.5185 -33.9534 12.7503 -33.9983 12.7503
c-0.0483666 0 0.604583 0 -34.0017 14.2497zM197 467v-401h-153v-66h153h43h44h140v66h-140v295.079c51.0335 70.8419 137.113 108.921 227 108.921c108 0 179 -44 179 -146v-258h-141v-66h141h43h44h152v66h-152v266c0 142 -97 204 -248 204
c-94.5252 0 -180.199 -27.0742 -245 -88.3608v85.3608h-44h-43h-153v-66h153z" />
    <glyph glyph-name="nullsuperior" horiz-adv-x="666" 
d="M91 487c0 -140 96 -218 241 -218c146 0 244 79 244 221c0 138 -98 213 -241 213c-146 0 -244 -76 -244 -216zM173 487c0 95 62 151 158 151c0.82882 0.00863354 1.65511 0.0129439 2.47884 0.0129439c94.5871 0 155.521 -56.8331 155.521 -151.013
c0 -95 -58 -153 -153 -153c-99 0 -163 56 -163 153z" />
    <glyph glyph-name="numbersign" unicode="#" horiz-adv-x="889" 
d="M739.775 527l82.2255 195h-87l-82.2255 -195h-278.698l81.9231 195h-87l-80.7692 -195h-107.231l-26 -66h105.893l-67.8983 -163.926c-35.6496 -0.0463431 -71.3085 -0.0741521 -106.995 -0.0741521l-28 -65h108.041l-77.0414 -186h83l78.142 186h278.24l-81.3821 -193
h87l81.3821 193h87.6179l26 66c-28.6523 0 -57.2519 -0.0175959 -85.808 -0.0481196l68.7524 163.048h86.0556l26 66h-84.2255zM624.944 461l-68.8065 -163.177c-93.1203 -0.170042 -185.877 -0.427521 -278.598 -0.609213l68.8094 163.786h278.595z" />
    <glyph glyph-name="o" unicode="o" horiz-adv-x="811" 
d="M76 268c0 -182 134 -273 327 -273c196 0 332 88 332 271c0 179 -135 272 -331 272c-195 0 -328 -94 -328 -270zM163 268c0 133 94 205 236 205c149 0 249 -72 249 -207c0 -136 -98 -205 -240 -205c-146 0 -245 70 -245 207z" />
    <glyph glyph-name="oacute" unicode="&#xf3;" horiz-adv-x="811" 
d="M365 640c73 55 146 110 219 166h-116c-73 -55 -146 -111 -219 -166h116zM76 268c0 -182 134 -273 327 -273c196 0 332 88 332 271c0 179 -135 272 -331 272c-195 0 -328 -94 -328 -270zM163 268c0 133 94 205 236 205c149 0 249 -72 249 -207c0 -136 -98 -205 -240 -205
c-146 0 -245 70 -245 207z" />
    <glyph glyph-name="ocircumflex" unicode="&#xf4;" horiz-adv-x="811" 
d="M685 641c-73 55 -146 111 -219 166h-11h-105h-11c-73 -55 -146 -111 -219 -166h116c55.5 41.8151 111 83.6301 166.5 125.885c55.5 -42.2545 111 -84.0696 166.5 -125.885h116zM76 268c0 -182 134 -273 327 -273c196 0 332 88 332 271c0 179 -135 272 -331 272
c-195 0 -328 -94 -328 -270zM163 268c0 133 94 205 236 205c149 0 249 -72 249 -207c0 -136 -98 -205 -240 -205c-146 0 -245 70 -245 207z" />
    <glyph glyph-name="odieresis" unicode="&#xf6;" horiz-adv-x="811" 
d="M449 669h108c0 -30 -23 -44 -56 -44c-31 0 -52 15 -52 44zM449 669h108c0 30 -23 45 -55 45c-31 0 -53 -17 -53 -45zM251 669h108c0 -30 -24 -44 -56 -44c-31 0 -52 15 -52 44zM251 669h108c0 30 -24 45 -55 45c-32 0 -53 -17 -53 -45zM76 268c0 -182 134 -273 327 -273
c196 0 332 88 332 271c0 179 -135 272 -331 272c-195 0 -328 -94 -328 -270zM163 268c0 133 94 205 236 205c149 0 249 -72 249 -207c0 -136 -98 -205 -240 -205c-146 0 -245 70 -245 207z" />
    <glyph glyph-name="oe" unicode="&#x153;" horiz-adv-x="1322" 
d="M1160.9 311h-422.157c12.6446 108.103 93.2193 161 213.257 161c121.54 0 205.612 -47.0751 208.9 -161zM738.458 250h505.542v47c0 167 -116 241 -288 241c-123.616 0 -219.249 -36.5597 -268.704 -114.227c-55.8027 75.5252 -156.857 114.227 -283.296 114.227
c-195 0 -328 -94 -328 -270c0 -182 134 -273 327 -273c132.001 0 236.788 39.9138 291.145 121.88c55.6281 -82.9865 160.32 -121.88 293.855 -121.88c97 0 161 21 237 74l-48 53c-64 -44 -114 -61 -189 -61c-140.412 0 -236.725 61.3919 -249.542 189zM163 268
c0 133 94 205 236 205c149 0 249 -72 249 -207c0 -136 -98 -205 -240 -205c-146 0 -245 70 -245 207z" />
    <glyph glyph-name="ogonek" unicode="&#x2db;" horiz-adv-x="403" 
d="M191 54c-82 -27 -159 -42 -159 -123c0 -75 60 -112 141 -112c45 0 76 13 118 30c-40 52 -1 0 -40 52c-25 -11 -43 -19 -70 -19c-38 0 -67 16 -67 50c0 51 57 55 109 76z" />
    <glyph glyph-name="ograve" unicode="&#xf2;" horiz-adv-x="811" 
d="M548 639c-73 55 -146 111 -219 166h-116c73 -55 146 -110 219 -166h116zM76 268c0 -182 134 -273 327 -273c196 0 332 88 332 271c0 179 -135 272 -331 272c-195 0 -328 -94 -328 -270zM163 268c0 133 94 205 236 205c149 0 249 -72 249 -207c0 -136 -98 -205 -240 -205
c-146 0 -245 70 -245 207z" />
    <glyph glyph-name="ohungarumlaut" unicode="&#x151;" horiz-adv-x="811" 
d="M515 581l154 203h-112l-131 -203h89zM313 581l155 203h-112l-131 -203h88zM76 268c0 -182 134 -273 327 -273c196 0 332 88 332 271c0 179 -135 272 -331 272c-195 0 -328 -94 -328 -270zM163 268c0 133 94 205 236 205c149 0 249 -72 249 -207
c0 -136 -98 -205 -240 -205c-146 0 -245 70 -245 207z" />
    <glyph glyph-name="omacron" unicode="&#x14d;" horiz-adv-x="811" 
d="M547 704h-298v-65h298v65zM76 268c0 -182 134 -273 327 -273c196 0 332 88 332 271c0 179 -135 272 -331 272c-195 0 -328 -94 -328 -270zM163 268c0 133 94 205 236 205c149 0 249 -72 249 -207c0 -136 -98 -205 -240 -205c-146 0 -245 70 -245 207z" />
    <glyph glyph-name="omegamath" horiz-adv-x="1028" 
d="M826.653 65c82.2879 70.6588 126.347 162.271 126.347 284c0 242 -183 377 -437 377c-257 0 -442 -136 -442 -380c0 -120.437 46.4738 -208.743 128.991 -281l-176.991 -2.84217e-14v-65h267l47 65c-112 69 -179 152 -179 281c0 198 143 315 348 315
c208 0 358 -113 358 -312c0 -133 -71 -218 -188 -284l51 -65h270v65h-173.347z" />
    <glyph glyph-name="one" unicode="1" horiz-adv-x="591" 
d="M313 722l-257 -162l38 -61l219 136.489v-569.489h-151v-66h151h46h40h157v66h-157v656h-86z" />
    <glyph glyph-name="onehalf" unicode="&#xbd;" horiz-adv-x="1336" 
d="M909 234c36 46 82 64 140 64c64 0 117 -18 117 -70c0 -49 -43 -67 -85 -94c-85 -47 -170 -93 -255 -139v-65h6h451c-27.9048 23.1211 -32.6082 28.9206 -32.6082 31.2087c0 -2.28808 4.70341 -8.08761 32.6082 -31.2087v135h-64v-70h-256.279
c56.9723 29.6674 108.797 58.3337 160.279 87c68 43 129 73 129 149c0 96 -86 132 -193 132c-91 0 -159 -20 -210 -88zM416 -65l565 797h-81l-566 -796zM1251.61 -36.2087c0 2.28808 -4.70341 8.08761 -32.6082 31.2087c27.9048 -23.1211 32.6082 -28.9206 32.6082 -31.2087
zM212 735l-160 -110l38 -50l122 89.8947v-294.895h-110v-60h110h191v60h-104v359v6h-87zM255.5 340c0 -0.171987 0.113304 -0.343974 0.113304 -0.428053c-0.126608 -0.0367932 -0.227079 -0.0530723 -0.30681 -0.0530725c-0.52714 0 -0.147652 0.711597 -0.420845 0.910916
c0.125219 0.0355681 0.224916 0.0513341 0.304292 0.0513342c0.310058 0 0.310058 -0.240563 0.310058 -0.481125v-1.55068e-07z" />
    <glyph glyph-name="onequarter" unicode="&#xbc;" horiz-adv-x="1299" 
d="M419 -65l565 797h-81l-566 -796zM1072 -74h43h153v60h-153v69h109v62h-109v253v4h-86l-272 -257l30 -62h242v-69h-154v-60h154h43zM1029 287.409v-170.409h-177.441zM215 735l-160 -110l38 -50l122 89.8947v-294.895h-110v-60h110h191v60h-104v359v6h-87zM258.5 340
c0 -0.171987 0.113304 -0.343974 0.113304 -0.428053c-0.126608 -0.0367932 -0.227079 -0.0530723 -0.30681 -0.0530725c-0.52714 0 -0.147651 0.711599 -0.420846 0.910916c0.12522 0.0355682 0.224917 0.0513342 0.304293 0.051334
c0.310058 0 0.310058 -0.240563 0.310058 -0.481125z" />
    <glyph glyph-name="onesuperior" unicode="&#xb9;" horiz-adv-x="525" 
d="M253 700l-160 -110l38 -49l122 89.8947v-295.895h-110v-60h110h191v60h-104v360v5h-87zM296.5 305c0 -0.171987 0.113304 -0.343974 0.113304 -0.428053c-0.126608 -0.0367932 -0.227079 -0.0530723 -0.30681 -0.0530725
c-0.52714 0 -0.147651 0.711599 -0.420846 0.910916c0.12522 0.0355682 0.224917 0.0513342 0.304293 0.051334c0.310058 0 0.310058 -0.240563 0.310058 -0.481125z" />
    <glyph glyph-name="ordfeminine" unicode="&#xaa;" horiz-adv-x="624" 
d="M387 640.973c-48.1161 -3.59291 -87.2904 -5.34095 -142 -10.9728c-86 -8 -153 -29 -153 -106c0 -76 67 -104 155 -104c58.0782 0 101.562 19.1549 140 49.7647v-43.7647h42h32h72v48h-72v201c0 84 -81 101 -176 101c-71 0 -131 -21 -174 -52v-79h51v45.6242
c30.7215 17.4198 71.2206 31.3758 118 31.3758c57 0 107 -7 107 -68v-13.0272zM387 529.313c-36.8667 -34.5997 -79.6745 -58.3128 -134 -58.3128c-52 0 -94 12 -94 54c0 39 38 52 83 57c55.774 4.78063 95.6769 7.65672 145 12.1691v-64.8563z" />
    <glyph glyph-name="ordmasculine" unicode="&#xba;" horiz-adv-x="623" 
d="M91 603c0 -123 92 -185 221 -185s220 62 220 183c0 117 -90 179 -220 179c-129 0 -221 -61 -221 -177zM164 603c0 78 59 120 145 120c89 0 150 -43 150 -122c0 -81 -58 -126 -143 -126c-90 0 -152 44 -152 128z" />
    <glyph glyph-name="oslash" unicode="&#xf8;" horiz-adv-x="811" 
d="M76 268c0 -112.191 50.919 -189.803 135.189 -232.836l-55.189 -78.1642l51 -40l67.0245 94.0669c38.8056 -10.7113 82.1544 -16.0669 128.976 -16.0669c196 0 332 88 332 271c0 103.314 -44.9724 177.979 -120.689 222.649l53.6891 75.3511l-58 36l-58.7771 -83.246
c-43.349 14.1144 -92.9471 21.246 -147.223 21.246c-195 0 -328 -94 -328 -270zM163 268c0 133 94 205 236 205c40.6957 0 77.7362 -5.37104 110.082 -15.9297l-254.438 -360.36c-57.6011 33.6538 -91.6445 90.9521 -91.6445 171.29zM570.332 426.925
c49.1961 -34.7928 77.6682 -88.8904 77.6682 -160.925c0 -136 -98 -205 -240 -205c-32.8591 0 -63.3375 3.54571 -90.8424 10.6029z" />
    <glyph glyph-name="otilde" unicode="&#xf5;" horiz-adv-x="811" 
d="M608 795c-17 -50 -39 -88 -82 -88s-71 12 -104 40c-44 35 -79 53 -135 53c-84 0 -135 -47 -158 -129c65 -29 1 0 65 -29c18 55 47 90 95 90c38 0 60 -17 89 -41c47 -36 86 -54 145 -54c82 0 125 52 153 131c0 0 -1 0 -68 27zM76 268c0 -182 134 -273 327 -273
c196 0 332 88 332 271c0 179 -135 272 -331 272c-195 0 -328 -94 -328 -270zM163 268c0 133 94 205 236 205c149 0 249 -72 249 -207c0 -136 -98 -205 -240 -205c-146 0 -245 70 -245 207z" />
    <glyph glyph-name="p" unicode="p" horiz-adv-x="887" 
d="M254 476.374v56.626h-42h-45h-152v-66l152 0.771574v-701.772h-154v-65h154v-1h43h44h140v66l-140 -0.76087v292.408c73.7706 -44.7011 145.176 -62.647 238 -62.647c183 0 319 99 318 278c0 166 -132 266 -315 266c-91.2172 0 -176.244 -26.3097 -241 -62.626z
M254 132.987v269.346c55.7571 39.3069 142.672 70.6668 238 70.6668c138 0 232 -78 232 -203c0.0439014 -1.9902 0.0657455 -3.96733 0.0657455 -5.93135c0 -130.502 -96.4443 -203.108 -226.817 -203.108c-1.74363 0 -3.49333 0.012987 -5.24895 0.0389962
c-93.0982 0 -155.245 21.2238 -238 71.9875z" />
    <glyph glyph-name="paragraph" unicode="&#xb6;" horiz-adv-x="950" 
d="M853 0v722h-76h-11h-141h-45h-4h-38h-136c-189 0 -346 -67 -346 -235c0 -159 144 -221 321 -224c57.5901 0 108.468 10.6284 161 26.8647v-223.865h-155v-66h155h42h45h141h11h76zM538 656v-298.226c-56.4291 -19.1925 -105.534 -29.7744 -169 -29.7744
c-123 0 -226 44 -226 155c0 130 124 173 271 173h124zM625 66v590h141v-590h-141z" />
    <glyph glyph-name="parenleft" unicode="(" horiz-adv-x="481" 
d="M459 -220c-196 145 -304 302 -304 546s108 399 302 548l-51 43c-215 -159 -337 -325 -337 -591c0 -267 123 -432 339 -592z" />
    <glyph glyph-name="parenright" unicode=")" horiz-adv-x="496" 
d="M72 -281c220 169 356 332 356 609c0 270 -129 433 -351 590l-51 -46c200 -147 315 -300 315 -547c0 -252 -124 -404 -321 -563z" />
    <glyph glyph-name="partialdiff" unicode="&#x2202;" horiz-adv-x="740" 
d="M578.39 353.368c1.75157 20.3656 2.61006 41.2991 2.61006 62.6316c0 142 -74 247 -208 247c-56 0 -97 -18 -148 -40l-40 52c67 32 119 53 192 53c179 0 286 -129 286 -312c0 -237 -104 -421 -321 -421c-155 1 -273 74 -273 219c0 149 123 227 285 227
c94.6713 0 174.849 -28.5611 224.39 -87.6316zM561.108 253.665c-28.5729 84.2393 -105.485 125.335 -204.108 125.335c-110 0 -202 -51 -202 -156c0 -103 82 -163 187 -163c117.575 0.699849 187.64 79.7658 219.108 193.665z" />
    <glyph glyph-name="percent" unicode="%" horiz-adv-x="1394" 
d="M472 -65l566 797h-82l-565 -796zM859 147c0 -140 96 -219 241 -219c146 0 244 79 244 222c0 137 -98 212 -241 213c-146 0 -244 -77 -244 -216zM941 147c0 94 62 150 158 150c0.84321 0.00878343 1.6838 0.0131694 2.52174 0.0131694
c94.5626 0 155.478 -55.8564 155.478 -151.013c0 -94 -58 -153 -153 -153c-99 0 -163 57 -163 154zM51 519c0 -140 96 -219 241 -219c146 0 244 80 244 222c0 138 -98 213 -241 213c-146 0 -244 -76 -244 -216zM134 519c0 94 61 150 157 150
c0.843275 0.00878411 1.68393 0.0131701 2.52194 0.0131701c94.5625 0 155.478 -55.8477 155.478 -150.013c0 -95 -58 -154 -153 -154c-99 0 -162 57 -162 154z" />
    <glyph glyph-name="period" unicode="." horiz-adv-x="304" 
d="M98 36h108c0 -30 -24 -44 -56 -44c-31 0 -52 15 -52 44zM98 36h108c0 30 -24 45 -55 45c-32 0 -53 -16 -53 -45z" />
    <glyph glyph-name="periodcentered" unicode="&#xb7;" horiz-adv-x="307" 
d="M100 440h107c0 -30 -23 -44 -55 -44c-31 0 -52 15 -52 44zM100 440h107c0 30 -23 45 -55 45c-31 0 -52 -17 -52 -45z" />
    <glyph glyph-name="perthousand" unicode="&#x2030;" horiz-adv-x="1943" 
d="M472 -65l566 797h-82l-565 -796zM1409 147c0 -140 97 -219 242 -219s243 79 243 222c0 137 -97 212 -241 213c-145 0 -244 -77 -244 -216zM1492 147c0 94 62 150 158 150c0.84321 0.00878343 1.6838 0.0131694 2.52174 0.0131694
c94.5626 0 155.478 -55.8564 155.478 -151.013c0 -94 -59 -153 -153 -153c-99 0 -163 57 -163 154zM859 147c0 -140 96 -219 241 -219c146 0 244 79 244 222c0 137 -98 212 -241 213c-146 0 -244 -77 -244 -216zM941 147c0 94 62 150 158 150
c0.84321 0.00878343 1.6838 0.0131694 2.52174 0.0131694c94.5626 0 155.478 -55.8564 155.478 -151.013c0 -94 -58 -153 -153 -153c-99 0 -163 57 -163 154zM51 519c0 -140 96 -219 241 -219c146 0 244 80 244 222c0 138 -98 213 -241 213c-146 0 -244 -76 -244 -216z
M134 519c0 94 61 150 157 150c0.843275 0.00878411 1.68393 0.0131701 2.52194 0.0131701c94.5625 0 155.478 -55.8477 155.478 -150.013c0 -95 -58 -154 -153 -154c-99 0 -162 57 -162 154z" />
    <glyph glyph-name="pi" unicode="&#x3c0;" horiz-adv-x="699" 
d="M227 519h242v-501h82v501h119v72h-644v-72h119v-501h82v501z" />
    <glyph glyph-name="plus" unicode="+" horiz-adv-x="770" 
d="M425 347v241h-82v-241h-275v-72h275v-257h82v257h277v72h-277z" />
    <glyph glyph-name="plusminus" unicode="&#xb1;" horiz-adv-x="806" 
d="M443 347v241h-82v-241h-275v-72h275v-185l-275 2.84217e-14v-72h275h82h277v72h-277v185h277v72h-277z" />
    <glyph glyph-name="product" unicode="&#x220f;" horiz-adv-x="1139" 
d="M278 800h-24h-46h-151v-65h151v-670h-153v-65h153h44h42h154v65h-154v670h548v-670h-153v-65h153h44h42h154v65h-154v670h154v65h-154h-21h-25h-40h-548h-16z" />
    <glyph glyph-name="q" unicode="q" horiz-adv-x="880" 
d="M635 413.287v-278.925c-65.499 -52.4721 -148.161 -73.3615 -235 -73.3615c-138 0 -239 75 -239 205c0 131 98 206 238 206c81.7016 0 163.403 -20.505 236 -58.7134zM635 55.8704v-290.63c-48.5686 0.248126 -50.6344 0.259523 -50.6344 0.260047
c0 0.000707463 -98.3656 0.500025 -98.3656 0.500025v-66h149h48h43h140v66l-140 -0.765027v701.765h140v66h-140h-43h-48v-54.6994c-74.4084 36.5765 -156.126 59.6994 -239 59.6994c-188 0 -322 -99 -322 -275c0 -175 139 -268 328 -268
c85.2027 0 163.818 18.6634 233 60.8704z" />
    <glyph glyph-name="question" unicode="?" horiz-adv-x="561" 
d="M103 650c33 10 57 14 91 14c114 0 207 -42 207 -145c0 -112 -103 -162 -228 -162h-30v-135h87v68.8868c144.044 15.0256 254 88.9752 254 228.113c0 143 -128 213 -282 213c-47 0 -82 -5 -126 -16zM136 14h102c0 29 -20 42 -51 42c-30 0 -51 -16 -51 -42zM136 14h102
c0 -30 -20 -42 -51 -42c-30 0 -51 14 -51 42z" />
    <glyph glyph-name="questiondown" unicode="&#xbf;" horiz-adv-x="561" 
d="M457 53c-32 -9 -56 -13 -90 -13c-114 0 -208 42 -208 145c0 112 104 162 229 162h30v135h-87v-68.8868c-144.044 -15.0256 -254 -88.9752 -254 -228.113c0 -143 127 -213 282 -213c46 0 82 5 126 16zM425 690h-102c0 -29 20 -42 51 -42c29 0 51 15 51 42zM425 690h-102
c0 30 20 42 51 42c30 0 51 -14 51 -42z" />
    <glyph glyph-name="quotedbl" unicode="&#x22;" horiz-adv-x="546" 
d="M439 658v188h-83v-188h83zM194 658v188h-87v-188h87z" />
    <glyph glyph-name="quotedblbase" unicode="&#x201e;" horiz-adv-x="586" 
d="M329 -126l155 204h-113l-130 -204h88zM129 -126l155 204h-112l-131 -204h88z" />
    <glyph glyph-name="quotedblleft" unicode="&#x201c;" horiz-adv-x="528" 
d="M216 896l-155 -204h112l131 204h-88zM418 896l-155 -204h112l131 204h-88z" />
    <glyph glyph-name="quotedblright" unicode="&#x201d;" horiz-adv-x="501" 
d="M301 632l154 203h-112l-131 -203h89zM99 632l155 203h-112l-131 -203h88z" />
    <glyph glyph-name="quoteleft" unicode="&#x2018;" horiz-adv-x="410" 
d="M253 797l-155 -203h112l131 203h-88z" />
    <glyph glyph-name="quoteright" unicode="&#x2019;" horiz-adv-x="408" 
d="M186 518l155 204h-112l-131 -204h88z" />
    <glyph glyph-name="quotesinglbase" unicode="&#x201a;" horiz-adv-x="386" 
d="M129 -126l155 204h-112l-131 -204h88z" />
    <glyph glyph-name="quotesingle" unicode="'" horiz-adv-x="300" 
d="M193 658v188h-86v-188h86z" />
    <glyph glyph-name="r" unicode="r" horiz-adv-x="611" 
d="M285 380.711c76.8828 85.9708 174.061 89.289 287 89.289v68c-112.76 0 -210.384 -15.794 -287 -80.4808v75.4808h-45h-42h-154v-66h154v-401h-153v-66h153h44h43h140v66h-140v314.711z" />
    <glyph glyph-name="racute" unicode="&#x155;" horiz-adv-x="611" 
d="M258 639c73 56 146 111 219 166h-116c-73 -55 -146 -111 -218 -166h115zM285 380.711c76.8828 85.9708 174.061 89.289 287 89.289v68c-112.76 0 -210.384 -15.794 -287 -80.4808v75.4808h-45h-42h-154v-66h154v-401h-153v-66h153h44h43h140v66h-140v314.711z" />
    <glyph glyph-name="radical" unicode="&#x221a;" horiz-adv-x="890" 
d="M485 0c121 241 243 481 365 722h-86c-110.773 -215.294 -219.951 -429.789 -329.671 -644.912c-68.5428 133.134 -27.9365 53.6772 -137.329 262.912h-43h-43h-154v-66h187.961c76.4965 -148.654 30.5188 -59.1978 141.039 -274h9h79h11z" />
    <glyph glyph-name="rcaron" unicode="&#x159;" horiz-adv-x="669" 
d="M47 802c72 -55 145 -111 219 -166h11h105h10c74 55 147 111 219 166h-115c-55.5931 -41.8852 -111.186 -84.3503 -166.779 -126.512c-56.0347 42.1618 -111.628 84.6269 -167.221 126.512h-115zM318 380.687c77.0268 85.9944 174.961 89.3133 287 89.3133v68
c-112.253 0 -210.61 -15.8798 -287 -81.0085v76.0085h-44h-43h-153l-1 -66h154v-401h-152v-66h152h44h43h141v66h-141v314.687z" />
    <glyph glyph-name="rcommaaccent" unicode="&#x157;" horiz-adv-x="611" 
d="M233 -320l155 204h-112l-131 -204h88zM285 380.711c76.8828 85.9708 174.061 89.289 287 89.289v68c-112.76 0 -210.384 -15.794 -287 -80.4808v75.4808h-45h-42h-154v-66h154v-401h-153v-66h153h44h43h140v66h-140v314.711z" />
    <glyph glyph-name="registered" unicode="&#xae;" horiz-adv-x="1027" 
d="M454 282h47c9.21843 0 18.2599 0.176967 27.0761 0.572516c35.2369 -45.7264 68.7269 -92.3262 104.924 -137.573h121v54h-69c-25.5594 32.3752 -52.5705 64.0246 -78.5597 96.1849c42.9734 14.5258 70.5597 43.292 70.5597 96.8151c0 79 -71 108 -159 108h-64
c-54 0 -101 -1 -154 -1v-54h82v-245.553c-26.9438 0.266459 -53.6112 0.553367 -82 0.553367v-55h81h1h139v54h-67v83zM454 445h51c54 0 100 -9 100 -56s-43 -53 -94 -53h-57v109zM454 445v55zM77 322c0 -224 199 -321 447 -321c239 0 426 103 426 322
c0 220 -190 322 -432 322c-245 0 -441 -100 -441 -323zM144 322c0 189 166 273 374 273c204 0 366 -88 366 -275c0 -183 -158 -270 -357 -270c-211 0 -383 81 -383 272z" />
    <glyph glyph-name="ring" unicode="&#x2da;" horiz-adv-x="470" 
d="M97 694c0 50 41 72 96 72c58 0 104 -18 104 -72c0 -52 -44 -71 -102 -71c-55 0 -98 20 -98 71zM19 694c0 -90 77 -131 176 -131c103 0 181 39 181 131c0 94 -80 132 -183 132c-100 0 -174 -40 -174 -132z" />
    <glyph glyph-name="ruble" horiz-adv-x="846" 
d="M443 306c201 3 347 26 347 208c0 176 -145 208 -346 208h-136h-38h-4h-45h-152v-66h152v-281h-113v-69h113v-72h-113v-69h113v-99h-152v-66h152h45h42h154v66h-154v99h339v69h-339v72h135zM308 656h124c156 0 271 -6 271 -142c0 -134 -115 -139 -270 -139h-125v281z" />
    <glyph glyph-name="rupee" horiz-adv-x="997" 
d="M0 0h997v20h-997v-20z" />
    <glyph glyph-name="s" unicode="s" horiz-adv-x="648" 
d="M142 101.177v79.8231h-68v-132h2c89 -31 161 -54 251 -54c139 0 246 33 246 156c0 121 -115 128 -242 156c-81 18 -158 32 -158 95c0 54 60 70 133 70c51.1197 0 111.457 -12.5097 155.902 -27.9128c-0.251488 -38.476 -0.902485 15.734 -0.902485 -81.0872h69v128
c-53 24 -146 47 -220 47c-122 0 -216 -29 -216 -137s94 -133 209 -158c92 -22 187 -23 187 -93c0 -67 -68 -89 -151 -89c-72.3292 0 -129.127 16.3485 -197 40.1769z" />
    <glyph glyph-name="sacute" unicode="&#x15b;" horiz-adv-x="648" 
d="M273 639c73 56 146 111 219 166h-115c-73 -55 -147 -111 -219 -166h115zM142 101.177v79.8231h-68v-132h2c89 -31 161 -54 251 -54c139 0 246 33 246 156c0 121 -115 128 -242 156c-81 18 -158 32 -158 95c0 54 60 70 133 70
c51.1197 0 111.457 -12.5097 155.902 -27.9128c-0.251488 -38.476 -0.902485 15.734 -0.902485 -81.0872h69v128c-53 24 -146 47 -220 47c-122 0 -216 -29 -216 -137s94 -133 209 -158c92 -22 187 -23 187 -93c0 -67 -68 -89 -151 -89
c-72.3292 0 -129.127 16.3485 -197 40.1769z" />
    <glyph glyph-name="scaron" unicode="&#x161;" horiz-adv-x="699" 
d="M60 802c73 -55 146 -111 219 -166h11h105h11c73 55 146 111 219 166h-116c-55.5 -41.8151 -111 -84.2082 -166.5 -126.3c-55.5 42.0922 -111 84.4853 -166.5 126.3h-116zM174 100.92v80.0797h-68v-132h2c89 -31 161 -54 250 -54c140 0 247 33 247 156
c0 121 -115 128 -242 156c-81 18 -158 32 -158 95c0 54 60 70 133 70c50.7745 0 110.643 -12.3414 155 -27.6012v-81.3988h69v128c-53 24 -146 47 -221 47c-122 0 -215 -29 -215 -137s93 -133 209 -158c92 -22 187 -23 187 -93c0 -67 -68 -89 -151 -89
c-72.0693 0 -128.719 16.2312 -197 39.9203z" />
    <glyph glyph-name="scedilla" unicode="&#x15f;" horiz-adv-x="648" 
d="M320.033 -43.2176c11.2613 14.3492 21.9632 27.9946 30.2039 38.5438c127.511 3.68941 222.763 39.6222 222.763 155.674c0 121 -115 128 -242 156c-81 18 -158 32 -158 95c0 54 60 70 133 70c51.1197 0 111.457 -12.5097 155.902 -27.9128
c-0.251488 -38.476 -0.902485 15.734 -0.902485 -81.0872h69v128c-53 24 -146 47 -220 47c-122 0 -216 -29 -216 -137s94 -133 209 -158c92 -22 187 -23 187 -93c0 -67 -68 -89 -151 -89c-72.3292 0 -129.127 16.3485 -197 40.1769v79.8231h-68v-132h2
c63.4338 -22.0949 118.232 -40.1259 177.066 -48.6618c-18.6381 -24.4481 -38.4951 -50.4292 -49.066 -64.3382l59 -52c14 7 25 9 41 9c27 0 47 -10 47 -35c0 -29 -29 -36 -63 -36c-31 0 -56 5 -92 19l-25 -50c40 -16 71 -24 114 -24c82 0 149 21 149 94
c0 61.8585 -48.9065 92.9241 -113.967 95.7824z" />
    <glyph glyph-name="scommaaccent" unicode="&#x219;" horiz-adv-x="648" 
d="M232 -323l155 203h-112l-131 -203h88zM142 101.177v79.8231h-68v-132h2c89 -31 161 -54 251 -54c139 0 246 33 246 156c0 121 -115 128 -242 156c-81 18 -158 32 -158 95c0 54 60 70 133 70c51.1197 0 111.457 -12.5097 155.902 -27.9128
c-0.251488 -38.476 -0.902485 15.734 -0.902485 -81.0872h69v128c-53 24 -146 47 -220 47c-122 0 -216 -29 -216 -137s94 -133 209 -158c92 -22 187 -23 187 -93c0 -67 -68 -89 -151 -89c-72.3292 0 -129.127 16.3485 -197 40.1769z" />
    <glyph glyph-name="section" unicode="&#xa7;" horiz-adv-x="675" 
d="M105 30c80 -41 144 -58 234 -58c122 0 223 35 223 144c-1.05331 52.6656 -26.2375 85.9155 -65.1812 108.807c61.8755 24.4695 103.181 65.2196 103.181 136.193c-1 122 -126 128 -254 156c-69 17 -135 32 -135 93c0 58 54 75 122 75
c53.8946 0 94.453 -6.0013 144 -22.36v-80.64h68v124c-72 29 -126 44 -204 44c-122 0 -216 -37 -216 -140c0 -51.7134 24.2126 -85.8727 62.3144 -110.137c-63.4123 -23.557 -107.314 -61.7467 -107.314 -132.863c0 -115 110 -133 231 -160c80 -20 165 -30 165 -94
c0 -57 -61 -75 -134 -75c-63.0823 0 -109.736 8.96087 -169 32.6902v84.3098h-68v-125zM399.867 260.393c-11.0341 2.68618 -22.3542 5.19447 -33.8666 7.60659c-96 24 -200 25 -200 105c0 55.5075 45.9427 76.011 105.445 91.4025
c10.2465 -2.98619 20.7921 -5.76671 31.5549 -8.4025c98 -25 211 -20 211 -99c0 -57.8832 -49.2611 -83.3947 -114.133 -96.6066z" />
    <glyph glyph-name="semicolon" unicode=";" horiz-adv-x="454" 
d="M178 -99c101 116 53 65 154 181h-111c-79 -115 -51 -65 -130 -181h87zM217 403h103c0 29 -23 43 -53 43c-29 0 -50 -16 -50 -43zM217 403h103c0 -30 -23 -42 -53 -42s-50 15 -50 42z" />
    <glyph glyph-name="seven" unicode="7" horiz-adv-x="746" 
d="M673 722h-597v-66v-120h68v120h475.797c-492.215 -610.602 33.2962 41.5376 -528.797 -656h101c526 656 0 0 527 656v66h-46z" />
    <glyph glyph-name="six" unicode="6" horiz-adv-x="780" 
d="M171.064 352.684c58.1743 181.553 277.113 254.852 520.936 311.316c-8.05116 29.9682 -8.89997 33.1277 -8.89997 33.4607c0 0.411599 0 1.6156 -8.10003 33.5393c-335 -67 -603 -168 -603 -484c0 -175 141 -255 332 -255c171 0 297 67 297 222c0 154 -127 216 -296 216
c-99.4916 0 -170.192 -24.6118 -233.936 -77.3163zM156.048 246.333c56.7775 84.1404 138.443 113.667 240.952 113.667c123 0 216 -39 216 -149c0 -104 -90 -142 -205 -142c-142.238 0 -249.351 52.6862 -251.952 177.333z" />
    <glyph glyph-name="slash" unicode="/" horiz-adv-x="748" 
d="M135 -40c188 284 377 568 565 853h-87c-188 -285 -376 -569 -565 -853h87z" />
    <glyph glyph-name="softhyphen" horiz-adv-x="589" 
d="M101 242h387v72h-387v-72z" />
    <glyph glyph-name="space" unicode=" " horiz-adv-x="240" 
 />
    <glyph glyph-name="sterling" unicode="&#xa3;" horiz-adv-x="684" 
d="M616 668c-64 39 -115 53 -188 53c-148.197 0 -243.351 -104.097 -243.351 -248.043c0 -20.5679 1.94271 -41.9494 5.95098 -63.9571h-87.5995v-65h103.308c6.48354 -29.175 9.66214 -57.4195 9.66214 -84.0178c0 -112.117 -56.4771 -194.982 -159.97 -194.982v-65h535v65
h-361.577c48.1432 47.0538 74.1293 116.394 74.1293 197.081c0 26.2322 -2.74664 53.6637 -8.37151 81.9186h233.819v65h-249.352c-4.38655 22.2786 -6.50647 43.8825 -6.50647 64.4485c0 106.761 57.1273 185.552 150.858 185.552c58 0 99 -12 151 -41c41 50 1 0 41 50z
" />
    <glyph glyph-name="summation" unicode="&#x2211;" horiz-adv-x="703" 
d="M566 379l-386.387 278h364.387v-79h78v144h-556v-65l386 -280l-395 -312v-65h565v146h-78v-81h-377.024z" />
    <glyph glyph-name="t" unicode="t" horiz-adv-x="567" 
d="M504 86c-41 -16 -72 -23 -116 -23c-70 0 -112 27 -112 97v307h247v66h-247v123l-86 -42v-81h-161v-66h161v-310c0 -113 75 -162 190 -162c60 0 101 14 147 33z" />
    <glyph glyph-name="tcaron" unicode="&#x165;" horiz-adv-x="560" 
d="M301 -332l155 203h-112l-131 -203h88zM504 86c-41 -16 -72 -23 -116 -23c-70 0 -112 27 -112 97v308h247v65h-247v123l-86 -42v-81h-161v-65h161v-311c0 -113 75 -162 190 -162c60 0 101 14 147 33z" />
    <glyph glyph-name="tcedilla" horiz-adv-x="566" 
d="M308 -118c13 7 25 9 40 9c27 0 48 -10 48 -35c0 -30 -29 -37 -63 -37c-32 0 -57 6 -92 20l-25 -50c39 -16 71 -25 113 -25c83 0 149 22 149 94c0 62.6513 -47.7583 92.8631 -113.336 95.7675c12.5617 15.7633 24.4064 30.7083 32.9796 41.6527
c50.6899 2.46241 87.9074 15.5012 128.357 32.5798l-22 58c-42 -16 -72 -23 -116 -23c-70 0 -112 27 -112 97v308h247v65h-247v123l-87 -42v-81h-161v-65h161v-311c0 -85.3905 42.8275 -134.235 113.811 -153.006c-20.1871 -26.144 -42.8896 -55.4323 -53.8112 -69.9944
l58 -52c0.138126 0.169518 0.277434 0.340534 0.41791 0.513029z" />
    <glyph glyph-name="tcommaaccent" unicode="&#x163;" horiz-adv-x="567" 
d="M301 -332l155 203h-112l-131 -203h88zM504 86c-41 -16 -72 -23 -116 -23c-70 0 -112 27 -112 97v289h247v65h-247v142l-86 -42v-100h-161v-65h161v-292c0 -113 75 -162 190 -162c60 0 101 14 147 33z" />
    <glyph glyph-name="thorn" unicode="&#xfe;" horiz-adv-x="844" 
d="M211 476.47v323.53h-43h-44h-152v-66h152v-968h-154v-65h154v-1h43h44h140v66l-140 -0.76087v292.408c73.7706 -44.7011 145.176 -62.647 238 -62.647c182 0 319 99 318 278c0 166 -132 266 -315 266c-91.8542 0 -176.499 -26.2632 -241 -62.5298zM211 132.987v269.552
c55.2824 39.2105 142.711 70.4609 237 70.4609c139 0 233 -78 233 -203c0.0439014 -1.9902 0.0657455 -3.96733 0.0657455 -5.93135c0 -130.502 -96.4443 -203.108 -226.817 -203.108c-1.74363 0 -3.49333 0.012987 -5.24895 0.0389962
c-93.0982 0 -155.245 21.2238 -238 71.9875z" />
    <glyph glyph-name="three" unicode="3" horiz-adv-x="728" 
d="M133 594c42 34 116 63 192 63c112 0 200 -20 200 -120c0 -102 -108 -126 -218 -126v-56c128 0 262 -27 262 -151c0 -119 -121 -139 -240 -139c-69 0 -133 14 -210 47c-47 -54 -48 -54 -48 -54c77 -40 156 -63 254 -63c184 0 327 43 327 212
c0 97.8117 -57.1023 152.701 -147.108 180.326c62.7904 27.5951 103.108 75.3808 103.108 152.674c0 141 -121 187 -277 187c-102 0 -196 -37 -253 -91z" />
    <glyph glyph-name="threequarters" unicode="&#xbe;" horiz-adv-x="1288" 
d="M59 331c53 -23 104 -37 160 -37c7.34158 -0.168128 14.6141 -0.257736 21.8016 -0.257736c121.064 0 218.03 25.4224 215.198 129.258c0 56.5204 -27.9694 84.8701 -71.8132 99.13c31.5672 18.0001 50.8132 46.534 50.8132 91.87c0 94 -88 118 -196 118
c-65 0 -126 -20 -174 -57l38 -47c41 30 86 42 127 42c65 0 119 -9 119 -61c0 -63 -92 -61 -176 -64v-8v-46v-2c100 -3 196 3 196 -66c0 -56.1679 -55.1099 -68.2478 -123.173 -68.2478c-5.85543 0 -11.8067 0.0894048 -17.8271 0.247834c-44 0 -85 7 -135 26zM416 -65
l566 797h-82l-565 -796zM1060 -74h44h153v60h-153v69h109v62h-109v253v4h-87l-272 -257l31 -62h241v-69h-153v-60h153h43zM1017 286.448v-169.448h-176.441z" />
    <glyph glyph-name="threesuperior" unicode="&#xb3;" horiz-adv-x="588" 
d="M98 305c53 -23 104 -36 160 -36c9.2804 -0.283371 18.4504 -0.436256 27.478 -0.436256c118.404 0 212.31 26.2998 209.522 129.436c0 55.9918 -27.8897 84.0939 -71.6257 98.2371c31.4559 18.0061 50.6257 46.5167 50.6257 91.7629c0 95 -88 118 -196 118
c-65 0 -126 -20 -174 -57l37 -47c41 30 87 42 128 42c65 0 119 -9 119 -61c0 -63 -92 -61 -176 -64v-8v-46v-2c100 -3 196 3 196 -66c0 -56.1679 -55.1099 -68.2478 -123.173 -68.2478c-5.85543 0 -11.8067 0.0894048 -17.8271 0.247834c-44 0 -85 8 -135 26z" />
    <glyph glyph-name="tilde" unicode="&#x2dc;" horiz-adv-x="700" 
d="M490 726c-17 -50 -39 -89 -82 -89c-42 0 -70 13 -103 40c-45 36 -80 54 -136 54c-84 0 -134 -47 -158 -129c65 -29 1 -1 66 -29c18 55 46 90 95 90c37 0 60 -17 89 -41c46 -37 85 -54 145 -54c81 0 124 52 152 131c-30.0042 12.0913 -33.1352 13.1524 -33.5517 13.1524
c-0.513592 0 -0.81849 0 -34.4483 13.8476z" />
    <glyph glyph-name="trademark" unicode="&#x2122;" horiz-adv-x="1308" 
d="M845 283h62h6c27.6287 86.7233 57.0243 174.036 85.0227 261.937c14.7543 -75.0885 29.1991 -150.735 44.1368 -225.937h-68.1596v-54h79h157v54h-95c-21.2576 102.591 -45.9321 204.328 -67.7074 306h97.7074v53h-170
c-32.6908 -99.5929 -65.9596 -200.342 -98.9276 -300.489c-32.6908 100.147 -65.3816 200.896 -98.0724 300.489h-166v-54h92.7908c-20.6851 -102.189 -43.5878 -203.594 -64.7908 -305h72.3878c13.8539 73.0023 27.0523 146.05 40.8932 219.329
c28.5742 -85.3908 57.9891 -170.641 85.7189 -255.329h6zM712.388 319c-3.41627 -18.0019 -6.87239 -36.0009 -10.3878 -54h82v54h-71.6122zM300 625h71h130v-54h65v107h-195v1l-1.31481 -1h-279.685v-107h65v54h145zM371 678h-1.31481l-69.6852 -53v-306h-90v-54h90h157v54
h-86v306zM371 319h-71z" />
    <glyph glyph-name="turkishlira" horiz-adv-x="1035" 
d="M893 352c0 -202 -138 -286 -355 -286h-229v233h338v69h-338v108h338v69h-338v111h153v66h-153h-41h-2h-44h-151v-66h151v-111h-114v-69h114v-108h-114v-69h114v-233h-151v-66h151h46h41h222c272 0 448 100 448 352h-86z" />
    <glyph glyph-name="two" unicode="2" horiz-adv-x="774" 
d="M138 535c70 82 138 122 238 122c111 0 195 -38 195 -142c0 -124 -99 -180 -213 -252c-99 -66 -199 -132 -298 -197v-66h6h623v66v120h-68v-120l-432.501 -2.84217e-14c82.6268 48.3731 152.385 96.9224 224.501 145c134 83 239 151 239 307c0 148 -113 209 -272 209
c-130 0 -229 -48 -300 -151z" />
    <glyph glyph-name="twosuperior" unicode="&#xb2;" horiz-adv-x="652" 
d="M177 579c36 46 81 64 139 64c65 0 117 -18 117 -70c0 -49 -42 -67 -85 -94c-85 -47 -170 -93 -255 -139v-66h457v136h-64v-70h-255.977c57.1556 29.6674 109.08 58.3337 159.977 87c69 43 129 73 129 149c0 96 -86 132 -193 132c-91 0 -158 -20 -210 -88z" />
    <glyph glyph-name="u" unicode="u" horiz-adv-x="893" 
d="M651 169.187c-50.7043 -62.5512 -131.108 -108.187 -214 -108.187c-110 0 -184 40 -184 142v330h-43h-44h-153v-66h153v-268c0 -147 106 -204 264 -204c84.3901 0 163.665 35.8028 221 92.0453v-87.0453h43h44h140v66h-140v467h-44h-43h-153v-66h153v-297.813z" />
    <glyph glyph-name="uacute" unicode="&#xfa;" horiz-adv-x="893" 
d="M397 639c73 56 146 111 219 166h-115c-74 -55 -147 -111 -219 -166h115zM651 169.187c-50.7043 -62.5512 -131.108 -108.187 -214 -108.187c-110 0 -184 40 -184 142v330h-43h-44h-153v-66h153v-268c0 -147 106 -204 264 -204c84.3901 0 163.665 35.8028 221 92.0453
v-87.0453h43h44h140v66h-140v467h-44h-43h-153v-66h153v-297.813z" />
    <glyph glyph-name="ucircumflex" unicode="&#xfb;" horiz-adv-x="893" 
d="M717 640c-72 55 -145 111 -218 166h-12h-104h-11c-74 -55 -147 -111 -219 -166h115c55.6667 41.9406 111.333 84.4628 167 126.68c55.6667 -42.2168 111.333 -84.7389 167 -126.68h115zM651 169.187c-50.7043 -62.5512 -131.108 -108.187 -214 -108.187
c-110 0 -184 40 -184 142v330h-43h-44h-153v-66h153v-268c0 -147 106 -204 264 -204c84.3901 0 163.665 35.8028 221 92.0453v-87.0453h43h44h140v66h-140v467h-44h-43h-153v-66h153v-297.813z" />
    <glyph glyph-name="udieresis" unicode="&#xfc;" horiz-adv-x="893" 
d="M482 668h107c0 -30 -23 -44 -55 -44c-31 0 -52 16 -52 44zM482 668h107c0 30 -23 45 -55 45c-31 0 -52 -16 -52 -45zM284 668h107c0 -30 -23 -44 -55 -44s-52 16 -52 44zM284 668h107c0 30 -23 45 -55 45c-31 0 -52 -16 -52 -45zM651 169.187
c-50.7043 -62.5512 -131.108 -108.187 -214 -108.187c-110 0 -184 40 -184 142v330h-43h-44h-153v-66h153v-268c0 -147 106 -204 264 -204c84.3901 0 163.665 35.8028 221 92.0453v-87.0453h43h44h140v66h-140v467h-44h-43h-153v-66h153v-297.813z" />
    <glyph glyph-name="ugrave" unicode="&#xf9;" horiz-adv-x="893" 
d="M580 639c-72 55 -146 111 -219 166h-115c73 -56 145 -111 218 -166h116zM651 169.187c-50.7043 -62.5512 -131.108 -108.187 -214 -108.187c-110 0 -184 40 -184 142v330h-43h-44h-153v-66h153v-268c0 -147 106 -204 264 -204c84.3901 0 163.665 35.8028 221 92.0453
v-87.0453h43h44h140v66h-140v467h-44h-43h-153v-66h153v-297.813z" />
    <glyph glyph-name="uhungarumlaut" unicode="&#x171;" horiz-adv-x="893" 
d="M547 580l155 204h-112l-131 -204h88zM346 580l155 204h-112l-131 -204h88zM651 169.187c-50.7043 -62.5512 -131.108 -108.187 -214 -108.187c-110 0 -184 40 -184 142v330h-43h-44h-153v-66h153v-268c0 -147 106 -204 264 -204c84.3901 0 163.665 35.8028 221 92.0453
v-87.0453h43h44h140v66h-140v467h-44h-43h-153v-66h153v-297.813z" />
    <glyph glyph-name="umacron" unicode="&#x16b;" horiz-adv-x="893" 
d="M580 703h-299v-65h299v65zM651 169.187c-50.7043 -62.5512 -131.108 -108.187 -214 -108.187c-110 0 -184 40 -184 142v330h-43h-44h-153v-66h153v-268c0 -147 106 -204 264 -204c84.3901 0 163.665 35.8028 221 92.0453v-87.0453h43h44h140v66h-140v467h-44h-43h-153
v-66h153v-297.813z" />
    <glyph glyph-name="underscore" unicode="_" horiz-adv-x="920" 
d="M7 -196h905v65h-905v-65z" />
    <glyph glyph-name="uogonek" unicode="&#x173;" horiz-adv-x="893" 
d="M651 169.187c-50.7043 -62.5512 -131.108 -108.187 -214 -108.187c-110 0 -184 40 -184 142v330h-43h-44h-153v-66h153v-268c0 -147 106 -204 264 -204c84.3901 0 163.665 35.8028 221 92.0453v-45.2569c-60.6156 -19.7583 -109 -41.9929 -109 -105.788
c0 -75 60 -112 141 -112c46 0 76 12 118 30c-39 52 0 0 -40 52c-25 -11 -43 -19 -70 -19c-38 0 -66 16 -66 50c0 38.1964 32.6809 50.1314 71.2935 63h41.7065h140v66h-140v467h-44h-43h-153v-66h153v-297.813z" />
    <glyph glyph-name="uring" unicode="&#x16f;" horiz-adv-x="893" 
d="M337 764c0 50 42 72 96 72c59 0 105 -18 105 -72c0 -52 -45 -71 -102 -71c-56 0 -99 20 -99 71zM259 764c0 -90 77 -131 177 -131c102 0 180 39 180 131c0 94 -79 132 -183 132c-99 0 -174 -41 -174 -132zM651 169.187
c-50.7043 -62.5512 -131.108 -108.187 -214 -108.187c-110 0 -184 40 -184 142v330h-43h-44h-153v-66h153v-268c0 -147 106 -204 264 -204c84.3901 0 163.665 35.8028 221 92.0453v-87.0453h43h44h140v66h-140v467h-44h-43h-153v-66h153v-297.813z" />
    <glyph glyph-name="v" unicode="v" horiz-adv-x="934" 
d="M461.161 77.757c-66.667 129.866 -133.712 259.354 -200.356 389.243h140.195v66h-174h-22h-67h-130v-66h163.847c80.1255 -155.796 161.407 -311.014 241.153 -467h6h82h6c84.1273 155.986 168.255 311.204 253.055 467h164.945v66h-129h-67h-21h-176v-66h140.214z" />
    <glyph glyph-name="w" unicode="w" horiz-adv-x="1358" 
d="M975 0h1c73.6114 155.986 147.223 311.204 220.834 467h152.166v66h-121h-75h-14h-183v-66h152.207c-58.3939 -125.101 -116.726 -249.829 -174.649 -374.881c-66.2122 147.031 -132.543 293.614 -199.558 440.881h-6h-81h-8
c-74.1667 -148.333 -147.639 -295.972 -221.574 -444.074c-56.2602 126.122 -112.856 251.909 -169.073 378.074h152.647v66h-182h-14h-75h-122v-66h152.009c70.779 -155.796 140.885 -311.014 210.991 -467h2h84h1c76.5485 149.732 151.682 298.757 227.186 448.264
c67.5413 -149.507 135.678 -298.532 203.814 -448.264h2h84z" />
    <glyph glyph-name="x" unicode="x" horiz-adv-x="924" 
d="M409.331 278.717c-75.1523 -70.8704 -150.395 -141.734 -225.538 -212.717h-171.793v-66h102h95h17h180v66h-111.518c55.7497 53.8196 111.442 107.778 167.16 161.762c55.307 -53.8887 110.575 -107.791 165.831 -161.762h-109.472v-66h177h19h90h107v66h-175.683
c-73.7652 70.7988 -147.669 141.478 -221.649 212.165c65.0597 63.0152 130.19 126.019 195.525 188.835h184.808v66h-116h-81h-19h-177v-66h107.533c-48.9056 -46.3839 -97.9222 -92.7165 -146.996 -139.033c-48.489 46.3169 -97.0043 92.6496 -145.528 139.033h106.992v66
h-176h-21h-13h-65h-118v-66h183h2.85322c64.5872 -62.8257 129.065 -125.557 193.477 -188.283z" />
    <glyph glyph-name="y" unicode="y" horiz-adv-x="929" 
d="M408.284 76.8541c-67.1795 -103.57 -134.359 -207.154 -201.539 -310.854h-177.745v-66h135h60h30c165.752 255.994 331.503 511.14 497.255 767h164.745v66h-122h-75h-15h-181v-66h138.255c-70.3326 -108.568 -140.665 -217.007 -210.998 -325.438
c-61.5085 108.113 -123.669 217.315 -187.205 325.438h146.948v66h-186h-10h-80h-117v-66h157.003c78.613 -130.049 156.093 -260.097 234.281 -390.146z" />
    <glyph glyph-name="yacute" unicode="&#xfd;" horiz-adv-x="929" 
d="M418 640c73 56 146 111 219 166h-116c-73 -55 -146 -111 -219 -166h116zM408.284 76.8541c-67.1795 -103.57 -134.359 -207.154 -201.539 -310.854h-177.745v-66h135h60h30c165.752 255.994 331.503 511.14 497.255 767h164.745v66h-122h-75h-15h-181v-66h138.255
c-70.3326 -108.568 -140.665 -217.007 -210.998 -325.438c-61.5085 108.113 -123.669 217.315 -187.205 325.438h146.948v66h-186h-10h-80h-117v-66h157.003c78.613 -130.049 156.093 -260.097 234.281 -390.146z" />
    <glyph glyph-name="ydieresis" unicode="&#xff;" horiz-adv-x="929" 
d="M502 670h108c0 29 -23 44 -55 44c-31 0 -53 -16 -53 -44zM502 670h108c0 -31 -23 -45 -56 -45c-31 0 -52 16 -52 45zM304 670h108c0 29 -24 44 -55 44c-32 0 -53 -16 -53 -44zM304 670h108c0 -31 -24 -45 -56 -45c-31 0 -52 16 -52 45zM408.284 76.8541
c-67.1795 -103.57 -134.359 -207.154 -201.539 -310.854h-177.745v-66h135h60h30c165.752 255.994 331.503 511.14 497.255 767h164.745v66h-122h-75h-15h-181v-66h138.255c-70.3326 -108.568 -140.665 -217.007 -210.998 -325.438
c-61.5085 108.113 -123.669 217.315 -187.205 325.438h146.948v66h-186h-10h-80h-117v-66h157.003c78.613 -130.049 156.093 -260.097 234.281 -390.146z" />
    <glyph glyph-name="yen" unicode="&#xa5;" horiz-adv-x="1089" 
d="M537.73 386.749c-71.7655 90.0837 -143.174 180.167 -214.906 270.251h114.176v65h-166h-31h-63h-134v-65h186.633c70.995 -87.3333 142.98 -174.667 214.404 -262h-203.037v-71h252v-62h-252v-72h252v-124h-154v-65h154v-1h43h43h154v66l-154 -0.781726v124.782h255v72
h-255v62h255v71h-202.065c80.2838 87.6486 161.369 174.854 242.107 262h171.958v65h-197h-196v-65h127.828c-81.3892 -89.9305 -162.282 -180.293 -243.098 -270.251z" />
    <glyph glyph-name="z" unicode="z" horiz-adv-x="714" 
d="M85 500v-33v-87h69v87h352.33c-111.392 -104.115 -3.74971 -2.77363 -441.33 -401v-66h587v33v33v87h-68v-87h-402.506c111.696 105.101 3.94442 2.56373 445.506 401v66h-542v-33z" />
    <glyph glyph-name="zacute" unicode="&#x17a;" horiz-adv-x="714" 
d="M313 640c73 56 146 111 219 166h-115c-74 -55 -147 -111 -219 -166h115zM85 500v-33v-87h69v87h352.33c-111.392 -104.115 -3.74971 -2.77363 -441.33 -401v-66h587v33v33v87h-68v-87h-402.506c111.696 105.101 3.94442 2.56373 445.506 401v66h-542v-33z" />
    <glyph glyph-name="zcaron" unicode="&#x17e;" horiz-adv-x="722" 
d="M77 803c73 -55 146 -111 219 -166h11h105h11c73 55 146 111 219 166h-116c-55.5 -41.8151 -111 -84.2082 -166.5 -126.3c-55.5 42.0922 -111 84.4853 -166.5 126.3h-116zM94 500v-33v-87h68v87h353.33c-111.395 -104.115 -3.81245 -2.77363 -442.33 -401v-66h588v33v33
v87h-68v-87h-403.341c112.414 105.101 3.84188 2.56373 446.341 401v66h-542v-33z" />
    <glyph glyph-name="zdotaccent" unicode="&#x17c;" horiz-adv-x="714" 
d="M299 670h107c0 -30 -23 -44 -55 -44c-31 0 -52 15 -52 44zM299 670h107c0 30 -23 45 -55 45c-31 0 -52 -17 -52 -45zM85 500v-33v-87h69v87h352.33c-111.392 -104.115 -3.74971 -2.77363 -441.33 -401v-66h587v33v33v87h-68v-87h-402.506
c111.696 105.101 3.94442 2.56373 445.506 401v66h-542v-33z" />
    <glyph glyph-name="zero" unicode="0" horiz-adv-x="957" 
d="M80 360c0 -235 158 -365 400 -365c241 0 396 132 396 368c0 234 -153 364 -392 364c-245 0 -404 -130 -404 -367zM164 360c0 189 120 298 313 298s315 -107 315 -296c0 -188 -118 -297 -308 -297c-195 0 -320 105 -320 295z" />
    </font>
</defs>
</svg>
